<svg width="24" height="24" viewBox="0 0 24 24" fill="none" xmlns="http://www.w3.org/2000/svg">
<path fill-rule="evenodd" clip-rule="evenodd" d="M11.8191 8.05824C11.9285 8.01772 12.0149 7.9314 12.0554 7.82191L13.6421 3.53389C13.771 3.18564 14.2635 3.18564 14.3924 3.53389L15.9791 7.82191C16.0196 7.9314 16.1059 8.01772 16.2154 8.05824L20.5034 9.64495C20.8517 9.77381 20.8517 10.2664 20.5034 10.3952L16.2154 11.9819C16.1059 12.0225 16.0196 12.1088 15.9791 12.2183L14.3924 16.5063C14.2635 16.8545 13.771 16.8545 13.6421 16.5063L12.0554 12.2183C12.0149 12.1088 11.9285 12.0225 11.8191 11.9819L7.53104 10.3952C7.18279 10.2664 7.1828 9.77381 7.53104 9.64495L11.8191 8.05824ZM5.53086 15.7859C5.64035 15.7454 5.72668 15.659 5.76719 15.5495L6.62241 13.2384C6.75127 12.8901 7.24382 12.8901 7.37269 13.2384L8.2279 15.5495C8.26842 15.659 8.35474 15.7454 8.46423 15.7859L10.7754 16.6411C11.1237 16.7699 11.1237 17.2625 10.7754 17.3914L8.46423 18.2466C8.35474 18.2871 8.26842 18.3734 8.2279 18.4829L7.37269 20.7941C7.24382 21.1423 6.75127 21.1423 6.62241 20.7941L5.76719 18.4829C5.72668 18.3734 5.64035 18.2871 5.53086 18.2466L3.21968 17.3914C2.87143 17.2625 2.87143 16.7699 3.21968 16.6411L5.53086 15.7859ZM5.83818 3.53462C5.70932 3.18638 5.21676 3.18638 5.0879 3.53462L4.7166 4.53805C4.67608 4.64754 4.58976 4.73386 4.48027 4.77438L3.47684 5.14568C3.1286 5.27454 3.1286 5.7671 3.47684 5.89596L4.48027 6.26726C4.58976 6.30778 4.67608 6.3941 4.7166 6.50359L5.0879 7.50702C5.21676 7.85527 5.70932 7.85527 5.83818 7.50702L6.20948 6.50359C6.25 6.3941 6.33632 6.30778 6.44581 6.26726L7.44924 5.89596C7.79749 5.7671 7.79749 5.27454 7.44924 5.14568L6.44581 4.77438C6.33632 4.73386 6.25 4.64754 6.20948 4.53805L5.83818 3.53462Z" fill="black"/>
</svg>
