<?xml version="1.0" encoding="utf-8"?>
<!--
  Copyright 2023-2025 Solace Systems. All rights reserved.

  Licensed under the Apache License, Version 2.0 (the "License");
  you may not use this file except in compliance with the License.
  You may obtain a copy of the License at

      http://www.apache.org/licenses/LICENSE-2.0

  Unless required by applicable law or agreed to in writing, software
  distributed under the License is distributed on an "AS IS" BASIS,
  WITHOUT WARRANTIES OR CONDITIONS OF ANY KIND, either express or implied.
  See the License for the specific language governing permissions and
  limitations under the License.
-->
<svg width="24" height="24" viewBox="0 0 24 24" fill="none" xmlns="http://www.w3.org/2000/svg">
<path fill-rule="evenodd" clip-rule="evenodd" d="M11.7172 7.9647C11.8307 7.92267 11.9202 7.83311 11.9623 7.71952L13.6078 3.27096C13.7415 2.90968 14.2523 2.90968 14.386 3.27096L16.0315 7.71952C16.0736 7.83311 16.1631 7.92267 16.2766 7.9647L20.7238 9.61081C21.0849 9.7445 21.0849 10.2555 20.7238 10.3892L16.2766 12.0353C16.1631 12.0773 16.0736 12.1669 16.0315 12.2805L14.386 16.729C14.2523 17.0903 13.7415 17.0903 13.6078 16.729L11.9623 12.2805C11.9202 12.1669 11.8307 12.0773 11.7172 12.0353L7.27006 10.3892C6.90889 10.2555 6.90889 9.7445 7.27006 9.61081L11.7172 7.9647ZM5.54068 15.7815C5.64904 15.7414 5.73448 15.6559 5.77458 15.5475L6.62105 13.2587C6.74859 12.9138 7.23611 12.9138 7.36365 13.2587L8.21012 15.5475C8.25022 15.6559 8.33566 15.7414 8.44403 15.7815L10.7316 16.6285C11.0762 16.7561 11.0762 17.2439 10.7316 17.3715L8.44403 18.2185C8.33566 18.2586 8.25022 18.3441 8.21012 18.4525L7.36365 20.7413C7.23611 21.0862 6.74859 21.0862 6.62105 20.7413L5.77458 18.4525C5.73448 18.3441 5.64904 18.2586 5.54068 18.2185L3.25314 17.3715C2.90846 17.2439 2.90846 16.7561 3.25314 16.6285L5.54068 15.7815ZM5.83526 3.53462C5.70647 3.18638 5.2142 3.18638 5.08541 3.53462L4.71432 4.53805C4.67383 4.64754 4.58755 4.73386 4.47812 4.77438L3.47527 5.14568C3.12722 5.27454 3.12722 5.7671 3.47527 5.89596L4.47812 6.26726C4.58755 6.30778 4.67383 6.3941 4.71432 6.50359L5.08541 7.50702C5.2142 7.85527 5.70647 7.85527 5.83526 7.50702L6.20635 6.50359C6.24684 6.3941 6.33312 6.30778 6.44254 6.26726L7.4454 5.89596C7.79345 5.7671 7.79345 5.27454 7.4454 5.14568L6.44254 4.77438C6.33312 4.73386 6.24684 4.64754 6.20635 4.53805L5.83526 3.53462Z" fill="black"/>
</svg>