<!--
 Copyright 2023-2025 Solace Systems. All rights reserved.

 Licensed under the Apache License, Version 2.0 (the "License");
 you may not use this file except in compliance with the License.
 You may obtain a copy of the License at

     http://www.apache.org/licenses/LICENSE-2.0

 Unless required by applicable law or agreed to in writing, software
 distributed under the License is distributed on an "AS IS" BASIS,
 WITHOUT WARRANTIES OR CONDITIONS OF ANY KIND, either express or implied.
 See the License for the specific language governing permissions and
 limitations under the License.
-->
<?xml version="1.0" encoding="utf-8"?>
<!-- Generator: Adobe Illustrator 25.4.1, SVG Export Plug-In . SVG Version: 6.00 Build 0)  -->
<svg version="1.1" id="Layer_1" xmlns="http://www.w3.org/2000/svg" xmlns:xlink="http://www.w3.org/1999/xlink" x="0px" y="0px"
	 viewBox="0 0 24 24" style="enable-background:new 0 0 24 24;" xml:space="preserve">
<path d="M13.51,4c-0.11,0-0.21,0.03-0.3,0.09L7.5,8H2.4C2.13,8,2,8.12,2,8.38v6.09C2,14.74,2.18,15,2.45,15H5v5.6
	C5,20.82,5.18,21,5.4,21h1.2C6.82,21,7,20.82,7,20.6V15h0.5l5.71,3.89c0.1,0.07,0.2,0.11,0.31,0.11c0.25,0,0.48-0.19,0.48-0.46V4.45
	C14,4.17,13.76,4,13.51,4z M12,15.24L8.5,13H4v-3h4.5L12,7.76V15.24z M14.5,15V8c0.928,0,2,1.575,2,3.5S15.428,15,14.5,15z M18.4,10
	H21.6c0.221,0,0.4,0.181,0.4,0.403v1.193C22,11.819,21.821,12,21.6,12H18.4c-0.221,0-0.4-0.181-0.4-0.403v-1.193
	C18,10.181,18.179,10,18.4,10z M18.621,15.207l2.262,2.262c0.156,0.156,0.155,0.411-0.002,0.568l-0.844,0.844
	c-0.158,0.158-0.412,0.158-0.568,0.002l-2.262-2.262c-0.156-0.156-0.155-0.411,0.002-0.568l0.844-0.844
	C18.21,15.052,18.465,15.051,18.621,15.207z M17.207,5.379l2.262-2.262c0.156-0.156,0.411-0.155,0.568,0.002l0.844,0.844
	c0.158,0.158,0.158,0.412,0.002,0.568l-2.262,2.262c-0.156,0.156-0.411,0.155-0.568-0.002l-0.844-0.844
	C17.052,5.79,17.051,5.535,17.207,5.379z"/>
</svg>
