<?xml version="1.0" encoding="utf-8"?>
<!--
  Copyright 2023-2025 Solace Systems. All rights reserved.

  Licensed under the Apache License, Version 2.0 (the "License");
  you may not use this file except in compliance with the License.
  You may obtain a copy of the License at

      http://www.apache.org/licenses/LICENSE-2.0

  Unless required by applicable law or agreed to in writing, software
  distributed under the License is distributed on an "AS IS" BASIS,
  WITHOUT WARRANTIES OR CONDITIONS OF ANY KIND, either express or implied.
  See the License for the specific language governing permissions and
  limitations under the License.
-->
<svg width="24" height="24" viewBox="0 0 24 24" fill="none" xmlns="http://www.w3.org/2000/svg">
<g clip-path="url(#clip0_11380_43418)">
<path d="M4 6.4C4 6.17909 4.17909 6 4.4 6H7.6C7.82091 6 8 6.17909 8 6.4V17.6C8 17.8209 7.82091 18 7.6 18H4.4C4.17909 18 4 17.8209 4 17.6V6.4Z" fill="black"/>
<path d="M3 19.4C3 19.1791 3.17909 19 3.4 19H20.6C20.8209 19 21 19.1791 21 19.4V20.6C21 20.8209 20.8209 21 20.6 21H3.4C3.17909 21 3 20.8209 3 20.6V19.4Z" fill="black"/>
<path d="M10 3.4C10 3.17909 10.1791 3 10.4 3H13.6C13.8209 3 14 3.17909 14 3.4V17.6C14 17.8209 13.8209 18 13.6 18H10.4C10.1791 18 10 17.8209 10 17.6V3.4Z" fill="black"/>
<path d="M16 9.4C16 9.17909 16.1791 9 16.4 9H19.6C19.8209 9 20 9.17909 20 9.4V17.6C20 17.8209 19.8209 18 19.6 18H16.4C16.1791 18 16 17.8209 16 17.6V9.4Z" fill="black"/>
</g>
<defs>
<clipPath id="clip0_11380_43418">
<rect width="24" height="24" fill="white"/>
</clipPath>
</defs>
</svg>