<?xml version="1.0" encoding="utf-8"?>
<!--
  Copyright 2023-2025 Solace Systems. All rights reserved.

  Licensed under the Apache License, Version 2.0 (the "License");
  you may not use this file except in compliance with the License.
  You may obtain a copy of the License at

      http://www.apache.org/licenses/LICENSE-2.0

  Unless required by applicable law or agreed to in writing, software
  distributed under the License is distributed on an "AS IS" BASIS,
  WITHOUT WARRANTIES OR CONDITIONS OF ANY KIND, either express or implied.
  See the License for the specific language governing permissions and
  limitations under the License.
-->
<svg width="24" height="24" viewBox="0 0 24 24" fill="none" xmlns="http://www.w3.org/2000/svg">
<g clip-path="url(#clip0_11380_43537)">
<path fill-rule="evenodd" clip-rule="evenodd" d="M2 9.84143V8.60068C3.14637 7.61725 3.75584 6.31554 4 5.38087V4.4C4 4.17909 4.17909 4 4.4 4H5.6C5.82091 4 6 4.17909 6 4.4V5.38087C6.44445 7.08231 8.09946 10 12 10C15.9005 10 17.5555 7.08231 18 5.38087V4.4C18 4.17909 18.1791 4 18.4 4H19.6C19.8209 4 20 4.17909 20 4.4V5.38087C20.2442 6.31554 20.8536 7.61725 22 8.60068V9.84143C21.1317 9.25282 20.4766 8.50146 20 7.73663V13H22V15H20V18H20.6C20.8209 18 21 18.1791 21 18.4V19.6C21 19.8209 20.8209 20 20.6 20H17.4C17.1791 20 17 19.8209 17 19.6V18.4C17 18.1791 17.1791 18 17.4 18H18V15H6V18H6.6C6.82091 18 7 18.1791 7 18.4V19.6C7 19.8209 6.82091 20 6.6 20H3.4C3.17909 20 3 19.8209 3 19.6V18.4C3 18.1791 3.17909 18 3.4 18H4V15H2V13H4V7.73663C3.52338 8.50146 2.86827 9.25282 2 9.84143ZM12.5 10.9856V13H15V10.397C14.2818 10.7166 13.4524 10.93 12.5 10.9856ZM16 9.84143V13H18V7.73663C17.5234 8.50146 16.8683 9.25282 16 9.84143ZM11.5 13V10.9856C10.5476 10.93 9.71823 10.7166 9 10.397V13H11.5ZM6 7.73663C6.47662 8.50146 7.13173 9.25282 8 9.84143V13H6V7.73663Z" fill="black"/>
</g>
<defs>
<clipPath id="clip0_11380_43537">
<rect width="24" height="24" fill="white"/>
</clipPath>
</defs>
</svg>