<?xml version="1.0" encoding="UTF-8"?>
<svg id="Layer_1" data-name="Layer 1" xmlns="http://www.w3.org/2000/svg" viewBox="0 0 24 24">
  <defs>
    <style>
      .cls-1 {
        fill-rule: evenodd;
        stroke-width: 0px;
      }
    </style>
  </defs>
  <path class="cls-1" d="m6,7.25c0-.6904.5596-1.25,1.25-1.25s1.25.5596,1.25,1.25-.5596,1.25-1.25,1.25-1.25-.5596-1.25-1.25Zm15-2.25v4.5c0,1.1046-.8954,2-2,2H5c-1.1046,0-2-.8954-2-2v-4.5c0-1.1046.8954-2,2-2h14c1.1046,0,2,.8954,2,2Zm-2,0H5v4.5h14v-4.5Zm-11.75,13c.6904,0,1.25-.5596,1.25-1.25s-.5596-1.25-1.25-1.25-1.25.5596-1.25,1.25.5596,1.25,1.25,1.25Zm13.75-3.5v4.5c0,1.1046-.8954,2-2,2H5c-1.1046,0-2-.8954-2-2v-4.5c0-1.1046.8954-2,2-2h14c1.1046,0,2,.8954,2,2Zm-2,0H5v4.5h14v-4.5Z"/>
</svg>