<?xml version="1.0" encoding="utf-8"?>
<!--
  Copyright 2023-2025 Solace Systems. All rights reserved.

  Licensed under the Apache License, Version 2.0 (the "License");
  you may not use this file except in compliance with the License.
  You may obtain a copy of the License at

      http://www.apache.org/licenses/LICENSE-2.0

  Unless required by applicable law or agreed to in writing, software
  distributed under the License is distributed on an "AS IS" BASIS,
  WITHOUT WARRANTIES OR CONDITIONS OF ANY KIND, either express or implied.
  See the License for the specific language governing permissions and
  limitations under the License.
-->
<svg width="24" height="24" viewBox="0 0 24 24" fill="none" xmlns="http://www.w3.org/2000/svg">
<path d="M7.25 8.5C7.94037 8.5 8.5 7.94035 8.5 7.25C8.5 6.55965 7.94037 6 7.25 6C6.55963 6 6 6.55965 6 7.25C6 7.94035 6.55963 8.5 7.25 8.5Z" fill="black"/>
<path fill-rule="evenodd" clip-rule="evenodd" d="M3 5C3 3.89543 3.89545 3 5 3H19C20.1046 3 21 3.89543 21 5V9.5C21 10.6046 20.1046 11.5 19 11.5H5C3.89545 11.5 3 10.6046 3 9.5V5ZM5 5H19V9.5H5V5Z" fill="black"/>
<path d="M8.5 16.75C8.5 17.4404 7.94037 18 7.25 18C6.55963 18 6 17.4404 6 16.75C6 16.0596 6.55963 15.5 7.25 15.5C7.94037 15.5 8.5 16.0596 8.5 16.75Z" fill="black"/>
<path fill-rule="evenodd" clip-rule="evenodd" d="M3 14.5C3 13.3954 3.89545 12.5 5 12.5H19C20.1046 12.5 21 13.3954 21 14.5V19C21 20.1046 20.1046 21 19 21H5C3.89545 21 3 20.1046 3 19V14.5ZM5 14.5H19V19H5V14.5Z" fill="black"/>
</svg>