<?xml version="1.0" encoding="UTF-8"?>
<svg id="Layer_1" data-name="Layer 1" xmlns="http://www.w3.org/2000/svg" viewBox="0 0 24 24">
  <defs>
    <style>
      .cls-1 {
        fill-rule: evenodd;
        stroke-width: 0px;
      }
    </style>
  </defs>
  <path class="cls-1" d="m14,12.4v1.2c0,.2209-.1791.4-.4.4h-3.2c-.2209,0-.4-.1791-.4-.4v-1.2c0-.2209.1791-.4.4-.4h3.2c.2209,0,.4.1791.4.4Zm4,2.6c0,.3407-.0284.6748-.083,1h2.683c.2209,0,.4.1791.4.4v1.2c0,.2209-.1791.4-.4.4h-3.2c-.0642,0-.1249-.0151-.1786-.042-1.0312,1.8165-2.9832,3.042-5.2214,3.042s-4.1901-1.2255-5.2214-3.042c-.0537.0269-.1144.042-.1786.042h-3.2c-.2209,0-.4-.1791-.4-.4v-1.2c0-.2209.1791-.4.4-.4h2.683c-.0546-.3252-.083-.6593-.083-1v-4h-2.6c-.2209,0-.4-.1791-.4-.4v-1.2c0-.2209.1791-.4.4-.4h2.9414c.3483-.9854.9467-1.8527,1.7189-2.5255l-1.9431-1.9431c-.1562-.1562-.1562-.4095,0-.5657l.8485-.8486c.1562-.1562.4094-.1562.5657,0l2.2904,2.2905c.6751-.2632,1.4099-.4076,2.1782-.4076.7605,0,1.4879.1415,2.1573.3995l2.2775-2.2775c.1598-.1597.4188-.1597.5786,0l.8678.8679c.1598.1597.1598.4188,0,.5786l-1.9226,1.9226c.7631.6705,1.3545,1.5316,1.7,2.509h2.9413c.2209,0,.4.1791.4.4v1.2c0,.2209-.1791.4-.4.4h-2.6v4Zm-2-4c0-2.2092-1.7909-4-4-4s-4,1.7908-4,4v4c0,2.2091,1.7909,4,4,4s4-1.7909,4-4v-4Z"/>
</svg>