<svg width="24" height="24" viewBox="0 0 24 24" fill="none" xmlns="http://www.w3.org/2000/svg">
<g clip-path="url(#clip0_11380_43507)">
<path fill-rule="evenodd" clip-rule="evenodd" d="M4 6C4 4.66667 5.6 2 12 2C18.4 2 20 4.66667 20 6V18C20 18.7403 19.5978 19.3866 19 19.7324V21C19 21.5523 18.5523 22 18 22H17C16.4477 22 16 21.5523 16 21V20H8V21C8 21.5523 7.55228 22 7 22H6C5.44772 22 5 21.5523 5 21V19.7324C4.4022 19.3866 4 18.7403 4 18V6ZM18 11V8H6V11H18ZM10 15.5C10 16.3284 9.32843 17 8.5 17C7.67157 17 7 16.3284 7 15.5C7 14.6716 7.67157 14 8.5 14C9.32843 14 10 14.6716 10 15.5ZM15.5 17C16.3284 17 17 16.3284 17 15.5C17 14.6716 16.3284 14 15.5 14C14.6716 14 14 14.6716 14 15.5C14 16.3284 14.6716 17 15.5 17Z" fill="black"/>
</g>
<defs>
<clipPath id="clip0_11380_43507">
<rect width="24" height="24" fill="white"/>
</clipPath>
</defs>
</svg>
