<!--
 Copyright 2023-2025 Solace Systems. All rights reserved.

 Licensed under the Apache License, Version 2.0 (the "License");
 you may not use this file except in compliance with the License.
 You may obtain a copy of the License at

     http://www.apache.org/licenses/LICENSE-2.0

 Unless required by applicable law or agreed to in writing, software
 distributed under the License is distributed on an "AS IS" BASIS,
 WITHOUT WARRANTIES OR CONDITIONS OF ANY KIND, either express or implied.
 See the License for the specific language governing permissions and
 limitations under the License.
-->
<?xml version="1.0" encoding="utf-8"?>
<!-- Generator: Adobe Illustrator 25.4.1, SVG Export Plug-In . SVG Version: 6.00 Build 0)  -->
<svg version="1.1" id="Calendar" xmlns="http://www.w3.org/2000/svg" xmlns:xlink="http://www.w3.org/1999/xlink" x="0px" y="0px"
	 viewBox="0 0 24 24" style="enable-background:new 0 0 24 24;" xml:space="preserve">
<path d="M7.5,12h1C8.8,12,9,12.2,9,12.5v1C9,13.8,8.8,14,8.5,14h-1C7.2,14,7,13.8,7,13.5v-1C7,12.2,7.2,12,7.5,12z M21,7v12
	c0,1.1-0.9,2-2,2H5c-1.1,0-2-0.9-2-2V7c0-1.1,0.9-2,2-2h1V4c0-0.6,0.4-1,1-1s1,0.4,1,1v1h8V4c0-0.6,0.4-1,1-1s1,0.4,1,1v1h1
	C20.1,5,21,5.9,21,7z M5,9h14V7H5V9z M19,19v-8H5v8H19z M15.5,14h1c0.3,0,0.5-0.2,0.5-0.5v-1c0-0.3-0.2-0.5-0.5-0.5h-1
	c-0.3,0-0.5,0.2-0.5,0.5v1C15,13.8,15.2,14,15.5,14z M11.5,14h1c0.3,0,0.5-0.2,0.5-0.5v-1c0-0.3-0.2-0.5-0.5-0.5h-1
	c-0.3,0-0.5,0.2-0.5,0.5v1C11,13.8,11.2,14,11.5,14z"/>
</svg>
