<?xml version="1.0" encoding="utf-8"?>
<!--
  Copyright 2023-2025 Solace Systems. All rights reserved.

  Licensed under the Apache License, Version 2.0 (the "License");
  you may not use this file except in compliance with the License.
  You may obtain a copy of the License at

      http://www.apache.org/licenses/LICENSE-2.0

  Unless required by applicable law or agreed to in writing, software
  distributed under the License is distributed on an "AS IS" BASIS,
  WITHOUT WARRANTIES OR CONDITIONS OF ANY KIND, either express or implied.
  See the License for the specific language governing permissions and
  limitations under the License.
-->
<svg width="24" height="24" viewBox="0 0 24 24" fill="none" xmlns="http://www.w3.org/2000/svg">
<path fill-rule="evenodd" clip-rule="evenodd" d="M2 5C2 4.44772 2.44772 4 3 4H8.25C9.90685 4 11.25 5.34315 11.25 7V19C11.25 19.5523 10.8023 20 10.25 20H3C2.44772 20 2 19.5523 2 19V5ZM3.5 16H9.75V17.5H3.5V16ZM9.75 12H3.5V13.5H9.75V12ZM3.5 8H7.5V9.5H3.5V8ZM22 5C22 4.44772 21.5523 4 21 4H15.75C14.0931 4 12.75 5.34315 12.75 7V19C12.75 19.5523 13.1977 20 13.75 20H21C21.5523 20 22 19.5523 22 19V5ZM20.4999 15.9996H14.2499V17.4996H20.4999V15.9996ZM14.2499 11.9997H20.4999V13.4997H14.2499V11.9997ZM20.5 7.9999H16.5V9.4999H20.5V7.9999Z" fill="black"/>
</svg>