<svg width="24" height="24" viewBox="0 0 24 24" fill="none" xmlns="http://www.w3.org/2000/svg">
<g clip-path="url(#clip0_11380_43492)">
<path d="M8.77044 6.1877C8.93977 6.01319 8.9474 5.72786 8.76805 5.56366L8.2701 5.10779C8.11723 4.96783 7.88201 4.96708 7.7373 5.11547C7.22767 5.6381 6.74238 6.2993 6.47307 6.88864C6.15769 7.57878 6 8.28301 6 9.00133C6.04615 9.71964 6.21538 10.4239 6.50768 11.114C6.75724 11.7032 7.23111 12.3664 7.73776 12.8896C7.88194 13.0385 8.11723 13.0377 8.2701 12.8978L8.78542 12.426C8.95861 12.2674 8.95813 11.9946 8.79911 11.8219C8.43812 11.4297 8.09508 10.9495 7.91535 10.5436C7.68459 10.0225 7.56921 9.50837 7.56921 9.00133C7.56921 8.45203 7.68459 7.91681 7.91535 7.39568C8.09031 7.00058 8.42005 6.54882 8.77044 6.1877Z" fill="black"/>
<path d="M6.79077 4.17238C6.95796 4.00749 6.95861 3.73499 6.78542 3.57643L6.2701 3.10465C6.11723 2.96469 5.88212 2.96434 5.73299 3.10828C4.05846 4.72459 3 6.59299 3 9.00133C3 11.3915 4.11251 13.2503 5.73236 14.8859C5.88098 15.036 6.12135 15.0387 6.27713 14.8961L6.78542 14.4307C6.95861 14.2722 6.95796 13.9997 6.79082 13.8347C5.44831 12.51 4.5692 10.9636 4.5692 9.00133C4.5692 7.03817 5.44811 5.49662 6.79077 4.17238Z" fill="black"/>
<path fill-rule="evenodd" clip-rule="evenodd" d="M13.9999 9.00136C13.9999 9.64925 13.6918 10.2252 13.2142 10.5907L16.8047 20.4646C16.8996 20.7255 16.7064 21.0013 16.4288 21.0013H15.2771C15.1104 21.0013 14.9611 20.8979 14.9026 20.7418L13.8749 18.0014H10.1249L9.09723 20.7418C9.03869 20.8979 8.88944 21.0013 8.7227 21.0013H7.57098C7.2934 21.0013 7.1002 20.7255 7.19506 20.4646L10.7856 10.5907C10.308 10.2252 9.9999 9.64925 9.9999 9.00136C9.9999 7.89679 10.8953 7.00136 11.9999 7.00136C13.1045 7.00136 13.9999 7.89679 13.9999 9.00136ZM13.1249 16.0014L11.9999 13.0014L10.8749 16.0014H13.1249Z" fill="black"/>
<path d="M16.2637 12.891C16.1182 13.0386 15.8828 13.0377 15.7299 12.8978L15.232 12.4419C15.0526 12.2777 15.0613 11.9935 15.2319 11.8203C15.9715 11.0698 16.4299 10.0679 16.4299 9.00136C16.4299 7.9328 15.9215 6.94801 15.2029 6.1794C15.0425 6.00787 15.0414 5.73575 15.2146 5.57719L15.7299 5.10542C15.8828 4.96546 16.1183 4.96457 16.263 5.11303C17.2872 6.16435 17.9042 7.52481 17.9991 9.00136C17.9991 10.4873 17.2904 11.8499 16.2637 12.891Z" fill="black"/>
<path d="M18.2658 14.8911C18.1167 15.035 17.8816 15.0347 17.7287 14.8947L17.2134 14.4229C17.0402 14.2644 17.0409 13.9919 17.2081 13.827C18.5514 12.503 19.4307 10.966 19.4307 9.00136C19.4307 7.03534 18.549 5.49395 17.2043 4.16836C17.0371 4.00351 17.0365 3.731 17.2096 3.57244L17.7179 3.1071C17.8737 2.96448 18.1141 2.96724 18.2627 3.11726C19.8847 4.75398 20.9999 6.60733 20.9999 9.00136C20.9999 11.4112 19.941 13.2748 18.2658 14.8911Z" fill="black"/>
</g>
<defs>
<clipPath id="clip0_11380_43492">
<rect width="24" height="24" fill="white"/>
</clipPath>
</defs>
</svg>
