<!--
 Copyright 2023-2025 Solace Systems. All rights reserved.

 Licensed under the Apache License, Version 2.0 (the "License");
 you may not use this file except in compliance with the License.
 You may obtain a copy of the License at

     http://www.apache.org/licenses/LICENSE-2.0

 Unless required by applicable law or agreed to in writing, software
 distributed under the License is distributed on an "AS IS" BASIS,
 WITHOUT WARRANTIES OR CONDITIONS OF ANY KIND, either express or implied.
 See the License for the specific language governing permissions and
 limitations under the License.
-->
<svg width="24" height="24" viewBox="0 0 24 24" fill="none" xmlns="http://www.w3.org/2000/svg">
<g clip-path="url(#clip0_3496_34878)">
<path d="M13.6951 2.14C6.85411 1.015 1.01511 6.854 2.14011 13.695C2.82111 17.838 6.16311 21.18 10.3061 21.861C17.1471 22.986 22.9861 17.147 21.8611 10.306C21.1791 6.162 17.8381 2.821 13.6951 2.14ZM13.5681 19.85C7.94311 20.926 3.07411 16.057 4.15011 10.432C4.75111 7.287 7.28711 4.751 10.4321 4.15C16.0571 3.074 20.9261 7.943 19.8501 13.568C19.2481 16.713 16.7131 19.248 13.5681 19.85ZM16.0651 8.105L10.0001 14.17L7.92211 12.101C7.76811 11.947 7.51811 11.947 7.36411 12.102L6.51811 12.948C6.36011 13.106 6.36011 13.361 6.51811 13.519L9.71411 16.893C9.87211 17.051 10.1271 17.051 10.2851 16.893L17.4761 9.525C17.6321 9.369 17.6331 9.115 17.4771 8.958L16.6331 8.108C16.4771 7.949 16.2221 7.948 16.0651 8.105Z" fill="black"/>
</g>
<defs>
<clipPath id="clip0_3496_34878">
<rect width="24" height="24" fill="white"/>
</clipPath>
</defs>
</svg>
