<svg width="24" height="24" viewBox="0 0 24 24" fill="none" xmlns="http://www.w3.org/2000/svg">
<g clip-path="url(#clip0_11380_43528)">
<path d="M17.5556 19C20.3167 19 22 16.6165 22 13.75C22 10.8835 19.7611 8.5 17 8.5C16.4767 8.5 15.8067 8.69483 15.3333 8.85C14.7667 6.62867 13.2067 5 10.8889 5C8.12778 5 5.66667 7.3835 5.66667 10.25C5.66667 10.6642 5.69 11.0305 5.77778 11.4167C5.73333 11.4143 5.71 11.391 5.66556 11.391C3.64111 11.3898 2 12.8155 2 14.9167C2 17.0178 3.30889 19 5.33333 19H17.5556Z" fill="black"/>
</g>
<defs>
<clipPath id="clip0_11380_43528">
<rect width="24" height="24" fill="white"/>
</clipPath>
</defs>
</svg>
