<svg width="24" height="24" viewBox="0 0 24 24" fill="none" xmlns="http://www.w3.org/2000/svg">
<g clip-path="url(#clip0_3499_36206)">
<path d="M17 18C19.485 18 21 15.957 21 13.5C21 11.043 18.985 9 16.5 9C16.029 9 15.426 9.167 15 9.3C14.49 7.396 13.086 6 11 6C8.515 6 6.3 8.043 6.3 10.5C6.3 10.855 6.321 11.169 6.4 11.5C6.36 11.498 6.339 11.478 6.299 11.478C4.477 11.477 3 12.699 3 14.5C3 16.301 4.178 18 6 18H17Z" fill="black"/>
</g>
<defs>
<clipPath id="clip0_3499_36206">
<rect width="24" height="24" fill="white"/>
</clipPath>
</defs>
</svg>
