<?xml version="1.0" encoding="utf-8"?>
<!--
  Copyright 2023-2025 Solace Systems. All rights reserved.

  Licensed under the Apache License, Version 2.0 (the "License");
  you may not use this file except in compliance with the License.
  You may obtain a copy of the License at

      http://www.apache.org/licenses/LICENSE-2.0

  Unless required by applicable law or agreed to in writing, software
  distributed under the License is distributed on an "AS IS" BASIS,
  WITHOUT WARRANTIES OR CONDITIONS OF ANY KIND, either express or implied.
  See the License for the specific language governing permissions and
  limitations under the License.
-->
<svg width="24" height="24" viewBox="0 0 24 24" fill="none" xmlns="http://www.w3.org/2000/svg">
<path fill-rule="evenodd" clip-rule="evenodd" d="M17.8335 17.5921C16.7964 18.2524 15.6349 18.6932 14.4209 18.8873C14.198 18.9229 13.9742 18.9501 13.75 18.9689V20.5002H15.5V22.0002H13.75H12.25H10.5V20.5002H12.25V18.9689C11.7534 18.9273 11.2598 18.8445 10.7745 18.7207C9.58318 18.4166 8.46679 17.8717 7.4942 17.1196C6.52161 16.3674 5.71345 15.424 5.11956 14.3474C4.52568 13.2709 4.15867 12.0841 4.04119 10.8602C3.9237 9.63631 4.05822 8.40135 4.43645 7.23148C4.81468 6.0616 5.4286 4.98163 6.24034 4.05819C7.05208 3.13475 8.04441 2.38742 9.15613 1.8623L9.7969 3.21888C8.87051 3.65646 8.0436 4.27921 7.36717 5.04872C6.69075 5.81822 6.17917 6.71816 5.86399 7.69302C5.54881 8.66787 5.43672 9.69697 5.53462 10.7168C5.63252 11.7367 5.93835 12.7256 6.43323 13.6227C6.92812 14.5198 7.60156 15.306 8.41202 15.9328C9.22248 16.5595 10.1528 17.0136 11.1455 17.267C12.1382 17.5203 13.1723 17.5676 14.184 17.4058C15.1957 17.2441 16.1635 16.8767 17.0278 16.3265L17.8335 17.5921ZM16.3034 6.83138L17.5363 6.07271C16.4361 4.80309 14.8118 4 13 4C12.5789 4 12.1679 4.04339 11.7713 4.12593C12.5953 4.79372 13.2939 5.52949 13.8843 6.30007C14.1255 6.21888 14.3847 6.17475 14.6546 6.17475C15.2982 6.17475 15.881 6.4256 16.3034 6.83138ZM9.80448 4.92082C9.95487 4.826 10.1098 4.73768 10.2688 4.65624C11.2853 5.36523 12.1172 6.18834 12.7945 7.06422C12.4962 7.44226 12.3191 7.91401 12.3191 8.42563C12.3191 8.6965 12.3687 8.9562 12.4597 9.19673L10.8263 10.2019C10.1514 8.67493 9.71986 6.89608 9.80448 4.92082ZM13.2842 10.2485L11.4262 11.3919C12.5891 13.439 14.1211 14.9034 15.1425 15.6062C15.2702 15.5573 15.3959 15.5042 15.5193 15.447C15.5807 14.3581 15.4132 12.579 14.7405 10.675C14.712 10.676 14.6834 10.6765 14.6546 10.6765C14.1426 10.6765 13.6691 10.5177 13.2842 10.2485ZM16.8503 14.6018C16.8056 13.4285 16.5717 11.8882 16.003 10.2637C16.6003 9.85602 16.9902 9.18471 16.9902 8.42563C16.9902 8.27807 16.9755 8.13383 16.9474 7.9942L18.2907 7.16754C18.7433 8.01119 19 8.97561 19 10C19 11.8482 18.1644 13.5012 16.8503 14.6018ZM9.68494 10.9043C9.03378 9.48242 8.57077 7.85374 8.48158 6.05223C7.55901 7.10729 7 8.48836 7 10C7 10.8073 7.15945 11.5774 7.44858 12.2805L9.68494 10.9043ZM10.2944 12.0883L8.08781 13.4462C9.17335 14.9907 10.9688 16 13 16C13.1587 16 13.3159 15.9938 13.4715 15.9817C12.4575 15.0998 11.2625 13.7771 10.2944 12.0883Z" fill="black"/>
</svg>