<svg width="24" height="25" viewBox="0 0 24 25" fill="none" xmlns="http://www.w3.org/2000/svg">
<g clip-path="url(#clip0_8388_23479)">
<path fill-rule="evenodd" clip-rule="evenodd" d="M3 20.525C3 20.8011 3.2239 21.025 3.5 21.025H4.5C4.7761 21.025 5 20.8011 5 20.525V3.52496C5 3.24886 4.7761 3.02496 4.5 3.02496H3.5C3.2239 3.02496 3 3.24886 3 3.52496V20.525ZM20.6 11.0248C20.8 11.0248 21 11.2248 21 11.4248V12.6248C21 12.8248 20.8 13.0248 20.6 13.0248H10.75L13.95 16.4748C14.15 16.6748 14.15 16.8748 13.95 17.0748L13.15 17.8748C12.95 18.0748 12.75 18.0748 12.55 17.8748L7.15 12.3248C6.95 12.1248 6.95 11.9248 7.15 11.7248L12.494 6.18076C12.675 5.99976 12.886 5.97276 13.094 6.18076L13.894 6.98076C14.094 7.18076 14.094 7.38076 13.894 7.58076L10.65 11.0248H20.6Z" fill="black"/>
</g>
<defs>
<clipPath id="clip0_8388_23479">
<rect width="24" height="24" fill="white" transform="translate(0 0.0249634)"/>
</clipPath>
</defs>
</svg>
