<?xml version="1.0" encoding="utf-8"?>
<!--
  Copyright 2023-2025 Solace Systems. All rights reserved.

  Licensed under the Apache License, Version 2.0 (the "License");
  you may not use this file except in compliance with the License.
  You may obtain a copy of the License at

      http://www.apache.org/licenses/LICENSE-2.0

  Unless required by applicable law or agreed to in writing, software
  distributed under the License is distributed on an "AS IS" BASIS,
  WITHOUT WARRANTIES OR CONDITIONS OF ANY KIND, either express or implied.
  See the License for the specific language governing permissions and
  limitations under the License.
-->
<svg width="24" height="24" viewBox="0 0 24 24" fill="none" xmlns="http://www.w3.org/2000/svg">
<g clip-path="url(#clip0_11380_43477)">
<path d="M4 4C2.89543 4 2 4.89543 2 6V14C2 15.1046 2.89543 16 4 16H10V18H8.4C8.17909 18 8 18.1791 8 18.4V19.6C8 19.8209 8.17909 20 8.4 20H15.6C15.8209 20 16 19.8209 16 19.6V18.4C16 18.1791 15.8209 18 15.6 18H14V16H20C21.1046 16 22 15.1046 22 14V6C22 4.89543 21.1046 4 20 4H4Z" fill="black"/>
</g>
<defs>
<clipPath id="clip0_11380_43477">
<rect width="24" height="24" fill="white"/>
</clipPath>
</defs>
</svg>