<svg width="24" height="24" viewBox="0 0 24 24" fill="none" xmlns="http://www.w3.org/2000/svg">
<path fill-rule="evenodd" clip-rule="evenodd" d="M4 4C2.89543 4 2 4.89543 2 6V11C2 12.1046 2.89543 13 4 13H7V18H2.4C2.17909 18 2 18.1791 2 18.4V19.6C2 19.8209 2.17909 20 2.4 20H21.6C21.8209 20 22 19.8209 22 19.6V18.4C22 18.1791 21.8209 18 21.6 18H17V13H20C21.1046 13 22 12.1046 22 11V6C22 4.89543 21.1046 4 20 4H4ZM15 13V18H9V13H15ZM9 6H4.10526V11H5.5L9 6ZM11.5 6L8 11H12.5L16 6H11.5ZM18.5 6L15 11H19.8947V6H18.5Z" fill="black"/>
</svg>
