<?xml version="1.0" encoding="UTF-8"?>
<svg id="Layer_1" data-name="Layer 1" xmlns="http://www.w3.org/2000/svg" viewBox="0 0 24 24">
  <defs>
    <style>
      .cls-1 {
        fill-rule: evenodd;
        stroke-width: 0px;
      }
    </style>
  </defs>
  <path class="cls-1" d="m4,4c-1.1046,0-2,.8954-2,2v5c0,1.1046.8954,2,2,2h3v5H2.4c-.2209,0-.4.1791-.4.4v1.2c0,.2209.1791.4.4.4h19.2c.2209,0,.4-.1791.4-.4v-1.2c0-.2209-.1791-.4-.4-.4h-4.6v-5h3c1.1046,0,2-.8954,2-2v-5c0-1.1046-.8954-2-2-2H4Zm11,9v5h-6v-5h6Zm-6-7h-4.8947v5h1.3947l3.5-5Zm2.5,0l-3.5,5h4.5l3.5-5h-4.5Zm7,0l-3.5,5h4.8947v-5h-1.3947Z"/>
</svg>