<?xml version="1.0" encoding="UTF-8"?>
<svg id="Layer_1" data-name="Layer 1" xmlns="http://www.w3.org/2000/svg" viewBox="0 0 24 24">
  <defs>
    <style>
      .cls-1 {
        fill-rule: evenodd;
        stroke-width: 0px;
      }
    </style>
  </defs>
  <path class="cls-1" d="m18,4h-3.1707c-.4118-1.1652-1.5231-2-2.8293-2s-2.4175.8348-2.8293,2h-3.1707c-1.1046,0-2,.8954-2,2v14c0,1.1046.8954,2,2,2h4v-2h-4V6h2v2.6c0,.2209.1791.4.4.4h7.2c.2209,0,.4-.1791.4-.4v-2.6h2v6h2v-6c0-1.1046-.8954-2-2-2Zm-6,2c.5523,0,1-.4477,1-1s-.4477-1-1-1-1,.4477-1,1,.4477,1,1,1Zm5.4458,12.0326c.3521-.5957.5542-1.2905.5542-2.0326,0-2.2091-1.7909-4-4-4s-4,1.7909-4,4,1.7909,4,4,4c.7416,0,1.436-.2018,2.0314-.5535l2.4345,2.4346c.1562.1562.4095.1562.5657,0l.8485-.8485c.1562-.1562.1562-.4095,0-.5657l-2.4343-2.4343Zm-1.4458-2.0326c0,1.1046-.8954,2-2,2s-2-.8954-2-2,.8954-2,2-2,2,.8954,2,2Z"/>
</svg>