<svg width="24" height="24" viewBox="0 0 24 24" fill="none" xmlns="http://www.w3.org/2000/svg">
<g clip-path="url(#clip0_11380_43546)">
<path d="M20 6C20 8.36714 16.5 10 12 10C7.5 10 4 8.36714 4 6C4 3.63286 7.5 2 12 2C16.5 2 20 3.63286 20 6ZM4 9V13C4 13 5.5 16 12 16C18.5 16 20 13 20 13V9C20 9 18.5 12 12 12C5.5 12 4 9 4 9ZM4 15V18.9056C4 18.9677 4.01395 19.0281 4.04659 19.0809C4.34232 19.5596 6.13749 22 12 22C17.8625 22 19.6577 19.5596 19.9534 19.0809C19.9861 19.0281 20 18.9677 20 18.9056V15C20 15 18.5 18 12 18C5.5 18 4 15 4 15Z" fill="black"/>
</g>
<defs>
<clipPath id="clip0_11380_43546">
<rect width="24" height="24" fill="white"/>
</clipPath>
</defs>
</svg>
