<?xml version="1.0" encoding="utf-8"?>
<!--
  Copyright 2023-2025 Solace Systems. All rights reserved.

  Licensed under the Apache License, Version 2.0 (the "License");
  you may not use this file except in compliance with the License.
  You may obtain a copy of the License at

      http://www.apache.org/licenses/LICENSE-2.0

  Unless required by applicable law or agreed to in writing, software
  distributed under the License is distributed on an "AS IS" BASIS,
  WITHOUT WARRANTIES OR CONDITIONS OF ANY KIND, either express or implied.
  See the License for the specific language governing permissions and
  limitations under the License.
-->
<svg width="24" height="24" viewBox="0 0 24 24" fill="none" xmlns="http://www.w3.org/2000/svg">
<path fill-rule="evenodd" clip-rule="evenodd" d="M11.1056 3.21683C11.6686 2.92772 12.3314 2.92772 12.8944 3.21683L19.8944 6.81111C20.572 7.15902 21 7.8702 21 8.64815V15.3519C21 16.1298 20.572 16.841 19.8944 17.1889L12.8944 20.7832C12.3314 21.0723 11.6686 21.0723 11.1056 20.7832L4.10557 17.1889C3.428 16.841 3 16.1298 3 15.3519V8.64815C3 7.8702 3.428 7.15902 4.10557 6.81111L11.1056 3.21683ZM6.20194 7.98294L12 5.00582L17.7981 7.98294L12 11L6.20194 7.98294ZM5 9.61803V15.3519C5 15.3731 5.00575 15.3895 5.0123 15.4003C5.01593 15.4064 5.01992 15.4101 5.01992 15.4101L11 18.4807V12.7266L5 9.61803ZM13 18.4807L18.9801 15.4101C18.9801 15.4101 18.9841 15.4064 18.9877 15.4003C18.9943 15.3895 19 15.3731 19 15.3519V9.61803L13 12.7266V18.4807Z" fill="black"/>
</svg>