<?xml version="1.0" encoding="UTF-8"?>
<svg id="Layer_1" data-name="Layer 1" xmlns="http://www.w3.org/2000/svg" viewBox="0 0 24 24">
  <defs>
    <style>
      .cls-1 {
        fill-rule: evenodd;
        stroke-width: 0px;
      }
    </style>
  </defs>
  <path class="cls-1" d="m11.1056,3.2168c.563-.2891,1.2258-.2891,1.7888,0l7,3.5943c.6776.3479,1.1056,1.0591,1.1056,1.837v6.7037c0,.7779-.428,1.4891-1.1056,1.837l-7,3.5943c-.563.2891-1.2258.2891-1.7888,0l-7-3.5943c-.6776-.3479-1.1056-1.0591-1.1056-1.837v-6.7037c0-.778.428-1.4891,1.1056-1.837l7-3.5943Zm-4.9037,4.7661l5.7981-2.9771,5.7981,2.9771-5.7981,3.0171-5.7981-3.0171Zm-1.2019,1.6351v5.7339c0,.0212.0058.0376.0123.0484.0036.0061.0076.0098.0076.0098l5.9801,3.0706v-5.7541l-6-3.1086Zm8,8.8627l5.9801-3.0706s.004-.0037.0076-.0098c.0066-.0108.0123-.0272.0123-.0484v-5.7339l-6,3.1086v5.7541Z"/>
</svg>