<?xml version="1.0" encoding="utf-8"?>
<!--
  Copyright 2023-2025 Solace Systems. All rights reserved.

  Licensed under the Apache License, Version 2.0 (the "License");
  you may not use this file except in compliance with the License.
  You may obtain a copy of the License at

      http://www.apache.org/licenses/LICENSE-2.0

  Unless required by applicable law or agreed to in writing, software
  distributed under the License is distributed on an "AS IS" BASIS,
  WITHOUT WARRANTIES OR CONDITIONS OF ANY KIND, either express or implied.
  See the License for the specific language governing permissions and
  limitations under the License.
-->
<svg width="24" height="24" viewBox="0 0 24 24" fill="none" xmlns="http://www.w3.org/2000/svg">
<path d="M7 8.42857C7 8.82306 7.3198 9.14286 7.71429 9.14286C8.10877 9.14286 8.42857 8.82306 8.42857 8.42857C8.42857 8.03408 8.10877 7.71429 7.71429 7.71429C7.3198 7.71429 7 8.03408 7 8.42857Z" fill="black"/>
<path fill-rule="evenodd" clip-rule="evenodd" d="M2 2.71429C2 2.3198 2.3198 2 2.71429 2H21.2857C21.6802 2 22 2.3198 22 2.71429V14.1429H2V2.71429ZM5.57143 8.42857C5.57143 9.61204 6.53082 10.5714 7.71429 10.5714C8.89775 10.5714 9.85714 9.61204 9.85714 8.42857C9.85714 7.2451 8.89775 6.28571 7.71429 6.28571C6.53082 6.28571 5.57143 7.2451 5.57143 8.42857ZM15.2756 7.71429L14.3521 6.79079L15.3622 5.78064L18.0102 8.42857L15.3622 11.0765L14.3521 10.0664L15.2756 9.14286H11.2857V7.71429H15.2756Z" fill="black"/>
<path d="M22 17H2V15.5714H22V17Z" fill="black"/>
<path d="M8.42857 18.4286H15.5714V22H14.1429V19.8571H9.85714V22H8.42857V18.4286Z" fill="black"/>
</svg>