<!--
 Copyright 2023-2025 Solace Systems. All rights reserved.

 Licensed under the Apache License, Version 2.0 (the "License");
 you may not use this file except in compliance with the License.
 You may obtain a copy of the License at

     http://www.apache.org/licenses/LICENSE-2.0

 Unless required by applicable law or agreed to in writing, software
 distributed under the License is distributed on an "AS IS" BASIS,
 WITHOUT WARRANTIES OR CONDITIONS OF ANY KIND, either express or implied.
 See the License for the specific language governing permissions and
 limitations under the License.
-->
<svg width="24" height="24" viewBox="0 0 24 24" fill="none" xmlns="http://www.w3.org/2000/svg">
<g clip-path="url(#clip0_11380_43549)">
<path d="M12.5242 10.7778C9.80848 10.1222 8.64681 9.55556 8.64681 8.5C8.64681 7.28889 9.99631 6.44444 12.0182 6.44444C13.9838 6.44444 14.9648 7.13111 15.1263 8.35444C15.1491 8.52889 15.2926 8.66667 15.4816 8.66667H17.269C17.6351 8.66667 17.7942 8.51222 17.7727 8.32556C17.5693 6.55 16.1636 4.96667 13.8127 4.43333V2.33667C13.8127 2.15111 13.65 2 13.4502 2H10.7058C10.4402 2 10.2236 2.20111 10.2236 2.44778V4.4C7.90267 4.86667 6.03633 6.26667 6.03633 8.41111C6.03633 10.9778 8.46855 12.2556 11.8064 13C14.7973 13.6667 15.3955 14.6444 15.3955 15.6778C15.3955 16.4444 14.6621 17.5556 12.0182 17.5556C9.74627 17.5556 8.90163 16.8044 8.64681 15.6344C8.60972 15.4633 8.45658 15.3333 8.26875 15.3333H6.3438C6.13683 15.3333 5.97651 15.4956 6.00283 15.6856C6.30671 17.8989 8.04025 19.1556 10.2236 19.5889V21.55C10.2236 21.7989 10.4402 22 10.7081 22H13.3306C13.5974 22 13.8127 21.8 13.8127 21.5522V19.6111C16.1456 19.2 18 17.9444 18 15.6667C18 12.5111 15.24 11.4333 12.5242 10.7778Z" fill="black"/>
</g>
<defs>
<clipPath id="clip0_11380_43549">
<rect width="24" height="24" fill="white"/>
</clipPath>
</defs>
</svg>
