<svg width="24" height="24" viewBox="0 0 24 24" fill="none" xmlns="http://www.w3.org/2000/svg">
<g clip-path="url(#clip0_11784_43281)">
<path d="M12.2829 15.9C12.2825 15.9004 12.2826 15.9002 12.2822 15.9006C12.126 16.0562 11.8732 16.056 11.7172 15.9C11.561 15.7438 7.22101 11.401 7.22 11.4C7.21997 11.4 7.21998 11.4 7.21995 11.4C7 11.18 7.00001 10.96 7.2 10.76L8.11725 9.84285C8.2726 9.68195 8.5297 9.6797 8.68785 9.83785L11 12.15V4.4C11 4.17909 11.1791 4 11.4 4H12.6C12.8209 4 13 4.17909 13 4.4V12.15L15.3122 9.83785C15.4695 9.68053 15.7247 9.68193 15.8803 9.84032C15.8819 9.84199 15.8834 9.84353 15.8851 9.84519C15.9286 9.88867 16.5682 10.5282 16.8 10.76C17.04 11 17 11.22 16.82 11.4C16.6403 11.5797 12.2961 15.8869 12.2829 15.9ZM6 20C5.45 20 4.97917 19.8042 4.5875 19.4125C4.19583 19.0208 4 18.55 4 18V15.4C4 15.1791 4.17909 15 4.4 15H5.6C5.82091 15 6 15.1791 6 15.4V18H18V15.4C18 15.1791 18.1791 15 18.4 15H19.6C19.8209 15 20 15.1791 20 15.4V18C20 18.55 19.8042 19.0208 19.4125 19.4125C19.0208 19.8042 18.55 20 18 20H6Z" fill="black"/>
</g>
<defs>
<clipPath id="clip0_11784_43281">
<rect width="24" height="24" fill="white"/>
</clipPath>
</defs>
</svg>
