<svg width="24" height="24" viewBox="0 0 24 24" fill="none" xmlns="http://www.w3.org/2000/svg">
<g clip-path="url(#clip0_11813_57823)">
<path d="M12.3182 16.3875C12.3178 16.3879 12.318 16.3877 12.3176 16.3881C12.1418 16.5632 11.8573 16.563 11.6818 16.3875C11.5061 16.2118 6.62351 11.326 6.6225 11.325C6.62247 11.325 6.62248 11.325 6.62245 11.325C6.375 11.0775 6.37501 10.83 6.6 10.605L7.6319 9.57321C7.80667 9.3922 8.09591 9.38966 8.27383 9.56758L10.875 12.1688V3.45C10.875 3.20147 11.0765 3 11.325 3H12.675C12.9235 3 13.125 3.20147 13.125 3.45V12.1688L15.7262 9.56758C15.9033 9.3905 16.1906 9.39218 16.3656 9.57067C16.3673 9.57235 16.3688 9.57395 16.3705 9.57561C16.4174 9.6225 17.1388 10.3438 17.4 10.605C17.67 10.875 17.625 11.1225 17.4225 11.325C17.2203 11.5272 12.3314 16.3744 12.3182 16.3875ZM5.25 21C4.63125 21 4.10156 20.7797 3.66094 20.3391C3.22031 19.8984 3 19.3688 3 18.75V15.825C3 15.5765 3.20147 15.375 3.45 15.375H4.8C5.04853 15.375 5.25 15.5765 5.25 15.825V18.75H18.75V15.825C18.75 15.5765 18.9515 15.375 19.2 15.375H20.55C20.7985 15.375 21 15.5765 21 15.825V18.75C21 19.3688 20.7797 19.8984 20.3391 20.3391C19.8984 20.7797 19.3688 21 18.75 21H5.25Z" fill="black"/>
</g>
<defs>
<clipPath id="clip0_11813_57823">
<rect width="24" height="24" fill="white"/>
</clipPath>
</defs>
</svg>
