<svg width="24" height="24" viewBox="0 0 24 24" fill="none" xmlns="http://www.w3.org/2000/svg">
<g clip-path="url(#clip0_11813_57823)">
<path d="M11 3.4V13.3058L6.63873 9.12032C6.47157 8.95989 6.20054 8.95989 6.03338 9.12032L5.12537 9.99172C4.95821 10.1521 4.95821 10.4122 5.12537 10.5727L11.6973 16.8797C11.8645 17.0401 12.1355 17.0401 12.3027 16.8797L18.8746 10.5727C19.0418 10.4122 19.0418 10.1521 18.8746 9.99172L17.9666 9.12032C17.7995 8.95989 17.5284 8.95989 17.3613 9.12032L13 13.3058V3.4C13 3.17909 12.8209 3 12.6 3H11.4C11.1791 3 11 3.17909 11 3.4Z" fill="black"/>
<path d="M5.25 21C4.63125 21 4.10156 20.7797 3.66094 20.3391C3.22031 19.8984 3 19.3687 3 18.75V15.45C3 15.2015 3.20147 15 3.45 15H4.55C4.79853 15 5 15.2015 5 15.45V19H19V15.45C19 15.2015 19.2015 15 19.45 15H20.55C20.7985 15 21 15.2015 21 15.45V18.75C21 19.3687 20.7797 19.8984 20.3391 20.3391C19.8984 20.7797 19.3687 21 18.75 21H5.25Z" fill="black"/>
</g>
<defs>
<clipPath id="clip0_11813_57823">
<rect width="24" height="24" fill="white"/>
</clipPath>
</defs>
</svg>
