<svg width="24" height="24" viewBox="0 0 24 24" fill="none" xmlns="http://www.w3.org/2000/svg">
<g clip-path="url(#clip0_11813_57823)">
<path d="M3.66094 20.3391C4.10156 20.7797 4.63125 21 5.25 21H18.75C19.3687 21 19.8984 20.7797 20.3391 20.3391C20.7797 19.8985 21 19.3688 21 18.75V15.45C21 15.2015 20.7985 15 20.55 15H19.45C19.2015 15 19 15.2015 19 15.45V19H5V15.45C5 15.2015 4.79853 15 4.55 15H3.45C3.20147 15 3 15.2015 3 15.45V18.75C3 19.3688 3.22031 19.8985 3.66094 20.3391Z" fill="black"/>
<path d="M11 13.6276V3.4C11 3.17909 11.1791 3 11.4 3H12.6C12.8209 3 13 3.17909 13 3.4L13 13.6276L16.5954 10.1053C16.7387 9.96496 16.971 9.96496 17.1142 10.1053L17.8925 10.8678C18.0358 11.0082 18.0358 11.2358 17.8925 11.3761L12.2594 16.8948C12.1162 17.0351 11.8838 17.0351 11.7406 16.8948L6.10746 11.3761C5.96418 11.2358 5.96418 11.0082 6.10746 10.8678L6.88576 10.1053C7.02904 9.96496 7.26134 9.96496 7.40462 10.1053L11 13.6276Z" fill="black"/>
</g>
<defs>
<clipPath id="clip0_11813_57823">
<rect width="24" height="24" fill="white"/>
</clipPath>
</defs>
</svg>
