<svg width="24" height="24" viewBox="0 0 24 24" fill="none" xmlns="http://www.w3.org/2000/svg">
<path d="M12.2828 15.7172C12.1266 15.8734 11.8734 15.8734 11.7172 15.7172L7.27792 11.2779C7.12365 11.1236 7.12146 10.8742 7.27301 10.7172L8.11725 9.84285C8.2726 9.68195 8.5297 9.6797 8.68785 9.83785L11 12.15V4.4C11 4.17909 11.1791 4 11.4 4H12.6C12.8209 4 13 4.17909 13 4.4V12.15L15.3122 9.83785C15.4703 9.6797 15.7274 9.68195 15.8828 9.84285L16.727 10.7172C16.8785 10.8742 16.8764 11.1236 16.7221 11.2779L12.2828 15.7172ZM6 20C5.45 20 4.97917 19.8042 4.5875 19.4125C4.19583 19.0208 4 18.55 4 18V15.4C4 15.1791 4.17909 15 4.4 15H5.6C5.82091 15 6 15.1791 6 15.4V18H18V15.4C18 15.1791 18.1791 15 18.4 15H19.6C19.8209 15 20 15.1791 20 15.4V18C20 18.55 19.8042 19.0208 19.4125 19.4125C19.0208 19.8042 18.55 20 18 20H6Z" fill="black"/>
</svg>
