<svg width="24" height="24" viewBox="0 0 24 24" fill="none" xmlns="http://www.w3.org/2000/svg">
<g clip-path="url(#clip0_3496_34852)">
<path fill-rule="evenodd" clip-rule="evenodd" d="M9 6C10.1046 6 11 5.10457 11 4C11 2.89543 10.1046 2 9 2C7.89543 2 7 2.89543 7 4C7 5.10457 7.89543 6 9 6ZM9 14C10.1046 14 11 13.1046 11 12C11 10.8954 10.1046 10 9 10C7.89543 10 7 10.8954 7 12C7 13.1046 7.89543 14 9 14ZM11 20C11 21.1046 10.1046 22 9 22C7.89543 22 7 21.1046 7 20C7 18.8954 7.89543 18 9 18C10.1046 18 11 18.8954 11 20ZM15 6C16.1046 6 17 5.10457 17 4C17 2.89543 16.1046 2 15 2C13.8954 2 13 2.89543 13 4C13 5.10457 13.8954 6 15 6ZM17 12C17 13.1046 16.1046 14 15 14C13.8954 14 13 13.1046 13 12C13 10.8954 13.8954 10 15 10C16.1046 10 17 10.8954 17 12ZM15 22C16.1046 22 17 21.1046 17 20C17 18.8954 16.1046 18 15 18C13.8954 18 13 18.8954 13 20C13 21.1046 13.8954 22 15 22Z" fill="black"/>
</g>
<defs>
<clipPath id="clip0_3496_34852">
<rect width="24" height="24" fill="white"/>
</clipPath>
</defs>
</svg>
