<?xml version="1.0" encoding="utf-8"?>
<!--
  Copyright 2023-2025 Solace Systems. All rights reserved.

  Licensed under the Apache License, Version 2.0 (the "License");
  you may not use this file except in compliance with the License.
  You may obtain a copy of the License at

      http://www.apache.org/licenses/LICENSE-2.0

  Unless required by applicable law or agreed to in writing, software
  distributed under the License is distributed on an "AS IS" BASIS,
  WITHOUT WARRANTIES OR CONDITIONS OF ANY KIND, either express or implied.
  See the License for the specific language governing permissions and
  limitations under the License.
-->
<svg width="24" height="24" viewBox="0 0 24 24" fill="none" xmlns="http://www.w3.org/2000/svg">
<g clip-path="url(#clip0_3496_34852)">
<path d="M16 21C16 21.5523 15.5523 22 15 22V22C14.4477 22 14 21.5523 14 21L14 3C14 2.44772 14.4477 2 15 2V2C15.5523 2 16 2.44771 16 3L16 21ZM10 21C10 21.5523 9.55228 22 9 22V22C8.44772 22 8 21.5523 8 21L8 3C8 2.44772 8.44771 2 9 2V2C9.55228 2 10 2.44772 10 3L10 21Z" fill="black"/>
</g>
<defs>
<clipPath id="clip0_3496_34852">
<rect width="24" height="24" fill="white"/>
</clipPath>
</defs>
</svg>