<!--
 Copyright 2023-2025 Solace Systems. All rights reserved.

 Licensed under the Apache License, Version 2.0 (the "License");
 you may not use this file except in compliance with the License.
 You may obtain a copy of the License at

     http://www.apache.org/licenses/LICENSE-2.0

 Unless required by applicable law or agreed to in writing, software
 distributed under the License is distributed on an "AS IS" BASIS,
 WITHOUT WARRANTIES OR CONDITIONS OF ANY KIND, either express or implied.
 See the License for the specific language governing permissions and
 limitations under the License.
-->
<svg width="24" height="24" viewBox="0 0 24 24" fill="none" xmlns="http://www.w3.org/2000/svg">
<g clip-path="url(#clip0_3496_34916)">
<path d="M2 17.167V21.603C2 21.822 2.178 22 2.397 22H6.834C6.94 22 7.042 21.958 7.117 21.883L18 11L13 6.00001L2.118 16.882C2.042 16.958 2 17.06 2 17.167ZM6 20H4V18L13 8.95001L15.05 11L6 20ZM21.882 6.99301L19.363 9.46301L14.51 4.61001L17.004 2.11601C17.159 1.96101 17.41 1.96101 17.565 2.11601L21.885 6.43601C22.039 6.59001 22.038 6.84001 21.882 6.99301Z" fill="black"/>
</g>
<defs>
<clipPath id="clip0_3496_34916">
<rect width="24" height="24" fill="white"/>
</clipPath>
</defs>
</svg>
