<!--
 Copyright 2023-2025 Solace Systems. All rights reserved.

 Licensed under the Apache License, Version 2.0 (the "License");
 you may not use this file except in compliance with the License.
 You may obtain a copy of the License at

     http://www.apache.org/licenses/LICENSE-2.0

 Unless required by applicable law or agreed to in writing, software
 distributed under the License is distributed on an "AS IS" BASIS,
 WITHOUT WARRANTIES OR CONDITIONS OF ANY KIND, either express or implied.
 See the License for the specific language governing permissions and
 limitations under the License.
-->
<?xml version="1.0" encoding="utf-8"?>
<!-- Generator: Adobe Illustrator 25.4.1, SVG Export Plug-In . SVG Version: 6.00 Build 0)  -->
<svg version="1.1" id="Layer_1" xmlns="http://www.w3.org/2000/svg" xmlns:xlink="http://www.w3.org/1999/xlink" x="0px" y="0px"
	 viewBox="0 0 24 24" style="enable-background:new 0 0 24 24;" xml:space="preserve">
<path d="M11,19.166v1.433C11,20.821,11.179,21,11.401,21h1.433c0.106,0,0.208-0.042,0.283-0.117L19,15l-2-2l-5.883,5.883
	C11.042,18.958,11,19.06,11,19.166z M20.884,12.569l-1.436-1.455c-0.151-0.15-0.4-0.153-0.554-0.006l-1.113,1.117l1.994,2
	l1.111-1.097C21.038,12.974,21.038,12.723,20.884,12.569z M12,11H7c-2.2,0-4,1.8-4,4c0,1.1,0.9,2,2,2h5l5-5C14.3,11.3,13.1,11,12,11
	z M9.5,3C11.433,3,13,4.567,13,6.5S11.433,10,9.5,10S6,8.433,6,6.5S7.567,3,9.5,3z"/>
</svg>
