<!--
 Copyright 2023-2025 Solace Systems. All rights reserved.

 Licensed under the Apache License, Version 2.0 (the "License");
 you may not use this file except in compliance with the License.
 You may obtain a copy of the License at

     http://www.apache.org/licenses/LICENSE-2.0

 Unless required by applicable law or agreed to in writing, software
 distributed under the License is distributed on an "AS IS" BASIS,
 WITHOUT WARRANTIES OR CONDITIONS OF ANY KIND, either express or implied.
 See the License for the specific language governing permissions and
 limitations under the License.
-->
<svg width="24" height="24" viewBox="0 0 24 24" fill="none" xmlns="http://www.w3.org/2000/svg">
<g clip-path="url(#clip0_11380_43519)">
<path fill-rule="evenodd" clip-rule="evenodd" d="M4 4C4 2.89543 4.89543 2 6 2H12C13.1046 2 14 2.89543 14 4V16H16.0002C16.2762 16 16.5 15.7762 16.5 15.5002V12.937C15.6374 12.715 15 11.9319 15 11V9.9C15 9.67909 15.1791 9.5 15.4 9.5H15.5V7.4C15.5 7.17909 15.6791 7 15.9 7H16.6C16.8209 7 17 7.17909 17 7.4V9.5H18V7.4C18 7.17909 18.1791 7 18.4 7H19.1C19.3209 7 19.5 7.17909 19.5 7.4V9.5H19.6C19.8209 9.5 20 9.67909 20 9.9V11C20 11.9319 19.3626 12.715 18.5 12.937V15.5002C18.5 16.8808 17.3808 18 16.0002 18H14V21.6C14 21.8209 13.8209 22 13.6 22H4.4C4.17909 22 4 21.8209 4 21.6V4ZM9.00922 14.5029L8.99654 11.3997C8.99471 10.9522 8.20608 10.8436 8.01239 11.2641L6.03078 15.5664C5.92457 15.797 6.10356 16.0481 6.40835 16.0961L9.00922 16.5056V19.599C9.00922 20.0473 9.79959 20.1571 9.99344 19.7358L11.9693 15.4413C12.0753 15.2109 11.8966 14.96 11.5922 14.9118L9.00922 14.5029ZM12 5H6V9H12V5Z" fill="black"/>
</g>
<defs>
<clipPath id="clip0_11380_43519">
<rect width="24" height="24" fill="white"/>
</clipPath>
</defs>
</svg>
