<svg width="24" height="24" viewBox="0 0 24 24" fill="none" xmlns="http://www.w3.org/2000/svg">
<g clip-path="url(#clip0_161_524)">
<path fill-rule="evenodd" clip-rule="evenodd" d="M19.4955 18.081C19.6517 18.2372 19.6517 18.4905 19.4955 18.6467L18.647 19.4952C18.4908 19.6514 18.2375 19.6514 18.0813 19.4952L16.9073 18.3212L12.3849 20.8982C12.1467 21.0339 11.8533 21.0339 11.6151 20.8982L4.3849 16.7781C4.14672 16.6424 4 16.3916 4 16.1201V7.8799C4 7.60845 4.14672 7.35762 4.3849 7.2219L5.29141 6.70532L4.50486 5.91877C4.34865 5.76256 4.34865 5.50929 4.50486 5.35308L5.35339 4.50455C5.5096 4.34834 5.76286 4.34834 5.91907 4.50455L19.4955 18.081ZM6.75776 8.17167L6 8.60347V15.3965L12 18.8156L15.4409 16.8548L6.75776 8.17167Z" fill="black"/>
<path d="M18 8.60347V13.757L20 15.757V7.8799C20 7.60845 19.8533 7.35762 19.6151 7.2219L12.3849 3.10179C12.1467 2.96607 11.8533 2.96607 11.6151 3.10179L8.89492 4.65188L10.3613 6.11822L12 5.18439L18 8.60347Z" fill="black"/>
</g>
<defs>
<clipPath id="clip0_161_524">
<rect width="24" height="24" fill="white"/>
</clipPath>
</defs>
</svg>
