<?xml version="1.0" encoding="utf-8"?>
<!--
  Copyright 2023-2025 Solace Systems. All rights reserved.

  Licensed under the Apache License, Version 2.0 (the "License");
  you may not use this file except in compliance with the License.
  You may obtain a copy of the License at

      http://www.apache.org/licenses/LICENSE-2.0

  Unless required by applicable law or agreed to in writing, software
  distributed under the License is distributed on an "AS IS" BASIS,
  WITHOUT WARRANTIES OR CONDITIONS OF ANY KIND, either express or implied.
  See the License for the specific language governing permissions and
  limitations under the License.
-->
<svg width="24" height="24" viewBox="0 0 24 24" fill="none" xmlns="http://www.w3.org/2000/svg">
<g clip-path="url(#clip0_161_520)">
<path d="M15 9.5C15 10.3284 14.3284 11 13.5 11C13.119 11 12.7711 10.8579 12.5066 10.6239L10.4793 11.7502C10.4929 11.8314 10.5 11.9149 10.5 12C10.5 12.0851 10.4929 12.1686 10.4793 12.2498L12.5066 13.3761C12.7711 13.1421 13.119 13 13.5 13C14.3284 13 15 13.6716 15 14.5C15 15.3284 14.3284 16 13.5 16C12.6716 16 12 15.3284 12 14.5C12 14.4149 12.0071 14.3314 12.0207 14.2502L9.99344 13.1239C9.72886 13.3579 9.38102 13.5 9 13.5C8.17157 13.5 7.5 12.8284 7.5 12C7.5 11.1716 8.17157 10.5 9 10.5C9.38102 10.5 9.72886 10.6421 9.99344 10.8761L12.0207 9.74985C12.0071 9.66859 12 9.58512 12 9.5C12 8.67157 12.6716 8 13.5 8C14.3284 8 15 8.67157 15 9.5Z" fill="black"/>
<path fill-rule="evenodd" clip-rule="evenodd" d="M12.3849 3.10179C12.1467 2.96607 11.8533 2.96607 11.6151 3.10179L4.3849 7.2219C4.14672 7.35762 4 7.60845 4 7.8799V16.1201C4 16.3915 4.14672 16.6424 4.3849 16.7781L11.6151 20.8982C11.8533 21.0339 12.1467 21.0339 12.3849 20.8982L19.6151 16.7781C19.8533 16.6424 20 16.3915 20 16.1201V7.8799C20 7.60845 19.8533 7.35762 19.6151 7.2219L12.3849 3.10179ZM12 5.18439L6 8.60347V15.3965L12 18.8156L18 15.3965V8.60347L12 5.18439Z" fill="black"/>
</g>
<defs>
<clipPath id="clip0_161_520">
<rect width="24" height="24" fill="white"/>
</clipPath>
</defs>
</svg>