<?xml version="1.0" encoding="utf-8"?>
<!--
  Copyright 2023-2025 Solace Systems. All rights reserved.

  Licensed under the Apache License, Version 2.0 (the "License");
  you may not use this file except in compliance with the License.
  You may obtain a copy of the License at

      http://www.apache.org/licenses/LICENSE-2.0

  Unless required by applicable law or agreed to in writing, software
  distributed under the License is distributed on an "AS IS" BASIS,
  WITHOUT WARRANTIES OR CONDITIONS OF ANY KIND, either express or implied.
  See the License for the specific language governing permissions and
  limitations under the License.
-->
<svg width="24" height="24" viewBox="0 0 24 24" fill="none" xmlns="http://www.w3.org/2000/svg">
<path d="M17.7541 5L13.2662 11L12.9923 11.462V12V15.899L11.0074 17.4V12V11.462L10.7325 11L6.24471 5H17.7541ZM20.5349 3H3.46489C3.13441 3 2.87042 3.379 3.06792 3.645L9.02254 12V20.6C9.02254 20.84 9.21706 21 9.42349 21C9.51082 21 9.60014 20.978 9.67755 20.913L14.8313 17C14.9226 16.924 14.9772 16.817 14.9772 16.698V12L20.9318 3.6C21.1303 3.334 20.8644 3 20.5349 3Z" fill="black"/>
</svg>