<svg width="24" height="24" viewBox="0 0 24 24" fill="none" xmlns="http://www.w3.org/2000/svg">
<g clip-path="url(#clip0_12063_43447)">
<path d="M17.7981 5L13.2761 11L13.0001 11.462V12V15.899L11.0001 17.4V12V11.462L10.7231 11L6.20107 5H17.7981ZM20.6001 3H3.40007C3.06707 3 2.80107 3.379 3.00007 3.645L9.00007 12V20.6C9.00007 20.84 9.19607 21 9.40407 21C9.49207 21 9.58207 20.978 9.66007 20.913L14.8531 17C14.9451 16.924 15.0001 16.817 15.0001 16.698V12L21.0001 3.6C21.2001 3.334 20.9321 3 20.6001 3Z" fill="black"/>
</g>
<defs>
<clipPath id="clip0_12063_43447">
<rect width="24" height="24" fill="white"/>
</clipPath>
</defs>
</svg>
