<?xml version="1.0" encoding="utf-8"?>
<!-- Generator: Adobe Illustrator 25.4.1, SVG Export Plug-In . SVG Version: 6.00 Build 0)  -->
<svg version="1.1" id="Filter" xmlns="http://www.w3.org/2000/svg" xmlns:xlink="http://www.w3.org/1999/xlink" x="0px" y="0px"
	 viewBox="0 0 24 24" style="enable-background:new 0 0 24 24;" xml:space="preserve">
<path d="M20.598,18H16.4c-0.356,0-0.535,0.431-0.283,0.683l2.13,2.2C18.325,20.961,18.428,21,18.53,21
	c0.102,0,0.205-0.039,0.283-0.117l2.068-2.2C21.133,18.431,20.954,18,20.598,18z M17.798,5l-4.522,6L13,11.462V12v3.899L11,17.4V12
	v-0.538L10.723,11L6.201,5H17.798z M20.6,3H3.4C3.067,3,2.801,3.379,3,3.645L9,12v8.6C9,20.84,9.196,21,9.404,21
	c0.088,0,0.178-0.022,0.256-0.087L14.853,17C14.945,16.924,15,16.817,15,16.698V12l6-8.4C21.2,3.334,20.932,3,20.6,3z"/>
</svg>
