<svg width="18" height="18" viewBox="0 0 18 18" fill="none" xmlns="http://www.w3.org/2000/svg">
<path d="M2 15C2 15.5177 2.39333 15.9438 2.89746 15.9951L3 16H6V18H3L2.8457 17.9961C1.26055 17.9158 4.681e-08 16.6051 0 15V12H2V15ZM18 15C18 16.6051 16.7394 17.9158 15.1543 17.9961L15 18H12V16H15L15.1025 15.9951C15.6067 15.9438 16 15.5177 16 15V12H18V15ZM6 2H3L2.89746 2.00488C2.39333 2.05621 2 2.48232 2 3V6H0V3C4.681e-08 1.39489 1.26055 0.0842143 2.8457 0.00390625L3 0H6V2ZM15.1543 0.00390625C16.7394 0.0842143 18 1.39489 18 3V6H16V3C16 2.48232 15.6067 2.05621 15.1025 2.00488L15 2H12V0H15L15.1543 0.00390625Z" fill="black"/>
</svg>
