<!--
 Copyright 2023-2025 Solace Systems. All rights reserved.

 Licensed under the Apache License, Version 2.0 (the "License");
 you may not use this file except in compliance with the License.
 You may obtain a copy of the License at

     http://www.apache.org/licenses/LICENSE-2.0

 Unless required by applicable law or agreed to in writing, software
 distributed under the License is distributed on an "AS IS" BASIS,
 WITHOUT WARRANTIES OR CONDITIONS OF ANY KIND, either express or implied.
 See the License for the specific language governing permissions and
 limitations under the License.
-->
<svg width="24" height="24" viewBox="0 0 24 24" fill="none" xmlns="http://www.w3.org/2000/svg">
<path d="M10.4 18C10.1791 18 10 17.8209 10 17.6V16.4C10 16.1791 10.1791 16 10.4 16H11.55L14.175 13L11.55 10H9.9L8.3 18.6C8.16667 19.35 7.85833 19.9375 7.375 20.3625C6.89167 20.7875 6.275 21 5.525 21C4.775 21 4.16667 20.8 3.7 20.4C3.23333 20 3 19.4667 3 18.8C3 18.2667 3.14167 17.8375 3.425 17.5125C3.70833 17.1875 4.06667 17.025 4.5 17.025C4.91667 17.025 5.27083 17.1667 5.5625 17.45C5.85417 17.7333 6 18.075 6 18.475C6 18.5583 5.99583 18.6333 5.9875 18.7C5.97917 18.7667 5.96667 18.8417 5.95 18.925C6.03333 18.9083 6.10417 18.8625 6.1625 18.7875C6.22083 18.7125 6.26667 18.6083 6.3 18.475L7.85 10H5.4C5.17909 10 5 9.82091 5 9.6V8.4C5 8.17909 5.17909 8 5.4 8H8.225L8.75 5.15C8.86667 4.51667 9.17917 4 9.6875 3.6C10.1958 3.2 10.8 3 11.5 3C12.2333 3 12.8333 3.21667 13.3 3.65C13.7667 4.08333 14 4.625 14 5.275C14 5.775 13.8583 6.1875 13.575 6.5125C13.2917 6.8375 12.9333 7 12.5 7C12.0833 7 11.7292 6.85833 11.4375 6.575C11.1458 6.29167 11 5.94167 11 5.525C11 5.44167 11.0042 5.36667 11.0125 5.3C11.0208 5.23333 11.0333 5.15833 11.05 5.075C10.95 5.10833 10.875 5.15833 10.825 5.225C10.775 5.29167 10.7333 5.39167 10.7 5.525L10.275 8H14.6C14.8209 8 15 8.17909 15 8.4V9.6C15 9.82091 14.8209 10 14.6 10H14.2L15.5 11.475L16.8 10H16.4C16.1791 10 16 9.82091 16 9.6V8.4C16 8.17909 16.1791 8 16.4 8H20.6C20.8209 8 21 8.17909 21 8.4V9.6C21 9.82091 20.8209 10 20.6 10H19.45L16.825 13L19.45 16H20.6C20.8209 16 21 16.1791 21 16.4V17.6C21 17.8209 20.8209 18 20.6 18H16.4C16.1791 18 16 17.8209 16 17.6V16.4C16 16.1791 16.1791 16 16.4 16H16.8L15.5 14.5L14.2 16H14.6C14.8209 16 15 16.1791 15 16.4V17.6C15 17.8209 14.8209 18 14.6 18H10.4Z" fill="black"/>
</svg>
