<svg width="24" height="24" viewBox="0 0 24 24" fill="none" xmlns="http://www.w3.org/2000/svg">
<g clip-path="url(#clip0_11380_43465)">
<path fill-rule="evenodd" clip-rule="evenodd" d="M7.93616 5.10754L6.71651 3.88789C6.58201 3.75339 6.37086 3.73152 6.21579 3.84166C5.29753 4.49387 4.49412 5.29728 3.84186 6.21554C3.73171 6.37062 3.75358 6.58177 3.88809 6.71627L5.10773 7.93591C4.73151 8.57263 4.44098 9.26587 4.25201 10H2.52698C2.33674 10 2.17195 10.1339 2.14025 10.3214C2.04802 10.8672 2 11.428 2 12C2 12.572 2.04802 13.1328 2.14025 13.6786C2.17195 13.8661 2.33674 14 2.52698 14H4.25201C4.44098 14.7341 4.73151 15.4274 5.10773 16.0641L3.88809 17.2837C3.75358 17.4182 3.73171 17.6294 3.84186 17.7845C4.49412 18.7027 5.29753 19.5061 6.21579 20.1583C6.37087 20.2685 6.58201 20.2466 6.71651 20.1121L7.93622 18.8925C8.57281 19.2686 9.26605 19.559 10 19.7479V21.473C10 21.6632 10.1338 21.828 10.3214 21.8597C10.8672 21.952 11.428 22 12 22C12.572 22 13.1328 21.952 13.6786 21.8597C13.8662 21.828 14 21.6632 14 21.473V19.7479C14.7341 19.559 15.4274 19.2686 16.064 18.8923L17.2837 20.112C17.4182 20.2465 17.6294 20.2683 17.7845 20.1582C18.7027 19.5059 19.5061 18.7025 20.1583 17.7842C20.2685 17.6291 20.2466 17.418 20.1121 17.2835L18.8924 16.0638C19.2686 15.4272 19.5591 14.734 19.748 14H21.473C21.6633 14 21.8281 13.8661 21.8598 13.6786C21.952 13.1328 22 12.572 22 12C22 11.428 21.952 10.8672 21.8598 10.3214C21.8281 10.1339 21.6633 10 21.473 10H19.748C19.5591 9.26599 19.2686 8.57288 18.8925 7.93628L20.1122 6.71652C20.2467 6.58201 20.2685 6.37086 20.1584 6.21579C19.5061 5.29753 18.7028 4.49412 17.7845 3.84182C17.6294 3.73166 17.4183 3.75353 17.2838 3.88804L16.0641 5.10779C15.4274 4.73157 14.7341 4.44104 14 4.25208V2.52701C14 2.33678 13.8662 2.172 13.6786 2.14029C13.1328 2.04802 12.572 2 12 2C11.428 2 10.8672 2.04802 10.3214 2.14029C10.1338 2.172 10 2.33678 10 2.52701V4.25208C9.26599 4.44104 8.57275 4.73145 7.93616 5.10754ZM12 15C13.6569 15 15 13.6569 15 12C15 10.3431 13.6569 9 12 9C10.3431 9 9 10.3431 9 12C9 13.6569 10.3431 15 12 15Z" fill="black"/>
</g>
<defs>
<clipPath id="clip0_11380_43465">
<rect width="24" height="24" fill="white"/>
</clipPath>
</defs>
</svg>
