<?xml version="1.0" encoding="utf-8"?>
<!--
  Copyright 2023-2025 Solace Systems. All rights reserved.

  Licensed under the Apache License, Version 2.0 (the "License");
  you may not use this file except in compliance with the License.
  You may obtain a copy of the License at

      http://www.apache.org/licenses/LICENSE-2.0

  Unless required by applicable law or agreed to in writing, software
  distributed under the License is distributed on an "AS IS" BASIS,
  WITHOUT WARRANTIES OR CONDITIONS OF ANY KIND, either express or implied.
  See the License for the specific language governing permissions and
  limitations under the License.
-->
<svg width="24" height="24" viewBox="0 0 24 24" fill="none" xmlns="http://www.w3.org/2000/svg">
<g clip-path="url(#clip0_1284_65143)">
<path fill-rule="evenodd" clip-rule="evenodd" d="M9 5H5V9H9V5ZM5 3C3.89543 3 3 3.89543 3 5V9C3 10.1046 3.89543 11 5 11H9C10.1046 11 11 10.1046 11 9V5C11 3.89543 10.1046 3 9 3H5Z" fill="black"/>
<path fill-rule="evenodd" clip-rule="evenodd" d="M9 15H5V19H9V15ZM5 13C3.89543 13 3 13.8954 3 15V19C3 20.1046 3.89543 21 5 21H9C10.1046 21 11 20.1046 11 19V15C11 13.8954 10.1046 13 9 13H5Z" fill="black"/>
<path fill-rule="evenodd" clip-rule="evenodd" d="M19 5H15V9H19V5ZM15 3C13.8954 3 13 3.89543 13 5V9C13 10.1046 13.8954 11 15 11H19C20.1046 11 21 10.1046 21 9V5C21 3.89543 20.1046 3 19 3H15Z" fill="black"/>
<path fill-rule="evenodd" clip-rule="evenodd" d="M19 15H15V19H19V15ZM15 13C13.8954 13 13 13.8954 13 15V19C13 20.1046 13.8954 21 15 21H19C20.1046 21 21 20.1046 21 19V15C21 13.8954 20.1046 13 19 13H15Z" fill="black"/>
</g>
<defs>
<clipPath id="clip0_1284_65143">
<rect width="24" height="24" fill="white"/>
</clipPath>
</defs>
</svg>