<svg width="24" height="24" viewBox="0 0 24 24" fill="none" xmlns="http://www.w3.org/2000/svg">
<g clip-path="url(#clip0_3496_34902)">
<path d="M16.3406 11.8195C15.9406 10.3128 14.7306 9.08732 13.2206 8.68554C12.7406 8.55496 12.2606 8.50474 11.8005 8.53487L16.4906 13.2458C16.5206 12.7837 16.4706 12.3016 16.3406 11.8195ZM15.8206 15.4054L8.63052 8.18331L7.11051 6.65653L4.56 4.113C4.41 3.96233 4.15 3.96233 4 4.113L3.14999 4.97684C2.99999 5.12751 2.99999 5.38867 3.14999 5.53934L5.3805 7.76143C4.00049 8.8563 2.87048 10.2927 2.04047 11.9701C1.91047 12.2313 2.11048 12.5427 2.40048 12.5427H3.77049C3.91049 12.5427 4.04049 12.4623 4.11049 12.3418C4.8505 11.0762 5.7605 10.0215 6.83051 9.2179L8.22052 10.6141C7.57052 11.6286 7.31051 12.9244 7.66052 14.2703C8.06052 15.777 9.28053 17.0025 10.7805 17.4043C12.1205 17.7659 13.4106 17.4947 14.4206 16.8418L17.59 19.887C17.74 20.0377 18 20.0377 18.15 19.887L19 19.0332C19.15 18.8825 19.15 18.6214 19 18.4707L15.8206 15.4054ZM21.9606 11.9701C20.0506 8.13309 16.5906 5.51144 12.0005 5.51144C11.0005 5.51144 10.0505 5.64202 9.16053 5.88309L10.8705 7.59068C11.2305 7.54045 11.6105 7.52036 12.0005 7.52036C15.5206 7.52036 18.1606 9.36857 19.8906 12.3418C19.9606 12.4623 20.0806 12.5427 20.2206 12.5427H21.4806C21.8906 12.5427 22.0906 12.2313 21.9606 11.9701Z" fill="black"/>
</g>
<defs>
<clipPath id="clip0_3496_34902">
<rect width="24" height="24" fill="white"/>
</clipPath>
</defs>
</svg>
