<!--
 Copyright 2023-2025 Solace Systems. All rights reserved.

 Licensed under the Apache License, Version 2.0 (the "License");
 you may not use this file except in compliance with the License.
 You may obtain a copy of the License at

     http://www.apache.org/licenses/LICENSE-2.0

 Unless required by applicable law or agreed to in writing, software
 distributed under the License is distributed on an "AS IS" BASIS,
 WITHOUT WARRANTIES OR CONDITIONS OF ANY KIND, either express or implied.
 See the License for the specific language governing permissions and
 limitations under the License.
-->
<svg width="24" height="24" viewBox="0 0 24 24" fill="none" xmlns="http://www.w3.org/2000/svg">
<path fill-rule="evenodd" clip-rule="evenodd" d="M11 4.99963H5V7.00049H11V4.99963ZM13 9.00037V18.9996L19 19.0004V9.00037H13ZM5 20.9996C3.89543 20.9996 3 20.1042 3 18.9996V4.99963C3 3.89506 3.89543 2.99963 5 2.99963H11C12.1046 2.99963 13 3.89506 13 4.99963V7.00037H19C20.1046 7.00037 21 7.8958 21 9.00037V19.0004C21 20.1049 20.1046 21.0004 19 21.0004L5 20.9996ZM11 18.9996V16.9996H5L5 18.9996H11ZM11 14.9996V12.9996H5V14.9996H11ZM11 10.9996V9.00049H5V10.9996H11Z" fill="black"/>
<path fill-rule="evenodd" clip-rule="evenodd" d="M18 12.5996C18 12.8205 17.8209 12.9996 17.6 12.9996H14.4C14.1791 12.9996 14 12.8205 14 12.5996V11.3996C14 11.1787 14.1791 10.9996 14.4 10.9996H17.6C17.8209 10.9996 18 11.1787 18 11.3996V12.5996Z" fill="black"/>
<path fill-rule="evenodd" clip-rule="evenodd" d="M18 16.5996C18 16.8205 17.8209 16.9996 17.6 16.9996H14.4C14.1791 16.9996 14 16.8205 14 16.5996V15.3996C14 15.1787 14.1791 14.9996 14.4 14.9996H17.6C17.8209 14.9996 18 15.1787 18 15.3996V16.5996Z" fill="black"/>
</svg>
