<svg width="24" height="24" viewBox="0 0 24 24" fill="none" xmlns="http://www.w3.org/2000/svg">
<g clip-path="url(#clip0_11380_43534)">
<path fill-rule="evenodd" clip-rule="evenodd" d="M21 10.5C21 12.957 19.485 15 17 15H16.4883V17.6C16.4883 17.8209 16.3092 18 16.0883 18H15.8883C15.6674 18 15.4883 17.8209 15.4883 17.6V15H12.5V17.6C12.5 17.8209 12.3209 18 12.1 18H11.9C11.6791 18 11.5 17.8209 11.5 17.6V15H8.5V17.6C8.5 17.8209 8.32091 18 8.1 18H7.9C7.67909 18 7.5 17.8209 7.5 17.6V15H6C4.178 15 3 13.301 3 11.5C3 9.699 4.477 8.477 6.299 8.478C6.31978 8.478 6.33544 8.4834 6.35129 8.48887C6.36595 8.49392 6.38078 8.49904 6.4 8.5C6.321 8.169 6.3 7.855 6.3 7.5C6.3 5.043 8.515 3 11 3C13.086 3 14.49 4.396 15 6.3C15.426 6.167 16.029 6 16.5 6C18.985 6 21 8.043 21 10.5ZM15.9853 11.1707C16.152 11.3398 16.4282 11.3405 16.5871 11.1641L16.8973 10.8196C17.0342 10.6675 17.0348 10.4358 16.8932 10.288C15.5491 8.88486 13.9957 8 11.9984 8C10.0168 8 8.47186 8.9294 7.11254 10.2872C6.96493 10.4346 6.9624 10.6715 7.102 10.8266L7.40585 11.1641C7.56474 11.3405 7.84094 11.3398 8.00771 11.1707C9.10423 10.0592 10.3828 9.33485 11.9984 9.33485C13.6147 9.33485 14.8894 10.059 15.9853 11.1707ZM14.295 12.8534C14.4733 13.0227 14.7629 13.0303 14.9274 12.8476L15.2215 12.5209C15.3585 12.3688 15.3593 12.1369 15.2127 11.994C14.7815 11.5737 14.2452 11.1772 13.7658 10.9544C13.1884 10.6861 12.5993 10.552 11.9984 10.552C11.3975 10.5912 10.8083 10.7352 10.231 10.9838C9.75168 11.1903 9.2139 11.5771 8.78215 11.9945C8.63497 12.1368 8.63586 12.3688 8.77284 12.5209L9.08296 12.8654C9.24185 13.0418 9.51864 13.0414 9.69444 12.8818C10.0116 12.5938 10.3876 12.3256 10.7082 12.1813C11.1441 11.985 11.5742 11.8868 11.9984 11.8868C12.4579 11.8868 12.9057 11.985 13.3416 12.1813C13.6516 12.3209 14.0033 12.5763 14.295 12.8534Z" fill="black"/>
<path d="M9.01172 20C9.01172 20.5523 8.564 21 8.01172 21C7.45943 21 7.01172 20.5523 7.01172 20C7.01172 19.4477 7.45943 19 8.01172 19C8.564 19 9.01172 19.4477 9.01172 20Z" fill="black"/>
<path d="M12 21C12.5523 21 13 20.5523 13 20C13 19.4477 12.5523 19 12 19C11.4477 19 11 19.4477 11 20C11 20.5523 11.4477 21 12 21Z" fill="black"/>
<path d="M15.9883 21C16.5406 21 16.9883 20.5523 16.9883 20C16.9883 19.4477 16.5406 19 15.9883 19C15.436 19 14.9883 19.4477 14.9883 20C14.9883 20.5523 15.436 21 15.9883 21Z" fill="black"/>
</g>
<defs>
<clipPath id="clip0_11380_43534">
<rect width="24" height="24" fill="white"/>
</clipPath>
</defs>
</svg>
