<!--
 Copyright 2023-2025 Solace Systems. All rights reserved.

 Licensed under the Apache License, Version 2.0 (the "License");
 you may not use this file except in compliance with the License.
 You may obtain a copy of the License at

     http://www.apache.org/licenses/LICENSE-2.0

 Unless required by applicable law or agreed to in writing, software
 distributed under the License is distributed on an "AS IS" BASIS,
 WITHOUT WARRANTIES OR CONDITIONS OF ANY KIND, either express or implied.
 See the License for the specific language governing permissions and
 limitations under the License.
-->
<svg width="24" height="24" viewBox="0 0 24 24" fill="none" xmlns="http://www.w3.org/2000/svg">
<path d="M4 19C3.45 19 2.97917 18.8042 2.5875 18.4125C2.19583 18.0208 2 17.55 2 17V7C2 6.45 2.19583 5.97917 2.5875 5.5875C2.97917 5.19583 3.45 5 4 5H20C20.55 5 21.0208 5.19583 21.4125 5.5875C21.8042 5.97917 22 6.45 22 7V17C22 17.55 21.8042 18.0208 21.4125 18.4125C21.0208 18.8042 20.55 19 20 19H4ZM4 17H20V7H4V17ZM8 15.6C8 15.8209 8.17909 16 8.4 16H15.6C15.8209 16 16 15.8209 16 15.6V14.4C16 14.1791 15.8209 14 15.6 14H8.4C8.17909 14 8 14.1791 8 14.4V15.6ZM5 12.6C5 12.8209 5.17909 13 5.4 13H6.6C6.82091 13 7 12.8209 7 12.6V11.4C7 11.1791 6.82091 11 6.6 11H5.4C5.17909 11 5 11.1791 5 11.4V12.6ZM8 12.6C8 12.8209 8.17909 13 8.4 13H9.6C9.82091 13 10 12.8209 10 12.6V11.4C10 11.1791 9.82091 11 9.6 11H8.4C8.17909 11 8 11.1791 8 11.4V12.6ZM11 12.6C11 12.8209 11.1791 13 11.4 13H12.6C12.8209 13 13 12.8209 13 12.6V11.4C13 11.1791 12.8209 11 12.6 11H11.4C11.1791 11 11 11.1791 11 11.4V12.6ZM14 12.6C14 12.8209 14.1791 13 14.4 13H15.6C15.8209 13 16 12.8209 16 12.6V11.4C16 11.1791 15.8209 11 15.6 11H14.4C14.1791 11 14 11.1791 14 11.4V12.6ZM17 12.6C17 12.8209 17.1791 13 17.4 13H18.6C18.8209 13 19 12.8209 19 12.6V11.4C19 11.1791 18.8209 11 18.6 11H17.4C17.1791 11 17 11.1791 17 11.4V12.6ZM5 9.6C5 9.82091 5.17909 10 5.4 10H6.6C6.82091 10 7 9.82091 7 9.6V8.4C7 8.17909 6.82091 8 6.6 8H5.4C5.17909 8 5 8.17909 5 8.4V9.6ZM8 9.6C8 9.82091 8.17909 10 8.4 10H9.6C9.82091 10 10 9.82091 10 9.6V8.4C10 8.17909 9.82091 8 9.6 8H8.4C8.17909 8 8 8.17909 8 8.4V9.6ZM11 9.6C11 9.82091 11.1791 10 11.4 10H12.6C12.8209 10 13 9.82091 13 9.6V8.4C13 8.17909 12.8209 8 12.6 8H11.4C11.1791 8 11 8.17909 11 8.4V9.6ZM14 9.6C14 9.82091 14.1791 10 14.4 10H15.6C15.8209 10 16 9.82091 16 9.6V8.4C16 8.17909 15.8209 8 15.6 8H14.4C14.1791 8 14 8.17909 14 8.4V9.6ZM17 9.6C17 9.82091 17.1791 10 17.4 10H18.6C18.8209 10 19 9.82091 19 9.6V8.4C19 8.17909 18.8209 8 18.6 8H17.4C17.1791 8 17 8.17909 17 8.4V9.6Z" fill="black"/>
</svg>
