<!--
 Copyright 2023-2025 Solace Systems. All rights reserved.

 Licensed under the Apache License, Version 2.0 (the "License");
 you may not use this file except in compliance with the License.
 You may obtain a copy of the License at

     http://www.apache.org/licenses/LICENSE-2.0

 Unless required by applicable law or agreed to in writing, software
 distributed under the License is distributed on an "AS IS" BASIS,
 WITHOUT WARRANTIES OR CONDITIONS OF ANY KIND, either express or implied.
 See the License for the specific language governing permissions and
 limitations under the License.
-->
<svg width="24" height="24" viewBox="0 0 24 24" fill="none" xmlns="http://www.w3.org/2000/svg">
<g clip-path="url(#clip0_11380_43501)">
<path d="M8 5C8 3.89543 8.89543 3 10 3H14C15.1046 3 16 3.89543 16 5V9C16 10.1046 15.1046 11 14 11H12.5V13H19.1C19.3209 13 19.5 13.1791 19.5 13.4V17H20.6C20.8209 17 21 17.1791 21 17.4V20.6C21 20.8209 20.8209 21 20.6 21H17.4C17.1791 21 17 20.8209 17 20.6V17.4C17 17.1791 17.1791 17 17.4 17H18.5V14H12.5V17H13.6C13.8209 17 14 17.1791 14 17.4V20.6C14 20.8209 13.8209 21 13.6 21H10.4C10.1791 21 10 20.8209 10 20.6V17.4C10 17.1791 10.1791 17 10.4 17H11.5V14H5.5V17H6.6C6.82091 17 7 17.1791 7 17.4V20.6C7 20.8209 6.82091 21 6.6 21H3.4C3.17909 21 3 20.8209 3 20.6V17.4C3 17.1791 3.17909 17 3.4 17H4.5V13.4C4.5 13.1791 4.67909 13 4.9 13H11.5V11H10C8.89543 11 8 10.1046 8 9V5Z" fill="black"/>
</g>
<defs>
<clipPath id="clip0_11380_43501">
<rect width="24" height="24" fill="white"/>
</clipPath>
</defs>
</svg>
