<svg width="24" height="24" viewBox="0 0 24 24" fill="none" xmlns="http://www.w3.org/2000/svg">
<path fill-rule="evenodd" clip-rule="evenodd" d="M20.5 12C20.5 16.6944 16.6944 20.5 12 20.5C7.30558 20.5 3.5 16.6944 3.5 12C3.5 7.30558 7.30558 3.5 12 3.5C16.6944 3.5 20.5 7.30558 20.5 12ZM22 12C22 17.5228 17.5228 22 12 22C6.47715 22 2 17.5228 2 12C2 6.47715 6.47715 2 12 2C17.5228 2 22 6.47715 22 12ZM12.7822 18.4284H11.2086C11.0507 18.4284 10.9229 18.3006 10.9229 18.1427V16.5727C10.9229 16.4149 11.0522 16.2856 11.21 16.2856H12.7822C12.9393 16.2856 13.0679 16.4141 13.0679 16.5713V18.1427C13.0679 18.3006 12.94 18.4284 12.7822 18.4284ZM7.71503 9.55915C7.87646 7.27058 9.85717 5.57272 12.2365 5.57129C14.3293 5.56986 16.2857 7.36058 16.2857 9.45272C16.2857 11.2366 15.3713 11.9963 14.517 12.706C13.8094 13.2939 13.143 13.8475 13.0715 14.9206C13.0593 15.1056 12.9629 15.2134 12.6429 15.2134H11.2122C11.0543 15.2134 10.9215 15.0791 10.9265 14.9213C10.9876 13.1051 11.965 12.3672 12.8278 11.7158C13.5684 11.1567 14.2245 10.6614 14.1443 9.60272C14.09 8.88415 13.67 8.27843 13.0207 7.96558C11.5293 7.24629 10.045 8.22129 9.86789 9.59058C9.8486 9.73986 9.73717 9.857 9.45503 9.857H8.00146C7.8386 9.857 7.7036 9.722 7.71503 9.55915Z" fill="black"/>
</svg>
