<svg width="24" height="24" viewBox="0 0 24 24" fill="none" xmlns="http://www.w3.org/2000/svg">
<path d="M11.2086 18.4284H12.7822C12.94 18.4284 13.0679 18.3006 13.0679 18.1427V16.5713C13.0679 16.4141 12.9393 16.2856 12.7822 16.2856H11.21C11.0522 16.2856 10.9229 16.4149 10.9229 16.5727V18.1427C10.9229 18.3006 11.0507 18.4284 11.2086 18.4284ZM12.2365 5.57129C9.85717 5.57272 7.87646 7.27058 7.71503 9.55915C7.7036 9.722 7.8386 9.857 8.00146 9.857H9.45503C9.73717 9.857 9.8486 9.73986 9.86789 9.59058C10.045 8.22129 11.5293 7.24629 13.0207 7.96558C13.67 8.27843 14.09 8.88415 14.1443 9.60272C14.3179 11.8949 11.04 11.5463 10.9265 14.9213C10.9215 15.0791 11.0543 15.2134 11.2122 15.2134H12.6429C12.9629 15.2134 13.0593 15.1056 13.0715 14.9206C13.2293 12.552 16.2857 12.7141 16.2857 9.45272C16.2857 7.36058 14.3293 5.56986 12.2365 5.57129Z" fill="black"/>
</svg>
