<?xml version="1.0" encoding="utf-8"?>
<!--
  Copyright 2023-2025 Solace Systems. All rights reserved.

  Licensed under the Apache License, Version 2.0 (the "License");
  you may not use this file except in compliance with the License.
  You may obtain a copy of the License at

      http://www.apache.org/licenses/LICENSE-2.0

  Unless required by applicable law or agreed to in writing, software
  distributed under the License is distributed on an "AS IS" BASIS,
  WITHOUT WARRANTIES OR CONDITIONS OF ANY KIND, either express or implied.
  See the License for the specific language governing permissions and
  limitations under the License.
-->
<svg width="24" height="24" viewBox="0 0 24 24" fill="none" xmlns="http://www.w3.org/2000/svg">
<g clip-path="url(#clip0_8612_145193)">
<path d="M20.6 15H20V14C20 12.34 18.66 11 17 11C15.82 11 14.81 11.67 14.32 12.66L15.22 13.11C15.54 12.45 16.22 12 17 12C18.1 12 19 12.89 19 14V15H13.4C13.18 15 13 15.18 13 15.4V20.6C13 20.82 13.18 21 13.4 21H20.6C20.82 21 21 20.82 21 20.6V15.4C21 15.18 20.82 15 20.6 15ZM20 20H14V16H20V20ZM17.3884 17.08C17.2719 17.03 17.1359 17 17 17C16.8641 17 16.7281 17.03 16.6116 17.08C16.2524 17.23 16 17.59 16 18C16 18.41 16.2524 18.77 16.6116 18.92C16.7281 18.97 16.8641 19 17 19C17.1359 19 17.2719 18.97 17.3884 18.92C17.7476 18.77 18 18.41 18 18C18 17.59 17.7476 17.23 17.3884 17.08ZM9.5 3C7.57 3 6 4.57 6 6.5C6 8.43 7.57 10 9.5 10C11.43 10 13 8.43 13 6.5C13 4.57 11.43 3 9.5 3ZM7 11C4.8 11 3 12.8 3 15C3 16.1 3.9 17 5 17H11V14C11 12.85 12.04 11.5 13 11H7Z" fill="black"/>
</g>
<defs>
<clipPath id="clip0_8612_145193">
<rect width="24" height="24" fill="white"/>
</clipPath>
</defs>
</svg>