<?xml version="1.0" encoding="utf-8"?>
<!--
  Copyright 2023-2025 Solace Systems. All rights reserved.

  Licensed under the Apache License, Version 2.0 (the "License");
  you may not use this file except in compliance with the License.
  You may obtain a copy of the License at

      http://www.apache.org/licenses/LICENSE-2.0

  Unless required by applicable law or agreed to in writing, software
  distributed under the License is distributed on an "AS IS" BASIS,
  WITHOUT WARRANTIES OR CONDITIONS OF ANY KIND, either express or implied.
  See the License for the specific language governing permissions and
  limitations under the License.
-->
<svg width="24" height="24" viewBox="0 0 24 24" fill="none" xmlns="http://www.w3.org/2000/svg">
<g clip-path="url(#clip0_11380_43510)">
<path fill-rule="evenodd" clip-rule="evenodd" d="M9 4C9 2.89543 9.89543 2 11 2H13C14.1046 2 15 2.89543 15 4V5H17C18.1046 5 19 5.89543 19 7V18C19 19.1046 18.1046 20 17 20H16.9146C16.9699 20.1564 17 20.3247 17 20.5C17 21.3284 16.3284 22 15.5 22C14.6716 22 14 21.3284 14 20.5C14 20.3247 14.0301 20.1564 14.0854 20H9.91465C9.96992 20.1564 10 20.3247 10 20.5C10 21.3284 9.32843 22 8.5 22C7.67157 22 7 21.3284 7 20.5C7 20.3247 7.03008 20.1564 7.08535 20H7C5.89543 20 5 19.1046 5 18V7C5 5.89543 5.89543 5 7 5H9V4ZM13 4H11V5H13V4ZM9 8H11V17H9V8ZM15 8H13V17H15V8Z" fill="black"/>
</g>
<defs>
<clipPath id="clip0_11380_43510">
<rect width="24" height="24" fill="white"/>
</clipPath>
</defs>
</svg>