<?xml version="1.0" encoding="UTF-8"?>
<svg id="Layer_1" data-name="Layer 1" xmlns="http://www.w3.org/2000/svg" viewBox="0 0 24 24">
  <defs>
    <style>
      .cls-1 {
        stroke-width: 0px;
      }
    </style>
  </defs>
  <path class="cls-1" d="m21,6c0,1.6568-1.3431,3-3,3-.4637,0-.9029-.1052-1.2949-.2931-.0037.0041-.0076.008-.0115.012l-3.2803,3.2802.0029.0029-1.4142,1.4142-.0029-.0029-7.4677,7.4678c-.1562.1562-.4095.1562-.5657,0l-.8485-.8485c-.1562-.1562-.1562-.4095,0-.5657l7.4677-7.4678-2.792-2.792-.5101.51c-.1562.1562-.4095.1562-.5657,0l-.7172-.7172v1.5062c0,.4391-.5308.6589-.8412.3485l-2.0134-2.0135c-.3104-.3104-.0906-.8412.3485-.8412h1.5062l-.7165-.7165c-.1565-.1565-.1562-.4102.0006-.5663l3.2239-3.2091c.418-.341.9448-.5037,1.4913-.5037.488,0,.9603.1297,1.3534.4002.1807.1244.1791.3793.0247.5352l-1.2129,1.2247,1.0526,1.0526c.1562.1562.1562.4095,0,.5657l-1.0101,1.0101,2.792,2.792,3.2803-3.2802c.0041-.0041.0083-.0081.0126-.0121-.1872-.3914-.292-.8298-.292-1.2926,0-1.6568,1.3431-3,3-3,.264,0,.52.0341.7639.0981.2669.0701.3253.3989.1301.594l-1.4292,1.4292,1.4143,1.4142,1.4289-1.429c.1952-.1951.524-.1367.594.1302.064.2437.098.4995.098.7632Zm-7.5838,8.8304l6.0526,6.0527c.1563.1562.4095.1562.5657,0l.8486-.8486c.1562-.1562.1562-.4094,0-.5657l-6.0527-6.0526-1.4142,1.4142Z"/>
</svg>