<svg width="25" height="24" viewBox="0 0 25 24" fill="none" xmlns="http://www.w3.org/2000/svg">
<g clip-path="url(#clip0_12519_367569)">
<path d="M6.87012 10.0002C5.77012 10.0002 4.87012 10.9002 4.87012 12.0002C4.87012 13.1002 5.77012 14.0002 6.87012 14.0002C7.97012 14.0002 8.87012 13.1002 8.87012 12.0002C8.87012 10.9002 7.97012 10.0002 6.87012 10.0002ZM18.8701 10.0002C17.7701 10.0002 16.8701 10.9002 16.8701 12.0002C16.8701 13.1002 17.7701 14.0002 18.8701 14.0002C19.9701 14.0002 20.8701 13.1002 20.8701 12.0002C20.8701 10.9002 19.9701 10.0002 18.8701 10.0002ZM12.8701 10.0002C11.7701 10.0002 10.8701 10.9002 10.8701 12.0002C10.8701 13.1002 11.7701 14.0002 12.8701 14.0002C13.9701 14.0002 14.8701 13.1002 14.8701 12.0002C14.8701 10.9002 13.9701 10.0002 12.8701 10.0002Z" fill="black"/>
</g>
<defs>
<clipPath id="clip0_12519_367569">
<rect width="24" height="24" fill="white" transform="translate(0.870117 0.000244141)"/>
</clipPath>
</defs>
</svg>
