<?xml version="1.0" encoding="utf-8"?>
<!--
  Copyright 2023-2025 Solace Systems. All rights reserved.

  Licensed under the Apache License, Version 2.0 (the "License");
  you may not use this file except in compliance with the License.
  You may obtain a copy of the License at

      http://www.apache.org/licenses/LICENSE-2.0

  Unless required by applicable law or agreed to in writing, software
  distributed under the License is distributed on an "AS IS" BASIS,
  WITHOUT WARRANTIES OR CONDITIONS OF ANY KIND, either express or implied.
  See the License for the specific language governing permissions and
  limitations under the License.
-->
<svg width="24" height="24" viewBox="0 0 24 24" fill="none" xmlns="http://www.w3.org/2000/svg">
<g clip-path="url(#clip0_11380_43522)">
<path fill-rule="evenodd" clip-rule="evenodd" d="M21 16C21 17.1 20.1 18 19 18C17.9 18 17 17.1 17 16C17 15.89 17.01 15.79 17.03 15.69L14.62 14.31C14.14 14.86 13.49 15.26 12.75 15.42V18.15C13.48 18.44 14 19.16 14 20C14 21.1 13.1 22 12 22C10.9 22 10 21.1 10 20C10 19.16 10.52 18.44 11.25 18.15V15.42C10.51 15.26 9.86 14.86 9.38 14.31L6.97 15.69C6.99 15.79 7 15.89 7 16C7 17.1 6.1 18 5 18C3.9 18 3 17.1 3 16C3 14.9 3.9 14 5 14C5.45 14 5.86 14.15 6.2 14.4L8.65 13C8.55 12.68 8.5 12.35 8.5 12C8.5 11.63 8.56 11.27 8.67 10.93L6.27 9.54C5.92 9.83 5.48 10 5 10C3.9 10 3 9.1 3 8C3 6.9 3.9 6 5 6C6.1 6 7 6.9 7 8C7 8.08 7 8.15 6.99 8.22L9.44 9.63C9.91 9.11 10.54 8.74 11.25 8.58V5.85C10.52 5.56 10 4.84 10 4C10 2.9 10.9 2 12 2C13.1 2 14 2.9 14 4C14 4.84 13.48 5.56 12.75 5.85V8.58C13.46 8.74 14.09 9.11 14.56 9.63L17.01 8.22C17 8.15 17 8.08 17 8C17 6.9 17.9 6 19 6C20.1 6 21 6.9 21 8C21 9.1 20.1 10 19 10C18.52 10 18.08 9.83 17.73 9.54L15.33 10.93C15.44 11.27 15.5 11.63 15.5 12C15.5 12.35 15.45 12.68 15.35 13L17.8 14.4C18.14 14.15 18.55 14 19 14C20.1 14 21 14.9 21 16Z" fill="black"/>
</g>
<defs>
<clipPath id="clip0_11380_43522">
<rect width="24" height="24" fill="white"/>
</clipPath>
</defs>
</svg>