<?xml version="1.0" encoding="UTF-8"?>
<svg id="Layer_1" data-name="Layer 1" xmlns="http://www.w3.org/2000/svg" viewBox="0 0 24 24">
  <defs>
    <style>
      .cls-1 {
        fill-rule: evenodd;
        stroke-width: 0px;
      }
    </style>
  </defs>
  <path class="cls-1" d="m15.4592,10.6338c.1562.1563.1562.4098,0,.5661l-3.6795,3.6802c-.156.1559-.4088.1564-.5652.0008l-2.4771-2.4641c-.1568-.156-.1574-.4095-.0014-.5663l.8481-.8521c.1556-.1564.4084-.1573.5652-.002l1.3481,1.3354,2.5468-2.5472c.1563-.1563.4097-.1563.566,0l.8489.8491Zm6.415,1.6621l-2.8732,2.7051v3.6012c0,.2209-.1791.4-.4.4h-3.6018l-2.7242,2.873c-.1584.167-.4246.1663-.5822-.0014l-2.6964-2.8716h-3.6019c-.2209,0-.4-.1791-.4-.4v-3.6012l-2.8687-2.7016c-.1674-.1576-.1678-.4235-.0009-.5817l2.8696-2.7187v-3.6013c0-.2209.1791-.4.4-.4h3.6019l2.715-2.8724c.158-.1672.4243-.1671.5821.0005l2.7057,2.8719h3.6018c.2209,0,.4.1791.4.4v3.6111l2.8731,2.7045c.1678.158.1679.4247.0001.5826Zm-2.6125-.292l-2.2616-2.0039v-3.0016h-2.8297l-2.1755-2.3289-2.1697,2.3289h-2.8297l.0045,3.0016-2.2159,2.0107,2.2159,1.9893-.0045,3.0016h3.0045l1.9988,2.3601,2.0012-2.3601h3.0001v-3.0016l2.2616-1.9961Z"/>
</svg>