<?xml version="1.0" encoding="utf-8"?>
<!--
  Copyright 2023-2025 Solace Systems. All rights reserved.

  Licensed under the Apache License, Version 2.0 (the "License");
  you may not use this file except in compliance with the License.
  You may obtain a copy of the License at

      http://www.apache.org/licenses/LICENSE-2.0

  Unless required by applicable law or agreed to in writing, software
  distributed under the License is distributed on an "AS IS" BASIS,
  WITHOUT WARRANTIES OR CONDITIONS OF ANY KIND, either express or implied.
  See the License for the specific language governing permissions and
  limitations under the License.
-->
<svg width="24" height="24" viewBox="0 0 24 24" fill="none" xmlns="http://www.w3.org/2000/svg">
<path d="M8.73601 11.8505C8.58002 12.0073 8.58064 12.2608 8.73741 12.4168L11.2145 14.8809C11.3709 15.0365 11.6237 15.0361 11.7797 14.8801L15.4592 11.1999C15.6154 11.0436 15.6154 10.7901 15.4592 10.6338L14.6103 9.78471C14.454 9.62839 14.2006 9.62839 14.0443 9.7847L11.4975 12.332L10.1494 10.9965C9.99262 10.8412 9.7398 10.8421 9.58415 10.9985L8.73601 11.8505Z" fill="black"/>
<path fill-rule="evenodd" clip-rule="evenodd" d="M11.7114 2.1253C11.8694 1.95805 12.1357 1.95826 12.2935 2.12578L14.9992 4.99777H18.601C18.8219 4.99777 19.001 5.17686 19.001 5.39777V9.00888L21.8741 11.7133C22.0419 11.8713 22.042 12.138 21.8742 12.2959L19.001 15.001V18.6022C19.001 18.8231 18.8219 19.0022 18.601 19.0022H14.9992L12.275 21.8752C12.1166 22.0422 11.8504 22.0415 11.6928 21.8738L8.99639 19.0022H5.39453C5.17361 19.0022 4.99453 18.8231 4.99453 18.6022V15.001L2.12581 12.2994C1.95841 12.1418 1.95801 11.8759 2.12493 11.7177L4.99453 8.99904V5.39777C4.99453 5.17686 5.17361 4.99777 5.39453 4.99777H8.99639L11.7114 2.1253ZM14.1704 6.99841H17.0001V10L19.2617 12.0039L17.0001 14V17.0016H14L11.9988 19.3617L10 17.0016H6.99546L7 14L4.78412 12.0107L7 10L6.99546 6.99841H9.8252L11.9949 4.66954L14.1704 6.99841Z" fill="black"/>
</svg>