<svg width="24" height="24" viewBox="0 0 24 24" fill="none" xmlns="http://www.w3.org/2000/svg">
<g clip-path="url(#clip0_3496_34928)">
<path d="M20.6 15H20V14C20 12.34 18.66 11 17 11C15.34 11 14 12.34 14 14V15H13.4C13.18 15 13 15.18 13 15.4V20.6C13 20.82 13.18 21 13.4 21H20.6C20.82 21 21 20.82 21 20.6V15.4C21 15.18 20.82 15 20.6 15ZM17 19C16.45 19 16 18.55 16 18C16 17.45 16.45 17 17 17C17.55 17 18 17.45 18 18C18 18.55 17.55 19 17 19ZM19 15H15V14C15 12.9 15.9 12 17 12C18.1 12 19 12.887 19 14V15ZM7 11C4.804 11 3 12.804 3 15C3 16.098 3.902 17 5 17H11V14C11 12.845 12.044 11.501 13 11H7ZM9.5 10C11.433 10 13 8.433 13 6.5C13 4.567 11.433 3 9.5 3C7.567 3 6 4.567 6 6.5C6 8.433 7.567 10 9.5 10Z" fill="black"/>
</g>
<defs>
<clipPath id="clip0_3496_34928">
<rect width="24" height="24" fill="white"/>
</clipPath>
</defs>
</svg>
