<svg width="24" height="24" viewBox="0 0 24 24" fill="none" xmlns="http://www.w3.org/2000/svg">
<path fill-rule="evenodd" clip-rule="evenodd" d="M8.79297 10.207L2.80766 4.22172C2.61239 4.02646 2.61239 3.70987 2.80765 3.51461L3.51476 2.8075C3.71002 2.61224 4.02661 2.61224 4.22187 2.8075L21.1923 19.7779C21.3875 19.9732 21.3875 20.2897 21.1923 20.485L20.4852 21.1921C20.2899 21.3874 19.9733 21.3874 19.778 21.1921L13.793 15.207L7.117 21.883C7.042 21.958 6.94 22 6.834 22H2.397C2.178 22 2 21.822 2 21.603V17.167C2 17.06 2.042 16.958 2.118 16.882L8.79297 10.207ZM12.3104 13.7245L6 20H4V18L10.2755 11.6896L12.3104 13.7245ZM15.05 11L14.4375 11.6091L15.9142 13.0858L18 11L13 6.00001L10.9142 8.0858L12.3909 9.5625L13 8.95001L15.05 11ZM21.882 6.99301L19.363 9.46301L14.51 4.61001L17.004 2.11601C17.159 1.96101 17.41 1.96101 17.565 2.11601L21.885 6.43601C22.039 6.59001 22.038 6.84001 21.882 6.99301Z" fill="black"/>
</svg>
