<svg width="24" height="24" viewBox="0 0 24 24" fill="none" xmlns="http://www.w3.org/2000/svg">
<path fill-rule="evenodd" clip-rule="evenodd" d="M18.1596 15.8462V10.7177C18.1596 7.56923 16.4864 4.93308 13.5397 4.23538V3.02538C13.5397 2.17462 12.8521 2 11.9997 2C11.1474 2 10.4598 2.17462 10.4598 3.02538V4.23538C7.52382 4.93308 5.83987 7.55846 5.83987 10.7177V15.8462L4.35226 18.52C4.21597 18.7246 4.36227 19 4.60867 19L19.3916 19.0031C19.6372 19.0031 19.7842 18.7292 19.648 18.5246L18.1596 15.8462ZM14.3097 19.6923C14.3097 20.8208 13.5397 22 11.9997 22C10.4598 22 9.68978 20.8208 9.68978 19.6923H14.3097Z" fill="black"/>
</svg>
