<!--
 Copyright 2023-2025 Solace Systems. All rights reserved.

 Licensed under the Apache License, Version 2.0 (the "License");
 you may not use this file except in compliance with the License.
 You may obtain a copy of the License at

     http://www.apache.org/licenses/LICENSE-2.0

 Unless required by applicable law or agreed to in writing, software
 distributed under the License is distributed on an "AS IS" BASIS,
 WITHOUT WARRANTIES OR CONDITIONS OF ANY KIND, either express or implied.
 See the License for the specific language governing permissions and
 limitations under the License.
-->
<svg width="24" height="24" viewBox="0 0 24 24" fill="none" xmlns="http://www.w3.org/2000/svg">
<path d="M18 21C17.35 21 16.7667 20.8125 16.25 20.4375C15.7333 20.0625 15.375 19.5833 15.175 19H11C9.9 19 8.95833 18.6083 8.175 17.825C7.39167 17.0417 7 16.1 7 15C7 13.9 7.39167 12.9583 8.175 12.175C8.95833 11.3917 9.9 11 11 11H13C13.55 11 14.0208 10.8042 14.4125 10.4125C14.8042 10.0208 15 9.55 15 9C15 8.45 14.8042 7.97917 14.4125 7.5875C14.0208 7.19583 13.55 7 13 7H8.825C8.60833 7.58333 8.24583 8.0625 7.7375 8.4375C7.22917 8.8125 6.65 9 6 9C5.16667 9 4.45833 8.70833 3.875 8.125C3.29167 7.54167 3 6.83333 3 6C3 5.16667 3.29167 4.45833 3.875 3.875C4.45833 3.29167 5.16667 3 6 3C6.65 3 7.22917 3.1875 7.7375 3.5625C8.24583 3.9375 8.60833 4.41667 8.825 5H13C14.1 5 15.0417 5.39167 15.825 6.175C16.6083 6.95833 17 7.9 17 9C17 10.1 16.6083 11.0417 15.825 11.825C15.0417 12.6083 14.1 13 13 13H11C10.45 13 9.97917 13.1958 9.5875 13.5875C9.19583 13.9792 9 14.45 9 15C9 15.55 9.19583 16.0208 9.5875 16.4125C9.97917 16.8042 10.45 17 11 17H15.175C15.3917 16.4167 15.7542 15.9375 16.2625 15.5625C16.7708 15.1875 17.35 15 18 15C18.8333 15 19.5417 15.2917 20.125 15.875C20.7083 16.4583 21 17.1667 21 18C21 18.8333 20.7083 19.5417 20.125 20.125C19.5417 20.7083 18.8333 21 18 21ZM6 7C6.28333 7 6.52083 6.90417 6.7125 6.7125C6.90417 6.52083 7 6.28333 7 6C7 5.71667 6.90417 5.47917 6.7125 5.2875C6.52083 5.09583 6.28333 5 6 5C5.71667 5 5.47917 5.09583 5.2875 5.2875C5.09583 5.47917 5 5.71667 5 6C5 6.28333 5.09583 6.52083 5.2875 6.7125C5.47917 6.90417 5.71667 7 6 7Z" fill="black" fill-opacity="0.8"/>
</svg>
