<svg width="24" height="24" viewBox="0 0 24 24" fill="none" xmlns="http://www.w3.org/2000/svg">
<g clip-path="url(#clip0_11394_43756)">
<path fill-rule="evenodd" clip-rule="evenodd" d="M22 12C22 17.5228 17.5228 22 12 22C6.47715 22 2 17.5228 2 12C2 6.47715 6.47715 2 12 2C17.5228 2 22 6.47715 22 12ZM16 9C16 11.2091 14.2091 13 12 13C9.79086 13 8 11.2091 8 9C8 6.79086 9.79086 5 12 5C14.2091 5 16 6.79086 16 9ZM11.9997 19.9998C14.5376 19.9998 16.7995 18.818 18.2651 16.9746C16.6448 15.7524 14.4353 15 11.9999 15C9.56431 15 7.35469 15.7525 5.73438 16.9748C7.19997 18.8181 9.46181 19.9998 11.9997 19.9998Z" fill="black"/>
</g>
<defs>
<clipPath id="clip0_11394_43756">
<rect width="24" height="24" fill="white"/>
</clipPath>
</defs>
</svg>
