<?xml version="1.0" encoding="utf-8"?>
<!--
  Copyright 2023-2025 Solace Systems. All rights reserved.

  Licensed under the Apache License, Version 2.0 (the "License");
  you may not use this file except in compliance with the License.
  You may obtain a copy of the License at

      http://www.apache.org/licenses/LICENSE-2.0

  Unless required by applicable law or agreed to in writing, software
  distributed under the License is distributed on an "AS IS" BASIS,
  WITHOUT WARRANTIES OR CONDITIONS OF ANY KIND, either express or implied.
  See the License for the specific language governing permissions and
  limitations under the License.
-->
<svg width="24" height="24" viewBox="0 0 24 24" fill="none" xmlns="http://www.w3.org/2000/svg">
<g clip-path="url(#clip0_11380_43447)">
<path d="M15.0415 2.92007C15.1011 2.69784 15.3357 2.57083 15.5508 2.65235C17.2075 3.28013 18.7064 4.34907 19.8538 5.80726C20 5.99315 19.9415 6.2629 19.7367 6.38117L13.5033 9.98001C13.349 10.0691 13.164 9.92715 13.2101 9.75504L15.0415 2.92007Z" fill="black"/>
<path d="M13.0787 2.51804C13.1417 2.28303 12.982 2.04611 12.7394 2.02794C10.805 1.88312 8.80826 2.29838 7.00167 3.34141C2.21874 6.10284 0.579992 12.2187 3.34142 17.0017C5.85859 21.3615 11.1631 23.1089 15.7045 21.2923C15.9241 21.2044 16.0084 20.9415 15.8901 20.7367L10.7185 11.7791C10.6654 11.6873 10.6511 11.5781 10.6785 11.4756L13.0787 2.51804Z" fill="black"/>
<path d="M17.6222 19.7367C17.7404 19.9415 18.0102 20 18.1961 19.8538C21.6671 17.1226 22.9326 12.3995 21.2922 8.29876C21.2044 8.07914 20.9415 7.99496 20.7367 8.11322L13.7141 12.1677C13.5228 12.2782 13.4572 12.5228 13.5677 12.7141L17.6222 19.7367Z" fill="black"/>
</g>
<defs>
<clipPath id="clip0_11380_43447">
<rect width="24" height="24" fill="white"/>
</clipPath>
</defs>
</svg>