<?xml version="1.0" encoding="utf-8"?>
<!--
  Copyright 2023-2025 Solace Systems. All rights reserved.

  Licensed under the Apache License, Version 2.0 (the "License");
  you may not use this file except in compliance with the License.
  You may obtain a copy of the License at

      http://www.apache.org/licenses/LICENSE-2.0

  Unless required by applicable law or agreed to in writing, software
  distributed under the License is distributed on an "AS IS" BASIS,
  WITHOUT WARRANTIES OR CONDITIONS OF ANY KIND, either express or implied.
  See the License for the specific language governing permissions and
  limitations under the License.
-->
<svg width="24" height="24" viewBox="0 0 24 24" fill="none" xmlns="http://www.w3.org/2000/svg">
<g clip-path="url(#clip0_11380_43486)">
<path fill-rule="evenodd" clip-rule="evenodd" d="M3.09766 3.13867C3.1709 3.05371 3.2793 3 3.40039 3H12.5996C12.708 3 12.8057 3.04248 12.8779 3.1123C12.9531 3.18506 13 3.28711 13 3.3999V20.6001C13 20.8208 12.8213 21 12.5996 21H3.40039C3.17871 21 3 20.8208 3 20.6001V3.3999C3 3.30029 3.03711 3.20898 3.09766 3.13867ZM4 6H12V8H4V6ZM4.40039 10C4.17871 10 4 10.1792 4 10.3999V11.6001C4 11.8208 4.17871 12 4.40039 12H5.59961C5.82129 12 6 11.8208 6 11.6001V10.3999C6 10.3013 5.96387 10.2109 5.90527 10.1411C5.83203 10.0547 5.72266 10 5.59961 10H4.40039ZM7 10.3999C7 10.1792 7.17871 10 7.40039 10H8.59961C8.82129 10 9 10.1792 9 10.3999V11.6001C9 11.8208 8.82129 12 8.59961 12H7.40039C7.17871 12 7 11.8208 7 11.6001V10.3999ZM10.4004 10C10.2871 10 10.1855 10.0464 10.1133 10.1211C10.043 10.1934 10 10.2915 10 10.3999V11.6001C10 11.728 10.0596 11.8423 10.1533 11.915C10.2217 11.9683 10.3076 12 10.4004 12H11.5996C11.8213 12 12 11.8208 12 11.6001V10.3999C12 10.1792 11.8213 10 11.5996 10H10.4004ZM4 13.3999C4 13.2954 4.04004 13.2002 4.10645 13.1289C4.17969 13.0498 4.28418 13 4.40039 13H5.59961C5.82129 13 6 13.1792 6 13.3999V14.6001C6 14.8208 5.82129 15 5.59961 15H4.40039C4.17871 15 4 14.8208 4 14.6001V13.3999ZM7.40039 13C7.17871 13 7 13.1792 7 13.3999V14.6001C7 14.8208 7.17871 15 7.40039 15H8.59961C8.82129 15 9 14.8208 9 14.6001V13.3999C9 13.3687 8.99609 13.3384 8.98926 13.3091C8.97656 13.2515 8.95117 13.1987 8.91504 13.1538C8.8418 13.0601 8.72754 13 8.59961 13H7.40039ZM10.0273 13.2539C10.0371 13.2295 10.0488 13.2065 10.0625 13.1851C10.1338 13.0737 10.2578 13 10.4004 13H11.5996C11.7129 13 11.8154 13.0469 11.8887 13.1226C11.958 13.1948 12 13.2925 12 13.3999V14.6001C12 14.8208 11.8213 15 11.5996 15H10.4004C10.3457 15 10.2939 14.9893 10.2461 14.9692C10.1016 14.9087 10 14.7661 10 14.6001V13.3999C10 13.3481 10.0098 13.2993 10.0273 13.2539ZM4.40039 16C4.17871 16 4 16.1792 4 16.3999V17.6001C4 17.8208 4.17871 18 4.40039 18H5.59961C5.82129 18 6 17.8208 6 17.6001V16.3999C6 16.2896 5.95605 16.1899 5.88379 16.1177C5.81152 16.0449 5.71094 16 5.59961 16H4.40039ZM7 16.3999C7 16.1792 7.17871 16 7.40039 16H8.59961C8.82129 16 9 16.1792 9 16.3999V17.6001C9 17.8208 8.82129 18 8.59961 18H7.40039C7.17871 18 7 17.8208 7 17.6001V16.3999ZM10.1084 16.125C10.041 16.1968 10 16.2935 10 16.3999V17.6001C10 17.6689 10.0176 17.7334 10.0479 17.79C10.1152 17.915 10.248 18 10.4004 18H11.5996C11.8213 18 12 17.8208 12 17.6001V16.3999C12 16.1792 11.8213 16 11.5996 16H10.4004C10.2852 16 10.1816 16.0479 10.1084 16.125Z" fill="black"/>
<path d="M19 7.3999C19 7.1792 19.1787 7 19.4004 7H20.5996C20.8213 7 21 7.1792 21 7.3999V16.6001C21 16.6963 20.9658 16.7847 20.9092 16.8535C20.8359 16.9429 20.7246 17 20.5996 17H19.4004C19.1787 17 19 16.8208 19 16.6001V7.3999Z" fill="black"/>
<path fill-rule="evenodd" clip-rule="evenodd" d="M17.5996 7C17.8213 7 18 7.1792 18 7.3999V16.6001C18 16.7173 17.9492 16.8228 17.8691 16.896C17.7979 16.9604 17.7031 17 17.5996 17H14.4004C14.1787 17 14 16.8208 14 16.6001V7.3999C14 7.1792 14.1787 7 14.4004 7H17.5996ZM16.6006 9C16.8213 9 17 9.1792 17 9.3999V10.6001C17 10.8208 16.8213 11 16.6006 11H16.4004C16.1797 11 16 10.8208 16 10.6001V9.3999C16 9.27734 16.0557 9.16748 16.1426 9.09375C16.2129 9.03516 16.3027 9 16.4004 9H16.6006Z" fill="black"/>
</g>
<defs>
<clipPath id="clip0_11380_43486">
<rect width="24" height="24" fill="white"/>
</clipPath>
</defs>
</svg>