<svg width="24" height="24" viewBox="0 0 24 24" fill="none" xmlns="http://www.w3.org/2000/svg">
<g clip-path="url(#clip0_11380_43468)">
<path d="M3 4.4C3 4.17909 3.17909 4 3.4 4H20.6C20.8209 4 21 4.17909 21 4.4V5.6C21 5.82091 20.8209 6 20.6 6H3.4C3.17909 6 3 5.82091 3 5.6V4.4Z" fill="black"/>
<path fill-rule="evenodd" clip-rule="evenodd" d="M2 12.0396C2 12.0133 2.0026 11.987 2.00777 11.9612L2.93569 7.32155C2.97308 7.13458 3.13725 7 3.32792 7H20.6721C20.8628 7 21.0269 7.13458 21.0643 7.32155L21.9922 11.9612C21.9974 11.987 22 12.0133 22 12.0396V13.6C22 13.8209 21.8209 14 21.6 14H21V19.6C21 19.8209 20.8209 20 20.6 20H19.4C19.1791 20 19 19.8209 19 19.6V14H14V19.6C14 19.8209 13.8209 20 13.6 20H3.4C3.17909 20 3 19.8209 3 19.6V14H2.4C2.17909 14 2 13.8209 2 13.6V12.0396ZM5 14H12V18H5V14Z" fill="black"/>
<path d="M3 4.4C3 4.17909 3.17909 4 3.4 4H20.6C20.8209 4 21 4.17909 21 4.4V5.6C21 5.82091 20.8209 6 20.6 6H3.4C3.17909 6 3 5.82091 3 5.6V4.4Z" stroke="black"/>
<path fill-rule="evenodd" clip-rule="evenodd" d="M2 12.0396C2 12.0133 2.0026 11.987 2.00777 11.9612L2.93569 7.32155C2.97308 7.13458 3.13725 7 3.32792 7H20.6721C20.8628 7 21.0269 7.13458 21.0643 7.32155L21.9922 11.9612C21.9974 11.987 22 12.0133 22 12.0396V13.6C22 13.8209 21.8209 14 21.6 14H21V19.6C21 19.8209 20.8209 20 20.6 20H19.4C19.1791 20 19 19.8209 19 19.6V14H14V19.6C14 19.8209 13.8209 20 13.6 20H3.4C3.17909 20 3 19.8209 3 19.6V14H2.4C2.17909 14 2 13.8209 2 13.6V12.0396ZM5 14H12V18H5V14Z" stroke="black"/>
</g>
<defs>
<clipPath id="clip0_11380_43468">
<rect width="24" height="24" fill="white"/>
</clipPath>
</defs>
</svg>
