<!--
 Copyright 2023-2025 Solace Systems. All rights reserved.

 Licensed under the Apache License, Version 2.0 (the "License");
 you may not use this file except in compliance with the License.
 You may obtain a copy of the License at

     http://www.apache.org/licenses/LICENSE-2.0

 Unless required by applicable law or agreed to in writing, software
 distributed under the License is distributed on an "AS IS" BASIS,
 WITHOUT WARRANTIES OR CONDITIONS OF ANY KIND, either express or implied.
 See the License for the specific language governing permissions and
 limitations under the License.
-->
<?xml version="1.0" encoding="UTF-8"?><svg id="keylines" xmlns="http://www.w3.org/2000/svg" viewBox="0 0 24 24"><path d="M7.4002,12.2502v1.5h3.1v3.1h1.5v-4.6H7.4002Zm3.5-3.5v1.5h3.1v3.1h1.5v-4.6h-4.6Zm-6.42,7v4h4v-4H4.4802Z"/><path d="M22.0002,13.7502c0,1.88-1.49,3.42-3.36,3.49v.01h-4.43v-1h4.39c1.34-.06,2.4-1.16,2.4-2.5,0-1.27-.94-2.31-2.16-2.48l-.95-.1299,.09-.96c.01-.14,.02-.29,.02-.43,0-2.49-2.01-4.5-4.5-4.5-1.7,0-3.18,.94-3.94,2.33l-.44,.8-.84-.37c-.25-.11-.51-.16-.78-.16-1.05,0-1.85,.74-2.1,1.92l-.1,.51-.48,.21c-1.07,.46-1.82,1.52-1.82,2.76,0,.61,.19,1.18,.5,1.66v1.46c-.91-.73-1.5-1.86-1.5-3.12,0-1.65,1-3.07,2.43-3.68,.31-1.53,1.44-2.72,3.07-2.72,.41,0,.81,.09,1.18,.25,.94-1.7,2.74-2.85,4.82-2.85,3.04,0,5.5,2.46,5.5,5.5,0,.18-.01,.35-.03,.53,1.71,.23,3.03,1.7,3.03,3.47Z"/></svg>