<?xml version="1.0" encoding="UTF-8"?>
<svg id="Layer_1" data-name="Layer 1" xmlns="http://www.w3.org/2000/svg" viewBox="0 0 24 24">
  <defs>
    <style>
      .cls-1 {
        fill-rule: evenodd;
        stroke-width: 0px;
      }
    </style>
  </defs>
  <path class="cls-1" d="m5.9708,18.5102c.5395-.1792.7743-.4172.879-.5696.112-.1629.1539-.3418.1444-.512-.0032-.058-.0368-.1668-.1388-.2709-.096-.0981-.2062-.1445-.3077-.1511-.2234-.0145-.3748.0364-.4965.1237-.1283.0919-.3648.3276-.5611.9146-.0732.2189-.1358.4396-.1894.6568.2215-.054.4467-.1173.6701-.1915Zm3.0248-1.1935c.0652,1.1646-.5846,2.4951-2.3929,3.0958-1.2918.4291-2.5836.5517-3.216.5867-.2211.0122-.3984-.1651-.3861-.3861.0352-.6308.1582-1.9174.5885-3.204.6027-1.8021,1.8193-2.485,3.0883-2.4028,1.269.0823,2.253,1.1457,2.3182,2.3104Zm2.0044-10.3169h-3.2076c-.509,0-.9989.1941-1.3698.5427l-3.2884,3.0909c-.2073.1949-.1507.5377.1082.6555l3.7576,1.7109,4,4,1.7418,3.7572c.1194.2576.4617.3123.6554.1047l3.0652-3.2857c.3455-.3703.5376-.8579.5376-1.3643v-3.2119c1.7081-1.7082,3.4163-4.2916,3.8784-7.9995.0674-.5403.1079-.8866.1233-1.5994.0047-.2227-.1766-.4048-.3993-.4007-.7161.013-1.0622.0539-1.6029.1213-3.7079.4622-6.2914,2.1703-7.9995,3.8784Zm.4446,7.6011l-1.9746-1.9996c.4163-.8692,1.2362-2.4761,2.9444-4.1844l-.0015-.0016.0013-.0014c1.384-1.3839,3.4437-2.7813,6.4214-3.2498-.4684,2.9772-1.8654,5.0367-3.2491,6.4206l-.0007-.0007c-1.7096,1.7096-3.2721,2.6009-4.1412,3.0168Zm1.2997,1.4246l.7992,1.7822,1.4565-1.6364-.0187-1.5954c-.7635.6378-1.6105,1.0901-2.237,1.4496Zm-4.774-4.7989c.3597-.6267.6867-1.4359,1.3247-2.1995l-1.4666-.0273-1.6887,1.4701,1.8306.7567Z"/>
</svg>