<svg width="24" height="24" viewBox="0 0 24 24" fill="none" xmlns="http://www.w3.org/2000/svg">
<path fill-rule="evenodd" clip-rule="evenodd" d="M21.1718 13.2091L21.9155 13.3061C21.9712 12.8786 22 12.4427 22 12C22 11.5573 21.9712 11.1214 21.9155 10.6939L21.1718 10.7909L20.4281 10.8879C20.4755 11.2512 20.5 11.6224 20.5 12C20.5 12.3776 20.4755 12.7488 20.4281 13.1121L21.1718 13.2091ZM20.5484 8.45941L21.2412 8.17212C20.9041 7.35915 20.4628 6.60028 19.934 5.91216L19.3393 6.36915L18.7446 6.82615C19.1945 7.41152 19.5694 8.05649 19.8556 8.7467L20.5484 8.45941ZM17.6308 4.66069L18.0878 4.06601C17.3997 3.53721 16.6409 3.09593 15.8279 2.7588L15.5406 3.4516L15.2533 4.14439C15.9435 4.43061 16.5885 4.80555 17.1739 5.25538L17.6308 4.66069ZM13.2091 2.82822L13.3061 2.08452C12.8786 2.02876 12.4427 2 12 2C11.5573 2 11.1214 2.02876 10.6939 2.08452L10.7909 2.82822L10.8879 3.57192C11.2512 3.52453 11.6224 3.5 12 3.5C12.3776 3.5 12.7488 3.52453 13.1121 3.57192L13.2091 2.82822ZM8.45941 3.4516L8.17212 2.75881C7.35915 3.09593 6.60028 3.53721 5.91216 4.06601L6.36915 4.6607L6.82615 5.25539C7.41152 4.80555 8.05649 4.43061 8.7467 4.14439L8.45941 3.4516ZM4.66069 6.36915L4.06601 5.91216C3.53721 6.60028 3.09593 7.35915 2.7588 8.17212L3.4516 8.45941L4.14439 8.7467C4.43061 8.05649 4.80555 7.41152 5.25538 6.82615L4.66069 6.36915ZM2 12C2 11.5573 2.02876 11.1214 2.08452 10.6939L2.82822 10.7909L3.57192 10.8879C3.52453 11.2512 3.5 11.6224 3.5 12C3.5 12.3776 3.52453 12.7488 3.57192 13.1121L2.82822 13.2091L2.08452 13.3061C2.02876 12.8786 2 12.4427 2 12ZM3.4516 15.5406L2.75881 15.8279C3.09593 16.6409 3.53722 17.3997 4.06601 18.0878L4.6607 17.6308L5.25539 17.1739C4.80555 16.5885 4.43061 15.9435 4.14439 15.2533L3.4516 15.5406ZM6.36915 19.3393L5.91216 19.934C6.60028 20.4628 7.35915 20.9041 8.17212 21.2412L8.45941 20.5484L8.7467 19.8556C8.05649 19.5694 7.41152 19.1945 6.82615 18.7446L6.36915 19.3393ZM10.7909 21.1718L10.6939 21.9155C11.1214 21.9712 11.5573 22 12 22C12.4427 22 12.8786 21.9712 13.3061 21.9155L13.2091 21.1718L13.1121 20.4281C12.7488 20.4755 12.3776 20.5 12 20.5C11.6224 20.5 11.2512 20.4755 10.8879 20.4281L10.7909 21.1718ZM15.5406 20.5484L15.8279 21.2412C16.6409 20.9041 17.3997 20.4628 18.0878 19.934L17.6308 19.3393L17.1739 18.7446C16.5885 19.1945 15.9435 19.5694 15.2533 19.8556L15.5406 20.5484ZM19.3393 17.6308L19.934 18.0878C20.4628 17.3997 20.9041 16.6409 21.2412 15.8279L20.5484 15.5406L19.8556 15.2533C19.5694 15.9435 19.1945 16.5885 18.7446 17.1739L19.3393 17.6308ZM16.1017 8.56117L17.57 7.72679C16.339 6.20167 14.4779 5.19917 12.3654 5.1254C11.8744 5.10825 11.3934 5.14211 10.9276 5.2222C11.8612 6.03436 12.6458 6.92068 13.3027 7.84318C13.5873 7.75834 13.8913 7.71744 14.2061 7.72843C14.9564 7.75464 15.6257 8.07085 16.1017 8.56117ZM8.60203 6.06893C8.78125 5.9645 8.96546 5.86782 9.15418 5.77935C10.3105 6.64739 11.247 7.64097 12.0011 8.68978C11.6378 9.11841 11.4121 9.66124 11.3912 10.2578C11.3802 10.5736 11.4275 10.8784 11.5238 11.1626L9.57846 12.268C8.85371 10.4602 8.42295 8.36855 8.60203 6.06893ZM12.4423 12.4224L10.2294 13.6799C11.502 16.1141 13.2286 17.884 14.3908 18.7449C14.5418 18.6932 14.6905 18.6364 14.8367 18.5747C14.9526 17.3076 14.8297 15.2264 14.1229 12.979C14.0897 12.979 14.0563 12.9784 14.0228 12.9773C13.4258 12.9564 12.8801 12.752 12.4423 12.4224ZM16.423 17.6434C16.4187 16.2736 16.2086 14.4681 15.6117 12.5509C16.3248 12.0999 16.8067 11.333 16.8376 10.448C16.8436 10.2759 16.8323 10.1071 16.8052 9.94318L18.4051 9.03403C18.8985 10.0361 19.1585 11.171 19.1168 12.3654C19.0416 14.5203 17.9999 16.4136 16.423 17.6434ZM8.21903 13.0405C7.5177 11.3562 7.04416 9.43835 7.01353 7.33423C5.89489 8.52683 5.18688 10.1143 5.12533 11.8768C5.09246 12.8182 5.24702 13.7225 5.55551 14.5541L8.21903 13.0405ZM8.88142 14.4459L6.25336 15.9393C7.45617 17.7842 9.50849 19.0342 11.8768 19.1169C12.0618 19.1233 12.2454 19.1226 12.4273 19.1148C11.2809 18.0452 9.9414 16.4544 8.88142 14.4459Z" fill="black"/>
</svg>
