<!--
 Copyright 2023-2025 Solace Systems. All rights reserved.

 Licensed under the Apache License, Version 2.0 (the "License");
 you may not use this file except in compliance with the License.
 You may obtain a copy of the License at

     http://www.apache.org/licenses/LICENSE-2.0

 Unless required by applicable law or agreed to in writing, software
 distributed under the License is distributed on an "AS IS" BASIS,
 WITHOUT WARRANTIES OR CONDITIONS OF ANY KIND, either express or implied.
 See the License for the specific language governing permissions and
 limitations under the License.
-->
<svg width="24" height="24" viewBox="0 0 24 24" fill="none" xmlns="http://www.w3.org/2000/svg">
<g clip-path="url(#clip0_11380_43516)">
<path d="M4 5.60006C4 5.43913 4.09645 5.29387 4.24477 5.23141L11.8448 2.03135C11.944 1.98955 12.056 1.98955 12.1552 2.03135L19.7552 5.23141C19.9035 5.29387 20 5.43913 20 5.60007V11.0011C20 16.0154 16.6378 20.7948 12.0972 21.9879C12.0336 22.0046 11.9664 22.0046 11.9028 21.9879C7.36222 20.7948 4 16.0154 4 11.0011V5.60006ZM12 20.001C15.4503 18.871 18 15.0011 18 11.0011V6.55566L12.0039 4.13379L12 20.001Z" fill="black"/>
</g>
<defs>
<clipPath id="clip0_11380_43516">
<rect width="24" height="24" fill="white"/>
</clipPath>
</defs>
</svg>
