<svg width="24" height="24" viewBox="0 0 24 24" fill="none" xmlns="http://www.w3.org/2000/svg">
<g clip-path="url(#clip0_11380_43495)">
<path d="M5.67652 4.08613C5.84995 3.94338 6.10595 3.9835 6.23646 4.16632L6.93514 5.14499C7.06074 5.32093 7.02303 5.56398 6.8582 5.70383C5.11036 7.1868 3.99922 9.53646 3.99922 11.9971C3.99922 14.4577 5.11039 16.8085 6.85829 18.2916C7.02313 18.4315 7.06083 18.6745 6.93521 18.8505L6.23647 19.8291C6.10595 20.0119 5.84997 20.052 5.67654 19.9093C3.43259 18.0623 2 15.1208 2 11.9971C2 8.87334 3.43258 5.93294 5.67652 4.08613Z" fill="black"/>
<path d="M18.3383 19.9138C20.5811 18.0665 22 15.1208 22 11.997C22 8.8733 20.581 5.93501 18.3383 4.08838C18.1649 3.94562 17.909 3.9857 17.7785 4.16847L17.0799 5.14651C16.9543 5.32245 16.992 5.56555 17.1568 5.70549C18.9031 7.18831 20.0008 9.53649 20.0008 11.997C20.0008 14.4577 18.903 16.8126 17.1566 18.2961C16.9918 18.4361 16.9541 18.6792 17.0797 18.8551L17.7785 19.8337C17.909 20.0165 18.165 20.0566 18.3383 19.9138Z" fill="black"/>
<path d="M8.57294 7.59314C8.44099 7.40839 8.18091 7.36955 8.01155 7.52074C6.781 8.61921 6.00625 10.2176 6.00625 11.997C6.00625 13.7765 6.78105 15.375 8.01166 16.4734C8.18103 16.6246 8.4411 16.5858 8.57304 16.401L9.27557 15.4174C9.39862 15.2451 9.3644 15.0082 9.21281 14.8604C8.46798 14.1341 8.00547 13.1196 8.00547 11.997C8.00547 10.8745 8.46794 9.86005 9.21272 9.13377C9.3643 8.98596 9.39851 8.74905 9.27546 8.57676L8.57294 7.59314Z" fill="black"/>
<path d="M15.9963 7.52074C15.8269 7.36955 15.5668 7.40839 15.4349 7.59314L14.7323 8.57676C14.6093 8.74905 14.6435 8.98596 14.7951 9.13377C15.5399 9.86005 16.0023 10.8745 16.0023 11.997C16.0023 13.1196 15.5398 14.1341 14.795 14.8604C14.6434 15.0082 14.6092 15.2451 14.7322 15.4174L15.4348 16.401C15.5667 16.5858 15.8268 16.6246 15.9961 16.4734C17.2268 15.375 18.0016 13.7765 18.0016 11.997C18.0016 10.2176 17.2268 8.61921 15.9963 7.52074Z" fill="black"/>
<path d="M12 14C13.1046 14 14 13.1046 14 12C14 10.8954 13.1046 10 12 10C10.8954 10 10 10.8954 10 12C10 13.1046 10.8954 14 12 14Z" fill="black"/>
</g>
<defs>
<clipPath id="clip0_11380_43495">
<rect width="24" height="24" fill="white"/>
</clipPath>
</defs>
</svg>
