<?xml version="1.0" encoding="utf-8"?>
<!-- Generator: Adobe Illustrator 25.4.1, SVG Export Plug-In . SVG Version: 6.00 Build 0)  -->
<svg version="1.1" id="Settings" xmlns="http://www.w3.org/2000/svg" xmlns:xlink="http://www.w3.org/1999/xlink" x="0px" y="0px"
	 viewBox="0 0 24 24" style="enable-background:new 0 0 24 24;" xml:space="preserve">
<path d="M3.4,17C3.2,17,3,17.2,3,17.4v1.2C3,18.8,3.2,19,3.4,19h5.2C8.8,19,9,18.8,9,18.6v-1.2C9,17.2,8.8,17,8.6,17H3.4z M3.4,5
	C3.2,5,3,5.2,3,5.4v1.2C3,6.8,3.2,7,3.4,7h9.2C12.8,7,13,6.8,13,6.6V5.4C13,5.2,12.8,5,12.6,5H3.4z M12.6,21c0.2,0,0.4-0.2,0.4-0.4
	V19h7.6c0.2,0,0.4-0.2,0.4-0.4v-1.2c0-0.2-0.2-0.4-0.4-0.4H13v-1.6c0-0.2-0.2-0.4-0.4-0.4h-1.2c-0.2,0-0.4,0.2-0.4,0.4v5.2
	c0,0.2,0.2,0.4,0.4,0.4C11.4,21,12.6,21,12.6,21z M7.4,9C7.2,9,7,9.2,7,9.4V11H3.4C3.2,11,3,11.2,3,11.4v1.2C3,12.8,3.2,13,3.4,13H7
	v1.6C7,14.8,7.2,15,7.4,15h1.2C8.8,15,9,14.8,9,14.6V9.4C9,9.2,8.8,9,8.6,9H7.4z M20.6,13c0.2,0,0.4-0.2,0.4-0.4v-1.2
	c0-0.2-0.2-0.4-0.4-0.4h-9.2c-0.2,0-0.4,0.2-0.4,0.4v1.2c0,0.2,0.2,0.4,0.4,0.4H20.6z M15,8.6C15,8.8,15.2,9,15.4,9h1.2
	C16.8,9,17,8.8,17,8.6V7h3.6C20.8,7,21,6.8,21,6.6V5.4C21,5.2,20.8,5,20.6,5H17V3.4C17,3.2,16.8,3,16.6,3h-1.2C15.2,3,15,3.2,15,3.4
	V8.6z"/>
</svg>
