<svg width="24" height="24" viewBox="0 0 24 24" fill="none" xmlns="http://www.w3.org/2000/svg">
<g clip-path="url(#clip0_11380_43483)">
<path d="M17.4 4C17.1791 4 17 4.17909 17 4.4V5H16.4C16.1791 5 16 5.17909 16 5.4V12.6C16 12.8209 16.1791 13 16.4 13H19.6C19.8209 13 20 12.8209 20 12.6V5.4C20 5.17909 19.8209 5 19.6 5H19V4.4C19 4.17909 18.8209 4 18.6 4H17.4Z" fill="black"/>
<path d="M6.4 7C6.17909 7 6 7.17909 6 7.4V9.6C6 9.82091 6.17909 10 6.4 10H9.6C9.82091 10 10 9.82091 10 9.6V7.4C10 7.17909 9.82091 7 9.6 7H6.4Z" fill="black"/>
<path d="M11.4 7C11.1791 7 11 7.17909 11 7.4V9.6C11 9.82091 11.1791 10 11.4 10H14.6C14.8209 10 15 9.82091 15 9.6V7.4C15 7.17909 14.8209 7 14.6 7H11.4Z" fill="black"/>
<path d="M11 11.4C11 11.1791 11.1791 11 11.4 11H14.6C14.8209 11 15 11.1791 15 11.4V12.6C15 12.8209 14.8209 13 14.6 13H11.4C11.1791 13 11 12.8209 11 12.6V11.4Z" fill="black"/>
<path d="M6.4 11C6.17909 11 6 11.1791 6 11.4V12.6C6 12.8209 6.17909 13 6.4 13H9.6C9.82091 13 10 12.8209 10 12.6V11.4C10 11.1791 9.82091 11 9.6 11H6.4Z" fill="black"/>
<path d="M2 19.9996V19.0035C2.48333 19.0035 2.89583 18.9285 3.2375 18.7785C3.57917 18.6285 3.925 18.466 4.275 18.291C4.625 18.116 5.0125 17.9577 5.4375 17.816C5.8625 17.6743 6.38333 17.6035 7 17.6035C7.63333 17.6035 8.15417 17.6743 8.5625 17.816C8.97083 17.9577 9.35 18.116 9.7 18.291C10.05 18.466 10.4 18.6285 10.75 18.7785C11.1 18.9285 11.5167 19.0035 12 19.0035C12.4833 19.0035 12.9 18.9285 13.25 18.7785C13.6 18.6285 13.95 18.466 14.3 18.291C14.65 18.116 15.0333 17.9577 15.45 17.816C15.8667 17.6743 16.3833 17.6035 17 17.6035C17.6333 17.6035 18.1583 17.6743 18.575 17.816C18.9917 17.9577 19.375 18.116 19.725 18.291C20.075 18.466 20.425 18.6285 20.775 18.7785C21.125 18.9285 21.5333 19.0035 22 19.0035V19.9996C21.3667 19.9996 20.8375 19.9246 20.4125 19.7746C19.9875 19.6246 19.6 19.4621 19.25 19.2871C18.9 19.1121 18.5583 18.9537 18.225 18.8121C17.8917 18.6704 17.4833 18.5996 17 18.5996C16.5333 18.5996 16.1292 18.6704 15.7875 18.8121C15.4458 18.9537 15.1042 19.1121 14.7625 19.2871C14.4208 19.4621 14.0375 19.6246 13.6125 19.7746C13.1875 19.9246 12.65 19.9996 12 19.9996C11.35 19.9996 10.8125 19.9246 10.3875 19.7746C9.9625 19.6246 9.57917 19.4621 9.2375 19.2871C8.89583 19.1121 8.55833 18.9537 8.225 18.8121C7.89167 18.6704 7.48333 18.5996 7 18.5996C6.53333 18.5996 6.12917 18.6704 5.7875 18.8121C5.44583 18.9537 5.1 19.1121 4.75 19.2871C4.4 19.4621 4.0125 19.6246 3.5875 19.7746C3.1625 19.9246 2.63333 19.9996 2 19.9996Z" fill="black"/>
<path d="M21.5997 14H2.40069C2.07333 14 1.8846 14.2479 2.07781 14.4241L4.91582 17.0121C5.08293 16.9458 5.25683 16.8826 5.4375 16.8224C5.8625 16.6807 6.38333 16.6099 7 16.6099C7.63333 16.6099 8.15417 16.6807 8.5625 16.8224C8.97083 16.964 9.35 17.1224 9.7 17.2974C10.05 17.4724 10.4 17.6349 10.75 17.7849C11.0267 17.9035 11.3451 17.9752 11.7052 18H12.2948C12.6549 17.9752 12.9733 17.9035 13.25 17.7849C13.6 17.6349 13.95 17.4724 14.3 17.2974C14.65 17.1224 15.0333 16.964 15.45 16.8224C15.8667 16.6807 16.3833 16.6099 17 16.6099C17.6333 16.6099 18.1583 16.6807 18.575 16.8224C18.9917 16.964 19.375 17.1224 19.725 17.2974C19.8979 17.3838 20.0708 17.4672 20.2438 17.5476L21.9758 14.3574C22.0702 14.1836 21.877 14 21.5997 14Z" fill="black"/>
</g>
<defs>
<clipPath id="clip0_11380_43483">
<rect width="24" height="24" fill="white"/>
</clipPath>
</defs>
</svg>
