<!--
 Copyright 2023-2025 Solace Systems. All rights reserved.

 Licensed under the Apache License, Version 2.0 (the "License");
 you may not use this file except in compliance with the License.
 You may obtain a copy of the License at

     http://www.apache.org/licenses/LICENSE-2.0

 Unless required by applicable law or agreed to in writing, software
 distributed under the License is distributed on an "AS IS" BASIS,
 WITHOUT WARRANTIES OR CONDITIONS OF ANY KIND, either express or implied.
 See the License for the specific language governing permissions and
 limitations under the License.
-->
<svg width="24" height="24" viewBox="0 0 24 24" fill="none" xmlns="http://www.w3.org/2000/svg">
<path d="M4.00195 12.6233C4.00195 14.6244 5.62417 16.2466 7.62527 16.2466C8.97483 16.2466 10.1521 15.5088 10.7756 14.4145H12.9573C12.2093 16.642 10.1047 18.2466 7.62527 18.2466C4.5196 18.2466 2.00195 15.729 2.00195 12.6233C2.00195 9.51765 4.5196 7 7.62527 7C10.01 7 12.048 8.48443 12.8657 10.5797H10.6177C9.96502 9.62587 8.86824 9 7.62527 9C5.62417 9 4.00195 10.6222 4.00195 12.6233Z" fill="black"/>
<path d="M7.50007 13.4145C7.30472 13.4145 7.10938 13.2402 7.10938 13.0567V11.9558C7.10938 11.7723 7.30472 11.5797 7.50007 11.5797H18.3379L16.9705 10.2853C16.7752 10.1018 16.7752 9.91832 16.9705 9.73484L17.7519 9.0009C17.9472 8.81741 18.1426 8.81741 18.3379 9.0009L21.8542 12.231C22.0495 12.4145 22.0495 12.598 21.8542 12.7815L18.3674 16.2359C18.1906 16.4019 17.9845 16.4267 17.7814 16.2359L17 15.502C16.8047 15.3185 16.8047 15.135 17 14.9515L18.4356 13.4145H7.50007Z" fill="black"/>
</svg>
