<svg width="24" height="24" viewBox="0 0 24 24" fill="none" xmlns="http://www.w3.org/2000/svg">
<path d="M7.10938 13.0567C7.10938 13.2402 7.30472 13.4145 7.50007 13.4145H18.4356L17 14.9515C16.8047 15.135 16.8047 15.3185 17 15.502L17.7814 16.2359C17.9845 16.4267 18.1906 16.4019 18.3674 16.2359L21.8542 12.7815C22.0495 12.598 22.0495 12.4145 21.8542 12.231L18.3379 9.0009C18.1426 8.81741 17.9472 8.81741 17.7519 9.0009L16.9705 9.73484C16.7752 9.91832 16.7752 10.1018 16.9705 10.2853L18.3379 11.5797H7.50007C7.30472 11.5797 7.10938 11.7723 7.10938 11.9558V13.0567Z" fill="black"/>
<path fill-rule="evenodd" clip-rule="evenodd" d="M7.62527 16.2466C5.62417 16.2466 4.00195 14.6244 4.00195 12.6233C4.00195 10.6222 5.62417 9 7.62527 9C8.86824 9 9.96502 9.62587 10.6177 10.5797H12.8657C12.048 8.48443 10.01 7 7.62527 7C4.5196 7 2.00195 9.51765 2.00195 12.6233C2.00195 15.729 4.5196 18.2466 7.62527 18.2466C10.1047 18.2466 12.2093 16.642 12.9573 14.4145H10.7756C10.1521 15.5088 8.97483 16.2466 7.62527 16.2466Z" fill="black"/>
</svg>
