<svg width="24" height="24" viewBox="0 0 24 24" fill="none" xmlns="http://www.w3.org/2000/svg">
<path d="M20.7419 15.4176C21.0849 15.6083 21.0851 16.1012 20.7419 16.2917L12.4859 20.8737L12.3695 20.9294C12.0927 21.0392 11.7775 21.0203 11.5131 20.8737L3.2571 16.2917C2.9142 16.1012 2.91439 15.6083 3.2571 15.4176L4.53095 14.7106L11.999 18.8551L19.4681 14.7106L20.7419 15.4176Z" fill="black"/>
<path d="M20.7419 11.5641C21.0849 11.7547 21.0851 12.2477 20.7419 12.4381L16.6139 14.7292L12.4859 17.0202L12.3695 17.0758C12.0927 17.1858 11.7775 17.1668 11.5131 17.0202L3.2571 12.4381C2.91432 12.2476 2.91428 11.7547 3.2571 11.5641L4.53095 10.8571L11.999 15.0016L19.4681 10.8571L20.7419 11.5641Z" fill="black"/>
<path fill-rule="evenodd" clip-rule="evenodd" d="M11.5141 3.12663C11.8164 2.95898 12.1846 2.95888 12.4869 3.12663L20.7429 7.70866C21.0856 7.8993 21.0858 8.39216 20.7429 8.58268L12.4869 13.1647L12.3705 13.2204C12.0936 13.3304 11.7786 13.3113 11.5141 13.1647L3.25808 8.58268C2.9148 8.39218 2.9148 7.89916 3.25808 7.70866L11.5141 3.12663ZM6.59276 8.14616L12 11.1462L17.4072 8.14616L12 5.14518L6.59276 8.14616Z" fill="black"/>
</svg>
