<svg width="24" height="24" viewBox="0 0 24 24" fill="none" xmlns="http://www.w3.org/2000/svg">
<g clip-path="url(#clip0_12377_46509)">
<path d="M7.55039 11.1604C7.75026 10.9607 7.95013 10.9607 8.15 11.1604L8.9498 11.9602C9.1498 12.1602 9.1498 12.3608 8.9498 12.5608L6.75059 15.0003H13.6002C13.8001 15.0003 14.0005 15.2105 14.0006 15.4104V16.6106C14.0006 16.8106 13.8002 17.0003 13.6002 17.0003H6.65L8.89414 19.4544C9.09414 19.6544 9.09414 19.855 8.89414 20.055L8.09434 20.8548C7.88634 21.0628 7.67475 21.0358 7.49375 20.8548L3.15 16.3108C2.95 16.1108 2.95 15.9102 3.15 15.7102L7.55039 11.1604ZM15.8502 3.15066C16.0501 2.95085 16.2499 2.95098 16.4498 3.15066L20.8502 7.70046C21.0502 7.90046 21.0502 8.10105 20.8502 8.30105L16.5064 12.845C16.3254 13.026 16.1139 13.053 15.9059 12.845L15.1061 12.0452C14.9061 11.8452 14.9061 11.6446 15.1061 11.4446L17.3502 8.9905H10.4C10.2001 8.99038 10.0006 8.80079 10.0006 8.60085V7.40066C10.0007 7.20078 10.2001 6.99064 10.4 6.9905H17.2506L15.0504 4.55105C14.8504 4.35105 14.8504 4.15046 15.0504 3.95046L15.8502 3.15066Z" fill="black"/>
</g>
<defs>
<clipPath id="clip0_12377_46509">
<rect width="24" height="24" fill="white" transform="translate(0 0.000854492)"/>
</clipPath>
</defs>
</svg>
