<svg width="24" height="24" viewBox="0 0 24 24" fill="none" xmlns="http://www.w3.org/2000/svg">
<g clip-path="url(#clip0_8398_24011)">
<path d="M2 13.0528C2 13.2363 2.19535 13.4106 2.39069 13.4106H12.3264L10.8908 14.9476C10.6954 15.1311 10.6954 15.3146 10.8908 15.498L11.6722 16.232C11.8753 16.4228 12.0814 16.398 12.2582 16.232L15.745 12.7776C15.9403 12.5941 15.9403 12.4106 15.745 12.2271L12.2287 8.99699C12.0333 8.8135 11.838 8.8135 11.6427 8.99699L10.8613 9.73093C10.6659 9.91442 10.6659 10.0979 10.8613 10.2814L12.2287 11.5758H2.39069C2.19535 11.5758 2 11.7684 2 11.9519V13.0528Z" fill="black"/>
<mask id="path-2-inside-1_8398_24011" fill="white">
<path fill-rule="evenodd" clip-rule="evenodd" d="M21.9998 12.5C21.9998 15.5376 19.5374 18 16.4998 18C15.212 18 14.0275 17.5573 13.0902 16.8159L16.4419 13.4953C16.6452 13.3007 16.892 12.9675 16.892 12.5024C16.892 12.0282 16.6356 11.6912 16.4301 11.4982L12.9486 8.29997C13.9068 7.489 15.1462 7 16.4998 7C19.5374 7 21.9998 9.46243 21.9998 12.5ZM12.3649 16.1268C12.3648 16.1266 12.3647 16.1265 12.3645 16.1263L15.7447 12.7776C15.94 12.5941 15.94 12.4106 15.7447 12.2271L12.2461 9.01325C12.2462 9.0131 12.2463 9.01296 12.2464 9.01282L15.7455 12.2271C15.9408 12.4106 15.9408 12.5941 15.7455 12.7776L12.3649 16.1268Z"/>
</mask>
<path fill-rule="evenodd" clip-rule="evenodd" d="M21.9998 12.5C21.9998 15.5376 19.5374 18 16.4998 18C15.212 18 14.0275 17.5573 13.0902 16.8159L16.4419 13.4953C16.6452 13.3007 16.892 12.9675 16.892 12.5024C16.892 12.0282 16.6356 11.6912 16.4301 11.4982L12.9486 8.29997C13.9068 7.489 15.1462 7 16.4998 7C19.5374 7 21.9998 9.46243 21.9998 12.5ZM12.3649 16.1268C12.3648 16.1266 12.3647 16.1265 12.3645 16.1263L15.7447 12.7776C15.94 12.5941 15.94 12.4106 15.7447 12.2271L12.2461 9.01325C12.2462 9.0131 12.2463 9.01296 12.2464 9.01282L15.7455 12.2271C15.9408 12.4106 15.9408 12.5941 15.7455 12.7776L12.3649 16.1268Z" fill="black"/>
<path d="M13.0902 16.8159L11.6826 15.3951L10.0789 16.9838L11.8493 18.3844L13.0902 16.8159ZM16.4419 13.4953L15.0588 12.0507L15.0464 12.0625L15.0343 12.0745L16.4419 13.4953ZM16.4301 11.4982L17.7994 10.0404L17.7913 10.0328L17.7832 10.0253L16.4301 11.4982ZM12.9486 8.29997L11.6566 6.77336L9.92542 8.23855L11.5956 9.77284L12.9486 8.29997ZM12.3645 16.1263L10.9569 14.7055L9.62133 16.0287L10.8595 17.4435L12.3645 16.1263ZM12.3649 16.1268L10.86 17.444L12.2612 19.0448L13.7725 17.5475L12.3649 16.1268ZM15.7447 12.7776L14.3754 11.3198L14.356 11.3381L14.3371 11.3568L15.7447 12.7776ZM15.7447 12.2271L17.1139 10.7694L17.1058 10.7618L17.0977 10.7543L15.7447 12.2271ZM12.2461 9.01325L10.7 7.74458L9.50027 9.20664L10.8931 10.4861L12.2461 9.01325ZM12.2464 9.01282L13.5995 7.53995L12.042 6.10924L10.7004 7.74406L12.2464 9.01282ZM15.7455 12.2271L17.1147 10.7694L17.1067 10.7618L17.0985 10.7543L15.7455 12.2271ZM15.7455 12.7776L14.3762 11.3198L14.3568 11.3381L14.3379 11.3568L15.7455 12.7776ZM16.4998 20C20.642 20 23.9998 16.6421 23.9998 12.5H19.9998C19.9998 14.433 18.4328 16 16.4998 16V20ZM11.8493 18.3844C13.1272 19.3953 14.7457 20 16.4998 20V16C15.6783 16 14.9278 15.7194 14.3311 15.2474L11.8493 18.3844ZM15.0343 12.0745L11.6826 15.3951L14.4978 18.2367L17.8495 14.9161L15.0343 12.0745ZM14.892 12.5024C14.892 12.3679 14.9304 12.2505 14.9728 12.1699C15.0099 12.0992 15.0462 12.0627 15.0588 12.0507L17.825 14.94C18.2386 14.544 18.892 13.7237 18.892 12.5024H14.892ZM15.0609 12.956C15.0486 12.9445 15.0125 12.909 14.975 12.839C14.932 12.7587 14.892 12.6398 14.892 12.5024H18.892C18.892 11.2576 18.2141 10.4299 17.7994 10.0404L15.0609 12.956ZM11.5956 9.77284L15.0771 12.9711L17.7832 10.0253L14.3017 6.82711L11.5956 9.77284ZM16.4998 5C14.6556 5 12.9623 5.66821 11.6566 6.77336L14.2407 9.82658C14.8513 9.30979 15.6368 9 16.4998 9V5ZM23.9998 12.5C23.9998 8.35786 20.642 5 16.4998 5V9C18.4328 9 19.9998 10.567 19.9998 12.5H23.9998ZM10.8595 17.4435L10.86 17.444L13.8699 14.8095L13.8695 14.8091L10.8595 17.4435ZM14.3371 11.3568L10.9569 14.7055L13.7721 17.5471L17.1523 14.1984L14.3371 11.3568ZM14.3754 13.6849C14.2576 13.5742 13.8912 13.1754 13.8912 12.5024C13.8912 11.8293 14.2576 11.4305 14.3754 11.3198L17.1139 14.2354C17.4271 13.9412 17.8912 13.3589 17.8912 12.5024C17.8912 11.6458 17.4271 11.0635 17.1139 10.7694L14.3754 13.6849ZM10.8931 10.4861L14.3916 13.7L17.0977 10.7543L13.5991 7.54038L10.8931 10.4861ZM10.7004 7.74406C10.7003 7.74423 10.7001 7.7444 10.7 7.74458L13.7922 10.2819C13.7923 10.2818 13.7924 10.2817 13.7925 10.2816L10.7004 7.74406ZM10.8934 10.4857L14.3925 13.7L17.0985 10.7543L13.5995 7.53995L10.8934 10.4857ZM14.3762 13.6849C14.2584 13.5742 13.892 13.1754 13.892 12.5024C13.892 11.8293 14.2584 11.4305 14.3762 11.3198L17.1147 14.2354C17.4279 13.9412 17.892 13.3589 17.892 12.5024C17.892 11.6458 17.4279 11.0635 17.1147 10.7694L14.3762 13.6849ZM14.3379 11.3568L10.9573 14.706L13.7725 17.5475L17.1531 14.1984L14.3379 11.3568Z" fill="black" fill-opacity="0.8" mask="url(#path-2-inside-1_8398_24011)"/>
</g>
<defs>
<clipPath id="clip0_8398_24011">
<rect width="24" height="24" fill="white"/>
</clipPath>
</defs>
</svg>
