<?xml version="1.0" encoding="utf-8"?>
<!--
  Copyright 2023-2025 Solace Systems. All rights reserved.

  Licensed under the Apache License, Version 2.0 (the "License");
  you may not use this file except in compliance with the License.
  You may obtain a copy of the License at

      http://www.apache.org/licenses/LICENSE-2.0

  Unless required by applicable law or agreed to in writing, software
  distributed under the License is distributed on an "AS IS" BASIS,
  WITHOUT WARRANTIES OR CONDITIONS OF ANY KIND, either express or implied.
  See the License for the specific language governing permissions and
  limitations under the License.
-->
<svg width="24" height="24" viewBox="0 0 24 24" fill="none" xmlns="http://www.w3.org/2000/svg">
<g clip-path="url(#clip0_11380_43498)">
<path fill-rule="evenodd" clip-rule="evenodd" d="M9.4 3C9.17909 3 9 3.17909 9 3.4V5H6.90944C6.06421 5 5.31024 5.53134 5.02595 6.32733L3.11652 11.6738C3.03941 11.8896 3 12.1172 3 12.3464V20C3 20.5523 3.44772 21 4 21H5C5.55228 21 6 20.5523 6 20V19H18V20C18 20.5523 18.4477 21 19 21H20C20.5523 21 21 20.5523 21 20V12.3464C21 12.1172 20.9606 11.8896 20.8835 11.6738L18.974 6.32733C18.6898 5.53134 17.9358 5 17.0906 5H15V3.4C15 3.17909 14.8209 3 14.6 3H9.4ZM7.5 16C8.32843 16 9 15.3284 9 14.5C9 13.6716 8.32843 13 7.5 13C6.67157 13 6 13.6716 6 14.5C6 15.3284 6.67157 16 7.5 16ZM18 14.5C18 15.3284 17.3284 16 16.5 16C15.6716 16 15 15.3284 15 14.5C15 13.6716 15.6716 13 16.5 13C17.3284 13 18 13.6716 18 14.5ZM7 7H17L18 10H6L7 7Z" fill="black"/>
</g>
<defs>
<clipPath id="clip0_11380_43498">
<rect width="24" height="24" fill="white"/>
</clipPath>
</defs>
</svg>