<?xml version="1.0" encoding="utf-8"?>
<!--
  Copyright 2023-2025 Solace Systems. All rights reserved.

  Licensed under the Apache License, Version 2.0 (the "License");
  you may not use this file except in compliance with the License.
  You may obtain a copy of the License at

      http://www.apache.org/licenses/LICENSE-2.0

  Unless required by applicable law or agreed to in writing, software
  distributed under the License is distributed on an "AS IS" BASIS,
  WITHOUT WARRANTIES OR CONDITIONS OF ANY KIND, either express or implied.
  See the License for the specific language governing permissions and
  limitations under the License.
-->
<svg width="24" height="24" viewBox="0 0 24 24" fill="none" xmlns="http://www.w3.org/2000/svg">
<path d="M10.8423 10.1328C10.9985 9.9766 10.9985 9.75205 10.8423 9.59584L9.99377 8.74731C9.83756 8.5911 9.5843 8.5911 9.42809 8.74731L6.45824 11.7172C6.30203 11.8734 6.30203 12.1266 6.45824 12.2828L9.42809 15.2527C9.5843 15.4089 9.83756 15.4089 9.99377 15.2527L10.8423 14.4042C10.9985 14.248 10.9985 13.9947 10.8423 13.8385L9 12L10.8423 10.1328Z" fill="black"/>
<path d="M13.1651 9.59193C13.0089 9.74814 13.0089 10.0014 13.1651 10.1576L15 12L13.1651 13.8346C13.0089 13.9908 13.0089 14.244 13.1651 14.4003L14.0137 15.2488C14.1699 15.405 14.4231 15.405 14.5793 15.2488L17.5492 12.2789C17.7054 12.1227 17.7054 11.8695 17.5492 11.7133L14.5793 8.7434C14.4231 8.58719 14.1699 8.58719 14.0137 8.7434L13.1651 9.59193Z" fill="black"/>
<path fill-rule="evenodd" clip-rule="evenodd" d="M21 5C21 3.89543 20.1046 3 19 3H5C3.89543 3 3 3.89543 3 5V19C3 20.1046 3.89543 21 5 21H19C20.1046 21 21 20.1046 21 19V5ZM19 5H5V19H19V5Z" fill="black"/>
</svg>