<?xml version="1.0" encoding="UTF-8"?>
<svg id="Layer_1" data-name="Layer 1" xmlns="http://www.w3.org/2000/svg" viewBox="0 0 24 24">
  <defs>
    <style>
      .cls-1 {
        fill-rule: evenodd;
        stroke-width: 0px;
      }
    </style>
  </defs>
  <path class="cls-1" d="m6.4583,12.2828c-.1562-.1562-.1562-.4094,0-.5656l2.9698-2.9699c.1562-.1562.4095-.1562.5657,0l.8485.8485c.1562.1562.1562.3808,0,.537l-1.8423,1.8672,1.8423,1.8385c.1562.1562.1562.4095,0,.5657l-.8485.8485c-.1562.1562-.4095.1562-.5657,0l-2.9698-2.9699Zm6.7068,2.1176l.8486.8484c.1562.1562.4094.1562.5656,0l2.9699-2.9699c.1562-.1562.1562-.4094,0-.5656l-2.9699-2.9699c-.1562-.1562-.4094-.1562-.5656,0l-.8486.8485c-.1562.1562-.1562.4095,0,.5657l1.8349,1.8424-1.8349,1.8346c-.1562.1562-.1562.4094,0,.5657Zm7.8349-9.4003v14c0,1.1046-.8954,2-2,2H5c-1.1046,0-2-.8954-2-2V5c0-1.1046.8954-2,2-2h14c1.1046,0,2,.8954,2,2Zm-2,0H5v14h14V5Z"/>
</svg>