<!--
 Copyright 2023-2025 Solace Systems. All rights reserved.

 Licensed under the Apache License, Version 2.0 (the "License");
 you may not use this file except in compliance with the License.
 You may obtain a copy of the License at

     http://www.apache.org/licenses/LICENSE-2.0

 Unless required by applicable law or agreed to in writing, software
 distributed under the License is distributed on an "AS IS" BASIS,
 WITHOUT WARRANTIES OR CONDITIONS OF ANY KIND, either express or implied.
 See the License for the specific language governing permissions and
 limitations under the License.
-->
<svg width="24" height="24" viewBox="0 0 24 24" fill="none" xmlns="http://www.w3.org/2000/svg">
<path fill-rule="evenodd" clip-rule="evenodd" d="M7 2C5.89543 2 5 2.89543 5 4V6C5 7.10457 5.89543 8 7 8V17C7 19.7614 9.23858 22 12 22C14.7614 22 17 19.7614 17 17V8C18.1046 8 19 7.10457 19 6V4C19 2.89543 18.1046 2 17 2H7ZM9 17V8H15V10H12.4C12.1791 10 12 10.1791 12 10.4V11.6C12 11.8209 12.1791 12 12.4 12H15V14H12.4C12.1791 14 12 14.1791 12 14.4V15.6C12 15.8209 12.1791 16 12.4 16H15V17C15 18.6569 13.6569 20 12 20C10.3431 20 9 18.6569 9 17ZM17 4H7V6H17V4Z" fill="black"/>
</svg>
