<?xml version="1.0" encoding="UTF-8"?>
<svg id="Layer_1" data-name="Layer 1" xmlns="http://www.w3.org/2000/svg" viewBox="0 0 24 24">
  <defs>
    <style>
      .cls-1 {
        fill-rule: evenodd;
        stroke-width: 0px;
      }
    </style>
  </defs>
  <path class="cls-1" d="m7,2c-1.1046,0-2,.8954-2,2v2c0,1.1046.8954,2,2,2v9c0,2.7614,2.2386,5,5,5s5-2.2386,5-5v-9c1.1046,0,2-.8954,2-2v-2c0-1.1046-.8954-2-2-2H7Zm2,15v-9h6v2h-2.6c-.2209,0-.4.1791-.4.4v1.2c0,.2209.1791.4.4.4h2.6v2h-2.6c-.2209,0-.4.1791-.4.4v1.2c0,.2209.1791.4.4.4h2.6v1c0,1.6569-1.3431,3-3,3s-3-1.3431-3-3Zm8-13H7v2h10v-2Z"/>
</svg>