<?xml version="1.0" encoding="UTF-8"?>
<svg id="Layer_1" data-name="Layer 1" xmlns="http://www.w3.org/2000/svg" viewBox="0 0 24 24">
  <defs>
    <style>
      .cls-1 {
        fill-rule: evenodd;
        stroke-width: 0px;
      }
    </style>
  </defs>
  <path class="cls-1" d="m6,6c0-1.1046.8954-2,2-2h8c1.1046,0,2,.8954,2,2v2h2c1.1046,0,2,.8954,2,2v9.6c0,.2209-.1791.4-.4.4H2.4c-.2209,0-.4-.1791-.4-.4v-9.6c0-1.1046.8954-2,2-2h2v-2Zm2,2h8v-2h-8v2Zm-4,2v3h5v-.6c0-.2209.1791-.4.4-.4h5.2c.2209,0,.4.1791.4.4v.6h5v-3H4Zm5,5.6v-.6h-5v3h16v-3h-5v.6c0,.2209-.1791.4-.4.4h-5.2c-.2209,0-.4-.1791-.4-.4Z"/>
</svg>