<?xml version="1.0" encoding="utf-8"?>
<!--
  Copyright 2023-2025 Solace Systems. All rights reserved.

  Licensed under the Apache License, Version 2.0 (the "License");
  you may not use this file except in compliance with the License.
  You may obtain a copy of the License at

      http://www.apache.org/licenses/LICENSE-2.0

  Unless required by applicable law or agreed to in writing, software
  distributed under the License is distributed on an "AS IS" BASIS,
  WITHOUT WARRANTIES OR CONDITIONS OF ANY KIND, either express or implied.
  See the License for the specific language governing permissions and
  limitations under the License.
-->
<svg width="24" height="24" viewBox="0 0 24 24" fill="none" xmlns="http://www.w3.org/2000/svg">
<path fill-rule="evenodd" clip-rule="evenodd" d="M6 6C6 4.89543 6.89543 4 8 4H16C17.1046 4 18 4.89543 18 6V8H20C21.1046 8 22 8.89543 22 10V19.6C22 19.8209 21.8209 20 21.6 20H2.4C2.17909 20 2 19.8209 2 19.6V10C2 8.89543 2.89543 8 4 8H6V6ZM8 8H16V6H8V8ZM4 10V13H9V12.4C9 12.1791 9.17909 12 9.4 12H14.6C14.8209 12 15 12.1791 15 12.4V13H20V10H4ZM9 15.6V15H4V18H20V15H15V15.6C15 15.8209 14.8209 16 14.6 16H9.4C9.17909 16 9 15.8209 9 15.6Z" fill="black"/>
</svg>