<!--
 Copyright 2023-2025 Solace Systems. All rights reserved.

 Licensed under the Apache License, Version 2.0 (the "License");
 you may not use this file except in compliance with the License.
 You may obtain a copy of the License at

     http://www.apache.org/licenses/LICENSE-2.0

 Unless required by applicable law or agreed to in writing, software
 distributed under the License is distributed on an "AS IS" BASIS,
 WITHOUT WARRANTIES OR CONDITIONS OF ANY KIND, either express or implied.
 See the License for the specific language governing permissions and
 limitations under the License.
-->
<svg width="24" height="24" viewBox="0 0 24 24" fill="none" xmlns="http://www.w3.org/2000/svg">
<g clip-path="url(#clip0_11380_43540)">
<path d="M18 7V4.40066C18 4.04254 18.4529 3.865 18.7142 4.12069L21.8808 7.21936C22.0397 7.37483 22.0397 7.62372 21.8809 7.77923L18.7143 10.8792C18.453 11.135 18 10.9575 18 10.5993V9H15.5C14.241 9 13.0554 9.59278 12.3 10.6L9.3 14.6C8.16687 16.1108 6.38854 17 4.5 17H2.4C2.17909 17 2 16.8209 2 16.6V15.4C2 15.1791 2.17909 15 2.4 15H4.5C5.75903 15 6.94458 14.4072 7.7 13.4L10.7 9.4C11.8331 7.88917 13.6115 7 15.5 7H18Z" fill="black"/>
<path d="M18 17V19.5993C18 19.9575 18.453 20.135 18.7143 19.8792L21.8809 16.7792C22.0397 16.6237 22.0397 16.3748 21.8808 16.2194L18.7142 13.1207C18.4529 12.865 18 13.0425 18 13.4007V15H15.5C14.241 15 13.0554 14.4072 12.3 13.4L11.9999 12.9999L10.7503 14.6661C11.8853 16.1367 13.6392 17 15.5 17H18Z" fill="black"/>
<path d="M4.5 9C5.75903 9 6.94458 9.59278 7.7 10.6L8.00006 11.0001L9.2497 9.33389C8.11466 7.86326 6.36083 7 4.5 7H2.4C2.17909 7 2 7.17909 2 7.4V8.6C2 8.82091 2.17909 9 2.4 9H4.5Z" fill="black"/>
</g>
<defs>
<clipPath id="clip0_11380_43540">
<rect width="24" height="24" fill="white"/>
</clipPath>
</defs>
</svg>
