<?xml version="1.0" encoding="utf-8"?>
<!--
  Copyright 2023-2025 Solace Systems. All rights reserved.

  Licensed under the Apache License, Version 2.0 (the "License");
  you may not use this file except in compliance with the License.
  You may obtain a copy of the License at

      http://www.apache.org/licenses/LICENSE-2.0

  Unless required by applicable law or agreed to in writing, software
  distributed under the License is distributed on an "AS IS" BASIS,
  WITHOUT WARRANTIES OR CONDITIONS OF ANY KIND, either express or implied.
  See the License for the specific language governing permissions and
  limitations under the License.
-->
<svg width="24" height="24" viewBox="0 0 24 24" fill="none" xmlns="http://www.w3.org/2000/svg">
<path d="M17 21C15.8954 21 15 20.1046 15 19V18H11V8H9V9C9 10.1046 8.10457 11 7 11H4C2.89543 11 2 10.1046 2 9V5C2 3.89543 2.89543 3 4 3H7C8.10457 3 9 3.89543 9 5V6H15V5C15 3.89543 15.8954 3 17 3H20C21.1046 3 22 3.89543 22 5V9C22 10.1046 21.1046 11 20 11H17C15.8954 11 15 10.1046 15 9V8H13V16H15V15C15 13.8954 15.8954 13 17 13H20C21.1046 13 22 13.8954 22 15V19C22 20.1046 21.1046 21 20 21H17ZM17 9H20V5H17V9ZM17 19H20V15H17V19ZM4 9H7V5H4V9Z" fill="black"/>
</svg>