<!--
 Copyright 2023-2025 Solace Systems. All rights reserved.

 Licensed under the Apache License, Version 2.0 (the "License");
 you may not use this file except in compliance with the License.
 You may obtain a copy of the License at

     http://www.apache.org/licenses/LICENSE-2.0

 Unless required by applicable law or agreed to in writing, software
 distributed under the License is distributed on an "AS IS" BASIS,
 WITHOUT WARRANTIES OR CONDITIONS OF ANY KIND, either express or implied.
 See the License for the specific language governing permissions and
 limitations under the License.
-->
<svg width="24" height="24" viewBox="0 0 24 24" fill="none" xmlns="http://www.w3.org/2000/svg">
<g clip-path="url(#clip0_11380_43456)">
<path fill-rule="evenodd" clip-rule="evenodd" d="M4 4C2.89543 4 2 4.89543 2 6V16.6C2 16.8209 2.17909 17 2.4 17H3C3 18.6569 4.34315 20 6 20C7.65685 20 9 18.6569 9 17H15C15 18.6569 16.3431 20 18 20C19.6569 20 21 18.6569 21 17H21.6C21.8209 17 22 16.8209 22 16.6V13.077C22 13.0261 21.9903 12.9757 21.9714 12.9285L20.1006 8.25144C20.0398 8.09958 19.8927 8 19.7292 8H17V4.4C17 4.17909 16.8209 4 16.6 4H4ZM18.8 10H17V13H20L18.8 10ZM7 17C7 17.5523 6.55228 18 6 18C5.44772 18 5 17.5523 5 17C5 16.4477 5.44772 16 6 16C6.55228 16 7 16.4477 7 17ZM18 18C18.5523 18 19 17.5523 19 17C19 16.4477 18.5523 16 18 16C17.4477 16 17 16.4477 17 17C17 17.5523 17.4477 18 18 18Z" fill="black"/>
</g>
<defs>
<clipPath id="clip0_11380_43456">
<rect width="24" height="24" fill="white"/>
</clipPath>
</defs>
</svg>
