<svg width="24" height="24" viewBox="0 0 24 24" fill="none" xmlns="http://www.w3.org/2000/svg">
<g clip-path="url(#clip0_11643_43327)">
<path d="M12 21C10.75 21 9.57917 20.7625 8.4875 20.2875C7.39583 19.8125 6.44583 19.1708 5.6375 18.3625C4.82917 17.5542 4.1875 16.6042 3.7125 15.5125C3.2375 14.4208 3 13.25 3 12C3 10.75 3.2375 9.57917 3.7125 8.4875C4.1875 7.39583 4.82917 6.44583 5.6375 5.6375C6.44583 4.82917 7.39583 4.1875 8.4875 3.7125C9.57917 3.2375 10.75 3 12 3C13.3667 3 14.6625 3.29167 15.8875 3.875C17.1125 4.45833 18.15 5.28333 19 6.35V4.4C19 4.17909 19.1791 4 19.4 4H20.6C20.8209 4 21 4.17909 21 4.4V9.6C21 9.82091 20.8209 10 20.6 10H15.4C15.1791 10 15 9.82091 15 9.6V8.4C15 8.17909 15.1791 8 15.4 8H17.75C17.0667 7.06667 16.225 6.33333 15.225 5.8C14.225 5.26667 13.15 5 12 5C10.05 5 8.39583 5.67917 7.0375 7.0375C5.67917 8.39583 5 10.05 5 12C5 13.95 5.67917 15.6042 7.0375 16.9625C8.39583 18.3208 10.05 19 12 19C13.75 19 15.2792 18.4333 16.5875 17.3C17.8079 16.2429 18.5606 14.9247 18.8456 13.3456C18.8812 13.1485 19.0495 13 19.2498 13H20.5038C20.742 13 20.9281 13.207 20.8917 13.4424C20.569 15.5304 19.6093 17.2871 18.0125 18.7125C16.3042 20.2375 14.3 21 12 21ZM15.042 15.8799C14.896 16.0259 14.6628 16.0367 14.5039 15.9049L11.1447 13.12C11.053 13.044 11 12.9311 11 12.812V7.4C11 7.17909 11.1791 7 11.4 7H12.6C12.8209 7 13 7.17909 13 7.4V12L15.8573 14.4563C16.0338 14.6081 16.044 14.8779 15.8794 15.0425L15.042 15.8799Z" fill="black"/>
</g>
<defs>
<clipPath id="clip0_11643_43327">
<rect width="24" height="24" fill="white"/>
</clipPath>
</defs>
</svg>
