<svg width="24" height="24" viewBox="0 0 24 24" fill="none" xmlns="http://www.w3.org/2000/svg">
<path d="M11.15 17C10.9291 17 10.75 16.8209 10.75 16.6V6.81253L7.78785 9.77468C7.6297 9.93283 7.3726 9.93057 7.21725 9.76967L6.02301 8.53278C5.87146 8.37582 5.87365 8.12638 6.02792 7.9721L11.7172 2.28287C11.8734 2.12666 12.1266 2.12666 12.2828 2.28287L17.9721 7.9721C18.1264 8.12638 18.1285 8.37582 17.977 8.53278L16.7828 9.76967C16.6274 9.93057 16.3703 9.93283 16.2122 9.77468L13.25 6.81253V16.6C13.25 16.8209 13.0709 17 12.85 17H11.15ZM4.5 22C3.8125 22 3.22396 21.7552 2.73438 21.2656C2.24479 20.7761 2 20.1875 2 19.5V16.15C2 15.9291 2.17909 15.75 2.4 15.75H4.1C4.32091 15.75 4.5 15.9291 4.5 16.15V19.5H19.5V16.15C19.5 15.9291 19.6791 15.75 19.9 15.75H21.6C21.8209 15.75 22 15.9291 22 16.15V19.5C22 20.1875 21.7552 20.7761 21.2656 21.2656C20.776 21.7552 20.1875 22 19.5 22H4.5Z" fill="black"/>
</svg>
