<?xml version="1.0" encoding="utf-8"?>
<!-- Generator: Adobe Illustrator 26.2.1, SVG Export Plug-In . SVG Version: 6.00 Build 0)  -->
<svg version="1.1" id="Layer_1" xmlns="http://www.w3.org/2000/svg" xmlns:xlink="http://www.w3.org/1999/xlink" x="0px" y="0px"
	 viewBox="0 0 32 32" style="enable-background:new 0 0 32 32;" xml:space="preserve">
<path d="M20.7,17h-5.5c-0.3,0-0.5,0.2-0.5,0.5v0.9c0,0.3,0.2,0.5,0.5,0.5h5.5c0.3,0,0.5-0.2,0.5-0.5v-0.9C21.2,17.2,21,17,20.7,17z
	 M20.7,21h-5.5c-0.3,0-0.5,0.2-0.5,0.5v0.9c0,0.3,0.2,0.5,0.5,0.5h5.5c0.3,0,0.5-0.2,0.5-0.5v-0.9C21.2,21.2,21,21,20.7,21z
	 M26.8,10.7v16c0,1.5-1.3,2.7-2.8,2.7H12c-1.5,0-2.7-1.2-2.7-2.7V22H12v4.7h12V10.8h-7V8h7C25.5,8,26.8,9.2,26.8,10.7z M10.8,10
	C8.8,9.5,8.2,9,8.2,8.1c0-1,0.9-1.6,2.4-1.6c1.4,0,2,0.6,2.2,1.5c0,0.2,0.3,0.4,0.5,0.4c0,0,0.6,0,1,0c0.4,0,0.5-0.2,0.5-0.5
	c-0.1-1-0.9-2.4-2.7-2.9V3.5C12,3.2,11.8,3,11.5,3H9.8C9.5,3,9.3,3.2,9.3,3.5v1.4C7.5,5.3,6.2,6.4,6.2,8.1c0,2.1,1.7,3.1,4.2,3.7
	c2.2,0.5,2.7,1.3,2.7,2.1c0,0.6-0.4,1.6-2.4,1.6C9,15.5,8.2,14.9,8,14c-0.1-0.2-0.3-0.4-0.5-0.4c0,0-0.5,0-1,0
	c-0.3,0-0.5,0.2-0.5,0.4c0.1,1.5,1.6,2.6,3.3,3v1.4c0,0.3,0.2,0.5,0.5,0.5h1.7c0.3,0,0.5-0.2,0.5-0.5v-1.4c1.7-0.3,3-1.3,3-3.2
	C15,11.4,12.9,10.5,10.8,10z"/>
</svg>
