<!--
 Copyright 2023-2025 Solace Systems. All rights reserved.

 Licensed under the Apache License, Version 2.0 (the "License");
 you may not use this file except in compliance with the License.
 You may obtain a copy of the License at

     http://www.apache.org/licenses/LICENSE-2.0

 Unless required by applicable law or agreed to in writing, software
 distributed under the License is distributed on an "AS IS" BASIS,
 WITHOUT WARRANTIES OR CONDITIONS OF ANY KIND, either express or implied.
 See the License for the specific language governing permissions and
 limitations under the License.
-->
<?xml version="1.0" encoding="utf-8"?>
<!-- Generator: Adobe Illustrator 26.2.1, SVG Export Plug-In . SVG Version: 6.00 Build 0)  -->
<svg version="1.1" id="Layer_1" xmlns="http://www.w3.org/2000/svg" xmlns:xlink="http://www.w3.org/1999/xlink" x="0px" y="0px"
	 viewBox="0 0 32 32" style="enable-background:new 0 0 32 32;" xml:space="preserve">
<path d="M20.25,17h-5.5c-0.3,0-0.5,0.2-0.5,0.5v1c0,0.3,0.2,0.5,0.5,0.5h5.5c0.3,0,0.5-0.2,0.5-0.5v-1C20.75,17.2,20.55,17,20.25,17
	z M20.25,21h-5.5c-0.3,0-0.5,0.2-0.5,0.5001v0.9999c0,0.3,0.2,0.5001,0.5,0.5001h5.5c0.3,0,0.5-0.2,0.5-0.5001v-0.9999
	C20.75,21.2,20.55,21,20.25,21z M26,10.6495v15.7009C26,27.8224,24.7407,29,23.2878,29H11.6638C10.2108,29,9,27.8224,9,26.3505V22
	h3.0114v4.3505h11.245V10.7627h-6.7498V8h6.7811C24.7407,8,26,9.1776,26,10.6495z M10.7693,10
	C8.7546,9.5,8.1427,8.9422,8.1427,8.1111c0-1,0.887-1.638,2.398-1.638c1.4102,0,1.8634,0.484,2.1424,1.2706
	C12.7501,7.9324,13.0097,8,13.2876,8c0,0,0.6044,0,1.0073,0c0.2344,0,0.3912-0.2312,0.3327-0.4504
	C14.3886,6.6537,13.8132,5.4732,12,4.9732c0,0,0-1.103,0-1.4732C12,3.1838,11.7766,3,11.4744,3H9.7125
	C9.4103,3,9.2114,3.2,9.2114,3.5v1.42c-1.8132,0.4-3.1109,1.5149-3.1109,3.2149c0,2.1,1.7495,3.0572,4.2659,3.6651
	c2.1623,0.5224,2.5854,1.3,2.5854,2.1c0,0.6-0.379,1.6327-2.4846,1.6327c-1.395,0-2.2408-0.5457-2.5183-1.5327
	c-0.0606-0.2154-0.3023-0.2458-0.5038-0.2458c0,0-0.5037,0-1.0073,0c-0.4258,0-0.4653,0.3036-0.4258,0.4997
	c0.2775,1.3786,1.4878,2.4932,3.1961,2.8049V18.5c0,0.3,0.2013,0.5,0.5035,0.5h1.7629c0.3022,0,0.5037-0.3,0.5037-0.6V17
	C13.6905,16.7,15,15.7,15,13.8C15,11.5119,12.8846,10.5,10.7693,10z"/>
</svg>
