<svg width="24" height="24" viewBox="0 0 24 24" fill="none" xmlns="http://www.w3.org/2000/svg">
<g clip-path="url(#clip0_12519_367590)">
<path d="M10.133 22C9.62865 22 9.20325 21.6245 9.1407 21.124L8.87991 19.0377C8.86162 18.8914 8.76352 18.7685 8.62932 18.7073C8.49345 18.6453 8.3629 18.5762 8.2377 18.5C8.10971 18.4221 7.98358 18.3405 7.85931 18.2551C7.74393 18.1759 7.59636 18.1581 7.46733 18.2123L5.51187 19.034C5.04786 19.2289 4.51125 19.0486 4.25908 18.6131L2.39295 15.3898C2.14007 14.953 2.25231 14.3962 2.65467 14.0915L4.33738 12.8172C4.45329 12.7295 4.50949 12.5858 4.50265 12.4406C4.50101 12.4058 4.5002 12.3715 4.5002 12.3375V11.6625C4.5002 11.6285 4.50101 11.5942 4.50265 11.5594C4.50949 11.4142 4.45329 11.2705 4.33738 11.1828L2.65467 9.90848C2.25231 9.60379 2.14007 9.04703 2.39295 8.61024L4.25908 5.38693C4.51125 4.95135 5.04786 4.77108 5.51187 4.96604L7.46733 5.78766C7.59636 5.84188 7.74384 5.82395 7.85975 5.7455C7.98616 5.65993 8.11631 5.5781 8.2502 5.5C8.37954 5.42455 8.50888 5.35607 8.63823 5.29456C8.76786 5.23291 8.86118 5.1121 8.87899 4.96966L9.1407 2.87596C9.20325 2.37554 9.62865 2 10.133 2H13.8674C14.3717 2 14.7971 2.37554 14.8597 2.87597L15.1205 4.96228C15.1388 5.10864 15.2369 5.23148 15.3711 5.2927C15.5069 5.35469 15.6375 5.42379 15.7627 5.5C15.8907 5.5779 16.0168 5.65953 16.1411 5.74486C16.2565 5.82409 16.404 5.84188 16.5331 5.78766L18.4885 4.96604C18.9525 4.77108 19.4891 4.95136 19.7413 5.38693L21.6074 8.61024C21.8603 9.04703 21.7481 9.60379 21.3457 9.90848L19.663 11.1828C19.5471 11.2705 19.4909 11.4142 19.4977 11.5594C19.4994 11.5942 19.5002 11.6285 19.5002 11.6625V12.3375C19.5002 12.3601 19.4995 12.3829 19.498 12.4058C19.4876 12.5706 19.5369 12.7407 19.6686 12.8404L21.3207 14.0915C21.7231 14.3962 21.8353 14.953 21.5824 15.3898L19.7177 18.6107C19.4649 19.0473 18.9266 19.2273 18.4621 19.0305L16.5335 18.2133C16.4043 18.1585 16.2563 18.1763 16.14 18.2549C16.0138 18.3404 15.8838 18.422 15.7502 18.5C15.6209 18.5755 15.4915 18.6439 15.3622 18.7054C15.2325 18.7671 15.1392 18.8879 15.1214 19.0303L14.8597 21.124C14.7971 21.6245 14.3717 22 13.8674 22H10.133ZM11.0002 20H12.9752L13.3252 17.35C13.8419 17.2167 14.321 17.0208 14.7627 16.7625C15.2044 16.5042 15.6085 16.1917 15.9752 15.825L18.4502 16.85L19.4252 15.15L17.2752 13.525C17.3585 13.2917 17.4169 13.0458 17.4502 12.7875C17.4835 12.5292 17.5002 12.2667 17.5002 12C17.5002 11.7333 17.4835 11.4708 17.4502 11.2125C17.4169 10.9542 17.3585 10.7083 17.2752 10.475L19.4252 8.85L18.4502 7.15L15.9752 8.2C15.6085 7.81667 15.2044 7.49583 14.7627 7.2375C14.321 6.97917 13.8419 6.78333 13.3252 6.65L13.0002 4H11.0252L10.6752 6.65C10.1585 6.78333 9.67936 6.97917 9.2377 7.2375C8.79603 7.49583 8.39186 7.80833 8.0252 8.175L5.5502 7.15L4.5752 8.85L6.7252 10.45C6.64186 10.7 6.58353 10.95 6.5502 11.2C6.51686 11.45 6.5002 11.7167 6.5002 12C6.5002 12.2667 6.51686 12.525 6.5502 12.775C6.58353 13.025 6.64186 13.275 6.7252 13.525L4.5752 15.15L5.5502 16.85L8.0252 15.8C8.39186 16.1833 8.79603 16.5042 9.2377 16.7625C9.67936 17.0208 10.1585 17.2167 10.6752 17.35L11.0002 20ZM12.0502 15.5C13.0169 15.5 13.8419 15.1583 14.5252 14.475C15.2085 13.7917 15.5502 12.9667 15.5502 12C15.5502 11.0333 15.2085 10.2083 14.5252 9.525C13.8419 8.84167 13.0169 8.5 12.0502 8.5C11.0669 8.5 10.2377 8.84167 9.5627 9.525C8.8877 10.2083 8.5502 11.0333 8.5502 12C8.5502 12.9667 8.8877 13.7917 9.5627 14.475C10.2377 15.1583 11.0669 15.5 12.0502 15.5Z" fill="black"/>
</g>
<defs>
<clipPath id="clip0_12519_367590">
<rect width="24" height="24" fill="white"/>
</clipPath>
</defs>
</svg>
