<svg width="24" height="24" viewBox="0 0 24 24" fill="none" xmlns="http://www.w3.org/2000/svg">
<path d="M1.75781 19.3077V17.4096C1.75781 16.884 1.8934 16.4189 2.16456 16.0144C2.4357 15.61 2.81532 15.3004 3.30344 15.0857C4.38582 14.6106 5.37445 14.2564 6.26931 14.0231C7.16418 13.7898 8.16034 13.6731 9.25779 13.6731C10.3616 13.6731 11.3568 13.7898 12.2434 14.0231C13.1299 14.2564 14.1176 14.6106 15.2064 15.0857C15.6881 15.3004 16.067 15.61 16.3433 16.0144C16.6196 16.4189 16.7577 16.884 16.7577 17.4096V19.3077H1.75781ZM18.3924 19.3077V17.4385C18.3924 16.5487 18.1852 15.8065 17.7708 15.2117C17.3564 14.617 16.8149 14.1304 16.1463 13.752C17.0334 13.8789 17.8764 14.0523 18.6751 14.2721C19.4738 14.492 20.1417 14.7398 20.6789 15.0154C21.1519 15.2808 21.5308 15.6217 21.8154 16.0381C22.1 16.4545 22.2423 16.9213 22.2423 17.4385V19.3077H18.3924ZM9.25779 11.6769C8.29529 11.6769 7.50178 11.3647 6.87726 10.7401C6.25276 10.1156 5.94051 9.32212 5.94051 8.35963C5.94051 7.39073 6.25276 6.59563 6.87726 5.97431C7.50178 5.35301 8.29529 5.04236 9.25779 5.04236C10.2267 5.04236 11.0218 5.35301 11.6431 5.97431C12.2644 6.59563 12.5751 7.39073 12.5751 8.35963C12.5751 9.32212 12.2644 10.1156 11.6431 10.7401C11.0218 11.3647 10.2267 11.6769 9.25779 11.6769ZM17.1615 8.35963C17.1615 9.32212 16.8509 10.1156 16.2296 10.7401C15.6083 11.3647 14.8132 11.6769 13.8443 11.6769C13.7314 11.6769 13.6106 11.6692 13.4818 11.6538C13.353 11.6385 13.2321 11.6103 13.1193 11.5692C13.4765 11.1797 13.7475 10.7121 13.9324 10.1663C14.1173 9.62053 14.2097 9.0179 14.2097 8.35843C14.2097 7.69898 14.1135 7.11061 13.9212 6.59331C13.7289 6.07601 13.4616 5.59172 13.1193 5.14043C13.2257 5.11607 13.3465 5.09363 13.4818 5.07313C13.617 5.05262 13.7379 5.04236 13.8443 5.04236C14.8132 5.04236 15.6083 5.35301 16.2296 5.97431C16.8509 6.59563 17.1615 7.39073 17.1615 8.35963Z" fill="black"/>
</svg>
