<?xml version="1.0" encoding="utf-8"?>
<!--
  Copyright 2023-2025 Solace Systems. All rights reserved.

  Licensed under the Apache License, Version 2.0 (the "License");
  you may not use this file except in compliance with the License.
  You may obtain a copy of the License at

      http://www.apache.org/licenses/LICENSE-2.0

  Unless required by applicable law or agreed to in writing, software
  distributed under the License is distributed on an "AS IS" BASIS,
  WITHOUT WARRANTIES OR CONDITIONS OF ANY KIND, either express or implied.
  See the License for the specific language governing permissions and
  limitations under the License.
-->
<svg width="24" height="24" viewBox="0 0 24 24" fill="none" xmlns="http://www.w3.org/2000/svg">
  <g clip-path="url(#clip0_12519_367590)">
    <path fill-rule="evenodd" clip-rule="evenodd" d="M12.0004 8C13.105 8.0001 14.0477 8.39102 14.8285 9.17188C15.6094 9.95279 16.0004 10.8953 16.0004 12C16.0004 13.1047 15.6094 14.0472 14.8285 14.8281C14.0477 15.609 13.105 15.9999 12.0004 16C10.947 16 10.0479 15.6569 9.30413 14.9707L9.15765 14.8281C8.38634 14.0472 8.00042 13.1047 8.00042 12C8.00042 10.9643 8.339 10.0705 9.01702 9.31934L9.15765 9.17188C9.92904 8.39106 10.8767 8 12.0004 8ZM12.0004 9.5C11.2671 9.5 10.7071 9.73769 10.225 10.2256C9.73293 10.7238 9.50042 11.287 9.50042 12C9.50042 12.713 9.73293 13.2762 10.225 13.7744C10.7071 14.2623 11.2671 14.5 12.0004 14.5C12.7073 14.4999 13.2685 14.267 13.768 13.7676C14.2674 13.2681 14.5004 12.707 14.5004 12C14.5004 11.293 14.2674 10.7319 13.768 10.2324C13.2685 9.73297 12.7073 9.50009 12.0004 9.5Z" fill="black"/>
    <path fill-rule="evenodd" clip-rule="evenodd" d="M13.9164 2C14.4341 2 14.8708 2.37556 14.935 2.87598L15.2026 4.96191C15.2214 5.10827 15.3226 5.23175 15.4604 5.29297C15.5996 5.35488 15.7334 5.42391 15.8618 5.5C15.9931 5.5779 16.1229 5.65978 16.2504 5.74512C16.3688 5.82428 16.5204 5.84215 16.6528 5.78809L18.6606 4.96582C19.1367 4.77116 19.6869 4.95152 19.9457 5.38672L21.8618 8.61035C22.1212 9.04707 22.006 9.60349 21.5932 9.9082L19.8657 11.1826C19.7467 11.2704 19.6887 11.4144 19.6957 11.5596C19.6974 11.5942 19.6987 11.6283 19.6987 11.6621V12.3379C19.6987 12.3604 19.6982 12.3834 19.6967 12.4062C19.6861 12.5709 19.7365 12.7412 19.8715 12.8408L21.5678 14.0918C21.9805 14.3965 22.0957 14.953 21.8364 15.3896L19.9223 18.6104C19.6629 19.0469 19.11 19.227 18.6332 19.0303L16.6537 18.2129C16.5211 18.1581 16.3688 18.1762 16.2494 18.2549C16.1199 18.3403 15.9862 18.422 15.8491 18.5C15.7164 18.5754 15.5833 18.6436 15.4506 18.7051C15.3177 18.7667 15.2218 18.8879 15.2035 19.0303L14.935 21.124C14.8708 21.6244 14.4341 22 13.9164 22H10.0834C9.56575 22 9.12909 21.6244 9.06488 21.124L8.7973 19.0381C8.77852 18.8917 8.67723 18.7683 8.53949 18.707C8.40023 18.6451 8.26646 18.5761 8.13812 18.5C8.00674 18.4221 7.87701 18.3402 7.74945 18.2549C7.63109 18.1757 7.47947 18.1578 7.3471 18.2119L5.33929 19.0342C4.86321 19.2288 4.31298 19.0485 4.05413 18.6133L2.13812 15.3896C1.87869 14.953 1.99391 14.3965 2.40667 14.0918L4.13421 12.8174C4.25319 12.7296 4.31115 12.5857 4.30413 12.4404C4.30246 12.4058 4.30121 12.3717 4.3012 12.3379V11.6621C4.30121 11.6283 4.30246 11.5942 4.30413 11.5596C4.31115 11.4143 4.25319 11.2704 4.13421 11.1826L2.40667 9.9082C1.99391 9.60349 1.87869 9.04703 2.13812 8.61035L4.05413 5.38672C4.31298 4.95152 4.86321 4.77122 5.33929 4.96582L7.3471 5.78809C7.47947 5.84218 7.63055 5.82347 7.74945 5.74512C7.87921 5.65955 8.01338 5.5781 8.15081 5.5C8.28354 5.42458 8.41652 5.35641 8.54925 5.29492C8.68225 5.23327 8.77804 5.11211 8.79632 4.96973L9.06488 2.87598C9.12909 2.37555 9.56575 2 10.0834 2H13.9164ZM10.6401 6.65039C10.1098 6.7837 9.61779 6.97903 9.16449 7.2373C8.71112 7.49564 8.29575 7.80814 7.91937 8.1748L5.37933 7.15039L4.37835 8.84961L6.58538 10.4502C6.49987 10.7002 6.43991 10.9502 6.4057 11.2002C6.3715 11.4501 6.35394 11.7167 6.35394 12C6.35394 12.2667 6.37148 12.5254 6.4057 12.7754C6.43992 13.0253 6.49989 13.2755 6.58538 13.5254L4.37835 15.1504L5.37933 16.8496L7.91937 15.7998C8.29575 16.1831 8.71112 16.5044 9.16449 16.7627C9.61779 17.021 10.1098 17.2163 10.6401 17.3496L10.9731 20H13.0004L13.3598 17.3496C13.89 17.2163 14.3821 17.0209 14.8354 16.7627C15.2888 16.5044 15.7041 16.1919 16.0805 15.8252L18.6205 16.8496L19.6215 15.1504L17.4145 13.5254C17.5 13.2921 17.56 13.0454 17.5942 12.7871C17.6284 12.5289 17.6459 12.2665 17.6459 12C17.6459 11.7335 17.6284 11.4711 17.5942 11.2129C17.56 10.9546 17.5 10.7079 17.4145 10.4746L19.6215 8.84961L18.6205 7.15039L16.0805 8.2002C15.7041 7.81686 15.2888 7.49564 14.8354 7.2373C14.3821 6.97906 13.89 6.78369 13.3598 6.65039L13.0268 4H10.9994L10.6401 6.65039Z" fill="black"/>
  </g>
  <defs>
    <clipPath id="clip0_12519_367590">
      <rect width="24" height="24" fill="white"/>
    </clipPath>
  </defs>
</svg>