<?xml version="1.0" encoding="UTF-8"?>
<svg id="Layer_1" data-name="Layer 1" xmlns="http://www.w3.org/2000/svg" viewBox="0 0 24 24">
  <defs>
    <style>
      .cls-1 {
        stroke-width: 0px;
      }
    </style>
  </defs>
  <path class="cls-1" d="m10.6672,15.2672c.1562.1562.4094.1562.5656,0l5.0844-5.0844c.1562-.1562.1562-.4094,0-.5656l-.8594-.8593c-.1562-.1562-.4094-.1562-.5656,0l-3.9422,3.9422-1.8172-1.8172c-.1562-.1562-.4095-.1562-.5657,0l-.8593.8594c-.1562.1562-.1562.4094,0,.5656l2.9594,2.9594Zm1.4305,6.7077c-.064.0168-.1314.0168-.1954,0-2.2728-.5958-4.1527-1.9166-5.6398-3.9624-1.5083-2.075-2.2625-4.3792-2.2625-6.9125v-5.8228c0-.1667.1034-.316.2596-.3745l7.6-2.85c.0905-.034.1903-.034.2808,0l7.6,2.85c.1562.0585.2596.2078.2596.3745v5.8228c0,2.5333-.7542,4.8375-2.2625,6.9125-1.4871,2.0458-3.367,3.3666-5.6398,3.9624Zm-.0977-2.0749c1.7333-.55,3.1667-1.65,4.3-3.3,1.1333-1.65,1.7-3.4833,1.7-5.5v-4.725l-6-2.25-6,2.25v4.725c0,2.0167.5667,3.85,1.7,5.5,1.1333,1.65,2.5667,2.75,4.3,3.3Z"/>
</svg>