<svg width="24" height="24" viewBox="0 0 24 24" fill="none" xmlns="http://www.w3.org/2000/svg">
<g clip-path="url(#clip0_3815_32986)">
<path d="M13 6.5C13 8.43 11.43 10 9.5 10C7.57 10 6 8.43 6 6.5C6 4.57 7.57 3 9.5 3C11.43 3 13 4.57 13 6.5ZM11 11V17H5C3.9 17 3 16.1 3 15C3 12.8 4.8 11 7 11H11ZM20 11H14C13.45 11 13 11.45 13 12V20C13 20.55 13.45 21 14 21H20C20.55 21 21 20.55 21 20V12C21 11.45 20.55 11 20 11ZM20 20H14V12H20V20ZM18.35 14H15.65C15.57 14 15.5 14.07 15.5 14.15V14.85C15.5 14.93 15.57 15 15.65 15H18.35C18.43 15 18.5 14.93 18.5 14.85V14.15C18.5 14.07 18.43 14 18.35 14ZM18.35 16.5H15.65C15.57 16.5 15.5 16.57 15.5 16.65V17.35C15.5 17.43 15.57 17.5 15.65 17.5H18.35C18.43 17.5 18.5 17.43 18.5 17.35V16.65C18.5 16.57 18.43 16.5 18.35 16.5Z" fill="black"/>
</g>
<defs>
<clipPath id="clip0_3815_32986">
<rect width="24" height="24" fill="white"/>
</clipPath>
</defs>
</svg>
