<svg width="24" height="24" viewBox="0 0 24 24" fill="none" xmlns="http://www.w3.org/2000/svg">
<g clip-path="url(#clip0_3496_34944)">
<path d="M13.224 9.162C9.80697 8.253 6.75497 11.305 7.66397 14.722C8.06297 16.223 9.27797 17.438 10.779 17.837C14.196 18.746 17.248 15.694 16.339 12.277C15.939 10.776 14.725 9.562 13.224 9.162ZM13.224 9.162C9.80697 8.253 6.75497 11.305 7.66397 14.722C8.06297 16.223 9.27797 17.438 10.779 17.837C14.196 18.746 17.248 15.694 16.339 12.277C15.939 10.776 14.725 9.562 13.224 9.162ZM12.001 6C7.41597 6 3.94897 8.608 2.04097 12.428C1.90997 12.69 2.10997 13 2.40197 13H3.77397C3.91497 13 4.04397 12.923 4.11497 12.801C5.83797 9.837 8.47897 8 12.001 8C15.523 8 18.164 9.838 19.888 12.802C19.958 12.923 20.083 13 20.223 13H21.476C21.892 13 22.091 12.689 21.96 12.426C20.052 8.607 16.585 6 12.001 6ZM13.224 9.162C9.80697 8.253 6.75497 11.305 7.66397 14.722C8.06297 16.223 9.27797 17.438 10.779 17.837C14.196 18.746 17.248 15.694 16.339 12.277C15.939 10.776 14.725 9.562 13.224 9.162ZM13.224 9.162C9.80697 8.253 6.75497 11.305 7.66397 14.722C8.06297 16.223 9.27797 17.438 10.779 17.837C14.196 18.746 17.248 15.694 16.339 12.277C15.939 10.776 14.725 9.562 13.224 9.162ZM13.224 9.162C9.80697 8.253 6.75497 11.305 7.66397 14.722C8.06297 16.223 9.27797 17.438 10.779 17.837C14.196 18.746 17.248 15.694 16.339 12.277C15.939 10.776 14.725 9.562 13.224 9.162Z" fill="black"/>
</g>
<defs>
<clipPath id="clip0_3496_34944">
<rect width="24" height="24" fill="white"/>
</clipPath>
</defs>
</svg>
