<?xml version="1.0" encoding="utf-8"?>
<!--
  Copyright 2023-2025 Solace Systems. All rights reserved.

  Licensed under the Apache License, Version 2.0 (the "License");
  you may not use this file except in compliance with the License.
  You may obtain a copy of the License at

      http://www.apache.org/licenses/LICENSE-2.0

  Unless required by applicable law or agreed to in writing, software
  distributed under the License is distributed on an "AS IS" BASIS,
  WITHOUT WARRANTIES OR CONDITIONS OF ANY KIND, either express or implied.
  See the License for the specific language governing permissions and
  limitations under the License.
-->
<svg width="24" height="24" viewBox="0 0 24 24" fill="none" xmlns="http://www.w3.org/2000/svg">
<g clip-path="url(#clip0_3496_34902)">
<path d="M16.34 12.28C15.94 10.78 14.73 9.55999 13.22 9.15999C12.74 9.02999 12.26 8.97999 11.8 9.00999L16.49 13.7C16.52 13.24 16.47 12.76 16.34 12.28ZM15.82 15.85L8.62999 8.65999L7.10999 7.13999L3.69999 3.72999C3.54999 3.57999 3.28999 3.57999 3.13999 3.72999L2.28999 4.58999C2.13999 4.73999 2.13999 4.99999 2.28999 5.14999L5.37999 8.23999C3.99999 9.32999 2.86999 10.76 2.03999 12.43C1.90999 12.69 2.10999 13 2.39999 13H3.76999C3.90999 13 4.03999 12.92 4.10999 12.8C4.84999 11.54 5.75999 10.49 6.82999 9.68999L8.21999 11.08C7.56999 12.09 7.30999 13.38 7.65999 14.72C8.05999 16.22 9.27999 17.44 10.78 17.84C12.12 18.2 13.41 17.93 14.42 17.28L19.46 22.32C19.61 22.47 19.87 22.47 20.02 22.32L20.87 21.47C21.02 21.32 21.02 21.06 20.87 20.91L15.82 15.85ZM21.96 12.43C20.05 8.60999 16.59 5.99999 12 5.99999C11 5.99999 10.05 6.12999 9.15999 6.36999L10.87 8.06999C11.23 8.01999 11.61 7.99999 12 7.99999C15.52 7.99999 18.16 9.83999 19.89 12.8C19.96 12.92 20.08 13 20.22 13H21.48C21.89 13 22.09 12.69 21.96 12.43Z" fill="black"/>
</g>
<defs>
<clipPath id="clip0_3496_34902">
<rect width="24" height="24" fill="white"/>
</clipPath>
</defs>
</svg>