<?xml version="1.0" encoding="utf-8"?>
<!--
  Copyright 2023-2025 Solace Systems. All rights reserved.

  Licensed under the Apache License, Version 2.0 (the "License");
  you may not use this file except in compliance with the License.
  You may obtain a copy of the License at

      http://www.apache.org/licenses/LICENSE-2.0

  Unless required by applicable law or agreed to in writing, software
  distributed under the License is distributed on an "AS IS" BASIS,
  WITHOUT WARRANTIES OR CONDITIONS OF ANY KIND, either express or implied.
  See the License for the specific language governing permissions and
  limitations under the License.
-->
<svg width="24" height="24" viewBox="0 0 24 24" fill="none" xmlns="http://www.w3.org/2000/svg">
<path d="M4.31625 18.6914C5.19375 19.5638 6.255 20 7.5 20C8.595 20 9.55125 19.6607 10.3687 18.9822C11.1006 18.3748 11.589 17.627 11.834 16.7387C11.8845 16.5555 12.0465 16.4211 12.2366 16.4211H14.9591C15.2548 16.9687 15.834 17.3408 16.5 17.3408C17.4665 17.3408 18.25 16.5573 18.25 15.5908C18.25 14.6243 17.4665 13.8408 16.5 13.8408C15.8876 13.8408 15.3488 14.1553 15.036 14.6316H10.6C10.3791 14.6316 10.2 14.8107 10.2 15.0316V15.5263C10.2 16.2719 9.9375 16.9057 9.4125 17.4276C8.8875 17.9496 8.25 18.2105 7.5 18.2105C6.75 18.2105 6.1125 17.9496 5.5875 17.4276C5.0625 16.9057 4.8 16.2719 4.8 15.5263C4.8 14.9447 4.96875 14.4228 5.30625 13.9605C5.585 13.5787 5.9277 13.2936 6.33434 13.105C6.48964 13.033 6.6 12.8836 6.6 12.7124V11.6308C6.6 11.3782 6.36789 11.1877 6.12652 11.2625C5.30024 11.5183 4.59932 11.989 4.02375 12.6743C3.34125 13.4871 3 14.4377 3 15.5263C3 16.764 3.43875 17.8191 4.31625 18.6914Z" fill="black"/>
<path d="M14.2162 19.3849C14.8987 19.795 15.66 20 16.5 20C17.745 20 18.8062 19.5638 19.6838 18.6914C20.5612 17.8191 21 16.764 21 15.5263C21 14.2886 20.5612 13.2336 19.6838 12.3612C18.8062 11.4888 17.745 11.0526 16.5 11.0526C16.365 11.0526 16.23 11.0564 16.095 11.0638C16.0643 11.0655 16.0341 11.0678 16.0042 11.0706C15.8291 11.0873 15.6507 11.0167 15.5603 10.8658L14.0548 8.35404C14.1795 8.11329 14.25 7.83987 14.25 7.54999C14.25 6.58349 13.4665 5.79999 12.5 5.79999C11.5335 5.79999 10.75 6.58349 10.75 7.54999C10.75 8.51649 11.5335 9.29999 12.5 9.29999L12.5087 9.29997L14.7219 12.961C14.8432 13.1617 15.1095 13.2121 15.3193 13.1073C15.4321 13.0509 15.5481 13.0035 15.6675 12.9651C15.9225 12.8831 16.2 12.8421 16.5 12.8421C17.25 12.8421 17.8875 13.1031 18.4125 13.625C18.9375 14.1469 19.2 14.7807 19.2 15.5263C19.2 16.2719 18.9375 16.9057 18.4125 17.4276C17.8875 17.9496 17.25 18.2105 16.5 18.2105C16.23 18.2105 15.9675 18.1732 15.7125 18.0987C15.4997 18.0365 15.3025 17.9483 15.121 17.8341C15.0508 17.7899 14.9704 17.7632 14.8874 17.7632H13.3026C12.9942 17.7632 12.8071 18.0955 13.0009 18.3355C13.3347 18.7488 13.7399 19.0986 14.2162 19.3849Z" fill="black"/>
<path d="M5.75 15.5908C5.75 14.6405 6.50733 13.8672 7.45132 13.8414L9.1758 10.9963C9.27429 10.8338 9.2433 10.6258 9.11405 10.4865C8.78741 10.1346 8.52314 9.73049 8.32125 9.27434C8.07375 8.71513 7.95 8.11491 7.95 7.47368C7.95 6.23597 8.38875 5.18092 9.26625 4.30855C10.1437 3.43618 11.205 3 12.45 3C13.695 3 14.7563 3.43618 15.6337 4.30855C16.4152 5.08547 16.8487 6.00729 16.9342 7.07398C16.9519 7.29419 16.7709 7.47368 16.55 7.47368H15.55C15.3291 7.47368 15.1534 7.29372 15.1235 7.07483C15.0449 6.49942 14.7912 5.9986 14.3625 5.57237C13.8375 5.05044 13.2 4.78947 12.45 4.78947C11.7 4.78947 11.0625 5.05044 10.5375 5.57237C10.0125 6.0943 9.75 6.72807 9.75 7.47368C9.75 8.11491 9.945 8.67785 10.335 9.1625C10.6044 9.49729 10.9239 9.74847 11.2935 9.91603C11.5424 10.0288 11.6741 10.3326 11.5329 10.5665L9.02213 14.7266C9.16716 14.9816 9.25 15.2765 9.25 15.5908C9.25 16.5573 8.4665 17.3408 7.5 17.3408C6.5335 17.3408 5.75 16.5573 5.75 15.5908Z" fill="black"/>
</svg>