<!--
 Copyright 2023-2025 Solace Systems. All rights reserved.

 Licensed under the Apache License, Version 2.0 (the "License");
 you may not use this file except in compliance with the License.
 You may obtain a copy of the License at

     http://www.apache.org/licenses/LICENSE-2.0

 Unless required by applicable law or agreed to in writing, software
 distributed under the License is distributed on an "AS IS" BASIS,
 WITHOUT WARRANTIES OR CONDITIONS OF ANY KIND, either express or implied.
 See the License for the specific language governing permissions and
 limitations under the License.
-->
<svg width="24" height="24" viewBox="0 0 24 24" fill="none" xmlns="http://www.w3.org/2000/svg">
<g clip-path="url(#clip0_5217_35161)">
<path d="M15.42 4.96787L15.995 6.21787L16.57 4.96787L17.82 4.39287L16.57 3.81787L15.995 2.56787L15.42 3.81787L14.17 4.39287L15.42 4.96787Z" fill="black"/>
<path d="M17.4493 10.9308L18.3243 12.7808L19.1993 10.9308L21.0493 10.0558L19.1993 9.18077L18.3243 7.33077L17.4493 9.18077L15.5993 10.0558L17.4493 10.9308Z" fill="black"/>
<path d="M11.1371 8.98087L12.0121 10.8309L12.8871 8.98087L14.7371 8.10587L12.8871 7.23087L12.0121 5.38087L11.1371 7.23087L9.28711 8.10587L11.1371 8.98087Z" fill="black"/>
<path fill-rule="evenodd" clip-rule="evenodd" d="M7.13668 19.0801L14.5238 21.1941L21.9822 18.914V18.2964C21.9822 17.4888 21.7605 16.8475 21.3171 16.3724C20.8737 15.8973 20.3195 15.6598 19.6544 15.6598H16.9466C16.9466 14.9947 16.8001 14.484 16.5072 14.1277C16.2142 13.7714 15.8539 13.5141 15.4264 13.3557L9.36939 11.0754H2.02979V20.434H7.13668V19.0801ZM5.68769 19.0089H3.45489V12.5006H5.68769V19.0089ZM20.5095 17.8687L14.4288 19.7214L7.13659 17.5837V12.5006H9.13199L14.9514 14.7096C15.1256 14.7887 15.2483 14.9194 15.3196 15.1015C15.3909 15.2836 15.4265 15.4697 15.4265 15.6597C14.6506 15.6597 14.0845 15.6359 13.7282 15.5884C13.3719 15.5409 12.9958 15.4537 12.5999 15.3271L10.8659 14.757L10.3433 16.1347L12.2673 16.7285C12.6315 16.8394 13.0155 16.9264 13.4193 16.9898C13.8231 17.0532 14.2625 17.0848 14.7376 17.0848H19.6544C19.8444 17.0848 20.0107 17.1402 20.1532 17.2511C20.2957 17.362 20.4145 17.5678 20.5095 17.8687Z" fill="black"/>
</g>
<defs>
<clipPath id="clip0_5217_35161">
<rect width="24" height="24" fill="white"/>
</clipPath>
</defs>
</svg>
