<?xml version="1.0" encoding="utf-8"?>
<!-- Generator: Adobe Illustrator 25.4.1, SVG Export Plug-In . SVG Version: 6.00 Build 0)  -->
<svg version="1.1" id="Arrow_H" xmlns="http://www.w3.org/2000/svg" xmlns:xlink="http://www.w3.org/1999/xlink" x="0px" y="0px"
	 viewBox="0 0 24 24" style="enable-background:new 0 0 24 24;" xml:space="preserve">
<path d="M21.85,12.3l-5.34,5.55c-0.19,0.18-0.4,0.21-0.6,0l-0.8-0.8c-0.2-0.2-0.2-0.4,0-0.6L18.34,13H5.75l3.2,3.45
	c0.2,0.2,0.2,0.4,0,0.6l-0.8,0.8c-0.2,0.2-0.4,0.2-0.6,0l-5.4-5.55c-0.2-0.2-0.2-0.4,0-0.6l5.34-5.54c0.18-0.18,0.4-0.21,0.6,0
	l0.8,0.8c0.2,0.2,0.2,0.4,0,0.6L5.66,11h12.59l-3.2-3.45c-0.2-0.2-0.2-0.4,0-0.6l0.8-0.8c0.2-0.2,0.4-0.2,0.6,0l5.4,5.55
	C22.05,11.9,22.05,12.1,21.85,12.3z"/>
</svg>
