<?xml version="1.0" encoding="utf-8"?>
<!-- Generator: Adobe Illustrator 25.4.1, SVG Export Plug-In . SVG Version: 6.00 Build 0)  -->
<svg version="1.1" id="Layer_1" xmlns="http://www.w3.org/2000/svg" xmlns:xlink="http://www.w3.org/1999/xlink" x="0px" y="0px"
	 viewBox="0 0 24 24" style="enable-background:new 0 0 24 24;" xml:space="preserve">
<path d="M19.598,11H7.663l5.455-5.469c0.157-0.157,0.158-0.413,0-0.57l-0.836-0.843c-0.157-0.156-0.411-0.156-0.568,0.001
	l-7.596,7.596c-0.157,0.157-0.157,0.412,0,0.569l7.601,7.595c0.157,0.157,0.405,0.157,0.562,0l0.842-0.842
	c0.157-0.157,0.157-0.411,0-0.568L7.663,13h11.934C19.82,13,20,12.82,20,12.598v-1.196C20,11.18,19.82,11,19.598,11z"/>
</svg>
