<?xml version="1.0" encoding="utf-8"?>
<!-- Generator: Adobe Illustrator 25.4.1, SVG Export Plug-In . SVG Version: 6.00 Build 0)  -->
<svg version="1.1" id="Check" xmlns="http://www.w3.org/2000/svg" xmlns:xlink="http://www.w3.org/1999/xlink" x="0px" y="0px"
	 viewBox="0 0 24 24" style="enable-background:new 0 0 24 24;" xml:space="preserve">
<style type="text/css">
	.st0{fill:none;}
</style>
<path class="st0" d="M0,0h24v24H0V0z"/>
<path d="M13.695,2.14C6.854,1.015,1.015,6.854,2.14,13.695c0.681,4.143,4.023,7.485,8.166,8.166
	c6.841,1.125,12.68-4.714,11.555-11.555C21.179,6.162,17.838,2.821,13.695,2.14z M13.568,19.85
	c-5.625,1.076-10.494-3.793-9.418-9.418c0.601-3.145,3.137-5.681,6.282-6.282c5.625-1.076,10.494,3.793,9.418,9.418
	C19.248,16.713,16.713,19.248,13.568,19.85z M16.065,8.105L10,14.17l-2.078-2.069c-0.154-0.154-0.404-0.154-0.558,0.001
	l-0.846,0.846c-0.158,0.158-0.158,0.413,0,0.571l3.196,3.374c0.158,0.158,0.413,0.158,0.571,0l7.191-7.368
	c0.156-0.156,0.157-0.41,0.001-0.567l-0.844-0.85C16.477,7.949,16.222,7.948,16.065,8.105z"/>
</svg>
