<?xml version="1.0" encoding="utf-8"?>
<!-- Generator: Adobe Illustrator 25.4.1, SVG Export Plug-In . SVG Version: 6.00 Build 0)  -->
<svg version="1.1" id="Close" xmlns="http://www.w3.org/2000/svg" xmlns:xlink="http://www.w3.org/1999/xlink" x="0px" y="0px"
	 viewBox="0 0 24 24" style="enable-background:new 0 0 24 24;" xml:space="preserve">
<path d="M18.9,6.55c0.138-0.138,0.138-0.412,0-0.55L18,5.15c-0.2-0.2-0.4-0.2-0.6,0L12,10.6L6.5,5.1C6.363,4.963,6.137,4.963,6,5.1
	L5.1,6c-0.137,0.137-0.137,0.363,0,0.5l5.5,5.5l-5.499,5.449C4.962,17.586,4.962,17.812,5.1,17.95l0.9,0.9c0.2,0.2,0.4,0.2,0.6,0
	l5.5-5.45l5.3,5.45c0.2,0.2,0.4,0.2,0.6,0l0.9-0.818c0.156-0.156,0.156-0.409,0-0.565L13.4,12L18.9,6.55z"/>
</svg>
