<?xml version="1.0" encoding="utf-8"?>
<!-- Generator: Adobe Illustrator 25.4.1, SVG Export Plug-In . SVG Version: 6.00 Build 0)  -->
<svg version="1.1" id="Edit" xmlns="http://www.w3.org/2000/svg" xmlns:xlink="http://www.w3.org/1999/xlink" x="0px" y="0px"
	 viewBox="0 0 24 24" style="enable-background:new 0 0 24 24;" xml:space="preserve">
<path d="M2,17.167v4.436C2,21.822,2.178,22,2.397,22h4.437c0.106,0,0.208-0.042,0.283-0.117L18,11l-5-5L2.118,16.882
	C2.042,16.958,2,17.06,2,17.167z M6,20H4v-2l9-9.05L15.05,11L6,20z M21.882,6.993l-2.519,2.47L14.51,4.61l2.494-2.494
	c0.155-0.155,0.406-0.155,0.561,0l4.32,4.32C22.039,6.59,22.038,6.84,21.882,6.993z"/>
</svg>
