<?xml version="1.0" encoding="utf-8"?>
<!-- Generator: Adobe Illustrator 25.4.1, SVG Export Plug-In . SVG Version: 6.00 Build 0)  -->
<svg version="1.1" id="Error" xmlns="http://www.w3.org/2000/svg" xmlns:xlink="http://www.w3.org/1999/xlink" x="0px" y="0px"
	 viewBox="0 0 24 24" style="enable-background:new 0 0 24 24;" xml:space="preserve">
<path d="M11.4,18h1.2c0.2,0,0.4-0.2,0.4-0.4v-1.2c0-0.2-0.2-0.4-0.4-0.4h-1.2c-0.2,0-0.4,0.2-0.4,0.4v1.2C11,17.8,11.2,18,11.4,18z
	 M11.4,15h1.2c0.2,0,0.4-0.2,0.4-0.4V7.4C13,7.2,12.8,7,12.6,7h-1.2C11.2,7,11,7.2,11,7.4v7.2C11,14.8,11.2,15,11.4,15z M12,2
	C6.5,2,2,6.5,2,12s4.5,10,10,10s10-4.5,10-10S17.5,2,12,2z M12,4c4.4,0,8,3.6,8,8s-3.6,8-8,8s-8-3.6-8-8S7.6,4,12,4z"/>
</svg>
