<?xml version="1.0" encoding="utf-8"?>
<!-- Generator: Adobe Illustrator 25.4.1, SVG Export Plug-In . SVG Version: 6.00 Build 0)  -->
<svg version="1.1" xmlns="http://www.w3.org/2000/svg" xmlns:xlink="http://www.w3.org/1999/xlink" x="0px" y="0px"
	 viewBox="0 0 24 24" style="enable-background:new 0 0 24 24;" xml:space="preserve">
<g id="Layer_3">
	<path d="M3,12.61C3,12.81,3.2,13,3.4,13h13.95l-3.244,3.454c-0.2,0.2-0.2,0.4,0,0.6l0.8,0.8c0.208,0.208,0.419,0.181,0.6,0
		l5.344-5.544c0.2-0.2,0.2-0.4,0-0.6l-5.4-5.55c-0.2-0.2-0.4-0.2-0.6,0l-0.8,0.8c-0.2,0.2-0.2,0.4,0,0.6l3.2,3.44H3.4
		C3.2,11,3,11.21,3,11.41V12.61z"/>
</g>
<g id="Layer_2">
</g>
</svg>
