<?xml version="1.0" encoding="utf-8"?>
<!-- Generator: Adobe Illustrator 25.4.1, SVG Export Plug-In . SVG Version: 6.00 Build 0)  -->
<svg version="1.1" id="Long_Arrow_Left" xmlns="http://www.w3.org/2000/svg" xmlns:xlink="http://www.w3.org/1999/xlink" x="0px"
	 y="0px" viewBox="0 0 24 24" style="enable-background:new 0 0 24 24;" xml:space="preserve">
<path d="M21,11.4c0-0.2-0.2-0.4-0.4-0.4H6.65l3.244-3.444c0.2-0.2,0.2-0.4,0-0.6l-0.8-0.8c-0.208-0.208-0.419-0.181-0.6,0L3.15,11.7
	c-0.2,0.2-0.2,0.4,0,0.6l5.4,5.55c0.2,0.2,0.4,0.2,0.6,0l0.8-0.8c0.2-0.2,0.2-0.4,0-0.6L6.75,13H20.6c0.2,0,0.4-0.2,0.4-0.4V11.4z"
	/>
</svg>
