<?xml version="1.0" encoding="utf-8"?>
<!--
  Copyright 2023-2025 Solace Systems. All rights reserved.

  Licensed under the Apache License, Version 2.0 (the "License");
  you may not use this file except in compliance with the License.
  You may obtain a copy of the License at

      http://www.apache.org/licenses/LICENSE-2.0

  Unless required by applicable law or agreed to in writing, software
  distributed under the License is distributed on an "AS IS" BASIS,
  WITHOUT WARRANTIES OR CONDITIONS OF ANY KIND, either express or implied.
  See the License for the specific language governing permissions and
  limitations under the License.
-->
<!-- Generator: Adobe Illustrator 25.4.1, SVG Export Plug-In . SVG Version: 6.00 Build 0)  -->
<svg version="1.1" id="No_Acess_User" xmlns="http://www.w3.org/2000/svg" xmlns:xlink="http://www.w3.org/1999/xlink" x="0px"
	 y="0px" viewBox="0 0 24 24" style="enable-background:new 0 0 24 24;" xml:space="preserve">
<path d="M20.6,15H20v-1c0-1.66-1.34-3-3-3s-3,1.34-3,3v1h-0.6c-0.22,0-0.4,0.18-0.4,0.4v5.2c0,0.22,0.18,0.4,0.4,0.4h7.2
	c0.22,0,0.4-0.18,0.4-0.4v-5.2C21,15.18,20.82,15,20.6,15z M17,19c-0.55,0-1-0.45-1-1s0.45-1,1-1s1,0.45,1,1S17.55,19,17,19z M19,15
	h-4v-1c0-1.1,0.9-2,2-2s2,0.887,2,2V15z M7,11c-2.196,0-4,1.804-4,4c0,1.098,0.902,2,2,2h6v-3c0-1.155,1.044-2.499,2-3H7z M9.5,10
	c1.933,0,3.5-1.567,3.5-3.5S11.433,3,9.5,3S6,4.567,6,6.5S7.567,10,9.5,10z"/>
</svg>