<?xml version="1.0" encoding="utf-8"?>
<!--
  Copyright 2023-2025 Solace Systems. All rights reserved.

  Licensed under the Apache License, Version 2.0 (the "License");
  you may not use this file except in compliance with the License.
  You may obtain a copy of the License at

      http://www.apache.org/licenses/LICENSE-2.0

  Unless required by applicable law or agreed to in writing, software
  distributed under the License is distributed on an "AS IS" BASIS,
  WITHOUT WARRANTIES OR CONDITIONS OF ANY KIND, either express or implied.
  See the License for the specific language governing permissions and
  limitations under the License.
-->
<!-- Generator: Adobe Illustrator 25.4.1, SVG Export Plug-In . SVG Version: 6.00 Build 0)  -->
<svg version="1.1" id="Relayout_Graph" xmlns="http://www.w3.org/2000/svg" xmlns:xlink="http://www.w3.org/1999/xlink" x="0px"
	 y="0px" viewBox="0 0 24 24" style="enable-background:new 0 0 24 24;" xml:space="preserve">
<path d="M3,4.6C3,4.8,3.2,5,3.4,5h17.2C20.8,5,21,4.8,21,4.6V3.4C21,3.2,20.8,3,20.6,3H3.4C3.2,3,3,3.2,3,3.4V4.6z M5,7
	C4.4,7,4,7.4,4,8v2c0,0.6,0.4,1,1,1h2c0.6,0,1-0.4,1-1V8c0-0.6-0.4-1-1-1H5z M17,7c-0.6,0-1,0.4-1,1v2c0,0.6,0.4,1,1,1h2
	c0.6,0,1-0.4,1-1V8c0-0.6-0.4-1-1-1H17z M10,8c0-0.6,0.4-1,1-1h2c0.6,0,1,0.4,1,1v2c0,0.6-0.4,1-1,1h-2c-0.6,0-1-0.4-1-1V8z M5,13
	c-0.6,0-1,0.4-1,1v2c0,0.6,0.4,1,1,1h2c0.6,0,1-0.4,1-1v-2c0-0.6-0.4-1-1-1H5z M16,14c0-0.6,0.4-1,1-1h2c0.6,0,1,0.4,1,1v2
	c0,0.6-0.4,1-1,1h-2c-0.6,0-1-0.4-1-1V14z M11,13c-0.6,0-1,0.4-1,1v2c0,0.6,0.4,1,1,1h2c0.6,0,1-0.4,1-1v-2c0-0.6-0.4-1-1-1H11z
	 M21,20.6c0,0.2-0.2,0.4-0.4,0.4H3.4C3.2,21,3,20.8,3,20.6v-1.2C3,19.2,3.2,19,3.4,19h17.2c0.2,0,0.4,0.2,0.4,0.4V20.6z"/>
</svg>