<?xml version="1.0" encoding="utf-8"?>
<!-- Generator: Adobe Illustrator 25.4.1, SVG Export Plug-In . SVG Version: 6.00 Build 0)  -->
<svg version="1.1" id="Tag" xmlns="http://www.w3.org/2000/svg" xmlns:xlink="http://www.w3.org/1999/xlink" x="0px" y="0px"
	 viewBox="0 0 24 24" style="enable-background:new 0 0 24 24;" xml:space="preserve">
<path d="M11.157,3.986l8.844,9.012l-7.013,6.989L4,11.173L3.995,4h0.002L11.157,3.986 M3.997,2C2.894,2,2,2.894,2,3.997v7.175
	c0,0.53,0.21,1.038,0.585,1.412l9.002,8.83C11.978,21.805,12.489,22,13,22s1.022-0.195,1.412-0.585l7.003-7.003
	c0.78-0.78,0.78-2.045,0-2.825l-8.83-9.002C12.211,2.211,11.703,2,11.173,2H3.997L3.997,2z M7,5c1.105,0,2,0.895,2,2S8.105,9,7,9
	S5,8.105,5,7S5.895,5,7,5z"/>
</svg>
