<?xml version="1.0" encoding="utf-8"?>
<!-- Generator: Adobe Illustrator 25.4.1, SVG Export Plug-In . SVG Version: 6.00 Build 0)  -->
<svg version="1.1" id="Unlock" xmlns="http://www.w3.org/2000/svg" xmlns:xlink="http://www.w3.org/1999/xlink" x="0px" y="0px"
	 viewBox="0 0 24 24" style="enable-background:new 0 0 24 24;" xml:space="preserve">
<path d="M14,15.5c0,1.1-0.9,2-2,2s-2-0.9-2-2s0.9-2,2-2S14,14.4,14,15.5z M18,10h-1V8c0-2.6-2.2-5-5-5S7,5.2,7,8h2
	c0.1-1.7,1.4-3,3-3c1.7,0,3,1.2,3,3v2H6c-0.5,0-1,0.5-1,1v9c0,0.5,0.5,1,1,1h12c0.5,0,1-0.5,1-1v-9C19,10.5,18.5,10,18,10z M17,19H7
	v-7h10V19z"/>
</svg>
