<?xml version="1.0" encoding="utf-8"?>
<!-- Generator: Adobe Illustrator 25.4.1, SVG Export Plug-In . SVG Version: 6.00 Build 0)  -->
<svg version="1.1" id="Centre_on_Graph" xmlns="http://www.w3.org/2000/svg" xmlns:xlink="http://www.w3.org/1999/xlink" x="0px"
	 y="0px" viewBox="0 0 24 24" style="enable-background:new 0 0 24 24;" xml:space="preserve">
<path d="M12,10c1.105,0,2,0.895,2,2s-0.895,2-2,2s-2-0.895-2-2S10.895,10,12,10z M3,4v4h2V5h3V3H4C3.4,3,3,3.4,3,4z M5,16H3v4
	c0,0.6,0.4,1,1,1h4v-2H5V16z M19,19h-3v2h4c0.6,0,1-0.4,1-1v-4h-2V19z M20,3h-4v2h3v3h2V4C21,3.4,20.6,3,20,3z"/>
</svg>
