<?xml version="1.0" encoding="utf-8"?>
<!-- Generator: Adobe Illustrator 25.4.1, SVG Export Plug-In . SVG Version: 6.00 Build 0)  -->
<svg version="1.1" id="Chat" xmlns="http://www.w3.org/2000/svg" xmlns:xlink="http://www.w3.org/1999/xlink" x="0px" y="0px"
	 viewBox="0 0 24 24" style="enable-background:new 0 0 24 24;" xml:space="preserve">
<path d="M19,16V6H5v11l1-1H19z M3,6c0-1.1,0.9-2,2-2h14c1.1,0,2,0.9,2,2v10c0,1.1-0.9,2-2,2H7l-3.3,2.9C3.4,21.1,3,21,3,20.6V6z
	 M7,8.4C7,8.2,7.2,8,7.4,8h5.2C12.8,8,13,8.2,13,8.4v1.2c0,0.2-0.2,0.4-0.4,0.4H7.4C7.2,10,7,9.8,7,9.6V8.4z M11.4,12
	c-0.2,0-0.4,0.2-0.4,0.4v1.2c0,0.2,0.2,0.4,0.4,0.4h5.2c0.2,0,0.4-0.2,0.4-0.4v-1.2c0-0.2-0.2-0.4-0.4-0.4H11.4z"/>
</svg>
