<?xml version="1.0" encoding="utf-8"?>
<!-- Generator: Adobe Illustrator 25.4.1, SVG Export Plug-In . SVG Version: 6.00 Build 0)  -->
<svg version="1.1" id="Collapse" xmlns="http://www.w3.org/2000/svg" xmlns:xlink="http://www.w3.org/1999/xlink" x="0px" y="0px"
	 viewBox="0 0 24 24" style="enable-background:new 0 0 24 24;" xml:space="preserve">
<path d="M19.883,11.697l-5.58-5.58c-0.157-0.156-0.41-0.156-0.566,0l-0.845,0.845c-0.156,0.156-0.156,0.409,0,0.565l4.443,4.453
	l-4.487,4.505c-0.156,0.156-0.156,0.409,0,0.565l0.85,0.845c0.156,0.156,0.404,0.156,0.56,0l5.625-5.632
	C20.039,12.107,20.039,11.854,19.883,11.697z M6.303,6.117c-0.157-0.156-0.41-0.156-0.566,0L4.892,6.962
	c-0.156,0.156-0.156,0.409,0,0.565l4.443,4.453l-4.484,4.502c-0.156,0.156-0.156,0.409,0,0.565l0.85,0.845
	c0.156,0.156,0.404,0.156,0.56,0l5.622-5.629c0.156-0.156,0.156-0.409,0-0.566L6.303,6.117z"/>
</svg>
