<?xml version="1.0" encoding="utf-8"?>
<!-- Generator: Adobe Illustrator 25.4.1, SVG Export Plug-In . SVG Version: 6.00 Build 0)  -->
<svg version="1.1" id="Error_Circle" xmlns="http://www.w3.org/2000/svg" xmlns:xlink="http://www.w3.org/1999/xlink" x="0px"
	 y="0px" viewBox="0 0 24 24" style="enable-background:new 0 0 24 24;" xml:space="preserve">
<path d="M15.472,7.118L12,10.59L8.528,7.118c-0.157-0.157-0.41-0.157-0.567,0L7.118,7.962c-0.157,0.157-0.157,0.41,0,0.567L10.59,12
	l-3.471,3.471c-0.157,0.157-0.157,0.41,0,0.567l0.843,0.843c0.157,0.157,0.41,0.157,0.567,0L12,13.41l3.472,3.472
	c0.157,0.157,0.41,0.157,0.567,0l0.843-0.843c0.157-0.157,0.157-0.41,0-0.567L13.41,12l3.472-3.472c0.157-0.157,0.157-0.41,0-0.567
	l-0.843-0.843C15.882,6.962,15.628,6.962,15.472,7.118z M12,2C6.5,2,2,6.5,2,12s4.5,10,10,10s10-4.5,10-10S17.5,2,12,2z M12,4
	c4.4,0,8,3.6,8,8s-3.6,8-8,8s-8-3.6-8-8S7.6,4,12,4z"/>
</svg>
