<?xml version="1.0" encoding="utf-8"?>
<!-- Generator: Adobe Illustrator 25.4.1, SVG Export Plug-In . SVG Version: 6.00 Build 0)  -->
<svg version="1.1" id="Help" xmlns="http://www.w3.org/2000/svg" xmlns:xlink="http://www.w3.org/1999/xlink" x="0px" y="0px"
	 viewBox="0 0 24 24" style="enable-background:new 0 0 24 24;" xml:space="preserve">
<path d="M11,17.6c0,0.2,0.2,0.4,0.4,0.4h1.2c0.2,0,0.4-0.2,0.4-0.4v-1.2c0-0.2-0.2-0.4-0.4-0.4h-1.2c-0.2,0-0.4,0.2-0.4,0.4V17.6z
	 M12,2C6.5,2,2,6.5,2,12s4.5,10,10,10s10-4.5,10-10S17.5,2,12,2z M12,20c-4.4,0-8-3.6-8-8s3.6-8,8-8s8,3.6,8,8S16.4,20,12,20z M12,6
	C9.9,6,8.2,7.6,8,9.6C8,9.8,8.2,10,8.4,10h1.2C9.8,10,10,9.8,10,9.6C10.2,8.7,11,8,12,8c1.1,0,2,0.9,2,2c0,1.9-2.7,1.8-3,4.6
	c0,0.2,0.2,0.4,0.4,0.4h1.2c0.2,0,0.4-0.2,0.4-0.4c0.3-1.9,3-2.3,3-4.6C16,7.8,14.2,6,12,6z"/>
</svg>
