<?xml version="1.0" encoding="utf-8"?>
<!-- Generator: Adobe Illustrator 25.4.1, SVG Export Plug-In . SVG Version: 6.00 Build 0)  -->
<svg version="1.1" id="Hide" xmlns="http://www.w3.org/2000/svg" xmlns:xlink="http://www.w3.org/1999/xlink" x="0px" y="0px"
	 viewBox="0 0 24 24" style="enable-background:new 0 0 24 24;" xml:space="preserve">
<path d="M16.34,12.28c-0.4-1.5-1.61-2.72-3.12-3.12c-0.48-0.13-0.96-0.18-1.42-0.15l4.69,4.69C16.52,13.24,16.47,12.76,16.34,12.28z
	 M15.82,15.85L8.63,8.66L7.11,7.14L3.7,3.73c-0.15-0.15-0.41-0.15-0.56,0L2.29,4.59C2.14,4.74,2.14,5,2.29,5.15l3.09,3.09
	C4,9.33,2.87,10.76,2.04,12.43C1.91,12.69,2.11,13,2.4,13h1.37c0.14,0,0.27-0.08,0.34-0.2c0.74-1.26,1.65-2.31,2.72-3.11l1.39,1.39
	c-0.65,1.01-0.91,2.3-0.56,3.64c0.4,1.5,1.62,2.72,3.12,3.12c1.34,0.36,2.63,0.09,3.64-0.56l5.04,5.04c0.15,0.15,0.41,0.15,0.56,0
	l0.85-0.85c0.15-0.15,0.15-0.41,0-0.56L15.82,15.85z M21.96,12.43C20.05,8.61,16.59,6,12,6c-1,0-1.95,0.13-2.84,0.37l1.71,1.7
	C11.23,8.02,11.61,8,12,8c3.52,0,6.16,1.84,7.89,4.8c0.07,0.12,0.19,0.2,0.33,0.2h1.26C21.89,13,22.09,12.69,21.96,12.43z"/>
</svg>
