<?xml version="1.0" encoding="utf-8"?>
<!-- Generator: Adobe Illustrator 25.4.1, SVG Export Plug-In . SVG Version: 6.00 Build 0)  -->
<svg version="1.1" id="Import" xmlns="http://www.w3.org/2000/svg" xmlns:xlink="http://www.w3.org/1999/xlink" x="0px" y="0px"
	 viewBox="0 0 24 24" style="enable-background:new 0 0 24 24;" xml:space="preserve">
<path d="M19,14v5H5v-5H3v5c0,1.1,0.9,2,2,2h14c1.1,0,2-0.9,2-2v-5H19z M11.717,16.884c0.155,0.154,0.409,0.154,0.565-0.002
	l4.359-4.359c0.156-0.156,0.156-0.41,0-0.566l-0.845-0.845c-0.156-0.156-0.409-0.156-0.565-0.001L13,13.335V3.399
	C13,3.178,12.82,3,12.599,3h-1.2C11.178,3,11,3.178,11,3.399v9.936l-2.231-2.222c-0.156-0.156-0.409-0.155-0.565,0.001l-0.845,0.845
	c-0.156,0.156-0.156,0.409,0,0.566L11.717,16.884z"/>
</svg>
