<?xml version="1.0" encoding="utf-8"?>
<!-- Generator: Adobe Illustrator 25.4.1, SVG Export Plug-In . SVG Version: 6.00 Build 0)  -->
<svg version="1.1" id="Layer_2_00000097494963423562720650000009558963507890632849_"
	 xmlns="http://www.w3.org/2000/svg" xmlns:xlink="http://www.w3.org/1999/xlink" x="0px" y="0px" viewBox="0 0 24 24"
	 style="enable-background:new 0 0 24 24;" xml:space="preserve">
<path d="M12,2C8.41,2,5.5,4.9,5.5,8.477c0,0.363,0.03,0.72,0.088,1.067L5.589,9.55c0.17,1.018,0.578,1.955,1.166,2.754
	c0.12,0.163,0.26,0.345,0.37,0.492l4.581,5.073c0.158,0.175,0.429,0.175,0.587,0l4.581-5.073l0.325-0.432
	c0.611-0.811,1.036-1.768,1.21-2.811c0.059-0.35,0.089-0.709,0.089-1.076C18.5,4.9,15.59,2,12,2z M12,12.796
	c-2.393,0-4.333-1.933-4.333-4.318S9.607,4.16,12,4.16s4.333,1.933,4.333,4.318C16.333,10.862,14.393,12.796,12,12.796z M16.596,20
	H7.403C7.181,20,7,20.181,7,20.404v1.193C7,21.819,7.181,22,7.404,22h9.193C16.819,22,17,21.819,17,21.596v-1.193
	C17,20.181,16.819,20,16.596,20z"/>
</svg>
