<?xml version="1.0" encoding="utf-8"?>
<!-- Generator: Adobe Illustrator 25.4.1, SVG Export Plug-In . SVG Version: 6.00 Build 0)  -->
<svg version="1.1" id="Lock" xmlns="http://www.w3.org/2000/svg" xmlns:xlink="http://www.w3.org/1999/xlink" x="0px" y="0px"
	 viewBox="0 0 24 24" style="enable-background:new 0 0 24 24;" xml:space="preserve">
<style type="text/css">
	.st0{fill-rule:evenodd;clip-rule:evenodd;}
</style>
<path class="st0" d="M7,10V8c0-2.7,2.2-5,5-5s5,2.3,5,5v2h1c0.6,0,1,0.4,1,1v9c0,0.6-0.4,1-1,1H6c-0.6,0-1-0.4-1-1v-9
	c0-0.6,0.4-1,1-1H7z M15,10V8c0-1.8-1.3-3-3-3S9,6.2,9,8v2H15z M12,17.5c1.1,0,2-0.9,2-2s-0.9-2-2-2s-2,0.9-2,2S10.9,17.5,12,17.5z"
	/>
</svg>
