<?xml version="1.0" encoding="utf-8"?>
<!-- Generator: Adobe Illustrator 25.4.1, SVG Export Plug-In . SVG Version: 6.00 Build 0)  -->
<svg version="1.1" id="Plus" xmlns="http://www.w3.org/2000/svg" xmlns:xlink="http://www.w3.org/1999/xlink" x="0px" y="0px"
	 viewBox="0 0 24 24" style="enable-background:new 0 0 24 24;" xml:space="preserve">
<path d="M18.601,13H13v5.601C13,18.821,12.821,19,12.601,19h-1.202C11.179,19,11,18.821,11,18.601V13H5.399
	C5.179,13,5,12.821,5,12.601v-1.202C5,11.179,5.179,11,5.399,11H11V5.399C11,5.179,11.179,5,11.399,5h1.202
	C12.821,5,13,5.179,13,5.399V11h5.601C18.821,11,19,11.179,19,11.399v1.202C19,12.821,18.821,13,18.601,13z"/>
</svg>
