<?xml version="1.0" encoding="utf-8"?>
<!-- Generator: Adobe Illustrator 25.4.1, SVG Export Plug-In . SVG Version: 6.00 Build 0)  -->
<svg version="1.1" id="Show" xmlns="http://www.w3.org/2000/svg" xmlns:xlink="http://www.w3.org/1999/xlink" x="0px" y="0px"
	 viewBox="0 0 24 24" style="enable-background:new 0 0 24 24;" xml:space="preserve">
<path d="M13.224,9.162c-3.417-0.909-6.469,2.143-5.56,5.56c0.399,1.501,1.614,2.716,3.115,3.115c3.417,0.909,6.469-2.143,5.56-5.56
	C15.939,10.776,14.725,9.562,13.224,9.162z M13.224,9.162c-3.417-0.909-6.469,2.143-5.56,5.56c0.399,1.501,1.614,2.716,3.115,3.115
	c3.417,0.909,6.469-2.143,5.56-5.56C15.939,10.776,14.725,9.562,13.224,9.162z M12.001,6c-4.585,0-8.052,2.608-9.96,6.428
	C1.91,12.69,2.11,13,2.402,13h1.372c0.141,0,0.27-0.077,0.341-0.199C5.838,9.837,8.479,8,12.001,8s6.163,1.838,7.887,4.802
	C19.958,12.923,20.083,13,20.223,13h1.253c0.416,0,0.615-0.311,0.484-0.574C20.052,8.607,16.585,6,12.001,6z M13.224,9.162
	c-3.417-0.909-6.469,2.143-5.56,5.56c0.399,1.501,1.614,2.716,3.115,3.115c3.417,0.909,6.469-2.143,5.56-5.56
	C15.939,10.776,14.725,9.562,13.224,9.162z M13.224,9.162c-3.417-0.909-6.469,2.143-5.56,5.56c0.399,1.501,1.614,2.716,3.115,3.115
	c3.417,0.909,6.469-2.143,5.56-5.56C15.939,10.776,14.725,9.562,13.224,9.162z M13.224,9.162c-3.417-0.909-6.469,2.143-5.56,5.56
	c0.399,1.501,1.614,2.716,3.115,3.115c3.417,0.909,6.469-2.143,5.56-5.56C15.939,10.776,14.725,9.562,13.224,9.162z"/>
</svg>
