<?xml version="1.0" encoding="utf-8"?>
<!-- Generator: Adobe Illustrator 25.4.1, SVG Export Plug-In . SVG Version: 6.00 Build 0)  -->
<svg version="1.1" id="Spinner" xmlns="http://www.w3.org/2000/svg" xmlns:xlink="http://www.w3.org/1999/xlink" x="0px" y="0px"
	 viewBox="0 0 24 24" style="enable-background:new 0 0 24 24;" xml:space="preserve">
<path d="M15,4.5C15,5.881,13.881,7,12.5,7S10,5.881,10,4.5S11.119,2,12.5,2S15,3.119,15,4.5z M4,11c-1.105,0-2,0.895-2,2
	s0.895,2,2,2s2-0.895,2-2S5.105,11,4,11z M12.5,19c-0.828,0-1.5,0.672-1.5,1.5c0,0.828,0.672,1.5,1.5,1.5s1.5-0.672,1.5-1.5
	C14,19.672,13.328,19,12.5,19z M20.5,12.25c-0.552,0-1,0.448-1,1s0.448,1,1,1s1-0.448,1-1S21.052,12.25,20.5,12.25z M6.25,5
	C5.007,5,4,6.007,4,7.25S5.007,9.5,6.25,9.5S8.5,8.493,8.5,7.25S7.493,5,6.25,5z M6.75,16.5C5.783,16.5,5,17.284,5,18.25
	S5.783,20,6.75,20s1.75-0.784,1.75-1.75S7.716,16.5,6.75,16.5z M18.25,17C17.56,17,17,17.56,17,18.25s0.56,1.25,1.25,1.25
	s1.25-0.56,1.25-1.25S18.94,17,18.25,17z M19.25,8c-0.414,0-0.75,0.336-0.75,0.75c0,0.414,0.336,0.75,0.75,0.75S20,9.164,20,8.75
	C20,8.336,19.664,8,19.25,8z"/>
</svg>
