<?xml version="1.0" encoding="utf-8"?>
<!-- Generator: Adobe Illustrator 25.4.1, SVG Export Plug-In . SVG Version: 6.00 Build 0)  -->
<svg version="1.1" id="Layer_1" xmlns="http://www.w3.org/2000/svg" xmlns:xlink="http://www.w3.org/1999/xlink" x="0px" y="0px"
	 viewBox="0 0 24 24" style="enable-background:new 0 0 24 24;" xml:space="preserve">
<style type="text/css">
	.st0{fill-rule:evenodd;clip-rule:evenodd;}
</style>
<path class="st0" d="M17,8h3c1.1,0,2,0.9,2,2v10H2V10c0-1.1,0.9-2,2-2h3V6c0-1.1,0.9-2,2-2h6c1.1,0,2,0.9,2,2V8z M15,6H9v2h6V6z
	 M4,18h16v-3h-5v1H9v-1H4V18z M9,13H4v-3h16v3h-5v-1H9V13z"/>
</svg>
