<?xml version="1.0" encoding="utf-8"?>
<!-- Generator: Adobe Illustrator 25.4.1, SVG Export Plug-In . SVG Version: 6.00 Build 0)  -->
<svg version="1.1" id="Undo" xmlns="http://www.w3.org/2000/svg" xmlns:xlink="http://www.w3.org/1999/xlink" x="0px" y="0px"
	 viewBox="0 0 24 24" style="enable-background:new 0 0 24 24;" xml:space="preserve">
<path d="M12.5,8c-2.65,0-5.05,0.858-6.9,2.468L3.368,8.236C2.863,7.732,2,8.089,2,8.803v6.396C2,15.641,2.359,16,2.801,16h6.396
	c0.714,0,1.071-0.863,0.567-1.368L7.511,12.38c1.39-1.16,3.029-1.88,4.989-1.88c3.405,0,6.32,2.237,7.472,5.239
	c0.076,0.199,0.288,0.308,0.491,0.241l1.612-0.531c0.216-0.071,0.336-0.311,0.256-0.523C20.831,10.941,17.003,8,12.5,8z"/>
</svg>
