<?xml version="1.0" encoding="utf-8"?>
<!-- Generator: Adobe Illustrator 25.4.1, SVG Export Plug-In . SVG Version: 6.00 Build 0)  -->
<svg version="1.1" id="Viewer" xmlns="http://www.w3.org/2000/svg" xmlns:xlink="http://www.w3.org/1999/xlink" x="0px" y="0px"
	 viewBox="0 0 24 24" style="enable-background:new 0 0 24 24;" xml:space="preserve">
<path d="M3,15c0,1.1,0.9,2,2,2h6v-6H7C4.8,11,3,12.8,3,15z M9.5,3C11.433,3,13,4.567,13,6.5S11.433,10,9.5,10S6,8.433,6,6.5
	S7.567,3,9.5,3z M19,11h-4c-1.11,0-2,0.989-2,2.222v5.556C13,20.011,13.89,21,15,21h4c1.11,0,2-0.989,2-2.222v-5.556
	C21,11.989,20.11,11,19,11z M19,17h-4v-1h4V17z M19,15h-4v-1h4V15z"/>
</svg>
