<?xml version="1.0" encoding="utf-8"?>
<!-- Generator: Adobe Illustrator 25.4.1, SVG Export Plug-In . SVG Version: 6.00 Build 0)  -->
<svg version="1.1" id="Warning" xmlns="http://www.w3.org/2000/svg" xmlns:xlink="http://www.w3.org/1999/xlink" x="0px" y="0px"
	 viewBox="0 0 24 24" style="enable-background:new 0 0 24 24;" xml:space="preserve">
<path id="Layer_1_00000052813694870293623950000010576701807270621096_" d="M12.6,16h-1.2c-0.2,0-0.4,0.2-0.4,0.4v1.27
	c0,0.21,0.2,0.33,0.4,0.33h1.2c0.2,0,0.4-0.12,0.4-0.33V16.4C13,16.2,12.8,16,12.6,16z M12.6,10h-1.2c-0.2,0-0.4,0.2-0.4,0.4v4.2
	c0,0.2,0.2,0.4,0.4,0.4h1.2c0.2,0,0.4-0.2,0.4-0.4v-4.2C13,10.2,12.8,10,12.6,10z M21.9,19.6l-9-17.08c-0.4-0.7-1.4-0.7-1.8,0
	l-9,17.08C1.8,20.2,2.3,21,3,21h18C21.7,21,22.2,20.2,21.9,19.6z M5.2,19L12,5.43L18.8,19H5.2z M12.6,16h-1.2
	c-0.2,0-0.4,0.2-0.4,0.4v1.27c0,0.21,0.2,0.33,0.4,0.33h1.2c0.2,0,0.4-0.12,0.4-0.33V16.4C13,16.2,12.8,16,12.6,16z M11,10.4v4.2
	c0,0.2,0.2,0.4,0.4,0.4h1.2c0.2,0,0.4-0.2,0.4-0.4v-4.2c0-0.2-0.2-0.4-0.4-0.4h-1.2C11.2,10,11,10.2,11,10.4z M12.6,16h-1.2
	c-0.2,0-0.4,0.2-0.4,0.4v1.27c0,0.21,0.2,0.33,0.4,0.33h1.2c0.2,0,0.4-0.12,0.4-0.33V16.4C13,16.2,12.8,16,12.6,16z M12.6,10h-1.2
	c-0.2,0-0.4,0.2-0.4,0.4v4.2c0,0.2,0.2,0.4,0.4,0.4h1.2c0.2,0,0.4-0.2,0.4-0.4v-4.2C13,10.2,12.8,10,12.6,10z"/>
</svg>
