<svg width="130" height="130" viewBox="0 0 130 130" fill="none" xmlns="http://www.w3.org/2000/svg">
<path opacity="0.1" d="M120 64.5C120 94.5995 95.5995 119 65.5 119C35.4005 119 11 94.5995 11 64.5C11 34.4005 35.4005 10 65.5 10C95.5995 10 120 34.4005 120 64.5Z" fill="#033D58"/>
<path fill-rule="evenodd" clip-rule="evenodd" d="M63.2088 40.739C63.9534 40.6685 64.716 40.6328 65.4947 40.6328C66.2735 40.6328 67.0361 40.6685 67.7806 40.739C68.0555 40.765 68.2573 41.009 68.2313 41.2839C68.2052 41.5588 67.9613 41.7606 67.6864 41.7345C66.9741 41.6671 66.243 41.6328 65.4947 41.6328C64.7465 41.6328 64.0154 41.6671 63.3031 41.7345C63.0282 41.7606 62.7842 41.5588 62.7582 41.2839C62.7321 41.009 62.9339 40.765 63.2088 40.739ZM71.6389 41.9746C71.7246 41.7121 72.0068 41.5688 72.2693 41.6544C73.776 42.1462 75.1671 42.811 76.4188 43.6389C76.6491 43.7913 76.7123 44.1015 76.5599 44.3318C76.4076 44.5621 76.0974 44.6253 75.8671 44.473C74.6946 43.6974 73.3855 43.0706 71.9591 42.6051C71.6966 42.5194 71.5532 42.2371 71.6389 41.9746ZM59.3505 41.9746C59.4362 42.2371 59.2929 42.5194 59.0304 42.6051C57.604 43.0706 56.2948 43.6974 55.1224 44.473C54.892 44.6253 54.5818 44.5621 54.4295 44.3318C54.2771 44.1015 54.3404 43.7913 54.5707 43.6389C55.8223 42.811 57.2134 42.1462 58.7201 41.6544C58.9826 41.5688 59.2649 41.7121 59.3505 41.9746ZM79.1374 46.6616C79.3521 46.4879 79.6669 46.5211 79.8407 46.7357C80.7956 47.9154 81.5755 49.2502 82.1571 50.726C82.2583 50.983 82.1321 51.2733 81.8752 51.3745C81.6183 51.4758 81.3279 51.3496 81.2267 51.0927C80.6819 49.71 79.9531 48.4641 79.0634 47.3649C78.8897 47.1502 78.9228 46.8354 79.1374 46.6616ZM51.852 46.6616C52.0666 46.8354 52.0998 47.1502 51.926 47.3649C51.0363 48.4641 50.3075 49.71 49.7627 51.0927C49.6615 51.3496 49.3711 51.4758 49.1142 51.3745C48.8573 51.2733 48.7311 50.983 48.8324 50.726C49.4139 49.2502 50.1938 47.9154 51.1488 46.7357C51.3225 46.5211 51.6373 46.4879 51.852 46.6616ZM82.6932 54.7519C82.9677 54.7213 83.215 54.9188 83.2457 55.1933C83.3287 55.935 83.371 56.6999 83.371 57.4869C83.371 58.3259 83.3157 59.1596 83.2104 59.9819C83.1754 60.2558 82.9249 60.4494 82.651 60.4144C82.3771 60.3793 82.1834 60.1288 82.2185 59.8549C82.3186 59.0733 82.371 58.282 82.371 57.4869C82.371 56.7358 82.3306 56.008 82.2519 55.3044C82.2212 55.03 82.4188 54.7826 82.6932 54.7519ZM48.2962 54.7519C48.5706 54.7826 48.7682 55.03 48.7375 55.3044C48.6588 56.008 48.6185 56.7358 48.6185 57.4869C48.6185 58.2824 48.6709 59.073 48.771 59.8533C48.8062 60.1272 48.6127 60.3777 48.3388 60.4129C48.0649 60.448 47.8143 60.2545 47.7792 59.9806C47.6738 59.1595 47.6185 58.3263 47.6185 57.4869C47.6185 56.6999 47.6608 55.935 47.7437 55.1933C47.7744 54.9188 48.0218 54.7213 48.2962 54.7519ZM49.2918 64.1621C49.5495 64.063 49.8388 64.1916 49.9379 64.4494C50.5213 65.9668 51.2745 67.3827 52.1493 68.6438C52.3067 68.8707 52.2503 69.1823 52.0234 69.3397C51.7966 69.4971 51.485 69.4407 51.3276 69.2138C50.4068 67.8863 49.6162 66.3994 49.0045 64.8082C48.9054 64.5505 49.034 64.2612 49.2918 64.1621ZM81.7014 64.1676C81.9593 64.2662 82.0885 64.5552 81.9899 64.8131C81.3806 66.4073 80.5931 67.8979 79.6754 69.2267C79.5185 69.4539 79.207 69.5109 78.9798 69.354C78.7526 69.197 78.6956 68.8856 78.8525 68.6584C79.7241 67.3965 80.4745 65.9769 81.0558 64.4561C81.1544 64.1982 81.4434 64.069 81.7014 64.1676ZM54.6364 72.1909C54.809 71.9753 55.1237 71.9405 55.3392 72.1131C55.9711 72.619 56.6245 73.0503 57.2893 73.398C57.7812 73.6552 58.3884 73.9388 59.1118 74.2417C59.3665 74.3484 59.4865 74.6414 59.3798 74.8961C59.2731 75.1508 58.9802 75.2708 58.7255 75.1641C57.9822 74.8528 57.3484 74.5573 56.8259 74.2841C56.0989 73.9039 55.3918 73.4362 54.7143 72.8937C54.4987 72.7211 54.4638 72.4065 54.6364 72.1909ZM76.3654 72.2075C76.5371 72.4237 76.5011 72.7382 76.2848 72.91C75.6029 73.4515 74.8908 73.9152 74.158 74.2869C73.6271 74.5563 72.9861 74.8475 72.2371 75.1544C71.9816 75.2591 71.6895 75.1368 71.5848 74.8813C71.4802 74.6257 71.6024 74.3337 71.858 74.229C72.5879 73.93 73.2037 73.6498 73.7056 73.3951C74.3726 73.0567 75.0285 72.6307 75.6629 72.1269C75.8791 71.9551 76.1937 71.9912 76.3654 72.2075ZM68.625 75.9411C68.7093 76.204 68.5645 76.4855 68.3015 76.5699C67.9093 76.6956 67.5024 76.8224 67.0806 76.9499C67.1885 77.0717 67.2348 77.2437 67.1891 77.4125C67.1168 77.679 66.8422 77.8365 66.5757 77.7643C66.1744 77.6555 65.7835 77.5468 65.4031 77.4383C65.0467 77.5382 64.6815 77.6384 64.3074 77.7386C64.0407 77.81 63.7665 77.6517 63.6951 77.385C63.6539 77.2314 63.689 77.0753 63.7771 76.9569C63.377 76.834 62.9907 76.7117 62.6181 76.5903C62.3555 76.5048 62.212 76.2226 62.2975 75.9601C62.383 75.6975 62.6652 75.554 62.9277 75.6395C63.6937 75.8889 64.5196 76.1428 65.4054 76.3986C66.3325 76.1354 67.1963 75.8741 67.9962 75.6176C68.2592 75.5333 68.5407 75.6781 68.625 75.9411ZM60.6385 78.1402C60.7 78.4094 60.5315 78.6775 60.2623 78.7389C58.9846 79.0306 57.6304 79.3184 56.2001 79.5984C55.9291 79.6515 55.6664 79.4748 55.6133 79.2038C55.5603 78.9328 55.737 78.6701 56.008 78.617C57.4283 78.339 58.7724 78.0534 60.0398 77.764C60.309 77.7026 60.577 77.871 60.6385 78.1402ZM70.2083 78.1662C70.2702 77.8971 70.5386 77.7292 70.8077 77.7912C72.0634 78.0804 73.3962 78.3658 74.8057 78.6435C75.0766 78.6969 75.253 78.9598 75.1996 79.2307C75.1462 79.5017 74.8833 79.678 74.6124 79.6246C73.1927 79.3449 71.8495 79.0573 70.5833 78.7656C70.3142 78.7037 70.1463 78.4353 70.2083 78.1662ZM52.5185 79.7648C52.5641 80.0371 52.3803 80.2949 52.108 80.3405C50.792 80.561 49.4227 80.7735 48.0005 80.9759C47.7272 81.0148 47.474 80.8247 47.4351 80.5514C47.3962 80.278 47.5863 80.0248 47.8597 79.9859C49.2738 79.7847 50.6349 79.5733 51.9428 79.3542C52.2151 79.3086 52.4729 79.4924 52.5185 79.7648ZM78.2604 79.7885C78.3062 79.5162 78.5641 79.3326 78.8364 79.3784C80.1322 79.5964 81.4815 79.8066 82.8842 80.0067C83.1576 80.0456 83.3476 80.2989 83.3086 80.5722C83.2696 80.8456 83.0164 81.0356 82.743 80.9966C81.3322 80.7954 79.9746 80.5839 78.6705 80.3645C78.3982 80.3187 78.2146 80.0608 78.2604 79.7885ZM44.32 80.9582C44.3527 81.2324 44.1569 81.4812 43.8827 81.5139C42.5473 81.6732 41.1712 81.823 39.7547 81.9618C39.4799 81.9888 39.2353 81.7878 39.2084 81.513C39.1814 81.2382 39.3824 80.9935 39.6572 80.9666C41.0667 80.8285 42.4358 80.6794 43.7643 80.5209C44.0385 80.4882 44.2873 80.684 44.32 80.9582ZM86.388 80.975C86.4208 80.7008 86.6696 80.505 86.9438 80.5378C88.2599 80.6949 89.6169 80.8426 91.0147 80.9795C91.2895 81.0064 91.4905 81.251 91.4636 81.5258C91.4367 81.8006 91.192 82.0016 90.9172 81.9747C89.5125 81.8372 88.1485 81.6887 86.8252 81.5307C86.551 81.498 86.3553 81.2492 86.388 80.975ZM36.074 81.7885C36.0955 82.0638 35.8897 82.3044 35.6144 82.3259C34.2661 82.4311 32.885 82.5261 31.4713 82.6099C31.1956 82.6262 30.9589 82.416 30.9426 82.1403C30.9262 81.8647 31.1365 81.628 31.4121 81.6116C32.8197 81.5283 34.1945 81.4336 35.5366 81.3289C35.8119 81.3074 36.0525 81.5132 36.074 81.7885ZM94.5618 81.7976C94.5833 81.5223 94.8238 81.3165 95.0991 81.338C96.4298 81.4416 97.7936 81.5351 99.1903 81.6175C99.466 81.6338 99.6763 81.8704 99.66 82.1461C99.6438 82.4218 99.4071 82.632 99.1314 82.6158C97.7285 82.533 96.3585 82.439 95.0215 82.3349C94.7462 82.3135 94.5404 82.0729 94.5618 81.7976ZM27.8065 82.2978C27.8179 82.5737 27.6035 82.8066 27.3276 82.818C25.9705 82.8742 24.5859 82.9199 23.174 82.9542C22.8979 82.9609 22.6687 82.7425 22.662 82.4665C22.6553 82.1904 22.8736 81.9612 23.1497 81.9545C24.556 81.9203 25.9349 81.8748 27.2863 81.8189C27.5622 81.8075 27.7951 82.0219 27.8065 82.2978ZM102.759 82.301C102.771 82.0251 103.004 81.8106 103.28 81.822C104.619 81.8771 105.987 81.922 107.382 81.9557C107.658 81.9623 107.876 82.1915 107.87 82.4676C107.863 82.7436 107.634 82.962 107.358 82.9554C105.957 82.9216 104.584 82.8765 103.238 82.8211C102.963 82.8098 102.748 82.5769 102.759 82.301ZM19.5226 82.5169C19.5248 82.7931 19.3028 83.0187 19.0266 83.0209C18.3383 83.0264 17.6438 83.0292 16.9434 83.0292C16.6673 83.0292 16.4434 82.8053 16.4434 82.5292C16.4434 82.253 16.6673 82.0292 16.9434 82.0292C17.6412 82.0292 18.3329 82.0264 19.0187 82.0209C19.2948 82.0187 19.5204 82.2408 19.5226 82.5169ZM110.973 82.5171C110.975 82.241 111.201 82.0189 111.477 82.0211C112.157 82.0264 112.843 82.0292 113.535 82.0292C113.811 82.0292 114.035 82.253 114.035 82.5292C114.035 82.8053 113.811 83.0292 113.535 83.0292C112.84 83.0292 112.152 83.0264 111.469 83.021C111.193 83.0188 110.971 82.7932 110.973 82.5171Z" fill="#969696"/>
<path d="M83.2494 47.2951C82.4501 50.2778 79.3842 52.0479 76.4015 51.2487C73.4187 50.4495 71.6486 47.3836 72.4478 44.4008C73.247 41.418 76.313 39.6479 79.2957 40.4471C82.2785 41.2464 84.0486 44.3123 83.2494 47.2951Z" fill="#305D74"/>
<path fill-rule="evenodd" clip-rule="evenodd" d="M76.9191 49.3169C78.8349 49.8302 80.8042 48.6933 81.3175 46.7774C81.8309 44.8616 80.6939 42.8923 78.7781 42.379C76.8623 41.8656 74.893 43.0026 74.3797 44.9184C73.8663 46.8343 75.0033 48.8035 76.9191 49.3169ZM76.4015 51.2487C79.3842 52.0479 82.4501 50.2778 83.2494 47.2951C84.0486 44.3123 82.2785 41.2464 79.2957 40.4471C76.313 39.6479 73.247 41.418 72.4478 44.4008C71.6486 47.3836 73.4187 50.4495 76.4015 51.2487Z" fill="#305D74"/>
<path d="M24.8017 83.2627C24.8017 87.6559 21.2403 91.2173 16.8472 91.2173C12.454 91.2173 8.89258 87.6559 8.89258 83.2627C8.89258 78.8695 12.454 75.3081 16.8472 75.3081C21.2403 75.3081 24.8017 78.8695 24.8017 83.2627Z" fill="white"/>
<path fill-rule="evenodd" clip-rule="evenodd" d="M16.8472 89.2173C20.1358 89.2173 22.8017 86.5513 22.8017 83.2627C22.8017 79.9741 20.1358 77.3081 16.8472 77.3081C13.5585 77.3081 10.8926 79.9741 10.8926 83.2627C10.8926 86.5513 13.5585 89.2173 16.8472 89.2173ZM16.8472 91.2173C21.2403 91.2173 24.8017 87.6559 24.8017 83.2627C24.8017 78.8695 21.2403 75.3081 16.8472 75.3081C12.454 75.3081 8.89258 78.8695 8.89258 83.2627C8.89258 87.6559 12.454 91.2173 16.8472 91.2173Z" fill="#969696"/>
<path d="M16.6364 83.8528L5.70926 64.9265C0.852753 56.5147 6.92338 46.0001 16.6364 46.0001C26.3494 46.0001 32.42 56.5147 27.5635 64.9264L16.6364 83.8528Z" fill="white"/>
<path fill-rule="evenodd" clip-rule="evenodd" d="M16.6364 83.8528L27.5635 64.9264C32.42 56.5147 26.3494 46.0001 16.6364 46.0001C6.92338 46.0001 0.852753 56.5147 5.70926 64.9265L16.6364 83.8528ZM16.6364 79.8528L25.8314 63.9264C29.9181 56.8481 24.8098 48.0001 16.6364 48.0001C8.46298 48.0001 3.3546 56.8481 7.44131 63.9265L16.6364 79.8528Z" fill="#969696"/>
<path d="M23.5079 58.3611C23.5079 62.1565 20.4312 65.2332 16.6358 65.2332C12.8404 65.2332 9.76367 62.1565 9.76367 58.3611C9.76367 54.5658 12.8404 51.489 16.6358 51.489C20.4312 51.489 23.5079 54.5658 23.5079 58.3611Z" fill="#305D74"/>
<path d="M120.804 83.2627C120.804 87.6559 117.243 91.2173 112.85 91.2173C108.456 91.2173 104.895 87.6559 104.895 83.2627C104.895 78.8695 108.456 75.3081 112.85 75.3081C117.243 75.3081 120.804 78.8695 120.804 83.2627Z" fill="white"/>
<path fill-rule="evenodd" clip-rule="evenodd" d="M112.85 89.2173C116.138 89.2173 118.804 86.5513 118.804 83.2627C118.804 79.9741 116.138 77.3081 112.85 77.3081C109.561 77.3081 106.895 79.9741 106.895 83.2627C106.895 86.5513 109.561 89.2173 112.85 89.2173ZM112.85 91.2173C117.243 91.2173 120.804 87.6559 120.804 83.2627C120.804 78.8695 117.243 75.3081 112.85 75.3081C108.456 75.3081 104.895 78.8695 104.895 83.2627C104.895 87.6559 108.456 91.2173 112.85 91.2173Z" fill="#969696"/>
<path d="M112.637 83.8528L101.709 64.9265C96.8529 56.5147 102.924 46.0001 112.637 46.0001C122.35 46.0001 128.42 56.5147 123.564 64.9264L112.637 83.8528Z" fill="white"/>
<path fill-rule="evenodd" clip-rule="evenodd" d="M112.637 83.8528L123.564 64.9264C128.42 56.5147 122.35 46.0001 112.637 46.0001C102.924 46.0001 96.8529 56.5147 101.709 64.9265L112.637 83.8528ZM112.637 79.8528L121.832 63.9264C125.918 56.8481 120.81 48.0001 112.637 48.0001C104.463 48.0001 99.3548 56.8481 103.441 63.9265L112.637 79.8528Z" fill="#969696"/>
<path d="M119.508 58.3609C119.508 62.1562 116.432 65.233 112.636 65.233C108.841 65.233 105.764 62.1562 105.764 58.3609C105.764 54.5655 108.841 51.4888 112.636 51.4888C116.432 51.4888 119.508 54.5655 119.508 58.3609Z" fill="white"/>
<path fill-rule="evenodd" clip-rule="evenodd" d="M112.636 64.233C115.879 64.233 118.508 61.604 118.508 58.3609C118.508 55.1178 115.879 52.4888 112.636 52.4888C109.393 52.4888 106.764 55.1178 106.764 58.3609C106.764 61.604 109.393 64.233 112.636 64.233ZM112.636 65.233C116.432 65.233 119.508 62.1562 119.508 58.3609C119.508 54.5655 116.432 51.4888 112.636 51.4888C108.841 51.4888 105.764 54.5655 105.764 58.3609C105.764 62.1562 108.841 65.233 112.636 65.233Z" fill="#969696"/>
</svg>
