<svg width="131" height="130" viewBox="0 0 131 130" fill="none" xmlns="http://www.w3.org/2000/svg">
<path opacity="0.1" d="M109.745 65C109.745 90.9574 88.7015 112 62.7441 112C36.7867 112 15.7441 90.9574 15.7441 65C15.7441 39.0426 36.7867 18 62.7441 18C88.7015 18 109.745 39.0426 109.745 65Z" fill="#033D58"/>
<path d="M62.7447 96.6674C80.2337 96.6674 94.4113 82.4897 94.4113 65.0007C94.4113 47.5117 80.2337 33.334 62.7447 33.334C45.2557 33.334 31.0781 47.5117 31.0781 65.0007C31.0781 82.4897 45.2557 96.6674 62.7447 96.6674Z" fill="white"/>
<path d="M62.7447 96.6674C80.2337 96.6674 94.4113 82.4897 94.4113 65.0007C94.4113 47.5117 80.2337 33.334 62.7447 33.334C45.2557 33.334 31.0781 47.5117 31.0781 65.0007C31.0781 82.4897 45.2557 96.6674 62.7447 96.6674Z" stroke="#969696" stroke-width="2"/>
<path d="M75.3714 94.0402C82.9685 90.7369 83.4739 75.0572 76.5002 59.0187C69.5265 42.9802 57.7144 32.6563 50.1172 35.9597C42.5201 39.263 42.0147 54.9427 48.9884 70.9812C55.9621 87.0197 67.7742 97.3436 75.3714 94.0402Z" stroke="#969696"/>
<path d="M30.5801 66.2612L85.6036 42.3363" stroke="#969696" stroke-linecap="round" stroke-linejoin="round"/>
<path d="M39.8867 87.6602L94.9102 63.7352" stroke="#969696" stroke-linecap="round" stroke-linejoin="round"/>
<path d="M62.7441 110.002C87.597 110.002 107.744 89.8548 107.744 65.002C107.744 40.1491 87.597 20.002 62.7441 20.002C37.8913 20.002 17.7441 40.1491 17.7441 65.002C17.7441 89.8548 37.8913 110.002 62.7441 110.002Z" stroke="#969696" stroke-linecap="square" stroke-dasharray="3 5"/>
<path d="M24.7435 46.3317C29.3459 46.3317 33.0768 42.6008 33.0768 37.9984C33.0768 33.396 29.3459 29.665 24.7435 29.665C20.1411 29.665 16.4102 33.396 16.4102 37.9984C16.4102 42.6008 20.1411 46.3317 24.7435 46.3317Z" fill="white"/>
<path d="M24.7435 46.3317C29.3459 46.3317 33.0768 42.6008 33.0768 37.9984C33.0768 33.396 29.3459 29.665 24.7435 29.665C20.1411 29.665 16.4102 33.396 16.4102 37.9984C16.4102 42.6008 20.1411 46.3317 24.7435 46.3317Z" stroke="#969696" stroke-width="2"/>
<path d="M31.7435 84.667H20.4102C19.8579 84.667 19.4102 85.1147 19.4102 85.667V95.3337C19.4102 95.886 19.8579 96.3337 20.4102 96.3337H31.7435C32.2957 96.3337 32.7435 95.886 32.7435 95.3337V85.667C32.7435 85.1147 32.2957 84.667 31.7435 84.667Z" fill="white" stroke="#969696" stroke-width="2"/>
<path fill-rule="evenodd" clip-rule="evenodd" d="M102.743 83.4807C101.079 83.4807 99.5774 82.7835 98.5146 81.6653C96.7953 82.2398 95.2321 83.1551 93.905 84.3309C94.3407 85.8095 94.1931 87.457 93.3615 88.8973C92.5294 90.3385 91.1754 91.2903 89.676 91.6518C89.5017 92.512 89.4102 93.4023 89.4102 94.314C89.4102 95.2257 89.5017 96.116 89.676 96.9762C91.1754 97.3377 92.5295 98.2895 93.3615 99.7307C94.1931 101.171 94.3407 102.819 93.905 104.297C95.2321 105.473 96.7953 106.388 98.5146 106.963C99.5774 105.844 101.079 105.147 102.743 105.147C104.408 105.147 105.91 105.844 106.972 106.963C108.692 106.388 110.255 105.473 111.582 104.297C111.146 102.819 111.294 101.171 112.125 99.7307C112.957 98.2895 114.311 97.3377 115.811 96.9762C115.985 96.116 116.077 95.2257 116.077 94.314C116.077 93.4023 115.985 92.512 115.811 91.6517C114.311 91.2903 112.957 90.3385 112.125 88.8973C111.294 87.457 111.146 85.8095 111.582 84.3309C110.255 83.1551 108.692 82.2398 106.972 81.6653C105.91 82.7835 104.408 83.4807 102.743 83.4807ZM102.743 99.314C105.505 99.314 107.743 97.0754 107.743 94.314C107.743 91.5526 105.505 89.314 102.743 89.314C99.9821 89.314 97.7435 91.5526 97.7435 94.314C97.7435 97.0754 99.9821 99.314 102.743 99.314Z" fill="white"/>
<path fill-rule="evenodd" clip-rule="evenodd" d="M98.8011 80.5151L99.2393 80.9763C100.121 81.9042 101.364 82.4807 102.743 82.4807C104.123 82.4807 105.366 81.9042 106.247 80.9764L106.686 80.5151L107.289 80.7168C109.139 81.3348 110.819 82.319 112.245 83.5824L112.721 84.0039L112.541 84.6136C112.18 85.8404 112.302 87.2038 112.991 88.3973C113.681 89.5915 114.801 90.3797 116.045 90.6796L116.664 90.8289L116.791 91.4531C116.978 92.3784 117.077 93.3352 117.077 94.314C117.077 95.2927 116.978 96.2496 116.791 97.1748L116.664 97.7991L116.045 97.9484C114.801 98.2483 113.681 99.0365 112.991 100.231C112.302 101.424 112.18 102.788 112.541 104.014L112.721 104.624L112.245 105.046C110.819 106.309 109.139 107.293 107.289 107.911L106.686 108.113L106.247 107.652C105.366 106.724 104.123 106.147 102.743 106.147C101.364 106.147 100.121 106.724 99.2393 107.652L98.8011 108.113L98.1976 107.911C96.3483 107.293 94.6678 106.309 93.2418 105.046L92.7661 104.624L92.9458 104.014C93.3073 102.788 93.1846 101.424 92.4956 100.231C91.8061 99.0365 90.6858 98.2483 89.4417 97.9484L88.8223 97.7991L88.6959 97.1748C88.5085 96.2496 88.4102 95.2927 88.4102 94.314C88.4102 93.3352 88.5085 92.3784 88.6959 91.4532L88.8223 90.8289L89.4417 90.6796C90.6858 90.3797 91.8061 89.5915 92.4956 88.3973C93.1846 87.2038 93.3073 85.8404 92.9458 84.6136L92.7661 84.0039L93.2418 83.5824C94.6678 82.319 96.3483 81.3348 98.1976 80.7168L98.8011 80.5151ZM95.0215 84.6967C95.3194 86.2512 95.0816 87.9182 94.2276 89.3973C93.3734 90.8769 92.048 91.9166 90.5522 92.4357C90.4587 93.0476 90.4102 93.6748 90.4102 94.314C90.4102 94.9531 90.4587 95.5804 90.5522 96.1923C92.048 96.7114 93.3734 97.7511 94.2276 99.2307C95.0816 100.71 95.3194 102.377 95.0215 103.931C95.9954 104.714 97.0902 105.352 98.2731 105.812C99.4707 104.776 101.034 104.147 102.743 104.147C104.453 104.147 106.016 104.776 107.214 105.812C108.397 105.352 109.491 104.714 110.465 103.931C110.167 102.377 110.405 100.71 111.259 99.2307C112.113 97.7511 113.439 96.7114 114.935 96.1923C115.028 95.5804 115.077 94.9531 115.077 94.314C115.077 93.6748 115.028 93.0476 114.935 92.4356C113.439 91.9165 112.113 90.8769 111.259 89.3973C110.405 87.9182 110.168 86.2512 110.465 84.6967C109.491 83.9136 108.397 83.2758 107.214 82.8155C106.016 83.8521 104.453 84.4807 102.743 84.4807C101.034 84.4807 99.4707 83.8521 98.2731 82.8155C97.0902 83.2758 95.9954 83.9136 95.0215 84.6967ZM102.743 90.314C100.534 90.314 98.7435 92.1048 98.7435 94.314C98.7435 96.5231 100.534 98.314 102.743 98.314C104.952 98.314 106.743 96.5231 106.743 94.314C106.743 92.1048 104.952 90.314 102.743 90.314ZM96.7435 94.314C96.7435 91.0003 99.4298 88.314 102.743 88.314C106.057 88.314 108.743 91.0003 108.743 94.314C108.743 97.6277 106.057 100.314 102.743 100.314C99.4298 100.314 96.7435 97.6277 96.7435 94.314Z" fill="#969696"/>
</svg>
