<svg width="587" height="185" viewBox="0 0 587 185" fill="none" xmlns="http://www.w3.org/2000/svg">
<g clip-path="url(#clip0_121_3123)">
<mask id="mask0_121_3123" style="mask-type:luminance" maskUnits="userSpaceOnUse" x="0" y="0" width="587" height="185">
<path d="M587 0H0V184.882H587V0Z" fill="white"/>
</mask>
<g mask="url(#mask0_121_3123)">
<path d="M587 0H0V184.882H587V0Z" fill="#EBEDF2"/>
<g filter="url(#filter0_d_121_3123)">
<path d="M547 36H40C37.7909 36 36 37.7909 36 40V202C36 204.209 37.7909 206 40 206H547C549.209 206 551 204.209 551 202V40C551 37.7909 549.209 36 547 36Z" fill="white"/>
</g>
<path d="M264 36H547C549.209 36 551 37.7909 551 40V190H264V36Z" fill="#F9F9F9"/>
<mask id="mask1_121_3123" style="mask-type:luminance" maskUnits="userSpaceOnUse" x="264" y="36" width="287" height="154">
<path d="M264 36H547C549.209 36 551 37.7909 551 40V190H264V36Z" fill="white"/>
</mask>
<g mask="url(#mask1_121_3123)">
<path d="M263.076 190V36H264.924V190H263.076Z" fill="black" fill-opacity="0.1"/>
</g>
<path d="M440 149L420 226" stroke="black" stroke-opacity="0.1" stroke-width="4"/>
<path d="M303 159.367L369.326 153.039M303 159.367L329.046 87.2348L383.296 95.6103M303 159.367L313.943 187.783L324.885 216.199L417 237.867M369.326 153.039L383.296 95.6103M369.326 153.039L417 237.867M383.296 95.6103L403.5 116.367L439.5 150L509.795 89.4017M383.296 95.6103L428.308 70L509.795 89.4017M417 237.867L472 191.5L509.795 159.367V89.4017" stroke="black" stroke-opacity="0.1" stroke-width="4"/>
<path d="M320.649 160.808C320.649 169.004 314.005 175.648 305.809 175.648C297.613 175.648 290.969 169.004 290.969 160.808C290.969 152.612 297.613 145.968 305.809 145.968C314.005 145.968 320.649 152.612 320.649 160.808Z" fill="white"/>
<path fill-rule="evenodd" clip-rule="evenodd" d="M305.809 173.105C312.6 173.105 318.106 167.599 318.106 160.808C318.106 154.017 312.6 148.511 305.809 148.511C299.018 148.511 293.512 154.017 293.512 160.808C293.512 167.599 299.018 173.105 305.809 173.105ZM305.809 175.648C314.005 175.648 320.649 169.004 320.649 160.808C320.649 152.612 314.005 145.968 305.809 145.968C297.613 145.968 290.969 152.612 290.969 160.808C290.969 169.004 297.613 175.648 305.809 175.648Z" fill="#22626F"/>
<path d="M314.288 160.808C314.288 165.491 310.491 169.288 305.808 169.288C301.124 169.288 297.328 165.491 297.328 160.808C297.328 156.125 301.124 152.328 305.808 152.328C310.491 152.328 314.288 156.125 314.288 160.808Z" fill="#79BFBE"/>
<path d="M524.032 89.1284C524.032 97.3244 517.388 103.968 509.192 103.968C500.996 103.968 494.352 97.3244 494.352 89.1284C494.352 80.9325 500.996 74.2883 509.192 74.2883C517.388 74.2883 524.032 80.9325 524.032 89.1284Z" fill="white"/>
<path fill-rule="evenodd" clip-rule="evenodd" d="M509.192 101.425C515.983 101.425 521.489 95.9197 521.489 89.1284C521.489 82.3371 515.983 76.8317 509.192 76.8317C502.401 76.8317 496.895 82.3371 496.895 89.1284C496.895 95.9197 502.401 101.425 509.192 101.425ZM509.192 103.968C517.388 103.968 524.032 97.3244 524.032 89.1284C524.032 80.9325 517.388 74.2883 509.192 74.2883C500.996 74.2883 494.352 80.9325 494.352 89.1284C494.352 97.3244 500.996 103.968 509.192 103.968Z" fill="#22626F"/>
<path d="M517.672 89.1283C517.672 93.8117 513.875 97.6083 509.191 97.6083C504.508 97.6083 500.711 93.8117 500.711 89.1283C500.711 84.4449 504.508 80.6483 509.191 80.6483C513.875 80.6483 517.672 84.4449 517.672 89.1283Z" fill="#79BFBE"/>
<path d="M399.039 97.4487C399.039 105.645 392.395 112.289 384.199 112.289C376.003 112.289 369.359 105.645 369.359 97.4487C369.359 89.2528 376.003 82.6086 384.199 82.6086C392.395 82.6086 399.039 89.2528 399.039 97.4487Z" fill="white"/>
<path fill-rule="evenodd" clip-rule="evenodd" d="M384.199 109.745C390.99 109.745 396.495 104.24 396.495 97.4487C396.495 90.6574 390.99 85.152 384.199 85.152C377.407 85.152 371.902 90.6574 371.902 97.4487C371.902 104.24 377.407 109.745 384.199 109.745ZM384.199 112.289C392.395 112.289 399.039 105.645 399.039 97.4487C399.039 89.2528 392.395 82.6086 384.199 82.6086C376.003 82.6086 369.359 89.2528 369.359 97.4487C369.359 105.645 376.003 112.289 384.199 112.289Z" fill="#22626F"/>
<path d="M392.679 97.4486C392.679 102.132 388.883 105.929 384.199 105.929C379.516 105.929 375.719 102.132 375.719 97.4486C375.719 92.7652 379.516 88.9686 384.199 88.9686C388.883 88.9686 392.679 92.7652 392.679 97.4486Z" fill="#79BFBE"/>
<path d="M428 79.25C432.556 79.25 436.25 75.5563 436.25 71C436.25 66.4437 432.556 62.75 428 62.75C423.444 62.75 419.75 66.4437 419.75 71C419.75 75.5563 423.444 79.25 428 79.25Z" fill="#22626F"/>
<path d="M329 96.25C333.556 96.25 337.25 92.5563 337.25 88C337.25 83.4437 333.556 79.75 329 79.75C324.444 79.75 320.75 83.4437 320.75 88C320.75 92.5563 324.444 96.25 329 96.25Z" fill="#22626F"/>
<path d="M370 162.25C374.556 162.25 378.25 158.556 378.25 154C378.25 149.444 374.556 145.75 370 145.75C365.444 145.75 361.75 149.444 361.75 154C361.75 158.556 365.444 162.25 370 162.25Z" fill="#22626F"/>
<path d="M440 157.25C444.556 157.25 448.25 153.556 448.25 149C448.25 144.444 444.556 140.75 440 140.75C435.444 140.75 431.75 144.444 431.75 149C431.75 153.556 435.444 157.25 440 157.25Z" fill="#22626F"/>
<path d="M510 167.25C514.556 167.25 518.25 163.556 518.25 159C518.25 154.444 514.556 150.75 510 150.75C505.444 150.75 501.75 154.444 501.75 159C501.75 163.556 505.444 167.25 510 167.25Z" fill="#22626F"/>
<path d="M52.4534 65.9999C52.3843 65.9999 52.3196 65.974 52.2592 65.9222C52.2075 65.8705 52.1816 65.8058 52.1816 65.7281C52.1816 65.6936 52.1902 65.6548 52.2075 65.6116L55.3264 57.2642C55.3523 57.178 55.3998 57.1046 55.4688 57.0442C55.5464 56.9752 55.65 56.9407 55.7794 56.9407H57.19C57.3195 56.9407 57.4187 56.9752 57.4877 57.0442C57.5567 57.1046 57.6085 57.178 57.643 57.2642L60.762 65.6116C60.7706 65.6548 60.7749 65.6936 60.7749 65.7281C60.7749 65.8058 60.749 65.8705 60.6972 65.9222C60.6455 65.974 60.5851 65.9999 60.5161 65.9999H59.3901C59.2693 65.9999 59.1787 65.974 59.1184 65.9222C59.0666 65.8619 59.0321 65.8058 59.0148 65.754L58.4066 64.1751H54.5629L53.9546 65.754C53.9373 65.8058 53.8985 65.8619 53.8381 65.9222C53.7864 65.974 53.7001 65.9999 53.5793 65.9999H52.4534ZM55.0158 62.6868H57.9536L56.4782 58.6878L55.0158 62.6868ZM62.1514 68.4588C62.0651 68.4588 61.9918 68.4286 61.9314 68.3682C61.871 68.3078 61.8408 68.2345 61.8408 68.1482V59.5808C61.8408 59.4945 61.871 59.4212 61.9314 59.3608C61.9918 59.3004 62.0651 59.2702 62.1514 59.2702H63.1738C63.2687 59.2702 63.342 59.3004 63.3938 59.3608C63.4542 59.4212 63.4844 59.4945 63.4844 59.5808V60.0985C63.6914 59.8224 63.9632 59.5937 64.2997 59.4126C64.6362 59.2314 65.0546 59.1408 65.555 59.1408C66.0123 59.1408 66.4092 59.2141 66.7457 59.3608C67.0822 59.5075 67.3626 59.7188 67.5869 59.9949C67.8112 60.2624 67.9838 60.5816 68.1046 60.9526C68.2254 61.3236 68.2944 61.7334 68.3116 62.1821C68.3203 62.3288 68.3246 62.4797 68.3246 62.635C68.3246 62.7904 68.3203 62.9457 68.3116 63.101C68.303 63.5323 68.2383 63.9336 68.1175 64.3046C67.9967 64.667 67.8198 64.9861 67.5869 65.2622C67.3626 65.5297 67.0822 65.7411 66.7457 65.8964C66.4092 66.0517 66.0123 66.1293 65.555 66.1293C65.0891 66.1293 64.6923 66.0474 64.3644 65.8834C64.0365 65.7109 63.7691 65.4865 63.562 65.2105V68.1482C63.562 68.2345 63.5318 68.3078 63.4714 68.3682C63.4197 68.4286 63.3463 68.4588 63.2514 68.4588H62.1514ZM65.0762 64.7446C65.4472 64.7446 65.7362 64.667 65.9433 64.5117C66.1504 64.3478 66.297 64.1363 66.3833 63.8775C66.4782 63.6186 66.5343 63.3339 66.5516 63.0233C66.5688 62.7645 66.5688 62.5056 66.5516 62.2468C66.5343 61.9362 66.4782 61.6515 66.3833 61.3926C66.297 61.1338 66.1504 60.9267 65.9433 60.7714C65.7362 60.6075 65.4472 60.5255 65.0762 60.5255C64.7225 60.5255 64.4334 60.6075 64.2091 60.7714C63.9934 60.9354 63.8338 61.1468 63.7303 61.4056C63.6354 61.6558 63.5793 61.9146 63.562 62.1821C63.5534 62.3374 63.5491 62.5013 63.5491 62.6739C63.5491 62.8464 63.5534 63.0147 63.562 63.1786C63.5706 63.4374 63.631 63.6876 63.7432 63.9292C63.8554 64.1622 64.0193 64.3564 64.235 64.5117C64.4507 64.667 64.7311 64.7446 65.0762 64.7446ZM70.1009 68.4588C70.0146 68.4588 69.9413 68.4286 69.8809 68.3682C69.8205 68.3078 69.7903 68.2345 69.7903 68.1482V59.5808C69.7903 59.4945 69.8205 59.4212 69.8809 59.3608C69.9413 59.3004 70.0146 59.2702 70.1009 59.2702H71.1233C71.2182 59.2702 71.2916 59.3004 71.3433 59.3608C71.4037 59.4212 71.4339 59.4945 71.4339 59.5808V60.0985C71.641 59.8224 71.9128 59.5937 72.2493 59.4126C72.5857 59.2314 73.0042 59.1408 73.5046 59.1408C73.9619 59.1408 74.3588 59.2141 74.6952 59.3608C75.0317 59.5075 75.3121 59.7188 75.5365 59.9949C75.7608 60.2624 75.9333 60.5816 76.0541 60.9526C76.1749 61.3236 76.2439 61.7334 76.2612 62.1821C76.2698 62.3288 76.2741 62.4797 76.2741 62.635C76.2741 62.7904 76.2698 62.9457 76.2612 63.101C76.2526 63.5323 76.1879 63.9336 76.0671 64.3046C75.9463 64.667 75.7694 64.9861 75.5365 65.2622C75.3121 65.5297 75.0317 65.7411 74.6952 65.8964C74.3588 66.0517 73.9619 66.1293 73.5046 66.1293C73.0387 66.1293 72.6418 66.0474 72.314 65.8834C71.9861 65.7109 71.7186 65.4865 71.5116 65.2105V68.1482C71.5116 68.2345 71.4814 68.3078 71.421 68.3682C71.3692 68.4286 71.2959 68.4588 71.201 68.4588H70.1009ZM73.0258 64.7446C73.3968 64.7446 73.6858 64.667 73.8929 64.5117C74.0999 64.3478 74.2466 64.1363 74.3329 63.8775C74.4278 63.6186 74.4839 63.3339 74.5011 63.0233C74.5184 62.7645 74.5184 62.5056 74.5011 62.2468C74.4839 61.9362 74.4278 61.6515 74.3329 61.3926C74.2466 61.1338 74.0999 60.9267 73.8929 60.7714C73.6858 60.6075 73.3968 60.5255 73.0258 60.5255C72.672 60.5255 72.383 60.6075 72.1587 60.7714C71.943 60.9354 71.7834 61.1468 71.6798 61.4056C71.5849 61.6558 71.5288 61.9146 71.5116 62.1821C71.5029 62.3374 71.4986 62.5013 71.4986 62.6739C71.4986 62.8464 71.5029 63.0147 71.5116 63.1786C71.5202 63.4374 71.5806 63.6876 71.6928 63.9292C71.8049 64.1622 71.9689 64.3564 72.1845 64.5117C72.4002 64.667 72.6806 64.7446 73.0258 64.7446ZM78.0505 65.9999C77.9642 65.9999 77.8909 65.9697 77.8305 65.9093C77.7701 65.8489 77.7399 65.7756 77.7399 65.6893V57.1219C77.7399 57.0356 77.7701 56.9623 77.8305 56.9019C77.8909 56.8415 77.9642 56.8113 78.0505 56.8113H79.1247C79.2109 56.8113 79.2843 56.8415 79.3447 56.9019C79.4051 56.9623 79.4353 57.0356 79.4353 57.1219V65.6893C79.4353 65.7756 79.4051 65.8489 79.3447 65.9093C79.2843 65.9697 79.2109 65.9999 79.1247 65.9999H78.0505ZM81.7406 65.9999C81.6543 65.9999 81.581 65.9697 81.5206 65.9093C81.4602 65.8489 81.43 65.7756 81.43 65.6893V59.5808C81.43 59.4945 81.4602 59.4212 81.5206 59.3608C81.581 59.3004 81.6543 59.2702 81.7406 59.2702H82.8148C82.9097 59.2702 82.983 59.3004 83.0348 59.3608C83.0952 59.4212 83.1254 59.4945 83.1254 59.5808V65.6893C83.1254 65.7756 83.0952 65.8489 83.0348 65.9093C82.983 65.9697 82.9097 65.9999 82.8148 65.9999H81.7406ZM81.6888 58.1572C81.5939 58.1572 81.5163 58.1313 81.4559 58.0796C81.4041 58.0192 81.3782 57.9415 81.3782 57.8466V56.9148C81.3782 56.8285 81.4041 56.7552 81.4559 56.6948C81.5163 56.6344 81.5939 56.6042 81.6888 56.6042H82.8665C82.9614 56.6042 83.0391 56.6344 83.0995 56.6948C83.1599 56.7552 83.1901 56.8285 83.1901 56.9148V57.8466C83.1901 57.9415 83.1599 58.0192 83.0995 58.0796C83.0391 58.1313 82.9614 58.1572 82.8665 58.1572H81.6888ZM87.7922 66.1293C87.171 66.1293 86.6231 66.0128 86.1486 65.7799C85.6827 65.5469 85.316 65.2105 85.0485 64.7704C84.7897 64.3218 84.6473 63.7825 84.6214 63.1527C84.6128 63.0233 84.6085 62.8551 84.6085 62.648C84.6085 62.4323 84.6128 62.2554 84.6214 62.1174C84.6473 61.4875 84.7897 60.9526 85.0485 60.5126C85.316 60.064 85.6827 59.7232 86.1486 59.4902C86.6231 59.2573 87.171 59.1408 87.7922 59.1408C88.3444 59.1408 88.8146 59.2184 89.2028 59.3737C89.5911 59.529 89.9103 59.7232 90.1605 59.9561C90.4107 60.1891 90.5962 60.435 90.717 60.6938C90.8464 60.944 90.9154 61.1726 90.9241 61.3797C90.9327 61.4746 90.9025 61.5523 90.8335 61.6127C90.7731 61.6644 90.6998 61.6903 90.6135 61.6903H89.4746C89.3883 61.6903 89.3193 61.6687 89.2675 61.6256C89.2244 61.5825 89.1813 61.5177 89.1381 61.4315C89.0087 61.0864 88.8361 60.8448 88.6204 60.7067C88.4134 60.5601 88.1459 60.4867 87.8181 60.4867C87.3867 60.4867 87.0416 60.6248 86.7827 60.9009C86.5325 61.1683 86.3988 61.5954 86.3815 62.1821C86.3643 62.5099 86.3643 62.8119 86.3815 63.088C86.3988 63.6833 86.5325 64.1147 86.7827 64.3822C87.0416 64.6496 87.3867 64.7834 87.8181 64.7834C88.1545 64.7834 88.4263 64.7144 88.6334 64.5763C88.8405 64.4296 89.0087 64.1837 89.1381 63.8386C89.1813 63.7524 89.2244 63.6876 89.2675 63.6445C89.3193 63.6014 89.3883 63.5798 89.4746 63.5798H90.6135C90.6998 63.5798 90.7731 63.61 90.8335 63.6704C90.9025 63.7222 90.9327 63.7955 90.9241 63.8904C90.9154 64.0457 90.8723 64.2226 90.7947 64.421C90.7256 64.6108 90.6092 64.8093 90.4452 65.0163C90.2899 65.2148 90.0915 65.4003 89.8499 65.5728C89.6083 65.7368 89.315 65.8705 88.9699 65.974C88.6334 66.0776 88.2408 66.1293 87.7922 66.1293ZM94.228 66.1293C93.7793 66.1293 93.3738 66.043 93.0114 65.8705C92.6491 65.6893 92.36 65.452 92.1443 65.1587C91.9373 64.8567 91.8337 64.5202 91.8337 64.1492C91.8337 63.5453 92.0753 63.0664 92.5585 62.7127C93.0503 62.3503 93.6973 62.1088 94.4997 61.988L96.2728 61.7291V61.4574C96.2728 61.095 96.1822 60.8146 96.001 60.6161C95.8198 60.4177 95.5092 60.3185 95.0692 60.3185C94.7586 60.3185 94.504 60.3832 94.3056 60.5126C94.1158 60.6334 93.9734 60.7973 93.8785 61.0044C93.8095 61.1166 93.7103 61.1726 93.5809 61.1726H92.5585C92.4636 61.1726 92.3902 61.1468 92.3385 61.095C92.2953 61.0432 92.2738 60.9742 92.2738 60.8879C92.2824 60.7499 92.3385 60.5816 92.442 60.3832C92.5455 60.1847 92.7095 59.9949 92.9338 59.8138C93.1581 59.6239 93.4471 59.4643 93.8009 59.3349C94.1546 59.2055 94.5817 59.1408 95.0821 59.1408C95.6257 59.1408 96.0829 59.2098 96.4539 59.3479C96.8336 59.4773 97.1355 59.6541 97.3599 59.8785C97.5842 60.1028 97.7481 60.3659 97.8516 60.6679C97.9552 60.9699 98.0069 61.2891 98.0069 61.6256V65.6893C98.0069 65.7756 97.9767 65.8489 97.9164 65.9093C97.856 65.9697 97.7826 65.9999 97.6963 65.9999H96.6481C96.5532 65.9999 96.4755 65.9697 96.4151 65.9093C96.3633 65.8489 96.3375 65.7756 96.3375 65.6893V65.1846C96.2253 65.3485 96.0743 65.5038 95.8845 65.6505C95.6947 65.7885 95.4617 65.905 95.1856 65.9999C94.9182 66.0862 94.599 66.1293 94.228 66.1293ZM94.668 64.8999C94.9699 64.8999 95.2417 64.8351 95.4833 64.7057C95.7335 64.5763 95.9276 64.3779 96.0657 64.1104C96.2124 63.8343 96.2857 63.4892 96.2857 63.0751V62.8033L94.9915 63.0104C94.4825 63.088 94.1029 63.2131 93.8526 63.3857C93.6024 63.5582 93.4773 63.7696 93.4773 64.0198C93.4773 64.2096 93.5334 64.3737 93.6456 64.5117C93.7664 64.6411 93.9174 64.7402 94.0985 64.8093C94.2797 64.8697 94.4695 64.8999 94.668 64.8999ZM102.645 65.9999C102.127 65.9999 101.692 65.9093 101.338 65.7281C100.984 65.5469 100.721 65.2795 100.548 64.9257C100.376 64.5634 100.29 64.1147 100.29 63.5798V60.642H99.2675C99.1813 60.642 99.1079 60.6118 99.0475 60.5514C98.9871 60.491 98.9569 60.4177 98.9569 60.3314V59.5808C98.9569 59.4945 98.9871 59.4212 99.0475 59.3608C99.1079 59.3004 99.1813 59.2702 99.2675 59.2702H100.29V57.1219C100.29 57.0356 100.315 56.9623 100.367 56.9019C100.428 56.8415 100.505 56.8113 100.6 56.8113H101.648C101.735 56.8113 101.808 56.8415 101.868 56.9019C101.929 56.9623 101.959 57.0356 101.959 57.1219V59.2702H103.577C103.663 59.2702 103.736 59.3004 103.797 59.3608C103.857 59.4212 103.887 59.4945 103.887 59.5808V60.3314C103.887 60.4177 103.857 60.491 103.797 60.5514C103.736 60.6118 103.663 60.642 103.577 60.642H101.959V63.4504C101.959 63.8041 102.019 64.0802 102.14 64.2786C102.27 64.4771 102.49 64.5763 102.8 64.5763H103.693C103.779 64.5763 103.853 64.6065 103.913 64.6669C103.974 64.7273 104.004 64.8006 104.004 64.8869V65.6893C104.004 65.7756 103.974 65.8489 103.913 65.9093C103.853 65.9697 103.779 65.9999 103.693 65.9999H102.645ZM105.462 65.9999C105.376 65.9999 105.303 65.9697 105.242 65.9093C105.182 65.8489 105.152 65.7756 105.152 65.6893V59.5808C105.152 59.4945 105.182 59.4212 105.242 59.3608C105.303 59.3004 105.376 59.2702 105.462 59.2702H106.537C106.632 59.2702 106.705 59.3004 106.757 59.3608C106.817 59.4212 106.847 59.4945 106.847 59.5808V65.6893C106.847 65.7756 106.817 65.8489 106.757 65.9093C106.705 65.9697 106.632 65.9999 106.537 65.9999H105.462ZM105.411 58.1572C105.316 58.1572 105.238 58.1313 105.178 58.0796C105.126 58.0192 105.1 57.9415 105.1 57.8466V56.9148C105.1 56.8285 105.126 56.7552 105.178 56.6948C105.238 56.6344 105.316 56.6042 105.411 56.6042H106.588C106.683 56.6042 106.761 56.6344 106.821 56.6948C106.882 56.7552 106.912 56.8285 106.912 56.9148V57.8466C106.912 57.9415 106.882 58.0192 106.821 58.0796C106.761 58.1313 106.683 58.1572 106.588 58.1572H105.411ZM111.579 66.1293C110.889 66.1293 110.306 66.0085 109.832 65.7669C109.366 65.5254 109.008 65.1846 108.757 64.7446C108.516 64.3045 108.378 63.7912 108.343 63.2045C108.335 63.0492 108.33 62.8594 108.33 62.635C108.33 62.4107 108.335 62.2209 108.343 62.0656C108.378 61.4703 108.52 60.9569 108.77 60.5255C109.029 60.0855 109.392 59.7447 109.858 59.5032C110.332 59.2616 110.906 59.1408 111.579 59.1408C112.252 59.1408 112.821 59.2616 113.287 59.5032C113.762 59.7447 114.124 60.0855 114.374 60.5255C114.633 60.9569 114.78 61.4703 114.814 62.0656C114.823 62.2209 114.827 62.4107 114.827 62.635C114.827 62.8594 114.823 63.0492 114.814 63.2045C114.78 63.7912 114.637 64.3045 114.387 64.7446C114.146 65.1846 113.787 65.5254 113.313 65.7669C112.847 66.0085 112.269 66.1293 111.579 66.1293ZM111.579 64.8481C112.036 64.8481 112.39 64.7057 112.64 64.421C112.89 64.1277 113.028 63.7006 113.054 63.1398C113.063 63.0104 113.067 62.8421 113.067 62.635C113.067 62.428 113.063 62.2597 113.054 62.1303C113.028 61.5781 112.89 61.1554 112.64 60.862C112.39 60.5687 112.036 60.422 111.579 60.422C111.122 60.422 110.768 60.5687 110.518 60.862C110.267 61.1554 110.129 61.5781 110.103 62.1303C110.095 62.2597 110.09 62.428 110.09 62.635C110.09 62.8421 110.095 63.0104 110.103 63.1398C110.129 63.7006 110.267 64.1277 110.518 64.421C110.768 64.7057 111.122 64.8481 111.579 64.8481ZM116.572 65.9999C116.485 65.9999 116.412 65.9697 116.352 65.9093C116.291 65.8489 116.261 65.7756 116.261 65.6893V59.5808C116.261 59.4945 116.291 59.4212 116.352 59.3608C116.412 59.3004 116.485 59.2702 116.572 59.2702H117.633C117.719 59.2702 117.792 59.3004 117.853 59.3608C117.913 59.4212 117.943 59.4945 117.943 59.5808V60.1114C118.168 59.8353 118.453 59.6067 118.798 59.4255C119.151 59.2357 119.587 59.1408 120.105 59.1408C120.631 59.1408 121.088 59.2616 121.477 59.5032C121.865 59.7361 122.162 60.0683 122.37 60.4997C122.585 60.9311 122.693 61.4487 122.693 62.0527V65.6893C122.693 65.7756 122.663 65.8489 122.603 65.9093C122.542 65.9697 122.469 65.9999 122.382 65.9999H121.244C121.157 65.9999 121.084 65.9697 121.024 65.9093C120.963 65.8489 120.933 65.7756 120.933 65.6893V62.1303C120.933 61.6299 120.808 61.2373 120.558 60.9526C120.316 60.6679 119.962 60.5255 119.496 60.5255C119.048 60.5255 118.69 60.6679 118.422 60.9526C118.155 61.2373 118.021 61.6299 118.021 62.1303V65.6893C118.021 65.7756 117.991 65.8489 117.931 65.9093C117.87 65.9697 117.797 65.9999 117.711 65.9999H116.572ZM127.76 65.9999C127.674 65.9999 127.601 65.9697 127.54 65.9093C127.48 65.8489 127.45 65.7756 127.45 65.6893V57.2642C127.45 57.1693 127.48 57.0917 127.54 57.0313C127.601 56.9709 127.674 56.9407 127.76 56.9407H128.757C128.878 56.9407 128.964 56.9709 129.016 57.0313C129.076 57.083 129.115 57.1219 129.132 57.1478L132.859 62.9457V57.2642C132.859 57.1693 132.885 57.0917 132.937 57.0313C132.997 56.9709 133.075 56.9407 133.17 56.9407H134.257C134.352 56.9407 134.43 56.9709 134.49 57.0313C134.55 57.0917 134.581 57.1693 134.581 57.2642V65.6764C134.581 65.7713 134.55 65.8489 134.49 65.9093C134.43 65.9697 134.356 65.9999 134.27 65.9999H133.261C133.14 65.9999 133.053 65.9697 133.002 65.9093C132.95 65.8489 132.911 65.8101 132.885 65.7928L129.171 60.1244V65.6893C129.171 65.7756 129.141 65.8489 129.08 65.9093C129.02 65.9697 128.942 65.9999 128.847 65.9999H127.76ZM138.399 66.1293C137.95 66.1293 137.545 66.043 137.182 65.8705C136.82 65.6893 136.531 65.452 136.315 65.1587C136.108 64.8567 136.005 64.5202 136.005 64.1492C136.005 63.5453 136.246 63.0664 136.729 62.7127C137.221 62.3503 137.868 62.1088 138.671 61.988L140.444 61.7291V61.4574C140.444 61.095 140.353 60.8146 140.172 60.6161C139.991 60.4177 139.68 60.3185 139.24 60.3185C138.929 60.3185 138.675 60.3832 138.476 60.5126C138.287 60.6334 138.144 60.7973 138.049 61.0044C137.98 61.1166 137.881 61.1726 137.752 61.1726H136.729C136.634 61.1726 136.561 61.1468 136.509 61.095C136.466 61.0432 136.445 60.9742 136.445 60.8879C136.453 60.7499 136.509 60.5816 136.613 60.3832C136.716 60.1847 136.88 59.9949 137.105 59.8138C137.329 59.6239 137.618 59.4643 137.972 59.3349C138.325 59.2055 138.753 59.1408 139.253 59.1408C139.797 59.1408 140.254 59.2098 140.625 59.3479C141.004 59.4773 141.306 59.6541 141.531 59.8785C141.755 60.1028 141.919 60.3659 142.022 60.6679C142.126 60.9699 142.178 61.2891 142.178 61.6256V65.6893C142.178 65.7756 142.148 65.8489 142.087 65.9093C142.027 65.9697 141.953 65.9999 141.867 65.9999H140.819C140.724 65.9999 140.646 65.9697 140.586 65.9093C140.534 65.8489 140.508 65.7756 140.508 65.6893V65.1846C140.396 65.3485 140.245 65.5038 140.055 65.6505C139.866 65.7885 139.633 65.905 139.356 65.9999C139.089 66.0862 138.77 66.1293 138.399 66.1293ZM138.839 64.8999C139.141 64.8999 139.413 64.8351 139.654 64.7057C139.904 64.5763 140.098 64.3779 140.237 64.1104C140.383 63.8343 140.457 63.4892 140.457 63.0751V62.8033L139.162 63.0104C138.653 63.088 138.274 63.2131 138.023 63.3857C137.773 63.5582 137.648 63.7696 137.648 64.0198C137.648 64.2096 137.704 64.3737 137.816 64.5117C137.937 64.6411 138.088 64.7402 138.269 64.8093C138.451 64.8697 138.64 64.8999 138.839 64.8999ZM144.149 65.9999C144.062 65.9999 143.989 65.9697 143.929 65.9093C143.868 65.8489 143.838 65.7756 143.838 65.6893V59.5808C143.838 59.4945 143.868 59.4212 143.929 59.3608C143.989 59.3004 144.062 59.2702 144.149 59.2702H145.158C145.244 59.2702 145.318 59.3004 145.378 59.3608C145.439 59.4212 145.469 59.4945 145.469 59.5808V60.0208C145.65 59.7792 145.891 59.5765 146.193 59.4126C146.504 59.24 146.871 59.1494 147.294 59.1408C148.277 59.1235 148.963 59.5075 149.351 60.2926C149.55 59.9475 149.834 59.6714 150.205 59.4643C150.585 59.2486 151.003 59.1408 151.461 59.1408C151.909 59.1408 152.315 59.2443 152.677 59.4514C153.048 59.6585 153.337 59.9734 153.544 60.3961C153.76 60.8103 153.868 61.3366 153.868 61.975V65.6893C153.868 65.7756 153.838 65.8489 153.777 65.9093C153.717 65.9697 153.644 65.9999 153.557 65.9999H152.496C152.41 65.9999 152.336 65.9697 152.276 65.9093C152.216 65.8489 152.185 65.7756 152.185 65.6893V62.0786C152.185 61.6903 152.129 61.384 152.017 61.1597C151.905 60.9267 151.754 60.7628 151.564 60.6679C151.374 60.573 151.163 60.5255 150.93 60.5255C150.74 60.5255 150.551 60.573 150.361 60.6679C150.171 60.7628 150.016 60.9267 149.895 61.1597C149.774 61.384 149.714 61.6903 149.714 62.0786V65.6893C149.714 65.7756 149.683 65.8489 149.623 65.9093C149.563 65.9697 149.489 65.9999 149.403 65.9999H148.342C148.247 65.9999 148.169 65.9697 148.109 65.9093C148.057 65.8489 148.031 65.7756 148.031 65.6893V62.0786C148.031 61.6903 147.971 61.384 147.85 61.1597C147.729 60.9267 147.574 60.7628 147.384 60.6679C147.194 60.573 146.992 60.5255 146.776 60.5255C146.577 60.5255 146.383 60.5773 146.193 60.6808C146.004 60.7758 145.848 60.9354 145.728 61.1597C145.607 61.384 145.546 61.6903 145.546 62.0786V65.6893C145.546 65.7756 145.516 65.8489 145.456 65.9093C145.395 65.9697 145.322 65.9999 145.236 65.9999H144.149ZM158.415 66.1293C157.457 66.1293 156.698 65.8532 156.137 65.301C155.576 64.7489 155.274 63.9637 155.231 62.9457C155.223 62.8594 155.218 62.7515 155.218 62.6221C155.218 62.4841 155.223 62.3762 155.231 62.2986C155.266 61.6515 155.412 61.0907 155.671 60.6161C155.939 60.1416 156.305 59.7792 156.771 59.529C157.237 59.2702 157.785 59.1408 158.415 59.1408C159.114 59.1408 159.7 59.2875 160.175 59.5808C160.65 59.8655 161.008 60.2667 161.249 60.7844C161.491 61.2934 161.612 61.8844 161.612 62.5574V62.8292C161.612 62.9155 161.581 62.9888 161.521 63.0492C161.461 63.1096 161.383 63.1398 161.288 63.1398H156.991C156.991 63.1398 156.991 63.1527 156.991 63.1786C156.991 63.2045 156.991 63.2261 156.991 63.2433C157 63.5453 157.056 63.8257 157.16 64.0845C157.272 64.3347 157.431 64.5375 157.638 64.6928C157.854 64.8481 158.109 64.9257 158.402 64.9257C158.644 64.9257 158.846 64.8913 159.01 64.8223C159.174 64.7447 159.308 64.6583 159.411 64.5634C159.515 64.4685 159.588 64.3908 159.631 64.3304C159.709 64.2269 159.769 64.1665 159.813 64.1492C159.864 64.1233 159.938 64.1104 160.033 64.1104H161.146C161.232 64.1104 161.301 64.1363 161.353 64.1881C161.413 64.2398 161.439 64.3045 161.43 64.3822C161.422 64.5202 161.348 64.6885 161.21 64.8869C161.081 65.0854 160.891 65.2795 160.641 65.4693C160.391 65.6591 160.076 65.8187 159.696 65.9481C159.325 66.0689 158.898 66.1293 158.415 66.1293ZM156.991 62.0527H159.851V62.0138C159.851 61.6774 159.795 61.384 159.683 61.1338C159.571 60.8836 159.407 60.6852 159.191 60.5385C158.976 60.3918 158.717 60.3185 158.415 60.3185C158.113 60.3185 157.854 60.3918 157.638 60.5385C157.423 60.6852 157.259 60.8836 157.147 61.1338C157.043 61.384 156.991 61.6774 156.991 62.0138V62.0527Z" fill="#033D58"/>
<path d="M55.5717 85.5625C55.4854 85.5625 55.4121 85.5366 55.3517 85.4848C55.2999 85.4245 55.2741 85.3511 55.2741 85.2648V78.0175L53.1257 79.674C53.0567 79.7258 52.9834 79.7473 52.9057 79.7387C52.8281 79.7301 52.7634 79.6913 52.7116 79.6222L52.3751 79.1952C52.3233 79.1175 52.3018 79.0399 52.3104 78.9622C52.3277 78.8846 52.3708 78.8199 52.4398 78.7681L55.2611 76.5939C55.3215 76.5507 55.3776 76.5249 55.4294 76.5162C55.4811 76.5076 55.5372 76.5033 55.5976 76.5033H56.2576C56.3439 76.5033 56.4129 76.5335 56.4647 76.5939C56.5165 76.6456 56.5423 76.7147 56.5423 76.8009V85.2648C56.5423 85.3511 56.5165 85.4245 56.4647 85.4848C56.4129 85.5366 56.3439 85.5625 56.2576 85.5625H55.5717ZM61.638 85.6919C61.0426 85.6919 60.5379 85.6013 60.1238 85.4201C59.7183 85.2303 59.3861 84.9715 59.1273 84.6436C58.8684 84.3158 58.6786 83.9405 58.5578 83.5177C58.4457 83.0949 58.381 82.6463 58.3637 82.1718C58.3551 81.9388 58.3464 81.6929 58.3378 81.4341C58.3378 81.1753 58.3378 80.9164 58.3378 80.6576C58.3464 80.3901 58.3551 80.1356 58.3637 79.894C58.3723 79.4195 58.437 78.9708 58.5578 78.5481C58.6872 78.1167 58.877 77.7414 59.1273 77.4222C59.3861 77.0943 59.7226 76.8398 60.1367 76.6586C60.5508 76.4688 61.0513 76.3739 61.638 76.3739C62.2333 76.3739 62.7337 76.4688 63.1392 76.6586C63.5533 76.8398 63.8898 77.0943 64.1486 77.4222C64.4075 77.7414 64.5973 78.1167 64.7181 78.5481C64.8475 78.9708 64.9165 79.4195 64.9252 79.894C64.9338 80.1356 64.9381 80.3901 64.9381 80.6576C64.9467 80.9164 64.9467 81.1753 64.9381 81.4341C64.9381 81.6929 64.9338 81.9388 64.9252 82.1718C64.9165 82.6463 64.8475 83.0949 64.7181 83.5177C64.5973 83.9405 64.4075 84.3158 64.1486 84.6436C63.8984 84.9715 63.5663 85.2303 63.1521 85.4201C62.7466 85.6013 62.2419 85.6919 61.638 85.6919ZM61.638 84.5919C62.3109 84.5919 62.807 84.3719 63.1263 83.9318C63.4541 83.4832 63.6224 82.8749 63.631 82.1071C63.6482 81.8569 63.6569 81.6153 63.6569 81.3823C63.6569 81.1407 63.6569 80.9035 63.6569 80.6705C63.6569 80.4289 63.6482 80.1917 63.631 79.9587C63.6224 79.2081 63.4541 78.6085 63.1263 78.1598C62.807 77.7026 62.3109 77.4739 61.638 77.4739C60.9736 77.4739 60.4775 77.7026 60.1497 78.1598C59.8304 78.6085 59.6622 79.2081 59.6449 79.9587C59.6449 80.1917 59.6406 80.4289 59.632 80.6705C59.632 80.9035 59.632 81.1407 59.632 81.3823C59.6406 81.6153 59.6449 81.8569 59.6449 82.1071C59.6622 82.8749 59.8347 83.4832 60.1626 83.9318C60.4905 84.3719 60.9822 84.5919 61.638 84.5919ZM70.3462 85.5625C70.2513 85.5625 70.178 85.5366 70.1262 85.4848C70.0744 85.4245 70.0486 85.3511 70.0486 85.2648V76.8139C70.0486 76.719 70.0744 76.6456 70.1262 76.5939C70.178 76.5335 70.2513 76.5033 70.3462 76.5033H73.6334C74.2719 76.5033 74.8241 76.6068 75.29 76.8139C75.7645 77.021 76.1312 77.3316 76.39 77.7457C76.6488 78.1512 76.7783 78.6602 76.7783 79.2728C76.7783 79.8854 76.6488 80.3944 76.39 80.7999C76.1312 81.2055 75.7645 81.5117 75.29 81.7188C74.8241 81.9259 74.2719 82.0294 73.6334 82.0294H71.3427V85.2648C71.3427 85.3511 71.3125 85.4245 71.2521 85.4848C71.2004 85.5366 71.127 85.5625 71.0321 85.5625H70.3462ZM71.3298 80.9423H73.5687C74.2072 80.9423 74.686 80.7999 75.0052 80.5152C75.3245 80.2305 75.4841 79.8164 75.4841 79.2728C75.4841 78.7379 75.3288 78.3238 75.0182 78.0304C74.7076 77.7371 74.2244 77.5904 73.5687 77.5904H71.3298V80.9423ZM80.6944 85.6919C80.1423 85.6919 79.6721 85.5711 79.2838 85.3295C78.9042 85.0793 78.6151 84.7342 78.4167 84.2942C78.2183 83.8542 78.119 83.3495 78.119 82.78V79.1305C78.119 79.0442 78.1449 78.9752 78.1967 78.9234C78.2571 78.863 78.3304 78.8328 78.4167 78.8328H79.0638C79.1501 78.8328 79.2191 78.863 79.2709 78.9234C79.3313 78.9752 79.3615 79.0442 79.3615 79.1305V82.7153C79.3615 84.0009 79.9223 84.6436 81.0439 84.6436C81.5788 84.6436 82.0059 84.4754 82.3251 84.1389C82.653 83.7938 82.8169 83.3193 82.8169 82.7153V79.1305C82.8169 79.0442 82.8428 78.9752 82.8945 78.9234C82.9549 78.863 83.0283 78.8328 83.1146 78.8328H83.7487C83.8436 78.8328 83.9169 78.863 83.9687 78.9234C84.0205 78.9752 84.0464 79.0442 84.0464 79.1305V85.2648C84.0464 85.3511 84.0205 85.4245 83.9687 85.4848C83.9169 85.5366 83.8436 85.5625 83.7487 85.5625H83.1534C83.0671 85.5625 82.9938 85.5366 82.9334 85.4848C82.8816 85.4245 82.8557 85.3511 82.8557 85.2648V84.6954C82.6228 84.9974 82.338 85.239 82.0016 85.4201C81.6737 85.6013 81.238 85.6919 80.6944 85.6919ZM89.295 85.6919C88.7774 85.6919 88.346 85.6013 88.0009 85.4201C87.6558 85.2303 87.3797 84.9974 87.1726 84.7213V85.2648C87.1726 85.3511 87.1424 85.4245 87.082 85.4848C87.0302 85.5366 86.9612 85.5625 86.8749 85.5625H86.2796C86.1933 85.5625 86.12 85.5366 86.0596 85.4848C86.0078 85.4245 85.982 85.3511 85.982 85.2648V76.6715C85.982 76.5853 86.0078 76.5162 86.0596 76.4645C86.12 76.4041 86.1933 76.3739 86.2796 76.3739H86.9008C86.9957 76.3739 87.0691 76.4041 87.1208 76.4645C87.1726 76.5162 87.1985 76.5853 87.1985 76.6715V79.6481C87.4142 79.3807 87.6903 79.1563 88.0267 78.9752C88.3719 78.794 88.7946 78.7034 89.295 78.7034C89.7782 78.7034 90.188 78.7897 90.5245 78.9622C90.8696 79.1261 91.15 79.3548 91.3657 79.6481C91.59 79.9415 91.7583 80.2736 91.8704 80.6446C91.9826 81.0156 92.043 81.4039 92.0516 81.8094C92.0603 81.9474 92.0646 82.0769 92.0646 82.1976C92.0646 82.3184 92.0603 82.4479 92.0516 82.5859C92.043 83 91.9826 83.3926 91.8704 83.7636C91.7583 84.1346 91.59 84.4668 91.3657 84.7601C91.15 85.0448 90.8696 85.2735 90.5245 85.446C90.188 85.61 89.7782 85.6919 89.295 85.6919ZM89.0233 84.6436C89.4719 84.6436 89.8213 84.5487 90.0715 84.3589C90.3304 84.1605 90.5159 83.906 90.628 83.5954C90.7402 83.2761 90.8049 82.9353 90.8222 82.573C90.8308 82.3228 90.8308 82.0725 90.8222 81.8223C90.8049 81.46 90.7402 81.1235 90.628 80.8129C90.5159 80.4937 90.3304 80.2391 90.0715 80.0493C89.8213 79.8509 89.4719 79.7517 89.0233 79.7517C88.6178 79.7517 88.2813 79.8466 88.0138 80.0364C87.7463 80.2262 87.5436 80.4678 87.4055 80.7611C87.2761 81.0545 87.2071 81.3521 87.1985 81.6541C87.1898 81.7921 87.1855 81.9604 87.1855 82.1588C87.1855 82.3486 87.1898 82.5126 87.1985 82.6506C87.2157 82.9698 87.2848 83.2848 87.4055 83.5954C87.535 83.8973 87.7291 84.1475 87.9879 84.346C88.2554 84.5444 88.6005 84.6436 89.0233 84.6436ZM93.9764 85.5625C93.8901 85.5625 93.8168 85.5366 93.7564 85.4848C93.7046 85.4245 93.6787 85.3511 93.6787 85.2648V76.6715C93.6787 76.5853 93.7046 76.5162 93.7564 76.4645C93.8168 76.4041 93.8901 76.3739 93.9764 76.3739H94.5847C94.6796 76.3739 94.7529 76.4041 94.8047 76.4645C94.8564 76.5162 94.8823 76.5853 94.8823 76.6715V85.2648C94.8823 85.3511 94.8564 85.4245 94.8047 85.4848C94.7529 85.5366 94.6796 85.5625 94.5847 85.5625H93.9764ZM97.2368 85.5625C97.1505 85.5625 97.0772 85.5366 97.0168 85.4848C96.965 85.4245 96.9392 85.3511 96.9392 85.2648V79.1305C96.9392 79.0442 96.965 78.9752 97.0168 78.9234C97.0772 78.863 97.1505 78.8328 97.2368 78.8328H97.858C97.9443 78.8328 98.0133 78.863 98.0651 78.9234C98.1169 78.9752 98.1427 79.0442 98.1427 79.1305V85.2648C98.1427 85.3511 98.1169 85.4245 98.0651 85.4848C98.0133 85.5366 97.9443 85.5625 97.858 85.5625H97.2368ZM97.1333 77.5775C97.047 77.5775 96.9737 77.5516 96.9133 77.4998C96.8615 77.4394 96.8356 77.3661 96.8356 77.2798V76.5809C96.8356 76.4947 96.8615 76.4256 96.9133 76.3739C96.9737 76.3135 97.047 76.2833 97.1333 76.2833H97.9486C98.0349 76.2833 98.1039 76.3135 98.1557 76.3739C98.2161 76.4256 98.2463 76.4947 98.2463 76.5809V77.2798C98.2463 77.3661 98.2161 77.4394 98.1557 77.4998C98.1039 77.5516 98.0349 77.5775 97.9486 77.5775H97.1333ZM102.479 85.6919C101.996 85.6919 101.582 85.6315 101.237 85.5107C100.892 85.3899 100.611 85.2433 100.395 85.0707C100.18 84.8982 100.016 84.7256 99.9034 84.553C99.7999 84.3805 99.7438 84.2424 99.7352 84.1389C99.7265 84.044 99.7567 83.9707 99.8258 83.9189C99.8948 83.8671 99.9638 83.8412 100.033 83.8412H100.602C100.654 83.8412 100.693 83.8499 100.719 83.8671C100.753 83.8758 100.797 83.9103 100.848 83.9707C100.961 84.0915 101.086 84.2122 101.224 84.333C101.362 84.4538 101.53 84.553 101.728 84.6307C101.935 84.7083 102.19 84.7472 102.492 84.7472C102.932 84.7472 103.294 84.6652 103.579 84.5013C103.864 84.3287 104.006 84.0785 104.006 83.7507C104.006 83.535 103.946 83.3624 103.825 83.233C103.713 83.1036 103.506 82.9871 103.204 82.8836C102.91 82.78 102.505 82.6722 101.987 82.56C101.47 82.4392 101.06 82.2926 100.758 82.12C100.456 81.9388 100.24 81.7274 100.111 81.4859C99.9811 81.2356 99.9164 80.9552 99.9164 80.6446C99.9164 80.3254 100.011 80.0191 100.201 79.7258C100.391 79.4238 100.667 79.1779 101.03 78.9881C101.401 78.7983 101.862 78.7034 102.414 78.7034C102.863 78.7034 103.247 78.7595 103.566 78.8716C103.885 78.9838 104.149 79.1261 104.356 79.2987C104.563 79.4626 104.718 79.6266 104.821 79.7905C104.925 79.9544 104.981 80.0925 104.99 80.2046C104.998 80.2909 104.972 80.3642 104.912 80.4246C104.852 80.4764 104.783 80.5023 104.705 80.5023H104.161C104.101 80.5023 104.049 80.4893 104.006 80.4635C103.972 80.4376 103.937 80.4074 103.903 80.3729C103.816 80.2607 103.713 80.1485 103.592 80.0364C103.48 79.9242 103.329 79.8336 103.139 79.7646C102.958 79.687 102.716 79.6481 102.414 79.6481C101.983 79.6481 101.659 79.7387 101.444 79.9199C101.228 80.1011 101.12 80.3297 101.12 80.6058C101.12 80.7697 101.168 80.9164 101.262 81.0458C101.357 81.1753 101.539 81.2917 101.806 81.3953C102.074 81.4988 102.47 81.611 102.997 81.7317C103.566 81.8439 104.015 81.9949 104.343 82.1847C104.67 82.3745 104.903 82.5945 105.041 82.8447C105.18 83.0949 105.249 83.384 105.249 83.7118C105.249 84.0742 105.141 84.4064 104.925 84.7083C104.718 85.0103 104.407 85.2519 103.993 85.4331C103.588 85.6056 103.083 85.6919 102.479 85.6919ZM107.057 85.5625C106.971 85.5625 106.898 85.5366 106.837 85.4848C106.786 85.4245 106.76 85.3511 106.76 85.2648V76.6715C106.76 76.5853 106.786 76.5162 106.837 76.4645C106.898 76.4041 106.971 76.3739 107.057 76.3739H107.704C107.799 76.3739 107.873 76.4041 107.924 76.4645C107.976 76.5162 108.002 76.5853 108.002 76.6715V79.687C108.235 79.3936 108.52 79.1563 108.856 78.9752C109.193 78.794 109.62 78.7034 110.137 78.7034C110.698 78.7034 111.173 78.8285 111.561 79.0787C111.958 79.3203 112.256 79.6611 112.454 80.1011C112.661 80.5325 112.765 81.0372 112.765 81.6153V85.2648C112.765 85.3511 112.739 85.4245 112.687 85.4848C112.635 85.5366 112.562 85.5625 112.467 85.5625H111.82C111.734 85.5625 111.66 85.5366 111.6 85.4848C111.548 85.4245 111.522 85.3511 111.522 85.2648V81.68C111.522 81.076 111.376 80.6058 111.082 80.2693C110.789 79.9242 110.358 79.7517 109.788 79.7517C109.253 79.7517 108.822 79.9242 108.494 80.2693C108.166 80.6058 108.002 81.076 108.002 81.68V85.2648C108.002 85.3511 107.976 85.4245 107.924 85.4848C107.873 85.5366 107.799 85.5625 107.704 85.5625H107.057ZM117.312 85.6919C116.423 85.6919 115.716 85.4201 115.19 84.8766C114.663 84.3244 114.374 83.5738 114.323 82.6247C114.314 82.5126 114.31 82.3702 114.31 82.1976C114.31 82.0165 114.314 81.8698 114.323 81.7576C114.357 81.1451 114.499 80.6101 114.75 80.1529C115 79.687 115.341 79.3289 115.772 79.0787C116.212 78.8285 116.725 78.7034 117.312 78.7034C117.968 78.7034 118.516 78.8414 118.956 79.1175C119.404 79.3936 119.745 79.7862 119.978 80.2952C120.211 80.8043 120.327 81.3996 120.327 82.0812V82.3012C120.327 82.3961 120.297 82.4694 120.237 82.5212C120.185 82.573 120.116 82.5988 120.03 82.5988H115.552C115.552 82.6075 115.552 82.6247 115.552 82.6506C115.552 82.6765 115.552 82.6981 115.552 82.7153C115.569 83.0691 115.647 83.4012 115.785 83.7118C115.923 84.0138 116.121 84.2597 116.38 84.4495C116.639 84.6393 116.95 84.7342 117.312 84.7342C117.623 84.7342 117.882 84.6868 118.089 84.5919C118.296 84.497 118.464 84.3934 118.593 84.2813C118.723 84.1605 118.809 84.0699 118.852 84.0095C118.93 83.8973 118.99 83.8326 119.033 83.8154C119.076 83.7895 119.145 83.7765 119.24 83.7765H119.862C119.948 83.7765 120.017 83.8024 120.069 83.8542C120.129 83.8973 120.155 83.962 120.146 84.0483C120.138 84.1777 120.069 84.3373 119.939 84.5272C119.81 84.7083 119.624 84.8895 119.383 85.0707C119.141 85.2519 118.848 85.4029 118.503 85.5237C118.158 85.6358 117.761 85.6919 117.312 85.6919ZM115.552 81.7059H119.098V81.667C119.098 81.2788 119.025 80.9337 118.878 80.6317C118.74 80.3297 118.537 80.0925 118.27 79.9199C118.002 79.7387 117.683 79.6481 117.312 79.6481C116.941 79.6481 116.622 79.7387 116.354 79.9199C116.096 80.0925 115.897 80.3297 115.759 80.6317C115.621 80.9337 115.552 81.2788 115.552 81.667V81.7059ZM124.334 85.6919C123.859 85.6919 123.45 85.61 123.104 85.446C122.759 85.2735 122.475 85.0448 122.25 84.7601C122.035 84.4668 121.871 84.1346 121.758 83.7636C121.655 83.3926 121.595 83 121.577 82.5859C121.569 82.4479 121.564 82.3184 121.564 82.1976C121.564 82.0769 121.569 81.9474 121.577 81.8094C121.595 81.4039 121.655 81.0156 121.758 80.6446C121.871 80.2736 122.035 79.9415 122.25 79.6481C122.475 79.3548 122.759 79.1261 123.104 78.9622C123.45 78.7897 123.859 78.7034 124.334 78.7034C124.843 78.7034 125.266 78.794 125.602 78.9752C125.939 79.1563 126.215 79.3807 126.43 79.6481V76.6715C126.43 76.5853 126.456 76.5162 126.508 76.4645C126.568 76.4041 126.642 76.3739 126.728 76.3739H127.349C127.436 76.3739 127.505 76.4041 127.556 76.4645C127.617 76.5162 127.647 76.5853 127.647 76.6715V85.2648C127.647 85.3511 127.617 85.4245 127.556 85.4848C127.505 85.5366 127.436 85.5625 127.349 85.5625H126.767C126.672 85.5625 126.599 85.5366 126.547 85.4848C126.495 85.4245 126.469 85.3511 126.469 85.2648V84.7213C126.254 84.9974 125.973 85.2303 125.628 85.4201C125.283 85.6013 124.852 85.6919 124.334 85.6919ZM124.606 84.6436C125.037 84.6436 125.382 84.5444 125.641 84.346C125.9 84.1475 126.094 83.8973 126.223 83.5954C126.353 83.2848 126.422 82.9698 126.43 82.6506C126.439 82.5126 126.443 82.3486 126.443 82.1588C126.443 81.9604 126.439 81.7921 126.43 81.6541C126.422 81.3521 126.348 81.0545 126.21 80.7611C126.081 80.4678 125.883 80.2262 125.615 80.0364C125.356 79.8466 125.02 79.7517 124.606 79.7517C124.166 79.7517 123.816 79.8509 123.557 80.0493C123.299 80.2391 123.113 80.4937 123.001 80.8129C122.889 81.1235 122.824 81.46 122.807 81.8223C122.798 82.0725 122.798 82.3228 122.807 82.573C122.824 82.9353 122.889 83.2761 123.001 83.5954C123.113 83.906 123.299 84.1605 123.557 84.3589C123.816 84.5487 124.166 84.6436 124.606 84.6436ZM133.21 85.5625C133.115 85.5625 133.042 85.5366 132.99 85.4848C132.938 85.4245 132.912 85.3511 132.912 85.2648V76.8139C132.912 76.719 132.938 76.6456 132.99 76.5939C133.042 76.5335 133.115 76.5033 133.21 76.5033H138.555C138.65 76.5033 138.723 76.5335 138.775 76.5939C138.827 76.6456 138.852 76.719 138.852 76.8139V77.3057C138.852 77.4006 138.827 77.4739 138.775 77.5257C138.723 77.5775 138.65 77.6033 138.555 77.6033H134.155V80.4376H138.27C138.365 80.4376 138.438 80.4678 138.49 80.5282C138.542 80.5799 138.568 80.6533 138.568 80.7482V81.227C138.568 81.3133 138.542 81.3866 138.49 81.447C138.438 81.4988 138.365 81.5247 138.27 81.5247H134.155V84.4625H138.658C138.753 84.4625 138.827 84.4883 138.878 84.5401C138.93 84.5919 138.956 84.6652 138.956 84.7601V85.2648C138.956 85.3511 138.93 85.4245 138.878 85.4848C138.827 85.5366 138.753 85.5625 138.658 85.5625H133.21ZM142.745 85.5625C142.616 85.5625 142.512 85.5323 142.435 85.4719C142.366 85.4115 142.31 85.3339 142.266 85.239L139.872 79.234C139.855 79.1909 139.846 79.1477 139.846 79.1046C139.846 79.0269 139.872 78.9622 139.924 78.9105C139.976 78.8587 140.04 78.8328 140.118 78.8328H140.739C140.834 78.8328 140.908 78.8587 140.959 78.9105C141.011 78.9622 141.041 79.0097 141.05 79.0528L143.03 84.1519L144.997 79.0528C145.014 79.0097 145.045 78.9622 145.088 78.9105C145.14 78.8587 145.213 78.8328 145.308 78.8328H145.942C146.011 78.8328 146.071 78.8587 146.123 78.9105C146.183 78.9622 146.214 79.0269 146.214 79.1046C146.214 79.1477 146.205 79.1909 146.188 79.234L143.781 85.239C143.746 85.3339 143.69 85.4115 143.612 85.4719C143.543 85.5323 143.44 85.5625 143.302 85.5625H142.745ZM150.008 85.6919C149.119 85.6919 148.411 85.4201 147.885 84.8766C147.359 84.3244 147.07 83.5738 147.018 82.6247C147.009 82.5126 147.005 82.3702 147.005 82.1976C147.005 82.0165 147.009 81.8698 147.018 81.7576C147.053 81.1451 147.195 80.6101 147.445 80.1529C147.695 79.687 148.036 79.3289 148.468 79.0787C148.908 78.8285 149.421 78.7034 150.008 78.7034C150.663 78.7034 151.211 78.8414 151.651 79.1175C152.1 79.3936 152.441 79.7862 152.674 80.2952C152.907 80.8043 153.023 81.3996 153.023 82.0812V82.3012C153.023 82.3961 152.993 82.4694 152.932 82.5212C152.881 82.573 152.812 82.5988 152.725 82.5988H148.248C148.248 82.6075 148.248 82.6247 148.248 82.6506C148.248 82.6765 148.248 82.6981 148.248 82.7153C148.265 83.0691 148.342 83.4012 148.481 83.7118C148.619 84.0138 148.817 84.2597 149.076 84.4495C149.335 84.6393 149.645 84.7342 150.008 84.7342C150.318 84.7342 150.577 84.6868 150.784 84.5919C150.991 84.497 151.159 84.3934 151.289 84.2813C151.418 84.1605 151.505 84.0699 151.548 84.0095C151.625 83.8973 151.686 83.8326 151.729 83.8154C151.772 83.7895 151.841 83.7765 151.936 83.7765H152.557C152.643 83.7765 152.712 83.8024 152.764 83.8542C152.825 83.8973 152.85 83.962 152.842 84.0483C152.833 84.1777 152.764 84.3373 152.635 84.5272C152.505 84.7083 152.32 84.8895 152.078 85.0707C151.837 85.2519 151.543 85.4029 151.198 85.5237C150.853 85.6358 150.456 85.6919 150.008 85.6919ZM148.248 81.7059H151.794V81.667C151.794 81.2788 151.72 80.9337 151.574 80.6317C151.436 80.3297 151.233 80.0925 150.965 79.9199C150.698 79.7387 150.379 79.6481 150.008 79.6481C149.637 79.6481 149.317 79.7387 149.05 79.9199C148.791 80.0925 148.593 80.3297 148.455 80.6317C148.317 80.9337 148.248 81.2788 148.248 81.667V81.7059ZM154.868 85.5625C154.782 85.5625 154.709 85.5366 154.648 85.4848C154.596 85.4245 154.571 85.3511 154.571 85.2648V79.1305C154.571 79.0442 154.596 78.9752 154.648 78.9234C154.709 78.863 154.782 78.8328 154.868 78.8328H155.476C155.563 78.8328 155.632 78.863 155.683 78.9234C155.744 78.9752 155.774 79.0442 155.774 79.1305V79.6999C155.998 79.4065 156.279 79.1693 156.615 78.9881C156.96 78.7983 157.4 78.7034 157.935 78.7034C158.496 78.7034 158.971 78.8285 159.359 79.0787C159.756 79.3203 160.053 79.6611 160.252 80.1011C160.45 80.5325 160.55 81.0372 160.55 81.6153V85.2648C160.55 85.3511 160.524 85.4245 160.472 85.4848C160.42 85.5366 160.351 85.5625 160.265 85.5625H159.618C159.532 85.5625 159.458 85.5366 159.398 85.4848C159.346 85.4245 159.32 85.3511 159.32 85.2648V81.68C159.32 81.076 159.173 80.6058 158.88 80.2693C158.587 79.9242 158.155 79.7517 157.586 79.7517C157.051 79.7517 156.62 79.9242 156.292 80.2693C155.973 80.6058 155.813 81.076 155.813 81.68V85.2648C155.813 85.3511 155.783 85.4245 155.722 85.4848C155.671 85.5366 155.602 85.5625 155.515 85.5625H154.868ZM164.958 85.5625C164.474 85.5625 164.082 85.4719 163.78 85.2907C163.478 85.1009 163.258 84.8378 163.12 84.5013C162.982 84.1562 162.913 83.7507 162.913 83.2848V79.8681H161.903C161.817 79.8681 161.744 79.8423 161.683 79.7905C161.632 79.7301 161.606 79.6568 161.606 79.5705V79.1305C161.606 79.0442 161.632 78.9752 161.683 78.9234C161.744 78.863 161.817 78.8328 161.903 78.8328H162.913V76.6715C162.913 76.5853 162.939 76.5162 162.991 76.4645C163.051 76.4041 163.124 76.3739 163.211 76.3739H163.819C163.905 76.3739 163.974 76.4041 164.026 76.4645C164.086 76.5162 164.116 76.5853 164.116 76.6715V78.8328H165.721C165.807 78.8328 165.877 78.863 165.928 78.9234C165.989 78.9752 166.019 79.0442 166.019 79.1305V79.5705C166.019 79.6568 165.989 79.7301 165.928 79.7905C165.877 79.8423 165.807 79.8681 165.721 79.8681H164.116V83.1942C164.116 83.5997 164.185 83.9189 164.324 84.1519C164.462 84.3848 164.707 84.5013 165.061 84.5013H165.851C165.937 84.5013 166.006 84.5315 166.058 84.5919C166.118 84.6436 166.148 84.7127 166.148 84.7989V85.2648C166.148 85.3511 166.118 85.4245 166.058 85.4848C166.006 85.5366 165.937 85.5625 165.851 85.5625H164.958ZM169.715 85.6919C169.232 85.6919 168.818 85.6315 168.473 85.5107C168.128 85.3899 167.847 85.2433 167.632 85.0707C167.416 84.8982 167.252 84.7256 167.14 84.553C167.036 84.3805 166.98 84.2424 166.972 84.1389C166.963 84.044 166.993 83.9707 167.062 83.9189C167.131 83.8671 167.2 83.8412 167.269 83.8412H167.839C167.891 83.8412 167.929 83.8499 167.955 83.8671C167.99 83.8758 168.033 83.9103 168.085 83.9707C168.197 84.0915 168.322 84.2122 168.46 84.333C168.598 84.4538 168.766 84.553 168.965 84.6307C169.172 84.7083 169.426 84.7472 169.728 84.7472C170.168 84.7472 170.531 84.6652 170.815 84.5013C171.1 84.3287 171.242 84.0785 171.242 83.7507C171.242 83.535 171.182 83.3624 171.061 83.233C170.949 83.1036 170.742 82.9871 170.44 82.8836C170.147 82.78 169.741 82.6722 169.224 82.56C168.706 82.4392 168.296 82.2926 167.994 82.12C167.692 81.9388 167.476 81.7274 167.347 81.4859C167.218 81.2356 167.153 80.9552 167.153 80.6446C167.153 80.3254 167.248 80.0191 167.438 79.7258C167.627 79.4238 167.904 79.1779 168.266 78.9881C168.637 78.7983 169.098 78.7034 169.651 78.7034C170.099 78.7034 170.483 78.7595 170.802 78.8716C171.122 78.9838 171.385 79.1261 171.592 79.2987C171.799 79.4626 171.954 79.6266 172.058 79.7905C172.161 79.9544 172.217 80.0925 172.226 80.2046C172.235 80.2909 172.209 80.3642 172.148 80.4246C172.088 80.4764 172.019 80.5023 171.941 80.5023H171.398C171.337 80.5023 171.286 80.4893 171.242 80.4635C171.208 80.4376 171.173 80.4074 171.139 80.3729C171.053 80.2607 170.949 80.1485 170.828 80.0364C170.716 79.9242 170.565 79.8336 170.375 79.7646C170.194 79.687 169.953 79.6481 169.651 79.6481C169.219 79.6481 168.896 79.7387 168.68 79.9199C168.464 80.1011 168.356 80.3297 168.356 80.6058C168.356 80.7697 168.404 80.9164 168.499 81.0458C168.594 81.1753 168.775 81.2917 169.042 81.3953C169.31 81.4988 169.707 81.611 170.233 81.7317C170.802 81.8439 171.251 81.9949 171.579 82.1847C171.907 82.3745 172.14 82.5945 172.278 82.8447C172.416 83.0949 172.485 83.384 172.485 83.7118C172.485 84.0742 172.377 84.4064 172.161 84.7083C171.954 85.0103 171.644 85.2519 171.23 85.4331C170.824 85.6056 170.319 85.6919 169.715 85.6919Z" fill="black" fill-opacity="0.8"/>
<path d="M170.814 66C170.728 66 170.654 65.9741 170.594 65.9223C170.542 65.862 170.516 65.7886 170.516 65.7023V58.455L168.368 60.1115C168.299 60.1633 168.226 60.1848 168.148 60.1762C168.07 60.1676 168.006 60.1288 167.954 60.0597L167.617 59.6327C167.566 59.555 167.544 59.4774 167.553 59.3997C167.57 59.3221 167.613 59.2574 167.682 59.2056L170.504 57.0314C170.564 56.9882 170.62 56.9624 170.672 56.9537C170.724 56.9451 170.78 56.9408 170.84 56.9408H171.5C171.586 56.9408 171.655 56.971 171.707 57.0314C171.759 57.0831 171.785 57.1522 171.785 57.2384V65.7023C171.785 65.7886 171.759 65.862 171.707 65.9223C171.655 65.9741 171.586 66 171.5 66H170.814ZM173.943 66C173.856 66 173.783 65.9741 173.723 65.9223C173.671 65.862 173.645 65.7886 173.645 65.7023V64.7705C173.645 64.6843 173.671 64.6152 173.723 64.5635C173.783 64.5031 173.856 64.4729 173.943 64.4729H174.874C174.961 64.4729 175.03 64.5031 175.081 64.5635C175.142 64.6152 175.172 64.6843 175.172 64.7705V65.7023C175.172 65.7886 175.142 65.862 175.081 65.9223C175.03 65.9741 174.961 66 174.874 66H173.943ZM179.951 66.1294C179.356 66.1294 178.851 66.0388 178.437 65.8576C178.032 65.6678 177.7 65.409 177.441 65.0811C177.182 64.7533 176.992 64.378 176.871 63.9552C176.759 63.5324 176.694 63.0838 176.677 62.6093C176.669 62.3763 176.66 62.1304 176.651 61.8716C176.651 61.6128 176.651 61.3539 176.651 61.0951C176.66 60.8276 176.669 60.5731 176.677 60.3315C176.686 59.857 176.751 59.4083 176.871 58.9856C177.001 58.5542 177.191 58.1789 177.441 57.8597C177.7 57.5318 178.036 57.2773 178.45 57.0961C178.864 56.9063 179.365 56.8114 179.951 56.8114C180.547 56.8114 181.047 56.9063 181.453 57.0961C181.867 57.2773 182.203 57.5318 182.462 57.8597C182.721 58.1789 182.911 58.5542 183.032 58.9856C183.161 59.4083 183.23 59.857 183.239 60.3315C183.247 60.5731 183.252 60.8276 183.252 61.0951C183.26 61.3539 183.26 61.6128 183.252 61.8716C183.252 62.1304 183.247 62.3763 183.239 62.6093C183.23 63.0838 183.161 63.5324 183.032 63.9552C182.911 64.378 182.721 64.7533 182.462 65.0811C182.212 65.409 181.88 65.6678 181.466 65.8576C181.06 66.0388 180.555 66.1294 179.951 66.1294ZM179.951 65.0294C180.624 65.0294 181.121 64.8094 181.44 64.3693C181.768 63.9207 181.936 63.3124 181.945 62.5446C181.962 62.2944 181.97 62.0528 181.97 61.8198C181.97 61.5782 181.97 61.341 181.97 61.108C181.97 60.8664 181.962 60.6292 181.945 60.3962C181.936 59.6456 181.768 59.046 181.44 58.5973C181.121 58.1401 180.624 57.9114 179.951 57.9114C179.287 57.9114 178.791 58.1401 178.463 58.5973C178.144 59.046 177.976 59.6456 177.958 60.3962C177.958 60.6292 177.954 60.8664 177.946 61.108C177.946 61.341 177.946 61.5782 177.946 61.8198C177.954 62.0528 177.958 62.2944 177.958 62.5446C177.976 63.3124 178.148 63.9207 178.476 64.3693C178.804 64.8094 179.296 65.0294 179.951 65.0294ZM185.039 66C184.953 66 184.879 65.9741 184.819 65.9223C184.767 65.862 184.741 65.7886 184.741 65.7023V64.7705C184.741 64.6843 184.767 64.6152 184.819 64.5635C184.879 64.5031 184.953 64.4729 185.039 64.4729H185.971C186.057 64.4729 186.126 64.5031 186.178 64.5635C186.238 64.6152 186.269 64.6843 186.269 64.7705V65.7023C186.269 65.7886 186.238 65.862 186.178 65.9223C186.126 65.9741 186.057 66 185.971 66H185.039ZM189.835 66C189.749 66 189.675 65.9741 189.615 65.9223C189.563 65.862 189.537 65.7886 189.537 65.7023V58.455L187.389 60.1115C187.32 60.1633 187.247 60.1848 187.169 60.1762C187.091 60.1676 187.027 60.1288 186.975 60.0597L186.638 59.6327C186.587 59.555 186.565 59.4774 186.574 59.3997C186.591 59.3221 186.634 59.2574 186.703 59.2056L189.524 57.0314C189.585 56.9882 189.641 56.9624 189.693 56.9537C189.744 56.9451 189.8 56.9408 189.861 56.9408H190.521C190.607 56.9408 190.676 56.971 190.728 57.0314C190.78 57.0831 190.806 57.1522 190.806 57.2384V65.7023C190.806 65.7886 190.78 65.862 190.728 65.9223C190.676 65.9741 190.607 66 190.521 66H189.835Z" fill="black" fill-opacity="0.8"/>
<path d="M36 105.538H264" stroke="black" stroke-opacity="0.1" stroke-width="0.92441"/>
<path d="M36 163.538H264" stroke="black" stroke-opacity="0.1" stroke-width="0.92441"/>
<path d="M159.302 118H55.6976C53.6555 118 52 119.655 52 121.698V128.302C52 130.345 53.6555 132 55.6976 132H159.302C161.345 132 163 130.345 163 128.302V121.698C163 119.655 161.345 118 159.302 118Z" fill="black" fill-opacity="0.1"/>
<path d="M159.302 176H55.6976C53.6555 176 52 177.655 52 179.698V186.302C52 188.345 53.6555 190 55.6976 190H159.302C161.345 190 163 188.345 163 186.302V179.698C163 177.655 161.345 176 159.302 176Z" fill="black" fill-opacity="0.1"/>
<path d="M194.186 118.008H175.698C173.655 118.008 172 119.664 172 121.706V128.177C172 130.219 173.655 131.874 175.698 131.874H194.186C196.228 131.874 197.883 130.219 197.883 128.177V121.706C197.883 119.664 196.228 118.008 194.186 118.008Z" fill="black" fill-opacity="0.1"/>
<path d="M194.186 176.312H175.698C173.655 176.312 172 177.968 172 180.01V186.48C172 188.523 173.655 190.178 175.698 190.178H194.186C196.228 190.178 197.883 188.523 197.883 186.48V180.01C197.883 177.968 196.228 176.312 194.186 176.312Z" fill="black" fill-opacity="0.1"/>
<path d="M244.302 118H209.698C207.655 118 206 119.655 206 121.698V128.302C206 130.345 207.655 132 209.698 132H244.302C246.345 132 248 130.345 248 128.302V121.698C248 119.655 246.345 118 244.302 118Z" fill="black" fill-opacity="0.1"/>
<path d="M244.302 176H209.698C207.655 176 206 177.655 206 179.698V186.302C206 188.345 207.655 190 209.698 190H244.302C246.345 190 248 188.345 248 186.302V179.698C248 177.655 246.345 176 244.302 176Z" fill="black" fill-opacity="0.1"/>
<path d="M163.302 138H55.6976C53.6555 138 52 139.655 52 141.698V148.302C52 150.345 53.6555 152 55.6976 152H163.302C165.345 152 167 150.345 167 148.302V141.698C167 139.655 165.345 138 163.302 138Z" fill="black" fill-opacity="0.1"/>
<path d="M239.139 53H209.349C204.738 53 201 56.7379 201 61.3488C201 65.9597 204.738 69.6976 209.349 69.6976H239.139C243.75 69.6976 247.488 65.9597 247.488 61.3488C247.488 56.7379 243.75 53 239.139 53Z" fill="#DEE0E5"/>
<path d="M211.376 64.8488C211.302 64.8488 211.239 64.8229 211.187 64.7712C211.135 64.7194 211.109 64.6565 211.109 64.5826V57.3611C211.109 57.2798 211.135 57.2132 211.187 57.1614C211.239 57.1097 211.302 57.0838 211.376 57.0838H214.082C214.829 57.0838 215.443 57.1984 215.924 57.4277C216.412 57.6569 216.778 57.9971 217.022 58.4482C217.273 58.8993 217.403 59.4503 217.41 60.101C217.425 60.4264 217.432 60.7149 217.432 60.9663C217.432 61.2177 217.425 61.5025 217.41 61.8205C217.395 62.5082 217.27 63.0776 217.033 63.5288C216.796 63.9725 216.438 64.3053 215.957 64.5271C215.484 64.7416 214.877 64.8488 214.138 64.8488H211.376ZM212.651 63.5731H214.082C214.496 63.5731 214.833 63.514 215.092 63.3956C215.351 63.2773 215.539 63.0887 215.657 62.8299C215.783 62.5637 215.85 62.2161 215.857 61.7872C215.865 61.5653 215.868 61.373 215.868 61.2103C215.876 61.0402 215.876 60.8739 215.868 60.7112C215.868 60.5411 215.865 60.3488 215.857 60.1343C215.842 59.5279 215.691 59.0805 215.402 58.7921C215.114 58.5037 214.655 58.3595 214.027 58.3595H212.651V63.5731ZM219.042 64.8488C218.968 64.8488 218.905 64.8229 218.854 64.7712C218.802 64.7194 218.776 64.6565 218.776 64.5826V59.3578C218.776 59.2765 218.802 59.2099 218.854 59.1582C218.905 59.1064 218.968 59.0805 219.042 59.0805H219.941C220.015 59.0805 220.078 59.1064 220.129 59.1582C220.188 59.2099 220.218 59.2765 220.218 59.3578V59.8126C220.388 59.576 220.606 59.3948 220.873 59.2691C221.146 59.1434 221.46 59.0805 221.815 59.0805H222.27C222.352 59.0805 222.414 59.1064 222.459 59.1582C222.511 59.2099 222.536 59.2728 222.536 59.3467V60.1454C222.536 60.2194 222.511 60.2822 222.459 60.334C222.414 60.3858 222.352 60.4117 222.27 60.4117H221.405C221.05 60.4117 220.773 60.5115 220.573 60.7112C220.381 60.9108 220.285 61.1845 220.285 61.532V64.5826C220.285 64.6565 220.259 64.7194 220.207 64.7712C220.155 64.8229 220.089 64.8488 220.007 64.8488H219.042ZM224.99 64.9597C224.605 64.9597 224.258 64.8858 223.947 64.7379C223.637 64.5826 223.389 64.3792 223.204 64.1278C223.027 63.8689 222.938 63.5805 222.938 63.2625C222.938 62.7449 223.145 62.3344 223.559 62.0312C223.981 61.7206 224.535 61.5135 225.223 61.41L226.743 61.1882V60.9552C226.743 60.6446 226.665 60.4043 226.51 60.2342C226.354 60.0641 226.088 59.979 225.711 59.979C225.445 59.979 225.227 60.0345 225.057 60.1454C224.894 60.249 224.772 60.3895 224.69 60.567C224.631 60.6631 224.546 60.7112 224.435 60.7112H223.559C223.478 60.7112 223.415 60.689 223.37 60.6446C223.333 60.6002 223.315 60.5411 223.315 60.4671C223.322 60.3488 223.37 60.2046 223.459 60.0345C223.548 59.8644 223.688 59.7017 223.881 59.5464C224.073 59.3837 224.321 59.2469 224.624 59.136C224.927 59.025 225.293 58.9696 225.722 58.9696C226.188 58.9696 226.58 59.0287 226.898 59.1471C227.223 59.258 227.482 59.4096 227.674 59.6019C227.867 59.7941 228.007 60.0197 228.096 60.2785C228.185 60.5374 228.229 60.811 228.229 61.0994V64.5826C228.229 64.6565 228.203 64.7194 228.151 64.7712C228.1 64.8229 228.037 64.8488 227.963 64.8488H227.064C226.983 64.8488 226.916 64.8229 226.865 64.7712C226.82 64.7194 226.798 64.6565 226.798 64.5826V64.15C226.702 64.2905 226.573 64.4236 226.41 64.5493C226.247 64.6676 226.048 64.7675 225.811 64.8488C225.582 64.9228 225.308 64.9597 224.99 64.9597ZM225.367 63.9059C225.626 63.9059 225.859 63.8505 226.066 63.7395C226.28 63.6286 226.447 63.4585 226.565 63.2293C226.691 62.9926 226.754 62.6968 226.754 62.3418V62.1089L225.644 62.2864C225.208 62.3529 224.883 62.4601 224.668 62.608C224.454 62.756 224.347 62.9371 224.347 63.1516C224.347 63.3143 224.395 63.4548 224.491 63.5731C224.594 63.6841 224.724 63.7691 224.879 63.8283C225.034 63.88 225.197 63.9059 225.367 63.9059ZM230.486 64.8488C230.412 64.8488 230.349 64.8229 230.297 64.7712C230.245 64.7194 230.219 64.6565 230.219 64.5826V60.2563H229.321C229.247 60.2563 229.184 60.2305 229.132 60.1787C229.08 60.1269 229.055 60.0641 229.055 59.9901V59.3467C229.055 59.2728 229.08 59.2099 229.132 59.1582C229.184 59.1064 229.247 59.0805 229.321 59.0805H230.219V58.6257C230.219 58.182 230.301 57.8159 230.463 57.5275C230.626 57.2317 230.866 57.0098 231.184 56.8619C231.502 56.714 231.905 56.6401 232.393 56.6401H233.148C233.229 56.6401 233.292 56.6659 233.336 56.7177C233.388 56.7695 233.414 56.8323 233.414 56.9063V57.5497C233.414 57.6236 233.388 57.6865 233.336 57.7383C233.292 57.79 233.229 57.8159 233.148 57.8159H232.438C232.142 57.8159 231.939 57.8899 231.828 58.0378C231.717 58.1857 231.661 58.4001 231.661 58.6812V59.0805H233.037C233.118 59.0805 233.181 59.1064 233.225 59.1582C233.277 59.2099 233.303 59.2728 233.303 59.3467V59.9901C233.303 60.0641 233.277 60.1269 233.225 60.1787C233.181 60.2305 233.118 60.2563 233.037 60.2563H231.661V64.5826C231.661 64.6565 231.635 64.7194 231.584 64.7712C231.532 64.8229 231.469 64.8488 231.395 64.8488H230.486ZM236.798 64.8488C236.354 64.8488 235.981 64.7712 235.678 64.6159C235.374 64.4606 235.149 64.2313 235.001 63.9281C234.853 63.6175 234.779 63.2329 234.779 62.7744V60.2563H233.903C233.829 60.2563 233.766 60.2305 233.714 60.1787C233.662 60.1269 233.637 60.0641 233.637 59.9901V59.3467C233.637 59.2728 233.662 59.2099 233.714 59.1582C233.766 59.1064 233.829 59.0805 233.903 59.0805H234.779V57.2391C234.779 57.1651 234.801 57.1023 234.846 57.0505C234.897 56.9987 234.964 56.9728 235.045 56.9728H235.944C236.018 56.9728 236.081 56.9987 236.132 57.0505C236.184 57.1023 236.21 57.1651 236.21 57.2391V59.0805H237.597C237.671 59.0805 237.734 59.1064 237.785 59.1582C237.837 59.2099 237.863 59.2728 237.863 59.3467V59.9901C237.863 60.0641 237.837 60.1269 237.785 60.1787C237.734 60.2305 237.671 60.2563 237.597 60.2563H236.21V62.6635C236.21 62.9667 236.262 63.2034 236.365 63.3735C236.476 63.5435 236.665 63.6286 236.931 63.6286H237.697C237.771 63.6286 237.833 63.6545 237.885 63.7062C237.937 63.758 237.963 63.8209 237.963 63.8948V64.5826C237.963 64.6565 237.937 64.7194 237.885 64.7712C237.833 64.8229 237.771 64.8488 237.697 64.8488H236.798Z" fill="#3A4880"/>
<path d="M239.139 53.6934H209.349C205.121 53.6934 201.693 57.1208 201.693 61.3489C201.693 65.5769 205.121 69.0044 209.349 69.0044H239.139C243.367 69.0044 246.795 65.5769 246.795 61.3489C246.795 57.1208 243.367 53.6934 239.139 53.6934Z" stroke="#3A4880" stroke-opacity="0.5" stroke-width="1.38661" stroke-dasharray="4.62 2.77"/>
<path opacity="0.2" d="M586 185H0V0H586V185Z" fill="url(#paint0_linear_121_3123)"/>
</g>
</g>
<defs>
<filter id="filter0_d_121_3123" x="32.3024" y="33.2268" width="522.395" height="177.395" filterUnits="userSpaceOnUse" color-interpolation-filters="sRGB">
<feFlood flood-opacity="0" result="BackgroundImageFix"/>
<feColorMatrix in="SourceAlpha" type="matrix" values="0 0 0 0 0 0 0 0 0 0 0 0 0 0 0 0 0 0 127 0" result="hardAlpha"/>
<feOffset dy="0.92441"/>
<feGaussianBlur stdDeviation="1.84882"/>
<feColorMatrix type="matrix" values="0 0 0 0 0 0 0 0 0 0 0 0 0 0 0 0 0 0 0.2 0"/>
<feBlend mode="normal" in2="BackgroundImageFix" result="effect1_dropShadow_121_3123"/>
<feBlend mode="normal" in="SourceGraphic" in2="effect1_dropShadow_121_3123" result="shape"/>
</filter>
<linearGradient id="paint0_linear_121_3123" x1="293" y1="256.688" x2="293" y2="123.95" gradientUnits="userSpaceOnUse">
<stop/>
<stop offset="1" stop-color="white" stop-opacity="0"/>
</linearGradient>
<clipPath id="clip0_121_3123">
<rect width="587" height="185" fill="white"/>
</clipPath>
</defs>
</svg>
