<svg width="177" height="88" viewBox="0 0 177 88" fill="none" xmlns="http://www.w3.org/2000/svg">
<path d="M97.0343 20.3849C97.0343 25.119 93.1966 28.9568 88.4625 28.9568C83.7283 28.9568 79.8906 25.119 79.8906 20.3849C79.8906 15.6508 83.7283 11.813 88.4625 11.813C93.1966 11.813 97.0343 15.6508 97.0343 20.3849Z" fill="#22626F"/>
<path d="M45.7124 36.5859C45.7124 44.8706 38.9964 51.5867 30.7117 51.5867C22.4269 51.5867 15.7109 44.8706 15.7109 36.5859C15.7109 28.3012 22.4269 21.5851 30.7117 21.5851C38.9964 21.5851 45.7124 28.3012 45.7124 36.5859Z" fill="white"/>
<path fill-rule="evenodd" clip-rule="evenodd" d="M49.1404 36.5858C49.1404 46.7642 40.8892 55.0154 30.7108 55.0154C20.5324 55.0154 12.2812 46.7642 12.2812 36.5858C12.2812 26.4074 20.5324 18.1562 30.7108 18.1562C40.8892 18.1562 49.1404 26.4074 49.1404 36.5858ZM30.7108 51.5867C38.9956 51.5867 45.7117 44.8706 45.7117 36.5858C45.7117 28.3011 38.9956 21.585 30.7108 21.585C22.4261 21.585 15.71 28.3011 15.71 36.5858C15.71 44.8706 22.4261 51.5867 30.7108 51.5867Z" fill="#033D58" fill-opacity="0.3"/>
<path fill-rule="evenodd" clip-rule="evenodd" d="M76.8667 24.0512L70.8501 32.79L68.732 31.3317L73.0383 25.077L66.1816 21.8135L67.2868 19.4915L76.8667 24.0512Z" fill="#22626F"/>
<path fill-rule="evenodd" clip-rule="evenodd" d="M43.4941 31.6612L72.952 23.7679L73.6176 26.2519L44.1596 34.1451L43.4941 31.6612Z" fill="#22626F"/>
<path d="M72.3461 46.1472L70.4643 47.0693L67.6416 40.2854L64.1289 43.8801V28.957L74.4788 39.0999L69.5234 39.4951L72.3461 46.1472Z" fill="black"/>
<path d="M70.0695 47.2339L70.2445 47.6544L70.6535 47.454L72.5353 46.5319L72.8997 46.3534L72.7412 45.9799L70.1507 39.8749L74.5136 39.527L75.4511 39.4522L74.7794 38.7939L64.4295 28.6511L63.7012 27.9374V28.957V43.8801V44.9315L64.436 44.1796L67.4958 41.0484L70.0695 47.2339Z" stroke="white" stroke-opacity="0.8" stroke-width="0.856817"/>
<path fill-rule="evenodd" clip-rule="evenodd" d="M30.7117 49.0151C37.5761 49.0151 43.1409 43.4504 43.1409 36.5859C43.1409 29.7214 37.5761 24.1566 30.7117 24.1566C23.8472 24.1566 18.2824 29.7214 18.2824 36.5859C18.2824 43.4504 23.8472 49.0151 30.7117 49.0151ZM30.7117 51.5867C38.9964 51.5867 45.7125 44.8706 45.7125 36.5859C45.7125 28.3012 38.9964 21.5851 30.7117 21.5851C22.4269 21.5851 15.7109 28.3012 15.7109 36.5859C15.7109 44.8706 22.4269 51.5867 30.7117 51.5867Z" fill="#22626F"/>
<path d="M39.2825 36.5863C39.2825 41.3204 35.4447 45.1582 30.7106 45.1582C25.9765 45.1582 22.1387 41.3204 22.1387 36.5863C22.1387 31.8522 25.9765 28.0144 30.7106 28.0144C35.4447 28.0144 39.2825 31.8522 39.2825 36.5863Z" fill="#79BFBE"/>
<path d="M144.465 40.89C144.465 49.1747 137.749 55.8908 129.464 55.8908C121.179 55.8908 114.463 49.1747 114.463 40.89C114.463 32.6052 121.179 25.8892 129.464 25.8892C137.749 25.8892 144.465 32.6052 144.465 40.89Z" fill="white"/>
<path fill-rule="evenodd" clip-rule="evenodd" d="M147.892 40.89C147.892 51.0684 139.641 59.3196 129.462 59.3196C119.284 59.3196 111.033 51.0684 111.033 40.89C111.033 30.7116 119.284 22.4604 129.462 22.4604C139.641 22.4604 147.892 30.7116 147.892 40.89ZM129.462 55.8909C137.747 55.8909 144.463 49.1747 144.463 40.89C144.463 32.6053 137.747 25.8892 129.462 25.8892C121.178 25.8892 114.461 32.6053 114.461 40.89C114.461 49.1747 121.178 55.8909 129.462 55.8909Z" fill="#033D58" fill-opacity="0.3"/>
<path d="M93.8164 61.8408C93.8164 60.894 94.5839 60.1265 95.5307 60.1265H163.396C164.343 60.1265 165.11 60.894 165.11 61.8408V74.4733C165.11 75.4201 164.343 76.1877 163.396 76.1877H95.5307C94.5839 76.1877 93.8164 75.4201 93.8164 74.4733V61.8408Z" fill="white"/>
<path fill-rule="evenodd" clip-rule="evenodd" d="M163.396 60.9837H95.5307C95.0573 60.9837 94.6736 61.3674 94.6736 61.8408V74.4733C94.6736 74.9467 95.0573 75.3305 95.5307 75.3305H163.396C163.869 75.3305 164.253 74.9467 164.253 74.4733V61.8408C164.253 61.3674 163.869 60.9837 163.396 60.9837ZM95.5307 60.1265C94.5839 60.1265 93.8164 60.894 93.8164 61.8408V74.4733C93.8164 75.4201 94.5839 76.1877 95.5307 76.1877H163.396C164.343 76.1877 165.11 75.4201 165.11 74.4733V61.8408C165.11 60.894 164.343 60.1265 163.396 60.1265H95.5307Z" fill="#22626F"/>
<path fill-rule="evenodd" clip-rule="evenodd" d="M129.464 53.3192C136.329 53.3192 141.893 47.7544 141.893 40.89C141.893 34.0255 136.329 28.4607 129.464 28.4607C122.6 28.4607 117.035 34.0255 117.035 40.89C117.035 47.7544 122.6 53.3192 129.464 53.3192ZM129.464 55.8908C137.749 55.8908 144.465 49.1747 144.465 40.89C144.465 32.6052 137.749 25.8892 129.464 25.8892C121.179 25.8892 114.463 32.6052 114.463 40.89C114.463 49.1747 121.179 55.8908 129.464 55.8908Z" fill="#22626F"/>
<path d="M138.035 40.8904C138.035 45.6245 134.197 49.4623 129.463 49.4623C124.729 49.4623 120.891 45.6245 120.891 40.8904C120.891 36.1562 124.729 32.3185 129.463 32.3185C134.197 32.3185 138.035 36.1562 138.035 40.8904Z" fill="#79BFBE"/>
<path d="M144.799 71.8305C144.442 71.8305 144.12 71.7619 143.832 71.6247C143.544 71.4807 143.314 71.2921 143.143 71.059C142.978 70.819 142.896 70.5515 142.896 70.2567C142.896 69.7766 143.088 69.396 143.472 69.1149C143.863 68.8269 144.377 68.6349 145.015 68.5389L146.424 68.3331V68.1171C146.424 67.8291 146.352 67.6062 146.208 67.4485C146.064 67.2908 145.817 67.2119 145.468 67.2119C145.221 67.2119 145.018 67.2634 144.861 67.3662C144.71 67.4622 144.597 67.5925 144.521 67.7571C144.466 67.8462 144.388 67.8908 144.285 67.8908H143.472C143.397 67.8908 143.338 67.8702 143.297 67.8291C143.263 67.788 143.246 67.7331 143.246 67.6645C143.253 67.5548 143.297 67.4211 143.379 67.2634C143.462 67.1056 143.592 66.9548 143.77 66.8108C143.949 66.6599 144.178 66.533 144.46 66.4302C144.741 66.3273 145.08 66.2759 145.478 66.2759C145.91 66.2759 146.273 66.3307 146.568 66.4405C146.87 66.5433 147.11 66.6839 147.288 66.8622C147.467 67.0405 147.597 67.2496 147.679 67.4897C147.761 67.7297 147.803 67.9834 147.803 68.2508V71.4807C147.803 71.5493 147.779 71.6076 147.731 71.6556C147.683 71.7036 147.624 71.7276 147.556 71.7276H146.722C146.647 71.7276 146.585 71.7036 146.537 71.6556C146.496 71.6076 146.476 71.5493 146.476 71.4807V71.0796C146.386 71.2099 146.266 71.3333 146.116 71.4499C145.965 71.5596 145.78 71.6522 145.56 71.7276C145.348 71.7962 145.094 71.8305 144.799 71.8305ZM145.149 70.8533C145.389 70.8533 145.605 70.8018 145.797 70.699C145.996 70.5961 146.15 70.4384 146.26 70.2258C146.376 70.0064 146.434 69.7321 146.434 69.4029V69.1869L145.406 69.3515C145.001 69.4132 144.7 69.5126 144.501 69.6498C144.302 69.7869 144.202 69.9549 144.202 70.1538C144.202 70.3047 144.247 70.435 144.336 70.5447C144.432 70.6475 144.552 70.7264 144.696 70.7813C144.84 70.8293 144.991 70.8533 145.149 70.8533Z" fill="black" fill-opacity="0.65"/>
<path d="M139.683 71.8305C139.189 71.8305 138.754 71.7379 138.376 71.5527C138.006 71.3676 137.715 71.1001 137.502 70.7504C137.296 70.3938 137.183 69.9652 137.163 69.4646C137.156 69.3618 137.152 69.228 137.152 69.0635C137.152 68.892 137.156 68.7514 137.163 68.6417C137.183 68.1411 137.296 67.716 137.502 67.3662C137.715 67.0096 138.006 66.7388 138.376 66.5536C138.754 66.3685 139.189 66.2759 139.683 66.2759C140.122 66.2759 140.495 66.3376 140.804 66.461C141.113 66.5845 141.366 66.7388 141.565 66.9239C141.764 67.1091 141.911 67.3045 142.007 67.5102C142.11 67.7091 142.165 67.8908 142.172 68.0554C142.179 68.1308 142.155 68.1926 142.1 68.2406C142.052 68.2817 141.994 68.3023 141.925 68.3023H141.02C140.951 68.3023 140.897 68.2851 140.855 68.2508C140.821 68.2166 140.787 68.1651 140.753 68.0965C140.65 67.8222 140.512 67.6302 140.341 67.5205C140.176 67.4039 139.964 67.3457 139.703 67.3457C139.36 67.3457 139.086 67.4554 138.88 67.6748C138.682 67.8874 138.575 68.2268 138.562 68.6932C138.548 68.9537 138.548 69.1937 138.562 69.4132C138.575 69.8864 138.682 70.2292 138.88 70.4418C139.086 70.6544 139.36 70.7607 139.703 70.7607C139.971 70.7607 140.187 70.7058 140.351 70.5961C140.516 70.4795 140.65 70.2841 140.753 70.0098C140.787 69.9412 140.821 69.8898 140.855 69.8555C140.897 69.8212 140.951 69.8041 141.02 69.8041H141.925C141.994 69.8041 142.052 69.8281 142.1 69.8761C142.155 69.9172 142.179 69.9755 142.172 70.0509C142.165 70.1744 142.131 70.315 142.069 70.4727C142.014 70.6235 141.922 70.7813 141.791 70.9458C141.668 71.1036 141.51 71.251 141.318 71.3882C141.126 71.5184 140.893 71.6247 140.619 71.707C140.351 71.7893 140.039 71.8305 139.683 71.8305Z" fill="black" fill-opacity="0.65"/>
<path d="M134.874 71.7276C134.805 71.7276 134.747 71.7036 134.699 71.6556C134.651 71.6076 134.627 71.5493 134.627 71.4807V66.6256C134.627 66.557 134.651 66.4987 134.699 66.4507C134.747 66.4027 134.805 66.3787 134.874 66.3787H135.727C135.803 66.3787 135.861 66.4027 135.902 66.4507C135.95 66.4987 135.974 66.557 135.974 66.6256V71.4807C135.974 71.5493 135.95 71.6076 135.902 71.6556C135.861 71.7036 135.803 71.7276 135.727 71.7276H134.874ZM134.833 65.4941C134.757 65.4941 134.695 65.4735 134.647 65.4324C134.606 65.3844 134.586 65.3227 134.586 65.2472V64.5066C134.586 64.4381 134.606 64.3798 134.647 64.3318C134.695 64.2838 134.757 64.2598 134.833 64.2598H135.769C135.844 64.2598 135.906 64.2838 135.954 64.3318C136.002 64.3798 136.026 64.4381 136.026 64.5066V65.2472C136.026 65.3227 136.002 65.3844 135.954 65.4324C135.906 65.4735 135.844 65.4941 135.769 65.4941H134.833Z" fill="black" fill-opacity="0.65"/>
<path d="M131.94 71.7276C131.871 71.7276 131.813 71.7036 131.765 71.6556C131.717 71.6076 131.693 71.5493 131.693 71.4807V64.6712C131.693 64.6026 131.717 64.5443 131.765 64.4963C131.813 64.4483 131.871 64.4243 131.94 64.4243H132.793C132.862 64.4243 132.92 64.4483 132.968 64.4963C133.016 64.5443 133.04 64.6026 133.04 64.6712V71.4807C133.04 71.5493 133.016 71.6076 132.968 71.6556C132.92 71.7036 132.862 71.7276 132.793 71.7276H131.94Z" fill="black" fill-opacity="0.65"/>
<path d="M125.622 73.682C125.554 73.682 125.495 73.658 125.447 73.61C125.399 73.562 125.375 73.5037 125.375 73.4351V66.6256C125.375 66.557 125.399 66.4987 125.447 66.4507C125.495 66.4027 125.554 66.3787 125.622 66.3787H126.435C126.51 66.3787 126.569 66.4027 126.61 66.4507C126.658 66.4987 126.682 66.557 126.682 66.6256V67.0371C126.846 66.8176 127.062 66.6359 127.33 66.4919C127.597 66.3479 127.93 66.2759 128.328 66.2759C128.691 66.2759 129.007 66.3342 129.274 66.4507C129.541 66.5673 129.764 66.7353 129.943 66.9548C130.121 67.1674 130.258 67.4211 130.354 67.716C130.45 68.0108 130.505 68.3366 130.519 68.6932C130.525 68.8097 130.529 68.9297 130.529 69.0532C130.529 69.1766 130.525 69.3 130.519 69.4235C130.512 69.7664 130.46 70.0852 130.364 70.3801C130.268 70.6681 130.128 70.9218 129.943 71.1413C129.764 71.3539 129.541 71.5219 129.274 71.6453C129.007 71.7687 128.691 71.8305 128.328 71.8305C127.957 71.8305 127.642 71.7653 127.381 71.635C127.121 71.4979 126.908 71.3196 126.744 71.1001V73.4351C126.744 73.5037 126.72 73.562 126.672 73.61C126.63 73.658 126.572 73.682 126.497 73.682H125.622ZM127.947 70.7298C128.242 70.7298 128.472 70.6681 128.636 70.5447C128.801 70.4144 128.917 70.2464 128.986 70.0407C129.061 69.8349 129.106 69.6086 129.12 69.3618C129.133 69.156 129.133 68.9503 129.12 68.7446C129.106 68.4977 129.061 68.2714 128.986 68.0657C128.917 67.86 128.801 67.6954 128.636 67.5719C128.472 67.4417 128.242 67.3765 127.947 67.3765C127.666 67.3765 127.436 67.4417 127.258 67.5719C127.086 67.7022 126.96 67.8702 126.877 68.076C126.802 68.2748 126.757 68.4806 126.744 68.6932C126.737 68.8166 126.733 68.9469 126.733 69.084C126.733 69.2212 126.737 69.3549 126.744 69.4852C126.75 69.6909 126.798 69.8898 126.888 70.0818C126.977 70.2669 127.107 70.4212 127.278 70.5447C127.45 70.6681 127.673 70.7298 127.947 70.7298Z" fill="black" fill-opacity="0.65"/>
<path d="M119.304 73.682C119.235 73.682 119.177 73.658 119.129 73.61C119.081 73.562 119.057 73.5037 119.057 73.4351V66.6256C119.057 66.557 119.081 66.4987 119.129 66.4507C119.177 66.4027 119.235 66.3787 119.304 66.3787H120.117C120.192 66.3787 120.25 66.4027 120.291 66.4507C120.339 66.4987 120.363 66.557 120.363 66.6256V67.0371C120.528 66.8176 120.744 66.6359 121.012 66.4919C121.279 66.3479 121.612 66.2759 122.009 66.2759C122.373 66.2759 122.688 66.3342 122.956 66.4507C123.223 66.5673 123.446 66.7353 123.624 66.9548C123.803 67.1674 123.94 67.4211 124.036 67.716C124.132 68.0108 124.187 68.3366 124.2 68.6932C124.207 68.8097 124.211 68.9297 124.211 69.0532C124.211 69.1766 124.207 69.3 124.2 69.4235C124.193 69.7664 124.142 70.0852 124.046 70.3801C123.95 70.6681 123.809 70.9218 123.624 71.1413C123.446 71.3539 123.223 71.5219 122.956 71.6453C122.688 71.7687 122.373 71.8305 122.009 71.8305C121.639 71.8305 121.324 71.7653 121.063 71.635C120.802 71.4979 120.59 71.3196 120.425 71.1001V73.4351C120.425 73.5037 120.401 73.562 120.353 73.61C120.312 73.658 120.254 73.682 120.178 73.682H119.304ZM121.629 70.7298C121.924 70.7298 122.153 70.6681 122.318 70.5447C122.482 70.4144 122.599 70.2464 122.668 70.0407C122.743 69.8349 122.788 69.6086 122.801 69.3618C122.815 69.156 122.815 68.9503 122.801 68.7446C122.788 68.4977 122.743 68.2714 122.668 68.0657C122.599 67.86 122.482 67.6954 122.318 67.5719C122.153 67.4417 121.924 67.3765 121.629 67.3765C121.348 67.3765 121.118 67.4417 120.94 67.5719C120.768 67.7022 120.641 67.8702 120.559 68.076C120.483 68.2748 120.439 68.4806 120.425 68.6932C120.418 68.8166 120.415 68.9469 120.415 69.084C120.415 69.2212 120.418 69.3549 120.425 69.4852C120.432 69.6909 120.48 69.8898 120.569 70.0818C120.658 70.2669 120.789 70.4212 120.96 70.5447C121.132 70.6681 121.354 70.7298 121.629 70.7298Z" fill="black" fill-opacity="0.65"/>
<path d="M111.597 71.7276C111.542 71.7276 111.491 71.707 111.443 71.6659C111.401 71.6247 111.381 71.5733 111.381 71.5116C111.381 71.4842 111.388 71.4533 111.401 71.419L113.88 64.7844C113.901 64.7158 113.939 64.6575 113.994 64.6095C114.055 64.5547 114.138 64.5272 114.24 64.5272H115.362C115.465 64.5272 115.543 64.5547 115.598 64.6095C115.653 64.6575 115.694 64.7158 115.722 64.7844L118.201 71.419C118.208 71.4533 118.211 71.4842 118.211 71.5116C118.211 71.5733 118.19 71.6247 118.149 71.6659C118.108 71.707 118.06 71.7276 118.005 71.7276H117.11C117.014 71.7276 116.942 71.707 116.894 71.6659C116.853 71.6179 116.826 71.5733 116.812 71.5322L116.329 70.2772H113.274L112.79 71.5322C112.776 71.5733 112.746 71.6179 112.698 71.6659C112.656 71.707 112.588 71.7276 112.492 71.7276H111.597ZM113.634 69.0943H115.969L114.796 65.9159L113.634 69.0943Z" fill="black" fill-opacity="0.65"/>
<path d="M151.43 74.5799H147.285C146.958 74.5799 146.787 74.4441 146.787 74.2157C146.787 73.9811 146.958 73.8577 147.285 73.8577H148.878V62.4437H147.285C146.958 62.4437 146.787 62.3141 146.787 62.0795C146.787 61.8511 146.958 61.7277 147.285 61.7277H151.43C151.758 61.7277 151.928 61.8511 151.928 62.0795C151.928 62.3141 151.758 62.4437 151.43 62.4437H149.838V73.8577H151.43C151.758 73.8577 151.928 73.9811 151.928 74.2157C151.928 74.4441 151.758 74.5799 151.43 74.5799Z" fill="black"/>
<path d="M147.285 75.0083H151.43C151.644 75.0083 151.873 74.9653 152.059 74.8265C152.262 74.674 152.357 74.449 152.357 74.2157C152.357 73.9811 152.263 73.753 152.052 73.6011C151.865 73.4662 151.637 73.4293 151.43 73.4293H150.266V62.8721H151.43C151.64 62.8721 151.87 62.8322 152.057 62.6942C152.264 62.5407 152.357 62.3131 152.357 62.0795C152.357 61.844 152.26 61.6181 152.05 61.4688C151.864 61.3363 151.637 61.2993 151.43 61.2993H147.285C147.079 61.2993 146.852 61.3363 146.665 61.4688C146.455 61.6181 146.359 61.844 146.359 62.0795C146.359 62.3131 146.451 62.5407 146.659 62.6942C146.846 62.8322 147.075 62.8721 147.285 62.8721H148.449V73.4293H147.285C147.079 73.4293 146.85 73.4662 146.663 73.6011C146.452 73.753 146.359 73.9811 146.359 74.2157C146.359 74.449 146.453 74.674 146.657 74.8265C146.842 74.9653 147.071 75.0083 147.285 75.0083Z" stroke="white" stroke-opacity="0.8" stroke-width="0.856817"/>
</svg>
