<svg width="131" height="131" viewBox="0 0 131 131" fill="none" xmlns="http://www.w3.org/2000/svg">
<circle opacity="0.1" cx="64.5566" cy="63.418" r="54.5" fill="#009193"/>
<rect x="2.05664" y="119.918" width="126" height="1" fill="#6A6A6A"/>
<path d="M17.124 31.9877H112.532C114.189 31.9877 115.532 33.3309 115.532 34.9877V92.0328H14.124V34.9877C14.124 33.3309 15.4672 31.9877 17.124 31.9877Z" fill="white" stroke="#6A6A6A" stroke-width="2" stroke-linecap="round" stroke-linejoin="round"/>
<path d="M71.7539 96.6665L53.3566 96.6666" stroke="#6A6A6A" stroke-width="2" stroke-linecap="round"/>
<path d="M17.2598 36.1554L17.2598 87.8596" stroke="#6A6A6A" stroke-linecap="round"/>
<path d="M112.399 36.1554L112.399 88.8937" stroke="#6A6A6A" stroke-linecap="round"/>
<rect x="12.0566" y="91.9626" width="105.545" height="6.27267" rx="2" fill="white" stroke="#6A6A6A" stroke-width="2" stroke-linecap="round" stroke-linejoin="round"/>
<path d="M21.9133 87.8269H32.2542C33.1297 87.8269 33.8394 88.5366 33.8394 89.4121C33.8394 90.2876 33.1297 90.9973 32.2542 90.9973H21.9133C21.0378 90.9973 20.3281 90.2876 20.3281 89.4121C20.3281 88.5366 21.0378 87.8269 21.9133 87.8269Z" fill="white" stroke="#6A6A6A" stroke-width="2" stroke-linecap="round" stroke-linejoin="round"/>
<circle cx="30.7035" cy="46.4956" r="5.20451" fill="white" stroke="#6A6A6A" stroke-width="2" stroke-linecap="round" stroke-linejoin="round"/>
<circle cx="97.9184" cy="46.4956" r="5.20451" fill="white" stroke="#6A6A6A" stroke-width="2" stroke-linecap="round" stroke-linejoin="round"/>
<circle cx="64.8285" cy="80.6225" r="5.20451" fill="white" stroke="#6A6A6A" stroke-width="2" stroke-linecap="round" stroke-linejoin="round"/>
<path d="M42.0772 46.4965L84.4746 46.4965" stroke="#6A6A6A" stroke-width="2" stroke-linecap="round"/>
<path d="M82.4075 43.3947L85.5098 46.4377L82.4075 49.5992" stroke="#6A6A6A" stroke-width="2" stroke-linecap="round" stroke-linejoin="round"/>
<path d="M64.8311 53.7347L64.8311 69.2459" stroke="#6A6A6A" stroke-width="2" stroke-linecap="round"/>
<path d="M67.9307 67.1776L64.8877 70.2799L61.7262 67.1776" stroke="#6A6A6A" stroke-width="2" stroke-linecap="round" stroke-linejoin="round"/>
<path d="M86.9301 77.1102L93.8555 58.4055" stroke="#6A6A6A" stroke-width="2" stroke-linecap="round"/>
<path d="M89.8024 59.4868L94.3395 56.8729L96.5498 61.6197" stroke="#6A6A6A" stroke-width="2" stroke-linecap="round" stroke-linejoin="round"/>
<rect x="82.374" y="77.4858" width="8.34084" height="7.30676" rx="1" fill="white" stroke="#6A6A6A" stroke-width="2"/>
<rect x="60.6562" y="42.3269" width="8.34084" height="7.30676" rx="1" fill="white" stroke="#6A6A6A" stroke-width="2"/>
<rect x="57.0566" y="29.418" width="14.5113" height="5.20451" rx="0.5" fill="white" stroke="#6A6A6A"/>
<path d="M56.5533 98.2019V97.2019H55.7258L55.571 98.0148L56.5533 98.2019ZM73.0987 98.2019L74.081 98.0148L73.9262 97.2019H73.0987V98.2019ZM76.2527 120.105C76.356 120.647 76.8796 121.003 77.4221 120.9C77.9647 120.797 78.3207 120.273 78.2174 119.731L76.2527 120.105ZM51.4347 119.731C51.3313 120.273 51.6873 120.797 52.2299 120.9C52.7724 121.003 53.296 120.647 53.3993 120.105L51.4347 119.731ZM56.5533 99.2019H73.0987V97.2019H56.5533V99.2019ZM72.1163 98.389L76.2527 120.105L78.2174 119.731L74.081 98.0148L72.1163 98.389ZM53.3993 120.105L57.5357 98.389L55.571 98.0148L51.4347 119.731L53.3993 120.105Z" fill="#6A6A6A"/>
</svg>
