<svg width="32" height="32" viewBox="0 0 32 32" fill="none" xmlns="http://www.w3.org/2000/svg">
<path fill-rule="evenodd" clip-rule="evenodd" d="M15.875 22.7822C16.4334 22.7822 16.886 23.2279 16.886 23.7778V27.0133C16.886 28.6628 15.5281 30 13.853 30H7.02885C6.47049 30 6.01786 29.5543 6.01786 29.0044C6.01786 28.4546 6.47049 28.0089 7.02885 28.0089H13.853C14.4114 28.0089 14.864 27.5632 14.864 27.0133V23.7778C14.864 23.2279 15.3166 22.7822 15.875 22.7822Z" fill="black"/>
<path d="M4.375 11.7067C4.375 11.1568 4.82764 10.7111 5.38599 10.7111H26.364C26.9224 10.7111 27.375 11.1568 27.375 11.7067V12.3289C27.375 12.8787 26.9224 13.3244 26.364 13.3244H5.38599C4.82764 13.3244 4.375 12.8787 4.375 12.3289V11.7067Z" fill="black"/>
<path d="M9.68269 9.84L9.68269 2.99556C9.68269 2.44573 10.1353 2 10.6937 2L12.2102 2C12.7685 2 13.2212 2.44573 13.2212 2.99556V9.84H9.68269Z" fill="black"/>
<path d="M18.5288 9.84V2.99556C18.5288 2.44573 18.9815 2 19.5398 2L21.0563 2C21.6147 2 22.0673 2.44573 22.0673 2.99556V9.84H18.5288Z" fill="black"/>
<path fill-rule="evenodd" clip-rule="evenodd" d="M6.77412 12.9511H24.9719V18.9244C24.9719 22.2234 22.2561 24.8978 18.906 24.8978H12.8401C9.48994 24.8978 6.77412 22.2234 6.77412 18.9244V12.9511ZM9.68269 15.0667H22.0673V16.8089H9.68269V15.0667ZM20.2981 18.5511H11.4519V20.2933H20.2981V18.5511Z" fill="black"/>
</svg>
