<svg width="32" height="32" viewBox="0 0 32 32" fill="none" xmlns="http://www.w3.org/2000/svg">
<path d="M14 6.54053C13.4477 6.54053 13 6.98824 13 7.54053V11.5405C13 12.0928 13.4477 12.5405 14 12.5405H15.25V15.7905H9C8.0335 15.7905 7.25 16.574 7.25 17.5405V19.5405H6C5.44772 19.5405 5 19.9882 5 20.5405V24.5405C5 25.0928 5.44772 25.5405 6 25.5405H10C10.5523 25.5405 11 25.0928 11 24.5405V20.5405C11 19.9882 10.5523 19.5405 10 19.5405H8.75V17.5405C8.75 17.4025 8.86193 17.2905 9 17.2905H15.25V19.5405H14C13.4477 19.5405 13 19.9882 13 20.5405V24.5405C13 25.0928 13.4477 25.5405 14 25.5405H18C18.5523 25.5405 19 25.0928 19 24.5405V20.5405C19 19.9882 18.5523 19.5405 18 19.5405H16.75V17.2905H23C23.1381 17.2905 23.25 17.4025 23.25 17.5405V19.5405H22C21.4477 19.5405 21 19.9882 21 20.5405V24.5405C21 25.0928 21.4477 25.5405 22 25.5405H26C26.5523 25.5405 27 25.0928 27 24.5405V20.5405C27 19.9882 26.5523 19.5405 26 19.5405H24.75V17.5405C24.75 16.574 23.9665 15.7905 23 15.7905H16.75V12.5405H18C18.5523 12.5405 19 12.0928 19 11.5405V7.54053C19 6.98824 18.5523 6.54053 18 6.54053H14Z" fill="black"/>
</svg>
