<!--
 Copyright 2023-2025 Solace Systems. All rights reserved.

 Licensed under the Apache License, Version 2.0 (the "License");
 you may not use this file except in compliance with the License.
 You may obtain a copy of the License at

     http://www.apache.org/licenses/LICENSE-2.0

 Unless required by applicable law or agreed to in writing, software
 distributed under the License is distributed on an "AS IS" BASIS,
 WITHOUT WARRANTIES OR CONDITIONS OF ANY KIND, either express or implied.
 See the License for the specific language governing permissions and
 limitations under the License.
-->
<svg width="130" height="130" viewBox="0 0 130 130" fill="none" xmlns="http://www.w3.org/2000/svg">
<path d="M118.767 63.287C118.767 93.1567 94.5533 117.371 64.6836 117.371C34.8137 117.371 10.5996 93.1567 10.5996 63.287C10.5996 33.4173 34.8137 9.203 64.6836 9.203C94.5533 9.203 118.767 33.4173 118.767 63.287Z" fill="#033D58" fill-opacity="0.1"/>
<path d="M2.66016 118.364H127.699V119.356H2.66016V118.364Z" fill="#969696"/>
<path d="M93.3612 30.0857H36.0064C34.3622 30.0857 33.0293 31.4186 33.0293 33.0628V110.483C33.0293 112.127 34.3622 113.46 36.0064 113.46H93.3612C95.0054 113.46 96.3383 112.127 96.3383 110.483V33.0628C96.3383 31.4186 95.0054 30.0857 93.3612 30.0857Z" fill="white" stroke="#969696" stroke-width="2"/>
<path d="M37.2109 30.1093V106.455" stroke="#969696"/>
<path d="M95.3137 109.294H74.1699" stroke="#969696"/>
<path d="M95.3131 111.279H87.4219" stroke="#969696"/>
<path d="M33.8301 106.736H95.3136" stroke="#969696" stroke-width="2"/>
<mask id="mask0_121_3233" style="mask-type:luminance" maskUnits="userSpaceOnUse" x="60" y="49" width="11" height="9">
<path fill-rule="evenodd" clip-rule="evenodd" d="M60.7149 57.3661H60.2188V54.1905C60.2188 51.5597 62.4402 49.4271 65.1806 49.4271C67.9209 49.4271 70.1424 51.5597 70.1424 54.1905L70.1425 57.3661H69.6463V57.8131H68.1577V54.6375C68.1577 52.8837 66.8247 51.462 65.1806 51.462C63.5363 51.462 62.2035 52.8837 62.2035 54.6375V57.8131H60.7149V57.3661Z" fill="white"/>
</mask>
<g mask="url(#mask0_121_3233)">
<path d="M60.7153 57.366H62.7001V55.3813H60.7153V57.366ZM60.2191 57.366H58.2344V59.3508H60.2191V57.366ZM70.1428 54.1905H68.1581V56.1752H70.1428V54.1905ZM70.1428 54.1905H72.1276V52.2057H70.1429L70.1428 54.1905ZM70.1429 57.366V59.3508H72.1276V57.366H70.1429ZM69.6467 57.366V55.3813H67.662V57.366H69.6467ZM69.6467 57.8131V59.7978H71.6315V57.8131H69.6467ZM68.1582 57.8131H66.1734V59.7978H68.1582V57.8131ZM68.1582 54.6375H70.1429V52.6386L68.144 52.6529L68.1582 54.6375ZM68.1582 54.6375H66.1733V56.6365L68.1723 56.6223L68.1582 54.6375ZM62.2039 57.8131V59.7978H64.1886V57.8131H62.2039ZM60.7153 57.8131H58.7306V59.7978H60.7153V57.8131ZM60.7153 55.3813H60.2191V59.3508H60.7153V55.3813ZM62.2039 57.366V54.1905H58.2344V57.366H62.2039ZM62.2039 54.1905C62.2039 52.7315 63.4596 51.4118 65.181 51.4118V47.4424C61.4216 47.4424 58.2344 50.388 58.2344 54.1905H62.2039ZM65.181 51.4118C66.9023 51.4118 68.1581 52.7315 68.1581 54.1905H72.1276C72.1276 50.388 68.9403 47.4424 65.181 47.4424V51.4118ZM68.1581 54.1905L68.1582 57.366H72.1276V54.1905H68.1581ZM70.1429 55.3813H69.6467V59.3508H70.1429V55.3813ZM71.6315 57.8131V57.366H67.662V57.8131H71.6315ZM68.1582 59.7978H69.6467V55.8284H68.1582V59.7978ZM66.1733 54.6375L66.1734 57.8131H70.1429V54.6375H66.1733ZM65.181 53.4467C65.6103 53.4467 66.1733 53.8572 66.1733 54.6375H70.1429C70.1429 51.9102 68.04 49.4772 65.181 49.4772V53.4467ZM64.1886 54.6375C64.1886 53.8572 64.7516 53.4467 65.181 53.4467V49.4772C62.3219 49.4772 60.2191 51.9102 60.2191 54.6375H64.1886ZM64.1886 57.8131V54.6375H60.2191V57.8131H64.1886ZM60.7153 59.7978H62.2039V55.8284H60.7153V59.7978ZM58.7306 57.366V57.8131H62.7001V57.366H58.7306Z" fill="#969696"/>
</g>
<mask id="mask1_121_3233" style="mask-type:luminance" maskUnits="userSpaceOnUse" x="58" y="56" width="15" height="12">
<path d="M58.2324 57.366C58.2324 56.8179 58.6767 56.3737 59.2247 56.3737H71.1331C71.6811 56.3737 72.1255 56.8179 72.1255 57.366V66.2973C72.1255 66.8454 71.6811 67.2897 71.1331 67.2897H59.2247C58.6767 67.2897 58.2324 66.8454 58.2324 66.2973V57.366Z" fill="white"/>
</mask>
<g mask="url(#mask1_121_3233)">
<path d="M59.2251 58.3584H71.1335V54.3889H59.2251V58.3584ZM70.1412 57.366V66.2973H74.1106V57.366H70.1412ZM71.1335 65.3049H59.2251V69.2744H71.1335V65.3049ZM60.2175 66.2973V57.366H56.248V66.2973H60.2175ZM59.2251 65.3049C59.7731 65.3049 60.2175 65.7492 60.2175 66.2973H56.248C56.248 67.9416 57.5809 69.2744 59.2251 69.2744V65.3049ZM70.1412 66.2973C70.1412 65.7492 70.5854 65.3049 71.1335 65.3049V69.2744C72.7777 69.2744 74.1106 67.9416 74.1106 66.2973H70.1412ZM71.1335 58.3584C70.5854 58.3584 70.1412 57.9141 70.1412 57.366H74.1106C74.1106 55.7219 72.7777 54.3889 71.1335 54.3889V58.3584ZM59.2251 54.3889C57.5809 54.3889 56.248 55.7219 56.248 57.366H60.2175C60.2175 57.9141 59.7731 58.3584 59.2251 58.3584V54.3889Z" fill="#969696"/>
</g>
<path fill-rule="evenodd" clip-rule="evenodd" d="M50.6094 80.646C50.6094 80.3719 50.8316 80.1498 51.1056 80.1498H79.2561C79.5301 80.1498 79.7522 80.3719 79.7522 80.646C79.7522 80.92 79.5301 81.1422 79.2561 81.1422H51.1056C50.8316 81.1422 50.6094 80.92 50.6094 80.646Z" fill="#969696"/>
<path fill-rule="evenodd" clip-rule="evenodd" d="M54.4199 89.7268C54.4199 89.4527 54.5838 89.2306 54.7862 89.2306H75.5716C75.7739 89.2306 75.938 89.4527 75.938 89.7268C75.938 90.0008 75.7739 90.223 75.5716 90.223H54.7862C54.5838 90.223 54.4199 90.0008 54.4199 89.7268Z" fill="#969696"/>
<path fill-rule="evenodd" clip-rule="evenodd" d="M50.6094 85.1864C50.6094 84.9123 50.8316 84.6902 51.1056 84.6902H79.2561C79.5301 84.6902 79.7522 84.9123 79.7522 85.1864C79.7522 85.4604 79.5301 85.6826 79.2561 85.6826H51.1056C50.8316 85.6826 50.6094 85.4604 50.6094 85.1864Z" fill="#969696"/>
<path fill-rule="evenodd" clip-rule="evenodd" d="M65.9573 62.3743C66.539 62.0872 66.939 61.4881 66.939 60.7955C66.939 59.8237 66.1513 59.0359 65.1794 59.0359C64.2076 59.0359 63.4199 59.8237 63.4199 60.7955C63.4199 61.4882 63.82 62.0873 64.4017 62.3744V63.7027C64.4017 64.1322 64.7499 64.4805 65.1795 64.4805C65.6091 64.4805 65.9573 64.1322 65.9573 63.7027V62.3743Z" fill="#969696"/>
<path d="M65.3155 72.4508C73.0146 72.4508 79.256 66.2094 79.256 58.5103C79.256 50.8112 73.0146 44.5698 65.3155 44.5698C57.6164 44.5698 51.375 50.8112 51.375 58.5103C51.375 66.2094 57.6164 72.4508 65.3155 72.4508Z" stroke="#969696"/>
</svg>
