<?xml version="1.0" encoding="utf-8"?>
<!--
  Copyright 2023-2025 Solace Systems. All rights reserved.

  Licensed under the Apache License, Version 2.0 (the "License");
  you may not use this file except in compliance with the License.
  You may obtain a copy of the License at

      http://www.apache.org/licenses/LICENSE-2.0

  Unless required by applicable law or agreed to in writing, software
  distributed under the License is distributed on an "AS IS" BASIS,
  WITHOUT WARRANTIES OR CONDITIONS OF ANY KIND, either express or implied.
  See the License for the specific language governing permissions and
  limitations under the License.
-->
<svg width="75" height="45" viewBox="0 0 75 45" fill="none" xmlns="http://www.w3.org/2000/svg">
<g clip-path="url(#clip0_121_1245)">
<path d="M0 2C0 0.89543 0.895431 0 2 0H73C74.1046 0 75 0.895431 75 2V43C75 44.1046 74.1046 45 73 45H2C0.895429 45 0 44.1046 0 43V2Z" fill="white"/>
<path d="M0 2C0 0.89543 0.895431 0 2 0H73C74.1046 0 75 0.895431 75 2V43C75 44.1046 74.1046 45 73 45H2C0.895429 45 0 44.1046 0 43V2Z" fill="white"/>
<path fill-rule="evenodd" clip-rule="evenodd" d="M73 1H2C1.44772 1 1 1.44772 1 2V43C1 43.5523 1.44771 44 2 44H73C73.5523 44 74 43.5523 74 43V2C74 1.44771 73.5523 1 73 1ZM2 0C0.895431 0 0 0.89543 0 2V43C0 44.1046 0.895429 45 2 45H73C74.1046 45 75 44.1046 75 43V2C75 0.895431 74.1046 0 73 0H2Z" fill="#969696"/>
<path d="M0 2C0 0.89543 0.895431 0 2 0H6V45H2C0.89543 45 0 44.1046 0 43V2Z" fill="#969696"/>
<path opacity="0.2" fill-rule="evenodd" clip-rule="evenodd" d="M68 18H12C11.4477 18 11 18.4477 11 19V39C11 39.5523 11.4477 40 12 40H68C68.5523 40 69 39.5523 69 39V19C69 18.4477 68.5523 18 68 18ZM12 17C10.8954 17 10 17.8954 10 19V39C10 40.1046 10.8954 41 12 41H68C69.1046 41 70 40.1046 70 39V19C70 17.8954 69.1046 17 68 17H12Z" fill="black"/>
<path d="M10 6C10 4.89543 10.8954 4 12 4H68C69.1046 4 70 4.89543 70 6V12C70 13.1046 69.1046 14 68 14H12C10.8954 14 10 13.1046 10 12V6Z" fill="#033D58" fill-opacity="0.1"/>
<path fill-rule="evenodd" clip-rule="evenodd" d="M68 5H12C11.4477 5 11 5.44772 11 6V12C11 12.5523 11.4477 13 12 13H68C68.5523 13 69 12.5523 69 12V6C69 5.44772 68.5523 5 68 5ZM12 4C10.8954 4 10 4.89543 10 6V12C10 13.1046 10.8954 14 12 14H68C69.1046 14 70 13.1046 70 12V6C70 4.89543 69.1046 4 68 4H12Z" fill="#4D7689"/>
</g>
<defs>
<clipPath id="clip0_121_1245">
<rect width="75" height="45" fill="white"/>
</clipPath>
</defs>
</svg>