<?xml version="1.0" encoding="utf-8"?>
<!--
  Copyright 2023-2025 Solace Systems. All rights reserved.

  Licensed under the Apache License, Version 2.0 (the "License");
  you may not use this file except in compliance with the License.
  You may obtain a copy of the License at

      http://www.apache.org/licenses/LICENSE-2.0

  Unless required by applicable law or agreed to in writing, software
  distributed under the License is distributed on an "AS IS" BASIS,
  WITHOUT WARRANTIES OR CONDITIONS OF ANY KIND, either express or implied.
  See the License for the specific language governing permissions and
  limitations under the License.
-->
<svg width="75" height="45" viewBox="0 0 75 45" fill="none" xmlns="http://www.w3.org/2000/svg">
<g clip-path="url(#clip0_121_1253)">
<path d="M0 2C0 0.89543 0.895431 0 2 0H73C74.1046 0 75 0.895431 75 2V43C75 44.1046 74.1046 45 73 45H2C0.895429 45 0 44.1046 0 43V2Z" fill="white"/>
<path fill-rule="evenodd" clip-rule="evenodd" d="M73 1H2C1.44772 1 1 1.44772 1 2V43C1 43.5523 1.44771 44 2 44H73C73.5523 44 74 43.5523 74 43V2C74 1.44771 73.5523 1 73 1ZM2 0C0.895431 0 0 0.89543 0 2V43C0 44.1046 0.895429 45 2 45H73C74.1046 45 75 44.1046 75 43V2C75 0.895431 74.1046 0 73 0H2Z" fill="#969696"/>
<path d="M0 2C0 0.89543 0.895431 0 2 0H6V45H2C0.89543 45 0 44.1046 0 43V2Z" fill="#969696"/>
<path opacity="0.2" d="M68 4.5H12C11.1716 4.5 10.5 5.17157 10.5 6V12C10.5 12.8284 11.1716 13.5 12 13.5H68C68.8284 13.5 69.5 12.8284 69.5 12V6C69.5 5.17157 68.8284 4.5 68 4.5Z" stroke="black"/>
<path d="M68 17.5H12C11.1716 17.5 10.5 18.1716 10.5 19V39C10.5 39.8284 11.1716 40.5 12 40.5H68C68.8284 40.5 69.5 39.8284 69.5 39V19C69.5 18.1716 68.8284 17.5 68 17.5Z" fill="#E6ECEE" stroke="#4D7689"/>
</g>
<defs>
<clipPath id="clip0_121_1253">
<rect width="75" height="45" fill="white"/>
</clipPath>
</defs>
</svg>