<?xml version="1.0" encoding="utf-8"?>
<!--
  Copyright 2023-2025 Solace Systems. All rights reserved.

  Licensed under the Apache License, Version 2.0 (the "License");
  you may not use this file except in compliance with the License.
  You may obtain a copy of the License at

      http://www.apache.org/licenses/LICENSE-2.0

  Unless required by applicable law or agreed to in writing, software
  distributed under the License is distributed on an "AS IS" BASIS,
  WITHOUT WARRANTIES OR CONDITIONS OF ANY KIND, either express or implied.
  See the License for the specific language governing permissions and
  limitations under the License.
-->
<svg width="130" height="130" viewBox="0 0 130 130" fill="none" xmlns="http://www.w3.org/2000/svg">
<g clip-path="url(#clip0_121_1259)">
<mask id="mask0_121_1259" style="mask-type:luminance" maskUnits="userSpaceOnUse" x="0" y="0" width="130" height="130">
<path d="M130 0H0V130H130V0Z" fill="white"/>
</mask>
<g mask="url(#mask0_121_1259)">
<path d="M64.5 100C91.8381 100 114 77.8381 114 50.5C114 23.1619 91.8381 1 64.5 1C37.1619 1 15 23.1619 15 50.5C15 77.8381 37.1619 100 64.5 100Z" fill="#033D58" fill-opacity="0.1"/>
<path d="M75 103H82C82.5523 103 83 103.448 83 104V111C83 111.552 82.5523 112 82 112H75C74.4477 112 74 111.552 74 111V104C74 103.448 74.4477 103 75 103Z" fill="white" stroke="#969696" stroke-width="2"/>
<path d="M81.2351 94.7819L87.5513 91.7644C88.0497 91.5264 88.6467 91.7373 88.8847 92.2357L91.9022 98.5519C92.1403 99.0503 91.9293 99.6472 91.4309 99.8853L85.1147 102.903C84.6164 103.141 84.0194 102.93 83.7813 102.432L80.7639 96.1153C80.5258 95.6169 80.7368 95.02 81.2351 94.7819Z" fill="white" stroke="#969696" stroke-width="2"/>
<path d="M94.5 110C96.9853 110 99 107.985 99 105.5C99 103.015 96.9853 101 94.5 101C92.0147 101 90 103.015 90 105.5C90 107.985 92.0147 110 94.5 110Z" fill="white" stroke="#969696" stroke-width="2"/>
<path d="M104 95V122H126C127.105 122 128 121.105 128 120V107.788C128 107.381 127.876 106.984 127.644 106.649L121.468 97.7353C119.413 94.7695 116.034 93 112.426 93H106C104.895 93 104 93.8954 104 95Z" fill="white" stroke="#969696" stroke-width="2"/>
<path d="M70 108H104V122.004H70C68.8954 122.004 68 121.108 68 120.004V110C68 108.895 68.8954 108 70 108Z" fill="white" stroke="#969696" stroke-width="2"/>
<path d="M121 97H113C111.895 97 111 97.8954 111 99V105C111 106.105 111.895 107 113 107H128" stroke="#969696" stroke-width="2"/>
<path d="M128 117H123.64C123.287 117 123 116.713 123 116.36V113.64C123 113.287 123.287 113 123.64 113H128" stroke="#969696"/>
<path d="M72 112H104" stroke="#969696" stroke-linecap="round"/>
<path d="M81 127C83.7614 127 86 124.761 86 122C86 119.239 83.7614 117 81 117C78.2386 117 76 119.239 76 122C76 124.761 78.2386 127 81 127Z" fill="white" stroke="#969696" stroke-width="2"/>
<path d="M115 127C117.761 127 120 124.761 120 122C120 119.239 117.761 117 115 117C112.239 117 110 119.239 110 122C110 124.761 112.239 127 115 127Z" fill="white" stroke="#969696" stroke-width="2"/>
<path d="M32 19L23 28H41L32 19Z" stroke="#969696" stroke-linejoin="round"/>
<path d="M3 28H95.3741C95.5954 28 95.8104 28.0734 95.9855 28.2087L103.751 34.2087C104.506 34.7918 104.094 36 103.14 36H3C2.44771 36 2 35.5523 2 35V29C2 28.4477 2.44772 28 3 28Z" fill="white" stroke="#969696" stroke-width="2"/>
<path d="M41 36H25V122H41V36Z" fill="white" stroke="#969696" stroke-width="2"/>
<path d="M2.98438 27.9551L31.9995 18.0002" stroke="#969696" stroke-width="2" stroke-linecap="round"/>
<path d="M40 122L25 108.421L40 97.4825L25 83.5263L40 71.0789L25 60.5175L40 47.3158L25 36" stroke="#969696" stroke-width="2" stroke-linejoin="bevel"/>
<path d="M32 18L94.5 28" stroke="#969696" stroke-width="2" stroke-linecap="round"/>
<path d="M105.5 80H72.5C71.6716 80 71 80.6716 71 81.5C71 82.3284 71.6716 83 72.5 83H105.5C106.328 83 107 82.3284 107 81.5C107 80.6716 106.328 80 105.5 80Z" fill="white" stroke="#969696" stroke-width="2"/>
<path d="M52 124.461V127C52 127.552 51.5523 128 51 128H15C14.4477 128 14 127.552 14 127V124.461C14 123.967 14.3603 123.547 14.8482 123.472L24.362 122.012C24.4122 122.004 24.4629 122 24.5137 122H41.4632C41.5139 122 41.5646 122.004 41.6147 122.012L51.1515 123.473C51.6396 123.548 52 123.968 52 124.461Z" fill="white" stroke="#969696" stroke-width="2"/>
<path d="M89 36V53" stroke="#969696" stroke-width="2" stroke-linecap="round"/>
<path d="M88.8904 59L76 80" stroke="#969696" stroke-linecap="round"/>
<path d="M76 80L88.9995 59L102 80" stroke="#969696"/>
<path d="M93.828 74.2937C93.1135 76.9602 90.3726 78.5427 87.7061 77.8282C85.0396 77.1137 83.4571 74.3728 84.1716 71.7063C84.8861 69.0398 87.627 67.4573 90.2935 68.1718C92.96 68.8863 94.5425 71.6272 93.828 74.2937Z" fill="#305D74" stroke="#305D74" stroke-width="2"/>
<path d="M86 56C86 57.6569 87.3431 59 89 59C90.6569 59 92 57.6569 92 56C92 54.3431 90.6569 53 89 53" stroke="#969696" stroke-width="2" stroke-linecap="round"/>
<path d="M1.5 128.5H127.5" stroke="#969696" stroke-linecap="round"/>
</g>
</g>
<defs>
<clipPath id="clip0_121_1259">
<rect width="130" height="130" fill="white"/>
</clipPath>
</defs>
</svg>