<?xml version="1.0" encoding="utf-8"?>
<!--
  Copyright 2023-2025 Solace Systems. All rights reserved.

  Licensed under the Apache License, Version 2.0 (the "License");
  you may not use this file except in compliance with the License.
  You may obtain a copy of the License at

      http://www.apache.org/licenses/LICENSE-2.0

  Unless required by applicable law or agreed to in writing, software
  distributed under the License is distributed on an "AS IS" BASIS,
  WITHOUT WARRANTIES OR CONDITIONS OF ANY KIND, either express or implied.
  See the License for the specific language governing permissions and
  limitations under the License.
-->
<svg width="88" height="88" viewBox="0 0 88 88" fill="none" xmlns="http://www.w3.org/2000/svg">
<path d="M48.9882 26.1832C49.1901 25.7696 49.689 25.5979 50.1026 25.7998L57.201 29.2648C57.6145 29.4667 57.7862 29.9656 57.5843 30.3792L54.6358 36.4194C54.4339 36.833 53.935 37.0047 53.5214 36.8028L46.423 33.3378C46.0094 33.1359 45.8378 32.637 46.0397 32.2234L48.9882 26.1832Z" fill="white" stroke="#969696"/>
<path d="M39.9284 10.146C39.8027 9.70328 40.0597 9.24244 40.5024 9.1167L48.1008 6.95858C48.5435 6.83284 49.0043 7.0898 49.1301 7.53253L50.9665 13.9982C51.0922 14.4409 50.8353 14.9018 50.3925 15.0275L42.7942 17.1856C42.3514 17.3114 41.8906 17.0544 41.7649 16.6117L39.9284 10.146Z" fill="white" stroke="#969696"/>
<path d="M55.0098 42.2005C55.0098 41.7403 55.3829 41.3672 55.8431 41.3672H63.742C64.2022 41.3672 64.5753 41.7403 64.5753 42.2005V48.9219C64.5753 49.3822 64.2022 49.7553 63.742 49.7553H55.8431C55.3829 49.7553 55.0098 49.3822 55.0098 48.9219V42.2005Z" fill="white" stroke="#969696"/>
<path d="M24.873 39.0409C24.9877 38.5951 25.442 38.3268 25.8877 38.4414L33.5375 40.4095C33.9832 40.5241 34.2516 40.9784 34.1369 41.4242L32.4623 47.9336C32.3476 48.3793 31.8933 48.6477 31.4476 48.533L23.7978 46.565C23.3521 46.4503 23.0837 45.996 23.1983 45.5503L24.873 39.0409Z" fill="white" stroke="#969696"/>
<path d="M46.7051 50.2462C49.2497 50.2462 51.3126 48.1833 51.3126 45.6387C51.3126 43.0941 49.2497 41.0312 46.7051 41.0312C44.1605 41.0312 42.0977 43.0941 42.0977 45.6387C42.0977 48.1833 44.1605 50.2462 46.7051 50.2462Z" fill="white" stroke="#969696"/>
<path d="M32.7867 28.8287C35.0291 29.4295 37.3341 28.0988 37.9349 25.8563C38.5358 23.6139 37.205 21.309 34.9626 20.7081C32.7202 20.1073 30.4153 21.438 29.8144 23.6804C29.2135 25.9229 30.5443 28.2278 32.7867 28.8287Z" fill="#305D74" stroke="#305D74"/>
<path d="M41.9316 27.9531V39.2231" stroke="#969696" stroke-width="0.5" stroke-linecap="round"/>
<path d="M28.0176 25.8438V37.1137" stroke="#969696" stroke-width="0.5" stroke-linecap="round"/>
<path d="M35.0625 4V15.2699" stroke="#969696" stroke-width="0.5" stroke-linecap="round"/>
<path d="M33.4805 10.3359V17.3797" stroke="#969696" stroke-width="0.5" stroke-linecap="round"/>
<path d="M29.957 30.0703V37.114" stroke="#969696" stroke-width="0.5" stroke-linecap="round"/>
<path d="M55.4883 15.2734V22.3172" stroke="#969696" stroke-width="0.5" stroke-linecap="round"/>
<path d="M61.6523 26.5312V37.8012" stroke="#969696" stroke-width="0.5" stroke-linecap="round"/>
<path d="M53.9062 6.82031V24.4296" stroke="#969696" stroke-width="0.5" stroke-linecap="round"/>
<path d="M16.543 46.888C16.543 46.4278 16.9161 46.0547 17.3764 46.0547H70.1703C70.6306 46.0547 71.0037 46.4278 71.0037 46.888V79.3016C71.0037 79.7212 70.6916 80.0754 70.2753 80.1283L43.8783 83.4808C43.8086 83.4897 43.7381 83.4897 43.6683 83.4808L17.2714 80.1283C16.8551 80.0754 16.543 79.7212 16.543 79.3016V46.888Z" fill="white" stroke="#969696"/>
<path d="M16.0617 46.423C16.2165 46.1928 16.4757 46.0547 16.7532 46.0547H42.2259C42.854 46.0547 43.2563 46.7232 42.9622 47.2782L37.1653 58.2183C37.1336 58.2781 37.0689 58.3128 37.0016 58.3061L10.1582 55.6429C10.0328 55.6305 9.96604 55.4887 10.0364 55.3841L16.0617 46.423Z" fill="white" stroke="#969696"/>
<path d="M71.444 46.423C71.2892 46.1928 71.0299 46.0547 70.7524 46.0547H45.2798C44.6517 46.0547 44.2494 46.7232 44.5434 47.2782L50.3403 58.2183C50.372 58.2781 50.4367 58.3128 50.5041 58.3061L77.3474 55.6429C77.4728 55.6305 77.5396 55.4887 77.4693 55.3841L71.444 46.423Z" fill="white" stroke="#969696"/>
<path d="M43.7734 47.0078V83.6351" stroke="#969696"/>
<path d="M19.5762 74.8672L25.84 75.7989" stroke="#969696" stroke-width="0.5" stroke-linecap="round"/>
<path d="M19.248 77.0703L30.4919 78.7428" stroke="#969696" stroke-width="0.5" stroke-linecap="round"/>
</svg>