<!--
 Copyright 2023-2025 Solace Systems. All rights reserved.

 Licensed under the Apache License, Version 2.0 (the "License");
 you may not use this file except in compliance with the License.
 You may obtain a copy of the License at

     http://www.apache.org/licenses/LICENSE-2.0

 Unless required by applicable law or agreed to in writing, software
 distributed under the License is distributed on an "AS IS" BASIS,
 WITHOUT WARRANTIES OR CONDITIONS OF ANY KIND, either express or implied.
 See the License for the specific language governing permissions and
 limitations under the License.
-->
<svg width="130" height="130" viewBox="0 0 130 130" fill="none" xmlns="http://www.w3.org/2000/svg">
<g clip-path="url(#clip0_121_1667)">
<mask id="mask0_121_1667" style="mask-type:luminance" maskUnits="userSpaceOnUse" x="0" y="0" width="130" height="130">
<path d="M130 0H0V130H130V0Z" fill="white"/>
</mask>
<g mask="url(#mask0_121_1667)">
<path d="M120 60C120 93.1371 93.1371 120 60 120C26.8629 120 0 93.1371 0 60C0 26.8629 26.8629 0 60 0C93.1371 0 120 26.8629 120 60Z" fill="#033D58" fill-opacity="0.1"/>
<path d="M0 94C0 91.7909 1.79086 90 4 90H74C76.2091 90 78 91.7909 78 94V107C78 109.209 76.2091 111 74 111H4C1.79086 111 0 109.209 0 107V94Z" fill="white"/>
<path fill-rule="evenodd" clip-rule="evenodd" d="M74 92H4C2.89543 92 2 92.8954 2 94V107C2 108.105 2.89543 109 4 109H74C75.1046 109 76 108.105 76 107V94C76 92.8954 75.1046 92 74 92ZM4 90C1.79086 90 0 91.7909 0 94V107C0 109.209 1.79086 111 4 111H74C76.2091 111 78 109.209 78 107V94C78 91.7909 76.2091 90 74 90H4Z" fill="#969696"/>
<path d="M13.334 100.5C13.334 101.881 12.2147 103 10.834 103C9.45327 103 8.33398 101.881 8.33398 100.5C8.33398 99.1193 9.45327 98 10.834 98C12.2147 98 13.334 99.1193 13.334 100.5Z" fill="white"/>
<path fill-rule="evenodd" clip-rule="evenodd" d="M10.834 102C11.6624 102 12.334 101.328 12.334 100.5C12.334 99.6716 11.6624 99 10.834 99C10.0055 99 9.33398 99.6716 9.33398 100.5C9.33398 101.328 10.0055 102 10.834 102ZM10.834 103C12.2147 103 13.334 101.881 13.334 100.5C13.334 99.1193 12.2147 98 10.834 98C9.45327 98 8.33398 99.1193 8.33398 100.5C8.33398 101.881 9.45327 103 10.834 103Z" fill="#969696"/>
<path fill-rule="evenodd" clip-rule="evenodd" d="M20.8516 90V111H19.8516V90H20.8516Z" fill="#969696"/>
<path d="M46.5462 15.472C47.6433 13.5545 50.0835 12.8955 51.9967 14.0001L112.619 49.0001C114.532 50.1046 115.193 52.5545 114.096 54.4719L107.64 65.7557C106.543 67.6732 104.103 68.3322 102.19 67.2276L41.5681 32.2276C39.6549 31.123 38.9933 28.6732 40.0904 26.7557L46.5462 15.472Z" fill="white"/>
<path fill-rule="evenodd" clip-rule="evenodd" d="M111.625 50.736L51.0035 15.736C50.0469 15.1837 48.8268 15.5132 48.2783 16.472L41.8224 27.7557C41.2739 28.7144 41.6047 29.9394 42.5613 30.4916L103.183 65.4916C104.14 66.0439 105.36 65.7144 105.908 64.7557L112.364 53.4719C112.913 52.5132 112.582 51.2883 111.625 50.736ZM51.9967 14.0001C50.0835 12.8955 47.6433 13.5545 46.5462 15.472L40.0904 26.7557C38.9933 28.6732 39.6549 31.123 41.5681 32.2276L102.19 67.2276C104.103 68.3322 106.543 67.6732 107.64 65.7557L114.096 54.4719C115.193 52.5545 114.532 50.1046 112.619 49.0001L51.9967 14.0001Z" fill="#969696"/>
<path d="M52.157 29.1349C53.4719 29.895 55.1497 29.4429 55.9046 28.125C56.6594 26.807 56.2054 25.1224 54.8905 24.3623C53.5757 23.6021 51.8978 24.0543 51.143 25.3722C50.3882 26.6901 50.8422 28.3747 52.157 29.1349Z" fill="#305D74"/>
<path fill-rule="evenodd" clip-rule="evenodd" d="M68.1809 23.3433L57.686 41.4969L56.8203 40.9964L67.3152 22.8428L68.1809 23.3433Z" fill="#969696"/>
<path d="M108.332 126C108.332 128.209 106.541 130 104.332 130H34.332C32.1229 130 30.332 128.209 30.332 126V113C30.332 110.791 32.1229 109 34.332 109H104.332C106.541 109 108.332 110.791 108.332 113V126Z" fill="white"/>
<path fill-rule="evenodd" clip-rule="evenodd" d="M34.332 128H104.332C105.437 128 106.332 127.105 106.332 126V113C106.332 111.895 105.437 111 104.332 111H34.332C33.2274 111 32.332 111.895 32.332 113V126C32.332 127.105 33.2274 128 34.332 128ZM104.332 130C106.541 130 108.332 128.209 108.332 126V113C108.332 110.791 106.541 109 104.332 109H34.332C32.1229 109 30.332 110.791 30.332 113V126C30.332 128.209 32.1229 130 34.332 130H104.332Z" fill="#969696"/>
<path d="M95.123 119.5C95.123 118.119 96.2423 117 97.623 117C99.0037 117 100.124 118.119 100.124 119.5C100.124 120.881 99.0037 122 97.623 122C96.2423 122 95.123 120.881 95.123 119.5Z" fill="white"/>
<path fill-rule="evenodd" clip-rule="evenodd" d="M97.623 118C96.7946 118 96.123 118.672 96.123 119.5C96.123 120.328 96.7946 121 97.623 121C98.4515 121 99.123 120.328 99.123 119.5C99.123 118.672 98.4515 118 97.623 118ZM97.623 117C96.2423 117 95.123 118.119 95.123 119.5C95.123 120.881 96.2423 122 97.623 122C99.0037 122 100.124 120.881 100.124 119.5C100.124 118.119 99.0037 117 97.623 117Z" fill="#969696"/>
<path fill-rule="evenodd" clip-rule="evenodd" d="M87.8633 109V130H86.8633V109H87.8633Z" fill="#969696"/>
<path d="M97.043 88C97.043 90.2091 95.2521 92 93.043 92H23.043C20.8338 92 19.043 90.2091 19.043 88V75C19.043 72.7909 20.8338 71 23.043 71H93.043C95.2521 71 97.043 72.7909 97.043 75V88Z" fill="white"/>
<path fill-rule="evenodd" clip-rule="evenodd" d="M23.043 90H93.043C94.1475 90 95.043 89.1046 95.043 88V75C95.043 73.8954 94.1475 73 93.043 73H23.043C21.9384 73 21.043 73.8954 21.043 75V88C21.043 89.1046 21.9384 90 23.043 90ZM93.043 92C95.2521 92 97.043 90.2091 97.043 88V75C97.043 72.7909 95.2521 71 93.043 71H23.043C20.8338 71 19.043 72.7909 19.043 75V88C19.043 90.2091 20.8338 92 23.043 92H93.043Z" fill="#969696"/>
<path d="M83 81.5C83 80.1193 84.1193 79 85.5 79C86.8807 79 88 80.1193 88 81.5C88 82.8807 86.8807 84 85.5 84C84.1193 84 83 82.8807 83 81.5Z" fill="white"/>
<path fill-rule="evenodd" clip-rule="evenodd" d="M85.5 80C84.6716 80 84 80.6716 84 81.5C84 82.3284 84.6716 83 85.5 83C86.3284 83 87 82.3284 87 81.5C87 80.6716 86.3284 80 85.5 80ZM85.5 79C84.1193 79 83 80.1193 83 81.5C83 82.8807 84.1193 84 85.5 84C86.8807 84 88 82.8807 88 81.5C88 80.1193 86.8807 79 85.5 79Z" fill="#969696"/>
<path fill-rule="evenodd" clip-rule="evenodd" d="M76.5 71V92H75.5V71H76.5Z" fill="#969696"/>
<path d="M107.268 76.6817L106.002 56.0727C105.951 55.2331 106.846 54.7023 107.507 55.1809L123.586 66.8324C124.166 67.2527 124.13 68.1626 123.52 68.5318L118.695 71.4493L123.172 79.5707C123.437 80.0522 123.28 80.6677 122.821 80.9455L119.646 82.8651C119.187 83.1429 118.599 82.9778 118.334 82.4964L113.857 74.3749L108.707 77.4894C108.09 77.8624 107.314 77.4266 107.268 76.6817Z" fill="white"/>
<path fill-rule="evenodd" clip-rule="evenodd" d="M114.604 71.5862L119.561 80.5794L120.974 79.7253L116.016 70.7321L121.218 67.5866L108.131 58.1029L109.161 74.8777L114.604 71.5862ZM118.334 82.4964C118.599 82.9778 119.187 83.1429 119.646 82.8651L122.821 80.9455C123.28 80.6677 123.437 80.0522 123.172 79.5707L118.695 71.4493L123.52 68.5318C124.13 68.1626 124.166 67.2527 123.586 66.8324L107.507 55.1809C106.846 54.7023 105.951 55.2331 106.002 56.0727L107.268 76.6817C107.314 77.4266 108.09 77.8624 108.707 77.4894L113.857 74.3749L118.334 82.4964Z" fill="#969696"/>
</g>
</g>
<defs>
<clipPath id="clip0_121_1667">
<rect width="130" height="130" fill="white"/>
</clipPath>
</defs>
</svg>
