<?xml version="1.0" encoding="utf-8"?>
<!--
  Copyright 2023-2025 Solace Systems. All rights reserved.

  Licensed under the Apache License, Version 2.0 (the "License");
  you may not use this file except in compliance with the License.
  You may obtain a copy of the License at

      http://www.apache.org/licenses/LICENSE-2.0

  Unless required by applicable law or agreed to in writing, software
  distributed under the License is distributed on an "AS IS" BASIS,
  WITHOUT WARRANTIES OR CONDITIONS OF ANY KIND, either express or implied.
  See the License for the specific language governing permissions and
  limitations under the License.
-->
<svg width="130" height="130" viewBox="0 0 130 130" fill="none" xmlns="http://www.w3.org/2000/svg">
<path opacity="0.1" d="M119 63.5C119 93.5995 94.5995 118 64.5 118C34.4005 118 10 93.5995 10 63.5C10 33.4005 34.4005 9 64.5 9C94.5995 9 119 33.4005 119 63.5Z" fill="#033D58"/>
<path d="M16 32.0433C16 30.3865 17.3431 29.0433 19 29.0433H52.4134C59.5931 29.0433 65.4134 34.8636 65.4134 42.0433V112.059C65.4134 113.716 64.0703 115.059 62.4134 115.059H19C17.3431 115.059 16 113.716 16 112.059V32.0433Z" fill="white"/>
<path fill-rule="evenodd" clip-rule="evenodd" d="M52.4134 31.0433H19C18.4477 31.0433 18 31.4911 18 32.0433V112.059C18 112.612 18.4477 113.059 19 113.059H62.4134C62.9657 113.059 63.4134 112.612 63.4134 112.059V42.0433C63.4134 35.9682 58.4886 31.0433 52.4134 31.0433ZM19 29.0433C17.3431 29.0433 16 30.3865 16 32.0433V112.059C16 113.716 17.3431 115.059 19 115.059H62.4134C64.0703 115.059 65.4134 113.716 65.4134 112.059V42.0433C65.4134 34.8636 59.5931 29.0433 52.4134 29.0433H19Z" fill="#969696"/>
<path fill-rule="evenodd" clip-rule="evenodd" d="M63 109H18V112C18 112.552 18.4477 113 19 113H62C62.5523 113 63 112.552 63 112V109ZM16 107V112C16 113.657 17.3431 115 19 115H62C63.6569 115 65 113.657 65 112V107H16Z" fill="#969696"/>
<path d="M62 43C62 35.268 68.268 29 76 29H111C112.657 29 114 30.3431 114 32V112C114 113.657 112.657 115 111 115H65C63.3431 115 62 113.657 62 112V43Z" fill="white"/>
<path fill-rule="evenodd" clip-rule="evenodd" d="M111 31H76C69.3726 31 64 36.3726 64 43V112C64 112.552 64.4477 113 65 113H111C111.552 113 112 112.552 112 112V32C112 31.4477 111.552 31 111 31ZM76 29C68.268 29 62 35.268 62 43V112C62 113.657 63.3431 115 65 115H111C112.657 115 114 113.657 114 112V32C114 30.3431 112.657 29 111 29H76Z" fill="#969696"/>
<path fill-rule="evenodd" clip-rule="evenodd" d="M112 109H64V112C64 112.552 64.4477 113 65 113H111C111.552 113 112 112.552 112 112V109ZM62 107V112C62 113.657 63.3431 115 65 115H111C112.657 115 114 113.657 114 112V107H62Z" fill="#969696"/>
<path fill-rule="evenodd" clip-rule="evenodd" d="M41.7353 40.9388C41.7353 40.6627 41.9592 40.4388 42.2353 40.4388H54.1777C54.4538 40.4388 54.6777 40.6627 54.6777 40.9388C54.6777 41.215 54.4538 41.4388 54.1777 41.4388H42.2353C41.9592 41.4388 41.7353 41.215 41.7353 40.9388ZM41.7353 46.8868C41.7353 46.6106 41.9592 46.3868 42.2353 46.3868H54.1777C54.4538 46.3868 54.6777 46.6106 54.6777 46.8868C54.6777 47.1629 54.4538 47.3868 54.1777 47.3868H42.2353C41.9592 47.3868 41.7353 47.1629 41.7353 46.8868ZM41.7353 52.8347C41.7353 52.5585 41.9592 52.3347 42.2353 52.3347H54.1777C54.4538 52.3347 54.6777 52.5585 54.6777 52.8347C54.6777 53.1108 54.4538 53.3347 54.1777 53.3347H42.2353C41.9592 53.3347 41.7353 53.1108 41.7353 52.8347ZM24.6504 62.4428C24.6504 62.1667 24.8743 61.9428 25.1504 61.9428H37.0928C37.3689 61.9428 37.5928 62.1667 37.5928 62.4428C37.5928 62.719 37.3689 62.9428 37.0928 62.9428H25.1504C24.8743 62.9428 24.6504 62.719 24.6504 62.4428ZM24.6504 68.3908C24.6504 68.1146 24.8743 67.8908 25.1504 67.8908H37.0928C37.3689 67.8908 37.5928 68.1146 37.5928 68.3908C37.5928 68.6669 37.3689 68.8908 37.0928 68.8908H25.1504C24.8743 68.8908 24.6504 68.6669 24.6504 68.3908ZM24.6504 74.3387C24.6504 74.0625 24.8743 73.8387 25.1504 73.8387H37.0928C37.3689 73.8387 37.5928 74.0625 37.5928 74.3387C37.5928 74.6148 37.3689 74.8387 37.0928 74.8387H25.1504C24.8743 74.8387 24.6504 74.6148 24.6504 74.3387Z" fill="#969696"/>
<path fill-rule="evenodd" clip-rule="evenodd" d="M24.6504 83.0317C24.6504 82.7556 24.8743 82.5317 25.1504 82.5317H53.5174C53.7935 82.5317 54.0174 82.7556 54.0174 83.0317C54.0174 83.3079 53.7935 83.5317 53.5174 83.5317H25.1504C24.8743 83.5317 24.6504 83.3079 24.6504 83.0317Z" fill="#969696"/>
<path fill-rule="evenodd" clip-rule="evenodd" d="M24.6504 92.1824C24.6504 91.9062 24.8743 91.6824 25.1504 91.6824H53.5174C53.7935 91.6824 54.0174 91.9062 54.0174 92.1824C54.0174 92.4585 53.7935 92.6824 53.5174 92.6824H25.1504C24.8743 92.6824 24.6504 92.4585 24.6504 92.1824Z" fill="#969696"/>
<path fill-rule="evenodd" clip-rule="evenodd" d="M24.6504 87.6071C24.6504 87.3309 24.8743 87.1071 25.1504 87.1071H53.5174C53.7935 87.1071 54.0174 87.3309 54.0174 87.6071C54.0174 87.8832 53.7935 88.1071 53.5174 88.1071H25.1504C24.8743 88.1071 24.6504 87.8832 24.6504 87.6071Z" fill="#969696"/>
<path fill-rule="evenodd" clip-rule="evenodd" d="M24.6504 96.7577C24.6504 96.4815 24.8743 96.2577 25.1504 96.2577H53.5174C53.7935 96.2577 54.0174 96.4815 54.0174 96.7577C54.0174 97.0338 53.7935 97.2577 53.5174 97.2577H25.1504C24.8743 97.2577 24.6504 97.0338 24.6504 96.7577Z" fill="#969696"/>
<path fill-rule="evenodd" clip-rule="evenodd" d="M70.4043 41.8539C70.4043 41.5777 70.6282 41.3539 70.9043 41.3539H106.591C106.867 41.3539 107.091 41.5777 107.091 41.8539C107.091 42.13 106.867 42.3539 106.591 42.3539H70.9043C70.6282 42.3539 70.4043 42.13 70.4043 41.8539ZM70.4043 47.8018C70.4043 47.5257 70.6282 47.3018 70.9043 47.3018H106.591C106.867 47.3018 107.091 47.5257 107.091 47.8018C107.091 48.0779 106.867 48.3018 106.591 48.3018H70.9043C70.6282 48.3018 70.4043 48.0779 70.4043 47.8018ZM70.4043 53.7497C70.4043 53.4736 70.6282 53.2497 70.9043 53.2497H106.591C106.867 53.2497 107.091 53.4736 107.091 53.7497C107.091 54.0259 106.867 54.2497 106.591 54.2497H70.9043C70.6282 54.2497 70.4043 54.0259 70.4043 53.7497Z" fill="#969696"/>
<path fill-rule="evenodd" clip-rule="evenodd" d="M70.4043 59.2401C70.4043 58.964 70.6282 58.7401 70.9043 58.7401H89.2056C89.4817 58.7401 89.7056 58.964 89.7056 59.2401C89.7056 59.5163 89.4817 59.7401 89.2056 59.7401H70.9043C70.6282 59.7401 70.4043 59.5163 70.4043 59.2401ZM70.4043 65.188C70.4043 64.9119 70.6282 64.688 70.9043 64.688H89.2056C89.4817 64.688 89.7056 64.9119 89.7056 65.188C89.7056 65.4642 89.4817 65.688 89.2056 65.688H70.9043C70.6282 65.688 70.4043 65.4642 70.4043 65.188ZM70.4043 71.1359C70.4043 70.8598 70.6282 70.6359 70.9043 70.6359H89.2056C89.4817 70.6359 89.7056 70.8598 89.7056 71.1359C89.7056 71.4121 89.4817 71.6359 89.2056 71.6359H70.9043C70.6282 71.6359 70.4043 71.4121 70.4043 71.1359Z" fill="#969696"/>
<path d="M36.3203 47.0237C36.3203 50.3374 33.634 53.0237 30.3203 53.0237C27.0065 53.0237 24.3203 50.3374 24.3203 47.0237C24.3203 43.71 27.0065 41.0237 30.3203 41.0237C33.634 41.0237 36.3203 43.71 36.3203 47.0237Z" fill="white"/>
<path fill-rule="evenodd" clip-rule="evenodd" d="M30.3203 51.0237C32.5294 51.0237 34.3203 49.2328 34.3203 47.0237C34.3203 44.8145 32.5294 43.0237 30.3203 43.0237C28.1111 43.0237 26.3203 44.8145 26.3203 47.0237C26.3203 49.2328 28.1111 51.0237 30.3203 51.0237ZM30.3203 53.0237C33.634 53.0237 36.3203 50.3374 36.3203 47.0237C36.3203 43.71 33.634 41.0237 30.3203 41.0237C27.0065 41.0237 24.3203 43.71 24.3203 47.0237C24.3203 50.3374 27.0065 53.0237 30.3203 53.0237Z" fill="#969696"/>
<path d="M105.951 64.8674C105.951 68.1811 103.265 70.8674 99.9512 70.8674C96.6375 70.8674 93.9512 68.1811 93.9512 64.8674C93.9512 61.5537 96.6375 58.8674 99.9512 58.8674C103.265 58.8674 105.951 61.5537 105.951 64.8674Z" fill="white"/>
<path fill-rule="evenodd" clip-rule="evenodd" d="M99.9512 68.8674C102.16 68.8674 103.951 67.0766 103.951 64.8674C103.951 62.6583 102.16 60.8674 99.9512 60.8674C97.7421 60.8674 95.9512 62.6583 95.9512 64.8674C95.9512 67.0766 97.7421 68.8674 99.9512 68.8674ZM99.9512 70.8674C103.265 70.8674 105.951 68.1811 105.951 64.8674C105.951 61.5537 103.265 58.8674 99.9512 58.8674C96.6375 58.8674 93.9512 61.5537 93.9512 64.8674C93.9512 68.1811 96.6375 70.8674 99.9512 70.8674Z" fill="#969696"/>
<path fill-rule="evenodd" clip-rule="evenodd" d="M106.424 78.7109H72.9062V100.333H106.424V78.7109ZM72.9062 76.7109C71.8017 76.7109 70.9062 77.6064 70.9062 78.7109V100.333C70.9062 101.437 71.8018 102.333 72.9064 102.333H106.424C107.528 102.333 108.424 101.437 108.424 100.333V78.7109C108.424 77.6064 107.528 76.7109 106.424 76.7109H72.9062Z" fill="#969696"/>
<path d="M43.9297 65C43.9297 63.8954 44.8251 63 45.9297 63H51.9297C53.0343 63 53.9297 63.8954 53.9297 65V70.0909C53.9297 71.1955 53.0343 72.0909 51.9297 72.0909H45.9297C44.8251 72.0909 43.9297 71.1955 43.9297 70.0909V65Z" fill="white"/>
<path fill-rule="evenodd" clip-rule="evenodd" d="M51.9297 65H45.9297V70.0909H51.9297V65ZM45.9297 63C44.8251 63 43.9297 63.8954 43.9297 65V70.0909C43.9297 71.1955 44.8251 72.0909 45.9297 72.0909H51.9297C53.0343 72.0909 53.9297 71.1955 53.9297 70.0909V65C53.9297 63.8954 53.0343 63 51.9297 63H45.9297Z" fill="#969696"/>
<path d="M2 119H128V120H2V119Z" fill="#969696"/>
</svg>