<svg width="130" height="130" viewBox="0 0 130 130" fill="none" xmlns="http://www.w3.org/2000/svg">
<path opacity="0.1" d="M127.461 63.5C127.461 93.5995 103.06 118 72.9609 118C42.8614 118 18.4609 93.5995 18.4609 63.5C18.4609 33.4005 42.8614 9 72.9609 9C103.06 9 127.461 33.4005 127.461 63.5Z" fill="#033D58"/>
<path d="M91.7054 61.3507C91.7054 84.0554 73.2996 102.461 50.5949 102.461C27.8902 102.461 9.48438 84.0554 9.48438 61.3507C9.48438 38.646 27.8902 20.2402 50.5949 20.2402C73.2996 20.2402 91.7054 38.646 91.7054 61.3507Z" fill="white"/>
<path fill-rule="evenodd" clip-rule="evenodd" d="M50.5949 100.461C72.195 100.461 89.7054 82.9509 89.7054 61.3507C89.7054 39.7506 72.195 22.2402 50.5949 22.2402C28.9947 22.2402 11.4844 39.7506 11.4844 61.3507C11.4844 82.9509 28.9947 100.461 50.5949 100.461ZM50.5949 102.461C73.2996 102.461 91.7054 84.0554 91.7054 61.3507C91.7054 38.646 73.2996 20.2402 50.5949 20.2402C27.8902 20.2402 9.48438 38.646 9.48438 61.3507C9.48438 84.0554 27.8902 102.461 50.5949 102.461Z" fill="#969696"/>
<path fill-rule="evenodd" clip-rule="evenodd" d="M75.0252 80.2351C74.1714 72.3185 70.8519 62.5364 65.2301 52.799C59.6082 43.0617 52.7964 35.2959 46.3673 30.5981C43.1515 28.2484 40.0707 26.695 37.3151 26.0212C34.5662 25.349 32.2028 25.5637 30.3141 26.6541C28.4255 27.7445 27.0578 29.684 26.2655 32.4006C25.4712 35.124 25.2762 38.5688 25.7032 42.5285C26.557 50.4452 29.8765 60.2273 35.4983 69.9646C41.1202 79.702 47.932 87.4678 54.3611 92.1655C57.5769 94.5152 60.6576 96.0687 63.4133 96.7425C66.1621 97.4146 68.5256 97.2 70.4142 96.1095C72.3029 95.0191 73.6705 93.0797 74.4629 90.363C75.2572 87.6397 75.4522 84.1949 75.0252 80.2351ZM70.9142 96.9756C79.6027 91.9593 77.4456 71.9569 66.0961 52.299C54.7466 32.6411 38.5026 20.7718 29.8141 25.7881C21.1256 30.8044 23.2828 50.8068 34.6323 70.4646C45.9818 90.1225 62.2258 101.992 70.9142 96.9756Z" fill="#969696"/>
<path fill-rule="evenodd" clip-rule="evenodd" d="M75.7176 29.7228L10.9152 67.2467L10.4141 66.3813L75.2165 28.8574L75.7176 29.7228Z" fill="#969696"/>
<path fill-rule="evenodd" clip-rule="evenodd" d="M91.0476 56.0704L26.2452 93.5943L25.7441 92.729L90.5465 55.2051L91.0476 56.0704Z" fill="#969696"/>
<path fill-rule="evenodd" clip-rule="evenodd" d="M25.5357 13.5059L29.395 20.2784L28.5456 20.7787C23.3295 23.8512 18.7697 27.921 15.1264 32.7558C11.4832 37.5905 8.82785 43.0956 7.31211 48.9565C5.79636 54.8175 5.44986 60.9196 6.29238 66.9144C7.1349 72.9093 9.14995 78.6795 12.2225 83.8956C15.295 89.1117 19.3648 93.6716 24.1996 97.3149C29.0344 100.958 34.5394 103.613 40.4003 105.129C46.2613 106.645 52.3634 106.991 58.3583 106.149C64.3531 105.306 70.1233 103.291 75.3394 100.219L76.2013 99.7111L79.6622 105.59L77.9386 106.605L75.4874 102.441C70.2755 105.367 64.5612 107.297 58.6366 108.129C52.3816 109.008 46.0148 108.647 39.8996 107.065C33.7843 105.484 28.0405 102.713 22.996 98.9121C17.9514 95.1108 13.7051 90.3531 10.4992 84.9107C7.29339 79.4683 5.19092 73.4477 4.31185 67.1928C3.43277 60.9378 3.79431 54.571 5.37581 48.4558C6.95732 42.3405 9.72782 36.5967 13.5291 31.5522C17.1326 26.7702 21.5954 22.7055 26.6862 19.5645L23.7981 14.4961L25.5357 13.5059Z" fill="#969696"/>
<path fill-rule="evenodd" clip-rule="evenodd" d="M49.3789 126.999V108.377H51.3789V126.999H49.3789Z" fill="#969696"/>
<path fill-rule="evenodd" clip-rule="evenodd" d="M63.1677 127.998H37.207V125.998H63.1677V127.998Z" fill="#969696"/>
<path d="M115.513 66.7566C115.513 82.6384 102.638 95.5132 86.7566 95.5132C70.8748 95.5132 58 82.6384 58 66.7566C58 50.8748 70.8748 38 86.7566 38C102.638 38 115.513 50.8748 115.513 66.7566Z" fill="white"/>
<path d="M102.035 102.303C101.412 101.223 101.782 99.8431 102.861 99.22L106.818 96.9355C107.898 96.3124 109.278 96.6821 109.901 97.7614L123.119 120.656C123.742 121.735 123.372 123.115 122.293 123.738L118.336 126.023C117.257 126.646 115.877 126.276 115.253 125.197L102.035 102.303Z" fill="white"/>
<path fill-rule="evenodd" clip-rule="evenodd" d="M107.947 98.8896L103.99 101.174L117.208 124.069L121.165 121.784L107.947 98.8896ZM102.861 99.22C101.782 99.8431 101.412 101.223 102.035 102.303L115.253 125.197C115.877 126.276 117.257 126.646 118.336 126.023L122.293 123.738C123.372 123.115 123.742 121.735 123.119 120.656L109.901 97.7614C109.278 96.6821 107.898 96.3124 106.818 96.9355L102.861 99.22Z" fill="#969696"/>
<path fill-rule="evenodd" clip-rule="evenodd" d="M86.7566 93.2567C101.392 93.2567 113.257 81.3922 113.257 66.7566C113.257 52.121 101.392 40.2564 86.7566 40.2564C72.121 40.2564 60.2565 52.121 60.2565 66.7566C60.2565 81.3922 72.121 93.2567 86.7566 93.2567ZM86.7566 95.5132C102.638 95.5132 115.513 82.6384 115.513 66.7566C115.513 50.8748 102.638 38 86.7566 38C70.8748 38 58 50.8748 58 66.7566C58 82.6384 70.8748 95.5132 86.7566 95.5132Z" fill="#969696"/>
<path d="M109.481 66.7559C109.481 79.3063 99.3065 89.4805 86.756 89.4805C74.2055 89.4805 64.0312 79.3063 64.0312 66.7559C64.0312 54.2054 74.2055 44.0312 86.756 44.0312C99.3065 44.0312 109.481 54.2054 109.481 66.7559Z" fill="white"/>
<path fill-rule="evenodd" clip-rule="evenodd" d="M86.756 87.2241C98.0603 87.2241 107.224 78.0602 107.224 66.7559C107.224 55.4516 98.0603 46.2877 86.756 46.2877C75.4517 46.2877 66.2878 55.4516 66.2878 66.7559C66.2878 78.0602 75.4517 87.2241 86.756 87.2241ZM86.756 89.4805C99.3065 89.4805 109.481 79.3063 109.481 66.7559C109.481 54.2054 99.3065 44.0312 86.756 44.0312C74.2055 44.0312 64.0312 54.2054 64.0312 66.7559C64.0312 79.3063 74.2055 89.4805 86.756 89.4805Z" fill="#969696"/>
<path fill-rule="evenodd" clip-rule="evenodd" d="M86.1934 49.5563C86.1934 49.2447 86.446 48.9922 86.7575 48.9922C96.5682 48.9922 104.521 56.9452 104.521 66.7558C104.521 67.0674 104.269 67.3199 103.957 67.3199C103.646 67.3199 103.393 67.0674 103.393 66.7558C103.393 57.5683 95.9451 50.1204 86.7575 50.1204C86.446 50.1204 86.1934 49.8678 86.1934 49.5563ZM71.7704 75.2196C72.0364 75.0573 72.3835 75.1414 72.5458 75.4074C73.5395 77.0361 74.8055 78.4809 76.2805 79.6783C77.1709 80.4011 78.1374 81.0337 79.1659 81.5622C81.4413 82.7313 84.0215 83.3913 86.7575 83.3913C87.0691 83.3913 87.3216 83.6439 87.3216 83.9554C87.3216 84.267 87.0691 84.5195 86.7575 84.5195C83.838 84.5195 81.0815 83.8148 78.6503 82.5657C77.5518 82.0013 76.5199 81.3258 75.5694 80.5542C73.9951 79.2762 72.6436 77.734 71.5826 75.995C71.4203 75.729 71.5045 75.3819 71.7704 75.2196Z" fill="#969696"/>
<path fill-rule="evenodd" clip-rule="evenodd" d="M104.223 99.3153L99.7227 91.5208L101.677 90.3926L106.177 98.1871L104.223 99.3153Z" fill="#969696"/>
<path d="M86.0026 72.4697C85.8401 72.4697 85.7047 72.4245 85.5964 72.3343C85.4881 72.226 85.434 72.0815 85.434 71.901C85.434 71.7204 85.434 71.54 85.434 71.3595C85.434 71.179 85.434 70.9984 85.434 70.8179C85.4701 70.0417 85.6416 69.3557 85.9484 68.76C86.2553 68.1643 86.6254 67.6229 87.0586 67.1355C87.5099 66.6481 87.9612 66.1877 88.4125 65.7545C88.8637 65.3032 89.2428 64.852 89.5497 64.4007C89.8746 63.9494 90.0732 63.471 90.1454 62.9655C90.2176 62.3157 90.0912 61.7743 89.7663 61.341C89.4414 60.8897 88.9991 60.5467 88.4395 60.312C87.8799 60.0773 87.3023 59.96 86.7066 59.96C85.7499 59.96 84.9285 60.2127 84.2426 60.7181C83.5747 61.2055 83.1324 62.0359 82.9158 63.2092C82.8617 63.4258 82.7714 63.5793 82.645 63.6695C82.5187 63.7598 82.3743 63.8049 82.2118 63.8049H80.9121C80.7497 63.8049 80.6052 63.7508 80.4789 63.6425C80.3706 63.5342 80.3164 63.3897 80.3164 63.2092C80.3345 62.4691 80.4969 61.7651 80.8038 61.0972C81.1107 60.4293 81.5439 59.8427 82.1035 59.3372C82.6811 58.8318 83.3581 58.4347 84.1343 58.1458C84.9285 57.839 85.8131 57.6855 86.7878 57.6855C87.889 57.6855 88.8276 57.839 89.6038 58.1458C90.3981 58.4347 91.0299 58.8318 91.4992 59.3372C91.9866 59.8246 92.3386 60.3661 92.5552 60.9618C92.7718 61.5575 92.8621 62.1532 92.826 62.7489C92.7719 63.471 92.5913 64.1208 92.2845 64.6985C91.9776 65.2581 91.6075 65.7816 91.1743 66.269C90.7411 66.7384 90.2988 67.2076 89.8475 67.6769C89.4143 68.1282 89.0352 68.6066 88.7103 69.112C88.4034 69.5994 88.2319 70.1319 88.1958 70.7096C88.1778 70.9081 88.1597 71.1068 88.1417 71.3054C88.1417 71.4859 88.1417 71.6663 88.1417 71.8468C88.1056 72.0454 88.0334 72.1989 87.9251 72.3072C87.8168 72.4155 87.6633 72.4697 87.4648 72.4697H86.0026ZM85.786 76.9102C85.6055 76.9102 85.452 76.856 85.3257 76.7477C85.2174 76.6214 85.1632 76.4679 85.1632 76.2874V74.6357C85.1632 74.4552 85.2174 74.3108 85.3257 74.2025C85.452 74.0761 85.6055 74.013 85.786 74.013H87.546C87.7446 74.013 87.898 74.0761 88.0063 74.2025C88.1327 74.3108 88.1958 74.4552 88.1958 74.6357V76.2874C88.1958 76.4679 88.1327 76.6214 88.0063 76.7477C87.898 76.856 87.7446 76.9102 87.546 76.9102H85.786Z" fill="#969696"/>
</svg>
