<?xml version="1.0" encoding="utf-8"?>
<!--
  Copyright 2023-2025 Solace Systems. All rights reserved.

  Licensed under the Apache License, Version 2.0 (the "License");
  you may not use this file except in compliance with the License.
  You may obtain a copy of the License at

      http://www.apache.org/licenses/LICENSE-2.0

  Unless required by applicable law or agreed to in writing, software
  distributed under the License is distributed on an "AS IS" BASIS,
  WITHOUT WARRANTIES OR CONDITIONS OF ANY KIND, either express or implied.
  See the License for the specific language governing permissions and
  limitations under the License.
-->
<svg width="130" height="130" viewBox="0 0 130 130" fill="none" xmlns="http://www.w3.org/2000/svg">
<path opacity="0.1" d="M127.461 63.5C127.461 93.5995 103.06 118 72.9609 118C42.8614 118 18.4609 93.5995 18.4609 63.5C18.4609 33.4005 42.8614 9 72.9609 9C103.06 9 127.461 33.4005 127.461 63.5Z" fill="#033D58"/>
<path d="M91.7054 61.3507C91.7054 84.0554 73.2996 102.461 50.5949 102.461C27.8902 102.461 9.48438 84.0554 9.48438 61.3507C9.48438 38.646 27.8902 20.2402 50.5949 20.2402C73.2996 20.2402 91.7054 38.646 91.7054 61.3507Z" fill="white"/>
<path fill-rule="evenodd" clip-rule="evenodd" d="M50.5949 100.461C72.195 100.461 89.7054 82.9509 89.7054 61.3507C89.7054 39.7506 72.195 22.2402 50.5949 22.2402C28.9947 22.2402 11.4844 39.7506 11.4844 61.3507C11.4844 82.9509 28.9947 100.461 50.5949 100.461ZM50.5949 102.461C73.2996 102.461 91.7054 84.0554 91.7054 61.3507C91.7054 38.646 73.2996 20.2402 50.5949 20.2402C27.8902 20.2402 9.48438 38.646 9.48438 61.3507C9.48438 84.0554 27.8902 102.461 50.5949 102.461Z" fill="#969696"/>
<path fill-rule="evenodd" clip-rule="evenodd" d="M75.0252 80.2353C74.1714 72.3187 70.8519 62.5366 65.2301 52.7992C59.6082 43.0619 52.7964 35.2961 46.3673 30.5983C43.1515 28.2486 40.0707 26.6952 37.3151 26.0214C34.5662 25.3492 32.2028 25.5639 30.3141 26.6543C28.4255 27.7447 27.0578 29.6842 26.2655 32.4008C25.4712 35.1242 25.2762 38.569 25.7032 42.5287C26.557 50.4454 29.8765 60.2275 35.4983 69.9648C41.1202 79.7022 47.932 87.468 54.3611 92.1657C57.5769 94.5154 60.6576 96.0689 63.4133 96.7427C66.1621 97.4148 68.5256 97.2002 70.4142 96.1097C72.3029 95.0193 73.6705 93.0799 74.4629 90.3632C75.2572 87.6399 75.4522 84.1951 75.0252 80.2353ZM70.9142 96.9758C79.6027 91.9595 77.4456 71.9571 66.0961 52.2992C54.7466 32.6413 38.5026 20.772 29.8141 25.7883C21.1256 30.8046 23.2828 50.807 34.6323 70.4648C45.9818 90.1227 62.2258 101.992 70.9142 96.9758Z" fill="#969696"/>
<path fill-rule="evenodd" clip-rule="evenodd" d="M75.7176 29.7233L10.9152 67.2472L10.4141 66.3818L75.2165 28.8579L75.7176 29.7233Z" fill="#969696"/>
<path fill-rule="evenodd" clip-rule="evenodd" d="M91.0496 56.0709L26.2472 93.5948L25.7461 92.7295L90.5485 55.2056L91.0496 56.0709Z" fill="#969696"/>
<path fill-rule="evenodd" clip-rule="evenodd" d="M25.5357 13.5049L29.395 20.2774L28.5456 20.7777C23.3295 23.8502 18.7697 27.92 15.1264 32.7548C11.4832 37.5895 8.82785 43.0946 7.31211 48.9555C5.79636 54.8165 5.44986 60.9186 6.29238 66.9134C7.1349 72.9083 9.14995 78.6785 12.2225 83.8946C15.295 89.1107 19.3648 93.6706 24.1996 97.3139C29.0344 100.957 34.5394 103.612 40.4003 105.128C46.2613 106.644 52.3634 106.99 58.3583 106.148C64.3531 105.305 70.1233 103.29 75.3394 100.218L76.2013 99.7101L79.6622 105.589L77.9386 106.604L75.4874 102.44C70.2755 105.366 64.5612 107.296 58.6366 108.128C52.3816 109.007 46.0148 108.646 39.8996 107.064C33.7843 105.483 28.0405 102.712 22.996 98.9111C17.9514 95.1098 13.7051 90.3521 10.4992 84.9097C7.29339 79.4673 5.19092 73.4467 4.31185 67.1918C3.43277 60.9368 3.79431 54.57 5.37581 48.4548C6.95732 42.3395 9.72782 36.5957 13.5291 31.5512C17.1326 26.7692 21.5954 22.7045 26.6862 19.5635L23.7981 14.4951L25.5357 13.5049Z" fill="#969696"/>
<path fill-rule="evenodd" clip-rule="evenodd" d="M49.3789 126.999V108.377H51.3789V126.999H49.3789Z" fill="#969696"/>
<path fill-rule="evenodd" clip-rule="evenodd" d="M63.1677 127.998H37.207V125.998H63.1677V127.998Z" fill="#969696"/>
<path d="M73.3501 52.4551C73.3501 60.3867 66.6548 66.8164 58.3957 66.8164C50.1367 66.8164 43.4414 60.3867 43.4414 52.4551C43.4414 44.5236 50.1367 38.0938 58.3957 38.0938C66.6548 38.0938 73.3501 44.5236 73.3501 52.4551Z" fill="white"/>
<path fill-rule="evenodd" clip-rule="evenodd" d="M58.3957 64.8164C65.6272 64.8164 71.3501 59.2066 71.3501 52.4551C71.3501 45.7036 65.6272 40.0938 58.3957 40.0938C51.1642 40.0938 45.4414 45.7036 45.4414 52.4551C45.4414 59.2066 51.1642 64.8164 58.3957 64.8164ZM58.3957 66.8164C66.6548 66.8164 73.3501 60.3867 73.3501 52.4551C73.3501 44.5236 66.6548 38.0938 58.3957 38.0938C50.1367 38.0938 43.4414 44.5236 43.4414 52.4551C43.4414 60.3867 50.1367 66.8164 58.3957 66.8164Z" fill="#969696"/>
<path d="M71.6797 24.1855C71.6797 23.081 72.5751 22.1855 73.6797 22.1855H114.894C115.998 22.1855 116.894 23.081 116.894 24.1855V74.423C116.894 75.5276 115.998 76.423 114.894 76.423H73.6797C72.5751 76.423 71.6797 75.5276 71.6797 74.423V53L66.5 47.5L71.6797 42.5V24.1855Z" fill="white"/>
<path fill-rule="evenodd" clip-rule="evenodd" d="M73.6797 43.3492L69.3103 47.5669L73.6797 52.2065V74.423H114.894V24.1855H73.6797V43.3492ZM66.5 47.5L71.6797 42.5V24.1855C71.6797 23.081 72.5751 22.1855 73.6797 22.1855H114.894C115.998 22.1855 116.894 23.081 116.894 24.1855V74.423C116.894 75.5276 115.998 76.423 114.894 76.423H73.6797C72.5751 76.423 71.6797 75.5276 71.6797 74.423V53L66.5 47.5Z" fill="#969696"/>
<path fill-rule="evenodd" clip-rule="evenodd" d="M96.3035 32.2871C96.3035 32.011 96.5274 31.7871 96.8035 31.7871H108.746C109.022 31.7871 109.246 32.011 109.246 32.2871C109.246 32.5633 109.022 32.7871 108.746 32.7871H96.8035C96.5274 32.7871 96.3035 32.5633 96.3035 32.2871ZM96.3035 38.235C96.3035 37.9589 96.5274 37.735 96.8035 37.735H108.746C109.022 37.735 109.246 37.9589 109.246 38.235C109.246 38.5112 109.022 38.735 108.746 38.735H96.8035C96.5274 38.735 96.3035 38.5112 96.3035 38.235ZM96.3035 44.1829C96.3035 43.9068 96.5274 43.6829 96.8035 43.6829H108.746C109.022 43.6829 109.246 43.9068 109.246 44.1829C109.246 44.4591 109.022 44.6829 108.746 44.6829H96.8035C96.5274 44.6829 96.3035 44.4591 96.3035 44.1829ZM79.2188 53.7911C79.2188 53.515 79.4426 53.2911 79.7188 53.2911H91.661C91.9371 53.2911 92.161 53.515 92.161 53.7911C92.161 54.0672 91.9371 54.2911 91.661 54.2911H79.7188C79.4426 54.2911 79.2188 54.0672 79.2188 53.7911ZM79.2188 59.739C79.2188 59.4629 79.4426 59.239 79.7188 59.239H91.661C91.9371 59.239 92.161 59.4629 92.161 59.739C92.161 60.0152 91.9371 60.239 91.661 60.239H79.7188C79.4426 60.239 79.2188 60.0152 79.2188 59.739ZM79.2188 65.6869C79.2188 65.4108 79.4426 65.1869 79.7188 65.1869H91.661C91.9371 65.1869 92.161 65.4108 92.161 65.6869C92.161 65.9631 91.9371 66.1869 91.661 66.1869H79.7188C79.4426 66.1869 79.2188 65.9631 79.2188 65.6869Z" fill="#969696"/>
<path d="M90.8867 40.3711C90.8867 43.6848 88.2004 46.3711 84.8867 46.3711C81.573 46.3711 78.8867 43.6848 78.8867 40.3711C78.8867 37.0574 81.573 34.3711 84.8867 34.3711C88.2004 34.3711 90.8867 37.0574 90.8867 40.3711Z" fill="white"/>
<path fill-rule="evenodd" clip-rule="evenodd" d="M84.8867 44.3711C87.0959 44.3711 88.8867 42.5802 88.8867 40.3711C88.8867 38.162 87.0959 36.3711 84.8867 36.3711C82.6776 36.3711 80.8867 38.162 80.8867 40.3711C80.8867 42.5802 82.6776 44.3711 84.8867 44.3711ZM84.8867 46.3711C88.2004 46.3711 90.8867 43.6848 90.8867 40.3711C90.8867 37.0574 88.2004 34.3711 84.8867 34.3711C81.573 34.3711 78.8867 37.0574 78.8867 40.3711C78.8867 43.6848 81.573 46.3711 84.8867 46.3711Z" fill="#969696"/>
<path d="M98.4961 58.3477C98.4961 57.2431 99.3915 56.3477 100.496 56.3477H106.496C107.601 56.3477 108.496 57.2431 108.496 58.3477V63.4386C108.496 64.5431 107.601 65.4386 106.496 65.4386H100.496C99.3915 65.4386 98.4961 64.5431 98.4961 63.4386V58.3477Z" fill="white"/>
<path fill-rule="evenodd" clip-rule="evenodd" d="M106.496 58.3477H100.496V63.4386H106.496V58.3477ZM100.496 56.3477C99.3915 56.3477 98.4961 57.2431 98.4961 58.3477V63.4386C98.4961 64.5431 99.3915 65.4386 100.496 65.4386H106.496C107.601 65.4386 108.496 64.5431 108.496 63.4386V58.3477C108.496 57.2431 107.601 56.3477 106.496 56.3477H100.496Z" fill="#969696"/>
</svg>