<!--
 Copyright 2023-2025 Solace Systems. All rights reserved.

 Licensed under the Apache License, Version 2.0 (the "License");
 you may not use this file except in compliance with the License.
 You may obtain a copy of the License at

     http://www.apache.org/licenses/LICENSE-2.0

 Unless required by applicable law or agreed to in writing, software
 distributed under the License is distributed on an "AS IS" BASIS,
 WITHOUT WARRANTIES OR CONDITIONS OF ANY KIND, either express or implied.
 See the License for the specific language governing permissions and
 limitations under the License.
-->
<svg width="130" height="130" viewBox="0 0 130 130" fill="none" xmlns="http://www.w3.org/2000/svg">
<path d="M120 65C120 95.3757 95.3757 120 65 120C34.6243 120 10 95.3757 10 65C10 34.6243 34.6243 10 65 10C95.3757 10 120 34.6243 120 65Z" fill="#033D58" fill-opacity="0.1"/>
<path d="M59 66.6327L65 49V63.0408H71L65 81V66.6327H59Z" fill="white"/>
<path fill-rule="evenodd" clip-rule="evenodd" d="M65.3265 47.0268C66.292 47.1865 67 48.0214 67 48.9999V61.0408H71C71.6431 61.0408 72.247 61.35 72.6229 61.8719C72.9988 62.3937 73.1007 63.0645 72.8969 63.6745L66.8969 81.6337C66.5862 82.5638 65.6469 83.1314 64.679 82.974C63.711 82.8166 63 81.9806 63 80.9999V68.6326H59C58.3549 68.6326 57.7494 68.3214 57.3739 67.7969C56.9983 67.2725 56.8988 66.599 57.1066 65.9883L63.1066 48.3557C63.4219 47.4293 64.3611 46.867 65.3265 47.0268ZM65 66.6326H59L65 48.9999V63.0408H71L65 80.9999V66.6326Z" fill="#969696"/>
<path fill-rule="evenodd" clip-rule="evenodd" d="M11.2918 118.307C10.9008 117.917 10.9 117.283 11.29 116.892L21.1766 106.98C21.5666 106.589 22.1998 106.588 22.5908 106.978C22.9819 107.368 22.9827 108.001 22.5927 108.392L12.706 118.305C12.316 118.696 11.6828 118.697 11.2918 118.307Z" fill="#969696"/>
<path d="M35.8574 82.5754L44.3317 74.0792C45.1117 73.2971 46.3781 73.2955 47.1601 74.0755L47.8681 74.7817C48.6502 75.5617 48.6518 76.8281 47.8718 77.6101L39.3975 86.1064L35.8574 82.5754Z" fill="white"/>
<path fill-rule="evenodd" clip-rule="evenodd" d="M34.4434 82.5773L43.6239 73.373C44.794 72.1999 46.6935 72.1974 47.8665 73.3675L48.5746 74.0737C49.7477 75.2437 49.7501 77.1432 48.5801 78.3163L39.3996 87.5206L34.4434 82.5773ZM37.2719 82.5736L39.3959 84.6922L47.164 76.9039C47.554 76.5129 47.5532 75.8797 47.1622 75.4897L46.4542 74.7835C46.0631 74.3935 45.43 74.3943 45.0399 74.7854L37.2719 82.5736Z" fill="#969696"/>
<path d="M43.8594 90.5879L52.3337 82.0916C53.1137 81.3096 54.38 81.3079 55.1621 82.088L55.8701 82.7941C56.6522 83.5742 56.6538 84.8405 55.8738 85.6226L47.3995 94.1188L43.8594 90.5879Z" fill="white"/>
<path fill-rule="evenodd" clip-rule="evenodd" d="M42.4453 90.5897L51.6258 81.3854C52.7958 80.2123 54.6953 80.2099 55.8684 81.3799L56.5764 82.0861C57.7495 83.2562 57.752 85.1557 56.5819 86.3288L47.4014 95.533L42.4453 90.5897ZM45.2737 90.5861L47.3978 92.7046L55.1659 84.9164C55.5559 84.5253 55.5551 83.8922 55.164 83.5022L54.456 82.796C54.065 82.406 53.4318 82.4068 53.0418 82.7978L45.2737 90.5861Z" fill="#969696"/>
<path d="M28.0986 81.9541L47.9232 101.727L37.3303 112.348C34.2102 115.476 29.1449 115.483 26.0166 112.362L17.5204 103.888C14.3921 100.768 14.3856 95.7027 17.5057 92.5744L28.0986 81.9541Z" fill="white"/>
<path fill-rule="evenodd" clip-rule="evenodd" d="M45.0948 101.731L28.1022 84.7825L18.9218 93.9868C16.5816 96.333 16.5866 100.132 18.9328 102.472L27.429 110.946C29.7752 113.286 33.5742 113.282 35.9143 110.935L45.0948 101.731ZM28.0986 81.9541L17.5057 92.5744C14.3856 95.7027 14.3921 100.768 17.5204 103.888L26.0166 112.362C29.1449 115.483 34.2102 115.476 37.3303 112.348L47.9232 101.727L28.0986 81.9541Z" fill="#969696"/>
<path d="M27.6359 77.4141C28.806 76.241 30.7055 76.2386 31.8786 77.4086L52.4112 97.8881C53.5843 99.0582 53.5868 100.958 52.4167 102.131L51.0043 103.547C49.8343 104.72 47.9348 104.722 46.7617 103.552L26.2291 83.0728C25.056 81.9027 25.0535 80.0032 26.2236 78.8302L27.6359 77.4141Z" fill="white"/>
<path fill-rule="evenodd" clip-rule="evenodd" d="M50.9988 99.3042L30.4662 78.8247C30.0752 78.4346 29.442 78.4355 29.052 78.8265L27.6396 80.2425C27.2496 80.6336 27.2504 81.2667 27.6414 81.6567L48.1741 102.136C48.5651 102.526 49.1983 102.525 49.5883 102.134L51.0007 100.718C51.3907 100.327 51.3899 99.6942 50.9988 99.3042ZM31.8786 77.4086C30.7055 76.2386 28.806 76.241 27.6359 77.4141L26.2236 78.8302C25.0535 80.0032 25.056 81.9027 26.2291 83.0728L46.7617 103.552C47.9348 104.722 49.8343 104.72 51.0043 103.547L52.4167 102.131C53.5868 100.958 53.5843 99.0582 52.4112 97.8881L31.8786 77.4086Z" fill="#969696"/>
<path fill-rule="evenodd" clip-rule="evenodd" d="M27.9453 90.6465C28.1405 90.4513 28.4571 90.4513 28.6524 90.6465L39.259 101.253C39.4542 101.448 39.4542 101.765 39.259 101.96C39.0637 102.155 38.7471 102.155 38.5519 101.96L27.9453 91.3536C27.75 91.1584 27.75 90.8418 27.9453 90.6465Z" fill="#969696"/>
<path fill-rule="evenodd" clip-rule="evenodd" d="M26.6464 95.4189C26.8417 95.2236 27.1583 95.2236 27.3536 95.4189L34.4246 102.49C34.6199 102.685 34.6199 103.002 34.4246 103.197C34.2294 103.392 33.9128 103.392 33.7175 103.197L26.6464 96.126C26.4512 95.9307 26.4512 95.6141 26.6464 95.4189Z" fill="#969696"/>
<path d="M98.3416 27.3908C97.5606 26.6097 97.5606 25.3434 98.3416 24.5623L101.17 21.7339C101.951 20.9529 103.218 20.9529 103.999 21.7339L106.827 24.5623C107.608 25.3434 107.608 26.6097 106.827 27.3908L103.999 30.2192C103.218 31.0003 101.951 31.0003 101.17 30.2192L98.3416 27.3908Z" fill="white"/>
<path fill-rule="evenodd" clip-rule="evenodd" d="M97.6346 28.0979C96.463 26.9263 96.463 25.0268 97.6346 23.8552L100.463 21.0268C101.635 19.8552 103.534 19.8552 104.706 21.0268L107.534 23.8552C108.706 25.0268 108.706 26.9263 107.534 28.0979L104.706 30.9263C103.534 32.0979 101.635 32.0979 100.463 30.9263L97.6346 28.0979ZM99.0488 25.2695C98.6583 25.66 98.6583 26.2931 99.0488 26.6837L101.878 29.5121C102.268 29.9026 102.901 29.9026 103.292 29.5121L106.12 26.6837C106.511 26.2931 106.511 25.66 106.12 25.2695L103.292 22.441C102.901 22.0505 102.268 22.0505 101.878 22.441L99.0488 25.2695Z" fill="#969696"/>
<path d="M94.1174 54.8838L74.3184 35.0848L82.3057 27.0975C83.4773 25.9259 85.3768 25.9259 86.5483 27.0975L102.104 42.6539C103.276 43.8254 103.276 45.7249 102.104 46.8965L94.1174 54.8838Z" fill="white"/>
<path fill-rule="evenodd" clip-rule="evenodd" d="M77.1468 35.0848L94.1174 52.0554L100.69 45.4823C101.081 45.0918 101.081 44.4586 100.69 44.0681L85.1341 28.5116C84.7436 28.1211 84.1104 28.1211 83.7199 28.5116L77.1468 35.0848ZM94.1174 54.8838L102.104 46.8965C103.276 45.7249 103.276 43.8254 102.104 42.6539L86.5483 27.0975C85.3768 25.9259 83.4773 25.9259 82.3057 27.0975L74.3184 35.0848L94.1174 54.8838Z" fill="#969696"/>
<path fill-rule="evenodd" clip-rule="evenodd" d="M105.293 23.2695C104.902 22.879 104.902 22.2458 105.293 21.8553L115.192 11.9558C115.583 11.5653 116.216 11.5653 116.607 11.9558C116.997 12.3463 116.997 12.9795 116.607 13.37L106.707 23.2695C106.317 23.66 105.683 23.66 105.293 23.2695Z" fill="#969696"/>
<path d="M101.236 44.2568L84.9727 27.9934L87.8011 25.165C90.9253 22.0408 95.9906 22.0408 99.1148 25.165L104.065 30.1147C107.189 33.2389 107.189 38.3042 104.065 41.4284L101.236 44.2568Z" fill="white"/>
<path fill-rule="evenodd" clip-rule="evenodd" d="M87.8011 27.9934L101.236 41.4284L102.651 40.0142C104.994 37.671 104.994 33.8721 102.651 31.5289L97.7006 26.5792C95.3574 24.236 91.5585 24.236 89.2153 26.5792L87.8011 27.9934ZM101.236 44.2568L104.065 41.4284C107.189 38.3042 107.189 33.2389 104.065 30.1147L99.1148 25.165C95.9906 22.0408 90.9253 22.0408 87.8011 25.165L84.9727 27.9934L101.236 44.2568Z" fill="#969696"/>
<path d="M95.4341 59.2351C94.2625 60.4067 92.3631 60.4067 91.1915 59.2351L69.9783 38.0219C68.8067 36.8503 68.8067 34.951 69.9783 33.7794L71.3925 32.3652C72.5641 31.1936 74.4636 31.1936 75.6351 32.3652L96.8483 53.5784C98.0199 54.7499 98.0199 56.6493 96.8483 57.8209L95.4341 59.2351Z" fill="white"/>
<path fill-rule="evenodd" clip-rule="evenodd" d="M71.3925 36.6077L92.6057 57.8209C92.9962 58.2114 93.6294 58.2114 94.0199 57.8209L95.4341 56.4067C95.8246 56.0162 95.8246 55.383 95.4341 54.9925L74.2209 33.7794C73.8304 33.3889 73.1972 33.3889 72.8067 33.7794L71.3925 35.1935C71.002 35.584 71.002 36.2172 71.3925 36.6077ZM91.1915 59.2351C92.3631 60.4067 94.2625 60.4067 95.4341 59.2351L96.8483 57.8209C98.0199 56.6493 98.0199 54.7499 96.8483 53.5784L75.6351 32.3652C74.4636 31.1936 72.5641 31.1936 71.3925 32.3652L69.9783 33.7794C68.8067 34.951 68.8067 36.8503 69.9783 38.0219L91.1915 59.2351Z" fill="#969696"/>
<path d="M62.2772 18.6786C63.2842 18.627 64.2995 18.6075 65.3219 18.6212C66.3444 18.6349 67.3587 18.6814 68.364 18.7599C68.6393 18.7814 68.8451 19.022 68.8236 19.2973C68.8021 19.5726 68.5615 19.7784 68.2862 19.7569C67.3023 19.6801 66.3095 19.6345 65.3086 19.6211C64.3076 19.6077 63.3139 19.6268 62.3284 19.6773C62.0526 19.6914 61.8176 19.4793 61.8034 19.2035C61.7893 18.9277 62.0014 18.6927 62.2772 18.6786Z" fill="#969696"/>
<path d="M73.7902 20.013C73.8474 19.7429 74.1128 19.5702 74.383 19.6274C76.3863 20.0516 78.3414 20.6046 80.2393 21.2771C80.4996 21.3693 80.6358 21.6551 80.5436 21.9154C80.4513 22.1757 80.1656 22.3119 79.9053 22.2197C78.0485 21.5617 76.1358 21.0208 74.1758 20.6057C73.9057 20.5485 73.733 20.2832 73.7902 20.013Z" fill="#969696"/>
<path d="M56.8185 19.7863C56.8685 20.0579 56.6889 20.3186 56.4173 20.3686C54.4469 20.7311 52.5204 21.2208 50.6467 21.8289C50.3841 21.9141 50.102 21.7703 50.0168 21.5076C49.9315 21.245 50.0754 20.9629 50.338 20.8777C52.2532 20.2561 54.2224 19.7556 56.2363 19.3851C56.5079 19.3351 56.7686 19.5148 56.8185 19.7863Z" fill="#969696"/>
<path d="M45.3559 23.368C45.4749 23.6172 45.3694 23.9157 45.1202 24.0347C43.3218 24.8935 41.5882 25.8671 39.9289 26.9462C39.6974 27.0967 39.3877 27.0311 39.2371 26.7996C39.0866 26.5681 39.1522 26.2584 39.3837 26.1079C41.0794 25.0051 42.8512 24.0101 44.6892 23.1323C44.9384 23.0133 45.2369 23.1188 45.3559 23.368Z" fill="#969696"/>
<path d="M35.2152 29.8049C35.3946 30.0149 35.3698 30.3305 35.1598 30.5099C33.6497 31.7999 32.2248 33.1873 30.8948 34.6624C30.7099 34.8675 30.3937 34.8839 30.1886 34.699C29.9835 34.514 29.9672 34.1979 30.1521 33.9928C31.5111 32.4855 32.9672 31.0678 34.5103 29.7496C34.7202 29.5702 35.0358 29.595 35.2152 29.8049Z" fill="#969696"/>
<path d="M27.0774 38.6383C27.3048 38.7949 27.3622 39.1063 27.2055 39.3337C26.0825 40.9636 25.0629 42.6706 24.1563 44.4454C24.0307 44.6913 23.7295 44.7888 23.4836 44.6632C23.2377 44.5376 23.1402 44.2364 23.2658 43.9904C24.1924 42.1765 25.2344 40.4319 26.382 38.7663C26.5387 38.5389 26.8501 38.4816 27.0774 38.6383Z" fill="#969696"/>
<path d="M21.5 49.2733C21.7603 49.3655 21.8966 49.6513 21.8043 49.9116C21.1464 51.7684 20.6054 53.6811 20.1904 55.6411C20.1332 55.9112 19.8678 56.0838 19.5977 56.0266C19.3275 55.9694 19.1549 55.7041 19.2121 55.4339C19.6363 53.4306 20.1892 51.4755 20.8618 49.5776C20.954 49.3173 21.2398 49.1811 21.5 49.2733Z" fill="#969696"/>
<path d="M18.8814 60.9942C19.1568 61.0157 19.3625 61.2563 19.341 61.5316C19.2642 62.5154 19.2186 63.5083 19.2053 64.5092C19.1919 65.5101 19.2109 66.5039 19.2614 67.4894C19.2755 67.7652 19.0634 68.0002 18.7877 68.0143C18.5119 68.0285 18.2769 67.8163 18.2627 67.5406C18.2112 66.5335 18.1917 65.5183 18.2054 64.4959C18.219 63.4734 18.2656 62.459 18.3441 61.4538C18.3655 61.1785 18.6061 60.9727 18.8814 60.9942Z" fill="#969696"/>
<path d="M19.3706 72.999C19.6422 72.9491 19.9029 73.1287 19.9528 73.4003C20.3153 75.3707 20.805 77.2972 21.4131 79.1709C21.4984 79.4335 21.3545 79.7155 21.0919 79.8008C20.8292 79.886 20.5472 79.7422 20.462 79.4796C19.8404 77.5643 19.3399 75.5952 18.9693 73.5813C18.9194 73.3097 19.099 73.049 19.3706 72.999Z" fill="#969696"/>
<path fill-rule="evenodd" clip-rule="evenodd" d="M106.183 47.6974C106.441 47.5974 106.73 47.725 106.83 47.9824C107.56 49.8593 108.171 51.7969 108.655 53.7866C108.72 54.0549 108.556 54.3253 108.287 54.3906C108.019 54.4559 107.749 54.2913 107.683 54.023C107.21 52.0764 106.612 50.1807 105.898 48.3445C105.798 48.0871 105.926 47.7974 106.183 47.6974ZM109.152 59.3344C109.426 59.3046 109.673 59.5031 109.703 59.7776C109.811 60.7801 109.888 61.7926 109.933 62.8142C109.977 63.8357 109.988 64.8511 109.967 65.8592C109.961 66.1353 109.732 66.3544 109.456 66.3485C109.18 66.3427 108.961 66.1141 108.967 65.8381C108.988 64.8514 108.977 63.8576 108.934 62.8575C108.89 61.8575 108.815 60.8664 108.709 59.8853C108.679 59.6108 108.877 59.3641 109.152 59.3344ZM109.023 71.3486C109.296 71.3904 109.484 71.6455 109.442 71.9185C109.132 73.9426 108.691 75.9259 108.127 77.8589C108.05 78.124 107.772 78.2762 107.507 78.1989C107.242 78.1216 107.09 77.844 107.167 77.5789C107.719 75.6878 108.15 73.7475 108.453 71.7671C108.495 71.4942 108.75 71.3068 109.023 71.3486ZM105.787 82.9142C106.04 83.0257 106.154 83.3209 106.043 83.5735C105.221 85.4371 104.279 87.2379 103.228 88.9659C103.084 89.2019 102.777 89.2767 102.541 89.1332C102.305 88.9897 102.23 88.6821 102.373 88.4462C103.402 86.7552 104.323 84.9932 105.128 83.1698C105.239 82.9172 105.535 82.8028 105.787 82.9142ZM99.6576 93.2426C99.8729 93.4156 99.9071 93.7303 99.7341 93.9456C98.4628 95.5275 97.0894 97.0255 95.6236 98.4291C95.4241 98.6201 95.1076 98.6132 94.9166 98.4138C94.7256 98.2143 94.7325 97.8978 94.932 97.7068C96.3665 96.3332 97.7105 94.8673 98.9547 93.3191C99.1276 93.1039 99.4424 93.0696 99.6576 93.2426ZM91.0725 101.642C91.2359 101.865 91.1879 102.178 90.9653 102.341C89.3349 103.538 87.6224 104.632 85.8371 105.613C85.595 105.746 85.291 105.657 85.1581 105.415C85.0252 105.173 85.1136 104.869 85.3556 104.736C87.1024 103.777 88.7781 102.707 90.3735 101.535C90.5961 101.372 90.909 101.42 91.0725 101.642ZM80.6095 107.537C80.7095 107.794 80.5819 108.084 80.3245 108.184C78.4476 108.913 76.51 109.525 74.5203 110.009C74.252 110.074 73.9816 109.91 73.9163 109.641C73.851 109.373 74.0156 109.102 74.2839 109.037C76.2305 108.564 78.1262 107.965 79.9624 107.252C80.2198 107.152 80.5095 107.28 80.6095 107.537ZM50.108 108.861C50.1853 108.596 50.4629 108.443 50.728 108.521C52.6191 109.072 54.5594 109.504 56.5398 109.807C56.8127 109.849 57.0001 110.104 56.9583 110.377C56.9165 110.65 56.6614 110.837 56.3884 110.796C54.3643 110.486 52.381 110.045 50.448 109.481C50.1829 109.403 50.0307 109.126 50.108 108.861ZM61.9584 110.81C61.9642 110.534 62.1928 110.315 62.4688 110.321C63.4555 110.342 64.4493 110.331 65.4494 110.287C66.4494 110.244 67.4405 110.169 68.4216 110.062C68.6961 110.033 68.9428 110.231 68.9725 110.506C69.0023 110.78 68.8038 111.027 68.5293 111.057C67.5268 111.165 66.5143 111.242 65.4927 111.286C64.4712 111.331 63.4558 111.342 62.4477 111.321C62.1716 111.315 61.9525 111.086 61.9584 110.81Z" fill="#969696"/>
<path d="M31 42C31 45.3137 28.3137 48 25 48C21.6863 48 19 45.3137 19 42C19 38.6863 21.6863 36 25 36C28.3137 36 31 38.6863 31 42Z" fill="white"/>
<path fill-rule="evenodd" clip-rule="evenodd" d="M25 46C27.2091 46 29 44.2091 29 42C29 39.7909 27.2091 38 25 38C22.7909 38 21 39.7909 21 42C21 44.2091 22.7909 46 25 46ZM25 48C28.3137 48 31 45.3137 31 42C31 38.6863 28.3137 36 25 36C21.6863 36 19 38.6863 19 42C19 45.3137 21.6863 48 25 48Z" fill="#969696"/>
<path d="M72 106C72 104.895 72.8954 104 74 104H80C81.1046 104 82 104.895 82 106V111C82 112.105 81.1046 113 80 113H74C72.8954 113 72 112.105 72 111V106Z" fill="white"/>
<path fill-rule="evenodd" clip-rule="evenodd" d="M80 106H74V111H80V106ZM74 104C72.8954 104 72 104.895 72 106V111C72 112.105 72.8954 113 74 113H80C81.1046 113 82 112.105 82 111V106C82 104.895 81.1046 104 80 104H74Z" fill="#969696"/>
<path fill-rule="evenodd" clip-rule="evenodd" d="M114.731 69.6618C114.04 68.633 113.127 67.7539 112.04 67.1054C111.273 67.6596 110.283 67.8904 109.294 67.6573C108.305 67.4241 107.522 66.7749 107.084 65.936C105.822 66.0304 104.612 66.4084 103.535 67.02C103.624 67.9641 103.323 68.9422 102.626 69.6887C101.928 70.4358 100.976 70.797 100.035 70.7636C99.7685 71.3186 99.557 71.9111 99.4097 72.5357C99.2624 73.1602 99.1869 73.7848 99.1777 74.4006C100.034 74.7916 100.723 75.5396 101.014 76.5193C101.304 77.4983 101.136 78.5072 100.635 79.3119C101.326 80.3414 102.24 81.221 103.328 81.8696C104.095 81.3161 105.084 81.0856 106.072 81.3186C107.06 81.5515 107.843 82.1997 108.281 83.0373C109.544 82.9428 110.755 82.5643 111.833 81.9521C111.745 81.0096 112.046 80.0338 112.742 79.2887C113.438 78.5427 114.388 78.1815 115.328 78.2136C115.596 77.6575 115.808 77.0637 115.956 76.4376C116.103 75.8131 116.178 75.1885 116.187 74.5727C115.331 74.1817 114.642 73.4338 114.352 72.4543C114.062 71.4753 114.23 70.4665 114.731 69.6618Z" fill="white"/>
<path fill-rule="evenodd" clip-rule="evenodd" d="M108.907 69.2969C109.952 69.5433 111 69.4419 111.928 69.0691C112.241 69.3184 112.53 69.5943 112.794 69.8927C112.481 70.8482 112.444 71.9068 112.751 72.9422C113.058 73.9772 113.664 74.8396 114.444 75.462C114.415 75.6589 114.377 75.8565 114.331 76.0544C114.283 76.2539 114.228 76.449 114.166 76.6395C113.191 76.8481 112.264 77.3487 111.528 78.137C110.792 78.9249 110.352 79.8869 110.204 80.8796C109.834 81.0295 109.451 81.1473 109.058 81.2306C108.394 80.4833 107.503 79.9252 106.459 79.679C105.415 79.4327 104.368 79.5339 103.44 79.9063C103.126 79.6565 102.835 79.3801 102.572 79.0809C102.884 78.1255 102.921 77.0667 102.614 76.0314C102.307 74.9961 101.701 74.1336 100.921 73.5112C100.95 73.3143 100.988 73.1168 101.034 72.9189C101.081 72.7212 101.136 72.5277 101.198 72.3388C102.174 72.1307 103.103 71.6299 103.84 70.8403C104.577 70.051 105.017 69.087 105.165 68.0922C105.533 67.9431 105.915 67.8258 106.306 67.7429C106.97 68.4914 107.862 69.0504 108.907 69.2969ZM115.956 76.4376C116.103 75.8131 116.178 75.1885 116.187 74.5727C115.331 74.1817 114.642 73.4338 114.352 72.4543C114.062 71.4753 114.23 70.4665 114.731 69.6618C114.04 68.633 113.127 67.7539 112.04 67.1054C111.273 67.6596 110.283 67.8904 109.294 67.6573C108.305 67.4241 107.522 66.7749 107.084 65.936C105.822 66.0304 104.612 66.4084 103.535 67.02C103.624 67.9641 103.323 68.9422 102.626 69.6887C101.928 70.4358 100.976 70.797 100.035 70.7636C99.7685 71.3186 99.557 71.9111 99.4097 72.5357C99.2624 73.1602 99.1869 73.7848 99.1777 74.4006C100.034 74.7916 100.723 75.5396 101.014 76.5193C101.304 77.4983 101.136 78.5072 100.635 79.3119C101.326 80.3414 102.24 81.221 103.328 81.8696C104.095 81.3161 105.084 81.0856 106.072 81.3186C107.06 81.5515 107.843 82.1997 108.281 83.0373C109.544 82.9428 110.755 82.5643 111.833 81.9521C111.745 81.0096 112.046 80.0338 112.742 79.2887C113.438 78.5427 114.388 78.1815 115.328 78.2136C115.596 77.6575 115.808 77.0637 115.956 76.4376ZM109.589 74.9356C109.338 75.9972 108.283 76.6566 107.23 76.4085C106.178 76.1604 105.528 75.0986 105.779 74.037C106.029 72.9754 107.085 72.316 108.137 72.5641C109.189 72.8123 109.839 73.874 109.589 74.9356ZM111.214 75.3188C110.75 77.2859 108.793 78.5078 106.844 78.0481C104.894 77.5883 103.69 75.6209 104.154 73.6538C104.617 71.6867 106.574 70.4648 108.524 70.9246C110.473 71.3843 111.678 73.3517 111.214 75.3188Z" fill="#969696"/>
</svg>
