<?xml version="1.0" encoding="utf-8"?>
<!--
  Copyright 2023-2025 Solace Systems. All rights reserved.

  Licensed under the Apache License, Version 2.0 (the "License");
  you may not use this file except in compliance with the License.
  You may obtain a copy of the License at

      http://www.apache.org/licenses/LICENSE-2.0

  Unless required by applicable law or agreed to in writing, software
  distributed under the License is distributed on an "AS IS" BASIS,
  WITHOUT WARRANTIES OR CONDITIONS OF ANY KIND, either express or implied.
  See the License for the specific language governing permissions and
  limitations under the License.
-->
<svg width="130" height="130" viewBox="0 0 130 130" fill="none" xmlns="http://www.w3.org/2000/svg">
<g clip-path="url(#clip0_121_3425)">
<mask id="mask0_121_3425" style="mask-type:luminance" maskUnits="userSpaceOnUse" x="0" y="0" width="130" height="130">
<path d="M130 0H0V130H130V0Z" fill="white"/>
</mask>
<g mask="url(#mask0_121_3425)">
<path opacity="0.1" d="M130 61.4874C130 95.4459 102.471 122.975 68.5127 122.975C34.5542 122.975 7.02539 95.4459 7.02539 61.4874C7.02539 27.5288 34.5542 0 68.5127 0C102.471 0 130 27.5288 130 61.4874Z" fill="#033D58"/>
<path d="M0 25.9979C0 24.1286 1.51535 22.6133 3.38463 22.6133H41.082C49.1822 22.6133 55.7487 29.1798 55.7487 37.28V116.273C55.7487 118.142 54.2333 119.657 52.3641 119.657H3.38463C1.51535 119.657 0 118.142 0 116.273V25.9979Z" fill="white"/>
<path fill-rule="evenodd" clip-rule="evenodd" d="M41.082 24.8697H3.38463C2.76154 24.8697 2.25642 25.3748 2.25642 25.9979V116.273C2.25642 116.896 2.76153 117.401 3.38463 117.401H52.3641C52.9871 117.401 53.4923 116.896 53.4923 116.273V37.28C53.4923 30.426 47.936 24.8697 41.082 24.8697ZM3.38463 22.6133C1.51535 22.6133 0 24.1286 0 25.9979V116.273C0 118.142 1.51535 119.657 3.38463 119.657H52.3641C54.2333 119.657 55.7487 118.142 55.7487 116.273V37.28C55.7487 29.1798 49.1822 22.6133 41.082 22.6133H3.38463Z" fill="#969696"/>
<path fill-rule="evenodd" clip-rule="evenodd" d="M53.0258 112.821H2.25642V116.206C2.25642 116.829 2.76153 117.334 3.38462 117.334H51.8976C52.5207 117.334 53.0258 116.829 53.0258 116.206V112.821ZM0 110.565V116.206C0 118.075 1.51535 119.59 3.38462 119.59H51.8976C53.7669 119.59 55.2822 118.075 55.2822 116.206V110.565H0Z" fill="#969696"/>
<path d="M51.8984 38.3591C51.8984 29.6358 58.97 22.5642 67.6933 22.5642H107.181C109.05 22.5642 110.565 24.0796 110.565 25.9488V116.206C110.565 118.075 109.05 119.59 107.181 119.59H55.283C53.4137 119.59 51.8984 118.075 51.8984 116.206V38.3591Z" fill="white"/>
<path fill-rule="evenodd" clip-rule="evenodd" d="M107.181 24.8206H67.6933C60.2162 24.8206 54.1548 30.882 54.1548 38.3591V116.206C54.1548 116.829 54.6599 117.334 55.283 117.334H107.181C107.804 117.334 108.309 116.829 108.309 116.206V25.9488C108.309 25.3257 107.804 24.8206 107.181 24.8206ZM67.6933 22.5642C58.97 22.5642 51.8984 29.6358 51.8984 38.3591V116.206C51.8984 118.075 53.4137 119.59 55.283 119.59H107.181C109.05 119.59 110.565 118.075 110.565 116.206V25.9488C110.565 24.0796 109.05 22.5642 107.181 22.5642H67.6933Z" fill="#969696"/>
<path fill-rule="evenodd" clip-rule="evenodd" d="M108.309 112.821H54.1548V116.206C54.1548 116.829 54.6599 117.334 55.283 117.334H107.181C107.804 117.334 108.309 116.829 108.309 116.206V112.821ZM51.8984 110.565V116.206C51.8984 118.075 53.4137 119.59 55.283 119.59H107.181C109.05 119.59 110.565 118.075 110.565 116.206V110.565H51.8984Z" fill="#969696"/>
<path fill-rule="evenodd" clip-rule="evenodd" d="M29.0351 36.0336C29.0351 35.722 29.2876 35.4695 29.5992 35.4695H43.0726C43.3842 35.4695 43.6367 35.722 43.6367 36.0336C43.6367 36.3451 43.3842 36.5977 43.0726 36.5977H29.5992C29.2876 36.5977 29.0351 36.3451 29.0351 36.0336ZM29.0351 42.7441C29.0351 42.4325 29.2876 42.1799 29.5992 42.1799H43.0726C43.3842 42.1799 43.6367 42.4325 43.6367 42.7441C43.6367 43.0556 43.3842 43.3082 43.0726 43.3082H29.5992C29.2876 43.3082 29.0351 43.0556 29.0351 42.7441ZM29.0351 49.4545C29.0351 49.143 29.2876 48.8904 29.5992 48.8904H43.0726C43.3842 48.8904 43.6367 49.143 43.6367 49.4545C43.6367 49.7661 43.3842 50.0186 43.0726 50.0186H29.5992C29.2876 50.0186 29.0351 49.7661 29.0351 49.4545ZM9.75977 60.2946C9.75977 59.983 10.0123 59.7305 10.3239 59.7305H23.7973C24.1089 59.7305 24.3614 59.983 24.3614 60.2946C24.3614 60.6061 24.1089 60.8587 23.7973 60.8587H10.3239C10.0123 60.8587 9.75977 60.6061 9.75977 60.2946ZM9.75977 67.0051C9.75977 66.6935 10.0123 66.4409 10.3239 66.4409H23.7973C24.1089 66.4409 24.3614 66.6935 24.3614 67.0051C24.3614 67.3166 24.1089 67.5692 23.7973 67.5692H10.3239C10.0123 67.5692 9.75977 67.3166 9.75977 67.0051ZM9.75977 73.7155C9.75977 73.404 10.0123 73.1514 10.3239 73.1514H23.7973C24.1089 73.1514 24.3614 73.404 24.3614 73.7155C24.3614 74.0271 24.1089 74.2796 23.7973 74.2796H10.3239C10.0123 74.2796 9.75977 74.0271 9.75977 73.7155Z" fill="#969696"/>
<path fill-rule="evenodd" clip-rule="evenodd" d="M9.75977 83.5231C9.75977 83.2116 10.0123 82.959 10.3239 82.959H42.3277C42.6393 82.959 42.8918 83.2116 42.8918 83.5231C42.8918 83.8347 42.6393 84.0872 42.3277 84.0872H10.3239C10.0123 84.0872 9.75977 83.8347 9.75977 83.5231Z" fill="#969696"/>
<path fill-rule="evenodd" clip-rule="evenodd" d="M9.75977 93.8473C9.75977 93.5357 10.0123 93.2832 10.3239 93.2832H42.3277C42.6393 93.2832 42.8918 93.5357 42.8918 93.8473C42.8918 94.1588 42.6393 94.4114 42.3277 94.4114H10.3239C10.0123 94.4114 9.75977 94.1588 9.75977 93.8473Z" fill="#969696"/>
<path fill-rule="evenodd" clip-rule="evenodd" d="M9.75977 88.6852C9.75977 88.3737 10.0123 88.1211 10.3239 88.1211H42.3277C42.6393 88.1211 42.8918 88.3737 42.8918 88.6852C42.8918 88.9967 42.6393 89.2493 42.3277 89.2493H10.3239C10.0123 89.2493 9.75977 88.9967 9.75977 88.6852Z" fill="#969696"/>
<path fill-rule="evenodd" clip-rule="evenodd" d="M9.75977 99.0089C9.75977 98.6974 10.0123 98.4448 10.3239 98.4448H42.3277C42.6393 98.4448 42.8918 98.6974 42.8918 99.0089C42.8918 99.3205 42.6393 99.573 42.3277 99.573H10.3239C10.0123 99.573 9.75977 99.3205 9.75977 99.0089Z" fill="#969696"/>
<path d="M22.9252 42.8986C22.9252 46.6372 19.8945 49.6679 16.156 49.6679C12.4174 49.6679 9.38672 46.6372 9.38672 42.8986C9.38672 39.1601 12.4174 36.1294 16.156 36.1294C19.8945 36.1294 22.9252 39.1601 22.9252 42.8986Z" fill="white"/>
<path fill-rule="evenodd" clip-rule="evenodd" d="M16.156 47.4115C18.6483 47.4115 20.6688 45.391 20.6688 42.8986C20.6688 40.4063 18.6483 38.3858 16.156 38.3858C13.6636 38.3858 11.6431 40.4063 11.6431 42.8986C11.6431 45.391 13.6636 47.4115 16.156 47.4115ZM16.156 49.6679C19.8945 49.6679 22.9252 46.6372 22.9252 42.8986C22.9252 39.1601 19.8945 36.1294 16.156 36.1294C12.4174 36.1294 9.38672 39.1601 9.38672 42.8986C9.38672 46.6372 12.4174 49.6679 16.156 49.6679Z" fill="#969696"/>
<path d="M31.5098 63.1795C31.5098 61.9333 32.5201 60.9231 33.7663 60.9231H40.5355C41.7817 60.9231 42.7919 61.9334 42.7919 63.1795V68.9231C42.7919 70.1693 41.7817 71.1796 40.5355 71.1796H33.7663C32.5201 71.1796 31.5098 70.1693 31.5098 68.9231V63.1795Z" fill="white"/>
<path fill-rule="evenodd" clip-rule="evenodd" d="M40.5355 63.1795H33.7663V68.9231H40.5355V63.1795ZM33.7663 60.9231C32.5201 60.9231 31.5098 61.9333 31.5098 63.1795V68.9231C31.5098 70.1693 32.5201 71.1796 33.7663 71.1796H40.5355C41.7817 71.1796 42.7919 70.1693 42.7919 68.9231V63.1795C42.7919 61.9334 41.7817 60.9231 40.5355 60.9231H33.7663Z" fill="#969696"/>
<path d="M102.324 102.029C101.701 100.949 102.071 99.5694 103.15 98.9463L107.107 96.6618C108.187 96.0387 109.567 96.4084 110.19 97.4877L123.408 120.382C124.031 121.461 123.661 122.841 122.582 123.464L118.625 125.749C117.546 126.372 116.166 126.002 115.542 124.923L102.324 102.029Z" fill="white"/>
<path fill-rule="evenodd" clip-rule="evenodd" d="M108.236 98.6159L104.279 100.9L117.497 123.795L121.454 121.51L108.236 98.6159ZM103.15 98.9463C102.071 99.5694 101.701 100.949 102.324 102.029L115.542 124.923C116.166 126.002 117.546 126.372 118.625 125.749L122.582 123.464C123.661 122.841 124.031 121.461 123.408 120.382L110.19 97.4877C109.567 96.4084 108.187 96.0387 107.107 96.6618L103.15 98.9463Z" fill="#969696"/>
<path d="M115.802 66.4824C115.802 82.3642 102.927 95.239 87.0457 95.239C71.1639 95.239 58.2891 82.3642 58.2891 66.4824C58.2891 50.6006 71.1639 37.7258 87.0457 37.7258C102.927 37.7258 115.802 50.6006 115.802 66.4824Z" fill="white"/>
<path fill-rule="evenodd" clip-rule="evenodd" d="M87.0457 92.9825C101.681 92.9825 113.546 81.118 113.546 66.4824C113.546 51.8468 101.681 39.9822 87.0457 39.9822C72.4101 39.9822 60.5456 51.8468 60.5456 66.4824C60.5456 81.118 72.4101 92.9825 87.0457 92.9825ZM87.0457 95.239C102.927 95.239 115.802 82.3642 115.802 66.4824C115.802 50.6006 102.927 37.7258 87.0457 37.7258C71.1639 37.7258 58.2891 50.6006 58.2891 66.4824C58.2891 82.3642 71.1639 95.239 87.0457 95.239Z" fill="#969696"/>
<path d="M109.772 66.4825C109.772 79.0329 99.5974 89.2071 87.0469 89.2071C74.4964 89.2071 64.3223 79.0329 64.3223 66.4825C64.3223 53.932 74.4964 43.7578 87.0469 43.7578C99.5974 43.7578 109.772 53.932 109.772 66.4825Z" fill="white"/>
<path fill-rule="evenodd" clip-rule="evenodd" d="M87.0469 86.9507C98.3512 86.9507 107.515 77.7868 107.515 66.4825C107.515 55.1782 98.3512 46.0142 87.0469 46.0142C75.7426 46.0142 66.5787 55.1782 66.5787 66.4825C66.5787 77.7868 75.7426 86.9507 87.0469 86.9507ZM87.0469 89.2071C99.5974 89.2071 109.772 79.0329 109.772 66.4825C109.772 53.932 99.5974 43.7578 87.0469 43.7578C74.4964 43.7578 64.3223 53.932 64.3223 66.4825C64.3223 79.0329 74.4964 89.2071 87.0469 89.2071Z" fill="#969696"/>
<path fill-rule="evenodd" clip-rule="evenodd" d="M86.4824 49.2829C86.4824 48.9713 86.735 48.7188 87.0465 48.7188C96.8572 48.7188 104.81 56.6716 104.81 66.4823C104.81 66.7939 104.558 67.0465 104.246 67.0465C103.935 67.0465 103.682 66.7939 103.682 66.4823C103.682 57.2948 96.2341 49.847 87.0465 49.847C86.735 49.847 86.4824 49.5944 86.4824 49.2829ZM72.0594 74.946C72.3254 74.7837 72.6725 74.868 72.8348 75.134C73.8285 76.7627 75.0945 78.2075 76.5695 79.4049C77.4599 80.1277 78.4264 80.7603 79.4549 81.2888C81.7303 82.4579 84.3105 83.1177 87.0465 83.1177C87.3581 83.1177 87.6106 83.3704 87.6106 83.6819C87.6106 83.9935 87.3581 84.2461 87.0465 84.2461C84.127 84.2461 81.3705 83.5412 78.9393 82.2921C77.8408 81.7277 76.8089 81.0524 75.8584 80.2808C74.2841 79.0028 72.9327 77.4606 71.8717 75.7216C71.7094 75.4556 71.7935 75.1083 72.0594 74.946Z" fill="#969696"/>
<path fill-rule="evenodd" clip-rule="evenodd" d="M104.512 99.0423L100.012 91.2478L101.966 90.1196L106.466 97.9141L104.512 99.0423Z" fill="#969696"/>
<path d="M86.2917 72.1957C86.1292 72.1957 85.9938 72.1505 85.8855 72.0603C85.7772 71.952 85.7231 71.8076 85.7231 71.6271C85.7231 71.4465 85.7231 71.266 85.7231 71.0855C85.7231 70.905 85.7231 70.7245 85.7231 70.544C85.7592 69.7678 85.9307 69.0818 86.2375 68.4861C86.5444 67.8904 86.9145 67.3489 87.3477 66.8615C87.799 66.3741 88.2503 65.9138 88.7016 65.4806C89.1528 65.0293 89.5319 64.578 89.8388 64.1267C90.1637 63.6754 90.3623 63.1971 90.4345 62.6916C90.5067 62.0418 90.3803 61.5003 90.0554 61.067C89.7305 60.6157 89.2882 60.2728 88.7286 60.0381C88.169 59.8034 87.5914 59.6861 86.9957 59.6861C86.039 59.6861 85.2176 59.9388 84.5317 60.4442C83.8638 60.9316 83.4215 61.762 83.2049 62.9353C83.1508 63.1519 83.0605 63.3054 82.9341 63.3956C82.8078 63.4859 82.6634 63.531 82.5009 63.531H81.2012C81.0388 63.531 80.8943 63.4769 80.768 63.3686C80.6597 63.2603 80.6055 63.1158 80.6055 62.9353C80.6236 62.1952 80.786 61.4912 81.0929 60.8233C81.3998 60.1554 81.833 59.5688 82.3926 59.0633C82.9702 58.5579 83.6472 58.1608 84.4234 57.8719C85.2176 57.5651 86.1022 57.4116 87.0769 57.4116C88.1781 57.4116 89.1167 57.5651 89.8929 57.8719C90.6872 58.1608 91.319 58.5579 91.7883 59.0633C92.2757 59.5507 92.6277 60.0922 92.8443 60.6879C93.0609 61.2836 93.1512 61.8793 93.1151 62.475C93.061 63.1971 92.8804 63.8469 92.5736 64.4246C92.2667 64.9842 91.8966 65.5076 91.4634 65.995C91.0302 66.4644 90.5879 66.9337 90.1366 67.403C89.7034 67.8543 89.3243 68.3327 88.9994 68.8381C88.6925 69.3255 88.521 69.858 88.4849 70.4357C88.4669 70.6342 88.4488 70.8328 88.4308 71.0314C88.4308 71.2119 88.4308 71.3924 88.4308 71.5729C88.3947 71.7715 88.3225 71.9249 88.2142 72.0332C88.1059 72.1415 87.9524 72.1957 87.7539 72.1957H86.2917ZM86.0751 76.6363C85.8946 76.6363 85.7411 76.5821 85.6148 76.4738C85.5065 76.3475 85.4523 76.194 85.4523 76.0135V74.3618C85.4523 74.1813 85.5065 74.0369 85.6148 73.9286C85.7411 73.8022 85.8946 73.7391 86.0751 73.7391H87.8351C88.0337 73.7391 88.1871 73.8022 88.2954 73.9286C88.4218 74.0369 88.4849 74.1813 88.4849 74.3618V76.0135C88.4849 76.194 88.4218 76.3475 88.2954 76.4738C88.1871 76.5821 88.0337 76.6363 87.8351 76.6363H86.0751Z" fill="#969696"/>
</g>
</g>
<defs>
<clipPath id="clip0_121_3425">
<rect width="130" height="130" fill="white"/>
</clipPath>
</defs>
</svg>