<!--
 Copyright 2023-2025 Solace Systems. All rights reserved.

 Licensed under the Apache License, Version 2.0 (the "License");
 you may not use this file except in compliance with the License.
 You may obtain a copy of the License at

     http://www.apache.org/licenses/LICENSE-2.0

 Unless required by applicable law or agreed to in writing, software
 distributed under the License is distributed on an "AS IS" BASIS,
 WITHOUT WARRANTIES OR CONDITIONS OF ANY KIND, either express or implied.
 See the License for the specific language governing permissions and
 limitations under the License.
-->
<svg width="48" height="48" viewBox="0 0 48 48" fill="none" xmlns="http://www.w3.org/2000/svg">
<mask id="mask0_121_2028" style="mask-type:luminance" maskUnits="userSpaceOnUse" x="4" y="4" width="40" height="40">
<path d="M44 4H4V44H44V4Z" fill="white"/>
</mask>
<g mask="url(#mask0_121_2028)">
<path d="M4 5C4 4.44771 4.44772 4 5 4H33C33.5523 4 34 4.44772 34 5V43C34 43.5523 33.5523 44 33 44H5C4.44772 44 4 43.5523 4 43V5Z" fill="white"/>
<path fill-rule="evenodd" clip-rule="evenodd" d="M33 5H5V43H33V5ZM5 4C4.44772 4 4 4.44771 4 5V43C4 43.5523 4.44772 44 5 44H33C33.5523 44 34 43.5523 34 43V5C34 4.44772 33.5523 4 33 4H5Z" fill="#969696"/>
<path fill-rule="evenodd" clip-rule="evenodd" d="M29 29H9V39H29V29ZM9 28C8.44772 28 8 28.4477 8 29V39C8 39.5523 8.44772 40 9 40H29C29.5523 40 30 39.5523 30 39V29C30 28.4477 29.5523 28 29 28H9Z" fill="#969696"/>
<path fill-rule="evenodd" clip-rule="evenodd" d="M29 18H23V24H29V18ZM23 17C22.4477 17 22 17.4477 22 18V24C22 24.5523 22.4477 25 23 25H29C29.5523 25 30 24.5523 30 24V18C30 17.4477 29.5523 17 29 17H23Z" fill="#969696"/>
<path fill-rule="evenodd" clip-rule="evenodd" d="M17.5 11C17.5 10.7239 17.7239 10.5 18 10.5H29.57C29.8461 10.5 30.07 10.7239 30.07 11C30.07 11.2761 29.8461 11.5 29.57 11.5H18C17.7239 11.5 17.5 11.2761 17.5 11Z" fill="#969696"/>
<path fill-rule="evenodd" clip-rule="evenodd" d="M7.5 19C7.5 18.7239 7.72386 18.5 8 18.5H19.57C19.8461 18.5 20.07 18.7239 20.07 19C20.07 19.2761 19.8461 19.5 19.57 19.5H8C7.72386 19.5 7.5 19.2761 7.5 19Z" fill="#969696"/>
<path fill-rule="evenodd" clip-rule="evenodd" d="M7.5 23C7.5 22.7239 7.72386 22.5 8 22.5H19.57C19.8461 22.5 20.07 22.7239 20.07 23C20.07 23.2761 19.8461 23.5 19.57 23.5H8C7.72386 23.5 7.5 23.2761 7.5 23Z" fill="#969696"/>
<path d="M14.2453 10.6227C14.2453 12.6234 12.6234 14.2453 10.6227 14.2453C8.62192 14.2453 7 12.6234 7 10.6227C7 8.62192 8.62192 7 10.6227 7C12.6234 7 14.2453 8.62192 14.2453 10.6227Z" fill="#305D74"/>
<path d="M39.0416 4.5989L42.9779 7.19936C43.4411 7.5054 43.5686 8.12904 43.2625 8.5923L26.1649 34.4725C25.989 34.7388 25.7522 34.9593 25.4742 35.116L19.4746 38.4962L20.2301 31.6515C20.2651 31.3343 20.3751 31.03 20.551 30.7638L37.6487 4.88354C37.9547 4.42029 38.5784 4.29285 39.0416 4.5989Z" fill="white"/>
<path fill-rule="evenodd" clip-rule="evenodd" d="M19.199 38.9134C19.0425 38.81 18.957 38.6278 18.9776 38.4414L19.7331 31.5966C19.7768 31.2006 19.9142 30.8206 20.1338 30.4882L37.2315 4.60793C37.6897 3.91428 38.6235 3.72345 39.3172 4.18171L43.2534 6.78218C43.9471 7.24044 44.1379 8.17425 43.6796 8.8679L26.582 34.7481C26.3623 35.0806 26.0667 35.356 25.7196 35.5516L19.72 38.9318C19.5566 39.0239 19.3554 39.0168 19.199 38.9134ZM20.0785 37.582L25.2287 34.6803C25.4376 34.5627 25.6155 34.397 25.7476 34.1969L42.8453 8.31668C42.9991 8.08383 42.9351 7.77037 42.7022 7.61654L38.766 5.01607C38.5331 4.86224 38.2196 4.9263 38.0658 5.15915L20.9681 31.0394C20.836 31.2394 20.7534 31.468 20.7271 31.7063L20.0785 37.582Z" fill="#969696"/>
<path fill-rule="evenodd" clip-rule="evenodd" d="M20.1418 35.7313L21.6886 36.7532L20.746 38.1799L19.1992 37.1581L20.1418 35.7313Z" fill="#969696"/>
<path fill-rule="evenodd" clip-rule="evenodd" d="M36.6469 6.25403L42.2262 9.93993L41.6749 10.7743L36.0957 7.08839L36.6469 6.25403Z" fill="#969696"/>
<path fill-rule="evenodd" clip-rule="evenodd" d="M22.1245 32.5896C22.0087 32.5131 21.9768 32.3572 22.0534 32.2414L37.9784 8.13611C38.0549 8.0203 38.2108 7.98844 38.3266 8.06495C38.4424 8.14146 38.4743 8.29737 38.3978 8.41318L22.4728 32.5185C22.3962 32.6343 22.2403 32.6661 22.1245 32.5896Z" fill="#969696"/>
</g>
</svg>
