<?xml version="1.0" encoding="utf-8"?>
<!--
  Copyright 2023-2025 Solace Systems. All rights reserved.

  Licensed under the Apache License, Version 2.0 (the "License");
  you may not use this file except in compliance with the License.
  You may obtain a copy of the License at

      http://www.apache.org/licenses/LICENSE-2.0

  Unless required by applicable law or agreed to in writing, software
  distributed under the License is distributed on an "AS IS" BASIS,
  WITHOUT WARRANTIES OR CONDITIONS OF ANY KIND, either express or implied.
  See the License for the specific language governing permissions and
  limitations under the License.
-->
<svg width="176" height="88" viewBox="0 0 176 88" fill="none" xmlns="http://www.w3.org/2000/svg">
<mask id="mask0_121_1900" style="mask-type:luminance" maskUnits="userSpaceOnUse" x="4" y="4" width="168" height="80">
<path d="M172 4.00008H4V84.0001H172V4.00008Z" fill="white"/>
</mask>
<g mask="url(#mask0_121_1900)">
<path d="M6 7.5584C6 5.5932 7.59312 4.00008 9.55832 4.00008H94.4317C96.397 4.00008 97.9901 5.5932 97.9901 7.5584V59.1941H6V7.5584Z" fill="white"/>
<path fill-rule="evenodd" clip-rule="evenodd" d="M9.55832 6.00008C8.69769 6.00008 8 6.69777 8 7.5584V57.1941H95.9901V7.5584C95.9901 6.69777 95.2924 6.00008 94.4317 6.00008H9.55832ZM9.55832 4.00008C7.59312 4.00008 6 5.5932 6 7.5584V59.1941H97.9901V7.5584C97.9901 5.5932 96.397 4.00008 94.4317 4.00008H9.55832Z" fill="#969696"/>
<path d="M4 59.6688C4 58.1949 5.19484 57.0001 6.66874 57.0001H97.0009C98.4748 57.0001 99.6697 58.1949 99.6697 59.6688V61.6906C99.6697 63.1645 98.4748 64.3593 97.0009 64.3593H6.66875C5.19484 64.3593 4 63.1645 4 61.6906V59.6688Z" fill="white"/>
<path fill-rule="evenodd" clip-rule="evenodd" d="M6.66874 59.0001C6.29941 59.0001 6 59.2995 6 59.6688V61.6906C6 62.0599 6.29941 62.3593 6.66875 62.3593H97.0009C97.3703 62.3593 97.6697 62.0599 97.6697 61.6906V59.6688C97.6697 59.2995 97.3703 59.0001 97.0009 59.0001H6.66874ZM6.66874 57.0001C5.19484 57.0001 4 58.1949 4 59.6688V61.6906C4 63.1645 5.19484 64.3593 6.66875 64.3593H97.0009C98.4748 64.3593 99.6697 63.1645 99.6697 61.6906V59.6688C99.6697 58.1949 98.4748 57.0001 97.0009 57.0001H6.66874Z" fill="#969696"/>
<path fill-rule="evenodd" clip-rule="evenodd" d="M43.8332 62.5997H60.0239L63.8412 82.6407C63.9331 83.1234 63.6164 83.5891 63.1338 83.6811C62.6512 83.773 62.1854 83.4563 62.0935 82.9736L58.5516 64.3789H45.3055L41.7636 82.9736C41.6717 83.4563 41.2059 83.773 40.7233 83.6811C40.2407 83.5891 39.9239 83.1234 40.0159 82.6407L43.8332 62.5997Z" fill="#969696"/>
<path d="M115.943 19.0001C115.943 17.8955 116.839 17.0001 117.943 17.0001H146.132C147.236 17.0001 148.132 17.8955 148.132 19.0001V47.1884C148.132 48.2929 147.236 49.1884 146.132 49.1884H117.943C116.839 49.1884 115.943 48.2929 115.943 47.1884V19.0001Z" fill="white"/>
<path fill-rule="evenodd" clip-rule="evenodd" d="M146.132 19.0001H117.943V47.1884H146.132V19.0001ZM117.943 17.0001C116.839 17.0001 115.943 17.8955 115.943 19.0001V47.1884C115.943 48.2929 116.839 49.1884 117.943 49.1884H146.132C147.236 49.1884 148.132 48.2929 148.132 47.1884V19.0001C148.132 17.8955 147.236 17.0001 146.132 17.0001H117.943Z" fill="#969696"/>
<path d="M133.182 29.3145C133.182 30.4191 134.078 31.3145 135.182 31.3145H141.241C142.346 31.3145 143.241 30.4191 143.241 29.3145V24.3767C143.241 23.2721 142.346 22.3767 141.241 22.3767H135.182C134.078 22.3767 133.182 23.2721 133.182 24.3767V29.3145Z" fill="white"/>
<path fill-rule="evenodd" clip-rule="evenodd" d="M141.241 30.3145H135.182C134.63 30.3145 134.182 29.8668 134.182 29.3145V24.3767C134.182 23.8244 134.63 23.3767 135.182 23.3767H141.241C141.793 23.3767 142.241 23.8244 142.241 24.3767V29.3145C142.241 29.8668 141.793 30.3145 141.241 30.3145ZM135.182 31.3145C134.078 31.3145 133.182 30.4191 133.182 29.3145V24.3767C133.182 23.2721 134.078 22.3767 135.182 22.3767H141.241C142.346 22.3767 143.241 23.2721 143.241 24.3767V29.3145C143.241 30.4191 142.346 31.3145 141.241 31.3145H135.182Z" fill="#969696"/>
<path d="M121.271 41.1837C121.271 42.2882 122.166 43.1837 123.271 43.1837H129.329C130.434 43.1837 131.329 42.2882 131.329 41.1837V36.2459C131.329 35.1413 130.434 34.2459 129.329 34.2459H123.271C122.166 34.2459 121.271 35.1413 121.271 36.2459V41.1837Z" fill="white"/>
<path fill-rule="evenodd" clip-rule="evenodd" d="M129.329 42.1837H123.271C122.718 42.1837 122.271 41.736 122.271 41.1837V36.2459C122.271 35.6936 122.718 35.2459 123.271 35.2459H129.329C129.882 35.2459 130.329 35.6936 130.329 36.2459V41.1837C130.329 41.736 129.882 42.1837 129.329 42.1837ZM123.271 43.1837C122.166 43.1837 121.271 42.2882 121.271 41.1837V36.2459C121.271 35.1413 122.166 34.2459 123.271 34.2459H129.329C130.434 34.2459 131.329 35.1413 131.329 36.2459V41.1837C131.329 42.2882 130.434 43.1837 129.329 43.1837H123.271Z" fill="#969696"/>
<path d="M143.241 38.7141C143.241 41.3996 141.064 43.5766 138.379 43.5766C135.693 43.5766 133.516 41.3996 133.516 38.7141C133.516 36.0287 135.693 33.8516 138.379 33.8516C141.064 33.8516 143.241 36.0287 143.241 38.7141Z" fill="white"/>
<path fill-rule="evenodd" clip-rule="evenodd" d="M138.379 42.5766C140.512 42.5766 142.241 40.8473 142.241 38.7141C142.241 36.5809 140.512 34.8516 138.379 34.8516C136.246 34.8516 134.516 36.5809 134.516 38.7141C134.516 40.8473 136.246 42.5766 138.379 42.5766ZM138.379 43.5766C141.064 43.5766 143.241 41.3996 143.241 38.7141C143.241 36.0287 141.064 33.8516 138.379 33.8516C135.693 33.8516 133.516 36.0287 133.516 38.7141C133.516 41.3996 135.693 43.5766 138.379 43.5766Z" fill="#969696"/>
<path d="M11 9.67067C11 9.30032 11.3002 9.00008 11.6706 9.00008H92.2494C92.6198 9.00008 92.92 9.30032 92.92 9.67067V53.5195C92.92 53.8899 92.6198 54.1901 92.2494 54.1901H11.6706C11.3002 54.1901 11 53.8899 11 53.5195V9.67067Z" fill="#033D58" fill-opacity="0.1"/>
<path fill-rule="evenodd" clip-rule="evenodd" d="M12 10.0001V53.1901H91.92V10.0001H12ZM11.6706 9.00008C11.3002 9.00008 11 9.30032 11 9.67067V53.5195C11 53.8899 11.3002 54.1901 11.6706 54.1901H92.2494C92.6198 54.1901 92.92 53.8898 92.92 53.5195V9.67067C92.92 9.30032 92.6198 9.00008 92.2494 9.00008H11.6706Z" fill="#4D7689"/>
<path d="M30.0388 23.4941C30.0388 26.5424 27.5677 29.0135 24.5194 29.0135C21.4711 29.0135 19 26.5424 19 23.4941C19 20.4458 21.4711 17.9747 24.5194 17.9747C27.5677 17.9747 30.0388 20.4458 30.0388 23.4941Z" fill="white"/>
<path fill-rule="evenodd" clip-rule="evenodd" d="M24.5194 28.0135C27.0154 28.0135 29.0388 25.9901 29.0388 23.4941C29.0388 20.9981 27.0154 18.9747 24.5194 18.9747C22.0234 18.9747 20 20.9981 20 23.4941C20 25.9901 22.0234 28.0135 24.5194 28.0135ZM24.5194 29.0135C27.5677 29.0135 30.0388 26.5424 30.0388 23.4941C30.0388 20.4458 27.5677 17.9747 24.5194 17.9747C21.4711 17.9747 19 20.4458 19 23.4941C19 26.5424 21.4711 29.0135 24.5194 29.0135Z" fill="#969696"/>
<path d="M25.4726 38.07L25.1019 25.797C25.0856 25.2573 25.6812 24.9206 26.1352 25.2129L36.3602 31.7966C36.7821 32.0683 36.7671 32.6902 36.3324 32.9412L33.1449 34.7815L35.8842 39.526C36.0694 39.8468 35.9595 40.2569 35.6388 40.4421L33.538 41.6549C33.2173 41.8401 32.8071 41.7302 32.622 41.4095L29.8827 36.6649L26.4782 38.6305C26.0389 38.8842 25.4879 38.5771 25.4726 38.07Z" fill="white"/>
<path fill-rule="evenodd" clip-rule="evenodd" d="M30.2487 35.2989L33.3233 40.6242L34.8535 39.7407L31.7789 34.4154L35.3648 32.3451L26.1203 26.3927L26.4555 37.4889L30.2487 35.2989ZM25.1019 25.797L25.4726 38.07C25.4879 38.5771 26.0389 38.8842 26.4782 38.6305L29.8827 36.6649L32.622 41.4095C32.8071 41.7302 33.2173 41.8401 33.538 41.6549L35.6388 40.4421C35.9595 40.2569 36.0694 39.8468 35.8842 39.526L33.1449 34.7815L36.3324 32.9412C36.7671 32.6902 36.7821 32.0683 36.3602 31.7966L26.1352 25.2129C25.6812 24.9206 25.0856 25.2573 25.1019 25.797Z" fill="#969696"/>
<path fill-rule="evenodd" clip-rule="evenodd" d="M77.8898 36.7653C77.8927 36.4892 77.6713 36.2629 77.3951 36.26C76.3801 36.2492 75.3651 36.2229 74.3505 36.1811C74.0746 36.1697 73.8417 36.3842 73.8303 36.6601C73.819 36.936 74.0334 37.1689 74.3093 37.1803C75.3341 37.2225 76.3593 37.2491 77.3845 37.26C77.6607 37.2629 77.8869 37.0414 77.8898 36.7653ZM80.971 36.7351C80.9794 37.0111 81.2099 37.2281 81.4859 37.2198C82.5108 37.1888 83.5353 37.1422 84.559 37.0799C84.8346 37.0631 85.0444 36.8261 85.0277 36.5504C85.0109 36.2748 84.7738 36.0649 84.4982 36.0817C83.4847 36.1434 82.4704 36.1896 81.4557 36.2202C81.1797 36.2286 80.9627 36.4591 80.971 36.7351ZM70.7549 36.4704C70.7775 36.1952 70.5727 35.9537 70.2975 35.9311C69.286 35.848 68.2754 35.7493 67.2662 35.6352C66.9918 35.6041 66.7442 35.8014 66.7131 36.0758C66.6821 36.3502 66.8794 36.5978 67.1538 36.6288C68.1732 36.7441 69.1939 36.8438 70.2156 36.9277C70.4908 36.9504 70.7323 36.7456 70.7549 36.4704ZM88.0988 36.3005C88.1268 36.5752 88.3722 36.7752 88.647 36.7472C89.6668 36.6432 90.6854 36.5236 91.7023 36.3884C91.9761 36.352 92.1685 36.1006 92.1321 35.8269C92.0957 35.5531 91.8442 35.3607 91.5705 35.3971C90.5637 35.531 89.5552 35.6494 88.5455 35.7524C88.2708 35.7804 88.0708 36.0258 88.0988 36.3005ZM63.6592 35.6671C63.7014 35.3942 63.5144 35.1388 63.2415 35.0966C62.2387 34.9415 61.2378 34.771 60.2389 34.5851C59.9674 34.5345 59.7064 34.7136 59.6559 34.9851C59.6053 35.2566 59.7844 35.5176 60.0559 35.5682C61.0648 35.756 62.0758 35.9282 63.0887 36.0849C63.3616 36.1271 63.617 35.94 63.6592 35.6671ZM95.1774 35.3584C95.2249 35.6305 95.484 35.8124 95.756 35.7649C96.7656 35.5885 97.773 35.3965 98.7781 35.1889C99.0485 35.1331 99.2225 34.8686 99.1666 34.5981C99.1108 34.3277 98.8462 34.1537 98.5758 34.2096C97.5808 34.4151 96.5834 34.6051 95.5838 34.7798C95.3118 34.8274 95.1299 35.0864 95.1774 35.3584ZM56.639 34.3595C56.7006 34.0903 56.5323 33.8222 56.2631 33.7606C55.2742 33.5344 54.288 33.2928 53.3047 33.036C53.0375 32.9662 52.7644 33.1262 52.6946 33.3934C52.6248 33.6605 52.7848 33.9337 53.052 34.0035C54.0451 34.263 55.0413 34.5069 56.0401 34.7354C56.3093 34.797 56.5774 34.6287 56.639 34.3595ZM102.171 33.9135C102.238 34.1815 102.509 34.3445 102.777 34.2776C103.771 34.0296 104.763 33.7662 105.751 33.4874C106.016 33.4123 106.171 33.1361 106.096 32.8703C106.021 32.6046 105.745 32.45 105.479 32.525C104.501 32.801 103.519 33.0618 102.535 33.3074C102.267 33.3742 102.104 33.6456 102.171 33.9135ZM49.7301 32.5539C49.8107 32.2898 49.662 32.0104 49.3979 31.9297C48.428 31.6336 47.4616 31.3223 46.4988 30.9958C46.2373 30.9071 45.9534 31.0472 45.8647 31.3087C45.7761 31.5702 45.9162 31.8541 46.1777 31.9428C47.1501 32.2726 48.1262 32.587 49.1058 32.8861C49.3699 32.9668 49.6494 32.8181 49.7301 32.5539ZM109.043 31.973C109.129 32.2355 109.412 32.3787 109.674 32.2929C110.648 31.9747 111.617 31.6412 112.583 31.2924C112.843 31.1986 112.977 30.9121 112.884 30.6523C112.79 30.3926 112.503 30.2581 112.243 30.3519C111.287 30.6972 110.327 31.0273 109.363 31.3424C109.101 31.4282 108.958 31.7105 109.043 31.973ZM42.9676 30.2598C43.0669 30.0022 42.9385 29.7128 42.6808 29.6135C42.2072 29.4311 41.7347 29.2449 41.2633 29.0549L39.4347 28.3181C39.1786 28.2149 38.8873 28.3388 38.7841 28.595C38.6809 28.8511 38.8048 29.1424 39.061 29.2456L40.8895 29.9824C41.3657 30.1743 41.843 30.3624 42.3213 30.5467C42.5789 30.6459 42.8683 30.5175 42.9676 30.2598ZM115.76 29.5469C115.864 29.8026 116.156 29.9253 116.411 29.821C116.886 29.6274 117.36 29.43 117.832 29.2288L119.185 28.6527C119.439 28.5445 119.557 28.2508 119.449 27.9968C119.34 27.7427 119.047 27.6245 118.793 27.7327L117.44 28.3088C116.972 28.508 116.504 28.7034 116.034 28.8951C115.778 28.9994 115.655 29.2912 115.76 29.5469ZM34.8354 27.0038C34.9386 26.7477 34.8146 26.4564 34.5585 26.3532L32.7299 25.6164C32.4738 25.5132 32.1825 25.6371 32.0793 25.8933C31.9761 26.1494 32.1 26.4407 32.3562 26.5439L34.1847 27.2807C34.4409 27.3839 34.7322 27.26 34.8354 27.0038ZM122.136 26.8522C122.244 27.1063 122.538 27.2245 122.792 27.1163L124.145 26.5402C124.399 26.432 124.517 26.1383 124.409 25.8842C124.301 25.6302 124.007 25.5119 123.753 25.6201L122.4 26.1963C122.146 26.3045 122.028 26.5982 122.136 26.8522Z" fill="#969696"/>
</g>
</svg>