<?xml version="1.0" encoding="utf-8"?>
<!--
  Copyright 2023-2025 Solace Systems. All rights reserved.

  Licensed under the Apache License, Version 2.0 (the "License");
  you may not use this file except in compliance with the License.
  You may obtain a copy of the License at

      http://www.apache.org/licenses/LICENSE-2.0

  Unless required by applicable law or agreed to in writing, software
  distributed under the License is distributed on an "AS IS" BASIS,
  WITHOUT WARRANTIES OR CONDITIONS OF ANY KIND, either express or implied.
  See the License for the specific language governing permissions and
  limitations under the License.
-->
<svg width="130" height="130" viewBox="0 0 130 130" fill="none" xmlns="http://www.w3.org/2000/svg">
<path opacity="0.1" d="M119 62.5C119 92.5995 94.5995 117 64.5 117C34.4005 117 10 92.5995 10 62.5C10 32.4005 34.4005 8 64.5 8C94.5995 8 119 32.4005 119 62.5Z" fill="#033D58"/>
<path d="M128 119H2V120H128V119Z" fill="#969696"/>
<path d="M13.0684 34.0697C13.0684 31.8606 14.8593 30.0697 17.0684 30.0697H112.477C114.686 30.0697 116.477 31.8606 116.477 34.0697V92.1148H13.0684V34.0697Z" fill="white"/>
<path fill-rule="evenodd" clip-rule="evenodd" d="M112.477 32.0697H17.0684C15.9639 32.0697 15.0684 32.9651 15.0684 34.0697V90.1148H114.477V34.0697C114.477 32.9651 113.582 32.0697 112.477 32.0697ZM17.0684 30.0697C14.8593 30.0697 13.0684 31.8606 13.0684 34.0697V92.1148H116.477V34.0697C116.477 31.8606 114.686 30.0697 112.477 30.0697H17.0684Z" fill="#969696"/>
<path fill-rule="evenodd" clip-rule="evenodd" d="M72.6982 95.7485C72.6982 96.3008 72.2504 96.7485 71.6982 96.7485H53.3008C52.7486 96.7485 52.3008 96.3008 52.3008 95.7485C52.3008 95.1963 52.7486 94.7485 53.3008 94.7485H71.6982C72.2504 94.7485 72.6982 95.1963 72.6982 95.7485Z" fill="#969696"/>
<path fill-rule="evenodd" clip-rule="evenodd" d="M17.2031 34.7374C17.4792 34.7374 17.7031 34.9613 17.7031 35.2374V86.9416C17.7031 87.2178 17.4792 87.4416 17.2031 87.4416C16.927 87.4416 16.7031 87.2178 16.7031 86.9416V35.2374C16.7031 34.9613 16.927 34.7374 17.2031 34.7374Z" fill="#969696"/>
<path fill-rule="evenodd" clip-rule="evenodd" d="M112.344 34.7374C112.62 34.7374 112.844 34.9613 112.844 35.2374V87.9757C112.844 88.2519 112.62 88.4757 112.344 88.4757C112.068 88.4757 111.844 88.2519 111.844 87.9757V35.2374C111.844 34.9613 112.068 34.7374 112.344 34.7374Z" fill="#969696"/>
<path d="M11 93.0446C11 91.3877 12.3431 90.0446 14 90.0446H115.545C117.202 90.0446 118.545 91.3877 118.545 93.0446V95.3172C118.545 96.9741 117.202 98.3172 115.545 98.3172H14C12.3431 98.3172 11 96.9741 11 95.3172V93.0446Z" fill="white"/>
<path fill-rule="evenodd" clip-rule="evenodd" d="M115.545 92.0446H14C13.4477 92.0446 13 92.4923 13 93.0446V95.3172C13 95.8695 13.4477 96.3172 14 96.3172H115.545C116.097 96.3172 116.545 95.8695 116.545 95.3172V93.0446C116.545 92.4923 116.097 92.0446 115.545 92.0446ZM14 90.0446C12.3431 90.0446 11 91.3877 11 93.0446V95.3172C11 96.9741 12.3431 98.3172 14 98.3172H115.545C117.202 98.3172 118.545 96.9741 118.545 95.3172V93.0446C118.545 91.3877 117.202 90.0446 115.545 90.0446H14Z" fill="#969696"/>
<path d="M19.2715 88.4941C19.2715 87.0664 20.429 85.9089 21.8568 85.9089H32.1976C33.6254 85.9089 34.7828 87.0664 34.7828 88.4941C34.7828 89.9219 33.6254 91.0794 32.1976 91.0794H21.8568C20.429 91.0794 19.2715 89.9219 19.2715 88.4941Z" fill="white"/>
<path fill-rule="evenodd" clip-rule="evenodd" d="M32.1976 87.9089H21.8568C21.5335 87.9089 21.2715 88.1709 21.2715 88.4941C21.2715 88.8173 21.5335 89.0794 21.8568 89.0794H32.1976C32.5208 89.0794 32.7828 88.8173 32.7828 88.4941C32.7828 88.1709 32.5208 87.9089 32.1976 87.9089ZM21.8568 85.9089C20.429 85.9089 19.2715 87.0664 19.2715 88.4941C19.2715 89.9219 20.429 91.0794 21.8568 91.0794H32.1976C33.6254 91.0794 34.7828 89.9219 34.7828 88.4941C34.7828 87.0664 33.6254 85.9089 32.1976 85.9089H21.8568Z" fill="#969696"/>
<path d="M36.8524 45.5776C36.8524 49.0042 34.0746 51.7821 30.6479 51.7821C27.2213 51.7821 24.4434 49.0042 24.4434 45.5776C24.4434 42.1509 27.2213 39.373 30.6479 39.373C34.0746 39.373 36.8524 42.1509 36.8524 45.5776Z" fill="white"/>
<path fill-rule="evenodd" clip-rule="evenodd" d="M30.6479 49.7821C32.97 49.7821 34.8524 47.8996 34.8524 45.5776C34.8524 43.2555 32.97 41.373 30.6479 41.373C28.3259 41.373 26.4434 43.2555 26.4434 45.5776C26.4434 47.8996 28.3259 49.7821 30.6479 49.7821ZM30.6479 51.7821C34.0746 51.7821 36.8524 49.0042 36.8524 45.5776C36.8524 42.1509 34.0746 39.373 30.6479 39.373C27.2213 39.373 24.4434 42.1509 24.4434 45.5776C24.4434 49.0042 27.2213 51.7821 30.6479 51.7821Z" fill="#969696"/>
<path d="M104.065 45.5776C104.065 49.0042 101.287 51.7821 97.8608 51.7821C94.4342 51.7821 91.6562 49.0042 91.6562 45.5776C91.6562 42.1509 94.4342 39.373 97.8608 39.373C101.287 39.373 104.065 42.1509 104.065 45.5776Z" fill="white"/>
<path fill-rule="evenodd" clip-rule="evenodd" d="M97.8608 49.7821C100.183 49.7821 102.065 47.8996 102.065 45.5776C102.065 43.2555 100.183 41.373 97.8608 41.373C95.5387 41.373 93.6562 43.2555 93.6562 45.5776C93.6562 47.8996 95.5387 49.7821 97.8608 49.7821ZM97.8608 51.7821C101.287 51.7821 104.065 49.0042 104.065 45.5776C104.065 42.1509 101.287 39.373 97.8608 39.373C94.4342 39.373 91.6562 42.1509 91.6562 45.5776C91.6562 49.0042 94.4342 51.7821 97.8608 51.7821Z" fill="#969696"/>
<path d="M70.9774 79.7045C70.9774 83.1312 68.1996 85.909 64.7729 85.909C61.3463 85.909 58.5684 83.1312 58.5684 79.7045C58.5684 76.2779 61.3463 73.5 64.7729 73.5C68.1996 73.5 70.9774 76.2779 70.9774 79.7045Z" fill="white"/>
<path fill-rule="evenodd" clip-rule="evenodd" d="M64.7729 83.909C67.095 83.909 68.9774 82.0266 68.9774 79.7045C68.9774 77.3824 67.095 75.5 64.7729 75.5C62.4509 75.5 60.5684 77.3824 60.5684 79.7045C60.5684 82.0266 62.4509 83.909 64.7729 83.909ZM64.7729 85.909C68.1996 85.909 70.9774 83.1312 70.9774 79.7045C70.9774 76.2779 68.1996 73.5 64.7729 73.5C61.3463 73.5 58.5684 76.2779 58.5684 79.7045C58.5684 83.1312 61.3463 85.909 64.7729 85.909Z" fill="#969696"/>
<path fill-rule="evenodd" clip-rule="evenodd" d="M85.417 45.5785C85.417 46.1308 84.9693 46.5785 84.417 46.5785H42.0195C41.4672 46.5785 41.0195 46.1308 41.0195 45.5785C41.0195 45.0262 41.4672 44.5785 42.0195 44.5785H84.417C84.9693 44.5785 85.417 45.0262 85.417 45.5785Z" fill="#969696"/>
<path fill-rule="evenodd" clip-rule="evenodd" d="M86.4538 45.5102C86.4563 45.7754 86.3534 46.0308 86.1676 46.2201L83.0653 49.3817C82.6785 49.7759 82.0454 49.7819 81.6512 49.3951C81.257 49.0083 81.251 48.3751 81.6378 47.9809L84.0395 45.5333L81.6513 43.1907C81.257 42.804 81.2509 42.1708 81.6377 41.7766C82.0244 41.3823 82.6575 41.3762 83.0518 41.7629L86.1541 44.8059C86.3434 44.9916 86.4512 45.245 86.4538 45.5102Z" fill="#969696"/>
<path fill-rule="evenodd" clip-rule="evenodd" d="M64.7754 69.328C64.2231 69.328 63.7754 68.8803 63.7754 68.328V52.8167C63.7754 52.2645 64.2231 51.8167 64.7754 51.8167C65.3277 51.8167 65.7754 52.2645 65.7754 52.8167V68.328C65.7754 68.8803 65.3277 69.328 64.7754 69.328Z" fill="#969696"/>
<path fill-rule="evenodd" clip-rule="evenodd" d="M64.841 70.3619C64.5758 70.3644 64.3204 70.2615 64.1311 70.0757L60.9695 66.9735C60.5753 66.5866 60.5693 65.9535 60.9562 65.5593C61.343 65.1651 61.9761 65.1591 62.3703 65.5459L64.818 67.9477L67.1605 65.5594C67.5473 65.1652 68.1804 65.159 68.5747 65.5458C68.969 65.9325 68.9751 66.5657 68.5883 66.9599L65.5454 70.0622C65.3596 70.2515 65.1063 70.3594 64.841 70.3619Z" fill="#969696"/>
<path fill-rule="evenodd" clip-rule="evenodd" d="M94.1459 56.5499C94.6638 56.7416 94.9282 57.3169 94.7365 57.8349L87.8111 76.5395C87.6193 77.0575 87.044 77.3219 86.5261 77.1301C86.0082 76.9384 85.7437 76.363 85.9355 75.8451L92.8609 57.1404C93.0526 56.6225 93.628 56.3581 94.1459 56.5499Z" fill="#969696"/>
<path fill-rule="evenodd" clip-rule="evenodd" d="M94.5847 55.0014C94.852 55.0859 95.0715 55.2787 95.1899 55.5328L97.4001 60.2796C97.6333 60.7802 97.4164 61.3751 96.9157 61.6082C96.415 61.8414 95.8202 61.6245 95.5871 61.1238L93.8373 57.366L90.2455 59.4353C89.7669 59.711 89.1555 59.5466 88.8798 59.068C88.6041 58.5895 88.7685 57.978 89.2471 57.7023L93.7841 55.0884C94.027 54.9485 94.3175 54.9169 94.5847 55.0014Z" fill="#969696"/>
<path d="M81.3184 77.5679C81.3184 76.4633 82.2139 75.5679 83.3184 75.5679H89.6593C90.7639 75.5679 91.6593 76.4633 91.6593 77.5679V82.8746C91.6593 83.9792 90.7639 84.8746 89.6593 84.8746H83.3184C82.2139 84.8746 81.3184 83.9792 81.3184 82.8746V77.5679Z" fill="white"/>
<path fill-rule="evenodd" clip-rule="evenodd" d="M89.6593 77.5679H83.3184V82.8746H89.6593V77.5679ZM83.3184 75.5679C82.2139 75.5679 81.3184 76.4633 81.3184 77.5679V82.8746C81.3184 83.9792 82.2139 84.8746 83.3184 84.8746H89.6593C90.7639 84.8746 91.6593 83.9792 91.6593 82.8746V77.5679C91.6593 76.4633 90.7639 75.5679 89.6593 75.5679H83.3184Z" fill="#969696"/>
<path d="M59.5996 42.4089C59.5996 41.3044 60.4951 40.4089 61.5996 40.4089H67.9405C69.0451 40.4089 69.9405 41.3044 69.9405 42.4089V47.7157C69.9405 48.8203 69.0451 49.7157 67.9405 49.7157H61.5996C60.4951 49.7157 59.5996 48.8203 59.5996 47.7157V42.4089Z" fill="white"/>
<path fill-rule="evenodd" clip-rule="evenodd" d="M67.9405 42.4089H61.5996V47.7157H67.9405V42.4089ZM61.5996 40.4089C60.4951 40.4089 59.5996 41.3044 59.5996 42.4089V47.7157C59.5996 48.8203 60.4951 49.7157 61.5996 49.7157H67.9405C69.0451 49.7157 69.9405 48.8203 69.9405 47.7157V42.4089C69.9405 41.3044 69.0451 40.4089 67.9405 40.4089H61.5996Z" fill="#969696"/>
<path d="M56.5 29C56.5 28.4477 56.9477 28 57.5 28H71.0113C71.5636 28 72.0113 28.4477 72.0113 29V33.2045C72.0113 33.7568 71.5636 34.2045 71.0113 34.2045H57.5C56.9477 34.2045 56.5 33.7568 56.5 33.2045V29Z" fill="white"/>
<path fill-rule="evenodd" clip-rule="evenodd" d="M71.0113 29H57.5V33.2045H71.0113V29ZM57.5 28C56.9477 28 56.5 28.4477 56.5 29V33.2045C56.5 33.7568 56.9477 34.2045 57.5 34.2045H71.0113C71.5636 34.2045 72.0113 33.7568 72.0113 33.2045V29C72.0113 28.4477 71.5636 28 71.0113 28H57.5Z" fill="#969696"/>
<path fill-rule="evenodd" clip-rule="evenodd" d="M55.6683 96.2839H73.8687L78.1599 118.813C78.2632 119.355 77.9072 119.879 77.3647 119.982C76.8221 120.085 76.2985 119.729 76.1952 119.187L72.2137 98.2839H57.3234L53.3419 119.187C53.2385 119.729 52.7149 120.085 52.1724 119.982C51.6299 119.879 51.2738 119.355 51.3772 118.813L55.6683 96.2839Z" fill="#969696"/>
</svg>