<?xml version="1.0" encoding="utf-8"?>
<!--
  Copyright 2023-2025 Solace Systems. All rights reserved.

  Licensed under the Apache License, Version 2.0 (the "License");
  you may not use this file except in compliance with the License.
  You may obtain a copy of the License at

      http://www.apache.org/licenses/LICENSE-2.0

  Unless required by applicable law or agreed to in writing, software
  distributed under the License is distributed on an "AS IS" BASIS,
  WITHOUT WARRANTIES OR CONDITIONS OF ANY KIND, either express or implied.
  See the License for the specific language governing permissions and
  limitations under the License.
-->
<svg width="80" height="80" viewBox="0 0 80 80" fill="none" xmlns="http://www.w3.org/2000/svg">
<path opacity="0.1" d="M73.8466 38.7692C73.8466 57.462 58.6932 72.6154 40.0005 72.6154C21.3077 72.6154 6.1543 57.462 6.1543 38.7692C6.1543 20.0765 21.3077 4.9231 40.0005 4.9231C58.6932 4.9231 73.8466 20.0765 73.8466 38.7692Z" fill="#033D58"/>
<path fill-rule="evenodd" clip-rule="evenodd" d="M1.3457 73.5385C1.3457 73.2623 1.56956 73.0385 1.8457 73.0385H78.1534C78.4295 73.0385 78.6534 73.2623 78.6534 73.5385C78.6534 73.8146 78.4295 74.0385 78.1534 74.0385H1.8457C1.56956 74.0385 1.3457 73.8146 1.3457 73.5385Z" fill="#969696"/>
<path fill-rule="evenodd" clip-rule="evenodd" d="M34.0647 59.5H45.9358L49.1026 73.1175C49.1652 73.3865 48.9979 73.6552 48.7289 73.7178C48.4599 73.7803 48.1912 73.613 48.1286 73.344L45.1417 60.5H34.8589L31.8719 73.344C31.8093 73.613 31.5406 73.7803 31.2716 73.7178C31.0027 73.6552 30.8353 73.3865 30.8979 73.1175L34.0647 59.5Z" fill="#969696"/>
<path d="M8.61553 56V22.0769C8.61553 20.42 9.95868 19.0769 11.6155 19.0769H35.0771H40.0001H44.9232H68.3848C70.0416 19.0769 71.3848 20.4201 71.3848 22.0769V56C72.0645 56 72.6155 56.551 72.6155 57.2308V58C72.6155 59.1046 71.7201 60 70.6155 60H9.38476C8.28019 60 7.38477 59.1046 7.38477 58V57.2308C7.38477 56.551 7.9358 56 8.61553 56Z" fill="white"/>
<path fill-rule="evenodd" clip-rule="evenodd" d="M10.4617 19.5769C9.71823 19.5769 9.11553 20.1796 9.11553 20.9231V55.5H70.8848V20.9231C70.8848 20.1796 70.2821 19.5769 69.5386 19.5769H10.4617ZM71.8848 55.5733V20.9231C71.8848 19.6273 70.8344 18.5769 69.5386 18.5769H10.4617C9.16594 18.5769 8.11553 19.6273 8.11553 20.9231V55.5733C7.40343 55.7878 6.88477 56.4487 6.88477 57.2308V58.7692C6.88477 59.7251 7.65966 60.5 8.61553 60.5H71.3848C72.3406 60.5 73.1155 59.7251 73.1155 58.7692V57.2308C73.1155 56.4487 72.5969 55.7878 71.8848 55.5733ZM8.61553 56.5C8.21194 56.5 7.88477 56.8272 7.88477 57.2308V58.7692C7.88477 59.1728 8.21194 59.5 8.61553 59.5H71.3848C71.7884 59.5 72.1155 59.1728 72.1155 58.7692V57.2308C72.1155 56.8272 71.7884 56.5 71.3848 56.5H8.61553Z" fill="#969696"/>
<path fill-rule="evenodd" clip-rule="evenodd" d="M50.4152 26.7234C50.6105 26.5281 50.9271 26.5281 51.1223 26.7234L52.9685 28.5695C53.1637 28.7648 53.1637 29.0813 52.9685 29.2766L51.1223 31.1228C50.9271 31.318 50.6105 31.318 50.4152 31.1228C50.22 30.9275 50.22 30.6109 50.4152 30.4157L51.4078 29.4231H25.8457C25.5695 29.4231 25.3457 29.1992 25.3457 28.9231C25.3457 28.6469 25.5695 28.4231 25.8457 28.4231H51.4078L50.4152 27.4305C50.22 27.2352 50.22 26.9186 50.4152 26.7234Z" fill="#969696"/>
<path fill-rule="evenodd" clip-rule="evenodd" d="M42.2001 41.1849C42.3954 41.3801 42.3954 41.6967 42.2001 41.892L40.354 43.7381C40.1587 43.9334 39.8421 43.9334 39.6469 43.7381L37.8007 41.892C37.6055 41.6967 37.6055 41.3801 37.8007 41.1849C37.996 40.9896 38.3126 40.9896 38.5078 41.1849L39.5004 42.1775V33.2307C39.5004 32.9546 39.7243 32.7307 40.0004 32.7307C40.2766 32.7307 40.5004 32.9546 40.5004 33.2307V42.1775L41.493 41.1849C41.6883 40.9896 42.0049 40.9896 42.2001 41.1849Z" fill="#969696"/>
<path fill-rule="evenodd" clip-rule="evenodd" d="M56.7163 35.7923C56.5996 35.542 56.7079 35.2445 56.9582 35.1278L59.3244 34.0244C59.5747 33.9077 59.8722 34.016 59.9889 34.2662L61.0923 36.6325C61.209 36.8827 61.1007 37.1802 60.8504 37.2969C60.6002 37.4136 60.3027 37.3054 60.186 37.0551L59.5927 35.7829L55.7435 46.3586C55.649 46.6181 55.3621 46.7519 55.1026 46.6574C54.8431 46.563 54.7093 46.276 54.8038 46.0166L58.653 35.4408L57.3808 36.0341C57.1305 36.1508 56.833 36.0425 56.7163 35.7923Z" fill="#969696"/>
<path d="M18.7683 32C20.4677 32 21.8452 30.6224 21.8452 28.9231C21.8452 27.2238 20.4677 25.8462 18.7683 25.8462C17.069 25.8462 15.6914 27.2238 15.6914 28.9231C15.6914 30.6224 17.069 32 18.7683 32Z" fill="white"/>
<path fill-rule="evenodd" clip-rule="evenodd" d="M18.7703 26.3462C17.3471 26.3462 16.1934 27.4999 16.1934 28.9231C16.1934 30.3463 17.3471 31.5 18.7703 31.5C20.1935 31.5 21.3472 30.3463 21.3472 28.9231C21.3472 27.4999 20.1935 26.3462 18.7703 26.3462ZM15.1934 28.9231C15.1934 26.9476 16.7948 25.3462 18.7703 25.3462C20.7458 25.3462 22.3472 26.9476 22.3472 28.9231C22.3472 30.8986 20.7458 32.5 18.7703 32.5C16.7948 32.5 15.1934 30.8986 15.1934 28.9231Z" fill="#969696"/>
<path d="M60.3074 32C62.0067 32 63.3843 30.6224 63.3843 28.9231C63.3843 27.2238 62.0067 25.8462 60.3074 25.8462C58.6081 25.8462 57.2305 27.2238 57.2305 28.9231C57.2305 30.6224 58.6081 32 60.3074 32Z" fill="#305D74"/>
<path fill-rule="evenodd" clip-rule="evenodd" d="M60.3074 26.3462C58.8842 26.3462 57.7305 27.4999 57.7305 28.9231C57.7305 30.3463 58.8842 31.5 60.3074 31.5C61.7306 31.5 62.8843 30.3463 62.8843 28.9231C62.8843 27.4999 61.7306 26.3462 60.3074 26.3462ZM56.7305 28.9231C56.7305 26.9476 58.3319 25.3462 60.3074 25.3462C62.2829 25.3462 63.8843 26.9476 63.8843 28.9231C63.8843 30.8986 62.2829 32.5 60.3074 32.5C58.3319 32.5 56.7305 30.8986 56.7305 28.9231Z" fill="#305D74"/>
<path d="M40.0008 52.3076C41.7001 52.3076 43.0777 50.93 43.0777 49.2307C43.0777 47.5314 41.7001 46.1538 40.0008 46.1538C38.3014 46.1538 36.9238 47.5314 36.9238 49.2307C36.9238 50.93 38.3014 52.3076 40.0008 52.3076Z" fill="white"/>
<path fill-rule="evenodd" clip-rule="evenodd" d="M40.0007 46.6538C38.5775 46.6538 37.4238 47.8075 37.4238 49.2307C37.4238 50.6539 38.5775 51.8077 40.0007 51.8077C41.4239 51.8077 42.5776 50.6539 42.5776 49.2307C42.5776 47.8075 41.4239 46.6538 40.0007 46.6538ZM36.4238 49.2307C36.4238 47.2553 38.0252 45.6538 40.0007 45.6538C41.9762 45.6538 43.5776 47.2553 43.5776 49.2307C43.5776 51.2062 41.9762 52.8077 40.0007 52.8077C38.0252 52.8077 36.4238 51.2062 36.4238 49.2307Z" fill="#969696"/>
<path d="M37.5391 27.0769C37.5391 26.7371 37.7595 26.4615 38.0314 26.4615H41.9698C42.2417 26.4615 42.4622 26.7371 42.4622 27.0769V30.1539C42.4622 30.4937 42.2417 30.7692 41.9698 30.7692H38.0314C37.7595 30.7692 37.5391 30.4937 37.5391 30.1539V27.0769Z" fill="white"/>
<path fill-rule="evenodd" clip-rule="evenodd" d="M37.0391 27.0769C37.0391 26.4609 37.5384 25.9615 38.1545 25.9615H41.8468C42.4628 25.9615 42.9622 26.4609 42.9622 27.0769V30.1539C42.9622 30.7699 42.4628 31.2692 41.8468 31.2692H38.1545C37.5384 31.2692 37.0391 30.7699 37.0391 30.1539V27.0769ZM38.1545 26.9615C38.0907 26.9615 38.0391 27.0132 38.0391 27.0769V30.1539C38.0391 30.2176 38.0907 30.2692 38.1545 30.2692H41.8468C41.9105 30.2692 41.9622 30.2176 41.9622 30.1539V27.0769C41.9622 27.0132 41.9105 26.9615 41.8468 26.9615H38.1545Z" fill="#969696"/>
<path d="M52.3066 47.3847C52.3066 47.0448 52.5821 46.7693 52.922 46.7693H56.6143C56.9542 46.7693 57.2297 47.0448 57.2297 47.3847V50.4616C57.2297 50.8015 56.9542 51.077 56.6143 51.077H52.922C52.5821 51.077 52.3066 50.8015 52.3066 50.4616V47.3847Z" fill="white"/>
<path d="M52.3066 47.3847C52.3066 47.0448 52.5821 46.7693 52.922 46.7693H56.6143C56.9542 46.7693 57.2297 47.0448 57.2297 47.3847V50.4616C57.2297 50.8015 56.9542 51.077 56.6143 51.077H52.922C52.5821 51.077 52.3066 50.8015 52.3066 50.4616V47.3847Z" stroke="#969696"/>
<path fill-rule="evenodd" clip-rule="evenodd" d="M22.1535 39.6923C21.5389 39.6923 20.9845 39.4349 20.5921 39.022C19.9573 39.2341 19.3801 39.5721 18.8901 40.0062C19.0509 40.5521 18.9965 41.1605 18.6894 41.6923C18.3822 42.2244 17.8822 42.5758 17.3286 42.7093C17.2642 43.0269 17.2305 43.3557 17.2305 43.6923C17.2305 44.0289 17.2642 44.3576 17.3286 44.6752C17.8822 44.8087 18.3822 45.1601 18.6894 45.6923C18.9965 46.2241 19.0509 46.8324 18.8901 47.3783C19.3801 47.8125 19.9573 48.1504 20.5921 48.3626C20.9845 47.9497 21.539 47.6923 22.1535 47.6923C22.7681 47.6923 23.3226 47.9497 23.715 48.3626C24.3498 48.1504 24.927 47.8125 25.417 47.3783C25.2561 46.8324 25.3106 46.2241 25.6176 45.6923C25.9249 45.1602 26.4248 44.8087 26.9785 44.6753C27.0428 44.3576 27.0766 44.0289 27.0766 43.6923C27.0766 43.3556 27.0428 43.0269 26.9785 42.7093C26.4248 42.5758 25.9249 42.2244 25.6176 41.6923C25.3106 41.1605 25.2561 40.5521 25.417 40.0062C24.927 39.5721 24.3498 39.2341 23.715 39.022C23.3226 39.4349 22.7681 39.6923 22.1535 39.6923ZM22.1535 45.5384C23.1731 45.5384 23.9997 44.7119 23.9997 43.6923C23.9997 42.6727 23.1731 41.8461 22.1535 41.8461C21.1339 41.8461 20.3074 42.6727 20.3074 43.6923C20.3074 44.7119 21.1339 45.5384 22.1535 45.5384Z" fill="white"/>
<path fill-rule="evenodd" clip-rule="evenodd" d="M20.7353 38.4469L20.9545 38.6775C21.2564 38.9952 21.6816 39.1923 22.1535 39.1923C22.6255 39.1923 23.0506 38.9952 23.3526 38.6775L23.5717 38.4469L23.8735 38.5477C24.5733 38.7816 25.2092 39.154 25.7486 39.632L25.9864 39.8427L25.8966 40.1475C25.7728 40.5676 25.8149 41.0339 26.0506 41.4423C26.2866 41.8509 26.6697 42.1205 27.0956 42.2232L27.4053 42.2978L27.4685 42.61C27.5395 42.9601 27.5766 43.3221 27.5766 43.6923C27.5766 44.0624 27.5395 44.4244 27.4685 44.7745L27.4053 45.0867L27.0956 45.1613C26.6697 45.264 26.2866 45.5336 26.0506 45.9423C25.8149 46.3507 25.7728 46.8169 25.8966 47.237L25.9864 47.5418L25.7486 47.7526C25.2092 48.2305 24.5733 48.6029 23.8735 48.8368L23.5717 48.9376L23.3526 48.707C23.0506 48.3893 22.6255 48.1923 22.1535 48.1923C21.6816 48.1923 21.2565 48.3893 20.9545 48.707L20.7353 48.9376L20.4336 48.8368C19.7337 48.6029 19.0979 48.2305 18.5585 47.7526L18.3206 47.5418L18.4105 47.237C18.5342 46.8169 18.4922 46.3507 18.2564 45.9423C18.0205 45.5336 17.6374 45.264 17.2114 45.1613L16.9018 45.0867L16.8386 44.7745C16.7676 44.4244 16.7305 44.0624 16.7305 43.6923C16.7305 43.3221 16.7676 42.9601 16.8386 42.61L16.9018 42.2978L17.2114 42.2232C17.6374 42.1205 18.0205 41.8509 18.2564 41.4423C18.4922 41.0339 18.5342 40.5676 18.4105 40.1475L18.3206 39.8427L18.5585 39.632C19.0979 39.154 19.7337 38.7816 20.4336 38.5477L20.7353 38.4469ZM19.4446 40.1955C19.5379 40.7763 19.4397 41.3928 19.1224 41.9423C18.8051 42.4919 18.3203 42.8852 17.7704 43.0948C17.7441 43.29 17.7305 43.4894 17.7305 43.6923C17.7305 43.8951 17.7441 44.0945 17.7704 44.2897C18.3203 44.4993 18.8051 44.8926 19.1224 45.4423C19.4397 45.9917 19.5379 46.6082 19.4446 47.189C19.7586 47.4327 20.106 47.6348 20.4788 47.7874C20.9353 47.4157 21.5186 47.1923 22.1535 47.1923C22.7885 47.1923 23.3718 47.4157 23.8283 47.7874C24.201 47.6348 24.5485 47.4327 24.8624 47.189C24.7691 46.6082 24.8674 45.9917 25.1846 45.4423C25.5019 44.8926 25.9868 44.4993 26.5367 44.2897C26.563 44.0945 26.5766 43.8951 26.5766 43.6923C26.5766 43.4894 26.563 43.29 26.5367 43.0948C25.9868 42.8852 25.5019 42.4919 25.1846 41.9423C24.8674 41.3928 24.7691 40.7763 24.8624 40.1955C24.5485 39.9519 24.201 39.7497 23.8283 39.5971C23.3718 39.9688 22.7885 40.1923 22.1535 40.1923C21.5186 40.1923 20.9353 39.9688 20.4787 39.5971C20.106 39.7497 19.7586 39.9519 19.4446 40.1955ZM22.1535 42.3461C21.4101 42.3461 20.8074 42.9488 20.8074 43.6923C20.8074 44.4357 21.4101 45.0384 22.1535 45.0384C22.897 45.0384 23.4997 44.4357 23.4997 43.6923C23.4997 42.9488 22.897 42.3461 22.1535 42.3461ZM19.8074 43.6923C19.8074 42.3965 20.8578 41.3461 22.1535 41.3461C23.4493 41.3461 24.4997 42.3965 24.4997 43.6923C24.4997 44.988 23.4493 46.0384 22.1535 46.0384C20.8578 46.0384 19.8074 44.988 19.8074 43.6923Z" fill="#969696"/>
</svg>