<svg width="130" height="130" viewBox="0 0 130 130" fill="none" xmlns="http://www.w3.org/2000/svg">
<path d="M2 119H128V120H2V119Z" fill="#969696"/>
<path opacity="0.1" d="M128 56.5C128 86.5995 103.6 111 73.5 111C43.4005 111 19 86.5995 19 56.5C19 26.4005 43.4005 2 73.5 2C103.6 2 128 26.4005 128 56.5Z" fill="#033D58"/>
<path fill-rule="evenodd" clip-rule="evenodd" d="M70.5586 116C70.5586 116.276 70.3347 116.5 70.0586 116.5H58.0586C57.7825 116.5 57.5586 116.276 57.5586 116C57.5586 115.724 57.7825 115.5 58.0586 115.5H70.0586C70.3347 115.5 70.5586 115.724 70.5586 116Z" fill="#969696"/>
<path fill-rule="evenodd" clip-rule="evenodd" d="M72.5 102C72.5 101.724 72.7239 101.5 73 101.5H85C85.2761 101.5 85.5 101.724 85.5 102C85.5 102.276 85.2761 102.5 85 102.5H73C72.7239 102.5 72.5 102.276 72.5 102Z" fill="#969696"/>
<path d="M58.0586 112H82.0586C84.2677 112 86.0586 113.791 86.0586 116C86.0586 118.209 84.2677 120 82.0586 120H58.0586C57.5063 120 57.0586 119.552 57.0586 119V113C57.0586 112.448 57.5063 112 58.0586 112Z" fill="white"/>
<path fill-rule="evenodd" clip-rule="evenodd" d="M59.0586 114H82.0586C83.1632 114 84.0586 114.895 84.0586 116C84.0586 117.105 83.1632 118 82.0586 118H59.0586V114ZM82.0586 112H58.0586C57.5063 112 57.0586 112.448 57.0586 113V119C57.0586 119.552 57.5063 120 58.0586 120H82.0586C84.2677 120 86.0586 118.209 86.0586 116C86.0586 113.791 84.2677 112 82.0586 112Z" fill="#969696"/>
<path d="M85 107H62C59.2386 107 57 104.761 57 102C57 99.2386 59.2386 97 62 97H85C85.5523 97 86 97.4477 86 98V106C86 106.552 85.5523 107 85 107Z" fill="white"/>
<path fill-rule="evenodd" clip-rule="evenodd" d="M84 105H62C60.3431 105 59 103.657 59 102C59 100.343 60.3431 99 62 99H84V105ZM62 107H85C85.5523 107 86 106.552 86 106V98C86 97.4477 85.5523 97 85 97H62C59.2386 97 57 99.2386 57 102C57 104.761 59.2386 107 62 107Z" fill="#969696"/>
<path d="M59.0586 107C59.0586 105.895 59.954 105 61.0586 105H89.0586C90.1632 105 91.0586 105.895 91.0586 107V112C91.0586 113.105 90.1632 114 89.0586 114H61.0586C59.954 114 59.0586 113.105 59.0586 112V107Z" fill="white"/>
<path fill-rule="evenodd" clip-rule="evenodd" d="M89.0586 107H61.0586V112H89.0586V107ZM61.0586 105C59.954 105 59.0586 105.895 59.0586 107V112C59.0586 113.105 59.954 114 61.0586 114H89.0586C90.1632 114 91.0586 113.105 91.0586 112V107C91.0586 105.895 90.1632 105 89.0586 105H61.0586Z" fill="#969696"/>
<path fill-rule="evenodd" clip-rule="evenodd" d="M66.5586 106.5V112.5H65.5586V106.5H66.5586ZM84.5586 106.5V112.5H83.5586V106.5H84.5586Z" fill="#969696"/>
<path d="M2.50542 74.4119C2.22671 73.343 2.85671 72.2135 3.91256 71.889L15.9016 68.2051C16.9574 67.8807 18.0393 68.4841 18.318 69.5529L20.6973 78.6775C20.976 79.7464 20.346 80.8758 19.2901 81.2003L7.30111 84.8842C6.24527 85.2086 5.1634 84.6052 4.8847 83.5363L2.50542 74.4119Z" fill="white"/>
<path fill-rule="evenodd" clip-rule="evenodd" d="M16.4062 70.1405L4.4172 73.8243L6.79648 82.9489L18.7855 79.265L16.4062 70.1405ZM3.91256 71.889C2.85671 72.2135 2.22671 73.343 2.50542 74.4119L4.8847 83.5363C5.1634 84.6052 6.24527 85.2086 7.30111 84.8842L19.2901 81.2003C20.346 80.8758 20.976 79.7464 20.6973 78.6775L18.318 69.5529C18.0393 68.4841 16.9574 67.8807 15.9016 68.2051L3.91256 71.889Z" fill="#969696"/>
<path d="M84.7203 36.4236C84.4416 35.3547 85.0716 34.2253 86.1274 33.9008L94.9876 31.1783C96.0434 30.8539 97.1253 31.4573 97.404 32.5262L105.395 63.1705C105.674 64.2393 105.044 65.3688 103.988 65.6932L95.1274 68.4157C94.0715 68.7402 92.9896 68.1367 92.7109 67.0679L84.7203 36.4236Z" fill="white"/>
<path fill-rule="evenodd" clip-rule="evenodd" d="M95.4922 33.1136L86.6321 35.8361L94.6227 66.4804L103.483 63.7579L95.4922 33.1136ZM86.1274 33.9008C85.0716 34.2253 84.4416 35.3547 84.7203 36.4236L92.7109 67.0679C92.9896 68.1367 94.0715 68.7402 95.1274 68.4157L103.988 65.6932C105.044 65.3688 105.674 64.2393 105.395 63.1705L97.404 32.5262C97.1253 31.4573 96.0434 30.8539 94.9876 31.1783L86.1274 33.9008Z" fill="#969696"/>
<path d="M12.9703 62.4842C12.6916 61.4154 13.3216 60.2859 14.3774 59.9615L84.7174 38.3478C85.7733 38.0233 86.8551 38.6268 87.1338 39.6956L93.3021 63.3511C93.5808 64.4199 92.9508 65.5494 91.895 65.8738L21.555 87.4875C20.4991 87.8119 19.4173 87.2085 19.1386 86.1397L12.9703 62.4842Z" fill="white"/>
<path fill-rule="evenodd" clip-rule="evenodd" d="M85.222 40.2831L14.8821 61.8968L21.0503 85.5522L91.3903 63.9385L85.222 40.2831ZM14.3774 59.9615C13.3216 60.2859 12.6916 61.4154 12.9703 62.4842L19.1386 86.1397C19.4173 87.2085 20.4991 87.8119 21.555 87.4875L91.895 65.8738C92.9508 65.5494 93.5808 64.4199 93.3021 63.3511L87.1338 39.6956C86.8551 38.6268 85.7733 38.0233 84.7174 38.3478L14.3774 59.9615Z" fill="#969696"/>
<path d="M31.6144 84.3451C31.3076 83.284 31.9191 82.1751 32.9802 81.8683L40.9787 79.5558C42.0398 79.249 43.1488 79.8605 43.4555 80.9216L44.0498 82.9769C44.3565 84.038 43.745 85.1469 42.6839 85.4537L34.6854 87.7662C33.6243 88.073 32.5154 87.4615 32.2086 86.4004L31.6144 84.3451Z" fill="white"/>
<path fill-rule="evenodd" clip-rule="evenodd" d="M41.5342 81.4771L33.5357 83.7897L34.1299 85.8449L42.1284 83.5324L41.5342 81.4771ZM32.9802 81.8683C31.9191 82.1751 31.3076 83.284 31.6144 84.3451L32.2086 86.4004C32.5154 87.4615 33.6243 88.073 34.6854 87.7662L42.6839 85.4537C43.745 85.1469 44.3565 84.038 44.0498 82.9769L43.4555 80.9216C43.1488 79.8605 42.0398 79.249 40.9787 79.5558L32.9802 81.8683Z" fill="#969696"/>
<path d="M32.0586 93C32.0586 91.8954 32.954 91 34.0586 91H42.0586C43.1632 91 44.0586 91.8954 44.0586 93V96C44.0586 97.1046 43.1632 98 42.0586 98H34.0586C32.954 98 32.0586 97.1046 32.0586 96V93Z" fill="white"/>
<path fill-rule="evenodd" clip-rule="evenodd" d="M42.0586 93H34.0586V96H42.0586V93ZM34.0586 91C32.954 91 32.0586 91.8954 32.0586 93V96C32.0586 97.1046 32.954 98 34.0586 98H42.0586C43.1632 98 44.0586 97.1046 44.0586 96V93C44.0586 91.8954 43.1632 91 42.0586 91H34.0586Z" fill="#969696"/>
<path fill-rule="evenodd" clip-rule="evenodd" d="M37.0586 91V86H39.0586V91C39.0586 91.5523 38.6109 92 38.0586 92C37.5063 92 37.0586 91.5523 37.0586 91Z" fill="#969696"/>
<path fill-rule="evenodd" clip-rule="evenodd" d="M47.5586 97.5C47.5586 98.0523 47.1109 98.5 46.5586 98.5H29.5586C29.0063 98.5 28.5586 98.0523 28.5586 97.5C28.5586 96.9477 29.0063 96.5 29.5586 96.5H46.5586C47.1109 96.5 47.5586 96.9477 47.5586 97.5Z" fill="#969696"/>
<path fill-rule="evenodd" clip-rule="evenodd" d="M28.3245 119.472C27.7876 119.343 27.4573 118.803 27.5867 118.266L32.7702 96.7661C32.8996 96.2292 33.4398 95.8989 33.9767 96.0283C34.5136 96.1578 34.8439 96.6979 34.7145 97.2348L29.531 118.735C29.4015 119.271 28.8614 119.602 28.3245 119.472Z" fill="#969696"/>
<path fill-rule="evenodd" clip-rule="evenodd" d="M47.7517 119.981C47.2098 120.088 46.6842 119.735 46.5778 119.193L42.2631 97.2148C42.1567 96.6728 42.5098 96.1473 43.0518 96.0409C43.5937 95.9345 44.1193 96.2876 44.2257 96.8295L48.5404 118.807C48.6468 119.349 48.2937 119.875 47.7517 119.981Z" fill="#969696"/>
<path fill-rule="evenodd" clip-rule="evenodd" d="M37.8675 120C37.3152 120 36.8675 119.552 36.8675 119L36.8672 97.0005C36.8672 96.4482 37.3149 96.0005 37.8672 96.0005C38.4195 96.0005 38.8672 96.4482 38.8672 97.0005L38.8675 119C38.8675 119.552 38.4198 120 37.8675 120Z" fill="#969696"/>
<path fill-rule="evenodd" clip-rule="evenodd" d="M84.4789 43.3561C84.5584 43.6205 84.4085 43.8994 84.1441 43.9789L17.6441 63.9789C17.3797 64.0585 17.1008 63.9086 17.0213 63.6441C16.9417 63.3797 17.0916 63.1008 17.3561 63.0213L83.8561 43.0213C84.1205 42.9418 84.3994 43.0917 84.4789 43.3561Z" fill="#969696"/>
<path fill-rule="evenodd" clip-rule="evenodd" d="M44.9789 57.8554C45.0587 58.1198 44.9091 58.3988 44.6447 58.4786L18.1447 66.4786C17.8803 66.5584 17.6013 66.4088 17.5215 66.1444C17.4417 65.8801 17.5913 65.6011 17.8557 65.5212L44.3557 57.5212C44.6201 57.4414 44.8991 57.591 44.9789 57.8554Z" fill="#969696"/>
<path fill-rule="evenodd" clip-rule="evenodd" d="M94.479 35.3562C94.5584 35.6207 94.4083 35.8995 94.1438 35.9788L89.1438 37.4788C88.8793 37.5582 88.6005 37.4081 88.5212 37.1436C88.4418 36.8791 88.5919 36.6003 88.8564 36.521L93.8564 35.021C94.1209 34.9416 94.3997 35.0917 94.479 35.3562Z" fill="#969696"/>
<path fill-rule="evenodd" clip-rule="evenodd" d="M14.4773 72.351C14.5597 72.6145 14.4128 72.895 14.1492 72.9774L6.14926 75.4774C5.88569 75.5597 5.60525 75.4128 5.52289 75.1492C5.44052 74.8857 5.58743 74.6052 5.851 74.5229L13.851 72.0229C14.1145 71.9405 14.395 72.0874 14.4773 72.351Z" fill="#969696"/>
<path fill-rule="evenodd" clip-rule="evenodd" d="M68.625 102.375C68.625 102.099 68.8489 101.875 69.125 101.875H84.125C84.4011 101.875 84.625 102.099 84.625 102.375C84.625 102.651 84.4011 102.875 84.125 102.875H69.125C68.8489 102.875 68.625 102.651 68.625 102.375ZM57.625 116C57.625 115.724 57.8489 115.5 58.125 115.5H73.125C73.4011 115.5 73.625 115.724 73.625 116C73.625 116.276 73.4011 116.5 73.125 116.5H58.125C57.8489 116.5 57.625 116.276 57.625 116Z" fill="#969696"/>
</svg>
