<!--
 Copyright 2023-2025 Solace Systems. All rights reserved.

 Licensed under the Apache License, Version 2.0 (the "License");
 you may not use this file except in compliance with the License.
 You may obtain a copy of the License at

     http://www.apache.org/licenses/LICENSE-2.0

 Unless required by applicable law or agreed to in writing, software
 distributed under the License is distributed on an "AS IS" BASIS,
 WITHOUT WARRANTIES OR CONDITIONS OF ANY KIND, either express or implied.
 See the License for the specific language governing permissions and
 limitations under the License.
-->
<svg width="88" height="89" viewBox="0 0 88 89" fill="none" xmlns="http://www.w3.org/2000/svg">
<path d="M41.4072 78.3681C60.8542 78.3681 76.6191 62.6032 76.6191 43.1562C76.6191 23.7092 60.8542 7.94434 41.4072 7.94434C21.9602 7.94434 6.19531 23.7092 6.19531 43.1562C6.19531 62.6032 21.9602 78.3681 41.4072 78.3681Z" stroke="#969696" stroke-dasharray="4.18 4.18"/>
<path d="M41.4092 69.295C55.8458 69.295 67.5489 57.5919 67.5489 43.1553C67.5489 28.7188 55.8458 17.0156 41.4092 17.0156C26.9727 17.0156 15.2695 28.7188 15.2695 43.1553C15.2695 57.5919 26.9727 69.295 41.4092 69.295Z" fill="white"/>
<path d="M41.4092 69.295C55.8458 69.295 67.5489 57.5919 67.5489 43.1553C67.5489 28.7188 55.8458 17.0156 41.4092 17.0156C26.9727 17.0156 15.2695 28.7188 15.2695 43.1553C15.2695 57.5919 26.9727 69.295 41.4092 69.295Z" stroke="#969696" stroke-width="2"/>
<path d="M51.9503 67.0755C58.1562 64.3772 58.5204 51.4572 52.7638 38.218C47.0073 24.9788 37.3098 16.4338 31.1039 19.1322C24.898 21.8306 24.5338 34.7506 30.2904 47.9897C36.0469 61.2289 45.7444 69.7739 51.9503 67.0755Z" stroke="#969696"/>
<path d="M15.0957 44.0953L60.0426 24.5518" stroke="#969696" stroke-linecap="round" stroke-linejoin="round"/>
<path d="M22.7754 61.7588L67.7224 42.2153" stroke="#969696" stroke-linecap="round" stroke-linejoin="round"/>
<path d="M19.5325 66.0864H11.1575C10.1709 66.0864 9.37109 66.8862 9.37109 67.8728V74.853C9.37109 75.8396 10.1709 76.6394 11.1575 76.6394H19.5325C20.5191 76.6394 21.3189 75.8396 21.3189 74.853V67.8728C21.3189 66.8862 20.5191 66.0864 19.5325 66.0864Z" fill="white" stroke="#969696" stroke-width="2"/>
<path d="M10.7879 29.8932C14.5368 29.8932 17.5758 26.8541 17.5758 23.1053C17.5758 19.3564 14.5368 16.3174 10.7879 16.3174C7.03905 16.3174 4 19.3564 4 23.1053C4 26.8541 7.03905 29.8932 10.7879 29.8932Z" fill="#305D74"/>
<path d="M80.2273 58.7634C78.9797 57.6156 77.4815 56.7361 75.8242 56.2162C74.9734 57.1899 73.7224 57.8051 72.3277 57.8051C70.9327 57.8051 69.6814 57.1896 68.8306 56.2153C67.1729 56.7349 65.6745 57.6141 64.4265 58.7616C64.8435 59.9847 64.7504 61.3747 64.0535 62.5817C63.3563 63.7894 62.1983 64.5651 60.9297 64.8152C60.7481 65.6334 60.6523 66.4838 60.6523 67.3567C60.6523 68.2303 60.7483 69.0816 60.9302 69.9004C62.1985 70.1506 63.3562 70.9263 64.0533 72.1338C64.7499 73.3402 64.8432 74.7294 64.4269 75.9521C65.6753 77.1 67.1744 77.9794 68.8327 78.4987C69.6835 77.5259 70.9339 76.9115 72.3277 76.9115C73.7212 76.9115 74.9712 77.5256 75.822 78.4979C77.4798 77.9782 78.9784 77.0987 80.2264 75.9509C79.8121 74.7295 79.9062 73.3425 80.6018 72.1377C81.2981 70.9316 82.4541 70.1563 83.7207 69.9052C83.9033 69.0849 83.9997 68.2321 83.9997 67.3567C83.9997 66.484 83.9039 65.6336 83.7223 64.8155C82.4546 64.565 81.2975 63.7894 80.6007 62.5825C79.904 61.3758 79.8108 59.9862 80.2273 58.7634Z" fill="white"/>
<path fill-rule="evenodd" clip-rule="evenodd" d="M80.6007 62.5825C79.904 61.3758 79.8108 59.9862 80.2273 58.7634C78.9797 57.6156 77.4815 56.7361 75.8242 56.2162C74.9734 57.1899 73.7224 57.8051 72.3277 57.8051C70.9327 57.8051 69.6814 57.1896 68.8306 56.2153C67.1729 56.7349 65.6745 57.6141 64.4265 58.7616C64.8435 59.9847 64.7504 61.3747 64.0535 62.5817C63.3563 63.7894 62.1983 64.5651 60.9297 64.8152C60.7481 65.6334 60.6523 66.4838 60.6523 67.3567C60.6523 68.2303 60.7483 69.0816 60.9302 69.9004C62.1985 70.1506 63.3562 70.9263 64.0533 72.1338C64.7499 73.3402 64.8432 74.7294 64.4269 75.9521C65.6753 77.1 67.1744 77.9794 68.8327 78.4987C69.6835 77.5259 70.9339 76.9115 72.3277 76.9115C73.7212 76.9115 74.9712 77.5256 75.822 78.4979C77.4798 77.9782 78.9784 77.0987 80.2264 75.9509C79.8121 74.7295 79.9062 73.3425 80.6018 72.1377C81.2981 70.9316 82.4541 70.1563 83.7207 69.9052C83.9033 69.0849 83.9997 68.2321 83.9997 67.3567C83.9997 66.484 83.9039 65.6336 83.7223 64.8155C82.4546 64.565 81.2975 63.7894 80.6007 62.5825ZM81.9472 66.3417C80.6981 65.7933 79.6036 64.8555 78.8686 63.5825C78.1332 62.3087 77.8684 60.8911 78.0187 59.5343C77.4725 59.136 76.8835 58.7938 76.2601 58.5159C75.16 59.3251 73.7993 59.8051 72.3277 59.8051C70.8556 59.8051 69.4944 59.3247 68.394 58.515C67.7707 58.7927 67.1817 59.1346 66.6355 59.5327C66.7859 60.8897 66.5211 62.3077 65.7856 63.5817C65.0501 64.8555 63.9548 65.7937 62.7047 66.3419C62.6701 66.675 62.6523 67.0135 62.6523 67.3567C62.6523 67.7007 62.6702 68.04 62.705 68.3738C63.9549 68.922 65.0501 69.8601 65.7854 71.1338C66.5206 72.4072 66.7854 73.8243 66.6355 75.1807C67.1825 75.5793 67.7724 75.9217 68.3967 76.1996C69.4966 75.391 70.8568 74.9115 72.3277 74.9115C73.7981 74.9115 75.1578 75.3906 76.2574 76.1987C76.8819 75.9205 77.4719 75.5778 78.019 75.1789C77.8704 73.8243 78.1356 72.4093 78.8697 71.1377C79.6043 69.8654 80.698 68.9279 81.9464 68.3794C81.9816 68.0438 81.9997 67.7026 81.9997 67.3567C81.9997 67.0134 81.9819 66.6748 81.9472 66.3417Z" fill="#969696"/>
<path d="M72.3269 71.3374C74.5256 71.3374 76.3081 69.5549 76.3081 67.3562C76.3081 65.1574 74.5256 63.375 72.3269 63.375C70.1281 63.375 68.3457 65.1574 68.3457 67.3562C68.3457 69.5549 70.1281 71.3374 72.3269 71.3374Z" stroke="#969696" stroke-width="2"/>
</svg>
