<?xml version="1.0" encoding="utf-8"?>
<!--
  Copyright 2023-2025 Solace Systems. All rights reserved.

  Licensed under the Apache License, Version 2.0 (the "License");
  you may not use this file except in compliance with the License.
  You may obtain a copy of the License at

      http://www.apache.org/licenses/LICENSE-2.0

  Unless required by applicable law or agreed to in writing, software
  distributed under the License is distributed on an "AS IS" BASIS,
  WITHOUT WARRANTIES OR CONDITIONS OF ANY KIND, either express or implied.
  See the License for the specific language governing permissions and
  limitations under the License.
-->
<svg width="130" height="130" viewBox="0 0 130 130" fill="none" xmlns="http://www.w3.org/2000/svg">
<g clip-path="url(#clip0_121_2073)">
<mask id="mask0_121_2073" style="mask-type:luminance" maskUnits="userSpaceOnUse" x="0" y="0" width="130" height="130">
<path d="M130 0H0V130H130V0Z" fill="white"/>
</mask>
<g mask="url(#mask0_121_2073)">
<path d="M0.5 129.5H129.5" stroke="#969696" stroke-linecap="round"/>
<path d="M104 1H26C25.4477 1 25 1.44772 25 2V91C25 91.5523 25.4477 92 26 92H104C104.552 92 105 91.5523 105 91V2C105 1.44772 104.552 1 104 1Z" fill="white" stroke="#969696" stroke-width="2"/>
<path d="M107 1H23C22.4477 1 22 1.44772 22 2V10C22 10.5523 22.4477 11 23 11H107C107.552 11 108 10.5523 108 10V2C108 1.44772 107.552 1 107 1Z" fill="white" stroke="#969696" stroke-width="2"/>
<path d="M95 20H35C34.4477 20 34 20.4477 34 21V59C34 59.5523 34.4477 60 35 60H95C95.5523 60 96 59.5523 96 59V21C96 20.4477 95.5523 20 95 20Z" fill="white" stroke="#969696" stroke-width="2"/>
<path d="M107 78H23C22.4477 78 22 78.4477 22 79V128C22 128.552 22.4477 129 23 129H107C107.552 129 108 128.552 108 128V79C108 78.4477 107.552 78 107 78Z" fill="white" stroke="#969696" stroke-width="2"/>
<path d="M107 78H23C22.4477 78 22 78.4477 22 79V83C22 83.5523 22.4477 84 23 84H107C107.552 84 108 83.5523 108 83V79C108 78.4477 107.552 78 107 78Z" fill="white" stroke="#969696" stroke-width="2"/>
<path d="M95 91.75H78C77.3096 91.75 76.75 92.3096 76.75 93V108C76.75 108.69 77.3096 109.25 78 109.25H95C95.6904 109.25 96.25 108.69 96.25 108V93C96.25 92.3096 95.6904 91.75 95 91.75Z" fill="white" stroke="#969696" stroke-width="1.5"/>
<path d="M81.75 95.75V105.25" stroke="#969696" stroke-width="1.5" stroke-linecap="round"/>
<mask id="mask1_121_2073" style="mask-type:luminance" maskUnits="userSpaceOnUse" x="65" y="74" width="8" height="5">
<path d="M72.36 74H65.64C65.2865 74 65 74.2865 65 74.64V78.36C65 78.7135 65.2865 79 65.64 79H72.36C72.7135 79 73 78.7135 73 78.36V74.64C73 74.2865 72.7135 74 72.36 74Z" fill="white"/>
</mask>
<g mask="url(#mask1_121_2073)">
<path d="M72.36 74H65.64C65.2865 74 65 74.2865 65 74.64V78.36C65 78.7135 65.2865 79 65.64 79H72.36C72.7135 79 73 78.7135 73 78.36V74.64C73 74.2865 72.7135 74 72.36 74Z" fill="white" stroke="#969696" stroke-width="3" stroke-linejoin="round"/>
</g>
<mask id="mask2_121_2073" style="mask-type:luminance" maskUnits="userSpaceOnUse" x="33" y="74" width="8" height="5">
<path d="M40.36 74H33.64C33.2865 74 33 74.2865 33 74.64V78.36C33 78.7135 33.2865 79 33.64 79H40.36C40.7135 79 41 78.7135 41 78.36V74.64C41 74.2865 40.7135 74 40.36 74Z" fill="white"/>
</mask>
<g mask="url(#mask2_121_2073)">
<path d="M40.36 74H33.64C33.2865 74 33 74.2865 33 74.64V78.36C33 78.7135 33.2865 79 33.64 79H40.36C40.7135 79 41 78.7135 41 78.36V74.64C41 74.2865 40.7135 74 40.36 74Z" fill="white" stroke="#969696" stroke-width="3" stroke-linejoin="round"/>
</g>
<mask id="mask3_121_2073" style="mask-type:luminance" maskUnits="userSpaceOnUse" x="89" y="74" width="8" height="5">
<path d="M96.36 74H89.64C89.2865 74 89 74.2865 89 74.64V78.36C89 78.7135 89.2865 79 89.64 79H96.36C96.7135 79 97 78.7135 97 78.36V74.64C97 74.2865 96.7135 74 96.36 74Z" fill="white"/>
</mask>
<g mask="url(#mask3_121_2073)">
<path d="M96.36 74H89.64C89.2865 74 89 74.2865 89 74.64V78.36C89 78.7135 89.2865 79 89.64 79H96.36C96.7135 79 97 78.7135 97 78.36V74.64C97 74.2865 96.7135 74 96.36 74Z" fill="white" stroke="#969696" stroke-width="3" stroke-linejoin="round"/>
</g>
<mask id="mask4_121_2073" style="mask-type:luminance" maskUnits="userSpaceOnUse" x="77" y="74" width="8" height="5">
<path d="M84.36 74H77.64C77.2865 74 77 74.2865 77 74.64V78.36C77 78.7135 77.2865 79 77.64 79H84.36C84.7135 79 85 78.7135 85 78.36V74.64C85 74.2865 84.7135 74 84.36 74Z" fill="white"/>
</mask>
<g mask="url(#mask4_121_2073)">
<path d="M84.36 74H77.64C77.2865 74 77 74.2865 77 74.64V78.36C77 78.7135 77.2865 79 77.64 79H84.36C84.7135 79 85 78.7135 85 78.36V74.64C85 74.2865 84.7135 74 84.36 74Z" fill="white" stroke="#969696" stroke-width="3" stroke-linejoin="round"/>
</g>
<path d="M54 71H52.5V79H54V71Z" fill="#969696"/>
<path d="M53.25 73.5C55.5972 73.5 57.5 71.5972 57.5 69.25C57.5 66.9028 55.5972 65 53.25 65C50.9028 65 49 66.9028 49 69.25C49 71.5972 50.9028 73.5 53.25 73.5Z" fill="#305D74"/>
<path d="M44.9373 44.11C44.4166 44.11 43.9729 44.033 43.6063 43.879C43.2396 43.725 42.9389 43.5123 42.7043 43.241C42.4696 42.9697 42.2936 42.658 42.1763 42.306C42.0589 41.9467 41.9893 41.5653 41.9673 41.162C41.9599 40.964 41.9526 40.7477 41.9453 40.513C41.9453 40.271 41.9453 40.029 41.9453 39.787C41.9526 39.545 41.9599 39.3213 41.9673 39.116C41.9819 38.7127 42.0516 38.335 42.1763 37.983C42.3009 37.6237 42.4806 37.312 42.7153 37.048C42.9573 36.784 43.2616 36.575 43.6283 36.421C43.9949 36.267 44.4313 36.19 44.9373 36.19C45.4506 36.19 45.8906 36.267 46.2573 36.421C46.6239 36.575 46.9246 36.784 47.1593 37.048C47.4013 37.312 47.5809 37.6237 47.6983 37.983C47.8229 38.335 47.8926 38.7127 47.9073 39.116C47.9219 39.3213 47.9293 39.545 47.9293 39.787C47.9293 40.029 47.9293 40.271 47.9293 40.513C47.9293 40.7477 47.9219 40.964 47.9073 41.162C47.8926 41.5653 47.8266 41.9467 47.7093 42.306C47.5919 42.658 47.4159 42.9697 47.1813 43.241C46.9466 43.5123 46.6423 43.725 46.2683 43.879C45.9016 44.033 45.4579 44.11 44.9373 44.11ZM44.9373 42.845C45.4139 42.845 45.7623 42.691 45.9823 42.383C46.2096 42.0677 46.3269 41.6423 46.3343 41.107C46.3489 40.8943 46.3563 40.6817 46.3563 40.469C46.3563 40.249 46.3563 40.029 46.3563 39.809C46.3563 39.589 46.3489 39.38 46.3343 39.182C46.3269 38.6613 46.2096 38.2433 45.9823 37.928C45.7623 37.6053 45.4139 37.444 44.9373 37.444C44.4679 37.444 44.1196 37.6053 43.8923 37.928C43.6723 38.2433 43.5549 38.6613 43.5403 39.182C43.5403 39.38 43.5366 39.589 43.5293 39.809C43.5293 40.029 43.5293 40.249 43.5293 40.469C43.5366 40.6817 43.5403 40.8943 43.5403 41.107C43.5549 41.6423 43.6759 42.0677 43.9033 42.383C44.1306 42.691 44.4753 42.845 44.9373 42.845ZM54.9004 44.11C54.2184 44.11 53.6391 43.9927 53.1624 43.758C52.6931 43.516 52.3338 43.175 52.0844 42.735C51.8351 42.2877 51.6958 41.7523 51.6664 41.129C51.6591 40.8283 51.6554 40.5057 51.6554 40.161C51.6554 39.8163 51.6591 39.4863 51.6664 39.171C51.6958 38.555 51.8351 38.0233 52.0844 37.576C52.3411 37.1287 52.7041 36.7877 53.1734 36.553C53.6501 36.311 54.2258 36.19 54.9004 36.19C55.3991 36.19 55.8464 36.256 56.2424 36.388C56.6384 36.52 56.9758 36.7033 57.2544 36.938C57.5331 37.1653 57.7494 37.433 57.9034 37.741C58.0574 38.049 58.1381 38.3827 58.1454 38.742C58.1528 38.808 58.1308 38.863 58.0794 38.907C58.0354 38.951 57.9804 38.973 57.9144 38.973H56.8694C56.7888 38.973 56.7228 38.9547 56.6714 38.918C56.6201 38.874 56.5834 38.8043 56.5614 38.709C56.4441 38.225 56.2424 37.895 55.9564 37.719C55.6704 37.543 55.3148 37.455 54.8894 37.455C54.3981 37.455 54.0058 37.5943 53.7124 37.873C53.4191 38.1443 53.2614 38.5953 53.2394 39.226C53.2174 39.8273 53.2174 40.4433 53.2394 41.074C53.2614 41.7047 53.4191 42.1593 53.7124 42.438C54.0058 42.7093 54.3981 42.845 54.8894 42.845C55.3148 42.845 55.6704 42.757 55.9564 42.581C56.2498 42.3977 56.4514 42.0677 56.5614 41.591C56.5834 41.4883 56.6201 41.4187 56.6714 41.382C56.7228 41.3453 56.7888 41.327 56.8694 41.327H57.9144C57.9804 41.327 58.0354 41.349 58.0794 41.393C58.1308 41.437 58.1528 41.492 58.1454 41.558C58.1381 41.9173 58.0574 42.251 57.9034 42.559C57.7494 42.867 57.5331 43.1383 57.2544 43.373C56.9758 43.6003 56.6384 43.78 56.2424 43.912C55.8464 44.044 55.3991 44.11 54.9004 44.11ZM59.582 44C59.5086 44 59.4463 43.9743 59.395 43.923C59.3436 43.8717 59.318 43.8093 59.318 43.736V38.555C59.318 38.4743 59.3436 38.4083 59.395 38.357C59.4463 38.3057 59.5086 38.28 59.582 38.28H60.473C60.5463 38.28 60.6086 38.3057 60.66 38.357C60.7186 38.4083 60.748 38.4743 60.748 38.555V39.006C60.9166 38.7713 61.133 38.5917 61.397 38.467C61.6683 38.3423 61.98 38.28 62.332 38.28H62.783C62.8636 38.28 62.926 38.3057 62.97 38.357C63.0213 38.4083 63.047 38.4707 63.047 38.544V39.336C63.047 39.4093 63.0213 39.4717 62.97 39.523C62.926 39.5743 62.8636 39.6 62.783 39.6H61.925C61.573 39.6 61.298 39.699 61.1 39.897C60.9093 40.0877 60.814 40.359 60.814 40.711V43.736C60.814 43.8093 60.7883 43.8717 60.737 43.923C60.6856 43.9743 60.6196 44 60.539 44H59.582ZM66.2937 44.11C65.4797 44.11 64.8344 43.8753 64.3577 43.406C63.881 42.9367 63.6244 42.2693 63.5877 41.404C63.5804 41.3307 63.5767 41.239 63.5767 41.129C63.5767 41.0117 63.5804 40.92 63.5877 40.854C63.617 40.2967 63.7417 39.82 63.9617 39.424C64.189 39.0207 64.5007 38.7127 64.8967 38.5C65.2927 38.28 65.7584 38.17 66.2937 38.17C66.8877 38.17 67.3864 38.2947 67.7897 38.544C68.193 38.786 68.4974 39.127 68.7027 39.567C68.908 39.9997 69.0107 40.502 69.0107 41.074V41.305C69.0107 41.3783 68.985 41.4407 68.9337 41.492C68.8824 41.5433 68.8164 41.569 68.7357 41.569H65.0837C65.0837 41.569 65.0837 41.58 65.0837 41.602C65.0837 41.624 65.0837 41.6423 65.0837 41.657C65.091 41.9137 65.1387 42.152 65.2267 42.372C65.322 42.5847 65.4577 42.757 65.6337 42.889C65.817 43.021 66.0334 43.087 66.2827 43.087C66.488 43.087 66.6604 43.0577 66.7997 42.999C66.939 42.933 67.0527 42.8597 67.1407 42.779C67.2287 42.6983 67.291 42.6323 67.3277 42.581C67.3937 42.493 67.445 42.4417 67.4817 42.427C67.5257 42.405 67.588 42.394 67.6687 42.394H68.6147C68.688 42.394 68.7467 42.416 68.7907 42.46C68.842 42.504 68.864 42.559 68.8567 42.625C68.8494 42.7423 68.787 42.8853 68.6697 43.054C68.5597 43.2227 68.3984 43.3877 68.1857 43.549C67.973 43.7103 67.7054 43.846 67.3827 43.956C67.0674 44.0587 66.7044 44.11 66.2937 44.11ZM65.0837 40.645H67.5147V40.612C67.5147 40.326 67.467 40.0767 67.3717 39.864C67.2764 39.644 67.137 39.4753 66.9537 39.358C66.7704 39.2333 66.5504 39.171 66.2937 39.171C66.037 39.171 65.817 39.2333 65.6337 39.358C65.4504 39.4753 65.311 39.644 65.2157 39.864C65.1277 40.0767 65.0837 40.326 65.0837 40.612V40.645ZM72.3013 44.11C71.92 44.11 71.5827 44.0477 71.2893 43.923C71.0033 43.791 70.765 43.6077 70.5743 43.373C70.3837 43.1383 70.237 42.8633 70.1343 42.548C70.0317 42.2253 69.973 41.8733 69.9583 41.492C69.951 41.36 69.9473 41.2427 69.9473 41.14C69.9473 41.03 69.951 40.909 69.9583 40.777C69.973 40.4103 70.028 40.0693 70.1233 39.754C70.226 39.4387 70.3727 39.1637 70.5633 38.929C70.7613 38.687 71.0033 38.5 71.2893 38.368C71.5827 38.236 71.92 38.17 72.3013 38.17C72.6973 38.17 73.031 38.2397 73.3023 38.379C73.581 38.511 73.812 38.6833 73.9953 38.896V36.454C73.9953 36.3807 74.0173 36.3183 74.0613 36.267C74.1127 36.2157 74.1787 36.19 74.2593 36.19H75.1943C75.2677 36.19 75.33 36.2157 75.3813 36.267C75.4327 36.3183 75.4583 36.3807 75.4583 36.454V43.736C75.4583 43.8093 75.4327 43.8717 75.3813 43.923C75.33 43.9743 75.2677 44 75.1943 44H74.3253C74.2447 44 74.1787 43.9743 74.1273 43.923C74.0833 43.8717 74.0613 43.8093 74.0613 43.736V43.329C73.878 43.5563 73.6433 43.7433 73.3573 43.89C73.0787 44.0367 72.7267 44.11 72.3013 44.11ZM72.7083 42.933C73.0163 42.933 73.262 42.8633 73.4453 42.724C73.6287 42.5847 73.7643 42.4087 73.8523 42.196C73.9403 41.976 73.988 41.7523 73.9953 41.525C74.0027 41.393 74.0063 41.2537 74.0063 41.107C74.0063 40.953 74.0027 40.81 73.9953 40.678C73.988 40.458 73.9367 40.249 73.8413 40.051C73.746 39.8457 73.6067 39.677 73.4233 39.545C73.24 39.413 73.0017 39.347 72.7083 39.347C72.4003 39.347 72.1547 39.4167 71.9713 39.556C71.7953 39.688 71.667 39.864 71.5863 40.084C71.5057 40.304 71.458 40.546 71.4433 40.81C71.436 41.03 71.436 41.25 71.4433 41.47C71.458 41.734 71.5057 41.976 71.5863 42.196C71.667 42.416 71.7953 42.5957 71.9713 42.735C72.1547 42.867 72.4003 42.933 72.7083 42.933ZM77.1884 44C77.1151 44 77.0528 43.9743 77.0014 43.923C76.9501 43.8717 76.9244 43.8093 76.9244 43.736V38.544C76.9244 38.4707 76.9501 38.4083 77.0014 38.357C77.0528 38.3057 77.1151 38.28 77.1884 38.28H78.1014C78.1821 38.28 78.2444 38.3057 78.2884 38.357C78.3398 38.4083 78.3654 38.4707 78.3654 38.544V43.736C78.3654 43.8093 78.3398 43.8717 78.2884 43.923C78.2444 43.9743 78.1821 44 78.1014 44H77.1884ZM77.1444 37.334C77.0711 37.334 77.0088 37.3083 76.9574 37.257C76.9061 37.2057 76.8804 37.1433 76.8804 37.07V36.278C76.8804 36.2047 76.9061 36.1423 76.9574 36.091C77.0088 36.0397 77.0711 36.014 77.1444 36.014H78.1454C78.2261 36.014 78.2921 36.0397 78.3434 36.091C78.3948 36.1423 78.4204 36.2047 78.4204 36.278V37.07C78.4204 37.1433 78.3948 37.2057 78.3434 37.257C78.2921 37.3083 78.2261 37.334 78.1454 37.334H77.1444ZM82.4098 44C81.9698 44 81.5995 43.923 81.2988 43.769C80.9981 43.615 80.7745 43.3877 80.6278 43.087C80.4811 42.779 80.4078 42.3977 80.4078 41.943V39.446H79.5388C79.4655 39.446 79.4031 39.4203 79.3518 39.369C79.3005 39.3177 79.2748 39.2517 79.2748 39.171V38.544C79.2748 38.4707 79.3005 38.4083 79.3518 38.357C79.4031 38.3057 79.4655 38.28 79.5388 38.28H80.4078V36.454C80.4078 36.3807 80.4298 36.3183 80.4738 36.267C80.5251 36.2157 80.5911 36.19 80.6718 36.19H81.5628C81.6361 36.19 81.6985 36.2157 81.7498 36.267C81.8011 36.3183 81.8268 36.3807 81.8268 36.454V38.28H83.2018C83.2751 38.28 83.3375 38.3057 83.3888 38.357C83.4401 38.4083 83.4658 38.4707 83.4658 38.544V39.171C83.4658 39.2517 83.4401 39.3177 83.3888 39.369C83.3375 39.4203 83.2751 39.446 83.2018 39.446H81.8268V41.833C81.8268 42.1337 81.8781 42.3683 81.9808 42.537C82.0908 42.7057 82.2778 42.79 82.5418 42.79H83.3008C83.3741 42.79 83.4365 42.8157 83.4878 42.867C83.5391 42.9183 83.5648 42.9807 83.5648 43.054V43.736C83.5648 43.8093 83.5391 43.8717 83.4878 43.923C83.4365 43.9743 83.3741 44 83.3008 44H82.4098ZM86.7076 44.11C86.2676 44.11 85.89 44.0587 85.5746 43.956C85.2666 43.8533 85.0136 43.725 84.8156 43.571C84.6176 43.417 84.471 43.263 84.3756 43.109C84.2803 42.955 84.229 42.8267 84.2216 42.724C84.2143 42.6433 84.2363 42.581 84.2876 42.537C84.3463 42.4857 84.4086 42.46 84.4746 42.46H85.3436C85.373 42.46 85.3986 42.4637 85.4206 42.471C85.4426 42.4783 85.472 42.5003 85.5086 42.537C85.604 42.6177 85.703 42.702 85.8056 42.79C85.9156 42.878 86.044 42.955 86.1906 43.021C86.3373 43.0797 86.5206 43.109 86.7406 43.109C87.0266 43.109 87.265 43.054 87.4556 42.944C87.6536 42.8267 87.7526 42.6617 87.7526 42.449C87.7526 42.295 87.7086 42.1703 87.6206 42.075C87.54 41.9797 87.386 41.8953 87.1586 41.822C86.9313 41.7413 86.6086 41.657 86.1906 41.569C85.78 41.4737 85.439 41.3527 85.1676 41.206C84.8963 41.0593 84.6946 40.876 84.5626 40.656C84.4306 40.436 84.3646 40.1793 84.3646 39.886C84.3646 39.6 84.449 39.3287 84.6176 39.072C84.7936 38.808 85.0503 38.5917 85.3876 38.423C85.7323 38.2543 86.1576 38.17 86.6636 38.17C87.0596 38.17 87.4043 38.2213 87.6976 38.324C87.991 38.4193 88.233 38.5403 88.4236 38.687C88.6216 38.8337 88.772 38.984 88.8746 39.138C88.9773 39.2847 89.0323 39.413 89.0396 39.523C89.047 39.6037 89.025 39.6697 88.9736 39.721C88.9223 39.765 88.8636 39.787 88.7976 39.787H87.9836C87.947 39.787 87.914 39.7797 87.8846 39.765C87.8553 39.7503 87.826 39.732 87.7966 39.71C87.716 39.6367 87.628 39.5597 87.5326 39.479C87.4373 39.391 87.32 39.3177 87.1806 39.259C87.0486 39.2003 86.8726 39.171 86.6526 39.171C86.374 39.171 86.1613 39.2333 86.0146 39.358C85.868 39.4753 85.7946 39.6257 85.7946 39.809C85.7946 39.9337 85.8276 40.0437 85.8936 40.139C85.967 40.227 86.11 40.3113 86.3226 40.392C86.5353 40.4727 86.858 40.557 87.2906 40.645C87.782 40.733 88.1706 40.865 88.4566 41.041C88.75 41.2097 88.9553 41.4077 89.0726 41.635C89.1973 41.855 89.2596 42.1007 89.2596 42.372C89.2596 42.702 89.1606 42.999 88.9626 43.263C88.772 43.527 88.486 43.736 88.1046 43.89C87.7306 44.0367 87.265 44.11 86.7076 44.11Z" fill="#969696"/>
<path d="M27 120H36" stroke="#969696" stroke-linecap="round"/>
<path d="M27 124H42" stroke="#969696" stroke-linecap="round"/>
</g>
</g>
<defs>
<clipPath id="clip0_121_2073">
<rect width="130" height="130" fill="white"/>
</clipPath>
</defs>
</svg>