<!--
 Copyright 2023-2025 Solace Systems. All rights reserved.

 Licensed under the Apache License, Version 2.0 (the "License");
 you may not use this file except in compliance with the License.
 You may obtain a copy of the License at

     http://www.apache.org/licenses/LICENSE-2.0

 Unless required by applicable law or agreed to in writing, software
 distributed under the License is distributed on an "AS IS" BASIS,
 WITHOUT WARRANTIES OR CONDITIONS OF ANY KIND, either express or implied.
 See the License for the specific language governing permissions and
 limitations under the License.
-->
<svg width="460" height="30" viewBox="0 0 460 30" fill="none" xmlns="http://www.w3.org/2000/svg">
<g clip-path="url(#clip0_121_3499)">
<mask id="mask0_121_3499" style="mask-type:luminance" maskUnits="userSpaceOnUse" x="0" y="0" width="460" height="30">
<path d="M460 0H0V30H460V0Z" fill="white"/>
</mask>
<g mask="url(#mask0_121_3499)">
<path d="M1.4278 19.0001C1.33447 19.0001 1.25513 18.9674 1.1898 18.9021C1.12447 18.8368 1.0918 18.7574 1.0918 18.6641V9.55006C1.0918 9.44739 1.12447 9.36339 1.1898 9.29806C1.25513 9.23273 1.33447 9.20006 1.4278 9.20006H5.1798C5.9078 9.20006 6.54247 9.31673 7.0838 9.55006C7.62513 9.77406 8.04513 10.1194 8.3438 10.5861C8.64247 11.0434 8.7918 11.6174 8.7918 12.3081C8.7918 13.0081 8.64247 13.5868 8.3438 14.0441C8.04513 14.4921 7.62513 14.8281 7.0838 15.0521C6.54247 15.2761 5.9078 15.3881 5.1798 15.3881H3.0938V18.6641C3.0938 18.7574 3.06113 18.8368 2.9958 18.9021C2.9398 18.9674 2.86047 19.0001 2.7578 19.0001H1.4278ZM3.0658 13.8341H5.1098C5.65113 13.8341 6.06647 13.7081 6.3558 13.4561C6.64513 13.1948 6.7898 12.8121 6.7898 12.3081C6.7898 11.8414 6.65447 11.4681 6.3838 11.1881C6.11313 10.8988 5.68847 10.7541 5.1098 10.7541H3.0658V13.8341ZM14.1003 19.1401C13.2323 19.1401 12.495 18.9908 11.8883 18.6921C11.291 18.3841 10.8336 17.9501 10.5163 17.3901C10.199 16.8208 10.0216 16.1394 9.98432 15.3461C9.97498 14.9634 9.97032 14.5528 9.97032 14.1141C9.97032 13.6754 9.97498 13.2554 9.98432 12.8541C10.0216 12.0701 10.199 11.3934 10.5163 10.8241C10.843 10.2548 11.305 9.82073 11.9023 9.52206C12.509 9.21406 13.2416 9.06006 14.1003 9.06006C14.735 9.06006 15.3043 9.14406 15.8083 9.31206C16.3123 9.48006 16.7416 9.71339 17.0963 10.0121C17.451 10.3014 17.7263 10.6421 17.9223 11.0341C18.1183 11.4261 18.221 11.8508 18.2303 12.3081C18.2396 12.3921 18.2116 12.4621 18.1463 12.5181C18.0903 12.5741 18.0203 12.6021 17.9363 12.6021H16.6063C16.5036 12.6021 16.4196 12.5788 16.3543 12.5321C16.289 12.4761 16.2423 12.3874 16.2143 12.2661C16.065 11.6501 15.8083 11.2301 15.4443 11.0061C15.0803 10.7821 14.6276 10.6701 14.0863 10.6701C13.461 10.6701 12.9616 10.8474 12.5883 11.2021C12.215 11.5474 12.0143 12.1214 11.9863 12.9241C11.9583 13.6894 11.9583 14.4734 11.9863 15.2761C12.0143 16.0788 12.215 16.6574 12.5883 17.0121C12.9616 17.3574 13.461 17.5301 14.0863 17.5301C14.6276 17.5301 15.0803 17.4181 15.4443 17.1941C15.8176 16.9608 16.0743 16.5408 16.2143 15.9341C16.2423 15.8034 16.289 15.7148 16.3543 15.6681C16.4196 15.6214 16.5036 15.5981 16.6063 15.5981H17.9363C18.0203 15.5981 18.0903 15.6261 18.1463 15.6821C18.2116 15.7381 18.2396 15.8081 18.2303 15.8921C18.221 16.3494 18.1183 16.7741 17.9223 17.1661C17.7263 17.5581 17.451 17.9034 17.0963 18.2021C16.7416 18.4914 16.3123 18.7201 15.8083 18.8881C15.3043 19.0561 14.735 19.1401 14.1003 19.1401ZM23.7966 19.1401C22.9846 19.1401 22.28 19.0048 21.6826 18.7341C21.0853 18.4541 20.6233 18.0294 20.2966 17.4601C19.97 16.8814 19.8066 16.1441 19.8066 15.2481V9.55006C19.8066 9.44739 19.8393 9.36339 19.9046 9.29806C19.97 9.23273 20.0493 9.20006 20.1426 9.20006H21.4166C21.5193 9.20006 21.5986 9.23273 21.6546 9.29806C21.72 9.36339 21.7526 9.44739 21.7526 9.55006V15.2481C21.7526 16.0134 21.9346 16.5828 22.2986 16.9561C22.6626 17.3201 23.162 17.5021 23.7966 17.5021C24.4313 17.5021 24.926 17.3201 25.2806 16.9561C25.6446 16.5828 25.8266 16.0134 25.8266 15.2481V9.55006C25.8266 9.44739 25.8593 9.36339 25.9246 9.29806C25.99 9.23273 26.074 9.20006 26.1766 9.20006H27.4366C27.5393 9.20006 27.6186 9.23273 27.6746 9.29806C27.74 9.36339 27.7726 9.44739 27.7726 9.55006V15.2481C27.7726 16.1441 27.6093 16.8814 27.2826 17.4601C26.9653 18.0294 26.508 18.4541 25.9106 18.7341C25.3226 19.0048 24.618 19.1401 23.7966 19.1401ZM32.4201 19.1401C31.8601 19.1401 31.3794 19.0748 30.9781 18.9441C30.5861 18.8134 30.2641 18.6501 30.0121 18.4541C29.7601 18.2581 29.5734 18.0621 29.4521 17.8661C29.3307 17.6701 29.2654 17.5068 29.2561 17.3761C29.2467 17.2734 29.2747 17.1941 29.3401 17.1381C29.4147 17.0728 29.4941 17.0401 29.5781 17.0401H30.6841C30.7214 17.0401 30.7541 17.0448 30.7821 17.0541C30.8101 17.0634 30.8474 17.0914 30.8941 17.1381C31.0154 17.2408 31.1414 17.3481 31.2721 17.4601C31.4121 17.5721 31.5754 17.6701 31.7621 17.7541C31.9487 17.8288 32.1821 17.8661 32.4621 17.8661C32.8261 17.8661 33.1294 17.7961 33.3721 17.6561C33.6241 17.5068 33.7501 17.2968 33.7501 17.0261C33.7501 16.8301 33.6941 16.6714 33.5821 16.5501C33.4794 16.4288 33.2834 16.3214 32.9941 16.2281C32.7047 16.1254 32.2941 16.0181 31.7621 15.9061C31.2394 15.7848 30.8054 15.6308 30.4601 15.4441C30.1147 15.2574 29.8581 15.0241 29.6901 14.7441C29.5221 14.4641 29.4381 14.1374 29.4381 13.7641C29.4381 13.4001 29.5454 13.0548 29.7601 12.7281C29.9841 12.3921 30.3107 12.1168 30.7401 11.9021C31.1787 11.6874 31.7201 11.5801 32.3641 11.5801C32.8681 11.5801 33.3067 11.6454 33.6801 11.7761C34.0534 11.8974 34.3614 12.0514 34.6041 12.2381C34.8561 12.4248 35.0474 12.6161 35.1781 12.8121C35.3087 12.9988 35.3787 13.1621 35.3881 13.3021C35.3974 13.4048 35.3694 13.4888 35.3041 13.5541C35.2387 13.6101 35.1641 13.6381 35.0801 13.6381H34.0441C33.9974 13.6381 33.9554 13.6288 33.9181 13.6101C33.8807 13.5914 33.8434 13.5681 33.8061 13.5401C33.7034 13.4468 33.5914 13.3488 33.4701 13.2461C33.3487 13.1341 33.1994 13.0408 33.0221 12.9661C32.8541 12.8914 32.6301 12.8541 32.3501 12.8541C31.9954 12.8541 31.7247 12.9334 31.5381 13.0921C31.3514 13.2414 31.2581 13.4328 31.2581 13.6661C31.2581 13.8248 31.3001 13.9648 31.3841 14.0861C31.4774 14.1981 31.6594 14.3054 31.9301 14.4081C32.2007 14.5108 32.6114 14.6181 33.1621 14.7301C33.7874 14.8421 34.2821 15.0101 34.6461 15.2341C35.0194 15.4488 35.2807 15.7008 35.4301 15.9901C35.5887 16.2701 35.6681 16.5828 35.6681 16.9281C35.6681 17.3481 35.5421 17.7261 35.2901 18.0621C35.0474 18.3981 34.6834 18.6641 34.1981 18.8601C33.7221 19.0468 33.1294 19.1401 32.4201 19.1401ZM44.3865 19.1401C43.5745 19.1401 42.8698 19.0048 42.2725 18.7341C41.6751 18.4541 41.2131 18.0294 40.8865 17.4601C40.5598 16.8814 40.3965 16.1441 40.3965 15.2481V9.55006C40.3965 9.44739 40.4291 9.36339 40.4945 9.29806C40.5598 9.23273 40.6391 9.20006 40.7325 9.20006H42.0065C42.1091 9.20006 42.1885 9.23273 42.2445 9.29806C42.3098 9.36339 42.3425 9.44739 42.3425 9.55006V15.2481C42.3425 16.0134 42.5245 16.5828 42.8885 16.9561C43.2525 17.3201 43.7518 17.5021 44.3865 17.5021C45.0211 17.5021 45.5158 17.3201 45.8705 16.9561C46.2345 16.5828 46.4165 16.0134 46.4165 15.2481V9.55006C46.4165 9.44739 46.4491 9.36339 46.5145 9.29806C46.5798 9.23273 46.6638 9.20006 46.7665 9.20006H48.0265C48.1291 9.20006 48.2085 9.23273 48.2645 9.29806C48.3298 9.36339 48.3625 9.44739 48.3625 9.55006V15.2481C48.3625 16.1441 48.1991 16.8814 47.8725 17.4601C47.5551 18.0294 47.0978 18.4541 46.5005 18.7341C45.9125 19.0048 45.2078 19.1401 44.3865 19.1401ZM53.0099 19.1401C52.4499 19.1401 51.9693 19.0748 51.5679 18.9441C51.1759 18.8134 50.8539 18.6501 50.6019 18.4541C50.3499 18.2581 50.1633 18.0621 50.0419 17.8661C49.9206 17.6701 49.8553 17.5068 49.8459 17.3761C49.8366 17.2734 49.8646 17.1941 49.9299 17.1381C50.0046 17.0728 50.0839 17.0401 50.1679 17.0401H51.2739C51.3113 17.0401 51.3439 17.0448 51.3719 17.0541C51.3999 17.0634 51.4373 17.0914 51.4839 17.1381C51.6053 17.2408 51.7313 17.3481 51.8619 17.4601C52.0019 17.5721 52.1653 17.6701 52.3519 17.7541C52.5386 17.8288 52.7719 17.8661 53.0519 17.8661C53.4159 17.8661 53.7193 17.7961 53.9619 17.6561C54.2139 17.5068 54.3399 17.2968 54.3399 17.0261C54.3399 16.8301 54.2839 16.6714 54.1719 16.5501C54.0693 16.4288 53.8733 16.3214 53.5839 16.2281C53.2946 16.1254 52.8839 16.0181 52.3519 15.9061C51.8293 15.7848 51.3953 15.6308 51.0499 15.4441C50.7046 15.2574 50.4479 15.0241 50.2799 14.7441C50.1119 14.4641 50.0279 14.1374 50.0279 13.7641C50.0279 13.4001 50.1353 13.0548 50.3499 12.7281C50.5739 12.3921 50.9006 12.1168 51.3299 11.9021C51.7686 11.6874 52.3099 11.5801 52.9539 11.5801C53.4579 11.5801 53.8966 11.6454 54.2699 11.7761C54.6433 11.8974 54.9513 12.0514 55.1939 12.2381C55.4459 12.4248 55.6373 12.6161 55.7679 12.8121C55.8986 12.9988 55.9686 13.1621 55.9779 13.3021C55.9873 13.4048 55.9593 13.4888 55.8939 13.5541C55.8286 13.6101 55.7539 13.6381 55.6699 13.6381H54.6339C54.5873 13.6381 54.5453 13.6288 54.5079 13.6101C54.4706 13.5914 54.4333 13.5681 54.3959 13.5401C54.2933 13.4468 54.1813 13.3488 54.0599 13.2461C53.9386 13.1341 53.7893 13.0408 53.6119 12.9661C53.4439 12.8914 53.2199 12.8541 52.9399 12.8541C52.5853 12.8541 52.3146 12.9334 52.1279 13.0921C51.9413 13.2414 51.8479 13.4328 51.8479 13.6661C51.8479 13.8248 51.8899 13.9648 51.9739 14.0861C52.0673 14.1981 52.2493 14.3054 52.5199 14.4081C52.7906 14.5108 53.2013 14.6181 53.7519 14.7301C54.3773 14.8421 54.8719 15.0101 55.2359 15.2341C55.6093 15.4488 55.8706 15.7008 56.0199 15.9901C56.1786 16.2701 56.2579 16.5828 56.2579 16.9281C56.2579 17.3481 56.1319 17.7261 55.8799 18.0621C55.6373 18.3981 55.2733 18.6641 54.7879 18.8601C54.3119 19.0468 53.7193 19.1401 53.0099 19.1401ZM60.8391 19.1401C59.8031 19.1401 58.9818 18.8414 58.3751 18.2441C57.7684 17.6468 57.4418 16.7974 57.3951 15.6961C57.3858 15.6028 57.3811 15.4861 57.3811 15.3461C57.3811 15.1968 57.3858 15.0801 57.3951 14.9961C57.4324 14.2868 57.5911 13.6801 57.8711 13.1761C58.1604 12.6628 58.5571 12.2708 59.0611 12.0001C59.5651 11.7201 60.1578 11.5801 60.8391 11.5801C61.5951 11.5801 62.2298 11.7388 62.7431 12.0561C63.2564 12.3641 63.6438 12.7981 63.9051 13.3581C64.1664 13.9088 64.2971 14.5481 64.2971 15.2761V15.5701C64.2971 15.6634 64.2644 15.7428 64.1991 15.8081C64.1338 15.8734 64.0498 15.9061 63.9471 15.9061H59.2991C59.2991 15.9061 59.2991 15.9201 59.2991 15.9481C59.2991 15.9761 59.2991 15.9994 59.2991 16.0181C59.3084 16.3448 59.3691 16.6481 59.4811 16.9281C59.6024 17.1988 59.7751 17.4181 59.9991 17.5861C60.2324 17.7541 60.5078 17.8381 60.8251 17.8381C61.0864 17.8381 61.3058 17.8008 61.4831 17.7261C61.6604 17.6421 61.8051 17.5488 61.9171 17.4461C62.0291 17.3434 62.1084 17.2594 62.1551 17.1941C62.2391 17.0821 62.3044 17.0168 62.3511 16.9981C62.4071 16.9701 62.4864 16.9561 62.5891 16.9561H63.7931C63.8864 16.9561 63.9611 16.9841 64.0171 17.0401C64.0824 17.0961 64.1104 17.1661 64.1011 17.2501C64.0918 17.3994 64.0124 17.5814 63.8631 17.7961C63.7231 18.0108 63.5178 18.2208 63.2471 18.4261C62.9764 18.6314 62.6358 18.8041 62.2251 18.9441C61.8238 19.0748 61.3618 19.1401 60.8391 19.1401ZM59.2991 14.7301H62.3931V14.6881C62.3931 14.3241 62.3324 14.0068 62.2111 13.7361C62.0898 13.4561 61.9124 13.2414 61.6791 13.0921C61.4458 12.9334 61.1658 12.8541 60.8391 12.8541C60.5124 12.8541 60.2324 12.9334 59.9991 13.0921C59.7658 13.2414 59.5884 13.4561 59.4671 13.7361C59.3551 14.0068 59.2991 14.3241 59.2991 14.6881V14.7301ZM68.4852 19.1401C67.9998 19.1401 67.5705 19.0608 67.1972 18.9021C66.8332 18.7341 66.5298 18.5008 66.2872 18.2021C66.0445 17.9034 65.8578 17.5534 65.7272 17.1521C65.5965 16.7414 65.5218 16.2934 65.5032 15.8081C65.4938 15.6401 65.4892 15.4908 65.4892 15.3601C65.4892 15.2201 65.4938 15.0661 65.5032 14.8981C65.5218 14.4314 65.5918 13.9974 65.7132 13.5961C65.8438 13.1948 66.0305 12.8448 66.2732 12.5461C66.5252 12.2381 66.8332 12.0001 67.1972 11.8321C67.5705 11.6641 67.9998 11.5801 68.4852 11.5801C68.9892 11.5801 69.4138 11.6688 69.7592 11.8461C70.1138 12.0141 70.4078 12.2334 70.6412 12.5041V9.39606C70.6412 9.30273 70.6692 9.22339 70.7252 9.15806C70.7905 9.09273 70.8745 9.06006 70.9772 9.06006H72.1672C72.2605 9.06006 72.3398 9.09273 72.4052 9.15806C72.4705 9.22339 72.5032 9.30273 72.5032 9.39606V18.6641C72.5032 18.7574 72.4705 18.8368 72.4052 18.9021C72.3398 18.9674 72.2605 19.0001 72.1672 19.0001H71.0612C70.9585 19.0001 70.8745 18.9674 70.8092 18.9021C70.7532 18.8368 70.7252 18.7574 70.7252 18.6641V18.1461C70.4918 18.4354 70.1932 18.6734 69.8292 18.8601C69.4745 19.0468 69.0265 19.1401 68.4852 19.1401ZM69.0032 17.6421C69.3952 17.6421 69.7078 17.5534 69.9412 17.3761C70.1745 17.1988 70.3472 16.9748 70.4592 16.7041C70.5712 16.4241 70.6318 16.1394 70.6412 15.8501C70.6505 15.6821 70.6552 15.5048 70.6552 15.3181C70.6552 15.1221 70.6505 14.9401 70.6412 14.7721C70.6318 14.4921 70.5665 14.2261 70.4452 13.9741C70.3238 13.7128 70.1465 13.4981 69.9132 13.3301C69.6798 13.1621 69.3765 13.0781 69.0032 13.0781C68.6112 13.0781 68.2985 13.1668 68.0652 13.3441C67.8412 13.5121 67.6778 13.7361 67.5752 14.0161C67.4725 14.2961 67.4118 14.6041 67.3932 14.9401C67.3838 15.2201 67.3838 15.5001 67.3932 15.7801C67.4118 16.1161 67.4725 16.4241 67.5752 16.7041C67.6778 16.9841 67.8412 17.2128 68.0652 17.3901C68.2985 17.5581 68.6112 17.6421 69.0032 17.6421Z" fill="#262626"/>
<path d="M82.5 11.5H95.5" stroke="#262626" stroke-linecap="round"/>
<path d="M82.5 18.5H95.5" stroke="#262626" stroke-linecap="round"/>
<path d="M116.428 20.0001C116.335 20.0001 116.255 19.9674 116.19 19.9021C116.125 19.8368 116.092 19.7574 116.092 19.6641V10.5501C116.092 10.4474 116.125 10.3634 116.19 10.2981C116.255 10.2328 116.335 10.2001 116.428 10.2001H120.18C120.908 10.2001 121.543 10.3168 122.084 10.5501C122.625 10.7741 123.045 11.1194 123.344 11.5861C123.643 12.0434 123.792 12.6174 123.792 13.3081C123.792 14.0081 123.643 14.5868 123.344 15.0441C123.045 15.4921 122.625 15.8281 122.084 16.0521C121.543 16.2761 120.908 16.3881 120.18 16.3881H118.094V19.6641C118.094 19.7574 118.061 19.8368 117.996 19.9021C117.94 19.9674 117.861 20.0001 117.758 20.0001H116.428ZM118.066 14.8341H120.11C120.651 14.8341 121.067 14.7081 121.356 14.4561C121.645 14.1948 121.79 13.8121 121.79 13.3081C121.79 12.8414 121.655 12.4681 121.384 12.1881C121.113 11.8988 120.689 11.7541 120.11 11.7541H118.066V14.8341ZM129.101 20.1401C128.233 20.1401 127.495 19.9908 126.889 19.6921C126.291 19.3841 125.834 18.9501 125.517 18.3901C125.199 17.8208 125.022 17.1394 124.985 16.3461C124.975 15.9634 124.971 15.5528 124.971 15.1141C124.971 14.6754 124.975 14.2554 124.985 13.8541C125.022 13.0701 125.199 12.3934 125.517 11.8241C125.843 11.2548 126.305 10.8208 126.903 10.5221C127.509 10.2141 128.242 10.0601 129.101 10.0601C129.735 10.0601 130.305 10.1441 130.809 10.3121C131.313 10.4801 131.742 10.7134 132.097 11.0121C132.451 11.3014 132.727 11.6421 132.923 12.0341C133.119 12.4261 133.221 12.8508 133.231 13.3081C133.24 13.3921 133.212 13.4621 133.147 13.5181C133.091 13.5741 133.021 13.6021 132.937 13.6021H131.607C131.504 13.6021 131.42 13.5788 131.355 13.5321C131.289 13.4761 131.243 13.3874 131.215 13.2661C131.065 12.6501 130.809 12.2301 130.445 12.0061C130.081 11.7821 129.628 11.6701 129.087 11.6701C128.461 11.6701 127.962 11.8474 127.589 12.2021C127.215 12.5474 127.015 13.1214 126.987 13.9241C126.959 14.6894 126.959 15.4734 126.987 16.2761C127.015 17.0788 127.215 17.6574 127.589 18.0121C127.962 18.3574 128.461 18.5301 129.087 18.5301C129.628 18.5301 130.081 18.4181 130.445 18.1941C130.818 17.9608 131.075 17.5408 131.215 16.9341C131.243 16.8034 131.289 16.7148 131.355 16.6681C131.42 16.6214 131.504 16.5981 131.607 16.5981H132.937C133.021 16.5981 133.091 16.6261 133.147 16.6821C133.212 16.7381 133.24 16.8081 133.231 16.8921C133.221 17.3494 133.119 17.7741 132.923 18.1661C132.727 18.5581 132.451 18.9034 132.097 19.2021C131.742 19.4914 131.313 19.7201 130.809 19.8881C130.305 20.0561 129.735 20.1401 129.101 20.1401ZM138.797 20.1401C137.985 20.1401 137.28 20.0048 136.683 19.7341C136.085 19.4541 135.623 19.0294 135.297 18.4601C134.97 17.8814 134.807 17.1441 134.807 16.2481V10.5501C134.807 10.4474 134.839 10.3634 134.905 10.2981C134.97 10.2328 135.049 10.2001 135.143 10.2001H136.417C136.519 10.2001 136.599 10.2328 136.655 10.2981C136.72 10.3634 136.753 10.4474 136.753 10.5501V16.2481C136.753 17.0134 136.935 17.5828 137.299 17.9561C137.663 18.3201 138.162 18.5021 138.797 18.5021C139.431 18.5021 139.926 18.3201 140.281 17.9561C140.645 17.5828 140.827 17.0134 140.827 16.2481V10.5501C140.827 10.4474 140.859 10.3634 140.925 10.2981C140.99 10.2328 141.074 10.2001 141.177 10.2001H142.437C142.539 10.2001 142.619 10.2328 142.675 10.2981C142.74 10.3634 142.773 10.4474 142.773 10.5501V16.2481C142.773 17.1441 142.609 17.8814 142.283 18.4601C141.965 19.0294 141.508 19.4541 140.911 19.7341C140.323 20.0048 139.618 20.1401 138.797 20.1401ZM151.851 20.1401C150.983 20.1401 150.245 19.9908 149.639 19.6921C149.041 19.3841 148.584 18.9501 148.267 18.3901C147.949 17.8208 147.772 17.1394 147.735 16.3461C147.725 15.9634 147.721 15.5528 147.721 15.1141C147.721 14.6754 147.725 14.2554 147.735 13.8541C147.772 13.0701 147.949 12.3934 148.267 11.8241C148.593 11.2548 149.055 10.8208 149.653 10.5221C150.259 10.2141 150.992 10.0601 151.851 10.0601C152.485 10.0601 153.055 10.1441 153.559 10.3121C154.063 10.4801 154.492 10.7134 154.847 11.0121C155.201 11.3014 155.477 11.6421 155.673 12.0341C155.869 12.4261 155.971 12.8508 155.981 13.3081C155.99 13.3921 155.962 13.4621 155.897 13.5181C155.841 13.5741 155.771 13.6021 155.687 13.6021H154.357C154.254 13.6021 154.17 13.5788 154.105 13.5321C154.039 13.4761 153.993 13.3874 153.965 13.2661C153.815 12.6501 153.559 12.2301 153.195 12.0061C152.831 11.7821 152.378 11.6701 151.837 11.6701C151.211 11.6701 150.712 11.8474 150.339 12.2021C149.965 12.5474 149.765 13.1214 149.737 13.9241C149.709 14.6894 149.709 15.4734 149.737 16.2761C149.765 17.0788 149.965 17.6574 150.339 18.0121C150.712 18.3574 151.211 18.5301 151.837 18.5301C152.378 18.5301 152.831 18.4181 153.195 18.1941C153.568 17.9608 153.825 17.5408 153.965 16.9341C153.993 16.8034 154.039 16.7148 154.105 16.6681C154.17 16.6214 154.254 16.5981 154.357 16.5981H155.687C155.771 16.5981 155.841 16.6261 155.897 16.6821C155.962 16.7381 155.99 16.8081 155.981 16.8921C155.971 17.3494 155.869 17.7741 155.673 18.1661C155.477 18.5581 155.201 18.9034 154.847 19.2021C154.492 19.4914 154.063 19.7201 153.559 19.8881C153.055 20.0561 152.485 20.1401 151.851 20.1401ZM160.693 20.1401C159.946 20.1401 159.316 20.0094 158.803 19.7481C158.299 19.4868 157.911 19.1181 157.641 18.6421C157.379 18.1661 157.23 17.6108 157.193 16.9761C157.183 16.8081 157.179 16.6028 157.179 16.3601C157.179 16.1174 157.183 15.9121 157.193 15.7441C157.23 15.1001 157.384 14.5448 157.655 14.0781C157.935 13.6021 158.327 13.2334 158.831 12.9721C159.344 12.7108 159.965 12.5801 160.693 12.5801C161.421 12.5801 162.037 12.7108 162.541 12.9721C163.054 13.2334 163.446 13.6021 163.717 14.0781C163.997 14.5448 164.155 15.1001 164.193 15.7441C164.202 15.9121 164.207 16.1174 164.207 16.3601C164.207 16.6028 164.202 16.8081 164.193 16.9761C164.155 17.6108 164.001 18.1661 163.731 18.6421C163.469 19.1181 163.082 19.4868 162.569 19.7481C162.065 20.0094 161.439 20.1401 160.693 20.1401ZM160.693 18.7541C161.187 18.7541 161.57 18.6001 161.841 18.2921C162.111 17.9748 162.261 17.5128 162.289 16.9061C162.298 16.7661 162.303 16.5841 162.303 16.3601C162.303 16.1361 162.298 15.9541 162.289 15.8141C162.261 15.2074 162.111 14.7501 161.841 14.4421C161.57 14.1248 161.187 13.9661 160.693 13.9661C160.198 13.9661 159.815 14.1248 159.545 14.4421C159.274 14.7501 159.125 15.2074 159.097 15.8141C159.087 15.9541 159.083 16.1361 159.083 16.3601C159.083 16.5841 159.087 16.7661 159.097 16.9061C159.125 17.5128 159.274 17.9748 159.545 18.2921C159.815 18.6001 160.198 18.7541 160.693 18.7541ZM168.516 20.1401C167.956 20.1401 167.475 20.0748 167.074 19.9441C166.682 19.8134 166.36 19.6501 166.108 19.4541C165.856 19.2581 165.669 19.0621 165.548 18.8661C165.427 18.6701 165.361 18.5068 165.352 18.3761C165.343 18.2734 165.371 18.1941 165.436 18.1381C165.511 18.0728 165.59 18.0401 165.674 18.0401H166.78C166.817 18.0401 166.85 18.0448 166.878 18.0541C166.906 18.0634 166.943 18.0914 166.99 18.1381C167.111 18.2408 167.237 18.3481 167.368 18.4601C167.508 18.5721 167.671 18.6701 167.858 18.7541C168.045 18.8288 168.278 18.8661 168.558 18.8661C168.922 18.8661 169.225 18.7961 169.468 18.6561C169.72 18.5068 169.846 18.2968 169.846 18.0261C169.846 17.8301 169.79 17.6714 169.678 17.5501C169.575 17.4288 169.379 17.3214 169.09 17.2281C168.801 17.1254 168.39 17.0181 167.858 16.9061C167.335 16.7848 166.901 16.6308 166.556 16.4441C166.211 16.2574 165.954 16.0241 165.786 15.7441C165.618 15.4641 165.534 15.1374 165.534 14.7641C165.534 14.4001 165.641 14.0548 165.856 13.7281C166.08 13.3921 166.407 13.1168 166.836 12.9021C167.275 12.6874 167.816 12.5801 168.46 12.5801C168.964 12.5801 169.403 12.6454 169.776 12.7761C170.149 12.8974 170.457 13.0514 170.7 13.2381C170.952 13.4248 171.143 13.6161 171.274 13.8121C171.405 13.9988 171.475 14.1621 171.484 14.3021C171.493 14.4048 171.465 14.4888 171.4 14.5541C171.335 14.6101 171.26 14.6381 171.176 14.6381H170.14C170.093 14.6381 170.051 14.6288 170.014 14.6101C169.977 14.5914 169.939 14.5681 169.902 14.5401C169.799 14.4468 169.687 14.3488 169.566 14.2461C169.445 14.1341 169.295 14.0408 169.118 13.9661C168.95 13.8914 168.726 13.8541 168.446 13.8541C168.091 13.8541 167.821 13.9334 167.634 14.0921C167.447 14.2414 167.354 14.4328 167.354 14.6661C167.354 14.8248 167.396 14.9648 167.48 15.0861C167.573 15.1981 167.755 15.3054 168.026 15.4081C168.297 15.5108 168.707 15.6181 169.258 15.7301C169.883 15.8421 170.378 16.0101 170.742 16.2341C171.115 16.4488 171.377 16.7008 171.526 16.9901C171.685 17.2701 171.764 17.5828 171.764 17.9281C171.764 18.3481 171.638 18.7261 171.386 19.0621C171.143 19.3981 170.779 19.6641 170.294 19.8601C169.818 20.0468 169.225 20.1401 168.516 20.1401ZM176.472 20.0001C175.912 20.0001 175.44 19.9021 175.058 19.7061C174.675 19.5101 174.39 19.2208 174.204 18.8381C174.017 18.4461 173.924 17.9608 173.924 17.3821V14.2041H172.818C172.724 14.2041 172.645 14.1714 172.58 14.1061C172.514 14.0408 172.482 13.9568 172.482 13.8541V13.0561C172.482 12.9628 172.514 12.8834 172.58 12.8181C172.645 12.7528 172.724 12.7201 172.818 12.7201H173.924V10.3961C173.924 10.3028 173.952 10.2234 174.008 10.1581C174.073 10.0928 174.157 10.0601 174.26 10.0601H175.394C175.487 10.0601 175.566 10.0928 175.632 10.1581C175.697 10.2234 175.73 10.3028 175.73 10.3961V12.7201H177.48C177.573 12.7201 177.652 12.7528 177.718 12.8181C177.783 12.8834 177.816 12.9628 177.816 13.0561V13.8541C177.816 13.9568 177.783 14.0408 177.718 14.1061C177.652 14.1714 177.573 14.2041 177.48 14.2041H175.73V17.2421C175.73 17.6248 175.795 17.9234 175.926 18.1381C176.066 18.3528 176.304 18.4601 176.64 18.4601H177.606C177.699 18.4601 177.778 18.4928 177.844 18.5581C177.909 18.6234 177.942 18.7028 177.942 18.7961V19.6641C177.942 19.7574 177.909 19.8368 177.844 19.9021C177.778 19.9674 177.699 20.0001 177.606 20.0001H176.472Z" fill="#262626"/>
<path d="M109.439 25.18C108.599 25.18 107.906 24.9933 107.359 24.62C106.812 24.2467 106.386 23.68 106.079 22.92C105.786 22.16 105.579 21.1933 105.459 20.02C105.339 18.8333 105.279 17.4333 105.279 15.82C105.279 14.2067 105.339 12.8133 105.459 11.64C105.579 10.4533 105.786 9.47998 106.079 8.71998C106.386 7.95998 106.812 7.39998 107.359 7.03998C107.906 6.66665 108.599 6.47998 109.439 6.47998C109.559 6.47998 109.659 6.52665 109.739 6.61998C109.832 6.69998 109.879 6.79998 109.879 6.91998V7.19998C109.879 7.31998 109.839 7.42665 109.759 7.51998C109.679 7.59998 109.592 7.63998 109.499 7.63998C108.939 7.63998 108.466 7.77331 108.079 8.03998C107.692 8.29331 107.379 8.73331 107.139 9.35998C106.899 9.97331 106.726 10.8067 106.619 11.86C106.512 12.9133 106.459 14.2333 106.459 15.82C106.459 17.4067 106.512 18.7267 106.619 19.78C106.726 20.8333 106.899 21.6667 107.139 22.28C107.379 22.9067 107.692 23.3533 108.079 23.62C108.466 23.8867 108.939 24.02 109.499 24.02C109.592 24.02 109.679 24.06 109.759 24.14C109.839 24.2333 109.879 24.34 109.879 24.46V24.74C109.879 24.86 109.832 24.96 109.739 25.04C109.659 25.1333 109.559 25.18 109.439 25.18Z" fill="#262626"/>
<path d="M289.94 25.18C289.82 25.18 289.713 25.1333 289.62 25.04C289.54 24.96 289.5 24.86 289.5 24.74V24.46C289.5 24.34 289.54 24.2333 289.62 24.14C289.7 24.06 289.787 24.02 289.88 24.02C290.44 24.02 290.913 23.8867 291.3 23.62C291.687 23.3533 292 22.9067 292.24 22.28C292.48 21.6667 292.653 20.8333 292.76 19.78C292.867 18.7267 292.92 17.4067 292.92 15.82C292.92 14.2333 292.867 12.9133 292.76 11.86C292.653 10.8067 292.48 9.97331 292.24 9.35998C292 8.73331 291.687 8.29331 291.3 8.03998C290.913 7.77331 290.44 7.63998 289.88 7.63998C289.787 7.63998 289.7 7.59998 289.62 7.51998C289.54 7.42665 289.5 7.31998 289.5 7.19998V6.91998C289.5 6.79998 289.54 6.69998 289.62 6.61998C289.713 6.52665 289.82 6.47998 289.94 6.47998C290.78 6.47998 291.473 6.66665 292.02 7.03998C292.567 7.39998 292.987 7.95998 293.28 8.71998C293.587 9.47998 293.8 10.4533 293.92 11.64C294.04 12.8133 294.1 14.2067 294.1 15.82C294.1 17.4333 294.04 18.8333 293.92 20.02C293.8 21.1933 293.587 22.16 293.28 22.92C292.987 23.68 292.567 24.2467 292.02 24.62C291.473 24.9933 290.78 25.18 289.94 25.18Z" fill="#262626"/>
<path d="M211.584 20.0001C211.491 20.0001 211.411 19.9674 211.346 19.9021C211.281 19.8368 211.248 19.7574 211.248 19.6641V11.9221H208.658C208.565 11.9221 208.485 11.8894 208.42 11.8241C208.355 11.7588 208.322 11.6794 208.322 11.5861V10.5501C208.322 10.4474 208.355 10.3634 208.42 10.2981C208.485 10.2328 208.565 10.2001 208.658 10.2001H215.798C215.901 10.2001 215.985 10.2328 216.05 10.2981C216.115 10.3634 216.148 10.4474 216.148 10.5501V11.5861C216.148 11.6794 216.115 11.7588 216.05 11.8241C215.985 11.8894 215.901 11.9221 215.798 11.9221H213.222V19.6641C213.222 19.7574 213.189 19.8368 213.124 19.9021C213.059 19.9674 212.975 20.0001 212.872 20.0001H211.584ZM219.335 20.1401C218.589 20.1401 217.959 20.0094 217.445 19.7481C216.941 19.4868 216.554 19.1181 216.283 18.6421C216.022 18.1661 215.873 17.6108 215.835 16.9761C215.826 16.8081 215.821 16.6028 215.821 16.3601C215.821 16.1174 215.826 15.9121 215.835 15.7441C215.873 15.1001 216.027 14.5448 216.297 14.0781C216.577 13.6021 216.969 13.2334 217.473 12.9721C217.987 12.7108 218.607 12.5801 219.335 12.5801C220.063 12.5801 220.679 12.7108 221.183 12.9721C221.697 13.2334 222.089 13.6021 222.359 14.0781C222.639 14.5448 222.798 15.1001 222.835 15.7441C222.845 15.9121 222.849 16.1174 222.849 16.3601C222.849 16.6028 222.845 16.8081 222.835 16.9761C222.798 17.6108 222.644 18.1661 222.373 18.6421C222.112 19.1181 221.725 19.4868 221.211 19.7481C220.707 20.0094 220.082 20.1401 219.335 20.1401ZM219.335 18.7541C219.83 18.7541 220.213 18.6001 220.483 18.2921C220.754 17.9748 220.903 17.5128 220.931 16.9061C220.941 16.7661 220.945 16.5841 220.945 16.3601C220.945 16.1361 220.941 15.9541 220.931 15.8141C220.903 15.2074 220.754 14.7501 220.483 14.4421C220.213 14.1248 219.83 13.9661 219.335 13.9661C218.841 13.9661 218.458 14.1248 218.187 14.4421C217.917 14.7501 217.767 15.2074 217.739 15.8141C217.73 15.9541 217.725 16.1361 217.725 16.3601C217.725 16.5841 217.73 16.7661 217.739 16.9061C217.767 17.5128 217.917 17.9748 218.187 18.2921C218.458 18.6001 218.841 18.7541 219.335 18.7541ZM227.636 20.0001C227.076 20.0001 226.605 19.9021 226.222 19.7061C225.839 19.5101 225.555 19.2208 225.368 18.8381C225.181 18.4461 225.088 17.9608 225.088 17.3821V14.2041H223.982C223.889 14.2041 223.809 14.1714 223.744 14.1061C223.679 14.0408 223.646 13.9568 223.646 13.8541V13.0561C223.646 12.9628 223.679 12.8834 223.744 12.8181C223.809 12.7528 223.889 12.7201 223.982 12.7201H225.088V10.3961C225.088 10.3028 225.116 10.2234 225.172 10.1581C225.237 10.0928 225.321 10.0601 225.424 10.0601H226.558C226.651 10.0601 226.731 10.0928 226.796 10.1581C226.861 10.2234 226.894 10.3028 226.894 10.3961V12.7201H228.644C228.737 12.7201 228.817 12.7528 228.882 12.8181C228.947 12.8834 228.98 12.9628 228.98 13.0561V13.8541C228.98 13.9568 228.947 14.0408 228.882 14.1061C228.817 14.1714 228.737 14.2041 228.644 14.2041H226.894V17.2421C226.894 17.6248 226.959 17.9234 227.09 18.1381C227.23 18.3528 227.468 18.4601 227.804 18.4601H228.77C228.863 18.4601 228.943 18.4928 229.008 18.5581C229.073 18.6234 229.106 18.7028 229.106 18.7961V19.6641C229.106 19.7574 229.073 19.8368 229.008 19.9021C228.943 19.9674 228.863 20.0001 228.77 20.0001H227.636ZM232.462 20.1401C231.976 20.1401 231.538 20.0468 231.146 19.8601C230.754 19.6641 230.441 19.4074 230.208 19.0901C229.984 18.7634 229.872 18.3994 229.872 17.9981C229.872 17.3448 230.138 16.8268 230.67 16.4441C231.202 16.0521 231.897 15.7908 232.756 15.6601L234.674 15.3801V15.0861C234.674 14.6941 234.576 14.3908 234.38 14.1761C234.184 13.9614 233.848 13.8541 233.372 13.8541C233.036 13.8541 232.76 13.9241 232.546 14.0641C232.34 14.1948 232.186 14.3721 232.084 14.5961C232.009 14.7174 231.902 14.7781 231.762 14.7781H230.656C230.553 14.7781 230.474 14.7501 230.418 14.6941C230.371 14.6381 230.348 14.5634 230.348 14.4701C230.357 14.3208 230.418 14.1388 230.53 13.9241C230.651 13.7094 230.828 13.5041 231.062 13.3081C231.304 13.1028 231.617 12.9301 232 12.7901C232.382 12.6501 232.844 12.5801 233.386 12.5801C233.974 12.5801 234.468 12.6548 234.87 12.8041C235.28 12.9441 235.607 13.1354 235.85 13.3781C236.092 13.6208 236.27 13.9054 236.382 14.2321C236.494 14.5588 236.55 14.9041 236.55 15.2681V19.6641C236.55 19.7574 236.517 19.8368 236.452 19.9021C236.386 19.9674 236.307 20.0001 236.214 20.0001H235.08C234.977 20.0001 234.893 19.9674 234.828 19.9021C234.772 19.8368 234.744 19.7574 234.744 19.6641V19.1181C234.622 19.2861 234.459 19.4494 234.254 19.6081C234.048 19.7668 233.796 19.8974 233.498 20.0001C233.208 20.0934 232.863 20.1401 232.462 20.1401ZM232.938 18.8101C233.264 18.8101 233.558 18.7401 233.82 18.6001C234.09 18.4601 234.3 18.2454 234.45 17.9561C234.608 17.6574 234.688 17.2841 234.688 16.8361V16.5421L233.288 16.7661C232.737 16.8501 232.326 16.9854 232.056 17.1721C231.785 17.3588 231.65 17.5874 231.65 17.8581C231.65 18.0634 231.71 18.2408 231.832 18.3901C231.962 18.5301 232.126 18.6374 232.322 18.7121C232.518 18.7774 232.723 18.8101 232.938 18.8101ZM238.696 20.0001C238.603 20.0001 238.523 19.9674 238.458 19.9021C238.393 19.8368 238.36 19.7574 238.36 19.6641V10.3961C238.36 10.3028 238.393 10.2234 238.458 10.1581C238.523 10.0928 238.603 10.0601 238.696 10.0601H239.858C239.951 10.0601 240.031 10.0928 240.096 10.1581C240.161 10.2234 240.194 10.3028 240.194 10.3961V19.6641C240.194 19.7574 240.161 19.8368 240.096 19.9021C240.031 19.9674 239.951 20.0001 239.858 20.0001H238.696ZM245.754 20.0001C245.661 20.0001 245.582 19.9721 245.516 19.9161C245.451 19.8508 245.418 19.7668 245.418 19.6641V10.5501C245.418 10.4474 245.451 10.3634 245.516 10.2981C245.582 10.2328 245.661 10.2001 245.754 10.2001H247.028C247.131 10.2001 247.21 10.2328 247.266 10.2981C247.332 10.3634 247.364 10.4474 247.364 10.5501V14.1621H251.494V10.5501C251.494 10.4474 251.527 10.3634 251.592 10.2981C251.658 10.2328 251.737 10.2001 251.83 10.2001H253.09C253.193 10.2001 253.277 10.2328 253.342 10.2981C253.408 10.3634 253.44 10.4474 253.44 10.5501V19.6641C253.44 19.7574 253.408 19.8368 253.342 19.9021C253.277 19.9674 253.193 20.0001 253.09 20.0001H251.83C251.737 20.0001 251.658 19.9674 251.592 19.9021C251.527 19.8368 251.494 19.7574 251.494 19.6641V15.9121H247.364V19.6641C247.364 19.7574 247.332 19.8368 247.266 19.9021C247.21 19.9674 247.131 20.0001 247.028 20.0001H245.754ZM258.669 20.1401C257.923 20.1401 257.293 20.0094 256.779 19.7481C256.275 19.4868 255.888 19.1181 255.617 18.6421C255.356 18.1661 255.207 17.6108 255.169 16.9761C255.16 16.8081 255.155 16.6028 255.155 16.3601C255.155 16.1174 255.16 15.9121 255.169 15.7441C255.207 15.1001 255.361 14.5448 255.631 14.0781C255.911 13.6021 256.303 13.2334 256.807 12.9721C257.321 12.7108 257.941 12.5801 258.669 12.5801C259.397 12.5801 260.013 12.7108 260.517 12.9721C261.031 13.2334 261.423 13.6021 261.693 14.0781C261.973 14.5448 262.132 15.1001 262.169 15.7441C262.179 15.9121 262.183 16.1174 262.183 16.3601C262.183 16.6028 262.179 16.8081 262.169 16.9761C262.132 17.6108 261.978 18.1661 261.707 18.6421C261.446 19.1181 261.059 19.4868 260.545 19.7481C260.041 20.0094 259.416 20.1401 258.669 20.1401ZM258.669 18.7541C259.164 18.7541 259.547 18.6001 259.817 18.2921C260.088 17.9748 260.237 17.5128 260.265 16.9061C260.275 16.7661 260.279 16.5841 260.279 16.3601C260.279 16.1361 260.275 15.9541 260.265 15.8141C260.237 15.2074 260.088 14.7501 259.817 14.4421C259.547 14.1248 259.164 13.9661 258.669 13.9661C258.175 13.9661 257.792 14.1248 257.521 14.4421C257.251 14.7501 257.101 15.2074 257.073 15.8141C257.064 15.9541 257.059 16.1361 257.059 16.3601C257.059 16.5841 257.064 16.7661 257.073 16.9061C257.101 17.5128 257.251 17.9748 257.521 18.2921C257.792 18.6001 258.175 18.7541 258.669 18.7541ZM266.437 20.1401C265.867 20.1401 265.373 20.0141 264.953 19.7621C264.542 19.5008 264.225 19.1368 264.001 18.6701C263.777 18.1941 263.665 17.6341 263.665 16.9901V13.0561C263.665 12.9628 263.697 12.8834 263.763 12.8181C263.828 12.7528 263.907 12.7201 264.001 12.7201H265.233C265.335 12.7201 265.415 12.7528 265.471 12.8181C265.536 12.8834 265.569 12.9628 265.569 13.0561V16.9061C265.569 18.0634 266.077 18.6421 267.095 18.6421C267.58 18.6421 267.963 18.4881 268.243 18.1801C268.532 17.8721 268.677 17.4474 268.677 16.9061V13.0561C268.677 12.9628 268.709 12.8834 268.775 12.8181C268.84 12.7528 268.919 12.7201 269.013 12.7201H270.245C270.338 12.7201 270.417 12.7528 270.483 12.8181C270.548 12.8834 270.581 12.9628 270.581 13.0561V19.6641C270.581 19.7574 270.548 19.8368 270.483 19.9021C270.417 19.9674 270.338 20.0001 270.245 20.0001H269.111C269.008 20.0001 268.924 19.9674 268.859 19.9021C268.803 19.8368 268.775 19.7574 268.775 19.6641V19.0901C268.523 19.4168 268.21 19.6734 267.837 19.8601C267.463 20.0468 266.997 20.1401 266.437 20.1401ZM272.766 20.0001C272.673 20.0001 272.593 19.9674 272.528 19.9021C272.463 19.8368 272.43 19.7574 272.43 19.6641V13.0701C272.43 12.9674 272.463 12.8834 272.528 12.8181C272.593 12.7528 272.673 12.7201 272.766 12.7201H273.9C273.993 12.7201 274.073 12.7528 274.138 12.8181C274.213 12.8834 274.25 12.9674 274.25 13.0701V13.6441C274.465 13.3454 274.74 13.1168 275.076 12.9581C275.421 12.7994 275.818 12.7201 276.266 12.7201H276.84C276.943 12.7201 277.022 12.7528 277.078 12.8181C277.143 12.8834 277.176 12.9628 277.176 13.0561V14.0641C277.176 14.1574 277.143 14.2368 277.078 14.3021C277.022 14.3674 276.943 14.4001 276.84 14.4001H275.748C275.3 14.4001 274.95 14.5261 274.698 14.7781C274.455 15.0208 274.334 15.3661 274.334 15.8141V19.6641C274.334 19.7574 274.301 19.8368 274.236 19.9021C274.171 19.9674 274.087 20.0001 273.984 20.0001H272.766ZM281.026 20.1401C280.466 20.1401 279.985 20.0748 279.584 19.9441C279.192 19.8134 278.87 19.6501 278.618 19.4541C278.366 19.2581 278.179 19.0621 278.058 18.8661C277.936 18.6701 277.871 18.5068 277.862 18.3761C277.852 18.2734 277.88 18.1941 277.946 18.1381C278.02 18.0728 278.1 18.0401 278.184 18.0401H279.29C279.327 18.0401 279.36 18.0448 279.388 18.0541C279.416 18.0634 279.453 18.0914 279.5 18.1381C279.621 18.2408 279.747 18.3481 279.878 18.4601C280.018 18.5721 280.181 18.6701 280.368 18.7541C280.554 18.8288 280.788 18.8661 281.068 18.8661C281.432 18.8661 281.735 18.7961 281.978 18.6561C282.23 18.5068 282.356 18.2968 282.356 18.0261C282.356 17.8301 282.3 17.6714 282.188 17.5501C282.085 17.4288 281.889 17.3214 281.6 17.2281C281.31 17.1254 280.9 17.0181 280.368 16.9061C279.845 16.7848 279.411 16.6308 279.066 16.4441C278.72 16.2574 278.464 16.0241 278.296 15.7441C278.128 15.4641 278.044 15.1374 278.044 14.7641C278.044 14.4001 278.151 14.0548 278.366 13.7281C278.59 13.3921 278.916 13.1168 279.346 12.9021C279.784 12.6874 280.326 12.5801 280.97 12.5801C281.474 12.5801 281.912 12.6454 282.286 12.7761C282.659 12.8974 282.967 13.0514 283.21 13.2381C283.462 13.4248 283.653 13.6161 283.784 13.8121C283.914 13.9988 283.984 14.1621 283.994 14.3021C284.003 14.4048 283.975 14.4888 283.91 14.5541C283.844 14.6101 283.77 14.6381 283.686 14.6381H282.65C282.603 14.6381 282.561 14.6288 282.524 14.6101C282.486 14.5914 282.449 14.5681 282.412 14.5401C282.309 14.4468 282.197 14.3488 282.076 14.2461C281.954 14.1341 281.805 14.0408 281.628 13.9661C281.46 13.8914 281.236 13.8541 280.956 13.8541C280.601 13.8541 280.33 13.9334 280.144 14.0921C279.957 14.2414 279.864 14.4328 279.864 14.6661C279.864 14.8248 279.906 14.9648 279.99 15.0861C280.083 15.1981 280.265 15.3054 280.536 15.4081C280.806 15.5108 281.217 15.6181 281.768 15.7301C282.393 15.8421 282.888 16.0101 283.252 16.2341C283.625 16.4488 283.886 16.7008 284.036 16.9901C284.194 17.2701 284.274 17.5828 284.274 17.9281C284.274 18.3481 284.148 18.7261 283.896 19.0621C283.653 19.3981 283.289 19.6641 282.804 19.8601C282.328 20.0468 281.735 20.1401 281.026 20.1401Z" fill="#262626"/>
<path d="M329.591 20.14C328.975 20.14 328.424 20.0653 327.939 19.916C327.454 19.7667 327.043 19.5567 326.707 19.286C326.38 19.0153 326.128 18.698 325.951 18.334C325.783 17.97 325.699 17.564 325.699 17.116C325.699 16.5747 325.83 16.108 326.091 15.716C326.362 15.3147 326.712 15.0067 327.141 14.792C326.796 14.5773 326.525 14.302 326.329 13.966C326.142 13.63 326.049 13.238 326.049 12.79C326.049 12.2487 326.184 11.7773 326.455 11.376C326.735 10.9653 327.136 10.6433 327.659 10.41C328.191 10.1767 328.835 10.06 329.591 10.06C330.347 10.06 330.986 10.1767 331.509 10.41C332.032 10.634 332.428 10.9513 332.699 11.362C332.97 11.7633 333.105 12.2347 333.105 12.776C333.105 13.224 333.012 13.616 332.825 13.952C332.638 14.288 332.377 14.568 332.041 14.792C332.48 14.9973 332.83 15.3053 333.091 15.716C333.352 16.1173 333.483 16.5887 333.483 17.13C333.483 17.718 333.329 18.2407 333.021 18.698C332.722 19.146 332.279 19.5007 331.691 19.762C331.112 20.014 330.412 20.14 329.591 20.14ZM329.591 18.684C329.955 18.684 330.282 18.6233 330.571 18.502C330.87 18.3713 331.103 18.1893 331.271 17.956C331.448 17.7227 331.537 17.4473 331.537 17.13C331.537 16.8033 331.448 16.528 331.271 16.304C331.103 16.0707 330.87 15.8933 330.571 15.772C330.282 15.6413 329.955 15.576 329.591 15.576C329.227 15.576 328.896 15.6413 328.597 15.772C328.308 15.8933 328.074 16.0707 327.897 16.304C327.729 16.528 327.645 16.8033 327.645 17.13C327.645 17.4473 327.729 17.7227 327.897 17.956C328.074 18.1893 328.308 18.3713 328.597 18.502C328.896 18.6233 329.227 18.684 329.591 18.684ZM329.591 14.19C329.899 14.1807 330.179 14.12 330.431 14.008C330.692 13.896 330.898 13.742 331.047 13.546C331.206 13.35 331.285 13.1213 331.285 12.86C331.285 12.5893 331.21 12.356 331.061 12.16C330.921 11.9547 330.72 11.796 330.459 11.684C330.207 11.572 329.918 11.516 329.591 11.516C329.264 11.516 328.97 11.572 328.709 11.684C328.457 11.796 328.256 11.9547 328.107 12.16C327.967 12.356 327.897 12.5893 327.897 12.86C327.897 13.1307 327.967 13.364 328.107 13.56C328.256 13.756 328.457 13.91 328.709 14.022C328.97 14.134 329.264 14.19 329.591 14.19ZM336.217 20C336.133 20 336.063 19.972 336.007 19.916C335.951 19.8507 335.923 19.776 335.923 19.692C335.923 19.6547 335.932 19.6127 335.951 19.566L339.325 11.866H334.929C334.826 11.866 334.742 11.8333 334.677 11.768C334.621 11.7027 334.593 11.6233 334.593 11.53V10.55C334.593 10.4473 334.621 10.3633 334.677 10.298C334.742 10.2327 334.826 10.2 334.929 10.2H341.075C341.177 10.2 341.257 10.2327 341.313 10.298C341.378 10.3633 341.411 10.4473 341.411 10.55V11.418C341.411 11.5487 341.397 11.6607 341.369 11.754C341.35 11.838 341.322 11.9267 341.285 12.02L337.939 19.664C337.911 19.7293 337.859 19.804 337.784 19.888C337.719 19.9627 337.621 20 337.491 20H336.217ZM345.844 20.14C345.041 20.14 344.351 19.9907 343.772 19.692C343.193 19.384 342.745 18.9733 342.428 18.46C342.111 17.9373 341.952 17.354 341.952 16.71C341.952 16.4207 341.989 16.1407 342.064 15.87C342.139 15.5993 342.237 15.3427 342.358 15.1C342.479 14.8573 342.596 14.6427 342.708 14.456C342.829 14.26 342.937 14.106 343.03 13.994L345.592 10.48C345.629 10.4333 345.685 10.3773 345.76 10.312C345.835 10.2373 345.937 10.2 346.068 10.2H347.37C347.454 10.2 347.524 10.2327 347.58 10.298C347.636 10.354 347.664 10.424 347.664 10.508C347.664 10.5453 347.655 10.5827 347.636 10.62C347.627 10.648 347.613 10.6713 347.594 10.69L345.634 13.406C345.718 13.378 345.816 13.3593 345.928 13.35C346.04 13.3407 346.143 13.336 346.236 13.336C346.703 13.3453 347.146 13.4387 347.566 13.616C347.986 13.784 348.355 14.0173 348.672 14.316C348.989 14.6147 349.237 14.9647 349.414 15.366C349.601 15.7673 349.694 16.206 349.694 16.682C349.694 17.298 349.54 17.872 349.232 18.404C348.924 18.9267 348.481 19.3467 347.902 19.664C347.333 19.9813 346.647 20.14 345.844 20.14ZM345.83 18.53C346.166 18.53 346.474 18.46 346.754 18.32C347.043 18.18 347.277 17.9747 347.454 17.704C347.631 17.4333 347.72 17.0973 347.72 16.696C347.72 16.304 347.631 15.9727 347.454 15.702C347.277 15.4313 347.043 15.226 346.754 15.086C346.474 14.946 346.166 14.876 345.83 14.876C345.494 14.876 345.181 14.946 344.892 15.086C344.612 15.226 344.383 15.4313 344.206 15.702C344.029 15.9727 343.94 16.304 343.94 16.696C343.94 17.0973 344.029 17.4333 344.206 17.704C344.383 17.9747 344.612 18.18 344.892 18.32C345.181 18.46 345.494 18.53 345.83 18.53ZM354.747 20.14C354.085 20.14 353.52 20.042 353.053 19.846C352.587 19.65 352.204 19.3793 351.905 19.034C351.607 18.6887 351.383 18.292 351.233 17.844C351.084 17.3867 350.995 16.9013 350.967 16.388C350.958 16.136 350.949 15.8607 350.939 15.562C350.939 15.254 350.939 14.946 350.939 14.638C350.949 14.33 350.958 14.0453 350.967 13.784C350.986 13.2707 351.075 12.79 351.233 12.342C351.392 11.8847 351.621 11.488 351.919 11.152C352.227 10.816 352.615 10.55 353.081 10.354C353.548 10.158 354.103 10.06 354.747 10.06C355.401 10.06 355.961 10.158 356.427 10.354C356.894 10.55 357.277 10.816 357.575 11.152C357.883 11.488 358.112 11.8847 358.261 12.342C358.42 12.79 358.509 13.2707 358.527 13.784C358.546 14.0453 358.555 14.33 358.555 14.638C358.555 14.946 358.555 15.254 358.555 15.562C358.555 15.8607 358.546 16.136 358.527 16.388C358.509 16.9013 358.425 17.3867 358.275 17.844C358.126 18.292 357.902 18.6887 357.603 19.034C357.305 19.3793 356.917 19.65 356.441 19.846C355.975 20.042 355.41 20.14 354.747 20.14ZM354.747 18.53C355.354 18.53 355.797 18.334 356.077 17.942C356.367 17.5407 356.516 16.9993 356.525 16.318C356.544 16.0473 356.553 15.7767 356.553 15.506C356.553 15.226 356.553 14.946 356.553 14.666C356.553 14.386 356.544 14.12 356.525 13.868C356.516 13.2053 356.367 12.6733 356.077 12.272C355.797 11.8613 355.354 11.656 354.747 11.656C354.15 11.656 353.707 11.8613 353.417 12.272C353.137 12.6733 352.988 13.2053 352.969 13.868C352.969 14.12 352.965 14.386 352.955 14.666C352.955 14.946 352.955 15.226 352.955 15.506C352.965 15.7767 352.969 16.0473 352.969 16.318C352.988 16.9993 353.142 17.5407 353.431 17.942C353.721 18.334 354.159 18.53 354.747 18.53ZM364.096 20C363.993 20 363.914 19.972 363.858 19.916C363.802 19.8507 363.774 19.7713 363.774 19.678V10.536C363.774 10.4333 363.802 10.354 363.858 10.298C363.914 10.2327 363.993 10.2 364.096 10.2H364.81C364.912 10.2 364.992 10.2327 365.048 10.298C365.113 10.354 365.146 10.4333 365.146 10.536V14.4H369.962V10.536C369.962 10.4333 369.99 10.354 370.046 10.298C370.111 10.2327 370.19 10.2 370.284 10.2H370.998C371.1 10.2 371.18 10.2327 371.236 10.298C371.301 10.354 371.334 10.4333 371.334 10.536V19.678C371.334 19.7713 371.301 19.8507 371.236 19.916C371.18 19.972 371.1 20 370.998 20H370.284C370.19 20 370.111 19.972 370.046 19.916C369.99 19.8507 369.962 19.7713 369.962 19.678V15.66H365.146V19.678C365.146 19.7713 365.113 19.8507 365.048 19.916C364.992 19.972 364.912 20 364.81 20H364.096ZM376.568 20.14C375.858 20.14 375.266 20.0047 374.79 19.734C374.314 19.4633 373.95 19.09 373.698 18.614C373.446 18.1287 373.306 17.578 373.278 16.962C373.268 16.8033 373.264 16.6027 373.264 16.36C373.264 16.108 373.268 15.9073 373.278 15.758C373.306 15.1327 373.446 14.582 373.698 14.106C373.959 13.63 374.328 13.2567 374.804 12.986C375.28 12.7153 375.868 12.58 376.568 12.58C377.268 12.58 377.856 12.7153 378.332 12.986C378.808 13.2567 379.172 13.63 379.424 14.106C379.685 14.582 379.83 15.1327 379.858 15.758C379.867 15.9073 379.872 16.108 379.872 16.36C379.872 16.6027 379.867 16.8033 379.858 16.962C379.83 17.578 379.69 18.1287 379.438 18.614C379.186 19.09 378.822 19.4633 378.346 19.734C377.87 20.0047 377.277 20.14 376.568 20.14ZM376.568 19.062C377.146 19.062 377.608 18.88 377.954 18.516C378.299 18.1427 378.486 17.6013 378.514 16.892C378.523 16.752 378.528 16.5747 378.528 16.36C378.528 16.1453 378.523 15.968 378.514 15.828C378.486 15.1187 378.299 14.582 377.954 14.218C377.608 13.8447 377.146 13.658 376.568 13.658C375.989 13.658 375.522 13.8447 375.168 14.218C374.822 14.582 374.64 15.1187 374.622 15.828C374.612 15.968 374.608 16.1453 374.608 16.36C374.608 16.5747 374.612 16.752 374.622 16.892C374.64 17.6013 374.822 18.1427 375.168 18.516C375.522 18.88 375.989 19.062 376.568 19.062ZM384.341 20.14C383.744 20.14 383.235 20.0093 382.815 19.748C382.404 19.4773 382.092 19.104 381.877 18.628C381.662 18.152 381.555 17.606 381.555 16.99V13.042C381.555 12.9487 381.583 12.874 381.639 12.818C381.704 12.7527 381.784 12.72 381.877 12.72H382.577C382.67 12.72 382.745 12.7527 382.801 12.818C382.866 12.874 382.899 12.9487 382.899 13.042V16.92C382.899 18.3107 383.506 19.006 384.719 19.006C385.298 19.006 385.76 18.824 386.105 18.46C386.46 18.0867 386.637 17.5733 386.637 16.92V13.042C386.637 12.9487 386.665 12.874 386.721 12.818C386.786 12.7527 386.866 12.72 386.959 12.72H387.659C387.752 12.72 387.827 12.7527 387.883 12.818C387.939 12.874 387.967 12.9487 387.967 13.042V19.678C387.967 19.7713 387.939 19.8507 387.883 19.916C387.827 19.972 387.752 20 387.659 20H387.001C386.908 20 386.828 19.972 386.763 19.916C386.707 19.8507 386.679 19.7713 386.679 19.678V19.062C386.427 19.3887 386.119 19.65 385.755 19.846C385.4 20.042 384.929 20.14 384.341 20.14ZM390.369 20C390.275 20 390.196 19.972 390.131 19.916C390.075 19.8507 390.047 19.7713 390.047 19.678V13.056C390.047 12.9627 390.075 12.8833 390.131 12.818C390.196 12.7527 390.275 12.72 390.369 12.72H391.013C391.106 12.72 391.185 12.7527 391.251 12.818C391.316 12.8833 391.349 12.9627 391.349 13.056V13.672C391.535 13.3547 391.792 13.1167 392.119 12.958C392.445 12.7993 392.842 12.72 393.309 12.72H393.855C393.948 12.72 394.023 12.7527 394.079 12.818C394.144 12.874 394.177 12.9487 394.177 13.042V13.616C394.177 13.7093 394.144 13.784 394.079 13.84C394.023 13.896 393.948 13.924 393.855 13.924H393.015C392.511 13.924 392.114 14.0733 391.825 14.372C391.535 14.6613 391.391 15.058 391.391 15.562V19.678C391.391 19.7713 391.358 19.8507 391.293 19.916C391.227 19.972 391.148 20 391.055 20H390.369ZM397.885 20.14C397.362 20.14 396.914 20.0747 396.541 19.944C396.168 19.8133 395.864 19.6547 395.631 19.468C395.398 19.2813 395.22 19.0947 395.099 18.908C394.987 18.7213 394.926 18.572 394.917 18.46C394.908 18.3573 394.94 18.278 395.015 18.222C395.09 18.166 395.164 18.138 395.239 18.138H395.869C395.916 18.138 395.953 18.1473 395.981 18.166C396.018 18.1753 396.065 18.2127 396.121 18.278C396.242 18.4087 396.378 18.5393 396.527 18.67C396.676 18.8007 396.858 18.908 397.073 18.992C397.297 19.076 397.572 19.118 397.899 19.118C398.375 19.118 398.767 19.0293 399.075 18.852C399.383 18.6653 399.537 18.3947 399.537 18.04C399.537 17.8067 399.472 17.62 399.341 17.48C399.22 17.34 398.996 17.214 398.669 17.102C398.352 16.99 397.913 16.8733 397.353 16.752C396.793 16.6213 396.35 16.4627 396.023 16.276C395.696 16.08 395.463 15.8513 395.323 15.59C395.183 15.3193 395.113 15.016 395.113 14.68C395.113 14.3347 395.216 14.0033 395.421 13.686C395.626 13.3593 395.925 13.0933 396.317 12.888C396.718 12.6827 397.218 12.58 397.815 12.58C398.3 12.58 398.716 12.6407 399.061 12.762C399.406 12.8833 399.691 13.0373 399.915 13.224C400.139 13.4013 400.307 13.5787 400.419 13.756C400.531 13.9333 400.592 14.0827 400.601 14.204C400.61 14.2973 400.582 14.3767 400.517 14.442C400.452 14.498 400.377 14.526 400.293 14.526H399.705C399.64 14.526 399.584 14.512 399.537 14.484C399.5 14.456 399.462 14.4233 399.425 14.386C399.332 14.2647 399.22 14.1433 399.089 14.022C398.968 13.9007 398.804 13.8027 398.599 13.728C398.403 13.644 398.142 13.602 397.815 13.602C397.348 13.602 396.998 13.7 396.765 13.896C396.532 14.092 396.415 14.3393 396.415 14.638C396.415 14.8153 396.466 14.974 396.569 15.114C396.672 15.254 396.868 15.38 397.157 15.492C397.446 15.604 397.876 15.7253 398.445 15.856C399.061 15.9773 399.546 16.1407 399.901 16.346C400.256 16.5513 400.508 16.7893 400.657 17.06C400.806 17.3307 400.881 17.6433 400.881 17.998C400.881 18.39 400.769 18.7493 400.545 19.076C400.321 19.4027 399.985 19.664 399.537 19.86C399.089 20.0467 398.538 20.14 397.885 20.14ZM406.255 20C406.162 20 406.083 19.972 406.017 19.916C405.961 19.8507 405.933 19.7713 405.933 19.678V13.042C405.933 12.9487 405.961 12.874 406.017 12.818C406.083 12.7527 406.162 12.72 406.255 12.72H406.927C407.021 12.72 407.095 12.7527 407.151 12.818C407.217 12.874 407.249 12.9487 407.249 13.042V19.678C407.249 19.7713 407.217 19.8507 407.151 19.916C407.095 19.972 407.021 20 406.927 20H406.255ZM406.143 11.362C406.05 11.362 405.971 11.334 405.905 11.278C405.849 11.2127 405.821 11.1333 405.821 11.04V10.284C405.821 10.1907 405.849 10.1113 405.905 10.046C405.971 9.98067 406.05 9.948 406.143 9.948H407.025C407.119 9.948 407.198 9.98067 407.263 10.046C407.329 10.1113 407.361 10.1907 407.361 10.284V11.04C407.361 11.1333 407.329 11.2127 407.263 11.278C407.198 11.334 407.119 11.362 407.025 11.362H406.143ZM409.646 20C409.553 20 409.473 19.972 409.408 19.916C409.352 19.8507 409.324 19.7713 409.324 19.678V13.042C409.324 12.9487 409.352 12.874 409.408 12.818C409.473 12.7527 409.553 12.72 409.646 12.72H410.304C410.397 12.72 410.472 12.7527 410.528 12.818C410.593 12.874 410.626 12.9487 410.626 13.042V13.658C410.869 13.3407 411.172 13.084 411.536 12.888C411.909 12.6827 412.385 12.58 412.964 12.58C413.571 12.58 414.084 12.7153 414.504 12.986C414.933 13.2473 415.255 13.616 415.47 14.092C415.694 14.5587 415.806 15.1047 415.806 15.73V19.678C415.806 19.7713 415.773 19.8507 415.708 19.916C415.652 19.972 415.577 20 415.484 20H414.784C414.691 20 414.611 19.972 414.546 19.916C414.49 19.8507 414.462 19.7713 414.462 19.678V15.8C414.462 15.1467 414.303 14.638 413.986 14.274C413.669 13.9007 413.202 13.714 412.586 13.714C412.007 13.714 411.541 13.9007 411.186 14.274C410.841 14.638 410.668 15.1467 410.668 15.8V19.678C410.668 19.7713 410.635 19.8507 410.57 19.916C410.514 19.972 410.439 20 410.346 20H409.646ZM423.276 20.14C422.809 20.14 422.385 20.0467 422.002 19.86C421.619 19.6733 421.311 19.4213 421.078 19.104C420.845 18.7867 420.728 18.4273 420.728 18.026C420.728 17.382 420.989 16.8687 421.512 16.486C422.035 16.1033 422.716 15.8513 423.556 15.73L425.642 15.436V15.03C425.642 14.582 425.511 14.232 425.25 13.98C424.998 13.728 424.583 13.602 424.004 13.602C423.593 13.602 423.257 13.686 422.996 13.854C422.735 14.022 422.553 14.2367 422.45 14.498C422.394 14.638 422.296 14.708 422.156 14.708H421.526C421.423 14.708 421.344 14.68 421.288 14.624C421.241 14.5587 421.218 14.484 421.218 14.4C421.218 14.26 421.269 14.0873 421.372 13.882C421.484 13.6767 421.652 13.476 421.876 13.28C422.1 13.084 422.385 12.9207 422.73 12.79C423.085 12.65 423.514 12.58 424.018 12.58C424.578 12.58 425.049 12.6547 425.432 12.804C425.815 12.944 426.113 13.1353 426.328 13.378C426.552 13.6207 426.711 13.896 426.804 14.204C426.907 14.512 426.958 14.8247 426.958 15.142V19.678C426.958 19.7713 426.925 19.8507 426.86 19.916C426.804 19.972 426.729 20 426.636 20H425.992C425.889 20 425.81 19.972 425.754 19.916C425.698 19.8507 425.67 19.7713 425.67 19.678V19.076C425.549 19.244 425.385 19.412 425.18 19.58C424.975 19.7387 424.718 19.874 424.41 19.986C424.102 20.0887 423.724 20.14 423.276 20.14ZM423.57 19.09C423.953 19.09 424.303 19.0107 424.62 18.852C424.937 18.684 425.185 18.4273 425.362 18.082C425.549 17.7367 425.642 17.3027 425.642 16.78V16.388L424.018 16.626C423.355 16.7193 422.856 16.878 422.52 17.102C422.184 17.3167 422.016 17.592 422.016 17.928C422.016 18.1893 422.091 18.4087 422.24 18.586C422.399 18.754 422.595 18.88 422.828 18.964C423.071 19.048 423.318 19.09 423.57 19.09ZM433.293 22.66C433.219 22.66 433.153 22.632 433.097 22.576C433.041 22.52 433.013 22.4547 433.013 22.38C433.013 22.3427 433.018 22.3053 433.027 22.268C433.037 22.2307 433.055 22.184 433.083 22.128L434.161 19.566L431.487 13.252C431.441 13.14 431.417 13.0607 431.417 13.014C431.417 12.93 431.445 12.86 431.501 12.804C431.557 12.748 431.627 12.72 431.711 12.72H432.397C432.5 12.72 432.575 12.7433 432.621 12.79C432.668 12.8367 432.705 12.8927 432.733 12.958L434.861 18.054L437.045 12.958C437.073 12.8927 437.111 12.8367 437.157 12.79C437.213 12.7433 437.293 12.72 437.395 12.72H438.053C438.137 12.72 438.207 12.748 438.263 12.804C438.319 12.86 438.347 12.9253 438.347 13C438.347 13.0467 438.324 13.1307 438.277 13.252L434.301 22.422C434.273 22.4873 434.231 22.5433 434.175 22.59C434.129 22.6367 434.054 22.66 433.951 22.66H433.293ZM442.41 20.14C441.439 20.14 440.669 19.846 440.1 19.258C439.531 18.6607 439.218 17.8487 439.162 16.822C439.153 16.7007 439.148 16.5467 439.148 16.36C439.148 16.164 439.153 16.0053 439.162 15.884C439.199 15.2213 439.353 14.6427 439.624 14.148C439.895 13.644 440.263 13.2567 440.73 12.986C441.206 12.7153 441.761 12.58 442.396 12.58C443.105 12.58 443.698 12.7293 444.174 13.028C444.659 13.3267 445.028 13.7513 445.28 14.302C445.532 14.8527 445.658 15.4967 445.658 16.234V16.472C445.658 16.5747 445.625 16.654 445.56 16.71C445.504 16.766 445.429 16.794 445.336 16.794H440.492C440.492 16.8033 440.492 16.822 440.492 16.85C440.492 16.878 440.492 16.9013 440.492 16.92C440.511 17.3027 440.595 17.662 440.744 17.998C440.893 18.3247 441.108 18.5907 441.388 18.796C441.677 19.0013 442.013 19.104 442.396 19.104C442.732 19.104 443.012 19.0527 443.236 18.95C443.46 18.8473 443.642 18.7353 443.782 18.614C443.922 18.4833 444.015 18.3807 444.062 18.306C444.146 18.194 444.211 18.1287 444.258 18.11C444.305 18.082 444.379 18.068 444.482 18.068H445.168C445.252 18.068 445.322 18.096 445.378 18.152C445.443 18.1987 445.471 18.2687 445.462 18.362C445.453 18.502 445.378 18.6747 445.238 18.88C445.098 19.076 444.897 19.272 444.636 19.468C444.384 19.664 444.067 19.8273 443.684 19.958C443.311 20.0793 442.886 20.14 442.41 20.14ZM440.492 15.828H444.328V15.786C444.328 15.366 444.249 14.9927 444.09 14.666C443.941 14.3393 443.721 14.0827 443.432 13.896C443.143 13.7 442.797 13.602 442.396 13.602C441.995 13.602 441.649 13.7 441.36 13.896C441.08 14.0827 440.865 14.3393 440.716 14.666C440.567 14.9927 440.492 15.366 440.492 15.786V15.828ZM449.362 20.14C448.895 20.14 448.471 20.0467 448.088 19.86C447.705 19.6733 447.397 19.4213 447.164 19.104C446.931 18.7867 446.814 18.4273 446.814 18.026C446.814 17.382 447.075 16.8687 447.598 16.486C448.121 16.1033 448.802 15.8513 449.642 15.73L451.728 15.436V15.03C451.728 14.582 451.597 14.232 451.336 13.98C451.084 13.728 450.669 13.602 450.09 13.602C449.679 13.602 449.343 13.686 449.082 13.854C448.821 14.022 448.639 14.2367 448.536 14.498C448.48 14.638 448.382 14.708 448.242 14.708H447.612C447.509 14.708 447.43 14.68 447.374 14.624C447.327 14.5587 447.304 14.484 447.304 14.4C447.304 14.26 447.355 14.0873 447.458 13.882C447.57 13.6767 447.738 13.476 447.962 13.28C448.186 13.084 448.471 12.9207 448.816 12.79C449.171 12.65 449.6 12.58 450.104 12.58C450.664 12.58 451.135 12.6547 451.518 12.804C451.901 12.944 452.199 13.1353 452.414 13.378C452.638 13.6207 452.797 13.896 452.89 14.204C452.993 14.512 453.044 14.8247 453.044 15.142V19.678C453.044 19.7713 453.011 19.8507 452.946 19.916C452.89 19.972 452.815 20 452.722 20H452.078C451.975 20 451.896 19.972 451.84 19.916C451.784 19.8507 451.756 19.7713 451.756 19.678V19.076C451.635 19.244 451.471 19.412 451.266 19.58C451.061 19.7387 450.804 19.874 450.496 19.986C450.188 20.0887 449.81 20.14 449.362 20.14ZM449.656 19.09C450.039 19.09 450.389 19.0107 450.706 18.852C451.023 18.684 451.271 18.4273 451.448 18.082C451.635 17.7367 451.728 17.3027 451.728 16.78V16.388L450.104 16.626C449.441 16.7193 448.942 16.878 448.606 17.102C448.27 17.3167 448.102 17.592 448.102 17.928C448.102 18.1893 448.177 18.4087 448.326 18.586C448.485 18.754 448.681 18.88 448.914 18.964C449.157 19.048 449.404 19.09 449.656 19.09ZM455.378 20C455.285 20 455.206 19.972 455.14 19.916C455.084 19.8507 455.056 19.7713 455.056 19.678V13.056C455.056 12.9627 455.084 12.8833 455.14 12.818C455.206 12.7527 455.285 12.72 455.378 12.72H456.022C456.116 12.72 456.195 12.7527 456.26 12.818C456.326 12.8833 456.358 12.9627 456.358 13.056V13.672C456.545 13.3547 456.802 13.1167 457.128 12.958C457.455 12.7993 457.852 12.72 458.318 12.72H458.864C458.958 12.72 459.032 12.7527 459.088 12.818C459.154 12.874 459.186 12.9487 459.186 13.042V13.616C459.186 13.7093 459.154 13.784 459.088 13.84C459.032 13.896 458.958 13.924 458.864 13.924H458.024C457.52 13.924 457.124 14.0733 456.834 14.372C456.545 14.6613 456.4 15.058 456.4 15.562V19.678C456.4 19.7713 456.368 19.8507 456.302 19.916C456.237 19.972 456.158 20 456.064 20H455.378Z" fill="#262626"/>
<path d="M302.5 15.5H316.5" stroke="#262626" stroke-linecap="round"/>
<path d="M309.5 12C310.328 12 311 11.3284 311 10.5C311 9.67157 310.328 9 309.5 9C308.672 9 308 9.67157 308 10.5C308 11.3284 308.672 12 309.5 12Z" fill="#262626"/>
<path d="M309.5 11.5C310.052 11.5 310.5 11.0523 310.5 10.5C310.5 9.94772 310.052 9.5 309.5 9.5C308.948 9.5 308.5 9.94772 308.5 10.5C308.5 11.0523 308.948 11.5 309.5 11.5Z" stroke="#262626"/>
<path d="M309.5 22C310.328 22 311 21.3284 311 20.5C311 19.6716 310.328 19 309.5 19C308.672 19 308 19.6716 308 20.5C308 21.3284 308.672 22 309.5 22Z" fill="#262626"/>
<path d="M309.5 21.5C310.052 21.5 310.5 21.0523 310.5 20.5C310.5 19.9477 310.052 19.5 309.5 19.5C308.948 19.5 308.5 19.9477 308.5 20.5C308.5 21.0523 308.948 21.5 309.5 21.5Z" stroke="#262626"/>
<path d="M187.707 9L200 21.2929" stroke="#262626" stroke-linecap="round"/>
<path d="M200 8.70703L187.707 20.9999" stroke="#262626" stroke-linecap="round"/>
</g>
</g>
<defs>
<clipPath id="clip0_121_3499">
<rect width="460" height="30" fill="white"/>
</clipPath>
</defs>
</svg>
