<svg width="136" height="136" viewBox="0 0 136 136" fill="none" xmlns="http://www.w3.org/2000/svg">
<path d="M118.336 68C118.336 95.6142 95.9502 118 68.3359 118C40.7217 118 18.3359 95.6142 18.3359 68C18.3359 40.3858 40.7217 18 68.3359 18C95.9502 18 118.336 40.3858 118.336 68Z" fill="#033D58" fill-opacity="0.1"/>
<path d="M63.3262 28.1517C63.5168 27.4404 64.2479 27.0183 64.9592 27.2089L77.8382 30.6598C78.5495 30.8504 78.9716 31.5815 78.7811 32.2928L75.7916 43.4494C75.6011 44.1607 74.8699 44.5828 74.1586 44.3922L61.2796 40.9413C60.5683 40.7507 60.1462 40.0196 60.3368 39.3083L63.3262 28.1517Z" fill="white"/>
<path fill-rule="evenodd" clip-rule="evenodd" d="M65.0855 29.3133L62.4412 39.182L74.0323 42.2878L76.6767 32.4191L65.0855 29.3133ZM64.9592 27.2089C64.2479 27.0183 63.5168 27.4404 63.3262 28.1517L60.3368 39.3083C60.1462 40.0196 60.5683 40.7507 61.2796 40.9413L74.1586 44.3922C74.8699 44.5828 75.6011 44.1607 75.7916 43.4494L78.7811 32.2928C78.9716 31.5815 78.5495 30.8504 77.8382 30.6598L64.9592 27.2089Z" fill="#969696"/>
<path d="M39.1962 34.5604C39.0056 33.8491 39.4277 33.118 40.139 32.9274L53.018 29.4764C53.7293 29.2859 54.4604 29.708 54.651 30.4193L57.6404 41.5759C57.831 42.2872 57.4089 43.0183 56.6976 43.2089L43.8186 46.6598C43.1073 46.8504 42.3762 46.4283 42.1856 45.717L39.1962 34.5604Z" fill="white"/>
<path fill-rule="evenodd" clip-rule="evenodd" d="M41.3006 34.6867L43.9449 44.5554L55.536 41.4496L52.8917 31.5808L41.3006 34.6867ZM40.139 32.9274C39.4277 33.118 39.0056 33.8491 39.1962 34.5604L42.1856 45.717C42.3762 46.4283 43.1073 46.8504 43.8186 46.6598L56.6976 43.2089C57.4089 43.0183 57.831 42.2872 57.6404 41.5759L54.651 30.4193C54.4604 29.708 53.7293 29.2859 53.018 29.4764L40.139 32.9274Z" fill="#969696"/>
<path d="M99.5898 38.0681C99.5898 42.4864 96.008 46.0681 91.5898 46.0681C87.1715 46.0681 83.5898 42.4864 83.5898 38.0681C83.5898 33.6498 87.1715 30.0681 91.5898 30.0681C96.008 30.0681 99.5898 33.6498 99.5898 38.0681Z" fill="white"/>
<path fill-rule="evenodd" clip-rule="evenodd" d="M91.5898 44.0681C94.9035 44.0681 97.5898 41.3818 97.5898 38.0681C97.5898 34.7544 94.9035 32.0681 91.5898 32.0681C88.276 32.0681 85.5898 34.7544 85.5898 38.0681C85.5898 41.3818 88.276 44.0681 91.5898 44.0681ZM91.5898 46.0681C96.008 46.0681 99.5898 42.4864 99.5898 38.0681C99.5898 33.6498 96.008 30.0681 91.5898 30.0681C87.1715 30.0681 83.5898 33.6498 83.5898 38.0681C83.5898 42.4864 87.1715 46.0681 91.5898 46.0681Z" fill="#969696"/>
<path d="M34.9591 40.2928C35.1496 39.5815 35.8808 39.1594 36.592 39.35L49.4711 42.8009C50.1823 42.9915 50.6045 43.7226 50.4139 44.4339L47.4245 55.5905C47.2339 56.3018 46.5027 56.7239 45.7915 56.5333L32.9124 53.0824C32.2012 52.8918 31.7791 52.1607 31.9696 51.4494L34.9591 40.2928Z" fill="white"/>
<path fill-rule="evenodd" clip-rule="evenodd" d="M36.7184 41.4544L34.074 51.3231L45.6651 54.4289L48.3095 44.5602L36.7184 41.4544ZM36.592 39.35C35.8808 39.1594 35.1496 39.5815 34.9591 40.2928L31.9696 51.4494C31.7791 52.1607 32.2012 52.8918 32.9124 53.0824L45.7915 56.5333C46.5027 56.7239 47.2339 56.3018 47.4245 55.5905L50.4139 44.4339C50.6045 43.7226 50.1823 42.9915 49.4711 42.8009L36.592 39.35Z" fill="#969696"/>
<path d="M53.8566 42.9103C53.4884 42.2726 53.7069 41.4571 54.3446 41.0889L65.8916 34.4223C66.5293 34.0541 67.3448 34.2726 67.713 34.9103L78.142 52.9739C78.5102 53.6116 78.2917 54.4271 77.654 54.7953L66.107 61.4619C65.4692 61.8301 64.6538 61.6116 64.2856 60.9739L53.8566 42.9103Z" fill="white"/>
<path fill-rule="evenodd" clip-rule="evenodd" d="M55.922 42.4877L65.6843 59.3966L76.0766 53.3966L66.3143 36.4877L55.922 42.4877ZM54.3446 41.0889C53.7069 41.4571 53.4884 42.2726 53.8566 42.9103L64.2856 60.9739C64.6538 61.6116 65.4692 61.8301 66.107 61.4619L77.654 54.7953C78.2917 54.4271 78.5102 53.6116 78.142 52.9739L67.713 34.9103C67.3448 34.2726 66.5293 34.0541 65.8916 34.4223L54.3446 41.0889Z" fill="#969696"/>
<path d="M80.9715 38.1928C81.3397 37.5551 82.1551 37.3366 82.7928 37.7048L96.1239 45.4015C96.7617 45.7697 96.9802 46.5851 96.612 47.2228L90.8369 57.2256C90.4687 57.8633 89.6532 58.0818 89.0155 57.7136L75.6844 50.0169C75.0467 49.6487 74.8282 48.8333 75.1964 48.1955L80.9715 38.1928Z" fill="white"/>
<path fill-rule="evenodd" clip-rule="evenodd" d="M82.3702 39.7701L77.2618 48.6182L89.4382 55.6482L94.5466 46.8002L82.3702 39.7701ZM82.7928 37.7048C82.1551 37.3366 81.3397 37.5551 80.9715 38.1928L75.1964 48.1955C74.8282 48.8333 75.0467 49.6487 75.6844 50.0169L89.0155 57.7136C89.6532 58.0818 90.4687 57.8633 90.8369 57.2256L96.612 47.2228C96.9802 46.5851 96.7617 45.7697 96.1239 45.4015L82.7928 37.7048Z" fill="#969696"/>
<path d="M106.17 48.6445C106.17 53.0628 102.588 56.6445 98.1699 56.6445C93.7516 56.6445 90.1699 53.0628 90.1699 48.6445C90.1699 44.2263 93.7516 40.6445 98.1699 40.6445C102.588 40.6445 106.17 44.2263 106.17 48.6445Z" fill="white"/>
<path fill-rule="evenodd" clip-rule="evenodd" d="M98.1699 54.6445C101.484 54.6445 104.17 51.9582 104.17 48.6445C104.17 45.3308 101.484 42.6445 98.1699 42.6445C94.8562 42.6445 92.1699 45.3308 92.1699 48.6445C92.1699 51.9582 94.8562 54.6445 98.1699 54.6445ZM98.1699 56.6445C102.588 56.6445 106.17 53.0628 106.17 48.6445C106.17 44.2263 102.588 40.6445 98.1699 40.6445C93.7516 40.6445 90.1699 44.2263 90.1699 48.6445C90.1699 53.0628 93.7516 56.6445 98.1699 56.6445Z" fill="#969696"/>
<path d="M24 98.6338C24 103.052 20.4183 106.634 16 106.634C11.5817 106.634 8 103.052 8 98.6338C8 94.2155 11.5817 90.6338 16 90.6338C20.4183 90.6338 24 94.2155 24 98.6338Z" fill="white"/>
<path fill-rule="evenodd" clip-rule="evenodd" d="M16 104.634C19.3137 104.634 22 101.947 22 98.6338C22 95.3201 19.3137 92.6338 16 92.6338C12.6863 92.6338 10 95.3201 10 98.6338C10 101.947 12.6863 104.634 16 104.634ZM16 106.634C20.4183 106.634 24 103.052 24 98.6338C24 94.2155 20.4183 90.6338 16 90.6338C11.5817 90.6338 8 94.2155 8 98.6338C8 103.052 11.5817 106.634 16 106.634Z" fill="#969696"/>
<path d="M61.1895 46.0681C61.1895 50.4864 57.6078 54.0681 53.1895 54.0681C48.7712 54.0681 45.1895 50.4864 45.1895 46.0681C45.1895 41.6498 48.7712 38.0681 53.1895 38.0681C57.6078 38.0681 61.1895 41.6498 61.1895 46.0681Z" fill="#305D74"/>
<path d="M80.9473 47.0049C80.9473 51.4232 77.3656 55.0049 72.9473 55.0049C68.5291 55.0049 64.9473 51.4232 64.9473 47.0049C64.9473 42.5866 68.5291 39.0049 72.9473 39.0049C77.3656 39.0049 80.9473 42.5866 80.9473 47.0049Z" fill="white"/>
<path fill-rule="evenodd" clip-rule="evenodd" d="M72.9473 53.0049C76.2611 53.0049 78.9473 50.3186 78.9473 47.0049C78.9473 43.6912 76.2611 41.0049 72.9473 41.0049C69.6336 41.0049 66.9473 43.6912 66.9473 47.0049C66.9473 50.3186 69.6336 53.0049 72.9473 53.0049ZM72.9473 55.0049C77.3656 55.0049 80.9473 51.4232 80.9473 47.0049C80.9473 42.5866 77.3656 39.0049 72.9473 39.0049C68.5291 39.0049 64.9473 42.5866 64.9473 47.0049C64.9473 51.4232 68.5291 55.0049 72.9473 55.0049Z" fill="#969696"/>
<path d="M29.623 50.9754C29.623 50.239 30.22 49.6421 30.9564 49.6421H105.103C105.839 49.6421 106.436 50.239 106.436 50.9754V96.8338C106.436 97.5052 105.937 98.0719 105.271 98.1565L68.1975 102.865C68.0859 102.879 67.973 102.879 67.8615 102.865L30.7884 98.1565C30.1223 98.0719 29.623 97.5052 29.623 96.8338V50.9754Z" fill="white"/>
<path fill-rule="evenodd" clip-rule="evenodd" d="M31.623 51.6421V96.2464L68.0295 100.87L104.436 96.2464V51.6421H31.623ZM30.9564 49.6421C30.22 49.6421 29.623 50.239 29.623 50.9754V96.8338C29.623 97.5052 30.1223 98.0719 30.7884 98.1565L67.8615 102.865C67.973 102.879 68.0859 102.879 68.1975 102.865L105.271 98.1565C105.937 98.0719 106.436 97.5052 106.436 96.8338V50.9754C106.436 50.239 105.839 49.6421 105.103 49.6421H30.9564Z" fill="#969696"/>
<path d="M29.2263 50.2314C29.474 49.863 29.8889 49.6421 30.3328 49.6421H66.7388C67.7437 49.6421 68.3875 50.7117 67.9169 51.5997L59.4082 67.6577C59.2815 67.8968 59.0227 68.0356 58.7533 68.0089L20.9767 64.261C20.4749 64.2112 20.2079 63.644 20.4892 63.2256L29.2263 50.2314Z" fill="white"/>
<path fill-rule="evenodd" clip-rule="evenodd" d="M30.6879 51.6421L23.3933 62.4909L58.0601 65.9303L65.631 51.6421H30.6879ZM30.3328 49.6421C29.8889 49.6421 29.474 49.863 29.2263 50.2314L20.4892 63.2256C20.2079 63.644 20.4749 64.2112 20.9767 64.261L58.7533 68.0089C59.0227 68.0357 59.2815 67.8968 59.4082 67.6577L67.9169 51.5997C68.3874 50.7117 67.7437 49.6421 66.7388 49.6421H30.3328Z" fill="#969696"/>
<path d="M106.773 50.2314C106.526 49.863 106.111 49.6421 105.667 49.6421H69.261C68.256 49.6421 67.6123 50.7117 68.0828 51.5997L76.5915 67.6577C76.7183 67.8968 76.9771 68.0356 77.2464 68.0089L115.023 64.261C115.525 64.2112 115.792 63.644 115.511 63.2256L106.773 50.2314Z" fill="white"/>
<path fill-rule="evenodd" clip-rule="evenodd" d="M105.312 51.6421L112.606 62.4909L77.9397 65.9303L70.3687 51.6421H105.312ZM105.667 49.6421C106.111 49.6421 106.526 49.863 106.773 50.2314L115.511 63.2256C115.792 63.644 115.525 64.2112 115.023 64.261L77.2464 68.0089C76.9771 68.0357 76.7183 67.8968 76.5915 67.6577L68.0828 51.5997C67.6123 50.7117 68.256 49.6421 69.261 49.6421H105.667Z" fill="#969696"/>
<path fill-rule="evenodd" clip-rule="evenodd" d="M67.0293 102.383V51.6545H69.0293V102.383H67.0293Z" fill="#969696"/>
<path fill-rule="evenodd" clip-rule="evenodd" d="M34.0192 90.1667C34.0598 89.8935 34.3142 89.7051 34.5873 89.7457L43.2627 91.0361C43.5358 91.0767 43.7243 91.3311 43.6837 91.6042C43.643 91.8774 43.3887 92.0659 43.1156 92.0252L34.4402 90.7348C34.1671 90.6942 33.9786 90.4398 34.0192 90.1667Z" fill="#969696"/>
<path fill-rule="evenodd" clip-rule="evenodd" d="M33.5641 93.2179C33.6047 92.9448 33.859 92.7563 34.1322 92.797L49.705 95.1134C49.9781 95.154 50.1666 95.4083 50.126 95.6815C50.0854 95.9546 49.831 96.1431 49.5579 96.1025L33.9851 93.7861C33.7119 93.7454 33.5234 93.4911 33.5641 93.2179Z" fill="#969696"/>
<path d="M100.674 90.0028C100.674 89.2664 101.271 88.6694 102.007 88.6694H115.34C116.077 88.6694 116.674 89.2664 116.674 90.0028V101.553C116.674 102.289 116.077 102.886 115.34 102.886H102.007C101.271 102.886 100.674 102.289 100.674 101.553V90.0028Z" fill="white"/>
<path fill-rule="evenodd" clip-rule="evenodd" d="M102.674 90.6694V100.886H114.674V90.6694H102.674ZM102.007 88.6694C101.271 88.6694 100.674 89.2664 100.674 90.0028V101.553C100.674 102.289 101.271 102.886 102.007 102.886H115.34C116.077 102.886 116.674 102.289 116.674 101.553V90.0028C116.674 89.2664 116.077 88.6694 115.34 88.6694H102.007Z" fill="#969696"/>
<path d="M105.293 102.384C105.293 106.802 101.711 110.384 97.293 110.384C92.8748 110.384 89.293 106.802 89.293 102.384C89.293 97.9655 92.8748 94.3838 97.293 94.3838C101.711 94.3838 105.293 97.9655 105.293 102.384Z" fill="white"/>
<path fill-rule="evenodd" clip-rule="evenodd" d="M97.293 108.384C100.607 108.384 103.293 105.697 103.293 102.384C103.293 99.0701 100.607 96.3838 97.293 96.3838C93.9793 96.3838 91.293 99.0701 91.293 102.384C91.293 105.697 93.9793 108.384 97.293 108.384ZM97.293 110.384C101.711 110.384 105.293 106.802 105.293 102.384C105.293 97.9655 101.711 94.3838 97.293 94.3838C92.8748 94.3838 89.293 97.9655 89.293 102.384C89.293 106.802 92.8748 110.384 97.293 110.384Z" fill="#969696"/>
<path d="M128 112.669C128 117.088 124.418 120.669 120 120.669C115.582 120.669 112 117.088 112 112.669C112 108.251 115.582 104.669 120 104.669C124.418 104.669 128 108.251 128 112.669Z" fill="white"/>
<path fill-rule="evenodd" clip-rule="evenodd" d="M120 118.669C123.314 118.669 126 115.983 126 112.669C126 109.356 123.314 106.669 120 106.669C116.686 106.669 114 109.356 114 112.669C114 115.983 116.686 118.669 120 118.669ZM120 120.669C124.418 120.669 128 117.088 128 112.669C128 108.251 124.418 104.669 120 104.669C115.582 104.669 112 108.251 112 112.669C112 117.088 115.582 120.669 120 120.669Z" fill="#969696"/>
<path d="M83.4844 115.677C83.4844 120.095 79.9027 123.677 75.4844 123.677C71.0661 123.677 67.4844 120.095 67.4844 115.677C67.4844 111.258 71.0661 107.677 75.4844 107.677C79.9027 107.677 83.4844 111.258 83.4844 115.677Z" fill="white"/>
<path fill-rule="evenodd" clip-rule="evenodd" d="M75.4844 121.677C78.7981 121.677 81.4844 118.99 81.4844 115.677C81.4844 112.363 78.7981 109.677 75.4844 109.677C72.1707 109.677 69.4844 112.363 69.4844 115.677C69.4844 118.99 72.1707 121.677 75.4844 121.677ZM75.4844 123.677C79.9027 123.677 83.4844 120.095 83.4844 115.677C83.4844 111.258 79.9027 107.677 75.4844 107.677C71.0661 107.677 67.4844 111.258 67.4844 115.677C67.4844 120.095 71.0661 123.677 75.4844 123.677Z" fill="#969696"/>
<path d="M33.7383 106.634C33.7383 111.052 30.1565 114.634 25.7383 114.634C21.32 114.634 17.7383 111.052 17.7383 106.634C17.7383 102.216 21.32 98.6338 25.7383 98.6338C30.1565 98.6338 33.7383 102.216 33.7383 106.634Z" fill="white"/>
<path fill-rule="evenodd" clip-rule="evenodd" d="M25.7383 112.634C29.052 112.634 31.7383 109.947 31.7383 106.634C31.7383 103.32 29.052 100.634 25.7383 100.634C22.4246 100.634 19.7383 103.32 19.7383 106.634C19.7383 109.947 22.4246 112.634 25.7383 112.634ZM25.7383 114.634C30.1565 114.634 33.7383 111.052 33.7383 106.634C33.7383 102.216 30.1565 98.6338 25.7383 98.6338C21.32 98.6338 17.7383 102.216 17.7383 106.634C17.7383 111.052 21.32 114.634 25.7383 114.634Z" fill="#969696"/>
</svg>
