<!--
 Copyright 2023-2025 Solace Systems. All rights reserved.

 Licensed under the Apache License, Version 2.0 (the "License");
 you may not use this file except in compliance with the License.
 You may obtain a copy of the License at

     http://www.apache.org/licenses/LICENSE-2.0

 Unless required by applicable law or agreed to in writing, software
 distributed under the License is distributed on an "AS IS" BASIS,
 WITHOUT WARRANTIES OR CONDITIONS OF ANY KIND, either express or implied.
 See the License for the specific language governing permissions and
 limitations under the License.
-->
<svg width="88" height="89" viewBox="0 0 88 89" fill="none" xmlns="http://www.w3.org/2000/svg">
<path d="M81.7607 41.863H76.3499C75.8006 41.863 75.3541 42.3061 75.35 42.8554L75.0781 78.5482L82.7382 43.074C82.8727 42.4511 82.398 41.863 81.7607 41.863Z" fill="white"/>
<path fill-rule="evenodd" clip-rule="evenodd" d="M74.35 42.8477C74.3584 41.7491 75.2513 40.863 76.3499 40.863H81.7607C83.0353 40.863 83.9847 42.0393 83.7157 43.2851L76.0556 78.7592L74.0781 78.5406L74.35 42.8477ZM81.7607 42.863H76.3499L76.1521 68.8367L81.7607 42.863Z" fill="#969696"/>
<path d="M5 31.7178C5 30.6133 5.89543 29.7178 7 29.7178H25.0468C25.7176 29.7178 26.3438 30.0541 26.7142 30.6134L29.9165 35.448C30.1017 35.7276 30.4148 35.8958 30.7502 35.8958H74.1225C75.2271 35.8958 76.1225 36.7912 76.1225 37.8958V78.2587C76.1225 79.3632 75.2271 80.2587 74.1225 80.2587H7C5.89543 80.2587 5 79.3632 5 78.2587V31.7178Z" fill="white"/>
<path fill-rule="evenodd" clip-rule="evenodd" d="M74.1225 78.2587V37.8958H30.7502C29.744 37.8958 28.8048 37.3913 28.2491 36.5524L25.0468 31.7178H7V78.2587H74.1225ZM7 29.7178C5.89543 29.7178 5 30.6133 5 31.7178V78.2587C5 79.3632 5.89543 80.2587 7 80.2587H74.1225C75.2271 80.2587 76.1225 79.3632 76.1225 78.2587V37.8958C76.1225 36.7912 75.2271 35.8958 74.1225 35.8958H30.7502C30.4148 35.8958 30.1017 35.7276 29.9165 35.448L26.7142 30.6134C26.3438 30.0541 25.7176 29.7178 25.0468 29.7178H7Z" fill="#969696"/>
<path d="M8.21484 33.8278C8.21484 33.2755 8.66255 32.8278 9.21484 32.8278H24.1494C24.7017 32.8278 25.1494 33.2755 25.1494 33.8278V36.1551C25.1494 36.7074 24.7017 37.1551 24.1494 37.1551H9.21484C8.66255 37.1551 8.21484 36.7074 8.21484 36.1551V33.8278Z" fill="white"/>
<path fill-rule="evenodd" clip-rule="evenodd" d="M24.1494 33.8278H9.21484V36.1551H24.1494V33.8278ZM9.21484 32.8278C8.66255 32.8278 8.21484 33.2755 8.21484 33.8278V36.1551C8.21484 36.7074 8.66255 37.1551 9.21484 37.1551H24.1494C24.7017 37.1551 25.1494 36.7074 25.1494 36.1551V33.8278C25.1494 33.2755 24.7017 32.8278 24.1494 32.8278H9.21484Z" fill="#969696"/>
<path d="M24.4293 47.4296C24.8226 47.022 25.4756 47.022 25.8688 47.4296L27.8421 49.4753C28.0872 49.7295 28.4483 49.8355 28.7919 49.7542L31.5579 49.1001C32.1091 48.9698 32.6585 49.3228 32.7689 49.8783L33.3229 52.6661C33.3918 53.0125 33.6382 53.2969 33.9712 53.4143L36.6518 54.3594C37.186 54.5478 37.4572 55.1418 37.2497 55.6688L36.2087 58.3136C36.0793 58.6422 36.1329 59.0146 36.3495 59.2935L38.0936 61.5378C38.4411 61.985 38.3482 62.6314 37.8887 62.9626L35.583 64.6247C35.2966 64.8312 35.1402 65.1734 35.1718 65.5252L35.4256 68.3561C35.4762 68.9202 35.0485 69.4137 34.4829 69.444L31.6447 69.5956C31.2921 69.6145 30.9755 69.8179 30.8119 70.1308L29.4949 72.6496C29.2324 73.1515 28.6059 73.3355 28.1137 73.0551L25.644 71.6483C25.3372 71.4735 24.9609 71.4735 24.6541 71.6483L22.1844 73.0551C21.6922 73.3355 21.0657 73.1515 20.8032 72.6496L19.4862 70.1308C19.3226 69.8179 19.0061 69.6145 18.6534 69.5956L15.8152 69.444C15.2496 69.4137 14.822 68.9202 14.8725 68.3561L15.1263 65.5252C15.1579 65.1734 15.0016 64.8312 14.7151 64.6247L12.4094 62.9626C11.9499 62.6314 11.857 61.985 12.2046 61.5378L13.9486 59.2935C14.1653 59.0146 14.2188 58.6422 14.0895 58.3136L13.0484 55.6688C12.8409 55.1418 13.1122 54.5478 13.6464 54.3594L16.3269 53.4143C16.6599 53.2969 16.9064 53.0125 16.9752 52.6661L17.5292 49.8783C17.6396 49.3228 18.189 48.9698 18.7402 49.1001L21.5062 49.7542C21.8499 49.8355 22.2109 49.7295 22.4561 49.4753L24.4293 47.4296Z" fill="white"/>
<path fill-rule="evenodd" clip-rule="evenodd" d="M25.1491 49.5643L23.8955 50.8638C23.16 51.6263 22.0769 51.9443 21.0459 51.7005L19.2888 51.285L18.9368 53.056C18.7303 54.0951 17.9911 54.9482 16.992 55.3005L15.2891 55.9009L15.9505 57.581C16.3385 58.5668 16.1779 59.6841 15.5278 60.5207L14.4199 61.9464L15.8846 63.0022C16.744 63.6217 17.213 64.6486 17.1184 65.7038L16.9571 67.5021L18.7601 67.5985C19.818 67.655 20.7677 68.2653 21.2586 69.2041L22.0952 70.8042L23.6641 69.9105C24.5846 69.3861 25.7135 69.3861 26.634 69.9105L28.2029 70.8042L29.0395 69.2041C29.5304 68.2653 30.4801 67.655 31.538 67.5985L33.341 67.5021L33.1798 65.7037C33.0852 64.6486 33.5541 63.6217 34.4135 63.0022L35.8782 61.9464L34.7703 60.5207C34.1203 59.6841 33.9596 58.5668 34.3476 57.581L35.009 55.9009L33.3062 55.3005C32.307 54.9482 31.5678 54.0951 31.3613 53.056L31.0093 51.285L29.2522 51.7005C28.2212 51.9444 27.1381 51.6263 26.4026 50.8638L25.1491 49.5643ZM25.8688 47.4296C25.4756 47.022 24.8226 47.022 24.4293 47.4296L22.4561 49.4753C22.2109 49.7295 21.8499 49.8355 21.5062 49.7542L18.7402 49.1001C18.189 48.9698 17.6396 49.3228 17.5292 49.8783L16.9752 52.6661C16.9064 53.0125 16.6599 53.2969 16.3269 53.4143L13.6464 54.3594C13.1122 54.5478 12.8409 55.1418 13.0484 55.6688L14.0895 58.3136C14.2188 58.6422 14.1653 59.0146 13.9486 59.2935L12.2046 61.5378C11.857 61.985 11.9499 62.6314 12.4094 62.9626L14.7151 64.6247C15.0016 64.8312 15.1579 65.1734 15.1263 65.5252L14.8725 68.3561C14.822 68.9202 15.2496 69.4137 15.8152 69.444L18.6534 69.5956C19.0061 69.6145 19.3226 69.8179 19.4862 70.1308L20.8032 72.6496C21.0657 73.1515 21.6922 73.3355 22.1844 73.0551L24.6541 71.6483C24.9609 71.4735 25.3372 71.4735 25.644 71.6483L28.1137 73.0551C28.6059 73.3355 29.2324 73.1515 29.4949 72.6496L30.8119 70.1308C30.9755 69.8179 31.2921 69.6145 31.6447 69.5956L34.4829 69.444C35.0485 69.4137 35.4762 68.9202 35.4256 68.3561L35.1718 65.5252C35.1402 65.1734 35.2966 64.8312 35.583 64.6247L37.8887 62.9626C38.3482 62.6314 38.4411 61.985 38.0936 61.5378L36.3495 59.2935C36.1329 59.0146 36.0793 58.6422 36.2087 58.3136L37.2497 55.6688C37.4572 55.1418 37.186 54.5478 36.6518 54.3594L33.9712 53.4143C33.6382 53.2969 33.3918 53.0125 33.3229 52.6661L32.7689 49.8783C32.6585 49.3228 32.1091 48.9698 31.5579 49.1001L28.7919 49.7542C28.4483 49.8355 28.0872 49.7295 27.8421 49.4753L25.8688 47.4296Z" fill="#969696"/>
<path fill-rule="evenodd" clip-rule="evenodd" d="M31.2596 56.0093C31.6501 56.3998 31.6501 57.033 31.2596 57.4235L23.8846 64.7985C23.494 65.189 22.8609 65.189 22.4703 64.7985L19.037 61.3653C18.6465 60.9747 18.6465 60.3416 19.037 59.951C19.4276 59.5605 20.0607 59.5605 20.4512 59.951L23.1774 62.6772L29.8454 56.0093C30.2359 55.6188 30.8691 55.6188 31.2596 56.0093Z" fill="#4D7689"/>
<path fill-rule="evenodd" clip-rule="evenodd" d="M68.4257 21.0347C68.0113 22.5815 67.2115 23.9227 66.1565 24.9837L61.5644 30.8351C60.8908 31.6934 60.5971 32.7897 60.7513 33.8698L61.6422 40.1106C61.7435 40.8208 61.0863 41.4035 60.3934 41.2179L48.0231 37.9033C47.3302 37.7176 47.0524 36.8843 47.4953 36.32L51.3865 31.3616C52.0601 30.5032 52.3539 29.407 52.1997 28.3268L51.1476 20.9568C50.7659 19.5121 50.7444 17.9527 51.1584 16.4079C52.4296 11.6636 57.3255 8.8534 62.0938 10.131C66.862 11.4087 69.6969 16.2904 68.4257 21.0347Z" fill="white"/>
<path fill-rule="evenodd" clip-rule="evenodd" d="M64.6554 23.6567L64.7383 23.5735C65.5539 22.7532 66.1723 21.7173 66.4939 20.5171C67.4768 16.8489 65.2867 13.0571 61.5762 12.0629C57.8656 11.0687 54.0731 13.2574 53.0902 16.9256C52.769 18.1243 52.7861 19.3289 53.0812 20.4459L53.111 20.5587L54.1796 28.0442C54.4109 29.6644 53.9703 31.3088 52.9599 32.5963L50.0036 36.3634L59.4482 38.8941L58.7714 34.1524C58.5401 32.5322 58.9807 30.8878 59.9911 29.6003L64.6554 23.6567ZM66.1565 24.9837L61.5644 30.8351C60.8908 31.6934 60.5971 32.7896 60.7513 33.8698L61.6422 40.1106C61.7435 40.8208 61.0863 41.4035 60.3934 41.2179L48.0231 37.9033C47.3302 37.7176 47.0524 36.8843 47.4953 36.32L51.3865 31.3616C52.0601 30.5032 52.3539 29.407 52.1997 28.3268L51.1476 20.9568C50.7659 19.5121 50.7444 17.9527 51.1584 16.4079C52.4296 11.6636 57.3255 8.8534 62.0938 10.131C66.862 11.4087 69.6969 16.2904 68.4257 21.0347C68.0113 22.5815 67.2115 23.9227 66.1565 24.9837Z" fill="#969696"/>
<path d="M39.3955 41.6266C39.5385 41.0931 40.0868 40.7766 40.6203 40.9195L65.2975 47.5317C65.8309 47.6747 66.1475 48.223 66.0046 48.7565L64.6922 53.6542C64.5493 54.1877 64.0009 54.5043 63.4675 54.3613L38.7903 47.7491C38.2568 47.6062 37.9402 47.0578 38.0832 46.5244L39.3955 41.6266Z" fill="white"/>
<path fill-rule="evenodd" clip-rule="evenodd" d="M41.0686 43.1102L40.2739 46.0761L63.0192 52.1707L63.8139 49.2048L41.0686 43.1102ZM40.6203 40.9195C40.0868 40.7766 39.5385 41.0931 39.3955 41.6266L38.0832 46.5244C37.9402 47.0578 38.2568 47.6062 38.7903 47.7491L63.4675 54.3613C64.0009 54.5043 64.5493 54.1877 64.6922 53.6542L66.0046 48.7565C66.1475 48.223 65.8309 47.6747 65.2975 47.5317L40.6203 40.9195Z" fill="#969696"/>
<path d="M37.4647 35.7839C37.8935 34.1835 39.5386 33.2338 41.139 33.6626L68.474 40.987C70.0744 41.4158 71.0242 43.0608 70.5954 44.6612L68.8857 51.0419C68.7427 51.5754 68.1944 51.892 67.6609 51.7491L36.4621 43.3894C35.9287 43.2464 35.6121 42.6981 35.755 42.1646L37.4647 35.7839Z" fill="white"/>
<path fill-rule="evenodd" clip-rule="evenodd" d="M67.9564 42.9189L40.6213 35.5944C40.0879 35.4515 39.5395 35.7681 39.3966 36.3016L37.9457 41.7163L67.2126 49.5584L68.6635 44.1436C68.8064 43.6101 68.4899 43.0618 67.9564 42.9189ZM41.139 33.6626C39.5386 33.2338 37.8935 34.1835 37.4647 35.7839L35.755 42.1646C35.6121 42.6981 35.9287 43.2464 36.4621 43.3894L67.6609 51.7491C68.1944 51.892 68.7427 51.5754 68.8857 51.0419L70.5954 44.6612C71.0242 43.0608 70.0744 41.4158 68.474 40.987L41.139 33.6626Z" fill="#969696"/>
<path fill-rule="evenodd" clip-rule="evenodd" d="M44.6929 40.1047C44.7644 39.838 45.0386 39.6797 45.3053 39.7512L61.8219 44.1768C62.0886 44.2483 62.2469 44.5224 62.1754 44.7892C62.1039 45.0559 61.8298 45.2142 61.563 45.1427L45.0465 40.7171C44.7798 40.6456 44.6215 40.3715 44.6929 40.1047Z" fill="#969696"/>
</svg>
