<!--
 Copyright 2023-2025 Solace Systems. All rights reserved.

 Licensed under the Apache License, Version 2.0 (the "License");
 you may not use this file except in compliance with the License.
 You may obtain a copy of the License at

     http://www.apache.org/licenses/LICENSE-2.0

 Unless required by applicable law or agreed to in writing, software
 distributed under the License is distributed on an "AS IS" BASIS,
 WITHOUT WARRANTIES OR CONDITIONS OF ANY KIND, either express or implied.
 See the License for the specific language governing permissions and
 limitations under the License.
-->
<svg width="136" height="136" viewBox="0 0 136 136" fill="none" xmlns="http://www.w3.org/2000/svg">
<path d="M117.054 62.084C117.054 91.9537 92.8404 116.168 62.9707 116.168C33.1009 116.168 8.88672 91.9537 8.88672 62.084C8.88672 32.2143 33.1009 8 62.9707 8C92.8404 8 117.054 32.2143 117.054 62.084Z" fill="#033D58" fill-opacity="0.1"/>
<path d="M30.7207 79.7905V120.594C30.7207 121.699 31.6161 122.594 32.7207 122.594H126C127.105 122.594 128 121.699 128 120.594V79.7905C128 65.9834 116.807 54.7905 103 54.7905H55.7207C41.9136 54.7905 30.7207 65.9834 30.7207 79.7905Z" fill="white"/>
<path fill-rule="evenodd" clip-rule="evenodd" d="M32.7207 79.7905V120.594H126V79.7905C126 67.088 115.703 56.7905 103 56.7905H55.7207C43.0181 56.7905 32.7207 67.088 32.7207 79.7905ZM30.7207 120.594V79.7905C30.7207 65.9834 41.9136 54.7905 55.7207 54.7905H103C116.807 54.7905 128 65.9834 128 79.7905V120.594C128 121.699 127.105 122.594 126 122.594H32.7207C31.6161 122.594 30.7207 121.699 30.7207 120.594Z" fill="#969696"/>
<path fill-rule="evenodd" clip-rule="evenodd" d="M95.1758 113.645C95.1758 113.368 95.3996 113.145 95.6758 113.145H127.4C127.676 113.145 127.9 113.368 127.9 113.645C127.9 113.921 127.676 114.145 127.4 114.145H95.6758C95.3996 114.145 95.1758 113.921 95.1758 113.645Z" fill="#969696"/>
<path fill-rule="evenodd" clip-rule="evenodd" d="M95.1758 109.1C95.1758 108.824 95.3996 108.6 95.6758 108.6H127.4C127.676 108.6 127.9 108.824 127.9 109.1C127.9 109.376 127.676 109.6 127.4 109.6H95.6758C95.3996 109.6 95.1758 109.376 95.1758 109.1Z" fill="#969696"/>
<path d="M30.7207 77.3137V120.594C30.7207 121.699 31.6161 122.594 32.7207 122.594H73.7669C74.8715 122.594 75.7669 121.699 75.7669 120.594V77.3137C75.7669 64.8745 65.683 54.7905 53.2438 54.7905C40.8046 54.7905 30.7207 64.8745 30.7207 77.3137Z" fill="white"/>
<path fill-rule="evenodd" clip-rule="evenodd" d="M32.7207 77.3137V120.594H73.7669V77.3137C73.7669 65.979 64.5784 56.7905 53.2438 56.7905C41.9092 56.7905 32.7207 65.979 32.7207 77.3137ZM30.7207 120.594V77.3137C30.7207 64.8745 40.8046 54.7905 53.2438 54.7905C65.683 54.7905 75.7669 64.8745 75.7669 77.3137V120.594C75.7669 121.699 74.8715 122.594 73.7669 122.594H32.7207C31.6161 122.594 30.7207 121.699 30.7207 120.594Z" fill="#969696"/>
<path d="M73.7402 113.646C74.8448 113.646 75.7402 114.541 75.7402 115.646V120.589C75.7402 121.694 74.8448 122.589 73.7402 122.589H39.3498H18.5882C17.765 122.589 17.0977 123.257 17.0977 124.08C17.0977 124.903 16.4303 125.57 15.6071 125.57H10C8.89543 125.57 8 124.675 8 123.57V115.646C8 114.541 8.89543 113.646 10 113.646H73.7402Z" fill="white"/>
<path fill-rule="evenodd" clip-rule="evenodd" d="M73.7402 120.589V115.646H10V123.57H15.1345C15.3811 121.884 16.8335 120.589 18.5882 120.589H73.7402ZM75.7402 115.646C75.7402 114.541 74.8448 113.646 73.7402 113.646H10C8.89543 113.646 8 114.541 8 115.646V123.57C8 124.675 8.89543 125.57 10 125.57H15.6071C16.4303 125.57 17.0977 124.903 17.0977 124.08C17.0977 123.257 17.765 122.589 18.5882 122.589H73.7402C74.8448 122.589 75.7402 121.694 75.7402 120.589V115.646Z" fill="#969696"/>
<path d="M108.1 84.3001V71.2637C108.1 70.7114 107.652 70.2637 107.1 70.2637H96.1992V84.3001C96.1992 85.1245 97.1408 85.5948 97.8 85.0995L101.548 82.2822C101.904 82.0148 102.394 82.0148 102.75 82.2822L106.499 85.0995C107.158 85.5948 108.1 85.1245 108.1 84.3001Z" fill="white"/>
<path fill-rule="evenodd" clip-rule="evenodd" d="M79.1348 70.2637C79.1348 69.7114 79.5825 69.2637 80.1348 69.2637H107.099C108.203 69.2637 109.099 70.1591 109.099 71.2637V84.3001C109.099 85.949 107.215 86.8896 105.897 85.8989L102.148 83.0817L98.3998 85.8989C97.0816 86.8895 95.1983 85.949 95.1983 84.3001V71.2637H80.1348C79.5825 71.2637 79.1348 70.816 79.1348 70.2637ZM97.1983 71.2637V84.3001L100.947 81.4828C101.658 80.948 102.638 80.9479 103.35 81.4828L107.099 84.3001V71.2637H97.1983Z" fill="#969696"/>
<path d="M50.7402 34.9205V25.8671L53.9909 25.0522L58.4266 32.1462L52.2474 35.7824C51.5808 36.1747 50.7402 35.694 50.7402 34.9205Z" fill="white"/>
<path fill-rule="evenodd" clip-rule="evenodd" d="M54.4532 23.9058L49.7402 25.0872V34.9209C49.7402 36.4679 51.4213 37.4291 52.7545 36.6446L59.819 32.4874L54.4532 23.9058ZM53.5286 26.1994L57.034 31.8057L51.7402 34.9209V26.6477L53.5286 26.1994Z" fill="#969696"/>
<path d="M61.5984 41.3185L82.998 12.3577C83.526 11.6432 82.9295 10.6463 82.0502 10.7738L40.5742 16.7894C39.6797 16.9191 39.4026 18.0748 40.141 18.596L49.9535 25.5224C50.0612 25.5985 50.1529 25.6951 50.2231 25.8067L59.9479 41.2569C60.3229 41.8528 61.18 41.8848 61.5984 41.3185Z" fill="white"/>
<path fill-rule="evenodd" clip-rule="evenodd" d="M51.9157 24.7413C51.705 24.4065 51.4301 24.1166 51.1068 23.8885L43.3437 18.4086L79.9649 13.0972L60.8603 38.952L51.9157 24.7413ZM82.998 12.3577L61.5984 41.3185C61.18 41.8848 60.3229 41.8528 59.9479 41.2569L50.2231 25.8067C50.1529 25.6951 50.0612 25.5985 49.9535 25.5224L40.141 18.596C39.4026 18.0748 39.6797 16.9191 40.5742 16.7894L82.0502 10.7738C82.9295 10.6463 83.526 11.6432 82.998 12.3577Z" fill="#969696"/>
<path fill-rule="evenodd" clip-rule="evenodd" d="M81.32 11.2173L50.3574 24.1293L51.1272 25.9752L82.0898 13.0632L81.32 11.2173Z" fill="#969696"/>
<path fill-rule="evenodd" clip-rule="evenodd" d="M45.7441 36.7121C46.0787 36.5764 46.4048 36.4513 46.7212 36.3374L47.06 37.2783C46.7569 37.3874 46.4433 37.5076 46.12 37.6388C45.8641 37.7426 45.5725 37.6193 45.4687 37.3634C45.3649 37.1075 45.4882 36.816 45.7441 36.7121ZM43.5467 38.2517C43.6721 38.4977 43.5743 38.7988 43.3282 38.9242C42.7407 39.2235 42.1361 39.5483 41.5183 39.8971C41.2778 40.0329 40.9728 39.948 40.8371 39.7075C40.7013 39.4671 40.7862 39.1621 41.0267 39.0263C41.6563 38.6708 42.2734 38.3393 42.8742 38.0332C43.1202 37.9078 43.4213 38.0056 43.5467 38.2517ZM39.0278 40.7975C39.1765 41.0302 39.1083 41.3393 38.8756 41.488C38.3077 41.8508 37.734 42.2306 37.1573 42.6265C36.9297 42.7828 36.6184 42.7249 36.4621 42.4973C36.3058 42.2696 36.3637 41.9584 36.5914 41.8021C37.1771 41.4 37.76 41.0141 38.3373 40.6453C38.57 40.4966 38.8792 40.5648 39.0278 40.7975ZM34.7528 43.7321C34.9198 43.9521 34.8769 44.2657 34.6569 44.4327C34.1152 44.8441 33.5742 45.2682 33.0362 45.7045C32.8217 45.8784 32.5068 45.8455 32.3329 45.631C32.159 45.4165 32.1919 45.1016 32.4064 44.9277C32.9528 44.4847 33.5021 44.0539 34.0522 43.6363C34.2722 43.4693 34.5858 43.5122 34.7528 43.7321ZM30.7225 47.0033C30.9068 47.2089 30.8895 47.525 30.6839 47.7094C30.1745 48.1659 29.6711 48.6327 29.1756 49.109C28.9766 49.3004 28.6601 49.2942 28.4687 49.0951C28.2773 48.896 28.2835 48.5795 28.4826 48.3881C28.9867 47.9035 29.4987 47.4288 30.0164 46.9647C30.222 46.7804 30.5381 46.7977 30.7225 47.0033ZM26.9862 50.6011C27.1886 50.789 27.2003 51.1054 27.0124 51.3077C26.5451 51.811 26.0887 52.3226 25.6453 52.8419C25.466 53.0519 25.1504 53.0768 24.9404 52.8975C24.7304 52.7182 24.7055 52.4026 24.8848 52.1926C25.3376 51.6623 25.8032 51.1402 26.2796 50.6273C26.4675 50.4249 26.7839 50.4132 26.9862 50.6011ZM23.6246 54.5485C23.8467 54.7127 23.8937 55.0257 23.7296 55.2478C23.3209 55.8009 22.9289 56.3607 22.5557 56.9265C22.4037 57.157 22.0936 57.2207 21.863 57.0686C21.6325 56.9166 21.5689 56.6065 21.7209 56.376C22.1044 55.7945 22.5066 55.2201 22.9253 54.6535C23.0895 54.4314 23.4025 54.3844 23.6246 54.5485ZM20.7777 58.8848C21.0213 59.0148 21.1134 59.3177 20.9834 59.5613C20.6602 60.1669 20.3609 60.7776 20.0877 61.3925C19.9756 61.6449 19.6801 61.7586 19.4278 61.6464C19.1754 61.5343 19.0617 61.2388 19.1739 60.9865C19.4573 60.3485 19.7673 59.7162 20.1012 59.0905C20.2312 58.8469 20.534 58.7548 20.7777 58.8848ZM18.6883 63.6247C18.9527 63.7041 19.1028 63.9828 19.0234 64.2473C18.8276 64.8997 18.664 65.5551 18.535 66.2127C18.4818 66.4837 18.2191 66.6603 17.9481 66.6071C17.6771 66.554 17.5005 66.2912 17.5537 66.0202C17.6893 65.3291 17.8609 64.6419 18.0656 63.9599C18.145 63.6954 18.4238 63.5453 18.6883 63.6247ZM17.7097 68.7046C17.9857 68.7122 18.2034 68.9421 18.1958 69.2181C18.1775 69.8877 18.1984 70.5585 18.2613 71.2295C18.287 71.5044 18.085 71.7482 17.8101 71.7739C17.5351 71.7997 17.2914 71.5977 17.2656 71.3227C17.1989 70.6105 17.1768 69.8995 17.1962 69.1907C17.2038 68.9147 17.4337 68.6971 17.7097 68.7046ZM54.5786 74.0885C54.6294 73.8171 54.8906 73.6382 55.162 73.6889C55.9273 73.832 56.6339 74.0882 57.2732 74.4349C57.5159 74.5665 57.606 74.87 57.4743 75.1128C57.3427 75.3555 57.0392 75.4456 56.7965 75.314C56.2478 75.0164 55.6399 74.7956 54.9782 74.6719C54.7068 74.6212 54.5279 74.36 54.5786 74.0885ZM52.4412 74.1491C52.4994 74.4191 52.3278 74.6851 52.0579 74.7433C51.7447 74.8108 51.4237 74.8978 51.0952 75.0057C50.7626 75.1149 50.4481 75.2328 50.1515 75.3588C49.8973 75.4667 49.6038 75.3481 49.4959 75.094C49.388 74.8398 49.5065 74.5462 49.7607 74.4383C50.0845 74.3008 50.4254 74.1731 50.7832 74.0556C51.1438 73.9372 51.4986 73.8409 51.8471 73.7658C52.117 73.7076 52.383 73.8792 52.4412 74.1491ZM18.2013 73.8491C18.4668 73.773 18.7436 73.9266 18.8197 74.1921C19.0012 74.8257 19.2238 75.4592 19.4901 76.0918C19.5973 76.3464 19.4778 76.6395 19.2233 76.7467C18.9687 76.8538 18.6756 76.7343 18.5684 76.4798C18.2868 75.8108 18.0509 75.1397 17.8583 74.4674C17.7823 74.202 17.9359 73.9251 18.2013 73.8491ZM47.6844 76.2364C47.8782 76.433 47.8759 76.7496 47.6792 76.9434C47.1925 77.4231 46.8356 77.9439 46.5995 78.4922C46.4903 78.7458 46.1962 78.8629 45.9426 78.7536C45.6889 78.6444 45.5719 78.3503 45.6811 78.0967C45.972 77.4211 46.4056 76.7946 46.9773 76.2312C47.174 76.0373 47.4906 76.0397 47.6844 76.2364ZM59.0655 76.5412C59.2913 76.3822 59.6032 76.4364 59.7622 76.6622C60.1935 77.2746 60.5321 77.9474 60.7692 78.6521C60.8572 78.9139 60.7164 79.1974 60.4547 79.2854C60.1929 79.3735 59.9094 79.2327 59.8213 78.9709C59.6146 78.3563 59.3194 77.7703 58.9446 77.2379C58.7856 77.0121 58.8397 76.7002 59.0655 76.5412ZM20.1987 78.6099C20.4326 78.4631 20.7412 78.5337 20.888 78.7676C21.2367 79.3232 21.6224 79.8775 22.0469 80.4301C22.2152 80.6491 22.174 80.963 21.9551 81.1312C21.7361 81.2994 21.4222 81.2583 21.2539 81.0393C20.8109 80.4626 20.4071 79.8823 20.0411 79.2992C19.8943 79.0653 19.9649 78.7567 20.1987 78.6099ZM45.7591 80.881C46.0298 80.8265 46.2934 81.0017 46.348 81.2724C46.467 81.8633 46.6879 82.4754 47.0143 83.0986C47.1424 83.3433 47.048 83.6454 46.8034 83.7735C46.5587 83.9016 46.2566 83.8072 46.1285 83.5626C45.7635 82.8657 45.5076 82.1643 45.3677 81.4699C45.3131 81.1992 45.4884 80.9356 45.7591 80.881ZM60.6814 81.4124C60.9555 81.446 61.1504 81.6955 61.1168 81.9696C61.0262 82.7068 60.8204 83.4353 60.489 84.126C60.3696 84.375 60.0709 84.48 59.8219 84.3605C59.573 84.2411 59.468 83.9424 59.5874 83.6934C59.8698 83.1049 60.0464 82.4819 60.1242 81.8477C60.1579 81.5737 60.4073 81.3787 60.6814 81.4124ZM23.3418 82.7176C23.539 82.5242 23.8556 82.5273 24.0489 82.7244C24.2883 82.9684 24.5359 83.2119 24.7919 83.4549C25.0364 83.6869 25.2817 83.912 25.5278 84.1304C25.7344 84.3137 25.7532 84.6297 25.57 84.8363C25.3867 85.0428 25.0707 85.0617 24.8641 84.8784C24.6096 84.6526 24.356 84.4199 24.1035 84.1803C23.839 83.9293 23.5829 83.6774 23.335 83.4246C23.1416 83.2275 23.1447 82.9109 23.3418 82.7176ZM48.0752 85.4926C48.2756 85.3026 48.5921 85.311 48.7821 85.5114C49.2229 85.9762 49.7211 86.4374 50.2766 86.8903C50.4906 87.0648 50.5227 87.3797 50.3482 87.5938C50.1737 87.8078 49.8587 87.8398 49.6447 87.6653C49.0586 87.1875 48.5287 86.6975 48.0565 86.1995C47.8664 85.9991 47.8748 85.6826 48.0752 85.4926ZM58.4552 86.0021C58.6215 86.2225 58.5776 86.5361 58.3572 86.7024C58.068 86.9207 57.7558 87.1245 57.4203 87.3122C57.1382 87.47 56.838 87.6315 56.5208 87.795C56.2753 87.9215 55.9738 87.825 55.8473 87.5796C55.7208 87.3341 55.8172 87.0326 56.0627 86.9061C56.3698 86.7478 56.66 86.5916 56.9322 86.4394C57.2289 86.2734 57.5028 86.0943 57.7549 85.9041C57.9753 85.7378 58.2888 85.7817 58.4552 86.0021ZM27.1545 86.1006C27.3146 85.8757 27.6268 85.8231 27.8517 85.9832C28.4007 86.3738 28.9522 86.7345 29.5051 87.0669C29.7418 87.2092 29.8183 87.5164 29.676 87.753C29.5337 87.9897 29.2265 88.0662 28.9899 87.924C28.4148 87.5782 27.8418 87.2034 27.272 86.7979C27.047 86.6378 26.9944 86.3256 27.1545 86.1006ZM54.0011 88.424C54.1046 88.68 53.9811 88.9715 53.7251 89.0751C53.6919 89.0886 53.6585 89.102 53.625 89.1154C53.9379 89.2866 54.2606 89.4549 54.593 89.6199C54.8404 89.7427 54.9413 90.0427 54.8186 90.29C54.6958 90.5374 54.3957 90.6384 54.1484 90.5156C53.5392 90.2132 52.9601 89.8995 52.4114 89.5762C52.2121 89.6476 52.01 89.7181 51.805 89.7873C51.5434 89.8757 51.2597 89.7352 51.1713 89.4736C51.0829 89.212 51.2234 88.9283 51.485 88.8399C52.1368 88.6197 52.7597 88.387 53.35 88.1481C53.606 88.0445 53.8975 88.1681 54.0011 88.424ZM31.476 88.6919C31.5882 88.4396 31.8838 88.3261 32.1361 88.4384C32.7479 88.7107 33.3601 88.9519 33.9712 89.1644C34.232 89.2551 34.3699 89.54 34.2793 89.8009C34.1886 90.0617 33.9036 90.1996 33.6428 90.1089C33.0055 89.8874 32.3673 89.6358 31.7295 89.352C31.4772 89.2397 31.3637 88.9442 31.476 88.6919ZM49.2216 90.0362C49.2858 90.3048 49.1202 90.5746 48.8516 90.6388C48.2001 90.7946 47.5297 90.9338 46.8428 91.052C46.5706 91.0988 46.312 90.9162 46.2652 90.644C46.2184 90.3719 46.401 90.1133 46.6732 90.0665C47.338 89.9521 47.9874 89.8173 48.619 89.6662C48.8876 89.602 49.1574 89.7677 49.2216 90.0362ZM36.2353 90.3444C36.2923 90.0742 36.5576 89.9014 36.8278 89.9584C37.4809 90.0961 38.1309 90.2044 38.7761 90.2857C39.0501 90.3203 39.2441 90.5704 39.2096 90.8444C39.175 91.1183 38.9249 91.3124 38.651 91.2779C37.9792 91.1932 37.3022 91.0804 36.6214 90.9368C36.3512 90.8798 36.1784 90.6146 36.2353 90.3444ZM44.2512 90.8863C44.2697 91.1619 44.0613 91.4002 43.7857 91.4186C43.1111 91.4638 42.4255 91.4856 41.7307 91.4805C41.4546 91.4785 41.2323 91.2531 41.2343 90.9769C41.2363 90.7008 41.4618 90.4786 41.7379 90.4806C42.407 90.4854 43.068 90.4644 43.7189 90.4208C43.9945 90.4024 44.2328 90.6108 44.2512 90.8863ZM56.7804 91.1415C56.8784 90.8833 57.1671 90.7534 57.4253 90.8514C58.052 91.0893 58.7043 91.316 59.382 91.5302C59.6453 91.6135 59.7913 91.8944 59.708 92.1577C59.6248 92.421 59.3439 92.567 59.0806 92.4837C58.3854 92.264 57.7153 92.0311 57.0705 91.7863C56.8123 91.6884 56.6824 91.3996 56.7804 91.1415ZM61.7635 92.7213C61.8269 92.4525 62.0961 92.286 62.3649 92.3494C63.0212 92.5042 63.6968 92.6477 64.3915 92.7791C64.6628 92.8304 64.8412 93.092 64.7899 93.3633C64.7386 93.6346 64.477 93.813 64.2057 93.7617C63.4966 93.6276 62.8064 93.4809 62.1354 93.3227C61.8666 93.2593 61.7001 92.99 61.7635 92.7213ZM66.9042 93.6951C66.9389 93.4211 67.1892 93.2272 67.4631 93.2619C68.1358 93.3471 68.8237 93.4214 69.5267 93.484C69.8018 93.5085 70.0049 93.7514 69.9804 94.0264C69.9559 94.3015 69.7131 94.5046 69.438 94.4801C68.7228 94.4164 68.0226 94.3408 67.3374 94.254C67.0635 94.2193 66.8695 93.969 66.9042 93.6951ZM72.1116 94.1599C72.1219 93.884 72.354 93.6687 72.6299 93.679C72.9766 93.692 73.3265 93.7022 73.6796 93.7097L73.6585 94.7095C73.3 94.7019 72.9447 94.6915 72.5925 94.6783C72.3166 94.668 72.1012 94.4359 72.1116 94.1599Z" fill="#969696"/>
</svg>
