<!--
 Copyright 2023-2025 Solace Systems. All rights reserved.

 Licensed under the Apache License, Version 2.0 (the "License");
 you may not use this file except in compliance with the License.
 You may obtain a copy of the License at

     http://www.apache.org/licenses/LICENSE-2.0

 Unless required by applicable law or agreed to in writing, software
 distributed under the License is distributed on an "AS IS" BASIS,
 WITHOUT WARRANTIES OR CONDITIONS OF ANY KIND, either express or implied.
 See the License for the specific language governing permissions and
 limitations under the License.
-->
<svg width="130" height="130" viewBox="0 0 130 130" fill="none" xmlns="http://www.w3.org/2000/svg">
<path opacity="0.1" d="M65.5 115C95.5995 115 120 90.5995 120 60.5C120 30.4005 95.5995 6 65.5 6C35.4005 6 11 30.4005 11 60.5C11 90.5995 35.4005 115 65.5 115Z" fill="#033D58"/>
<path d="M29 48.0781C29 46.9736 29.8954 46.0781 31 46.0781H34.2187C35.3233 46.0781 36.2187 46.9736 36.2187 48.0781V89.7859C36.2187 90.8904 35.3233 91.7859 34.2187 91.7859H31C29.8954 91.7859 29 90.8904 29 89.7859V48.0781Z" fill="white"/>
<path fill-rule="evenodd" clip-rule="evenodd" d="M34.2187 48.0781H31V89.7859H34.2187V48.0781ZM31 46.0781C29.8954 46.0781 29 46.9736 29 48.0781V89.7859C29 90.8904 29.8954 91.7859 31 91.7859H34.2187C35.3233 91.7859 36.2187 90.8904 36.2187 89.7859V48.0781C36.2187 46.9736 35.3233 46.0781 34.2187 46.0781H31Z" fill="#969696"/>
<path d="M92.8672 48.0781C92.8672 46.9736 93.7626 46.0781 94.8672 46.0781H98.0859C99.1905 46.0781 100.086 46.9736 100.086 48.0781V89.7859C100.086 90.8904 99.1905 91.7859 98.0859 91.7859H94.8672C93.7626 91.7859 92.8672 90.8904 92.8672 89.7859V48.0781Z" fill="white"/>
<path fill-rule="evenodd" clip-rule="evenodd" d="M98.0859 48.0781H94.8672V89.7859H98.0859V48.0781ZM94.8672 46.0781C93.7626 46.0781 92.8672 46.9736 92.8672 48.0781V89.7859C92.8672 90.8904 93.7626 91.7859 94.8672 91.7859H98.0859C99.1905 91.7859 100.086 90.8904 100.086 89.7859V48.0781C100.086 46.9736 99.1905 46.0781 98.0859 46.0781H94.8672Z" fill="#969696"/>
<path d="M2 123.867H128V124.867H2V123.867Z" fill="#969696"/>
<path d="M23 78.5742C23 77.4697 23.8954 76.5742 25 76.5742H104.04C105.145 76.5742 106.04 77.4696 106.04 78.5742V116.916C106.04 118.021 105.145 118.916 104.04 118.916H25C23.8954 118.916 23 118.021 23 116.916V78.5742Z" fill="white"/>
<path fill-rule="evenodd" clip-rule="evenodd" d="M104.04 78.5742H25V116.916H104.04V78.5742ZM25 76.5742C23.8954 76.5742 23 77.4697 23 78.5742V116.916C23 118.021 23.8954 118.916 25 118.916H104.04C105.145 118.916 106.04 118.021 106.04 116.916V78.5742C106.04 77.4696 105.145 76.5742 104.04 76.5742H25Z" fill="#969696"/>
<path d="M41.0852 117.902H31C30.4477 117.902 30 118.35 30 118.902V122.868C30 123.42 30.4477 123.868 31 123.868H41.0852C41.6375 123.868 42.0852 123.42 42.0852 122.868V118.902C42.0852 118.35 41.6375 117.902 41.0852 117.902Z" fill="white" stroke="#969696" stroke-width="2"/>
<path d="M98.0852 117.902H88C87.4477 117.902 87 118.35 87 118.902V122.868C87 123.42 87.4477 123.868 88 123.868H98.0852C98.6375 123.868 99.0852 123.42 99.0852 122.868V118.902C99.0852 118.35 98.6375 117.902 98.0852 117.902Z" fill="white" stroke="#969696" stroke-width="2"/>
<path d="M30.5964 29.0007C30.9446 28.3509 31.622 27.9453 32.3593 27.9453H97.7412C98.4785 27.9453 99.1559 28.3509 99.5041 29.0007L106.863 42.7358C107.019 43.0263 107.1 43.3507 107.1 43.6803V49.5141C107.1 51.7232 105.31 53.5141 103.1 53.5141H27C24.7909 53.5141 23 51.7232 23 49.5141V43.6803C23 43.3507 23.0815 43.0263 23.2371 42.7357L30.5964 29.0007Z" fill="white"/>
<path fill-rule="evenodd" clip-rule="evenodd" d="M97.7412 29.9453H32.3593L25 43.6803V49.5141C25 50.6187 25.8954 51.5141 27 51.5141H103.1C104.205 51.5141 105.1 50.6187 105.1 49.5141V43.6803L97.7412 29.9453ZM32.3593 27.9453C31.622 27.9453 30.9446 28.3509 30.5964 29.0007L23.2371 42.7357C23.0815 43.0263 23 43.3507 23 43.6803V49.5141C23 51.7232 24.7909 53.5141 27 53.5141H103.1C105.31 53.5141 107.1 51.7232 107.1 49.5141V43.6803C107.1 43.3507 107.019 43.0263 106.863 42.7358L99.5041 29.0007C99.1559 28.3509 98.4785 27.9453 97.7412 27.9453H32.3593Z" fill="#969696"/>
<path fill-rule="evenodd" clip-rule="evenodd" d="M23.9258 43.4648C23.9258 43.1887 24.1496 42.9648 24.4258 42.9648H93.9976C94.2738 42.9648 94.4976 43.1887 94.4976 43.4648C94.4976 43.741 94.2738 43.9648 93.9976 43.9648H24.4258C24.1496 43.9648 23.9258 43.741 23.9258 43.4648Z" fill="#969696"/>
<path fill-rule="evenodd" clip-rule="evenodd" d="M63.4453 28.3086C63.7215 28.3086 63.9453 28.5325 63.9453 28.8086V43.4644C63.9453 43.7405 63.7215 43.9644 63.4453 43.9644C63.1692 43.9644 62.9453 43.7405 62.9453 43.4644V28.8086C62.9453 28.5325 63.1692 28.3086 63.4453 28.3086Z" fill="#969696"/>
<path fill-rule="evenodd" clip-rule="evenodd" d="M47.8113 28.5757C48.0781 28.6471 48.2364 28.9213 48.1649 29.188L44.3717 43.3445C44.3002 43.6112 44.0261 43.7695 43.7593 43.698C43.4926 43.6265 43.3343 43.3524 43.4058 43.0856L47.199 28.9292C47.2704 28.6625 47.5446 28.5042 47.8113 28.5757Z" fill="#969696"/>
<path fill-rule="evenodd" clip-rule="evenodd" d="M80.4371 28.5757C80.1704 28.6471 80.0121 28.9213 80.0836 29.188L83.8768 43.3445C83.9482 43.6112 84.2224 43.7695 84.4891 43.698C84.7559 43.6265 84.9141 43.3524 84.8427 43.0856L81.0495 28.9292C80.978 28.6625 80.7038 28.5042 80.4371 28.5757Z" fill="#969696"/>
<path fill-rule="evenodd" clip-rule="evenodd" d="M80.9679 88.2138C79.9527 88.366 78.8803 88.2193 77.8911 87.7262C76.9013 87.2329 76.1382 86.4644 75.6485 85.5615C75.2282 85.55 74.8093 85.5763 74.3968 85.639C74.0209 86.5947 73.3576 87.4504 72.4357 88.0607C71.5128 88.6718 70.4646 88.9483 69.437 88.9204C69.3283 89.0975 69.2264 89.2812 69.1316 89.4712C69.0369 89.6613 68.9517 89.8532 68.8757 90.0466C69.5156 90.8499 69.9252 91.8525 69.9928 92.9562C70.0605 94.0596 69.7767 95.1043 69.2401 95.9796C69.4387 96.3476 69.6702 96.6988 69.933 97.0282C70.949 96.8756 72.0222 97.0221 73.0121 97.5155C74.0015 98.0086 74.7643 98.7767 75.2541 99.6791C75.6765 99.6905 76.0974 99.6636 76.5118 99.6001C76.8879 98.6461 77.5507 97.792 78.4712 97.1825C79.3915 96.5732 80.4363 96.2965 81.4612 96.3226C81.5704 96.1447 81.6729 95.9602 81.7681 95.7693C81.8629 95.579 81.9482 95.3868 82.0243 95.1932C81.3866 94.3906 80.9785 93.3899 80.911 92.2883C80.8434 91.1857 81.1268 90.1416 81.6627 89.2666C81.4638 88.8971 81.2316 88.5445 80.9679 88.2138ZM83.9542 94.7268C83.8023 95.3374 83.5819 95.941 83.2896 96.5276C82.9969 97.1149 82.6471 97.6549 82.2503 98.1443C81.316 97.8894 80.2807 98.0233 79.4097 98.6C78.5392 99.1763 78.0118 100.076 77.8813 101.036C76.6587 101.389 75.3574 101.478 74.0697 101.273C73.8239 100.335 73.1899 99.5035 72.2538 99.037C71.3174 98.5703 70.2716 98.5646 69.3744 98.9336C68.4349 98.03 67.7227 96.9382 67.2685 95.75C67.9576 95.0681 68.36 94.1038 68.296 93.0603C68.232 92.0157 67.7138 91.1069 66.9453 90.5145C67.0972 89.9036 67.3177 89.2997 67.6101 88.7129C67.9027 88.1259 68.2523 87.5861 68.6489 87.0968C69.5852 87.3546 70.6238 87.2215 71.4972 86.6433C72.3692 86.0659 72.897 85.1636 73.0263 84.2027C74.2477 83.8507 75.5473 83.7623 76.8334 83.9684C77.079 84.9067 77.7131 85.7381 78.6494 86.2047C79.5853 86.6712 80.6305 86.6772 81.5273 86.3088C82.4673 87.2135 83.1797 88.3068 83.6334 89.4965C82.9455 90.1782 82.5439 91.1417 82.6078 92.1843C82.6717 93.2269 83.1881 94.1342 83.9542 94.7268Z" fill="#969696"/>
<path fill-rule="evenodd" clip-rule="evenodd" d="M74.1877 95.0937C75.368 95.6819 76.8016 95.202 77.3899 94.0217C77.9781 92.8415 77.4982 91.4078 76.3179 90.8195C75.1376 90.2313 73.704 90.7112 73.1157 91.8915C72.5275 93.0718 73.0074 94.5054 74.1877 95.0937ZM73.4294 96.6152C75.4499 97.6222 77.9043 96.8006 78.9114 94.78C79.9184 92.7595 79.0968 90.3051 77.0762 89.298C75.0557 88.291 72.6013 89.1126 71.5942 91.1332C70.5872 93.1537 71.4088 95.6081 73.4294 96.6152Z" fill="#969696"/>
<path fill-rule="evenodd" clip-rule="evenodd" d="M66.3323 95.7077L65.327 96.7443C64.9733 97.109 64.8559 97.6606 65.0644 98.1519C65.2727 98.6428 65.7503 98.9416 66.2579 98.9412L67.7019 98.9399L67.8723 100.374C67.9704 101.199 67.975 102.025 67.8919 102.835L67.7449 104.27L66.3027 104.294C65.7952 104.302 65.3229 104.609 65.1231 105.103C64.9232 105.598 65.0496 106.147 65.4087 106.505L66.4293 107.524L65.5379 108.658C65.0337 109.3 64.4562 109.89 63.811 110.416L62.6912 111.329L61.6539 110.324C61.2892 109.97 60.7377 109.853 60.2464 110.061C59.755 110.269 59.4561 110.748 59.4571 111.256L59.4599 112.701L58.0252 112.872C57.1987 112.97 56.3725 112.975 55.561 112.892L54.1253 112.746L54.1021 111.302C54.094 110.795 53.7871 110.322 53.2926 110.122C52.798 109.922 52.2487 110.049 51.8901 110.409L50.871 111.431L49.7363 110.539C49.0958 110.035 48.5057 109.459 47.9803 108.815L47.0661 107.694L48.0733 106.657C48.4272 106.292 48.5448 105.74 48.3363 105.249C48.1276 104.757 47.6486 104.458 47.14 104.459L45.6939 104.464L45.5223 103.028C45.4236 102.202 45.4185 101.376 45.5011 100.565L45.6476 99.1269L47.0935 99.106C47.6018 99.0986 48.0754 98.7915 48.2756 98.2964C48.4758 97.801 48.3485 97.2507 47.9876 96.8922L46.9617 95.873L47.8554 94.7361C48.3596 94.0946 48.9372 93.5037 49.5825 92.9776L50.7047 92.0627L51.7421 93.0728C52.1067 93.4279 52.6593 93.5461 53.1514 93.3373C53.6435 93.1285 53.9425 92.6491 53.9407 92.1403L53.9356 90.6924L55.3733 90.5216C56.2001 90.4233 57.0264 90.4188 57.8381 90.5022L59.2757 90.6499L59.2962 92.0949C59.3035 92.6034 59.6106 93.0772 60.1058 93.2774C60.6007 93.4774 61.1502 93.3506 61.5088 92.9906L62.5288 91.9667L63.6643 92.8607C64.305 93.3651 64.8952 93.9428 65.4206 94.588L66.3323 95.7077ZM55.565 92.1345C56.2715 92.0506 56.9779 92.0467 57.6721 92.118C57.6883 93.257 58.3748 94.3296 59.4971 94.7833C60.6185 95.2366 61.8564 94.9432 62.6596 94.1369C63.2076 94.5684 63.7121 95.0622 64.161 95.6136C63.3688 96.4304 63.0968 97.6729 63.5691 98.7862C64.0411 99.8988 65.1224 100.566 66.2594 100.565C66.3432 101.271 66.3471 101.976 66.2761 102.67C65.1395 102.688 64.07 103.374 63.6172 104.495C63.1643 105.615 63.4566 106.851 64.261 107.655C63.8297 108.203 63.336 108.708 62.7847 109.158C61.9679 108.365 60.7254 108.093 59.612 108.566C58.4985 109.038 57.8307 110.121 57.8329 111.259C57.1266 111.343 56.4203 111.347 55.7262 111.276C55.708 110.139 55.0219 109.069 53.9013 108.616C52.7805 108.163 51.5432 108.456 50.74 109.262C50.1922 108.831 49.6878 108.338 49.2388 107.788C50.0316 106.971 50.304 105.728 49.8315 104.614C49.3587 103.5 48.2744 102.832 47.1351 102.835C47.0508 102.129 47.0464 101.424 47.117 100.73C48.2557 100.714 49.3279 100.027 49.7814 98.9051C50.2353 97.7824 49.9407 96.543 49.1324 95.7399C49.5637 95.1912 50.0575 94.6861 50.6089 94.2365C51.4257 95.0319 52.6705 95.3057 53.7858 94.8325C54.9009 94.3595 55.569 93.2743 55.565 92.1345ZM57.8835 104.484C59.5051 103.796 60.262 101.924 59.574 100.302C58.8861 98.6808 57.0138 97.9239 55.3921 98.6119C53.7705 99.2999 53.0136 101.172 53.7016 102.794C54.3896 104.415 56.2619 105.172 57.8835 104.484ZM61.0693 99.6681C62.1076 102.116 60.9653 104.941 58.5179 105.98C56.0704 107.018 53.2447 105.876 52.2063 103.428C51.168 100.981 52.3103 98.155 54.7578 97.1166C57.2052 96.0783 60.031 97.2206 61.0693 99.6681Z" fill="#969696"/>
</svg>
