<!--
 Copyright 2023-2025 Solace Systems. All rights reserved.

 Licensed under the Apache License, Version 2.0 (the "License");
 you may not use this file except in compliance with the License.
 You may obtain a copy of the License at

     http://www.apache.org/licenses/LICENSE-2.0

 Unless required by applicable law or agreed to in writing, software
 distributed under the License is distributed on an "AS IS" BASIS,
 WITHOUT WARRANTIES OR CONDITIONS OF ANY KIND, either express or implied.
 See the License for the specific language governing permissions and
 limitations under the License.
-->
<svg width="130" height="130" viewBox="0 0 130 130" fill="none" xmlns="http://www.w3.org/2000/svg">
<path opacity="0.1" d="M119 64.5C119 94.5995 94.5995 119 64.5 119C34.4005 119 10 94.5995 10 64.5C10 34.4005 34.4005 10 64.5 10C94.5995 10 119 34.4005 119 64.5Z" fill="#033D58"/>
<path fill-rule="evenodd" clip-rule="evenodd" d="M63.2088 43.739C63.9534 43.6685 64.716 43.6328 65.4947 43.6328C66.2735 43.6328 67.0361 43.6685 67.7806 43.739C68.0555 43.765 68.2573 44.009 68.2313 44.2839C68.2052 44.5588 67.9613 44.7606 67.6864 44.7345C66.9741 44.6671 66.243 44.6328 65.4947 44.6328C64.7465 44.6328 64.0154 44.6671 63.3031 44.7345C63.0282 44.7606 62.7842 44.5588 62.7582 44.2839C62.7321 44.009 62.9339 43.765 63.2088 43.739ZM71.6389 44.9746C71.7246 44.7121 72.0068 44.5688 72.2693 44.6544C73.776 45.1462 75.1671 45.811 76.4188 46.6389C76.6491 46.7913 76.7123 47.1015 76.5599 47.3318C76.4076 47.5621 76.0974 47.6253 75.8671 47.473C74.6946 46.6974 73.3855 46.0706 71.9591 45.6051C71.6966 45.5194 71.5532 45.2371 71.6389 44.9746ZM59.3505 44.9746C59.4362 45.2371 59.2929 45.5194 59.0304 45.6051C57.604 46.0706 56.2948 46.6974 55.1224 47.473C54.892 47.6253 54.5818 47.5621 54.4295 47.3318C54.2771 47.1015 54.3404 46.7913 54.5707 46.6389C55.8223 45.811 57.2134 45.1462 58.7201 44.6544C58.9826 44.5688 59.2649 44.7121 59.3505 44.9746ZM79.1374 49.6616C79.3521 49.4879 79.6669 49.5211 79.8407 49.7357C80.7956 50.9154 81.5755 52.2502 82.1571 53.726C82.2583 53.983 82.1321 54.2733 81.8752 54.3745C81.6183 54.4758 81.3279 54.3496 81.2267 54.0927C80.6819 52.71 79.9531 51.4641 79.0634 50.3649C78.8897 50.1502 78.9228 49.8354 79.1374 49.6616ZM51.852 49.6616C52.0666 49.8354 52.0998 50.1502 51.926 50.3649C51.0363 51.4641 50.3075 52.71 49.7627 54.0927C49.6615 54.3496 49.3711 54.4758 49.1142 54.3745C48.8573 54.2733 48.7311 53.983 48.8324 53.726C49.4139 52.2502 50.1938 50.9154 51.1488 49.7357C51.3225 49.5211 51.6373 49.4879 51.852 49.6616ZM82.6932 57.7519C82.9677 57.7213 83.215 57.9188 83.2457 58.1933C83.3287 58.935 83.371 59.6999 83.371 60.4869C83.371 61.3259 83.3157 62.1596 83.2104 62.9819C83.1754 63.2558 82.9249 63.4494 82.651 63.4144C82.3771 63.3793 82.1834 63.1288 82.2185 62.8549C82.3186 62.0733 82.371 61.282 82.371 60.4869C82.371 59.7358 82.3306 59.008 82.2519 58.3044C82.2212 58.03 82.4188 57.7826 82.6932 57.7519ZM48.2962 57.7519C48.5706 57.7826 48.7682 58.03 48.7375 58.3044C48.6588 59.008 48.6185 59.7358 48.6185 60.4869C48.6185 61.2824 48.6709 62.073 48.771 62.8533C48.8062 63.1272 48.6127 63.3777 48.3388 63.4129C48.0649 63.448 47.8143 63.2545 47.7792 62.9806C47.6738 62.1595 47.6185 61.3263 47.6185 60.4869C47.6185 59.6999 47.6608 58.935 47.7437 58.1933C47.7744 57.9188 48.0218 57.7213 48.2962 57.7519ZM49.2918 67.1621C49.5495 67.063 49.8388 67.1916 49.9379 67.4494C50.5213 68.9668 51.2745 70.3827 52.1493 71.6438C52.3067 71.8707 52.2503 72.1823 52.0234 72.3397C51.7966 72.4971 51.485 72.4407 51.3276 72.2138C50.4068 70.8863 49.6162 69.3994 49.0045 67.8082C48.9054 67.5505 49.034 67.2612 49.2918 67.1621ZM81.7014 67.1676C81.9593 67.2662 82.0885 67.5552 81.9899 67.8131C81.3806 69.4073 80.5931 70.8979 79.6754 72.2267C79.5185 72.4539 79.207 72.5109 78.9798 72.354C78.7526 72.197 78.6956 71.8856 78.8525 71.6584C79.7241 70.3965 80.4745 68.9769 81.0558 67.4561C81.1544 67.1982 81.4434 67.069 81.7014 67.1676ZM54.6364 75.1909C54.809 74.9753 55.1237 74.9405 55.3392 75.1131C55.9711 75.619 56.6245 76.0503 57.2893 76.398C57.7812 76.6552 58.3884 76.9388 59.1118 77.2417C59.3665 77.3484 59.4865 77.6414 59.3798 77.8961C59.2731 78.1508 58.9802 78.2708 58.7255 78.1641C57.9822 77.8528 57.3484 77.5573 56.8259 77.2841C56.0989 76.9039 55.3918 76.4362 54.7143 75.8937C54.4987 75.7211 54.4638 75.4065 54.6364 75.1909ZM76.3654 75.2075C76.5371 75.4237 76.5011 75.7382 76.2848 75.91C75.6029 76.4515 74.8908 76.9152 74.158 77.2869C73.6271 77.5563 72.9861 77.8475 72.2371 78.1544C71.9816 78.2591 71.6895 78.1368 71.5848 77.8813C71.4802 77.6257 71.6024 77.3337 71.858 77.229C72.5879 76.93 73.2037 76.6498 73.7056 76.3951C74.3726 76.0567 75.0285 75.6307 75.6629 75.1269C75.8791 74.9551 76.1937 74.9912 76.3654 75.2075ZM68.625 78.9411C68.7093 79.204 68.5645 79.4855 68.3015 79.5699C67.9093 79.6956 67.5024 79.8224 67.0806 79.9499C67.1885 80.0717 67.2348 80.2437 67.1891 80.4125C67.1168 80.679 66.8422 80.8365 66.5757 80.7643C66.1744 80.6555 65.7835 80.5468 65.4031 80.4383C65.0467 80.5382 64.6815 80.6384 64.3074 80.7386C64.0407 80.81 63.7665 80.6517 63.6951 80.385C63.6539 80.2314 63.689 80.0753 63.7771 79.9569C63.377 79.834 62.9907 79.7117 62.6181 79.5903C62.3555 79.5048 62.212 79.2226 62.2975 78.9601C62.383 78.6975 62.6652 78.554 62.9277 78.6395C63.6937 78.8889 64.5196 79.1428 65.4054 79.3986C66.3325 79.1354 67.1963 78.8741 67.9962 78.6176C68.2592 78.5333 68.5407 78.6781 68.625 78.9411ZM60.6385 81.1402C60.7 81.4094 60.5315 81.6775 60.2623 81.7389C58.9846 82.0306 57.6304 82.3184 56.2001 82.5984C55.9291 82.6515 55.6664 82.4748 55.6133 82.2038C55.5603 81.9328 55.737 81.6701 56.008 81.617C57.4283 81.339 58.7724 81.0534 60.0398 80.764C60.309 80.7026 60.577 80.871 60.6385 81.1402ZM70.2083 81.1662C70.2702 80.8971 70.5386 80.7292 70.8077 80.7912C72.0634 81.0804 73.3962 81.3658 74.8057 81.6435C75.0766 81.6969 75.253 81.9598 75.1996 82.2307C75.1462 82.5017 74.8833 82.678 74.6124 82.6246C73.1927 82.3449 71.8495 82.0573 70.5833 81.7656C70.3142 81.7037 70.1463 81.4353 70.2083 81.1662ZM52.5185 82.7648C52.5641 83.0371 52.3803 83.2949 52.108 83.3405C50.792 83.561 49.4227 83.7735 48.0005 83.9759C47.7272 84.0148 47.474 83.8247 47.4351 83.5514C47.3962 83.278 47.5863 83.0248 47.8597 82.9859C49.2738 82.7847 50.6349 82.5733 51.9428 82.3542C52.2151 82.3086 52.4729 82.4924 52.5185 82.7648ZM78.2604 82.7885C78.3062 82.5162 78.5641 82.3326 78.8364 82.3784C80.1322 82.5964 81.4815 82.8066 82.8842 83.0067C83.1576 83.0456 83.3476 83.2989 83.3086 83.5722C83.2696 83.8456 83.0164 84.0356 82.743 83.9966C81.3322 83.7954 79.9746 83.5839 78.6705 83.3645C78.3982 83.3187 78.2146 83.0608 78.2604 82.7885ZM44.32 83.9582C44.3527 84.2324 44.1569 84.4812 43.8827 84.5139C42.5473 84.6732 41.1712 84.823 39.7547 84.9618C39.4799 84.9888 39.2353 84.7878 39.2084 84.513C39.1814 84.2382 39.3824 83.9935 39.6572 83.9666C41.0667 83.8285 42.4358 83.6794 43.7643 83.5209C44.0385 83.4882 44.2873 83.684 44.32 83.9582ZM86.388 83.975C86.4208 83.7008 86.6696 83.505 86.9438 83.5378C88.2599 83.6949 89.6169 83.8426 91.0147 83.9795C91.2895 84.0064 91.4905 84.251 91.4636 84.5258C91.4367 84.8006 91.192 85.0016 90.9172 84.9747C89.5125 84.8372 88.1485 84.6887 86.8252 84.5307C86.551 84.498 86.3553 84.2492 86.388 83.975ZM36.074 84.7885C36.0955 85.0638 35.8897 85.3044 35.6144 85.3259C34.2661 85.4311 32.885 85.5261 31.4713 85.6099C31.1956 85.6262 30.9589 85.416 30.9426 85.1403C30.9262 84.8647 31.1365 84.628 31.4121 84.6116C32.8197 84.5283 34.1945 84.4336 35.5366 84.3289C35.8119 84.3074 36.0525 84.5132 36.074 84.7885ZM94.5618 84.7976C94.5833 84.5223 94.8238 84.3165 95.0991 84.338C96.4298 84.4416 97.7936 84.5351 99.1903 84.6175C99.466 84.6338 99.6763 84.8704 99.66 85.1461C99.6438 85.4218 99.4071 85.632 99.1314 85.6158C97.7285 85.533 96.3585 85.439 95.0215 85.3349C94.7462 85.3135 94.5404 85.0729 94.5618 84.7976ZM27.8065 85.2978C27.8179 85.5737 27.6035 85.8066 27.3276 85.818C25.9705 85.8742 24.5859 85.9199 23.174 85.9542C22.8979 85.9609 22.6687 85.7425 22.662 85.4665C22.6553 85.1904 22.8736 84.9612 23.1497 84.9545C24.556 84.9203 25.9349 84.8748 27.2863 84.8189C27.5622 84.8075 27.7951 85.0219 27.8065 85.2978ZM102.759 85.301C102.771 85.0251 103.004 84.8106 103.28 84.822C104.619 84.8771 105.987 84.922 107.382 84.9557C107.658 84.9623 107.876 85.1915 107.87 85.4676C107.863 85.7436 107.634 85.962 107.358 85.9554C105.957 85.9216 104.584 85.8765 103.238 85.8211C102.963 85.8098 102.748 85.5769 102.759 85.301ZM19.5226 85.5169C19.5248 85.7931 19.3028 86.0187 19.0266 86.0209C18.3383 86.0264 17.6438 86.0292 16.9434 86.0292C16.6673 86.0292 16.4434 85.8053 16.4434 85.5292C16.4434 85.253 16.6673 85.0292 16.9434 85.0292C17.6412 85.0292 18.3329 85.0264 19.0187 85.0209C19.2948 85.0187 19.5204 85.2408 19.5226 85.5169ZM110.973 85.5171C110.975 85.241 111.201 85.0189 111.477 85.0211C112.157 85.0264 112.843 85.0292 113.535 85.0292C113.811 85.0292 114.035 85.253 114.035 85.5292C114.035 85.8053 113.811 86.0292 113.535 86.0292C112.84 86.0292 112.152 86.0264 111.469 86.021C111.193 86.0188 110.971 85.7932 110.973 85.5171Z" fill="#969696"/>
<path d="M25.0205 84.3276C25.0205 88.7208 21.4591 92.2822 17.0659 92.2822C12.6727 92.2822 9.11133 88.7208 9.11133 84.3276C9.11133 79.9344 12.6727 76.373 17.0659 76.373C21.4591 76.373 25.0205 79.9344 25.0205 84.3276Z" fill="white"/>
<path fill-rule="evenodd" clip-rule="evenodd" d="M17.0659 90.2822C20.3546 90.2822 23.0205 87.6163 23.0205 84.3276C23.0205 81.039 20.3546 78.373 17.0659 78.373C13.7773 78.373 11.1113 81.039 11.1113 84.3276C11.1113 87.6163 13.7773 90.2822 17.0659 90.2822ZM17.0659 92.2822C21.4591 92.2822 25.0205 88.7208 25.0205 84.3276C25.0205 79.9344 21.4591 76.373 17.0659 76.373C12.6727 76.373 9.11133 79.9344 9.11133 84.3276C9.11133 88.7208 12.6727 92.2822 17.0659 92.2822Z" fill="#969696"/>
<path d="M16.8551 84.9177L5.92801 65.9914C1.07151 57.5797 7.14213 47.065 16.8551 47.065C26.5681 47.065 32.6388 57.5797 27.7823 65.9914L16.8551 84.9177Z" fill="white"/>
<path fill-rule="evenodd" clip-rule="evenodd" d="M16.8551 84.9177L27.7823 65.9914C32.6388 57.5797 26.5681 47.065 16.8551 47.065C7.14213 47.065 1.07151 57.5797 5.92801 65.9914L16.8551 84.9177ZM16.8551 80.9177L26.0502 64.9914C30.1369 57.913 25.0285 49.065 16.8551 49.065C8.68174 49.065 3.57336 57.913 7.66006 64.9914L16.8551 80.9177Z" fill="#969696"/>
<path d="M23.7247 59.4261C23.7247 63.2214 20.6479 66.2982 16.8526 66.2982C13.0572 66.2982 9.98047 63.2214 9.98047 59.4261C9.98047 55.6307 13.0572 52.554 16.8526 52.554C20.6479 52.554 23.7247 55.6307 23.7247 59.4261Z" fill="#305D74"/>
<path d="M121.311 84.3276C121.311 88.7208 117.75 92.2822 113.357 92.2822C108.964 92.2822 105.402 88.7208 105.402 84.3276C105.402 79.9344 108.964 76.373 113.357 76.373C117.75 76.373 121.311 79.9344 121.311 84.3276Z" fill="white"/>
<path fill-rule="evenodd" clip-rule="evenodd" d="M113.357 90.2822C116.646 90.2822 119.311 87.6163 119.311 84.3276C119.311 81.039 116.646 78.373 113.357 78.373C110.068 78.373 107.402 81.039 107.402 84.3276C107.402 87.6163 110.068 90.2822 113.357 90.2822ZM113.357 92.2822C117.75 92.2822 121.311 88.7208 121.311 84.3276C121.311 79.9344 117.75 76.373 113.357 76.373C108.964 76.373 105.402 79.9344 105.402 84.3276C105.402 88.7208 108.964 92.2822 113.357 92.2822Z" fill="#969696"/>
<path d="M113.146 84.9177L102.219 65.9914C97.3624 57.5797 103.433 47.065 113.146 47.065C122.859 47.065 128.929 57.5797 124.073 65.9914L113.146 84.9177Z" fill="white"/>
<path fill-rule="evenodd" clip-rule="evenodd" d="M113.146 84.9177L124.073 65.9914C128.929 57.5797 122.859 47.065 113.146 47.065C103.433 47.065 97.3624 57.5797 102.219 65.9914L113.146 84.9177ZM113.146 80.9177L122.341 64.9914C126.428 57.913 121.319 49.065 113.146 49.065C104.972 49.065 99.8643 57.913 103.951 64.9914L113.146 80.9177Z" fill="#969696"/>
<path d="M120.016 59.4258C120.016 63.2212 116.939 66.2979 113.144 66.2979C109.348 66.2979 106.271 63.2212 106.271 59.4258C106.271 55.6305 109.348 52.5537 113.144 52.5537C116.939 52.5537 120.016 55.6305 120.016 59.4258Z" fill="white"/>
<path fill-rule="evenodd" clip-rule="evenodd" d="M113.144 65.2979C116.387 65.2979 119.016 62.6689 119.016 59.4258C119.016 56.1827 116.387 53.5537 113.144 53.5537C109.9 53.5537 107.271 56.1827 107.271 59.4258C107.271 62.6689 109.9 65.2979 113.144 65.2979ZM113.144 66.2979C116.939 66.2979 120.016 63.2212 120.016 59.4258C120.016 55.6305 116.939 52.5537 113.144 52.5537C109.348 52.5537 106.271 55.6305 106.271 59.4258C106.271 63.2212 109.348 66.2979 113.144 66.2979Z" fill="#969696"/>
<path d="M96.2494 85.2951C95.4501 88.2778 92.3842 90.0479 89.4015 89.2487C86.4187 88.4495 84.6486 85.3836 85.4478 82.4008C86.247 79.418 89.313 77.6479 92.2957 78.4471C95.2785 79.2464 97.0486 82.3123 96.2494 85.2951Z" fill="#305D74"/>
<path fill-rule="evenodd" clip-rule="evenodd" d="M89.9191 87.3169C91.8349 87.8302 93.8042 86.6933 94.3175 84.7774C94.8309 82.8616 93.6939 80.8923 91.7781 80.379C89.8623 79.8656 87.893 81.0026 87.3797 82.9184C86.8663 84.8343 88.0033 86.8035 89.9191 87.3169ZM89.4015 89.2487C92.3842 90.0479 95.4501 88.2778 96.2494 85.2951C97.0486 82.3123 95.2785 79.2464 92.2957 78.4471C89.313 77.6479 86.247 79.418 85.4478 82.4008C84.6486 85.3836 86.4187 88.4495 89.4015 89.2487Z" fill="#305D74"/>
<path d="M81.8333 49.3615C81.034 52.3442 77.9681 54.1143 74.9853 53.3151C72.0026 52.5159 70.2325 49.45 71.0317 46.4672C71.8309 43.4844 74.8968 41.7143 77.8796 42.5135C80.8624 43.3128 82.6325 46.3787 81.8333 49.3615Z" fill="white"/>
<path fill-rule="evenodd" clip-rule="evenodd" d="M75.503 51.3833C77.4188 51.8966 79.3881 50.7597 79.9014 48.8438C80.4148 46.928 79.2778 44.9587 77.362 44.4454C75.4461 43.932 73.4769 45.069 72.9635 46.9848C72.4502 48.9007 73.5871 50.8699 75.503 51.3833ZM74.9853 53.3151C77.9681 54.1143 81.034 52.3442 81.8333 49.3615C82.6325 46.3787 80.8624 43.3128 77.8796 42.5135C74.8968 41.7143 71.8309 43.4844 71.0317 46.4672C70.2325 49.45 72.0026 52.5159 74.9853 53.3151Z" fill="#969696"/>
<path d="M74.6771 46.2951C73.8779 49.2778 70.8119 51.0479 67.8292 50.2487C64.8464 49.4495 63.0763 46.3836 63.8755 43.4008C64.6747 40.418 67.7407 38.6479 70.7234 39.4471C73.7062 40.2464 75.4763 43.3123 74.6771 46.2951Z" fill="white"/>
<path fill-rule="evenodd" clip-rule="evenodd" d="M68.3468 48.3169C70.2626 48.8302 72.2319 47.6933 72.7452 45.7774C73.2586 43.8616 72.1216 41.8923 70.2058 41.379C68.29 40.8656 66.3207 42.0026 65.8074 43.9184C65.294 45.8343 66.431 47.8035 68.3468 48.3169ZM67.8292 50.2487C70.8119 51.0479 73.8779 49.2778 74.6771 46.2951C75.4763 43.3123 73.7062 40.2464 70.7234 39.4471C67.7407 38.6479 64.6747 40.418 63.8755 43.4008C63.0763 46.3836 64.8464 49.4495 67.8292 50.2487Z" fill="#969696"/>
<path d="M67.5228 46.2951C66.7236 49.2778 63.6576 51.0479 60.6749 50.2487C57.6921 49.4495 55.922 46.3836 56.7212 43.4008C57.5205 40.418 60.5864 38.6479 63.5691 39.4471C66.5519 40.2464 68.322 43.3123 67.5228 46.2951Z" fill="white"/>
<path fill-rule="evenodd" clip-rule="evenodd" d="M61.1925 48.3169C63.1083 48.8302 65.0776 47.6933 65.5909 45.7774C66.1043 43.8616 64.9673 41.8923 63.0515 41.379C61.1357 40.8656 59.1664 42.0026 58.6531 43.9184C58.1397 45.8343 59.2767 47.8035 61.1925 48.3169ZM60.6749 50.2487C63.6576 51.0479 66.7236 49.2778 67.5228 46.2951C68.322 43.3123 66.5519 40.2464 63.5691 39.4471C60.5864 38.6479 57.5205 40.418 56.7212 43.4008C55.922 46.3836 57.6921 49.4495 60.6749 50.2487Z" fill="#969696"/>
<path d="M60.3685 48.3392C59.5693 51.322 56.5034 53.0921 53.5206 52.2929C50.5378 51.4937 48.7677 48.4277 49.5669 45.445C50.3662 42.4622 53.4321 40.6921 56.4149 41.4913C59.3976 42.2906 61.1677 45.3565 60.3685 48.3392Z" fill="white"/>
<path fill-rule="evenodd" clip-rule="evenodd" d="M54.0382 50.361C55.9541 50.8744 57.9233 49.7375 58.4367 47.8216C58.95 45.9058 57.8131 43.9365 55.8972 43.4232C53.9814 42.9098 52.0121 44.0468 51.4988 45.9626C50.9854 47.8785 52.1224 49.8477 54.0382 50.361ZM53.5206 52.2929C56.5034 53.0921 59.5693 51.322 60.3685 48.3392C61.1677 45.3565 59.3976 42.2906 56.4149 41.4913C53.4321 40.6921 50.3662 42.4622 49.5669 45.445C48.7677 48.4277 50.5378 51.4937 53.5206 52.2929Z" fill="#969696"/>
</svg>
