<!--
 Copyright 2023-2025 Solace Systems. All rights reserved.

 Licensed under the Apache License, Version 2.0 (the "License");
 you may not use this file except in compliance with the License.
 You may obtain a copy of the License at

     http://www.apache.org/licenses/LICENSE-2.0

 Unless required by applicable law or agreed to in writing, software
 distributed under the License is distributed on an "AS IS" BASIS,
 WITHOUT WARRANTIES OR CONDITIONS OF ANY KIND, either express or implied.
 See the License for the specific language governing permissions and
 limitations under the License.
-->
<svg width="130" height="130" viewBox="0 0 130 130" fill="none" xmlns="http://www.w3.org/2000/svg">
<path opacity="0.1" d="M117 52C117 77.4051 96.4051 98 71 98C45.5949 98 25 77.4051 25 52C25 26.5949 45.5949 6 71 6C96.4051 6 117 26.5949 117 52Z" fill="#033D58"/>
<path d="M104.094 58.1179C104.094 81.2012 85.3813 99.9139 62.298 99.9139C39.2148 99.9139 20.502 81.2012 20.502 58.1179C20.502 35.0345 39.2148 16.3218 62.298 16.3218C85.3813 16.3218 104.094 35.0345 104.094 58.1179Z" fill="white"/>
<path fill-rule="evenodd" clip-rule="evenodd" d="M62.298 97.9139C84.2768 97.9139 102.094 80.0966 102.094 58.1179C102.094 36.1391 84.2768 18.3218 62.298 18.3218C40.3193 18.3218 22.502 36.1391 22.502 58.1179C22.502 80.0966 40.3193 97.9139 62.298 97.9139ZM62.298 99.9139C85.3813 99.9139 104.094 81.2012 104.094 58.1179C104.094 35.0345 85.3813 16.3218 62.298 16.3218C39.2148 16.3218 20.502 35.0345 20.502 58.1179C20.502 81.2012 39.2148 99.9139 62.298 99.9139Z" fill="#969696"/>
<path fill-rule="evenodd" clip-rule="evenodd" d="M102.93 52.8819L37.7562 91.136L37.25 90.2736L102.424 52.0195L102.93 52.8819Z" fill="#969696"/>
<path fill-rule="evenodd" clip-rule="evenodd" d="M87.3375 25.9665L22.164 62.8037L21.6719 61.9332L86.8455 25.0959L87.3375 25.9665Z" fill="#969696"/>
<path fill-rule="evenodd" clip-rule="evenodd" d="M66.4357 89.0396C72.9789 93.7618 78.7858 95.1 82.6365 92.8768C86.4872 90.6536 88.2317 84.9556 87.4138 76.9279C86.6063 69.0034 83.3221 59.2269 77.7125 49.5109C72.1029 39.7948 65.2784 32.0624 58.8193 27.4008C52.2761 22.6786 46.4692 21.3404 42.6185 23.5636C38.7678 25.7868 37.0233 31.4848 37.8413 39.5125C38.6487 47.437 41.933 57.2134 47.5426 66.9295C53.1521 76.6456 59.9767 84.378 66.4357 89.0396ZM46.6765 67.4295C58.0033 87.0481 74.327 98.829 83.1365 93.7428C91.946 88.6566 89.9053 68.6295 78.5785 49.0109C67.2517 29.3923 50.928 17.6114 42.1185 22.6976C33.3091 27.7837 35.3497 47.8109 46.6765 67.4295Z" fill="#969696"/>
<path fill-rule="evenodd" clip-rule="evenodd" d="M34.1251 8.75L38.152 15.9538L37.2878 16.4441C22.7826 24.6738 13 40.2542 13 58.1181C13 84.5616 34.4367 105.998 60.8802 105.998C70.0359 105.998 78.5887 103.429 85.8604 98.9736L86.6888 98.466L90.0537 103.618L88.3793 104.711L86.0717 101.179C78.6778 105.513 70.0677 107.998 60.8802 107.998C33.3321 107.998 11 85.6662 11 58.1181C11 39.8605 20.8097 23.8953 35.4414 15.2036L32.3794 9.72587L34.1251 8.75Z" fill="#969696"/>
<path d="M85.9321 46.7605C85.9321 51.3595 82.2038 55.0878 77.6047 55.0878C73.0056 55.0878 69.2773 51.3595 69.2773 46.7605C69.2773 42.1614 73.0056 38.4331 77.6047 38.4331C82.2038 38.4331 85.9321 42.1614 85.9321 46.7605Z" fill="white"/>
<path fill-rule="evenodd" clip-rule="evenodd" d="M77.6047 53.0878C81.0992 53.0878 83.9321 50.255 83.9321 46.7605C83.9321 43.266 81.0992 40.4331 77.6047 40.4331C74.1102 40.4331 71.2773 43.266 71.2773 46.7605C71.2773 50.255 74.1102 53.0878 77.6047 53.0878ZM77.6047 55.0878C82.2038 55.0878 85.9321 51.3595 85.9321 46.7605C85.9321 42.1614 82.2038 38.4331 77.6047 38.4331C73.0056 38.4331 69.2773 42.1614 69.2773 46.7605C69.2773 51.3595 73.0056 55.0878 77.6047 55.0878Z" fill="#969696"/>
<path d="M77.3809 47.3779L65.9417 27.5646C60.8576 18.7587 67.2127 7.7514 77.3809 7.7514C87.5491 7.7514 93.9042 18.7588 88.8201 27.5647L77.3809 47.3779Z" fill="white"/>
<path fill-rule="evenodd" clip-rule="evenodd" d="M77.3809 47.3779L88.8201 27.5647C93.9042 18.7588 87.5491 7.7514 77.3809 7.7514C67.2127 7.7514 60.8576 18.7587 65.9417 27.5646L77.3809 47.3779ZM77.3809 43.3779L87.088 26.5647C91.4023 19.0921 86.0095 9.7514 77.3809 9.7514C68.7523 9.7514 63.3595 19.0921 67.6737 26.5646L77.3809 43.3779Z" fill="#969696"/>
<path d="M84.5739 20.6917C84.5739 24.6649 81.353 27.8859 77.3798 27.8859C73.4066 27.8859 70.1855 24.6649 70.1855 20.6917C70.1855 16.7185 73.4066 13.4976 77.3798 13.4976C81.353 13.4976 84.5739 16.7185 84.5739 20.6917Z" fill="#305D74"/>
<path fill-rule="evenodd" clip-rule="evenodd" d="M61.7969 124V106.29H62.7969V124H61.7969Z" fill="#969696"/>
<path fill-rule="evenodd" clip-rule="evenodd" d="M75.7574 125H48.8379V123H75.7574V125Z" fill="#969696"/>
</svg>
