<!--
 Copyright 2023-2025 Solace Systems. All rights reserved.

 Licensed under the Apache License, Version 2.0 (the "License");
 you may not use this file except in compliance with the License.
 You may obtain a copy of the License at

     http://www.apache.org/licenses/LICENSE-2.0

 Unless required by applicable law or agreed to in writing, software
 distributed under the License is distributed on an "AS IS" BASIS,
 WITHOUT WARRANTIES OR CONDITIONS OF ANY KIND, either express or implied.
 See the License for the specific language governing permissions and
 limitations under the License.
-->
<svg width="409" height="137" viewBox="0 0 409 137" fill="none" xmlns="http://www.w3.org/2000/svg">
<path d="M309.649 47.3357C309.545 47.3357 309.465 47.3117 309.409 47.2637C309.353 47.2077 309.305 47.1317 309.265 47.0357L307.561 41.4677C307.545 41.4277 307.537 41.3877 307.537 41.3477C307.537 41.2757 307.561 41.2157 307.609 41.1677C307.665 41.1197 307.725 41.0957 307.789 41.0957H308.317C308.405 41.0957 308.473 41.1197 308.521 41.1677C308.569 41.2157 308.601 41.2597 308.617 41.2997L309.949 45.8237L311.377 41.3477C311.393 41.2917 311.425 41.2357 311.473 41.1797C311.529 41.1237 311.609 41.0957 311.713 41.0957H312.121C312.225 41.0957 312.305 41.1237 312.361 41.1797C312.417 41.2357 312.449 41.2917 312.457 41.3477L313.885 45.8237L315.217 41.2997C315.225 41.2597 315.253 41.2157 315.301 41.1677C315.349 41.1197 315.417 41.0957 315.505 41.0957H316.033C316.105 41.0957 316.165 41.1197 316.213 41.1677C316.261 41.2157 316.285 41.2757 316.285 41.3477C316.285 41.3877 316.277 41.4277 316.261 41.4677L314.557 47.0357C314.533 47.1317 314.489 47.2077 314.425 47.2637C314.369 47.3117 314.285 47.3357 314.173 47.3357H313.705C313.601 47.3357 313.513 47.3117 313.441 47.2637C313.377 47.2077 313.333 47.1317 313.309 47.0357L311.917 42.7397L310.525 47.0357C310.493 47.1317 310.445 47.2077 310.381 47.2637C310.317 47.3117 310.229 47.3357 310.117 47.3357H309.649Z" fill="black" fill-opacity="0.55"/>
<path d="M303.824 47.4557C303.216 47.4557 302.708 47.3397 302.3 47.1077C301.892 46.8757 301.58 46.5557 301.364 46.1477C301.148 45.7317 301.028 45.2597 301.004 44.7317C300.996 44.5957 300.992 44.4237 300.992 44.2157C300.992 43.9997 300.996 43.8277 301.004 43.6997C301.028 43.1637 301.148 42.6917 301.364 42.2837C301.588 41.8757 301.904 41.5557 302.312 41.3237C302.72 41.0917 303.224 40.9757 303.824 40.9757C304.424 40.9757 304.928 41.0917 305.336 41.3237C305.744 41.5557 306.056 41.8757 306.272 42.2837C306.496 42.6917 306.62 43.1637 306.644 43.6997C306.652 43.8277 306.656 43.9997 306.656 44.2157C306.656 44.4237 306.652 44.5957 306.644 44.7317C306.62 45.2597 306.5 45.7317 306.284 46.1477C306.068 46.5557 305.756 46.8757 305.348 47.1077C304.94 47.3397 304.432 47.4557 303.824 47.4557ZM303.824 46.5317C304.32 46.5317 304.716 46.3757 305.012 46.0637C305.308 45.7437 305.468 45.2797 305.492 44.6717C305.5 44.5517 305.504 44.3997 305.504 44.2157C305.504 44.0317 305.5 43.8797 305.492 43.7597C305.468 43.1517 305.308 42.6917 305.012 42.3797C304.716 42.0597 304.32 41.8997 303.824 41.8997C303.328 41.8997 302.928 42.0597 302.624 42.3797C302.328 42.6917 302.172 43.1517 302.156 43.7597C302.148 43.8797 302.144 44.0317 302.144 44.2157C302.144 44.3997 302.148 44.5517 302.156 44.6717C302.172 45.2797 302.328 45.7437 302.624 46.0637C302.928 46.3757 303.328 46.5317 303.824 46.5317Z" fill="black" fill-opacity="0.55"/>
<path d="M298.637 47.3357C298.557 47.3357 298.489 47.3117 298.433 47.2637C298.385 47.2077 298.361 47.1397 298.361 47.0597V39.0917C298.361 39.0117 298.385 38.9477 298.433 38.8997C298.489 38.8437 298.557 38.8157 298.637 38.8157H299.201C299.289 38.8157 299.357 38.8437 299.405 38.8997C299.453 38.9477 299.477 39.0117 299.477 39.0917V47.0597C299.477 47.1397 299.453 47.2077 299.405 47.2637C299.357 47.3117 299.289 47.3357 299.201 47.3357H298.637Z" fill="black" fill-opacity="0.55"/>
<path d="M291.774 47.3357C291.686 47.3357 291.618 47.3117 291.57 47.2637C291.522 47.2077 291.498 47.1397 291.498 47.0597V39.2237C291.498 39.1357 291.522 39.0677 291.57 39.0197C291.618 38.9637 291.686 38.9357 291.774 38.9357H296.67C296.758 38.9357 296.826 38.9637 296.874 39.0197C296.922 39.0677 296.946 39.1357 296.946 39.2237V39.7037C296.946 39.7917 296.922 39.8597 296.874 39.9077C296.826 39.9557 296.758 39.9797 296.67 39.9797H292.662V42.7757H296.43C296.518 42.7757 296.586 42.8037 296.634 42.8597C296.682 42.9077 296.706 42.9757 296.706 43.0637V43.5437C296.706 43.6237 296.682 43.6917 296.634 43.7477C296.586 43.7957 296.518 43.8197 296.43 43.8197H292.662V47.0597C292.662 47.1397 292.634 47.2077 292.578 47.2637C292.53 47.3117 292.462 47.3357 292.374 47.3357H291.774Z" fill="black" fill-opacity="0.55"/>
<path d="M286.149 47.3357C285.701 47.3357 285.337 47.2517 285.057 47.0837C284.777 46.9077 284.573 46.6637 284.445 46.3517C284.317 46.0317 284.253 45.6557 284.253 45.2237V42.0557H283.317C283.237 42.0557 283.169 42.0317 283.113 41.9837C283.065 41.9277 283.041 41.8597 283.041 41.7797V41.3717C283.041 41.2917 283.065 41.2277 283.113 41.1797C283.169 41.1237 283.237 41.0957 283.317 41.0957H284.253V39.0917C284.253 39.0117 284.277 38.9477 284.325 38.8997C284.381 38.8437 284.449 38.8157 284.529 38.8157H285.093C285.173 38.8157 285.237 38.8437 285.285 38.8997C285.341 38.9477 285.369 39.0117 285.369 39.0917V41.0957H286.857C286.937 41.0957 287.001 41.1237 287.049 41.1797C287.105 41.2277 287.133 41.2917 287.133 41.3717V41.7797C287.133 41.8597 287.105 41.9277 287.049 41.9837C287.001 42.0317 286.937 42.0557 286.857 42.0557H285.369V45.1397C285.369 45.5157 285.433 45.8117 285.561 46.0277C285.689 46.2437 285.917 46.3517 286.245 46.3517H286.977C287.057 46.3517 287.121 46.3797 287.169 46.4357C287.225 46.4837 287.253 46.5477 287.253 46.6277V47.0597C287.253 47.1397 287.225 47.2077 287.169 47.2637C287.121 47.3117 287.057 47.3357 286.977 47.3357H286.149Z" fill="black" fill-opacity="0.55"/>
<path d="M276.794 47.3357C276.714 47.3357 276.646 47.3117 276.59 47.2637C276.542 47.2077 276.518 47.1397 276.518 47.0597V41.3717C276.518 41.2917 276.542 41.2277 276.59 41.1797C276.646 41.1237 276.714 41.0957 276.794 41.0957H277.358C277.438 41.0957 277.502 41.1237 277.55 41.1797C277.606 41.2277 277.634 41.2917 277.634 41.3717V41.8997C277.842 41.6277 278.102 41.4077 278.414 41.2397C278.734 41.0637 279.142 40.9757 279.638 40.9757C280.158 40.9757 280.598 41.0917 280.958 41.3237C281.326 41.5477 281.602 41.8637 281.786 42.2717C281.97 42.6717 282.062 43.1397 282.062 43.6757V47.0597C282.062 47.1397 282.038 47.2077 281.99 47.2637C281.942 47.3117 281.878 47.3357 281.798 47.3357H281.198C281.118 47.3357 281.05 47.3117 280.994 47.2637C280.946 47.2077 280.922 47.1397 280.922 47.0597V43.7357C280.922 43.1757 280.786 42.7397 280.514 42.4277C280.242 42.1077 279.842 41.9477 279.314 41.9477C278.818 41.9477 278.418 42.1077 278.114 42.4277C277.818 42.7397 277.67 43.1757 277.67 43.7357V47.0597C277.67 47.1397 277.642 47.2077 277.586 47.2637C277.538 47.3117 277.474 47.3357 277.394 47.3357H276.794Z" fill="black" fill-opacity="0.55"/>
<path d="M272.288 47.4557C271.464 47.4557 270.808 47.2037 270.32 46.6997C269.832 46.1877 269.564 45.4917 269.516 44.6117C269.508 44.5077 269.504 44.3757 269.504 44.2157C269.504 44.0477 269.508 43.9117 269.516 43.8077C269.548 43.2397 269.68 42.7437 269.912 42.3197C270.144 41.8877 270.46 41.5557 270.86 41.3237C271.268 41.0917 271.744 40.9757 272.288 40.9757C272.896 40.9757 273.404 41.1037 273.812 41.3597C274.228 41.6157 274.544 41.9797 274.76 42.4517C274.976 42.9237 275.084 43.4757 275.084 44.1077V44.3117C275.084 44.3997 275.056 44.4677 275 44.5157C274.952 44.5637 274.888 44.5877 274.808 44.5877H270.656C270.656 44.5957 270.656 44.6117 270.656 44.6357C270.656 44.6597 270.656 44.6797 270.656 44.6957C270.672 45.0237 270.744 45.3317 270.872 45.6197C271 45.8997 271.184 46.1277 271.424 46.3037C271.664 46.4797 271.952 46.5677 272.288 46.5677C272.576 46.5677 272.816 46.5237 273.008 46.4357C273.2 46.3477 273.356 46.2517 273.476 46.1477C273.596 46.0357 273.676 45.9517 273.716 45.8957C273.788 45.7917 273.844 45.7317 273.884 45.7157C273.924 45.6917 273.988 45.6797 274.076 45.6797H274.652C274.732 45.6797 274.796 45.7037 274.844 45.7517C274.9 45.7917 274.924 45.8517 274.916 45.9317C274.908 46.0517 274.844 46.1997 274.724 46.3757C274.604 46.5437 274.432 46.7117 274.208 46.8797C273.984 47.0477 273.712 47.1877 273.392 47.2997C273.072 47.4037 272.704 47.4557 272.288 47.4557ZM270.656 43.7597H273.944V43.7237C273.944 43.3637 273.876 43.0437 273.74 42.7637C273.612 42.4837 273.424 42.2637 273.176 42.1037C272.928 41.9357 272.632 41.8517 272.288 41.8517C271.944 41.8517 271.648 41.9357 271.4 42.1037C271.16 42.2637 270.976 42.4837 270.848 42.7637C270.72 43.0437 270.656 43.3637 270.656 43.7237V43.7597Z" fill="black" fill-opacity="0.55"/>
<path d="M265.553 47.3357C265.433 47.3357 265.337 47.3077 265.265 47.2517C265.201 47.1957 265.149 47.1237 265.109 47.0357L262.889 41.4677C262.873 41.4277 262.865 41.3877 262.865 41.3477C262.865 41.2757 262.889 41.2157 262.937 41.1677C262.985 41.1197 263.045 41.0957 263.117 41.0957H263.693C263.781 41.0957 263.849 41.1197 263.897 41.1677C263.945 41.2157 263.973 41.2597 263.981 41.2997L265.817 46.0277L267.641 41.2997C267.657 41.2597 267.685 41.2157 267.725 41.1677C267.773 41.1197 267.841 41.0957 267.929 41.0957H268.517C268.581 41.0957 268.637 41.1197 268.685 41.1677C268.741 41.2157 268.769 41.2757 268.769 41.3477C268.769 41.3877 268.761 41.4277 268.745 41.4677L266.513 47.0357C266.481 47.1237 266.429 47.1957 266.357 47.2517C266.293 47.3077 266.197 47.3357 266.069 47.3357H265.553Z" fill="black" fill-opacity="0.55"/>
<path d="M256.712 47.3357C256.624 47.3357 256.556 47.3117 256.508 47.2637C256.46 47.2077 256.436 47.1397 256.436 47.0597V39.2237C256.436 39.1357 256.46 39.0677 256.508 39.0197C256.556 38.9637 256.624 38.9357 256.712 38.9357H261.668C261.756 38.9357 261.824 38.9637 261.872 39.0197C261.92 39.0677 261.944 39.1357 261.944 39.2237V39.6797C261.944 39.7677 261.92 39.8357 261.872 39.8837C261.824 39.9317 261.756 39.9557 261.668 39.9557H257.588V42.5837H261.404C261.492 42.5837 261.56 42.6117 261.608 42.6677C261.656 42.7157 261.68 42.7837 261.68 42.8717V43.3157C261.68 43.3957 261.656 43.4637 261.608 43.5197C261.56 43.5677 261.492 43.5917 261.404 43.5917H257.588V46.3157H261.764C261.852 46.3157 261.92 46.3397 261.968 46.3877C262.016 46.4357 262.04 46.5037 262.04 46.5917V47.0597C262.04 47.1397 262.016 47.2077 261.968 47.2637C261.92 47.3117 261.852 47.3357 261.764 47.3357H256.712Z" fill="black" fill-opacity="0.55"/>
<path d="M322.327 29.3357C322.247 29.3357 322.179 29.3117 322.123 29.2637C322.075 29.2077 322.051 29.1397 322.051 29.0597V21.0917C322.051 21.0117 322.075 20.9477 322.123 20.8997C322.179 20.8437 322.247 20.8157 322.327 20.8157H322.891C322.979 20.8157 323.047 20.8437 323.095 20.8997C323.143 20.9477 323.167 21.0117 323.167 21.0917V29.0597C323.167 29.1397 323.143 29.2077 323.095 29.2637C323.047 29.3117 322.979 29.3357 322.891 29.3357H322.327Z" fill="black" fill-opacity="0.55"/>
<path d="M317.159 29.4557C316.759 29.4557 316.395 29.3757 316.067 29.2157C315.739 29.0557 315.475 28.8397 315.275 28.5677C315.075 28.2957 314.975 27.9877 314.975 27.6437C314.975 27.0917 315.199 26.6517 315.647 26.3237C316.095 25.9957 316.679 25.7797 317.399 25.6757L319.187 25.4237V25.0757C319.187 24.6917 319.075 24.3917 318.851 24.1757C318.635 23.9597 318.279 23.8517 317.783 23.8517C317.423 23.8517 317.131 23.9237 316.907 24.0677C316.691 24.2117 316.539 24.3957 316.451 24.6197C316.403 24.7397 316.319 24.7997 316.199 24.7997H315.659C315.571 24.7997 315.503 24.7757 315.455 24.7277C315.415 24.6717 315.395 24.6077 315.395 24.5357C315.395 24.4157 315.439 24.2677 315.527 24.0917C315.623 23.9157 315.767 23.7437 315.959 23.5757C316.151 23.4077 316.395 23.2677 316.691 23.1557C316.995 23.0357 317.363 22.9757 317.795 22.9757C318.275 22.9757 318.679 23.0397 319.007 23.1677C319.335 23.2877 319.591 23.4517 319.775 23.6597C319.967 23.8677 320.103 24.1037 320.183 24.3677C320.271 24.6317 320.315 24.8997 320.315 25.1717V29.0597C320.315 29.1397 320.287 29.2077 320.231 29.2637C320.183 29.3117 320.119 29.3357 320.039 29.3357H319.487C319.399 29.3357 319.331 29.3117 319.283 29.2637C319.235 29.2077 319.211 29.1397 319.211 29.0597V28.5437C319.107 28.6877 318.967 28.8317 318.791 28.9757C318.615 29.1117 318.395 29.2277 318.131 29.3237C317.867 29.4117 317.543 29.4557 317.159 29.4557ZM317.411 28.5557C317.739 28.5557 318.039 28.4877 318.311 28.3517C318.583 28.2077 318.795 27.9877 318.947 27.6917C319.107 27.3957 319.187 27.0237 319.187 26.5757V26.2397L317.795 26.4437C317.227 26.5237 316.799 26.6597 316.511 26.8517C316.223 27.0357 316.079 27.2717 316.079 27.5597C316.079 27.7837 316.143 27.9717 316.271 28.1237C316.407 28.2677 316.575 28.3757 316.775 28.4477C316.983 28.5197 317.195 28.5557 317.411 28.5557Z" fill="black" fill-opacity="0.55"/>
<path d="M308.417 29.3357C308.337 29.3357 308.269 29.3117 308.213 29.2637C308.165 29.2077 308.141 29.1397 308.141 29.0597V23.3717C308.141 23.2917 308.165 23.2277 308.213 23.1797C308.269 23.1237 308.337 23.0957 308.417 23.0957H308.981C309.061 23.0957 309.125 23.1237 309.173 23.1797C309.229 23.2277 309.257 23.2917 309.257 23.3717V23.8997C309.465 23.6277 309.725 23.4077 310.037 23.2397C310.357 23.0637 310.765 22.9757 311.261 22.9757C311.781 22.9757 312.221 23.0917 312.581 23.3237C312.949 23.5477 313.225 23.8637 313.409 24.2717C313.593 24.6717 313.685 25.1397 313.685 25.6757V29.0597C313.685 29.1397 313.661 29.2077 313.613 29.2637C313.565 29.3117 313.501 29.3357 313.421 29.3357H312.821C312.741 29.3357 312.673 29.3117 312.617 29.2637C312.569 29.2077 312.545 29.1397 312.545 29.0597V25.7357C312.545 25.1757 312.409 24.7397 312.137 24.4277C311.865 24.1077 311.465 23.9477 310.937 23.9477C310.441 23.9477 310.041 24.1077 309.737 24.4277C309.441 24.7397 309.293 25.1757 309.293 25.7357V29.0597C309.293 29.1397 309.265 29.2077 309.209 29.2637C309.161 29.3117 309.097 29.3357 309.017 29.3357H308.417Z" fill="black" fill-opacity="0.55"/>
<path d="M303.807 29.4557C303.199 29.4557 302.691 29.3397 302.283 29.1077C301.875 28.8757 301.563 28.5557 301.347 28.1477C301.131 27.7317 301.011 27.2597 300.987 26.7317C300.979 26.5957 300.975 26.4237 300.975 26.2157C300.975 25.9997 300.979 25.8277 300.987 25.6997C301.011 25.1637 301.131 24.6917 301.347 24.2837C301.571 23.8757 301.887 23.5557 302.295 23.3237C302.703 23.0917 303.207 22.9757 303.807 22.9757C304.407 22.9757 304.911 23.0917 305.319 23.3237C305.727 23.5557 306.039 23.8757 306.255 24.2837C306.479 24.6917 306.603 25.1637 306.627 25.6997C306.635 25.8277 306.639 25.9997 306.639 26.2157C306.639 26.4237 306.635 26.5957 306.627 26.7317C306.603 27.2597 306.483 27.7317 306.267 28.1477C306.051 28.5557 305.739 28.8757 305.331 29.1077C304.923 29.3397 304.415 29.4557 303.807 29.4557ZM303.807 28.5317C304.303 28.5317 304.699 28.3757 304.995 28.0637C305.291 27.7437 305.451 27.2797 305.475 26.6717C305.483 26.5517 305.487 26.3997 305.487 26.2157C305.487 26.0317 305.483 25.8797 305.475 25.7597C305.451 25.1517 305.291 24.6917 304.995 24.3797C304.699 24.0597 304.303 23.8997 303.807 23.8997C303.311 23.8997 302.911 24.0597 302.607 24.3797C302.311 24.6917 302.155 25.1517 302.139 25.7597C302.131 25.8797 302.127 26.0317 302.127 26.2157C302.127 26.3997 302.131 26.5517 302.139 26.6717C302.155 27.2797 302.311 27.7437 302.607 28.0637C302.911 28.3757 303.311 28.5317 303.807 28.5317Z" fill="black" fill-opacity="0.55"/>
<path d="M298.597 29.3357C298.517 29.3357 298.449 29.3117 298.393 29.2637C298.345 29.2077 298.321 29.1397 298.321 29.0597V23.3717C298.321 23.2917 298.345 23.2277 298.393 23.1797C298.449 23.1237 298.517 23.0957 298.597 23.0957H299.173C299.253 23.0957 299.317 23.1237 299.365 23.1797C299.413 23.2277 299.437 23.2917 299.437 23.3717V29.0597C299.437 29.1397 299.413 29.2077 299.365 29.2637C299.317 29.3117 299.253 29.3357 299.173 29.3357H298.597ZM298.501 21.9317C298.421 21.9317 298.353 21.9077 298.297 21.8597C298.249 21.8037 298.225 21.7357 298.225 21.6557V21.0077C298.225 20.9277 298.249 20.8637 298.297 20.8157C298.353 20.7597 298.421 20.7317 298.501 20.7317H299.257C299.337 20.7317 299.401 20.7597 299.449 20.8157C299.505 20.8637 299.533 20.9277 299.533 21.0077V21.6557C299.533 21.7357 299.505 21.8037 299.449 21.8597C299.401 21.9077 299.337 21.9317 299.257 21.9317H298.501Z" fill="black" fill-opacity="0.55"/>
<path d="M296.069 29.3357C295.621 29.3357 295.257 29.2517 294.977 29.0837C294.697 28.9077 294.493 28.6637 294.365 28.3517C294.237 28.0317 294.173 27.6557 294.173 27.2237V24.0557H293.237C293.157 24.0557 293.089 24.0317 293.033 23.9837C292.985 23.9277 292.961 23.8597 292.961 23.7797V23.3717C292.961 23.2917 292.985 23.2277 293.033 23.1797C293.089 23.1237 293.157 23.0957 293.237 23.0957H294.173V21.0917C294.173 21.0117 294.197 20.9477 294.245 20.8997C294.301 20.8437 294.369 20.8157 294.449 20.8157H295.013C295.093 20.8157 295.157 20.8437 295.205 20.8997C295.261 20.9477 295.289 21.0117 295.289 21.0917V23.0957H296.777C296.857 23.0957 296.921 23.1237 296.969 23.1797C297.025 23.2277 297.053 23.2917 297.053 23.3717V23.7797C297.053 23.8597 297.025 23.9277 296.969 23.9837C296.921 24.0317 296.857 24.0557 296.777 24.0557H295.289V27.1397C295.289 27.5157 295.353 27.8117 295.481 28.0277C295.609 28.2437 295.837 28.3517 296.165 28.3517H296.897C296.977 28.3517 297.041 28.3797 297.089 28.4357C297.145 28.4837 297.173 28.5477 297.173 28.6277V29.0597C297.173 29.1397 297.145 29.2077 297.089 29.2637C297.041 29.3117 296.977 29.3357 296.897 29.3357H296.069Z" fill="black" fill-opacity="0.55"/>
<path d="M289.532 29.4557C288.964 29.4557 288.472 29.3477 288.056 29.1317C287.648 28.9077 287.332 28.5917 287.108 28.1837C286.884 27.7677 286.764 27.2717 286.748 26.6957C286.74 26.5757 286.736 26.4157 286.736 26.2157C286.736 26.0157 286.74 25.8557 286.748 25.7357C286.764 25.1597 286.884 24.6677 287.108 24.2597C287.332 23.8437 287.648 23.5277 288.056 23.3117C288.472 23.0877 288.964 22.9757 289.532 22.9757C289.996 22.9757 290.392 23.0397 290.72 23.1677C291.056 23.2957 291.332 23.4597 291.548 23.6597C291.764 23.8597 291.924 24.0757 292.028 24.3077C292.14 24.5397 292.2 24.7597 292.208 24.9677C292.216 25.0477 292.192 25.1117 292.136 25.1597C292.08 25.2077 292.012 25.2317 291.932 25.2317H291.356C291.276 25.2317 291.216 25.2157 291.176 25.1837C291.136 25.1437 291.096 25.0797 291.056 24.9917C290.912 24.5997 290.716 24.3237 290.468 24.1637C290.22 24.0037 289.912 23.9237 289.544 23.9237C289.064 23.9237 288.672 24.0717 288.368 24.3677C288.072 24.6637 287.912 25.1397 287.888 25.7957C287.88 26.0837 287.88 26.3637 287.888 26.6357C287.912 27.2997 288.072 27.7797 288.368 28.0757C288.672 28.3637 289.064 28.5077 289.544 28.5077C289.912 28.5077 290.22 28.4277 290.468 28.2677C290.716 28.1077 290.912 27.8317 291.056 27.4397C291.096 27.3517 291.136 27.2917 291.176 27.2597C291.216 27.2197 291.276 27.1997 291.356 27.1997H291.932C292.012 27.1997 292.08 27.2237 292.136 27.2717C292.192 27.3197 292.216 27.3837 292.208 27.4637C292.2 27.6317 292.164 27.8037 292.1 27.9797C292.036 28.1557 291.932 28.3357 291.788 28.5197C291.652 28.6957 291.48 28.8557 291.272 28.9997C291.064 29.1357 290.812 29.2477 290.516 29.3357C290.228 29.4157 289.9 29.4557 289.532 29.4557Z" fill="black" fill-opacity="0.55"/>
<path d="M282.78 29.4557C281.956 29.4557 281.3 29.2037 280.812 28.6997C280.324 28.1877 280.056 27.4917 280.008 26.6117C280 26.5077 279.996 26.3757 279.996 26.2157C279.996 26.0477 280 25.9117 280.008 25.8077C280.04 25.2397 280.172 24.7437 280.404 24.3197C280.636 23.8877 280.952 23.5557 281.352 23.3237C281.76 23.0917 282.236 22.9757 282.78 22.9757C283.388 22.9757 283.896 23.1037 284.304 23.3597C284.72 23.6157 285.036 23.9797 285.252 24.4517C285.468 24.9237 285.576 25.4757 285.576 26.1077V26.3117C285.576 26.3997 285.548 26.4677 285.492 26.5157C285.444 26.5637 285.38 26.5877 285.3 26.5877H281.148C281.148 26.5957 281.148 26.6117 281.148 26.6357C281.148 26.6597 281.148 26.6797 281.148 26.6957C281.164 27.0237 281.236 27.3317 281.364 27.6197C281.492 27.8997 281.676 28.1277 281.916 28.3037C282.156 28.4797 282.444 28.5677 282.78 28.5677C283.068 28.5677 283.308 28.5237 283.5 28.4357C283.692 28.3477 283.848 28.2517 283.968 28.1477C284.088 28.0357 284.168 27.9517 284.208 27.8957C284.28 27.7917 284.336 27.7317 284.376 27.7157C284.416 27.6917 284.48 27.6797 284.568 27.6797H285.144C285.224 27.6797 285.288 27.7037 285.336 27.7517C285.392 27.7917 285.416 27.8517 285.408 27.9317C285.4 28.0517 285.336 28.1997 285.216 28.3757C285.096 28.5437 284.924 28.7117 284.7 28.8797C284.476 29.0477 284.204 29.1877 283.884 29.2997C283.564 29.4037 283.196 29.4557 282.78 29.4557ZM281.148 25.7597H284.436V25.7237C284.436 25.3637 284.368 25.0437 284.232 24.7637C284.104 24.4837 283.916 24.2637 283.668 24.1037C283.42 23.9357 283.124 23.8517 282.78 23.8517C282.436 23.8517 282.14 23.9357 281.892 24.1037C281.652 24.2637 281.468 24.4837 281.34 24.7637C281.212 25.0437 281.148 25.3637 281.148 25.7237V25.7597Z" fill="black" fill-opacity="0.55"/>
<path d="M276.131 29.3357C276.051 29.3357 275.983 29.3117 275.927 29.2637C275.879 29.2077 275.855 29.1397 275.855 29.0597V23.3837C275.855 23.3037 275.879 23.2357 275.927 23.1797C275.983 23.1237 276.051 23.0957 276.131 23.0957H276.683C276.763 23.0957 276.831 23.1237 276.887 23.1797C276.943 23.2357 276.971 23.3037 276.971 23.3837V23.9117C277.131 23.6397 277.351 23.4357 277.631 23.2997C277.911 23.1637 278.247 23.0957 278.639 23.0957H279.119C279.199 23.0957 279.263 23.1237 279.311 23.1797C279.359 23.2277 279.383 23.2917 279.383 23.3717V23.8637C279.383 23.9437 279.359 24.0077 279.311 24.0557C279.263 24.1037 279.199 24.1277 279.119 24.1277H278.399C277.967 24.1277 277.627 24.2557 277.379 24.5117C277.131 24.7597 277.007 25.0997 277.007 25.5317V29.0597C277.007 29.1397 276.979 29.2077 276.923 29.2637C276.867 29.3117 276.799 29.3357 276.719 29.3357H276.131Z" fill="black" fill-opacity="0.55"/>
<path d="M273.108 29.3357C273.028 29.3357 272.96 29.3117 272.904 29.2637C272.856 29.2077 272.832 29.1397 272.832 29.0597V23.3717C272.832 23.2917 272.856 23.2277 272.904 23.1797C272.96 23.1237 273.028 23.0957 273.108 23.0957H273.684C273.764 23.0957 273.828 23.1237 273.876 23.1797C273.924 23.2277 273.948 23.2917 273.948 23.3717V29.0597C273.948 29.1397 273.924 29.2077 273.876 29.2637C273.828 29.3117 273.764 29.3357 273.684 29.3357H273.108ZM273.012 21.9317C272.932 21.9317 272.864 21.9077 272.808 21.8597C272.76 21.8037 272.736 21.7357 272.736 21.6557V21.0077C272.736 20.9277 272.76 20.8637 272.808 20.8157C272.864 20.7597 272.932 20.7317 273.012 20.7317H273.768C273.848 20.7317 273.912 20.7597 273.96 20.8157C274.016 20.8637 274.044 20.9277 274.044 21.0077V21.6557C274.044 21.7357 274.016 21.8037 273.96 21.8597C273.912 21.9077 273.848 21.9317 273.768 21.9317H273.012Z" fill="black" fill-opacity="0.55"/>
<path d="M267.974 29.4557C267.534 29.4557 267.154 29.3797 266.834 29.2277C266.514 29.0677 266.25 28.8557 266.042 28.5917C265.842 28.3197 265.69 28.0117 265.586 27.6677C265.49 27.3237 265.434 26.9597 265.418 26.5757C265.41 26.4477 265.406 26.3277 265.406 26.2157C265.406 26.1037 265.41 25.9837 265.418 25.8557C265.434 25.4797 265.49 25.1197 265.586 24.7757C265.69 24.4317 265.842 24.1237 266.042 23.8517C266.25 23.5797 266.514 23.3677 266.834 23.2157C267.154 23.0557 267.534 22.9757 267.974 22.9757C268.446 22.9757 268.838 23.0597 269.15 23.2277C269.462 23.3957 269.718 23.6037 269.918 23.8517V21.0917C269.918 21.0117 269.942 20.9477 269.99 20.8997C270.046 20.8437 270.114 20.8157 270.194 20.8157H270.77C270.85 20.8157 270.914 20.8437 270.962 20.8997C271.018 20.9477 271.046 21.0117 271.046 21.0917V29.0597C271.046 29.1397 271.018 29.2077 270.962 29.2637C270.914 29.3117 270.85 29.3357 270.77 29.3357H270.23C270.142 29.3357 270.074 29.3117 270.026 29.2637C269.978 29.2077 269.954 29.1397 269.954 29.0597V28.5557C269.754 28.8117 269.494 29.0277 269.174 29.2037C268.854 29.3717 268.454 29.4557 267.974 29.4557ZM268.226 28.4837C268.626 28.4837 268.946 28.3917 269.186 28.2077C269.426 28.0237 269.606 27.7917 269.726 27.5117C269.846 27.2237 269.91 26.9317 269.918 26.6357C269.926 26.5077 269.93 26.3557 269.93 26.1797C269.93 25.9957 269.926 25.8397 269.918 25.7117C269.91 25.4317 269.842 25.1557 269.714 24.8837C269.594 24.6117 269.41 24.3877 269.162 24.2117C268.922 24.0357 268.61 23.9477 268.226 23.9477C267.818 23.9477 267.494 24.0397 267.254 24.2237C267.014 24.3997 266.842 24.6357 266.738 24.9317C266.634 25.2197 266.574 25.5317 266.558 25.8677C266.55 26.0997 266.55 26.3317 266.558 26.5637C266.574 26.8997 266.634 27.2157 266.738 27.5117C266.842 27.7997 267.014 28.0357 267.254 28.2197C267.494 28.3957 267.818 28.4837 268.226 28.4837Z" fill="black" fill-opacity="0.55"/>
<path d="M260.098 26.2397C260.018 26.2397 259.95 26.2157 259.894 26.1677C259.846 26.1117 259.822 26.0437 259.822 25.9637V25.5077C259.822 25.4277 259.846 25.3637 259.894 25.3157C259.95 25.2597 260.018 25.2317 260.098 25.2317H263.698C263.778 25.2317 263.842 25.2597 263.89 25.3157C263.946 25.3637 263.974 25.4277 263.974 25.5077V25.9637C263.974 26.0437 263.946 26.1117 263.89 26.1677C263.842 26.2157 263.778 26.2397 263.698 26.2397H260.098Z" fill="black" fill-opacity="0.55"/>
<path d="M257.253 29.3357C257.173 29.3357 257.105 29.3117 257.049 29.2637C257.001 29.2077 256.977 29.1397 256.977 29.0597V23.3717C256.977 23.2917 257.001 23.2277 257.049 23.1797C257.105 23.1237 257.173 23.0957 257.253 23.0957H257.829C257.909 23.0957 257.973 23.1237 258.021 23.1797C258.069 23.2277 258.093 23.2917 258.093 23.3717V29.0597C258.093 29.1397 258.069 29.2077 258.021 29.2637C257.973 29.3117 257.909 29.3357 257.829 29.3357H257.253ZM257.157 21.9317C257.077 21.9317 257.009 21.9077 256.953 21.8597C256.905 21.8037 256.881 21.7357 256.881 21.6557V21.0077C256.881 20.9277 256.905 20.8637 256.953 20.8157C257.009 20.7597 257.077 20.7317 257.157 20.7317H257.913C257.993 20.7317 258.057 20.7597 258.105 20.8157C258.161 20.8637 258.189 20.9277 258.189 21.0077V21.6557C258.189 21.7357 258.161 21.8037 258.105 21.8597C258.057 21.9077 257.993 21.9317 257.913 21.9317H257.157Z" fill="black" fill-opacity="0.55"/>
<path d="M249.37 29.3357C249.282 29.3357 249.214 29.3117 249.166 29.2637C249.118 29.2077 249.094 29.1397 249.094 29.0597V21.2237C249.094 21.1357 249.118 21.0677 249.166 21.0197C249.214 20.9637 249.282 20.9357 249.37 20.9357H252.658C253.258 20.9357 253.746 21.0357 254.122 21.2357C254.506 21.4277 254.786 21.6917 254.962 22.0277C255.146 22.3637 255.238 22.7397 255.238 23.1557C255.238 23.4837 255.182 23.7677 255.07 24.0077C254.966 24.2397 254.834 24.4317 254.674 24.5837C254.514 24.7277 254.358 24.8397 254.206 24.9197C254.518 25.0717 254.794 25.3197 255.034 25.6637C255.282 26.0077 255.406 26.4237 255.406 26.9117C255.406 27.3517 255.306 27.7557 255.106 28.1237C254.906 28.4917 254.606 28.7877 254.206 29.0117C253.814 29.2277 253.326 29.3357 252.742 29.3357H249.37ZM250.27 28.3637H252.586C253.106 28.3637 253.506 28.2237 253.786 27.9437C254.066 27.6637 254.206 27.3197 254.206 26.9117C254.206 26.4877 254.066 26.1397 253.786 25.8677C253.506 25.5877 253.106 25.4477 252.586 25.4477H250.27V28.3637ZM250.27 24.4877H252.478C252.99 24.4877 253.378 24.3717 253.642 24.1397C253.906 23.8997 254.038 23.5757 254.038 23.1677C254.038 22.7597 253.906 22.4477 253.642 22.2317C253.378 22.0157 252.99 21.9077 252.478 21.9077H250.27V24.4877Z" fill="black" fill-opacity="0.55"/>
<path d="M146.649 48.8357C146.545 48.8357 146.465 48.8117 146.409 48.7637C146.353 48.7077 146.305 48.6317 146.265 48.5357L144.561 42.9677C144.545 42.9277 144.537 42.8877 144.537 42.8477C144.537 42.7757 144.561 42.7157 144.609 42.6677C144.665 42.6197 144.725 42.5957 144.789 42.5957H145.317C145.405 42.5957 145.473 42.6197 145.521 42.6677C145.569 42.7157 145.601 42.7597 145.617 42.7997L146.949 47.3237L148.377 42.8477C148.393 42.7917 148.425 42.7357 148.473 42.6797C148.529 42.6237 148.609 42.5957 148.713 42.5957H149.121C149.225 42.5957 149.305 42.6237 149.361 42.6797C149.417 42.7357 149.449 42.7917 149.457 42.8477L150.885 47.3237L152.217 42.7997C152.225 42.7597 152.253 42.7157 152.301 42.6677C152.349 42.6197 152.417 42.5957 152.505 42.5957H153.033C153.105 42.5957 153.165 42.6197 153.213 42.6677C153.261 42.7157 153.285 42.7757 153.285 42.8477C153.285 42.8877 153.277 42.9277 153.261 42.9677L151.557 48.5357C151.533 48.6317 151.489 48.7077 151.425 48.7637C151.369 48.8117 151.285 48.8357 151.173 48.8357H150.705C150.601 48.8357 150.513 48.8117 150.441 48.7637C150.377 48.7077 150.333 48.6317 150.309 48.5357L148.917 44.2397L147.525 48.5357C147.493 48.6317 147.445 48.7077 147.381 48.7637C147.317 48.8117 147.229 48.8357 147.117 48.8357H146.649Z" fill="black" fill-opacity="0.55"/>
<path d="M140.824 48.9557C140.216 48.9557 139.708 48.8397 139.3 48.6077C138.892 48.3757 138.58 48.0557 138.364 47.6477C138.148 47.2317 138.028 46.7597 138.004 46.2317C137.996 46.0957 137.992 45.9237 137.992 45.7157C137.992 45.4997 137.996 45.3277 138.004 45.1997C138.028 44.6637 138.148 44.1917 138.364 43.7837C138.588 43.3757 138.904 43.0557 139.312 42.8237C139.72 42.5917 140.224 42.4757 140.824 42.4757C141.424 42.4757 141.928 42.5917 142.336 42.8237C142.744 43.0557 143.056 43.3757 143.272 43.7837C143.496 44.1917 143.62 44.6637 143.644 45.1997C143.652 45.3277 143.656 45.4997 143.656 45.7157C143.656 45.9237 143.652 46.0957 143.644 46.2317C143.62 46.7597 143.5 47.2317 143.284 47.6477C143.068 48.0557 142.756 48.3757 142.348 48.6077C141.94 48.8397 141.432 48.9557 140.824 48.9557ZM140.824 48.0317C141.32 48.0317 141.716 47.8757 142.012 47.5637C142.308 47.2437 142.468 46.7797 142.492 46.1717C142.5 46.0517 142.504 45.8997 142.504 45.7157C142.504 45.5317 142.5 45.3797 142.492 45.2597C142.468 44.6517 142.308 44.1917 142.012 43.8797C141.716 43.5597 141.32 43.3997 140.824 43.3997C140.328 43.3997 139.928 43.5597 139.624 43.8797C139.328 44.1917 139.172 44.6517 139.156 45.2597C139.148 45.3797 139.144 45.5317 139.144 45.7157C139.144 45.8997 139.148 46.0517 139.156 46.1717C139.172 46.7797 139.328 47.2437 139.624 47.5637C139.928 47.8757 140.328 48.0317 140.824 48.0317Z" fill="black" fill-opacity="0.55"/>
<path d="M135.637 48.8357C135.557 48.8357 135.489 48.8117 135.433 48.7637C135.385 48.7077 135.361 48.6397 135.361 48.5597V40.5917C135.361 40.5117 135.385 40.4477 135.433 40.3997C135.489 40.3437 135.557 40.3157 135.637 40.3157H136.201C136.289 40.3157 136.357 40.3437 136.405 40.3997C136.453 40.4477 136.477 40.5117 136.477 40.5917V48.5597C136.477 48.6397 136.453 48.7077 136.405 48.7637C136.357 48.8117 136.289 48.8357 136.201 48.8357H135.637Z" fill="black" fill-opacity="0.55"/>
<path d="M128.774 48.8357C128.686 48.8357 128.618 48.8117 128.57 48.7637C128.522 48.7077 128.498 48.6397 128.498 48.5597V40.7237C128.498 40.6357 128.522 40.5677 128.57 40.5197C128.618 40.4637 128.686 40.4357 128.774 40.4357H133.67C133.758 40.4357 133.826 40.4637 133.874 40.5197C133.922 40.5677 133.946 40.6357 133.946 40.7237V41.2037C133.946 41.2917 133.922 41.3597 133.874 41.4077C133.826 41.4557 133.758 41.4797 133.67 41.4797H129.662V44.2757H133.43C133.518 44.2757 133.586 44.3037 133.634 44.3597C133.682 44.4077 133.706 44.4757 133.706 44.5637V45.0437C133.706 45.1237 133.682 45.1917 133.634 45.2477C133.586 45.2957 133.518 45.3197 133.43 45.3197H129.662V48.5597C129.662 48.6397 129.634 48.7077 129.578 48.7637C129.53 48.8117 129.462 48.8357 129.374 48.8357H128.774Z" fill="black" fill-opacity="0.55"/>
<path d="M123.149 48.8357C122.701 48.8357 122.337 48.7517 122.057 48.5837C121.777 48.4077 121.573 48.1637 121.445 47.8517C121.317 47.5317 121.253 47.1557 121.253 46.7237V43.5557H120.317C120.237 43.5557 120.169 43.5317 120.113 43.4837C120.065 43.4277 120.041 43.3597 120.041 43.2797V42.8717C120.041 42.7917 120.065 42.7277 120.113 42.6797C120.169 42.6237 120.237 42.5957 120.317 42.5957H121.253V40.5917C121.253 40.5117 121.277 40.4477 121.325 40.3997C121.381 40.3437 121.449 40.3157 121.529 40.3157H122.093C122.173 40.3157 122.237 40.3437 122.285 40.3997C122.341 40.4477 122.369 40.5117 122.369 40.5917V42.5957H123.857C123.937 42.5957 124.001 42.6237 124.049 42.6797C124.105 42.7277 124.133 42.7917 124.133 42.8717V43.2797C124.133 43.3597 124.105 43.4277 124.049 43.4837C124.001 43.5317 123.937 43.5557 123.857 43.5557H122.369V46.6397C122.369 47.0157 122.433 47.3117 122.561 47.5277C122.689 47.7437 122.917 47.8517 123.245 47.8517H123.977C124.057 47.8517 124.121 47.8797 124.169 47.9357C124.225 47.9837 124.253 48.0477 124.253 48.1277V48.5597C124.253 48.6397 124.225 48.7077 124.169 48.7637C124.121 48.8117 124.057 48.8357 123.977 48.8357H123.149Z" fill="black" fill-opacity="0.55"/>
<path d="M113.794 48.8357C113.714 48.8357 113.646 48.8117 113.59 48.7637C113.542 48.7077 113.518 48.6397 113.518 48.5597V42.8717C113.518 42.7917 113.542 42.7277 113.59 42.6797C113.646 42.6237 113.714 42.5957 113.794 42.5957H114.358C114.438 42.5957 114.502 42.6237 114.55 42.6797C114.606 42.7277 114.634 42.7917 114.634 42.8717V43.3997C114.842 43.1277 115.102 42.9077 115.414 42.7397C115.734 42.5637 116.142 42.4757 116.638 42.4757C117.158 42.4757 117.598 42.5917 117.958 42.8237C118.326 43.0477 118.602 43.3637 118.786 43.7717C118.97 44.1717 119.062 44.6397 119.062 45.1757V48.5597C119.062 48.6397 119.038 48.7077 118.99 48.7637C118.942 48.8117 118.878 48.8357 118.798 48.8357H118.198C118.118 48.8357 118.05 48.8117 117.994 48.7637C117.946 48.7077 117.922 48.6397 117.922 48.5597V45.2357C117.922 44.6757 117.786 44.2397 117.514 43.9277C117.242 43.6077 116.842 43.4477 116.314 43.4477C115.818 43.4477 115.418 43.6077 115.114 43.9277C114.818 44.2397 114.67 44.6757 114.67 45.2357V48.5597C114.67 48.6397 114.642 48.7077 114.586 48.7637C114.538 48.8117 114.474 48.8357 114.394 48.8357H113.794Z" fill="black" fill-opacity="0.55"/>
<path d="M109.288 48.9557C108.464 48.9557 107.808 48.7037 107.32 48.1997C106.832 47.6877 106.564 46.9917 106.516 46.1117C106.508 46.0077 106.504 45.8757 106.504 45.7157C106.504 45.5477 106.508 45.4117 106.516 45.3077C106.548 44.7397 106.68 44.2437 106.912 43.8197C107.144 43.3877 107.46 43.0557 107.86 42.8237C108.268 42.5917 108.744 42.4757 109.288 42.4757C109.896 42.4757 110.404 42.6037 110.812 42.8597C111.228 43.1157 111.544 43.4797 111.76 43.9517C111.976 44.4237 112.084 44.9757 112.084 45.6077V45.8117C112.084 45.8997 112.056 45.9677 112 46.0157C111.952 46.0637 111.888 46.0877 111.808 46.0877H107.656C107.656 46.0957 107.656 46.1117 107.656 46.1357C107.656 46.1597 107.656 46.1797 107.656 46.1957C107.672 46.5237 107.744 46.8317 107.872 47.1197C108 47.3997 108.184 47.6277 108.424 47.8037C108.664 47.9797 108.952 48.0677 109.288 48.0677C109.576 48.0677 109.816 48.0237 110.008 47.9357C110.2 47.8477 110.356 47.7517 110.476 47.6477C110.596 47.5357 110.676 47.4517 110.716 47.3957C110.788 47.2917 110.844 47.2317 110.884 47.2157C110.924 47.1917 110.988 47.1797 111.076 47.1797H111.652C111.732 47.1797 111.796 47.2037 111.844 47.2517C111.9 47.2917 111.924 47.3517 111.916 47.4317C111.908 47.5517 111.844 47.6997 111.724 47.8757C111.604 48.0437 111.432 48.2117 111.208 48.3797C110.984 48.5477 110.712 48.6877 110.392 48.7997C110.072 48.9037 109.704 48.9557 109.288 48.9557ZM107.656 45.2597H110.944V45.2237C110.944 44.8637 110.876 44.5437 110.74 44.2637C110.612 43.9837 110.424 43.7637 110.176 43.6037C109.928 43.4357 109.632 43.3517 109.288 43.3517C108.944 43.3517 108.648 43.4357 108.4 43.6037C108.16 43.7637 107.976 43.9837 107.848 44.2637C107.72 44.5437 107.656 44.8637 107.656 45.2237V45.2597Z" fill="black" fill-opacity="0.55"/>
<path d="M102.553 48.8357C102.433 48.8357 102.337 48.8077 102.265 48.7517C102.201 48.6957 102.149 48.6237 102.109 48.5357L99.8892 42.9677C99.8732 42.9277 99.8652 42.8877 99.8652 42.8477C99.8652 42.7757 99.8892 42.7157 99.9372 42.6677C99.9852 42.6197 100.045 42.5957 100.117 42.5957H100.693C100.781 42.5957 100.849 42.6197 100.897 42.6677C100.945 42.7157 100.973 42.7597 100.981 42.7997L102.817 47.5277L104.641 42.7997C104.657 42.7597 104.685 42.7157 104.725 42.6677C104.773 42.6197 104.841 42.5957 104.929 42.5957H105.517C105.581 42.5957 105.637 42.6197 105.685 42.6677C105.741 42.7157 105.769 42.7757 105.769 42.8477C105.769 42.8877 105.761 42.9277 105.745 42.9677L103.513 48.5357C103.481 48.6237 103.429 48.6957 103.357 48.7517C103.293 48.8077 103.197 48.8357 103.069 48.8357H102.553Z" fill="black" fill-opacity="0.55"/>
<path d="M93.7115 48.8357C93.6235 48.8357 93.5555 48.8117 93.5075 48.7637C93.4595 48.7077 93.4355 48.6397 93.4355 48.5597V40.7237C93.4355 40.6357 93.4595 40.5677 93.5075 40.5197C93.5555 40.4637 93.6235 40.4357 93.7115 40.4357H98.6675C98.7555 40.4357 98.8235 40.4637 98.8715 40.5197C98.9195 40.5677 98.9435 40.6357 98.9435 40.7237V41.1797C98.9435 41.2677 98.9195 41.3357 98.8715 41.3837C98.8235 41.4317 98.7555 41.4557 98.6675 41.4557H94.5875V44.0837H98.4035C98.4915 44.0837 98.5595 44.1117 98.6075 44.1677C98.6555 44.2157 98.6795 44.2837 98.6795 44.3717V44.8157C98.6795 44.8957 98.6555 44.9637 98.6075 45.0197C98.5595 45.0677 98.4915 45.0917 98.4035 45.0917H94.5875V47.8157H98.7635C98.8515 47.8157 98.9195 47.8397 98.9675 47.8877C99.0155 47.9357 99.0395 48.0037 99.0395 48.0917V48.5597C99.0395 48.6397 99.0155 48.7077 98.9675 48.7637C98.9195 48.8117 98.8515 48.8357 98.7635 48.8357H93.7115Z" fill="black" fill-opacity="0.55"/>
<path d="M170.266 30.8357C170.186 30.8357 170.118 30.8117 170.062 30.7637C170.014 30.7077 169.99 30.6397 169.99 30.5597V22.5917C169.99 22.5117 170.014 22.4477 170.062 22.3997C170.118 22.3437 170.186 22.3157 170.266 22.3157H170.83C170.918 22.3157 170.986 22.3437 171.034 22.3997C171.082 22.4477 171.106 22.5117 171.106 22.5917V30.5597C171.106 30.6397 171.082 30.7077 171.034 30.7637C170.986 30.8117 170.918 30.8357 170.83 30.8357H170.266Z" fill="black" fill-opacity="0.55"/>
<path d="M165.098 30.9557C164.698 30.9557 164.334 30.8757 164.006 30.7157C163.678 30.5557 163.414 30.3397 163.214 30.0677C163.014 29.7957 162.914 29.4877 162.914 29.1437C162.914 28.5917 163.138 28.1517 163.586 27.8237C164.034 27.4957 164.618 27.2797 165.338 27.1757L167.126 26.9237V26.5757C167.126 26.1917 167.014 25.8917 166.79 25.6757C166.574 25.4597 166.218 25.3517 165.722 25.3517C165.362 25.3517 165.07 25.4237 164.846 25.5677C164.63 25.7117 164.478 25.8957 164.39 26.1197C164.342 26.2397 164.258 26.2997 164.138 26.2997H163.598C163.51 26.2997 163.442 26.2757 163.394 26.2277C163.354 26.1717 163.334 26.1077 163.334 26.0357C163.334 25.9157 163.378 25.7677 163.466 25.5917C163.562 25.4157 163.706 25.2437 163.898 25.0757C164.09 24.9077 164.334 24.7677 164.63 24.6557C164.934 24.5357 165.302 24.4757 165.734 24.4757C166.214 24.4757 166.618 24.5397 166.946 24.6677C167.274 24.7877 167.53 24.9517 167.714 25.1597C167.906 25.3677 168.042 25.6037 168.122 25.8677C168.21 26.1317 168.254 26.3997 168.254 26.6717V30.5597C168.254 30.6397 168.226 30.7077 168.17 30.7637C168.122 30.8117 168.058 30.8357 167.978 30.8357H167.426C167.338 30.8357 167.27 30.8117 167.222 30.7637C167.174 30.7077 167.15 30.6397 167.15 30.5597V30.0437C167.046 30.1877 166.906 30.3317 166.73 30.4757C166.554 30.6117 166.334 30.7277 166.07 30.8237C165.806 30.9117 165.482 30.9557 165.098 30.9557ZM165.35 30.0557C165.678 30.0557 165.978 29.9877 166.25 29.8517C166.522 29.7077 166.734 29.4877 166.886 29.1917C167.046 28.8957 167.126 28.5237 167.126 28.0757V27.7397L165.734 27.9437C165.166 28.0237 164.738 28.1597 164.45 28.3517C164.162 28.5357 164.018 28.7717 164.018 29.0597C164.018 29.2837 164.082 29.4717 164.21 29.6237C164.346 29.7677 164.514 29.8757 164.714 29.9477C164.922 30.0197 165.134 30.0557 165.35 30.0557Z" fill="black" fill-opacity="0.55"/>
<path d="M156.356 30.8357C156.276 30.8357 156.208 30.8117 156.152 30.7637C156.104 30.7077 156.08 30.6397 156.08 30.5597V24.8717C156.08 24.7917 156.104 24.7277 156.152 24.6797C156.208 24.6237 156.276 24.5957 156.356 24.5957H156.92C157 24.5957 157.064 24.6237 157.112 24.6797C157.168 24.7277 157.196 24.7917 157.196 24.8717V25.3997C157.404 25.1277 157.664 24.9077 157.976 24.7397C158.296 24.5637 158.704 24.4757 159.2 24.4757C159.72 24.4757 160.16 24.5917 160.52 24.8237C160.888 25.0477 161.164 25.3637 161.348 25.7717C161.532 26.1717 161.624 26.6397 161.624 27.1757V30.5597C161.624 30.6397 161.6 30.7077 161.552 30.7637C161.504 30.8117 161.44 30.8357 161.36 30.8357H160.76C160.68 30.8357 160.612 30.8117 160.556 30.7637C160.508 30.7077 160.484 30.6397 160.484 30.5597V27.2357C160.484 26.6757 160.348 26.2397 160.076 25.9277C159.804 25.6077 159.404 25.4477 158.876 25.4477C158.38 25.4477 157.98 25.6077 157.676 25.9277C157.38 26.2397 157.232 26.6757 157.232 27.2357V30.5597C157.232 30.6397 157.204 30.7077 157.148 30.7637C157.1 30.8117 157.036 30.8357 156.956 30.8357H156.356Z" fill="black" fill-opacity="0.55"/>
<path d="M151.746 30.9557C151.138 30.9557 150.63 30.8397 150.222 30.6077C149.814 30.3757 149.502 30.0557 149.286 29.6477C149.07 29.2317 148.95 28.7597 148.926 28.2317C148.918 28.0957 148.914 27.9237 148.914 27.7157C148.914 27.4997 148.918 27.3277 148.926 27.1997C148.95 26.6637 149.07 26.1917 149.286 25.7837C149.51 25.3757 149.826 25.0557 150.234 24.8237C150.642 24.5917 151.146 24.4757 151.746 24.4757C152.346 24.4757 152.85 24.5917 153.258 24.8237C153.666 25.0557 153.978 25.3757 154.194 25.7837C154.418 26.1917 154.542 26.6637 154.566 27.1997C154.574 27.3277 154.578 27.4997 154.578 27.7157C154.578 27.9237 154.574 28.0957 154.566 28.2317C154.542 28.7597 154.422 29.2317 154.206 29.6477C153.99 30.0557 153.678 30.3757 153.27 30.6077C152.862 30.8397 152.354 30.9557 151.746 30.9557ZM151.746 30.0317C152.242 30.0317 152.638 29.8757 152.934 29.5637C153.23 29.2437 153.39 28.7797 153.414 28.1717C153.422 28.0517 153.426 27.8997 153.426 27.7157C153.426 27.5317 153.422 27.3797 153.414 27.2597C153.39 26.6517 153.23 26.1917 152.934 25.8797C152.638 25.5597 152.242 25.3997 151.746 25.3997C151.25 25.3997 150.85 25.5597 150.546 25.8797C150.25 26.1917 150.094 26.6517 150.078 27.2597C150.07 27.3797 150.066 27.5317 150.066 27.7157C150.066 27.8997 150.07 28.0517 150.078 28.1717C150.094 28.7797 150.25 29.2437 150.546 29.5637C150.85 29.8757 151.25 30.0317 151.746 30.0317Z" fill="black" fill-opacity="0.55"/>
<path d="M146.536 30.8357C146.456 30.8357 146.388 30.8117 146.332 30.7637C146.284 30.7077 146.26 30.6397 146.26 30.5597V24.8717C146.26 24.7917 146.284 24.7277 146.332 24.6797C146.388 24.6237 146.456 24.5957 146.536 24.5957H147.112C147.192 24.5957 147.256 24.6237 147.304 24.6797C147.352 24.7277 147.376 24.7917 147.376 24.8717V30.5597C147.376 30.6397 147.352 30.7077 147.304 30.7637C147.256 30.8117 147.192 30.8357 147.112 30.8357H146.536ZM146.44 23.4317C146.36 23.4317 146.292 23.4077 146.236 23.3597C146.188 23.3037 146.164 23.2357 146.164 23.1557V22.5077C146.164 22.4277 146.188 22.3637 146.236 22.3157C146.292 22.2597 146.36 22.2317 146.44 22.2317H147.196C147.276 22.2317 147.34 22.2597 147.388 22.3157C147.444 22.3637 147.472 22.4277 147.472 22.5077V23.1557C147.472 23.2357 147.444 23.3037 147.388 23.3597C147.34 23.4077 147.276 23.4317 147.196 23.4317H146.44Z" fill="black" fill-opacity="0.55"/>
<path d="M144.008 30.8357C143.56 30.8357 143.196 30.7517 142.916 30.5837C142.636 30.4077 142.432 30.1637 142.304 29.8517C142.176 29.5317 142.112 29.1557 142.112 28.7237V25.5557H141.176C141.096 25.5557 141.028 25.5317 140.972 25.4837C140.924 25.4277 140.9 25.3597 140.9 25.2797V24.8717C140.9 24.7917 140.924 24.7277 140.972 24.6797C141.028 24.6237 141.096 24.5957 141.176 24.5957H142.112V22.5917C142.112 22.5117 142.136 22.4477 142.184 22.3997C142.24 22.3437 142.308 22.3157 142.388 22.3157H142.952C143.032 22.3157 143.096 22.3437 143.144 22.3997C143.2 22.4477 143.228 22.5117 143.228 22.5917V24.5957H144.716C144.796 24.5957 144.86 24.6237 144.908 24.6797C144.964 24.7277 144.992 24.7917 144.992 24.8717V25.2797C144.992 25.3597 144.964 25.4277 144.908 25.4837C144.86 25.5317 144.796 25.5557 144.716 25.5557H143.228V28.6397C143.228 29.0157 143.292 29.3117 143.42 29.5277C143.548 29.7437 143.776 29.8517 144.104 29.8517H144.836C144.916 29.8517 144.98 29.8797 145.028 29.9357C145.084 29.9837 145.112 30.0477 145.112 30.1277V30.5597C145.112 30.6397 145.084 30.7077 145.028 30.7637C144.98 30.8117 144.916 30.8357 144.836 30.8357H144.008Z" fill="black" fill-opacity="0.55"/>
<path d="M137.472 30.9557C136.904 30.9557 136.412 30.8477 135.996 30.6317C135.588 30.4077 135.272 30.0917 135.048 29.6837C134.824 29.2677 134.704 28.7717 134.688 28.1957C134.68 28.0757 134.676 27.9157 134.676 27.7157C134.676 27.5157 134.68 27.3557 134.688 27.2357C134.704 26.6597 134.824 26.1677 135.048 25.7597C135.272 25.3437 135.588 25.0277 135.996 24.8117C136.412 24.5877 136.904 24.4757 137.472 24.4757C137.936 24.4757 138.332 24.5397 138.66 24.6677C138.996 24.7957 139.272 24.9597 139.488 25.1597C139.704 25.3597 139.864 25.5757 139.968 25.8077C140.08 26.0397 140.14 26.2597 140.148 26.4677C140.156 26.5477 140.132 26.6117 140.076 26.6597C140.02 26.7077 139.952 26.7317 139.872 26.7317H139.296C139.216 26.7317 139.156 26.7157 139.116 26.6837C139.076 26.6437 139.036 26.5797 138.996 26.4917C138.852 26.0997 138.656 25.8237 138.408 25.6637C138.16 25.5037 137.852 25.4237 137.484 25.4237C137.004 25.4237 136.612 25.5717 136.308 25.8677C136.012 26.1637 135.852 26.6397 135.828 27.2957C135.82 27.5837 135.82 27.8637 135.828 28.1357C135.852 28.7997 136.012 29.2797 136.308 29.5757C136.612 29.8637 137.004 30.0077 137.484 30.0077C137.852 30.0077 138.16 29.9277 138.408 29.7677C138.656 29.6077 138.852 29.3317 138.996 28.9397C139.036 28.8517 139.076 28.7917 139.116 28.7597C139.156 28.7197 139.216 28.6997 139.296 28.6997H139.872C139.952 28.6997 140.02 28.7237 140.076 28.7717C140.132 28.8197 140.156 28.8837 140.148 28.9637C140.14 29.1317 140.104 29.3037 140.04 29.4797C139.976 29.6557 139.872 29.8357 139.728 30.0197C139.592 30.1957 139.42 30.3557 139.212 30.4997C139.004 30.6357 138.752 30.7477 138.456 30.8357C138.168 30.9157 137.84 30.9557 137.472 30.9557Z" fill="black" fill-opacity="0.55"/>
<path d="M130.721 30.9557C129.897 30.9557 129.242 30.7037 128.754 30.1997C128.266 29.6877 127.998 28.9917 127.95 28.1117C127.942 28.0077 127.938 27.8757 127.938 27.7157C127.938 27.5477 127.942 27.4117 127.95 27.3077C127.982 26.7397 128.114 26.2437 128.346 25.8197C128.578 25.3877 128.894 25.0557 129.294 24.8237C129.702 24.5917 130.177 24.4757 130.721 24.4757C131.329 24.4757 131.837 24.6037 132.245 24.8597C132.661 25.1157 132.977 25.4797 133.193 25.9517C133.409 26.4237 133.518 26.9757 133.518 27.6077V27.8117C133.518 27.8997 133.49 27.9677 133.434 28.0157C133.386 28.0637 133.322 28.0877 133.242 28.0877H129.09C129.09 28.0957 129.09 28.1117 129.09 28.1357C129.09 28.1597 129.09 28.1797 129.09 28.1957C129.106 28.5237 129.177 28.8317 129.305 29.1197C129.433 29.3997 129.617 29.6277 129.857 29.8037C130.097 29.9797 130.385 30.0677 130.721 30.0677C131.009 30.0677 131.249 30.0237 131.441 29.9357C131.633 29.8477 131.79 29.7517 131.91 29.6477C132.03 29.5357 132.11 29.4517 132.15 29.3957C132.222 29.2917 132.278 29.2317 132.318 29.2157C132.358 29.1917 132.422 29.1797 132.51 29.1797H133.086C133.166 29.1797 133.229 29.2037 133.277 29.2517C133.333 29.2917 133.358 29.3517 133.35 29.4317C133.342 29.5517 133.278 29.6997 133.158 29.8757C133.038 30.0437 132.866 30.2117 132.642 30.3797C132.418 30.5477 132.146 30.6877 131.826 30.7997C131.506 30.9037 131.137 30.9557 130.721 30.9557ZM129.09 27.2597H132.378V27.2237C132.378 26.8637 132.31 26.5437 132.174 26.2637C132.046 25.9837 131.857 25.7637 131.609 25.6037C131.361 25.4357 131.065 25.3517 130.721 25.3517C130.377 25.3517 130.081 25.4357 129.833 25.6037C129.593 25.7637 129.41 25.9837 129.282 26.2637C129.154 26.5437 129.09 26.8637 129.09 27.2237V27.2597Z" fill="black" fill-opacity="0.55"/>
<path d="M124.071 30.8357C123.991 30.8357 123.923 30.8117 123.867 30.7637C123.819 30.7077 123.795 30.6397 123.795 30.5597V24.8837C123.795 24.8037 123.819 24.7357 123.867 24.6797C123.923 24.6237 123.991 24.5957 124.071 24.5957H124.623C124.703 24.5957 124.771 24.6237 124.827 24.6797C124.883 24.7357 124.911 24.8037 124.911 24.8837V25.4117C125.071 25.1397 125.291 24.9357 125.571 24.7997C125.851 24.6637 126.187 24.5957 126.579 24.5957H127.059C127.139 24.5957 127.203 24.6237 127.251 24.6797C127.299 24.7277 127.323 24.7917 127.323 24.8717V25.3637C127.323 25.4437 127.299 25.5077 127.251 25.5557C127.203 25.6037 127.139 25.6277 127.059 25.6277H126.339C125.907 25.6277 125.567 25.7557 125.319 26.0117C125.071 26.2597 124.947 26.5997 124.947 27.0317V30.5597C124.947 30.6397 124.919 30.7077 124.863 30.7637C124.807 30.8117 124.739 30.8357 124.659 30.8357H124.071Z" fill="black" fill-opacity="0.55"/>
<path d="M121.048 30.8357C120.968 30.8357 120.9 30.8117 120.844 30.7637C120.796 30.7077 120.772 30.6397 120.772 30.5597V24.8717C120.772 24.7917 120.796 24.7277 120.844 24.6797C120.9 24.6237 120.968 24.5957 121.048 24.5957H121.624C121.704 24.5957 121.768 24.6237 121.816 24.6797C121.864 24.7277 121.888 24.7917 121.888 24.8717V30.5597C121.888 30.6397 121.864 30.7077 121.816 30.7637C121.768 30.8117 121.704 30.8357 121.624 30.8357H121.048ZM120.952 23.4317C120.872 23.4317 120.804 23.4077 120.748 23.3597C120.7 23.3037 120.676 23.2357 120.676 23.1557V22.5077C120.676 22.4277 120.7 22.3637 120.748 22.3157C120.804 22.2597 120.872 22.2317 120.952 22.2317H121.708C121.788 22.2317 121.852 22.2597 121.9 22.3157C121.956 22.3637 121.984 22.4277 121.984 22.5077V23.1557C121.984 23.2357 121.956 23.3037 121.9 23.3597C121.852 23.4077 121.788 23.4317 121.708 23.4317H120.952Z" fill="black" fill-opacity="0.55"/>
<path d="M112.93 30.8357C112.842 30.8357 112.774 30.8117 112.726 30.7637C112.678 30.7077 112.654 30.6397 112.654 30.5597V22.7237C112.654 22.6357 112.678 22.5677 112.726 22.5197C112.774 22.4637 112.842 22.4357 112.93 22.4357H115.654C116.478 22.4357 117.142 22.5597 117.646 22.8077C118.15 23.0557 118.518 23.4237 118.75 23.9117C118.982 24.3917 119.102 24.9837 119.11 25.6877C119.118 26.0477 119.122 26.3637 119.122 26.6357C119.122 26.9077 119.118 27.2197 119.11 27.5717C119.094 28.3077 118.97 28.9197 118.738 29.4077C118.514 29.8877 118.154 30.2477 117.658 30.4877C117.17 30.7197 116.522 30.8357 115.714 30.8357H112.93ZM113.83 29.8157H115.654C116.206 29.8157 116.646 29.7397 116.974 29.5877C117.302 29.4357 117.538 29.1917 117.682 28.8557C117.834 28.5197 117.914 28.0757 117.922 27.5237C117.938 27.2837 117.946 27.0757 117.946 26.8997C117.946 26.7157 117.946 26.5357 117.946 26.3597C117.946 26.1757 117.938 25.9677 117.922 25.7357C117.906 24.9597 117.722 24.3877 117.37 24.0197C117.018 23.6437 116.426 23.4557 115.594 23.4557H113.83V29.8157Z" fill="black" fill-opacity="0.55"/>
<path d="M105.327 30.9557C104.503 30.9557 103.847 30.7037 103.359 30.1997C102.871 29.6877 102.603 28.9917 102.555 28.1117C102.547 28.0077 102.543 27.8757 102.543 27.7157C102.543 27.5477 102.547 27.4117 102.555 27.3077C102.587 26.7397 102.719 26.2437 102.951 25.8197C103.183 25.3877 103.499 25.0557 103.899 24.8237C104.307 24.5917 104.783 24.4757 105.327 24.4757C105.935 24.4757 106.443 24.6037 106.851 24.8597C107.267 25.1157 107.583 25.4797 107.799 25.9517C108.015 26.4237 108.123 26.9757 108.123 27.6077V27.8117C108.123 27.8997 108.095 27.9677 108.039 28.0157C107.991 28.0637 107.927 28.0877 107.847 28.0877H103.695C103.695 28.0957 103.695 28.1117 103.695 28.1357C103.695 28.1597 103.695 28.1797 103.695 28.1957C103.711 28.5237 103.783 28.8317 103.911 29.1197C104.039 29.3997 104.223 29.6277 104.463 29.8037C104.703 29.9797 104.991 30.0677 105.327 30.0677C105.615 30.0677 105.855 30.0237 106.047 29.9357C106.239 29.8477 106.395 29.7517 106.515 29.6477C106.635 29.5357 106.715 29.4517 106.755 29.3957C106.827 29.2917 106.883 29.2317 106.923 29.2157C106.963 29.1917 107.027 29.1797 107.115 29.1797H107.691C107.771 29.1797 107.835 29.2037 107.883 29.2517C107.939 29.2917 107.963 29.3517 107.955 29.4317C107.947 29.5517 107.883 29.6997 107.763 29.8757C107.643 30.0437 107.471 30.2117 107.247 30.3797C107.023 30.5477 106.751 30.6877 106.431 30.7997C106.111 30.9037 105.743 30.9557 105.327 30.9557ZM103.695 27.2597H106.983V27.2237C106.983 26.8637 106.915 26.5437 106.779 26.2637C106.651 25.9837 106.463 25.7637 106.215 25.6037C105.967 25.4357 105.671 25.3517 105.327 25.3517C104.983 25.3517 104.687 25.4357 104.439 25.6037C104.199 25.7637 104.015 25.9837 103.887 26.2637C103.759 26.5437 103.695 26.8637 103.695 27.2237V27.2597Z" fill="black" fill-opacity="0.55"/>
<path d="M100.212 30.8357C100.132 30.8357 100.064 30.8117 100.008 30.7637C99.9596 30.7077 99.9355 30.6397 99.9355 30.5597V22.5917C99.9355 22.5117 99.9596 22.4477 100.008 22.3997C100.064 22.3437 100.132 22.3157 100.212 22.3157H100.776C100.864 22.3157 100.932 22.3437 100.98 22.3997C101.028 22.4477 101.052 22.5117 101.052 22.5917V30.5597C101.052 30.6397 101.028 30.7077 100.98 30.7637C100.932 30.8117 100.864 30.8357 100.776 30.8357H100.212Z" fill="black" fill-opacity="0.55"/>
<path d="M95.3204 33.4757C94.7764 33.4757 94.3284 33.4037 93.9764 33.2597C93.6324 33.1157 93.3604 32.9397 93.1604 32.7317C92.9684 32.5317 92.8284 32.3277 92.7404 32.1197C92.6604 31.9197 92.6164 31.7597 92.6084 31.6397C92.6004 31.5597 92.6244 31.4917 92.6804 31.4357C92.7444 31.3797 92.8124 31.3517 92.8844 31.3517H93.4604C93.5324 31.3517 93.5924 31.3677 93.6404 31.3997C93.6884 31.4317 93.7284 31.4997 93.7604 31.6037C93.8084 31.7237 93.8804 31.8557 93.9764 31.9997C94.0724 32.1517 94.2204 32.2797 94.4204 32.3837C94.6204 32.4957 94.9004 32.5517 95.2604 32.5517C95.6364 32.5517 95.9524 32.4997 96.2084 32.3957C96.4644 32.2997 96.6564 32.1237 96.7844 31.8677C96.9204 31.6197 96.9884 31.2757 96.9884 30.8357V30.0197C96.7964 30.2677 96.5444 30.4757 96.2324 30.6437C95.9204 30.8037 95.5284 30.8837 95.0564 30.8837C94.6084 30.8837 94.2244 30.8077 93.9044 30.6557C93.5844 30.4957 93.3204 30.2837 93.1124 30.0197C92.9124 29.7477 92.7604 29.4397 92.6564 29.0957C92.5604 28.7517 92.5044 28.3917 92.4884 28.0157C92.4804 27.7917 92.4804 27.5717 92.4884 27.3557C92.5044 26.9797 92.5604 26.6197 92.6564 26.2757C92.7604 25.9317 92.9124 25.6237 93.1124 25.3517C93.3204 25.0797 93.5844 24.8677 93.9044 24.7157C94.2244 24.5557 94.6084 24.4757 95.0564 24.4757C95.5364 24.4757 95.9324 24.5677 96.2444 24.7517C96.5644 24.9277 96.8244 25.1437 97.0244 25.3997V24.8837C97.0244 24.8037 97.0484 24.7357 97.0964 24.6797C97.1524 24.6237 97.2204 24.5957 97.3004 24.5957H97.8524C97.9324 24.5957 98.0004 24.6237 98.0564 24.6797C98.1124 24.7357 98.1404 24.8037 98.1404 24.8837V30.7037C98.1404 31.2397 98.0484 31.7157 97.8644 32.1317C97.6884 32.5477 97.3924 32.8757 96.9764 33.1157C96.5684 33.3557 96.0164 33.4757 95.3204 33.4757ZM95.2964 29.9237C95.6964 29.9237 96.0164 29.8317 96.2564 29.6477C96.5044 29.4637 96.6844 29.2317 96.7964 28.9517C96.9164 28.6717 96.9804 28.3877 96.9884 28.0997C96.9964 27.9877 97.0004 27.8517 97.0004 27.6917C97.0004 27.5237 96.9964 27.3837 96.9884 27.2717C96.9804 26.9837 96.9164 26.6997 96.7964 26.4197C96.6844 26.1397 96.5044 25.9077 96.2564 25.7237C96.0164 25.5397 95.6964 25.4477 95.2964 25.4477C94.8964 25.4477 94.5764 25.5397 94.3364 25.7237C94.0964 25.8997 93.9244 26.1357 93.8204 26.4317C93.7164 26.7197 93.6564 27.0317 93.6404 27.3677C93.6324 27.5757 93.6324 27.7877 93.6404 28.0037C93.6564 28.3397 93.7164 28.6557 93.8204 28.9517C93.9244 29.2397 94.0964 29.4757 94.3364 29.6597C94.5764 29.8357 94.8964 29.9237 95.2964 29.9237Z" fill="black" fill-opacity="0.55"/>
<path d="M85.7623 30.8357C85.6823 30.8357 85.6143 30.8117 85.5583 30.7637C85.5103 30.7077 85.4863 30.6397 85.4863 30.5597V24.8717C85.4863 24.7917 85.5103 24.7277 85.5583 24.6797C85.6143 24.6237 85.6823 24.5957 85.7623 24.5957H86.3263C86.4063 24.5957 86.4703 24.6237 86.5183 24.6797C86.5743 24.7277 86.6023 24.7917 86.6023 24.8717V25.3997C86.8103 25.1277 87.0703 24.9077 87.3823 24.7397C87.7023 24.5637 88.1103 24.4757 88.6063 24.4757C89.1263 24.4757 89.5663 24.5917 89.9263 24.8237C90.2943 25.0477 90.5703 25.3637 90.7543 25.7717C90.9383 26.1717 91.0303 26.6397 91.0303 27.1757V30.5597C91.0303 30.6397 91.0063 30.7077 90.9583 30.7637C90.9103 30.8117 90.8463 30.8357 90.7663 30.8357H90.1663C90.0863 30.8357 90.0183 30.8117 89.9623 30.7637C89.9143 30.7077 89.8903 30.6397 89.8903 30.5597V27.2357C89.8903 26.6757 89.7543 26.2397 89.4823 25.9277C89.2103 25.6077 88.8103 25.4477 88.2823 25.4477C87.7863 25.4477 87.3863 25.6077 87.0823 25.9277C86.7863 26.2397 86.6383 26.6757 86.6383 27.2357V30.5597C86.6383 30.6397 86.6103 30.7077 86.5543 30.7637C86.5063 30.8117 86.4423 30.8357 86.3623 30.8357H85.7623Z" fill="black" fill-opacity="0.55"/>
<path d="M82.7392 30.8357C82.6592 30.8357 82.5912 30.8117 82.5352 30.7637C82.4872 30.7077 82.4632 30.6397 82.4632 30.5597V24.8717C82.4632 24.7917 82.4872 24.7277 82.5352 24.6797C82.5912 24.6237 82.6592 24.5957 82.7392 24.5957H83.3152C83.3952 24.5957 83.4592 24.6237 83.5072 24.6797C83.5552 24.7277 83.5792 24.7917 83.5792 24.8717V30.5597C83.5792 30.6397 83.5552 30.7077 83.5072 30.7637C83.4592 30.8117 83.3952 30.8357 83.3152 30.8357H82.7392ZM82.6432 23.4317C82.5632 23.4317 82.4952 23.4077 82.4392 23.3597C82.3912 23.3037 82.3672 23.2357 82.3672 23.1557V22.5077C82.3672 22.4277 82.3912 22.3637 82.4392 22.3157C82.4952 22.2597 82.5632 22.2317 82.6432 22.2317H83.3992C83.4792 22.2317 83.5432 22.2597 83.5912 22.3157C83.6472 22.3637 83.6752 22.4277 83.6752 22.5077V23.1557C83.6752 23.2357 83.6472 23.3037 83.5912 23.3597C83.5432 23.4077 83.4792 23.4317 83.3992 23.4317H82.6432Z" fill="black" fill-opacity="0.55"/>
<path d="M77.8552 30.9557C77.1592 30.9557 76.5752 30.8517 76.1032 30.6437C75.6312 30.4277 75.2672 30.1517 75.0112 29.8157C74.7632 29.4717 74.6312 29.1077 74.6152 28.7237C74.6152 28.6597 74.6392 28.6037 74.6872 28.5557C74.7432 28.4997 74.8072 28.4717 74.8792 28.4717H75.4912C75.5872 28.4717 75.6592 28.4957 75.7072 28.5437C75.7552 28.5917 75.7872 28.6477 75.8032 28.7117C75.8432 28.9037 75.9392 29.0957 76.0912 29.2877C76.2512 29.4717 76.4712 29.6277 76.7512 29.7557C77.0392 29.8757 77.4072 29.9357 77.8552 29.9357C78.5432 29.9357 79.0472 29.8157 79.3672 29.5757C79.6952 29.3277 79.8592 28.9997 79.8592 28.5917C79.8592 28.3117 79.7712 28.0877 79.5952 27.9197C79.4272 27.7437 79.1672 27.5877 78.8152 27.4517C78.4632 27.3157 78.0072 27.1677 77.4472 27.0077C76.8632 26.8397 76.3792 26.6557 75.9952 26.4557C75.6112 26.2557 75.3232 26.0077 75.1312 25.7117C74.9472 25.4157 74.8552 25.0397 74.8552 24.5837C74.8552 24.1517 74.9712 23.7677 75.2032 23.4317C75.4352 23.0877 75.7672 22.8157 76.1992 22.6157C76.6392 22.4157 77.1712 22.3157 77.7952 22.3157C78.2912 22.3157 78.7232 22.3837 79.0912 22.5197C79.4672 22.6477 79.7792 22.8237 80.0272 23.0477C80.2752 23.2637 80.4632 23.4997 80.5912 23.7557C80.7192 24.0037 80.7872 24.2477 80.7952 24.4877C80.7952 24.5437 80.7752 24.5997 80.7352 24.6557C80.6952 24.7037 80.6312 24.7277 80.5432 24.7277H79.9072C79.8512 24.7277 79.7912 24.7117 79.7272 24.6797C79.6712 24.6477 79.6272 24.5877 79.5952 24.4997C79.5472 24.1717 79.3632 23.8957 79.0432 23.6717C78.7232 23.4477 78.3072 23.3357 77.7952 23.3357C77.2752 23.3357 76.8512 23.4357 76.5232 23.6357C76.2032 23.8357 76.0432 24.1477 76.0432 24.5717C76.0432 24.8437 76.1192 25.0717 76.2712 25.2557C76.4232 25.4317 76.6632 25.5877 76.9912 25.7237C77.3192 25.8597 77.7472 26.0037 78.2752 26.1557C78.9152 26.3317 79.4392 26.5197 79.8472 26.7197C80.2552 26.9117 80.5552 27.1557 80.7472 27.4517C80.9472 27.7397 81.0472 28.1117 81.0472 28.5677C81.0472 29.0717 80.9152 29.5037 80.6512 29.8637C80.3872 30.2157 80.0152 30.4877 79.5352 30.6797C79.0632 30.8637 78.5032 30.9557 77.8552 30.9557Z" fill="black" fill-opacity="0.55"/>
<path d="M204.561 70.3357H367.561" stroke="#DADEE1" stroke-width="3"/>
<path fill-rule="evenodd" clip-rule="evenodd" d="M275.061 65.518L279.879 70.3355L275.061 75.1534L277.243 77.3357L284.243 70.3354L277.243 63.3357L275.061 65.518ZM296.574 74.0666L292.843 70.3359L296.574 66.6047L294.756 64.7862L289.206 70.3359L294.756 75.8853L296.574 74.0666Z" fill="#DADEE1"/>
<path fill-rule="evenodd" clip-rule="evenodd" d="M282.657 68.7941L284.194 70.3315L282.648 71.8772H284.103L285.649 70.3315L284.112 68.7941H282.657ZM290.693 68.7941L289.156 70.3315L290.701 71.8772H289.247L287.701 70.3315L289.238 68.7941H290.693Z" fill="white" fill-opacity="0.5"/>
<path d="M41.5605 70.3362H204.561" stroke="#DADEE1" stroke-width="3"/>
<path d="M166.561 64.3362L172.561 70.3362L166.561 76.3362" stroke="#DADEE1" stroke-width="3"/>
<path d="M204.582 80.3357C210.105 80.3357 214.582 75.8585 214.582 70.3357C214.582 64.8128 210.105 60.3357 204.582 60.3357C199.059 60.3357 194.582 64.8128 194.582 70.3357C194.582 75.8585 199.059 80.3357 204.582 80.3357Z" fill="#127B87"/>
<path d="M219.797 94.8357C219.317 94.8357 218.913 94.7517 218.585 94.5837C218.257 94.4157 218.013 94.1677 217.853 93.8397C217.693 93.5037 217.613 93.0877 217.613 92.5917V89.8677H216.665C216.585 89.8677 216.517 89.8397 216.461 89.7837C216.405 89.7277 216.377 89.6597 216.377 89.5797V88.8837C216.377 88.8037 216.405 88.7357 216.461 88.6797C216.517 88.6237 216.585 88.5957 216.665 88.5957H217.613V86.6037C217.613 86.5237 217.637 86.4557 217.685 86.3997C217.741 86.3437 217.813 86.3157 217.901 86.3157H218.873C218.953 86.3157 219.021 86.3437 219.077 86.3997C219.133 86.4557 219.161 86.5237 219.161 86.6037V88.5957H220.661C220.741 88.5957 220.809 88.6237 220.865 88.6797C220.921 88.7357 220.949 88.8037 220.949 88.8837V89.5797C220.949 89.6597 220.921 89.7277 220.865 89.7837C220.809 89.8397 220.741 89.8677 220.661 89.8677H219.161V92.4717C219.161 92.7997 219.217 93.0557 219.329 93.2397C219.449 93.4237 219.653 93.5157 219.941 93.5157H220.769C220.849 93.5157 220.917 93.5437 220.973 93.5997C221.029 93.6557 221.057 93.7237 221.057 93.8037V94.5477C221.057 94.6277 221.029 94.6957 220.973 94.7517C220.917 94.8077 220.849 94.8357 220.769 94.8357H219.797Z" fill="black" fill-opacity="0.65"/>
<path d="M209.847 94.8357C209.767 94.8357 209.699 94.8077 209.643 94.7517C209.587 94.6957 209.559 94.6277 209.559 94.5477V88.8837C209.559 88.8037 209.587 88.7357 209.643 88.6797C209.699 88.6237 209.767 88.5957 209.847 88.5957H210.831C210.911 88.5957 210.979 88.6237 211.035 88.6797C211.091 88.7357 211.119 88.8037 211.119 88.8837V89.3757C211.327 89.1197 211.591 88.9077 211.911 88.7397C212.239 88.5637 212.643 88.4757 213.123 88.4757C213.611 88.4757 214.035 88.5877 214.395 88.8117C214.755 89.0277 215.031 89.3357 215.223 89.7357C215.423 90.1357 215.523 90.6157 215.523 91.1757V94.5477C215.523 94.6277 215.495 94.6957 215.439 94.7517C215.383 94.8077 215.315 94.8357 215.235 94.8357H214.179C214.099 94.8357 214.031 94.8077 213.975 94.7517C213.919 94.6957 213.891 94.6277 213.891 94.5477V91.2477C213.891 90.7837 213.775 90.4197 213.543 90.1557C213.319 89.8917 212.991 89.7597 212.559 89.7597C212.143 89.7597 211.811 89.8917 211.563 90.1557C211.315 90.4197 211.191 90.7837 211.191 91.2477V94.5477C211.191 94.6277 211.163 94.6957 211.107 94.7517C211.051 94.8077 210.983 94.8357 210.903 94.8357H209.847Z" fill="black" fill-opacity="0.65"/>
<path d="M205.321 94.9557C204.433 94.9557 203.729 94.6997 203.209 94.1877C202.689 93.6757 202.409 92.9477 202.369 92.0037C202.361 91.9237 202.357 91.8237 202.357 91.7037C202.357 91.5757 202.361 91.4757 202.369 91.4037C202.401 90.8037 202.537 90.2837 202.777 89.8437C203.025 89.4037 203.365 89.0677 203.797 88.8357C204.229 88.5957 204.737 88.4757 205.321 88.4757C205.969 88.4757 206.513 88.6117 206.953 88.8837C207.393 89.1477 207.725 89.5197 207.949 89.9997C208.173 90.4717 208.285 91.0197 208.285 91.6437V91.8957C208.285 91.9757 208.257 92.0437 208.201 92.0997C208.145 92.1557 208.073 92.1837 207.985 92.1837H204.001C204.001 92.1837 204.001 92.1957 204.001 92.2197C204.001 92.2437 204.001 92.2637 204.001 92.2797C204.009 92.5597 204.061 92.8197 204.157 93.0597C204.261 93.2917 204.409 93.4797 204.601 93.6237C204.801 93.7677 205.037 93.8397 205.309 93.8397C205.533 93.8397 205.721 93.8077 205.873 93.7437C206.025 93.6717 206.149 93.5917 206.245 93.5037C206.341 93.4157 206.409 93.3437 206.449 93.2877C206.521 93.1917 206.577 93.1357 206.617 93.1197C206.665 93.0957 206.733 93.0837 206.821 93.0837H207.853C207.933 93.0837 207.997 93.1077 208.045 93.1557C208.101 93.2037 208.125 93.2637 208.117 93.3357C208.109 93.4637 208.041 93.6197 207.913 93.8037C207.793 93.9877 207.617 94.1677 207.385 94.3437C207.153 94.5197 206.861 94.6677 206.509 94.7877C206.165 94.8997 205.769 94.9557 205.321 94.9557ZM204.001 91.1757H206.653V91.1397C206.653 90.8277 206.601 90.5557 206.497 90.3237C206.393 90.0917 206.241 89.9077 206.041 89.7717C205.841 89.6357 205.601 89.5677 205.321 89.5677C205.041 89.5677 204.801 89.6357 204.601 89.7717C204.401 89.9077 204.249 90.0917 204.145 90.3237C204.049 90.5557 204.001 90.8277 204.001 91.1397V91.1757Z" fill="black" fill-opacity="0.65"/>
<path d="M198.173 94.8357C198.045 94.8357 197.949 94.8077 197.885 94.7517C197.829 94.6877 197.781 94.6157 197.741 94.5357L195.497 88.9677C195.481 88.9277 195.473 88.8917 195.473 88.8597C195.473 88.7877 195.497 88.7277 195.545 88.6797C195.601 88.6237 195.665 88.5957 195.737 88.5957H196.709C196.805 88.5957 196.877 88.6237 196.925 88.6797C196.973 88.7277 197.005 88.7757 197.021 88.8237L198.617 93.0357L200.213 88.8237C200.229 88.7757 200.261 88.7277 200.309 88.6797C200.357 88.6237 200.429 88.5957 200.525 88.5957H201.509C201.573 88.5957 201.629 88.6237 201.677 88.6797C201.733 88.7277 201.761 88.7877 201.761 88.8597C201.761 88.8917 201.757 88.9277 201.749 88.9677L199.493 94.5357C199.461 94.6157 199.413 94.6877 199.349 94.7517C199.285 94.8077 199.189 94.8357 199.061 94.8357H198.173Z" fill="black" fill-opacity="0.65"/>
<path d="M189.061 94.8357C188.981 94.8357 188.913 94.8077 188.857 94.7517C188.801 94.6957 188.773 94.6277 188.773 94.5477V86.7357C188.773 86.6477 188.801 86.5757 188.857 86.5197C188.913 86.4637 188.981 86.4357 189.061 86.4357H194.341C194.429 86.4357 194.501 86.4637 194.557 86.5197C194.613 86.5757 194.641 86.6477 194.641 86.7357V87.5277C194.641 87.6077 194.613 87.6757 194.557 87.7317C194.501 87.7877 194.429 87.8157 194.341 87.8157H190.393V89.9397H194.077C194.165 89.9397 194.237 89.9677 194.293 90.0237C194.349 90.0717 194.377 90.1397 194.377 90.2277V90.9717C194.377 91.0597 194.349 91.1317 194.293 91.1877C194.237 91.2357 194.165 91.2597 194.077 91.2597H190.393V93.4557H194.437C194.525 93.4557 194.597 93.4837 194.653 93.5397C194.709 93.5957 194.737 93.6677 194.737 93.7557V94.5477C194.737 94.6277 194.709 94.6957 194.653 94.7517C194.597 94.8077 194.525 94.8357 194.437 94.8357H189.061Z" fill="black" fill-opacity="0.65"/>
<path d="M59.0176 70.3357C59.0176 80.0007 51.1826 87.8357 41.5176 87.8357C31.8526 87.8357 24.0176 80.0007 24.0176 70.3357C24.0176 60.6707 31.8526 52.8357 41.5176 52.8357C51.1826 52.8357 59.0176 60.6707 59.0176 70.3357Z" fill="white"/>
<path fill-rule="evenodd" clip-rule="evenodd" d="M41.5176 84.8357C49.5257 84.8357 56.0176 78.3438 56.0176 70.3357C56.0176 62.3276 49.5257 55.8357 41.5176 55.8357C33.5095 55.8357 27.0176 62.3276 27.0176 70.3357C27.0176 78.3438 33.5095 84.8357 41.5176 84.8357ZM41.5176 87.8357C51.1826 87.8357 59.0176 80.0007 59.0176 70.3357C59.0176 60.6707 51.1826 52.8357 41.5176 52.8357C31.8526 52.8357 24.0176 60.6707 24.0176 70.3357C24.0176 80.0007 31.8526 87.8357 41.5176 87.8357Z" fill="#22626F"/>
<path d="M51.5176 70.3357C51.5176 75.8585 47.0404 80.3357 41.5176 80.3357C35.9947 80.3357 31.5176 75.8585 31.5176 70.3357C31.5176 64.8128 35.9947 60.3357 41.5176 60.3357C47.0404 60.3357 51.5176 64.8128 51.5176 70.3357Z" fill="#79BFBE"/>
<path d="M385.148 70.3357C385.148 80.0007 377.313 87.8357 367.648 87.8357C357.983 87.8357 350.148 80.0007 350.148 70.3357C350.148 60.6707 357.983 52.8357 367.648 52.8357C377.313 52.8357 385.148 60.6707 385.148 70.3357Z" fill="white"/>
<path fill-rule="evenodd" clip-rule="evenodd" d="M367.648 84.8357C375.657 84.8357 382.148 78.3438 382.148 70.3357C382.148 62.3276 375.657 55.8357 367.648 55.8357C359.64 55.8357 353.148 62.3276 353.148 70.3357C353.148 78.3438 359.64 84.8357 367.648 84.8357ZM367.648 87.8357C377.313 87.8357 385.148 80.0007 385.148 70.3357C385.148 60.6707 377.313 52.8357 367.648 52.8357C357.983 52.8357 350.148 60.6707 350.148 70.3357C350.148 80.0007 357.983 87.8357 367.648 87.8357Z" fill="#22626F"/>
<path d="M377.648 70.3357C377.648 75.8585 373.171 80.3357 367.648 80.3357C362.126 80.3357 357.648 75.8585 357.648 70.3357C357.648 64.8128 362.126 60.3357 367.648 60.3357C373.171 60.3357 377.648 64.8128 377.648 70.3357Z" fill="#79BFBE"/>
<path d="M68.2489 103.836C68.1689 103.836 68.1009 103.808 68.0449 103.752C67.9889 103.696 67.9609 103.628 67.9609 103.548V97.8837C67.9609 97.8037 67.9889 97.7357 68.0449 97.6797C68.1009 97.6237 68.1689 97.5957 68.2489 97.5957H69.2329C69.3129 97.5957 69.3809 97.6237 69.4369 97.6797C69.4929 97.7357 69.5209 97.8037 69.5209 97.8837V98.3757C69.7289 98.1197 69.9929 97.9077 70.3129 97.7397C70.6409 97.5637 71.0449 97.4757 71.5249 97.4757C72.0129 97.4757 72.4369 97.5877 72.7969 97.8117C73.1569 98.0277 73.4329 98.3357 73.6249 98.7357C73.8249 99.1357 73.9249 99.6157 73.9249 100.176V103.548C73.9249 103.628 73.8969 103.696 73.8409 103.752C73.7849 103.808 73.7169 103.836 73.6369 103.836H72.5809C72.5009 103.836 72.4329 103.808 72.3769 103.752C72.3209 103.696 72.2929 103.628 72.2929 103.548V100.248C72.2929 99.7837 72.1769 99.4197 71.9449 99.1557C71.7209 98.8917 71.3929 98.7597 70.9609 98.7597C70.5449 98.7597 70.2129 98.8917 69.9649 99.1557C69.7169 99.4197 69.5929 99.7837 69.5929 100.248V103.548C69.5929 103.628 69.5649 103.696 69.5089 103.752C69.4529 103.808 69.3849 103.836 69.3049 103.836H68.2489Z" fill="black" fill-opacity="0.65"/>
<path d="M63.6194 103.956C62.9794 103.956 62.4394 103.844 61.9994 103.62C61.5674 103.396 61.2354 103.08 61.0034 102.672C60.7794 102.264 60.6514 101.788 60.6194 101.244C60.6114 101.1 60.6074 100.924 60.6074 100.716C60.6074 100.508 60.6114 100.332 60.6194 100.188C60.6514 99.6357 60.7834 99.1597 61.0154 98.7597C61.2554 98.3517 61.5914 98.0357 62.0234 97.8117C62.4634 97.5877 62.9954 97.4757 63.6194 97.4757C64.2434 97.4757 64.7714 97.5877 65.2034 97.8117C65.6434 98.0357 65.9794 98.3517 66.2114 98.7597C66.4514 99.1597 66.5874 99.6357 66.6194 100.188C66.6274 100.332 66.6314 100.508 66.6314 100.716C66.6314 100.924 66.6274 101.1 66.6194 101.244C66.5874 101.788 66.4554 102.264 66.2234 102.672C65.9994 103.08 65.6674 103.396 65.2274 103.62C64.7954 103.844 64.2594 103.956 63.6194 103.956ZM63.6194 102.768C64.0434 102.768 64.3714 102.636 64.6034 102.372C64.8354 102.1 64.9634 101.704 64.9874 101.184C64.9954 101.064 64.9994 100.908 64.9994 100.716C64.9994 100.524 64.9954 100.368 64.9874 100.248C64.9634 99.7357 64.8354 99.3437 64.6034 99.0717C64.3714 98.7997 64.0434 98.6637 63.6194 98.6637C63.1954 98.6637 62.8674 98.7997 62.6354 99.0717C62.4034 99.3437 62.2754 99.7357 62.2514 100.248C62.2434 100.368 62.2394 100.524 62.2394 100.716C62.2394 100.908 62.2434 101.064 62.2514 101.184C62.2754 101.704 62.4034 102.1 62.6354 102.372C62.8674 102.636 63.1954 102.768 63.6194 102.768Z" fill="black" fill-opacity="0.65"/>
<path d="M57.9494 103.836C57.8694 103.836 57.8013 103.808 57.7453 103.752C57.6893 103.696 57.6613 103.628 57.6613 103.548V97.8837C57.6613 97.8037 57.6893 97.7357 57.7453 97.6797C57.8013 97.6237 57.8694 97.5957 57.9494 97.5957H58.9453C59.0333 97.5957 59.1013 97.6237 59.1493 97.6797C59.2053 97.7357 59.2333 97.8037 59.2333 97.8837V103.548C59.2333 103.628 59.2053 103.696 59.1493 103.752C59.1013 103.808 59.0333 103.836 58.9453 103.836H57.9494ZM57.9014 96.5637C57.8134 96.5637 57.7414 96.5397 57.6854 96.4917C57.6374 96.4357 57.6133 96.3637 57.6133 96.2757V95.4117C57.6133 95.3317 57.6374 95.2637 57.6854 95.2077C57.7414 95.1517 57.8134 95.1237 57.9014 95.1237H58.9933C59.0813 95.1237 59.1533 95.1517 59.2093 95.2077C59.2653 95.2637 59.2933 95.3317 59.2933 95.4117V96.2757C59.2933 96.3637 59.2653 96.4357 59.2093 96.4917C59.1533 96.5397 59.0813 96.5637 58.9933 96.5637H57.9014Z" fill="black" fill-opacity="0.65"/>
<path d="M55.336 103.836C54.856 103.836 54.452 103.752 54.124 103.584C53.796 103.416 53.552 103.168 53.392 102.84C53.232 102.504 53.152 102.088 53.152 101.592V98.8677H52.204C52.124 98.8677 52.056 98.8397 52 98.7837C51.944 98.7277 51.916 98.6597 51.916 98.5797V97.8837C51.916 97.8037 51.944 97.7357 52 97.6797C52.056 97.6237 52.124 97.5957 52.204 97.5957H53.152V95.6037C53.152 95.5237 53.176 95.4557 53.224 95.3997C53.28 95.3437 53.352 95.3157 53.44 95.3157H54.412C54.492 95.3157 54.56 95.3437 54.616 95.3997C54.672 95.4557 54.7 95.5237 54.7 95.6037V97.5957H56.2C56.28 97.5957 56.348 97.6237 56.404 97.6797C56.46 97.7357 56.488 97.8037 56.488 97.8837V98.5797C56.488 98.6597 56.46 98.7277 56.404 98.7837C56.348 98.8397 56.28 98.8677 56.2 98.8677H54.7V101.472C54.7 101.8 54.756 102.056 54.868 102.24C54.988 102.424 55.192 102.516 55.48 102.516H56.308C56.388 102.516 56.456 102.544 56.512 102.6C56.568 102.656 56.596 102.724 56.596 102.804V103.548C56.596 103.628 56.568 103.696 56.512 103.752C56.456 103.808 56.388 103.836 56.308 103.836H55.336Z" fill="black" fill-opacity="0.65"/>
<path d="M47.5305 103.956C47.1145 103.956 46.7385 103.876 46.4025 103.716C46.0665 103.548 45.7985 103.328 45.5985 103.056C45.4065 102.776 45.3105 102.464 45.3105 102.12C45.3105 101.56 45.5345 101.116 45.9825 100.788C46.4385 100.452 47.0385 100.228 47.7825 100.116L49.4265 99.8757V99.6237C49.4265 99.2877 49.3425 99.0277 49.1745 98.8437C49.0065 98.6597 48.7185 98.5677 48.3105 98.5677C48.0225 98.5677 47.7865 98.6277 47.6025 98.7477C47.4265 98.8597 47.2945 99.0117 47.2065 99.2037C47.1425 99.3077 47.0505 99.3597 46.9305 99.3597H45.9825C45.8945 99.3597 45.8265 99.3357 45.7785 99.2877C45.7385 99.2397 45.7185 99.1757 45.7185 99.0957C45.7265 98.9677 45.7785 98.8117 45.8745 98.6277C45.9705 98.4437 46.1225 98.2677 46.3305 98.0997C46.5385 97.9237 46.8065 97.7757 47.1345 97.6557C47.4625 97.5357 47.8585 97.4757 48.3225 97.4757C48.8265 97.4757 49.2505 97.5397 49.5945 97.6677C49.9465 97.7877 50.2265 97.9517 50.4345 98.1597C50.6425 98.3677 50.7945 98.6117 50.8905 98.8917C50.9865 99.1717 51.0345 99.4677 51.0345 99.7797V103.548C51.0345 103.628 51.0066 103.696 50.9506 103.752C50.8946 103.808 50.8265 103.836 50.7465 103.836H49.7745C49.6865 103.836 49.6145 103.808 49.5585 103.752C49.5105 103.696 49.4865 103.628 49.4865 103.548V103.08C49.3825 103.232 49.2425 103.376 49.0665 103.512C48.8905 103.64 48.6745 103.748 48.4185 103.836C48.1705 103.916 47.8745 103.956 47.5305 103.956ZM47.9385 102.816C48.2185 102.816 48.4705 102.756 48.6945 102.636C48.9265 102.516 49.1065 102.332 49.2345 102.084C49.3705 101.828 49.4385 101.508 49.4385 101.124V100.872L48.2385 101.064C47.7665 101.136 47.4145 101.252 47.1825 101.412C46.9505 101.572 46.8345 101.768 46.8345 102C46.8345 102.176 46.8865 102.328 46.9905 102.456C47.1025 102.576 47.2425 102.668 47.4105 102.732C47.5785 102.788 47.7545 102.816 47.9385 102.816Z" fill="black" fill-opacity="0.65"/>
<path d="M41.5633 103.956C40.9873 103.956 40.4793 103.848 40.0393 103.632C39.6073 103.416 39.2673 103.104 39.0193 102.696C38.7793 102.28 38.6473 101.78 38.6233 101.196C38.6153 101.076 38.6113 100.92 38.6113 100.728C38.6113 100.528 38.6153 100.364 38.6233 100.236C38.6473 99.6517 38.7793 99.1557 39.0193 98.7477C39.2673 98.3317 39.6073 98.0157 40.0393 97.7997C40.4793 97.5837 40.9873 97.4757 41.5633 97.4757C42.0753 97.4757 42.5113 97.5477 42.8713 97.6917C43.2313 97.8357 43.5273 98.0157 43.7593 98.2317C43.9913 98.4477 44.1633 98.6757 44.2753 98.9157C44.3953 99.1477 44.4593 99.3597 44.4673 99.5517C44.4753 99.6397 44.4473 99.7117 44.3833 99.7677C44.3273 99.8157 44.2593 99.8397 44.1793 99.8397H43.1233C43.0433 99.8397 42.9793 99.8197 42.9313 99.7797C42.8913 99.7397 42.8513 99.6797 42.8113 99.5997C42.6913 99.2797 42.5313 99.0557 42.3313 98.9277C42.1393 98.7917 41.8913 98.7237 41.5873 98.7237C41.1873 98.7237 40.8673 98.8517 40.6273 99.1077C40.3953 99.3557 40.2713 99.7517 40.2553 100.296C40.2393 100.6 40.2393 100.88 40.2553 101.136C40.2713 101.688 40.3953 102.088 40.6273 102.336C40.8673 102.584 41.1873 102.708 41.5873 102.708C41.8993 102.708 42.1513 102.644 42.3433 102.516C42.5353 102.38 42.6913 102.152 42.8113 101.832C42.8513 101.752 42.8913 101.692 42.9313 101.652C42.9793 101.612 43.0433 101.592 43.1233 101.592H44.1793C44.2593 101.592 44.3273 101.62 44.3833 101.676C44.4473 101.724 44.4753 101.792 44.4673 101.88C44.4593 102.024 44.4193 102.188 44.3473 102.372C44.2833 102.548 44.1753 102.732 44.0233 102.924C43.8793 103.108 43.6953 103.28 43.4713 103.44C43.2473 103.592 42.9753 103.716 42.6553 103.812C42.3433 103.908 41.9793 103.956 41.5633 103.956Z" fill="black" fill-opacity="0.65"/>
<path d="M35.9532 103.836C35.8732 103.836 35.8052 103.808 35.7492 103.752C35.6932 103.696 35.6652 103.628 35.6652 103.548V97.8837C35.6652 97.8037 35.6932 97.7357 35.7492 97.6797C35.8052 97.6237 35.8732 97.5957 35.9532 97.5957H36.9492C37.0372 97.5957 37.1052 97.6237 37.1532 97.6797C37.2092 97.7357 37.2372 97.8037 37.2372 97.8837V103.548C37.2372 103.628 37.2092 103.696 37.1532 103.752C37.1052 103.808 37.0372 103.836 36.9492 103.836H35.9532ZM35.9052 96.5637C35.8172 96.5637 35.7452 96.5397 35.6892 96.4917C35.6412 96.4357 35.6172 96.3637 35.6172 96.2757V95.4117C35.6172 95.3317 35.6412 95.2637 35.6892 95.2077C35.7452 95.1517 35.8172 95.1237 35.9052 95.1237H36.9972C37.0852 95.1237 37.1572 95.1517 37.2132 95.2077C37.2692 95.2637 37.2972 95.3317 37.2972 95.4117V96.2757C37.2972 96.3637 37.2692 96.4357 37.2132 96.4917C37.1572 96.5397 37.0852 96.5637 36.9972 96.5637H35.9052Z" fill="black" fill-opacity="0.65"/>
<path d="M32.5302 103.836C32.4502 103.836 32.3822 103.808 32.3262 103.752C32.2702 103.696 32.2422 103.628 32.2422 103.548V95.6037C32.2422 95.5237 32.2702 95.4557 32.3262 95.3997C32.3822 95.3437 32.4502 95.3157 32.5302 95.3157H33.5262C33.6062 95.3157 33.6742 95.3437 33.7302 95.3997C33.7862 95.4557 33.8142 95.5237 33.8142 95.6037V103.548C33.8142 103.628 33.7862 103.696 33.7302 103.752C33.6742 103.808 33.6062 103.836 33.5262 103.836H32.5302Z" fill="black" fill-opacity="0.65"/>
<path d="M25.1591 106.116C25.0791 106.116 25.0111 106.088 24.9551 106.032C24.8991 105.976 24.8711 105.908 24.8711 105.828V97.8837C24.8711 97.8037 24.8991 97.7357 24.9551 97.6797C25.0111 97.6237 25.0791 97.5957 25.1591 97.5957H26.1071C26.1951 97.5957 26.2631 97.6237 26.3111 97.6797C26.3671 97.7357 26.3951 97.8037 26.3951 97.8837V98.3637C26.5871 98.1077 26.8391 97.8957 27.1511 97.7277C27.4631 97.5597 27.8511 97.4757 28.3151 97.4757C28.7391 97.4757 29.1071 97.5437 29.4191 97.6797C29.7311 97.8157 29.9911 98.0117 30.1991 98.2677C30.4071 98.5157 30.5671 98.8117 30.6791 99.1557C30.7911 99.4997 30.8551 99.8797 30.8711 100.296C30.8791 100.432 30.8831 100.572 30.8831 100.716C30.8831 100.86 30.8791 101.004 30.8711 101.148C30.8631 101.548 30.8031 101.92 30.6911 102.264C30.5791 102.6 30.4151 102.896 30.1991 103.152C29.9911 103.4 29.7311 103.596 29.4191 103.74C29.1071 103.884 28.7391 103.956 28.3151 103.956C27.8831 103.956 27.5151 103.88 27.2111 103.728C26.9071 103.568 26.6591 103.36 26.4671 103.104V105.828C26.4671 105.908 26.4391 105.976 26.3831 106.032C26.3351 106.088 26.2671 106.116 26.1791 106.116H25.1591ZM27.8711 102.672C28.2151 102.672 28.4831 102.6 28.6751 102.456C28.8671 102.304 29.0031 102.108 29.0831 101.868C29.1711 101.628 29.2231 101.364 29.2391 101.076C29.2551 100.836 29.2551 100.596 29.2391 100.356C29.2231 100.068 29.1711 99.8037 29.0831 99.5637C29.0031 99.3237 28.8671 99.1317 28.6751 98.9877C28.4831 98.8357 28.2151 98.7597 27.8711 98.7597C27.5431 98.7597 27.2751 98.8357 27.0671 98.9877C26.8671 99.1397 26.7191 99.3357 26.6231 99.5757C26.5351 99.8077 26.4831 100.048 26.4671 100.296C26.4591 100.44 26.4551 100.592 26.4551 100.752C26.4551 100.912 26.4591 101.068 26.4671 101.22C26.4751 101.46 26.5311 101.692 26.6351 101.916C26.7391 102.132 26.8911 102.312 27.0911 102.456C27.2911 102.6 27.5511 102.672 27.8711 102.672Z" fill="black" fill-opacity="0.65"/>
<path d="M17.788 106.116C17.708 106.116 17.64 106.088 17.584 106.032C17.528 105.976 17.5 105.908 17.5 105.828V97.8837C17.5 97.8037 17.528 97.7357 17.584 97.6797C17.64 97.6237 17.708 97.5957 17.788 97.5957H18.736C18.824 97.5957 18.892 97.6237 18.94 97.6797C18.996 97.7357 19.024 97.8037 19.024 97.8837V98.3637C19.216 98.1077 19.468 97.8957 19.78 97.7277C20.092 97.5597 20.48 97.4757 20.944 97.4757C21.368 97.4757 21.736 97.5437 22.048 97.6797C22.36 97.8157 22.62 98.0117 22.828 98.2677C23.036 98.5157 23.196 98.8117 23.308 99.1557C23.42 99.4997 23.484 99.8797 23.5 100.296C23.508 100.432 23.512 100.572 23.512 100.716C23.512 100.86 23.508 101.004 23.5 101.148C23.492 101.548 23.432 101.92 23.32 102.264C23.208 102.6 23.044 102.896 22.828 103.152C22.62 103.4 22.36 103.596 22.048 103.74C21.736 103.884 21.368 103.956 20.944 103.956C20.512 103.956 20.144 103.88 19.84 103.728C19.536 103.568 19.288 103.36 19.096 103.104V105.828C19.096 105.908 19.068 105.976 19.012 106.032C18.964 106.088 18.896 106.116 18.808 106.116H17.788ZM20.5 102.672C20.844 102.672 21.112 102.6 21.304 102.456C21.496 102.304 21.632 102.108 21.712 101.868C21.8 101.628 21.852 101.364 21.868 101.076C21.884 100.836 21.884 100.596 21.868 100.356C21.852 100.068 21.8 99.8037 21.712 99.5637C21.632 99.3237 21.496 99.1317 21.304 98.9877C21.112 98.8357 20.844 98.7597 20.5 98.7597C20.172 98.7597 19.904 98.8357 19.696 98.9877C19.496 99.1397 19.348 99.3357 19.252 99.5757C19.164 99.8077 19.112 100.048 19.096 100.296C19.088 100.44 19.084 100.592 19.084 100.752C19.084 100.912 19.088 101.068 19.096 101.22C19.104 101.46 19.16 101.692 19.264 101.916C19.368 102.132 19.52 102.312 19.72 102.456C19.92 102.6 20.18 102.672 20.5 102.672Z" fill="black" fill-opacity="0.65"/>
<path d="M8.79692 103.836C8.73292 103.836 8.67292 103.812 8.61692 103.764C8.56892 103.716 8.54492 103.656 8.54492 103.584C8.54492 103.552 8.55292 103.516 8.56892 103.476L11.4609 95.7357C11.4849 95.6557 11.5289 95.5877 11.5929 95.5317C11.6649 95.4677 11.7609 95.4357 11.8809 95.4357H13.1889C13.3089 95.4357 13.4009 95.4677 13.4649 95.5317C13.5289 95.5877 13.5769 95.6557 13.6089 95.7357L16.5009 103.476C16.5089 103.516 16.5129 103.552 16.5129 103.584C16.5129 103.656 16.4889 103.716 16.4409 103.764C16.3929 103.812 16.3369 103.836 16.2729 103.836H15.2289C15.1169 103.836 15.0329 103.812 14.9769 103.764C14.9289 103.708 14.8969 103.656 14.8809 103.608L14.3169 102.144H10.7529L10.1889 103.608C10.1729 103.656 10.1369 103.708 10.0809 103.764C10.0329 103.812 9.95292 103.836 9.84092 103.836H8.79692ZM11.1729 100.764H13.8969L12.5289 97.0557L11.1729 100.764Z" fill="black" fill-opacity="0.65"/>
<path d="M394.382 103.836C394.302 103.836 394.234 103.808 394.178 103.752C394.122 103.696 394.094 103.628 394.094 103.548V97.8837C394.094 97.8037 394.122 97.7357 394.178 97.6797C394.234 97.6237 394.302 97.5957 394.382 97.5957H395.366C395.446 97.5957 395.514 97.6237 395.57 97.6797C395.626 97.7357 395.654 97.8037 395.654 97.8837V98.3757C395.862 98.1197 396.126 97.9077 396.446 97.7397C396.774 97.5637 397.178 97.4757 397.658 97.4757C398.146 97.4757 398.57 97.5877 398.93 97.8117C399.29 98.0277 399.566 98.3357 399.758 98.7357C399.958 99.1357 400.058 99.6157 400.058 100.176V103.548C400.058 103.628 400.03 103.696 399.974 103.752C399.918 103.808 399.85 103.836 399.77 103.836H398.714C398.634 103.836 398.566 103.808 398.51 103.752C398.454 103.696 398.426 103.628 398.426 103.548V100.248C398.426 99.7837 398.31 99.4197 398.078 99.1557C397.854 98.8917 397.526 98.7597 397.094 98.7597C396.678 98.7597 396.346 98.8917 396.098 99.1557C395.85 99.4197 395.726 99.7837 395.726 100.248V103.548C395.726 103.628 395.698 103.696 395.642 103.752C395.586 103.808 395.518 103.836 395.438 103.836H394.382Z" fill="black" fill-opacity="0.65"/>
<path d="M389.752 103.956C389.112 103.956 388.572 103.844 388.132 103.62C387.7 103.396 387.368 103.08 387.136 102.672C386.912 102.264 386.784 101.788 386.752 101.244C386.744 101.1 386.74 100.924 386.74 100.716C386.74 100.508 386.744 100.332 386.752 100.188C386.784 99.6357 386.916 99.1597 387.148 98.7597C387.388 98.3517 387.724 98.0357 388.156 97.8117C388.596 97.5877 389.128 97.4757 389.752 97.4757C390.376 97.4757 390.904 97.5877 391.336 97.8117C391.776 98.0357 392.112 98.3517 392.344 98.7597C392.584 99.1597 392.72 99.6357 392.752 100.188C392.76 100.332 392.764 100.508 392.764 100.716C392.764 100.924 392.76 101.1 392.752 101.244C392.72 101.788 392.588 102.264 392.356 102.672C392.132 103.08 391.8 103.396 391.36 103.62C390.928 103.844 390.392 103.956 389.752 103.956ZM389.752 102.768C390.176 102.768 390.504 102.636 390.736 102.372C390.968 102.1 391.096 101.704 391.12 101.184C391.128 101.064 391.132 100.908 391.132 100.716C391.132 100.524 391.128 100.368 391.12 100.248C391.096 99.7357 390.968 99.3437 390.736 99.0717C390.504 98.7997 390.176 98.6637 389.752 98.6637C389.328 98.6637 389 98.7997 388.768 99.0717C388.536 99.3437 388.408 99.7357 388.384 100.248C388.376 100.368 388.372 100.524 388.372 100.716C388.372 100.908 388.376 101.064 388.384 101.184C388.408 101.704 388.536 102.1 388.768 102.372C389 102.636 389.328 102.768 389.752 102.768Z" fill="black" fill-opacity="0.65"/>
<path d="M384.08 103.836C384 103.836 383.932 103.808 383.876 103.752C383.82 103.696 383.792 103.628 383.792 103.548V97.8837C383.792 97.8037 383.82 97.7357 383.876 97.6797C383.932 97.6237 384 97.5957 384.08 97.5957H385.076C385.164 97.5957 385.232 97.6237 385.28 97.6797C385.336 97.7357 385.364 97.8037 385.364 97.8837V103.548C385.364 103.628 385.336 103.696 385.28 103.752C385.232 103.808 385.164 103.836 385.076 103.836H384.08ZM384.032 96.5637C383.944 96.5637 383.872 96.5397 383.816 96.4917C383.768 96.4357 383.744 96.3637 383.744 96.2757V95.4117C383.744 95.3317 383.768 95.2637 383.816 95.2077C383.872 95.1517 383.944 95.1237 384.032 95.1237H385.124C385.212 95.1237 385.284 95.1517 385.34 95.2077C385.396 95.2637 385.424 95.3317 385.424 95.4117V96.2757C385.424 96.3637 385.396 96.4357 385.34 96.4917C385.284 96.5397 385.212 96.5637 385.124 96.5637H384.032Z" fill="black" fill-opacity="0.65"/>
<path d="M381.469 103.836C380.989 103.836 380.585 103.752 380.257 103.584C379.929 103.416 379.685 103.168 379.525 102.84C379.365 102.504 379.285 102.088 379.285 101.592V98.8677H378.337C378.257 98.8677 378.189 98.8397 378.133 98.7837C378.077 98.7277 378.049 98.6597 378.049 98.5797V97.8837C378.049 97.8037 378.077 97.7357 378.133 97.6797C378.189 97.6237 378.257 97.5957 378.337 97.5957H379.285V95.6037C379.285 95.5237 379.309 95.4557 379.357 95.3997C379.413 95.3437 379.485 95.3157 379.573 95.3157H380.545C380.625 95.3157 380.693 95.3437 380.749 95.3997C380.805 95.4557 380.833 95.5237 380.833 95.6037V97.5957H382.333C382.413 97.5957 382.481 97.6237 382.537 97.6797C382.593 97.7357 382.621 97.8037 382.621 97.8837V98.5797C382.621 98.6597 382.593 98.7277 382.537 98.7837C382.481 98.8397 382.413 98.8677 382.333 98.8677H380.833V101.472C380.833 101.8 380.889 102.056 381.001 102.24C381.121 102.424 381.325 102.516 381.613 102.516H382.441C382.521 102.516 382.589 102.544 382.645 102.6C382.701 102.656 382.729 102.724 382.729 102.804V103.548C382.729 103.628 382.701 103.696 382.645 103.752C382.589 103.808 382.521 103.836 382.441 103.836H381.469Z" fill="black" fill-opacity="0.65"/>
<path d="M373.663 103.956C373.247 103.956 372.871 103.876 372.535 103.716C372.199 103.548 371.931 103.328 371.731 103.056C371.539 102.776 371.443 102.464 371.443 102.12C371.443 101.56 371.667 101.116 372.115 100.788C372.571 100.452 373.171 100.228 373.915 100.116L375.559 99.8757V99.6237C375.559 99.2877 375.475 99.0277 375.307 98.8437C375.139 98.6597 374.851 98.5677 374.443 98.5677C374.155 98.5677 373.919 98.6277 373.735 98.7477C373.559 98.8597 373.427 99.0117 373.339 99.2037C373.275 99.3077 373.183 99.3597 373.063 99.3597H372.115C372.027 99.3597 371.959 99.3357 371.911 99.2877C371.871 99.2397 371.851 99.1757 371.851 99.0957C371.859 98.9677 371.911 98.8117 372.007 98.6277C372.103 98.4437 372.255 98.2677 372.463 98.0997C372.671 97.9237 372.939 97.7757 373.267 97.6557C373.595 97.5357 373.991 97.4757 374.455 97.4757C374.959 97.4757 375.383 97.5397 375.727 97.6677C376.079 97.7877 376.359 97.9517 376.567 98.1597C376.775 98.3677 376.927 98.6117 377.023 98.8917C377.119 99.1717 377.167 99.4677 377.167 99.7797V103.548C377.167 103.628 377.139 103.696 377.083 103.752C377.027 103.808 376.959 103.836 376.879 103.836H375.907C375.819 103.836 375.747 103.808 375.691 103.752C375.643 103.696 375.619 103.628 375.619 103.548V103.08C375.515 103.232 375.375 103.376 375.199 103.512C375.023 103.64 374.807 103.748 374.551 103.836C374.303 103.916 374.007 103.956 373.663 103.956ZM374.071 102.816C374.351 102.816 374.603 102.756 374.827 102.636C375.059 102.516 375.239 102.332 375.367 102.084C375.503 101.828 375.571 101.508 375.571 101.124V100.872L374.371 101.064C373.899 101.136 373.547 101.252 373.315 101.412C373.083 101.572 372.967 101.768 372.967 102C372.967 102.176 373.019 102.328 373.123 102.456C373.235 102.576 373.375 102.668 373.543 102.732C373.711 102.788 373.887 102.816 374.071 102.816Z" fill="black" fill-opacity="0.65"/>
<path d="M367.696 103.956C367.12 103.956 366.612 103.848 366.172 103.632C365.74 103.416 365.4 103.104 365.152 102.696C364.912 102.28 364.78 101.78 364.756 101.196C364.748 101.076 364.744 100.92 364.744 100.728C364.744 100.528 364.748 100.364 364.756 100.236C364.78 99.6517 364.912 99.1557 365.152 98.7477C365.4 98.3317 365.74 98.0157 366.172 97.7997C366.612 97.5837 367.12 97.4757 367.696 97.4757C368.208 97.4757 368.644 97.5477 369.004 97.6917C369.364 97.8357 369.66 98.0157 369.892 98.2317C370.124 98.4477 370.296 98.6757 370.408 98.9157C370.528 99.1477 370.592 99.3597 370.6 99.5517C370.608 99.6397 370.58 99.7117 370.516 99.7677C370.46 99.8157 370.392 99.8397 370.312 99.8397H369.256C369.176 99.8397 369.112 99.8197 369.064 99.7797C369.024 99.7397 368.984 99.6797 368.944 99.5997C368.824 99.2797 368.664 99.0557 368.464 98.9277C368.272 98.7917 368.024 98.7237 367.72 98.7237C367.32 98.7237 367 98.8517 366.76 99.1077C366.528 99.3557 366.404 99.7517 366.388 100.296C366.372 100.6 366.372 100.88 366.388 101.136C366.404 101.688 366.528 102.088 366.76 102.336C367 102.584 367.32 102.708 367.72 102.708C368.032 102.708 368.284 102.644 368.476 102.516C368.668 102.38 368.824 102.152 368.944 101.832C368.984 101.752 369.024 101.692 369.064 101.652C369.112 101.612 369.176 101.592 369.256 101.592H370.312C370.392 101.592 370.46 101.62 370.516 101.676C370.58 101.724 370.608 101.792 370.6 101.88C370.592 102.024 370.552 102.188 370.48 102.372C370.416 102.548 370.308 102.732 370.156 102.924C370.012 103.108 369.828 103.28 369.604 103.44C369.38 103.592 369.108 103.716 368.788 103.812C368.476 103.908 368.112 103.956 367.696 103.956Z" fill="black" fill-opacity="0.65"/>
<path d="M362.084 103.836C362.004 103.836 361.936 103.808 361.88 103.752C361.824 103.696 361.796 103.628 361.796 103.548V97.8837C361.796 97.8037 361.824 97.7357 361.88 97.6797C361.936 97.6237 362.004 97.5957 362.084 97.5957H363.08C363.168 97.5957 363.236 97.6237 363.284 97.6797C363.34 97.7357 363.368 97.8037 363.368 97.8837V103.548C363.368 103.628 363.34 103.696 363.284 103.752C363.236 103.808 363.168 103.836 363.08 103.836H362.084ZM362.036 96.5637C361.948 96.5637 361.876 96.5397 361.82 96.4917C361.772 96.4357 361.748 96.3637 361.748 96.2757V95.4117C361.748 95.3317 361.772 95.2637 361.82 95.2077C361.876 95.1517 361.948 95.1237 362.036 95.1237H363.128C363.216 95.1237 363.288 95.1517 363.344 95.2077C363.4 95.2637 363.428 95.3317 363.428 95.4117V96.2757C363.428 96.3637 363.4 96.4357 363.344 96.4917C363.288 96.5397 363.216 96.5637 363.128 96.5637H362.036Z" fill="black" fill-opacity="0.65"/>
<path d="M358.663 103.836C358.583 103.836 358.515 103.808 358.459 103.752C358.403 103.696 358.375 103.628 358.375 103.548V95.6037C358.375 95.5237 358.403 95.4557 358.459 95.3997C358.515 95.3437 358.583 95.3157 358.663 95.3157H359.659C359.739 95.3157 359.807 95.3437 359.863 95.3997C359.919 95.4557 359.947 95.5237 359.947 95.6037V103.548C359.947 103.628 359.919 103.696 359.863 103.752C359.807 103.808 359.739 103.836 359.659 103.836H358.663Z" fill="black" fill-opacity="0.65"/>
<path d="M351.292 106.116C351.212 106.116 351.144 106.088 351.088 106.032C351.032 105.976 351.004 105.908 351.004 105.828V97.8837C351.004 97.8037 351.032 97.7357 351.088 97.6797C351.144 97.6237 351.212 97.5957 351.292 97.5957H352.24C352.328 97.5957 352.396 97.6237 352.444 97.6797C352.5 97.7357 352.528 97.8037 352.528 97.8837V98.3637C352.72 98.1077 352.972 97.8957 353.284 97.7277C353.596 97.5597 353.984 97.4757 354.448 97.4757C354.872 97.4757 355.24 97.5437 355.552 97.6797C355.864 97.8157 356.124 98.0117 356.332 98.2677C356.54 98.5157 356.7 98.8117 356.812 99.1557C356.924 99.4997 356.988 99.8797 357.004 100.296C357.012 100.432 357.016 100.572 357.016 100.716C357.016 100.86 357.012 101.004 357.004 101.148C356.996 101.548 356.936 101.92 356.824 102.264C356.712 102.6 356.548 102.896 356.332 103.152C356.124 103.4 355.864 103.596 355.552 103.74C355.24 103.884 354.872 103.956 354.448 103.956C354.016 103.956 353.648 103.88 353.344 103.728C353.04 103.568 352.792 103.36 352.6 103.104V105.828C352.6 105.908 352.572 105.976 352.516 106.032C352.468 106.088 352.4 106.116 352.312 106.116H351.292ZM354.004 102.672C354.348 102.672 354.616 102.6 354.808 102.456C355 102.304 355.136 102.108 355.216 101.868C355.304 101.628 355.356 101.364 355.372 101.076C355.388 100.836 355.388 100.596 355.372 100.356C355.356 100.068 355.304 99.8037 355.216 99.5637C355.136 99.3237 355 99.1317 354.808 98.9877C354.616 98.8357 354.348 98.7597 354.004 98.7597C353.676 98.7597 353.408 98.8357 353.2 98.9877C353 99.1397 352.852 99.3357 352.756 99.5757C352.668 99.8077 352.616 100.048 352.6 100.296C352.592 100.44 352.588 100.592 352.588 100.752C352.588 100.912 352.592 101.068 352.6 101.22C352.608 101.46 352.664 101.692 352.768 101.916C352.872 102.132 353.024 102.312 353.224 102.456C353.424 102.6 353.684 102.672 354.004 102.672Z" fill="black" fill-opacity="0.65"/>
<path d="M343.921 106.116C343.841 106.116 343.773 106.088 343.717 106.032C343.661 105.976 343.633 105.908 343.633 105.828V97.8837C343.633 97.8037 343.661 97.7357 343.717 97.6797C343.773 97.6237 343.841 97.5957 343.921 97.5957H344.869C344.957 97.5957 345.025 97.6237 345.073 97.6797C345.129 97.7357 345.157 97.8037 345.157 97.8837V98.3637C345.349 98.1077 345.601 97.8957 345.913 97.7277C346.225 97.5597 346.613 97.4757 347.077 97.4757C347.501 97.4757 347.869 97.5437 348.181 97.6797C348.493 97.8157 348.753 98.0117 348.961 98.2677C349.169 98.5157 349.329 98.8117 349.441 99.1557C349.553 99.4997 349.617 99.8797 349.633 100.296C349.641 100.432 349.645 100.572 349.645 100.716C349.645 100.86 349.641 101.004 349.633 101.148C349.625 101.548 349.565 101.92 349.453 102.264C349.341 102.6 349.177 102.896 348.961 103.152C348.753 103.4 348.493 103.596 348.181 103.74C347.869 103.884 347.501 103.956 347.077 103.956C346.645 103.956 346.277 103.88 345.973 103.728C345.669 103.568 345.421 103.36 345.229 103.104V105.828C345.229 105.908 345.201 105.976 345.145 106.032C345.097 106.088 345.029 106.116 344.941 106.116H343.921ZM346.633 102.672C346.977 102.672 347.245 102.6 347.437 102.456C347.629 102.304 347.765 102.108 347.845 101.868C347.933 101.628 347.985 101.364 348.001 101.076C348.017 100.836 348.017 100.596 348.001 100.356C347.985 100.068 347.933 99.8037 347.845 99.5637C347.765 99.3237 347.629 99.1317 347.437 98.9877C347.245 98.8357 346.977 98.7597 346.633 98.7597C346.305 98.7597 346.037 98.8357 345.829 98.9877C345.629 99.1397 345.481 99.3357 345.385 99.5757C345.297 99.8077 345.245 100.048 345.229 100.296C345.221 100.44 345.217 100.592 345.217 100.752C345.217 100.912 345.221 101.068 345.229 101.22C345.237 101.46 345.293 101.692 345.397 101.916C345.501 102.132 345.653 102.312 345.853 102.456C346.053 102.6 346.313 102.672 346.633 102.672Z" fill="black" fill-opacity="0.65"/>
<path d="M334.93 103.836C334.866 103.836 334.806 103.812 334.75 103.764C334.702 103.716 334.678 103.656 334.678 103.584C334.678 103.552 334.686 103.516 334.702 103.476L337.594 95.7357C337.618 95.6557 337.662 95.5877 337.726 95.5317C337.798 95.4677 337.894 95.4357 338.014 95.4357H339.322C339.442 95.4357 339.534 95.4677 339.598 95.5317C339.662 95.5877 339.71 95.6557 339.742 95.7357L342.634 103.476C342.642 103.516 342.646 103.552 342.646 103.584C342.646 103.656 342.622 103.716 342.574 103.764C342.526 103.812 342.47 103.836 342.406 103.836H341.362C341.25 103.836 341.166 103.812 341.11 103.764C341.062 103.708 341.03 103.656 341.014 103.608L340.45 102.144H336.886L336.322 103.608C336.306 103.656 336.27 103.708 336.214 103.764C336.166 103.812 336.086 103.836 335.974 103.836H334.93ZM337.306 100.764H340.03L338.662 97.0557L337.306 100.764Z" fill="black" fill-opacity="0.65"/>
</svg>
