<svg width="131" height="130" viewBox="0 0 131 130" fill="none" xmlns="http://www.w3.org/2000/svg">
<path opacity="0.1" d="M120.09 63.5C120.09 93.5995 95.6893 118 65.5898 118C35.4903 118 11.0898 93.5995 11.0898 63.5C11.0898 33.4005 35.4903 9 65.5898 9C95.6893 9 120.09 33.4005 120.09 63.5Z" fill="#033D58"/>
<path d="M129.09 120H3.08984V121H129.09V120Z" fill="#969696"/>
<path d="M24.1582 35.0698C24.1582 32.8607 25.9491 31.0698 28.1582 31.0698H123.567C125.776 31.0698 127.567 32.8607 127.567 35.0698V93.1149H24.1582V35.0698Z" fill="white"/>
<path fill-rule="evenodd" clip-rule="evenodd" d="M123.567 33.0698H28.1582C27.0536 33.0698 26.1582 33.9653 26.1582 35.0698V91.1149H125.567V35.0698C125.567 33.9653 124.672 33.0698 123.567 33.0698ZM28.1582 31.0698C25.9491 31.0698 24.1582 32.8607 24.1582 35.0698V93.1149H127.567V35.0698C127.567 32.8607 125.776 31.0698 123.567 31.0698H28.1582Z" fill="#969696"/>
<path fill-rule="evenodd" clip-rule="evenodd" d="M83.7879 96.7485C83.7879 97.3008 83.3402 97.7485 82.7879 97.7485H64.3906C63.8383 97.7485 63.3906 97.3008 63.3906 96.7485C63.3906 96.1963 63.8383 95.7485 64.3906 95.7485H82.7879C83.3402 95.7485 83.7879 96.1963 83.7879 96.7485Z" fill="#969696"/>
<path fill-rule="evenodd" clip-rule="evenodd" d="M123.434 35.7373C123.71 35.7373 123.934 35.9612 123.934 36.2373V88.9756C123.934 89.2517 123.71 89.4756 123.434 89.4756C123.158 89.4756 122.934 89.2517 122.934 88.9756V36.2373C122.934 35.9612 123.158 35.7373 123.434 35.7373Z" fill="#969696"/>
<path d="M22.0898 94.0444C22.0898 92.3876 23.4329 91.0444 25.0898 91.0444H126.634C128.291 91.0444 129.634 92.3876 129.634 94.0444V96.3171C129.634 97.974 128.291 99.3171 126.634 99.3171H25.0898C23.4329 99.3171 22.0898 97.974 22.0898 96.3171V94.0444Z" fill="white"/>
<path fill-rule="evenodd" clip-rule="evenodd" d="M126.634 93.0444H25.0898C24.5375 93.0444 24.0898 93.4921 24.0898 94.0444V96.3171C24.0898 96.8694 24.5375 97.3171 25.0898 97.3171H126.634C127.187 97.3171 127.634 96.8694 127.634 96.3171V94.0444C127.634 93.4922 127.187 93.0444 126.634 93.0444ZM25.0898 91.0444C23.4329 91.0444 22.0898 92.3876 22.0898 94.0444V96.3171C22.0898 97.974 23.4329 99.3171 25.0898 99.3171H126.634C128.291 99.3171 129.634 97.974 129.634 96.3171V94.0444C129.634 92.3876 128.291 91.0444 126.634 91.0444H25.0898Z" fill="#969696"/>
<path d="M115.157 46.5776C115.157 50.0042 112.379 52.7821 108.952 52.7821C105.526 52.7821 102.748 50.0042 102.748 46.5776C102.748 43.1509 105.526 40.373 108.952 40.373C112.379 40.373 115.157 43.1509 115.157 46.5776Z" fill="white"/>
<path d="M82.0672 80.7045C82.0672 84.1312 79.2894 86.909 75.8627 86.909C72.4361 86.909 69.6582 84.1312 69.6582 80.7045C69.6582 77.2779 72.4361 74.5 75.8627 74.5C79.2894 74.5 82.0672 77.2779 82.0672 80.7045Z" fill="white"/>
<path d="M92.4082 78.5679C92.4082 77.4633 93.3036 76.5679 94.4082 76.5679H100.749C101.854 76.5679 102.749 77.4633 102.749 78.5679V83.8746C102.749 84.9792 101.854 85.8746 100.749 85.8746H94.4082C93.3036 85.8746 92.4082 84.9792 92.4082 83.8746V78.5679Z" fill="white"/>
<path d="M67.5898 30C67.5898 29.4477 68.0375 29 68.5898 29H82.1011C82.6533 29 83.1011 29.4477 83.1011 30V34.2045C83.1011 34.7568 82.6533 35.2045 82.1011 35.2045H68.5898C68.0375 35.2045 67.5898 34.7568 67.5898 34.2045V30Z" fill="white"/>
<path fill-rule="evenodd" clip-rule="evenodd" d="M82.1011 30H68.5898V34.2045H82.1011V30ZM68.5898 29C68.0375 29 67.5898 29.4477 67.5898 30V34.2045C67.5898 34.7568 68.0375 35.2045 68.5898 35.2045H82.1011C82.6533 35.2045 83.1011 34.7568 83.1011 34.2045V30C83.1011 29.4477 82.6533 29 82.1011 29H68.5898Z" fill="#969696"/>
<path fill-rule="evenodd" clip-rule="evenodd" d="M66.7602 97.2837H84.9605L89.2517 119.812C89.355 120.355 88.999 120.878 88.4565 120.982C87.9139 121.085 87.3904 120.729 87.287 120.187L83.3055 99.2837H68.4152L64.4337 120.187C64.3303 120.729 63.8068 121.085 63.2642 120.982C62.7217 120.878 62.3657 120.355 62.469 119.812L66.7602 97.2837Z" fill="#969696"/>
<path fill-rule="evenodd" clip-rule="evenodd" d="M1.24805 68.8695C1.24805 69.0979 1.39826 69.283 1.58356 69.283H26.7452C26.9305 69.283 27.0807 69.0979 27.0807 68.8695C27.0807 68.6412 26.9305 68.4561 26.7452 68.4561H1.58356C1.39826 68.4561 1.24805 68.6412 1.24805 68.8695Z" fill="#969696"/>
<path fill-rule="evenodd" clip-rule="evenodd" d="M35.3494 44.4652C35.3494 44.6936 35.1643 44.8787 34.9359 44.8787H19.4311C19.2027 44.8787 19.0176 44.6936 19.0176 44.4652C19.0176 44.2369 19.2027 44.0518 19.4311 44.0518H34.9359C35.1643 44.0518 35.3494 44.2369 35.3494 44.4652Z" fill="#969696"/>
<path fill-rule="evenodd" clip-rule="evenodd" d="M35.35 83.2953C35.35 83.5237 35.1845 83.7088 34.9804 83.7088H7.26409C7.05999 83.7088 6.89453 83.5237 6.89453 83.2953C6.89453 83.067 7.05999 82.8818 7.26409 82.8818H34.9804C35.1845 82.8818 35.35 83.067 35.35 83.2953Z" fill="#969696"/>
<path fill-rule="evenodd" clip-rule="evenodd" d="M7.76367 65.8969C7.76367 66.1252 7.94879 66.3104 8.17716 66.3104H25.6841C25.9124 66.3104 26.0976 66.1252 26.0976 65.8969C26.0976 65.6685 25.9124 65.4834 25.6841 65.4834H8.17716C7.94879 65.4834 7.76367 65.6685 7.76367 65.8969Z" fill="#969696"/>
<path d="M60.739 52.3197C60.739 55.0792 58.502 57.3162 55.7425 57.3162C52.9831 57.3162 50.7461 55.0792 50.7461 52.3197C50.7461 49.5602 52.9831 47.3232 55.7425 47.3232C58.502 47.3232 60.739 49.5602 60.739 52.3197Z" fill="white" stroke="#969696" stroke-width="2"/>
<path d="M68.739 72.3197C68.739 75.0792 66.502 77.3162 63.7425 77.3162C60.9831 77.3162 58.7461 75.0792 58.7461 72.3197C58.7461 69.5602 60.9831 67.3232 63.7425 67.3232C66.502 67.3232 68.739 69.5602 68.739 72.3197Z" fill="white" stroke="#969696" stroke-width="2"/>
<path d="M106.946 52.3197C106.946 55.0792 104.709 57.3162 101.949 57.3162C99.1901 57.3162 96.9531 55.0792 96.9531 52.3197C96.9531 49.5602 99.1901 47.3232 101.949 47.3232C104.709 47.3232 106.946 49.5602 106.946 52.3197Z" fill="white" stroke="#969696" stroke-width="2"/>
<path d="M75.9688 49.3232C75.9688 48.771 76.4165 48.3232 76.9688 48.3232H83.9688C84.521 48.3232 84.9688 48.771 84.9688 49.3232V55.3232C84.9688 55.8755 84.521 56.3232 83.9688 56.3232H76.9688C76.4165 56.3232 75.9688 55.8755 75.9688 55.3232V49.3232Z" fill="white" stroke="#969696" stroke-width="2"/>
<path d="M29.2747 71.9858C29.084 71.4675 29.3495 70.8927 29.8678 70.702L36.4373 68.2849C36.9556 68.0942 37.5304 68.3597 37.7211 68.878L39.7929 74.509C39.9836 75.0273 39.718 75.6021 39.1997 75.7928L32.6303 78.2099C32.112 78.4006 31.5372 78.135 31.3465 77.6167L29.2747 71.9858Z" fill="white" stroke="#969696" stroke-width="2"/>
<path d="M17.4992 48.1073C17.7661 47.6238 18.3745 47.4482 18.858 47.7151L24.9861 51.0984C25.4696 51.3653 25.6451 51.9736 25.3782 52.4571L22.4783 57.7098C22.2114 58.1933 21.603 58.3688 21.1195 58.1019L14.9914 54.7187C14.5079 54.4518 14.3324 53.8434 14.5993 53.3599L17.4992 48.1073Z" fill="white" stroke="#969696" stroke-width="2"/>
<path d="M83.6934 69.8496C83.6934 69.2973 84.1412 68.8496 84.6934 68.8496H91.6934C92.2457 68.8496 92.6934 69.2973 92.6934 69.8496V75.8496C92.6934 76.4019 92.2457 76.8496 91.6934 76.8496H84.6934C84.1412 76.8496 83.6934 76.4019 83.6934 75.8496V69.8496Z" fill="white" stroke="#969696" stroke-width="2"/>
<path d="M103.947 69.9346C103.947 69.3823 104.394 68.9346 104.947 68.9346H111.947C112.499 68.9346 112.947 69.3823 112.947 69.9346V75.9346C112.947 76.4869 112.499 76.9346 111.947 76.9346H104.947C104.394 76.9346 103.947 76.4869 103.947 75.9346V69.9346Z" fill="white" stroke="#969696" stroke-width="2"/>
</svg>
