<svg width="88" height="48" viewBox="0 0 88 48" fill="none" xmlns="http://www.w3.org/2000/svg">
<path d="M31.9648 4.91266C31.9648 4.40861 32.3734 4 32.8775 4H79.4479C79.9519 4 80.3606 4.40861 80.3606 4.91266V36.2618C80.3606 36.7659 79.9519 37.1745 79.4479 37.1745H32.8775C32.3734 37.1745 31.9648 36.7659 31.9648 36.2618V4.91266Z" fill="white"/>
<path fill-rule="evenodd" clip-rule="evenodd" d="M79.4479 4.91266H32.8775V36.2618H79.4479V4.91266ZM32.8775 4C32.3734 4 31.9648 4.40861 31.9648 4.91266V36.2618C31.9648 36.7659 32.3734 37.1745 32.8775 37.1745H79.4479C79.9519 37.1745 80.3606 36.7659 80.3606 36.2618V4.91266C80.3606 4.40861 79.9519 4 79.4479 4H32.8775Z" fill="#969696"/>
<path d="M52.7392 36.8926C52.8386 36.4834 53.205 36.1953 53.626 36.1953H59.093C59.514 36.1953 59.8804 36.4834 59.9798 36.8926L60.7689 40.141C60.9085 40.7155 60.4733 41.2691 59.882 41.2691H52.8369C52.2457 41.2691 51.8105 40.7155 51.9501 40.141L52.7392 36.8926Z" fill="white"/>
<path fill-rule="evenodd" clip-rule="evenodd" d="M59.093 37.108H53.626L52.8369 40.3564H59.882L59.093 37.108ZM53.626 36.1953C53.205 36.1953 52.8386 36.4834 52.7392 36.8926L51.9501 40.141C51.8105 40.7155 52.2457 41.2691 52.8369 41.2691H59.882C60.4733 41.2691 60.9085 40.7155 60.7689 40.141L59.9798 36.8926C59.8804 36.4834 59.514 36.1953 59.093 36.1953H53.626Z" fill="#969696"/>
<path d="M47.3809 41.0064C47.3809 40.5024 47.7895 40.0938 48.2936 40.0938H64.0312C64.5353 40.0938 64.9439 40.5024 64.9439 41.0064V43.084C64.9439 43.588 64.5353 43.9966 64.0312 43.9966H48.2936C47.7895 43.9966 47.3809 43.588 47.3809 43.084V41.0064Z" fill="white"/>
<path fill-rule="evenodd" clip-rule="evenodd" d="M64.0312 41.0064H48.2936V43.084H64.0312V41.0064ZM48.2936 40.0938C47.7895 40.0938 47.3809 40.5024 47.3809 41.0064V43.084C47.3809 43.588 47.7895 43.9966 48.2936 43.9966H64.0312C64.5353 43.9966 64.9439 43.588 64.9439 43.084V41.0064C64.9439 40.5024 64.5353 40.0938 64.0312 40.0938H48.2936Z" fill="#969696"/>
<path fill-rule="evenodd" clip-rule="evenodd" d="M79.7741 32.7485H32.9395V31.8359H79.7741V32.7485Z" fill="#969696"/>
<path fill-rule="evenodd" clip-rule="evenodd" d="M8 21.6734C8 21.7994 8.10215 21.9016 8.22817 21.9016H25.3399C25.4659 21.9016 25.5681 21.7994 25.5681 21.6734C25.5681 21.5474 25.4659 21.4453 25.3399 21.4453H8.22817C8.10215 21.4453 8 21.5474 8 21.6734Z" fill="#969696"/>
<path fill-rule="evenodd" clip-rule="evenodd" d="M30.6741 8.21253C30.6741 8.33854 30.572 8.44069 30.446 8.44069H21.8903C21.7643 8.44069 21.6621 8.33854 21.6621 8.21253C21.6621 8.08651 21.7643 7.98438 21.8903 7.98438H30.446C30.572 7.98438 30.6741 8.08651 30.6741 8.21253Z" fill="#969696"/>
<path fill-rule="evenodd" clip-rule="evenodd" d="M30.6735 29.6345C30.6735 29.7605 30.5714 29.8626 30.4454 29.8626H13.3336C13.2076 29.8626 13.1055 29.7605 13.1055 29.6345C13.1055 29.5085 13.2076 29.4062 13.3336 29.4062H30.4454C30.5714 29.4062 30.6735 29.5085 30.6735 29.6345Z" fill="#969696"/>
<path fill-rule="evenodd" clip-rule="evenodd" d="M15.4512 20.0329C15.4512 20.1589 15.5533 20.2611 15.6793 20.2611H25.3398C25.4658 20.2611 25.568 20.1589 25.568 20.0329C25.568 19.9069 25.4658 19.8047 25.3398 19.8047H15.6793C15.5533 19.8047 15.4512 19.9069 15.4512 20.0329Z" fill="#969696"/>
<path d="M19.0518 10.0515C19.2729 9.59861 19.8193 9.41066 20.2723 9.63177L24.7832 11.8337C25.2362 12.0548 25.4242 12.6012 25.203 13.0542L23.3357 16.8797C23.1146 17.3326 22.5682 17.5205 22.1152 17.2994L17.6043 15.0974C17.1513 14.8763 16.9634 14.3299 17.1845 13.8769L19.0518 10.0515Z" fill="white"/>
<path fill-rule="evenodd" clip-rule="evenodd" d="M24.3829 12.6538L19.872 10.4519L18.0047 14.2773L22.5156 16.4792L24.3829 12.6538ZM20.2723 9.63177C19.8193 9.41066 19.2729 9.59861 19.0518 10.0515L17.1845 13.8769C16.9634 14.3299 17.1513 14.8763 17.6043 15.0974L22.1152 17.2994C22.5682 17.5205 23.1146 17.3326 23.3357 16.8797L25.203 13.0542C25.4242 12.6012 25.2362 12.0548 24.7832 11.8337L20.2723 9.63177Z" fill="#969696"/>
<path d="M28.1666 22.773C28.0311 22.2875 28.3149 21.7841 28.8004 21.6486L33.6353 20.2994C34.1208 20.1639 34.6242 20.4477 34.7597 20.9332L35.9038 25.0333C36.0393 25.5188 35.7556 26.0222 35.2701 26.1577L30.4351 27.5069C29.9496 27.6424 29.4462 27.3586 29.3107 26.8731L28.1666 22.773Z" fill="white"/>
<path fill-rule="evenodd" clip-rule="evenodd" d="M33.8806 21.1785L29.0457 22.5277L30.1898 26.6278L35.0247 25.2786L33.8806 21.1785ZM28.8004 21.6486C28.3149 21.7841 28.0311 22.2875 28.1666 22.773L29.3107 26.8731C29.4462 27.3586 29.9496 27.6424 30.4351 27.5069L35.2701 26.1577C35.7556 26.0222 36.0393 25.5188 35.9038 25.0333L34.7597 20.9332C34.6242 20.4477 34.1208 20.1639 33.6353 20.2994L28.8004 21.6486Z" fill="#969696"/>
<path d="M48.082 10.8345C48.082 10.3305 48.4906 9.92188 48.9946 9.92188H54.0143C54.5183 9.92188 54.9269 10.3305 54.9269 10.8345V15.0913C54.9269 15.5954 54.5183 16.004 54.0143 16.004H48.9946C48.4906 16.004 48.082 15.5954 48.082 15.0913V10.8345Z" fill="white"/>
<path fill-rule="evenodd" clip-rule="evenodd" d="M54.0143 10.8345H48.9946V15.0913H54.0143V10.8345ZM48.9946 9.92188C48.4906 9.92188 48.082 10.3305 48.082 10.8345V15.0913C48.082 15.5954 48.4906 16.004 48.9946 16.004H54.0143C54.5183 16.004 54.9269 15.5954 54.9269 15.0913V10.8345C54.9269 10.3305 54.5183 9.92188 54.0143 9.92188H48.9946Z" fill="#969696"/>
<path d="M57.6191 21.7642C57.6191 21.2602 58.0277 20.8516 58.5318 20.8516H63.5514C64.0555 20.8516 64.4641 21.2602 64.4641 21.7642V26.021C64.4641 26.5251 64.0555 26.9337 63.5514 26.9337H58.5318C58.0277 26.9337 57.6191 26.5251 57.6191 26.021V21.7642Z" fill="white"/>
<path fill-rule="evenodd" clip-rule="evenodd" d="M63.9323 21.9126H58.9127V26.1694H63.9323V21.9126ZM58.9127 21C58.4086 21 58 21.4086 58 21.9126V26.1694C58 26.6735 58.4086 27.0821 58.9127 27.0821H63.9323C64.4364 27.0821 64.845 26.6735 64.845 26.1694V21.9126C64.845 21.4086 64.4364 21 63.9323 21H58.9127Z" fill="#969696"/>
<path d="M67.752 26.2945C67.752 26.7986 68.1606 27.2072 68.6646 27.2072H73.6842C74.1882 27.2072 74.5968 26.7986 74.5968 26.2945V22.0377C74.5968 21.5337 74.1882 21.125 73.6842 21.125H68.6646C68.1606 21.125 67.752 21.5337 67.752 22.0377V26.2945Z" fill="white"/>
<path fill-rule="evenodd" clip-rule="evenodd" d="M73.6842 26.2945H68.6646V22.0377H73.6842V26.2945ZM68.6646 27.2072C68.1606 27.2072 67.752 26.7986 67.752 26.2945V22.0377C67.752 21.5337 68.1606 21.125 68.6646 21.125H73.6842C74.1882 21.125 74.5968 21.5337 74.5968 22.0377V26.2945C74.5968 26.7986 74.1882 27.2072 73.6842 27.2072H68.6646Z" fill="#969696"/>
<path d="M43.5807 12.9652C43.5807 14.7926 42.0992 16.274 40.2718 16.274C38.4443 16.274 36.9629 14.7926 36.9629 12.9652C36.9629 11.1377 38.4443 9.65625 40.2718 9.65625C42.0992 9.65625 43.5807 11.1377 43.5807 12.9652Z" fill="white"/>
<path fill-rule="evenodd" clip-rule="evenodd" d="M40.2718 15.3614C41.5952 15.3614 42.668 14.2886 42.668 12.9652C42.668 11.6418 41.5952 10.5689 40.2718 10.5689C38.9484 10.5689 37.8756 11.6418 37.8756 12.9652C37.8756 14.2886 38.9484 15.3614 40.2718 15.3614ZM40.2718 16.274C42.0992 16.274 43.5807 14.7926 43.5807 12.9652C43.5807 11.1377 42.0992 9.65625 40.2718 9.65625C38.4443 9.65625 36.9629 11.1377 36.9629 12.9652C36.9629 14.7926 38.4443 16.274 40.2718 16.274Z" fill="#969696"/>
<path d="M46.8912 23.8948C46.8912 25.7222 45.4097 27.2036 43.5823 27.2036C41.7548 27.2036 40.2734 25.7222 40.2734 23.8948C40.2734 22.0673 41.7548 20.5859 43.5823 20.5859C45.4097 20.5859 46.8912 22.0673 46.8912 23.8948Z" fill="white"/>
<path fill-rule="evenodd" clip-rule="evenodd" d="M43.5823 26.291C44.9057 26.291 45.9785 25.2182 45.9785 23.8948C45.9785 22.5714 44.9057 21.4985 43.5823 21.4985C42.2589 21.4985 41.186 22.5714 41.186 23.8948C41.186 25.2182 42.2589 26.291 43.5823 26.291ZM43.5823 27.2036C45.4097 27.2036 46.8912 25.7222 46.8912 23.8948C46.8912 22.0673 45.4097 20.5859 43.5823 20.5859C41.7548 20.5859 40.2734 22.0673 40.2734 23.8948C40.2734 25.7222 41.7548 27.2036 43.5823 27.2036Z" fill="#969696"/>
<path d="M74.5963 12.9652C74.5963 14.7926 73.1149 16.274 71.2874 16.274C69.4599 16.274 67.9785 14.7926 67.9785 12.9652C67.9785 11.1377 69.4599 9.65625 71.2874 9.65625C73.1149 9.65625 74.5963 11.1377 74.5963 12.9652Z" fill="white"/>
<path fill-rule="evenodd" clip-rule="evenodd" d="M71.2874 15.3614C72.6108 15.3614 73.6836 14.2886 73.6836 12.9652C73.6836 11.6418 72.6108 10.5689 71.2874 10.5689C69.964 10.5689 68.8912 11.6418 68.8912 12.9652C68.8912 14.2886 69.964 15.3614 71.2874 15.3614ZM71.2874 16.274C73.1149 16.274 74.5963 14.7926 74.5963 12.9652C74.5963 11.1377 73.1149 9.65625 71.2874 9.65625C69.4599 9.65625 67.9785 11.1377 67.9785 12.9652C67.9785 14.7926 69.4599 16.274 71.2874 16.274Z" fill="#969696"/>
<path d="M64.1554 13.7585C63.7198 15.384 62.0489 16.3487 60.4233 15.9132C58.7978 15.4776 57.8331 13.8067 58.2686 12.1811C58.7042 10.5556 60.3751 9.59094 62.0007 10.0264C63.6263 10.462 64.5909 12.1329 64.1554 13.7585Z" fill="#305D74"/>
<path fill-rule="evenodd" clip-rule="evenodd" d="M60.6596 15.0316C61.7983 15.3367 62.9687 14.661 63.2738 13.5223C63.5789 12.3836 62.9032 11.2131 61.7645 10.908C60.6258 10.6029 59.4553 11.2786 59.1502 12.4173C58.8451 13.556 59.5209 14.7265 60.6596 15.0316ZM60.4233 15.9132C62.0489 16.3487 63.7198 15.384 64.1554 13.7585C64.5909 12.1329 63.6263 10.462 62.0007 10.0264C60.3751 9.59094 58.7042 10.5556 58.2686 12.1811C57.8331 13.8067 58.7978 15.4776 60.4233 15.9132Z" fill="#305D74"/>
</svg>
