<svg width="130" height="130" viewBox="0 0 130 130" fill="none" xmlns="http://www.w3.org/2000/svg">
<path opacity="0.1" d="M120 60.5C120 90.5995 95.5995 115 65.5 115C35.4005 115 11 90.5995 11 60.5C11 30.4005 35.4005 6 65.5 6C95.5995 6 120 30.4005 120 60.5Z" fill="#033D58"/>
<path d="M31 101H32V123H31V101Z" fill="white"/>
<path fill-rule="evenodd" clip-rule="evenodd" d="M29 99H34V125H29V99ZM31 101H32V123H31V101Z" fill="#969696"/>
<path d="M102 101H103V123H102V101Z" fill="white"/>
<path fill-rule="evenodd" clip-rule="evenodd" d="M100 99H105V125H100V99ZM102 101H103V123H102V101Z" fill="#969696"/>
<path d="M29 31C29 29.8954 29.8954 29 31 29H98C99.1046 29 100 29.8954 100 31V67C100 68.1046 99.1046 69 98 69H31C29.8954 69 29 68.1046 29 67V31Z" fill="white"/>
<path fill-rule="evenodd" clip-rule="evenodd" d="M98 31H31V67H98V31ZM31 29C29.8954 29 29 29.8954 29 31V67C29 68.1046 29.8954 69 31 69H98C99.1046 69 100 68.1046 100 67V31C100 29.8954 99.1046 29 98 29H31Z" fill="#969696"/>
<path fill-rule="evenodd" clip-rule="evenodd" d="M130 125H0V124H130V125Z" fill="#969696"/>
<path d="M48.3809 41C48.3809 40.4477 48.8286 40 49.3809 40H55.6307C56.183 40 56.6307 40.4477 56.6307 41V60.9996C56.6307 61.5519 56.183 61.9996 55.6307 61.9996H49.3809C48.8286 61.9996 48.3809 61.5519 48.3809 60.9996V41Z" fill="white"/>
<path fill-rule="evenodd" clip-rule="evenodd" d="M55.6307 41H49.3809V60.9996H55.6307V41ZM49.3809 40C48.8286 40 48.3809 40.4477 48.3809 41V60.9996C48.3809 61.5519 48.8286 61.9996 49.3809 61.9996H55.6307C56.183 61.9996 56.6307 61.5519 56.6307 60.9996V41C56.6307 40.4477 56.183 40 55.6307 40H49.3809Z" fill="#969696"/>
<path d="M62.1309 47.8745C62.1309 47.3222 62.5786 46.8745 63.1309 46.8745H69.3807C69.933 46.8745 70.3807 47.3222 70.3807 47.8745V60.9993C70.3807 61.5516 69.933 61.9993 69.3807 61.9993H63.1309C62.5786 61.9993 62.1309 61.5516 62.1309 60.9993V47.8745Z" fill="white"/>
<path fill-rule="evenodd" clip-rule="evenodd" d="M69.3807 47.8745H63.1309V60.9993H69.3807V47.8745ZM63.1309 46.8745C62.5786 46.8745 62.1309 47.3222 62.1309 47.8745V60.9993C62.1309 61.5516 62.5786 61.9993 63.1309 61.9993H69.3807C69.933 61.9993 70.3807 61.5516 70.3807 60.9993V47.8745C70.3807 47.3222 69.933 46.8745 69.3807 46.8745H63.1309Z" fill="#969696"/>
<path d="M75.8945 53.375C75.8945 52.8227 76.3422 52.375 76.8945 52.375H83.1444C83.6967 52.375 84.1444 52.8227 84.1444 53.375V60.9998C84.1444 61.5521 83.6967 61.9998 83.1444 61.9998H76.8945C76.3422 61.9998 75.8945 61.5521 75.8945 60.9998V53.375Z" fill="white"/>
<path fill-rule="evenodd" clip-rule="evenodd" d="M83.1444 53.375H76.8945V60.9998H83.1444V53.375ZM76.8945 52.375C76.3422 52.375 75.8945 52.8227 75.8945 53.375V60.9998C75.8945 61.5521 76.3422 61.9998 76.8945 61.9998H83.1444C83.6967 61.9998 84.1444 61.5521 84.1444 60.9998V53.375C84.1444 52.8227 83.6967 52.375 83.1444 52.375H76.8945Z" fill="#969696"/>
<path fill-rule="evenodd" clip-rule="evenodd" d="M39.5 61.3623C39.5 61.0862 39.7239 60.8623 40 60.8623H90.8741C91.1503 60.8623 91.3741 61.0862 91.3741 61.3623C91.3741 61.6385 91.1503 61.8623 90.8741 61.8623H40C39.7239 61.8623 39.5 61.6385 39.5 61.3623Z" fill="#969696"/>
<path d="M130 39.3516C130 38.247 129.105 37.3516 128 37.3516H104.051C102.946 37.3516 102.051 38.247 102.051 39.3516V54.6619C102.051 55.5969 102.699 56.4072 103.611 56.6129L127.56 62.014C128.811 62.296 130 61.3451 130 60.063V39.3516Z" fill="white"/>
<path fill-rule="evenodd" clip-rule="evenodd" d="M104.051 39.3516H128V60.063L104.051 54.6619V39.3516ZM128 37.3516C129.105 37.3516 130 38.247 130 39.3516V60.063C130 61.3451 128.811 62.296 127.56 62.014L103.611 56.6129C102.699 56.4072 102.051 55.5969 102.051 54.6619V39.3516C102.051 38.247 102.946 37.3516 104.051 37.3516H128Z" fill="#969696"/>
<path fill-rule="evenodd" clip-rule="evenodd" d="M124.587 43.3717L113.867 52.7942L113.92 47.785L108.19 52.8214L107.523 52.0896L114.953 45.5589L114.9 50.5681L123.92 42.6399L124.587 43.3717Z" fill="#969696"/>
<path d="M0 39.3516C0 38.247 0.895431 37.3516 2 37.3516H24.9648C26.0693 37.3516 26.9648 38.247 26.9648 39.3516V54.6747C26.9648 55.6039 26.3248 56.4107 25.42 56.6222L2.45524 61.9903C1.20056 62.2836 0 61.3313 0 60.0428V39.3516Z" fill="white"/>
<path fill-rule="evenodd" clip-rule="evenodd" d="M24.9648 39.3516H2V60.0428L24.9648 54.6747V39.3516ZM2 37.3516C0.895431 37.3516 0 38.247 0 39.3516V60.0428C0 61.3313 1.20056 62.2836 2.45524 61.9903L25.42 56.6222C26.3248 56.4107 26.9648 55.6039 26.9648 54.6747V39.3516C26.9648 38.247 26.0693 37.3516 24.9648 37.3516H2Z" fill="#969696"/>
<path fill-rule="evenodd" clip-rule="evenodd" d="M5.20898 43.3752L15.5794 52.8235L15.5285 47.8143L21.0282 52.8249L21.7016 52.0857L14.5052 45.5292L14.5562 50.5384L5.88246 42.636L5.20898 43.3752Z" fill="#969696"/>
<path fill-rule="evenodd" clip-rule="evenodd" d="M49 124V114H51V124H49Z" fill="#969696"/>
<path fill-rule="evenodd" clip-rule="evenodd" d="M83 124V115H85V124H83Z" fill="#969696"/>
<path fill-rule="evenodd" clip-rule="evenodd" d="M43 123C43 122.448 43.4477 122 44 122H57C57.5523 122 58 122.448 58 123C58 123.552 57.5523 124 57 124H44C43.4477 124 43 123.552 43 123Z" fill="#969696"/>
<path fill-rule="evenodd" clip-rule="evenodd" d="M77 123C77 122.448 77.4477 122 78 122H91C91.5523 122 92 122.448 92 123C92 123.552 91.5523 124 91 124H78C77.4477 124 77 123.552 77 123Z" fill="#969696"/>
<path fill-rule="evenodd" clip-rule="evenodd" d="M31.0296 93.8008H103.519L111.245 98.6007V104.601H22.4453V98.6008L31.0296 93.8008Z" fill="white"/>
<path fill-rule="evenodd" clip-rule="evenodd" d="M22.4453 98.6007V104.601H111.245V98.6008L103.519 93.8008H31.0296L22.4453 98.6007ZM31.5508 95.8008L24.4453 99.7739V102.601H109.245V99.7127L102.949 95.8008H31.5508Z" fill="#969696"/>
<path fill-rule="evenodd" clip-rule="evenodd" d="M109.5 100H24V99H109.5V100Z" fill="#969696"/>
<path d="M41.2939 84.6314C41.4713 83.6855 42.2972 83 43.2596 83H56.7399C57.7024 83 58.5283 83.6855 58.7057 84.6314L61.3861 98.9272C61.3952 98.9757 61.4007 99.0247 61.4026 99.074L61.922 112.925C61.9645 114.058 61.0573 115 59.9234 115H40.0762C38.9422 115 38.0351 114.058 38.0776 112.925L38.5942 99.148C38.5979 99.0495 38.6089 98.9513 38.6271 98.8544L41.2939 84.6314Z" fill="white"/>
<path fill-rule="evenodd" clip-rule="evenodd" d="M56.7399 85H43.2596L40.5928 99.223L40.0762 113H59.9234L59.4067 99.223L56.7399 85ZM43.2596 83C42.2972 83 41.4713 83.6855 41.2939 84.6314L38.6271 98.8544C38.6089 98.9513 38.5979 99.0495 38.5942 99.148L38.0776 112.925C38.0351 114.058 38.9422 115 40.0762 115H59.9234C61.0573 115 61.9645 114.058 61.922 112.925L61.4026 99.074C61.4007 99.0247 61.3952 98.9757 61.3861 98.9272L58.7057 84.6314C58.5283 83.6855 57.7024 83 56.7399 83H43.2596Z" fill="#969696"/>
<path d="M75.1534 84.6463C75.3246 83.6934 76.1537 83 77.1218 83H89.8765C90.8447 83 91.6738 83.6934 91.845 84.6463L94.4116 98.9301C94.42 98.9766 94.425 99.0237 94.4267 99.071L94.9247 112.928C94.9654 114.06 94.0587 115 92.926 115H74.0723C72.9396 115 72.033 114.06 72.0736 112.928L72.5691 99.142C72.5725 99.0475 72.5826 98.9533 72.5993 98.8601L75.1534 84.6463Z" fill="white"/>
<path fill-rule="evenodd" clip-rule="evenodd" d="M89.8765 85H77.1218L74.5678 99.2138L74.0723 113H92.926L92.4306 99.2138L89.8765 85ZM77.1218 83C76.1537 83 75.3246 83.6934 75.1534 84.6463L72.5993 98.8601C72.5826 98.9533 72.5725 99.0475 72.5691 99.142L72.0736 112.928C72.033 114.06 72.9396 115 74.0723 115H92.926C94.0587 115 94.9654 114.06 94.9247 112.928L94.4267 99.071C94.425 99.0237 94.42 98.9766 94.4116 98.9301L91.845 84.6463C91.6738 83.6934 90.8447 83 89.8765 83H77.1218Z" fill="#969696"/>
</svg>
