<?xml version="1.0" encoding="utf-8"?>
<!--
  Copyright 2023-2025 Solace Systems. All rights reserved.

  Licensed under the Apache License, Version 2.0 (the "License");
  you may not use this file except in compliance with the License.
  You may obtain a copy of the License at

      http://www.apache.org/licenses/LICENSE-2.0

  Unless required by applicable law or agreed to in writing, software
  distributed under the License is distributed on an "AS IS" BASIS,
  WITHOUT WARRANTIES OR CONDITIONS OF ANY KIND, either express or implied.
  See the License for the specific language governing permissions and
  limitations under the License.
-->
<svg width="88" height="88" viewBox="0 0 88 88" fill="none" xmlns="http://www.w3.org/2000/svg">
<path d="M76.5215 75.3009C76.5215 76.4055 75.6261 77.3009 74.5215 77.3009H14.5215C13.4169 77.3009 12.5215 76.4055 12.5215 75.3009V39.1875C12.5215 38.6229 12.7601 38.0847 13.1784 37.7055L43.1784 10.518C43.9406 9.82733 45.1024 9.82733 45.8645 10.518L75.8645 37.7055C76.2829 38.0847 76.5215 38.6229 76.5215 39.1875V75.3009Z" fill="white"/>
<path fill-rule="evenodd" clip-rule="evenodd" d="M14.5215 75.3009H74.5215V39.1875L44.5215 12L14.5215 39.1875V75.3009ZM74.5215 77.3009C75.6261 77.3009 76.5215 76.4055 76.5215 75.3009V39.1875C76.5215 38.6229 76.2829 38.0847 75.8645 37.7055L45.8645 10.518C45.1024 9.82733 43.9406 9.82733 43.1784 10.518L13.1784 37.7055C12.7601 38.0847 12.5215 38.6229 12.5215 39.1875V75.3009C12.5215 76.4055 13.4169 77.3009 14.5215 77.3009H74.5215Z" fill="#969696"/>
<path fill-rule="evenodd" clip-rule="evenodd" d="M74.5215 41.3009H13.5215V39.3009H74.5215V41.3009Z" fill="#969696"/>
<path d="M23.5215 24.3009H64.5215V49.3009H23.5215V24.3009Z" fill="white"/>
<path fill-rule="evenodd" clip-rule="evenodd" d="M25 24.3009C24.4477 24.3009 24 24.7486 24 25.3009V50.3009H22V25.3009C22 23.644 23.3431 22.3009 25 22.3009H63C64.6569 22.3009 66 23.644 66 25.3009V50.3009H64V25.3009C64 24.7486 63.5523 24.3009 63 24.3009H25Z" fill="#969696"/>
<path fill-rule="evenodd" clip-rule="evenodd" d="M49.4924 49.3009H55.8885C57.353 49.3009 57.9806 47.635 57.9806 45.9691C57.9806 42.8594 55.7839 40.4161 52.7504 40.4161H47.9043C48.5379 40.9749 49.0677 41.6516 49.4686 42.4161H52.7504C54.5428 42.4161 55.9806 43.8223 55.9806 45.9691C55.9806 46.5934 55.8567 47.0635 55.7285 47.3009H50.2134C50.1037 47.9342 49.9052 48.5702 49.5851 49.1428C49.5554 49.196 49.5245 49.2487 49.4924 49.3009Z" fill="#969696"/>
<path d="M34.9665 40.4161H43.3348C46.3684 40.4161 48.565 42.8594 48.565 45.9691C48.565 47.635 47.9374 49.3009 46.473 49.3009H31.8284C30.3639 49.3009 29.7363 47.635 29.7363 45.9691C29.7363 42.7484 31.933 40.4161 34.9665 40.4161Z" fill="#305D74"/>
<path fill-rule="evenodd" clip-rule="evenodd" d="M49.7423 36.7153C51.1483 36.7153 52.4495 35.414 52.4495 34.0081C52.4495 32.6022 51.1483 31.3009 49.7423 31.3009C48.3364 31.3009 47.0352 32.6022 47.0352 34.0081C47.0352 35.414 48.3364 36.7153 49.7423 36.7153ZM54.4495 34.0081C54.4495 36.5186 52.2528 38.7153 49.7423 38.7153C47.2318 38.7153 45.0352 36.5186 45.0352 34.0081C45.0352 31.4976 47.2318 29.3009 49.7423 29.3009C52.2528 29.3009 54.4495 31.4976 54.4495 34.0081Z" fill="#969696"/>
<path d="M39.1506 38.7153C41.6611 38.7153 43.8578 36.5186 43.8578 34.0081C43.8578 31.4976 41.6611 29.3009 39.1506 29.3009C36.6401 29.3009 34.4434 31.4976 34.4434 34.0081C34.4434 36.5186 36.6401 38.7153 39.1506 38.7153Z" fill="#305D74"/>
<path fill-rule="evenodd" clip-rule="evenodd" d="M55.688 61.0259L75.688 42.0259L74.3106 40.5759L54.3105 59.5759L55.688 61.0259Z" fill="#969696"/>
<path fill-rule="evenodd" clip-rule="evenodd" d="M45.7922 53.3419L76.5838 75.4891L75.416 77.1127L44.6244 54.9656C44.2712 54.7115 43.7944 54.715 43.4449 54.9741L13.5954 77.1042L12.4043 75.4976L42.2538 53.3675C43.3021 52.5902 44.7327 52.5799 45.7922 53.3419Z" fill="#969696"/>
<path fill-rule="evenodd" clip-rule="evenodd" d="M33.3105 61.0259L13.3105 42.0259L14.688 40.5759L34.688 59.5759L33.3105 61.0259Z" fill="#969696"/>
</svg>