<svg width="376" height="256" viewBox="0 0 376 256" fill="none" xmlns="http://www.w3.org/2000/svg">
<path opacity="0.2" fill-rule="evenodd" clip-rule="evenodd" d="M269.424 220.874L279.783 191.255L276.37 184.17L279.072 182.868L281.184 187.25L290.239 161.361H293.417L284.016 188.24L288.397 186.129L289.699 188.832L282.615 192.245L272.255 221.864L269.424 220.874ZM297.264 150.361L306.3 124.526L303.468 123.536L294.086 150.361H297.264Z" fill="#E7E9EC"/>
<g opacity="0.2">
<path d="M81.698 179.008L35.8125 104.579" stroke="#E7E9EC" stroke-width="3"/>
<path d="M50.6465 140.075L52.6052 131.818L60.8613 133.777" stroke="#E7E9EC" stroke-width="3"/>
</g>
<g opacity="0.2">
<path d="M27.6641 94.1565L99.3155 62.2204" stroke="#E7E9EC" stroke-width="3"/>
<path d="M62.1641 72.2101L70.0871 75.2477L67.0494 83.1707" stroke="#E7E9EC" stroke-width="3"/>
</g>
<g opacity="0.2">
<path d="M122.719 53.0825L244.691 30.1362" stroke="#E7E9EC" stroke-width="3"/>
<path d="M206.236 31.2653L213.241 36.0525L208.454 43.0584" stroke="#E7E9EC" stroke-width="3"/>
</g>
<g opacity="0.2">
<path d="M257.109 34.0386L304.352 105.909" stroke="#E7E9EC" stroke-width="3"/>
<path d="M288.493 70.8589L286.775 79.1685L278.465 77.4504" stroke="#E7E9EC" stroke-width="3"/>
</g>
<g opacity="0.2">
<path d="M265 224.199L109.258 195.295" stroke="#E7E9EC" stroke-width="3"/>
<path d="M145.525 208.128L140.721 201.134L147.715 196.329" stroke="#E7E9EC" stroke-width="3"/>
</g>
<path d="M95.8027 183.894L186.193 133.774" stroke="#033D58" stroke-width="3"/>
<path d="M150.051 146.954L158.208 149.292L155.871 157.449" stroke="#033D58" stroke-width="3"/>
<path d="M199.387 134.935L124.238 64.3516" stroke="#033D58" stroke-width="3"/>
<path d="M147.829 94.7405L147.564 86.2594L156.045 85.9937" stroke="#033D58" stroke-width="3"/>
<path d="M201.08 129.17L302.259 116.935" stroke="#033D58" stroke-width="3"/>
<path d="M263.814 115.54L270.491 120.777L265.254 127.453" stroke="#033D58" stroke-width="3"/>
<path d="M194.168 143.832C202.13 143.832 208.584 137.378 208.584 129.416C208.584 121.454 202.13 115 194.168 115C186.206 115 179.752 121.454 179.752 129.416C179.752 137.378 186.206 143.832 194.168 143.832Z" fill="#4D7689"/>
<path d="M194.168 146.832C203.787 146.832 211.584 139.035 211.584 129.416C211.584 119.797 203.787 112 194.168 112C184.549 112 176.752 119.797 176.752 129.416C176.752 139.035 184.549 146.832 194.168 146.832Z" stroke="#4D7689" stroke-opacity="0.3" stroke-width="6"/>
<path d="M158.516 170.64C157.804 170.64 157.192 170.524 156.68 170.292C156.168 170.052 155.768 169.688 155.48 169.2C155.192 168.704 155.036 168.088 155.012 167.352C155.004 167.008 155 166.668 155 166.332C155 165.996 155.004 165.652 155.012 165.3C155.036 164.572 155.196 163.964 155.492 163.476C155.788 162.988 156.192 162.62 156.704 162.372C157.224 162.124 157.828 162 158.516 162C159.204 162 159.808 162.124 160.328 162.372C160.848 162.62 161.256 162.988 161.552 163.476C161.848 163.964 162.008 164.572 162.032 165.3C162.048 165.652 162.056 165.996 162.056 166.332C162.056 166.668 162.048 167.008 162.032 167.352C162.008 168.088 161.852 168.704 161.564 169.2C161.276 169.688 160.872 170.052 160.352 170.292C159.84 170.524 159.228 170.64 158.516 170.64ZM158.516 169.26C159.036 169.26 159.46 169.108 159.788 168.804C160.116 168.492 160.292 167.988 160.316 167.292C160.332 166.94 160.34 166.616 160.34 166.32C160.34 166.016 160.332 165.692 160.316 165.348C160.3 164.884 160.212 164.508 160.052 164.22C159.9 163.924 159.692 163.712 159.428 163.584C159.164 163.448 158.86 163.38 158.516 163.38C158.18 163.38 157.88 163.448 157.616 163.584C157.352 163.712 157.14 163.924 156.98 164.22C156.828 164.508 156.744 164.884 156.728 165.348C156.72 165.692 156.716 166.016 156.716 166.32C156.716 166.616 156.72 166.94 156.728 167.292C156.752 167.988 156.928 168.492 157.256 168.804C157.584 169.108 158.004 169.26 158.516 169.26Z" fill="white"/>
<path d="M163.776 170.52C163.696 170.52 163.628 170.492 163.572 170.436C163.516 170.38 163.488 170.312 163.488 170.232V164.58C163.488 164.492 163.516 164.42 163.572 164.364C163.628 164.308 163.696 164.28 163.776 164.28H164.748C164.828 164.28 164.896 164.308 164.952 164.364C165.016 164.42 165.048 164.492 165.048 164.58V165.072C165.232 164.816 165.468 164.62 165.756 164.484C166.052 164.348 166.392 164.28 166.776 164.28H167.268C167.356 164.28 167.424 164.308 167.472 164.364C167.528 164.42 167.556 164.488 167.556 164.568V165.432C167.556 165.512 167.528 165.58 167.472 165.636C167.424 165.692 167.356 165.72 167.268 165.72H166.332C165.948 165.72 165.648 165.828 165.432 166.044C165.224 166.26 165.12 166.556 165.12 166.932V170.232C165.12 170.312 165.092 170.38 165.036 170.436C164.98 170.492 164.908 170.52 164.82 170.52H163.776Z" fill="white"/>
<path d="M170.714 170.64C170.298 170.64 169.93 170.572 169.61 170.436C169.298 170.292 169.038 170.092 168.83 169.836C168.622 169.58 168.462 169.28 168.35 168.936C168.238 168.584 168.174 168.2 168.158 167.784C168.15 167.64 168.146 167.512 168.146 167.4C168.146 167.28 168.15 167.148 168.158 167.004C168.174 166.604 168.234 166.232 168.338 165.888C168.45 165.544 168.61 165.244 168.818 164.988C169.034 164.724 169.298 164.52 169.61 164.376C169.93 164.232 170.298 164.16 170.714 164.16C171.146 164.16 171.51 164.236 171.806 164.388C172.11 164.532 172.362 164.72 172.562 164.952V162.288C172.562 162.208 172.586 162.14 172.634 162.084C172.69 162.028 172.762 162 172.85 162H173.87C173.95 162 174.018 162.028 174.074 162.084C174.13 162.14 174.158 162.208 174.158 162.288V170.232C174.158 170.312 174.13 170.38 174.074 170.436C174.018 170.492 173.95 170.52 173.87 170.52H172.922C172.834 170.52 172.762 170.492 172.706 170.436C172.658 170.38 172.634 170.312 172.634 170.232V169.788C172.434 170.036 172.178 170.24 171.866 170.4C171.562 170.56 171.178 170.64 170.714 170.64ZM171.158 169.356C171.494 169.356 171.762 169.28 171.962 169.128C172.162 168.976 172.31 168.784 172.406 168.552C172.502 168.312 172.554 168.068 172.562 167.82C172.57 167.676 172.574 167.524 172.574 167.364C172.574 167.196 172.57 167.04 172.562 166.896C172.554 166.656 172.498 166.428 172.394 166.212C172.29 165.988 172.138 165.804 171.938 165.66C171.738 165.516 171.478 165.444 171.158 165.444C170.822 165.444 170.554 165.52 170.354 165.672C170.162 165.816 170.022 166.008 169.934 166.248C169.846 166.488 169.794 166.752 169.778 167.04C169.77 167.28 169.77 167.52 169.778 167.76C169.794 168.048 169.846 168.312 169.934 168.552C170.022 168.792 170.162 168.988 170.354 169.14C170.554 169.284 170.822 169.356 171.158 169.356Z" fill="white"/>
<path d="M178.444 170.64C177.556 170.64 176.852 170.384 176.332 169.872C175.812 169.36 175.532 168.632 175.492 167.688C175.484 167.608 175.48 167.508 175.48 167.388C175.48 167.26 175.484 167.16 175.492 167.088C175.524 166.488 175.66 165.968 175.9 165.528C176.148 165.088 176.488 164.752 176.92 164.52C177.352 164.28 177.86 164.16 178.444 164.16C179.092 164.16 179.636 164.296 180.076 164.568C180.516 164.832 180.848 165.204 181.072 165.684C181.296 166.156 181.408 166.704 181.408 167.328V167.58C181.408 167.66 181.38 167.728 181.324 167.784C181.268 167.84 181.196 167.868 181.108 167.868H177.124C177.124 167.868 177.124 167.88 177.124 167.904C177.124 167.928 177.124 167.948 177.124 167.964C177.132 168.244 177.184 168.504 177.28 168.744C177.384 168.976 177.532 169.164 177.724 169.308C177.924 169.452 178.16 169.524 178.432 169.524C178.656 169.524 178.844 169.492 178.996 169.428C179.148 169.356 179.272 169.276 179.368 169.188C179.464 169.1 179.532 169.028 179.572 168.972C179.644 168.876 179.7 168.82 179.74 168.804C179.788 168.78 179.856 168.768 179.944 168.768H180.976C181.056 168.768 181.12 168.792 181.168 168.84C181.224 168.888 181.248 168.948 181.24 169.02C181.232 169.148 181.164 169.304 181.036 169.488C180.916 169.672 180.74 169.852 180.508 170.028C180.276 170.204 179.984 170.352 179.632 170.472C179.288 170.584 178.892 170.64 178.444 170.64ZM177.124 166.86H179.776V166.824C179.776 166.512 179.724 166.24 179.62 166.008C179.516 165.776 179.364 165.592 179.164 165.456C178.964 165.32 178.724 165.252 178.444 165.252C178.164 165.252 177.924 165.32 177.724 165.456C177.524 165.592 177.372 165.776 177.268 166.008C177.172 166.24 177.124 166.512 177.124 166.824V166.86Z" fill="white"/>
<path d="M182.972 170.52C182.892 170.52 182.824 170.492 182.768 170.436C182.712 170.38 182.684 170.312 182.684 170.232V164.58C182.684 164.492 182.712 164.42 182.768 164.364C182.824 164.308 182.892 164.28 182.972 164.28H183.944C184.024 164.28 184.092 164.308 184.148 164.364C184.212 164.42 184.244 164.492 184.244 164.58V165.072C184.428 164.816 184.664 164.62 184.952 164.484C185.248 164.348 185.588 164.28 185.972 164.28H186.464C186.552 164.28 186.62 164.308 186.668 164.364C186.724 164.42 186.752 164.488 186.752 164.568V165.432C186.752 165.512 186.724 165.58 186.668 165.636C186.62 165.692 186.552 165.72 186.464 165.72H185.528C185.144 165.72 184.844 165.828 184.628 166.044C184.42 166.26 184.316 166.556 184.316 166.932V170.232C184.316 170.312 184.288 170.38 184.232 170.436C184.176 170.492 184.104 170.52 184.016 170.52H182.972Z" fill="white"/>
<path d="M193.556 170.64C192.812 170.64 192.18 170.512 191.66 170.256C191.148 169.992 190.756 169.62 190.484 169.14C190.212 168.652 190.06 168.068 190.028 167.388C190.02 167.06 190.016 166.708 190.016 166.332C190.016 165.956 190.02 165.596 190.028 165.252C190.06 164.58 190.212 164 190.484 163.512C190.764 163.024 191.16 162.652 191.672 162.396C192.192 162.132 192.82 162 193.556 162C194.1 162 194.588 162.072 195.02 162.216C195.452 162.36 195.82 162.56 196.124 162.816C196.428 163.064 196.664 163.356 196.832 163.692C197 164.028 197.088 164.392 197.096 164.784C197.104 164.856 197.08 164.916 197.024 164.964C196.976 165.012 196.916 165.036 196.844 165.036H195.704C195.616 165.036 195.544 165.016 195.488 164.976C195.432 164.928 195.392 164.852 195.368 164.748C195.24 164.22 195.02 163.86 194.708 163.668C194.396 163.476 194.008 163.38 193.544 163.38C193.008 163.38 192.58 163.532 192.26 163.836C191.94 164.132 191.768 164.624 191.744 165.312C191.72 165.968 191.72 166.64 191.744 167.328C191.768 168.016 191.94 168.512 192.26 168.816C192.58 169.112 193.008 169.26 193.544 169.26C194.008 169.26 194.396 169.164 194.708 168.972C195.02 168.772 195.24 168.412 195.368 167.892C195.392 167.78 195.432 167.704 195.488 167.664C195.544 167.624 195.616 167.604 195.704 167.604H196.844C196.916 167.604 196.976 167.628 197.024 167.676C197.08 167.724 197.104 167.784 197.096 167.856C197.088 168.248 197 168.612 196.832 168.948C196.664 169.284 196.428 169.58 196.124 169.836C195.82 170.084 195.452 170.28 195.02 170.424C194.588 170.568 194.1 170.64 193.556 170.64Z" fill="white"/>
<path d="M198.661 170.52C198.581 170.52 198.513 170.492 198.457 170.436C198.401 170.38 198.373 170.312 198.373 170.232V164.58C198.373 164.492 198.401 164.42 198.457 164.364C198.513 164.308 198.581 164.28 198.661 164.28H199.633C199.713 164.28 199.781 164.308 199.837 164.364C199.901 164.42 199.933 164.492 199.933 164.58V165.072C200.117 164.816 200.353 164.62 200.641 164.484C200.937 164.348 201.277 164.28 201.661 164.28H202.153C202.241 164.28 202.309 164.308 202.357 164.364C202.413 164.42 202.441 164.488 202.441 164.568V165.432C202.441 165.512 202.413 165.58 202.357 165.636C202.309 165.692 202.241 165.72 202.153 165.72H201.217C200.833 165.72 200.533 165.828 200.317 166.044C200.109 166.26 200.005 166.556 200.005 166.932V170.232C200.005 170.312 199.977 170.38 199.921 170.436C199.865 170.492 199.793 170.52 199.705 170.52H198.661Z" fill="white"/>
<path d="M205.984 170.64C205.096 170.64 204.392 170.384 203.872 169.872C203.352 169.36 203.072 168.632 203.032 167.688C203.024 167.608 203.02 167.508 203.02 167.388C203.02 167.26 203.024 167.16 203.032 167.088C203.064 166.488 203.2 165.968 203.44 165.528C203.688 165.088 204.028 164.752 204.46 164.52C204.892 164.28 205.4 164.16 205.984 164.16C206.632 164.16 207.176 164.296 207.616 164.568C208.056 164.832 208.388 165.204 208.612 165.684C208.836 166.156 208.948 166.704 208.948 167.328V167.58C208.948 167.66 208.92 167.728 208.864 167.784C208.808 167.84 208.736 167.868 208.648 167.868H204.664C204.664 167.868 204.664 167.88 204.664 167.904C204.664 167.928 204.664 167.948 204.664 167.964C204.672 168.244 204.724 168.504 204.82 168.744C204.924 168.976 205.072 169.164 205.264 169.308C205.464 169.452 205.7 169.524 205.972 169.524C206.196 169.524 206.384 169.492 206.536 169.428C206.688 169.356 206.812 169.276 206.908 169.188C207.004 169.1 207.072 169.028 207.112 168.972C207.184 168.876 207.24 168.82 207.28 168.804C207.328 168.78 207.396 168.768 207.484 168.768H208.516C208.596 168.768 208.66 168.792 208.708 168.84C208.764 168.888 208.788 168.948 208.78 169.02C208.772 169.148 208.704 169.304 208.576 169.488C208.456 169.672 208.28 169.852 208.048 170.028C207.816 170.204 207.524 170.352 207.172 170.472C206.828 170.584 206.432 170.64 205.984 170.64ZM204.664 166.86H207.316V166.824C207.316 166.512 207.264 166.24 207.16 166.008C207.056 165.776 206.904 165.592 206.704 165.456C206.504 165.32 206.264 165.252 205.984 165.252C205.704 165.252 205.464 165.32 205.264 165.456C205.064 165.592 204.912 165.776 204.808 166.008C204.712 166.24 204.664 166.512 204.664 166.824V166.86Z" fill="white"/>
<path d="M212.034 170.64C211.618 170.64 211.242 170.56 210.906 170.4C210.57 170.232 210.302 170.012 210.102 169.74C209.91 169.46 209.814 169.148 209.814 168.804C209.814 168.244 210.038 167.8 210.486 167.472C210.942 167.136 211.542 166.912 212.286 166.8L213.93 166.56V166.308C213.93 165.972 213.846 165.712 213.678 165.528C213.51 165.344 213.222 165.252 212.814 165.252C212.526 165.252 212.29 165.312 212.106 165.432C211.93 165.544 211.798 165.696 211.71 165.888C211.646 165.992 211.554 166.044 211.434 166.044H210.486C210.398 166.044 210.33 166.02 210.282 165.972C210.242 165.924 210.222 165.86 210.222 165.78C210.23 165.652 210.282 165.496 210.378 165.312C210.474 165.128 210.626 164.952 210.834 164.784C211.042 164.608 211.31 164.46 211.638 164.34C211.966 164.22 212.362 164.16 212.826 164.16C213.33 164.16 213.754 164.224 214.098 164.352C214.45 164.472 214.73 164.636 214.938 164.844C215.146 165.052 215.298 165.296 215.394 165.576C215.49 165.856 215.538 166.152 215.538 166.464V170.232C215.538 170.312 215.51 170.38 215.454 170.436C215.398 170.492 215.33 170.52 215.25 170.52H214.278C214.19 170.52 214.118 170.492 214.062 170.436C214.014 170.38 213.99 170.312 213.99 170.232V169.764C213.886 169.916 213.746 170.06 213.57 170.196C213.394 170.324 213.178 170.432 212.922 170.52C212.674 170.6 212.378 170.64 212.034 170.64ZM212.442 169.5C212.722 169.5 212.974 169.44 213.198 169.32C213.43 169.2 213.61 169.016 213.738 168.768C213.874 168.512 213.942 168.192 213.942 167.808V167.556L212.742 167.748C212.27 167.82 211.918 167.936 211.686 168.096C211.454 168.256 211.338 168.452 211.338 168.684C211.338 168.86 211.39 169.012 211.494 169.14C211.606 169.26 211.746 169.352 211.914 169.416C212.082 169.472 212.258 169.5 212.442 169.5Z" fill="white"/>
<path d="M219.84 170.52C219.36 170.52 218.956 170.436 218.628 170.268C218.3 170.1 218.056 169.852 217.896 169.524C217.736 169.188 217.656 168.772 217.656 168.276V165.552H216.708C216.628 165.552 216.56 165.524 216.504 165.468C216.448 165.412 216.42 165.344 216.42 165.264V164.568C216.42 164.488 216.448 164.42 216.504 164.364C216.56 164.308 216.628 164.28 216.708 164.28H217.656V162.288C217.656 162.208 217.68 162.14 217.728 162.084C217.784 162.028 217.856 162 217.944 162H218.916C218.996 162 219.064 162.028 219.12 162.084C219.176 162.14 219.204 162.208 219.204 162.288V164.28H220.704C220.784 164.28 220.852 164.308 220.908 164.364C220.964 164.42 220.992 164.488 220.992 164.568V165.264C220.992 165.344 220.964 165.412 220.908 165.468C220.852 165.524 220.784 165.552 220.704 165.552H219.204V168.156C219.204 168.484 219.26 168.74 219.372 168.924C219.492 169.108 219.696 169.2 219.984 169.2H220.812C220.892 169.2 220.96 169.228 221.016 169.284C221.072 169.34 221.1 169.408 221.1 169.488V170.232C221.1 170.312 221.072 170.38 221.016 170.436C220.96 170.492 220.892 170.52 220.812 170.52H219.84Z" fill="white"/>
<path d="M224.853 170.64C223.965 170.64 223.261 170.384 222.741 169.872C222.221 169.36 221.941 168.632 221.901 167.688C221.893 167.608 221.889 167.508 221.889 167.388C221.889 167.26 221.893 167.16 221.901 167.088C221.933 166.488 222.069 165.968 222.309 165.528C222.557 165.088 222.897 164.752 223.329 164.52C223.761 164.28 224.269 164.16 224.853 164.16C225.501 164.16 226.045 164.296 226.485 164.568C226.925 164.832 227.257 165.204 227.481 165.684C227.705 166.156 227.817 166.704 227.817 167.328V167.58C227.817 167.66 227.789 167.728 227.733 167.784C227.677 167.84 227.605 167.868 227.517 167.868H223.533C223.533 167.868 223.533 167.88 223.533 167.904C223.533 167.928 223.533 167.948 223.533 167.964C223.541 168.244 223.593 168.504 223.689 168.744C223.793 168.976 223.941 169.164 224.133 169.308C224.333 169.452 224.569 169.524 224.841 169.524C225.065 169.524 225.253 169.492 225.405 169.428C225.557 169.356 225.681 169.276 225.777 169.188C225.873 169.1 225.941 169.028 225.981 168.972C226.053 168.876 226.109 168.82 226.149 168.804C226.197 168.78 226.265 168.768 226.353 168.768H227.385C227.465 168.768 227.529 168.792 227.577 168.84C227.633 168.888 227.657 168.948 227.649 169.02C227.641 169.148 227.573 169.304 227.445 169.488C227.325 169.672 227.149 169.852 226.917 170.028C226.685 170.204 226.393 170.352 226.041 170.472C225.697 170.584 225.301 170.64 224.853 170.64ZM223.533 166.86H226.185V166.824C226.185 166.512 226.133 166.24 226.029 166.008C225.925 165.776 225.773 165.592 225.573 165.456C225.373 165.32 225.133 165.252 224.853 165.252C224.573 165.252 224.333 165.32 224.133 165.456C223.933 165.592 223.781 165.776 223.677 166.008C223.581 166.24 223.533 166.512 223.533 166.824V166.86Z" fill="white"/>
<path d="M231.406 170.64C230.99 170.64 230.622 170.572 230.302 170.436C229.99 170.292 229.73 170.092 229.522 169.836C229.314 169.58 229.154 169.28 229.042 168.936C228.93 168.584 228.866 168.2 228.85 167.784C228.842 167.64 228.838 167.512 228.838 167.4C228.838 167.28 228.842 167.148 228.85 167.004C228.866 166.604 228.926 166.232 229.03 165.888C229.142 165.544 229.302 165.244 229.51 164.988C229.726 164.724 229.99 164.52 230.302 164.376C230.622 164.232 230.99 164.16 231.406 164.16C231.838 164.16 232.202 164.236 232.498 164.388C232.802 164.532 233.054 164.72 233.254 164.952V162.288C233.254 162.208 233.278 162.14 233.326 162.084C233.382 162.028 233.454 162 233.542 162H234.562C234.642 162 234.71 162.028 234.766 162.084C234.822 162.14 234.85 162.208 234.85 162.288V170.232C234.85 170.312 234.822 170.38 234.766 170.436C234.71 170.492 234.642 170.52 234.562 170.52H233.614C233.526 170.52 233.454 170.492 233.398 170.436C233.35 170.38 233.326 170.312 233.326 170.232V169.788C233.126 170.036 232.87 170.24 232.558 170.4C232.254 170.56 231.87 170.64 231.406 170.64ZM231.85 169.356C232.186 169.356 232.454 169.28 232.654 169.128C232.854 168.976 233.002 168.784 233.098 168.552C233.194 168.312 233.246 168.068 233.254 167.82C233.262 167.676 233.266 167.524 233.266 167.364C233.266 167.196 233.262 167.04 233.254 166.896C233.246 166.656 233.19 166.428 233.086 166.212C232.982 165.988 232.83 165.804 232.63 165.66C232.43 165.516 232.17 165.444 231.85 165.444C231.514 165.444 231.246 165.52 231.046 165.672C230.854 165.816 230.714 166.008 230.626 166.248C230.538 166.488 230.486 166.752 230.47 167.04C230.462 167.28 230.462 167.52 230.47 167.76C230.486 168.048 230.538 168.312 230.626 168.552C230.714 168.792 230.854 168.988 231.046 169.14C231.246 169.284 231.514 169.356 231.85 169.356Z" fill="white"/>
<path d="M114.273 191C114.273 204.807 103.081 216 89.2734 216C75.4663 216 64.2734 204.807 64.2734 191C64.2734 177.193 75.4663 166 89.2734 166C103.081 166 114.273 177.193 114.273 191Z" fill="white"/>
<path d="M89.2734 217.5C103.909 217.5 115.773 205.636 115.773 191C115.773 176.364 103.909 164.5 89.2734 164.5C74.6379 164.5 62.7734 176.364 62.7734 191C62.7734 205.636 74.6379 217.5 89.2734 217.5Z" stroke="white" stroke-opacity="0.35" stroke-width="3"/>
<path fill-rule="evenodd" clip-rule="evenodd" d="M89.2734 211.714C100.714 211.714 109.988 202.44 109.988 191C109.988 179.56 100.714 170.286 89.2734 170.286C77.8333 170.286 68.5592 179.56 68.5592 191C68.5592 202.44 77.8333 211.714 89.2734 211.714ZM89.2734 216C103.081 216 114.273 204.807 114.273 191C114.273 177.193 103.081 166 89.2734 166C75.4663 166 64.2734 177.193 64.2734 191C64.2734 204.807 75.4663 216 89.2734 216Z" fill="#22626F"/>
<path d="M103.558 191.002C103.558 198.892 97.1618 205.288 89.272 205.288C81.3822 205.288 74.9863 198.892 74.9863 191.002C74.9863 183.112 81.3822 176.716 89.272 176.716C97.1618 176.716 103.558 183.112 103.558 191.002Z" fill="#79BFBE"/>
<path d="M50.516 239.832C49.804 239.832 49.192 239.716 48.68 239.484C48.168 239.244 47.768 238.88 47.48 238.392C47.192 237.896 47.036 237.28 47.012 236.544C47.004 236.2 47 235.86 47 235.524C47 235.188 47.004 234.844 47.012 234.492C47.036 233.764 47.196 233.156 47.492 232.668C47.788 232.18 48.192 231.812 48.704 231.564C49.224 231.316 49.828 231.192 50.516 231.192C51.204 231.192 51.808 231.316 52.328 231.564C52.848 231.812 53.256 232.18 53.552 232.668C53.848 233.156 54.008 233.764 54.032 234.492C54.048 234.844 54.056 235.188 54.056 235.524C54.056 235.86 54.048 236.2 54.032 236.544C54.008 237.28 53.852 237.896 53.564 238.392C53.276 238.88 52.872 239.244 52.352 239.484C51.84 239.716 51.228 239.832 50.516 239.832ZM50.516 238.452C51.036 238.452 51.46 238.3 51.788 237.996C52.116 237.684 52.292 237.18 52.316 236.484C52.332 236.132 52.34 235.808 52.34 235.512C52.34 235.208 52.332 234.884 52.316 234.54C52.3 234.076 52.212 233.7 52.052 233.412C51.9 233.116 51.692 232.904 51.428 232.776C51.164 232.64 50.86 232.572 50.516 232.572C50.18 232.572 49.88 232.64 49.616 232.776C49.352 232.904 49.14 233.116 48.98 233.412C48.828 233.7 48.744 234.076 48.728 234.54C48.72 234.884 48.716 235.208 48.716 235.512C48.716 235.808 48.72 236.132 48.728 236.484C48.752 237.18 48.928 237.684 49.256 237.996C49.584 238.3 50.004 238.452 50.516 238.452Z" fill="white"/>
<path d="M55.7763 239.712C55.6963 239.712 55.6283 239.684 55.5723 239.628C55.5163 239.572 55.4883 239.504 55.4883 239.424V233.772C55.4883 233.684 55.5163 233.612 55.5723 233.556C55.6283 233.5 55.6963 233.472 55.7763 233.472H56.7483C56.8283 233.472 56.8963 233.5 56.9523 233.556C57.0163 233.612 57.0483 233.684 57.0483 233.772V234.264C57.2323 234.008 57.4683 233.812 57.7563 233.676C58.0523 233.54 58.3923 233.472 58.7763 233.472H59.2683C59.3563 233.472 59.4243 233.5 59.4723 233.556C59.5283 233.612 59.5563 233.68 59.5563 233.76V234.624C59.5563 234.704 59.5283 234.772 59.4723 234.828C59.4243 234.884 59.3563 234.912 59.2683 234.912H58.3322C57.9483 234.912 57.6483 235.02 57.4323 235.236C57.2243 235.452 57.1203 235.748 57.1203 236.124V239.424C57.1203 239.504 57.0923 239.572 57.0363 239.628C56.9803 239.684 56.9082 239.712 56.8202 239.712H55.7763Z" fill="white"/>
<path d="M62.7145 239.832C62.2985 239.832 61.9305 239.764 61.6105 239.628C61.2985 239.484 61.0385 239.284 60.8305 239.028C60.6225 238.772 60.4625 238.472 60.3505 238.128C60.2385 237.776 60.1745 237.392 60.1585 236.976C60.1505 236.832 60.1465 236.704 60.1465 236.592C60.1465 236.472 60.1505 236.34 60.1585 236.196C60.1745 235.796 60.2345 235.424 60.3385 235.08C60.4505 234.736 60.6105 234.436 60.8185 234.18C61.0345 233.916 61.2985 233.712 61.6105 233.568C61.9305 233.424 62.2985 233.352 62.7145 233.352C63.1465 233.352 63.5105 233.428 63.8065 233.58C64.1105 233.724 64.3625 233.912 64.5625 234.144V231.48C64.5625 231.4 64.5865 231.332 64.6345 231.276C64.6905 231.22 64.7625 231.192 64.8505 231.192H65.8705C65.9505 231.192 66.0185 231.22 66.0745 231.276C66.1305 231.332 66.1585 231.4 66.1585 231.48V239.424C66.1585 239.504 66.1305 239.572 66.0745 239.628C66.0185 239.684 65.9505 239.712 65.8705 239.712H64.9225C64.8345 239.712 64.7625 239.684 64.7065 239.628C64.6585 239.572 64.6345 239.504 64.6345 239.424V238.98C64.4345 239.228 64.1785 239.432 63.8665 239.592C63.5625 239.752 63.1785 239.832 62.7145 239.832ZM63.1585 238.548C63.4945 238.548 63.7625 238.472 63.9625 238.32C64.1625 238.168 64.3105 237.976 64.4065 237.744C64.5025 237.504 64.5545 237.26 64.5625 237.012C64.5705 236.868 64.5745 236.716 64.5745 236.556C64.5745 236.388 64.5705 236.232 64.5625 236.088C64.5545 235.848 64.4985 235.62 64.3945 235.404C64.2905 235.18 64.1385 234.996 63.9385 234.852C63.7385 234.708 63.4785 234.636 63.1585 234.636C62.8225 234.636 62.5545 234.712 62.3545 234.864C62.1625 235.008 62.0225 235.2 61.9345 235.44C61.8465 235.68 61.7945 235.944 61.7785 236.232C61.7705 236.472 61.7705 236.712 61.7785 236.952C61.7945 237.24 61.8465 237.504 61.9345 237.744C62.0225 237.984 62.1625 238.18 62.3545 238.332C62.5545 238.476 62.8225 238.548 63.1585 238.548Z" fill="white"/>
<path d="M70.4445 239.832C69.5565 239.832 68.8525 239.576 68.3325 239.064C67.8125 238.552 67.5325 237.824 67.4925 236.88C67.4845 236.8 67.4805 236.7 67.4805 236.58C67.4805 236.452 67.4845 236.352 67.4925 236.28C67.5245 235.68 67.6605 235.16 67.9005 234.72C68.1485 234.28 68.4885 233.944 68.9205 233.712C69.3525 233.472 69.8605 233.352 70.4445 233.352C71.0925 233.352 71.6365 233.488 72.0765 233.76C72.5165 234.024 72.8485 234.396 73.0725 234.876C73.2965 235.348 73.4085 235.896 73.4085 236.52V236.772C73.4085 236.852 73.3805 236.92 73.3245 236.976C73.2685 237.032 73.1965 237.06 73.1085 237.06H69.1245C69.1245 237.06 69.1245 237.072 69.1245 237.096C69.1245 237.12 69.1245 237.14 69.1245 237.156C69.1325 237.436 69.1845 237.696 69.2805 237.936C69.3845 238.168 69.5325 238.356 69.7245 238.5C69.9245 238.644 70.1605 238.716 70.4325 238.716C70.6565 238.716 70.8445 238.684 70.9965 238.62C71.1485 238.548 71.2725 238.468 71.3685 238.38C71.4645 238.292 71.5325 238.22 71.5725 238.164C71.6445 238.068 71.7005 238.012 71.7405 237.996C71.7885 237.972 71.8565 237.96 71.9445 237.96H72.9765C73.0565 237.96 73.1205 237.984 73.1685 238.032C73.2245 238.08 73.2485 238.14 73.2405 238.212C73.2325 238.34 73.1645 238.496 73.0365 238.68C72.9165 238.864 72.7405 239.044 72.5085 239.22C72.2765 239.396 71.9845 239.544 71.6325 239.664C71.2885 239.776 70.8925 239.832 70.4445 239.832ZM69.1245 236.052H71.7765V236.016C71.7765 235.704 71.7245 235.432 71.6205 235.2C71.5165 234.968 71.3645 234.784 71.1645 234.648C70.9645 234.512 70.7245 234.444 70.4445 234.444C70.1645 234.444 69.9245 234.512 69.7245 234.648C69.5245 234.784 69.3725 234.968 69.2685 235.2C69.1725 235.432 69.1245 235.704 69.1245 236.016V236.052Z" fill="white"/>
<path d="M74.9716 239.712C74.8916 239.712 74.8236 239.684 74.7676 239.628C74.7116 239.572 74.6836 239.504 74.6836 239.424V233.772C74.6836 233.684 74.7116 233.612 74.7676 233.556C74.8236 233.5 74.8916 233.472 74.9716 233.472H75.9436C76.0236 233.472 76.0916 233.5 76.1476 233.556C76.2116 233.612 76.2436 233.684 76.2436 233.772V234.264C76.4276 234.008 76.6636 233.812 76.9516 233.676C77.2476 233.54 77.5876 233.472 77.9716 233.472H78.4636C78.5516 233.472 78.6196 233.5 78.6676 233.556C78.7236 233.612 78.7516 233.68 78.7516 233.76V234.624C78.7516 234.704 78.7236 234.772 78.6676 234.828C78.6196 234.884 78.5516 234.912 78.4636 234.912H77.5276C77.1436 234.912 76.8436 235.02 76.6276 235.236C76.4196 235.452 76.3156 235.748 76.3156 236.124V239.424C76.3156 239.504 76.2876 239.572 76.2316 239.628C76.1756 239.684 76.1036 239.712 76.0156 239.712H74.9716Z" fill="white"/>
<path d="M82.0514 239.832C81.5714 239.832 81.1594 239.776 80.8154 239.664C80.4794 239.552 80.2034 239.412 79.9874 239.244C79.7714 239.076 79.6114 238.908 79.5074 238.74C79.4034 238.572 79.3474 238.432 79.3394 238.32C79.3314 238.232 79.3554 238.164 79.4114 238.116C79.4754 238.06 79.5434 238.032 79.6154 238.032H80.5634C80.5954 238.032 80.6234 238.036 80.6474 238.044C80.6714 238.052 80.7034 238.076 80.7434 238.116C80.8474 238.204 80.9554 238.296 81.0674 238.392C81.1874 238.488 81.3274 238.572 81.4874 238.644C81.6474 238.708 81.8474 238.74 82.0874 238.74C82.3994 238.74 82.6594 238.68 82.8674 238.56C83.0834 238.432 83.1914 238.252 83.1914 238.02C83.1914 237.852 83.1434 237.716 83.0474 237.612C82.9594 237.508 82.7914 237.416 82.5434 237.336C82.2954 237.248 81.9434 237.156 81.4874 237.06C81.0394 236.956 80.6674 236.824 80.3714 236.664C80.0754 236.504 79.8554 236.304 79.7114 236.064C79.5674 235.824 79.4954 235.544 79.4954 235.224C79.4954 234.912 79.5874 234.616 79.7714 234.336C79.9634 234.048 80.2434 233.812 80.6114 233.628C80.9874 233.444 81.4514 233.352 82.0034 233.352C82.4354 233.352 82.8114 233.408 83.1314 233.52C83.4514 233.624 83.7154 233.756 83.9234 233.916C84.1394 234.076 84.3034 234.24 84.4154 234.408C84.5274 234.568 84.5874 234.708 84.5954 234.828C84.6034 234.916 84.5794 234.988 84.5234 235.044C84.4674 235.092 84.4034 235.116 84.3314 235.116H83.4434C83.4034 235.116 83.3674 235.108 83.3354 235.092C83.3034 235.076 83.2714 235.056 83.2394 235.032C83.1514 234.952 83.0554 234.868 82.9514 234.78C82.8474 234.692 82.7194 234.616 82.5674 234.552C82.4234 234.48 82.2314 234.444 81.9914 234.444C81.6874 234.444 81.4554 234.512 81.2954 234.648C81.1354 234.776 81.0554 234.94 81.0554 235.14C81.0554 235.276 81.0914 235.396 81.1634 235.5C81.2434 235.596 81.3994 235.688 81.6314 235.776C81.8634 235.864 82.2154 235.956 82.6874 236.052C83.2234 236.148 83.6474 236.292 83.9594 236.484C84.2794 236.668 84.5034 236.884 84.6314 237.132C84.7674 237.372 84.8354 237.64 84.8354 237.936C84.8354 238.296 84.7274 238.62 84.5114 238.908C84.3034 239.196 83.9914 239.424 83.5754 239.592C83.1674 239.752 82.6594 239.832 82.0514 239.832Z" fill="white"/>
<path d="M91.8751 239.832C91.1311 239.832 90.5071 239.724 90.0031 239.508C89.5071 239.284 89.1271 238.996 88.8631 238.644C88.6071 238.284 88.4711 237.908 88.4551 237.516C88.4551 237.444 88.4791 237.384 88.5271 237.336C88.5751 237.288 88.6351 237.264 88.7071 237.264H89.7751C89.8791 237.264 89.9551 237.288 90.0031 237.336C90.0591 237.376 90.1071 237.428 90.1471 237.492C90.1951 237.644 90.2871 237.796 90.4231 237.948C90.5591 238.092 90.7431 238.212 90.9751 238.308C91.2151 238.404 91.5151 238.452 91.8751 238.452C92.4511 238.452 92.8791 238.356 93.1591 238.164C93.4471 237.972 93.5911 237.712 93.5911 237.384C93.5911 237.152 93.5151 236.968 93.3631 236.832C93.2111 236.688 92.9751 236.56 92.6551 236.448C92.3431 236.328 91.9271 236.204 91.4071 236.076C90.8071 235.932 90.3031 235.76 89.8951 235.56C89.4951 235.352 89.1911 235.092 88.9831 234.78C88.7831 234.468 88.6831 234.072 88.6831 233.592C88.6831 233.128 88.8071 232.716 89.0551 232.356C89.3111 231.996 89.6711 231.712 90.1351 231.504C90.6071 231.296 91.1671 231.192 91.8151 231.192C92.3351 231.192 92.7951 231.264 93.1951 231.408C93.5951 231.544 93.9271 231.728 94.1911 231.96C94.4551 232.184 94.6551 232.428 94.7911 232.692C94.9351 232.948 95.0111 233.2 95.0191 233.448C95.0191 233.512 94.9951 233.572 94.9471 233.628C94.9071 233.676 94.8471 233.7 94.7671 233.7H93.6511C93.5871 233.7 93.5231 233.684 93.4591 233.652C93.3951 233.62 93.3431 233.56 93.3031 233.472C93.2551 233.224 93.0991 233.012 92.8351 232.836C92.5711 232.66 92.2311 232.572 91.8151 232.572C91.3831 232.572 91.0351 232.652 90.7711 232.812C90.5071 232.972 90.3751 233.22 90.3751 233.556C90.3751 233.78 90.4391 233.968 90.5671 234.12C90.7031 234.264 90.9151 234.392 91.2031 234.504C91.4991 234.616 91.8871 234.736 92.3671 234.864C93.0471 235.016 93.6031 235.192 94.0351 235.392C94.4671 235.592 94.7831 235.848 94.9831 236.16C95.1831 236.464 95.2831 236.852 95.2831 237.324C95.2831 237.852 95.1391 238.304 94.8511 238.68C94.5711 239.048 94.1751 239.332 93.6631 239.532C93.1511 239.732 92.5551 239.832 91.8751 239.832Z" fill="white"/>
<path d="M99.2023 239.832C98.3143 239.832 97.6103 239.576 97.0903 239.064C96.5703 238.552 96.2903 237.824 96.2503 236.88C96.2423 236.8 96.2383 236.7 96.2383 236.58C96.2383 236.452 96.2423 236.352 96.2503 236.28C96.2823 235.68 96.4183 235.16 96.6583 234.72C96.9063 234.28 97.2463 233.944 97.6783 233.712C98.1103 233.472 98.6183 233.352 99.2023 233.352C99.8503 233.352 100.394 233.488 100.834 233.76C101.274 234.024 101.606 234.396 101.83 234.876C102.054 235.348 102.166 235.896 102.166 236.52V236.772C102.166 236.852 102.138 236.92 102.082 236.976C102.026 237.032 101.954 237.06 101.866 237.06H97.8823C97.8823 237.06 97.8823 237.072 97.8823 237.096C97.8823 237.12 97.8823 237.14 97.8823 237.156C97.8903 237.436 97.9423 237.696 98.0383 237.936C98.1423 238.168 98.2903 238.356 98.4823 238.5C98.6823 238.644 98.9183 238.716 99.1903 238.716C99.4143 238.716 99.6023 238.684 99.7543 238.62C99.9063 238.548 100.03 238.468 100.126 238.38C100.222 238.292 100.29 238.22 100.33 238.164C100.402 238.068 100.458 238.012 100.498 237.996C100.546 237.972 100.614 237.96 100.702 237.96H101.734C101.814 237.96 101.878 237.984 101.926 238.032C101.982 238.08 102.006 238.14 101.998 238.212C101.99 238.34 101.922 238.496 101.794 238.68C101.674 238.864 101.498 239.044 101.266 239.22C101.034 239.396 100.742 239.544 100.39 239.664C100.046 239.776 99.6503 239.832 99.2023 239.832ZM97.8823 236.052H100.534V236.016C100.534 235.704 100.482 235.432 100.378 235.2C100.274 234.968 100.122 234.784 99.9223 234.648C99.7223 234.512 99.4823 234.444 99.2023 234.444C98.9223 234.444 98.6823 234.512 98.4823 234.648C98.2823 234.784 98.1303 234.968 98.0263 235.2C97.9303 235.432 97.8823 235.704 97.8823 236.016V236.052Z" fill="white"/>
<path d="M103.729 239.712C103.649 239.712 103.581 239.684 103.525 239.628C103.469 239.572 103.441 239.504 103.441 239.424V233.772C103.441 233.684 103.469 233.612 103.525 233.556C103.581 233.5 103.649 233.472 103.729 233.472H104.701C104.781 233.472 104.849 233.5 104.905 233.556C104.969 233.612 105.001 233.684 105.001 233.772V234.264C105.185 234.008 105.421 233.812 105.709 233.676C106.005 233.54 106.345 233.472 106.729 233.472H107.221C107.309 233.472 107.377 233.5 107.425 233.556C107.481 233.612 107.509 233.68 107.509 233.76V234.624C107.509 234.704 107.481 234.772 107.425 234.828C107.377 234.884 107.309 234.912 107.221 234.912H106.285C105.901 234.912 105.601 235.02 105.385 235.236C105.177 235.452 105.073 235.748 105.073 236.124V239.424C105.073 239.504 105.045 239.572 104.989 239.628C104.933 239.684 104.861 239.712 104.773 239.712H103.729Z" fill="white"/>
<path d="M110.653 239.712C110.525 239.712 110.429 239.684 110.365 239.628C110.309 239.564 110.261 239.492 110.221 239.412L107.977 233.844C107.961 233.804 107.953 233.768 107.953 233.736C107.953 233.664 107.977 233.604 108.025 233.556C108.081 233.5 108.145 233.472 108.217 233.472H109.189C109.285 233.472 109.357 233.5 109.405 233.556C109.453 233.604 109.485 233.652 109.501 233.7L111.097 237.912L112.693 233.7C112.709 233.652 112.741 233.604 112.789 233.556C112.837 233.5 112.909 233.472 113.005 233.472H113.989C114.053 233.472 114.109 233.5 114.157 233.556C114.213 233.604 114.241 233.664 114.241 233.736C114.241 233.768 114.237 233.804 114.229 233.844L111.973 239.412C111.941 239.492 111.893 239.564 111.829 239.628C111.765 239.684 111.669 239.712 111.541 239.712H110.653Z" fill="white"/>
<path d="M115.623 239.712C115.543 239.712 115.475 239.684 115.419 239.628C115.363 239.572 115.335 239.504 115.335 239.424V233.76C115.335 233.68 115.363 233.612 115.419 233.556C115.475 233.5 115.543 233.472 115.623 233.472H116.619C116.707 233.472 116.775 233.5 116.823 233.556C116.879 233.612 116.907 233.68 116.907 233.76V239.424C116.907 239.504 116.879 239.572 116.823 239.628C116.775 239.684 116.707 239.712 116.619 239.712H115.623ZM115.575 232.44C115.487 232.44 115.415 232.416 115.359 232.368C115.311 232.312 115.287 232.24 115.287 232.152V231.288C115.287 231.208 115.311 231.14 115.359 231.084C115.415 231.028 115.487 231 115.575 231H116.667C116.755 231 116.827 231.028 116.883 231.084C116.939 231.14 116.967 231.208 116.967 231.288V232.152C116.967 232.24 116.939 232.312 116.883 232.368C116.827 232.416 116.755 232.44 116.667 232.44H115.575Z" fill="white"/>
<path d="M121.235 239.832C120.659 239.832 120.151 239.724 119.711 239.508C119.279 239.292 118.939 238.98 118.691 238.572C118.451 238.156 118.319 237.656 118.295 237.072C118.287 236.952 118.283 236.796 118.283 236.604C118.283 236.404 118.287 236.24 118.295 236.112C118.319 235.528 118.451 235.032 118.691 234.624C118.939 234.208 119.279 233.892 119.711 233.676C120.151 233.46 120.659 233.352 121.235 233.352C121.747 233.352 122.183 233.424 122.543 233.568C122.903 233.712 123.199 233.892 123.431 234.108C123.663 234.324 123.835 234.552 123.947 234.792C124.067 235.024 124.131 235.236 124.139 235.428C124.147 235.516 124.119 235.588 124.055 235.644C123.999 235.692 123.931 235.716 123.851 235.716H122.795C122.715 235.716 122.651 235.696 122.603 235.656C122.563 235.616 122.523 235.556 122.483 235.476C122.363 235.156 122.203 234.932 122.003 234.804C121.811 234.668 121.563 234.6 121.259 234.6C120.859 234.6 120.539 234.728 120.299 234.984C120.067 235.232 119.943 235.628 119.927 236.172C119.911 236.476 119.911 236.756 119.927 237.012C119.943 237.564 120.067 237.964 120.299 238.212C120.539 238.46 120.859 238.584 121.259 238.584C121.571 238.584 121.823 238.52 122.015 238.392C122.207 238.256 122.363 238.028 122.483 237.708C122.523 237.628 122.563 237.568 122.603 237.528C122.651 237.488 122.715 237.468 122.795 237.468H123.851C123.931 237.468 123.999 237.496 124.055 237.552C124.119 237.6 124.147 237.668 124.139 237.756C124.131 237.9 124.091 238.064 124.019 238.248C123.955 238.424 123.847 238.608 123.695 238.8C123.551 238.984 123.367 239.156 123.143 239.316C122.919 239.468 122.647 239.592 122.327 239.688C122.015 239.784 121.651 239.832 121.235 239.832Z" fill="white"/>
<path d="M128.077 239.832C127.189 239.832 126.485 239.576 125.965 239.064C125.445 238.552 125.165 237.824 125.125 236.88C125.117 236.8 125.113 236.7 125.113 236.58C125.113 236.452 125.117 236.352 125.125 236.28C125.157 235.68 125.293 235.16 125.533 234.72C125.781 234.28 126.121 233.944 126.553 233.712C126.985 233.472 127.493 233.352 128.077 233.352C128.725 233.352 129.269 233.488 129.709 233.76C130.149 234.024 130.481 234.396 130.705 234.876C130.929 235.348 131.041 235.896 131.041 236.52V236.772C131.041 236.852 131.013 236.92 130.957 236.976C130.901 237.032 130.829 237.06 130.741 237.06H126.757C126.757 237.06 126.757 237.072 126.757 237.096C126.757 237.12 126.757 237.14 126.757 237.156C126.765 237.436 126.817 237.696 126.913 237.936C127.017 238.168 127.165 238.356 127.357 238.5C127.557 238.644 127.793 238.716 128.065 238.716C128.289 238.716 128.477 238.684 128.629 238.62C128.781 238.548 128.905 238.468 129.001 238.38C129.097 238.292 129.165 238.22 129.205 238.164C129.277 238.068 129.333 238.012 129.373 237.996C129.421 237.972 129.489 237.96 129.577 237.96H130.609C130.689 237.96 130.753 237.984 130.801 238.032C130.857 238.08 130.881 238.14 130.873 238.212C130.865 238.34 130.797 238.496 130.669 238.68C130.549 238.864 130.373 239.044 130.141 239.22C129.909 239.396 129.617 239.544 129.265 239.664C128.921 239.776 128.525 239.832 128.077 239.832ZM126.757 236.052H129.409V236.016C129.409 235.704 129.357 235.432 129.253 235.2C129.149 234.968 128.997 234.784 128.797 234.648C128.597 234.512 128.357 234.444 128.077 234.444C127.797 234.444 127.557 234.512 127.357 234.648C127.157 234.784 127.005 234.968 126.901 235.2C126.805 235.432 126.757 235.704 126.757 236.016V236.052Z" fill="white"/>
<path d="M253.467 44.832C261.429 44.832 267.883 38.3777 267.883 30.416C267.883 22.4543 261.429 16 253.467 16C245.505 16 239.051 22.4543 239.051 30.416C239.051 38.3777 245.505 44.832 253.467 44.832Z" fill="#22626F"/>
<path d="M268.467 239.832C276.429 239.832 282.883 233.378 282.883 225.416C282.883 217.454 276.429 211 268.467 211C260.505 211 254.051 217.454 254.051 225.416C254.051 233.378 260.505 239.832 268.467 239.832Z" fill="#22626F"/>
<path d="M30.416 109.832C38.3777 109.832 44.832 103.378 44.832 95.416C44.832 87.4543 38.3777 81 30.416 81C22.4543 81 16 87.4543 16 95.416C16 103.378 22.4543 109.832 30.416 109.832Z" fill="#22626F"/>
<path d="M134.348 55C134.348 68.8071 123.155 80 109.348 80C95.5405 80 84.3477 68.8071 84.3477 55C84.3477 41.1929 95.5405 30 109.348 30C123.155 30 134.348 41.1929 134.348 55Z" fill="white"/>
<path d="M109.348 81.5C123.983 81.5 135.848 69.6355 135.848 55C135.848 40.3645 123.983 28.5 109.348 28.5C94.7121 28.5 82.8477 40.3645 82.8477 55C82.8477 69.6355 94.7121 81.5 109.348 81.5Z" stroke="white" stroke-opacity="0.35" stroke-width="3"/>
<path fill-rule="evenodd" clip-rule="evenodd" d="M109.348 75.7143C120.788 75.7143 130.062 66.4402 130.062 55C130.062 43.5598 120.788 34.2857 109.348 34.2857C97.9075 34.2857 88.6334 43.5598 88.6334 55C88.6334 66.4402 97.9075 75.7143 109.348 75.7143ZM109.348 80C123.155 80 134.348 68.8071 134.348 55C134.348 41.1929 123.155 30 109.348 30C95.5405 30 84.3477 41.1929 84.3477 55C84.3477 68.8071 95.5405 80 109.348 80Z" fill="#22626F"/>
<path d="M123.632 55.0019C123.632 62.8917 117.236 69.2876 109.347 69.2876C101.457 69.2876 95.0605 62.8917 95.0605 55.0019C95.0605 47.1121 101.457 40.7162 109.347 40.7162C117.236 40.7162 123.632 47.1121 123.632 55.0019Z" fill="#79BFBE"/>
<path d="M73.288 104.875C73.208 104.875 73.14 104.847 73.084 104.791C73.028 104.735 73 104.667 73 104.587V96.7747C73 96.6867 73.028 96.6147 73.084 96.5587C73.14 96.5027 73.208 96.4747 73.288 96.4747H78.568C78.656 96.4747 78.728 96.5027 78.784 96.5587C78.84 96.6147 78.868 96.6867 78.868 96.7747V97.5667C78.868 97.6467 78.84 97.7147 78.784 97.7707C78.728 97.8267 78.656 97.8547 78.568 97.8547H74.62V99.9787H78.304C78.392 99.9787 78.464 100.007 78.52 100.063C78.576 100.111 78.604 100.179 78.604 100.267V101.011C78.604 101.099 78.576 101.171 78.52 101.227C78.464 101.275 78.392 101.299 78.304 101.299H74.62V103.495H78.664C78.752 103.495 78.824 103.523 78.88 103.579C78.936 103.635 78.964 103.707 78.964 103.795V104.587C78.964 104.667 78.936 104.735 78.88 104.791C78.824 104.847 78.752 104.875 78.664 104.875H73.288Z" fill="white"/>
<path d="M80.6083 104.875C80.5283 104.875 80.4603 104.847 80.4043 104.791C80.3483 104.735 80.3203 104.667 80.3203 104.587V98.9227C80.3203 98.8427 80.3483 98.7747 80.4043 98.7187C80.4603 98.6627 80.5283 98.6347 80.6083 98.6347H81.5443C81.6243 98.6347 81.6923 98.6627 81.7483 98.7187C81.8043 98.7747 81.8323 98.8427 81.8323 98.9227V99.3307C82.0003 99.1067 82.2243 98.9187 82.5043 98.7667C82.7923 98.6067 83.1323 98.5227 83.5243 98.5147C84.4363 98.4987 85.0723 98.8547 85.4323 99.5827C85.6163 99.2627 85.8803 99.0067 86.2243 98.8147C86.5763 98.6147 86.9643 98.5147 87.3883 98.5147C87.8043 98.5147 88.1803 98.6107 88.5163 98.8027C88.8603 98.9947 89.1283 99.2867 89.3203 99.6787C89.5203 100.063 89.6203 100.551 89.6203 101.143V104.587C89.6203 104.667 89.5923 104.735 89.5363 104.791C89.4803 104.847 89.4123 104.875 89.3323 104.875H88.3483C88.2683 104.875 88.2003 104.847 88.1443 104.791C88.0883 104.735 88.0603 104.667 88.0603 104.587V101.239C88.0603 100.879 88.0083 100.595 87.9043 100.387C87.8003 100.171 87.6603 100.019 87.4843 99.9307C87.3083 99.8427 87.1123 99.7987 86.8963 99.7987C86.7203 99.7987 86.5443 99.8427 86.3683 99.9307C86.1923 100.019 86.0483 100.171 85.9363 100.387C85.8243 100.595 85.7683 100.879 85.7683 101.239V104.587C85.7683 104.667 85.7403 104.735 85.6843 104.791C85.6283 104.847 85.5603 104.875 85.4803 104.875H84.4963C84.4083 104.875 84.3363 104.847 84.2803 104.791C84.2323 104.735 84.2083 104.667 84.2083 104.587V101.239C84.2083 100.879 84.1523 100.595 84.0403 100.387C83.9283 100.171 83.7843 100.019 83.6083 99.9307C83.4323 99.8427 83.2443 99.7987 83.0443 99.7987C82.8603 99.7987 82.6803 99.8467 82.5043 99.9427C82.3283 100.031 82.1843 100.179 82.0723 100.387C81.9603 100.595 81.9043 100.879 81.9043 101.239V104.587C81.9043 104.667 81.8763 104.735 81.8203 104.791C81.7643 104.847 81.6963 104.875 81.6163 104.875H80.6083Z" fill="white"/>
<path d="M92.9602 104.995C92.5442 104.995 92.1682 104.915 91.8322 104.755C91.4962 104.587 91.2282 104.367 91.0282 104.095C90.8362 103.815 90.7402 103.503 90.7402 103.159C90.7402 102.599 90.9642 102.155 91.4122 101.827C91.8682 101.491 92.4682 101.267 93.2122 101.155L94.8562 100.915V100.663C94.8562 100.327 94.7722 100.067 94.6042 99.8827C94.4362 99.6987 94.1482 99.6067 93.7402 99.6067C93.4522 99.6067 93.2162 99.6667 93.0322 99.7867C92.8562 99.8987 92.7242 100.051 92.6362 100.243C92.5722 100.347 92.4802 100.399 92.3602 100.399H91.4122C91.3242 100.399 91.2562 100.375 91.2082 100.327C91.1682 100.279 91.1482 100.215 91.1482 100.135C91.1562 100.007 91.2082 99.8507 91.3042 99.6667C91.4002 99.4827 91.5522 99.3067 91.7602 99.1387C91.9682 98.9627 92.2362 98.8147 92.5642 98.6947C92.8922 98.5747 93.2882 98.5147 93.7522 98.5147C94.2562 98.5147 94.6802 98.5787 95.0242 98.7067C95.3762 98.8267 95.6562 98.9907 95.8642 99.1987C96.0722 99.4067 96.2242 99.6507 96.3202 99.9307C96.4162 100.211 96.4642 100.507 96.4642 100.819V104.587C96.4642 104.667 96.4362 104.735 96.3802 104.791C96.3242 104.847 96.2562 104.875 96.1762 104.875H95.2042C95.1162 104.875 95.0442 104.847 94.9882 104.791C94.9402 104.735 94.9162 104.667 94.9162 104.587V104.119C94.8122 104.271 94.6722 104.415 94.4962 104.551C94.3202 104.679 94.1042 104.787 93.8482 104.875C93.6002 104.955 93.3042 104.995 92.9602 104.995ZM93.3682 103.855C93.6482 103.855 93.9002 103.795 94.1242 103.675C94.3562 103.555 94.5362 103.371 94.6642 103.123C94.8002 102.867 94.8682 102.547 94.8682 102.163V101.911L93.6682 102.103C93.1962 102.175 92.8442 102.291 92.6122 102.451C92.3802 102.611 92.2642 102.807 92.2642 103.039C92.2642 103.215 92.3162 103.367 92.4202 103.495C92.5322 103.615 92.6722 103.707 92.8402 103.771C93.0082 103.827 93.1842 103.855 93.3682 103.855Z" fill="white"/>
<path d="M98.293 104.875C98.213 104.875 98.145 104.847 98.089 104.791C98.033 104.735 98.005 104.667 98.005 104.587V98.9227C98.005 98.8427 98.033 98.7747 98.089 98.7187C98.145 98.6627 98.213 98.6347 98.293 98.6347H99.289C99.377 98.6347 99.445 98.6627 99.493 98.7187C99.549 98.7747 99.577 98.8427 99.577 98.9227V104.587C99.577 104.667 99.549 104.735 99.493 104.791C99.445 104.847 99.377 104.875 99.289 104.875H98.293ZM98.245 97.6027C98.157 97.6027 98.085 97.5787 98.029 97.5307C97.981 97.4747 97.957 97.4027 97.957 97.3147V96.4507C97.957 96.3707 97.981 96.3027 98.029 96.2467C98.085 96.1907 98.157 96.1627 98.245 96.1627H99.337C99.425 96.1627 99.497 96.1907 99.553 96.2467C99.609 96.3027 99.637 96.3707 99.637 96.4507V97.3147C99.637 97.4027 99.609 97.4747 99.553 97.5307C99.497 97.5787 99.425 97.6027 99.337 97.6027H98.245Z" fill="white"/>
<path d="M101.47 104.875C101.39 104.875 101.321 104.847 101.265 104.791C101.209 104.735 101.182 104.667 101.182 104.587V96.6427C101.182 96.5627 101.209 96.4947 101.265 96.4387C101.321 96.3827 101.39 96.3547 101.47 96.3547H102.465C102.545 96.3547 102.613 96.3827 102.669 96.4387C102.725 96.4947 102.753 96.5627 102.753 96.6427V104.587C102.753 104.667 102.725 104.735 102.669 104.791C102.613 104.847 102.545 104.875 102.465 104.875H101.47Z" fill="white"/>
<path d="M110.147 104.995C109.403 104.995 108.779 104.887 108.275 104.671C107.779 104.447 107.399 104.159 107.135 103.807C106.879 103.447 106.743 103.071 106.727 102.679C106.727 102.607 106.751 102.547 106.799 102.499C106.847 102.451 106.907 102.427 106.979 102.427H108.047C108.151 102.427 108.227 102.451 108.275 102.499C108.331 102.539 108.379 102.591 108.419 102.655C108.467 102.807 108.559 102.959 108.695 103.111C108.831 103.255 109.015 103.375 109.247 103.471C109.487 103.567 109.787 103.615 110.147 103.615C110.723 103.615 111.151 103.519 111.431 103.327C111.719 103.135 111.863 102.875 111.863 102.547C111.863 102.315 111.787 102.131 111.635 101.995C111.483 101.851 111.247 101.723 110.927 101.611C110.615 101.491 110.199 101.367 109.679 101.239C109.079 101.095 108.575 100.923 108.167 100.723C107.767 100.515 107.463 100.255 107.255 99.9427C107.055 99.6307 106.955 99.2347 106.955 98.7547C106.955 98.2907 107.079 97.8787 107.327 97.5187C107.583 97.1587 107.943 96.8747 108.407 96.6667C108.879 96.4587 109.439 96.3547 110.087 96.3547C110.607 96.3547 111.067 96.4267 111.467 96.5707C111.867 96.7067 112.199 96.8907 112.463 97.1227C112.727 97.3467 112.927 97.5907 113.063 97.8547C113.207 98.1107 113.283 98.3627 113.291 98.6107C113.291 98.6747 113.267 98.7347 113.219 98.7907C113.179 98.8387 113.119 98.8627 113.039 98.8627H111.923C111.859 98.8627 111.795 98.8467 111.731 98.8147C111.667 98.7827 111.615 98.7227 111.575 98.6347C111.527 98.3867 111.371 98.1747 111.107 97.9987C110.843 97.8227 110.503 97.7347 110.087 97.7347C109.655 97.7347 109.307 97.8147 109.043 97.9747C108.779 98.1347 108.647 98.3827 108.647 98.7187C108.647 98.9427 108.711 99.1307 108.839 99.2827C108.975 99.4267 109.187 99.5547 109.475 99.6667C109.771 99.7787 110.159 99.8987 110.639 100.027C111.319 100.179 111.875 100.355 112.307 100.555C112.739 100.755 113.055 101.011 113.255 101.323C113.455 101.627 113.555 102.015 113.555 102.487C113.555 103.015 113.411 103.467 113.123 103.843C112.843 104.211 112.447 104.495 111.935 104.695C111.423 104.895 110.827 104.995 110.147 104.995Z" fill="white"/>
<path d="M117.474 104.995C116.586 104.995 115.882 104.739 115.362 104.227C114.842 103.715 114.562 102.987 114.522 102.043C114.514 101.963 114.51 101.863 114.51 101.743C114.51 101.615 114.514 101.515 114.522 101.443C114.554 100.843 114.69 100.323 114.93 99.8827C115.178 99.4427 115.518 99.1067 115.95 98.8747C116.382 98.6347 116.89 98.5147 117.474 98.5147C118.122 98.5147 118.666 98.6507 119.106 98.9227C119.546 99.1867 119.878 99.5587 120.102 100.039C120.326 100.511 120.438 101.059 120.438 101.683V101.935C120.438 102.015 120.41 102.083 120.354 102.139C120.298 102.195 120.226 102.223 120.138 102.223H116.154C116.154 102.223 116.154 102.235 116.154 102.259C116.154 102.283 116.154 102.303 116.154 102.319C116.162 102.599 116.214 102.859 116.31 103.099C116.414 103.331 116.562 103.519 116.754 103.663C116.954 103.807 117.19 103.879 117.462 103.879C117.686 103.879 117.874 103.847 118.026 103.783C118.178 103.711 118.302 103.631 118.398 103.543C118.494 103.455 118.562 103.383 118.602 103.327C118.674 103.231 118.73 103.175 118.77 103.159C118.818 103.135 118.886 103.123 118.974 103.123H120.006C120.086 103.123 120.15 103.147 120.198 103.195C120.254 103.243 120.278 103.303 120.27 103.375C120.262 103.503 120.194 103.659 120.066 103.843C119.946 104.027 119.77 104.207 119.538 104.383C119.306 104.559 119.014 104.707 118.662 104.827C118.318 104.939 117.922 104.995 117.474 104.995ZM116.154 101.215H118.806V101.179C118.806 100.867 118.754 100.595 118.65 100.363C118.546 100.131 118.394 99.9467 118.194 99.8107C117.994 99.6747 117.754 99.6067 117.474 99.6067C117.194 99.6067 116.954 99.6747 116.754 99.8107C116.554 99.9467 116.402 100.131 116.298 100.363C116.202 100.595 116.154 100.867 116.154 101.179V101.215Z" fill="white"/>
<path d="M121.999 104.875C121.919 104.875 121.851 104.847 121.795 104.791C121.739 104.735 121.711 104.667 121.711 104.587V98.9347C121.711 98.8467 121.739 98.7747 121.795 98.7187C121.851 98.6627 121.919 98.6347 121.999 98.6347H122.971C123.051 98.6347 123.119 98.6627 123.175 98.7187C123.239 98.7747 123.271 98.8467 123.271 98.9347V99.4267C123.455 99.1707 123.691 98.9747 123.979 98.8387C124.275 98.7027 124.615 98.6347 124.999 98.6347H125.491C125.579 98.6347 125.647 98.6627 125.695 98.7187C125.751 98.7747 125.779 98.8427 125.779 98.9227V99.7867C125.779 99.8667 125.751 99.9347 125.695 99.9907C125.647 100.047 125.579 100.075 125.491 100.075H124.555C124.171 100.075 123.871 100.183 123.655 100.399C123.447 100.615 123.343 100.911 123.343 101.287V104.587C123.343 104.667 123.315 104.735 123.259 104.791C123.203 104.847 123.131 104.875 123.043 104.875H121.999Z" fill="white"/>
<path d="M128.923 104.875C128.795 104.875 128.699 104.847 128.635 104.791C128.579 104.727 128.531 104.655 128.491 104.575L126.247 99.0067C126.231 98.9667 126.223 98.9307 126.223 98.8987C126.223 98.8267 126.247 98.7667 126.295 98.7187C126.351 98.6627 126.415 98.6347 126.487 98.6347H127.459C127.555 98.6347 127.627 98.6627 127.675 98.7187C127.723 98.7667 127.755 98.8147 127.771 98.8627L129.367 103.075L130.963 98.8627C130.979 98.8147 131.011 98.7667 131.059 98.7187C131.107 98.6627 131.179 98.6347 131.275 98.6347H132.259C132.323 98.6347 132.379 98.6627 132.427 98.7187C132.483 98.7667 132.511 98.8267 132.511 98.8987C132.511 98.9307 132.507 98.9667 132.499 99.0067L130.243 104.575C130.211 104.655 130.163 104.727 130.099 104.791C130.035 104.847 129.939 104.875 129.811 104.875H128.923Z" fill="white"/>
<path d="M133.895 104.875C133.815 104.875 133.747 104.847 133.691 104.791C133.635 104.735 133.607 104.667 133.607 104.587V98.9227C133.607 98.8427 133.635 98.7747 133.691 98.7187C133.747 98.6627 133.815 98.6347 133.895 98.6347H134.891C134.979 98.6347 135.047 98.6627 135.095 98.7187C135.151 98.7747 135.179 98.8427 135.179 98.9227V104.587C135.179 104.667 135.151 104.735 135.095 104.791C135.047 104.847 134.979 104.875 134.891 104.875H133.895ZM133.847 97.6027C133.759 97.6027 133.687 97.5787 133.631 97.5307C133.583 97.4747 133.559 97.4027 133.559 97.3147V96.4507C133.559 96.3707 133.583 96.3027 133.631 96.2467C133.687 96.1907 133.759 96.1627 133.847 96.1627H134.939C135.027 96.1627 135.099 96.1907 135.155 96.2467C135.211 96.3027 135.239 96.3707 135.239 96.4507V97.3147C135.239 97.4027 135.211 97.4747 135.155 97.5307C135.099 97.5787 135.027 97.6027 134.939 97.6027H133.847Z" fill="white"/>
<path d="M139.505 104.995C138.929 104.995 138.421 104.887 137.981 104.671C137.549 104.455 137.209 104.143 136.961 103.735C136.721 103.319 136.589 102.819 136.565 102.235C136.557 102.115 136.553 101.959 136.553 101.767C136.553 101.567 136.557 101.403 136.565 101.275C136.589 100.691 136.721 100.195 136.961 99.7867C137.209 99.3707 137.549 99.0547 137.981 98.8387C138.421 98.6227 138.929 98.5147 139.505 98.5147C140.017 98.5147 140.453 98.5867 140.813 98.7307C141.173 98.8747 141.469 99.0547 141.701 99.2707C141.933 99.4867 142.105 99.7147 142.217 99.9547C142.337 100.187 142.401 100.399 142.409 100.591C142.417 100.679 142.389 100.751 142.325 100.807C142.269 100.855 142.201 100.879 142.121 100.879H141.065C140.985 100.879 140.921 100.859 140.873 100.819C140.833 100.779 140.793 100.719 140.753 100.639C140.633 100.319 140.473 100.095 140.273 99.9667C140.081 99.8307 139.833 99.7627 139.529 99.7627C139.129 99.7627 138.809 99.8907 138.569 100.147C138.337 100.395 138.213 100.791 138.197 101.335C138.181 101.639 138.181 101.919 138.197 102.175C138.213 102.727 138.337 103.127 138.569 103.375C138.809 103.623 139.129 103.747 139.529 103.747C139.841 103.747 140.093 103.683 140.285 103.555C140.477 103.419 140.633 103.191 140.753 102.871C140.793 102.791 140.833 102.731 140.873 102.691C140.921 102.651 140.985 102.631 141.065 102.631H142.121C142.201 102.631 142.269 102.659 142.325 102.715C142.389 102.763 142.417 102.831 142.409 102.919C142.401 103.063 142.361 103.227 142.289 103.411C142.225 103.587 142.117 103.771 141.965 103.963C141.821 104.147 141.637 104.319 141.413 104.479C141.189 104.631 140.917 104.755 140.597 104.851C140.285 104.947 139.921 104.995 139.505 104.995Z" fill="white"/>
<path d="M146.349 104.995C145.461 104.995 144.757 104.739 144.237 104.227C143.717 103.715 143.437 102.987 143.397 102.043C143.389 101.963 143.385 101.863 143.385 101.743C143.385 101.615 143.389 101.515 143.397 101.443C143.429 100.843 143.565 100.323 143.805 99.8827C144.053 99.4427 144.393 99.1067 144.825 98.8747C145.257 98.6347 145.765 98.5147 146.349 98.5147C146.997 98.5147 147.541 98.6507 147.981 98.9227C148.421 99.1867 148.753 99.5587 148.977 100.039C149.201 100.511 149.313 101.059 149.313 101.683V101.935C149.313 102.015 149.285 102.083 149.229 102.139C149.173 102.195 149.101 102.223 149.013 102.223H145.029C145.029 102.223 145.029 102.235 145.029 102.259C145.029 102.283 145.029 102.303 145.029 102.319C145.037 102.599 145.089 102.859 145.185 103.099C145.289 103.331 145.437 103.519 145.629 103.663C145.829 103.807 146.065 103.879 146.337 103.879C146.561 103.879 146.749 103.847 146.901 103.783C147.053 103.711 147.177 103.631 147.273 103.543C147.369 103.455 147.437 103.383 147.477 103.327C147.549 103.231 147.605 103.175 147.645 103.159C147.693 103.135 147.761 103.123 147.849 103.123H148.881C148.961 103.123 149.025 103.147 149.073 103.195C149.129 103.243 149.153 103.303 149.145 103.375C149.137 103.503 149.069 103.659 148.941 103.843C148.821 104.027 148.645 104.207 148.413 104.383C148.181 104.559 147.889 104.707 147.537 104.827C147.193 104.939 146.797 104.995 146.349 104.995ZM145.029 101.215H147.681V101.179C147.681 100.867 147.629 100.595 147.525 100.363C147.421 100.131 147.269 99.9467 147.069 99.8107C146.869 99.6747 146.629 99.6067 146.349 99.6067C146.069 99.6067 145.829 99.6747 145.629 99.8107C145.429 99.9467 145.277 100.131 145.173 100.363C145.077 100.595 145.029 100.867 145.029 101.179V101.215Z" fill="white"/>
<path d="M332 114C332 127.807 320.807 139 307 139C293.193 139 282 127.807 282 114C282 100.193 293.193 89 307 89C320.807 89 332 100.193 332 114Z" fill="white"/>
<path d="M307 140.5C321.636 140.5 333.5 128.636 333.5 114C333.5 99.3645 321.636 87.5 307 87.5C292.364 87.5 280.5 99.3645 280.5 114C280.5 128.636 292.364 140.5 307 140.5Z" stroke="white" stroke-opacity="0.35" stroke-width="3"/>
<path fill-rule="evenodd" clip-rule="evenodd" d="M307 134.714C318.44 134.714 327.714 125.44 327.714 114C327.714 102.56 318.44 93.2857 307 93.2857C295.56 93.2857 286.286 102.56 286.286 114C286.286 125.44 295.56 134.714 307 134.714ZM307 139C320.807 139 332 127.807 332 114C332 100.193 320.807 89 307 89C293.193 89 282 100.193 282 114C282 127.807 293.193 139 307 139Z" fill="#22626F"/>
<path d="M321.285 114.002C321.285 121.892 314.889 128.288 306.999 128.288C299.109 128.288 292.713 121.892 292.713 114.002C292.713 106.112 299.109 99.7162 306.999 99.7162C314.889 99.7162 321.285 106.112 321.285 114.002Z" fill="#79BFBE"/>
<path d="M259.288 159.712C259.208 159.712 259.14 159.684 259.084 159.628C259.028 159.572 259 159.504 259 159.424V151.6C259 151.52 259.028 151.452 259.084 151.396C259.14 151.34 259.208 151.312 259.288 151.312H260.416C260.504 151.312 260.572 151.34 260.62 151.396C260.676 151.452 260.704 151.52 260.704 151.6V159.424C260.704 159.504 260.676 159.572 260.62 159.628C260.572 159.684 260.504 159.712 260.416 159.712H259.288Z" fill="white"/>
<path d="M262.729 159.712C262.649 159.712 262.581 159.684 262.525 159.628C262.469 159.572 262.441 159.504 262.441 159.424V153.76C262.441 153.68 262.469 153.612 262.525 153.556C262.581 153.5 262.649 153.472 262.729 153.472H263.713C263.793 153.472 263.861 153.5 263.917 153.556C263.973 153.612 264.001 153.68 264.001 153.76V154.252C264.209 153.996 264.473 153.784 264.793 153.616C265.121 153.44 265.525 153.352 266.005 153.352C266.493 153.352 266.917 153.464 267.277 153.688C267.637 153.904 267.913 154.212 268.105 154.612C268.305 155.012 268.405 155.492 268.405 156.052V159.424C268.405 159.504 268.377 159.572 268.321 159.628C268.265 159.684 268.197 159.712 268.117 159.712H267.061C266.981 159.712 266.913 159.684 266.857 159.628C266.801 159.572 266.773 159.504 266.773 159.424V156.124C266.773 155.66 266.657 155.296 266.425 155.032C266.201 154.768 265.873 154.636 265.441 154.636C265.025 154.636 264.693 154.768 264.445 155.032C264.197 155.296 264.073 155.66 264.073 156.124V159.424C264.073 159.504 264.045 159.572 263.989 159.628C263.933 159.684 263.865 159.712 263.785 159.712H262.729Z" fill="white"/>
<path d="M271.952 159.712C271.824 159.712 271.728 159.684 271.664 159.628C271.608 159.564 271.56 159.492 271.52 159.412L269.276 153.844C269.26 153.804 269.252 153.768 269.252 153.736C269.252 153.664 269.276 153.604 269.324 153.556C269.38 153.5 269.444 153.472 269.516 153.472H270.488C270.584 153.472 270.656 153.5 270.704 153.556C270.752 153.604 270.784 153.652 270.8 153.7L272.396 157.912L273.992 153.7C274.008 153.652 274.04 153.604 274.088 153.556C274.136 153.5 274.208 153.472 274.304 153.472H275.288C275.352 153.472 275.408 153.5 275.456 153.556C275.512 153.604 275.54 153.664 275.54 153.736C275.54 153.768 275.536 153.804 275.528 153.844L273.272 159.412C273.24 159.492 273.192 159.564 273.128 159.628C273.064 159.684 272.968 159.712 272.84 159.712H271.952Z" fill="white"/>
<path d="M279.099 159.832C278.211 159.832 277.507 159.576 276.987 159.064C276.467 158.552 276.187 157.824 276.147 156.88C276.139 156.8 276.135 156.7 276.135 156.58C276.135 156.452 276.139 156.352 276.147 156.28C276.179 155.68 276.315 155.16 276.555 154.72C276.803 154.28 277.143 153.944 277.575 153.712C278.007 153.472 278.515 153.352 279.099 153.352C279.747 153.352 280.291 153.488 280.731 153.76C281.171 154.024 281.503 154.396 281.727 154.876C281.951 155.348 282.063 155.896 282.063 156.52V156.772C282.063 156.852 282.035 156.92 281.979 156.976C281.923 157.032 281.851 157.06 281.763 157.06H277.779C277.779 157.06 277.779 157.072 277.779 157.096C277.779 157.12 277.779 157.14 277.779 157.156C277.787 157.436 277.839 157.696 277.935 157.936C278.039 158.168 278.187 158.356 278.379 158.5C278.579 158.644 278.815 158.716 279.087 158.716C279.311 158.716 279.499 158.684 279.651 158.62C279.803 158.548 279.927 158.468 280.023 158.38C280.119 158.292 280.187 158.22 280.227 158.164C280.299 158.068 280.355 158.012 280.395 157.996C280.443 157.972 280.511 157.96 280.599 157.96H281.631C281.711 157.96 281.775 157.984 281.823 158.032C281.879 158.08 281.903 158.14 281.895 158.212C281.887 158.34 281.819 158.496 281.691 158.68C281.571 158.864 281.395 159.044 281.163 159.22C280.931 159.396 280.639 159.544 280.287 159.664C279.943 159.776 279.547 159.832 279.099 159.832ZM277.779 156.052H280.431V156.016C280.431 155.704 280.379 155.432 280.275 155.2C280.171 154.968 280.019 154.784 279.819 154.648C279.619 154.512 279.379 154.444 279.099 154.444C278.819 154.444 278.579 154.512 278.379 154.648C278.179 154.784 278.027 154.968 277.923 155.2C277.827 155.432 277.779 155.704 277.779 156.016V156.052Z" fill="white"/>
<path d="M283.624 159.712C283.544 159.712 283.476 159.684 283.42 159.628C283.364 159.572 283.336 159.504 283.336 159.424V153.76C283.336 153.68 283.364 153.612 283.42 153.556C283.476 153.5 283.544 153.472 283.624 153.472H284.608C284.688 153.472 284.756 153.5 284.812 153.556C284.868 153.612 284.896 153.68 284.896 153.76V154.252C285.104 153.996 285.368 153.784 285.688 153.616C286.016 153.44 286.42 153.352 286.9 153.352C287.388 153.352 287.812 153.464 288.172 153.688C288.532 153.904 288.808 154.212 289 154.612C289.2 155.012 289.3 155.492 289.3 156.052V159.424C289.3 159.504 289.272 159.572 289.216 159.628C289.16 159.684 289.092 159.712 289.012 159.712H287.956C287.876 159.712 287.808 159.684 287.752 159.628C287.696 159.572 287.668 159.504 287.668 159.424V156.124C287.668 155.66 287.552 155.296 287.32 155.032C287.096 154.768 286.768 154.636 286.336 154.636C285.92 154.636 285.588 154.768 285.34 155.032C285.092 155.296 284.968 155.66 284.968 156.124V159.424C284.968 159.504 284.94 159.572 284.884 159.628C284.828 159.684 284.76 159.712 284.68 159.712H283.624Z" fill="white"/>
<path d="M293.574 159.712C293.094 159.712 292.69 159.628 292.362 159.46C292.034 159.292 291.79 159.044 291.63 158.716C291.47 158.38 291.39 157.964 291.39 157.468V154.744H290.442C290.362 154.744 290.294 154.716 290.238 154.66C290.182 154.604 290.154 154.536 290.154 154.456V153.76C290.154 153.68 290.182 153.612 290.238 153.556C290.294 153.5 290.362 153.472 290.442 153.472H291.39V151.48C291.39 151.4 291.414 151.332 291.462 151.276C291.518 151.22 291.59 151.192 291.678 151.192H292.65C292.73 151.192 292.798 151.22 292.854 151.276C292.91 151.332 292.938 151.4 292.938 151.48V153.472H294.438C294.518 153.472 294.586 153.5 294.642 153.556C294.698 153.612 294.726 153.68 294.726 153.76V154.456C294.726 154.536 294.698 154.604 294.642 154.66C294.586 154.716 294.518 154.744 294.438 154.744H292.938V157.348C292.938 157.676 292.994 157.932 293.106 158.116C293.226 158.3 293.43 158.392 293.718 158.392H294.546C294.626 158.392 294.694 158.42 294.75 158.476C294.806 158.532 294.834 158.6 294.834 158.68V159.424C294.834 159.504 294.806 159.572 294.75 159.628C294.694 159.684 294.626 159.712 294.546 159.712H293.574Z" fill="white"/>
<path d="M298.658 159.832C298.018 159.832 297.478 159.72 297.038 159.496C296.606 159.272 296.274 158.956 296.042 158.548C295.818 158.14 295.69 157.664 295.658 157.12C295.65 156.976 295.646 156.8 295.646 156.592C295.646 156.384 295.65 156.208 295.658 156.064C295.69 155.512 295.822 155.036 296.054 154.636C296.294 154.228 296.63 153.912 297.062 153.688C297.502 153.464 298.034 153.352 298.658 153.352C299.282 153.352 299.81 153.464 300.242 153.688C300.682 153.912 301.018 154.228 301.25 154.636C301.49 155.036 301.626 155.512 301.658 156.064C301.666 156.208 301.67 156.384 301.67 156.592C301.67 156.8 301.666 156.976 301.658 157.12C301.626 157.664 301.494 158.14 301.262 158.548C301.038 158.956 300.706 159.272 300.266 159.496C299.834 159.72 299.298 159.832 298.658 159.832ZM298.658 158.644C299.082 158.644 299.41 158.512 299.642 158.248C299.874 157.976 300.002 157.58 300.026 157.06C300.034 156.94 300.038 156.784 300.038 156.592C300.038 156.4 300.034 156.244 300.026 156.124C300.002 155.612 299.874 155.22 299.642 154.948C299.41 154.676 299.082 154.54 298.658 154.54C298.234 154.54 297.906 154.676 297.674 154.948C297.442 155.22 297.314 155.612 297.29 156.124C297.282 156.244 297.278 156.4 297.278 156.592C297.278 156.784 297.282 156.94 297.29 157.06C297.314 157.58 297.442 157.976 297.674 158.248C297.906 158.512 298.234 158.644 298.658 158.644Z" fill="white"/>
<path d="M303.29 159.712C303.21 159.712 303.142 159.684 303.086 159.628C303.03 159.572 303.002 159.504 303.002 159.424V153.772C303.002 153.684 303.03 153.612 303.086 153.556C303.142 153.5 303.21 153.472 303.29 153.472H304.262C304.342 153.472 304.41 153.5 304.466 153.556C304.53 153.612 304.562 153.684 304.562 153.772V154.264C304.746 154.008 304.982 153.812 305.27 153.676C305.566 153.54 305.906 153.472 306.29 153.472H306.782C306.87 153.472 306.938 153.5 306.986 153.556C307.042 153.612 307.07 153.68 307.07 153.76V154.624C307.07 154.704 307.042 154.772 306.986 154.828C306.938 154.884 306.87 154.912 306.782 154.912H305.846C305.462 154.912 305.162 155.02 304.946 155.236C304.738 155.452 304.634 155.748 304.634 156.124V159.424C304.634 159.504 304.606 159.572 304.55 159.628C304.494 159.684 304.422 159.712 304.334 159.712H303.29Z" fill="white"/>
<path d="M309.131 161.992C309.067 161.992 309.011 161.968 308.963 161.92C308.915 161.872 308.891 161.816 308.891 161.752C308.891 161.72 308.891 161.688 308.891 161.656C308.899 161.632 308.915 161.6 308.939 161.56L309.875 159.34L307.571 153.904C307.539 153.824 307.523 153.768 307.523 153.736C307.531 153.664 307.559 153.604 307.607 153.556C307.655 153.5 307.715 153.472 307.787 153.472H308.759C308.855 153.472 308.927 153.496 308.975 153.544C309.023 153.592 309.059 153.644 309.083 153.7L310.679 157.624L312.323 153.7C312.347 153.636 312.383 153.584 312.431 153.544C312.479 153.496 312.551 153.472 312.647 153.472H313.607C313.671 153.472 313.727 153.496 313.775 153.544C313.831 153.592 313.859 153.648 313.859 153.712C313.859 153.76 313.843 153.824 313.811 153.904L310.415 161.764C310.383 161.828 310.343 161.88 310.295 161.92C310.247 161.968 310.175 161.992 310.079 161.992H309.131Z" fill="white"/>
<path d="M320.381 159.832C319.637 159.832 319.013 159.724 318.509 159.508C318.013 159.284 317.633 158.996 317.369 158.644C317.113 158.284 316.977 157.908 316.961 157.516C316.961 157.444 316.985 157.384 317.033 157.336C317.081 157.288 317.141 157.264 317.213 157.264H318.281C318.385 157.264 318.461 157.288 318.509 157.336C318.565 157.376 318.613 157.428 318.653 157.492C318.701 157.644 318.793 157.796 318.929 157.948C319.065 158.092 319.249 158.212 319.481 158.308C319.721 158.404 320.021 158.452 320.381 158.452C320.957 158.452 321.385 158.356 321.665 158.164C321.953 157.972 322.097 157.712 322.097 157.384C322.097 157.152 322.021 156.968 321.869 156.832C321.717 156.688 321.481 156.56 321.161 156.448C320.849 156.328 320.433 156.204 319.913 156.076C319.313 155.932 318.809 155.76 318.401 155.56C318.001 155.352 317.697 155.092 317.489 154.78C317.289 154.468 317.189 154.072 317.189 153.592C317.189 153.128 317.313 152.716 317.561 152.356C317.817 151.996 318.177 151.712 318.641 151.504C319.113 151.296 319.673 151.192 320.321 151.192C320.841 151.192 321.301 151.264 321.701 151.408C322.101 151.544 322.433 151.728 322.697 151.96C322.961 152.184 323.161 152.428 323.297 152.692C323.441 152.948 323.517 153.2 323.525 153.448C323.525 153.512 323.501 153.572 323.453 153.628C323.413 153.676 323.353 153.7 323.273 153.7H322.157C322.093 153.7 322.029 153.684 321.965 153.652C321.901 153.62 321.849 153.56 321.809 153.472C321.761 153.224 321.605 153.012 321.341 152.836C321.077 152.66 320.737 152.572 320.321 152.572C319.889 152.572 319.541 152.652 319.277 152.812C319.013 152.972 318.881 153.22 318.881 153.556C318.881 153.78 318.945 153.968 319.073 154.12C319.209 154.264 319.421 154.392 319.709 154.504C320.005 154.616 320.393 154.736 320.873 154.864C321.553 155.016 322.109 155.192 322.541 155.392C322.973 155.592 323.289 155.848 323.489 156.16C323.689 156.464 323.789 156.852 323.789 157.324C323.789 157.852 323.645 158.304 323.357 158.68C323.077 159.048 322.681 159.332 322.169 159.532C321.657 159.732 321.061 159.832 320.381 159.832Z" fill="white"/>
<path d="M327.708 159.832C326.82 159.832 326.116 159.576 325.596 159.064C325.076 158.552 324.796 157.824 324.756 156.88C324.748 156.8 324.744 156.7 324.744 156.58C324.744 156.452 324.748 156.352 324.756 156.28C324.788 155.68 324.924 155.16 325.164 154.72C325.412 154.28 325.752 153.944 326.184 153.712C326.616 153.472 327.124 153.352 327.708 153.352C328.356 153.352 328.9 153.488 329.34 153.76C329.78 154.024 330.112 154.396 330.336 154.876C330.56 155.348 330.672 155.896 330.672 156.52V156.772C330.672 156.852 330.644 156.92 330.588 156.976C330.532 157.032 330.46 157.06 330.372 157.06H326.388C326.388 157.06 326.388 157.072 326.388 157.096C326.388 157.12 326.388 157.14 326.388 157.156C326.396 157.436 326.448 157.696 326.544 157.936C326.648 158.168 326.796 158.356 326.988 158.5C327.188 158.644 327.424 158.716 327.696 158.716C327.92 158.716 328.108 158.684 328.26 158.62C328.412 158.548 328.536 158.468 328.632 158.38C328.728 158.292 328.796 158.22 328.836 158.164C328.908 158.068 328.964 158.012 329.004 157.996C329.052 157.972 329.12 157.96 329.208 157.96H330.24C330.32 157.96 330.384 157.984 330.432 158.032C330.488 158.08 330.512 158.14 330.504 158.212C330.496 158.34 330.428 158.496 330.3 158.68C330.18 158.864 330.004 159.044 329.772 159.22C329.54 159.396 329.248 159.544 328.896 159.664C328.552 159.776 328.156 159.832 327.708 159.832ZM326.388 156.052H329.04V156.016C329.04 155.704 328.988 155.432 328.884 155.2C328.78 154.968 328.628 154.784 328.428 154.648C328.228 154.512 327.988 154.444 327.708 154.444C327.428 154.444 327.188 154.512 326.988 154.648C326.788 154.784 326.636 154.968 326.532 155.2C326.436 155.432 326.388 155.704 326.388 156.016V156.052Z" fill="white"/>
<path d="M332.233 159.712C332.153 159.712 332.085 159.684 332.029 159.628C331.973 159.572 331.945 159.504 331.945 159.424V153.772C331.945 153.684 331.973 153.612 332.029 153.556C332.085 153.5 332.153 153.472 332.233 153.472H333.205C333.285 153.472 333.353 153.5 333.409 153.556C333.473 153.612 333.505 153.684 333.505 153.772V154.264C333.689 154.008 333.925 153.812 334.213 153.676C334.509 153.54 334.849 153.472 335.233 153.472H335.725C335.813 153.472 335.881 153.5 335.929 153.556C335.985 153.612 336.013 153.68 336.013 153.76V154.624C336.013 154.704 335.985 154.772 335.929 154.828C335.881 154.884 335.813 154.912 335.725 154.912H334.789C334.405 154.912 334.105 155.02 333.889 155.236C333.681 155.452 333.577 155.748 333.577 156.124V159.424C333.577 159.504 333.549 159.572 333.493 159.628C333.437 159.684 333.365 159.712 333.277 159.712H332.233Z" fill="white"/>
<path d="M339.157 159.712C339.029 159.712 338.933 159.684 338.869 159.628C338.813 159.564 338.765 159.492 338.725 159.412L336.481 153.844C336.465 153.804 336.457 153.768 336.457 153.736C336.457 153.664 336.481 153.604 336.529 153.556C336.585 153.5 336.649 153.472 336.721 153.472H337.693C337.789 153.472 337.861 153.5 337.909 153.556C337.957 153.604 337.989 153.652 338.005 153.7L339.601 157.912L341.197 153.7C341.213 153.652 341.245 153.604 341.293 153.556C341.341 153.5 341.413 153.472 341.509 153.472H342.493C342.557 153.472 342.613 153.5 342.661 153.556C342.717 153.604 342.745 153.664 342.745 153.736C342.745 153.768 342.741 153.804 342.733 153.844L340.477 159.412C340.445 159.492 340.397 159.564 340.333 159.628C340.269 159.684 340.173 159.712 340.045 159.712H339.157Z" fill="white"/>
<path d="M344.129 159.712C344.049 159.712 343.981 159.684 343.925 159.628C343.869 159.572 343.841 159.504 343.841 159.424V153.76C343.841 153.68 343.869 153.612 343.925 153.556C343.981 153.5 344.049 153.472 344.129 153.472H345.125C345.213 153.472 345.281 153.5 345.329 153.556C345.385 153.612 345.413 153.68 345.413 153.76V159.424C345.413 159.504 345.385 159.572 345.329 159.628C345.281 159.684 345.213 159.712 345.125 159.712H344.129ZM344.081 152.44C343.993 152.44 343.921 152.416 343.865 152.368C343.817 152.312 343.793 152.24 343.793 152.152V151.288C343.793 151.208 343.817 151.14 343.865 151.084C343.921 151.028 343.993 151 344.081 151H345.173C345.261 151 345.333 151.028 345.389 151.084C345.445 151.14 345.473 151.208 345.473 151.288V152.152C345.473 152.24 345.445 152.312 345.389 152.368C345.333 152.416 345.261 152.44 345.173 152.44H344.081Z" fill="white"/>
<path d="M349.739 159.832C349.163 159.832 348.655 159.724 348.215 159.508C347.783 159.292 347.443 158.98 347.195 158.572C346.955 158.156 346.823 157.656 346.799 157.072C346.791 156.952 346.787 156.796 346.787 156.604C346.787 156.404 346.791 156.24 346.799 156.112C346.823 155.528 346.955 155.032 347.195 154.624C347.443 154.208 347.783 153.892 348.215 153.676C348.655 153.46 349.163 153.352 349.739 153.352C350.251 153.352 350.687 153.424 351.047 153.568C351.407 153.712 351.703 153.892 351.935 154.108C352.167 154.324 352.339 154.552 352.451 154.792C352.571 155.024 352.635 155.236 352.643 155.428C352.651 155.516 352.623 155.588 352.559 155.644C352.503 155.692 352.435 155.716 352.355 155.716H351.299C351.219 155.716 351.155 155.696 351.107 155.656C351.067 155.616 351.027 155.556 350.987 155.476C350.867 155.156 350.707 154.932 350.507 154.804C350.315 154.668 350.067 154.6 349.763 154.6C349.363 154.6 349.043 154.728 348.803 154.984C348.571 155.232 348.447 155.628 348.431 156.172C348.415 156.476 348.415 156.756 348.431 157.012C348.447 157.564 348.571 157.964 348.803 158.212C349.043 158.46 349.363 158.584 349.763 158.584C350.075 158.584 350.327 158.52 350.519 158.392C350.711 158.256 350.867 158.028 350.987 157.708C351.027 157.628 351.067 157.568 351.107 157.528C351.155 157.488 351.219 157.468 351.299 157.468H352.355C352.435 157.468 352.503 157.496 352.559 157.552C352.623 157.6 352.651 157.668 352.643 157.756C352.635 157.9 352.595 158.064 352.523 158.248C352.459 158.424 352.351 158.608 352.199 158.8C352.055 158.984 351.871 159.156 351.647 159.316C351.423 159.468 351.151 159.592 350.831 159.688C350.519 159.784 350.155 159.832 349.739 159.832Z" fill="white"/>
<path d="M356.583 159.832C355.695 159.832 354.991 159.576 354.471 159.064C353.951 158.552 353.671 157.824 353.631 156.88C353.623 156.8 353.619 156.7 353.619 156.58C353.619 156.452 353.623 156.352 353.631 156.28C353.663 155.68 353.799 155.16 354.039 154.72C354.287 154.28 354.627 153.944 355.059 153.712C355.491 153.472 355.999 153.352 356.583 153.352C357.231 153.352 357.775 153.488 358.215 153.76C358.655 154.024 358.987 154.396 359.211 154.876C359.435 155.348 359.547 155.896 359.547 156.52V156.772C359.547 156.852 359.519 156.92 359.463 156.976C359.407 157.032 359.335 157.06 359.247 157.06H355.263C355.263 157.06 355.263 157.072 355.263 157.096C355.263 157.12 355.263 157.14 355.263 157.156C355.271 157.436 355.323 157.696 355.419 157.936C355.523 158.168 355.671 158.356 355.863 158.5C356.063 158.644 356.299 158.716 356.571 158.716C356.795 158.716 356.983 158.684 357.135 158.62C357.287 158.548 357.411 158.468 357.507 158.38C357.603 158.292 357.671 158.22 357.711 158.164C357.783 158.068 357.839 158.012 357.879 157.996C357.927 157.972 357.995 157.96 358.083 157.96H359.115C359.195 157.96 359.259 157.984 359.307 158.032C359.363 158.08 359.387 158.14 359.379 158.212C359.371 158.34 359.303 158.496 359.175 158.68C359.055 158.864 358.879 159.044 358.647 159.22C358.415 159.396 358.123 159.544 357.771 159.664C357.427 159.776 357.031 159.832 356.583 159.832ZM355.263 156.052H357.915V156.016C357.915 155.704 357.863 155.432 357.759 155.2C357.655 154.968 357.503 154.784 357.303 154.648C357.103 154.512 356.863 154.444 356.583 154.444C356.303 154.444 356.063 154.512 355.863 154.648C355.663 154.784 355.511 154.968 355.407 155.2C355.311 155.432 355.263 155.704 355.263 156.016V156.052Z" fill="white"/>
<path d="M204.332 157.192L204.537 157.683L205.014 157.449L207.923 156.024L208.348 155.815L208.163 155.379L204.071 145.734L211.04 145.178L212.134 145.091L211.35 144.323L195.35 128.643L194.5 127.81V129V152.07V153.297L195.358 152.419L200.259 147.403L204.332 157.192Z" fill="white" stroke="#022343"/>
</svg>
