<!--
 Copyright 2023-2025 Solace Systems. All rights reserved.

 Licensed under the Apache License, Version 2.0 (the "License");
 you may not use this file except in compliance with the License.
 You may obtain a copy of the License at

     http://www.apache.org/licenses/LICENSE-2.0

 Unless required by applicable law or agreed to in writing, software
 distributed under the License is distributed on an "AS IS" BASIS,
 WITHOUT WARRANTIES OR CONDITIONS OF ANY KIND, either express or implied.
 See the License for the specific language governing permissions and
 limitations under the License.
-->
<svg width="130" height="130" viewBox="0 0 130 130" fill="none" xmlns="http://www.w3.org/2000/svg">
<path d="M128 122H2V123H128V122Z" fill="#969696"/>
<path opacity="0.1" d="M121 66.5C121 96.5995 96.5995 121 66.5 121C36.4005 121 12 96.5995 12 66.5C12 36.4005 36.4005 12 66.5 12C96.5995 12 121 36.4005 121 66.5Z" fill="#033D58"/>
<path d="M100 33H30C28.8954 33 28 33.8954 28 35V116C28 117.105 28.8954 118 30 118H100C101.105 118 102 117.105 102 116V35C102 33.8954 101.105 33 100 33Z" fill="white"/>
<path fill-rule="evenodd" clip-rule="evenodd" d="M100 35H30V116H100V35ZM30 33C28.8954 33 28 33.8954 28 35V116C28 117.105 28.8954 118 30 118H100C101.105 118 102 117.105 102 116V35C102 33.8954 101.105 33 100 33H30Z" fill="#969696"/>
<path fill-rule="evenodd" clip-rule="evenodd" d="M96 38H34C33.4477 38 33 38.4477 33 39V112C33 112.552 33.4477 113 34 113H96C96.5523 113 97 112.552 97 112V39C97 38.4477 96.5523 38 96 38ZM34 37C32.8954 37 32 37.8954 32 39V112C32 113.105 32.8954 114 34 114H96C97.1046 114 98 113.105 98 112V39C98 37.8954 97.1046 37 96 37H34Z" fill="#969696"/>
<path d="M42 33.6314C42 32.6301 42.7405 31.7831 43.7328 31.6493L51.6837 30.5775C52.4813 30.4699 53.1367 29.8948 53.347 29.1179L54.3323 25.4775C54.5683 24.6055 55.3595 24 56.2628 24H74.9146C75.8433 24 76.6499 24.6394 76.8618 25.5436L77.69 29.0773C77.8771 29.8757 78.5327 30.479 79.3438 30.5993L86.2934 31.6298C87.2739 31.7753 88 32.617 88 33.6082V41C88 42.1046 87.1046 43 86 43H44C42.8954 43 42 42.1046 42 41V33.6314Z" fill="white"/>
<path fill-rule="evenodd" clip-rule="evenodd" d="M44 41H86V33.6082L79.0505 32.5776C77.4281 32.3371 76.117 31.1305 75.7428 29.5337L74.9146 26H56.2628L55.2775 29.6404C54.857 31.1941 53.5461 32.3445 51.9509 32.5595L44 33.6314V41ZM43.7328 31.6493C42.7405 31.7831 42 32.6301 42 33.6314V41C42 42.1046 42.8954 43 44 43H86C87.1046 43 88 42.1046 88 41V33.6082C88 32.617 87.2739 31.7753 86.2934 31.6298L79.3438 30.5993C78.5327 30.479 77.8771 29.8757 77.69 29.0773L76.8618 25.5436C76.6499 24.6394 75.8433 24 74.9146 24H56.2628C55.3595 24 54.5683 24.6055 54.3323 25.4775L53.347 29.1179C53.1367 29.8948 52.4813 30.4699 51.6837 30.5775L43.7328 31.6493Z" fill="#969696"/>
<path fill-rule="evenodd" clip-rule="evenodd" d="M72.5113 29H59V33.2045H72.5113V29ZM59 28C58.4477 28 58 28.4477 58 29V33.2045C58 33.7568 58.4477 34.2045 59 34.2045H72.5113C73.0635 34.2045 73.5113 33.7568 73.5113 33.2045V29C73.5113 28.4477 73.0635 28 72.5113 28H59Z" fill="#969696"/>
<path fill-rule="evenodd" clip-rule="evenodd" d="M39 46C39.5523 46 40 46.4477 40 47V75C40 75.5523 39.5523 76 39 76C38.4477 76 38 75.5523 38 75V47C38 46.4477 38.4477 46 39 46Z" fill="#969696"/>
<path fill-rule="evenodd" clip-rule="evenodd" d="M90 75C90 75.5523 89.5523 76 89 76H39C38.4477 76 38 75.5523 38 75C38 74.4477 38.4477 74 39 74H89C89.5523 74 90 74.4477 90 75Z" fill="#969696"/>
<path fill-rule="evenodd" clip-rule="evenodd" d="M84.8253 50.4354C85.1372 50.8912 85.0205 51.5135 84.5647 51.8254L83.0249 52.8789C82.5691 53.1908 81.9468 53.0741 81.6349 52.6183C81.3231 52.1625 81.4398 51.5402 81.8956 51.2283L83.4353 50.1748C83.8911 49.8629 84.5135 49.9796 84.8253 50.4354ZM50.6591 54.7245L52.2444 55.8869C52.6898 56.2135 53.3156 56.1172 53.6422 55.6718C53.9687 55.2264 53.8724 54.6006 53.4271 54.274L51.7623 53.0533C50.9621 52.4666 49.8447 52.5969 49.201 53.352L48.2058 54.5195C47.8475 54.9398 47.8977 55.571 48.318 55.9293C48.7383 56.2875 49.3695 56.2373 49.7278 55.817L50.6591 54.7245ZM80.206 53.596C80.5179 54.0518 80.4012 54.6741 79.9454 54.986L76.8658 57.093C76.41 57.4049 75.7877 57.2882 75.4758 56.8324C75.164 56.3766 75.2806 55.7543 75.7365 55.4424L78.816 53.3354C79.2718 53.0235 79.8941 53.1402 80.206 53.596ZM47.625 56.7422C48.0453 57.1005 48.0956 57.7317 47.7373 58.152L45.7468 60.487C45.3885 60.9073 44.7573 60.9576 44.337 60.5993C43.9167 60.241 43.8665 59.6098 44.2248 59.1895L46.2153 56.8545C46.5735 56.4342 47.2047 56.3839 47.625 56.7422ZM55.3589 56.9306C55.6855 56.4852 56.3113 56.3889 56.7566 56.7155L60.0862 59.157C60.5316 59.4835 60.6279 60.1093 60.3013 60.5547C59.9748 61.0001 59.349 61.0964 58.9036 60.7698L55.574 58.3284C55.1286 58.0018 55.0323 57.376 55.3589 56.9306ZM74.0469 57.8101C74.3588 58.2659 74.2421 58.8882 73.7863 59.2001L70.7067 61.3072C70.2509 61.619 69.6286 61.5023 69.3167 61.0465C69.0049 60.5907 69.1215 59.9684 69.5773 59.6566L72.6569 57.5495C73.1127 57.2376 73.735 57.3543 74.0469 57.8101ZM43.644 61.4123C44.0643 61.7706 44.1146 62.4017 43.7563 62.822L42.761 63.9895C42.4028 64.4098 41.7716 64.4601 41.3513 64.1018C40.931 63.7435 40.8807 63.1124 41.239 62.6921L42.2343 61.5246C42.5925 61.1043 43.2237 61.054 43.644 61.4123ZM62.0181 61.8135C62.3446 61.3681 62.9704 61.2718 63.4158 61.5984L65.02 62.7747L66.4978 61.7636C66.9536 61.4517 67.5759 61.5684 67.8878 62.0242C68.1996 62.48 68.083 63.1024 67.6272 63.4142L66.0874 64.4678C65.4239 64.9217 64.5462 64.9074 63.898 64.432L62.2332 63.2113C61.7878 62.8847 61.6915 62.2589 62.0181 61.8135Z" fill="#969696"/>
<path d="M56.9162 69.1094L64.6806 58.4208L71.359 66.2355C71.9874 66.9707 72.9965 67.2557 73.9166 66.9576L87.4623 62.57C88.2505 62.3147 88.6824 61.4689 88.4271 60.6808C88.1718 59.8927 87.326 59.4607 86.5379 59.716L73.3769 63.979L66.4619 55.8875C65.4562 54.7107 63.6149 54.7834 62.7051 56.0358L54.9397 66.7259L51.5165 62.7384C50.5096 61.5656 48.6717 61.6402 47.7633 62.8908L41.7865 71.1186C41.2996 71.7888 41.4483 72.7269 42.1185 73.2137C42.7888 73.7006 43.7268 73.552 44.2137 72.8817L49.7398 65.2744L53.1629 69.2618C54.1698 70.4347 56.0077 70.3601 56.9162 69.1094Z" fill="#969696" stroke="white" stroke-linecap="round"/>
<path fill-rule="evenodd" clip-rule="evenodd" d="M88.4633 48.4213C88.6059 48.6449 88.6538 48.916 88.5965 49.175L87.6393 53.4998C87.52 54.039 86.9861 54.3794 86.4469 54.26C85.9076 54.1407 85.5673 53.6068 85.6866 53.0676L86.4276 49.7194L83.1612 48.9971C82.622 48.8778 82.2815 48.344 82.4007 47.8047C82.52 47.2655 83.0538 46.925 83.5931 47.0443L87.8361 47.9825C88.0951 48.0398 88.3207 48.1976 88.4633 48.4213Z" fill="#969696"/>
<path fill-rule="evenodd" clip-rule="evenodd" d="M90.0252 59.8606C90.1217 60.1077 90.1161 60.383 90.0096 60.6259L88.2312 64.6826C88.0095 65.1884 87.4197 65.4187 86.9139 65.197C86.4081 64.9753 86.1778 64.3855 86.3995 63.8796L87.7763 60.739L84.7122 59.3964C84.2063 59.1748 83.9759 58.585 84.1976 58.0792C84.4192 57.5733 85.009 57.3429 85.5148 57.5645L89.495 59.3085C89.738 59.4149 89.9287 59.6135 90.0252 59.8606Z" fill="#969696"/>
<path d="M58 90.5C58 90.2239 58.2239 90 58.5 90H76.5C76.7761 90 77 90.2239 77 90.5C77 90.7761 76.7761 91 76.5 91H58.5C58.2239 91 58 90.7761 58 90.5Z" fill="#969696"/>
<path d="M58 106.5C58 106.224 58.2239 106 58.5 106H76.5C76.7761 106 77 106.224 77 106.5C77 106.776 76.7761 107 76.5 107H58.5C58.2239 107 58 106.776 58 106.5Z" fill="#969696"/>
<path d="M58 84.5C58 84.2239 58.2239 84 58.5 84H89.5C89.7761 84 90 84.2239 90 84.5C90 84.7761 89.7761 85 89.5 85H58.5C58.2239 85 58 84.7761 58 84.5Z" fill="#969696"/>
<path d="M58 100.5C58 100.224 58.2239 100 58.5 100H89.5C89.7761 100 90 100.224 90 100.5C90 100.776 89.7761 101 89.5 101H58.5C58.2239 101 58 100.776 58 100.5Z" fill="#969696"/>
<path fill-rule="evenodd" clip-rule="evenodd" d="M46 91C48.2091 91 50 89.2091 50 87C50 84.7909 48.2091 83 46 83C43.7909 83 42 84.7909 42 87C42 89.2091 43.7909 91 46 91ZM46 93C49.3137 93 52 90.3137 52 87C52 83.6863 49.3137 81 46 81C42.6863 81 40 83.6863 40 87C40 90.3137 42.6863 93 46 93Z" fill="#969696"/>
<path fill-rule="evenodd" clip-rule="evenodd" d="M49.3408 101H43V106.307H49.3408V101ZM43 99C41.8954 99 41 99.8954 41 101V106.307C41 107.411 41.8954 108.307 43 108.307H49.3408C50.4454 108.307 51.3408 107.411 51.3408 106.307V101C51.3408 99.8954 50.4454 99 49.3408 99H43Z" fill="#969696"/>
</svg>
