<!--
 Copyright 2023-2025 Solace Systems. All rights reserved.

 Licensed under the Apache License, Version 2.0 (the "License");
 you may not use this file except in compliance with the License.
 You may obtain a copy of the License at

     http://www.apache.org/licenses/LICENSE-2.0

 Unless required by applicable law or agreed to in writing, software
 distributed under the License is distributed on an "AS IS" BASIS,
 WITHOUT WARRANTIES OR CONDITIONS OF ANY KIND, either express or implied.
 See the License for the specific language governing permissions and
 limitations under the License.
-->
<svg width="41" height="30" viewBox="0 0 41 30" fill="none" xmlns="http://www.w3.org/2000/svg">
<g clip-path="url(#clip0_121_2683)">
<path d="M0.570325 1L0.570312 28.776" stroke="#969696" stroke-linecap="round"/>
<path d="M39.8093 29.1121H0.904297" stroke="#969696" stroke-linecap="round"/>
<mask id="mask0_121_2683" style="mask-type:luminance" maskUnits="userSpaceOnUse" x="3" y="23" width="7" height="7">
<path d="M9.35892 23.5H3.64108C3.28702 23.5 3 23.787 3 24.1411V28.8589C3 29.213 3.28702 29.5 3.64108 29.5H9.35892C9.71298 29.5 10 29.213 10 28.8589V24.1411C10 23.787 9.71298 23.5 9.35892 23.5Z" fill="white"/>
</mask>
<g mask="url(#mask0_121_2683)">
<path d="M9.35892 23.5H3.64108C3.28702 23.5 3 23.787 3 24.1411V28.8589C3 29.213 3.28702 29.5 3.64108 29.5H9.35892C9.71298 29.5 10 29.213 10 28.8589V24.1411C10 23.787 9.71298 23.5 9.35892 23.5Z" fill="white" stroke="#969696" stroke-width="2"/>
</g>
<mask id="mask1_121_2683" style="mask-type:luminance" maskUnits="userSpaceOnUse" x="13" y="19" width="7" height="11">
<path d="M19.3589 19.5H13.6411C13.287 19.5 13 19.787 13 20.1411V28.8589C13 29.213 13.287 29.5 13.6411 29.5H19.3589C19.713 29.5 20 29.213 20 28.8589V20.1411C20 19.787 19.713 19.5 19.3589 19.5Z" fill="white"/>
</mask>
<g mask="url(#mask1_121_2683)">
<path d="M19.3589 19.5H13.6411C13.287 19.5 13 19.787 13 20.1411V28.8589C13 29.213 13.287 29.5 13.6411 29.5H19.3589C19.713 29.5 20 29.213 20 28.8589V20.1411C20 19.787 19.713 19.5 19.3589 19.5Z" fill="white" stroke="#969696" stroke-width="2"/>
</g>
<mask id="mask2_121_2683" style="mask-type:luminance" maskUnits="userSpaceOnUse" x="22" y="14" width="7" height="16">
<path d="M28.3589 14.5H22.6411C22.287 14.5 22 14.787 22 15.1411V28.8589C22 29.213 22.287 29.5 22.6411 29.5H28.3589C28.713 29.5 29 29.213 29 28.8589V15.1411C29 14.787 28.713 14.5 28.3589 14.5Z" fill="white"/>
</mask>
<g mask="url(#mask2_121_2683)">
<path d="M28.3589 14.5H22.6411C22.287 14.5 22 14.787 22 15.1411V28.8589C22 29.213 22.287 29.5 22.6411 29.5H28.3589C28.713 29.5 29 29.213 29 28.8589V15.1411C29 14.787 28.713 14.5 28.3589 14.5Z" fill="white" stroke="#969696" stroke-width="2"/>
</g>
<mask id="mask3_121_2683" style="mask-type:luminance" maskUnits="userSpaceOnUse" x="32" y="9" width="7" height="21">
<path d="M38.3589 9.5H32.6411C32.287 9.5 32 9.78702 32 10.1411V28.8589C32 29.213 32.287 29.5 32.6411 29.5H38.3589C38.713 29.5 39 29.213 39 28.8589V10.1411C39 9.78702 38.713 9.5 38.3589 9.5Z" fill="white"/>
</mask>
<g mask="url(#mask3_121_2683)">
<path d="M38.3589 9.5H32.6411C32.287 9.5 32 9.78702 32 10.1411V28.8589C32 29.213 32.287 29.5 32.6411 29.5H38.3589C38.713 29.5 39 29.213 39 28.8589V10.1411C39 9.78702 38.713 9.5 38.3589 9.5Z" fill="white" stroke="#969696" stroke-width="2"/>
</g>
<path d="M35.4998 7.67948C37.2557 7.67948 38.6792 6.25598 38.6792 4.50002C38.6792 2.74405 37.2557 1.32056 35.4998 1.32056C33.7438 1.32056 32.3203 2.74405 32.3203 4.50002C32.3203 6.25598 33.7438 7.67948 35.4998 7.67948Z" fill="#305D74" stroke="#305D74" stroke-width="0.641076"/>
<path d="M6.5 22C6.5 19.7295 11.2734 15.2131 16.1562 17.8057C16.3354 17.9008 16.5621 17.8222 16.627 17.63C17.4811 15.0982 18.7844 10.7761 25.1482 12.879C25.3324 12.9399 25.5354 12.8319 25.5723 12.6416C25.9674 10.6026 26.5018 6.96896 30 6.5" stroke="#969696" stroke-width="0.641076" stroke-linecap="round" stroke-dasharray="1.28 1.28"/>
</g>
<defs>
<clipPath id="clip0_121_2683">
<rect width="41" height="30" fill="white"/>
</clipPath>
</defs>
</svg>
