<?xml version="1.0" encoding="utf-8"?>
<!--
  Copyright 2023-2025 Solace Systems. All rights reserved.

  Licensed under the Apache License, Version 2.0 (the "License");
  you may not use this file except in compliance with the License.
  You may obtain a copy of the License at

      http://www.apache.org/licenses/LICENSE-2.0

  Unless required by applicable law or agreed to in writing, software
  distributed under the License is distributed on an "AS IS" BASIS,
  WITHOUT WARRANTIES OR CONDITIONS OF ANY KIND, either express or implied.
  See the License for the specific language governing permissions and
  limitations under the License.
-->
<svg width="144" height="96" viewBox="0 0 144 96" fill="none" xmlns="http://www.w3.org/2000/svg">
<path fill-rule="evenodd" clip-rule="evenodd" d="M12 10.9266C12.5523 10.9266 13 11.3744 13 11.9266V88.9266C13 89.4789 12.5523 89.9266 12 89.9266C11.4477 89.9266 11 89.4789 11 88.9266V11.9266C11 11.3744 11.4477 10.9266 12 10.9266Z" fill="#969696"/>
<path fill-rule="evenodd" clip-rule="evenodd" d="M141 88.9268C141 89.479 140.552 89.9268 140 89.9268H13.0742C12.5219 89.9268 12.0742 89.479 12.0742 88.9268C12.0742 88.3745 12.5219 87.9268 13.0742 87.9268H140C140.552 87.9268 141 88.3745 141 88.9268Z" fill="#969696"/>
<path d="M21 71.9999C21 70.8953 21.8954 69.9999 23 69.9999H39C40.1046 69.9999 41 70.8953 41 71.9999V87.9999C41 89.1044 40.1046 89.9999 39 89.9999H23C21.8954 89.9999 21 89.1044 21 87.9999V71.9999Z" fill="white"/>
<path fill-rule="evenodd" clip-rule="evenodd" d="M39 71.9999H23V87.9999H39V71.9999ZM23 69.9999C21.8954 69.9999 21 70.8953 21 71.9999V87.9999C21 89.1044 21.8954 89.9999 23 89.9999H39C40.1046 89.9999 41 89.1044 41 87.9999V71.9999C41 70.8953 40.1046 69.9999 39 69.9999H23Z" fill="#969696"/>
<path d="M49 56.9999C49 55.8953 49.8954 54.9999 51 54.9999H67C68.1046 54.9999 69 55.8953 69 56.9999V87.9999C69 89.1044 68.1046 89.9999 67 89.9999H51C49.8954 89.9999 49 89.1044 49 87.9999V56.9999Z" fill="white"/>
<path fill-rule="evenodd" clip-rule="evenodd" d="M67 56.9999H51V87.9999H67V56.9999ZM51 54.9999C49.8954 54.9999 49 55.8953 49 56.9999V87.9999C49 89.1044 49.8954 89.9999 51 89.9999H67C68.1046 89.9999 69 89.1044 69 87.9999V56.9999C69 55.8953 68.1046 54.9999 67 54.9999H51Z" fill="#969696"/>
<path d="M77 43.9999C77 42.8953 77.8954 41.9999 79 41.9999H95C96.1046 41.9999 97 42.8953 97 43.9999V87.9999C97 89.1044 96.1046 89.9999 95 89.9999H79C77.8954 89.9999 77 89.1044 77 87.9999V43.9999Z" fill="white"/>
<path fill-rule="evenodd" clip-rule="evenodd" d="M95 43.9999H79V87.9999H95V43.9999ZM79 41.9999C77.8954 41.9999 77 42.8953 77 43.9999V87.9999C77 89.1044 77.8954 89.9999 79 89.9999H95C96.1046 89.9999 97 89.1044 97 87.9999V43.9999C97 42.8953 96.1046 41.9999 95 41.9999H79Z" fill="#969696"/>
<path d="M105 31.9999C105 30.8953 105.895 29.9999 107 29.9999H123C124.105 29.9999 125 30.8953 125 31.9999V87.9999C125 89.1044 124.105 89.9999 123 89.9999H107C105.895 89.9999 105 89.1044 105 87.9999V31.9999Z" fill="white"/>
<path fill-rule="evenodd" clip-rule="evenodd" d="M123 31.9999H107V87.9999H123V31.9999ZM107 29.9999C105.895 29.9999 105 30.8953 105 31.9999V87.9999C105 89.1044 105.895 89.9999 107 89.9999H123C124.105 89.9999 125 89.1044 125 87.9999V31.9999C125 30.8953 124.105 29.9999 123 29.9999H107Z" fill="#969696"/>
<path d="M115 25.9999C118.314 25.9999 121 23.3136 121 19.9999C121 16.6862 118.314 13.9999 115 13.9999C111.686 13.9999 109 16.6862 109 19.9999C109 23.3136 111.686 25.9999 115 25.9999Z" fill="#305D74"/>
<path fill-rule="evenodd" clip-rule="evenodd" d="M107.418 20.3522C107.504 20.621 107.464 20.9108 107.309 21.151L104.409 25.638C104.103 26.1112 103.443 26.2641 102.934 25.9795C102.426 25.6948 102.262 25.0804 102.568 24.6071L104.863 21.0549L100.862 19.2346C100.329 18.9921 100.108 18.3933 100.369 17.8971C100.629 17.4009 101.273 17.1953 101.806 17.4378L106.86 19.7371C107.13 19.8602 107.333 20.0834 107.418 20.3522Z" fill="#969696"/>
<path fill-rule="evenodd" clip-rule="evenodd" d="M101.992 21.8759C102.061 22.424 101.672 22.9238 101.124 22.9923C100.495 23.0709 99.9013 23.1726 99.3409 23.2951C98.8013 23.413 98.2683 23.0712 98.1504 22.5317C98.0325 21.9921 98.3743 21.4591 98.9139 21.3412C99.5364 21.2052 100.19 21.0935 100.876 21.0077C101.424 20.9392 101.924 21.3279 101.992 21.8759ZM96.4408 23.0994C96.6833 23.5956 96.4775 24.1944 95.9813 24.4368C94.8496 24.9897 93.9092 25.6593 93.1191 26.4095C92.7186 26.7898 92.0857 26.7734 91.7054 26.3729C91.3251 25.9725 91.3415 25.3395 91.742 24.9592C92.6792 24.0692 93.7878 23.2825 95.1034 22.6398C95.5996 22.3974 96.1984 22.6031 96.4408 23.0994ZM90.6089 27.8036C91.0886 28.0773 91.2557 28.688 90.9821 29.1677C90.389 30.2076 89.9334 31.32 89.5649 32.4596C89.395 32.9851 88.8312 33.2733 88.3058 33.1034C87.7803 32.9335 87.492 32.3697 87.6619 31.8442C88.0608 30.6107 88.5671 29.3652 89.2448 28.1769C89.5184 27.6971 90.1291 27.53 90.6089 27.8036ZM79.6161 37.0974C78.1938 36.792 76.8743 36.6925 75.6496 36.7587C75.0981 36.7885 74.6269 36.3656 74.5971 35.8142C74.5672 35.2627 74.9901 34.7914 75.5416 34.7616C76.9538 34.6853 78.451 34.8016 80.0361 35.142C80.576 35.258 80.9198 35.7898 80.8038 36.3297C80.6878 36.8697 80.156 37.2134 79.6161 37.0974ZM87.8736 34.8478C88.4138 34.9628 88.7584 35.494 88.6433 36.0342C88.5488 36.4777 88.4607 36.9107 88.3738 37.3373C88.3364 37.5209 88.2992 37.7033 88.2619 37.8848C88.1953 38.2091 88.0525 38.4986 87.8552 38.7382C87.6453 38.9932 87.3355 39.1175 87.0291 39.1011C86.8381 39.334 86.5445 39.4782 86.2203 39.4668C85.9244 39.4564 85.6253 39.3817 85.3457 39.2367C84.7073 38.9056 84.0848 38.6113 83.4781 38.3516C82.9704 38.1342 82.735 37.5464 82.9524 37.0387C83.1697 36.531 83.7575 36.2956 84.2652 36.513C84.9195 36.793 85.5865 37.1086 86.2665 37.4613C86.2718 37.4641 86.2761 37.4656 86.2796 37.4665C86.2832 37.4674 86.2869 37.4679 86.2906 37.4681C86.2956 37.4683 86.3006 37.4685 86.3056 37.4687C86.3406 37.2986 86.376 37.1248 86.412 36.9481C86.4997 36.5176 86.5908 36.0702 86.6872 35.6175C86.8023 35.0773 87.3335 34.7327 87.8736 34.8478ZM72.378 36.2838C72.5765 36.7992 72.3196 37.3779 71.8042 37.5763C70.5548 38.0574 69.4101 38.7269 68.3611 39.5331C67.9233 39.8696 67.2954 39.7875 66.9589 39.3496C66.6223 38.9117 66.7045 38.2839 67.1424 37.9473C68.325 37.0384 69.6361 36.268 71.0855 35.7099C71.6009 35.5114 72.1796 35.7684 72.378 36.2838ZM65.3407 40.9359C65.7639 41.2907 65.8195 41.9214 65.4647 42.3447C64.5791 43.4013 63.7926 44.5393 63.0966 45.6954C62.8118 46.1686 62.1973 46.3213 61.7242 46.0365C61.251 45.7517 61.0983 45.1372 61.3831 44.664C62.1223 43.4359 62.9679 42.2101 63.9319 41.06C64.2867 40.6367 64.9174 40.5812 65.3407 40.9359ZM60.6786 48.0459C61.181 48.2753 61.4023 48.8685 61.1729 49.3709C60.87 50.0345 60.5972 50.677 60.3525 51.2844C60.24 51.5634 60.0711 51.8041 59.8645 51.9981C59.6448 52.2044 59.3566 52.2922 59.0786 52.2639C58.8818 52.4573 58.6064 52.5688 58.3096 52.5487C58.0362 52.5301 57.7619 52.4573 57.5043 52.326C56.9702 52.0538 56.4426 51.8128 55.9217 51.6012C55.41 51.3933 55.1637 50.8101 55.3715 50.2984C55.5793 49.7867 56.1626 49.5404 56.6743 49.7482C57.2495 49.9818 57.8291 50.2467 58.4127 50.5442C58.4236 50.5498 58.4343 50.5525 58.4451 50.5533C58.4564 50.554 58.4677 50.555 58.4788 50.5561C58.4844 50.5507 58.4899 50.5453 58.4956 50.54L58.4964 50.539L58.4974 50.5369C58.7519 49.9053 59.0365 49.2348 59.3536 48.5403C59.583 48.0379 60.1762 47.8165 60.6786 48.0459ZM52.6244 50.6196C51.4534 50.3987 50.3197 50.3219 49.2268 50.3671C48.6749 50.39 48.2091 49.9612 48.1863 49.4094C48.1634 48.8575 48.5922 48.3917 49.1441 48.3689C50.3889 48.3173 51.6747 48.4052 52.9951 48.6543C53.5378 48.7566 53.8947 49.2796 53.7924 49.8223C53.69 50.365 53.1671 50.722 52.6244 50.6196ZM46.5595 49.6706C46.7086 50.2023 46.3984 50.7543 45.8666 50.9034C44.7573 51.2145 43.6957 51.6482 42.6879 52.1796C42.1993 52.4371 41.5945 52.2499 41.3369 51.7613C41.0794 51.2728 41.2666 50.6679 41.7552 50.4104C42.8783 49.8183 44.071 49.3298 45.3266 48.9777C45.8584 48.8286 46.4103 49.1388 46.5595 49.6706ZM39.9604 52.6664C40.3022 53.1002 40.2277 53.729 39.794 54.0708C38.8737 54.7961 38.0202 55.596 37.241 56.4403C36.8664 56.8461 36.2338 56.8715 35.8279 56.4969C35.4221 56.1224 35.3967 55.4897 35.7713 55.0838C36.6167 54.1678 37.547 53.2952 38.556 52.5001C38.9897 52.1582 39.6185 52.2327 39.9604 52.6664ZM34.8038 57.7856C35.2601 58.0968 35.3776 58.719 35.0663 59.1752C34.3759 60.1872 33.7932 61.2092 33.3271 62.1958C33.0912 62.6952 32.4951 62.9088 31.9957 62.6729C31.4964 62.437 31.2828 61.8409 31.5187 61.3415C32.0311 60.2568 32.6666 59.1438 33.4142 58.048C33.7255 57.5918 34.3476 57.4743 34.8038 57.7856ZM31.4259 64.2232C31.9656 64.3404 32.3081 64.873 32.1909 65.4127C32.0614 66.0088 32 66.5419 32 67C32 67.5523 31.5523 68 31 68C30.4477 68 30 67.5523 30 67C30 66.3701 30.0835 65.6921 30.2364 64.9882C30.3536 64.4485 30.8862 64.106 31.4259 64.2232Z" fill="#969696"/>
</svg>