<?xml version="1.0" encoding="utf-8"?>
<!--
  Copyright 2023-2025 Solace Systems. All rights reserved.

  Licensed under the Apache License, Version 2.0 (the "License");
  you may not use this file except in compliance with the License.
  You may obtain a copy of the License at

      http://www.apache.org/licenses/LICENSE-2.0

  Unless required by applicable law or agreed to in writing, software
  distributed under the License is distributed on an "AS IS" BASIS,
  WITHOUT WARRANTIES OR CONDITIONS OF ANY KIND, either express or implied.
  See the License for the specific language governing permissions and
  limitations under the License.
-->
<svg width="136" height="136" viewBox="0 0 136 136" fill="none" xmlns="http://www.w3.org/2000/svg">
<g clip-path="url(#clip0_121_2782)">
<mask id="mask0_121_2782" style="mask-type:luminance" maskUnits="userSpaceOnUse" x="0" y="0" width="136" height="136">
<path d="M136 0H0V136H136V0Z" fill="white"/>
</mask>
<g mask="url(#mask0_121_2782)">
<path d="M116 79C116 106.614 93.6142 129 66 129C38.3858 129 16 106.614 16 79C16 51.3858 38.3858 29 66 29C93.6142 29 116 51.3858 116 79Z" fill="#033D58" fill-opacity="0.1"/>
<path d="M91 81C85.4772 81 81 85.4772 81 91V100.213C78.7514 101.185 75.6147 101.684 72.291 102.212L72.0055 102.258C71.2178 102.383 70.7527 103.047 71.1376 103.607C73.7297 107.374 78.3558 109.454 81 110.387V119C81 124.523 85.4772 129 91 129H119C124.523 129 129 124.523 129 119V91C129 85.4772 124.523 81 119 81H91Z" fill="white"/>
<path fill-rule="evenodd" clip-rule="evenodd" d="M83 101.527L81.7938 102.048C79.6295 102.984 76.8115 103.508 74.0211 103.961C76.3111 106.291 79.5227 107.745 81.6657 108.501L83 108.972V119C83 123.418 86.5817 127 91 127H119C123.418 127 127 123.418 127 119V91C127 86.5817 123.418 83 119 83H91C86.5817 83 83 86.5817 83 91V101.527ZM72.0055 102.258L72.291 102.212C75.6147 101.684 78.7514 101.185 81 100.213V91C81 85.4772 85.4772 81 91 81H119C124.523 81 129 85.4772 129 91V119C129 124.523 124.523 129 119 129H91C85.4772 129 81 124.523 81 119V110.387C78.3558 109.454 73.7297 107.374 71.1376 103.607C70.7527 103.047 71.2178 102.383 72.0055 102.258Z" fill="#969696"/>
<path d="M96.5273 94H89.5273C89.2512 94 89.0273 94.2239 89.0273 94.5C89.0273 94.7761 89.2512 95 89.5273 95H96.5273C96.8035 95 97.0273 94.7761 97.0273 94.5C97.0273 94.2239 96.8035 94 96.5273 94Z" fill="#969696"/>
<path d="M100.527 89H89.5273C89.2512 89 89.0273 89.2239 89.0273 89.5C89.0273 89.7761 89.2512 90 89.5273 90H100.527C100.803 90 101.027 89.7761 101.027 89.5C101.027 89.2239 100.803 89 100.527 89Z" fill="#969696"/>
<path d="M96.5273 99H89.5273C89.2512 99 89.0273 99.2239 89.0273 99.5C89.0273 99.7761 89.2512 100 89.5273 100H96.5273C96.8035 100 97.0273 99.7761 97.0273 99.5C97.0273 99.2239 96.8035 99 96.5273 99Z" fill="#969696"/>
<path d="M104.527 110H89.5273C89.2512 110 89.0273 110.224 89.0273 110.5C89.0273 110.776 89.2512 111 89.5273 111H104.527C104.803 111 105.027 110.776 105.027 110.5C105.027 110.224 104.803 110 104.527 110Z" fill="#969696"/>
<path d="M120.527 115H89.5273C89.2512 115 89.0273 115.224 89.0273 115.5C89.0273 115.776 89.2512 116 89.5273 116H120.527C120.803 116 121.027 115.776 121.027 115.5C121.027 115.224 120.803 115 120.527 115Z" fill="#969696"/>
<path d="M112.527 120H89.5273C89.2512 120 89.0273 120.224 89.0273 120.5C89.0273 120.776 89.2512 121 89.5273 121H112.527C112.803 121 113.027 120.776 113.027 120.5C113.027 120.224 112.803 120 112.527 120Z" fill="#969696"/>
<path d="M112.527 108C118.05 108 122.527 103.523 122.527 98C122.527 92.4772 118.05 88 112.527 88C107.004 88 102.527 92.4772 102.527 98C102.527 103.523 107.004 108 112.527 108Z" fill="#305D74"/>
<path d="M111.527 103.6C111.527 103.8 111.727 104 111.927 104H113.127C113.327 104 113.527 103.8 113.527 103.6V102.4C113.527 102.2 113.327 102 113.127 102H111.927C111.727 102 111.527 102.2 111.527 102.4V103.6ZM112.527 92C110.427 92 108.727 93.6 108.527 95.6C108.527 95.8 108.727 96 108.927 96H110.127C110.327 96 110.527 95.8 110.527 95.6C110.727 94.7 111.527 94 112.527 94C113.627 94 114.527 94.9 114.527 96C114.527 97.9 111.827 97.8 111.527 100.6C111.527 100.8 111.727 101 111.927 101H113.127C113.327 101 113.527 100.8 113.527 100.6C113.827 98.7 116.527 98.3 116.527 96C116.527 93.8 114.727 92 112.527 92Z" fill="white"/>
<path fill-rule="evenodd" clip-rule="evenodd" d="M55.0169 9L55.0118 9.00001C46.0281 9.02116 37.4029 12.2946 31.0245 18.1289C24.6432 23.9659 21.0272 31.8968 21 40.1948V40.1981L21.0001 68.9887C21 68.9924 21 68.9962 21 69C21 69.4142 21.2519 69.7696 21.6108 69.9214C21.7304 69.972 21.862 70 22 70H26.0001C26.2653 70 26.5196 69.8946 26.7072 69.7071C26.8947 69.5196 27.0001 69.2652 27.0001 69L27 41.3465C27.0226 34.4295 29.9649 27.7877 35.2074 22.8766C40.452 17.9636 47.571 15.1853 55.0122 15.1667C62.4501 15.1883 69.5647 17.9683 74.8046 22.8812C80.0426 27.7922 82.9806 34.4323 82.9999 41.3463L83 41.3477L82.9999 66.2886C82.9999 66.8409 83.4477 67.2886 83.9999 67.2886H88C88.5523 67.2886 89 66.8409 89 66.2886C89 66.2848 89 66.2811 88.9999 66.2773V66.2756V40.1981V40.1953C88.9766 31.9007 85.3658 23.9717 78.9899 18.1346C72.6169 12.3002 63.9968 9.02471 55.0169 9Z" fill="white"/>
<path fill-rule="evenodd" clip-rule="evenodd" d="M55.0169 9L55.0118 9.00001C46.0281 9.02116 37.4029 12.2946 31.0245 18.1289C24.6432 23.9659 21.0272 31.8968 21 40.1948V40.1981L21.0001 68.9887L21 69C21 69.4142 21.2519 69.7696 21.6108 69.9214C21.7304 69.972 21.862 70 22 70H26.0001C26.2653 70 26.5196 69.8946 26.7072 69.7071C26.8947 69.5196 27.0001 69.2652 27.0001 69L27 41.3465C27.0226 34.4295 29.9649 27.7877 35.2074 22.8766C40.452 17.9636 47.571 15.1853 55.0122 15.1667C62.4501 15.1883 69.5647 17.9683 74.8046 22.8812C80.0426 27.7922 82.9806 34.4323 82.9999 41.3463L83 41.3477L82.9999 66.2886L83 66.2914C83.0015 66.8424 83.4486 67.2886 83.9999 67.2886H88C88.5523 67.2886 89 66.8409 89 66.2886L88.9999 66.2787V66.2773V40.1981V40.1953C88.9766 31.9007 85.3658 23.9717 78.9899 18.1346C72.6169 12.3002 63.9968 9.02471 55.0169 9ZM55.0165 11C46.5071 11.02 38.3682 14.1222 32.3744 19.6047C26.3839 25.0842 23.0258 32.4907 23 40.1997L23.0001 68H25.0001L25 41.34C25.0245 33.8514 28.211 26.6903 33.8401 21.417C39.4668 16.146 47.0777 13.1865 55.0072 13.1667H55.0181C62.9443 13.1897 70.5506 16.1511 76.1726 21.4222C81.797 26.6956 84.979 33.8551 84.9999 41.3408L85 41.3477L84.9999 65.2886H86.9999V40.2035V40.2009C86.9783 32.4947 83.625 25.0896 77.6394 19.6098C71.6521 14.1285 63.5203 11.0246 55.0165 11Z" fill="#969696"/>
<path fill-rule="evenodd" clip-rule="evenodd" d="M21 82V70H23V82C23 92.4934 31.5066 101 42 101H46V103H42C30.402 103 21 93.598 21 82Z" fill="#969696"/>
<path d="M29 60C29 67.732 29 74 29 74C21.8203 74 16 67.732 16 60C16 52.268 21.8203 46 29 46C29 46 29 52.268 29 60Z" fill="white"/>
<path fill-rule="evenodd" clip-rule="evenodd" d="M26.9999 48.2004C21.9685 49.2186 18 54.0059 18 60C18 65.9941 21.9685 70.7814 26.9999 71.7996V48.2004ZM26.9999 73.8353C20.7698 72.7993 16 66.9995 16 60C16 53.0005 20.7698 47.2007 26.9999 46.1647C27.6516 46.0563 28.3192 46 28.999 46C28.9993 46 28.9987 46 28.999 46L28.9999 74C29.0002 74 28.9996 74 28.9999 74C28.3201 74 27.6516 73.9437 26.9999 73.8353Z" fill="#969696"/>
<path d="M27 47C27 43.6863 29.6863 41 33 41C36.3137 41 39 43.6863 39 47V73C39 76.3137 36.3137 79 33 79C29.6863 79 27 76.3137 27 73V47Z" fill="white"/>
<path fill-rule="evenodd" clip-rule="evenodd" d="M37 73V47C37 44.7909 35.2091 43 33 43C30.7909 43 29 44.7909 29 47V73C29 75.2091 30.7909 77 33 77C35.2091 77 37 75.2091 37 73ZM33 41C29.6863 41 27 43.6863 27 47V73C27 76.3137 29.6863 79 33 79C36.3137 79 39 76.3137 39 73V47C39 43.6863 36.3137 41 33 41Z" fill="#969696"/>
<path d="M81 60C81 52.268 81 46 81 46C88.1797 46 94 52.268 94 60C94 67.732 88.1797 74 81 74C81 74 81 67.732 81 60Z" fill="white"/>
<path fill-rule="evenodd" clip-rule="evenodd" d="M83.0001 71.7996C88.0315 70.7814 92 65.9941 92 60C92 54.0059 88.0315 49.2186 83.0001 48.2004V71.7996ZM83.0001 46.1647C89.2302 47.2007 94 53.0005 94 60C94 66.9995 89.2302 72.7993 83.0001 73.8353C82.3484 73.9437 81.6808 74 81.001 74C81.0013 74 81.0007 74 81.001 74L81.0001 46C81.0004 46 80.9998 46 81.0001 46C81.6799 46 82.3484 46.0563 83.0001 46.1647Z" fill="#969696"/>
<path d="M83 73C83 76.3137 80.3137 79 77 79C73.6863 79 71 76.3137 71 73V47C71 43.6863 73.6863 41 77 41C80.3137 41 83 43.6863 83 47V73Z" fill="white"/>
<path fill-rule="evenodd" clip-rule="evenodd" d="M73 47V73C73 75.2091 74.7909 77 77 77C79.2091 77 81 75.2091 81 73V47C81 44.7909 79.2091 43 77 43C74.7909 43 73 44.7909 73 47ZM77 79C80.3137 79 83 76.3137 83 73V47C83 43.6863 80.3137 41 77 41C73.6863 41 71 43.6863 71 47V73C71 76.3137 73.6863 79 77 79Z" fill="#969696"/>
<path d="M37 101C37 98.7909 38.7909 97 41 97H55C57.2091 97 59 98.7909 59 101V103C59 105.209 57.2091 107 55 107H41C38.7909 107 37 105.209 37 103V101Z" fill="white"/>
<path fill-rule="evenodd" clip-rule="evenodd" d="M55 99H41C39.8954 99 39 99.8954 39 101V103C39 104.105 39.8954 105 41 105H55C56.1046 105 57 104.105 57 103V101C57 99.8954 56.1046 99 55 99ZM41 97C38.7909 97 37 98.7909 37 101V103C37 105.209 38.7909 107 41 107H55C57.2091 107 59 105.209 59 103V101C59 98.7909 57.2091 97 55 97H41Z" fill="#969696"/>
</g>
</g>
<defs>
<clipPath id="clip0_121_2782">
<rect width="136" height="136" fill="white"/>
</clipPath>
</defs>
</svg>