<svg width="48" height="49" viewBox="0 0 48 49" fill="none" xmlns="http://www.w3.org/2000/svg">
<path fill-rule="evenodd" clip-rule="evenodd" d="M13.4073 20.0728V15.4279C13.4073 9.8308 18.1502 5.29346 24.0009 5.29346C29.8515 5.29346 34.5944 9.8308 34.5944 15.4279L34.5946 20.0728H36.713C37.8831 20.0728 38.8317 21.0181 38.8317 22.1841V41.1862C38.8317 42.3523 37.8831 43.2976 36.713 43.2976H11.2886C10.1185 43.2976 9.16992 42.3523 9.16992 41.1862V22.1841C9.16992 21.0181 10.1185 20.0728 11.2886 20.0728H13.4073ZM30.3571 20.0728L30.357 16.379C30.357 12.6476 27.5113 9.62277 24.0009 9.62277C20.4905 9.62277 17.6448 12.6476 17.6448 16.379V20.0728H30.3571Z" fill="white"/>
<path fill-rule="evenodd" clip-rule="evenodd" d="M24.0009 6.29346C18.6603 6.29346 14.4073 10.4243 14.4073 15.4279V19.0728H16.6448V16.379C16.6448 12.1537 19.8816 8.62277 24.0009 8.62277C28.1202 8.62277 31.357 12.1537 31.357 16.379L31.3571 19.0728H33.5945L33.5944 15.4279C33.5944 10.4244 29.3414 6.29346 24.0009 6.29346ZM35.5945 19.0728H36.713C38.4321 19.0728 39.8317 20.4625 39.8317 22.1841V41.1862C39.8317 42.9078 38.4322 44.2976 36.713 44.2976H11.2886C9.56949 44.2976 8.16992 42.9078 8.16992 41.1862V22.1841C8.16992 20.4625 9.56949 19.0728 11.2886 19.0728H12.4073V15.4279C12.4073 9.23723 17.6401 4.29346 24.0009 4.29346C30.3615 4.29346 35.5943 9.2372 35.5944 15.4278L35.5945 19.0728ZM11.2886 21.0728C10.6675 21.0728 10.1699 21.5736 10.1699 22.1841V41.1862C10.1699 41.7967 10.6675 42.2976 11.2886 42.2976H36.713C37.3341 42.2976 37.8317 41.7967 37.8317 41.1862V22.1841C37.8317 21.5737 37.3341 21.0728 36.713 21.0728H11.2886ZM29.3571 19.0728L29.357 16.3791C29.357 13.1416 26.9023 10.6227 24.0009 10.6227C21.0994 10.6227 18.6448 13.1415 18.6448 16.379V19.0728H29.3571Z" fill="#969696"/>
<path d="M25.6398 33.4331C26.8654 32.8465 27.7084 31.6225 27.7084 30.2076C27.7084 28.2222 26.0484 26.6128 24.0007 26.6128C21.953 26.6128 20.293 28.2222 20.293 30.2076C20.293 31.6226 21.1362 32.8467 22.362 33.4332V36.1469C22.362 37.0245 23.0958 37.7359 24.0009 37.7359C24.906 37.7359 25.6398 37.0245 25.6398 36.1469V33.4331Z" fill="#969696"/>
<path fill-rule="evenodd" clip-rule="evenodd" d="M35.623 22.905C35.8992 22.905 36.123 23.1288 36.123 23.405V40.0167C36.123 40.2928 35.8992 40.5167 35.623 40.5167C35.3469 40.5167 35.123 40.2928 35.123 40.0167V23.405C35.123 23.1288 35.3469 22.905 35.623 22.905Z" fill="#969696"/>
<path d="M12.4492 23.405V40.0167" stroke="#969696" stroke-linecap="round"/>
</svg>
