<svg width="168" height="88" viewBox="0 0 168 88" fill="none" xmlns="http://www.w3.org/2000/svg">
<path fill-rule="evenodd" clip-rule="evenodd" d="M73.6918 46.1337C73.5424 46.3659 73.233 46.433 73.0008 46.2835C72.1583 45.7412 71.3277 45.18 70.5098 44.6002C70.2845 44.4405 70.2313 44.1285 70.391 43.9032C70.5506 43.6779 70.8627 43.6247 71.088 43.7844C71.8938 44.3555 72.712 44.9084 73.542 45.4427C73.7742 45.5922 73.8413 45.9016 73.6918 46.1337ZM76.2436 47.6709C76.379 47.4303 76.6839 47.3449 76.9245 47.4803C77.7849 47.9643 78.6561 48.4291 79.5377 48.8745C79.7842 48.999 79.883 49.2997 79.7585 49.5462C79.634 49.7927 79.3333 49.8915 79.0868 49.767C78.1919 49.315 77.3075 48.8431 76.4342 48.3519C76.1936 48.2165 76.1082 47.9116 76.2436 47.6709ZM68.0128 42.1089C67.84 42.3243 67.5253 42.3588 67.3099 42.186C66.5288 41.5593 65.7611 40.9148 65.0075 40.2527C64.8 40.0705 64.7796 39.7546 64.9618 39.5471C65.1441 39.3397 65.46 39.3192 65.6675 39.5015C66.4099 40.1537 67.1662 40.7887 67.9357 41.406C68.1511 41.5788 68.1856 41.8935 68.0128 42.1089ZM82.4564 50.8097C82.566 50.5563 82.8603 50.4397 83.1138 50.5493C84.0193 50.941 84.9342 51.3127 85.8578 51.6641C86.1159 51.7623 86.2455 52.0512 86.1473 52.3093C86.0491 52.5673 85.7603 52.697 85.5022 52.5988C84.5646 52.242 83.6359 51.8647 82.7168 51.4671C82.4634 51.3575 82.3468 51.0632 82.4564 50.8097ZM62.7834 37.5153C62.5891 37.7116 62.2725 37.7132 62.0763 37.5189C61.365 36.8148 60.6685 36.0939 59.9875 35.3566C59.8001 35.1537 59.8126 34.8374 60.0155 34.65C60.2183 34.4627 60.5347 34.4752 60.722 34.678C61.393 35.4044 62.0791 36.1146 62.7798 36.8082C62.9761 37.0025 62.9776 37.3191 62.7834 37.5153ZM88.9618 53.2852C89.0444 53.0217 89.325 52.8752 89.5885 52.9578C90.5293 53.253 91.4778 53.5275 92.4336 53.7811C92.7005 53.8519 92.8594 54.1257 92.7886 54.3926C92.7178 54.6595 92.444 54.8185 92.1771 54.7477C91.207 54.4903 90.2441 54.2116 89.2892 53.912C89.0257 53.8293 88.8791 53.5487 88.9618 53.2852ZM58.0599 32.4023C57.8463 32.5773 57.5313 32.5459 57.3563 32.3323C57.0391 31.945 56.7259 31.5538 56.4168 31.1587C56.2466 30.9412 56.2849 30.627 56.5024 30.4568C56.7199 30.2866 57.0342 30.325 57.2043 30.5425C57.5089 30.9317 57.8174 31.3171 58.1299 31.6987C58.3049 31.9123 58.2736 32.2273 58.0599 32.4023ZM95.6898 55.0706C95.7446 54.7999 96.0084 54.625 96.2791 54.6798C96.7625 54.7777 97.2474 54.8703 97.7339 54.9575L98.9886 55.1826C99.2604 55.2313 99.4412 55.4912 99.3924 55.763C99.3437 56.0348 99.0838 56.2156 98.812 56.1669L97.5573 55.9418C97.0635 55.8532 96.5713 55.7592 96.0806 55.6599C95.81 55.6051 95.635 55.3412 95.6898 55.0706ZM101.754 56.1866C101.803 55.9148 102.063 55.734 102.335 55.7828L103.589 56.0078C103.861 56.0566 104.042 56.3165 103.993 56.5883C103.944 56.8601 103.685 57.0409 103.413 56.9921L102.158 56.7671C101.886 56.7183 101.705 56.4584 101.754 56.1866Z" fill="#969696"/>
<path d="M4 21C4 19.8954 4.89543 19 6 19H53C54.1046 19 55 19.8954 55 21V37C55 38.1046 54.1046 39 53 39H6C4.89543 39 4 38.1046 4 37V21Z" fill="white"/>
<path fill-rule="evenodd" clip-rule="evenodd" d="M53 21H6V37H53V21ZM6 19C4.89543 19 4 19.8954 4 21V37C4 38.1046 4.89543 39 6 39H53C54.1046 39 55 38.1046 55 37V21C55 19.8954 54.1046 19 53 19H6Z" fill="#969696"/>
<path d="M113 49C113 47.8954 113.895 47 115 47H162C163.105 47 164 47.8954 164 49V65C164 66.1046 163.105 67 162 67H115C113.895 67 113 66.1046 113 65V49Z" fill="white"/>
<path fill-rule="evenodd" clip-rule="evenodd" d="M162 49H115V65H162V49ZM115 47C113.895 47 113 47.8954 113 49V65C113 66.1046 113.895 67 115 67H162C163.105 67 164 66.1046 164 65V49C164 47.8954 163.105 47 162 47H115Z" fill="#4D7689"/>
<path d="M113 21C113 19.8954 113.895 19 115 19H162C163.105 19 164 19.8954 164 21V37C164 38.1046 163.105 39 162 39H115C113.895 39 113 38.1046 113 37V21Z" fill="white"/>
<path fill-rule="evenodd" clip-rule="evenodd" d="M162 21H115V37H162V21ZM115 19C113.895 19 113 19.8954 113 21V37C113 38.1046 113.895 39 115 39H162C163.105 39 164 38.1046 164 37V21C164 19.8954 163.105 19 162 19H115Z" fill="#969696"/>
<path d="M107.512 57.6055C107.512 57.8056 107.717 57.9958 107.922 57.9958H122.212L118.889 61.4527C118.684 61.6528 118.684 61.853 118.889 62.0532L119.709 62.8538C119.922 63.062 120.138 63.035 120.323 62.8538L125.798 57.3052C126.002 57.1051 126.002 56.9049 125.798 56.7047L120.266 51.1501C120.061 50.95 119.856 50.95 119.651 51.1501L118.832 51.9508C118.627 52.151 118.627 52.3511 118.832 52.5513L122.11 55.9941H107.922C107.717 55.9941 107.512 56.2043 107.512 56.4045V57.6055Z" fill="#969696"/>
<path d="M121.385 69.5504L120.817 57.5048C120.791 56.9552 121.401 56.61 121.859 56.9155L131.798 63.5508C132.212 63.8268 132.192 64.4408 131.761 64.6893L128.739 66.4343L131.466 71.1582C131.651 71.4789 131.542 71.889 131.221 72.0742L129.264 73.204C128.943 73.3892 128.533 73.2793 128.348 72.9585L125.621 68.2347L122.391 70.0995C121.956 70.3507 121.409 70.0521 121.385 69.5504Z" fill="white"/>
<path fill-rule="evenodd" clip-rule="evenodd" d="M125.987 66.8687L129.049 72.1733L130.436 71.3729L127.373 66.0683L130.802 64.0883L121.846 58.1095L122.359 68.9632L125.987 66.8687ZM120.817 57.5048L121.385 69.5504C121.409 70.0521 121.956 70.3507 122.391 70.0995L125.621 68.2347L128.348 72.9585C128.533 73.2793 128.943 73.3892 129.264 73.204L131.221 72.0742C131.542 71.889 131.651 71.4789 131.466 71.1582L128.739 66.4343L131.761 64.6893C132.192 64.4408 132.212 63.8268 131.798 63.5508L121.859 56.9155C121.401 56.61 120.791 56.9552 120.817 57.5048Z" fill="#969696"/>
</svg>
