<!--
 Copyright 2023-2025 Solace Systems. All rights reserved.

 Licensed under the Apache License, Version 2.0 (the "License");
 you may not use this file except in compliance with the License.
 You may obtain a copy of the License at

     http://www.apache.org/licenses/LICENSE-2.0

 Unless required by applicable law or agreed to in writing, software
 distributed under the License is distributed on an "AS IS" BASIS,
 WITHOUT WARRANTIES OR CONDITIONS OF ANY KIND, either express or implied.
 See the License for the specific language governing permissions and
 limitations under the License.
-->
<svg width="88" height="48" viewBox="0 0 88 48" fill="none" xmlns="http://www.w3.org/2000/svg">
<path d="M71.3221 15.2891H66.998C66.4457 15.2891 65.998 15.7368 65.998 16.2891V43.0204L72.295 16.5203C72.4443 15.8921 71.9679 15.2891 71.3221 15.2891Z" fill="white"/>
<path fill-rule="evenodd" clip-rule="evenodd" d="M65.498 16.2891C65.498 15.4606 66.1696 14.7891 66.998 14.7891H71.3221C72.2908 14.7891 73.0054 15.6935 72.7815 16.6359L66.4845 43.136C66.4258 43.3827 66.1917 43.5465 65.9398 43.517C65.6879 43.4874 65.498 43.274 65.498 43.0204V16.2891ZM66.998 15.7891C66.7219 15.7891 66.498 16.0129 66.498 16.2891V38.7534L71.8086 16.4047C71.8832 16.0906 71.645 15.7891 71.3221 15.7891H66.998Z" fill="#969696"/>
<path d="M37.3366 6.6961L42.3921 7.99671C43.1944 8.20311 43.6775 9.02083 43.4711 9.82314L42.4265 13.8835C42.2201 14.6858 41.4024 15.1688 40.6001 14.9624L35.5446 13.6618C34.7423 13.4554 34.2592 12.6377 34.4656 11.8354L35.5102 7.77507C35.7166 6.97277 36.5343 6.4897 37.3366 6.6961Z" fill="white"/>
<path fill-rule="evenodd" clip-rule="evenodd" d="M37.2122 7.18045C36.6773 7.04286 36.1322 7.3649 35.9946 7.89977L34.95 11.9601C34.8124 12.495 35.1344 13.0401 35.6693 13.1777L40.7248 14.4783C41.2597 14.6159 41.8048 14.2939 41.9424 13.7591L42.987 9.69869C43.1246 9.16382 42.8025 8.61867 42.2677 8.48107L37.2122 7.18045ZM35.0261 7.65062C35.3013 6.58089 36.3916 5.93679 37.4613 6.21199L42.5168 7.5126C43.5865 7.7878 44.2307 8.87808 43.9555 9.94783L42.9109 14.0082C42.6357 15.078 41.5454 15.722 40.4757 15.4468L35.4202 14.1462C34.3504 13.871 33.7063 12.7807 33.9815 11.711L35.0261 7.65062Z" fill="#969696"/>
<path d="M69.4393 22.9981L64.456 24.5527C63.6652 24.7995 63.2241 25.6406 63.4708 26.4314L64.7194 30.4337C64.9662 31.2246 65.8073 31.6657 66.5981 31.4189L71.5813 29.8643C72.3722 29.6176 72.8133 28.7765 72.5665 27.9856L71.3179 23.9833C71.0712 23.1925 70.2301 22.7514 69.4393 22.9981Z" fill="white"/>
<path fill-rule="evenodd" clip-rule="evenodd" d="M69.2905 22.521C70.3449 22.192 71.4664 22.7802 71.7953 23.8346L73.0439 27.8368C73.373 28.8914 72.7848 30.0129 71.7303 30.3418L66.7472 31.8964C65.6927 32.2255 64.5713 31.6373 64.2422 30.5828L62.9936 26.5805C62.6647 25.5261 63.2528 24.4046 64.3072 24.0756L69.2905 22.521ZM70.8407 24.1324C70.6763 23.6052 70.1155 23.3111 69.5883 23.4756L64.6051 25.0302C64.0779 25.1947 63.7838 25.7555 63.9482 26.2827M63.9482 26.2827L65.1968 30.2849C65.3614 30.8123 65.9222 31.1063 66.4493 30.9418L71.4325 29.3872C71.9598 29.2227 72.2539 28.662 72.0893 28.1347L70.8407 24.1324" fill="#969696"/>
<path d="M52.1172 14.7891C54.3026 14.7891 56.0743 13.0175 56.0743 10.8321C56.0743 8.64663 54.3026 6.875 52.1172 6.875C49.9318 6.875 48.1602 8.64663 48.1602 10.8321C48.1602 13.0175 49.9318 14.7891 52.1172 14.7891Z" fill="white"/>
<path fill-rule="evenodd" clip-rule="evenodd" d="M52.1172 7.375C50.2079 7.375 48.6602 8.92277 48.6602 10.8321C48.6602 12.7413 50.2079 14.2891 52.1172 14.2891C54.0265 14.2891 55.5743 12.7413 55.5743 10.8321C55.5743 8.92277 54.0265 7.375 52.1172 7.375ZM47.6602 10.8321C47.6602 8.37049 49.6556 6.375 52.1172 6.375C54.5788 6.375 56.5743 8.37049 56.5743 10.8321C56.5743 13.2936 54.5788 15.2891 52.1172 15.2891C49.6556 15.2891 47.6602 13.2936 47.6602 10.8321Z" fill="#969696"/>
<path d="M56.8522 12.5057C58.7751 13.021 60.7516 11.8798 61.2668 9.95694C61.7821 8.03404 60.6409 6.05754 58.718 5.5423C56.7951 5.02706 54.8186 6.16819 54.3034 8.09109C53.7881 10.014 54.9293 11.9905 56.8522 12.5057Z" fill="#305D74"/>
<path fill-rule="evenodd" clip-rule="evenodd" d="M58.5887 6.02826C56.9326 5.58449 55.2303 6.56733 54.7865 8.2235C54.3427 9.87967 55.3256 11.582 56.9817 12.0258C58.6379 12.4695 60.3402 11.4867 60.784 9.83053C61.2278 8.17436 60.2449 6.47203 58.5887 6.02826ZM53.8206 7.96468C54.4073 5.77505 56.6579 4.47561 58.8476 5.06232C61.0372 5.64903 62.3366 7.89971 61.7499 10.0893C61.1632 12.279 58.9125 13.5784 56.7229 12.9917C54.5333 12.405 53.2338 10.1543 53.8206 7.96468Z" fill="#305D74"/>
<path d="M66.6886 12.8233V41.9998C66.6886 42.8283 66.017 43.4998 65.1886 43.4998H16C15.1716 43.4998 14.5 42.8283 14.5 41.9998V8.20312C14.5 7.37471 15.1716 6.70312 16 6.70312H28.721C29.2242 6.70312 29.6938 6.95535 29.9716 7.37479L32.142 10.6516C32.4199 11.0711 32.8895 11.3233 33.3926 11.3233H65.1886C66.017 11.3233 66.6886 11.9949 66.6886 12.8233Z" fill="white"/>
<path fill-rule="evenodd" clip-rule="evenodd" d="M16 7.20312C15.4477 7.20312 15 7.65084 15 8.20312V41.9998C15 42.5521 15.4477 42.9998 16 42.9998H65.1886C65.7409 42.9998 66.1886 42.5521 66.1886 41.9998V12.8233C66.1886 12.271 65.7409 11.8233 65.1886 11.8233H33.3926C32.7218 11.8233 32.0957 11.487 31.7252 10.9277L29.5547 7.6509C29.3696 7.3713 29.0565 7.20312 28.721 7.20312H16ZM14 8.20312C14 7.09855 14.8955 6.20312 16 6.20312H28.721C29.3919 6.20312 30.018 6.53941 30.3885 7.09869L32.5588 10.3754C32.7441 10.6551 33.0572 10.8233 33.3926 10.8233H65.1886C66.2931 10.8233 67.1886 11.7187 67.1886 12.8233V41.9998C67.1886 43.1044 66.2931 43.9998 65.1886 43.9998H16C14.8955 43.9998 14 43.1044 14 41.9998V8.20312Z" fill="#969696"/>
<path d="M27.7294 9.41406H17.7402C17.4641 9.41406 17.2402 9.63792 17.2402 9.91406V11.1502C17.2402 11.4264 17.4641 11.6502 17.7402 11.6502H27.7294C28.0056 11.6502 28.2294 11.4264 28.2294 11.1502V9.91406C28.2294 9.63792 28.0056 9.41406 27.7294 9.41406Z" fill="white"/>
<path fill-rule="evenodd" clip-rule="evenodd" d="M16.7402 9.91406C16.7402 9.36178 17.1879 8.91406 17.7402 8.91406H27.7294C28.2817 8.91406 28.7294 9.36178 28.7294 9.91406V11.1502C28.7294 11.7025 28.2817 12.1502 27.7294 12.1502H17.7402C17.1879 12.1502 16.7402 11.7025 16.7402 11.1502V9.91406ZM27.7294 9.91406H17.7402V11.1502H27.7294V9.91406Z" fill="#969696"/>
</svg>
