<svg width="130" height="130" viewBox="0 0 130 130" fill="none" xmlns="http://www.w3.org/2000/svg">
<path opacity="0.1" d="M121 59.5C121 89.5995 96.5995 114 66.5 114C36.4005 114 12 89.5995 12 59.5C12 29.4005 36.4005 5 66.5 5C96.5995 5 121 29.4005 121 59.5Z" fill="#033D58"/>
<path d="M109.79 59.6311C109.79 82.6492 91.1297 101.309 68.1116 101.309C45.0935 101.309 26.4336 82.6492 26.4336 59.6311C26.4336 36.613 45.0935 17.9531 68.1116 17.9531C91.1297 17.9531 109.79 36.613 109.79 59.6311Z" fill="white"/>
<path fill-rule="evenodd" clip-rule="evenodd" d="M68.1116 99.3091C90.0251 99.3091 107.79 81.5447 107.79 59.6311C107.79 37.7176 90.0251 19.9531 68.1116 19.9531C46.198 19.9531 28.4336 37.7176 28.4336 59.6311C28.4336 81.5447 46.198 99.3091 68.1116 99.3091ZM68.1116 101.309C91.1297 101.309 109.79 82.6492 109.79 59.6311C109.79 36.613 91.1297 17.9531 68.1116 17.9531C45.0935 17.9531 26.4336 36.613 26.4336 59.6311C26.4336 82.6492 45.0935 101.309 68.1116 101.309Z" fill="#969696"/>
<path fill-rule="evenodd" clip-rule="evenodd" d="M92.8909 78.774C92.025 70.7457 88.659 60.8268 82.9588 50.9537C77.2586 41.0807 70.3515 33.2061 63.8318 28.4422C60.5707 26.0594 57.4458 24.4834 54.6498 23.7997C51.8606 23.1177 49.4607 23.3352 47.542 24.4429C45.6234 25.5506 44.2351 27.5203 43.4311 30.2768C42.6252 33.0401 42.4276 36.5343 42.8606 40.5499C43.7264 48.5781 47.0925 58.4971 52.7927 68.3701C58.4929 78.2432 65.3999 86.1178 71.9197 90.8817C75.1808 93.2645 78.3057 94.8405 81.1017 95.5241C83.8909 96.2061 86.2908 95.9887 88.2095 94.881C90.1281 93.7733 91.5164 91.8036 92.3203 89.047C93.1262 86.2838 93.3239 82.7896 92.8909 78.774ZM88.7095 95.747C97.5179 90.6615 95.3309 70.383 83.8248 50.4537C72.3186 30.5245 55.8504 18.4913 47.042 23.5769C38.2336 28.6624 40.4205 48.9409 51.9267 68.8701C63.4328 88.7994 79.901 100.833 88.7095 95.747Z" fill="#969696"/>
<path fill-rule="evenodd" clip-rule="evenodd" d="M93.5808 27.5607L27.8839 65.6026L27.3828 64.7372L93.0796 26.6953L93.5808 27.5607Z" fill="#969696"/>
<path fill-rule="evenodd" clip-rule="evenodd" d="M109.124 54.2717L43.4269 92.3135L42.9258 91.4481L108.623 53.4062L109.124 54.2717Z" fill="#969696"/>
<path fill-rule="evenodd" clip-rule="evenodd" d="M68.3945 127.434V108.555H70.3945V127.434H68.3945Z" fill="#969696"/>
<path fill-rule="evenodd" clip-rule="evenodd" d="M82.3442 128.436H56.0527V126.436H82.3442V128.436Z" fill="#969696"/>
<path fill-rule="evenodd" clip-rule="evenodd" d="M42.0945 12.3701L46.0003 19.2243L45.151 19.7246C39.8613 22.8404 35.2371 26.9677 31.5425 31.8706C27.8478 36.7736 25.1551 42.3562 23.618 48.2998C22.0809 54.2434 21.7295 60.4316 22.5839 66.511C23.4383 72.5904 25.4817 78.442 28.5976 83.7317C31.7135 89.0214 35.8407 93.6455 40.7436 97.3402C45.6466 101.035 51.2292 103.728 57.1728 105.265C63.1165 106.802 69.3046 107.153 75.384 106.299C81.4635 105.444 87.315 103.401 92.6047 100.285L93.4666 99.7774L96.9682 105.726L95.2447 106.74L92.7527 102.507C87.4672 105.476 81.6715 107.435 75.6624 108.279C69.3229 109.17 62.87 108.804 56.6721 107.201C50.4742 105.598 44.6527 102.79 39.54 98.9374C34.4273 95.0847 30.1235 90.2628 26.8743 84.7468C23.6252 79.2308 21.4943 73.1289 20.6033 66.7894C19.7124 60.4499 20.0788 53.9969 21.6817 47.7991C23.2846 41.6012 26.0925 35.7797 29.9452 30.667C33.6 25.8169 38.1271 21.6947 43.2915 18.5103L40.3569 13.3603L42.0945 12.3701Z" fill="#969696"/>
<path fill-rule="evenodd" clip-rule="evenodd" d="M73.8135 40.4985L74.7722 44.1879L72.8365 44.6909L72.7602 44.3974L72.645 44.5133L71.2259 43.104L73.8135 40.4985ZM65.8204 48.5472L68.5232 45.8256L69.9423 47.2349L67.2395 49.9565L65.8204 48.5472ZM75.8071 48.1709L76.8421 52.1539L74.9064 52.6569L73.8714 48.6739L75.8071 48.1709ZM60.4149 53.9903L63.1176 51.2687L64.5367 52.678L61.834 55.3996L60.4149 53.9903ZM77.8771 56.1369L78.912 60.1198L76.9763 60.6228L75.9413 56.6398L77.8771 56.1369ZM55.0094 59.4334L57.7121 56.7118L59.1312 58.1211L56.4285 60.8427L55.0094 59.4334ZM79.947 64.1028L80.9819 68.0858L79.0462 68.5888L78.0113 64.6058L79.947 64.1028ZM49.6038 64.8765L52.3066 62.1549L53.7257 63.5642L51.0229 66.2858L49.6038 64.8765ZM82.0169 72.0688L82.9077 75.497L79.2293 75.0127L79.4903 73.0298L80.2253 73.1266L80.0812 72.5718L82.0169 72.0688ZM46.9011 67.598L48.2259 68.9138L48.5965 68.9625L48.3354 70.9454L44.127 70.3914L46.9011 67.598ZM57.1622 72.1075L52.7488 71.5265L53.0099 69.5436L57.4233 70.1246L57.1622 72.1075ZM65.989 73.2696L61.5756 72.6885L61.8367 70.7056L66.2501 71.2867L65.989 73.2696ZM74.8159 74.4316L70.4025 73.8506L70.6635 71.8677L75.0769 72.4488L74.8159 74.4316Z" fill="#969696"/>
<path d="M94.9132 75.9611C94.9132 81.4916 90.2447 85.9749 84.4859 85.9749C78.7271 85.9749 74.0586 81.4916 74.0586 75.9611C74.0586 70.4306 78.7271 65.9473 84.4859 65.9473C90.2447 65.9473 94.9132 70.4306 94.9132 75.9611Z" fill="white"/>
<path fill-rule="evenodd" clip-rule="evenodd" d="M84.4859 83.9749C89.2172 83.9749 92.9132 80.3115 92.9132 75.9611C92.9132 71.6107 89.2172 67.9473 84.4859 67.9473C79.7546 67.9473 76.0586 71.6107 76.0586 75.9611C76.0586 80.3115 79.7546 83.9749 84.4859 83.9749ZM84.4859 85.9749C90.2447 85.9749 94.9132 81.4916 94.9132 75.9611C94.9132 70.4306 90.2447 65.9473 84.4859 65.9473C78.7271 65.9473 74.0586 70.4306 74.0586 75.9611C74.0586 81.4916 78.7271 85.9749 84.4859 85.9749Z" fill="#969696"/>
<path d="M77.9608 39.0346C77.9608 41.8885 75.5518 44.2021 72.58 44.2021C69.6083 44.2021 67.1992 41.8885 67.1992 39.0346C67.1992 36.1807 69.6083 33.8672 72.58 33.8672C75.5518 33.8672 77.9608 36.1807 77.9608 39.0346Z" fill="white"/>
<path fill-rule="evenodd" clip-rule="evenodd" d="M72.58 42.2021C74.5242 42.2021 75.9608 40.7085 75.9608 39.0346C75.9608 37.3608 74.5242 35.8672 72.58 35.8672C70.6358 35.8672 69.1992 37.3608 69.1992 39.0346C69.1992 40.7085 70.6358 42.2021 72.58 42.2021ZM72.58 44.2021C75.5518 44.2021 77.9608 41.8885 77.9608 39.0346C77.9608 36.1807 75.5518 33.8672 72.58 33.8672C69.6083 33.8672 67.1992 36.1807 67.1992 39.0346C67.1992 41.8885 69.6083 44.2021 72.58 44.2021Z" fill="#969696"/>
<path d="M52.8186 69.6649C52.8186 73.143 49.8826 75.9626 46.2609 75.9626C42.6391 75.9626 39.7031 73.143 39.7031 69.6649C39.7031 66.1868 42.6391 63.3672 46.2609 63.3672C49.8826 63.3672 52.8186 66.1868 52.8186 69.6649Z" fill="white"/>
<path fill-rule="evenodd" clip-rule="evenodd" d="M46.2609 73.9626C48.8551 73.9626 50.8186 71.963 50.8186 69.6649C50.8186 67.3668 48.8551 65.3672 46.2609 65.3672C43.6667 65.3672 41.7031 67.3668 41.7031 69.6649C41.7031 71.963 43.6667 73.9626 46.2609 73.9626ZM46.2609 75.9626C49.8826 75.9626 52.8186 73.143 52.8186 69.6649C52.8186 66.1868 49.8826 63.3672 46.2609 63.3672C42.6391 63.3672 39.7031 66.1868 39.7031 69.6649C39.7031 73.143 42.6391 75.9626 46.2609 75.9626Z" fill="#969696"/>
</svg>
