<?xml version="1.0" encoding="utf-8"?>
<!--
  Copyright 2023-2025 Solace Systems. All rights reserved.

  Licensed under the Apache License, Version 2.0 (the "License");
  you may not use this file except in compliance with the License.
  You may obtain a copy of the License at

      http://www.apache.org/licenses/LICENSE-2.0

  Unless required by applicable law or agreed to in writing, software
  distributed under the License is distributed on an "AS IS" BASIS,
  WITHOUT WARRANTIES OR CONDITIONS OF ANY KIND, either express or implied.
  See the License for the specific language governing permissions and
  limitations under the License.
-->
<svg width="131" height="131" viewBox="0 0 131 131" fill="none" xmlns="http://www.w3.org/2000/svg">
<path opacity="0.1" d="M119.313 65.3872C119.313 95.4867 94.912 119.887 64.8125 119.887C34.7129 119.887 10.3125 95.4867 10.3125 65.3872C10.3125 35.2877 34.7129 10.8872 64.8125 10.8872C94.912 10.8872 119.313 35.2877 119.313 65.3872Z" fill="#033D58"/>
<path d="M9.51758 42.6221C9.51758 39.5443 12.0126 37.0493 15.0903 37.0493H115.721C118.799 37.0493 121.294 39.5443 121.294 42.6221V104.115H9.51758V42.6221Z" fill="white"/>
<path fill-rule="evenodd" clip-rule="evenodd" d="M115.721 39.0493H15.0903C13.1171 39.0493 11.5175 40.6489 11.5175 42.6221V102.115H119.294V42.6221C119.294 40.6489 117.694 39.0493 115.721 39.0493ZM15.0903 37.0493C12.0126 37.0493 9.51758 39.5443 9.51758 42.6221V104.115H121.294V42.6221C121.294 39.5443 118.799 37.0493 115.721 37.0493H15.0903Z" fill="#969696"/>
<path fill-rule="evenodd" clip-rule="evenodd" d="M15.4219 46.1011C15.6981 46.1011 15.9219 46.3249 15.9219 46.6011V94.2702C15.9219 94.5463 15.6981 94.7702 15.4219 94.7702C15.1458 94.7702 14.9219 94.5463 14.9219 94.2702V46.6011C14.9219 46.3249 15.1458 46.1011 15.4219 46.1011Z" fill="#969696"/>
<path fill-rule="evenodd" clip-rule="evenodd" d="M114.863 44.9087C115.139 44.9087 115.363 45.1325 115.363 45.4087V94.0312C115.363 94.3073 115.139 94.5312 114.863 94.5312C114.587 94.5312 114.363 94.3073 114.363 94.0312V45.4087C114.363 45.1325 114.587 44.9087 114.863 44.9087Z" fill="#969696"/>
<path d="M74.2314 46.3447H60.2513C59.8666 46.3447 59.5547 46.6566 59.5547 47.0413V50.9615C59.5547 51.3462 59.8666 51.6581 60.2513 51.6581H74.2314C74.6161 51.6581 74.928 51.3462 74.928 50.9615V47.0413C74.928 46.6566 74.6161 46.3447 74.2314 46.3447Z" fill="white" stroke="#969696" stroke-width="1.3932"/>
<path d="M5.57227 103.068C5.57227 101.529 6.81979 100.282 8.35867 100.282H122.455C123.994 100.282 125.242 101.529 125.242 103.068V105.854C125.242 107.393 123.994 108.641 122.455 108.641H8.35868C6.81979 108.641 5.57227 107.393 5.57227 105.854V103.068Z" fill="white"/>
<path fill-rule="evenodd" clip-rule="evenodd" d="M122.455 102.282H8.35867C7.92435 102.282 7.57227 102.634 7.57227 103.068V105.854C7.57227 106.289 7.92435 106.641 8.35868 106.641H122.455C122.89 106.641 123.242 106.289 123.242 105.854V103.068C123.242 102.634 122.89 102.282 122.455 102.282ZM8.35867 100.282C6.81979 100.282 5.57227 101.529 5.57227 103.068V105.854C5.57227 107.393 6.81979 108.641 8.35868 108.641H122.455C123.994 108.641 125.242 107.393 125.242 105.854V103.068C125.242 101.529 123.994 100.282 122.455 100.282H8.35867Z" fill="#969696"/>
<path fill-rule="evenodd" clip-rule="evenodd" d="M62.6125 20.1989C63.3067 20.1606 64.0059 20.1411 64.7096 20.1411C65.4132 20.1411 66.1124 20.1606 66.8066 20.1989C67.0823 20.2142 67.2935 20.4501 67.2782 20.7258C67.263 21.0015 67.0271 21.2127 66.7514 21.1974C66.0756 21.16 65.3948 21.1411 64.7096 21.1411C64.0243 21.1411 63.3435 21.16 62.6677 21.1974C62.392 21.2127 62.1561 21.0015 62.1409 20.7258C62.1257 20.4501 62.3368 20.2142 62.6125 20.1989ZM59.0207 21.0737C59.0667 21.3459 58.8832 21.6039 58.6109 21.6499C57.2577 21.8782 55.9299 22.1812 54.6319 22.5545C54.3665 22.6309 54.0895 22.4776 54.0132 22.2122C53.9369 21.9469 54.0901 21.6698 54.3555 21.5935C55.6895 21.2098 57.054 20.8984 58.4445 20.6638C58.7168 20.6179 58.9748 20.8014 59.0207 21.0737ZM70.3984 21.0737C70.4443 20.8014 70.7023 20.6179 70.9746 20.6638C72.3652 20.8984 73.7297 21.2098 75.0636 21.5935C75.329 21.6698 75.4822 21.9469 75.4059 22.2122C75.3296 22.4776 75.0526 22.6309 74.7872 22.5545C73.4892 22.1812 72.1614 21.8782 70.8082 21.6499C70.536 21.6039 70.3525 21.3459 70.3984 21.0737ZM78.3677 23.2486C78.4735 22.9935 78.766 22.8725 79.0211 22.9783C80.3185 23.5163 81.579 24.1252 82.7978 24.8003C83.0394 24.9341 83.1268 25.2383 82.993 25.4799C82.8592 25.7215 82.5549 25.8088 82.3133 25.6751C81.1272 25.0181 79.9005 24.4255 78.638 23.902C78.3829 23.7962 78.2619 23.5037 78.3677 23.2486ZM51.0514 23.2486C51.1572 23.5037 51.0362 23.7962 50.7811 23.902C49.5186 24.4255 48.2919 25.0181 47.1058 25.6751C46.8642 25.8089 46.5599 25.7215 46.4261 25.4799C46.2923 25.2384 46.3797 24.9341 46.6213 24.8003C47.8401 24.1252 49.1006 23.5163 50.398 22.9783C50.6531 22.8725 50.9457 22.9935 51.0514 23.2486ZM85.649 27.1523C85.809 26.9272 86.1212 26.8744 86.3463 27.0344C87.4876 27.8457 88.5814 28.7194 89.6226 29.6506C89.8285 29.8346 89.8461 30.1507 89.662 30.3566C89.478 30.5624 89.1619 30.58 88.956 30.396C87.9424 29.4896 86.8778 28.6391 85.7669 27.8495C85.5418 27.6895 85.4891 27.3774 85.649 27.1523ZM43.7701 27.1523C43.93 27.3774 43.8773 27.6895 43.6522 27.8495C42.5413 28.6391 41.4767 29.4896 40.4631 30.396C40.2572 30.5801 39.9411 30.5624 39.7571 30.3566C39.573 30.1507 39.5906 29.8346 39.7965 29.6506C40.8378 28.7194 41.9315 27.8457 43.0728 27.0344C43.2979 26.8744 43.6101 26.9272 43.7701 27.1523ZM91.8813 32.5759C92.0872 32.3918 92.4033 32.4094 92.5873 32.6153C93.5185 33.6565 94.3922 34.7503 95.2035 35.8916C95.3635 36.1167 95.3107 36.4289 95.0856 36.5888C94.8605 36.7488 94.5484 36.6961 94.3884 36.471C93.5988 35.3601 92.7483 34.2955 91.8419 33.2819C91.6578 33.076 91.6755 32.7599 91.8813 32.5759ZM37.5378 32.5759C37.7436 32.7599 37.7613 33.076 37.5772 33.2819C36.6708 34.2955 35.8203 35.3601 35.0307 36.471C34.8707 36.6961 34.5586 36.7488 34.3335 36.5889C34.1084 36.4289 34.0557 36.1167 34.2156 35.8916C35.0269 34.7503 35.9006 33.6565 36.8318 32.6153C37.0158 32.4094 37.3319 32.3918 37.5378 32.5759ZM96.758 39.2449C96.9995 39.1111 97.3038 39.1985 97.4376 39.4401C98.1127 40.6589 98.7216 41.9194 99.2596 43.2168C99.3654 43.4719 99.2444 43.7644 98.9893 43.8702C98.7342 43.976 98.4417 43.855 98.3359 43.5999C97.8124 42.3374 97.2198 41.1107 96.5628 39.9246C96.429 39.683 96.5164 39.3787 96.758 39.2449ZM32.6611 39.2449C32.9027 39.3787 32.9901 39.683 32.8563 39.9246C32.1993 41.1107 31.6067 42.3374 31.0832 43.5999C30.9774 43.855 30.6849 43.976 30.4298 43.8702C30.1747 43.7644 30.0537 43.4719 30.1595 43.2168C30.6975 41.9194 31.3065 40.6589 31.9815 39.4401C32.1153 39.1985 32.4196 39.1111 32.6611 39.2449ZM29.3935 46.832C29.6588 46.9083 29.8121 47.1853 29.7358 47.4507C29.3624 48.7487 29.0594 50.0764 28.8311 51.4296C28.7851 51.7019 28.5272 51.8854 28.2549 51.8395C27.9826 51.7935 27.7991 51.5356 27.845 51.2633C28.0797 49.8727 28.3911 48.5082 28.7747 47.1743C28.8511 46.9089 29.1281 46.7557 29.3935 46.832ZM100.025 46.832C100.291 46.7557 100.568 46.9089 100.644 47.1743C101.028 48.5082 101.339 49.8727 101.574 51.2633C101.62 51.5356 101.436 51.7935 101.164 51.8395C100.892 51.8854 100.634 51.7019 100.588 51.4296C100.359 50.0765 100.056 48.7487 99.6833 47.4507C99.607 47.1853 99.7603 46.9083 100.025 46.832ZM27.907 54.9597C28.1827 54.9749 28.3939 55.2108 28.3786 55.4865C28.3413 56.1623 28.3223 56.8431 28.3223 57.5283C28.3223 58.2136 28.3413 58.8943 28.3786 59.5701C28.3939 59.8459 28.1827 60.0817 27.907 60.097C27.6313 60.1122 27.3954 59.9011 27.3802 59.6254C27.3418 58.9312 27.3223 58.232 27.3223 57.5283C27.3223 56.8247 27.3418 56.1255 27.3802 55.4313C27.3954 55.1556 27.6313 54.9444 27.907 54.9597ZM101.512 54.9597C101.788 54.9444 102.023 55.1556 102.039 55.4313C102.077 56.1255 102.096 56.8247 102.096 57.5283C102.096 58.232 102.077 58.9312 102.039 59.6254C102.023 59.9011 101.788 60.1122 101.512 60.097C101.236 60.0817 101.025 59.8459 101.04 59.5702C101.078 58.8943 101.096 58.2136 101.096 57.5283C101.096 56.8431 101.078 56.1623 101.04 55.4865C101.025 55.2108 101.236 54.9749 101.512 54.9597ZM28.2549 63.2172C28.5272 63.1712 28.7851 63.3547 28.8311 63.627C29.0594 64.9802 29.3624 66.308 29.7358 67.606C29.8121 67.8714 29.6588 68.1484 29.3935 68.2247C29.1281 68.301 28.8511 68.1478 28.7747 67.8824C28.3911 66.5484 28.0797 65.1839 27.845 63.7934C27.7991 63.5211 27.9826 63.2631 28.2549 63.2172ZM101.164 63.2172C101.436 63.2631 101.62 63.5211 101.574 63.7934C101.339 65.1839 101.028 66.5484 100.644 67.8824C100.568 68.1478 100.291 68.301 100.025 68.2247C99.7603 68.1484 99.607 67.8714 99.6833 67.606C100.056 66.308 100.359 64.9802 100.588 63.627C100.634 63.3547 100.892 63.1712 101.164 63.2172ZM98.9893 71.1865C99.2444 71.2922 99.3654 71.5848 99.2596 71.8398C98.7216 73.1373 98.1127 74.3978 97.4376 75.6166C97.3038 75.8582 96.9996 75.9455 96.758 75.8118C96.5164 75.678 96.429 75.3737 96.5628 75.1321C97.2198 73.946 97.8124 72.7193 98.3359 71.4568C98.4417 71.2017 98.7342 71.0807 98.9893 71.1865ZM30.4298 71.1865C30.6849 71.0807 30.9774 71.2017 31.0832 71.4568C31.6067 72.7193 32.1993 73.946 32.8563 75.1321C32.9901 75.3737 32.9027 75.678 32.6611 75.8118C32.4196 75.9455 32.1153 75.8582 31.9815 75.6166C31.3065 74.3978 30.6975 73.1373 30.1595 71.8399C30.0537 71.5848 30.1747 71.2922 30.4298 71.1865ZM95.0856 78.4678C95.3107 78.6278 95.3635 78.94 95.2035 79.165C94.3922 80.3064 93.5185 81.4001 92.5873 82.4414C92.4033 82.6473 92.0872 82.6649 91.8813 82.4808C91.6755 82.2967 91.6578 81.9807 91.8419 81.7748C92.7483 80.7612 93.5988 79.6966 94.3884 78.5857C94.5484 78.3606 94.8605 78.3078 95.0856 78.4678ZM34.3335 78.4678C34.5586 78.3079 34.8707 78.3606 35.0307 78.5857C35.8203 79.6966 36.6708 80.7612 37.5772 81.7748C37.7613 81.9807 37.7436 82.2967 37.5378 82.4808C37.3319 82.6649 37.0158 82.6473 36.8318 82.4414C35.9006 81.4001 35.0269 80.3064 34.2156 79.1651C34.0557 78.94 34.1084 78.6278 34.3335 78.4678ZM89.662 84.7001C89.8461 84.906 89.8285 85.222 89.6226 85.4061C88.5814 86.3373 87.4876 87.211 86.3463 88.0222C86.1212 88.1822 85.809 88.1295 85.6491 87.9044C85.4891 87.6793 85.5418 87.3672 85.7669 87.2072C86.8778 86.4176 87.9424 85.5671 88.956 84.6607C89.1619 84.4766 89.478 84.4943 89.662 84.7001ZM39.7571 84.7001C39.9412 84.4943 40.2572 84.4766 40.4631 84.6607C41.4767 85.5671 42.5413 86.4176 43.6522 87.2072C43.8773 87.3672 43.9301 87.6793 43.7701 87.9044C43.6101 88.1295 43.2979 88.1822 43.0728 88.0223C41.9315 87.211 40.8378 86.3373 39.7965 85.4061C39.5906 85.2221 39.573 84.906 39.7571 84.7001ZM46.4261 89.5768C46.5599 89.3352 46.8642 89.2478 47.1058 89.3816C48.2919 90.0386 49.5186 90.6311 50.7811 91.1547C51.0362 91.2605 51.1572 91.553 51.0514 91.8081C50.9457 92.0632 50.6531 92.1842 50.398 92.0784C49.1006 91.5404 47.8401 90.9314 46.6213 90.2564C46.3797 90.1226 46.2924 89.8183 46.4261 89.5768ZM82.993 89.5768C83.1268 89.8183 83.0394 90.1226 82.7978 90.2564C81.579 90.9314 80.3185 91.5404 79.0211 92.0784C78.766 92.1842 78.4735 92.0632 78.3677 91.8081C78.2619 91.553 78.3829 91.2605 78.638 91.1547C79.9005 90.6311 81.1272 90.0386 82.3133 89.3816C82.5549 89.2478 82.8592 89.3352 82.993 89.5768ZM54.0132 92.8444C54.0895 92.5791 54.3665 92.4258 54.6319 92.5021C55.9299 92.8755 57.2577 93.1785 58.6109 93.4068C58.8832 93.4527 59.0666 93.7107 59.0207 93.983C58.9748 94.2553 58.7168 94.4388 58.4445 94.3929C57.054 94.1582 55.6895 93.8468 54.3555 93.4632C54.0901 93.3868 53.9369 93.1098 54.0132 92.8444ZM75.4059 92.8444C75.4822 93.1098 75.329 93.3868 75.0636 93.4632C73.7297 93.8468 72.3652 94.1582 70.9746 94.3929C70.7023 94.4388 70.4443 94.2553 70.3984 93.983C70.3525 93.7107 70.536 93.4528 70.8082 93.4068C72.1614 93.1785 73.4892 92.8755 74.7872 92.5021C75.0526 92.4258 75.3296 92.5791 75.4059 92.8444ZM62.1409 94.3309C62.1561 94.0552 62.392 93.844 62.6677 93.8593C63.3435 93.8966 64.0243 93.9156 64.7096 93.9156C65.3948 93.9156 66.0756 93.8966 66.7514 93.8593C67.0271 93.844 67.263 94.0552 67.2782 94.3309C67.2935 94.6066 67.0823 94.8425 66.8066 94.8577C66.1124 94.8961 65.4132 94.9156 64.7096 94.9156C64.0059 94.9156 63.3067 94.8961 62.6125 94.8577C62.3368 94.8425 62.1257 94.6066 62.1409 94.3309Z" fill="#969696"/>
<path d="M64.7109 84.5273C79.6226 84.5273 91.7109 72.439 91.7109 57.5273C91.7109 42.6157 79.6226 30.5273 64.7109 30.5273C49.7992 30.5273 37.7109 42.6157 37.7109 57.5273C37.7109 72.439 49.7992 84.5273 64.7109 84.5273Z" fill="white"/>
<path fill-rule="evenodd" clip-rule="evenodd" d="M64.7109 31.5273C50.3515 31.5273 38.7109 43.1679 38.7109 57.5273C38.7109 71.8867 50.3515 83.5273 64.7109 83.5273C79.0703 83.5273 90.7109 71.8867 90.7109 57.5273C90.7109 43.1679 79.0703 31.5273 64.7109 31.5273ZM36.7109 57.5273C36.7109 42.0634 49.2469 29.5273 64.7109 29.5273C80.1748 29.5273 92.7109 42.0634 92.7109 57.5273C92.7109 72.9913 80.1748 85.5273 64.7109 85.5273C49.2469 85.5273 36.7109 72.9913 36.7109 57.5273Z" fill="#969696"/>
<path fill-rule="evenodd" clip-rule="evenodd" d="M49.513 43.5482C49.3634 48.8538 50.7346 55.5356 53.6851 62.3213C56.6356 69.1069 60.5872 74.6668 64.5695 78.1758C68.5847 81.7139 72.4778 83.0467 75.3999 81.7761C78.3221 80.5055 80.0024 76.7493 80.1532 71.3998C80.3028 66.0942 78.9316 59.4123 75.9811 52.6267C73.0306 45.841 69.079 40.2812 65.0967 36.7722C61.0814 33.2341 57.1884 31.9013 54.2662 33.1719C51.3441 34.4425 49.6638 38.1986 49.513 43.5482ZM48.5134 43.52C48.6667 38.0815 50.3796 33.7714 53.8675 32.2548C57.3554 30.7382 61.6758 32.425 65.7578 36.0219C69.8729 39.6479 73.9026 45.3387 76.8982 52.2279C79.8937 59.1172 81.3074 65.9454 81.1528 71.4279C80.9995 76.8665 79.2866 81.1765 75.7987 82.6931C72.3108 84.2097 67.9904 82.523 63.9083 78.9261C59.7933 75.3 55.7636 69.6093 52.768 62.72C49.7725 55.8308 48.3588 49.0026 48.5134 43.52Z" fill="#969696"/>
<path fill-rule="evenodd" clip-rule="evenodd" d="M37.0728 58.6972C36.9627 58.444 37.0787 58.1494 37.332 58.0393L83.7581 37.8526C84.0114 37.7425 84.3059 37.8585 84.416 38.1118C84.5262 38.365 84.4101 38.6596 84.1569 38.7697L37.7307 58.9563C37.4775 59.0665 37.1829 58.9504 37.0728 58.6972Z" fill="#969696"/>
<path fill-rule="evenodd" clip-rule="evenodd" d="M45.0064 76.9418C44.8963 76.6886 45.0123 76.394 45.2656 76.2839L91.6917 56.0972C91.945 55.9871 92.2395 56.1032 92.3497 56.3564C92.4598 56.6096 92.3437 56.9042 92.0905 57.0143L45.6643 77.201C45.4111 77.3111 45.1165 77.1951 45.0064 76.9418Z" fill="#969696"/>
<path d="M30.5859 82.9666C30.5859 81.4277 31.8334 80.1802 33.3723 80.1802H42.2063C43.7452 80.1802 44.9927 81.4277 44.9927 82.9666V90.3599C44.9927 91.8988 43.7452 93.1463 42.2063 93.1463H33.3723C31.8334 93.1463 30.5859 91.8988 30.5859 90.3599V82.9666Z" fill="white"/>
<path fill-rule="evenodd" clip-rule="evenodd" d="M42.2063 82.1802H33.3723C32.938 82.1802 32.5859 82.5323 32.5859 82.9666V90.3599C32.5859 90.7943 32.938 91.1463 33.3723 91.1463H42.2063C42.6406 91.1463 42.9927 90.7942 42.9927 90.3599V82.9666C42.9927 82.5322 42.6406 82.1802 42.2063 82.1802ZM33.3723 80.1802C31.8334 80.1802 30.5859 81.4277 30.5859 82.9666V90.3599C30.5859 91.8988 31.8334 93.1463 33.3723 93.1463H42.2063C43.7452 93.1463 44.9927 91.8988 44.9927 90.3599V82.9666C44.9927 81.4277 43.7452 80.1802 42.2063 80.1802H33.3723Z" fill="#969696"/>
<path d="M40.0949 36.8175C40.0949 40.6898 36.9558 43.8288 33.0836 43.8288C29.2114 43.8288 26.0723 40.6898 26.0723 36.8175C26.0723 32.9453 29.2114 29.8062 33.0836 29.8062C36.9558 29.8062 40.0949 32.9453 40.0949 36.8175Z" fill="white"/>
<path fill-rule="evenodd" clip-rule="evenodd" d="M33.0836 41.8288C35.8513 41.8288 38.0949 39.5852 38.0949 36.8175C38.0949 34.0499 35.8513 31.8062 33.0836 31.8062C30.316 31.8062 28.0723 34.0499 28.0723 36.8175C28.0723 39.5852 30.316 41.8288 33.0836 41.8288ZM33.0836 43.8288C36.9558 43.8288 40.0949 40.6898 40.0949 36.8175C40.0949 32.9453 36.9558 29.8062 33.0836 29.8062C29.2114 29.8062 26.0723 32.9453 26.0723 36.8175C26.0723 40.6898 29.2114 43.8288 33.0836 43.8288Z" fill="white"/>
<path fill-rule="evenodd" clip-rule="evenodd" d="M33.0836 41.8288C35.8513 41.8288 38.0949 39.5852 38.0949 36.8175C38.0949 34.0499 35.8513 31.8062 33.0836 31.8062C30.316 31.8062 28.0723 34.0499 28.0723 36.8175C28.0723 39.5852 30.316 41.8288 33.0836 41.8288ZM33.0836 43.8288C36.9558 43.8288 40.0949 40.6898 40.0949 36.8175C40.0949 32.9453 36.9558 29.8062 33.0836 29.8062C29.2114 29.8062 26.0723 32.9453 26.0723 36.8175C26.0723 40.6898 29.2114 43.8288 33.0836 43.8288Z" fill="#969696"/>
<path d="M104.809 73.6491C103.521 72.4635 101.973 71.555 100.261 71.018C99.3823 72.0238 98.0901 72.6592 96.6496 72.6592C95.2086 72.6592 93.9161 72.0234 93.0373 71.0171C91.3252 71.5537 89.7774 72.4618 88.4885 73.647C88.9193 74.9104 88.8231 76.3462 88.1033 77.5931C87.383 78.8406 86.1867 79.6419 84.8764 79.9001C84.6887 80.7452 84.5898 81.6236 84.5898 82.5251C84.5898 83.4276 84.6889 84.3068 84.8769 85.1527C86.1869 85.4111 87.3827 86.2123 88.1027 87.4595C88.8222 88.7056 88.9186 90.1405 88.4886 91.4034C89.7781 92.5891 91.3266 93.4974 93.0395 94.0339C93.9183 93.0291 95.2098 92.3944 96.6496 92.3944C98.0889 92.3944 99.3801 93.0287 100.259 94.033C101.971 93.4962 103.519 92.5878 104.808 91.4024C104.38 90.1407 104.477 88.708 105.196 87.4636C105.915 86.2177 107.109 85.4168 108.418 85.1575C108.606 84.3102 108.706 83.4293 108.706 82.5251C108.706 81.6237 108.607 80.7453 108.419 79.9003C107.11 79.6416 105.915 78.8405 105.195 77.5938C104.476 76.3474 104.379 74.9122 104.809 73.6491Z" fill="white"/>
<path fill-rule="evenodd" clip-rule="evenodd" d="M102.598 74.4148C102.011 73.9835 101.376 73.6146 100.703 73.3177C99.5722 74.1592 98.1686 74.6592 96.6496 74.6592C95.1299 74.6592 93.7257 74.1588 92.5947 73.3167C91.9219 73.6134 91.2872 73.9819 90.7004 74.4129C90.8636 75.8127 90.5947 77.2779 89.8353 78.5931C89.0761 79.9081 87.9419 80.8735 86.6483 81.4321C86.6097 81.7906 86.5898 82.1553 86.5898 82.5251C86.5898 82.8959 86.6098 83.2614 86.6486 83.6208C87.9418 84.1795 89.0757 85.1447 89.8348 86.4595C90.5937 87.774 90.8627 89.2381 90.7002 90.6371C91.2878 91.0688 91.9235 91.4379 92.5975 91.7348C93.728 90.8939 95.1311 90.3944 96.6496 90.3944C98.1674 90.3944 99.5699 90.8935 100.701 91.7338C101.374 91.4366 102.01 91.0674 102.598 90.6355C102.437 89.2382 102.706 87.7762 103.464 86.4636C104.222 85.15 105.355 84.1853 106.646 83.6264C106.686 83.2652 106.706 82.8978 106.706 82.5251C106.706 82.1551 106.686 81.7903 106.647 81.4317C105.355 80.8729 104.222 79.9079 103.463 78.5938C102.704 77.2789 102.435 75.8142 102.598 74.4148ZM108.419 79.9003C108.607 80.7453 108.706 81.6237 108.706 82.5251C108.706 83.4293 108.606 84.3102 108.418 85.1575C107.109 85.4168 105.915 86.2177 105.196 87.4636C104.477 88.708 104.38 90.1407 104.808 91.4024C103.519 92.5878 101.971 93.4962 100.259 94.033C99.3801 93.0287 98.0889 92.3944 96.6496 92.3944C95.2098 92.3944 93.9183 93.0291 93.0395 94.0339C91.3266 93.4974 89.7781 92.5891 88.4886 91.4034C88.9186 90.1405 88.8222 88.7056 88.1027 87.4595C87.3827 86.2123 86.1869 85.4111 84.8769 85.1527C84.6889 84.3068 84.5898 83.4276 84.5898 82.5251C84.5898 81.6236 84.6887 80.7452 84.8764 79.9001C86.1867 79.6419 87.383 78.8406 88.1033 77.5931C88.8231 76.3462 88.9193 74.9104 88.4885 73.647C89.7774 72.4618 91.3252 71.5537 93.0373 71.0171C93.9161 72.0234 95.2086 72.6592 96.6496 72.6592C98.0901 72.6592 99.3823 72.0238 100.261 71.018C101.973 71.555 103.521 72.4635 104.809 73.6491C104.379 74.9122 104.476 76.3474 105.195 77.5938C105.915 78.8405 107.11 79.6416 108.419 79.9003Z" fill="#969696"/>
<path d="M96.647 86.6697C98.9363 86.6697 100.792 84.8138 100.792 82.5245C100.792 80.2352 98.9363 78.3794 96.647 78.3794C94.3577 78.3794 92.502 80.2352 92.502 82.5245C92.502 84.8138 94.3577 86.6697 96.647 86.6697Z" fill="white" stroke="#969696" stroke-width="2"/>
</svg>