<?xml version="1.0" encoding="utf-8"?>
<!--
  Copyright 2023-2025 Solace Systems. All rights reserved.

  Licensed under the Apache License, Version 2.0 (the "License");
  you may not use this file except in compliance with the License.
  You may obtain a copy of the License at

      http://www.apache.org/licenses/LICENSE-2.0

  Unless required by applicable law or agreed to in writing, software
  distributed under the License is distributed on an "AS IS" BASIS,
  WITHOUT WARRANTIES OR CONDITIONS OF ANY KIND, either express or implied.
  See the License for the specific language governing permissions and
  limitations under the License.
-->
<svg width="130" height="130" viewBox="0 0 130 130" fill="none" xmlns="http://www.w3.org/2000/svg">
<path opacity="0.1" d="M118.74 64.5C118.74 94.5995 94.3398 119 64.2402 119C34.1407 119 9.74023 94.5995 9.74023 64.5C9.74023 34.4005 34.1407 10 64.2402 10C94.3398 10 118.74 34.4005 118.74 64.5Z" fill="#033D58"/>
<path d="M8.94531 41.7349C8.94531 38.6571 11.4403 36.1621 14.5181 36.1621H115.149C118.227 36.1621 120.722 38.6571 120.722 41.7349V103.228H8.94531V41.7349Z" fill="white"/>
<path fill-rule="evenodd" clip-rule="evenodd" d="M115.149 38.1621H14.5181C12.5449 38.1621 10.9453 39.7617 10.9453 41.7349V101.228H118.722V41.7349C118.722 39.7617 117.123 38.1621 115.149 38.1621ZM14.5181 36.1621C11.4403 36.1621 8.94531 38.6571 8.94531 41.7349V103.228H120.722V41.7349C120.722 38.6571 118.227 36.1621 115.149 36.1621H14.5181Z" fill="#969696"/>
<path fill-rule="evenodd" clip-rule="evenodd" d="M14.8516 45.2139C15.1277 45.2139 15.3516 45.4377 15.3516 45.7139V93.383C15.3516 93.6591 15.1277 93.883 14.8516 93.883C14.5754 93.883 14.3516 93.6591 14.3516 93.383V45.7139C14.3516 45.4377 14.5754 45.2139 14.8516 45.2139Z" fill="#969696"/>
<path fill-rule="evenodd" clip-rule="evenodd" d="M114.293 44.0215C114.57 44.0215 114.793 44.2453 114.793 44.5215V93.144C114.793 93.4201 114.57 93.644 114.293 93.644C114.017 93.644 113.793 93.4201 113.793 93.144V44.5215C113.793 44.2453 114.017 44.0215 114.293 44.0215Z" fill="#969696"/>
<path d="M73.6611 45.4573H59.681C59.2963 45.4573 58.9844 45.7692 58.9844 46.1539V50.0741C58.9844 50.4588 59.2963 50.7707 59.681 50.7707H73.6611C74.0458 50.7707 74.3577 50.4588 74.3577 50.0741V46.1539C74.3577 45.7692 74.0458 45.4573 73.6611 45.4573Z" fill="white" stroke="#969696" stroke-width="1.3932"/>
<path d="M5 102.181C5 100.642 6.24751 99.3945 7.7864 99.3945H121.883C123.422 99.3945 124.669 100.642 124.669 102.181V104.967C124.669 106.506 123.422 107.754 121.883 107.754H7.7864C6.24752 107.754 5 106.506 5 104.967V102.181Z" fill="white"/>
<path fill-rule="evenodd" clip-rule="evenodd" d="M121.883 101.395H7.7864C7.35208 101.395 7 101.747 7 102.181V104.967C7 105.402 7.35208 105.754 7.7864 105.754H121.883C122.317 105.754 122.669 105.402 122.669 104.967V102.181C122.669 101.747 122.317 101.395 121.883 101.395ZM7.7864 99.3945C6.24751 99.3945 5 100.642 5 102.181V104.967C5 106.506 6.24752 107.754 7.7864 107.754H121.883C123.422 107.754 124.669 106.506 124.669 104.967V102.181C124.669 100.642 123.422 99.3945 121.883 99.3945H7.7864Z" fill="#969696"/>
<path fill-rule="evenodd" clip-rule="evenodd" d="M62.0402 19.3117C62.7344 19.2734 63.4336 19.2539 64.1372 19.2539C64.8409 19.2539 65.5401 19.2734 66.2342 19.3117C66.51 19.327 66.7211 19.5629 66.7059 19.8386C66.6906 20.1143 66.4548 20.3255 66.179 20.3102C65.5032 20.2728 64.8225 20.2539 64.1372 20.2539C63.452 20.2539 62.7712 20.2728 62.0954 20.3102C61.8197 20.3255 61.5838 20.1143 61.5686 19.8386C61.5533 19.5629 61.7645 19.327 62.0402 19.3117ZM58.4484 20.1865C58.4943 20.4587 58.3108 20.7167 58.0385 20.7627C56.6853 20.991 55.3576 21.294 54.0596 21.6673C53.7942 21.7437 53.5172 21.5904 53.4409 21.325C53.3645 21.0597 53.5178 20.7826 53.7832 20.7063C55.1171 20.3226 56.4816 20.0112 57.8722 19.7766C58.1444 19.7307 58.4024 19.9142 58.4484 20.1865ZM69.8261 20.1865C69.872 19.9142 70.13 19.7307 70.4023 19.7766C71.7928 20.0112 73.1573 20.3226 74.4913 20.7063C74.7566 20.7826 74.9099 21.0597 74.8336 21.325C74.7572 21.5904 74.4802 21.7437 74.2149 21.6673C72.9169 21.294 71.5891 20.991 70.2359 20.7627C69.9636 20.7167 69.7801 20.4587 69.8261 20.1865ZM77.7953 22.3614C77.9011 22.1063 78.1936 21.9853 78.4487 22.0911C79.7462 22.6291 81.0067 23.238 82.2255 23.9131C82.4671 24.0469 82.5544 24.3511 82.4206 24.5927C82.2868 24.8343 81.9826 24.9216 81.741 24.7879C80.5548 24.1309 79.3282 23.5383 78.0657 23.0148C77.8106 22.909 77.6896 22.6165 77.7953 22.3614ZM50.4791 22.3614C50.5849 22.6165 50.4638 22.909 50.2088 23.0148C48.9463 23.5383 47.7196 24.1309 46.5335 24.7879C46.2919 24.9217 45.9876 24.8343 45.8538 24.5927C45.72 24.3512 45.8074 24.0469 46.0489 23.9131C47.2678 23.238 48.5283 22.6291 49.8257 22.0911C50.0808 21.9853 50.3733 22.1063 50.4791 22.3614ZM85.0767 26.2651C85.2367 26.04 85.5489 25.9872 85.7739 26.1472C86.9152 26.9585 88.009 27.8322 89.0503 28.7634C89.2561 28.9474 89.2738 29.2635 89.0897 29.4694C88.9056 29.6752 88.5895 29.6928 88.3837 29.5088C87.3701 28.6024 86.3054 27.7519 85.1946 26.9623C84.9695 26.8023 84.9167 26.4902 85.0767 26.2651ZM43.1977 26.2651C43.3577 26.4902 43.3049 26.8023 43.0799 26.9623C41.969 27.7519 40.9043 28.6024 39.8907 29.5088C39.6849 29.6929 39.3688 29.6752 39.1847 29.4694C39.0007 29.2635 39.0183 28.9474 39.2241 28.7634C40.2654 27.8322 41.3592 26.9585 42.5005 26.1472C42.7256 25.9872 43.0377 26.04 43.1977 26.2651ZM91.309 31.6887C91.5148 31.5046 91.8309 31.5222 92.015 31.7281C92.9462 32.7693 93.8199 33.8631 94.6311 35.0044C94.7911 35.2295 94.7384 35.5417 94.5133 35.7016C94.2882 35.8616 93.976 35.8089 93.8161 35.5838C93.0264 34.4729 92.176 33.4083 91.2696 32.3947C91.0855 32.1888 91.1032 31.8727 91.309 31.6887ZM36.9654 31.6887C37.1713 31.8727 37.1889 32.1888 37.0049 32.3947C36.0984 33.4083 35.248 34.4729 34.4584 35.5838C34.2984 35.8089 33.9862 35.8616 33.7612 35.7017C33.5361 35.5417 33.4833 35.2295 33.6433 35.0044C34.4546 33.8631 35.3283 32.7693 36.2594 31.7281C36.4435 31.5222 36.7596 31.5046 36.9654 31.6887ZM96.1856 38.3577C96.4272 38.2239 96.7315 38.3113 96.8653 38.5529C97.5403 39.7717 98.1493 41.0322 98.6873 42.3296C98.7931 42.5847 98.672 42.8772 98.417 42.983C98.1619 43.0888 97.8694 42.9678 97.7636 42.7127C97.24 41.4502 96.6474 40.2235 95.9905 39.0374C95.8567 38.7958 95.9441 38.4915 96.1856 38.3577ZM32.0888 38.3577C32.3304 38.4915 32.4177 38.7958 32.2839 39.0374C31.627 40.2235 31.0344 41.4502 30.5109 42.7127C30.4051 42.9678 30.1126 43.0888 29.8575 42.983C29.6024 42.8772 29.4814 42.5847 29.5871 42.3296C30.1252 41.0322 30.7341 39.7717 31.4091 38.5529C31.5429 38.3113 31.8472 38.2239 32.0888 38.3577ZM28.8211 45.9448C29.0865 46.0211 29.2398 46.2981 29.1634 46.5635C28.7901 47.8615 28.4871 49.1892 28.2588 50.5424C28.2128 50.8147 27.9548 50.9982 27.6825 50.9523C27.4102 50.9063 27.2268 50.6484 27.2727 50.3761C27.5073 48.9855 27.8187 47.621 28.2024 46.2871C28.2787 46.0217 28.5557 45.8685 28.8211 45.9448ZM99.4533 45.9448C99.7187 45.8685 99.9957 46.0217 100.072 46.2871C100.455 47.621 100.767 48.9855 101.001 50.3761C101.047 50.6484 100.865 50.9063 100.592 50.9523C100.32 50.9982 100.062 50.8147 100.016 50.5424C99.7874 49.1893 99.4843 47.8615 99.111 46.5635C99.0347 46.2981 99.1879 46.0211 99.4533 45.9448ZM27.3347 54.0725C27.6104 54.0877 27.8215 54.3236 27.8063 54.5993C27.7689 55.2751 27.75 55.9559 27.75 56.6411C27.75 57.3264 27.7689 58.0071 27.8063 58.6829C27.8215 58.9587 27.6104 59.1945 27.3347 59.2098C27.0589 59.225 26.8231 59.0139 26.8078 58.7382C26.7694 58.044 26.75 57.3448 26.75 56.6411C26.75 55.9375 26.7694 55.2383 26.8078 54.5441C26.8231 54.2684 27.0589 54.0572 27.3347 54.0725ZM100.939 54.0725C101.215 54.0572 101.452 54.2684 101.467 54.5441C101.506 55.2383 101.525 55.9375 101.525 56.6411C101.525 57.3448 101.506 58.044 101.467 58.7382C101.452 59.0139 101.215 59.225 100.939 59.2098C100.664 59.1945 100.453 58.9587 100.469 58.683C100.506 58.0071 100.525 57.3264 100.525 56.6411C100.525 55.9559 100.506 55.2751 100.469 54.5993C100.453 54.3236 100.664 54.0877 100.939 54.0725ZM27.6825 62.33C27.9548 62.284 28.2128 62.4675 28.2588 62.7398C28.4871 64.093 28.7901 65.4208 29.1634 66.7188C29.2398 66.9842 29.0865 67.2612 28.8211 67.3375C28.5557 67.4138 28.2787 67.2606 28.2024 66.9952C27.8187 65.6612 27.5073 64.2967 27.2727 62.9062C27.2268 62.6339 27.4102 62.3759 27.6825 62.33ZM100.592 62.33C100.865 62.3759 101.047 62.6339 101.001 62.9062C100.767 64.2967 100.455 65.6612 100.072 66.9952C99.9957 67.2606 99.7187 67.4138 99.4533 67.3375C99.1879 67.2612 99.0347 66.9842 99.111 66.7188C99.4843 65.4208 99.7874 64.093 100.016 62.7398C100.062 62.4675 100.32 62.284 100.592 62.33ZM98.417 70.2993C98.672 70.405 98.7931 70.6976 98.6873 70.9526C98.1493 72.2501 97.5403 73.5106 96.8653 74.7294C96.7315 74.971 96.4272 75.0583 96.1856 74.9246C95.9441 74.7908 95.8567 74.4865 95.9905 74.2449C96.6474 73.0588 97.24 71.8321 97.7636 70.5696C97.8694 70.3145 98.1619 70.1935 98.417 70.2993ZM29.8575 70.2993C30.1126 70.1935 30.4051 70.3145 30.5109 70.5696C31.0344 71.8321 31.627 73.0588 32.2839 74.2449C32.4177 74.4865 32.3304 74.7908 32.0888 74.9246C31.8472 75.0583 31.5429 74.971 31.4092 74.7294C30.7341 73.5106 30.1252 72.2501 29.5871 70.9527C29.4814 70.6976 29.6024 70.405 29.8575 70.2993ZM94.5133 77.5806C94.7384 77.7406 94.7911 78.0528 94.6311 78.2778C93.8199 79.4192 92.9462 80.5129 92.015 81.5542C91.8309 81.7601 91.5148 81.7777 91.309 81.5936C91.1032 81.4095 91.0855 81.0935 91.2696 80.8876C92.176 79.874 93.0264 78.8094 93.8161 77.6985C93.9761 77.4734 94.2882 77.4206 94.5133 77.5806ZM33.7612 77.5806C33.9862 77.4207 34.2984 77.4734 34.4584 77.6985C35.248 78.8094 36.0984 79.874 37.0049 80.8876C37.1889 81.0935 37.1713 81.4095 36.9654 81.5936C36.7596 81.7777 36.4435 81.7601 36.2594 81.5542C35.3283 80.5129 34.4546 79.4192 33.6433 78.2779C33.4833 78.0528 33.5361 77.7406 33.7612 77.5806ZM89.0897 83.8129C89.2738 84.0188 89.2561 84.3348 89.0503 84.5189C88.009 85.4501 86.9152 86.3238 85.7739 87.135C85.5489 87.295 85.2367 87.2423 85.0767 87.0172C84.9167 86.7921 84.9695 86.48 85.1946 86.32C86.3055 85.5304 87.3701 84.6799 88.3837 83.7735C88.5895 83.5894 88.9056 83.6071 89.0897 83.8129ZM39.1847 83.8129C39.3688 83.6071 39.6849 83.5894 39.8908 83.7735C40.9043 84.6799 41.969 85.5304 43.0799 86.32C43.305 86.48 43.3577 86.7921 43.1977 87.0172C43.0377 87.2423 42.7256 87.295 42.5005 87.1351C41.3592 86.3238 40.2654 85.4501 39.2242 84.5189C39.0183 84.3349 39.0007 84.0188 39.1847 83.8129ZM45.8538 88.6896C45.9876 88.448 46.2919 88.3606 46.5335 88.4944C47.7196 89.1514 48.9463 89.7439 50.2088 90.2675C50.4638 90.3733 50.5849 90.6658 50.4791 90.9209C50.3733 91.176 50.0808 91.297 49.8257 91.1912C48.5283 90.6532 47.2678 90.0442 46.049 89.3692C45.8074 89.2354 45.72 88.9311 45.8538 88.6896ZM82.4206 88.6896C82.5544 88.9311 82.4671 89.2354 82.2255 89.3692C81.0067 90.0442 79.7462 90.6532 78.4487 91.1912C78.1937 91.297 77.9011 91.176 77.7953 90.9209C77.6896 90.6658 77.8106 90.3733 78.0657 90.2675C79.3282 89.7439 80.5549 89.1514 81.741 88.4944C81.9826 88.3606 82.2868 88.448 82.4206 88.6896ZM53.4409 91.9572C53.5172 91.6919 53.7942 91.5386 54.0596 91.6149C55.3576 91.9883 56.6853 92.2913 58.0385 92.5196C58.3108 92.5655 58.4943 92.8235 58.4484 93.0958C58.4024 93.3681 58.1444 93.5516 57.8722 93.5057C56.4816 93.271 55.1171 92.9596 53.7832 92.576C53.5178 92.4996 53.3645 92.2226 53.4409 91.9572ZM74.8336 91.9572C74.9099 92.2226 74.7566 92.4996 74.4913 92.576C73.1573 92.9596 71.7928 93.271 70.4023 93.5057C70.13 93.5516 69.872 93.3681 69.8261 93.0958C69.7801 92.8235 69.9636 92.5656 70.2359 92.5196C71.5891 92.2913 72.9169 91.9883 74.2149 91.6149C74.4802 91.5386 74.7572 91.6919 74.8336 91.9572ZM61.5686 93.4437C61.5838 93.168 61.8197 92.9568 62.0954 92.9721C62.7712 93.0094 63.452 93.0284 64.1372 93.0284C64.8225 93.0284 65.5032 93.0094 66.179 92.9721C66.4548 92.9568 66.6906 93.168 66.7059 93.4437C66.7211 93.7194 66.51 93.9553 66.2342 93.9705C65.5401 94.0089 64.8409 94.0284 64.1372 94.0284C63.4336 94.0284 62.7344 94.0089 62.0402 93.9705C61.7645 93.9553 61.5533 93.7194 61.5686 93.4437Z" fill="#969696"/>
<path d="M64.1406 83.6401C79.0523 83.6401 91.1406 71.5518 91.1406 56.6401C91.1406 41.7284 79.0523 29.6401 64.1406 29.6401C49.2289 29.6401 37.1406 41.7284 37.1406 56.6401C37.1406 71.5518 49.2289 83.6401 64.1406 83.6401Z" fill="white"/>
<path fill-rule="evenodd" clip-rule="evenodd" d="M64.1406 30.6401C49.7812 30.6401 38.1406 42.2807 38.1406 56.6401C38.1406 70.9995 49.7812 82.6401 64.1406 82.6401C78.5 82.6401 90.1406 70.9995 90.1406 56.6401C90.1406 42.2807 78.5 30.6401 64.1406 30.6401ZM36.1406 56.6401C36.1406 41.1762 48.6767 28.6401 64.1406 28.6401C79.6046 28.6401 92.1406 41.1762 92.1406 56.6401C92.1406 72.1041 79.6046 84.6401 64.1406 84.6401C48.6767 84.6401 36.1406 72.1041 36.1406 56.6401Z" fill="#969696"/>
<path fill-rule="evenodd" clip-rule="evenodd" d="M48.9427 42.6611C48.7931 47.9667 50.1643 54.6485 53.1148 61.4342C56.0653 68.2198 60.0169 73.7797 63.9992 77.2887C68.0145 80.8268 71.9075 82.1596 74.8297 80.889C77.7518 79.6184 79.4321 75.8622 79.5829 70.5127C79.7325 65.2071 78.3613 58.5252 75.4108 51.7396C72.4603 44.9539 68.5087 39.3941 64.5264 35.8851C60.5112 32.347 56.6181 31.0142 53.696 32.2848C50.7738 33.5554 49.0935 37.3115 48.9427 42.6611ZM47.9431 42.6329C48.0964 37.1944 49.8093 32.8843 53.2972 31.3677C56.7851 29.8511 61.1055 31.5379 65.1876 35.1348C69.3026 38.7608 73.3323 44.4516 76.3279 51.3408C79.3234 58.2301 80.7371 65.0583 80.5825 70.5408C80.4292 75.9794 78.7163 80.2894 75.2284 81.806C71.7405 83.3226 67.4201 81.6359 63.3381 78.039C59.223 74.4129 55.1933 68.7222 52.1977 61.8329C49.2022 54.9437 47.7885 48.1155 47.9431 42.6329Z" fill="#969696"/>
<path fill-rule="evenodd" clip-rule="evenodd" d="M36.5025 57.8105C36.3924 57.5572 36.5084 57.2627 36.7617 57.1526L83.1878 36.9659C83.4411 36.8558 83.7356 36.9718 83.8457 37.225C83.9558 37.4783 83.8398 37.7728 83.5866 37.8829L37.1604 58.0696C36.9072 58.1797 36.6126 58.0637 36.5025 57.8105Z" fill="#969696"/>
<path fill-rule="evenodd" clip-rule="evenodd" d="M44.4361 76.0551C44.326 75.8018 44.442 75.5073 44.6953 75.3972L91.1214 55.2105C91.3747 55.1004 91.6692 55.2164 91.7793 55.4697C91.8895 55.7229 91.7734 56.0175 91.5202 56.1276L45.094 76.3142C44.8408 76.4244 44.5462 76.3083 44.4361 76.0551Z" fill="#969696"/>
<path d="M30.0156 82.0794C30.0156 80.5405 31.2631 79.293 32.802 79.293H41.6361C43.175 79.293 44.4225 80.5405 44.4225 82.0794V89.4727C44.4225 91.0116 43.175 92.2591 41.6361 92.2591H32.802C31.2631 92.2591 30.0156 91.0116 30.0156 89.4727V82.0794Z" fill="white"/>
<path fill-rule="evenodd" clip-rule="evenodd" d="M41.6361 81.293H32.802C32.3677 81.293 32.0156 81.6451 32.0156 82.0794V89.4727C32.0156 89.9071 32.3677 90.2591 32.802 90.2591H41.6361C42.0704 90.2591 42.4225 89.907 42.4225 89.4727V82.0794C42.4225 81.645 42.0704 81.293 41.6361 81.293ZM32.802 79.293C31.2631 79.293 30.0156 80.5405 30.0156 82.0794V89.4727C30.0156 91.0116 31.2631 92.2591 32.802 92.2591H41.6361C43.175 92.2591 44.4225 91.0116 44.4225 89.4727V82.0794C44.4225 80.5405 43.175 79.293 41.6361 79.293H32.802Z" fill="#969696"/>
<path d="M39.5226 35.9302C39.5226 39.8025 36.3835 42.9415 32.5113 42.9415C28.6391 42.9415 25.5 39.8025 25.5 35.9302C25.5 32.058 28.6391 28.9189 32.5113 28.9189C36.3835 28.9189 39.5226 32.058 39.5226 35.9302Z" fill="#305D74"/>
<path fill-rule="evenodd" clip-rule="evenodd" d="M32.5113 40.9415C35.2789 40.9415 37.5226 38.6979 37.5226 35.9302C37.5226 33.1626 35.2789 30.9189 32.5113 30.9189C29.7436 30.9189 27.5 33.1626 27.5 35.9302C27.5 38.6979 29.7436 40.9415 32.5113 40.9415ZM32.5113 42.9415C36.3835 42.9415 39.5226 39.8025 39.5226 35.9302C39.5226 32.058 36.3835 28.9189 32.5113 28.9189C28.6391 28.9189 25.5 32.058 25.5 35.9302C25.5 39.8025 28.6391 42.9415 32.5113 42.9415Z" fill="#305D74"/>
<path d="M104.237 72.7619C102.948 71.5763 101.401 70.6678 99.6888 70.1308C98.81 71.1366 97.5179 71.772 96.0773 71.772C94.6364 71.772 93.3439 71.1362 92.465 70.1299C90.7529 70.6665 89.2052 71.5746 87.9162 72.7598C88.347 74.0232 88.2509 75.459 87.531 76.7059C86.8108 77.9534 85.6145 78.7547 84.3041 79.0129C84.1165 79.858 84.0176 80.7364 84.0176 81.6379C84.0176 82.5404 84.1167 83.4196 84.3047 84.2655C85.6146 84.5239 86.8104 85.3251 87.5305 86.5723C88.2499 87.8184 88.3463 89.2533 87.9164 90.5162C89.2059 91.7019 90.7544 92.6102 92.4673 93.1467C93.3461 92.1419 94.6376 91.5072 96.0773 91.5072C97.5167 91.5072 98.8078 92.1415 99.6866 93.1458C101.399 92.609 102.947 91.7006 104.236 90.5152C103.808 89.2535 103.905 87.8208 104.623 86.5764C105.343 85.3305 106.537 84.5296 107.845 84.2703C108.034 83.423 108.133 82.5421 108.133 81.6379C108.133 80.7365 108.034 79.8581 107.847 79.0131C106.537 78.7544 105.342 77.9533 104.623 76.7066C103.903 75.4602 103.807 74.025 104.237 72.7619Z" fill="white"/>
<path fill-rule="evenodd" clip-rule="evenodd" d="M102.025 73.5276C101.439 73.0963 100.804 72.7274 100.131 72.4305C99 73.272 97.5964 73.772 96.0773 73.772C94.5577 73.772 93.1535 73.2716 92.0225 72.4295C91.3497 72.7262 90.715 73.0947 90.1282 73.5257C90.2914 74.9255 90.0224 76.3907 89.2631 77.7059C88.5038 79.0209 87.3697 79.9863 86.0761 80.5449C86.0375 80.9034 86.0176 81.2681 86.0176 81.6379C86.0176 82.0087 86.0376 82.3742 86.0764 82.7336C87.3696 83.2923 88.5035 84.2575 89.2625 85.5723C90.0214 86.8868 90.2905 88.3509 90.1279 89.7499C90.7156 90.1816 91.3513 90.5507 92.0253 90.8476C93.1558 90.0067 94.5589 89.5072 96.0773 89.5072C97.5952 89.5072 98.9977 90.0063 100.128 90.8466C100.802 90.5494 101.438 90.1802 102.025 89.7483C101.864 88.351 102.133 86.889 102.891 85.5764C103.65 84.2628 104.782 83.2981 106.074 82.7392C106.113 82.378 106.133 82.0106 106.133 81.6379C106.133 81.2679 106.113 80.9031 106.075 80.5445C104.782 79.9857 103.649 79.0207 102.891 77.7066C102.131 76.3917 101.862 74.927 102.025 73.5276ZM107.847 79.0131C108.034 79.8581 108.133 80.7365 108.133 81.6379C108.133 82.5421 108.034 83.423 107.845 84.2703C106.537 84.5296 105.343 85.3305 104.623 86.5764C103.905 87.8208 103.808 89.2535 104.236 90.5152C102.947 91.7006 101.399 92.609 99.6866 93.1458C98.8078 92.1415 97.5167 91.5072 96.0773 91.5072C94.6376 91.5072 93.3461 92.1419 92.4673 93.1467C90.7544 92.6102 89.2059 91.7019 87.9164 90.5162C88.3463 89.2533 88.2499 87.8184 87.5305 86.5723C86.8104 85.3251 85.6146 84.5239 84.3047 84.2655C84.1167 83.4196 84.0176 82.5404 84.0176 81.6379C84.0176 80.7364 84.1165 79.858 84.3041 79.0129C85.6145 78.7547 86.8108 77.9534 87.531 76.7059C88.2509 75.459 88.347 74.0232 87.9162 72.7598C89.2052 71.5746 90.7529 70.6665 92.465 70.1299C93.3439 71.1362 94.6364 71.772 96.0773 71.772C97.5179 71.772 98.81 71.1366 99.6888 70.1308C101.401 70.6678 102.948 71.5763 104.237 72.7619C103.807 74.025 103.903 75.4602 104.623 76.7066C105.342 77.9533 106.537 78.7544 107.847 79.0131Z" fill="#969696"/>
<path d="M96.0768 85.7826C98.3661 85.7826 100.222 83.9267 100.222 81.6374C100.222 79.3481 98.3661 77.4923 96.0768 77.4923C93.7875 77.4923 91.9316 79.3481 91.9316 81.6374C91.9316 83.9267 93.7875 85.7826 96.0768 85.7826Z" fill="white" stroke="#969696" stroke-width="2"/>
</svg>