<svg width="136" height="136" viewBox="0 0 136 136" fill="none" xmlns="http://www.w3.org/2000/svg">
<path opacity="0.1" d="M122 67.5C122 97.5995 97.5995 122 67.5 122C37.4005 122 13 97.5995 13 67.5C13 37.4005 37.4005 13 67.5 13C97.5995 13 122 37.4005 122 67.5Z" fill="#033D58"/>
<path d="M92 95C90.8954 95 90 94.1046 90 93V57C90 51.4772 94.4772 47 100 47H126C127.105 47 128 47.8954 128 49V85C128 90.5228 123.523 95 118 95H92Z" fill="white"/>
<path fill-rule="evenodd" clip-rule="evenodd" d="M92 57V93H118C122.418 93 126 89.4183 126 85V49H100C95.5817 49 92 52.5817 92 57ZM90 93C90 94.1046 90.8954 95 92 95H118C123.523 95 128 90.5228 128 85V49C128 47.8954 127.105 47 126 47H100C94.4772 47 90 51.4772 90 57V93Z" fill="#969696"/>
<path fill-rule="evenodd" clip-rule="evenodd" d="M97.5 86C97.5 85.7239 97.7239 85.5 98 85.5H110C110.276 85.5 110.5 85.7239 110.5 86C110.5 86.2761 110.276 86.5 110 86.5H98C97.7239 86.5 97.5 86.2761 97.5 86Z" fill="#969696"/>
<path d="M10 87C8.89543 87 8 86.1046 8 85V57C8 51.4772 12.4772 47 18 47H44C45.1046 47 46 47.8954 46 49V77C46 82.5228 41.5228 87 36 87H10Z" fill="white"/>
<path fill-rule="evenodd" clip-rule="evenodd" d="M10 57V85H36C40.4183 85 44 81.4183 44 77V49H18C13.5817 49 10 52.5817 10 57ZM8 85C8 86.1046 8.89543 87 10 87H36C41.5228 87 46 82.5228 46 77V49C46 47.8954 45.1046 47 44 47H18C12.4772 47 8 51.4772 8 57V85Z" fill="#969696"/>
<path fill-rule="evenodd" clip-rule="evenodd" d="M16 78.5C16 78.2239 16.2239 78 16.5 78H27.5C27.7761 78 28 78.2239 28 78.5C28 78.7761 27.7761 79 27.5 79H16.5C16.2239 79 16 78.7761 16 78.5Z" fill="#969696"/>
<path fill-rule="evenodd" clip-rule="evenodd" d="M97.5 79C97.5 78.7239 97.7239 78.5 98 78.5H120C120.276 78.5 120.5 78.7239 120.5 79C120.5 79.2761 120.276 79.5 120 79.5H98C97.7239 79.5 97.5 79.2761 97.5 79Z" fill="#969696"/>
<path fill-rule="evenodd" clip-rule="evenodd" d="M16 71.5C16 71.2239 16.2141 71 16.4783 71H37.5217C37.7859 71 38 71.2239 38 71.5C38 71.7761 37.7859 72 37.5217 72H16.4783C16.2141 72 16 71.7761 16 71.5Z" fill="#969696"/>
<path fill-rule="evenodd" clip-rule="evenodd" d="M97.5 72C97.5 71.7239 97.7239 71.5 98 71.5H120C120.276 71.5 120.5 71.7239 120.5 72C120.5 72.2761 120.276 72.5 120 72.5H98C97.7239 72.5 97.5 72.2761 97.5 72Z" fill="#969696"/>
<path d="M105.822 55C106.275 55.0079 106.686 55.0824 107.054 55.2238C107.43 55.3651 107.756 55.5771 108.032 55.8597C108.316 56.1345 108.535 56.4879 108.688 56.9197C108.841 57.3437 108.918 57.8383 108.918 58.4036C108.918 58.7334 108.968 59.0121 109.068 59.2398C109.168 59.4597 109.325 59.6285 109.54 59.7463L109.689 59.8169C109.896 59.9268 110 60.0839 110 60.288V60.7238C110 60.9279 109.896 61.0849 109.689 61.1949L109.54 61.2655C109.317 61.3754 109.156 61.5443 109.056 61.7719C108.964 61.9996 108.918 62.2744 108.918 62.5964C108.918 63.1695 108.841 63.6681 108.688 64.0921C108.535 64.5161 108.32 64.8655 108.044 65.1403C107.767 65.4229 107.441 65.6349 107.065 65.7762C106.689 65.9254 106.279 66 105.834 66H105.765C105.688 66 105.627 65.9764 105.581 65.9293C105.535 65.8822 105.512 65.8194 105.512 65.7409V64.6809C105.512 64.6024 105.535 64.5396 105.581 64.4925C105.627 64.4454 105.68 64.4218 105.742 64.4218H105.776C106.099 64.3904 106.359 64.3041 106.559 64.1627C106.766 64.0293 106.916 63.8212 107.008 63.5385C107.1 63.2559 107.146 62.8869 107.146 62.4315C107.146 61.929 107.223 61.5128 107.376 61.1831C107.537 60.8455 107.74 60.6178 107.986 60.5C107.825 60.4215 107.679 60.2919 107.549 60.1113C107.426 59.9229 107.326 59.6991 107.249 59.44C107.18 59.1809 107.146 58.8944 107.146 58.5803C107.146 58.1171 107.1 57.748 107.008 57.4732C106.916 57.1906 106.77 56.9786 106.57 56.8373C106.371 56.6959 106.114 56.6135 105.799 56.5899H105.742C105.68 56.5821 105.627 56.5546 105.581 56.5075C105.535 56.4604 105.512 56.4015 105.512 56.3308V55.2591C105.512 55.1884 105.535 55.1296 105.581 55.0824C105.627 55.0275 105.688 55 105.765 55H105.822Z" fill="#969696"/>
<path d="M102.189 66C101.736 66 101.322 65.9293 100.946 65.788C100.57 65.6467 100.24 65.4347 99.9565 65.152C99.6803 64.8694 99.4654 64.5161 99.312 64.0921C99.1662 63.6681 99.0933 63.1695 99.0933 62.5964C99.0933 62.2744 99.0396 61.9996 98.9322 61.7719C98.8325 61.5443 98.6752 61.3715 98.4603 61.2537L98.3107 61.1949C98.1036 61.0771 98 60.9161 98 60.712V60.288C98 60.0839 98.1036 59.9229 98.3107 59.8051L98.4603 59.7463C98.6828 59.6285 98.844 59.4557 98.9437 59.2281C99.0434 59.0004 99.0933 58.7256 99.0933 58.4036C99.0933 57.8305 99.1662 57.3358 99.312 56.9197C99.4654 56.4957 99.6803 56.1424 99.9565 55.8597C100.233 55.5771 100.559 55.3651 100.935 55.2238C101.311 55.0824 101.721 55.0079 102.166 55H102.247C102.316 55 102.373 55.0275 102.419 55.0824C102.473 55.1296 102.5 55.1884 102.5 55.2591V56.3308C102.5 56.4015 102.477 56.4604 102.431 56.5075C102.385 56.5546 102.331 56.5821 102.27 56.5899H102.224C101.901 56.6135 101.641 56.6959 101.441 56.8373C101.242 56.9707 101.096 57.1788 101.004 57.4615C100.912 57.7441 100.866 58.1171 100.866 58.5803C100.866 59.0749 100.785 59.4911 100.624 59.8287C100.463 60.1585 100.26 60.3822 100.014 60.5C100.175 60.5707 100.317 60.7002 100.44 60.8887C100.57 61.0771 100.674 61.3048 100.751 61.5717C100.827 61.8308 100.866 62.1135 100.866 62.4197C100.866 62.8751 100.912 63.248 101.004 63.5385C101.096 63.8212 101.242 64.0293 101.441 64.1627C101.641 64.2962 101.898 64.3787 102.212 64.4101L102.27 64.4218C102.331 64.4218 102.385 64.4454 102.431 64.4925C102.477 64.5396 102.5 64.6024 102.5 64.6809V65.7409C102.5 65.8194 102.473 65.8822 102.419 65.9293C102.373 65.9764 102.316 66 102.247 66H102.189Z" fill="#969696"/>
<path fill-rule="evenodd" clip-rule="evenodd" d="M68.9988 90.5109C69.0901 90.3766 69.1654 90.2237 69.2202 90.0522C69.5179 89.1216 70.5357 88.6315 71.4488 88.9789C71.6165 89.0427 71.7823 89.0792 71.9435 89.0917C72.6675 88.4927 73.2658 87.7471 73.6928 86.9004C73.6447 86.7454 73.5722 86.5914 73.4723 86.4416C72.9304 85.6286 73.1817 84.5274 74.0228 84.0301C74.1769 83.9389 74.3087 83.8322 74.4189 83.7141C74.4024 82.7391 74.1813 81.814 73.7968 80.9797C73.6456 80.9207 73.4799 80.8814 73.3006 80.8661C72.3271 80.7829 71.6228 79.8998 71.7583 78.9322C71.7832 78.7546 71.7819 78.5849 71.7582 78.4249C71.0211 77.8569 70.1645 77.4361 69.2327 77.2069C69.0923 77.2883 68.9582 77.3934 68.8343 77.5241C68.1623 78.2333 67.0327 78.2333 66.3607 77.5241C66.2368 77.3933 66.1026 77.2882 65.9621 77.2068C65.0304 77.4359 64.174 77.8564 63.437 78.4242C63.4132 78.5844 63.4118 78.7543 63.4367 78.9322C63.5723 79.8998 62.868 80.7829 61.8945 80.8661C61.7148 80.8814 61.5487 80.9209 61.3973 80.9801C61.013 81.814 60.792 82.7388 60.7754 83.7133C60.8858 83.8317 61.0178 83.9387 61.1723 84.0301C62.0133 84.5274 62.2647 85.6286 61.7227 86.4416C61.6227 86.5917 61.55 86.7461 61.5019 86.9013C61.9289 87.7477 62.527 88.493 63.2508 89.0918C63.4123 89.0793 63.5783 89.0428 63.7462 88.9789C64.6594 88.6315 65.6771 89.1216 65.9748 90.0522C66.0297 90.2238 66.105 90.3768 66.1963 90.5111C66.6485 90.6054 67.117 90.655 67.5971 90.655C68.0776 90.655 68.5464 90.6054 68.9988 90.5109Z" fill="white"/>
<path fill-rule="evenodd" clip-rule="evenodd" d="M68.9988 90.5109C69.0901 90.3766 69.1654 90.2237 69.2202 90.0522C69.5179 89.1216 70.5357 88.6315 71.4488 88.9789C71.6165 89.0427 71.7823 89.0792 71.9435 89.0917C72.6675 88.4927 73.2658 87.7471 73.6928 86.9004C73.6447 86.7454 73.5722 86.5914 73.4723 86.4416C72.9304 85.6286 73.1817 84.5274 74.0228 84.0301C74.1769 83.9389 74.3087 83.8322 74.4189 83.7141C74.4024 82.7391 74.1813 81.814 73.7968 80.9797C73.6456 80.9207 73.4799 80.8814 73.3006 80.8661C72.3271 80.7829 71.6228 79.8998 71.7583 78.9322C71.7832 78.7546 71.7819 78.5849 71.7582 78.4249C71.0211 77.8569 70.1645 77.4361 69.2327 77.2069C69.0923 77.2883 68.9582 77.3934 68.8343 77.5241C68.1623 78.2333 67.0327 78.2333 66.3607 77.5241C66.2368 77.3933 66.1026 77.2882 65.9621 77.2068C65.0304 77.4359 64.174 77.8564 63.437 78.4242C63.4132 78.5844 63.4118 78.7543 63.4367 78.9322C63.5723 79.8998 62.868 80.7829 61.8945 80.8661C61.7148 80.8814 61.5487 80.9209 61.3973 80.9801C61.013 81.814 60.792 82.7388 60.7754 83.7133C60.8858 83.8317 61.0178 83.9387 61.1723 84.0301C62.0133 84.5274 62.2647 85.6286 61.7227 86.4416C61.6227 86.5917 61.55 86.7461 61.5019 86.9013C61.9289 87.7477 62.527 88.493 63.2508 89.0918C63.4123 89.0793 63.5783 89.0428 63.7462 88.9789C64.6594 88.6315 65.6771 89.1216 65.9748 90.0522C66.0297 90.2238 66.105 90.3768 66.1963 90.5111C66.6485 90.6054 67.117 90.655 67.5971 90.655C68.0776 90.655 68.5464 90.6054 68.9988 90.5109ZM66.8798 89.6114C67.1145 89.6402 67.3539 89.655 67.5971 89.655C67.8406 89.655 68.0803 89.6401 68.3153 89.6113C68.8238 88.2685 70.3004 87.5571 71.6673 87.9962C72.01 87.6612 72.3115 87.2843 72.5634 86.8741C71.8306 85.6393 72.1951 84.0413 73.3909 83.2464C73.3423 82.759 73.2337 82.2901 73.0728 81.8465C71.6499 81.6499 70.6273 80.368 70.7517 78.9371C70.3515 78.6786 69.9179 78.4681 69.459 78.3133C68.4177 79.3036 66.7771 79.3036 65.7359 78.3131C65.277 78.4678 64.8435 78.6782 64.4433 78.9367C64.568 80.368 63.5449 81.6504 62.1214 81.8466C61.9606 82.29 61.852 82.7588 61.8034 83.2459C63 84.0407 63.3648 85.6396 62.6313 86.8748C62.8832 87.2848 63.1845 87.6615 63.5271 87.9964C64.8943 87.5569 66.3713 88.2683 66.8798 89.6114Z" fill="#969696"/>
<path fill-rule="evenodd" clip-rule="evenodd" d="M65.6592 82.7595C65.0583 83.8003 65.4149 85.1312 66.4558 85.7321C67.4966 86.333 68.8274 85.9764 69.4284 84.9356C70.0293 83.8948 69.6727 82.5639 68.6319 81.963C67.591 81.3621 66.2602 81.7187 65.6592 82.7595ZM64.7932 82.2595C63.9162 83.7786 64.4366 85.7211 65.9558 86.5982C67.4749 87.4752 69.4173 86.9547 70.2944 85.4356C71.1714 83.9165 70.651 81.974 69.1319 81.097C67.6127 80.2199 65.6703 80.7404 64.7932 82.2595Z" fill="#969696"/>
<path d="M48 65.3027C48 65.4028 48.1045 65.4979 48.209 65.4979H86.0933L84.3986 67.2263C84.2942 67.3264 84.2942 67.4265 84.3986 67.5266L84.8166 67.9269C84.9252 68.031 85.0354 68.0175 85.13 67.9269L87.9216 65.1526C88.0261 65.0525 88.0261 64.9524 87.9216 64.8524L85.1007 62.0751C84.9963 61.975 84.8918 61.975 84.7873 62.0751L84.3694 62.4754C84.2649 62.5755 84.2649 62.6756 84.3694 62.7756L86.041 64.4971H48.209C48.1045 64.4971 48 64.6022 48 64.7022V65.3027Z" fill="#969696"/>
<path d="M76 85.8532C76 85.97 76.1066 86.0809 76.2131 86.0809H86.0553L84.3269 88.0974C84.2203 88.2142 84.2203 88.3309 84.3269 88.4477L84.7531 88.9147C84.8639 89.0362 84.9764 89.0204 85.0728 88.9147L87.9201 85.6781C88.0266 85.5613 88.0266 85.4445 87.9201 85.3278L85.043 82.0876C84.9364 81.9708 84.8298 81.9708 84.7233 82.0876L84.2971 82.5546C84.1905 82.6714 84.1905 82.7882 84.2971 82.9049L86.002 84.9132H76.2131C76.1066 84.9132 76 85.0359 76 85.1526V85.8532Z" fill="#969696"/>
<path d="M67 65.25C67 65.1119 67.1119 65 67.25 65H67.75C67.8881 65 68 65.1119 68 65.25V74.75C68 74.8881 67.8881 75 67.75 75H67.25C67.1119 75 67 74.8881 67 74.75V65.25Z" fill="#969696"/>
<path fill-rule="evenodd" clip-rule="evenodd" d="M21.5288 56.6741C21.9387 57.0442 21.9709 57.6766 21.6008 58.0864L18.6946 61.3047L21.6009 64.5239C21.971 64.9338 21.9387 65.5662 21.5287 65.9362C21.1188 66.3063 20.4864 66.274 20.1163 65.8641L16 61.3046L20.1164 56.746C20.4866 56.3362 21.1189 56.3039 21.5288 56.6741Z" fill="#969696"/>
<path fill-rule="evenodd" clip-rule="evenodd" d="M32.1658 56.6741C31.7559 57.0442 31.7237 57.6766 32.0938 58.0864L35 61.3047L32.0937 64.5239C31.7236 64.9338 31.7559 65.5662 32.1659 65.9362C32.5758 66.3063 33.2081 66.274 33.5782 65.8641L37.6946 61.3046L33.5782 56.746C33.208 56.3362 32.5757 56.3039 32.1658 56.6741Z" fill="#969696"/>
<path fill-rule="evenodd" clip-rule="evenodd" d="M29.4317 56.3473C29.9099 56.5938 30.0855 57.2007 29.8238 57.7028L25.6539 65.7028C25.3922 66.2048 24.7924 66.412 24.3142 66.1655C23.836 65.9189 23.6604 65.3121 23.9221 64.81L28.092 56.81C28.3537 56.3079 28.9535 56.1008 29.4317 56.3473Z" fill="#969696"/>
</svg>
