<!--
 Copyright 2023-2025 Solace Systems. All rights reserved.

 Licensed under the Apache License, Version 2.0 (the "License");
 you may not use this file except in compliance with the License.
 You may obtain a copy of the License at

     http://www.apache.org/licenses/LICENSE-2.0

 Unless required by applicable law or agreed to in writing, software
 distributed under the License is distributed on an "AS IS" BASIS,
 WITHOUT WARRANTIES OR CONDITIONS OF ANY KIND, either express or implied.
 See the License for the specific language governing permissions and
 limitations under the License.
-->
<svg width="89" height="49" viewBox="0 0 89 49" fill="none" xmlns="http://www.w3.org/2000/svg">
<path d="M22.307 16.2114L19.2769 27.5197C19.275 27.5269 19.2661 27.5294 19.2605 27.5245C17.9404 26.3489 17.3497 25.0233 16.9449 23.402C16.7945 22.7996 16.8216 22.1685 16.9823 21.5687L17.3443 20.2178C17.505 19.618 17.7971 19.0579 18.2286 18.6114C19.3898 17.4097 20.5641 16.557 22.2952 16.1991C22.3024 16.1976 22.3089 16.2042 22.307 16.2114Z" fill="white"/>
<path d="M6.10203 20.1169L14.2898 22.3108C14.8232 22.4537 15.3716 22.1371 15.5145 21.6037L16.0907 19.4533C16.2336 18.9198 15.917 18.3715 15.3836 18.2286L7.19596 16.0347C6.94543 15.9676 6.68791 16.1162 6.62078 16.3668L5.77002 19.5418C5.70291 19.7923 5.85155 20.0498 6.10203 20.1169Z" fill="white"/>
<path fill-rule="evenodd" clip-rule="evenodd" d="M4.81477 17.3336C4.6814 17.2979 4.54431 17.377 4.50858 17.5104C4.47284 17.6438 4.55199 17.7809 4.68536 17.8166L5.64515 18.0738L5.29433 19.3831C5.15139 19.9165 5.46797 20.4649 6.00144 20.6078L14.6427 22.9232C15.1762 23.0661 15.7245 22.7496 15.8674 22.2161L16.7025 19.0998C16.8454 18.5663 16.5288 18.018 15.9953 17.8751L7.35408 15.5597C6.82061 15.4167 6.27228 15.7333 6.12934 16.2668L5.77456 17.5908L4.81477 17.3336ZM14.9015 21.9573L6.26026 19.6419L7.09526 16.5256L15.7365 18.841L14.9015 21.9573Z" fill="#969696"/>
<path d="M5.74463 32.6609C5.67751 32.9114 5.82617 33.1689 6.07667 33.236L9.7053 34.2083C9.95581 34.2754 10.2133 34.1268 10.2804 33.8763L12.9542 23.8975C13.0214 23.647 12.8727 23.3895 12.6222 23.3224L8.99354 22.3501C8.74303 22.283 8.48555 22.4317 8.41842 22.6822L5.74463 32.6609Z" fill="white"/>
<path d="M10.4849 14.9713C10.4178 15.2218 10.5664 15.4793 10.8169 15.5464L14.4455 16.5187C14.6961 16.5858 14.9535 16.4371 15.0207 16.1866L17.6945 6.20793C17.7616 5.95743 17.6129 5.69994 17.3624 5.63281L13.7338 4.66053C13.4833 4.5934 13.2258 4.74206 13.1587 4.99257L10.4849 14.9713Z" fill="white"/>
<path fill-rule="evenodd" clip-rule="evenodd" d="M9.57603 34.6914C10.0933 34.8299 10.6249 34.523 10.7635 34.0058L13.4373 24.027C13.5759 23.5098 13.2689 22.9781 12.7517 22.8395L9.12308 21.8672C8.60584 21.7287 8.07419 22.0356 7.93559 22.5528L5.2618 32.5316C5.1232 33.0488 5.43016 33.5805 5.9474 33.7191L9.57603 34.6914ZM10.5836 30.8133L9.80546 33.7176L8.26152 33.3039L9.03975 30.3996L10.5836 30.8133ZM10.7131 30.3303L11.5559 27.1846L10.0121 26.771L9.16917 29.9166L10.7131 30.3303ZM11.6853 26.7017L12.4635 23.7976L10.9196 23.3839L10.1415 26.288L11.6853 26.7017ZM10.4367 23.2545L8.89365 22.841L8.11549 25.7451L9.65853 26.1586L10.4367 23.2545ZM7.98609 26.2281L7.14321 29.3738L8.6862 29.7872L9.52912 26.6416L7.98609 26.2281ZM7.0138 29.8567L8.55679 30.2702L7.77856 33.1744L6.2356 32.761L7.0138 29.8567ZM14.3159 17.0017C14.8332 17.1403 15.3648 16.8334 15.5034 16.3161L18.1772 6.33734C18.3158 5.8201 18.0089 5.28845 17.4916 5.14985L13.863 4.17756C13.3458 4.03897 12.8141 4.34592 12.6755 4.86316L10.0017 14.8419C9.86313 15.3592 10.1701 15.8908 10.6873 16.0294L14.3159 17.0017ZM15.3235 13.1238L14.5454 16.0279L13.0015 15.6142L13.7796 12.7101L15.3235 13.1238ZM15.453 12.6408L16.2958 9.49508L14.752 9.0814L13.9091 12.2271L15.453 12.6408ZM16.4252 9.01211L17.2034 6.10791L15.6596 5.69424L14.8814 8.59844L16.4252 9.01211ZM15.1766 5.56483L13.6336 5.15136L12.8554 8.05557L14.3984 8.46903L15.1766 5.56483ZM12.726 8.53854L11.8831 11.6843L13.4261 12.0977L14.269 8.95199L12.726 8.53854ZM11.7537 12.1672L13.2967 12.5807L12.5185 15.4848L10.9755 15.0714L11.7537 12.1672Z" fill="#969696"/>
<path fill-rule="evenodd" clip-rule="evenodd" d="M19.0118 26.5705L21.6023 16.9025C20.415 17.3032 19.5109 18.0023 18.5862 18.9592C18.2218 19.3363 17.9673 19.8176 17.8253 20.3476L17.4634 21.6984C17.3214 22.2284 17.3011 22.7725 17.4281 23.2813C17.7505 24.5723 18.1839 25.6298 19.0118 26.5705ZM19.758 27.6495C19.657 28.0261 19.2018 28.1438 18.9261 27.8982C17.5053 26.633 16.8771 25.2027 16.4579 23.5235C16.2841 22.8274 16.318 22.1093 16.4974 21.4396L16.8594 20.0888C17.0389 19.4191 17.3685 18.7803 17.8671 18.2643C19.0698 17.0197 20.3289 16.0951 22.192 15.7098C22.5535 15.635 22.8889 15.9645 22.788 16.3412L21.4026 21.5116L22.5193 21.8109L22.5218 21.8115C22.7662 21.5676 23.1304 21.457 23.4879 21.5528C24.0214 21.6957 24.3379 22.244 24.195 22.7775C24.0521 23.311 23.5037 23.6275 22.9703 23.4846C22.6127 23.3888 22.3526 23.1109 22.263 22.7774L22.2605 22.7768L21.1438 22.4776L19.758 27.6495Z" fill="#969696"/>
<path d="M66.6917 16.2114L69.7218 27.5197C69.7237 27.5269 69.7326 27.5294 69.7381 27.5245C71.0583 26.3489 71.6489 25.0233 72.0537 23.402C72.2042 22.7996 72.1771 22.1685 72.0163 21.5687L71.6544 20.2178C71.4937 19.618 71.2016 19.0579 70.7701 18.6114C69.6089 17.4097 68.4345 16.557 66.7035 16.1991C66.6962 16.1976 66.6898 16.2042 66.6917 16.2114Z" fill="white"/>
<path d="M82.896 20.1169L74.7083 22.3108C74.1748 22.4537 73.6265 22.1371 73.4836 21.6037L72.9074 19.4533C72.7644 18.9198 73.081 18.3715 73.6145 18.2286L81.8021 16.0347C82.0526 15.9676 82.3101 16.1162 82.3773 16.3668L83.228 19.5418C83.2951 19.7923 83.1465 20.0498 82.896 20.1169Z" fill="white"/>
<path fill-rule="evenodd" clip-rule="evenodd" d="M84.1818 17.3336C84.3151 17.2979 84.4522 17.377 84.4879 17.5104C84.5237 17.6438 84.4445 17.7809 84.3112 17.8166L83.3514 18.0738L83.7022 19.3831C83.8451 19.9165 83.5286 20.4649 82.9951 20.6078L74.3539 22.9232C73.8204 23.0661 73.2721 22.7496 73.1291 22.2161L72.2941 19.0998C72.1512 18.5663 72.4678 18.018 73.0012 17.8751L81.6424 15.5597C82.1759 15.4167 82.7242 15.7333 82.8672 16.2668L83.222 17.5908L84.1818 17.3336ZM74.095 21.9573L82.7363 19.6419L81.9013 16.5256L73.26 18.841L74.095 21.9573Z" fill="#969696"/>
<path d="M83.253 32.6609C83.3201 32.9114 83.1715 33.1689 82.921 33.236L79.2923 34.2083C79.0418 34.2754 78.7844 34.1268 78.7172 33.8763L76.0434 23.8975C75.9763 23.647 76.125 23.3895 76.3755 23.3224L80.0041 22.3501C80.2546 22.283 80.5121 22.4317 80.5792 22.6822L83.253 32.6609Z" fill="white"/>
<path d="M78.5128 14.9713C78.5799 15.2218 78.4313 15.4793 78.1808 15.5464L74.5521 16.5187C74.3016 16.5858 74.0441 16.4371 73.977 16.1866L71.3032 6.20793C71.2361 5.95743 71.3848 5.69994 71.6353 5.63281L75.2639 4.66053C75.5144 4.5934 75.7719 4.74206 75.839 4.99257L78.5128 14.9713Z" fill="white"/>
<path fill-rule="evenodd" clip-rule="evenodd" d="M79.4216 34.6914C78.9043 34.8299 78.3727 34.523 78.2341 34.0058L75.5603 24.027C75.4217 23.5098 75.7286 22.9781 76.2459 22.8395L79.8745 21.8672C80.3917 21.7287 80.9234 22.0356 81.062 22.5528L83.7358 32.5316C83.8744 33.0488 83.5674 33.5805 83.0502 33.7191L79.4216 34.6914ZM78.4139 30.8133L79.1921 33.7176L80.7361 33.3039L79.9578 30.3996L78.4139 30.8133ZM78.2845 30.3303L77.4416 27.1846L78.9855 26.771L79.8284 29.9166L78.2845 30.3303ZM77.3122 26.7017L76.5341 23.7976L78.0779 23.3839L78.8561 26.288L77.3122 26.7017ZM78.5609 23.2545L80.1039 22.841L80.8821 25.7451L79.339 26.1586L78.5609 23.2545ZM81.0115 26.2281L81.8544 29.3738L80.3114 29.7872L79.4685 26.6416L81.0115 26.2281ZM81.9838 29.8567L80.4408 30.2702L81.219 33.1744L82.762 32.761L81.9838 29.8567ZM74.6816 17.0017C74.1644 17.1403 73.6327 16.8334 73.4941 16.3161L70.8204 6.33734C70.6818 5.8201 70.9887 5.28845 71.5059 5.14985L75.1346 4.17756C75.6518 4.03897 76.1835 4.34592 76.3221 4.86316L78.9959 14.8419C79.1345 15.3592 78.8275 15.8908 78.3103 16.0294L74.6816 17.0017ZM73.674 13.1238L74.4522 16.0279L75.9961 15.6142L75.2179 12.7101L73.674 13.1238ZM73.5446 12.6408L72.7017 9.49508L74.2456 9.0814L75.0885 12.2271L73.5446 12.6408ZM72.5723 9.01211L71.7942 6.10791L73.338 5.69424L74.1162 8.59844L72.5723 9.01211ZM73.8209 5.56483L75.364 5.15136L76.1422 8.05557L74.5992 8.46903L73.8209 5.56483ZM76.2716 8.53854L77.1145 11.6843L75.5715 12.0977L74.7286 8.95199L76.2716 8.53854ZM77.2439 12.1672L75.7009 12.5807L76.4791 15.4848L78.0221 15.0714L77.2439 12.1672Z" fill="#969696"/>
<path fill-rule="evenodd" clip-rule="evenodd" d="M69.9851 26.5705L67.3945 16.9025C68.5819 17.3032 69.486 18.0023 70.4106 18.9592C70.775 19.3363 71.0295 19.8176 71.1715 20.3476L71.5335 21.6984C71.6755 22.2284 71.6958 22.7725 71.5687 23.2813C71.2464 24.5723 70.813 25.6298 69.9851 26.5705ZM69.2389 27.6495C69.3398 28.0261 69.7951 28.1438 70.0708 27.8982C71.4916 26.633 72.1197 25.2027 72.539 23.5235C72.7128 22.8274 72.6789 22.1093 72.4994 21.4396L72.1375 20.0888C71.958 19.4191 71.6284 18.7803 71.1297 18.2643C69.9271 17.0197 68.6679 16.0951 66.8049 15.7098C66.4434 15.635 66.1079 15.9645 66.2089 16.3412L67.5943 21.5116L66.4776 21.8109L66.4751 21.8115C66.2307 21.5676 65.8665 21.457 65.509 21.5528C64.9755 21.6957 64.6589 22.244 64.8019 22.7775C64.9448 23.311 65.4931 23.6275 66.0266 23.4846C66.3841 23.3888 66.6443 23.1109 66.7339 22.7774L66.7364 22.7768L67.8531 22.4776L69.2389 27.6495Z" fill="#969696"/>
<path d="M56.5 32.1604C56.5 38.7878 51.1274 44.1604 44.5 44.1604C37.8726 44.1604 32.5 38.7878 32.5 32.1604C32.5 25.533 37.8726 20.1604 44.5 20.1604C51.1274 20.1604 56.5 25.533 56.5 32.1604Z" fill="white"/>
<path fill-rule="evenodd" clip-rule="evenodd" d="M47.7819 42.6625C46.7454 42.986 45.6431 43.1604 44.5 43.1604C42.1724 43.1604 40.0137 42.4375 38.2361 41.2039L42.5691 38.6949C44.3166 40.7251 46.1717 42.1335 47.7819 42.6625ZM42.681 38.0524C41.8367 37.0333 41.0193 35.8628 40.2733 34.5706C39.5349 33.2916 38.9345 32.0117 38.4759 30.7826L46.2022 26.3086C47.04 27.3225 47.8508 28.4854 48.5914 29.7681C49.3353 31.0565 49.939 32.3459 50.3989 33.5833L42.681 38.0524ZM43.0096 38.4399L50.5705 34.0617C51.0191 35.3601 51.305 36.5923 51.4239 37.6949C51.5467 38.8335 51.4888 39.8099 51.2669 40.5706C51.2302 40.6963 51.1894 40.8153 51.1445 40.9276C50.3797 41.5082 49.5365 41.9909 48.6337 42.3573C48.5226 42.3403 48.4083 42.3176 48.2908 42.2888C47.521 42.1006 46.6465 41.6626 45.7218 40.987C44.8289 40.3345 43.9074 39.4737 43.0096 38.4399ZM51.0111 33.8066C51.906 36.3601 52.1971 38.6924 51.8364 40.3567C54.085 38.3426 55.5 35.4167 55.5 32.1604C55.5 31.8469 55.4869 31.5366 55.4612 31.2297L51.0111 33.8066ZM55.4021 30.6862C55.0066 27.7336 53.4398 25.1518 51.1845 23.4237L46.6408 26.0547C47.4794 27.0771 48.2873 28.2413 49.0244 29.5181C49.7646 30.8001 50.3708 32.0871 50.8377 33.3292L55.4021 30.6862ZM42.2423 38.3064L37.7952 40.8815C35.5443 39.1484 33.9832 36.5635 33.5946 33.6091L38.0372 31.0366C38.5027 32.2703 39.1055 33.5479 39.8403 34.8206C40.5828 36.1067 41.3971 37.2786 42.2423 38.3064ZM37.8633 30.5596L33.5367 33.0649C33.5124 32.7666 33.5 32.4649 33.5 32.1604C33.5 28.9829 34.8473 26.1201 37.0017 24.112C36.6818 25.7727 36.984 28.0611 37.8633 30.5596ZM44.5 21.1604C46.8182 21.1604 48.9688 21.8775 50.7423 23.1019L46.3145 25.6658C44.5754 23.64 42.7284 22.2296 41.1214 21.689C42.1859 21.3458 43.3213 21.1604 44.5 21.1604ZM37.4408 26.6438C37.5606 27.7542 37.8497 28.996 38.3038 30.3045L45.8742 25.9208C44.9704 24.8772 44.0422 24.0088 43.1429 23.3517C42.2182 22.6761 41.3437 22.2381 40.574 22.0499C40.4795 22.0268 40.3871 22.0075 40.2967 21.992C39.3482 22.3846 38.4665 22.9059 37.6736 23.5343C37.6466 23.6095 37.6214 23.6874 37.5978 23.7681C37.376 24.5288 37.318 25.5052 37.4408 26.6438ZM38.7383 21.6316C40.4484 20.6937 42.4119 20.1604 44.5 20.1604C51.1274 20.1604 56.5 25.533 56.5 32.1604C56.5 38.7878 51.1274 44.1604 44.5 44.1604C37.8726 44.1604 32.5 38.7878 32.5 32.1604C32.5 27.8756 34.7458 24.1152 38.1244 21.9923C38.2218 21.9136 38.3249 21.8426 38.4339 21.7797C38.5321 21.723 38.6336 21.6736 38.7383 21.6316Z" fill="#969696"/>
<path d="M48.4062 25.8408C48.4062 27.2215 47.2869 28.3408 45.9062 28.3408C44.5256 28.3408 43.4062 27.2215 43.4062 25.8408C43.4062 24.4601 44.5256 23.3408 45.9062 23.3408C47.2869 23.3408 48.4062 24.4601 48.4062 25.8408Z" fill="#305D74"/>
<path fill-rule="evenodd" clip-rule="evenodd" d="M45.7599 22.7818C46.0304 22.7265 46.2049 22.4623 46.1496 22.1918C46.0825 21.8635 45.9827 21.537 45.8537 21.2149C45.7511 20.9585 45.46 20.8339 45.2037 20.9365C44.9473 21.0392 44.8227 21.3302 44.9254 21.5866C45.0339 21.8577 45.1157 22.1269 45.1699 22.392C45.2252 22.6626 45.4893 22.8371 45.7599 22.7818ZM24.2897 21.4827C24.5183 21.6376 24.8292 21.578 24.9842 21.3494C25.1587 21.092 25.3361 20.845 25.5162 20.6079C25.6832 20.388 25.6404 20.0743 25.4205 19.9073C25.2006 19.7402 24.8869 19.7831 24.7199 20.003C24.5287 20.2546 24.3408 20.5163 24.1565 20.7882C24.0015 21.0168 24.0612 21.3277 24.2897 21.4827ZM44.7613 20.1843C44.9818 20.0181 45.0258 19.7045 44.8596 19.484C44.4797 18.98 44.0318 18.496 43.5283 18.0427C43.3231 17.8579 43.007 17.8745 42.8222 18.0797C42.6374 18.2849 42.654 18.6011 42.8592 18.7858C43.3193 19.2001 43.7229 19.6374 44.0611 20.086C44.2273 20.3065 44.5408 20.3505 44.7613 20.1843ZM25.9859 19.245C26.1841 19.4373 26.5006 19.4325 26.6929 19.2343C27.1276 18.7862 27.5736 18.3869 28.0278 18.0329C28.2456 17.8632 28.2846 17.549 28.1149 17.3312C27.9451 17.1133 27.6309 17.0744 27.4131 17.2441C26.9215 17.6272 26.4412 18.0576 25.9751 18.538C25.7829 18.7362 25.7877 19.0527 25.9859 19.245ZM42.1278 17.5515C42.2781 17.3198 42.2121 17.0102 41.9804 16.8599C41.4488 16.5152 40.8803 16.2013 40.2825 15.9258C40.0317 15.8103 39.7347 15.92 39.6191 16.1708C39.5036 16.4216 39.6133 16.7186 39.8641 16.8341C40.4186 17.0896 40.9451 17.3804 41.4363 17.699C41.668 17.8492 41.9776 17.7832 42.1278 17.5515ZM28.8382 16.8499C28.9724 17.0913 29.2768 17.1782 29.5181 17.0441C30.0537 16.7465 30.5968 16.5028 31.1435 16.3083C31.4036 16.2157 31.5395 15.9297 31.4469 15.6696C31.3544 15.4094 31.0684 15.2735 30.8082 15.3661C30.2099 15.579 29.6164 15.8454 29.0324 16.17C28.791 16.3041 28.7041 16.6085 28.8382 16.8499ZM38.8047 15.863C38.8837 15.5984 38.7333 15.3198 38.4687 15.2408C37.8554 15.0577 37.2216 14.9156 36.5739 14.8217C36.3006 14.782 36.0469 14.9714 36.0073 15.2447C35.9677 15.518 36.1571 15.7717 36.4304 15.8113C37.0282 15.898 37.6143 16.0293 38.1825 16.199C38.4471 16.278 38.7257 16.1276 38.8047 15.863ZM32.2885 15.4479C32.3363 15.7198 32.5955 15.9016 32.8674 15.8538C33.4617 15.7495 34.056 15.6968 34.645 15.6906C34.9212 15.6877 35.1426 15.4614 35.1397 15.1853C35.1368 14.9092 34.9106 14.6877 34.6345 14.6906C33.9929 14.6974 33.3442 14.7548 32.6945 14.8689C32.4225 14.9167 32.2407 15.1759 32.2885 15.4479Z" fill="#305D74"/>
<path fill-rule="evenodd" clip-rule="evenodd" d="M58.1333 24.6691C58.3695 25.5508 58.7771 26.3774 59.3328 27.1015C59.8885 27.8257 60.5814 28.4333 61.3719 28.8897C61.611 29.0278 61.9168 28.9459 62.0549 28.7067C62.1929 28.4676 62.111 28.1618 61.8719 28.0237C61.1951 27.633 60.6019 27.1128 60.1262 26.4928C59.6504 25.8728 59.3015 25.1652 59.0992 24.4103C58.897 23.6555 58.8454 22.8682 58.9474 22.0934C59.0494 21.3186 59.303 20.5715 59.6937 19.8947C59.8318 19.6556 59.7498 19.3498 59.5107 19.2117C59.2715 19.0736 58.9658 19.1556 58.8277 19.3947C58.3713 20.1852 58.0751 21.0579 57.9559 21.9629C57.8368 22.8679 57.897 23.7875 58.1333 24.6691ZM60.4267 24.0542C60.5668 24.5769 60.8084 25.0668 61.1378 25.496C61.4671 25.9253 61.8778 26.2854 62.3464 26.556C62.5855 26.6941 62.8913 26.6121 63.0294 26.373C63.1675 26.1338 63.0855 25.828 62.8464 25.69C62.4916 25.4851 62.1805 25.2123 61.9311 24.8873C61.6817 24.5622 61.4987 24.1912 61.3927 23.7954C61.2866 23.3996 61.2596 22.9868 61.313 22.5806C61.3665 22.1744 61.4995 21.7827 61.7044 21.4278C61.8424 21.1887 61.7605 20.8829 61.5214 20.7448C61.2822 20.6067 60.9764 20.6887 60.8383 20.9278C60.5678 21.3964 60.3922 21.9137 60.3216 22.4501C60.251 22.9865 60.2867 23.5316 60.4267 24.0542Z" fill="#305D74"/>
</svg>
