<?xml version="1.0" encoding="utf-8"?>
<!--
  Copyright 2023-2025 Solace Systems. All rights reserved.

  Licensed under the Apache License, Version 2.0 (the "License");
  you may not use this file except in compliance with the License.
  You may obtain a copy of the License at

      http://www.apache.org/licenses/LICENSE-2.0

  Unless required by applicable law or agreed to in writing, software
  distributed under the License is distributed on an "AS IS" BASIS,
  WITHOUT WARRANTIES OR CONDITIONS OF ANY KIND, either express or implied.
  See the License for the specific language governing permissions and
  limitations under the License.
-->
<svg width="89" height="49" viewBox="0 0 89 49" fill="none" xmlns="http://www.w3.org/2000/svg">
<path d="M61.1644 20.5596L65.1513 35.4389C65.1533 35.4461 65.1622 35.4486 65.1677 35.4437C66.9841 33.8278 67.7514 31.9965 68.2865 29.7308C68.4292 29.1265 68.4049 28.4959 68.2442 27.8961L67.6143 25.5453C67.4536 24.9455 67.1594 24.3873 66.7336 23.9352C65.1373 22.2406 63.5571 21.0383 61.1762 20.5472C61.169 20.5457 61.1625 20.5524 61.1644 20.5596Z" fill="white"/>
<path d="M82.4747 25.6999L71.4043 28.6662C70.8709 28.8092 70.3225 28.4926 70.1796 27.9591L69.2589 24.5232C69.116 23.9897 69.4326 23.4414 69.966 23.2985L81.0362 20.3322C81.3657 20.2439 81.7043 20.4394 81.7926 20.7689L82.9112 24.9438C82.9995 25.2732 82.804 25.6117 82.4747 25.6999Z" fill="white"/>
<path fill-rule="evenodd" clip-rule="evenodd" d="M84.1867 22.1163C84.3201 22.0805 84.4571 22.1597 84.4929 22.2931C84.5286 22.4264 84.4495 22.5635 84.3161 22.5992L82.9013 22.9783L83.4237 24.9278C83.5666 25.4613 83.25 26.0096 82.7166 26.1526L71.0499 29.2786C70.5164 29.4216 69.9681 29.105 69.8251 28.5715L68.6457 24.1697C68.5027 23.6362 68.8193 23.0879 69.3528 22.9449L81.0195 19.8189C81.5529 19.6759 82.1013 19.9925 82.2442 20.526L82.7719 22.4954L84.1867 22.1163ZM70.7911 28.3127L82.4578 25.1866L81.2783 20.7848L69.6116 23.9109L70.7911 28.3127Z" fill="#969696"/>
<path d="M82.9427 42.1939C83.0309 42.5233 82.8354 42.8619 82.506 42.9501L77.7347 44.2286C77.4053 44.3169 77.0667 44.1214 76.9785 43.792L73.4626 30.6708C73.3744 30.3414 73.5699 30.0028 73.8992 29.9145L78.6706 28.6361C79 28.5478 79.3386 28.7433 79.4268 29.0727L82.9427 42.1939Z" fill="white"/>
<path d="M76.7102 18.9334C76.7985 19.2628 76.603 19.6013 76.2736 19.6896L71.5023 20.9681C71.1729 21.0563 70.8343 20.8609 70.746 20.5315L67.2302 7.41027C67.142 7.08088 67.3374 6.7423 67.6668 6.65404L72.4382 5.37556C72.7676 5.2873 73.1062 5.48278 73.1944 5.81217L76.7102 18.9334Z" fill="white"/>
<path fill-rule="evenodd" clip-rule="evenodd" d="M71.6845 21.4369C71.0884 21.5966 70.4756 21.2429 70.3159 20.6467L66.8001 7.52552C66.6403 6.92939 66.9941 6.31665 67.5902 6.15692L72.3616 4.87844C72.9577 4.71871 73.5705 5.07247 73.7302 5.6686L77.246 18.7898C77.4057 19.3859 77.052 19.9987 76.4559 20.1584L71.6845 21.4369ZM71.2818 20.3879C71.2986 20.4506 71.363 20.4878 71.4257 20.471L73.5167 19.9107L72.4931 16.0908L70.2887 16.6815L71.2818 20.3879ZM70.1593 16.1985L69.0102 11.9101L71.2145 11.3195L72.3637 15.6079L70.1593 16.1985ZM68.8808 11.4272L67.766 7.2667C67.7492 7.20404 67.7864 7.13963 67.8491 7.12284L69.9399 6.5626L71.0851 10.8365L68.8808 11.4272ZM70.4229 6.43319L72.6204 5.84436C72.6831 5.82757 72.7475 5.86476 72.7643 5.92742L73.8791 10.0879L71.5681 10.7071L70.4229 6.43319ZM74.0085 10.5708L75.1575 14.8592L72.8466 15.4785L71.6975 11.1901L74.0085 10.5708ZM75.287 15.3422L76.2801 19.0486C76.2969 19.1113 76.2597 19.1757 76.197 19.1925L73.9996 19.7813L72.976 15.9614L75.287 15.3422ZM76.5483 43.9072C76.708 44.5034 77.3208 44.8571 77.9169 44.6974L82.6883 43.4189C83.2844 43.2592 83.6382 42.6464 83.4784 42.0503L79.9626 28.9291C79.8029 28.3329 79.1901 27.9792 78.594 28.1389L73.8227 29.4174C73.2265 29.5771 72.8728 30.1899 73.0325 30.786L76.5483 43.9072ZM77.6581 43.7315C77.5954 43.7483 77.531 43.7111 77.5142 43.6484L76.4945 39.8427L78.6991 39.252L79.7493 43.1711L77.6581 43.7315ZM75.216 35.0713L76.3651 39.3597L78.5697 38.769L77.4206 34.4806L75.216 35.0713ZM73.9984 30.5272L75.0866 34.5884L77.2912 33.9977L76.1726 29.823L74.0815 30.3833C74.0188 30.4001 73.9816 30.4645 73.9984 30.5272ZM78.8528 29.1048L76.6555 29.6936L77.7741 33.8682L80.0849 33.2491L78.9967 29.1879C78.9799 29.1252 78.9155 29.088 78.8528 29.1048ZM81.3634 38.0204L80.2143 33.732L77.9035 34.3512L79.0527 38.6396L81.3634 38.0204ZM82.5125 42.3091L81.4928 38.5034L79.1821 39.1225L80.2323 43.0417L82.4295 42.453C82.4921 42.4362 82.5293 42.3718 82.5125 42.3091Z" fill="#969696"/>
<path fill-rule="evenodd" clip-rule="evenodd" d="M65.4199 34.5043L61.8645 21.2352C63.6836 21.7812 65.0024 22.8252 66.371 24.278C66.7345 24.6639 66.9912 25.1465 67.1327 25.6747L67.7626 28.0254C67.9041 28.5536 67.9231 29.0999 67.8012 29.6158C67.3425 31.5583 66.7223 33.1218 65.4199 34.5043ZM64.6697 35.5682C64.7708 35.9452 65.226 36.0622 65.5014 35.8172C67.4238 34.107 68.2267 32.165 68.7745 29.8457C68.9381 29.153 68.9084 28.4381 68.7285 27.7666L68.0986 25.4159C67.9187 24.7444 67.5869 24.1105 67.0989 23.5924C65.4649 21.8577 63.7985 20.5773 61.2786 20.0575C60.9177 19.983 60.5818 20.3119 60.6828 20.6889L62.5467 27.6451L60.9976 28.0601C60.6838 27.6492 60.1421 27.4457 59.6117 27.5879C58.9102 27.7758 58.4939 28.4969 58.6819 29.1983C58.8698 29.8998 59.5909 30.3161 60.2923 30.1281C60.8228 29.986 61.1902 29.5389 61.2565 29.0261L62.8055 28.611L64.6697 35.5682Z" fill="#969696"/>
<path d="M19.2671 25.9624L22.2972 14.6541C22.2991 14.647 22.2926 14.6403 22.2854 14.6418C20.5543 14.9998 19.38 15.8525 18.2188 17.0541C17.7873 17.5007 17.4952 18.0608 17.3345 18.6606L16.9725 20.0114C16.8118 20.6113 16.7847 21.2423 16.9351 21.8448C17.3399 23.4661 17.9306 24.7917 19.2507 25.9672C19.2563 25.9721 19.2652 25.9696 19.2671 25.9624Z" fill="white"/>
<path d="M7.18606 14.4777L15.3737 16.6716C15.9072 16.8145 16.2238 17.3629 16.0808 17.8963L15.5047 20.0467C15.3617 20.5802 14.8134 20.8968 14.2799 20.7538L6.09234 18.56C5.84181 18.4928 5.69313 18.2353 5.76026 17.9848L6.61101 14.8097C6.67813 14.5592 6.93559 14.4106 7.18606 14.4777Z" fill="white"/>
<path fill-rule="evenodd" clip-rule="evenodd" d="M21.5945 15.3447L19.004 25.0127C18.1761 24.072 17.7426 23.0146 17.4203 21.7236C17.2933 21.2148 17.3136 20.6707 17.4556 20.1407L17.8175 18.7899C17.9595 18.2599 18.214 17.7786 18.5784 17.4014C19.5031 16.4445 20.4071 15.7455 21.5945 15.3447ZM22.7802 14.7834C22.8811 14.4067 22.5457 14.0773 22.1842 14.152C20.3211 14.5373 19.0619 15.462 17.8593 16.7065C17.3607 17.2225 17.031 17.8613 16.8516 18.531L16.4896 19.8819C16.3102 20.5516 16.2763 21.2696 16.4501 21.9658C16.8693 23.6449 17.4975 25.0753 18.9183 26.3405C19.194 26.586 19.6492 26.4683 19.7501 26.0917L21.1162 20.9935L22.2332 21.2928L22.2352 21.2933C22.3248 21.6268 22.5849 21.9048 22.9425 22.0006C23.476 22.1435 24.0243 21.827 24.1672 21.2935C24.3102 20.76 23.9936 20.2117 23.4601 20.0687C23.1026 19.973 22.7385 20.0835 22.4941 20.3274L22.4921 20.3269L21.375 20.0276L22.7802 14.7834Z" fill="#969696"/>
<path d="M11.6079 10.5623C11.3833 10.692 11.3064 10.9792 11.436 11.2038L13.3143 14.4571C13.444 14.6817 13.7312 14.7587 13.9558 14.629L22.9025 9.46365C23.1271 9.33398 23.204 9.04679 23.0744 8.82219L21.196 5.56885C21.0664 5.34425 20.7792 5.2673 20.5546 5.39697L11.6079 10.5623Z" fill="white"/>
<path fill-rule="evenodd" clip-rule="evenodd" d="M12.9337 12.7967L15.5372 11.2936L16.3364 12.6779L13.7329 14.181L12.9337 12.7967ZM12.0677 13.2967L12.8821 14.7074C13.1499 15.1711 13.7428 15.33 14.2066 15.0623L23.1533 9.89688C23.617 9.62914 23.7759 9.03615 23.5082 8.57241L21.6299 5.31907C21.3621 4.85532 20.7691 4.69643 20.3054 4.96417L11.3587 10.1296C10.895 10.3973 10.7361 10.9903 11.0038 11.454L11.8177 12.8637L8.41016 14.831L8.66016 15.264L12.0677 13.2967ZM12.6837 12.3637L15.2872 10.8606L14.4885 9.47723L11.885 10.9804L12.6837 12.3637ZM14.9216 9.22723L15.7202 10.6106L18.5405 8.98224L17.7419 7.59892L14.9216 9.22723ZM18.1749 7.34892L18.9736 8.73225L21.5777 7.22877L20.779 5.84541L18.1749 7.34892ZM21.8277 7.66178L19.2236 9.16526L20.0228 10.5496L22.6269 9.04606L21.8277 7.66178ZM19.5898 10.7996L18.7905 9.41526L15.9702 11.0436L16.7695 12.4279L19.5898 10.7996Z" fill="#969696"/>
<path d="M7.9458 24.2338C7.81613 24.0092 7.89308 23.722 8.11767 23.5924L11.371 21.714C11.5956 21.5844 11.8828 21.6613 12.0124 21.8859L17.1778 30.8326C17.3075 31.0572 17.2305 31.3444 17.0059 31.4741L13.7526 33.3524C13.528 33.482 13.2408 33.4051 13.1111 33.1805L7.9458 24.2338Z" fill="white"/>
<path fill-rule="evenodd" clip-rule="evenodd" d="M11.7141 25.566L7.74356 18.689L7.31055 18.939L11.281 25.816L9.87092 26.6301L10.1209 27.0631L11.531 26.249L13.1594 29.0693L11.7493 29.8835L11.9993 30.3165L13.4094 29.5023L14.928 32.1325L15.361 31.8825L13.8424 29.2523L15.2526 28.4382L15.0026 28.0051L13.5924 28.8193L11.9641 25.999L13.3743 25.1848L13.1243 24.7518L11.7141 25.566Z" fill="#969696"/>
<path fill-rule="evenodd" clip-rule="evenodd" d="M12.4456 21.6361C12.1778 21.1723 11.5848 21.0134 11.1211 21.2812L7.86776 23.1595C7.40402 23.4272 7.24513 24.0202 7.51287 24.484L12.6782 33.4307C12.946 33.8944 13.5389 34.0533 14.0027 33.7855L17.256 31.9072C17.7198 31.6395 17.8787 31.0465 17.6109 30.5828L12.4456 21.6361ZM11.5947 22.1624L16.7297 31.0564L13.529 32.9043L8.3941 24.0103L11.5947 22.1624Z" fill="#969696"/>
<path fill-rule="evenodd" clip-rule="evenodd" d="M4.50272 15.939C4.46698 16.0724 4.54613 16.2094 4.67949 16.2452L6.12213 16.6317C6.2555 16.6675 6.39258 16.5883 6.42832 16.455C6.46406 16.3216 6.38491 16.1845 6.25154 16.1488L4.8089 15.7622C4.67554 15.7265 4.53845 15.8056 4.50272 15.939Z" fill="#969696"/>
<path fill-rule="evenodd" clip-rule="evenodd" d="M16.6943 17.5345C16.8372 17.0011 16.5207 16.4527 15.9872 16.3098L7.34602 13.9944C6.81256 13.8514 6.26422 14.168 6.12128 14.7015L5.28627 17.8178C5.14333 18.3512 5.45991 18.8996 5.99338 19.0425L14.6346 21.3579C15.168 21.5009 15.7164 21.1843 15.8593 20.6508L16.6943 17.5345ZM7.0872 14.9603L15.7284 17.2757L14.8934 20.392L6.2522 18.0766L7.0872 14.9603Z" fill="#969696"/>
<path d="M49.6348 32.8286C49.6348 39.456 44.2622 44.8286 37.6348 44.8286C31.0074 44.8286 25.6348 39.456 25.6348 32.8286C25.6348 26.2012 31.0074 20.8286 37.6348 20.8286C44.2622 20.8286 49.6348 26.2012 49.6348 32.8286Z" fill="white"/>
<path fill-rule="evenodd" clip-rule="evenodd" d="M40.9167 43.3307C39.8802 43.6543 38.7779 43.8286 37.6348 43.8286C35.3072 43.8286 33.1485 43.1057 31.3709 41.8722L35.7039 39.3631C37.4514 41.3933 39.3065 42.8017 40.9167 43.3307ZM35.8157 38.7206C34.9715 37.7015 34.1541 36.531 33.4081 35.2388C32.6697 33.9598 32.0693 32.6799 31.6107 31.4508L39.337 26.9769C40.1748 27.9907 40.9856 29.1536 41.7262 30.4363C42.4701 31.7247 43.0738 33.0141 43.5337 34.2515L35.8157 38.7206ZM36.1444 39.1081L43.7053 34.7299C44.1538 36.0283 44.4398 37.2605 44.5587 38.3631C44.6815 39.5017 44.6236 40.4781 44.4017 41.2388C44.365 41.3645 44.3242 41.4835 44.2793 41.5958C43.5145 42.1764 42.6713 42.6591 41.7685 43.0255C41.6574 43.0086 41.543 42.9858 41.4256 42.9571C40.6558 42.7688 39.7813 42.3308 38.8566 41.6552C37.9637 41.0027 37.0422 40.1419 36.1444 39.1081ZM44.1459 34.4748C45.0408 37.0283 45.3319 39.3607 44.9712 41.0249C47.2198 39.0108 48.6348 36.085 48.6348 32.8286C48.6348 32.5152 48.6217 32.2048 48.596 31.898L44.1459 34.4748ZM48.5369 31.3544C48.1414 28.4018 46.5746 25.8201 44.3193 24.0919L39.7756 26.7229C40.6142 27.7453 41.4221 28.9095 42.1592 30.1863C42.8994 31.4683 43.5056 32.7553 43.9725 33.9974L48.5369 31.3544ZM35.3771 38.9746L30.93 41.5497C28.6791 39.8166 27.118 37.2317 26.7293 34.2774L31.172 31.7048C31.6375 32.9385 32.2403 34.2161 32.9751 35.4888C33.7176 36.7749 34.5319 37.9468 35.3771 38.9746ZM30.998 31.2278L26.6714 33.7331C26.6472 33.4348 26.6348 33.1332 26.6348 32.8286C26.6348 29.6511 27.9821 26.7883 30.1365 24.7802C29.8166 26.4409 30.1188 28.7293 30.998 31.2278ZM37.6348 21.8286C39.9529 21.8286 42.1036 22.5457 43.8771 23.7701L39.4493 26.334C37.7102 24.3082 35.8631 22.8978 34.2562 22.3572C35.3207 22.014 36.4561 21.8286 37.6348 21.8286ZM30.5756 27.312C30.6954 28.4224 30.9845 29.6642 31.4386 30.9727L39.009 26.589C38.1052 25.5454 37.177 24.677 36.2777 24.02C35.353 23.3443 34.4785 22.9063 33.7087 22.7181C33.6143 22.695 33.5218 22.6757 33.4315 22.6602C32.483 23.0528 31.6013 23.5741 30.8084 24.2025C30.7814 24.2777 30.7561 24.3556 30.7326 24.4363C30.5107 25.197 30.4528 26.1734 30.5756 27.312ZM31.873 22.2998C33.5832 21.3619 35.5467 20.8286 37.6348 20.8286C44.2622 20.8286 49.6348 26.2012 49.6348 32.8286C49.6348 39.456 44.2622 44.8286 37.6348 44.8286C31.0074 44.8286 25.6348 39.456 25.6348 32.8286C25.6348 28.5438 27.8806 24.7835 31.2592 22.6605C31.3566 22.5818 31.4597 22.5108 31.5687 22.4479C31.6669 22.3912 31.7684 22.3419 31.873 22.2998Z" fill="#969696"/>
<path d="M41.541 26.509C41.541 27.8897 40.4217 29.009 39.041 29.009C37.6603 29.009 36.541 27.8897 36.541 26.509C36.541 25.1283 37.6603 24.009 39.041 24.009C40.4217 24.009 41.541 25.1283 41.541 26.509Z" fill="#305D74"/>
<path fill-rule="evenodd" clip-rule="evenodd" d="M52.2231 31.0354C52.4594 31.917 52.867 32.7436 53.4227 33.4677C53.9783 34.1919 54.6712 34.7995 55.4617 35.2559C55.7009 35.394 56.0066 35.3121 56.1447 35.0729C56.2828 34.8338 56.2009 34.528 55.9617 34.3899C55.2849 33.9992 54.6917 33.479 54.216 32.859C53.7403 32.239 53.3913 31.5314 53.1891 30.7765C52.9868 30.0217 52.9352 29.2344 53.0372 28.4596C53.1392 27.6848 53.3928 26.9377 53.7835 26.2609C53.9216 26.0218 53.8397 25.716 53.6005 25.5779C53.3614 25.4399 53.0556 25.5218 52.9175 25.7609C52.4611 26.5514 52.1649 27.4241 52.0458 28.3291C51.9266 29.2341 51.9869 30.1537 52.2231 31.0354ZM54.5166 30.4204C54.6566 30.9431 54.8982 31.433 55.2276 31.8622C55.557 32.2915 55.9677 32.6517 56.4362 32.9222C56.6754 33.0603 56.9812 32.9783 57.1193 32.7392C57.2573 32.5 57.1754 32.1942 56.9362 32.0562C56.5814 31.8513 56.2704 31.5785 56.021 31.2535C55.7715 30.9284 55.5886 30.5574 55.4825 30.1616C55.3765 29.7658 55.3494 29.3531 55.4029 28.9468C55.4564 28.5406 55.5893 28.1489 55.7942 27.794C55.9323 27.5549 55.8503 27.2491 55.6112 27.111C55.372 26.9729 55.0663 27.0549 54.9282 27.294C54.6577 27.7626 54.4821 28.2799 54.4114 28.8163C54.3408 29.3527 54.3765 29.8978 54.5166 30.4204Z" fill="#305D74"/>
</svg>