<?xml version="1.0" encoding="utf-8"?>
<!--
  Copyright 2023-2025 Solace Systems. All rights reserved.

  Licensed under the Apache License, Version 2.0 (the "License");
  you may not use this file except in compliance with the License.
  You may obtain a copy of the License at

      http://www.apache.org/licenses/LICENSE-2.0

  Unless required by applicable law or agreed to in writing, software
  distributed under the License is distributed on an "AS IS" BASIS,
  WITHOUT WARRANTIES OR CONDITIONS OF ANY KIND, either express or implied.
  See the License for the specific language governing permissions and
  limitations under the License.
-->
<svg width="89" height="49" viewBox="0 0 89 49" fill="none" xmlns="http://www.w3.org/2000/svg">
<path d="M27.843 20.0837L23.8561 34.963C23.8542 34.9702 23.8453 34.9728 23.8397 34.9678C22.0234 33.352 21.256 31.5207 20.7209 29.255C20.5782 28.6506 20.6025 28.0201 20.7633 27.4202L21.3931 25.0695C21.5539 24.4697 21.8481 23.9114 22.2739 23.4594C23.8701 21.7648 25.4503 20.5625 27.8312 20.0714C27.8385 20.0699 27.8449 20.0766 27.843 20.0837Z" fill="white"/>
<path d="M6.53391 25.2241L17.6043 28.1904C18.1378 28.3333 18.6861 28.0168 18.8291 27.4833L19.7497 24.0474C19.8927 23.5139 19.5761 22.9656 19.0426 22.8226L7.97235 19.8564C7.64292 19.7681 7.3043 19.9636 7.21603 20.293L6.09736 24.468C6.00911 24.7973 6.20456 25.1359 6.53391 25.2241Z" fill="white"/>
<path fill-rule="evenodd" clip-rule="evenodd" d="M4.82062 21.6404C4.68726 21.6047 4.55017 21.6839 4.51444 21.8172C4.4787 21.9506 4.55785 22.0877 4.69121 22.1234L6.106 22.5025L5.58364 24.452C5.4407 24.9855 5.75728 25.5338 6.29075 25.6767L17.9575 28.8028C18.4909 28.9458 19.0393 28.6292 19.1822 28.0957L20.3617 23.6939C20.5046 23.1604 20.188 22.6121 19.6546 22.4691L7.98786 19.343C7.45439 19.2001 6.90605 19.5167 6.76311 20.0501L6.23541 22.0195L4.82062 21.6404ZM18.2163 27.8369L6.54956 24.7108L7.72904 20.309L19.3957 23.435L18.2163 27.8369Z" fill="#969696"/>
<path d="M6.06416 41.7181C5.9759 42.0475 6.17137 42.386 6.50077 42.4743L11.2721 43.7528C11.6015 43.841 11.9401 43.6456 12.0284 43.3162L15.5442 30.1949C15.6325 29.8656 15.437 29.527 15.1076 29.4387L10.3362 28.1602C10.0068 28.072 9.66824 28.2674 9.57998 28.5968L6.06416 41.7181Z" fill="white"/>
<path d="M12.2966 18.4575C12.2083 18.7869 12.4038 19.1255 12.7332 19.2138L17.5046 20.4922C17.834 20.5805 18.1725 20.385 18.2608 20.0556L21.7766 6.93444C21.8649 6.60505 21.6694 6.26647 21.34 6.17821L16.5686 4.89973C16.2393 4.81147 15.9007 5.00695 15.8124 5.33634L12.2966 18.4575Z" fill="white"/>
<path fill-rule="evenodd" clip-rule="evenodd" d="M17.3225 20.9611C17.9187 21.1208 18.5314 20.767 18.6911 20.1709L22.207 7.04969C22.3667 6.45356 22.0129 5.84082 21.4168 5.68109L16.6454 4.40261C16.0493 4.24288 15.4366 4.59664 15.2768 5.19277L11.761 18.314C11.6013 18.9101 11.9551 19.5229 12.5512 19.6826L17.3225 20.9611ZM17.7252 19.9121C17.7084 19.9747 17.644 20.0119 17.5814 19.9951L15.4904 19.4349L16.514 15.615L18.7184 16.2057L17.7252 19.9121ZM18.8478 15.7227L19.9968 11.4343L17.7925 10.8437L16.6434 15.132L18.8478 15.7227ZM20.1262 10.9513L21.241 6.79087C21.2578 6.72821 21.2206 6.6638 21.158 6.64701L19.0671 6.08677L17.9219 10.3607L20.1262 10.9513ZM18.5842 5.95736L16.3866 5.36853C16.324 5.35174 16.2596 5.38893 16.2428 5.45159L15.128 9.61207L17.439 10.2313L18.5842 5.95736ZM14.9986 10.095L13.8495 14.3834L16.1604 15.0026L17.3096 10.7142L14.9986 10.095ZM13.7201 14.8664L12.7269 18.5728C12.7102 18.6355 12.7473 18.6999 12.81 18.7167L15.0074 19.3055L16.031 15.4856L13.7201 14.8664ZM12.4587 43.4314C12.299 44.0275 11.6862 44.3813 11.0901 44.2216L6.31875 42.9431C5.72262 42.7833 5.36886 42.1706 5.52859 41.5745L9.04441 28.4532C9.20414 27.8571 9.81689 27.5034 10.413 27.6631L15.1844 28.9416C15.7805 29.1013 16.1343 29.714 15.9745 30.3102L12.4587 43.4314ZM11.3489 43.2556C11.4116 43.2724 11.476 43.2352 11.4928 43.1726L12.5125 39.3669L10.3079 38.7761L9.25771 42.6953L11.3489 43.2556ZM13.791 34.5955L12.6419 38.8839L10.4373 38.2932L11.5865 34.0048L13.791 34.5955ZM15.0086 30.0513L13.9204 34.1125L11.7159 33.5218L12.8345 29.3472L14.9256 29.9075C14.9882 29.9243 15.0254 29.9887 15.0086 30.0513ZM10.1542 28.629L12.3515 29.2178L11.2329 33.3924L8.92215 32.7732L10.0103 28.7121C10.0271 28.6494 10.0915 28.6122 10.1542 28.629ZM7.64366 37.5446L8.79274 33.2562L11.1035 33.8754L9.95436 38.1638L7.64366 37.5446ZM6.49451 41.8333L7.51426 38.0276L9.82494 38.6467L8.77474 42.5659L6.57757 41.9772C6.51491 41.9604 6.47772 41.896 6.49451 41.8333Z" fill="#969696"/>
<path fill-rule="evenodd" clip-rule="evenodd" d="M23.5869 34.0285L27.1423 20.7594C25.3232 21.3054 24.0044 22.3493 22.6359 23.8022C22.2723 24.1881 22.0157 24.6707 21.8741 25.1989L21.2443 27.5496C21.1027 28.0777 21.0837 28.624 21.2056 29.14C21.6644 31.0825 22.2845 32.646 23.5869 34.0285ZM24.3371 35.0924C24.2361 35.4694 23.7808 35.5863 23.5054 35.3414C21.583 33.6312 20.7801 31.6891 20.2324 29.3699C20.0688 28.6771 20.0984 27.9623 20.2783 27.2908L20.9082 24.94C21.0881 24.2685 21.4199 23.6347 21.908 23.1165C23.542 21.3819 25.2083 20.1015 27.7282 19.5816C28.0891 19.5072 28.425 19.836 28.324 20.2131L26.4601 27.1692L28.0092 27.5843C28.323 27.1733 28.8647 26.9699 29.3952 27.1121C30.0966 27.3 30.5129 28.021 30.3249 28.7225C30.137 29.424 29.416 29.8402 28.7145 29.6523C28.184 29.5101 27.8166 29.0631 27.7504 28.5502L26.2013 28.1352L24.3371 35.0924Z" fill="#969696"/>
<path d="M69.7336 25.4758L66.7035 14.1676C66.7016 14.1604 66.7081 14.1537 66.7153 14.1552C68.4464 14.5132 69.6207 15.3659 70.7819 16.5676C71.2134 17.0141 71.5055 17.5742 71.6662 18.174L72.0282 19.5249C72.1889 20.1247 72.216 20.7558 72.0656 21.3583C71.6608 22.9795 71.0701 24.3051 69.75 25.4806C69.7444 25.4856 69.7355 25.483 69.7336 25.4758Z" fill="white"/>
<path d="M81.8139 13.9911L73.6262 16.185C73.0927 16.328 72.7761 16.8763 72.9191 17.4098L73.4952 19.5601C73.6382 20.0936 74.1865 20.4102 74.72 20.2672L82.9076 18.0734C83.1581 18.0063 83.3068 17.7487 83.2396 17.4982L82.3889 14.3231C82.3218 14.0727 82.0643 13.924 81.8139 13.9911Z" fill="white"/>
<path fill-rule="evenodd" clip-rule="evenodd" d="M67.4059 14.8582L69.9964 24.5262C70.8243 23.5854 71.2578 22.528 71.5801 21.237C71.7071 20.7282 71.6868 20.1841 71.5448 19.6541L71.1829 18.3033C71.0409 17.7733 70.7864 17.292 70.422 16.9149C69.4973 15.958 68.5933 15.2589 67.4059 14.8582ZM66.2202 14.2968C66.1193 13.9202 66.4547 13.5907 66.8162 13.6655C68.6793 14.0508 69.9385 14.9754 71.1411 16.22C71.6397 16.736 71.9694 17.3748 72.1488 18.0445L72.5108 19.3953C72.6902 20.065 72.7241 20.7831 72.5503 21.4792C72.1311 23.1584 71.5029 24.5887 70.0821 25.8539C69.8064 26.0994 69.3512 25.9818 69.2503 25.6051L67.8842 20.5069L66.7672 20.8062L66.7652 20.8067C66.6756 21.1403 66.4155 21.4182 66.0579 21.514C65.5244 21.657 64.9761 21.3404 64.8332 20.8069C64.6902 20.2734 65.0068 19.7251 65.5403 19.5822C65.8978 19.4864 66.2619 19.5969 66.5063 19.8408L66.5083 19.8403L67.6254 19.541L66.2202 14.2968Z" fill="#969696"/>
<path d="M77.3927 10.0757C77.6173 10.2054 77.6942 10.4926 77.5646 10.7172L75.6863 13.9705C75.5566 14.1951 75.2694 14.2721 75.0448 14.1424L66.0981 8.97707C65.8735 8.8474 65.7966 8.56021 65.9262 8.33562L67.8046 5.08228C67.9342 4.85768 68.2214 4.78073 68.446 4.9104L77.3927 10.0757Z" fill="white"/>
<path fill-rule="evenodd" clip-rule="evenodd" d="M76.0659 12.3101L73.4624 10.807L72.6632 12.1913L75.2667 13.6945L76.0659 12.3101ZM76.9319 12.8101L76.1175 14.2208C75.8497 14.6846 75.2568 14.8434 74.793 14.5757L65.8463 9.41029C65.3826 9.14255 65.2237 8.54957 65.4914 8.08582L67.3697 4.83248C67.6375 4.36874 68.2305 4.20985 68.6942 4.47759L77.6409 9.64297C78.1046 9.91071 78.2635 10.5037 77.9958 10.9675L77.1819 12.3771L80.5895 14.3444L80.3395 14.7775L76.9319 12.8101ZM76.3159 11.8771L73.7124 10.374L74.5111 8.99065L77.1146 10.4938L76.3159 11.8771ZM74.078 8.74065L73.2794 10.124L70.4591 8.49566L71.2577 7.11233L74.078 8.74065ZM70.8247 6.86233L70.026 8.24567L67.4219 6.74219L68.2206 5.35883L70.8247 6.86233ZM67.1719 7.1752L69.776 8.67868L68.9768 10.063L66.3727 8.55948L67.1719 7.1752ZM69.4098 10.313L70.2091 8.92867L73.0294 10.557L72.2301 11.9413L69.4098 10.313Z" fill="#969696"/>
<path d="M81.0548 23.7472C81.1845 23.5226 81.1076 23.2355 80.883 23.1058L77.6296 21.2275C77.405 21.0978 77.1178 21.1747 76.9882 21.3993L71.8228 30.346C71.6931 30.5706 71.7701 30.8578 71.9947 30.9875L75.248 32.8658C75.4726 32.9955 75.7598 32.9185 75.8895 32.6939L81.0548 23.7472Z" fill="white"/>
<path fill-rule="evenodd" clip-rule="evenodd" d="M77.2856 25.0794L81.2561 18.2024L81.6891 18.4524L77.7187 25.3294L79.1288 26.1436L78.8788 26.5766L77.4687 25.7624L75.8403 28.5827L77.2504 29.3969L77.0004 29.8299L75.5903 29.0158L74.0717 31.646L73.6387 31.3959L75.1573 28.7658L73.7471 27.9516L73.9971 27.5186L75.4073 28.3327L77.0356 25.5124L75.6254 24.6983L75.8754 24.2652L77.2856 25.0794Z" fill="#969696"/>
<path fill-rule="evenodd" clip-rule="evenodd" d="M76.5552 21.1495C76.823 20.6858 77.416 20.5269 77.8797 20.7946L81.1331 22.6729C81.5968 22.9407 81.7557 23.5336 81.488 23.9974L76.3226 32.9441C76.0548 33.4078 75.4619 33.5667 74.9981 33.299L71.7448 31.4207C71.281 31.1529 71.1221 30.5599 71.3899 30.0962L76.5552 21.1495ZM77.4061 21.6758L72.2711 30.5698L75.4718 32.4177L80.6067 23.5237L77.4061 21.6758Z" fill="#969696"/>
<path fill-rule="evenodd" clip-rule="evenodd" d="M84.4967 15.4525C84.5325 15.5859 84.4533 15.723 84.3199 15.7587L82.8773 16.1453C82.7439 16.181 82.6069 16.1018 82.5711 15.9685C82.5354 15.8351 82.6145 15.698 82.7479 15.6623L84.1905 15.2757C84.3239 15.24 84.461 15.3192 84.4967 15.4525Z" fill="#969696"/>
<path fill-rule="evenodd" clip-rule="evenodd" d="M72.3058 17.048C72.1629 16.5145 72.4794 15.9662 73.0129 15.8232L81.6541 13.5078C82.1876 13.3649 82.7359 13.6814 82.8789 14.2149L83.7139 17.3312C83.8568 17.8647 83.5402 18.413 83.0068 18.5559L74.3655 20.8713C73.8321 21.0143 73.2837 20.6977 73.1408 20.1642L72.3058 17.048ZM81.9129 14.4737L73.2717 16.7891L74.1067 19.9054L82.7479 17.59L81.9129 14.4737Z" fill="#969696"/>
<path d="M63.3652 32.3359C63.3652 38.9634 57.9926 44.3359 51.3652 44.3359C44.7378 44.3359 39.3652 38.9634 39.3652 32.3359C39.3652 25.7085 44.7378 20.3359 51.3652 20.3359C57.9926 20.3359 63.3652 25.7085 63.3652 32.3359Z" fill="white"/>
<path fill-rule="evenodd" clip-rule="evenodd" d="M54.6471 42.838C53.6106 43.1616 52.5083 43.3359 51.3652 43.3359C49.0376 43.3359 46.8789 42.613 45.1013 41.3795L49.4343 38.8704C51.1818 40.9007 53.037 42.3091 54.6471 42.838ZM49.5462 38.2279C48.7019 37.2089 47.8845 36.0383 47.1385 34.7461C46.4001 33.4671 45.7998 32.1872 45.3411 30.9581L53.0675 26.4842C53.9052 27.498 54.716 28.6609 55.4566 29.9436C56.2005 31.2321 56.8042 32.5214 57.2641 33.7588L49.5462 38.2279ZM49.8748 38.6154L57.4357 34.2373C57.8843 35.5357 58.1702 36.7678 58.2891 37.8704C58.4119 39.0091 58.354 39.9854 58.1321 40.7461C58.0955 40.8718 58.0546 40.9908 58.0097 41.1031C57.2449 41.6837 56.4017 42.1665 55.4989 42.5328C55.3878 42.5159 55.2735 42.4931 55.156 42.4644C54.3863 42.2762 53.5117 41.8382 52.587 41.1625C51.6941 40.51 50.7726 39.6493 49.8748 38.6154ZM57.8763 33.9821C58.7712 36.5357 59.0623 38.868 58.7016 40.5322C60.9503 38.5181 62.3652 35.5923 62.3652 32.3359C62.3652 32.0225 62.3521 31.7121 62.3264 31.4053L57.8763 33.9821ZM62.2673 30.8617C61.8718 27.9091 60.305 25.3274 58.0497 23.5992L53.506 26.2302C54.3446 27.2526 55.1525 28.4169 55.8897 29.6936C56.6298 30.9756 57.236 32.2626 57.7029 33.5047L62.2673 30.8617ZM49.1075 38.4819L44.6604 41.057C42.4095 39.324 40.8484 36.739 40.4598 33.7847L44.9024 31.2121C45.3679 32.4459 45.9707 33.7235 46.7055 34.9961C47.448 36.2822 48.2623 37.4541 49.1075 38.4819ZM44.7285 30.7351L40.4019 33.2404C40.3776 32.9421 40.3652 32.6405 40.3652 32.3359C40.3652 29.1584 41.7125 26.2956 43.8669 24.2875C43.547 25.9482 43.8492 28.2367 44.7285 30.7351ZM51.3652 21.3359C53.6834 21.3359 55.834 22.053 57.6075 23.2775L53.1798 25.8414C51.4406 23.8155 49.5936 22.4051 47.9866 21.8645C49.0511 21.5213 50.1865 21.3359 51.3652 21.3359ZM44.306 26.8194C44.4258 27.9298 44.7149 29.1715 45.169 30.48L52.7394 26.0963C51.8356 25.0527 50.9074 24.1844 50.0081 23.5273C49.0834 22.8516 48.2089 22.4136 47.4392 22.2254C47.3447 22.2023 47.2523 22.183 47.1619 22.1676C46.2134 22.5601 45.3318 23.0815 44.5388 23.7098C44.5118 23.785 44.4866 23.863 44.463 23.9437C44.2412 24.7044 44.1832 25.6807 44.306 26.8194ZM45.6035 21.8071C47.3136 20.8693 49.2771 20.3359 51.3652 20.3359C57.9926 20.3359 63.3652 25.7085 63.3652 32.3359C63.3652 38.9634 57.9926 44.3359 51.3652 44.3359C44.7378 44.3359 39.3652 38.9634 39.3652 32.3359C39.3652 28.0511 41.611 24.2908 44.9897 22.1678C45.087 22.0891 45.1901 22.0181 45.2991 21.9552C45.3973 21.8985 45.4988 21.8492 45.6035 21.8071Z" fill="#969696"/>
<path d="M55.2734 26.0164C55.2734 27.3971 54.1541 28.5164 52.7734 28.5164C51.3927 28.5164 50.2734 27.3971 50.2734 26.0164C50.2734 24.6356 51.3927 23.5164 52.7734 23.5164C54.1541 23.5164 55.2734 24.6356 55.2734 26.0164Z" fill="#305D74"/>
<path fill-rule="evenodd" clip-rule="evenodd" d="M31.1121 28.7371C31.3852 28.7777 31.6396 28.5892 31.6802 28.316C31.7265 28.0046 31.7793 27.6999 31.8382 27.4019C31.8918 27.131 31.7157 26.8679 31.4448 26.8143C31.1739 26.7607 30.9108 26.9369 30.8572 27.2078C30.7951 27.5217 30.7396 27.8421 30.691 28.169C30.6504 28.4421 30.8389 28.6965 31.1121 28.7371ZM31.6601 25.9532C31.924 26.0346 32.2039 25.8867 32.2853 25.6228C32.4717 25.0185 32.6859 24.4467 32.9245 23.9066C33.0361 23.654 32.9218 23.3587 32.6692 23.2471C32.4166 23.1355 32.1214 23.2498 32.0098 23.5024C31.7551 24.079 31.5274 24.6874 31.3297 25.328C31.2483 25.5919 31.3963 25.8718 31.6601 25.9532ZM33.0795 22.4563C33.3156 22.5995 33.6231 22.5243 33.7663 22.2882C34.09 21.7546 34.4406 21.2603 34.8135 20.8043C34.9884 20.5905 34.9568 20.2755 34.7431 20.1007C34.5293 19.9259 34.2143 19.9574 34.0395 20.1712C33.6367 20.6636 33.2591 21.1963 32.9113 21.7695C32.7681 22.0056 32.8434 22.3131 33.0795 22.4563ZM52.303 22.4982C52.5672 22.4175 52.7159 22.1381 52.6353 21.874C52.5362 21.5493 52.4212 21.236 52.2914 20.9343C52.1822 20.6806 51.8881 20.5635 51.6344 20.6727C51.3808 20.7818 51.2637 21.076 51.3728 21.3296C51.488 21.5972 51.5904 21.876 51.6789 22.1659C51.7595 22.43 52.0389 22.5788 52.303 22.4982ZM51.1896 19.8978C51.4111 19.7329 51.457 19.4196 51.292 19.1981C50.8872 18.6544 50.4243 18.1693 49.9147 17.7443C49.7027 17.5674 49.3874 17.5959 49.2105 17.808C49.0336 18.0201 49.0622 18.3354 49.2742 18.5122C49.7249 18.8881 50.1332 19.3162 50.49 19.7953C50.6549 20.0168 50.9681 20.0627 51.1896 19.8978ZM35.3552 19.4552C35.5406 19.6598 35.8568 19.6754 36.0614 19.49C36.5187 19.0757 36.9978 18.7066 37.4928 18.3818C37.7237 18.2303 37.788 17.9203 37.6365 17.6894C37.485 17.4585 37.175 17.3942 36.9441 17.5457C36.4061 17.8988 35.8859 18.2997 35.39 18.7489C35.1854 18.9343 35.1698 19.2505 35.3552 19.4552ZM48.4644 17.3184C48.5901 17.0726 48.4926 16.7714 48.2468 16.6457C47.6593 16.3454 47.0376 16.106 46.3928 15.9284C46.1265 15.8551 45.8513 16.0114 45.7779 16.2777C45.7046 16.5439 45.861 16.8191 46.1272 16.8925C46.709 17.0527 47.2669 17.2679 47.7917 17.5361C48.0375 17.6618 48.3387 17.5643 48.4644 17.3184ZM38.418 17.2607C38.531 17.5127 38.8268 17.6254 39.0788 17.5124C39.6377 17.2617 40.208 17.0608 40.7824 16.9086C41.0493 16.8379 41.2083 16.5641 41.1376 16.2972C41.0668 16.0303 40.7931 15.8712 40.5262 15.942C39.8997 16.108 39.2782 16.327 38.6697 16.5999C38.4177 16.7129 38.305 17.0087 38.418 17.2607ZM42.0156 16.1404C42.041 16.4154 42.2846 16.6177 42.5595 16.5923C43.1668 16.5361 43.7699 16.533 44.3604 16.5816C44.6356 16.6043 44.8771 16.3995 44.8997 16.1243C44.9224 15.8491 44.7177 15.6076 44.4425 15.585C43.7931 15.5315 43.1317 15.535 42.4674 15.5965C42.1924 15.6219 41.9902 15.8655 42.0156 16.1404Z" fill="#305D74"/>
</svg>