<!--
 Copyright 2023-2025 Solace Systems. All rights reserved.

 Licensed under the Apache License, Version 2.0 (the "License");
 you may not use this file except in compliance with the License.
 You may obtain a copy of the License at

     http://www.apache.org/licenses/LICENSE-2.0

 Unless required by applicable law or agreed to in writing, software
 distributed under the License is distributed on an "AS IS" BASIS,
 WITHOUT WARRANTIES OR CONDITIONS OF ANY KIND, either express or implied.
 See the License for the specific language governing permissions and
 limitations under the License.
-->
<svg width="89" height="49" viewBox="0 0 89 49" fill="none" xmlns="http://www.w3.org/2000/svg">
<path d="M39.2031 31.8665C39.2031 39.0462 33.3828 44.8665 26.2031 44.8665C19.0234 44.8665 13.2031 39.0462 13.2031 31.8665C13.2031 24.6868 19.0234 18.8665 26.2031 18.8665C33.3828 18.8665 39.2031 24.6868 39.2031 31.8665Z" fill="white"/>
<path fill-rule="evenodd" clip-rule="evenodd" d="M29.8963 43.2874C28.7329 43.6634 27.4917 43.8665 26.2031 43.8665C23.6419 43.8665 21.268 43.064 19.3193 41.6969L24.0975 38.93C26.0447 41.1962 28.1164 42.75 29.8963 43.2874ZM24.2093 38.2875C23.2897 37.1788 22.3996 35.9048 21.5876 34.4984C20.7841 33.1067 20.1312 31.7137 19.6328 30.3759L28.0703 25.4902C28.9825 26.5929 29.8652 27.8583 30.6711 29.2541C31.4807 30.6564 32.1375 32.0601 32.6373 33.4073L24.2093 38.2875ZM24.5378 38.675L32.809 33.8856C33.3013 35.3048 33.6149 36.6522 33.745 37.8577C33.8784 39.0947 33.8158 40.1583 33.5734 40.9892C33.5238 41.1595 33.467 41.3188 33.4034 41.4671C32.5977 42.0723 31.7134 42.5785 30.7685 42.9675C30.6175 42.9483 30.4611 42.919 30.2994 42.8795C29.4586 42.6739 28.5063 42.1963 27.5017 41.4623C26.5254 40.7489 25.5182 39.8068 24.5378 38.675ZM33.2495 33.6305C34.2498 36.477 34.5583 39.0711 34.1182 40.8861C36.6224 38.6869 38.2031 35.4612 38.2031 31.8665C38.2031 31.5036 38.187 31.1444 38.1555 30.7897L33.2495 33.6305ZM38.0948 30.2471C37.6615 27.035 35.9574 24.2261 33.5052 22.3431L28.5089 25.2362C29.422 26.3476 30.3017 27.6143 31.1041 29.0041C31.91 30.3999 32.5693 31.8012 33.0762 33.1531L38.0948 30.2471ZM23.7706 38.5415L18.8799 41.3735C16.4323 39.4854 14.7341 36.6731 14.3079 33.4593L19.1941 30.6299C19.6994 31.9724 20.3548 33.3631 21.1546 34.7484C21.9631 36.1487 22.8501 37.424 23.7706 38.5415ZM19.0201 30.1529L14.2484 32.916C14.2184 32.5701 14.2031 32.2201 14.2031 31.8665C14.2031 28.3586 15.7083 25.2023 18.108 23.0081C17.7153 24.8219 18.0371 27.3676 19.0201 30.1529ZM22.4079 20.479C24.1841 21.0309 26.2457 22.5869 28.1826 24.8473L33.0646 22.0204C31.1201 20.6628 28.7546 19.8665 26.2031 19.8665C24.8768 19.8665 23.6007 20.0816 22.4079 20.479ZM19.4605 29.8979L27.7424 25.1023C26.7552 23.9594 25.7405 23.0088 24.757 22.2902C23.7525 21.5562 22.8001 21.0786 21.9593 20.873C21.8244 20.84 21.6932 20.8142 21.5657 20.7953C20.5682 21.2137 19.6391 21.7629 18.8 22.4215C18.7584 22.53 18.7201 22.6439 18.6853 22.7632C18.4429 23.5942 18.3804 24.6577 18.5138 25.8947C18.6447 27.1091 18.962 28.4673 19.4605 29.8979ZM19.962 20.4598C21.8145 19.4441 23.9414 18.8665 26.2031 18.8665C33.3828 18.8665 39.2031 24.6868 39.2031 31.8665C39.2031 39.0462 33.3828 44.8665 26.2031 44.8665C19.0234 44.8665 13.2031 39.0462 13.2031 31.8665C13.2031 27.2253 15.6353 23.1522 19.2945 20.8521C19.4003 20.7664 19.5125 20.6892 19.631 20.6207C19.7378 20.5591 19.8482 20.5055 19.962 20.4598Z" fill="#969696"/>
<path d="M27.8906 28.2795C29.5475 28.2795 30.8906 26.9364 30.8906 25.2795C30.8906 23.6227 29.5475 22.2795 27.8906 22.2795C26.2338 22.2795 24.8906 23.6227 24.8906 25.2795C24.8906 26.9364 26.2338 28.2795 27.8906 28.2795Z" fill="#305D74"/>
<path d="M51.9808 20.631L55.9677 35.5103C55.9696 35.5175 55.9785 35.52 55.984 35.5151C57.8004 33.8993 58.5677 32.0679 59.1028 29.8022C59.2455 29.1979 59.2212 28.5673 59.0605 27.9675L58.4306 25.6168C58.2699 25.0169 57.9757 24.4587 57.5499 24.0067C55.9536 22.3121 54.3734 21.1098 51.9926 20.6187C51.9853 20.6172 51.9788 20.6238 51.9808 20.631Z" fill="white"/>
<path d="M73.2911 25.7715L62.2207 28.7378C61.6873 28.8807 61.1389 28.5641 60.996 28.0307L60.0753 24.5947C59.9324 24.0613 60.249 23.5129 60.7824 23.37L71.8526 20.4037C72.1821 20.3155 72.5207 20.511 72.609 20.8404L73.7276 25.0153C73.8159 25.3447 73.6204 25.6832 73.2911 25.7715Z" fill="white"/>
<path fill-rule="evenodd" clip-rule="evenodd" d="M75.0031 22.1878C75.1365 22.1521 75.2736 22.2312 75.3093 22.3646C75.345 22.498 75.2659 22.635 75.1325 22.6708L73.7177 23.0499L74.2401 24.9994C74.383 25.5328 74.0664 26.0812 73.533 26.2241L61.8663 29.3502C61.3328 29.4931 60.7845 29.1765 60.6415 28.6431L59.4621 24.2412C59.3191 23.7078 59.6357 23.1594 60.1692 23.0165L71.8359 19.8904C72.3693 19.7475 72.9177 20.064 73.0606 20.5975L73.5883 22.5669L75.0031 22.1878ZM61.6075 28.3843L73.2742 25.2582L72.0947 20.8563L60.428 23.9824L61.6075 28.3843Z" fill="#969696"/>
<path d="M73.7591 42.2654C73.8473 42.5948 73.6518 42.9334 73.3225 43.0217L68.5511 44.3002C68.2217 44.3884 67.8831 44.1929 67.7949 43.8635L64.279 30.7423C64.1908 30.4129 64.3863 30.0743 64.7157 29.9861L69.487 28.7076C69.8164 28.6193 70.155 28.8148 70.2432 29.1442L73.7591 42.2654Z" fill="white"/>
<path d="M67.5266 19.0049C67.6149 19.3343 67.4194 19.6729 67.09 19.7611L62.3187 21.0396C61.9893 21.1279 61.6507 20.9324 61.5625 20.603L58.0466 7.48182C57.9584 7.15242 58.1538 6.81384 58.4832 6.72558L63.2546 5.4471C63.584 5.35884 63.9226 5.55432 64.0108 5.88372L67.5266 19.0049Z" fill="white"/>
<path fill-rule="evenodd" clip-rule="evenodd" d="M62.5009 21.5084C61.9048 21.6682 61.292 21.3144 61.1323 20.7183L57.6165 7.59705C57.4567 7.00092 57.8105 6.38818 58.4066 6.22845L63.178 4.94997C63.7741 4.79024 64.3869 5.144 64.5466 5.74013L68.0624 18.8613C68.2222 19.4575 67.8684 20.0702 67.2723 20.2299L62.5009 21.5084ZM62.0982 20.4594C62.115 20.5221 62.1794 20.5593 62.2421 20.5425L64.3331 19.9822L63.3095 16.1624L61.1051 16.753L62.0982 20.4594ZM60.9757 16.2701L59.8266 11.9817L62.0309 11.391L63.1801 15.6794L60.9757 16.2701ZM59.6972 11.4987L58.5824 7.33823C58.5656 7.27557 58.6028 7.21117 58.6655 7.19438L60.7563 6.63413L61.9015 10.9081L59.6972 11.4987ZM61.2393 6.50472L63.4368 5.9159C63.4995 5.89911 63.5639 5.93629 63.5807 5.99895L64.6955 10.1594L62.3845 10.7786L61.2393 6.50472ZM64.8249 10.6424L65.974 14.9308L63.663 15.55L62.5139 11.2616L64.8249 10.6424ZM66.1034 15.4137L67.0965 19.1202C67.1133 19.1828 67.0761 19.2472 67.0134 19.264L64.816 19.8528L63.7924 16.0329L66.1034 15.4137ZM67.3647 43.9788C67.5245 44.5749 68.1372 44.9287 68.7333 44.7689L73.5047 43.4904C74.1008 43.3307 74.4546 42.718 74.2948 42.1218L70.779 29.0006C70.6193 28.4045 70.0065 28.0507 69.4104 28.2104L64.6391 29.4889C64.0429 29.6487 63.6892 30.2614 63.8489 30.8575L67.3647 43.9788ZM68.4745 43.803C68.4118 43.8198 68.3474 43.7826 68.3306 43.7199L67.3109 39.9142L69.5155 39.3235L70.5657 43.2427L68.4745 43.803ZM66.0324 35.1429L67.1815 39.4313L69.3861 38.8405L68.237 34.5521L66.0324 35.1429ZM64.8148 30.5987L65.903 34.6599L68.1076 34.0692L66.989 29.8945L64.8979 30.4549C64.8352 30.4716 64.798 30.536 64.8148 30.5987ZM69.6692 29.1764L67.4719 29.7651L68.5905 33.9398L70.9013 33.3206L69.8131 29.2594C69.7963 29.1968 69.7319 29.1596 69.6692 29.1764ZM72.1798 38.092L71.0307 33.8036L68.7199 34.4227L69.8691 38.7111L72.1798 38.092ZM73.3289 42.3807L72.3092 38.5749L69.9985 39.1941L71.0487 43.1132L73.2459 42.5245C73.3085 42.5077 73.3457 42.4433 73.3289 42.3807Z" fill="#969696"/>
<path fill-rule="evenodd" clip-rule="evenodd" d="M56.2363 34.5758L52.6809 21.3067C54.5 21.8528 55.8188 22.8967 57.1874 24.3496C57.5509 24.7355 57.8076 25.2181 57.9491 25.7462L58.579 28.097C58.7205 28.6251 58.7395 29.1714 58.6176 29.6874C58.1589 31.6299 57.5387 33.1933 56.2363 34.5758ZM55.4861 35.6398C55.5872 36.0168 56.0424 36.1337 56.3178 35.8887C58.2402 34.1785 59.0431 32.2365 59.5909 29.9172C59.7545 29.2245 59.7248 28.5096 59.5449 27.8381L58.915 25.4874C58.7351 24.8159 58.4033 24.182 57.9153 23.6639C56.2813 21.9292 54.6149 20.6488 52.095 20.129C51.7341 20.0546 51.3982 20.3834 51.4992 20.7605L53.3631 27.7166L51.814 28.1317C51.5002 27.7207 50.9586 27.5173 50.4281 27.6594C49.7266 27.8474 49.3103 28.5684 49.4983 29.2699C49.6863 29.9713 50.4073 30.3876 51.1087 30.1996C51.6392 30.0575 52.0066 29.6105 52.0729 29.0976L53.622 28.6825L55.4861 35.6398Z" fill="#969696"/>
<path fill-rule="evenodd" clip-rule="evenodd" d="M43.0395 31.1069C43.2758 31.9886 43.6834 32.8151 44.2391 33.5393C44.7947 34.2634 45.4876 34.8711 46.2781 35.3275C46.5173 35.4655 46.8231 35.3836 46.9611 35.1445C47.0992 34.9053 47.0173 34.5995 46.7781 34.4615C46.1013 34.0707 45.5081 33.5505 45.0324 32.9305C44.5567 32.3105 44.2077 31.6029 44.0055 30.8481C43.8032 30.0932 43.7516 29.3059 43.8536 28.5311C43.9556 27.7564 44.2092 27.0092 44.6 26.3325C44.738 26.0933 44.6561 25.7875 44.4169 25.6495C44.1778 25.5114 43.872 25.5933 43.7339 25.8325C43.2775 26.623 42.9813 27.4956 42.8622 28.4006C42.743 29.3056 42.8033 30.2252 43.0395 31.1069ZM45.333 30.492C45.473 31.0146 45.7146 31.5045 46.044 31.9338C46.3734 32.363 46.7841 32.7232 47.2527 32.9937C47.4918 33.1318 47.7976 33.0499 47.9357 32.8107C48.0737 32.5716 47.9918 32.2658 47.7527 32.1277C47.3978 31.9228 47.0868 31.6501 46.8374 31.325C46.5879 30.9999 46.405 30.6289 46.2989 30.2332C46.1929 29.8374 46.1658 29.4246 46.2193 29.0184C46.2728 28.6121 46.4057 28.2204 46.6106 27.8656C46.7487 27.6264 46.6667 27.3206 46.4276 27.1826C46.1885 27.0445 45.8827 27.1264 45.7446 27.3656C45.4741 27.8341 45.2985 28.3514 45.2278 28.8878C45.1572 29.4243 45.193 29.9693 45.333 30.492Z" fill="#305D74"/>
</svg>
