<svg width="80" height="80" viewBox="0 0 80 80" fill="none" xmlns="http://www.w3.org/2000/svg">
<path opacity="0.1" d="M73.0769 39.5385C73.0769 58.0612 58.0612 73.0769 39.5385 73.0769C21.0157 73.0769 6 58.0612 6 39.5385C6 21.0157 21.0157 6 39.5385 6C58.0612 6 73.0769 21.0157 73.0769 39.5385Z" fill="#033D58"/>
<path fill-rule="evenodd" clip-rule="evenodd" d="M1.3457 76.3077C1.3457 76.0316 1.56956 75.8077 1.8457 75.8077H78.1534C78.4295 75.8077 78.6534 76.0316 78.6534 76.3077C78.6534 76.5839 78.4295 76.8077 78.1534 76.8077H1.8457C1.56956 76.8077 1.3457 76.5839 1.3457 76.3077Z" fill="#969696"/>
<path d="M18.0003 19.0769H62.0003C63.1049 19.0769 64.0003 19.9723 64.0003 21.0769V46.1538H64.7311C65.0072 46.1538 65.2311 46.3777 65.2311 46.6538V48.1154C65.2311 48.3915 65.0072 48.6154 64.7311 48.6154H15.2695C14.9934 48.6154 14.7695 48.3915 14.7695 48.1154V46.6538C14.7695 46.3777 14.9934 46.1538 15.2695 46.1538H16.0003V21.0769C16.0003 19.9723 16.8957 19.0769 18.0003 19.0769Z" fill="white"/>
<path fill-rule="evenodd" clip-rule="evenodd" d="M15.5001 22.0769C15.5001 20.1439 17.0671 18.5769 19.0001 18.5769H61.0001C62.9331 18.5769 64.5001 20.1439 64.5001 22.0769V45.5C65.3285 45.5 66 46.1716 66 47V47.6154C66 48.4438 65.3284 49.1154 64.5 49.1154H15.5C14.6716 49.1154 14 48.4438 14 47.6154V47C14 46.1716 14.6716 45.5 15.5 45.5L15.5001 22.0769ZM16.5001 45.5H63.5001V22.0769C63.5001 20.6962 62.3808 19.5769 61.0001 19.5769H19.0001C17.6193 19.5769 16.5001 20.6962 16.5001 22.0769V45.5ZM15.5 46.5C15.2239 46.5 15 46.7239 15 47V47.6154C15 47.8915 15.2239 48.1154 15.5 48.1154H64.5C64.7761 48.1154 65 47.8915 65 47.6154V47C65 46.7239 64.7761 46.5 64.5 46.5H15.5Z" fill="#969696"/>
<path d="M40 38C46.6274 38 52 32.6274 52 26C52 19.3726 46.6274 14 40 14C33.3726 14 28 19.3726 28 26C28 32.6274 33.3726 38 40 38Z" fill="white"/>
<path fill-rule="evenodd" clip-rule="evenodd" d="M40 14.5C33.6487 14.5 28.5 19.6487 28.5 26C28.5 32.3513 33.6487 37.5 40 37.5C46.3513 37.5 51.5 32.3513 51.5 26C51.5 19.6487 46.3513 14.5 40 14.5ZM27.5 26C27.5 19.0964 33.0964 13.5 40 13.5C46.9036 13.5 52.5 19.0964 52.5 26C52.5 32.9036 46.9036 38.5 40 38.5C33.0964 38.5 27.5 32.9036 27.5 26Z" fill="#969696"/>
<path fill-rule="evenodd" clip-rule="evenodd" d="M33.8344 19.6552C33.7892 21.9566 34.3998 24.8816 35.6992 27.8699C36.9986 30.8583 38.7213 33.2997 40.4352 34.8362C42.1849 36.4047 43.7656 36.9026 44.8701 36.4224C45.9746 35.9421 46.6885 34.4465 46.7346 32.0971C46.7797 29.7958 46.1692 26.8708 44.8698 23.8824C43.5704 20.8941 41.8476 18.4527 40.1338 16.9162C38.3841 15.3476 36.8033 14.8498 35.6989 15.33C34.5944 15.8102 33.8804 17.3059 33.8344 19.6552ZM32.8346 19.6356C32.8822 17.2083 33.619 15.1439 35.3001 14.4129C36.9813 13.6819 38.9936 14.551 40.8013 16.1716C42.6447 17.8243 44.4435 20.3943 45.7868 23.4837C47.1302 26.5731 47.783 29.6414 47.7344 32.1167C47.6868 34.544 46.95 36.6084 45.2689 37.3394C43.5877 38.0704 41.5754 37.2013 39.7677 35.5808C37.9242 33.9281 36.1254 31.3581 34.7821 28.2687C33.4388 25.1793 32.786 22.111 32.8346 19.6356Z" fill="#969696"/>
<path fill-rule="evenodd" clip-rule="evenodd" d="M27.6588 26.4588C27.5487 26.2055 27.6648 25.911 27.918 25.8009L48.0933 17.0284C48.3466 16.9183 48.6411 17.0343 48.7512 17.2875C48.8613 17.5408 48.7453 17.8353 48.4921 17.9454L28.3167 26.7179C28.0635 26.828 27.7689 26.712 27.6588 26.4588Z" fill="#969696"/>
<path fill-rule="evenodd" clip-rule="evenodd" d="M31.2486 34.7123C31.1385 34.4591 31.2545 34.1646 31.5078 34.0545L51.6831 25.282C51.9363 25.1719 52.2309 25.2878 52.341 25.5411C52.4511 25.7943 52.3351 26.0889 52.0818 26.199L31.9065 34.9715C31.6533 35.0816 31.3587 34.9656 31.2486 34.7123Z" fill="#969696"/>
<path fill-rule="evenodd" clip-rule="evenodd" d="M38.7894 7.539C39.1896 7.51313 39.5933 7.5 40 7.5C40.4067 7.5 40.8104 7.51313 41.2106 7.539C41.4862 7.5568 41.6952 7.79463 41.6773 8.0702C41.6595 8.34577 41.4217 8.55472 41.1461 8.53691C40.7673 8.51243 40.3851 8.5 40 8.5C39.6149 8.5 39.2327 8.51243 38.8539 8.53691C38.5783 8.55472 38.3405 8.34577 38.3227 8.0702C38.3049 7.79463 38.5138 7.5568 38.7894 7.539ZM45.3146 8.79012C45.4033 8.52862 45.6872 8.38859 45.9487 8.47733C46.718 8.7384 47.4644 9.04868 48.1844 9.4044C48.432 9.52672 48.5335 9.82658 48.4112 10.0742C48.2889 10.3217 47.989 10.4233 47.7414 10.3009C47.0606 9.96452 46.3547 9.67113 45.6273 9.42428C45.3658 9.33554 45.2258 9.05161 45.3146 8.79012ZM34.6854 8.79012C34.7742 9.05161 34.6342 9.33554 34.3727 9.42428C33.6453 9.67113 32.9394 9.96452 32.2586 10.3009C32.011 10.4233 31.7111 10.3217 31.5888 10.0742C31.4665 9.82658 31.568 9.52672 31.8156 9.4044C32.5356 9.04868 33.282 8.7384 34.0513 8.47733C34.3128 8.38859 34.5967 8.52862 34.6854 8.79012ZM28.5075 12.1368C28.6896 12.3444 28.6691 12.6603 28.4615 12.8424C27.8873 13.3464 27.3464 13.8873 26.8424 14.4615C26.6603 14.6691 26.3444 14.6896 26.1368 14.5075C25.9293 14.3253 25.9087 14.0094 26.0909 13.8019C26.6234 13.1951 27.1951 12.6234 27.8019 12.0909C28.0094 11.9087 28.3253 11.9293 28.5075 12.1368ZM51.4925 12.1368C51.6747 11.9293 51.9906 11.9087 52.1981 12.0909C52.8049 12.6234 53.3766 13.1951 53.9091 13.8019C54.0913 14.0094 54.0707 14.3253 53.8632 14.5075C53.6556 14.6896 53.3397 14.6691 53.1576 14.4615C52.6536 13.8873 52.1127 13.3464 51.5385 12.8424C51.3309 12.6603 51.3104 12.3444 51.4925 12.1368ZM24.0742 17.5888C24.3217 17.7111 24.4233 18.011 24.3009 18.2586C23.9645 18.9394 23.6711 19.6453 23.4243 20.3727C23.3355 20.6342 23.0516 20.7742 22.7901 20.6854C22.5286 20.5967 22.3886 20.3128 22.4773 20.0513C22.7384 19.282 23.0487 18.5356 23.4044 17.8156C23.5267 17.568 23.8266 17.4665 24.0742 17.5888ZM55.9258 17.5888C56.1734 17.4665 56.4733 17.568 56.5956 17.8156C56.9513 18.5356 57.2616 19.282 57.5227 20.0513C57.6114 20.3128 57.4714 20.5967 57.2099 20.6854C56.9484 20.7742 56.6645 20.6342 56.5757 20.3727C56.3289 19.6453 56.0355 18.9394 55.6991 18.2586C55.5767 18.011 55.6783 17.7111 55.9258 17.5888ZM22.0702 24.3227C22.3458 24.3405 22.5547 24.5783 22.5369 24.8539C22.5124 25.2327 22.5 25.6149 22.5 26C22.5 26.3851 22.5124 26.7673 22.5369 27.1461C22.5547 27.4217 22.3458 27.6595 22.0702 27.6773C21.7946 27.6951 21.5568 27.4862 21.539 27.2106C21.5131 26.8104 21.5 26.4067 21.5 26C21.5 25.5933 21.5131 25.1896 21.539 24.7894C21.5568 24.5138 21.7946 24.3048 22.0702 24.3227ZM57.9298 24.3227C58.2054 24.3049 58.4432 24.5138 58.461 24.7894C58.4869 25.1896 58.5 25.5933 58.5 26C58.5 26.4067 58.4869 26.8104 58.461 27.2106C58.4432 27.4862 58.2054 27.6952 57.9298 27.6773C57.6542 27.6595 57.4453 27.4217 57.4631 27.1461C57.4876 26.7673 57.5 26.3851 57.5 26C57.5 25.6149 57.4876 25.2327 57.4631 24.8539C57.4453 24.5783 57.6542 24.3405 57.9298 24.3227ZM22.7901 31.3146C23.0516 31.2258 23.3355 31.3658 23.4243 31.6273C23.6711 32.3547 23.9645 33.0606 24.3009 33.7414C24.4233 33.989 24.3217 34.2889 24.0742 34.4112C23.8266 34.5335 23.5267 34.432 23.4044 34.1844C23.0487 33.4644 22.7384 32.718 22.4773 31.9487C22.3886 31.6872 22.5286 31.4033 22.7901 31.3146ZM57.2099 31.3146C57.4714 31.4033 57.6114 31.6872 57.5227 31.9487C57.2616 32.718 56.9513 33.4644 56.5956 34.1844C56.4733 34.432 56.1734 34.5335 55.9258 34.4112C55.6783 34.2889 55.5767 33.989 55.6991 33.7414C56.0355 33.0606 56.3289 32.3547 56.5757 31.6273C56.6645 31.3658 56.9484 31.2258 57.2099 31.3146ZM26.1368 37.4925C26.3444 37.3104 26.6603 37.3309 26.8424 37.5385C27.3464 38.1127 27.8873 38.6536 28.4615 39.1576C28.6691 39.3397 28.6896 39.6556 28.5075 39.8632C28.3253 40.0707 28.0094 40.0913 27.8019 39.9091C27.1951 39.3766 26.6234 38.8049 26.0909 38.1981C25.9087 37.9906 25.9293 37.6747 26.1368 37.4925ZM53.8632 37.4925C54.0707 37.6747 54.0913 37.9906 53.9091 38.1981C53.3766 38.8049 52.8049 39.3766 52.1981 39.9091C51.9906 40.0913 51.6747 40.0707 51.4925 39.8632C51.3104 39.6556 51.3309 39.3397 51.5385 39.1576C52.1127 38.6536 52.6536 38.1127 53.1576 37.5385C53.3397 37.3309 53.6556 37.3104 53.8632 37.4925ZM31.5888 41.9258C31.7111 41.6783 32.011 41.5767 32.2586 41.6991C32.9394 42.0355 33.6453 42.3289 34.3727 42.5757C34.6342 42.6645 34.7742 42.9484 34.6854 43.2099C34.5967 43.4714 34.3128 43.6114 34.0513 43.5227C33.282 43.2616 32.5356 42.9513 31.8156 42.5956C31.568 42.4733 31.4665 42.1734 31.5888 41.9258ZM48.4112 41.9258C48.5335 42.1734 48.432 42.4733 48.1844 42.5956C47.4644 42.9513 46.718 43.2616 45.9487 43.5227C45.6872 43.6114 45.4033 43.4714 45.3146 43.2099C45.2258 42.9484 45.3658 42.6645 45.6273 42.5757C46.3547 42.3289 47.0606 42.0355 47.7414 41.6991C47.989 41.5767 48.2889 41.6783 48.4112 41.9258ZM38.3227 43.9298C38.3405 43.6542 38.5783 43.4453 38.8539 43.4631C39.2327 43.4876 39.6149 43.5 40 43.5C40.3851 43.5 40.7673 43.4876 41.1461 43.4631C41.4217 43.4453 41.6595 43.6542 41.6773 43.9298C41.6951 44.2054 41.4862 44.4432 41.2106 44.461C40.8104 44.4869 40.4067 44.5 40 44.5C39.5933 44.5 39.1896 44.4869 38.7894 44.461C38.5138 44.4432 38.3048 44.2054 38.3227 43.9298Z" fill="#969696"/>
<path d="M24.0769 22.1538C25.7763 22.1538 27.1538 20.7763 27.1538 19.0769C27.1538 17.3776 25.7763 16 24.0769 16C22.3776 16 21 17.3776 21 19.0769C21 20.7763 22.3776 22.1538 24.0769 22.1538Z" fill="#305D74"/>
<path fill-rule="evenodd" clip-rule="evenodd" d="M24.0769 16.5C22.6537 16.5 21.5 17.6537 21.5 19.0769C21.5 20.5001 22.6537 21.6538 24.0769 21.6538C25.5001 21.6538 26.6538 20.5001 26.6538 19.0769C26.6538 17.6537 25.5001 16.5 24.0769 16.5ZM20.5 19.0769C20.5 17.1014 22.1014 15.5 24.0769 15.5C26.0524 15.5 27.6538 17.1014 27.6538 19.0769C27.6538 21.0524 26.0524 22.6538 24.0769 22.6538C22.1014 22.6538 20.5 21.0524 20.5 19.0769Z" fill="#305D74"/>
<path d="M27.9231 36H25C24.4477 36 24 36.4477 24 37V39.3077C24 39.86 24.4477 40.3077 25 40.3077H27.9231C28.4754 40.3077 28.9231 39.86 28.9231 39.3077V37C28.9231 36.4477 28.4754 36 27.9231 36Z" fill="white"/>
<path fill-rule="evenodd" clip-rule="evenodd" d="M23.5 37C23.5 36.1716 24.1716 35.5 25 35.5H27.9231C28.7515 35.5 29.4231 36.1716 29.4231 37V39.3077C29.4231 40.1361 28.7515 40.8077 27.9231 40.8077H25C24.1716 40.8077 23.5 40.1361 23.5 39.3077V37ZM25 36.5C24.7239 36.5 24.5 36.7239 24.5 37V39.3077C24.5 39.5838 24.7239 39.8077 25 39.8077H27.9231C28.1992 39.8077 28.4231 39.5838 28.4231 39.3077V37C28.4231 36.7239 28.1992 36.5 27.9231 36.5H25Z" fill="#969696"/>
<path fill-rule="evenodd" clip-rule="evenodd" d="M55.4231 34.1703C54.8085 34.1703 54.254 33.9129 53.8616 33.5C53.2268 33.7121 52.6496 34.0501 52.1596 34.4842C52.3205 35.0302 52.266 35.6385 51.959 36.1703C51.6518 36.7024 51.1518 37.0539 50.5981 37.1873C50.5338 37.505 50.5 37.8337 50.5 38.1703C50.5 38.5069 50.5338 38.8356 50.5981 39.1533C51.1518 39.2867 51.6518 39.6382 51.959 40.1703C52.266 40.7021 52.3205 41.3104 52.1596 41.8564C52.6496 42.2905 53.2268 42.6285 53.8616 42.8406C54.254 42.4277 54.8085 42.1703 55.4231 42.1703C56.0377 42.1703 56.5921 42.4277 56.9845 42.8406C57.6193 42.6285 58.1965 42.2905 58.6865 41.8564C58.5257 41.3104 58.5801 40.7021 58.8872 40.1703C59.1944 39.6382 59.6944 39.2868 60.248 39.1533C60.3124 38.8357 60.3462 38.5069 60.3462 38.1703C60.3462 37.8337 60.3124 37.5049 60.248 37.1873C59.6944 37.0538 59.1944 36.7024 58.8872 36.1703C58.5801 35.6385 58.5257 35.0302 58.6865 34.4842C58.1965 34.0501 57.6193 33.7121 56.9845 33.5C56.5921 33.9129 56.0377 34.1703 55.4231 34.1703ZM55.4231 40.0165C56.4427 40.0165 57.2692 39.1899 57.2692 38.1703C57.2692 37.1507 56.4427 36.3241 55.4231 36.3241C54.4035 36.3241 53.5769 37.1507 53.5769 38.1703C53.5769 39.1899 54.4035 40.0165 55.4231 40.0165Z" fill="white"/>
<path fill-rule="evenodd" clip-rule="evenodd" d="M54.0049 32.9249L54.224 33.1555C54.526 33.4732 54.9511 33.6703 55.4231 33.6703C55.895 33.6703 56.3202 33.4732 56.6221 33.1555L56.8413 32.9249L57.143 33.0258C57.8429 33.2596 58.4787 33.6321 59.0181 34.11L59.256 34.3207L59.1662 34.6256C59.0424 35.0456 59.0844 35.5119 59.3202 35.9203C59.5561 36.3289 59.9392 36.5985 60.3652 36.7012L60.6748 36.7759L60.738 37.088C60.809 37.4381 60.8462 37.8001 60.8462 38.1703C60.8462 38.5404 60.809 38.9024 60.738 39.2526L60.6748 39.5647L60.3652 39.6393C59.9392 39.742 59.5561 40.0116 59.3202 40.4203C59.0844 40.8287 59.0424 41.2949 59.1662 41.715L59.256 42.0198L59.0181 42.2306C58.4787 42.7085 57.8429 43.0809 57.143 43.3148L56.8413 43.4156L56.6221 43.185C56.3202 42.8673 55.895 42.6703 55.4231 42.6703C54.9511 42.6703 54.526 42.8673 54.224 43.185L54.0049 43.4156L53.7031 43.3148C53.0033 43.0809 52.3675 42.7085 51.828 42.2306L51.5902 42.0198L51.68 41.715C51.8038 41.2949 51.7618 40.8287 51.526 40.4203C51.29 40.0116 50.907 39.742 50.481 39.6393L50.1714 39.5647L50.1081 39.2526C50.0372 38.9024 50 38.5404 50 38.1703C50 37.8001 50.0372 37.4381 50.1081 37.088L50.1714 36.7759L50.481 36.7012C50.907 36.5985 51.29 36.3289 51.526 35.9203C51.7618 35.5119 51.8038 35.0456 51.68 34.6256L51.5902 34.3207L51.828 34.11C52.3675 33.6321 53.0033 33.2596 53.7031 33.0258L54.0049 32.9249ZM52.7142 34.6735C52.8075 35.2544 52.7092 35.8708 52.392 36.4203C52.0747 36.9699 51.5898 37.3632 51.0399 37.5728C51.0136 37.768 51 37.9674 51 38.1703C51 38.3731 51.0136 38.5725 51.0399 38.7677C51.5898 38.9773 52.0747 39.3707 52.392 39.9203C52.7092 40.4698 52.8075 41.0862 52.7142 41.6671C53.0281 41.9107 53.3756 42.1128 53.7483 42.2654C54.2048 41.8937 54.7881 41.6703 55.4231 41.6703C56.058 41.6703 56.6413 41.8937 57.0979 42.2654C57.4706 42.1128 57.818 41.9107 58.132 41.6671C58.0387 41.0862 58.1369 40.4698 58.4542 39.9203C58.7715 39.3707 59.2563 38.9773 59.8062 38.7677C59.8325 38.5725 59.8462 38.3731 59.8462 38.1703C59.8462 37.9674 59.8325 37.768 59.8062 37.5728C59.2563 37.3632 58.7715 36.9699 58.4542 36.4203C58.1369 35.8708 58.0387 35.2544 58.132 34.6735C57.818 34.4299 57.4706 34.2277 57.0979 34.0751C56.6413 34.4469 56.058 34.6703 55.4231 34.6703C54.7881 34.6703 54.2048 34.4469 53.7483 34.0751C53.3756 34.2277 53.0281 34.4299 52.7142 34.6735ZM55.4231 36.8241C54.6796 36.8241 54.0769 37.4268 54.0769 38.1703C54.0769 38.9137 54.6796 39.5164 55.4231 39.5164C56.1665 39.5164 56.7692 38.9137 56.7692 38.1703C56.7692 37.4268 56.1665 36.8241 55.4231 36.8241ZM53.0769 38.1703C53.0769 36.8745 54.1273 35.8241 55.4231 35.8241C56.7188 35.8241 57.7692 36.8745 57.7692 38.1703C57.7692 39.466 56.7188 40.5164 55.4231 40.5164C54.1273 40.5164 53.0769 39.466 53.0769 38.1703Z" fill="#969696"/>
<path fill-rule="evenodd" clip-rule="evenodd" d="M12.9238 60.3077L17.2314 57.8462H62.7699L67.0776 60.3077V63.3847H62.7699H59.9238H20.0776H17.2314H12.9238V60.3077Z" fill="white"/>
<path d="M17.2305 63.3846V75.9999H20.0767V63.3846H17.2305Z" fill="white"/>
<path d="M62.7699 75.9999V63.3846H59.9238V75.9999H62.7699Z" fill="white"/>
<path fill-rule="evenodd" clip-rule="evenodd" d="M17.0987 57.3462H62.9027L67.5776 60.0176V63.8847H63.2699V76.5H59.4238V63.8847H20.5776V76.5H16.7314V63.8847H12.4238V60.0176L17.0987 57.3462ZM17.7314 63.8847V75.5H19.5776V63.8847H17.7314ZM60.4238 63.8847V75.5H62.2699V63.8847H60.4238ZM17.3642 58.3462L13.4238 60.5979V62.8847H66.5776V60.5979L62.6371 58.3462H17.3642Z" fill="#969696"/>
<path fill-rule="evenodd" clip-rule="evenodd" d="M67.0776 61.1155H12.9238V60.1155H67.0776V61.1155Z" fill="#969696"/>
<path d="M43.0497 51.0769H36.9491C36.0391 51.0769 35.2555 51.7192 35.0771 52.6116L34.9852 53.0711C34.0219 57.8873 33.4556 62.7746 33.292 67.6835C33.2582 68.6978 34.0713 69.5384 35.0861 69.5384H39.9994H44.9127C45.9275 69.5384 46.7406 68.6978 46.7068 67.6835C46.5432 62.7746 45.9769 57.8873 45.0136 53.071L44.9217 52.6116C44.7433 51.7192 43.9597 51.0769 43.0497 51.0769Z" fill="white"/>
<path fill-rule="evenodd" clip-rule="evenodd" d="M34.5868 52.5135C34.812 51.3875 35.8008 50.5769 36.9491 50.5769H43.0497C44.1981 50.5769 45.1868 51.3875 45.412 52.5135L45.5039 52.973C46.4726 57.8161 47.042 62.7306 47.2066 67.6669C47.2498 68.9637 46.2102 70.0384 44.9127 70.0384H40.4994V74.8846H43.9994C44.2756 74.8846 44.4994 75.1085 44.4994 75.3846C44.4994 75.6607 44.2756 75.8846 43.9994 75.8846H35.9994C35.7233 75.8846 35.4994 75.6607 35.4994 75.3846C35.4994 75.1085 35.7233 74.8846 35.9994 74.8846H39.4994V70.0384H35.0862C33.7886 70.0384 32.7491 68.9637 32.7923 67.6669C32.9568 62.7306 33.5263 57.8161 34.4949 52.973L34.5868 52.5135ZM36.9491 51.5769C36.2774 51.5769 35.6991 52.051 35.5674 52.7097L35.4755 53.1691C34.5176 57.9586 33.9545 62.8186 33.7917 67.7002C33.7674 68.432 34.354 69.0384 35.0862 69.0384H44.9127C45.6449 69.0384 46.2315 68.432 46.2071 67.7002C46.0444 62.8186 45.4812 57.9586 44.5234 53.1691L44.4315 52.7097C44.2997 52.051 43.7214 51.5769 43.0497 51.5769H36.9491Z" fill="#969696"/>
</svg>
