<!--
 Copyright 2023-2025 Solace Systems. All rights reserved.

 Licensed under the Apache License, Version 2.0 (the "License");
 you may not use this file except in compliance with the License.
 You may obtain a copy of the License at

     http://www.apache.org/licenses/LICENSE-2.0

 Unless required by applicable law or agreed to in writing, software
 distributed under the License is distributed on an "AS IS" BASIS,
 WITHOUT WARRANTIES OR CONDITIONS OF ANY KIND, either express or implied.
 See the License for the specific language governing permissions and
 limitations under the License.
-->
<svg width="130" height="130" viewBox="0 0 130 130" fill="none" xmlns="http://www.w3.org/2000/svg">
<g clip-path="url(#clip0_121_2971)">
<mask id="mask0_121_2971" style="mask-type:luminance" maskUnits="userSpaceOnUse" x="0" y="0" width="130" height="130">
<path d="M130 0H0V130H130V0Z" fill="white"/>
</mask>
<g mask="url(#mask0_121_2971)">
<path opacity="0.1" d="M119.5 64C119.5 94.0995 95.0995 118.5 65 118.5C34.9005 118.5 10.5 94.0995 10.5 64C10.5 33.9005 34.9005 9.5 65 9.5C95.0995 9.5 119.5 33.9005 119.5 64Z" fill="#033D58"/>
<path d="M29.1543 100.285H30.1543V122.285H29.1543V100.285Z" fill="white"/>
<path d="M100.154 100.285H101.154V122.285H100.154V100.285Z" fill="white"/>
<path fill-rule="evenodd" clip-rule="evenodd" d="M29.1839 93.0859H101.674L109.4 97.8858V103.886H20.5996V97.8859L29.1839 93.0859Z" fill="white"/>
<path fill-rule="evenodd" clip-rule="evenodd" d="M21.1777 97.8858V103.886H27.7324V124.284H32.7324V103.886H98.7324V124.284H103.732V103.886H109.978V97.8859L102.252 93.0859H29.7621L21.1777 97.8858ZM29.7324 122.565V103.886H30.7324V122.565H29.7324ZM100.732 122.565V103.886H101.732V122.565H100.732ZM24.5618 98.2852H106.831L101.681 95.0859H30.2832L24.5618 98.2852ZM107.978 99.2852H23.1777V101.886H107.978V99.2852Z" fill="#969696"/>
<path d="M128 123.285H2V124.285H128V123.285Z" fill="#969696"/>
<path d="M25.1738 33.7773C25.1738 31.5682 26.9647 29.7773 29.1738 29.7773H101.404C103.613 29.7773 105.404 31.5682 105.404 33.7773V77.9154H25.1738V33.7773Z" fill="white"/>
<path fill-rule="evenodd" clip-rule="evenodd" d="M101.982 31.7773H29.752C28.6475 31.7773 27.752 32.6728 27.752 33.7773V75.9154H103.982V33.7773C103.982 32.6728 103.086 31.7773 101.982 31.7773ZM29.752 29.7773C27.5429 29.7773 25.752 31.5682 25.752 33.7773V77.9154H105.982V33.7773C105.982 31.5682 104.191 29.7773 101.982 29.7773H29.752Z" fill="#969696"/>
<path fill-rule="evenodd" clip-rule="evenodd" d="M29.7891 34.418C30.0652 34.418 30.2891 34.6418 30.2891 34.918V71.918C30.2891 72.1941 30.0652 72.418 29.7891 72.418C29.513 72.418 29.2891 72.1941 29.2891 71.918V34.918C29.2891 34.6418 29.513 34.418 29.7891 34.418Z" fill="#969696"/>
<path fill-rule="evenodd" clip-rule="evenodd" d="M101.949 34.418C102.225 34.418 102.449 34.6418 102.449 34.918V71.918C102.449 72.1941 102.225 72.418 101.949 72.418C101.672 72.418 101.449 72.1941 101.449 71.918V34.918C101.449 34.6418 101.672 34.418 101.949 34.418Z" fill="#969696"/>
<path d="M71.6087 36.4492H61.5742C61.2981 36.4492 61.0742 36.6731 61.0742 36.9492V39.763C61.0742 40.0392 61.2981 40.263 61.5742 40.263H71.6087C71.8849 40.263 72.1087 40.0392 72.1087 39.763V36.9492C72.1087 36.6731 71.8849 36.4492 71.6087 36.4492Z" fill="white" stroke="#969696"/>
<path d="M23.2891 76.1641C23.2891 75.0595 24.1845 74.1641 25.2891 74.1641H105.289C106.393 74.1641 107.289 75.0595 107.289 76.1641V78.1641C107.289 79.2686 106.393 80.1641 105.289 80.1641H25.2891C24.1845 80.1641 23.2891 79.2686 23.2891 78.1641V76.1641Z" fill="white"/>
<path fill-rule="evenodd" clip-rule="evenodd" d="M105.866 76.1641H25.8652V78.1641H105.866V76.1641ZM25.8652 74.1641C24.7606 74.1641 23.8652 75.0595 23.8652 76.1641V78.1641C23.8652 79.2686 24.7606 80.1641 25.8652 80.1641H105.866C106.97 80.1641 107.866 79.2686 107.866 78.1641V76.1641C107.866 75.0595 106.97 74.1641 105.866 74.1641H25.8652Z" fill="#969696"/>
<path fill-rule="evenodd" clip-rule="evenodd" d="M64.3693 18.5413C64.8647 18.5139 65.3637 18.5 65.8658 18.5C66.3679 18.5 66.8669 18.5139 67.3623 18.5413C67.638 18.5565 67.8491 18.7924 67.8339 19.0681C67.8187 19.3438 67.5828 19.555 67.3071 19.5397C66.83 19.5134 66.3495 19.5 65.8658 19.5C65.3821 19.5 64.9016 19.5134 64.4246 19.5397C64.1488 19.555 63.913 19.3438 63.8977 19.0681C63.8825 18.7924 64.0936 18.5565 64.3693 18.5413ZM61.006 19.4453C61.0621 19.7157 60.8884 19.9804 60.618 20.0365C59.6702 20.2333 58.7416 20.4823 57.8353 20.7804C57.573 20.8666 57.2904 20.7239 57.2041 20.4616C57.1178 20.1993 57.2605 19.9167 57.5228 19.8304C58.4648 19.5206 59.4298 19.2618 60.4148 19.0574C60.6852 19.0012 60.9498 19.1749 61.006 19.4453ZM70.7256 19.4453C70.7818 19.1749 71.0465 19.0012 71.3168 19.0574C72.3018 19.2618 73.2669 19.5206 74.2088 19.8304C74.4711 19.9167 74.6138 20.1993 74.5275 20.4616C74.4413 20.7239 74.1587 20.8666 73.8964 20.7804C72.99 20.4823 72.0614 20.2333 71.1136 20.0365C70.8432 19.9804 70.6695 19.7157 70.7256 19.4453ZM54.5103 21.5787C54.6349 21.8251 54.5362 22.1259 54.2898 22.2505C53.4299 22.6855 52.5978 23.1674 51.7968 23.6929C51.5659 23.8443 51.256 23.78 51.1045 23.5491C50.953 23.3182 51.0174 23.0082 51.2483 22.8567C52.0804 22.3108 52.945 21.8101 53.8384 21.3582C54.0848 21.2336 54.3856 21.3323 54.5103 21.5787ZM77.2214 21.5787C77.346 21.3323 77.6468 21.2336 77.8932 21.3582C78.7867 21.8101 79.6512 22.3108 80.4833 22.8568C80.7142 23.0082 80.7786 23.3182 80.6271 23.5491C80.4757 23.78 80.1657 23.8444 79.9348 23.6929C79.1338 23.1674 78.3017 22.6855 77.4418 22.2505C77.1954 22.1259 77.0967 21.8251 77.2214 21.5787ZM48.7921 25.3261C48.9761 25.5319 48.9585 25.848 48.7527 26.0321C48.0364 26.6726 47.3563 27.3527 46.7157 28.069C46.5316 28.2748 46.2155 28.2925 46.0097 28.1084C45.8039 27.9243 45.7862 27.6082 45.9703 27.4024C46.6356 26.6584 47.3421 25.952 48.0861 25.2866C48.2919 25.1026 48.608 25.1202 48.7921 25.3261ZM82.9396 25.3261C83.1236 25.1202 83.4397 25.1026 83.6456 25.2866C84.3896 25.952 85.096 26.6584 85.7613 27.4024C85.9454 27.6082 85.9278 27.9243 85.7219 28.1084C85.5161 28.2925 85.2 28.2748 85.0159 28.069C84.3754 27.3527 83.6952 26.6726 82.979 26.0321C82.7731 25.848 82.7555 25.5319 82.9396 25.3261ZM44.2327 30.4208C44.4636 30.5723 44.528 30.8823 44.3765 31.1132C43.851 31.9142 43.3691 32.7463 42.9342 33.6061C42.8096 33.8525 42.5088 33.9512 42.2623 33.8266C42.0159 33.702 41.9172 33.4012 42.0419 33.1548C42.4938 32.2613 42.9945 31.3968 43.5404 30.5646C43.6919 30.3337 44.0018 30.2694 44.2327 30.4208ZM87.4989 30.4208C87.7298 30.2694 88.0397 30.3337 88.1912 30.5646C88.7371 31.3968 89.2378 32.2613 89.6898 33.1548C89.8144 33.4012 89.7157 33.702 89.4693 33.8266C89.2229 33.9513 88.9221 33.8525 88.7974 33.6061C88.3625 32.7463 87.8806 31.9142 87.3551 31.1132C87.2036 30.8823 87.268 30.5723 87.4989 30.4208ZM41.1453 36.5204C41.4076 36.6067 41.5503 36.8893 41.464 37.1516C41.1659 38.058 40.9169 38.9866 40.7201 39.9344C40.664 40.2048 40.3993 40.3785 40.1289 40.3223C39.8586 40.2662 39.6849 40.0015 39.741 39.7311C39.9455 38.7462 40.2043 37.7811 40.5141 36.8392C40.6003 36.5769 40.8829 36.4341 41.1453 36.5204ZM90.5864 36.5204C90.8487 36.4342 91.1313 36.5769 91.2175 36.8392C91.5273 37.7811 91.7861 38.7462 91.9906 39.7311C92.0467 40.0015 91.8731 40.2662 91.6027 40.3223C91.3323 40.3785 91.0676 40.2048 91.0115 39.9344C90.8147 38.9866 90.5657 38.058 90.2676 37.1516C90.1813 36.8893 90.324 36.6067 90.5864 36.5204ZM39.7518 43.2141C40.0275 43.2293 40.2386 43.4652 40.2234 43.7409C40.197 44.2179 40.1836 44.6985 40.1836 45.1822C40.1836 45.6659 40.197 46.1464 40.2234 46.6234C40.2386 46.8991 40.0275 47.135 39.7518 47.1502C39.476 47.1655 39.2402 46.9543 39.2249 46.6786C39.1975 46.1832 39.1836 45.6843 39.1836 45.1822C39.1836 44.68 39.1975 44.1811 39.2249 43.6857C39.2402 43.41 39.476 43.1988 39.7518 43.2141ZM91.9799 43.2141C92.2556 43.1988 92.4914 43.41 92.5067 43.6857C92.5341 44.1811 92.548 44.68 92.548 45.1822C92.548 45.6843 92.5341 46.1832 92.5067 46.6786C92.4914 46.9543 92.2556 47.1655 91.9799 47.1503C91.7041 47.135 91.493 46.8991 91.5082 46.6234C91.5346 46.1464 91.548 45.6659 91.548 45.1822C91.548 44.6985 91.5346 44.2179 91.5082 43.7409C91.493 43.4652 91.7041 43.2293 91.9799 43.2141ZM40.1289 50.042C40.3993 49.9859 40.664 50.1595 40.7201 50.4299C40.9169 51.3777 41.1659 52.3064 41.464 53.2127C41.5503 53.475 41.4076 53.7576 41.1453 53.8439C40.8829 53.9302 40.6003 53.7875 40.5141 53.5251C40.2043 52.5832 39.9455 51.6181 39.741 50.6332C39.6849 50.3628 39.8586 50.0981 40.1289 50.042ZM91.6027 50.042C91.873 50.0981 92.0467 50.3628 91.9906 50.6332C91.7861 51.6181 91.5273 52.5832 91.2175 53.5251C91.1313 53.7875 90.8487 53.9302 90.5864 53.8439C90.324 53.7576 90.1813 53.475 90.2676 53.2127C90.5657 52.3064 90.8147 51.3777 91.0115 50.4299C91.0676 50.1595 91.3323 49.9859 91.6027 50.042ZM42.2623 56.5377C42.5088 56.4131 42.8096 56.5118 42.9342 56.7582C43.3691 57.618 43.851 58.4502 44.3765 59.2512C44.528 59.482 44.4636 59.792 44.2327 59.9435C44.0018 60.095 43.6919 60.0306 43.5404 59.7997C42.9945 58.9676 42.4938 58.103 42.0419 57.2096C41.9172 56.9631 42.0159 56.6623 42.2623 56.5377ZM89.4693 56.5377C89.7157 56.6624 89.8144 56.9632 89.6898 57.2096C89.2378 58.103 88.7371 58.9676 88.1912 59.7997C88.0397 60.0306 87.7298 60.095 87.4989 59.9435C87.268 59.792 87.2036 59.482 87.3551 59.2512C87.8806 58.4502 88.3625 57.618 88.7974 56.7582C88.9221 56.5118 89.2229 56.4131 89.4693 56.5377ZM46.0097 62.2559C46.2155 62.0718 46.5316 62.0895 46.7157 62.2953C47.3562 63.0116 48.0364 63.6917 48.7526 64.3323C48.9585 64.5163 48.9761 64.8324 48.7921 65.0383C48.608 65.2441 48.2919 65.2617 48.086 65.0777C47.3421 64.4123 46.6356 63.7059 45.9703 62.9619C45.7862 62.7561 45.8039 62.44 46.0097 62.2559ZM85.7219 62.2559C85.9278 62.44 85.9454 62.7561 85.7613 62.9619C85.096 63.7059 84.3896 64.4124 83.6456 65.0777C83.4397 65.2618 83.1236 65.2441 82.9396 65.0383C82.7555 64.8324 82.7731 64.5163 82.979 64.3323C83.6952 63.6917 84.3754 63.0116 85.0159 62.2953C85.2 62.0895 85.5161 62.0718 85.7219 62.2559ZM51.1045 66.8152C51.256 66.5843 51.5659 66.52 51.7968 66.6714C52.5978 67.1969 53.4299 67.6788 54.2898 68.1138C54.5362 68.2384 54.6349 68.5392 54.5103 68.7856C54.3856 69.032 54.0848 69.1308 53.8384 69.0061C52.945 68.5542 52.0804 68.0535 51.2483 67.5076C51.0174 67.3561 50.953 67.0461 51.1045 66.8152ZM80.6271 66.8152C80.7786 67.0461 80.7142 67.3561 80.4833 67.5076C79.6512 68.0535 78.7867 68.5542 77.8932 69.0061C77.6468 69.1308 77.346 69.032 77.2214 68.7856C77.0967 68.5392 77.1954 68.2384 77.4418 68.1138C78.3017 67.6788 79.1338 67.1969 79.9348 66.6714C80.1657 66.52 80.4757 66.5843 80.6271 66.8152ZM57.2041 69.9027C57.2904 69.6404 57.5729 69.4977 57.8353 69.584C58.7416 69.8821 59.6702 70.1311 60.618 70.3278C60.8884 70.384 61.0621 70.6486 61.006 70.919C60.9498 71.1894 60.6851 71.3631 60.4148 71.3069C59.4298 71.1025 58.4648 70.8437 57.5228 70.5339C57.2605 70.4476 57.1178 70.165 57.2041 69.9027ZM74.5275 69.9027C74.6138 70.165 74.4711 70.4476 74.2088 70.5339C73.2669 70.8437 72.3018 71.1025 71.3168 71.307C71.0465 71.3631 70.7818 71.1894 70.7256 70.919C70.6695 70.6486 70.8432 70.384 71.1136 70.3278C72.0614 70.1311 72.99 69.8821 73.8963 69.584C74.1587 69.4977 74.4413 69.6404 74.5275 69.9027ZM63.8977 71.2962C63.913 71.0205 64.1488 70.8093 64.4246 70.8246C64.9016 70.851 65.3821 70.8643 65.8658 70.8643C66.3495 70.8643 66.83 70.851 67.307 70.8246C67.5828 70.8093 67.8186 71.0205 67.8339 71.2962C67.8491 71.5719 67.638 71.8078 67.3623 71.823C66.8669 71.8504 66.3679 71.8643 65.8658 71.8643C65.3637 71.8643 64.8647 71.8504 64.3693 71.823C64.0936 71.8078 63.8825 71.5719 63.8977 71.2962Z" fill="#969696"/>
<path d="M65.867 65.0661C76.8533 65.0661 85.7594 56.1599 85.7594 45.1736C85.7594 34.1874 76.8533 25.2812 65.867 25.2812C54.8807 25.2812 45.9746 34.1874 45.9746 45.1736C45.9746 56.1599 54.8807 65.0661 65.867 65.0661Z" fill="white"/>
<path fill-rule="evenodd" clip-rule="evenodd" d="M70.7772 62.3839C69.217 62.8281 67.5698 63.0661 65.867 63.0661C62.1727 63.0661 58.7399 61.9465 55.8894 60.028L62.7281 56.068C65.4165 59.1757 68.2549 61.3944 70.7772 62.3839ZM72.3975 61.8368C72.3304 61.8226 72.2625 61.8071 72.1939 61.7903C70.9464 61.4853 69.5171 60.7719 67.9957 59.6602C66.5537 58.6066 65.0643 57.2209 63.6095 55.5575L75.811 48.4922C76.5275 50.5902 76.9848 52.5791 77.1769 54.3596C77.3789 56.2329 77.282 57.8274 76.9225 59.0602C76.8984 59.1426 76.8733 59.2232 76.8472 59.3018C75.5039 60.3473 74.0076 61.2053 72.3975 61.8368ZM78.1343 58.1987C81.5974 54.9359 83.7594 50.3072 83.7594 45.1736C83.7594 44.7505 83.7447 44.3309 83.7158 43.9151L76.6928 47.9817C78.0566 51.9047 78.5583 55.5076 78.1343 58.1987ZM83.6063 42.8228C82.9714 37.9844 80.4032 33.7547 76.7028 30.9345L69.4777 35.1181C70.8465 36.7953 72.1649 38.7003 73.3694 40.7865C74.581 42.8851 75.5761 44.9917 76.3461 47.0268L83.6063 42.8228ZM75.8098 30.2959L68.8253 34.3404C66.1501 31.2377 63.324 29.0145 60.807 28.0068C62.4115 27.5346 64.1097 27.2812 65.867 27.2812C69.5463 27.2812 72.9662 28.3918 75.8098 30.2959ZM54.6006 31.2731C55.9878 30.1473 57.5469 29.2252 59.2323 28.5518C59.2615 28.5586 59.2909 28.5655 59.3204 28.5728C60.5679 28.8778 61.9973 29.5911 63.5186 30.7027C64.9736 31.7659 66.4769 33.1671 67.9442 34.8505L55.7227 41.9274C54.995 39.8086 54.5312 37.8001 54.3375 36.0036C54.1354 34.1302 54.2323 32.5356 54.5919 31.3027C54.5948 31.2928 54.5977 31.2829 54.6006 31.2731ZM55.2708 28.3352C49.6853 31.8576 45.9746 38.0823 45.9746 45.1736C45.9746 56.1599 54.8808 65.0661 65.867 65.0661C76.8533 65.0661 85.7594 56.1599 85.7594 45.1736C85.7594 34.1874 76.8533 25.2812 65.867 25.2812C62.4221 25.2812 59.1816 26.1571 56.3562 27.698C56.1693 27.771 55.9882 27.8576 55.8135 27.9585C55.6217 28.0692 55.4409 28.1951 55.2708 28.3352ZM53.3467 32.3917C52.9829 35.07 53.5009 38.6026 54.8412 42.4379L48.0154 46.3904C47.9884 45.9884 47.9746 45.5825 47.9746 45.1736C47.9746 40.1662 50.0316 35.6394 53.3467 32.3917ZM48.1224 47.4839C48.7465 52.325 51.3055 56.56 54.9987 59.3881L62.0743 55.291C60.692 53.6026 59.3604 51.6819 58.1449 49.5765C56.9443 47.4971 55.9564 45.4096 55.1893 43.3918L48.1224 47.4839ZM72.5034 41.2865C73.7223 43.3977 74.7125 45.5091 75.4688 47.5349L62.9513 54.7831C61.5708 53.1118 60.2333 51.1938 59.0109 49.0765C57.8032 46.9847 56.82 44.8927 56.0664 42.8839L68.6009 35.6259C69.968 37.2864 71.2922 39.1886 72.5034 41.2865Z" fill="#969696"/>
<path d="M45.7529 57.4521H39.4121C38.3075 57.4521 37.4121 58.3476 37.4121 59.4521V64.7589C37.4121 65.8635 38.3075 66.7589 39.4121 66.7589H45.7529C46.8575 66.7589 47.7529 65.8635 47.7529 64.7589V59.4521C47.7529 58.3476 46.8575 57.4521 45.7529 57.4521Z" fill="white"/>
<path fill-rule="evenodd" clip-rule="evenodd" d="M45.7529 59.4531H39.4121V64.7599H45.7529V59.4531ZM39.4121 57.4531C38.3075 57.4531 37.4121 58.3486 37.4121 59.4531V64.7599C37.4121 65.8645 38.3075 66.7599 39.4121 66.7599H45.7529C46.8575 66.7599 47.7529 65.8645 47.7529 64.7599V59.4531C47.7529 58.3486 46.8575 57.4531 45.7529 57.4531H39.4121Z" fill="#969696"/>
<path d="M41.5483 36.9871C44.9749 36.9871 47.7528 34.2093 47.7528 30.7826C47.7528 27.356 44.9749 24.5781 41.5483 24.5781C38.1216 24.5781 35.3438 27.356 35.3438 30.7826C35.3438 34.2093 38.1216 36.9871 41.5483 36.9871Z" fill="white"/>
<path fill-rule="evenodd" clip-rule="evenodd" d="M41.5483 34.9871C43.8704 34.9871 45.7528 33.1047 45.7528 30.7826C45.7528 28.4605 43.8704 26.5781 41.5483 26.5781C39.2262 26.5781 37.3438 28.4605 37.3438 30.7826C37.3438 33.1047 39.2262 34.9871 41.5483 34.9871ZM41.5483 36.9871C44.9749 36.9871 47.7528 34.2093 47.7528 30.7826C47.7528 27.356 44.9749 24.5781 41.5483 24.5781C38.1216 24.5781 35.3438 27.356 35.3438 30.7826C35.3438 34.2093 38.1216 36.9871 41.5483 36.9871Z" fill="#969696"/>
<path fill-rule="evenodd" clip-rule="evenodd" d="M95.6859 56.4607C94.7611 55.6101 93.6506 54.9583 92.4221 54.5729C91.7913 55.295 90.8638 55.7511 89.8297 55.7511C88.7953 55.7511 87.8676 55.2948 87.2368 54.5724C86.0084 54.9574 84.8979 55.609 83.973 56.4592C84.2819 57.3659 84.2128 58.3962 83.6962 59.2909C83.1792 60.1865 82.3204 60.7617 81.3798 60.9469C81.2449 61.5539 81.1738 62.1849 81.1738 62.8324C81.1738 63.48 81.2449 64.111 81.3798 64.718C82.3198 64.9036 83.1779 65.4787 83.6946 66.3737C84.211 67.2681 84.2802 68.298 83.9716 69.2044C84.8972 70.0556 86.0087 70.7078 87.2383 71.093C87.869 70.3716 88.7961 69.9159 89.8297 69.9159C90.863 69.9159 91.7899 70.3713 92.4206 71.0924C93.6498 70.7071 94.7609 70.055 95.6862 69.2039C95.3792 68.2984 95.449 67.2703 95.9646 66.3773C96.4808 65.4832 97.3376 64.9084 98.2765 64.7222C98.412 64.1139 98.4834 63.4815 98.4834 62.8324C98.4834 62.1849 98.4123 61.5539 98.2774 60.9469C97.3376 60.7612 96.4797 60.1862 95.963 59.2913C95.4467 58.397 95.3774 57.3672 95.6859 56.4607Z" fill="white"/>
<path fill-rule="evenodd" clip-rule="evenodd" d="M89.8297 57.4511C90.9228 57.4511 91.937 57.1089 92.7696 56.5278C93.1383 56.7001 93.4897 56.9041 93.8202 57.1362C93.7339 58.1471 93.9447 59.1955 94.4908 60.1413C95.0367 61.0869 95.839 61.7936 96.7573 62.2243C96.7746 62.4244 96.7834 62.6272 96.7834 62.8324C96.7834 63.0392 96.7745 63.2436 96.7569 63.4453C95.8394 63.876 95.0379 64.5823 94.4924 65.5273C93.9471 66.4717 93.7361 67.5184 93.8214 68.5278C93.49 68.7607 93.1376 68.9652 92.7678 69.1379C91.9355 68.5576 90.922 68.2159 89.8297 68.2159C88.737 68.2159 87.7232 68.5578 86.8907 69.1386C86.521 68.9659 86.1687 68.7616 85.8374 68.5289C85.9238 67.518 85.7129 66.4696 85.1668 65.5237C84.6208 64.5779 83.8184 63.8712 82.8999 63.4405C82.8826 63.2404 82.8738 63.0376 82.8738 62.8324C82.8738 62.6274 82.8826 62.4248 82.8999 62.2249C83.819 61.7943 84.6221 61.0873 85.1685 60.141C85.7147 59.1948 85.9255 58.146 85.839 57.1348C86.1693 56.903 86.5204 56.6993 86.8889 56.5272C87.7217 57.1087 88.7362 57.4511 89.8297 57.4511ZM98.4834 62.8324C98.4834 62.1849 98.4123 61.5539 98.2774 60.9469C97.3376 60.7612 96.4797 60.1862 95.963 59.2913C95.4467 58.397 95.3774 57.3672 95.6859 56.4607C94.7611 55.6101 93.6506 54.9583 92.4221 54.5729C91.7913 55.295 90.8638 55.7511 89.8297 55.7511C88.7953 55.7511 87.8676 55.2948 87.2368 54.5724C86.0084 54.9574 84.8979 55.609 83.973 56.4592C84.2819 57.3659 84.2128 58.3962 83.6962 59.2909C83.1792 60.1865 82.3204 60.7617 81.3798 60.9469C81.2449 61.5539 81.1738 62.1849 81.1738 62.8324C81.1738 63.48 81.2449 64.111 81.3798 64.718C82.3198 64.9036 83.1779 65.4787 83.6946 66.3737C84.211 67.2681 84.2802 68.298 83.9716 69.2044C84.8972 70.0556 86.0087 70.7078 87.2383 71.093C87.869 70.3716 88.7961 69.9159 89.8297 69.9159C90.863 69.9159 91.7899 70.3713 92.4206 71.0924C93.6498 70.7071 94.7609 70.055 95.6862 69.2039C95.3792 68.2984 95.449 67.2703 95.9646 66.3773C96.4808 65.4832 97.3376 64.9084 98.2765 64.7222C98.412 64.1139 98.4834 63.4815 98.4834 62.8324ZM91.8227 62.8318C91.8227 63.9325 90.9304 64.8249 89.8297 64.8249C88.729 64.8249 87.8367 63.9325 87.8367 62.8318C87.8367 61.7311 88.729 60.8388 89.8297 60.8388C90.9304 60.8388 91.8227 61.7311 91.8227 62.8318ZM93.5227 62.8318C93.5227 64.8714 91.8693 66.5249 89.8297 66.5249C87.7901 66.5249 86.1367 64.8714 86.1367 62.8318C86.1367 60.7922 87.7901 59.1388 89.8297 59.1388C91.8693 59.1388 93.5227 60.7922 93.5227 62.8318Z" fill="#969696"/>
<path d="M56.872 83.7955C57.0494 82.8495 57.8754 82.1641 58.8378 82.1641H72.3181C73.2805 82.1641 74.1065 82.8495 74.2838 83.7955L76.9643 98.0913C76.9734 98.1397 76.9789 98.1888 76.9807 98.2381L77.5001 112.089C77.5426 113.222 76.6355 114.164 75.5015 114.164H55.6543C54.5204 114.164 53.6132 113.222 53.6557 112.089L54.1724 98.3121C54.1761 98.2135 54.1871 98.1154 54.2052 98.0185L56.872 83.7955Z" fill="white"/>
<path fill-rule="evenodd" clip-rule="evenodd" d="M72.3181 84.1641H58.8378L56.171 98.387L55.6543 112.164H75.5015L74.9849 98.3871L72.3181 84.1641ZM58.8378 82.1641C57.8754 82.1641 57.0494 82.8495 56.872 83.7955L54.2052 98.0185C54.1871 98.1154 54.1761 98.2135 54.1724 98.3121L53.6557 112.089C53.6133 113.222 54.5204 114.164 55.6543 114.164H64.5779V121.285H59.0779C58.5257 121.285 58.0779 121.733 58.0779 122.285C58.0779 122.837 58.5257 123.285 59.0779 123.285H72.0779C72.6302 123.285 73.0779 122.837 73.0779 122.285C73.0779 121.733 72.6302 121.285 72.0779 121.285H66.5779V114.164H75.5015C76.6355 114.164 77.5426 113.222 77.5001 112.089L76.9807 98.2381C76.9789 98.1888 76.9734 98.1397 76.9643 98.0913L74.2838 83.7955C74.1065 82.8495 73.2805 82.1641 72.3181 82.1641H58.8378Z" fill="#969696"/>
</g>
</g>
<defs>
<clipPath id="clip0_121_2971">
<rect width="130" height="130" fill="white"/>
</clipPath>
</defs>
</svg>
