<svg width="48" height="48" viewBox="0 0 48 48" fill="none" xmlns="http://www.w3.org/2000/svg">
<path fill-rule="evenodd" clip-rule="evenodd" d="M8.00195 34.5V38.5H13.002V34.5H8.00195ZM7.64302 33.5C7.28897 33.5 7.00195 33.787 7.00195 34.1411V38.8589C7.00195 39.213 7.28897 39.5 7.64302 39.5H13.3609C13.715 39.5 14.002 39.213 14.002 38.8589V34.1411C14.002 33.787 13.715 33.5 13.3609 33.5H7.64302Z" fill="#969696"/>
<path fill-rule="evenodd" clip-rule="evenodd" d="M18.002 30.5V38.5H23.002V30.5H18.002ZM17.6431 29.5C17.289 29.5 17.002 29.787 17.002 30.1411V38.8589C17.002 39.213 17.289 39.5 17.6431 39.5H23.3609C23.715 39.5 24.002 39.213 24.002 38.8589V30.1411C24.002 29.787 23.715 29.5 23.3609 29.5H17.6431Z" fill="#969696"/>
<path fill-rule="evenodd" clip-rule="evenodd" d="M28 25.5V38.5H33V25.5H28ZM27.6411 24.5C27.2871 24.5 27 24.787 27 25.1411V38.8589C27 39.213 27.2871 39.5 27.6411 39.5H33.359C33.713 39.5 34 39.213 34 38.8589V25.1411C34 24.787 33.713 24.5 33.359 24.5H27.6411Z" fill="#969696"/>
<path fill-rule="evenodd" clip-rule="evenodd" d="M38 20.5V38.5H43V20.5H38ZM37.5 19.5C37.2239 19.5 37 19.7239 37 20V39C37 39.2761 37.2239 39.5 37.5 39.5H43.5C43.7762 39.5 44 39.2761 44 39V20C44 19.7239 43.7762 19.5 43.5 19.5H37.5Z" fill="#969696"/>
<path d="M44 14.5C44 16.433 42.433 18 40.5 18C38.567 18 37 16.433 37 14.5C37 12.567 38.567 11 40.5 11C42.433 11 44 12.567 44 14.5Z" fill="#305D74"/>
<path fill-rule="evenodd" clip-rule="evenodd" d="M40.5 17.3589C42.079 17.3589 43.3589 16.0789 43.3589 14.5C43.3589 12.9211 42.079 11.6411 40.5 11.6411C38.9211 11.6411 37.6411 12.9211 37.6411 14.5C37.6411 16.0789 38.9211 17.3589 40.5 17.3589ZM40.5 18C42.433 18 44 16.433 44 14.5C44 12.567 42.433 11 40.5 11C38.567 11 37 12.567 37 14.5C37 16.433 38.567 18 40.5 18Z" fill="#305D74"/>
<path fill-rule="evenodd" clip-rule="evenodd" d="M36.0586 14.4668C36.0769 14.6037 35.9809 14.7295 35.844 14.7478C35.5738 14.784 35.3182 14.8519 35.076 14.9472C34.9475 14.9978 34.8024 14.9346 34.7518 14.8061C34.7013 14.6776 34.7645 14.5325 34.8929 14.4819C35.1718 14.3722 35.4665 14.2939 35.7776 14.2522C35.9144 14.2339 36.0403 14.33 36.0586 14.4668ZM33.752 15.4858C33.8492 15.5838 33.8485 15.7421 33.7504 15.8393C33.3765 16.21 33.0443 16.6544 32.7495 17.144C32.6782 17.2623 32.5246 17.3004 32.4063 17.2292C32.2881 17.1579 32.2499 17.0043 32.3211 16.886C32.6319 16.37 32.9886 15.8905 33.3984 15.4842C33.4965 15.387 33.6548 15.3877 33.752 15.4858ZM31.8695 18.3141C31.9971 18.367 32.0576 18.5133 32.0047 18.6408C31.7853 19.1699 31.599 19.7093 31.4406 20.2293C31.4003 20.3614 31.2606 20.4358 31.1286 20.3956C30.9965 20.3553 30.922 20.2156 30.9623 20.0836C31.1243 19.5517 31.3159 18.9965 31.5429 18.4493C31.5957 18.3218 31.742 18.2612 31.8695 18.3141ZM30.8178 21.567C30.9522 21.5984 31.0358 21.7329 31.0044 21.8673C30.9328 22.1738 30.8723 22.4532 30.8206 22.6957C30.8028 22.7794 30.7671 22.8549 30.7184 22.9189C30.6657 22.9882 30.5839 23.0223 30.5031 23.0171C30.4641 23.0868 30.3925 23.1366 30.3069 23.1442C30.2294 23.1511 30.1492 23.1427 30.0712 23.117C29.7408 23.0083 29.4226 22.9173 29.116 22.8427C28.9818 22.81 28.8996 22.6748 28.9322 22.5407C28.9649 22.4065 29.1001 22.3242 29.2342 22.3569C29.5543 22.4348 29.8853 22.5295 30.2274 22.642C30.2394 22.646 30.2513 22.6472 30.2628 22.6462C30.2758 22.645 30.2885 22.6449 30.3011 22.6457C30.3068 22.6356 30.3132 22.6257 30.3204 22.6162C30.3256 22.6094 30.3295 22.6014 30.3316 22.5916C30.3835 22.3477 30.4449 22.0647 30.5175 21.7537C30.5489 21.6192 30.6833 21.5357 30.8178 21.567ZM27.1724 22.5716C26.4538 22.5549 25.8179 22.6442 25.2537 22.8115C25.1213 22.8508 24.9822 22.7753 24.9429 22.6429C24.9037 22.5105 24.9792 22.3714 25.1115 22.3321C25.7284 22.1492 26.4164 22.0539 27.184 22.0717C27.322 22.0749 27.4313 22.1894 27.4281 22.3275C27.4249 22.4655 27.3104 22.5748 27.1724 22.5716ZM23.5904 23.33C23.674 23.4399 23.6526 23.5967 23.5427 23.6803C23.0133 24.0828 22.5734 24.5667 22.2051 25.0828C22.1248 25.1951 21.9687 25.2212 21.8563 25.141C21.744 25.0608 21.7179 24.9046 21.7981 24.7923C22.1897 24.2438 22.6633 23.7208 23.2401 23.2823C23.35 23.1987 23.5069 23.22 23.5904 23.33ZM21.1153 26.4686C21.2414 26.5248 21.2981 26.6726 21.2419 26.7987C21.0988 27.1198 20.976 27.4306 20.8691 27.7192C20.8385 27.8017 20.7908 27.8731 20.7315 27.9308C20.667 27.9935 20.5774 28.0144 20.4961 27.994C20.4467 28.0606 20.3653 28.1012 20.2765 28.0945C20.1963 28.0885 20.1159 28.0661 20.0408 28.0261C19.7464 27.8691 19.453 27.7383 19.1616 27.6314C19.032 27.5838 18.9655 27.4401 19.013 27.3105C19.0606 27.1809 19.2042 27.1144 19.3339 27.162C19.6472 27.277 19.9617 27.4173 20.2761 27.5849C20.2884 27.5915 20.3012 27.595 20.3138 27.5959C20.3284 27.597 20.3426 27.5993 20.3563 27.6028C20.3642 27.5921 20.3731 27.5819 20.3829 27.5724C20.3901 27.5653 20.3961 27.5566 20.4002 27.5455C20.5098 27.2498 20.6366 26.9286 20.7852 26.5952C20.8414 26.4691 20.9892 26.4124 21.1153 26.4686ZM17.285 27.2485C16.6246 27.2173 15.9851 27.2932 15.3804 27.4493C15.2467 27.4839 15.1104 27.4035 15.0758 27.2698C15.0413 27.1361 15.1217 26.9997 15.2554 26.9652C15.9048 26.7975 16.5945 26.7153 17.3085 26.749C17.4465 26.7555 17.553 26.8726 17.5465 27.0105C17.54 27.1484 17.4229 27.255 17.285 27.2485ZM13.6919 27.8391C13.7607 27.9588 13.7194 28.1116 13.5997 28.1804C13.0131 28.5174 12.4944 28.9205 12.0654 29.3479C11.9676 29.4453 11.8093 29.445 11.7119 29.3472C11.6144 29.2494 11.6147 29.0911 11.7125 28.9936C12.1722 28.5357 12.7258 28.1058 13.3506 27.7469C13.4703 27.6781 13.6231 27.7194 13.6919 27.8391ZM10.8327 30.5568C10.9591 30.6122 11.0166 30.7597 10.9612 30.8861C10.8207 31.2064 10.752 31.4996 10.752 31.75C10.752 31.8881 10.64 32 10.502 32C10.3639 32 10.252 31.8881 10.252 31.75C10.252 31.4121 10.3435 31.0495 10.5033 30.6853C10.5588 30.5588 10.7062 30.5013 10.8327 30.5568Z" fill="#969696"/>
<path fill-rule="evenodd" clip-rule="evenodd" d="M4.5 8.5C4.77614 8.5 5 8.72386 5 9V38.5H43C43.2762 38.5 43.5 38.7239 43.5 39C43.5 39.2761 43.2762 39.5 43 39.5H5C4.44772 39.5 4 39.0523 4 38.5V9C4 8.72386 4.22386 8.5 4.5 8.5Z" fill="#969696"/>
</svg>
