<svg width="49" height="49" viewBox="0 0 49 49" fill="none" xmlns="http://www.w3.org/2000/svg">
<path d="M5.98242 10.4917C5.98242 9.93941 6.43014 9.4917 6.98242 9.4917H42.9824C43.5347 9.4917 43.9824 9.93941 43.9824 10.4917V37.4917C43.9824 38.044 43.5347 38.4917 42.9824 38.4917H6.98242C6.43014 38.4917 5.98242 38.044 5.98242 37.4917V10.4917Z" fill="white"/>
<path fill-rule="evenodd" clip-rule="evenodd" d="M42.9824 10.4917H6.98242V37.4917H42.9824V10.4917ZM6.98242 9.4917C6.43014 9.4917 5.98242 9.93941 5.98242 10.4917V37.4917C5.98242 38.044 6.43014 38.4917 6.98242 38.4917H42.9824C43.5347 38.4917 43.9824 38.044 43.9824 37.4917V10.4917C43.9824 9.93941 43.5347 9.4917 42.9824 9.4917H6.98242Z" fill="#969696"/>
<path fill-rule="evenodd" clip-rule="evenodd" d="M30.4737 43.4717L28.4863 37.9144L29.4432 37.624L31.4306 43.1813C31.5236 43.4414 31.3847 43.7171 31.1205 43.7973C30.8563 43.8775 30.5667 43.7317 30.4737 43.4717Z" fill="#969696"/>
<path fill-rule="evenodd" clip-rule="evenodd" d="M19.4878 43.4717L21.4752 37.9144L20.5183 37.624L18.5309 43.1813C18.4379 43.4414 18.5767 43.7171 18.841 43.7973C19.1052 43.8775 19.3948 43.7317 19.4878 43.4717Z" fill="#969696"/>
<path fill-rule="evenodd" clip-rule="evenodd" d="M10.002 25.4692H10.502V26.4692C10.502 26.7454 10.7259 26.9692 11.002 26.9692H12.002V27.4692H11.002C10.4497 27.4692 10.002 27.0215 10.002 26.4692V25.4692ZM10.002 23.4692H10.502V21.4692H10.002V23.4692ZM10.002 19.4692H10.502V17.4692H10.002V19.4692ZM10.002 15.4692H10.502V14.4692C10.502 14.1931 10.7259 13.9692 11.002 13.9692H12.002V13.4692H11.002C10.4497 13.4692 10.002 13.917 10.002 14.4692V15.4692ZM14.002 13.4692V13.9692H16.002V13.4692H14.002ZM18.002 13.4692V13.9692H20.002V13.4692H18.002ZM22.002 13.4692V13.9692H23.002C23.2782 13.9692 23.502 14.1931 23.502 14.4692V15.4692H24.002V14.4692C24.002 13.917 23.5543 13.4692 23.002 13.4692H22.002ZM24.002 17.4692H23.502V19.4692H24.002V17.4692ZM24.002 21.4692H23.502V23.4692H24.002V21.4692ZM16.002 27.4692V26.9692H14.002V27.4692H16.002Z" fill="#969696"/>
<path d="M20.502 20.4692C20.502 22.4022 18.935 23.9692 17.002 23.9692C15.069 23.9692 13.502 22.4022 13.502 20.4692C13.502 18.5362 15.069 16.9692 17.002 16.9692C18.935 16.9692 20.502 18.5362 20.502 20.4692Z" fill="#305D74"/>
<path fill-rule="evenodd" clip-rule="evenodd" d="M21.6757 29.0371L24.0435 32.8147L24.79 32.4177L22.4222 28.6401L25.0179 27.2597L18.7003 23.5128L19.2276 22.6986L25.5452 26.4456C26.2142 26.8424 26.2163 27.7521 25.549 28.107L23.8362 29.0179L25.6729 31.9482C25.9662 32.4161 25.8087 33.0057 25.321 33.265L24.5746 33.662C24.0869 33.9213 23.4539 33.7522 23.1606 33.2842L21.3239 30.354L19.4604 31.345C18.7858 31.7037 17.9237 31.2333 17.8995 30.4931L17.6704 23.5082C17.6454 22.7432 18.5285 22.284 19.2276 22.6986L18.7003 23.5128L18.9293 30.4976L21.6757 29.0371Z" fill="#969696"/>
<path fill-rule="evenodd" clip-rule="evenodd" d="M35.502 22.9692C36.8827 22.9692 38.002 21.85 38.002 20.4692C38.002 19.0885 36.8827 17.9692 35.502 17.9692C34.1213 17.9692 33.002 19.0885 33.002 20.4692C33.002 21.85 34.1213 22.9692 35.502 22.9692ZM35.502 23.9692C37.435 23.9692 39.002 22.4022 39.002 20.4692C39.002 18.5362 37.435 16.9692 35.502 16.9692C33.569 16.9692 32.002 18.5362 32.002 20.4692C32.002 22.4022 33.569 23.9692 35.502 23.9692Z" fill="#969696"/>
<path fill-rule="evenodd" clip-rule="evenodd" d="M23.2441 20.4692C23.2441 20.3312 23.3561 20.2192 23.4941 20.2192H30.0603V20.7192H23.4941C23.3561 20.7192 23.2441 20.6073 23.2441 20.4692Z" fill="#969696"/>
<path fill-rule="evenodd" clip-rule="evenodd" d="M27.3408 17.7486C27.4384 17.6509 27.5967 17.6509 27.6944 17.7486L30.2381 20.2923C30.3358 20.3899 30.3358 20.5482 30.2381 20.6459C30.1405 20.7435 29.9822 20.7435 29.8846 20.6459L27.3408 18.1021C27.2432 18.0045 27.2432 17.8462 27.3408 17.7486Z" fill="#969696"/>
<path fill-rule="evenodd" clip-rule="evenodd" d="M27.3409 23.1901C27.2432 23.0924 27.2432 22.9341 27.3409 22.8365L29.8846 20.2928C29.9822 20.1951 30.1405 20.1951 30.2382 20.2928C30.3358 20.3904 30.3358 20.5487 30.2382 20.6463L27.6944 23.1901C27.5968 23.2877 27.4385 23.2877 27.3409 23.1901Z" fill="#969696"/>
<path d="M4.98242 35.5068C4.98242 34.9546 5.43014 34.5068 5.98242 34.5068H43.9824C44.5347 34.5068 44.9824 34.9546 44.9824 35.5068V37.5068C44.9824 38.0591 44.5347 38.5068 43.9824 38.5068H5.98242C5.43014 38.5068 4.98242 38.0591 4.98242 37.5068V35.5068Z" fill="white"/>
<path fill-rule="evenodd" clip-rule="evenodd" d="M43.9824 35.5068H5.98242V37.5068H43.9824V35.5068ZM5.98242 34.5068C5.43014 34.5068 4.98242 34.9546 4.98242 35.5068V37.5068C4.98242 38.0591 5.43014 38.5068 5.98242 38.5068H43.9824C44.5347 38.5068 44.9824 38.0591 44.9824 37.5068V35.5068C44.9824 34.9546 44.5347 34.5068 43.9824 34.5068H5.98242Z" fill="#969696"/>
</svg>
