<!--
 Copyright 2023-2025 Solace Systems. All rights reserved.

 Licensed under the Apache License, Version 2.0 (the "License");
 you may not use this file except in compliance with the License.
 You may obtain a copy of the License at

     http://www.apache.org/licenses/LICENSE-2.0

 Unless required by applicable law or agreed to in writing, software
 distributed under the License is distributed on an "AS IS" BASIS,
 WITHOUT WARRANTIES OR CONDITIONS OF ANY KIND, either express or implied.
 See the License for the specific language governing permissions and
 limitations under the License.
-->
<svg width="49" height="49" viewBox="0 0 49 49" fill="none" xmlns="http://www.w3.org/2000/svg">
<path d="M38.9219 24.8398C38.9219 31.4673 33.5493 36.8398 26.9219 36.8398C20.2945 36.8398 14.9219 31.4673 14.9219 24.8398C14.9219 18.2124 20.2945 12.8398 26.9219 12.8398C33.5493 12.8398 38.9219 18.2124 38.9219 24.8398Z" fill="white"/>
<path fill-rule="evenodd" clip-rule="evenodd" d="M26.9219 35.8398C32.997 35.8398 37.9219 30.915 37.9219 24.8398C37.9219 18.7647 32.997 13.8398 26.9219 13.8398C20.8468 13.8398 15.9219 18.7647 15.9219 24.8398C15.9219 30.915 20.8468 35.8398 26.9219 35.8398ZM26.9219 36.8398C33.5493 36.8398 38.9219 31.4673 38.9219 24.8398C38.9219 18.2124 33.5493 12.8398 26.9219 12.8398C20.2945 12.8398 14.9219 18.2124 14.9219 24.8398C14.9219 31.4673 20.2945 36.8398 26.9219 36.8398Z" fill="#969696"/>
<path fill-rule="evenodd" clip-rule="evenodd" d="M33.8472 30.3744C33.6017 28.0986 32.6447 25.2709 31.0147 22.4477C29.3847 19.6244 27.4144 17.3818 25.5661 16.0313C24.6415 15.3556 23.7669 14.9176 22.9972 14.7294C22.2309 14.542 21.5994 14.608 21.1071 14.8922C20.6148 15.1765 20.242 15.6903 20.0211 16.4477C19.7992 17.2084 19.7413 18.1847 19.8641 19.3234C20.1095 21.5992 21.0666 24.4269 22.6965 27.2501C24.3265 30.0734 26.2969 32.316 28.1451 33.6665C29.0698 34.3422 29.9443 34.7802 30.714 34.9684C31.4804 35.1558 32.1118 35.0898 32.6041 34.8056C33.0964 34.5213 33.4693 34.0075 33.6901 33.2501C33.912 32.4894 33.97 31.5131 33.8472 30.3744ZM32.8541 35.2386C35.3902 33.7743 34.7606 27.9357 31.4477 22.1977C28.1348 16.4596 23.3933 12.995 20.8571 14.4592C18.321 15.9235 18.9507 21.7621 22.2635 27.5001C25.5764 33.2382 30.318 36.7028 32.8541 35.2386Z" fill="#969696"/>
<path fill-rule="evenodd" clip-rule="evenodd" d="M34.3087 15.6978L15.3931 26.6509L15.1426 26.2182L34.0581 15.2651L34.3087 15.6978Z" fill="#969696"/>
<path fill-rule="evenodd" clip-rule="evenodd" d="M38.7833 23.3888L19.8677 34.3419L19.6172 33.9092L38.5327 22.9561L38.7833 23.3888Z" fill="#969696"/>
<path fill-rule="evenodd" clip-rule="evenodd" d="M25.7618 7.11681C26.0913 7.09859 26.4233 7.08936 26.7573 7.08936C27.0914 7.08936 27.4234 7.09859 27.7529 7.11681C27.8908 7.12444 27.9964 7.24237 27.9887 7.38023C27.9811 7.5181 27.8632 7.62366 27.7253 7.61604C27.4049 7.59832 27.0822 7.58936 26.7573 7.58936C26.4325 7.58936 26.1098 7.59832 25.7894 7.61604C25.6515 7.62366 25.5336 7.5181 25.526 7.38023C25.5183 7.24237 25.6239 7.12444 25.7618 7.11681ZM24.0711 7.54244C24.094 7.67858 24.0023 7.80758 23.8661 7.83055C23.2246 7.93879 22.5952 8.08244 21.9799 8.25942C21.8472 8.29759 21.7087 8.22095 21.6705 8.08825C21.6323 7.95556 21.709 7.81707 21.8417 7.7789C22.475 7.59675 23.1228 7.44891 23.783 7.33752C23.9191 7.31454 24.0481 7.40629 24.0711 7.54244ZM29.4436 7.54244C29.4666 7.40629 29.5956 7.31454 29.7317 7.33752C30.3919 7.44891 31.0397 7.59675 31.673 7.7789C31.8057 7.81707 31.8824 7.95556 31.8442 8.08825C31.806 8.22095 31.6675 8.29759 31.5348 8.25942C30.9195 8.08244 30.2901 7.93879 29.6486 7.83055C29.5124 7.80758 29.4207 7.67858 29.4436 7.54244ZM20.2895 8.5715C20.3424 8.69904 20.2819 8.84531 20.1543 8.8982C19.5558 9.14639 18.9743 9.42731 18.412 9.73875C18.2912 9.80564 18.1391 9.76195 18.0722 9.64116C18.0053 9.52038 18.049 9.36824 18.1697 9.30134C18.7484 8.98086 19.3468 8.69177 19.9628 8.43633C20.0903 8.38344 20.2366 8.44396 20.2895 8.5715ZM33.2252 8.5715C33.2781 8.44396 33.4244 8.38344 33.5519 8.43633C34.1679 8.69177 34.7663 8.98086 35.345 9.30134C35.4657 9.36824 35.5094 9.52038 35.4425 9.64116C35.3756 9.76195 35.2235 9.80564 35.1027 9.73875C34.5404 9.42731 33.9589 9.14639 33.3604 8.8982C33.2328 8.84531 33.1723 8.69904 33.2252 8.5715ZM16.8337 10.421C16.9137 10.5335 16.8873 10.6896 16.7748 10.7696C16.2481 11.1439 15.7434 11.5471 15.2629 11.9768C15.16 12.0688 15.0019 12.06 14.9099 11.9571C14.8178 11.8542 14.8267 11.6961 14.9296 11.6041C15.4239 11.162 15.9432 10.7472 16.4851 10.362C16.5976 10.282 16.7537 10.3084 16.8337 10.421ZM36.681 10.421C36.761 10.3084 36.9171 10.2821 37.0296 10.362C37.5715 10.7472 38.0908 11.162 38.5851 11.6041C38.688 11.6961 38.6968 11.8542 38.6048 11.9571C38.5128 12.06 38.3547 12.0688 38.2518 11.9768C37.7713 11.5471 37.2666 11.1439 36.7399 10.7696C36.6274 10.6896 36.601 10.5335 36.681 10.421ZM13.8751 12.9919C13.978 13.0839 13.9868 13.242 13.8948 13.3449C13.4651 13.8254 13.0619 14.3301 12.6876 14.8568C12.6076 14.9693 12.4515 14.9957 12.339 14.9157C12.2264 14.8357 12.2 14.6796 12.28 14.5671C12.6652 14.0252 13.08 13.506 13.5221 13.0116C13.6141 12.9087 13.7722 12.8999 13.8751 12.9919ZM11.5592 16.1542C11.68 16.2211 11.7236 16.3732 11.6567 16.494C11.3453 17.0563 11.0644 17.6378 10.8162 18.2363C10.7633 18.3639 10.617 18.4244 10.4895 18.3715C10.362 18.3186 10.3014 18.1723 10.3543 18.0448C10.6098 17.4288 10.8989 16.8304 11.2193 16.2517C11.2862 16.131 11.4384 16.0873 11.5592 16.1542ZM41.9555 16.1542C42.0763 16.0873 42.2285 16.131 42.2954 16.2517C42.6158 16.8304 42.9049 17.4288 43.1604 18.0448C43.2133 18.1723 43.1527 18.3186 43.0252 18.3715C42.8977 18.4244 42.7514 18.3639 42.6985 18.2363C42.4503 17.6378 42.1694 17.0563 41.858 16.494C41.7911 16.3732 41.8347 16.2211 41.9555 16.1542ZM10.0063 19.7525C10.1389 19.7907 10.2156 19.9292 10.1774 20.0619C10.0004 20.6772 9.85675 21.3066 9.74851 21.9481C9.72554 22.0843 9.59655 22.176 9.4604 22.1531C9.32425 22.1301 9.23251 22.0011 9.25548 21.865C9.36687 21.2048 9.51471 20.557 9.69686 19.9237C9.73503 19.791 9.87354 19.7143 10.0063 19.7525ZM43.5084 19.7525C43.6411 19.7143 43.7796 19.791 43.8178 19.9237C44 20.557 44.1478 21.2048 44.2592 21.865C44.2822 22.0011 44.1904 22.1301 44.0543 22.1531C43.9181 22.176 43.7891 22.0843 43.7662 21.9481C43.6579 21.3066 43.5143 20.6772 43.3373 20.0619C43.2991 19.9292 43.3757 19.7907 43.5084 19.7525ZM44.2165 23.608C44.3543 23.6003 44.4723 23.7059 44.4799 23.8438C44.4981 24.1733 44.5073 24.5053 44.5073 24.8394C44.5073 25.1734 44.4981 25.5054 44.4799 25.8349C44.4723 25.9728 44.3543 26.0784 44.2165 26.0707C44.0786 26.0631 43.973 25.9452 43.9807 25.8073C43.9984 25.4869 44.0073 25.1642 44.0073 24.8394C44.0073 24.5145 43.9984 24.1918 43.9807 23.8714C43.973 23.7335 44.0786 23.6156 44.2165 23.608ZM9.4604 27.5256C9.59655 27.5027 9.72554 27.5944 9.74851 27.7306C9.85675 28.3721 10.0004 29.0015 10.1774 29.6168C10.2156 29.7495 10.1389 29.888 10.0063 29.9262C9.87354 29.9644 9.73503 29.8877 9.69686 29.755C9.51471 29.1217 9.36687 28.4739 9.25548 27.8138C9.23251 27.6776 9.32425 27.5486 9.4604 27.5256ZM44.0543 27.5256C44.1904 27.5486 44.2822 27.6776 44.2592 27.8138C44.1478 28.4739 44 29.1217 43.8178 29.755C43.7796 29.8877 43.6411 29.9644 43.5084 29.9262C43.3757 29.888 43.2991 29.7495 43.3373 29.6168C43.5143 29.0015 43.6579 28.3721 43.7662 27.7306C43.7891 27.5944 43.9181 27.5027 44.0543 27.5256ZM10.4895 31.3072C10.617 31.2543 10.7633 31.3148 10.8162 31.4424C11.0644 32.0409 11.3453 32.6224 11.6567 33.1847C11.7236 33.3055 11.68 33.4576 11.5592 33.5245C11.4384 33.5914 11.2862 33.5478 11.2193 33.427C10.8989 32.8483 10.6098 32.2499 10.3543 31.6339C10.3014 31.5064 10.362 31.3601 10.4895 31.3072ZM43.0252 31.3072C43.1527 31.3601 43.2133 31.5064 43.1604 31.6339C42.9049 32.2499 42.6158 32.8483 42.2954 33.427C42.2285 33.5478 42.0763 33.5914 41.9555 33.5245C41.8347 33.4576 41.7911 33.3055 41.858 33.1847C42.1694 32.6224 42.4503 32.0409 42.6985 31.4424C42.7514 31.3148 42.8977 31.2543 43.0252 31.3072ZM12.339 34.763C12.4515 34.683 12.6076 34.7094 12.6876 34.8219C13.0619 35.3486 13.4651 35.8533 13.8948 36.3338C13.9868 36.4367 13.978 36.5948 13.8751 36.6868C13.7721 36.7789 13.6141 36.77 13.5221 36.6671C13.08 36.1728 12.6652 35.6535 12.28 35.1116C12.2 34.9991 12.2264 34.843 12.339 34.763ZM14.9099 37.7216C15.0019 37.6187 15.16 37.6099 15.2629 37.7019C15.7434 38.1316 16.2481 38.5348 16.7748 38.9091C16.8873 38.9891 16.9137 39.1452 16.8337 39.2577C16.7537 39.3703 16.5976 39.3967 16.4851 39.3167C15.9432 38.9315 15.4239 38.5167 14.9296 38.0746C14.8267 37.9826 14.8178 37.8246 14.9099 37.7216ZM38.6048 37.7216C38.6968 37.8246 38.688 37.9826 38.5851 38.0746C38.0908 38.5167 37.5715 38.9315 37.0296 39.3167C36.9171 39.3967 36.761 39.3703 36.681 39.2577C36.601 39.1452 36.6274 38.9891 36.7399 38.9091C37.2666 38.5348 37.7713 38.1316 38.2518 37.7019C38.3547 37.6099 38.5128 37.6187 38.6048 37.7216ZM35.4425 40.0375C35.5094 40.1583 35.4657 40.3105 35.345 40.3774C34.7663 40.6978 34.1679 40.9869 33.5519 41.2424C33.4244 41.2953 33.2781 41.2347 33.2252 41.1072C33.1723 40.9797 33.2328 40.8334 33.3604 40.7805C33.9589 40.5323 34.5404 40.2514 35.1027 39.94C35.2235 39.8731 35.3756 39.9168 35.4425 40.0375ZM21.6705 41.5904C21.7087 41.4578 21.8472 41.3811 21.9799 41.4193C22.5952 41.5963 23.2246 41.7399 23.8661 41.8482C24.0023 41.8711 24.094 42.0001 24.0711 42.1363C24.0481 42.2724 23.9191 42.3642 23.783 42.3412C23.1228 42.2298 22.475 42.082 21.8417 41.8998C21.709 41.8616 21.6323 41.7231 21.6705 41.5904ZM31.8442 41.5904C31.8824 41.7231 31.8057 41.8616 31.673 41.8998C31.0397 42.082 30.3919 42.2298 29.7317 42.3412C29.5956 42.3642 29.4666 42.2724 29.4436 42.1363C29.4207 42.0001 29.5124 41.8711 29.6486 41.8482C30.2901 41.7399 30.9195 41.5963 31.5348 41.4193C31.6675 41.3811 31.806 41.4578 31.8442 41.5904ZM25.526 42.2985C25.5336 42.1606 25.6515 42.055 25.7894 42.0627C26.1098 42.0804 26.4325 42.0894 26.7573 42.0894C27.0822 42.0894 27.4049 42.0804 27.7253 42.0627C27.8632 42.055 27.9811 42.1606 27.9887 42.2985C27.9964 42.4363 27.8908 42.5543 27.7529 42.5619C27.4234 42.5801 27.0914 42.5894 26.7573 42.5894C26.4233 42.5894 26.0913 42.5801 25.7618 42.5619C25.6239 42.5543 25.5183 42.4363 25.526 42.2985Z" fill="#969696"/>
<path d="M24.9434 8.69775C24.9434 10.6308 23.3764 12.1978 21.4434 12.1978C19.5104 12.1978 17.9434 10.6308 17.9434 8.69775C17.9434 6.76476 19.5104 5.19775 21.4434 5.19775C23.3764 5.19775 24.9434 6.76476 24.9434 8.69775Z" fill="#305D74"/>
<path d="M44.2581 35.8824C44.2581 37.9174 42.6084 39.5671 40.5734 39.5671C38.5384 39.5671 36.8887 37.9174 36.8887 35.8824C36.8887 33.8474 38.5384 32.1978 40.5734 32.1978C42.6084 32.1978 44.2581 33.8474 44.2581 35.8824Z" fill="white"/>
<path fill-rule="evenodd" clip-rule="evenodd" d="M40.5734 38.5671C42.0561 38.5671 43.2581 37.3652 43.2581 35.8824C43.2581 34.3997 42.0561 33.1978 40.5734 33.1978C39.0906 33.1978 37.8887 34.3997 37.8887 35.8824C37.8887 37.3652 39.0906 38.5671 40.5734 38.5671ZM40.5734 39.5671C42.6084 39.5671 44.2581 37.9174 44.2581 35.8824C44.2581 33.8474 42.6084 32.1978 40.5734 32.1978C38.5384 32.1978 36.8887 33.8474 36.8887 35.8824C36.8887 37.9174 38.5384 39.5671 40.5734 39.5671Z" fill="#969696"/>
<path d="M12.8244 24.8395C12.8244 26.8745 11.1747 28.5242 9.13978 28.5242C7.10478 28.5242 5.45508 26.8745 5.45508 24.8395C5.45508 22.8045 7.10478 21.1548 9.13978 21.1548C11.1747 21.1548 12.8244 22.8045 12.8244 24.8395Z" fill="white"/>
<path fill-rule="evenodd" clip-rule="evenodd" d="M9.13978 27.5242C10.6225 27.5242 11.8244 26.3222 11.8244 24.8395C11.8244 23.3568 10.6225 22.1548 9.13978 22.1548C7.65706 22.1548 6.45508 23.3568 6.45508 24.8395C6.45508 26.3222 7.65706 27.5242 9.13978 27.5242ZM9.13978 28.5242C11.1747 28.5242 12.8244 26.8745 12.8244 24.8395C12.8244 22.8045 11.1747 21.1548 9.13978 21.1548C7.10478 21.1548 5.45508 22.8045 5.45508 24.8395C5.45508 26.8745 7.10478 28.5242 9.13978 28.5242Z" fill="#969696"/>
<path d="M38.6582 12.8081C38.6582 12.2558 39.1059 11.8081 39.6582 11.8081H42.6582C43.2105 11.8081 43.6582 12.2558 43.6582 12.8081V15.8081C43.6582 16.3604 43.2105 16.8081 42.6582 16.8081H39.6582C39.1059 16.8081 38.6582 16.3604 38.6582 15.8081V12.8081Z" fill="white"/>
<path fill-rule="evenodd" clip-rule="evenodd" d="M42.6582 12.8081H39.6582V15.8081H42.6582V12.8081ZM39.6582 11.8081C39.1059 11.8081 38.6582 12.2558 38.6582 12.8081V15.8081C38.6582 16.3604 39.1059 16.8081 39.6582 16.8081H42.6582C43.2105 16.8081 43.6582 16.3604 43.6582 15.8081V12.8081C43.6582 12.2558 43.2105 11.8081 42.6582 11.8081H39.6582Z" fill="#969696"/>
<path d="M17.2422 39.5767C17.2422 39.0244 17.6899 38.5767 18.2422 38.5767H21.2422C21.7945 38.5767 22.2422 39.0244 22.2422 39.5767V42.5767C22.2422 43.1289 21.7945 43.5767 21.2422 43.5767H18.2422C17.6899 43.5767 17.2422 43.1289 17.2422 42.5767V39.5767Z" fill="white"/>
<path fill-rule="evenodd" clip-rule="evenodd" d="M21.2422 39.5767H18.2422V42.5767H21.2422V39.5767ZM18.2422 38.5767C17.6899 38.5767 17.2422 39.0244 17.2422 39.5767V42.5767C17.2422 43.1289 17.6899 43.5767 18.2422 43.5767H21.2422C21.7945 43.5767 22.2422 43.1289 22.2422 42.5767V39.5767C22.2422 39.0244 21.7945 38.5767 21.2422 38.5767H18.2422Z" fill="#969696"/>
</svg>
