<!--
 Copyright 2023-2025 Solace Systems. All rights reserved.

 Licensed under the Apache License, Version 2.0 (the "License");
 you may not use this file except in compliance with the License.
 You may obtain a copy of the License at

     http://www.apache.org/licenses/LICENSE-2.0

 Unless required by applicable law or agreed to in writing, software
 distributed under the License is distributed on an "AS IS" BASIS,
 WITHOUT WARRANTIES OR CONDITIONS OF ANY KIND, either express or implied.
 See the License for the specific language governing permissions and
 limitations under the License.
-->
<svg width="49" height="49" viewBox="0 0 49 49" fill="none" xmlns="http://www.w3.org/2000/svg">
<path d="M5.98242 10.8682C5.98242 10.3159 6.43014 9.86816 6.98242 9.86816H42.9824C43.5347 9.86816 43.9824 10.3159 43.9824 10.8682V37.8682C43.9824 38.4204 43.5347 38.8682 42.9824 38.8682H6.98242C6.43014 38.8682 5.98242 38.4204 5.98242 37.8682V10.8682Z" fill="white"/>
<path fill-rule="evenodd" clip-rule="evenodd" d="M42.9824 10.8682H6.98242V37.8682H42.9824V10.8682ZM6.98242 9.86816C6.43014 9.86816 5.98242 10.3159 5.98242 10.8682V37.8682C5.98242 38.4204 6.43014 38.8682 6.98242 38.8682H42.9824C43.5347 38.8682 43.9824 38.4204 43.9824 37.8682V10.8682C43.9824 10.3159 43.5347 9.86816 42.9824 9.86816H6.98242Z" fill="#969696"/>
<path d="M4.98242 35.8833C4.98242 35.331 5.43014 34.8833 5.98242 34.8833H43.9824C44.5347 34.8833 44.9824 35.331 44.9824 35.8833V37.8833C44.9824 38.4356 44.5347 38.8833 43.9824 38.8833H5.98242C5.43014 38.8833 4.98242 38.4356 4.98242 37.8833V35.8833Z" fill="white"/>
<path fill-rule="evenodd" clip-rule="evenodd" d="M43.9824 35.8833H5.98242V37.8833H43.9824V35.8833ZM5.98242 34.8833C5.43014 34.8833 4.98242 35.331 4.98242 35.8833V37.8833C4.98242 38.4356 5.43014 38.8833 5.98242 38.8833H43.9824C44.5347 38.8833 44.9824 38.4356 44.9824 37.8833V35.8833C44.9824 35.331 44.5347 34.8833 43.9824 34.8833H5.98242Z" fill="#969696"/>
<path fill-rule="evenodd" clip-rule="evenodd" d="M6.98242 10.9058V34.9058H42.9824V10.9058H6.98242ZM6.7179 9.90576C6.31171 9.90576 5.98242 10.235 5.98242 10.6412V35.1703C5.98242 35.5765 6.31171 35.9058 6.7179 35.9058H43.247C43.6531 35.9058 43.9824 35.5765 43.9824 35.1703V10.6412C43.9824 10.235 43.6531 9.90576 43.247 9.90576H6.7179Z" fill="#969696"/>
<path fill-rule="evenodd" clip-rule="evenodd" d="M31.9859 18.6558H15.9824V18.1558H31.9859V18.6558Z" fill="#969696"/>
<path fill-rule="evenodd" clip-rule="evenodd" d="M33.9159 22.3919L27.3048 29.003L26.9512 28.6494L33.5623 22.0383L33.9159 22.3919Z" fill="#969696"/>
<path d="M40.1641 18.4058C40.1641 20.3388 38.5971 21.9058 36.6641 21.9058C34.7311 21.9058 33.1641 20.3388 33.1641 18.4058C33.1641 16.4728 34.7311 14.9058 36.6641 14.9058C38.5971 14.9058 40.1641 16.4728 40.1641 18.4058Z" fill="#305D74"/>
<path fill-rule="evenodd" clip-rule="evenodd" d="M27.0352 28.8857H24.0352V31.8857H27.0352V28.8857ZM24.0352 27.8857C23.4829 27.8857 23.0352 28.3335 23.0352 28.8857V31.8857C23.0352 32.438 23.4829 32.8857 24.0352 32.8857H27.0352C27.5875 32.8857 28.0352 32.438 28.0352 31.8857V28.8857C28.0352 28.3335 27.5875 27.8857 27.0352 27.8857H24.0352Z" fill="#969696"/>
<path fill-rule="evenodd" clip-rule="evenodd" d="M5.98242 35.9058V37.9058H43.9824V35.9058H5.98242ZM5.7179 34.9058C5.31171 34.9058 4.98242 35.235 4.98242 35.6412V38.1703C4.98242 38.5765 5.31171 38.9058 5.7179 38.9058H44.247C44.6531 38.9058 44.9824 38.5765 44.9824 38.1703V35.6412C44.9824 35.235 44.6531 34.9058 44.247 34.9058H5.7179Z" fill="#969696"/>
<path fill-rule="evenodd" clip-rule="evenodd" d="M13.4824 20.9058C14.8631 20.9058 15.9824 19.7865 15.9824 18.4058C15.9824 17.025 14.8631 15.9058 13.4824 15.9058C12.1017 15.9058 10.9824 17.025 10.9824 18.4058C10.9824 19.7865 12.1017 20.9058 13.4824 20.9058ZM13.4824 21.9058C15.4154 21.9058 16.9824 20.3388 16.9824 18.4058C16.9824 16.4728 15.4154 14.9058 13.4824 14.9058C11.5494 14.9058 9.98242 16.4728 9.98242 18.4058C9.98242 20.3388 11.5494 21.9058 13.4824 21.9058Z" fill="#969696"/>
<path fill-rule="evenodd" clip-rule="evenodd" d="M27.8184 24.1406C27.8184 24.0026 27.9304 23.8906 28.0684 23.8906H31.6658C31.8039 23.8906 31.9158 24.0026 31.9158 24.1406C31.9158 24.2787 31.8039 24.3906 31.6658 24.3906H28.0684C27.9304 24.3906 27.8184 24.2787 27.8184 24.1406Z" fill="#969696"/>
<path fill-rule="evenodd" clip-rule="evenodd" d="M31.7363 27.9883C31.5982 27.9883 31.4863 27.8764 31.4863 27.7383V24.1409C31.4863 24.0028 31.5982 23.8909 31.7363 23.8909C31.8743 23.8909 31.9863 24.0028 31.9863 24.1409V27.7383C31.9863 27.8764 31.8743 27.9883 31.7363 27.9883Z" fill="#969696"/>
<path fill-rule="evenodd" clip-rule="evenodd" d="M24.1611 15.6851C24.2587 15.5874 24.417 15.5874 24.5146 15.6851L27.0584 18.2288C27.156 18.3265 27.156 18.4848 27.0584 18.5824C26.9608 18.68 26.8025 18.68 26.7048 18.5824L24.1611 16.0386C24.0635 15.941 24.0635 15.7827 24.1611 15.6851Z" fill="#969696"/>
<path fill-rule="evenodd" clip-rule="evenodd" d="M24.1611 21.1265C24.0635 21.0289 24.0635 20.8706 24.1611 20.7729L26.7049 18.2292C26.8025 18.1315 26.9608 18.1315 27.0584 18.2292C27.1561 18.3268 27.1561 18.4851 27.0584 18.5827L24.5147 21.1265C24.417 21.2241 24.2588 21.2241 24.1611 21.1265Z" fill="#969696"/>
</svg>
