<?xml version="1.0" encoding="utf-8"?>
<!--
  Copyright 2023-2025 Solace Systems. All rights reserved.

  Licensed under the Apache License, Version 2.0 (the "License");
  you may not use this file except in compliance with the License.
  You may obtain a copy of the License at

      http://www.apache.org/licenses/LICENSE-2.0

  Unless required by applicable law or agreed to in writing, software
  distributed under the License is distributed on an "AS IS" BASIS,
  WITHOUT WARRANTIES OR CONDITIONS OF ANY KIND, either express or implied.
  See the License for the specific language governing permissions and
  limitations under the License.
-->
<svg width="49" height="49" viewBox="0 0 49 49" fill="none" xmlns="http://www.w3.org/2000/svg">
<path d="M4.98242 11.7529C4.98242 10.6484 5.87785 9.75293 6.98242 9.75293H16.9824C21.4007 9.75293 24.9824 13.3347 24.9824 17.7529V36.7529C24.9824 38.4098 23.6393 39.7529 21.9824 39.7529H6.98242C5.87785 39.7529 4.98242 38.8575 4.98242 37.7529V11.7529Z" fill="white"/>
<path fill-rule="evenodd" clip-rule="evenodd" d="M16.9824 10.7529H6.98242C6.43014 10.7529 5.98242 11.2006 5.98242 11.7529V37.7529C5.98242 38.3052 6.43014 38.7529 6.98242 38.7529H21.9824C23.087 38.7529 23.9824 37.8575 23.9824 36.7529V17.7529C23.9824 13.8869 20.8484 10.7529 16.9824 10.7529ZM6.98242 9.75293C5.87785 9.75293 4.98242 10.6484 4.98242 11.7529V37.7529C4.98242 38.8575 5.87785 39.7529 6.98242 39.7529H21.9824C23.6393 39.7529 24.9824 38.4098 24.9824 36.7529V17.7529C24.9824 13.3347 21.4007 9.75293 16.9824 9.75293H6.98242Z" fill="#969696"/>
<path d="M23.9824 17.7529C23.9824 13.3347 27.5642 9.75293 31.9824 9.75293H42.9824C44.087 9.75293 44.9824 10.6484 44.9824 11.7529V37.7529C44.9824 38.8575 44.087 39.7529 42.9824 39.7529H26.9824C25.3256 39.7529 23.9824 38.4098 23.9824 36.7529V17.7529Z" fill="white"/>
<path fill-rule="evenodd" clip-rule="evenodd" d="M42.9824 10.7529H31.9824C28.1164 10.7529 24.9824 13.8869 24.9824 17.7529V36.7529C24.9824 37.8575 25.8779 38.7529 26.9824 38.7529H42.9824C43.5347 38.7529 43.9824 38.3052 43.9824 37.7529V11.7529C43.9824 11.2006 43.5347 10.7529 42.9824 10.7529ZM31.9824 9.75293C27.5642 9.75293 23.9824 13.3347 23.9824 17.7529V36.7529C23.9824 38.4098 25.3256 39.7529 26.9824 39.7529H42.9824C44.087 39.7529 44.9824 38.8575 44.9824 37.7529V11.7529C44.9824 10.6484 44.087 9.75293 42.9824 9.75293H31.9824Z" fill="#969696"/>
<path fill-rule="evenodd" clip-rule="evenodd" d="M8.48242 29.7529C8.48242 29.4768 8.70628 29.2529 8.98242 29.2529H13.9069C14.1831 29.2529 14.4069 29.4768 14.4069 29.7529C14.4069 30.0291 14.1831 30.2529 13.9069 30.2529H8.98242C8.70628 30.2529 8.48242 30.0291 8.48242 29.7529Z" fill="#969696"/>
<path fill-rule="evenodd" clip-rule="evenodd" d="M8.48242 26.7529C8.48242 26.4768 8.70628 26.2529 8.98242 26.2529H13.9069C14.1831 26.2529 14.4069 26.4768 14.4069 26.7529C14.4069 27.0291 14.1831 27.2529 13.9069 27.2529H8.98242C8.70628 27.2529 8.48242 27.0291 8.48242 26.7529Z" fill="#969696"/>
<path fill-rule="evenodd" clip-rule="evenodd" d="M28.2598 20.6519C28.2598 20.3757 28.4836 20.1519 28.7598 20.1519H39.8672C40.1434 20.1519 40.3672 20.3757 40.3672 20.6519C40.3672 20.928 40.1434 21.1519 39.8672 21.1519H28.7598C28.4836 21.1519 28.2598 20.928 28.2598 20.6519Z" fill="#969696"/>
<path fill-rule="evenodd" clip-rule="evenodd" d="M28.2891 17.9282C28.2891 17.6521 28.513 17.4282 28.7891 17.4282H39.8966C40.1727 17.4282 40.3966 17.6521 40.3966 17.9282C40.3966 18.2044 40.1727 18.4282 39.8966 18.4282H28.7891C28.513 18.4282 28.2891 18.2044 28.2891 17.9282Z" fill="#969696"/>
<path fill-rule="evenodd" clip-rule="evenodd" d="M17.4824 17.7529C17.4824 17.4768 17.7063 17.2529 17.9824 17.2529H21.0393C21.3155 17.2529 21.5393 17.4768 21.5393 17.7529C21.5393 18.0291 21.3155 18.2529 21.0393 18.2529H17.9824C17.7063 18.2529 17.4824 18.0291 17.4824 17.7529Z" fill="#969696"/>
<path fill-rule="evenodd" clip-rule="evenodd" d="M17.4824 20.7529C17.4824 20.4768 17.7063 20.2529 17.9824 20.2529H21.0393C21.3155 20.2529 21.5393 20.4768 21.5393 20.7529C21.5393 21.0291 21.3155 21.2529 21.0393 21.2529H17.9824C17.7063 21.2529 17.4824 21.0291 17.4824 20.7529Z" fill="#969696"/>
<path d="M27.9824 25.7529C27.9824 25.2006 28.4301 24.7529 28.9824 24.7529H39.9824C40.5347 24.7529 40.9824 25.2006 40.9824 25.7529V30.7529C40.9824 31.3052 40.5347 31.7529 39.9824 31.7529H28.9824C28.4301 31.7529 27.9824 31.3052 27.9824 30.7529V25.7529Z" fill="white"/>
<path fill-rule="evenodd" clip-rule="evenodd" d="M39.9824 25.7529H28.9824V30.7529H39.9824V25.7529ZM28.9824 24.7529C28.4301 24.7529 27.9824 25.2006 27.9824 25.7529V30.7529C27.9824 31.3052 28.4301 31.7529 28.9824 31.7529H39.9824C40.5347 31.7529 40.9824 31.3052 40.9824 30.7529V25.7529C40.9824 25.2006 40.5347 24.7529 39.9824 24.7529H28.9824Z" fill="#969696"/>
<path d="M15.9824 26.7529C15.9824 26.2006 16.4301 25.7529 16.9824 25.7529H19.9824C20.5347 25.7529 20.9824 26.2006 20.9824 26.7529V29.7529C20.9824 30.3052 20.5347 30.7529 19.9824 30.7529H16.9824C16.4301 30.7529 15.9824 30.3052 15.9824 29.7529V26.7529Z" fill="white"/>
<path fill-rule="evenodd" clip-rule="evenodd" d="M19.9824 26.7529H16.9824V29.7529H19.9824V26.7529ZM16.9824 25.7529C16.4301 25.7529 15.9824 26.2006 15.9824 26.7529V29.7529C15.9824 30.3052 16.4301 30.7529 16.9824 30.7529H19.9824C20.5347 30.7529 20.9824 30.3052 20.9824 29.7529V26.7529C20.9824 26.2006 20.5347 25.7529 19.9824 25.7529H16.9824Z" fill="#969696"/>
<path d="M15.9825 19.2529C15.9825 21.1859 14.4154 22.7529 12.4824 22.7529C10.5494 22.7529 8.98242 21.1859 8.98242 19.2529C8.98242 17.3199 10.5494 15.7529 12.4824 15.7529C14.4154 15.7529 15.9825 17.3199 15.9825 19.2529Z" fill="#305D74"/>
<path fill-rule="evenodd" clip-rule="evenodd" d="M4.98242 36.2529H43.9824V37.2529H4.98242V36.2529Z" fill="#969696"/>
</svg>