<svg width="131" height="121" viewBox="0 0 131 121" fill="none" xmlns="http://www.w3.org/2000/svg">
<g clip-path="url(#clip0_121_3108)">
<path d="M53.5 107C83.0472 107 107 83.0472 107 53.5C107 23.9528 83.0472 0 53.5 0C23.9528 0 0 23.9528 0 53.5C0 83.0472 23.9528 107 53.5 107Z" fill="#033D58" fill-opacity="0.1"/>
<path d="M100 23H27.2188C25.5619 23 24.2188 24.3431 24.2188 26V40.1613C24.2188 41.8182 25.5619 43.1613 27.2188 43.1613H100C101.657 43.1613 103 41.8182 103 40.1613V26C103 24.3431 101.657 23 100 23Z" fill="white" stroke="#969696" stroke-width="2"/>
<path d="M37.4426 34.9245C38.467 34.9245 39.2974 34.0941 39.2974 33.0697C39.2974 32.0454 38.467 31.215 37.4426 31.215C36.4183 31.215 35.5879 32.0454 35.5879 33.0697C35.5879 34.0941 36.4183 34.9245 37.4426 34.9245Z" stroke="#969696" stroke-linecap="round" stroke-linejoin="round"/>
<path d="M100 42.9181H27.2188C25.5619 42.9181 24.2188 44.2612 24.2188 45.9181V60.0794C24.2188 61.7362 25.5619 63.0794 27.2188 63.0794H100C101.657 63.0794 103 61.7362 103 60.0794V45.9181C103 44.2612 101.657 42.9181 100 42.9181Z" fill="white" stroke="#969696" stroke-width="2"/>
<path d="M37.4426 54.8406C38.467 54.8406 39.2974 54.0102 39.2974 52.9859C39.2974 51.9615 38.467 51.1311 37.4426 51.1311C36.4183 51.1311 35.5879 51.9615 35.5879 52.9859C35.5879 54.0102 36.4183 54.8406 37.4426 54.8406Z" stroke="#969696" stroke-linecap="round" stroke-linejoin="round"/>
<path d="M45.6035 63.0804V23.2448" stroke="#969696" stroke-width="2"/>
<path d="M50.6309 39.4281V26.9795" stroke="#969696"/>
<path d="M50.6309 59.3464V46.8978" stroke="#969696"/>
<path d="M91.2658 62.9155H18.4844C16.8275 62.9155 15.4844 64.2587 15.4844 65.9155V80.0768C15.4844 81.7337 16.8275 83.0768 18.4844 83.0768H91.2658C92.9226 83.0768 94.2658 81.7337 94.2658 80.0768V65.9155C94.2658 64.2587 92.9226 62.9155 91.2658 62.9155Z" fill="white" stroke="#969696" stroke-width="2"/>
<path d="M28.7083 74.838C29.7326 74.838 30.563 74.0076 30.563 72.9833C30.563 71.9589 29.7326 71.1285 28.7083 71.1285C27.6839 71.1285 26.8535 71.9589 26.8535 72.9833C26.8535 74.0076 27.6839 74.838 28.7083 74.838Z" fill="#305D74" stroke="#305D74" stroke-linecap="round" stroke-linejoin="round"/>
<path d="M36.6934 82.8871V61.8896" stroke="#969696" stroke-width="2"/>
<path d="M41.8965 79.3439V66.8953" stroke="#969696"/>
<path d="M84.8854 99.9502C98.6292 99.9502 109.771 88.8087 109.771 75.0648C109.771 61.321 98.6292 50.1794 84.8854 50.1794C71.1416 50.1794 60 61.321 60 75.0648C60 88.8087 71.1416 99.9502 84.8854 99.9502Z" stroke="#969696" stroke-width="2"/>
<path d="M104.263 92.8475L103.555 92.1404L102.141 93.5546L102.848 94.2617L104.263 92.8475ZM129.294 120.707C129.684 121.098 130.318 121.098 130.708 120.707C131.099 120.317 131.099 119.684 130.708 119.293L129.294 120.707ZM102.848 94.2617L129.294 120.707L130.708 119.293L104.263 92.8475L102.848 94.2617Z" fill="#969696"/>
</g>
<defs>
<clipPath id="clip0_121_3108">
<rect width="131" height="121" fill="white"/>
</clipPath>
</defs>
</svg>
