<svg width="40" height="36" viewBox="0 0 40 36" fill="none" xmlns="http://www.w3.org/2000/svg">
<g clip-path="url(#clip0_121_3643)">
<path d="M0.5 1.24331C0.5 0.84317 0.824371 0.518799 1.2245 0.518799H14.8628C17.5171 0.518799 19.6689 2.6706 19.6689 5.32497V33.9031C19.6689 34.3032 19.3446 34.6276 18.9444 34.6276H1.2245C0.824371 34.6276 0.5 34.3032 0.5 33.9031V1.24331Z" fill="white" stroke="#969696" stroke-linecap="round"/>
<path fill-rule="evenodd" clip-rule="evenodd" d="M14.8628 0.835133H1.2245C0.999078 0.835133 0.816334 1.01788 0.816334 1.24331V33.9031C0.816334 34.1285 0.999076 34.3113 1.2245 34.3113H18.9444C19.1698 34.3113 19.3526 34.1285 19.3526 33.9031V5.32497C19.3526 2.8453 17.3424 0.835133 14.8628 0.835133ZM1.2245 0.0187988C0.548228 0.0187988 0 0.567029 0 1.24331V33.9031C0 34.5794 0.548227 35.1276 1.2245 35.1276H18.9444C19.6207 35.1276 20.1689 34.5794 20.1689 33.9031V5.32497C20.1689 2.39446 17.7933 0.0187988 14.8628 0.0187988H1.2245Z" fill="#969696"/>
<mask id="mask0_121_3643" style="mask-type:luminance" maskUnits="userSpaceOnUse" x="0" y="0" width="21" height="36">
<path fill-rule="evenodd" clip-rule="evenodd" d="M14.8628 0.835133H1.2245C0.999078 0.835133 0.816334 1.01788 0.816334 1.24331V33.9031C0.816334 34.1285 0.999076 34.3113 1.2245 34.3113H18.9444C19.1698 34.3113 19.3526 34.1285 19.3526 33.9031V5.32497C19.3526 2.8453 17.3424 0.835133 14.8628 0.835133ZM1.2245 0.0187988C0.548228 0.0187988 0 0.567029 0 1.24331V33.9031C0 34.5794 0.548227 35.1276 1.2245 35.1276H18.9444C19.6207 35.1276 20.1689 34.5794 20.1689 33.9031V5.32497C20.1689 2.39446 17.7933 0.0187988 14.8628 0.0187988H1.2245Z" fill="white"/>
</mask>
<g mask="url(#mask0_121_3643)">
<path d="M1.2245 1.83514H14.8628V-0.164867H1.2245V1.83514ZM1.81633 1.24331C1.81633 1.57016 1.55136 1.83514 1.2245 1.83514V-0.164867C0.446792 -0.164867 -0.183666 0.465591 -0.183666 1.24331H1.81633ZM1.81633 33.9031V1.24331H-0.183666V33.9031H1.81633ZM1.2245 33.3113C1.55136 33.3113 1.81633 33.5763 1.81633 33.9031H-0.183666C-0.183666 34.6808 0.446791 35.3113 1.2245 35.3113V33.3113ZM18.9444 33.3113H1.2245V35.3113H18.9444V33.3113ZM18.3526 33.9031C18.3526 33.5763 18.6176 33.3113 18.9444 33.3113V35.3113C19.7221 35.3113 20.3526 34.6808 20.3526 33.9031H18.3526ZM18.3526 5.32497V33.9031H20.3526V5.32497H18.3526ZM14.8628 1.83514C16.7901 1.83514 18.3526 3.39759 18.3526 5.32497H20.3526C20.3526 2.29302 17.8947 -0.164867 14.8628 -0.164867V1.83514ZM1 1.24331C1 1.11932 1.10051 1.0188 1.2245 1.0188V-0.981201C-0.0040592 -0.981201 -1 0.0147457 -1 1.24331H1ZM1 33.9031V1.24331H-1V33.9031H1ZM1.2245 34.1276C1.10051 34.1276 1 34.0271 1 33.9031H-1C-1 35.1317 -0.004058 36.1276 1.2245 36.1276V34.1276ZM18.9444 34.1276H1.2245V36.1276H18.9444V34.1276ZM19.1689 33.9031C19.1689 34.0271 19.0684 34.1276 18.9444 34.1276V36.1276C20.173 36.1276 21.1689 35.1317 21.1689 33.9031H19.1689ZM19.1689 5.32497V33.9031H21.1689V5.32497H19.1689ZM14.8628 1.0188C17.241 1.0188 19.1689 2.94674 19.1689 5.32497H21.1689C21.1689 1.84217 18.3456 -0.981201 14.8628 -0.981201V1.0188ZM1.2245 1.0188H14.8628V-0.981201H1.2245V1.0188Z" fill="#969696"/>
</g>
<path fill-rule="evenodd" clip-rule="evenodd" d="M19.1838 32.6479H0.816334V33.8724C0.816334 34.0978 0.999076 34.2805 1.2245 34.2805H18.7757C19.0011 34.2805 19.1838 34.0978 19.1838 33.8724V32.6479ZM0 31.8315V33.8724C0 34.5486 0.548227 35.0969 1.2245 35.0969H18.7757C19.4519 35.0969 20.0002 34.5486 20.0002 33.8724V31.8315H0Z" fill="#969696"/>
<mask id="mask1_121_3643" style="mask-type:luminance" maskUnits="userSpaceOnUse" x="0" y="31" width="20" height="5">
<path fill-rule="evenodd" clip-rule="evenodd" d="M19.1838 32.6479H0.816334V33.8724C0.816334 34.0978 0.999076 34.2805 1.2245 34.2805H18.7757C19.0011 34.2805 19.1838 34.0978 19.1838 33.8724V32.6479ZM0 31.8315V33.8724C0 34.5486 0.548227 35.0969 1.2245 35.0969H18.7757C19.4519 35.0969 20.0002 34.5486 20.0002 33.8724V31.8315H0Z" fill="white"/>
</mask>
<g mask="url(#mask1_121_3643)">
<path d="M0.816334 32.6479V31.6479H-0.183666V32.6479H0.816334ZM19.1838 32.6479H20.1838V31.6479H19.1838V32.6479ZM0 31.8315V30.8315H-1V31.8315H0ZM20.0002 31.8315H21.0002V30.8315H20.0002V31.8315ZM0.816334 33.6479H19.1838V31.6479H0.816334V33.6479ZM1.81633 33.8724V32.6479H-0.183666V33.8724H1.81633ZM1.2245 33.2805C1.55136 33.2805 1.81633 33.5455 1.81633 33.8724H-0.183666C-0.183666 34.6501 0.446791 35.2805 1.2245 35.2805V33.2805ZM18.7757 33.2805H1.2245V35.2805H18.7757V33.2805ZM18.1838 33.8724C18.1838 33.5455 18.4488 33.2805 18.7757 33.2805V35.2805C19.5534 35.2805 20.1838 34.6501 20.1838 33.8724H18.1838ZM18.1838 32.6479V33.8724H20.1838V32.6479H18.1838ZM1.2245 34.0969C1.10051 34.0969 1 33.9964 1 33.8724H-1C-1 35.1009 -0.00405824 36.0969 1.2245 36.0969V34.0969ZM18.7757 34.0969H1.2245V36.0969H18.7757V34.0969ZM19.0002 33.8724C19.0002 33.9963 18.8997 34.0969 18.7757 34.0969V36.0969C20.0042 36.0969 21.0002 35.1009 21.0002 33.8724H19.0002ZM0 32.8315H20.0002V30.8315H0V32.8315ZM1 33.8724V31.8315H-1V33.8724H1ZM19.0002 31.8315V33.8724H21.0002V31.8315H19.0002Z" fill="#969696"/>
</g>
<path d="M19.2754 5.71434C19.2754 2.83454 21.61 0.5 24.4898 0.5H38.7756C39.1758 0.5 39.5001 0.82437 39.5001 1.2245V33.8778C39.5001 34.278 39.1758 34.6023 38.7756 34.6023H19.9999C19.5998 34.6023 19.2754 34.278 19.2754 33.8778V5.71434Z" fill="white" stroke="#969696" stroke-linecap="round"/>
<path fill-rule="evenodd" clip-rule="evenodd" d="M38.7756 0.816334H24.4898C21.7847 0.816334 19.5918 3.00924 19.5918 5.71434V33.8778C19.5918 34.1033 19.7745 34.286 19.9999 34.286H38.7756C39.001 34.286 39.1838 34.1033 39.1838 33.8778V1.2245C39.1838 0.999076 39.001 0.816334 38.7756 0.816334ZM24.4898 0C21.3338 0 18.7754 2.5584 18.7754 5.71434V33.8778C18.7754 34.5541 19.3237 35.1023 19.9999 35.1023H38.7756C39.4519 35.1023 40.0001 34.5541 40.0001 33.8778V1.2245C40.0001 0.548228 39.4519 0 38.7756 0H24.4898Z" fill="#969696"/>
<mask id="mask2_121_3643" style="mask-type:luminance" maskUnits="userSpaceOnUse" x="18" y="0" width="22" height="36">
<path fill-rule="evenodd" clip-rule="evenodd" d="M38.7756 0.816334H24.4898C21.7847 0.816334 19.5918 3.00924 19.5918 5.71434V33.8778C19.5918 34.1033 19.7745 34.286 19.9999 34.286H38.7756C39.001 34.286 39.1838 34.1033 39.1838 33.8778V1.2245C39.1838 0.999076 39.001 0.816334 38.7756 0.816334ZM24.4898 0C21.3338 0 18.7754 2.5584 18.7754 5.71434V33.8778C18.7754 34.5541 19.3237 35.1023 19.9999 35.1023H38.7756C39.4519 35.1023 40.0001 34.5541 40.0001 33.8778V1.2245C40.0001 0.548228 39.4519 0 38.7756 0H24.4898Z" fill="white"/>
</mask>
<g mask="url(#mask2_121_3643)">
<path d="M24.4898 1.81633H38.7756V-0.183666H24.4898V1.81633ZM20.5918 5.71434C20.5918 3.56153 22.337 1.81633 24.4898 1.81633V-0.183666C21.2324 -0.183666 18.5918 2.45696 18.5918 5.71434H20.5918ZM20.5918 33.8778V5.71434H18.5918V33.8778H20.5918ZM19.9999 33.286C20.3268 33.286 20.5918 33.551 20.5918 33.8778H18.5918C18.5918 34.6556 19.2222 35.286 19.9999 35.286V33.286ZM38.7756 33.286H19.9999V35.286H38.7756V33.286ZM38.1838 33.8778C38.1838 33.551 38.4488 33.286 38.7756 33.286V35.286C39.5533 35.286 40.1838 34.6556 40.1838 33.8778H38.1838ZM38.1838 1.2245V33.8778H40.1838V1.2245H38.1838ZM38.7756 1.81633C38.4488 1.81633 38.1838 1.55136 38.1838 1.2245H40.1838C40.1838 0.44679 39.5533 -0.183666 38.7756 -0.183666V1.81633ZM19.7754 5.71434C19.7754 3.11068 21.8861 1 24.4898 1V-1C20.7816 -1 17.7754 2.00611 17.7754 5.71434H19.7754ZM19.7754 33.8778V5.71434H17.7754V33.8778H19.7754ZM19.9999 34.1023C19.876 34.1023 19.7754 34.0018 19.7754 33.8778H17.7754C17.7754 35.1064 18.7714 36.1023 19.9999 36.1023V34.1023ZM38.7756 34.1023H19.9999V36.1023H38.7756V34.1023ZM39.0001 33.8778C39.0001 34.0018 38.8996 34.1023 38.7756 34.1023V36.1023C40.0042 36.1023 41.0001 35.1064 41.0001 33.8778H39.0001ZM39.0001 1.2245V33.8778H41.0001V1.2245H39.0001ZM38.7756 1C38.8996 1 39.0001 1.10051 39.0001 1.2245H41.0001C41.0001 -0.00405741 40.0042 -1 38.7756 -1V1ZM24.4898 1H38.7756V-1H24.4898V1Z" fill="#969696"/>
</g>
<path fill-rule="evenodd" clip-rule="evenodd" d="M39.1838 32.6479H19.5918V33.8724C19.5918 34.0978 19.7745 34.2805 19.9999 34.2805H38.7756C39.001 34.2805 39.1838 34.0978 39.1838 33.8724V32.6479ZM18.7754 31.8315V33.8724C18.7754 34.5486 19.3237 35.0969 19.9999 35.0969H38.7756C39.4519 35.0969 40.0001 34.5486 40.0001 33.8724V31.8315H18.7754Z" fill="#969696"/>
<mask id="mask3_121_3643" style="mask-type:luminance" maskUnits="userSpaceOnUse" x="18" y="31" width="22" height="5">
<path fill-rule="evenodd" clip-rule="evenodd" d="M39.1838 32.6479H19.5918V33.8724C19.5918 34.0978 19.7745 34.2805 19.9999 34.2805H38.7756C39.001 34.2805 39.1838 34.0978 39.1838 33.8724V32.6479ZM18.7754 31.8315V33.8724C18.7754 34.5486 19.3237 35.0969 19.9999 35.0969H38.7756C39.4519 35.0969 40.0001 34.5486 40.0001 33.8724V31.8315H18.7754Z" fill="white"/>
</mask>
<g mask="url(#mask3_121_3643)">
<path d="M19.5918 32.6479V31.6479H18.5918V32.6479H19.5918ZM39.1838 32.6479H40.1838V31.6479H39.1838V32.6479ZM18.7754 31.8315V30.8315H17.7754V31.8315H18.7754ZM40.0001 31.8315H41.0001V30.8315H40.0001V31.8315ZM19.5918 33.6479H39.1838V31.6479H19.5918V33.6479ZM20.5918 33.8724V32.6479H18.5918V33.8724H20.5918ZM19.9999 33.2805C20.3268 33.2805 20.5918 33.5455 20.5918 33.8724H18.5918C18.5918 34.6501 19.2222 35.2805 19.9999 35.2805V33.2805ZM38.7756 33.2805H19.9999V35.2805H38.7756V33.2805ZM38.1838 33.8724C38.1838 33.5455 38.4488 33.2805 38.7756 33.2805V35.2805C39.5533 35.2805 40.1838 34.6501 40.1838 33.8724H38.1838ZM38.1838 32.6479V33.8724H40.1838V32.6479H38.1838ZM19.9999 34.0969C19.876 34.0969 19.7754 33.9964 19.7754 33.8724H17.7754C17.7754 35.1009 18.7714 36.0969 19.9999 36.0969V34.0969ZM38.7756 34.0969H19.9999V36.0969H38.7756V34.0969ZM39.0001 33.8724C39.0001 33.9963 38.8996 34.0969 38.7756 34.0969V36.0969C40.0042 36.0969 41.0001 35.1009 41.0001 33.8724H39.0001ZM18.7754 32.8315H40.0001V30.8315H18.7754V32.8315ZM19.7754 33.8724V31.8315H17.7754V33.8724H19.7754ZM39.0001 31.8315V33.8724H41.0001V31.8315H39.0001Z" fill="#969696"/>
</g>
<path d="M34.5 9H23.5C23.2239 9 23 9.22386 23 9.5C23 9.77614 23.2239 10 23.5 10H34.5C34.7761 10 35 9.77614 35 9.5C35 9.22386 34.7761 9 34.5 9Z" fill="#969696"/>
<path d="M34.5 16H23.5C23.2239 16 23 16.2239 23 16.5C23 16.7761 23.2239 17 23.5 17H34.5C34.7761 17 35 16.7761 35 16.5C35 16.2239 34.7761 16 34.5 16Z" fill="#969696"/>
<path d="M34.5 23H23.5C23.2239 23 23 23.2239 23 23.5C23 23.7761 23.2239 24 23.5 24H34.5C34.7761 24 35 23.7761 35 23.5C35 23.2239 34.7761 23 34.5 23Z" fill="#969696"/>
</g>
<defs>
<clipPath id="clip0_121_3643">
<rect width="40" height="36" fill="white"/>
</clipPath>
</defs>
</svg>
