<!--
 Copyright 2023-2025 Solace Systems. All rights reserved.

 Licensed under the Apache License, Version 2.0 (the "License");
 you may not use this file except in compliance with the License.
 You may obtain a copy of the License at

     http://www.apache.org/licenses/LICENSE-2.0

 Unless required by applicable law or agreed to in writing, software
 distributed under the License is distributed on an "AS IS" BASIS,
 WITHOUT WARRANTIES OR CONDITIONS OF ANY KIND, either express or implied.
 See the License for the specific language governing permissions and
 limitations under the License.
-->
<svg width="40" height="34" viewBox="0 0 40 34" fill="none" xmlns="http://www.w3.org/2000/svg">
<g clip-path="url(#clip0_121_3669)">
<path d="M15.5 12.5H21" stroke="black" stroke-width="3"/>
<mask id="mask0_121_3669" style="mask-type:luminance" maskUnits="userSpaceOnUse" x="0" y="0" width="40" height="28">
<path d="M39.2645 0H0.735476C0.329284 0 0 0.329284 0 0.735476V26.6839C0 27.0901 0.329284 27.4194 0.735476 27.4194H39.2645C39.6707 27.4194 40 27.0901 40 26.6839V0.735476C40 0.329284 39.6707 0 39.2645 0Z" fill="white"/>
</mask>
<g mask="url(#mask0_121_3669)">
<path d="M39.2645 0H0.735476C0.329284 0 0 0.329284 0 0.735476V26.6839C0 27.0901 0.329284 27.4194 0.735476 27.4194H39.2645C39.6707 27.4194 40 27.0901 40 26.6839V0.735476C40 0.329284 39.6707 0 39.2645 0Z" fill="white" stroke="#969696" stroke-width="2" stroke-linecap="round" stroke-linejoin="round"/>
</g>
<path d="M17.6603 27.2824C17.6859 27.1768 17.7805 27.1025 17.8891 27.1025H22.4373C22.5459 27.1025 22.6404 27.1768 22.6661 27.2824L23.3274 30.005C23.3635 30.1532 23.2512 30.296 23.0986 30.296H17.2277C17.0752 30.296 16.9629 30.1532 16.9989 30.005L17.6603 27.2824Z" fill="white" stroke="#969696" stroke-linecap="round" stroke-linejoin="round"/>
<path d="M13.2422 30.5673C13.2422 30.4373 13.3477 30.3318 13.4777 30.3318H26.5229C26.6529 30.3318 26.7584 30.4373 26.7584 30.5673V32.3222C26.7584 32.4522 26.6529 32.5576 26.5229 32.5576H13.4777C13.3477 32.5576 13.2422 32.4522 13.2422 32.3222V30.5673Z" fill="white" stroke="#969696" stroke-linecap="round" stroke-linejoin="round"/>
<path d="M0.806641 23.3894H39.5163" stroke="#969696"/>
<path d="M9 16.5C10.933 16.5 12.5 14.933 12.5 13C12.5 11.067 10.933 9.5 9 9.5C7.067 9.5 5.5 11.067 5.5 13C5.5 14.933 7.067 16.5 9 16.5Z" stroke="#969696"/>
<path d="M16 12.5001C15.7239 12.5001 15.5 12.724 15.5 13.0001C15.5 13.2762 15.7239 13.5001 16 13.5001V12.5001ZM25.3536 13.3537C25.5488 13.1584 25.5488 12.8418 25.3536 12.6465L22.1716 9.46457C21.9763 9.2693 21.6597 9.2693 21.4645 9.46457C21.2692 9.65983 21.2692 9.97641 21.4645 10.1717L24.2929 13.0001L21.4645 15.8285C21.2692 16.0238 21.2692 16.3404 21.4645 16.5356C21.6597 16.7309 21.9763 16.7309 22.1716 16.5356L25.3536 13.3537ZM16 13.5001H25V12.5001H16V13.5001Z" fill="#969696"/>
<path d="M33.5 10.5H28.5V15.5H33.5V10.5Z" stroke="#969696"/>
</g>
<defs>
<clipPath id="clip0_121_3669">
<rect width="40" height="34" fill="white"/>
</clipPath>
</defs>
</svg>
