<?xml version="1.0" encoding="utf-8"?>
<!--
  Copyright 2023-2025 Solace Systems. All rights reserved.

  Licensed under the Apache License, Version 2.0 (the "License");
  you may not use this file except in compliance with the License.
  You may obtain a copy of the License at

      http://www.apache.org/licenses/LICENSE-2.0

  Unless required by applicable law or agreed to in writing, software
  distributed under the License is distributed on an "AS IS" BASIS,
  WITHOUT WARRANTIES OR CONDITIONS OF ANY KIND, either express or implied.
  See the License for the specific language governing permissions and
  limitations under the License.
-->
<svg width="125" height="130" viewBox="0 0 125 130" fill="none" xmlns="http://www.w3.org/2000/svg">
<g clip-path="url(#clip0_121_3681)">
<mask id="mask0_121_3681" style="mask-type:luminance" maskUnits="userSpaceOnUse" x="0" y="0" width="125" height="130">
<path d="M125 0H0V130H125V0Z" fill="white"/>
</mask>
<g mask="url(#mask0_121_3681)">
<path d="M57.3958 128.361C86.9212 128.361 110.856 104.426 110.856 74.9005C110.856 45.3752 86.9212 21.4402 57.3958 21.4402C27.8705 21.4402 3.93555 45.3752 3.93555 74.9005C3.93555 104.426 27.8705 128.361 57.3958 128.361Z" fill="#033D58" fill-opacity="0.1"/>
<path fill-rule="evenodd" clip-rule="evenodd" d="M63.6799 6.85339C63.5788 7.09784 63.516 7.35947 63.4966 7.62945C63.466 8.05591 63.5454 8.47723 63.7202 8.85606C63.0834 8.8331 62.4437 8.82153 61.8012 8.82153C32.8956 8.82153 9.46289 32.2542 9.46289 61.1599C9.46289 66.5991 10.2926 71.8445 11.8324 76.7765C11.6282 76.9879 11.4192 77.2055 11.2112 77.424L9.25481 75.0516C8.08565 70.6174 7.46289 65.9614 7.46289 61.1599C7.46289 31.1496 31.791 6.82153 61.8012 6.82153C62.43 6.82153 63.0563 6.83221 63.6799 6.85339ZM13.0957 82.7922C13.2461 82.6001 13.4835 82.3271 13.7776 82.0028C21.8329 100.537 40.3034 113.498 61.8012 113.498C76.0401 113.498 88.9509 107.812 98.3869 98.587C98.4604 98.6131 98.5345 98.6393 98.6092 98.6656C99.0518 98.8217 99.5299 98.9883 100.009 99.1514L99.4242 100.367C89.6605 109.738 76.4035 115.498 61.8012 115.498C39.7486 115.498 20.7643 102.361 12.2469 83.4865C12.5737 83.3228 12.8647 83.0873 13.0957 82.7922ZM104.154 95.2052C111.652 85.8897 116.14 74.0488 116.14 61.1599C116.14 34.1981 96.5031 11.8228 70.7514 7.55511L69.7968 8.21537C70.1327 8.59409 70.4659 8.97524 70.7735 9.32976C70.8625 9.43234 70.9504 9.53386 71.0367 9.63377C95.5377 13.9958 114.14 35.4055 114.14 61.1599C114.14 73.8635 109.614 85.5101 102.086 94.5751C102.947 94.8628 103.683 95.0933 104.093 95.1899C104.113 95.1947 104.134 95.1999 104.154 95.2052Z" fill="#969696"/>
<path d="M75.4087 13.2477C75.4087 13.2477 70.4992 9.64005 69.0039 8.77811L74.4064 2.86206" stroke="#969696" stroke-width="2" stroke-linecap="round" stroke-linejoin="round"/>
<path d="M15.7543 71.4077C15.7543 71.4077 12.5737 76.604 11.841 78.1667L5.49023 73.2826" stroke="#969696" stroke-width="2" stroke-linecap="round" stroke-linejoin="round"/>
<path d="M92.6426 97.5503C92.6426 97.5503 98.6938 98.2592 100.419 98.2693L98.6482 106.083" stroke="#969696" stroke-width="2" stroke-linecap="round" stroke-linejoin="round"/>
<path d="M114.183 86.6163C127.74 55.8559 114.43 21.4108 83.6699 7.85376" stroke="#969696" stroke-linecap="round"/>
<path d="M10.5566 89.1287C27.3643 118.24 63.0183 127.853 92.1301 111.045" stroke="#969696" stroke-linecap="round"/>
<path d="M13.6172 57.9141C13.6172 34.0652 32.9505 14.7319 56.7993 14.7319" stroke="#969696" stroke-linecap="round"/>
<path d="M82.0993 61.5903H40.0137C38.3568 61.5903 37.0137 62.9335 37.0137 64.5903V70.3306C37.0137 71.9875 38.3568 73.3306 40.0137 73.3306H82.0993C83.7561 73.3306 85.0993 71.9875 85.0993 70.3306V64.5903C85.0993 62.9335 83.7561 61.5903 82.0993 61.5903Z" fill="white" stroke="#969696" stroke-width="2"/>
<path d="M43.5791 68.4485C44.1093 68.4485 44.5391 68.0187 44.5391 67.4885C44.5391 66.9584 44.1093 66.5286 43.5791 66.5286C43.0489 66.5286 42.6191 66.9584 42.6191 67.4885C42.6191 68.0187 43.0489 68.4485 43.5791 68.4485Z" fill="#305D74" stroke="#305D74" stroke-linecap="round" stroke-linejoin="round"/>
<path d="M49.0801 73.9732V61.3201" stroke="#969696"/>
<path d="M45.7855 61.0498L87.8711 61.0498C89.5279 61.0498 90.8711 59.7067 90.8711 58.0498V52.3095C90.8711 50.6527 89.5279 49.3095 87.8711 49.3095L45.7855 49.3095C44.1286 49.3095 42.7855 50.6527 42.7855 52.3095V58.0498C42.7855 59.7067 44.1286 61.0498 45.7855 61.0498Z" fill="white" stroke="#969696" stroke-width="2"/>
<path d="M84.3056 54.1916C83.7755 54.1916 83.3457 54.6214 83.3457 55.1516C83.3457 55.6818 83.7755 56.1116 84.3056 56.1116C84.8358 56.1116 85.2656 55.6818 85.2656 55.1516C85.2656 54.6214 84.8358 54.1916 84.3056 54.1916Z" fill="white" stroke="#969696" stroke-linecap="round" stroke-linejoin="round"/>
<path d="M78.4043 61.5055V48.8523" stroke="#969696"/>
</g>
</g>
<defs>
<clipPath id="clip0_121_3681">
<rect width="125" height="130" fill="white"/>
</clipPath>
</defs>
</svg>