<!--
 Copyright 2023-2025 Solace Systems. All rights reserved.

 Licensed under the Apache License, Version 2.0 (the "License");
 you may not use this file except in compliance with the License.
 You may obtain a copy of the License at

     http://www.apache.org/licenses/LICENSE-2.0

 Unless required by applicable law or agreed to in writing, software
 distributed under the License is distributed on an "AS IS" BASIS,
 WITHOUT WARRANTIES OR CONDITIONS OF ANY KIND, either express or implied.
 See the License for the specific language governing permissions and
 limitations under the License.
-->
<svg width="402" height="77" viewBox="0 0 402 77" fill="none" xmlns="http://www.w3.org/2000/svg">
<path d="M156.079 37.0001C155.812 37.0001 155.586 36.9068 155.399 36.7201C155.212 36.5334 155.119 36.3068 155.119 36.0401V10.0001C155.119 9.70676 155.212 9.46676 155.399 9.2801C155.586 9.09343 155.812 9.0001 156.079 9.0001H173.679C173.972 9.0001 174.212 9.09343 174.399 9.2801C174.586 9.46676 174.679 9.70676 174.679 10.0001V12.6401C174.679 12.9068 174.586 13.1334 174.399 13.3201C174.212 13.5068 173.972 13.6001 173.679 13.6001H160.519V20.6801H172.799C173.092 20.6801 173.332 20.7734 173.519 20.9601C173.706 21.1201 173.799 21.3468 173.799 21.6401V24.1201C173.799 24.4134 173.706 24.6534 173.519 24.8401C173.332 25.0001 173.092 25.0801 172.799 25.0801H160.519V32.4001H173.999C174.292 32.4001 174.532 32.4934 174.719 32.6801C174.906 32.8668 174.999 33.1068 174.999 33.4001V36.0401C174.999 36.3068 174.906 36.5334 174.719 36.7201C174.532 36.9068 174.292 37.0001 173.999 37.0001H156.079Z" fill="#00AD93"/>
<path d="M186.452 37.0001C186.026 37.0001 185.706 36.9068 185.492 36.7201C185.306 36.5068 185.146 36.2668 185.012 36.0001L177.532 17.4401C177.479 17.3068 177.452 17.1868 177.452 17.0801C177.452 16.8401 177.532 16.6401 177.692 16.4801C177.879 16.2934 178.092 16.2001 178.332 16.2001H181.572C181.892 16.2001 182.132 16.2934 182.292 16.4801C182.452 16.6401 182.559 16.8001 182.612 16.9601L187.932 31.0001L193.252 16.9601C193.306 16.8001 193.412 16.6401 193.572 16.4801C193.732 16.2934 193.972 16.2001 194.292 16.2001H197.572C197.786 16.2001 197.972 16.2934 198.132 16.4801C198.319 16.6401 198.412 16.8401 198.412 17.0801C198.412 17.1868 198.399 17.3068 198.372 17.4401L190.852 36.0001C190.746 36.2668 190.586 36.5068 190.372 36.7201C190.159 36.9068 189.839 37.0001 189.412 37.0001H186.452Z" fill="#00AD93"/>
<path d="M210.279 37.4001C207.319 37.4001 204.972 36.5468 203.239 34.8401C201.505 33.1334 200.572 30.7068 200.439 27.5601C200.412 27.2934 200.399 26.9601 200.399 26.5601C200.399 26.1334 200.412 25.8001 200.439 25.5601C200.545 23.5601 200.999 21.8268 201.799 20.3601C202.625 18.8934 203.759 17.7734 205.199 17.0001C206.639 16.2001 208.332 15.8001 210.279 15.8001C212.439 15.8001 214.252 16.2534 215.719 17.1601C217.185 18.0401 218.292 19.2801 219.039 20.8801C219.785 22.4534 220.159 24.2801 220.159 26.3601V27.2001C220.159 27.4668 220.065 27.6934 219.879 27.8801C219.692 28.0668 219.452 28.1601 219.159 28.1601H205.879C205.879 28.1601 205.879 28.2001 205.879 28.2801C205.879 28.3601 205.879 28.4268 205.879 28.4801C205.905 29.4134 206.079 30.2801 206.399 31.0801C206.745 31.8534 207.239 32.4801 207.879 32.9601C208.545 33.4401 209.332 33.6801 210.239 33.6801C210.985 33.6801 211.612 33.5734 212.119 33.3601C212.625 33.1201 213.039 32.8534 213.359 32.5601C213.679 32.2668 213.905 32.0268 214.039 31.8401C214.279 31.5201 214.465 31.3334 214.599 31.2801C214.759 31.2001 214.985 31.1601 215.279 31.1601H218.719C218.985 31.1601 219.199 31.2401 219.359 31.4001C219.545 31.5601 219.625 31.7601 219.599 32.0001C219.572 32.4268 219.346 32.9468 218.919 33.5601C218.519 34.1734 217.932 34.7734 217.159 35.3601C216.385 35.9468 215.412 36.4401 214.239 36.8401C213.092 37.2134 211.772 37.4001 210.279 37.4001ZM205.879 24.8001H214.719V24.6801C214.719 23.6401 214.545 22.7334 214.199 21.9601C213.852 21.1868 213.345 20.5734 212.679 20.1201C212.012 19.6668 211.212 19.4401 210.279 19.4401C209.345 19.4401 208.545 19.6668 207.879 20.1201C207.212 20.5734 206.705 21.1868 206.359 21.9601C206.039 22.7334 205.879 23.6401 205.879 24.6801V24.8001Z" fill="#00AD93"/>
<path d="M225.365 37.0001C225.098 37.0001 224.871 36.9068 224.685 36.7201C224.498 36.5334 224.405 36.3068 224.405 36.0401V17.1601C224.405 16.8934 224.498 16.6668 224.685 16.4801C224.871 16.2934 225.098 16.2001 225.365 16.2001H228.645C228.911 16.2001 229.138 16.2934 229.325 16.4801C229.511 16.6668 229.605 16.8934 229.605 17.1601V18.8001C230.298 17.9468 231.178 17.2401 232.245 16.6801C233.338 16.0934 234.685 15.8001 236.285 15.8001C237.911 15.8001 239.325 16.1734 240.525 16.9201C241.725 17.6401 242.645 18.6668 243.285 20.0001C243.951 21.3334 244.285 22.9334 244.285 24.8001V36.0401C244.285 36.3068 244.191 36.5334 244.005 36.7201C243.818 36.9068 243.591 37.0001 243.325 37.0001H239.805C239.538 37.0001 239.311 36.9068 239.125 36.7201C238.938 36.5334 238.845 36.3068 238.845 36.0401V25.0401C238.845 23.4934 238.458 22.2801 237.685 21.4001C236.938 20.5201 235.845 20.0801 234.405 20.0801C233.018 20.0801 231.911 20.5201 231.085 21.4001C230.258 22.2801 229.845 23.4934 229.845 25.0401V36.0401C229.845 36.3068 229.751 36.5334 229.565 36.7201C229.378 36.9068 229.151 37.0001 228.885 37.0001H225.365Z" fill="#00AD93"/>
<path d="M258.531 37.0001C256.931 37.0001 255.585 36.7201 254.491 36.1601C253.398 35.6001 252.585 34.7734 252.051 33.6801C251.518 32.5601 251.251 31.1734 251.251 29.5201V20.4401H248.091C247.825 20.4401 247.598 20.3468 247.411 20.1601C247.225 19.9734 247.131 19.7468 247.131 19.4801V17.1601C247.131 16.8934 247.225 16.6668 247.411 16.4801C247.598 16.2934 247.825 16.2001 248.091 16.2001H251.251V9.5601C251.251 9.29343 251.331 9.06676 251.491 8.8801C251.678 8.69343 251.918 8.6001 252.211 8.6001H255.451C255.718 8.6001 255.945 8.69343 256.131 8.8801C256.318 9.06676 256.411 9.29343 256.411 9.5601V16.2001H261.411C261.678 16.2001 261.905 16.2934 262.091 16.4801C262.278 16.6668 262.371 16.8934 262.371 17.1601V19.4801C262.371 19.7468 262.278 19.9734 262.091 20.1601C261.905 20.3468 261.678 20.4401 261.411 20.4401H256.411V29.1201C256.411 30.2134 256.598 31.0668 256.971 31.6801C257.371 32.2934 258.051 32.6001 259.011 32.6001H261.771C262.038 32.6001 262.265 32.6934 262.451 32.8801C262.638 33.0668 262.731 33.2934 262.731 33.5601V36.0401C262.731 36.3068 262.638 36.5334 262.451 36.7201C262.265 36.9068 262.038 37.0001 261.771 37.0001H258.531Z" fill="#00AD93"/>
<path d="M276.86 37.0001C276.594 37.0001 276.367 36.9068 276.18 36.7201C275.994 36.5334 275.9 36.3068 275.9 36.0401V10.0001C275.9 9.70676 275.994 9.46676 276.18 9.2801C276.367 9.09343 276.594 9.0001 276.86 9.0001H287.58C289.66 9.0001 291.474 9.33343 293.02 10.0001C294.567 10.6401 295.767 11.6268 296.62 12.9601C297.474 14.2668 297.9 15.9068 297.9 17.8801C297.9 19.8801 297.474 21.5334 296.62 22.8401C295.767 24.1201 294.567 25.0801 293.02 25.7201C291.474 26.3601 289.66 26.6801 287.58 26.6801H281.62V36.0401C281.62 36.3068 281.527 36.5334 281.34 36.7201C281.18 36.9068 280.954 37.0001 280.66 37.0001H276.86ZM281.54 22.2401H287.38C288.927 22.2401 290.114 21.8801 290.94 21.1601C291.767 20.4134 292.18 19.3201 292.18 17.8801C292.18 16.5468 291.794 15.4801 291.02 14.6801C290.247 13.8534 289.034 13.4401 287.38 13.4401H281.54V22.2401Z" fill="#00AD93"/>
<path d="M310.714 37.4001C308.581 37.4001 306.781 37.0268 305.314 36.2801C303.874 35.5334 302.767 34.4801 301.994 33.1201C301.247 31.7601 300.821 30.1734 300.714 28.3601C300.687 27.8801 300.674 27.2934 300.674 26.6001C300.674 25.9068 300.687 25.3201 300.714 24.8401C300.821 23.0001 301.261 21.4134 302.034 20.0801C302.834 18.7201 303.954 17.6668 305.394 16.9201C306.861 16.1734 308.634 15.8001 310.714 15.8001C312.794 15.8001 314.554 16.1734 315.994 16.9201C317.461 17.6668 318.581 18.7201 319.354 20.0801C320.154 21.4134 320.607 23.0001 320.714 24.8401C320.741 25.3201 320.754 25.9068 320.754 26.6001C320.754 27.2934 320.741 27.8801 320.714 28.3601C320.607 30.1734 320.167 31.7601 319.394 33.1201C318.647 34.4801 317.541 35.5334 316.074 36.2801C314.634 37.0268 312.847 37.4001 310.714 37.4001ZM310.714 33.4401C312.127 33.4401 313.221 33.0001 313.994 32.1201C314.767 31.2134 315.194 29.8934 315.274 28.1601C315.301 27.7601 315.314 27.2401 315.314 26.6001C315.314 25.9601 315.301 25.4401 315.274 25.0401C315.194 23.3334 314.767 22.0268 313.994 21.1201C313.221 20.2134 312.127 19.7601 310.714 19.7601C309.301 19.7601 308.207 20.2134 307.434 21.1201C306.661 22.0268 306.234 23.3334 306.154 25.0401C306.127 25.4401 306.114 25.9601 306.114 26.6001C306.114 27.2401 306.127 27.7601 306.154 28.1601C306.234 29.8934 306.661 31.2134 307.434 32.1201C308.207 33.0001 309.301 33.4401 310.714 33.4401Z" fill="#00AD93"/>
<path d="M326.146 37.0001C325.879 37.0001 325.653 36.9068 325.466 36.7201C325.279 36.5334 325.186 36.3068 325.186 36.0401V17.2001C325.186 16.9068 325.279 16.6668 325.466 16.4801C325.653 16.2934 325.879 16.2001 326.146 16.2001H329.386C329.653 16.2001 329.879 16.2934 330.066 16.4801C330.279 16.6668 330.386 16.9068 330.386 17.2001V18.8401C330.999 17.9868 331.786 17.3334 332.746 16.8801C333.733 16.4268 334.866 16.2001 336.146 16.2001H337.786C338.079 16.2001 338.306 16.2934 338.466 16.4801C338.653 16.6668 338.746 16.8934 338.746 17.1601V20.0401C338.746 20.3068 338.653 20.5334 338.466 20.7201C338.306 20.9068 338.079 21.0001 337.786 21.0001H334.666C333.386 21.0001 332.386 21.3601 331.666 22.0801C330.973 22.8001 330.626 23.7868 330.626 25.0401V36.0401C330.626 36.3068 330.533 36.5334 330.346 36.7201C330.159 36.9068 329.919 37.0001 329.626 37.0001H326.146Z" fill="#00AD93"/>
<path d="M351.266 37.0001C349.666 37.0001 348.319 36.7201 347.226 36.1601C346.132 35.6001 345.319 34.7734 344.786 33.6801C344.252 32.5601 343.986 31.1734 343.986 29.5201V20.4401H340.826C340.559 20.4401 340.332 20.3468 340.146 20.1601C339.959 19.9734 339.866 19.7468 339.866 19.4801V17.1601C339.866 16.8934 339.959 16.6668 340.146 16.4801C340.332 16.2934 340.559 16.2001 340.826 16.2001H343.986V9.5601C343.986 9.29343 344.066 9.06676 344.226 8.8801C344.412 8.69343 344.652 8.6001 344.946 8.6001H348.186C348.452 8.6001 348.679 8.69343 348.866 8.8801C349.052 9.06676 349.146 9.29343 349.146 9.5601V16.2001H354.146C354.412 16.2001 354.639 16.2934 354.826 16.4801C355.012 16.6668 355.106 16.8934 355.106 17.1601V19.4801C355.106 19.7468 355.012 19.9734 354.826 20.1601C354.639 20.3468 354.412 20.4401 354.146 20.4401H349.146V29.1201C349.146 30.2134 349.332 31.0668 349.706 31.6801C350.106 32.2934 350.786 32.6001 351.746 32.6001H354.506C354.772 32.6001 354.999 32.6934 355.186 32.8801C355.372 33.0668 355.466 33.2934 355.466 33.5601V36.0401C355.466 36.3068 355.372 36.5334 355.186 36.7201C354.999 36.9068 354.772 37.0001 354.506 37.0001H351.266Z" fill="#00AD93"/>
<path d="M365.054 37.4001C363.667 37.4001 362.414 37.1334 361.294 36.6001C360.174 36.0401 359.281 35.3068 358.614 34.4001C357.974 33.4668 357.654 32.4268 357.654 31.2801C357.654 29.4134 358.401 27.9334 359.894 26.8401C361.414 25.7201 363.414 24.9734 365.894 24.6001L371.374 23.8001V22.9601C371.374 21.8401 371.094 20.9734 370.534 20.3601C369.974 19.7468 369.014 19.4401 367.654 19.4401C366.694 19.4401 365.907 19.6401 365.294 20.0401C364.707 20.4134 364.267 20.9201 363.974 21.5601C363.761 21.9068 363.454 22.0801 363.054 22.0801H359.894C359.601 22.0801 359.374 22.0001 359.214 21.8401C359.081 21.6801 359.014 21.4668 359.014 21.2001C359.041 20.7734 359.214 20.2534 359.534 19.6401C359.854 19.0268 360.361 18.4401 361.054 17.8801C361.747 17.2934 362.641 16.8001 363.734 16.4001C364.827 16.0001 366.147 15.8001 367.694 15.8001C369.374 15.8001 370.787 16.0134 371.934 16.4401C373.107 16.8401 374.041 17.3868 374.734 18.0801C375.427 18.7734 375.934 19.5868 376.254 20.5201C376.574 21.4534 376.734 22.4401 376.734 23.4801V36.0401C376.734 36.3068 376.641 36.5334 376.454 36.7201C376.267 36.9068 376.041 37.0001 375.774 37.0001H372.534C372.241 37.0001 372.001 36.9068 371.814 36.7201C371.654 36.5334 371.574 36.3068 371.574 36.0401V34.4801C371.227 34.9868 370.761 35.4668 370.174 35.9201C369.587 36.3468 368.867 36.7068 368.014 37.0001C367.187 37.2668 366.201 37.4001 365.054 37.4001ZM366.414 33.6001C367.347 33.6001 368.187 33.4001 368.934 33.0001C369.707 32.6001 370.307 31.9868 370.734 31.1601C371.187 30.3068 371.414 29.2401 371.414 27.9601V27.1201L367.414 27.7601C365.841 28.0001 364.667 28.3868 363.894 28.9201C363.121 29.4534 362.734 30.1068 362.734 30.8801C362.734 31.4668 362.907 31.9734 363.254 32.4001C363.627 32.8001 364.094 33.1068 364.654 33.3201C365.214 33.5068 365.801 33.6001 366.414 33.6001Z" fill="#00AD93"/>
<path d="M382.866 37.0001C382.599 37.0001 382.372 36.9068 382.186 36.7201C381.999 36.5334 381.906 36.3068 381.906 36.0401V9.5601C381.906 9.29343 381.999 9.06676 382.186 8.8801C382.372 8.69343 382.599 8.6001 382.866 8.6001H386.186C386.452 8.6001 386.679 8.69343 386.866 8.8801C387.052 9.06676 387.146 9.29343 387.146 9.5601V36.0401C387.146 36.3068 387.052 36.5334 386.866 36.7201C386.679 36.9068 386.452 37.0001 386.186 37.0001H382.866Z" fill="#00AD93"/>
<path d="M2.44709 75C2.28709 75 2.15109 74.944 2.03909 74.832C1.92709 74.72 1.87109 74.584 1.87109 74.424V58.8C1.87109 58.624 1.92709 58.48 2.03909 58.368C2.15109 58.256 2.28709 58.2 2.44709 58.2H12.8631C13.0391 58.2 13.1831 58.256 13.2951 58.368C13.4071 58.48 13.4631 58.624 13.4631 58.8V60.48C13.4631 60.656 13.4071 60.8 13.2951 60.912C13.1831 61.008 13.0391 61.056 12.8631 61.056H5.15909V65.616H12.3831C12.5591 65.616 12.7031 65.672 12.8151 65.784C12.9271 65.896 12.9831 66.04 12.9831 66.216V67.896C12.9831 68.056 12.9271 68.192 12.8151 68.304C12.7031 68.416 12.5591 68.472 12.3831 68.472H5.15909V74.424C5.15909 74.584 5.10309 74.72 4.99109 74.832C4.87909 74.944 4.73509 75 4.55909 75H2.44709Z" fill="#828282"/>
<path d="M22.624 75.24C21.2 75.24 19.976 75.008 18.952 74.544C17.928 74.064 17.128 73.336 16.552 72.36C15.976 71.368 15.664 70.136 15.616 68.664C15.6 67.976 15.592 67.296 15.592 66.624C15.592 65.952 15.6 65.264 15.616 64.56C15.664 63.104 15.984 61.888 16.576 60.912C17.168 59.936 17.976 59.2 19 58.704C20.04 58.208 21.248 57.96 22.624 57.96C24 57.96 25.208 58.208 26.248 58.704C27.288 59.2 28.104 59.936 28.696 60.912C29.288 61.888 29.608 63.104 29.656 64.56C29.688 65.264 29.704 65.952 29.704 66.624C29.704 67.296 29.688 67.976 29.656 68.664C29.608 70.136 29.296 71.368 28.72 72.36C28.144 73.336 27.336 74.064 26.296 74.544C25.272 75.008 24.048 75.24 22.624 75.24ZM22.624 72.48C23.664 72.48 24.512 72.176 25.168 71.568C25.824 70.944 26.176 69.936 26.224 68.544C26.256 67.84 26.272 67.192 26.272 66.6C26.272 65.992 26.256 65.344 26.224 64.656C26.192 63.728 26.016 62.976 25.696 62.4C25.392 61.808 24.976 61.384 24.448 61.128C23.92 60.856 23.312 60.72 22.624 60.72C21.952 60.72 21.352 60.856 20.824 61.128C20.296 61.384 19.872 61.808 19.552 62.4C19.248 62.976 19.08 63.728 19.048 64.656C19.032 65.344 19.024 65.992 19.024 66.6C19.024 67.192 19.032 67.84 19.048 68.544C19.096 69.936 19.448 70.944 20.104 71.568C20.76 72.176 21.6 72.48 22.624 72.48Z" fill="#828282"/>
<path d="M33.4315 75C33.2715 75 33.1355 74.944 33.0235 74.832C32.9115 74.72 32.8555 74.584 32.8555 74.424V58.8C32.8555 58.624 32.9115 58.48 33.0235 58.368C33.1355 58.256 33.2715 58.2 33.4315 58.2H39.6475C41.5835 58.2 43.1115 58.648 44.2315 59.544C45.3515 60.44 45.9115 61.744 45.9115 63.456C45.9115 64.64 45.6155 65.624 45.0235 66.408C44.4475 67.192 43.6715 67.76 42.6955 68.112L46.1995 74.232C46.2475 74.328 46.2715 74.416 46.2715 74.496C46.2715 74.64 46.2155 74.76 46.1035 74.856C46.0075 74.952 45.8955 75 45.7675 75H43.5835C43.3115 75 43.1035 74.928 42.9595 74.784C42.8155 74.64 42.7035 74.496 42.6235 74.352L39.5275 68.664H36.1915V74.424C36.1915 74.584 36.1355 74.72 36.0235 74.832C35.9275 74.944 35.7915 75 35.6155 75H33.4315ZM36.1915 65.952H39.5755C40.5515 65.952 41.2795 65.736 41.7595 65.304C42.2395 64.856 42.4795 64.232 42.4795 63.432C42.4795 62.632 42.2395 62.008 41.7595 61.56C41.2955 61.096 40.5675 60.864 39.5755 60.864H36.1915V65.952Z" fill="#828282"/>
<path d="M52.8235 75C52.6955 75 52.5755 74.952 52.4635 74.856C52.3675 74.76 52.3195 74.64 52.3195 74.496C52.3195 74.432 52.3355 74.36 52.3675 74.28L58.1515 58.8C58.1995 58.64 58.2875 58.504 58.4155 58.392C58.5595 58.264 58.7515 58.2 58.9915 58.2H61.6075C61.8475 58.2 62.0315 58.264 62.1595 58.392C62.2875 58.504 62.3835 58.64 62.4475 58.8L68.2315 74.28C68.2475 74.36 68.2555 74.432 68.2555 74.496C68.2555 74.64 68.2075 74.76 68.1115 74.856C68.0155 74.952 67.9035 75 67.7755 75H65.6875C65.4635 75 65.2955 74.952 65.1835 74.856C65.0875 74.744 65.0235 74.64 64.9915 74.544L63.8635 71.616H56.7355L55.6075 74.544C55.5755 74.64 55.5035 74.744 55.3915 74.856C55.2955 74.952 55.1355 75 54.9115 75H52.8235ZM57.5755 68.856H63.0235L60.2875 61.44L57.5755 68.856Z" fill="#828282"/>
<path d="M71.0721 75C70.9121 75 70.7761 74.944 70.6641 74.832C70.5521 74.72 70.4961 74.584 70.4961 74.424V58.8C70.4961 58.624 70.5521 58.48 70.6641 58.368C70.7761 58.256 70.9121 58.2 71.0721 58.2H77.5041C78.7521 58.2 79.8401 58.4 80.7681 58.8C81.6961 59.184 82.4161 59.776 82.9281 60.576C83.4401 61.36 83.6961 62.344 83.6961 63.528C83.6961 64.728 83.4401 65.72 82.9281 66.504C82.4161 67.272 81.6961 67.848 80.7681 68.232C79.8401 68.616 78.7521 68.808 77.5041 68.808H73.9281V74.424C73.9281 74.584 73.8721 74.72 73.7601 74.832C73.6641 74.944 73.5281 75 73.3521 75H71.0721ZM73.8801 66.144H77.3841C78.3121 66.144 79.0241 65.928 79.5201 65.496C80.0161 65.048 80.2641 64.392 80.2641 63.528C80.2641 62.728 80.0321 62.088 79.5681 61.608C79.1041 61.112 78.3761 60.864 77.3841 60.864H73.8801V66.144Z" fill="#828282"/>
<path d="M84.2297 75C84.1017 75 83.9817 74.952 83.8697 74.856C83.7737 74.76 83.7257 74.64 83.7257 74.496C83.7257 74.432 83.7417 74.36 83.7737 74.28L89.5577 58.8C89.6057 58.64 89.6937 58.504 89.8217 58.392C89.9657 58.264 90.1577 58.2 90.3977 58.2H93.0137C93.2537 58.2 93.4377 58.264 93.5657 58.392C93.6937 58.504 93.7897 58.64 93.8537 58.8L99.6377 74.28C99.6537 74.36 99.6617 74.432 99.6617 74.496C99.6617 74.64 99.6137 74.76 99.5177 74.856C99.4217 74.952 99.3097 75 99.1817 75H97.0937C96.8697 75 96.7017 74.952 96.5897 74.856C96.4937 74.744 96.4297 74.64 96.3977 74.544L95.2697 71.616H88.1417L87.0137 74.544C86.9817 74.64 86.9097 74.744 86.7977 74.856C86.7017 74.952 86.5417 75 86.3177 75H84.2297ZM88.9817 68.856H94.4297L91.6937 61.44L88.9817 68.856Z" fill="#828282"/>
<path d="M108.054 75.24C106.566 75.24 105.302 74.984 104.262 74.472C103.238 73.944 102.454 73.2 101.91 72.24C101.366 71.264 101.062 70.096 100.998 68.736C100.982 68.08 100.974 67.376 100.974 66.624C100.974 65.872 100.982 65.152 100.998 64.464C101.062 63.12 101.366 61.96 101.91 60.984C102.47 60.008 103.262 59.264 104.286 58.752C105.326 58.224 106.582 57.96 108.054 57.96C109.142 57.96 110.118 58.104 110.982 58.392C111.846 58.68 112.582 59.08 113.19 59.592C113.798 60.088 114.27 60.672 114.606 61.344C114.942 62.016 115.118 62.744 115.134 63.528C115.15 63.672 115.102 63.792 114.99 63.888C114.894 63.984 114.774 64.032 114.63 64.032H112.35C112.174 64.032 112.03 63.992 111.918 63.912C111.806 63.816 111.726 63.664 111.678 63.456C111.422 62.4 110.982 61.68 110.358 61.296C109.734 60.912 108.958 60.72 108.03 60.72C106.958 60.72 106.102 61.024 105.462 61.632C104.822 62.224 104.478 63.208 104.43 64.584C104.382 65.896 104.382 67.24 104.43 68.616C104.478 69.992 104.822 70.984 105.462 71.592C106.102 72.184 106.958 72.48 108.03 72.48C108.958 72.48 109.734 72.288 110.358 71.904C110.982 71.504 111.422 70.784 111.678 69.744C111.726 69.52 111.806 69.368 111.918 69.288C112.03 69.208 112.174 69.168 112.35 69.168H114.63C114.774 69.168 114.894 69.216 114.99 69.312C115.102 69.408 115.15 69.528 115.134 69.672C115.118 70.456 114.942 71.184 114.606 71.856C114.27 72.528 113.798 73.12 113.19 73.632C112.582 74.128 111.846 74.52 110.982 74.808C110.118 75.096 109.142 75.24 108.054 75.24Z" fill="#828282"/>
<path d="M118.556 75C118.396 75 118.26 74.952 118.148 74.856C118.036 74.744 117.98 74.6 117.98 74.424V58.8C117.98 58.624 118.036 58.48 118.148 58.368C118.26 58.256 118.396 58.2 118.556 58.2H120.74C120.916 58.2 121.052 58.256 121.148 58.368C121.26 58.48 121.316 58.624 121.316 58.8V64.992H128.396V58.8C128.396 58.624 128.452 58.48 128.564 58.368C128.676 58.256 128.812 58.2 128.972 58.2H131.132C131.308 58.2 131.452 58.256 131.564 58.368C131.676 58.48 131.732 58.624 131.732 58.8V74.424C131.732 74.584 131.676 74.72 131.564 74.832C131.452 74.944 131.308 75 131.132 75H128.972C128.812 75 128.676 74.944 128.564 74.832C128.452 74.72 128.396 74.584 128.396 74.424V67.992H121.316V74.424C121.316 74.584 121.26 74.72 121.148 74.832C121.052 74.944 120.916 75 120.74 75H118.556Z" fill="#828282"/>
<path d="M136.041 75C135.881 75 135.745 74.944 135.633 74.832C135.521 74.72 135.465 74.584 135.465 74.424V58.8C135.465 58.624 135.521 58.48 135.633 58.368C135.745 58.256 135.881 58.2 136.041 58.2H146.601C146.777 58.2 146.921 58.256 147.033 58.368C147.145 58.48 147.201 58.624 147.201 58.8V60.384C147.201 60.544 147.145 60.68 147.033 60.792C146.921 60.904 146.777 60.96 146.601 60.96H138.705V65.208H146.073C146.249 65.208 146.393 65.264 146.505 65.376C146.617 65.472 146.673 65.608 146.673 65.784V67.272C146.673 67.448 146.617 67.592 146.505 67.704C146.393 67.8 146.249 67.848 146.073 67.848H138.705V72.24H146.793C146.969 72.24 147.113 72.296 147.225 72.408C147.337 72.52 147.393 72.664 147.393 72.84V74.424C147.393 74.584 147.337 74.72 147.225 74.832C147.113 74.944 146.969 75 146.793 75H136.041Z" fill="#828282"/>
<path d="M156.455 75C156.295 75 156.159 74.944 156.047 74.832C155.935 74.72 155.879 74.584 155.879 74.424V58.8C155.879 58.624 155.935 58.48 156.047 58.368C156.159 58.256 156.295 58.2 156.455 58.2H158.567C158.743 58.2 158.887 58.256 158.999 58.368C159.111 58.48 159.167 58.624 159.167 58.8V64.416L164.591 58.632C164.655 58.552 164.759 58.464 164.903 58.368C165.063 58.256 165.271 58.2 165.527 58.2H167.903C168.031 58.2 168.143 58.248 168.239 58.344C168.351 58.44 168.407 58.56 168.407 58.704C168.407 58.816 168.375 58.912 168.311 58.992L161.711 66.24L168.767 74.184C168.847 74.28 168.887 74.384 168.887 74.496C168.887 74.64 168.831 74.76 168.719 74.856C168.623 74.952 168.511 75 168.383 75H165.911C165.639 75 165.423 74.944 165.263 74.832C165.119 74.704 165.023 74.616 164.975 74.568L159.167 68.208V74.424C159.167 74.584 159.111 74.72 158.999 74.832C158.887 74.944 158.743 75 158.567 75H156.455Z" fill="#828282"/>
<path d="M170.011 75C169.883 75 169.763 74.952 169.651 74.856C169.555 74.76 169.507 74.64 169.507 74.496C169.507 74.432 169.523 74.36 169.555 74.28L175.339 58.8C175.387 58.64 175.475 58.504 175.603 58.392C175.747 58.264 175.939 58.2 176.179 58.2H178.795C179.035 58.2 179.219 58.264 179.347 58.392C179.475 58.504 179.571 58.64 179.635 58.8L185.419 74.28C185.435 74.36 185.443 74.432 185.443 74.496C185.443 74.64 185.395 74.76 185.299 74.856C185.203 74.952 185.091 75 184.963 75H182.875C182.651 75 182.483 74.952 182.371 74.856C182.275 74.744 182.211 74.64 182.179 74.544L181.051 71.616H173.923L172.795 74.544C172.763 74.64 172.691 74.744 172.579 74.856C172.483 74.952 172.323 75 172.099 75H170.011ZM174.763 68.856H180.211L177.475 61.44L174.763 68.856Z" fill="#828282"/>
<path d="M188.26 75C188.1 75 187.964 74.944 187.852 74.832C187.74 74.72 187.684 74.584 187.684 74.424V58.8C187.684 58.624 187.74 58.48 187.852 58.368C187.964 58.256 188.1 58.2 188.26 58.2H198.676C198.852 58.2 198.996 58.256 199.108 58.368C199.22 58.48 199.276 58.624 199.276 58.8V60.48C199.276 60.656 199.22 60.8 199.108 60.912C198.996 61.008 198.852 61.056 198.676 61.056H190.972V65.616H198.196C198.372 65.616 198.516 65.672 198.628 65.784C198.74 65.896 198.796 66.04 198.796 66.216V67.896C198.796 68.056 198.74 68.192 198.628 68.304C198.516 68.416 198.372 68.472 198.196 68.472H190.972V74.424C190.972 74.584 190.916 74.72 190.804 74.832C190.692 74.944 190.548 75 190.372 75H188.26Z" fill="#828282"/>
<path d="M202.674 75C202.514 75 202.378 74.944 202.266 74.832C202.154 74.72 202.098 74.584 202.098 74.424V58.8C202.098 58.624 202.154 58.48 202.266 58.368C202.378 58.256 202.514 58.2 202.674 58.2H204.786C204.962 58.2 205.106 58.256 205.218 58.368C205.33 58.48 205.386 58.624 205.386 58.8V64.416L210.81 58.632C210.874 58.552 210.978 58.464 211.122 58.368C211.282 58.256 211.49 58.2 211.746 58.2H214.122C214.25 58.2 214.362 58.248 214.458 58.344C214.57 58.44 214.626 58.56 214.626 58.704C214.626 58.816 214.594 58.912 214.53 58.992L207.93 66.24L214.986 74.184C215.066 74.28 215.106 74.384 215.106 74.496C215.106 74.64 215.05 74.76 214.938 74.856C214.842 74.952 214.73 75 214.602 75H212.13C211.858 75 211.642 74.944 211.482 74.832C211.338 74.704 211.242 74.616 211.194 74.568L205.386 68.208V74.424C205.386 74.584 205.33 74.72 205.218 74.832C205.106 74.944 204.962 75 204.786 75H202.674Z" fill="#828282"/>
<path d="M216.23 75C216.102 75 215.982 74.952 215.87 74.856C215.774 74.76 215.726 74.64 215.726 74.496C215.726 74.432 215.742 74.36 215.774 74.28L221.558 58.8C221.606 58.64 221.694 58.504 221.822 58.392C221.966 58.264 222.158 58.2 222.398 58.2H225.014C225.254 58.2 225.438 58.264 225.566 58.392C225.694 58.504 225.79 58.64 225.854 58.8L231.638 74.28C231.654 74.36 231.662 74.432 231.662 74.496C231.662 74.64 231.614 74.76 231.518 74.856C231.422 74.952 231.31 75 231.182 75H229.094C228.87 75 228.702 74.952 228.59 74.856C228.494 74.744 228.43 74.64 228.398 74.544L227.27 71.616H220.142L219.014 74.544C218.982 74.64 218.91 74.744 218.798 74.856C218.702 74.952 218.542 75 218.318 75H216.23ZM220.982 68.856H226.43L223.694 61.44L220.982 68.856Z" fill="#828282"/>
<path d="M3.59766 29.5818H4.95126C5.42646 31.9018 6.31286 33.5392 7.61046 34.4938C8.90886 35.4485 10.2385 35.9262 11.6001 35.9262C12.8505 35.9262 13.7689 35.6463 14.3545 35.0856C14.9401 34.5257 15.2329 33.788 15.2329 32.8724C15.2329 32.0047 14.9161 31.263 14.2833 30.6473C13.9353 30.3155 13.3729 29.9606 12.5977 29.5818L8.98806 27.8304C7.08806 26.8997 5.72726 25.8892 4.90406 24.8005C4.06486 23.7119 3.64566 22.4255 3.64566 20.9421C3.64566 19.0638 4.30246 17.4425 5.61686 16.0771C6.93046 14.7125 8.76726 14.0298 11.1257 14.0298C12.1545 14.0298 13.2473 14.1997 14.4025 14.5386C15.5585 14.8784 16.2785 15.0474 16.5633 15.0474C16.9593 15.0474 17.2401 14.9645 17.4065 14.7986C17.5729 14.6327 17.7113 14.4006 17.8217 14.1H18.8905V21.1071H17.6561C17.1969 19.4658 16.4449 18.1483 15.4001 17.1537C14.3553 16.1592 13.1361 15.6623 11.7433 15.6623C10.6665 15.6623 9.86326 15.9622 9.33286 16.562C8.80246 17.1617 8.53766 17.8085 8.53766 18.5032C8.53766 19.071 8.77526 19.6397 9.24966 20.2075C9.70886 20.7913 10.5793 21.3911 11.8617 22.0068L14.5209 23.2852C16.1673 24.0748 17.3705 24.8396 18.1305 25.5813C19.3969 26.8438 20.0305 28.3982 20.0305 30.2445C20.0305 32.0438 19.3777 33.721 18.0713 35.2746C16.7641 36.8298 14.8057 37.6066 12.1937 37.6066C11.5449 37.6066 10.8913 37.5396 10.2345 37.4056C9.57766 37.2717 8.76646 37.0388 7.80086 36.707L6.96966 36.4231C6.66886 36.313 6.48326 36.25 6.41126 36.2341C6.34006 36.2181 6.24886 36.2101 6.13846 36.2101C5.86966 36.2101 5.63606 36.317 5.43766 36.5299C5.24006 36.7429 5.01446 37.1018 4.76086 37.6074H3.59766V29.5818Z" fill="white"/>
<path d="M24.7474 17.367C26.829 15.1108 29.445 13.9814 32.5954 13.9814C35.809 13.9814 38.441 15.1339 40.4906 17.438C42.541 19.7421 43.5658 22.5358 43.5658 25.8177C43.5658 29.0533 42.553 31.8343 40.5266 34.1624C38.5002 36.4904 35.857 37.654 32.5954 37.654C29.429 37.654 26.809 36.5215 24.7354 34.2573C22.6618 31.9931 21.625 29.1793 21.625 25.8177C21.625 22.4409 22.6658 19.624 24.7474 17.367ZM29.2946 32.9437C29.849 35.0428 30.949 36.0924 32.5954 36.0924C34.1626 36.0924 35.1914 35.2877 35.6826 33.6775C36.1738 32.0672 36.4186 29.4481 36.4186 25.8185C36.4186 22.2049 36.161 19.5889 35.6466 17.9707C35.1322 16.3533 34.1226 15.5446 32.6194 15.5446C30.973 15.5446 29.873 16.5942 29.3186 18.6933C28.9546 20.0978 28.7722 22.4728 28.7722 25.8185C28.7722 29.2112 28.9466 31.5871 29.2946 32.9437Z" fill="white"/>
<path d="M44.9277 35.7607C45.7829 35.5557 46.3877 35.2837 46.7445 34.944C47.1005 34.605 47.2789 33.8984 47.2789 32.8249V8.13473C47.2789 7.09873 47.1125 6.42242 46.7805 6.1034C46.4477 5.78518 45.8309 5.52359 44.9285 5.31782V4.1582H54.1421V32.8257C54.1421 33.8992 54.3157 34.601 54.6645 34.9328C55.0125 35.2646 55.6301 35.5405 56.5165 35.7615V36.9211H44.9277V35.7607Z" fill="white"/>
<path d="M61.319 27.1983C63.4238 25.9175 66.7246 24.6294 71.2206 23.3326V19.8059C71.2206 18.3703 70.9158 17.3088 70.3062 16.6221C69.6966 15.9355 68.6158 15.5925 67.0646 15.5925C66.1934 15.5925 65.4774 15.7544 64.9158 16.0774C64.3534 16.4012 64.0726 16.8072 64.0726 17.2969C64.0726 17.4859 64.1038 17.6446 64.1678 17.7706C64.231 17.8974 64.3254 18.0314 64.4526 18.1734L64.7374 18.5051C64.959 18.7739 65.1366 19.0698 65.2718 19.3928C65.4062 19.7166 65.4734 20.0595 65.4734 20.4224C65.4734 21.338 65.1686 22.0438 64.559 22.5415C63.9494 23.0383 63.2414 23.2872 62.4334 23.2872C61.499 23.2872 60.7038 23.012 60.047 22.4609C59.3894 21.9098 59.0614 21.1147 59.0614 20.0763C59.0614 18.2188 59.9398 16.7466 61.6974 15.6611C63.455 14.5757 65.6158 14.0317 68.1798 14.0317C70.9342 14.0317 73.2374 14.5605 75.0894 15.618C76.9254 16.6915 77.8438 18.6638 77.8438 21.5358V33.2771C77.8438 33.6249 77.9342 33.9208 78.1166 34.1648C78.2982 34.4096 78.4998 34.5317 78.7222 34.5317C78.9118 34.5317 79.0822 34.4958 79.2326 34.4248C79.3822 34.3538 79.6158 34.1608 79.9334 33.845L80.6694 34.8626C79.7198 35.9672 78.6662 36.7408 77.511 37.1827C76.7822 37.4666 76.015 37.6086 75.2078 37.6086C73.767 37.6086 72.7142 37.1899 72.0494 36.3516C71.6694 35.8771 71.3918 35.1737 71.2182 34.2406C69.8726 35.5844 68.3526 36.5327 66.659 37.0862C65.6294 37.4339 64.6166 37.6078 63.6198 37.6078C62.2902 37.6078 61.047 37.1843 59.8918 36.3397C58.7358 35.4943 58.1582 34.1784 58.1582 32.3919C58.1606 30.209 59.2134 28.4783 61.319 27.1983ZM69.7966 33.439C70.1766 33.1543 70.6278 32.7117 71.1502 32.1103V25.0138C69.8518 25.3305 68.7118 25.8289 67.731 26.5092C66.0686 27.6649 65.2374 29.1363 65.2374 30.9236C65.2374 31.9843 65.4782 32.7867 65.9614 33.333C66.4438 33.8785 66.9862 34.1512 67.5878 34.1512C68.379 34.1512 69.115 33.9144 69.7966 33.439Z" fill="white"/>
<path d="M98.357 15.4738C99.853 16.4683 100.601 17.746 100.601 19.3084C100.601 20.145 100.304 20.8708 99.7106 21.4865C99.117 22.1022 98.361 22.41 97.4426 22.41C96.825 22.41 96.2866 22.268 95.8282 21.9841C94.9578 21.4793 94.5218 20.5637 94.5218 19.2382C94.5218 19.0962 94.5298 18.8873 94.5458 18.6105C94.5618 18.3346 94.5698 18.0387 94.5698 17.7229C94.5698 16.8703 94.3722 16.2873 93.9762 15.9715C93.565 15.6557 93.0978 15.4977 92.5754 15.4977C91.0714 15.4977 90.0026 16.3224 89.3698 17.9717C88.7362 19.621 88.4202 21.5104 88.4202 23.6414C88.4202 26.6713 89.0218 29.2122 90.225 31.2643C91.4282 33.3164 93.0506 34.342 95.093 34.342C96.3754 34.342 97.4674 34.0581 98.3698 33.4894C98.9082 33.1576 99.573 32.5507 100.364 31.6662L101.267 32.4949C99.6834 34.6889 97.8314 36.1963 95.7098 37.0161C94.5858 37.442 93.3906 37.655 92.1242 37.655C89.0058 37.655 86.457 36.5424 84.4778 34.3173C82.4986 32.0921 81.5098 29.3781 81.5098 26.1736C81.5098 22.7968 82.5586 19.9201 84.6562 17.545C86.7538 15.17 89.5514 13.9824 93.0506 13.9824C95.0922 13.9824 96.861 14.4793 98.357 15.4738Z" fill="white"/>
<path d="M105.42 17.1187C107.409 15.0594 109.807 14.0298 112.612 14.0298C114.213 14.0298 115.719 14.4485 117.129 15.2843C118.54 16.1209 119.626 17.2806 120.386 18.764C120.956 19.8845 121.353 21.3368 121.575 23.1193C121.686 23.9559 121.741 24.5948 121.741 25.0366H109.322C109.433 26.9778 109.75 28.6582 110.274 30.0786C111.226 32.7456 112.9 34.0791 115.295 34.0791C116.437 34.0791 117.516 33.7242 118.531 33.0136C119.149 32.5877 119.919 31.8699 120.839 30.8594L121.955 31.5461C120.449 34.0081 118.706 35.7204 116.724 36.6831C115.441 37.2988 113.967 37.6066 112.302 37.6066C109.909 37.6066 107.666 36.6679 105.574 34.7897C103.482 32.9115 102.436 29.9136 102.436 25.7943C102.436 22.0698 103.431 19.1779 105.42 17.1187ZM115.758 23.2374C115.726 20.3814 115.504 18.3843 115.091 17.2479C114.677 16.1114 113.852 15.5435 112.612 15.5435C111.341 15.5435 110.472 16.1983 110.003 17.5086C109.534 18.819 109.268 20.7283 109.204 23.2374H115.758Z" fill="white"/>
<path d="M132.296 37.6539C136.772 37.6539 140.401 34.0364 140.401 29.574C140.401 25.1116 136.772 21.4941 132.296 21.4941C127.82 21.4941 124.191 25.1116 124.191 29.574C124.191 34.0364 127.82 37.6539 132.296 37.6539Z" fill="white"/>
</svg>
