<?xml version="1.0" encoding="utf-8"?>
<!--
  Copyright 2023-2025 Solace Systems. All rights reserved.

  Licensed under the Apache License, Version 2.0 (the "License");
  you may not use this file except in compliance with the License.
  You may obtain a copy of the License at

      http://www.apache.org/licenses/LICENSE-2.0

  Unless required by applicable law or agreed to in writing, software
  distributed under the License is distributed on an "AS IS" BASIS,
  WITHOUT WARRANTIES OR CONDITIONS OF ANY KIND, either express or implied.
  See the License for the specific language governing permissions and
  limitations under the License.
-->
<svg width="64" height="32" viewBox="0 0 64 32" fill="none" xmlns="http://www.w3.org/2000/svg">
<g clip-path="url(#clip0_874_82850)">
<path d="M18.5232 10.809L18.5106 10.7904C18.3053 10.4458 17.9777 10.2159 17.6153 10.1169C17.2411 10.0179 16.8382 10.0594 16.4796 10.2642H16.4819C16.124 10.4664 15.8848 10.7972 15.7846 11.1677C15.6864 11.5355 15.7292 11.9421 15.9348 12.2962L15.9417 12.3053C16.1478 12.6548 16.4758 12.8894 16.842 12.9838C17.2097 13.0874 17.6199 13.0436 17.9731 12.8387L17.9922 12.8296C18.3401 12.6229 18.5718 12.2962 18.6685 11.9375C18.7671 11.5675 18.7277 11.1631 18.5232 10.809ZM10.1602 11.947C11.028 12.0895 11.8074 12.5033 12.403 13.1011H12.4076C12.5024 13.1951 12.5945 13.2987 12.6802 13.4022L14.1691 12.5444C13.9688 11.9421 13.9596 11.3124 14.1206 10.7215C14.3327 9.93068 14.8476 9.22252 15.6194 8.77897L15.6447 8.76299C16.4081 8.33275 17.2758 8.24326 18.0591 8.45457C18.8523 8.66627 19.568 9.1814 20.0133 9.94895V9.95124C20.4568 10.7146 20.5466 11.5907 20.3352 12.3792C20.1242 13.17 19.6073 13.8827 18.8363 14.324L18.6329 14.4435H18.6123C17.899 14.7816 17.1149 14.8345 16.3947 14.6457C15.8033 14.4896 15.2609 14.1606 14.8362 13.6942L13.3495 14.5494C13.5204 14.9998 13.6148 15.4849 13.6148 15.9977C13.6148 16.5079 13.5204 17.0002 13.3495 17.4529L14.8362 18.3057C15.2609 17.8321 15.8033 17.5103 16.3947 17.3539C17.1883 17.138 18.0675 17.2298 18.8363 17.676L18.8856 17.6988V17.7011C19.628 18.1496 20.1265 18.8414 20.3352 19.6231C20.5466 20.407 20.4568 21.2834 20.0133 22.0483L19.9866 22.1016L19.9835 22.0971C19.5382 22.8345 18.8363 23.3341 18.0614 23.5454C17.2667 23.754 16.3871 23.6649 15.6194 23.2252V23.2191C14.8476 22.7748 14.3327 22.0651 14.1206 21.2758C13.9596 20.6876 13.9688 20.0579 14.1691 19.4555L12.6802 18.6C12.5945 18.7036 12.5024 18.8026 12.4076 18.8966L12.403 18.9012C11.8074 19.4966 11.028 19.9105 10.1602 20.0483V21.7616C10.7787 21.8903 11.3322 22.1984 11.7661 22.6305L11.7684 22.635C12.3499 23.2115 12.71 24.0145 12.71 24.8974C12.71 25.7773 12.3499 26.5757 11.7684 27.1551L11.7661 27.1643C11.1805 27.7434 10.3773 28.102 9.49084 28.102C8.60893 28.102 7.80348 27.7434 7.21936 27.1643H7.21707V27.1551C6.63485 26.5757 6.27399 25.7773 6.27399 24.8974C6.27399 24.0145 6.63485 23.2115 7.21707 22.635V22.6305H7.21936C7.65285 22.1984 8.20754 21.8903 8.82376 21.7616V20.0483C7.95599 19.9105 7.17808 19.4966 6.58326 18.9012L6.57713 18.8966C5.83436 18.1542 5.36914 17.1312 5.36914 15.9977C5.36914 14.8665 5.83436 13.8435 6.57713 13.1011H6.58326C7.17808 12.5033 7.95599 12.0895 8.82376 11.947V10.241C8.20754 10.1077 7.65285 9.79971 7.21936 9.36986H7.21707V9.36529C6.63485 8.78355 6.27399 7.98589 6.27399 7.10296C6.27399 6.22461 6.63485 5.42012 7.21707 4.84064L7.21936 4.83835C7.80348 4.25697 8.60893 3.89832 9.49084 3.89832C10.3773 3.89832 11.1805 4.25697 11.7661 4.83835V4.84064H11.7684C12.3499 5.42012 12.71 6.22461 12.71 7.10296C12.71 7.98589 12.3499 8.78355 11.7684 9.36529L11.7661 9.36986C11.3322 9.79971 10.7787 10.1077 10.1602 10.241V11.947ZM11.0203 14.4782C10.6289 14.0895 10.0887 13.8458 9.49084 13.8458C8.89372 13.8458 8.35509 14.0895 7.96442 14.4782C7.57488 14.8665 7.33482 15.4022 7.33482 15.9977C7.33482 16.5932 7.57488 17.1312 7.96442 17.5241C8.35509 17.9105 8.89372 18.1519 9.49084 18.1519C10.0887 18.1519 10.6289 17.9105 11.0203 17.5241C11.4106 17.1312 11.6507 16.5932 11.6507 15.9977C11.6507 15.4022 11.4106 14.8665 11.0203 14.4782ZM17.6153 21.8827C17.9846 21.786 18.3191 21.5499 18.5232 21.1928L18.5507 21.1407C18.7323 20.8026 18.7656 20.4116 18.6685 20.0647C18.5706 19.6943 18.3309 19.3657 17.9731 19.1612L17.9521 19.1471C17.6035 18.9564 17.2067 18.9149 16.842 19.0139C16.4712 19.106 16.1378 19.352 15.9348 19.7061C15.7292 20.0578 15.6864 20.4622 15.7846 20.8346C15.8863 21.2008 16.124 21.5317 16.4796 21.7384H16.4819C16.8382 21.9425 17.2411 21.979 17.6153 21.8827ZM9.49084 26.3826C9.90638 26.3826 10.2795 26.214 10.5482 25.9501L10.5513 25.9425C10.8204 25.679 10.9844 25.3067 10.9844 24.8974C10.9844 24.4835 10.8204 24.1127 10.5513 23.8446H10.5482C10.2795 23.5732 9.90638 23.4091 9.49084 23.4091C9.07606 23.4091 8.70601 23.5732 8.44071 23.8446H8.43385C8.16586 24.1127 7.99957 24.4835 7.99957 24.8974C7.99957 25.3067 8.16586 25.679 8.43385 25.9425L8.44071 25.9501C8.70601 26.214 9.07606 26.3826 9.49084 26.3826ZM10.5482 6.05215C10.2795 5.78335 9.90638 5.61773 9.49084 5.61773C9.07606 5.61773 8.70601 5.78335 8.44071 6.05215H8.43385C8.16586 6.31903 7.99957 6.69139 7.99957 7.10296C7.99957 7.51683 8.16586 7.88692 8.43385 8.15115L8.44071 8.15837C8.70601 8.42489 9.07606 8.58822 9.49084 8.58822C9.90638 8.58822 10.2795 8.42489 10.5482 8.15837L10.5513 8.15115C10.8204 7.88692 10.9844 7.51683 10.9844 7.10296C10.9844 6.69139 10.8204 6.31903 10.5513 6.05215H10.5482Z" fill="#231F20"/>
<path d="M25.1289 11.3101H26.7903V16.3609L29.186 13.7216H31.178L28.2857 16.7793L31.1899 20.6552H29.2877L26.7903 17.1932V20.6552H25.1289V11.3101Z" fill="#231F20"/>
<path d="M38.9913 20.6552H37.3291V19.6577C36.8868 20.4645 35.9606 20.8692 34.9839 20.8692C32.7518 20.8692 31.4463 19.138 31.4463 17.1818C31.4463 14.9975 33.0312 13.5077 34.9839 13.5077C36.2519 13.5077 37.0252 14.177 37.3291 14.7333V13.7217H38.9913V20.6552ZM33.1073 17.2183C33.1073 18.0784 33.7285 19.3287 35.2247 19.3287C36.1506 19.3287 36.7599 18.8483 37.0761 18.2185C37.2416 17.9128 37.3177 17.5861 37.3433 17.2461C37.3547 16.9172 37.2924 16.5749 37.1521 16.2711C36.8608 15.6162 36.2144 15.0482 35.2125 15.0482C33.8692 15.0482 33.1073 16.1332 33.1073 17.2069V17.2183Z" fill="#231F20"/>
<path d="M40.8731 14.9975H40.0122V13.7217H40.8731V13.3311C40.8731 11.2709 42.4458 11.1468 43.6385 11.1331V12.4066C43.2191 12.4066 42.5352 12.4066 42.5352 13.3813V13.7217H43.6385V14.9975H42.5352V20.6552H40.8731V14.9975Z" fill="#231F20"/>
<path d="M44.7681 11.3101H46.4291V16.3609L48.8252 13.7216H50.8172L47.9249 16.7793L50.8287 20.6552H48.9265L46.4291 17.1932V20.6552H44.7681V11.3101Z" fill="#231F20"/>
<path d="M58.6303 20.6552H56.9686V19.6577C56.5252 20.4645 55.5997 20.8692 54.6233 20.8692C52.3912 20.8692 51.0869 19.138 51.0869 17.1818C51.0869 14.9975 52.6711 13.5077 54.6233 13.5077C55.8906 13.5077 56.6647 14.177 56.9686 14.7333V13.7217H58.6303V20.6552ZM52.7468 17.2183C52.7468 18.0784 53.3676 19.3287 54.8642 19.3287C55.7889 19.3287 56.3983 18.8483 56.7148 18.2185C56.8807 17.9128 56.9571 17.5861 56.9823 17.2461C56.9938 16.9172 56.9315 16.5749 56.7908 16.2711C56.4999 15.6162 55.8535 15.0482 54.8519 15.0482C53.5082 15.0482 52.7468 16.1332 52.7468 17.2069V17.2183Z" fill="#231F20"/>
</g>
<defs>
<clipPath id="clip0_874_82850">
<rect width="61.0909" height="32" fill="white" transform="translate(1.4541)"/>
</clipPath>
</defs>
</svg>