<?xml version="1.0" encoding="utf-8"?>
<!-- Generator: Adobe Illustrator 26.3.1, SVG Export Plug-In . SVG Version: 6.00 Build 0)  -->
<svg version="1.1" id="Solace_Logo" xmlns="http://www.w3.org/2000/svg" xmlns:xlink="http://www.w3.org/1999/xlink" x="0px"
	 y="0px" viewBox="0 0 620 420" style="enable-background:new 0 0 620 420;" xml:space="preserve">
<style type="text/css">
	.st0{fill:#FFFFFF;}
</style>
<path class="st0" d="M210.8059,420H106.9535V316h103.8524V420z M175.4374,217.5394v49.4769h84.4032v84.5231h49.4067v-134H175.4374z
	 M273.8347,119.0992v49.4769h84.4031v84.5231h49.4067v-134H273.8347z M503.5345,152.9422
	c-2.1854-0.1889-3.8189-2.0736-3.6639-4.2647c0.2216-3.1331,0.3342-6.2955,0.3342-9.4874C500.2047,62.32,435.3269,0,355.3006,0
	C297.94,0,248.3658,32.0222,224.8885,78.4663c-1.0489,2.0749-3.6133,2.7982-5.6185,1.625
	C207.8319,73.3995,194.7505,69.6,180.8584,69.6c-38.925,0-71.4642,29.7967-79.4601,69.6039
	c-0.144,0.7171-0.6632,1.2932-1.3606,1.5108C60.86,152.9371,32,194.91,32,244.79c0,42.32,20.7705,78.94,50.9876,96.53v-32.88
	c-1.438-1.43-2.836-2.94-4.1941-4.53c-13.2712-15.59-20.5708-36.59-20.5708-59.12c0-22.53,7.2996-43.52,20.5708-59.12
	c6.2611-7.36,13.4908-13.03,21.2898-16.8c6.5079-3.1633,16.641-5.0102,23.4392-5.4196c0.5048-0.0304,0.9244-0.4539,0.9385-0.9601
	c0.1498-5.3646,0.2509-18.1737,1.8532-25.3802c5.991-26.9456,28.3715-45.53,54.5442-45.53c12.7519,0,24.5851,4.54,34.2713,12.25
	c6.7467,5.3746,6.7467,5.3746,6.7467,5.3746s5.8106,5.4781,8.4186,7.4997c1.9037,1.4756,4.3458,1.4687,5.0168-0.1455
	c1.6265-3.9126,3.5691-9.3735,6.51-16.9789c16.9859-44.02,61.4527-75.5,113.4787-75.5c66.6453,0,120.8583,51.64,120.8583,115.11
	v37.6c0,0.5523,0.4471,1,0.9986,1h18.953c36.8077,0,66.7452,33.31,66.7452,74.26c0,40.94-29.9375,74.25-66.7452,74.25H336.5173
	v25.18h159.5933c1.8873,0,3.7547-0.06,5.612-0.19C549.8542,348.16,588,304.92,588,252.05
	C588,199.8471,550.8058,157.0293,503.5345,152.9422z"/>
</svg>
