<svg width="64" height="32" viewBox="0 0 64 32" fill="none" xmlns="http://www.w3.org/2000/svg">
<path d="M4.63965 19.4681H5.18109C5.37117 20.399 5.72573 21.056 6.24477 21.439C6.76413 21.8221 7.29597 22.0137 7.84061 22.0137C8.34077 22.0137 8.70813 21.9014 8.94237 21.6765C9.17661 21.4518 9.29373 21.1558 9.29373 20.7885C9.29373 20.4403 9.16701 20.1427 8.91389 19.8957C8.77469 19.7625 8.54973 19.6201 8.23965 19.4681L6.79581 18.7654C6.03581 18.392 5.49149 17.9865 5.16221 17.5497C4.82653 17.1129 4.65885 16.5968 4.65885 16.0016C4.65885 15.248 4.92157 14.5974 5.44733 14.0496C5.97277 13.5021 6.70749 13.2281 7.65085 13.2281C8.06237 13.2281 8.49949 13.2963 8.96157 13.4323C9.42397 13.5686 9.71197 13.6365 9.82589 13.6365C9.98429 13.6365 10.0966 13.6032 10.1632 13.5366C10.2297 13.4701 10.2851 13.3769 10.3292 13.2563H10.7568V16.0678H10.263C10.0793 15.4093 9.77853 14.8806 9.36061 14.4816C8.94269 14.0825 8.45501 13.8832 7.89789 13.8832C7.46717 13.8832 7.14589 14.0035 6.93373 14.2441C6.72157 14.4848 6.61565 14.7443 6.61565 15.023C6.61565 15.2509 6.71069 15.479 6.90045 15.7069C7.08413 15.9411 7.43229 16.1817 7.94525 16.4288L9.00893 16.9417C9.66749 17.2585 10.1488 17.5654 10.4528 17.863C10.9593 18.3696 11.2128 18.9933 11.2128 19.7341C11.2128 20.456 10.9516 21.1289 10.4291 21.7523C9.90621 22.3763 9.12285 22.688 8.07805 22.688C7.81853 22.688 7.55709 22.6611 7.29437 22.6074C7.03165 22.5536 6.70717 22.4601 6.32093 22.327L5.98845 22.2131C5.86813 22.1689 5.79389 22.1437 5.76509 22.1373C5.73661 22.1309 5.70013 22.1277 5.65597 22.1277C5.54845 22.1277 5.45501 22.1705 5.37565 22.256C5.29661 22.3414 5.20637 22.4854 5.10493 22.6883H4.63965V19.4681Z" fill="black"/>
<path d="M13.1005 14.567C13.9332 13.6617 14.9796 13.2086 16.2397 13.2086C17.5252 13.2086 18.578 13.671 19.3978 14.5955C20.218 15.52 20.6279 16.6409 20.6279 17.9577C20.6279 19.256 20.2228 20.3718 19.4122 21.3059C18.6016 22.24 17.5444 22.7069 16.2397 22.7069C14.9732 22.7069 13.9252 22.2525 13.0957 21.344C12.2663 20.4355 11.8516 19.3065 11.8516 17.9577C11.8516 16.6029 12.2679 15.4726 13.1005 14.567ZM14.9194 20.8169C15.1412 21.6592 15.5812 22.0803 16.2397 22.0803C16.8666 22.0803 17.2781 21.7574 17.4746 21.1113C17.6711 20.4653 17.769 19.4144 17.769 17.9581C17.769 16.5081 17.666 15.4585 17.4602 14.8093C17.2544 14.1603 16.8506 13.8358 16.2493 13.8358C15.5908 13.8358 15.1508 14.2569 14.929 15.0992C14.7834 15.6627 14.7104 16.6157 14.7104 17.9581C14.7104 19.3193 14.7802 20.2726 14.9194 20.8169Z" fill="black"/>
<path d="M21.1719 21.9472C21.514 21.865 21.7559 21.7559 21.8986 21.6195C22.041 21.4835 22.1124 21.2 22.1124 20.7693V10.8627C22.1124 10.4471 22.0458 10.1757 21.913 10.0477C21.7799 9.92001 21.5332 9.81505 21.1722 9.73249V9.26721H24.8576V20.7696C24.8576 21.2003 24.9271 21.4819 25.0666 21.6151C25.2058 21.7482 25.4528 21.8589 25.8074 21.9475V22.4128H21.1719V21.9472Z" fill="black"/>
<path d="M27.7282 18.5116C28.5701 17.9977 29.8904 17.4809 31.6888 16.9606V15.5456C31.6888 14.9696 31.5669 14.5436 31.3231 14.2681C31.0792 13.9926 30.6469 13.855 30.0264 13.855C29.6779 13.855 29.3915 13.92 29.1669 14.0496C28.9419 14.1795 28.8296 14.3424 28.8296 14.5388C28.8296 14.6147 28.8421 14.6784 28.8677 14.7289C28.893 14.7798 28.9307 14.8336 28.9816 14.8905L29.0955 15.0236C29.1842 15.1315 29.2552 15.2502 29.3093 15.3798C29.3631 15.5097 29.3899 15.6473 29.3899 15.7929C29.3899 16.1603 29.268 16.4435 29.0242 16.6432C28.7803 16.8425 28.4971 16.9424 28.1739 16.9424C27.8002 16.9424 27.4821 16.832 27.2194 16.6108C26.9563 16.3897 26.8251 16.0707 26.8251 15.654C26.8251 14.9088 27.1765 14.318 27.8795 13.8825C28.5826 13.447 29.4469 13.2288 30.4725 13.2288C31.5743 13.2288 32.4955 13.4409 33.2363 13.8652C33.9707 14.296 34.3381 15.0873 34.3381 16.2396V20.9507C34.3381 21.0902 34.3743 21.2089 34.4472 21.3068C34.5199 21.4051 34.6005 21.454 34.6895 21.454C34.7653 21.454 34.8335 21.4396 34.8936 21.4112C34.9535 21.3827 35.0469 21.3052 35.1739 21.1785L35.4683 21.5868C35.0885 22.03 34.6671 22.3404 34.205 22.5177C33.9135 22.6316 33.6066 22.6886 33.2837 22.6886C32.7074 22.6886 32.2863 22.5206 32.0203 22.1843C31.8683 21.9939 31.7573 21.7116 31.6879 21.3372C31.1496 21.8764 30.5416 22.2569 29.8642 22.479C29.4523 22.6185 29.0472 22.6883 28.6485 22.6883C28.1167 22.6883 27.6194 22.5184 27.1573 22.1795C26.6949 21.8403 26.4639 21.3123 26.4639 20.5955C26.4648 19.7196 26.8859 19.0252 27.7282 18.5116ZM31.1192 21.0156C31.2712 20.9014 31.4517 20.7238 31.6607 20.4825V17.6352C31.1413 17.7622 30.6853 17.9622 30.293 18.2352C29.628 18.6988 29.2955 19.2892 29.2955 20.0064C29.2955 20.432 29.3919 20.7539 29.5851 20.9731C29.7781 21.192 29.9951 21.3014 30.2357 21.3014C30.5522 21.3014 30.8466 21.2064 31.1192 21.0156Z" fill="black"/>
<path d="M42.5436 13.8074C43.142 14.2064 43.4412 14.7191 43.4412 15.3459C43.4412 15.6816 43.3224 15.9728 43.085 16.2199C42.8476 16.4669 42.5452 16.5904 42.1778 16.5904C41.9308 16.5904 41.7154 16.5335 41.532 16.4195C41.1839 16.217 41.0095 15.8496 41.0095 15.3178C41.0095 15.2608 41.0127 15.177 41.0191 15.0659C41.0255 14.9552 41.0287 14.8365 41.0287 14.7098C41.0287 14.3677 40.9496 14.1338 40.7912 14.0071C40.6268 13.8803 40.4399 13.817 40.2309 13.817C39.6293 13.817 39.2018 14.1479 38.9487 14.8096C38.6952 15.4714 38.5688 16.2295 38.5688 17.0845C38.5688 18.3002 38.8095 19.3197 39.2908 20.1431C39.772 20.9664 40.421 21.3779 41.238 21.3779C41.7509 21.3779 42.1877 21.264 42.5487 21.0359C42.764 20.9027 43.03 20.6592 43.3464 20.3043L43.7074 20.6368C43.0741 21.5171 42.3333 22.1219 41.4847 22.4509C41.0351 22.6218 40.557 22.7072 40.0504 22.7072C38.8031 22.7072 37.7836 22.2608 36.9919 21.368C36.2002 20.4752 35.8047 19.3863 35.8047 18.1005C35.8047 16.7456 36.2242 15.5914 37.0632 14.6384C37.9023 13.6855 39.0213 13.209 40.421 13.209C41.2376 13.209 41.9452 13.4083 42.5436 13.8074Z" fill="black"/>
<path d="M45.3687 14.4675C46.1642 13.6413 47.1233 13.2281 48.2455 13.2281C48.8858 13.2281 49.4881 13.3961 50.0522 13.7315C50.6167 14.0672 51.051 14.5325 51.355 15.1277C51.5831 15.5773 51.7418 16.16 51.8305 16.8752C51.875 17.2109 51.897 17.4672 51.897 17.6445H46.9294C46.9738 18.4233 47.1006 19.0976 47.3102 19.6675C47.691 20.7376 48.3604 21.2726 49.3185 21.2726C49.7754 21.2726 50.2068 21.1302 50.6129 20.8451C50.8602 20.6742 51.1681 20.3862 51.5361 19.9808L51.9825 20.2563C51.3802 21.2441 50.683 21.9312 49.8903 22.3174C49.377 22.5645 48.7873 22.688 48.1214 22.688C47.1642 22.688 46.267 22.3113 45.4302 21.5577C44.5934 20.8041 44.1748 19.6013 44.1748 17.9485C44.1751 16.4541 44.5729 15.2937 45.3687 14.4675ZM49.5038 16.9225C49.491 15.7766 49.402 14.9753 49.2369 14.5193C49.0714 14.0633 48.7412 13.8355 48.2455 13.8355C47.737 13.8355 47.3892 14.0982 47.2017 14.624C47.0142 15.1497 46.9076 15.9158 46.8823 16.9225H49.5038Z" fill="black"/>
<path d="M56.1198 22.7069C57.9103 22.7069 59.3618 21.2554 59.3618 19.4649C59.3618 17.6745 57.9103 16.223 56.1198 16.223C54.3294 16.223 52.8779 17.6745 52.8779 19.4649C52.8779 21.2554 54.3294 22.7069 56.1198 22.7069Z" fill="black"/>
</svg>
