<?xml version="1.0" encoding="utf-8"?>
<!-- Generator: Adobe Illustrator 26.3.1, SVG Export Plug-In . SVG Version: 6.00 Build 0)  -->
<svg version="1.1" id="Solace_Logo" xmlns="http://www.w3.org/2000/svg" xmlns:xlink="http://www.w3.org/1999/xlink" x="0px"
	 y="0px" viewBox="0 0 2279.6033 420" style="enable-background:new 0 0 2279.6033 420;" xml:space="preserve">
<style type="text/css">
	.st0{fill:#FFFFFF;}
</style>
<path class="st0" d="M696.1884,209.0425c0,16.963-5.8599,30.5333-17.5798,40.0943c-11.7199,9.5609-27.7576,14.4956-47.8047,14.4956
	c-21.8977,0-38.5522-3.0842-50.5804-8.9441v-21.8976c7.7104,3.3926,15.7293,6.1683,24.6734,8.0188
	c8.944,1.8505,17.8882,2.7758,26.5239,2.7758c14.1873,0,24.9819-2.7758,32.3839-8.6357
	c7.0936-5.8599,10.7946-13.5704,10.7946-23.7481c0-6.7852-1.2336-12.3367-3.701-16.6545
	c-2.4673-4.3179-6.7852-8.3273-12.9536-12.0283c-6.1683-3.701-15.1124-7.7104-27.4491-12.3367
	c-17.2714-6.4768-29.2997-14.1872-36.7017-23.1313s-11.103-20.3555-11.103-34.5427c0-15.1125,5.243-26.8323,16.0377-35.7764
	s24.6734-13.2619,42.2532-13.2619c18.1966,0,35.1595,3.3926,50.5804,10.4862l-6.7852,19.7387
	c-15.1124-6.7852-29.9165-10.1778-44.4121-10.1778c-11.4114,0-20.3556,2.4673-26.5239,7.7104
	c-6.4767,5.2431-9.5609,12.3367-9.5609,21.2808c0,6.7852,1.2336,12.3367,3.3926,16.6545
	c2.4673,4.3178,6.4768,8.3273,12.0283,11.7199c5.5515,3.701,14.1872,7.402,25.5986,12.0283
	c19.4303,7.402,32.6923,15.1125,40.0943,23.4397C692.7958,184.986,696.1884,195.7806,696.1884,209.0425z M837.4435,187.7617
	c0,23.7481-5.5515,42.2532-16.963,55.5151c-11.4115,13.2619-27.1407,20.0471-47.1879,20.0471
	c-12.3367,0-23.4397-3.0842-33.0006-9.2525c-9.5609-6.1684-16.963-14.804-22.2061-26.2155
	c-5.2431-11.4114-7.7104-24.6734-7.7104-40.0943c0-23.7481,5.5515-42.2532,16.963-55.5151s26.8323-19.7387,46.8795-19.7387
	c19.4302,0,34.8511,6.7852,46.2626,20.3555C831.5836,146.1254,837.4435,164.6304,837.4435,187.7617z M731.9648,187.7617
	c0,18.5051,3.3926,32.6922,10.4862,42.5616c7.0936,9.8693,17.5798,14.4956,31.1501,14.4956
	c13.5704,0,24.0565-4.9347,31.1502-14.4956c7.0936-9.5609,10.7946-23.7481,10.7946-42.5616c0-18.505-3.701-32.6922-10.7946-42.2532
	c-7.0936-9.5609-17.5798-14.4956-31.4586-14.4956c-13.5704,0-24.0566,4.6263-31.1502,14.1872
	C735.3574,154.7611,731.9648,168.9483,731.9648,187.7617z M882.1641,260.5482h-20.9724V53.9086h20.9724V260.5482z
	 M998.7458,260.5482l-4.3178-20.6639h-0.9252c-6.7852,9.2525-13.8788,15.4209-20.664,18.505s-15.4208,4.9347-25.5986,4.9347
	c-13.5704,0-24.365-3.701-32.3839-11.103c-7.7104-7.402-11.7198-17.8882-11.7198-31.767c0-29.2996,22.2061-44.7205,66.9266-46.2626
	l23.4398-0.9252v-8.9441c0-11.4114-2.4673-19.7387-7.0936-25.2902c-4.6263-5.5515-12.0283-8.0188-22.5145-8.0188
	c-11.4114,0-24.6733,3.701-39.169,11.103l-6.4768-16.963c6.7852-4.0094,14.1873-7.0936,22.5145-9.2525
	c8.0189-2.1589,16.3461-3.3926,24.3649-3.3926c16.3461,0,28.6828,3.701,36.7017,11.4114s12.0283,20.0471,12.0283,37.0101v99.3104
	h-15.1125V260.5482z M951.2495,245.1274c12.9536,0,23.1313-3.701,30.8417-11.4114c7.402-7.402,11.103-18.1966,11.103-31.767v-13.262
	l-20.9724,0.9253c-16.6545,0.6168-28.6827,3.3926-36.0848,8.0188c-7.402,4.9347-11.103,12.3367-11.103,22.5145
	c0,8.0188,2.1589,14.1872,6.7852,18.1966C936.754,242.9684,943.2307,245.1274,951.2495,245.1274z M1099.5983,263.324
	c-20.0471,0-35.468-6.4768-46.571-19.4303c-11.103-12.9535-16.3461-31.4586-16.3461-55.2067
	c0-24.365,5.5515-43.1784,16.6545-56.4404s27.1406-20.0471,47.4962-20.0471c6.7853,0,13.262,0.6168,20.0471,2.1589
	c6.7853,1.5421,11.7198,3.3926,15.7294,5.2431l-6.4768,18.8135c-4.6262-1.8505-9.5609-3.701-15.1124-4.9347
	s-10.1777-1.8505-14.4957-1.8505c-28.0659,0-42.2532,18.8135-42.2532,56.4404c0,17.8882,3.3926,31.767,10.1777,41.3279
	c6.7853,9.5609,16.963,14.4956,30.5333,14.4956c11.4115,0,23.4397-2.4673,35.468-7.7104v19.4303
	C1125.5054,260.8566,1113.7855,263.324,1099.5983,263.324z M1213.0959,263.324c-20.3556,0-36.7017-6.4768-48.4216-19.7387
	c-11.7197-12.9535-17.5798-31.4586-17.5798-54.5899c0-23.4397,5.5515-42.2532,16.3462-55.8235
	c11.103-13.8788,25.5985-20.664,44.1036-20.664c17.2714,0,31.1501,5.8599,41.0194,17.8882
	c10.1777,12.0283,15.1124,27.7576,15.1124,47.4963v13.8788h-95.3009c0.3085,16.963,4.6262,30.2249,12.3367,38.8606
	c7.7104,8.9441,18.8135,13.262,33.0007,13.262c14.804,0,29.608-3.3926,44.1036-9.8694v19.7387
	c-7.402,3.3926-14.4957,5.8599-20.9724,7.0936C1230.3672,262.3987,1222.3485,263.324,1213.0959,263.324z M1207.236,130.7045
	c-11.103,0-20.0471,3.701-26.5239,11.4114s-10.4862,18.1966-11.7198,31.767h72.1697c0-13.8788-3.0842-24.6734-8.9441-32.0754
	C1226.6663,134.4055,1218.339,130.7045,1207.236,130.7045z M1455.8203,122.0688c0,18.8135-6.1683,33.3091-18.1965,43.1784
	c-12.0283,9.8694-29.2997,15.1125-51.5057,15.1125h-28.3745v80.1885H1344.79V66.2453h45.0291
	C1433.9227,66.5537,1455.8203,85.0587,1455.8203,122.0688z M1357.7437,168.6398h25.2903c20.6639,0,35.7764-3.701,45.0289-10.7946
	s13.8788-18.8134,13.8788-35.1596c0-15.1125-4.3179-25.9071-13.2618-33.3091c-8.6357-7.0936-22.2062-10.7946-40.7112-10.7946
	h-30.5333v90.0579H1357.7437z M1490.6715,116.2089v93.4505c0,14.4956,2.7758,24.9818,8.6357,31.767
	c5.8599,6.4768,14.804,9.8694,27.1406,9.8694c16.3461,0,28.3745-4.3179,36.0848-12.9535
	c7.7104-8.6357,11.4115-22.8229,11.4115-42.2532v-79.8801h12.3368v144.3393h-10.4863l-2.1589-20.0471h-0.6169
	c-8.9441,15.1125-24.6733,22.5145-47.4962,22.5145c-31.1501,0-46.8795-17.5798-46.8795-52.7393v-94.0673H1490.6715z
	 M1677.264,113.4331c19.1219,0,33.6176,6.4768,43.4868,19.1219c9.8694,12.6451,14.4956,31.1502,14.4956,55.8235
	c0,24.0566-5.243,42.5616-15.4208,55.5151c-10.1777,12.9535-24.6735,19.4303-43.1785,19.4303
	c-9.8694,0-18.505-2.1589-26.5238-6.4768s-13.8788-10.1778-18.5051-18.1966h-1.2336l-3.3926,21.8976h-7.7104V53.9086h12.645v51.8141
	c0,7.7104-0.3083,15.1124-0.6168,21.5892l-0.3083,11.4115h0.9252c5.2432-8.6357,11.4115-15.1125,18.8135-19.1219
	C1658.1422,115.5921,1667.0863,113.4331,1677.264,113.4331z M1676.9556,125.4614c-16.0377,0-27.7576,4.9347-34.8512,14.4956
	c-7.0935,9.8694-10.4862,25.907-10.4862,48.1131v2.1589c0,21.8976,3.701,37.3185,10.7946,46.8794
	c7.4021,9.5609,18.5051,14.1872,33.9259,14.1872c15.1125,0,26.2156-5.5515,33.9259-16.6545
	c7.7104-11.103,11.4115-26.8323,11.4115-47.1879C1721.9846,146.1254,1707.1805,125.4614,1676.9556,125.4614z M1865.3987,210.5846
	c0,16.3461-5.5515,28.9912-16.963,38.5522c-11.4114,9.5609-26.2155,14.1872-45.0288,14.1872
	c-22.5144,0-39.7859-2.4673-51.8141-7.7104v-13.5704c13.262,5.8599,30.2249,8.9441,50.8889,8.9441
	c15.1124,0,27.1406-3.701,36.0848-11.103s13.2618-16.963,13.2618-28.6828c0-7.402-1.542-13.5704-4.3179-18.1966
	c-3.0842-4.9347-7.7104-9.2525-14.4956-13.2619c-6.7853-4.0094-16.3461-8.3273-29.2997-12.9535
	c-18.8134-6.7852-31.767-14.1872-39.1691-22.2061c-7.0935-8.0188-10.7946-18.505-10.7946-31.767
	c0-14.4956,5.5514-26.5239,16.3461-35.468c10.7946-9.2525,24.6733-13.8788,41.6364-13.8788
	c17.2712,0,33.6176,3.3926,48.7299,10.4862l-4.6262,11.7199c-15.4209-6.7852-29.9165-10.1778-43.7953-10.1778
	c-13.5704,0-24.3651,3.3926-32.6923,9.8694c-8.0187,6.7852-12.0283,15.7293-12.0283,27.1407c0,7.0936,1.2338,12.9535,3.701,17.5798
	c2.4673,4.6263,6.4767,8.6357,12.0283,12.3367c5.5515,3.701,15.4209,8.0188,28.9913,13.2619
	c14.4957,5.2431,25.2903,10.1778,32.3838,15.1124c7.0936,4.9347,12.6451,10.4862,15.7292,16.6545
	C1863.5481,194.2385,1865.3987,201.6405,1865.3987,210.5846z M1899.016,116.2089v93.4505c0,14.4956,2.7759,24.9818,8.6357,31.767
	c5.86,6.4768,14.804,9.8694,27.1406,9.8694c16.3461,0,28.3745-4.3179,36.085-12.9535c7.7103-8.6357,11.4114-22.8229,11.4114-42.2532
	v-79.8801h12.3368v144.3393h-10.4863l-2.1589-20.0471h-0.6169c-8.9441,15.1125-24.6733,22.5145-47.4963,22.5145
	c-31.15,0-46.8794-17.5798-46.8794-52.7393v-94.0673H1899.016z M2085.6086,113.4331c19.1218,0,33.6174,6.4768,43.4866,19.1219
	c9.8696,12.6451,14.4958,31.1502,14.4958,55.8235c0,24.0566-5.2432,42.5616-15.4209,55.5151
	c-10.1777,12.9535-24.6733,19.4303-43.1785,19.4303c-9.8694,0-18.5051-2.1589-26.5239-6.4768s-13.8787-10.1778-18.505-18.1966
	h-1.2336l-3.3926,21.8976h-7.7104V53.9086h12.645v51.8141c0,7.7104-0.3083,15.1124-0.6168,21.5892l-0.3083,11.4115h0.9252
	c5.2432-8.6357,11.4115-15.1125,18.8134-19.1219C2066.4868,115.5921,2075.4309,113.4331,2085.6086,113.4331z M2085.6086,125.4614
	c-16.0378,0-27.7576,4.9347-34.8513,14.4956c-7.0935,9.8694-10.4862,25.907-10.4862,48.1131v2.1589
	c0,21.8976,3.701,37.3185,10.7946,46.8794c7.4021,9.5609,18.5051,14.1872,33.926,14.1872c15.1125,0,26.2156-5.5515,33.9258-16.6545
	c7.7104-11.103,11.4116-26.8323,11.4116-47.1879C2130.3291,146.1254,2115.5251,125.4614,2085.6086,125.4614z M2224.7048,159.0789
	h54.8984v10.7946h-54.8984v57.3656h-10.4861v-57.3656h-54.5901v-10.7946h54.5901v-57.674h10.4861V159.0789z M441.7441,142.4244
	c-10.1778-2.7758-13.262-6.7852-13.5703-16.963C424.1643,45.2729,348.9105-12.7096,270.264,2.4029
	c-42.5616,8.3273-72.7865,32.6922-94.3757,70.0107c-2.1589,0-2.4674,0.3084-3.0842,0
	c-54.8983-21.2808-90.3663-4.3178-107.6377,50.8889c-1.2337,3.701-5.5515,7.402-8.9441,9.2525
	C13.0439,155.0695-7.6201,197.6311,2.5577,243.2768c5.8599,26.2155,21.2808,47.8047,42.87,61.375v-25.2902
	c-12.9535-11.7199-21.8976-28.066-24.9818-47.4963c-5.5515-34.8512,16.963-71.5528,52.1225-84.1979
	c4.0094-1.5421,7.7104-2.7758,12.0283-4.3179c-1.2337-26.2155,7.7104-46.571,32.6922-56.7488
	c25.9071-10.4862,45.9542,1.2337,64.7676,20.664C210.1226,39.1046,257.002,6.1039,331.0222,26.151
	c27.7575,7.402,48.1131,26.5239,62.6087,50.8889c14.804,24.6734,16.6545,52.1225,13.5703,80.4969
	c4.9347,0.3084,8.6357,0.6168,12.3367,0.9252c39.4774,1.5421,69.3939,33.0007,68.7771,72.4781
	c-0.6168,37.6269-31.1502,67.5434-70.3192,67.5434c-45.9542,0-92.2168,0-138.171,0v20.9724c46.571,0,93.1421-0.3084,140.0215-0.6168
	c45.6458-0.3084,82.6559-34.8512,87.5905-78.6464C512.9885,194.8553,486.4646,154.4527,441.7441,142.4244z M134.8688,196.3974
	v45.3374h75.8707v75.8707h45.6458v-121.208H134.8688z M226.1603,105.1059v45.6458h75.8707v75.5623h45.6458v-121.208H226.1603z
	 M165.0937,383.9152H68.8675v-96.5347h96.2262V383.9152z M1389.8191,321.3064c-11.7198,0-20.9724,4.0095-27.7576,11.7199
	c-6.7853,7.7104-10.1777,18.505-10.1777,32.0754c0,13.8788,3.3926,24.6734,9.8694,32.3839
	c6.4768,7.7104,15.7292,11.4114,27.7576,11.4114c7.402,0,16.0377-1.2336,25.2903-4.0094v10.7946
	c-7.4021,2.7757-16.3462,4.0094-27.1407,4.0094c-15.7292,0-27.7576-4.6263-36.3932-14.1872s-12.6451-23.1313-12.6451-40.4027
	c0-11.103,2.1589-20.6639,6.1683-28.6828c4.0094-8.3272,9.8694-14.4956,17.8882-19.1219
	c7.7104-4.3178,16.9629-6.7852,27.4491-6.7852c11.103,0,20.9724,2.1589,29.2997,6.1683l-5.2432,10.4862
	C1405.8568,323.4654,1397.8379,321.3064,1389.8191,321.3064z M1482.9612,418.1495V312.0539h12.3367v95.3009h46.8794v11.1031
	h-59.2161V418.1495z M1697.3112,365.1017c0,16.963-4.3179,30.5333-12.9535,40.0943c-8.6356,9.8694-20.6641,14.4956-35.7764,14.4956
	c-15.7292,0-27.7576-4.9347-36.3932-14.4956c-8.6356-9.5609-12.645-23.1313-12.645-40.7111
	c0-17.2714,4.3179-30.8417,12.9535-40.4026c8.6357-9.5609,20.6641-14.1872,36.3932-14.1872
	c15.4209,0,27.1407,4.9347,35.7764,14.4956C1692.9933,334.5684,1697.3112,347.8303,1697.3112,365.1017z M1612.4965,365.1017
	c0,14.4956,3.0841,25.2902,9.2524,32.6923c6.1683,7.4021,15.1125,11.1031,26.8324,11.1031s20.6639-3.701,26.8324-11.1031
	c5.86-7.402,8.9441-18.505,8.9441-32.6922s-3.0841-25.2902-8.9441-32.6922c-5.8601-7.402-14.8041-11.103-26.5239-11.103
	c-11.7197,0-20.6639,3.701-26.8323,11.103S1612.4965,350.6061,1612.4965,365.1017z M1845.9684,312.0539v68.7771
	c0,12.0283-3.701,21.5892-11.1029,28.6828c-7.402,7.0936-17.2714,10.4862-30.2249,10.4862c-12.9536,0-22.823-3.3926-29.608-10.4862
	s-10.4862-16.6545-10.4862-28.6828v-68.7771h12.3367v69.3939c0,8.9441,2.4673,15.7293,7.4021,20.3556
	c4.9348,4.6263,12.0283,7.0936,21.2809,7.0936c8.9441,0,16.0377-2.4673,20.6639-7.0936c4.9346-4.6263,7.4021-11.7199,7.4021-20.664
	v-69.0855H1845.9684z M2003.8779,364.1765c0,17.5798-4.6262,30.8417-14.1871,40.4027
	c-9.5608,9.2525-23.1312,13.8788-41.0194,13.8788h-29.608v-106.404h32.6921c16.6547,0,29.2997,4.6263,38.5522,13.8788
	C1999.2517,334.8768,2003.8779,347.5219,2003.8779,364.1765z M1990.6161,364.4849c0-13.8788-3.3926-24.365-10.4863-31.4586
	c-7.0935-7.0936-17.2712-10.4862-31.15-10.4862h-17.8882v85.1232h15.1125c14.804,0,25.9071-3.701,33.309-10.7946
	C1986.915,389.7751,1990.6161,378.6721,1990.6161,364.4849z"/>
</svg>
