<?xml version="1.0" encoding="utf-8"?>
<!--
  Copyright 2023-2025 Solace Systems. All rights reserved.

  Licensed under the Apache License, Version 2.0 (the "License");
  you may not use this file except in compliance with the License.
  You may obtain a copy of the License at

      http://www.apache.org/licenses/LICENSE-2.0

  Unless required by applicable law or agreed to in writing, software
  distributed under the License is distributed on an "AS IS" BASIS,
  WITHOUT WARRANTIES OR CONDITIONS OF ANY KIND, either express or implied.
  See the License for the specific language governing permissions and
  limitations under the License.
-->
<!-- Generator: Adobe Illustrator 26.3.1, SVG Export Plug-In . SVG Version: 6.00 Build 0)  -->
<svg version="1.1" id="Solace_Logo" xmlns="http://www.w3.org/2000/svg" xmlns:xlink="http://www.w3.org/1999/xlink" x="0px"
	 y="0px" viewBox="0 0 620 420" style="enable-background:new 0 0 620 420;" xml:space="preserve">
<style type="text/css">
	.st0{fill:#FFFFFF;}
</style>
<path class="st0" d="M515.2992,155.8111c-11.1344-3.0367-14.5085-7.4229-14.8459-18.5573
	C496.067,49.5282,413.74-13.9042,327.7015,2.6287c-46.562,9.11-79.6278,35.765-103.2462,76.5912c-2.3618,0-2.6992,0.3374-3.3741,0
	c-60.0583-23.281-98.86-4.7237-117.7547,55.672c-1.3496,4.0489-6.0733,8.0977-9.7848,10.1222
	c-47.2369,24.6306-69.8431,71.1927-58.7087,121.1288c6.4107,28.6795,23.281,52.2979,46.8994,67.1438v-27.6673
	c-14.1711-12.8214-23.9558-30.7039-27.3299-51.9605c-6.0733-38.1269,18.5573-78.2782,57.0216-92.1118
	c4.3863-1.687,8.4352-3.0367,13.1588-4.7237c-1.3496-28.6795,8.4352-50.9483,35.765-62.0827
	c28.3421-11.4718,50.2735,1.3496,70.8553,22.6062C261.9073,42.7801,313.193,6.6776,394.1704,28.609
	c30.3665,8.0977,52.6353,29.0169,68.4934,55.672c16.1955,26.9925,18.2199,57.0216,14.8458,88.063
	c5.3985,0.3374,9.4474,0.6748,13.4962,1.0122c43.188,1.687,75.9164,36.1024,75.2416,79.2904
	c-0.6748,41.1635-34.0781,73.8919-76.9286,73.8919c-50.2735,0-100.8844,0-151.1579,0v22.9436
	c50.9483,0,101.8966-0.3374,153.1824-0.6748c49.9361-0.3374,90.4248-38.1269,95.8233-86.0385
	C593.2399,213.1701,564.2231,168.9699,515.2992,155.8111z M179.5802,214.8571v49.5987h83.0019v83.0019h49.9361V214.8571H179.5802z
	 M279.4524,114.9849v49.9361h83.0019v82.6645h49.9361V114.9849H279.4524z M212.646,420H107.3753V314.3919H212.646V420z"/>
</svg>