<?xml version="1.0" encoding="utf-8"?>
<!-- Generator: Adobe Illustrator 25.4.1, SVG Export Plug-In . SVG Version: 6.00 Build 0)  -->
<svg version="1.1" xmlns="http://www.w3.org/2000/svg" xmlns:xlink="http://www.w3.org/1999/xlink" x="0px" y="0px"
	 viewBox="0 0 35 16" style="enable-background:new 0 0 35 16;" xml:space="preserve">
<style type="text/css">
	.st0{opacity:0.8;fill:#005E5F;fill-opacity:0.8;}
	.st1{opacity:0.4;}
	.st2{fill:#005E5F;}
</style>
<g id="Layer_1">
	<path class="st0" d="M31.85,8.3l-5.34,5.54c-0.18,0.18-0.4,0.21-0.6,0l-0.8-0.8c-0.2-0.2-0.2-0.4,0-0.6L28.35,9L16.92,8.99
		C16.98,8.67,17,8.34,17,8s-0.02-0.68-0.08-1h11.33l-3.2-3.45c-0.2-0.2-0.2-0.4,0-0.6l0.8-0.8c0.2-0.2,0.4-0.2,0.6,0l5.4,5.55
		C32.05,7.9,32.05,8.1,31.85,8.3z"/>
	<g class="st1">
		<path class="st2" d="M10,3c2.757,0,5,2.243,5,5s-2.243,5-5,5s-5-2.243-5-5S7.243,3,10,3 M10,1C6.134,1,3,4.134,3,8s3.134,7,7,7
			s7-3.134,7-7S13.866,1,10,1L10,1z"/>
	</g>
</g>
<g id="Layer_2">
</g>
</svg>
