<?xml version="1.0" encoding="utf-8"?>
<!-- Generator: Adobe Illustrator 25.4.1, SVG Export Plug-In . SVG Version: 6.00 Build 0)  -->
<svg version="1.1" id="Layer_1" xmlns="http://www.w3.org/2000/svg" xmlns:xlink="http://www.w3.org/1999/xlink" x="0px" y="0px"
	 viewBox="0 0 24 24" style="enable-background:new 0 0 24 24;" xml:space="preserve">
<path d="M3,8.222V9.6C3,9.821,3.179,10,3.4,10h17.2c0.221,0,0.4-0.179,0.4-0.4V8.222c0-0.158-0.093-0.301-0.237-0.366l-8.6-3.822
	c-0.104-0.046-0.222-0.046-0.325,0l-8.6,3.822C3.093,7.921,3,8.064,3,8.222z M13,7c0,0.552-0.448,1-1,1s-1-0.448-1-1
	c0-0.552,0.448-1,1-1S13,6.448,13,7z M5,11h2v7h4v-7h2v7h4v-7h2v7h1.6c0.221,0,0.4,0.179,0.4,0.4v2.2c0,0.221-0.179,0.4-0.4,0.4H3.4
	C3.179,21,3,20.821,3,20.6v-2.238C3,18.141,3.179,18,3.4,18H5V11z"/>
</svg>
