<?xml version="1.0" encoding="utf-8"?>
<!-- Generator: Adobe Illustrator 25.4.1, SVG Export Plug-In . SVG Version: 6.00 Build 0)  -->
<svg version="1.1" id="Layer_2" xmlns="http://www.w3.org/2000/svg" xmlns:xlink="http://www.w3.org/1999/xlink" x="0px" y="0px"
	 viewBox="0 0 24 24" style="enable-background:new 0 0 24 24;" xml:space="preserve">
<path d="M19,6c0,1.657-2.582,3-7,3S5,7.657,5,6s2.582-3,7-3S19,4.343,19,6z M5,8v3c0,0,1,2,7,2s7-2,7-2V8c0,0-1,2-7,2S5,8,5,8z
	 M5,12v3c0,0,1,2,7,2s7-2,7-2v-3c0,0-1,2-7,2S5,12,5,12z M5,16v3c0,0,1,2,7,2s7-2,7-2v-3c0,0-1,2-7,2S5,16,5,16z"/>
</svg>
