<?xml version="1.0" encoding="utf-8"?>
<!-- Generator: Adobe Illustrator 25.4.1, SVG Export Plug-In . SVG Version: 6.00 Build 0)  -->
<svg version="1.1" id="Layer_1" xmlns="http://www.w3.org/2000/svg" xmlns:xlink="http://www.w3.org/1999/xlink" x="0px" y="0px"
	 viewBox="0 0 24 24" style="enable-background:new 0 0 24 24;" xml:space="preserve">
<path d="M8.056,15.944c-0.161,0.161-0.433,0.163-0.583-0.009C6.554,14.886,6,13.509,6,12s0.554-2.886,1.473-3.935
	c0.151-0.172,0.422-0.17,0.583-0.009L8.91,8.91c0.151,0.151,0.149,0.387,0.011,0.551C8.345,10.15,8,11.037,8,12
	c0,0.965,0.346,1.853,0.917,2.549c0.135,0.164,0.136,0.398-0.014,0.548L8.056,15.944z M15.944,15.944
	c0.161,0.161,0.433,0.163,0.583-0.009C17.446,14.886,18,13.509,18,12c0-1.51-0.554-2.888-1.475-3.937
	c-0.15-0.17-0.419-0.169-0.579-0.009L15.09,8.91c-0.151,0.151-0.149,0.387-0.011,0.552C15.655,10.15,16,11.037,16,12
	c0,0.965-0.346,1.853-0.917,2.549c-0.135,0.164-0.136,0.398,0.014,0.548L15.944,15.944z M12,10c-1.1,0-2,0.9-2,2s0.9,2,2,2
	s2-0.9,2-2S13.1,10,12,10z M20,12c0,2.071-0.79,3.958-2.083,5.372c-0.145,0.159-0.147,0.399,0.006,0.551l0.853,0.853
	c0.161,0.161,0.429,0.161,0.583-0.006C20.998,16.988,22,14.61,22,12c0-2.61-1.002-4.988-2.641-6.769
	c-0.154-0.168-0.423-0.167-0.584-0.006l-0.852,0.852c-0.153,0.153-0.151,0.393-0.006,0.552C19.21,8.043,20,9.929,20,12z
	 M6.078,6.078L5.224,5.224C5.064,5.064,4.796,5.063,4.642,5.23C3.002,7.012,2,9.39,2,12c0,2.61,1.002,4.988,2.642,6.769
	c0.154,0.167,0.422,0.167,0.583,0.006l0.853-0.853c0.152-0.152,0.151-0.392,0.006-0.551C4.79,15.958,4,14.071,4,12
	c0-2.071,0.791-3.958,2.083-5.372C6.229,6.469,6.23,6.23,6.078,6.078z"/>
</svg>
