<?xml version="1.0" encoding="utf-8"?>
<!-- Generator: Adobe Illustrator 25.4.1, SVG Export Plug-In . SVG Version: 6.00 Build 0)  -->
<svg version="1.1" id="Layer_1" xmlns="http://www.w3.org/2000/svg" xmlns:xlink="http://www.w3.org/1999/xlink" x="0px" y="0px"
	 viewBox="0 0 18 18" style="enable-background:new 0 0 18 18;" xml:space="preserve">
<path d="M4,6v2c0,0,0.786,2,5.5,2C15,10,15,8,15,8V6c0,0-0.786,2-5.5,2S4,6,4,6z M4,9v2c0,0,0.786,2,5.5,2s5.5-2,5.5-2V9
	c0,0-0.786,2-5.5,2S4,9,4,9z M4,12v2c0,0,0.786,2,5.5,2s5.5-2,5.5-2v-2c0,0-0.786,2-5.5,2S4,12,4,12z M15,4.5
	C15,5.881,12.538,7,9.5,7S4,5.881,4,4.5S6.462,2,9.5,2S15,3.119,15,4.5z"/>
</svg>
