<?xml version="1.0" encoding="utf-8"?>
<!-- Generator: Adobe Illustrator 25.4.1, SVG Export Plug-In . SVG Version: 6.00 Build 0)  -->
<svg version="1.1" id="Layer_1" xmlns="http://www.w3.org/2000/svg" xmlns:xlink="http://www.w3.org/1999/xlink" x="0px" y="0px"
	 viewBox="0 0 18 18" style="enable-background:new 0 0 18 18;" xml:space="preserve">
<path d="M9.251,8.138C7.472,7.675,7.002,7.197,7.002,6.452C7.002,5.597,7.676,5,9,5c1.198,0,1.764,0.493,1.925,1.253
	c0.046,0.218,0.225,0.395,0.448,0.395h0.898c0.238,0,0.43-0.199,0.391-0.433c-0.199-1.174-1.202-2.198-2.662-2.554V2.405
	C9.999,2.181,9.818,2,9.595,2H8.399C8.18,2,8.001,2.179,8.001,2.399v1.238c-1.52,0.329-2.998,1.317-2.998,2.83
	c0,1.812,1.592,2.713,3.777,3.239c1.959,0.47,2.218,1.16,2.218,1.89C10.998,12.136,10.732,13,9,13c-1.389,0-2.036-0.535-2.25-1.274
	c-0.06-0.207-0.234-0.374-0.45-0.374H5.399c-0.24,0-0.44,0.203-0.396,0.439c0.271,1.444,1.627,2.271,2.998,2.564v1.25
	C8.001,15.823,8.178,16,8.395,16h1.201c0.223,0,0.403-0.18,0.403-0.403v-1.226c1.528-0.29,2.998-1.176,2.998-2.783
	C12.997,9.361,11.028,8.6,9.251,8.138z"/>
</svg>
