<?xml version="1.0" encoding="utf-8"?>
<!--
  Copyright 2023-2025 Solace Systems. All rights reserved.

  Licensed under the Apache License, Version 2.0 (the "License");
  you may not use this file except in compliance with the License.
  You may obtain a copy of the License at

      http://www.apache.org/licenses/LICENSE-2.0

  Unless required by applicable law or agreed to in writing, software
  distributed under the License is distributed on an "AS IS" BASIS,
  WITHOUT WARRANTIES OR CONDITIONS OF ANY KIND, either express or implied.
  See the License for the specific language governing permissions and
  limitations under the License.
-->
<svg width="33" height="32" viewBox="0 0 33 32" fill="none" xmlns="http://www.w3.org/2000/svg">
<path d="M23.2866 13.5031L24.2603 12.499C24.8266 12.3401 25.3606 12.0364 25.8037 11.5883C27.1661 10.2106 27.1536 7.98927 25.7759 6.62688C24.3981 5.26448 22.1768 5.27693 20.8144 6.65467C20.3508 7.12349 20.0464 7.69 19.9008 8.2871L18.951 9.2406C18.6751 9.51756 18.2996 9.673 17.9114 9.67377C17.9402 9.5322 17.955 9.38554 17.9541 9.23533C17.9492 8.35294 17.4076 7.59907 16.6404 7.28142C16.779 6.7924 16.9718 6.31541 17.2187 5.85989C17.9895 6.16957 18.9042 6.00935 19.5249 5.38169C20.1458 4.7538 20.2957 3.83689 19.9769 3.06948C20.4292 2.81746 20.9036 2.61928 21.3906 2.475C21.7172 3.23755 22.4766 3.76983 23.3583 3.7649C24.2402 3.75996 24.9937 3.2189 25.3117 2.45239C25.8018 2.59148 26.2799 2.78493 26.7363 3.03281C26.4275 3.80323 26.5879 4.71714 27.2151 5.33738C27.842 5.95721 28.7568 6.1076 29.5234 5.79101C29.7756 6.24414 29.9738 6.71938 30.118 7.20727C29.3564 7.53437 28.825 8.29323 28.8299 9.1742C28.8349 10.0545 29.374 10.8069 30.1383 11.1259C29.9993 11.6149 29.8062 12.0918 29.5589 12.5473C28.7888 12.2393 27.8757 12.3999 27.2559 13.0267C26.6363 13.6533 26.4857 14.5677 26.8019 15.3341C26.349 15.5863 25.874 15.7846 25.3864 15.9288C25.0593 15.1672 24.3005 14.6358 23.4195 14.6407C23.234 14.6417 23.0542 14.6665 22.883 14.712C22.8265 14.2687 22.9767 13.8227 23.2866 13.5031Z" fill="black"/>
<path fill-rule="evenodd" clip-rule="evenodd" d="M21.8065 12.3259C21.2967 11.6998 20.7238 11.139 20.1015 10.6491C19.1895 11.5647 17.7838 11.8978 16.5104 11.3831C15.236 10.8679 14.4565 9.64992 14.4382 8.35657C13.6498 8.27559 12.8477 8.28 12.0454 8.37533C12.05 9.66958 11.2913 10.9017 10.0251 11.4389C8.75875 11.9762 7.3452 11.6653 6.41772 10.7622C5.79154 11.2727 5.23081 11.8463 4.74104 12.4693C5.65896 13.3813 5.99346 14.7887 5.4781 16.0635C4.96303 17.3377 3.74554 18.1171 2.45254 18.1358C2.37232 18.9234 2.37735 19.7247 2.47311 20.5261C3.76674 20.5222 4.99803 21.2808 5.53496 22.5464C6.07151 23.8111 5.76215 25.2226 4.86184 26.1501C5.37171 26.775 5.94447 27.3347 6.56653 27.8236C7.47861 26.9091 8.88353 26.5765 10.1563 27.091C11.4288 27.6054 12.2078 28.8204 12.2285 30.1115C13.0167 30.1921 13.8187 30.1873 14.6207 30.0916C14.6182 28.7993 15.3766 27.5697 16.641 27.0333C17.9053 26.497 19.3161 26.8059 20.2437 27.7054C20.8697 27.195 21.4303 26.6216 21.92 25.9987C21.0067 25.0865 20.6747 23.6825 21.189 22.4104C21.7032 21.1384 22.9176 20.3594 24.2082 20.3383C24.2889 19.551 24.2844 18.75 24.1892 17.9489C22.8981 17.95 21.6703 17.1919 21.1344 15.9286C20.598 14.6643 20.907 13.2535 21.8065 12.3259ZM18.2958 16.9299C19.4748 19.709 18.1777 22.9177 15.3985 24.0968C12.6194 25.2758 9.41067 23.9787 8.23162 21.1996C7.05257 18.4204 8.3497 15.2117 11.1288 14.0326C13.908 12.8536 17.1167 14.1507 18.2958 16.9299Z" fill="black"/>
</svg>