<svg width="33" height="32" viewBox="0 0 33 32" fill="none" xmlns="http://www.w3.org/2000/svg">
<path fill-rule="evenodd" clip-rule="evenodd" d="M2.12988 6C2.12988 5.44772 2.5776 5 3.12988 5H10.1299C12.8913 5 15.1299 7.23858 15.1299 10V27C15.1299 27.5523 14.6822 28 14.1299 28H3.12988C2.5776 28 2.12988 27.5523 2.12988 27V6ZM4.12988 10H9.62988V12H4.12988V10ZM4.12988 16V18H13.1299V16H4.12988ZM4.12988 22H13.1299V24H4.12988V22Z" fill="black"/>
<path fill-rule="evenodd" clip-rule="evenodd" d="M17.1299 10C17.1299 7.23858 19.3685 5 22.1299 5H29.1299C29.6822 5 30.1299 5.44772 30.1299 6V27C30.1299 27.5523 29.6822 28 29.1299 28H18.1299C17.5776 28 17.1299 27.5523 17.1299 27V10ZM19.1299 16H28.1299V18H19.1299V16ZM22.6299 10V12H28.1299V10H22.6299ZM19.1299 22H28.1299V24H19.1299V22Z" fill="black"/>
</svg>
