<svg width="32" height="32" viewBox="0 0 32 32" fill="none" xmlns="http://www.w3.org/2000/svg">
<path d="M13.0384 4.3056L11.7246 2L9.98694 2.99019L10.3439 3.61669C9.26883 4.36983 8.31695 5.28835 7.52452 6.33995C6.5337 7.65481 5.81156 9.15196 5.39934 10.7459C4.98711 12.3399 4.89288 13.9994 5.12201 15.6298C5.35114 17.2601 5.89916 18.8294 6.73477 20.248C7.57037 21.6666 8.67721 22.9067 9.99208 23.8975C11.3069 24.8883 12.8041 25.6105 14.398 26.0227C14.8106 26.1294 15.2276 26.2148 15.6473 26.2788V27.8849H13.5342V29.9979H19.8734V27.8849H17.7604V26.42C18.2685 26.411 18.7766 26.371 19.2819 26.3C20.5812 26.1174 21.8417 25.7323 23.018 25.1605L23.2543 25.5619L24.9778 24.5472L23.7469 22.4563L22.885 22.964C21.6928 23.6663 20.3738 24.1269 19.0036 24.3195C17.6333 24.5121 16.2385 24.4329 14.8988 24.0864C13.5591 23.7399 12.3008 23.133 11.1957 22.3002C10.0906 21.4675 9.16033 20.4252 8.45803 19.2329C7.75572 18.0406 7.29513 16.7217 7.10255 15.3514C6.90997 13.9811 6.98917 12.5863 7.33563 11.2467C7.68209 9.907 8.28903 8.64869 9.12179 7.54358C9.95455 6.43846 10.9968 5.5082 12.1891 4.80589L13.0384 4.3056Z" fill="black"/>
<path d="M13.8811 5.85176C13.6416 5.97443 13.4082 6.10746 13.1817 6.25028C13.0543 9.22547 13.7043 11.9048 14.7209 14.2048L17.1811 12.6908C17.044 12.3285 16.9693 11.9373 16.9693 11.5293C16.9693 10.7587 17.236 10.0481 17.6854 9.47873C16.6652 8.15946 15.4121 6.91967 13.8811 5.85176Z" fill="black"/>
<path d="M15.6243 15.9971L18.4229 14.2749C19.0027 14.6805 19.716 14.9197 20.4872 14.9197C20.5304 14.9197 20.5735 14.9189 20.6164 14.9174C21.6297 17.7852 21.882 20.465 21.7896 22.1052C21.6037 22.1913 21.4144 22.2713 21.2219 22.3449C19.6836 21.2864 17.376 19.0806 15.6243 15.9971Z" fill="black"/>
<path d="M23.7944 20.8321C23.7271 19.0649 23.3746 16.7447 22.5181 14.2979C23.4178 13.6838 24.0051 12.6727 24.0051 11.5293C24.0051 11.3071 23.9829 11.0898 23.9405 10.8795L25.9639 9.63436C26.6456 10.9051 27.0323 12.3577 27.0323 13.9007C27.0323 16.6845 25.7736 19.1743 23.7944 20.8321Z" fill="black"/>
<path d="M24.8275 7.98529L22.9706 9.12802C22.3343 8.51682 21.4565 8.13898 20.4872 8.13898C20.0806 8.13898 19.6901 8.20546 19.3268 8.32774C18.4376 7.16707 17.3853 6.05883 16.1441 5.05299C16.7415 4.92866 17.3606 4.86331 17.9949 4.86331C20.7239 4.86331 23.1704 6.07294 24.8275 7.98529Z" fill="black"/>
<path d="M13.0016 15.2628C12.0209 13.1211 11.3235 10.6679 11.1891 7.95443C9.79952 9.5436 8.95752 11.6238 8.95752 13.9007C8.95752 15.1167 9.19769 16.2767 9.63319 17.3356L13.0016 15.2628Z" fill="black"/>
<path d="M10.596 19.0915L13.9196 17.0462C15.3778 19.5899 17.1778 21.5822 18.7051 22.9106C18.4708 22.9288 18.2339 22.9381 17.9949 22.9381C14.9355 22.9381 12.2311 21.4178 10.596 19.0915Z" fill="black"/>
</svg>
