<svg width="32" height="32" viewBox="0 0 32 32" fill="none" xmlns="http://www.w3.org/2000/svg">
<path d="M9 11C9 11.5523 9.44772 12 10 12C10.5523 12 11 11.5523 11 11C11 10.4477 10.5523 10 10 10C9.44772 10 9 10.4477 9 11Z" fill="black"/>
<path fill-rule="evenodd" clip-rule="evenodd" d="M2 3C2 2.44772 2.44772 2 3 2H29C29.5523 2 30 2.44772 30 3V19H2V3ZM7 11C7 12.6569 8.34315 14 10 14C11.6569 14 13 12.6569 13 11C13 9.34315 11.6569 8 10 8C8.34315 8 7 9.34315 7 11ZM20.5858 10L19.2929 8.70711L20.7071 7.29289L24.4142 11L20.7071 14.7071L19.2929 13.2929L20.5858 12H15V10H20.5858Z" fill="black"/>
<path d="M30 23H2V21H30V23Z" fill="black"/>
<path d="M11 25H21V30H19V27H13V30H11V25Z" fill="black"/>
</svg>
