<svg width="33" height="32" viewBox="0 0 33 32" fill="none" xmlns="http://www.w3.org/2000/svg">
<path d="M24.2822 5C23.7299 5 23.2822 5.44771 23.2822 6V24H27.2822V6C27.2822 5.44772 26.8345 5 26.2822 5H24.2822Z" fill="black"/>
<path d="M5.28223 16C5.28223 15.4477 5.72994 15 6.28223 15H8.28223C8.83451 15 9.28223 15.4477 9.28223 16V24H5.28223V16Z" fill="black"/>
<path d="M11.2822 19C11.2822 18.4477 11.7299 18 12.2822 18H14.2822C14.8345 18 15.2822 18.4477 15.2822 19V24H11.2822V19Z" fill="black"/>
<path d="M17.2822 12C17.2822 11.4477 17.7299 11 18.2822 11H20.2822C20.8345 11 21.2822 11.4477 21.2822 12V24H17.2822V12Z" fill="black"/>
<path d="M2.28223 28H30.2822V26H2.28223V28Z" fill="black"/>
</svg>
