<?xml version="1.0" encoding="utf-8"?>
<!--
  Copyright 2023-2025 Solace Systems. All rights reserved.

  Licensed under the Apache License, Version 2.0 (the "License");
  you may not use this file except in compliance with the License.
  You may obtain a copy of the License at

      http://www.apache.org/licenses/LICENSE-2.0

  Unless required by applicable law or agreed to in writing, software
  distributed under the License is distributed on an "AS IS" BASIS,
  WITHOUT WARRANTIES OR CONDITIONS OF ANY KIND, either express or implied.
  See the License for the specific language governing permissions and
  limitations under the License.
-->
<svg width="33" height="32" viewBox="0 0 33 32" fill="none" xmlns="http://www.w3.org/2000/svg">
<path fill-rule="evenodd" clip-rule="evenodd" d="M24.1409 21V14.333C24.1409 10.24 21.9679 6.813 18.1409 5.906V4.333C18.1409 3.227 17.2479 3 16.1409 3C15.0339 3 14.1409 3.227 14.1409 4.333V5.906C10.3279 6.813 8.14092 10.226 8.14092 14.333V21L6.20892 24.378C6.03192 24.644 6.22192 25 6.54192 25H25.7409C26.0599 25 26.2509 24.644 26.0739 24.378L24.1409 21ZM19.1409 26C19.1409 27.467 18.1409 29 16.1409 29C14.1409 29 13.1409 27.467 13.1409 26H19.1409Z" fill="black"/>
</svg>