<?xml version="1.0" encoding="utf-8"?>
<!--
  Copyright 2023-2025 Solace Systems. All rights reserved.

  Licensed under the Apache License, Version 2.0 (the "License");
  you may not use this file except in compliance with the License.
  You may obtain a copy of the License at

      http://www.apache.org/licenses/LICENSE-2.0

  Unless required by applicable law or agreed to in writing, software
  distributed under the License is distributed on an "AS IS" BASIS,
  WITHOUT WARRANTIES OR CONDITIONS OF ANY KIND, either express or implied.
  See the License for the specific language governing permissions and
  limitations under the License.
-->
<svg width="33" height="32" viewBox="0 0 33 32" fill="none" xmlns="http://www.w3.org/2000/svg">
<path fill-rule="evenodd" clip-rule="evenodd" d="M29.0069 17.9097L30.9901 18.1684C31.0681 17.5699 31.1084 16.9596 31.1084 16.3398C31.1084 15.7201 31.0681 15.1098 30.9901 14.5113L29.0069 14.77C29.0738 15.2829 29.1084 15.8068 29.1084 16.3398C29.1084 16.8729 29.0738 17.3968 29.0069 17.9097ZM28.1986 11.7469L30.0461 10.9808C29.5741 9.84265 28.9563 8.78023 28.216 7.81687L26.6302 9.03552C27.2652 9.86189 27.7945 10.7724 28.1986 11.7469ZM24.4127 6.81809L25.6314 5.23225C24.668 4.49194 23.6056 3.87415 22.4674 3.40217L21.7013 5.24962C22.6758 5.65372 23.5864 6.18306 24.4127 6.81809ZM18.6782 4.44137L18.9369 2.45818C18.3385 2.38011 17.7281 2.33984 17.1084 2.33984C16.4887 2.33984 15.8783 2.38011 15.2799 2.45818L15.5386 4.44137C16.0515 4.37447 16.5754 4.33984 17.1084 4.33984C17.6414 4.33984 18.1653 4.37447 18.6782 4.44137ZM12.5155 5.24962L11.7494 3.40217C10.6112 3.87415 9.54879 4.49194 8.58542 5.23225L9.80407 6.81809C10.6304 6.18306 11.541 5.65373 12.5155 5.24962ZM7.58665 9.03552L6.00081 7.81687C5.2605 8.78023 4.6427 9.84265 4.17073 10.9808L6.01818 11.7469C6.42228 10.7724 6.95161 9.86189 7.58665 9.03552ZM3.1084 16.3398C3.1084 15.7201 3.14867 15.1098 3.22673 14.5113L5.20993 14.77C5.14303 15.2829 5.1084 15.8068 5.1084 16.3398C5.1084 16.8729 5.14303 17.3968 5.20993 17.9097L3.22673 18.1684C3.14867 17.5699 3.1084 16.9596 3.1084 16.3398ZM6.01818 20.9328L4.17073 21.6989C4.6427 22.837 5.2605 23.8995 6.00081 24.8628L7.58665 23.6442C6.95161 22.8178 6.42228 21.9072 6.01818 20.9328ZM9.80407 25.8616L8.58542 27.4474C9.54879 28.1877 10.6112 28.8055 11.7494 29.2775L12.5155 27.4301C11.541 27.026 10.6304 26.4966 9.80407 25.8616ZM15.5386 28.2383L15.2799 30.2215C15.8783 30.2996 16.4887 30.3398 17.1084 30.3398C17.7281 30.3398 18.3385 30.2996 18.9369 30.2215L18.6782 28.2383C18.1653 28.3052 17.6414 28.3398 17.1084 28.3398C16.5754 28.3398 16.0515 28.3052 15.5386 28.2383ZM21.7013 27.4301L22.4674 29.2775C23.6056 28.8055 24.668 28.1877 25.6314 27.4474L24.4127 25.8616C23.5864 26.4966 22.6758 27.026 21.7013 27.4301ZM26.6302 23.6442L28.216 24.8628C28.9563 23.8995 29.5741 22.837 30.0461 21.6989L28.1986 20.9328C27.7945 21.9072 27.2652 22.8178 26.6302 23.6442ZM12.558 7.43472C12.2902 7.57177 12.0295 7.72054 11.7764 7.88035C11.6361 11.1706 12.355 14.1338 13.4791 16.6777L16.2063 14.9994C16.0543 14.598 15.9713 14.1646 15.9713 13.7125C15.9713 12.8601 16.2662 12.0742 16.7632 11.4442C15.6351 9.98594 14.25 8.61547 12.558 7.43472ZM14.4758 18.6561L17.5762 16.7481C18.2184 17.1983 19.009 17.4639 19.8639 17.4639C19.9118 17.4639 19.9595 17.4631 20.007 17.4614C21.1296 20.6372 21.409 23.6049 21.3064 25.4206C21.0993 25.5165 20.8883 25.6056 20.6738 25.6875C18.9702 24.515 16.4146 22.0717 14.4758 18.6561ZM23.5193 24.0168C23.4454 22.0603 23.0555 19.4899 22.1063 16.7793C23.1046 16.1001 23.7565 14.9797 23.7565 13.7125C23.7565 13.4651 23.7317 13.2233 23.6843 12.9893L25.9216 11.6125C26.6788 13.0206 27.1084 14.631 27.1084 16.3418C27.1084 19.4251 25.713 22.1824 23.5193 24.0168ZM24.6662 9.7933L22.6132 11.0567C21.909 10.3796 20.9372 9.96102 19.8639 9.96102C19.4115 9.96102 18.9772 10.0354 18.5733 10.1721C17.5901 8.88938 16.4268 7.66458 15.0549 6.55285C15.7177 6.41451 16.4045 6.3418 17.1084 6.3418C20.1267 6.3418 22.8327 7.679 24.6662 9.7933ZM11.5817 17.8453C10.4972 15.4765 9.72613 12.7633 9.57755 9.76236C8.04002 11.5208 7.1084 13.8225 7.1084 16.3418C7.1084 17.6859 7.3736 18.9682 7.85452 20.1389L11.5817 17.8453ZM8.91583 22.0776L12.5944 19.8138C14.2091 22.6329 16.2036 24.8403 17.8953 26.3113C17.6357 26.3315 17.3732 26.3418 17.1084 26.3418C13.7196 26.3418 10.7245 24.6561 8.91583 22.0776Z" fill="black"/>
</svg>