<?xml version="1.0" encoding="utf-8"?>
<!--
  Copyright 2023-2025 Solace Systems. All rights reserved.

  Licensed under the Apache License, Version 2.0 (the "License");
  you may not use this file except in compliance with the License.
  You may obtain a copy of the License at

      http://www.apache.org/licenses/LICENSE-2.0

  Unless required by applicable law or agreed to in writing, software
  distributed under the License is distributed on an "AS IS" BASIS,
  WITHOUT WARRANTIES OR CONDITIONS OF ANY KIND, either express or implied.
  See the License for the specific language governing permissions and
  limitations under the License.
-->
<svg width="32" height="32" viewBox="0 0 32 32" fill="none" xmlns="http://www.w3.org/2000/svg">
<g clip-path="url(#clip0_8729_27011)">
<path d="M20.2499 17H14.7499C14.4499 17 14.2499 17.2 14.2499 17.5V18.5C14.2499 18.8 14.4499 19 14.7499 19H20.2499C20.5499 19 20.7499 18.8 20.7499 18.5V17.5C20.7499 17.2 20.5499 17 20.2499 17ZM20.2499 21H14.7499C14.4499 21 14.2499 21.2 14.2499 21.5001V22.5C14.2499 22.8 14.4499 23.0001 14.7499 23.0001H20.2499C20.5499 23.0001 20.7499 22.8001 20.7499 22.5V21.5001C20.7499 21.2 20.5499 21 20.2499 21ZM25.9999 10.6495V26.3504C25.9999 27.8224 24.7406 29 23.2877 29H11.6637C10.2107 29 8.99987 27.8224 8.99987 26.3505V22H12.0113V26.3505H23.2563V10.7627H16.5065V8H23.2876C24.7406 8 25.9999 9.1776 25.9999 10.6495ZM10.7692 10C8.75447 9.5 8.14257 8.9422 8.14257 8.1111C8.14257 7.1111 9.02957 6.4731 10.5406 6.4731C11.9508 6.4731 12.404 6.9571 12.683 7.7437C12.75 7.9324 13.0096 8 13.2875 8C13.2875 8 13.8919 8 14.2948 8C14.5292 8 14.686 7.7688 14.6275 7.5496C14.3885 6.6537 13.8131 5.4732 11.9999 4.9732C11.9999 4.9732 11.9999 3.8702 11.9999 3.5C11.9999 3.1838 11.7765 3 11.4743 3H9.71237C9.41017 3 9.21127 3.2 9.21127 3.5V4.92C7.39807 5.32 6.10037 6.4349 6.10037 8.1349C6.10037 10.2349 7.84987 11.1921 10.3663 11.8C12.5286 12.3224 12.9517 13.1 12.9517 13.9C12.9517 14.5 12.5727 15.5327 10.4671 15.5327C9.07207 15.5327 8.22627 14.987 7.94877 14C7.88817 13.7846 7.64647 13.7542 7.44497 13.7542C7.44497 13.7542 6.94127 13.7542 6.43767 13.7542C6.01187 13.7542 5.97237 14.0578 6.01187 14.2539C6.28937 15.6325 7.49967 16.7471 9.20797 17.0588V18.5C9.20797 18.8 9.40927 19 9.71147 19H11.4744C11.7766 19 11.9781 18.7 11.9781 18.4V17C13.6904 16.7 14.9999 15.7 14.9999 13.8C14.9999 11.5119 12.8845 10.5 10.7692 10Z" fill="black"/>
</g>
<defs>
<clipPath id="clip0_8729_27011">
<rect width="32" height="32" fill="white"/>
</clipPath>
</defs>
</svg>