<?xml version="1.0" encoding="utf-8"?>
<!-- Generator: Adobe Illustrator 25.4.1, SVG Export Plug-In . SVG Version: 6.00 Build 0)  -->
<svg version="1.1" id="Layer_1" xmlns="http://www.w3.org/2000/svg" xmlns:xlink="http://www.w3.org/1999/xlink" x="0px" y="0px"
	 viewBox="0 0 18 18" style="enable-background:new 0 0 18 18;" xml:space="preserve">
<path d="M15.76,5.86l-6.6-2.83c-0.1-0.04-0.22-0.04-0.32,0l-6.6,2.83C2.1,5.92,2,6.07,2,6.23V7.6C2,7.82,2.18,8,2.4,8h13.2
	C15.82,8,16,7.82,16,7.6V6.23C16,6.07,15.9,5.92,15.76,5.86z M9,7C8.45,7,8,6.55,8,6s0.45-1,1-1s1,0.45,1,1S9.55,7,9,7z M15.6,14H14
	V9h-1.5v5H9.75V9h-1.5v5H5.5V9H4v5H2.4C2.18,14,2,14.18,2,14.4v1.2C2,15.82,2.18,16,2.4,16h13.2c0.22,0,0.4-0.18,0.4-0.4v-1.2
	C16,14.18,15.82,14,15.6,14z"/>
</svg>
