<?xml version="1.0" encoding="utf-8"?>
<!-- Generator: Adobe Illustrator 25.4.1, SVG Export Plug-In . SVG Version: 6.00 Build 0)  -->
<svg version="1.1" id="Layer_1" xmlns="http://www.w3.org/2000/svg" xmlns:xlink="http://www.w3.org/1999/xlink" x="0px" y="0px"
	 viewBox="0 0 18 18" style="enable-background:new 0 0 18 18;" xml:space="preserve">
<style type="text/css">
	.st0{fill-rule:evenodd;clip-rule:evenodd;}
</style>
<path class="st0" d="M9.75,10.3L16,8V6.397C16,6.178,15.822,6,15.603,6H13V3.396C13,3.177,12.823,3,12.604,3H5.397
	C5.179,3,5,3.179,5,3.397V6H2.404C2.181,6,2,6.181,2,6.404L2,8l6.25,2.3V9.313C8.25,9.14,8.362,9,8.535,9h0.932
	C9.639,9,9.75,9.139,9.75,9.311V10.3z M11.5,6h-5V4.5h5V6z M9.75,11.333V12.7c0,0.171-0.112,0.3-0.283,0.3H8.533
	c-0.171,0-0.283-0.129-0.283-0.3v-1.367L2,9v5.598C2,14.82,2.18,15,2.402,15H15.6c0.221,0,0.4-0.179,0.4-0.4V9L9.75,11.333z"/>
</svg>
