<?xml version="1.0" encoding="utf-8"?>
<!-- Generator: Adobe Illustrator 25.4.1, SVG Export Plug-In . SVG Version: 6.00 Build 0)  -->
<svg version="1.1" id="Layer_3" xmlns="http://www.w3.org/2000/svg" xmlns:xlink="http://www.w3.org/1999/xlink" x="0px" y="0px"
	 viewBox="0 0 18 18" style="enable-background:new 0 0 18 18;" xml:space="preserve">
<style type="text/css">
	.st0{fill-rule:evenodd;clip-rule:evenodd;}
</style>
<path class="st0" d="M15,11.5c0,0.83-0.67,1.5-1.5,1.5S12,12.33,12,11.5c0-0.1,0.01-0.19,0.03-0.28l-1.57-0.87
	c-0.25,0.28-0.58,0.49-0.96,0.58v2.16c0.58,0.2,1,0.76,1,1.41c0,0.83-0.67,1.5-1.5,1.5s-1.5-0.67-1.5-1.5c0-0.65,0.42-1.21,1-1.41
	v-2.16c-0.38-0.09-0.71-0.3-0.96-0.58l-1.57,0.87C5.99,11.31,6,11.4,6,11.5C6,12.33,5.33,13,4.5,13S3,12.33,3,11.5
	C3,10.67,3.67,10,4.5,10c0.37,0,0.7,0.13,0.96,0.36l1.6-0.88C7.02,9.33,7,9.17,7,9c0-0.18,0.02-0.36,0.07-0.52L5.5,7.61
	C5.24,7.85,4.89,8,4.5,8C3.67,8,3,7.33,3,6.5C3,5.67,3.67,5,4.5,5S6,5.67,6,6.5c0,0.08-0.01,0.16-0.02,0.23l1.59,0.88
	C7.82,7.35,8.14,7.16,8.5,7.07V4.91c-0.58-0.2-1-0.76-1-1.41C7.5,2.67,8.17,2,9,2s1.5,0.67,1.5,1.5c0,0.65-0.42,1.21-1,1.41v2.16
	c0.36,0.09,0.68,0.28,0.93,0.54l1.59-0.88C12.01,6.66,12,6.58,12,6.5C12,5.67,12.67,5,13.5,5S15,5.67,15,6.5C15,7.33,14.33,8,13.5,8
	c-0.39,0-0.74-0.15-1-0.39l-1.57,0.87C10.98,8.64,11,8.82,11,9c0,0.17-0.02,0.33-0.06,0.48l1.6,0.88C12.8,10.13,13.13,10,13.5,10
	C14.33,10,15,10.67,15,11.5z"/>
</svg>
