<?xml version="1.0" encoding="utf-8"?>
<!-- Generator: Adobe Illustrator 25.4.1, SVG Export Plug-In . SVG Version: 6.00 Build 0)  -->
<svg version="1.1" id="Layer_1" xmlns="http://www.w3.org/2000/svg" xmlns:xlink="http://www.w3.org/1999/xlink" x="0px" y="0px"
	 viewBox="0 0 18 18" style="enable-background:new 0 0 18 18;" xml:space="preserve">
<path d="M12.625,2C12.832,2,13,2.168,13,2.375V4H5V2.375C5,2.168,5.168,2,5.375,2H12.625z M5,5v8h8V5H5z M5,15.625V14h8v1.625
	C13,15.832,12.832,16,12.625,16h-7.25C5.168,16,5,15.832,5,15.625z M9,15.5c0.276,0,0.5-0.224,0.5-0.5S9.276,14.5,9,14.5
	S8.5,14.724,8.5,15S8.724,15.5,9,15.5z"/>
</svg>
