<?xml version="1.0" encoding="utf-8"?>
<!-- Generator: Adobe Illustrator 25.4.1, SVG Export Plug-In . SVG Version: 6.00 Build 0)  -->
<svg version="1.1" id="Layer_3" xmlns="http://www.w3.org/2000/svg" xmlns:xlink="http://www.w3.org/1999/xlink" x="0px" y="0px"
	 viewBox="0 0 24 24" style="enable-background:new 0 0 24 24;" xml:space="preserve">
<style type="text/css">
	.st0{fill-rule:evenodd;clip-rule:evenodd;}
</style>
<path class="st0" d="M21,16c0,1.1-0.9,2-2,2s-2-0.9-2-2c0-0.11,0.01-0.21,0.03-0.31l-2.41-1.38c-0.48,0.55-1.13,0.95-1.87,1.11v2.73
	C13.48,18.44,14,19.16,14,20c0,1.1-0.9,2-2,2s-2-0.9-2-2c0-0.84,0.52-1.56,1.25-1.85v-2.73c-0.74-0.16-1.39-0.56-1.87-1.11
	l-2.41,1.38C6.99,15.79,7,15.89,7,16c0,1.1-0.9,2-2,2s-2-0.9-2-2s0.9-2,2-2c0.45,0,0.86,0.15,1.2,0.4L8.65,13
	c-0.1-0.32-0.15-0.65-0.15-1c0-0.37,0.06-0.73,0.17-1.07l-2.4-1.39C5.92,9.83,5.48,10,5,10c-1.1,0-2-0.9-2-2s0.9-2,2-2s2,0.9,2,2
	c0,0.08,0,0.15-0.01,0.22l2.45,1.41c0.47-0.52,1.1-0.89,1.81-1.05V5.85C10.52,5.56,10,4.84,10,4c0-1.1,0.9-2,2-2s2,0.9,2,2
	c0,0.84-0.52,1.56-1.25,1.85v2.73c0.71,0.16,1.34,0.53,1.81,1.05l2.45-1.41C17,8.15,17,8.08,17,8c0-1.1,0.9-2,2-2s2,0.9,2,2
	s-0.9,2-2,2c-0.48,0-0.92-0.17-1.27-0.46l-2.4,1.39c0.11,0.34,0.17,0.7,0.17,1.07c0,0.35-0.05,0.68-0.15,1l2.45,1.4
	c0.34-0.25,0.75-0.4,1.2-0.4C20.1,14,21,14.9,21,16z"/>
</svg>
