<?xml version="1.0" encoding="utf-8"?>
<!-- Generator: Adobe Illustrator 25.4.1, SVG Export Plug-In . SVG Version: 6.00 Build 0)  -->
<svg version="1.1" id="Phone" xmlns="http://www.w3.org/2000/svg" xmlns:xlink="http://www.w3.org/1999/xlink" x="0px" y="0px"
	 viewBox="0 0 24 24" style="enable-background:new 0 0 24 24;" xml:space="preserve">
<path d="M7,18v2.5C7,20.78,7.2,21,7.45,21h9.1C16.8,21,17,20.78,17,20.5V18H7z M12,20.5c-0.5,0-1-0.45-1-1s0.5-1,1-1s1,0.45,1,1
	S12.5,20.5,12,20.5z M7,6v11h10V6H7z M16.55,3h-9.1C7.2,3,7,3.22,7,3.5V5h10V3.5C17,3.22,16.8,3,16.55,3z"/>
</svg>
