<!--
 Copyright 2023-2025 Solace Systems. All rights reserved.

 Licensed under the Apache License, Version 2.0 (the "License");
 you may not use this file except in compliance with the License.
 You may obtain a copy of the License at

     http://www.apache.org/licenses/LICENSE-2.0

 Unless required by applicable law or agreed to in writing, software
 distributed under the License is distributed on an "AS IS" BASIS,
 WITHOUT WARRANTIES OR CONDITIONS OF ANY KIND, either express or implied.
 See the License for the specific language governing permissions and
 limitations under the License.
-->
<svg width="1280" height="715" viewBox="0 0 1280 715" fill="none" xmlns="http://www.w3.org/2000/svg">
<rect width="1280" height="715" fill="#2D2D2D"/>
<rect width="558.453" height="150.453" transform="translate(0 198)" fill="#009193"/>
<path d="M82.1298 296.553C85.3231 298.838 88.7948 300.654 92.5448 302.002L87.7548 311.186C85.7919 310.6 83.8729 309.795 81.9979 308.769C81.5878 308.564 78.702 306.66 73.3407 303.056C69.1219 304.902 64.4491 305.825 59.3221 305.825C49.4198 305.825 41.6561 302.91 36.0311 297.08C30.4354 291.25 27.6376 283.061 27.6376 272.514C27.6376 261.997 30.4501 253.823 36.0751 247.993C41.7001 242.134 49.3319 239.204 58.9706 239.204C68.5214 239.204 76.0946 242.134 81.6903 247.993C87.286 253.823 90.0839 261.997 90.0839 272.514C90.0839 278.081 89.3075 282.973 87.7548 287.192C86.5829 290.415 84.7079 293.535 82.1298 296.553ZM71.6708 289.214C73.3407 287.251 74.5858 284.878 75.4061 282.095C76.2557 279.311 76.6805 276.118 76.6805 272.514C76.6805 265.073 75.0399 259.521 71.7587 255.859C68.4774 252.168 64.1854 250.322 58.8827 250.322C53.58 250.322 49.2733 252.168 45.9628 255.859C42.6815 259.551 41.0409 265.102 41.0409 272.514C41.0409 280.044 42.6815 285.683 45.9628 289.433C49.2733 293.154 53.4481 295.014 58.4872 295.014C60.3622 295.014 62.1346 294.707 63.8046 294.092C61.1678 292.363 58.4872 291.015 55.7626 290.049L59.41 282.622C63.6874 284.087 67.7743 286.284 71.6708 289.214ZM130.953 304.726V297.739C129.254 300.229 127.013 302.192 124.229 303.628C121.475 305.063 118.56 305.781 115.484 305.781C112.349 305.781 109.537 305.093 107.047 303.716C104.557 302.339 102.755 300.405 101.641 297.915C100.528 295.425 99.9716 291.982 99.9716 287.588V258.056H112.32V279.502C112.32 286.064 112.54 290.093 112.979 291.587C113.448 293.052 114.283 294.223 115.484 295.102C116.685 295.952 118.209 296.377 120.055 296.377C122.164 296.377 124.054 295.806 125.724 294.663C127.393 293.491 128.536 292.056 129.151 290.356C129.766 288.628 130.074 284.424 130.074 277.744V258.056H142.423V304.726H130.953ZM155.255 251.728V240.303H167.603V251.728H155.255ZM155.255 304.726V258.056H167.603V304.726H155.255ZM220.997 271.855L208.824 274.053C208.414 271.621 207.476 269.79 206.012 268.559C204.576 267.329 202.701 266.714 200.387 266.714C197.31 266.714 194.849 267.783 193.004 269.922C191.187 272.031 190.279 275.576 190.279 280.556C190.279 286.094 191.202 290.005 193.048 292.29C194.923 294.575 197.428 295.718 200.562 295.718C202.906 295.718 204.825 295.058 206.319 293.74C207.813 292.392 208.868 290.093 209.483 286.841L221.612 288.906C220.352 294.473 217.935 298.677 214.361 301.518C210.787 304.36 205.997 305.781 199.991 305.781C193.165 305.781 187.716 303.628 183.643 299.321C179.6 295.014 177.579 289.053 177.579 281.435C177.579 273.73 179.615 267.739 183.687 263.462C187.76 259.155 193.267 257.002 200.211 257.002C205.894 257.002 210.406 258.232 213.746 260.693C217.115 263.125 219.532 266.846 220.997 271.855ZM229.962 304.726V240.303H242.31V274.492L256.768 258.056H271.974L256.021 275.107L273.116 304.726H259.801L248.067 283.764L242.31 289.785V304.726H229.962ZM302.34 283.764L314.996 282.534C315.758 286.782 317.296 289.902 319.61 291.894C321.954 293.887 325.103 294.883 329.058 294.883C333.248 294.883 336.397 294.004 338.507 292.246C340.645 290.459 341.715 288.379 341.715 286.006C341.715 284.482 341.261 283.193 340.352 282.139C339.474 281.055 337.921 280.117 335.694 279.326C334.171 278.799 330.699 277.861 325.279 276.514C318.307 274.785 313.414 272.661 310.601 270.141C306.646 266.597 304.669 262.275 304.669 257.178C304.669 253.896 305.592 250.835 307.437 247.993C309.312 245.122 311.993 242.939 315.479 241.445C318.995 239.951 323.228 239.204 328.18 239.204C336.266 239.204 342.345 240.976 346.417 244.521C350.518 248.066 352.672 252.798 352.877 258.716L339.869 259.287C339.312 255.976 338.111 253.603 336.266 252.168C334.449 250.703 331.71 249.971 328.048 249.971C324.268 249.971 321.309 250.747 319.171 252.3C317.794 253.296 317.105 254.629 317.105 256.299C317.105 257.822 317.75 259.126 319.039 260.21C320.68 261.587 324.664 263.022 330.992 264.516C337.32 266.011 341.993 267.563 345.011 269.175C348.057 270.757 350.431 272.939 352.13 275.723C353.858 278.476 354.723 281.889 354.723 285.962C354.723 289.653 353.697 293.11 351.646 296.333C349.596 299.556 346.695 301.958 342.945 303.54C339.195 305.093 334.522 305.869 328.927 305.869C320.782 305.869 314.527 303.994 310.162 300.244C305.797 296.465 303.189 290.972 302.34 283.764ZM386.978 258.056V267.9H378.541V286.709C378.541 290.517 378.614 292.744 378.761 293.389C378.936 294.004 379.303 294.516 379.859 294.927C380.445 295.337 381.148 295.542 381.969 295.542C383.111 295.542 384.766 295.146 386.934 294.355L387.989 303.935C385.118 305.166 381.866 305.781 378.233 305.781C376.007 305.781 374 305.415 372.213 304.682C370.426 303.921 369.107 302.954 368.258 301.782C367.437 300.581 366.866 298.97 366.544 296.948C366.28 295.513 366.148 292.612 366.148 288.247V267.9H360.479V258.056H366.148V248.784L378.541 241.577V258.056H386.978ZM404.776 272.295L393.57 270.273C394.83 265.762 396.998 262.422 400.074 260.254C403.15 258.086 407.721 257.002 413.785 257.002C419.293 257.002 423.394 257.661 426.09 258.979C428.785 260.268 430.675 261.924 431.759 263.945C432.872 265.937 433.429 269.614 433.429 274.975L433.297 289.389C433.297 293.491 433.487 296.523 433.868 298.486C434.278 300.42 435.025 302.5 436.109 304.726H423.892C423.57 303.906 423.175 302.69 422.706 301.079C422.501 300.347 422.354 299.863 422.266 299.629C420.157 301.68 417.901 303.218 415.499 304.243C413.097 305.268 410.533 305.781 407.808 305.781C403.004 305.781 399.21 304.477 396.427 301.87C393.673 299.263 392.296 295.967 392.296 291.982C392.296 289.346 392.926 287.002 394.185 284.951C395.445 282.871 397.203 281.289 399.459 280.205C401.744 279.092 405.025 278.125 409.303 277.305C415.074 276.221 419.073 275.21 421.3 274.272V273.042C421.3 270.669 420.714 268.984 419.542 267.988C418.37 266.963 416.158 266.45 412.906 266.45C410.709 266.45 408.995 266.889 407.765 267.768C406.534 268.618 405.538 270.127 404.776 272.295ZM421.3 282.314C419.718 282.842 417.213 283.472 413.785 284.204C410.357 284.936 408.116 285.654 407.061 286.357C405.45 287.5 404.644 288.95 404.644 290.708C404.644 292.436 405.289 293.931 406.578 295.19C407.867 296.45 409.508 297.08 411.5 297.08C413.726 297.08 415.85 296.348 417.872 294.883C419.366 293.769 420.348 292.407 420.816 290.796C421.139 289.741 421.3 287.734 421.3 284.775V282.314ZM457.467 304.726H445.118V258.056H456.588V264.692C458.551 261.557 460.308 259.492 461.861 258.496C463.443 257.5 465.23 257.002 467.223 257.002C470.035 257.002 472.745 257.778 475.352 259.331L471.529 270.098C469.449 268.75 467.516 268.076 465.728 268.076C464 268.076 462.535 268.559 461.334 269.526C460.133 270.464 459.181 272.178 458.477 274.668C457.804 277.158 457.467 282.373 457.467 290.312V304.726ZM502.115 258.056V267.9H493.678V286.709C493.678 290.517 493.751 292.744 493.897 293.389C494.073 294.004 494.439 294.516 494.996 294.927C495.582 295.337 496.285 295.542 497.105 295.542C498.248 295.542 499.903 295.146 502.071 294.355L503.126 303.935C500.255 305.166 497.003 305.781 493.37 305.781C491.143 305.781 489.137 305.415 487.349 304.682C485.562 303.921 484.244 302.954 483.394 301.782C482.574 300.581 482.003 298.97 481.681 296.948C481.417 295.513 481.285 292.612 481.285 288.247V267.9H475.616V258.056H481.285V248.784L493.678 241.577V258.056H502.115ZM513.057 270.405V258.056H525.406V270.405H513.057ZM513.057 304.726V292.378H525.406V304.726H513.057Z" fill="white"/>
<rect width="573.453" height="150.453" transform="translate(0 368)" fill="#009193"/>
<path d="M30.2743 474.726V410.303H78.0428V421.201H43.2821V435.483H75.6259V446.338H43.2821V463.872H79.2733V474.726H30.2743ZM103.048 474.726L84.2391 428.057H97.203L105.992 451.875L108.541 459.829C109.215 457.807 109.64 456.474 109.815 455.83C110.225 454.512 110.665 453.193 111.134 451.875L120.011 428.057H132.711L114.166 474.726H103.048ZM167.34 459.873L179.644 461.938C178.062 466.45 175.557 469.892 172.13 472.266C168.731 474.609 164.469 475.781 159.342 475.781C151.226 475.781 145.221 473.13 141.324 467.827C138.248 463.579 136.71 458.218 136.71 451.743C136.71 444.009 138.731 437.959 142.774 433.594C146.817 429.199 151.93 427.002 158.111 427.002C165.055 427.002 170.533 429.302 174.547 433.901C178.56 438.472 180.479 445.488 180.304 454.951H149.366C149.454 458.613 150.45 461.47 152.354 463.52C154.259 465.542 156.632 466.553 159.474 466.553C161.407 466.553 163.033 466.025 164.351 464.971C165.67 463.916 166.666 462.217 167.34 459.873ZM168.043 447.392C167.955 443.818 167.032 441.108 165.274 439.263C163.516 437.388 161.378 436.45 158.858 436.45C156.163 436.45 153.936 437.432 152.179 439.394C150.421 441.357 149.557 444.023 149.586 447.392H168.043ZM232.862 474.726H220.514V450.908C220.514 445.869 220.25 442.617 219.723 441.152C219.195 439.658 218.331 438.501 217.13 437.681C215.958 436.86 214.537 436.45 212.867 436.45C210.728 436.45 208.809 437.036 207.11 438.208C205.411 439.38 204.239 440.932 203.595 442.866C202.979 444.8 202.672 448.374 202.672 453.589V474.726H190.323V428.057H201.793V434.912C205.865 429.639 210.992 427.002 217.174 427.002C219.898 427.002 222.389 427.5 224.644 428.496C226.9 429.463 228.599 430.708 229.742 432.231C230.914 433.755 231.72 435.483 232.159 437.417C232.628 439.35 232.862 442.119 232.862 445.723V474.726ZM266.832 428.057V437.9H258.394V456.709C258.394 460.517 258.468 462.744 258.614 463.389C258.79 464.004 259.156 464.516 259.713 464.927C260.299 465.337 261.002 465.542 261.822 465.542C262.965 465.542 264.62 465.146 266.788 464.355L267.843 473.935C264.972 475.166 261.72 475.781 258.087 475.781C255.86 475.781 253.853 475.415 252.066 474.682C250.279 473.921 248.961 472.954 248.111 471.782C247.291 470.581 246.72 468.97 246.397 466.948C246.134 465.513 246.002 462.612 246.002 458.247V437.9H240.333V428.057H246.002V418.784L258.394 411.577V428.057H266.832ZM300.538 474.726V410.303H321.412C329.322 410.303 334.478 410.625 336.881 411.269C340.572 412.236 343.663 414.346 346.153 417.598C348.643 420.82 349.889 424.995 349.889 430.122C349.889 434.077 349.171 437.402 347.735 440.098C346.3 442.793 344.469 444.917 342.242 446.47C340.045 447.993 337.804 449.004 335.518 449.502C332.413 450.117 327.916 450.425 322.027 450.425H313.546V474.726H300.538ZM313.546 421.201V439.482H320.665C325.792 439.482 329.22 439.145 330.948 438.472C332.677 437.798 334.024 436.743 334.991 435.307C335.987 433.872 336.485 432.202 336.485 430.298C336.485 427.954 335.797 426.02 334.42 424.497C333.043 422.974 331.3 422.021 329.19 421.641C327.638 421.348 324.517 421.201 319.83 421.201H313.546ZM357.623 450.732C357.623 446.631 358.634 442.661 360.655 438.823C362.677 434.985 365.533 432.056 369.224 430.034C372.945 428.013 377.091 427.002 381.661 427.002C388.722 427.002 394.508 429.302 399.019 433.901C403.531 438.472 405.787 444.258 405.787 451.26C405.787 458.32 403.502 464.18 398.932 468.838C394.391 473.467 388.663 475.781 381.749 475.781C377.472 475.781 373.385 474.814 369.488 472.881C365.621 470.947 362.677 468.12 360.655 464.399C358.634 460.649 357.623 456.094 357.623 450.732ZM370.279 451.391C370.279 456.02 371.378 459.565 373.575 462.026C375.772 464.487 378.482 465.718 381.705 465.718C384.928 465.718 387.623 464.487 389.791 462.026C391.988 459.565 393.087 455.991 393.087 451.304C393.087 446.733 391.988 443.218 389.791 440.757C387.623 438.296 384.928 437.065 381.705 437.065C378.482 437.065 375.772 438.296 373.575 440.757C371.378 443.218 370.279 446.763 370.279 451.391ZM427.32 474.726H414.972V428.057H426.441V434.692C428.404 431.557 430.162 429.492 431.715 428.496C433.297 427.5 435.084 427.002 437.076 427.002C439.889 427.002 442.599 427.778 445.206 429.331L441.383 440.098C439.303 438.75 437.369 438.076 435.582 438.076C433.853 438.076 432.389 438.559 431.187 439.526C429.986 440.464 429.034 442.178 428.331 444.668C427.657 447.158 427.32 452.373 427.32 460.312V474.726ZM471.969 428.057V437.9H463.531V456.709C463.531 460.517 463.604 462.744 463.751 463.389C463.927 464.004 464.293 464.516 464.849 464.927C465.435 465.337 466.139 465.542 466.959 465.542C468.101 465.542 469.757 465.146 471.925 464.355L472.979 473.935C470.108 475.166 466.856 475.781 463.224 475.781C460.997 475.781 458.99 475.415 457.203 474.682C455.416 473.921 454.098 472.954 453.248 471.782C452.428 470.581 451.856 468.97 451.534 466.948C451.27 465.513 451.139 462.612 451.139 458.247V437.9H445.47V428.057H451.139V418.784L463.531 411.577V428.057H471.969ZM489.766 442.295L478.56 440.273C479.82 435.762 481.988 432.422 485.064 430.254C488.141 428.086 492.711 427.002 498.775 427.002C504.283 427.002 508.385 427.661 511.08 428.979C513.775 430.268 515.665 431.924 516.749 433.945C517.862 435.937 518.419 439.614 518.419 444.975L518.287 459.39C518.287 463.491 518.477 466.523 518.858 468.486C519.268 470.42 520.016 472.5 521.099 474.726H508.883C508.56 473.906 508.165 472.69 507.696 471.079C507.491 470.347 507.345 469.863 507.257 469.629C505.147 471.68 502.891 473.218 500.489 474.243C498.087 475.268 495.523 475.781 492.799 475.781C487.994 475.781 484.2 474.477 481.417 471.87C478.663 469.263 477.286 465.967 477.286 461.982C477.286 459.346 477.916 457.002 479.176 454.951C480.435 452.871 482.193 451.289 484.449 450.205C486.734 449.092 490.016 448.125 494.293 447.305C500.064 446.221 504.063 445.21 506.29 444.272V443.042C506.29 440.669 505.704 438.984 504.532 437.988C503.36 436.963 501.148 436.45 497.896 436.45C495.699 436.45 493.985 436.89 492.755 437.768C491.524 438.618 490.528 440.127 489.766 442.295ZM506.29 452.314C504.708 452.842 502.203 453.472 498.775 454.204C495.348 454.936 493.106 455.654 492.052 456.357C490.44 457.5 489.635 458.95 489.635 460.708C489.635 462.436 490.279 463.931 491.568 465.19C492.857 466.45 494.498 467.08 496.49 467.08C498.717 467.08 500.841 466.348 502.862 464.883C504.356 463.769 505.338 462.407 505.807 460.796C506.129 459.741 506.29 457.734 506.29 454.775V452.314ZM530.636 474.726V410.303H542.984V474.726H530.636Z" fill="white"/>
<path d="M1037.6 681.313H1039.62C1040.33 684.781 1041.66 687.228 1043.6 688.655C1045.55 690.082 1047.54 690.796 1049.58 690.796C1051.45 690.796 1052.82 690.378 1053.7 689.54C1054.58 688.703 1055.01 687.6 1055.01 686.232C1055.01 684.935 1054.54 683.826 1053.59 682.906C1053.07 682.41 1052.23 681.879 1051.07 681.313L1045.67 678.695C1042.82 677.304 1040.78 675.793 1039.55 674.166C1038.29 672.539 1037.67 670.616 1037.67 668.398C1037.67 665.591 1038.65 663.167 1040.62 661.126C1042.58 659.086 1045.33 658.066 1048.87 658.066C1050.41 658.066 1052.04 658.32 1053.77 658.826C1055.5 659.334 1056.58 659.587 1057.01 659.587C1057.6 659.587 1058.02 659.463 1058.27 659.215C1058.52 658.967 1058.72 658.62 1058.89 658.171H1060.49V668.645H1058.64C1057.95 666.191 1056.83 664.222 1055.26 662.735C1053.7 661.249 1051.87 660.506 1049.79 660.506C1048.18 660.506 1046.98 660.954 1046.18 661.851C1045.39 662.747 1044.99 663.714 1044.99 664.753C1044.99 665.601 1045.35 666.451 1046.06 667.3C1046.74 668.173 1048.05 669.069 1049.97 669.99L1053.95 671.901C1056.41 673.081 1058.21 674.224 1059.35 675.333C1061.25 677.22 1062.2 679.544 1062.2 682.303C1062.2 684.993 1061.22 687.5 1059.26 689.822C1057.31 692.147 1054.37 693.308 1050.46 693.308C1049.49 693.308 1048.51 693.208 1047.53 693.008C1046.55 692.808 1045.33 692.459 1043.89 691.964L1042.64 691.539C1042.19 691.375 1041.92 691.28 1041.81 691.257C1041.7 691.233 1041.56 691.221 1041.4 691.221C1041 691.221 1040.65 691.381 1040.35 691.699C1040.05 692.017 1039.72 692.554 1039.34 693.309H1037.6V681.313Z" fill="#00AD93"/>
<path d="M1069.26 663.054C1072.38 659.681 1076.29 657.993 1081.01 657.993C1085.82 657.993 1089.76 659.716 1092.83 663.16C1095.9 666.604 1097.43 670.78 1097.43 675.686C1097.43 680.522 1095.92 684.679 1092.88 688.159C1089.85 691.639 1085.89 693.379 1081.01 693.379C1076.27 693.379 1072.35 691.686 1069.24 688.301C1066.14 684.917 1064.59 680.711 1064.59 675.686C1064.59 670.638 1066.15 666.427 1069.26 663.054ZM1076.07 686.338C1076.9 689.475 1078.55 691.044 1081.01 691.044C1083.36 691.044 1084.9 689.841 1085.63 687.434C1086.37 685.028 1086.73 681.112 1086.73 675.687C1086.73 670.285 1086.35 666.375 1085.58 663.956C1084.81 661.538 1083.3 660.33 1081.05 660.33C1078.58 660.33 1076.94 661.898 1076.11 665.036C1075.56 667.136 1075.29 670.686 1075.29 675.687C1075.29 680.758 1075.55 684.31 1076.07 686.338Z" fill="#00AD93"/>
<path d="M1099.47 690.548C1100.75 690.242 1101.66 689.836 1102.19 689.328C1102.72 688.821 1102.99 687.765 1102.99 686.16V649.253C1102.99 647.705 1102.74 646.694 1102.24 646.217C1101.75 645.741 1100.82 645.35 1099.47 645.043V643.309H1113.27V686.161C1113.27 687.766 1113.53 688.815 1114.05 689.311C1114.57 689.807 1115.49 690.219 1116.82 690.55V692.283H1099.47V690.548Z" fill="#00AD93"/>
<path d="M1124.01 677.749C1127.16 675.835 1132.1 673.909 1138.83 671.971V666.699C1138.83 664.553 1138.38 662.967 1137.46 661.94C1136.55 660.914 1134.93 660.401 1132.61 660.401C1131.31 660.401 1130.24 660.643 1129.39 661.126C1128.55 661.61 1128.13 662.217 1128.13 662.949C1128.13 663.231 1128.18 663.469 1128.27 663.657C1128.37 663.846 1128.51 664.047 1128.7 664.259L1129.13 664.755C1129.46 665.157 1129.73 665.599 1129.93 666.082C1130.13 666.566 1130.23 667.078 1130.23 667.621C1130.23 668.989 1129.77 670.044 1128.86 670.788C1127.95 671.531 1126.89 671.903 1125.68 671.903C1124.28 671.903 1123.09 671.492 1122.11 670.668C1121.12 669.844 1120.63 668.656 1120.63 667.103C1120.63 664.327 1121.95 662.126 1124.58 660.504C1127.21 658.881 1130.44 658.068 1134.28 658.068C1138.4 658.068 1141.85 658.858 1144.63 660.439C1147.37 662.044 1148.75 664.992 1148.75 669.285V686.836C1148.75 687.356 1148.88 687.798 1149.16 688.163C1149.43 688.529 1149.73 688.711 1150.06 688.711C1150.35 688.711 1150.6 688.658 1150.83 688.552C1151.05 688.445 1151.4 688.157 1151.88 687.685L1152.98 689.206C1151.56 690.857 1149.98 692.014 1148.25 692.674C1147.16 693.098 1146.01 693.311 1144.8 693.311C1142.65 693.311 1141.07 692.685 1140.07 691.432C1139.51 690.722 1139.09 689.671 1138.83 688.276C1136.82 690.285 1134.54 691.702 1132 692.53C1130.46 693.05 1128.95 693.309 1127.45 693.309C1125.46 693.309 1123.6 692.676 1121.87 691.414C1120.14 690.15 1119.28 688.183 1119.28 685.513C1119.28 682.25 1120.86 679.663 1124.01 677.749ZM1136.7 687.078C1137.27 686.652 1137.95 685.991 1138.73 685.092V674.484C1136.78 674.957 1135.08 675.702 1133.61 676.719C1131.12 678.447 1129.88 680.646 1129.88 683.318C1129.88 684.904 1130.24 686.103 1130.96 686.919C1131.68 687.735 1132.49 688.143 1133.39 688.143C1134.58 688.143 1135.68 687.789 1136.7 687.078Z" fill="#00AD93"/>
<path d="M1179.46 660.224C1181.7 661.71 1182.82 663.62 1182.82 665.955C1182.82 667.206 1182.37 668.291 1181.49 669.211C1180.6 670.132 1179.46 670.592 1178.09 670.592C1177.17 670.592 1176.36 670.38 1175.67 669.955C1174.37 669.2 1173.72 667.832 1173.72 665.851C1173.72 665.638 1173.73 665.326 1173.75 664.912C1173.78 664.5 1173.79 664.058 1173.79 663.585C1173.79 662.311 1173.49 661.44 1172.9 660.967C1172.28 660.495 1171.59 660.259 1170.8 660.259C1168.55 660.259 1166.95 661.492 1166 663.957C1165.06 666.423 1164.58 669.247 1164.58 672.432C1164.58 676.961 1165.48 680.76 1167.28 683.827C1169.09 686.894 1171.51 688.428 1174.57 688.428C1176.49 688.428 1178.13 688.003 1179.48 687.153C1180.28 686.657 1181.28 685.75 1182.46 684.428L1183.81 685.667C1181.44 688.946 1178.67 691.199 1175.5 692.425C1173.81 693.061 1172.02 693.38 1170.13 693.38C1165.46 693.38 1161.64 691.717 1158.68 688.391C1155.72 685.065 1154.24 681.008 1154.24 676.218C1154.24 671.17 1155.81 666.87 1158.95 663.32C1162.09 659.769 1166.28 657.994 1171.51 657.994C1174.57 657.994 1177.22 658.737 1179.46 660.224Z" fill="#00AD93"/>
<path d="M1190.03 662.683C1193.01 659.605 1196.6 658.066 1200.8 658.066C1203.2 658.066 1205.45 658.692 1207.56 659.941C1209.67 661.192 1211.3 662.925 1212.44 665.142C1213.29 666.817 1213.89 668.988 1214.22 671.653C1214.38 672.903 1214.47 673.858 1214.47 674.519H1195.87C1196.04 677.42 1196.51 679.932 1197.3 682.056C1198.72 686.042 1201.23 688.035 1204.82 688.035C1206.53 688.035 1208.14 687.505 1209.66 686.443C1210.59 685.806 1211.74 684.733 1213.12 683.223L1214.79 684.249C1212.53 687.929 1209.92 690.489 1206.96 691.928C1205.04 692.848 1202.83 693.308 1200.34 693.308C1196.75 693.308 1193.39 691.905 1190.26 689.098C1187.13 686.29 1185.56 681.809 1185.56 675.651C1185.57 670.084 1187.05 665.761 1190.03 662.683ZM1205.51 671.829C1205.46 667.56 1205.13 664.575 1204.51 662.876C1203.89 661.177 1202.66 660.328 1200.8 660.328C1198.9 660.328 1197.6 661.307 1196.89 663.266C1196.19 665.225 1195.79 668.079 1195.7 671.829H1205.51Z" fill="#00AD93"/>
<path d="M1230.27 693.379C1236.97 693.379 1242.41 687.971 1242.41 681.301C1242.41 674.631 1236.97 669.223 1230.27 669.223C1223.57 669.223 1218.14 674.631 1218.14 681.301C1218.14 687.971 1223.57 693.379 1230.27 693.379Z" fill="#00AD93"/>
<path opacity="0.2" fill-rule="evenodd" clip-rule="evenodd" d="M1083.85 507.502L1102.92 452.991L1096.64 439.951L1101.61 437.554L1105.5 445.62L1122.16 397.972L1128.01 397.972L1110.71 447.442L1118.77 443.557L1121.17 448.531L1108.13 454.812L1089.06 509.324L1083.85 507.502ZM1135.09 377.728L1151.72 330.182L1146.51 328.359L1129.24 377.728L1135.09 377.728Z" fill="#E7E9EC"/>
<g opacity="0.2">
<path d="M738.36 430.451L653.911 293.47" stroke="#E7E9EC" stroke-width="5.52128"/>
<path d="M681.213 358.797L684.818 343.602L700.012 347.207" stroke="#E7E9EC" stroke-width="5.52128"/>
</g>
<g opacity="0.2">
<path d="M638.913 274.288L770.782 215.512" stroke="#E7E9EC" stroke-width="5.52128"/>
<path d="M702.409 233.898L716.99 239.488L711.4 254.07" stroke="#E7E9EC" stroke-width="5.52128"/>
</g>
<g opacity="0.2">
<path d="M813.855 198.694L1038.34 156.463" stroke="#E7E9EC" stroke-width="5.52128"/>
<path d="M967.563 158.541L980.457 167.352L971.646 180.246" stroke="#E7E9EC" stroke-width="5.52128"/>
</g>
<g opacity="0.2">
<path d="M1061.19 163.646L1148.14 295.917" stroke="#E7E9EC" stroke-width="5.52128"/>
<path d="M1118.95 231.411L1115.79 246.704L1100.5 243.542" stroke="#E7E9EC" stroke-width="5.52128"/>
</g>
<g opacity="0.2">
<path d="M1075.71 513.621L789.081 460.426" stroke="#E7E9EC" stroke-width="5.52128"/>
<path d="M855.829 484.044L846.987 471.172L859.859 462.33" stroke="#E7E9EC" stroke-width="5.52128"/>
</g>
<path d="M764.32 439.444L930.676 347.201" stroke="#6FCCBC" stroke-width="5.52128"/>
<path d="M864.158 371.458L879.171 375.761L874.868 390.773" stroke="#6FCCBC" stroke-width="5.52128"/>
<path d="M954.959 349.339L816.652 219.434" stroke="#6FCCBC" stroke-width="5.52128"/>
<path d="M860.069 275.363L859.58 259.754L875.188 259.265" stroke="#6FCCBC" stroke-width="5.52128"/>
<path d="M958.074 338.728L1144.29 316.21" stroke="#6FCCBC" stroke-width="5.52128"/>
<path d="M1073.53 313.643L1085.82 323.28L1076.18 335.568" stroke="#6FCCBC" stroke-width="5.52128"/>
<circle cx="945.352" cy="339.181" r="26.5316" fill="#00C895"/>
<circle cx="945.352" cy="339.181" r="32.0529" stroke="#00C895" stroke-opacity="0.3" stroke-width="11.0426"/>
<path d="M879.737 415.05C878.427 415.05 877.3 414.837 876.358 414.41C875.416 413.968 874.679 413.298 874.149 412.4C873.619 411.487 873.332 410.354 873.288 408.999C873.273 408.366 873.266 407.74 873.266 407.122C873.266 406.504 873.273 405.87 873.288 405.223C873.332 403.883 873.627 402.764 874.171 401.866C874.716 400.968 875.46 400.29 876.402 399.834C877.359 399.377 878.471 399.149 879.737 399.149C881.003 399.149 882.115 399.377 883.072 399.834C884.029 400.29 884.78 400.968 885.324 401.866C885.869 402.764 886.164 403.883 886.208 405.223C886.237 405.87 886.252 406.504 886.252 407.122C886.252 407.74 886.237 408.366 886.208 408.999C886.164 410.354 885.877 411.487 885.347 412.4C884.817 413.298 884.073 413.968 883.116 414.41C882.174 414.837 881.047 415.05 879.737 415.05ZM879.737 412.511C880.694 412.511 881.474 412.231 882.078 411.671C882.682 411.097 883.006 410.17 883.05 408.889C883.079 408.241 883.094 407.645 883.094 407.1C883.094 406.54 883.079 405.944 883.05 405.311C883.02 404.457 882.858 403.765 882.564 403.235C882.284 402.69 881.901 402.3 881.415 402.064C880.93 401.814 880.37 401.689 879.737 401.689C879.119 401.689 878.566 401.814 878.081 402.064C877.595 402.3 877.205 402.69 876.91 403.235C876.63 403.765 876.476 404.457 876.446 405.311C876.432 405.944 876.424 406.54 876.424 407.1C876.424 407.645 876.432 408.241 876.446 408.889C876.49 410.17 876.814 411.097 877.418 411.671C878.022 412.231 878.795 412.511 879.737 412.511Z" fill="white"/>
<path d="M889.417 414.83C889.27 414.83 889.145 414.778 889.042 414.675C888.939 414.572 888.887 414.447 888.887 414.3V403.897C888.887 403.736 888.939 403.603 889.042 403.5C889.145 403.397 889.27 403.345 889.417 403.345H891.206C891.353 403.345 891.478 403.397 891.581 403.5C891.699 403.603 891.758 403.736 891.758 403.897V404.803C892.097 404.332 892.531 403.971 893.061 403.721C893.606 403.47 894.232 403.345 894.938 403.345H895.844C896.006 403.345 896.131 403.397 896.219 403.5C896.322 403.603 896.374 403.728 896.374 403.875V405.466C896.374 405.613 896.322 405.738 896.219 405.841C896.131 405.944 896.006 405.996 895.844 405.996H894.121C893.415 405.996 892.862 406.194 892.465 406.592C892.082 406.989 891.891 407.534 891.891 408.226V414.3C891.891 414.447 891.839 414.572 891.736 414.675C891.633 414.778 891.5 414.83 891.339 414.83H889.417Z" fill="white"/>
<path d="M902.186 415.05C901.421 415.05 900.743 414.925 900.154 414.675C899.58 414.41 899.102 414.042 898.719 413.571C898.336 413.1 898.042 412.547 897.836 411.914C897.629 411.267 897.512 410.56 897.482 409.794C897.467 409.529 897.46 409.294 897.46 409.087C897.46 408.867 897.467 408.624 897.482 408.359C897.512 407.622 897.622 406.938 897.813 406.305C898.02 405.672 898.314 405.12 898.697 404.648C899.094 404.162 899.58 403.787 900.154 403.522C900.743 403.257 901.421 403.124 902.186 403.124C902.981 403.124 903.651 403.264 904.196 403.544C904.755 403.809 905.219 404.155 905.587 404.582V399.679C905.587 399.532 905.632 399.407 905.72 399.304C905.823 399.201 905.955 399.149 906.117 399.149H907.995C908.142 399.149 908.267 399.201 908.37 399.304C908.473 399.407 908.525 399.532 908.525 399.679V414.3C908.525 414.447 908.473 414.572 908.37 414.675C908.267 414.778 908.142 414.83 907.995 414.83H906.25C906.088 414.83 905.955 414.778 905.852 414.675C905.764 414.572 905.72 414.447 905.72 414.3V413.482C905.352 413.939 904.881 414.314 904.306 414.609C903.747 414.903 903.04 415.05 902.186 415.05ZM903.003 412.687C903.622 412.687 904.115 412.547 904.483 412.268C904.851 411.988 905.124 411.635 905.3 411.208C905.477 410.766 905.573 410.317 905.587 409.86C905.602 409.595 905.609 409.316 905.609 409.021C905.609 408.712 905.602 408.425 905.587 408.16C905.573 407.718 905.47 407.299 905.278 406.901C905.087 406.489 904.807 406.15 904.439 405.885C904.071 405.62 903.592 405.488 903.003 405.488C902.385 405.488 901.892 405.627 901.524 405.907C901.17 406.172 900.913 406.526 900.751 406.967C900.589 407.409 900.493 407.895 900.464 408.425C900.449 408.867 900.449 409.308 900.464 409.75C900.493 410.28 900.589 410.766 900.751 411.208C900.913 411.649 901.17 412.01 901.524 412.29C901.892 412.555 902.385 412.687 903.003 412.687Z" fill="white"/>
<path d="M916.415 415.05C914.781 415.05 913.485 414.579 912.528 413.637C911.571 412.695 911.056 411.355 910.982 409.618C910.968 409.47 910.96 409.286 910.96 409.065C910.96 408.83 910.968 408.646 910.982 408.513C911.041 407.409 911.292 406.452 911.733 405.642C912.19 404.832 912.815 404.214 913.61 403.787C914.406 403.345 915.34 403.124 916.415 403.124C917.608 403.124 918.609 403.375 919.419 403.875C920.229 404.361 920.84 405.046 921.252 405.929C921.664 406.798 921.87 407.807 921.87 408.955V409.419C921.87 409.566 921.819 409.691 921.716 409.794C921.613 409.897 921.48 409.949 921.318 409.949H913.986C913.986 409.949 913.986 409.971 913.986 410.015C913.986 410.059 913.986 410.096 913.986 410.125C914.001 410.641 914.096 411.119 914.273 411.561C914.464 411.988 914.737 412.334 915.09 412.599C915.458 412.864 915.893 412.997 916.393 412.997C916.805 412.997 917.151 412.938 917.431 412.82C917.711 412.687 917.939 412.54 918.116 412.378C918.293 412.216 918.418 412.084 918.491 411.981C918.624 411.804 918.727 411.701 918.8 411.671C918.889 411.627 919.014 411.605 919.176 411.605H921.075C921.222 411.605 921.34 411.649 921.429 411.738C921.532 411.826 921.576 411.936 921.561 412.069C921.546 412.305 921.421 412.592 921.186 412.93C920.965 413.269 920.641 413.6 920.214 413.924C919.787 414.248 919.25 414.52 918.602 414.741C917.969 414.947 917.24 415.05 916.415 415.05ZM913.986 408.094H918.867V408.027C918.867 407.453 918.771 406.953 918.58 406.526C918.388 406.099 918.108 405.76 917.74 405.51C917.372 405.259 916.931 405.134 916.415 405.134C915.9 405.134 915.458 405.259 915.09 405.51C914.722 405.76 914.442 406.099 914.251 406.526C914.074 406.953 913.986 407.453 913.986 408.027V408.094Z" fill="white"/>
<path d="M924.745 414.83C924.597 414.83 924.472 414.778 924.369 414.675C924.266 414.572 924.215 414.447 924.215 414.3V403.897C924.215 403.736 924.266 403.603 924.369 403.5C924.472 403.397 924.597 403.345 924.745 403.345H926.534C926.681 403.345 926.806 403.397 926.909 403.5C927.027 403.603 927.086 403.736 927.086 403.897V404.803C927.424 404.332 927.859 403.971 928.389 403.721C928.933 403.47 929.559 403.345 930.266 403.345H931.171C931.333 403.345 931.459 403.397 931.547 403.5C931.65 403.603 931.701 403.728 931.701 403.875V405.466C931.701 405.613 931.65 405.738 931.547 405.841C931.459 405.944 931.333 405.996 931.171 405.996H929.449C928.742 405.996 928.19 406.194 927.792 406.592C927.41 406.989 927.218 407.534 927.218 408.226V414.3C927.218 414.447 927.167 414.572 927.064 414.675C926.961 414.778 926.828 414.83 926.666 414.83H924.745Z" fill="white"/>
<path d="M944.224 415.05C942.855 415.05 941.692 414.815 940.735 414.344C939.792 413.858 939.071 413.173 938.57 412.29C938.07 411.392 937.79 410.317 937.731 409.065C937.716 408.462 937.709 407.814 937.709 407.122C937.709 406.43 937.716 405.767 937.731 405.134C937.79 403.897 938.07 402.83 938.57 401.932C939.086 401.034 939.815 400.349 940.757 399.878C941.714 399.392 942.87 399.149 944.224 399.149C945.225 399.149 946.124 399.282 946.919 399.547C947.714 399.812 948.391 400.18 948.95 400.651C949.51 401.107 949.944 401.645 950.253 402.263C950.563 402.882 950.725 403.551 950.739 404.273C950.754 404.405 950.71 404.516 950.607 404.604C950.518 404.693 950.408 404.737 950.276 404.737H948.177C948.016 404.737 947.883 404.7 947.78 404.626C947.677 404.538 947.603 404.398 947.559 404.207C947.324 403.235 946.919 402.572 946.344 402.219C945.77 401.866 945.056 401.689 944.202 401.689C943.216 401.689 942.428 401.969 941.839 402.528C941.25 403.073 940.934 403.978 940.889 405.245C940.845 406.452 940.845 407.689 940.889 408.955C940.934 410.221 941.25 411.134 941.839 411.694C942.428 412.238 943.216 412.511 944.202 412.511C945.056 412.511 945.77 412.334 946.344 411.981C946.919 411.613 947.324 410.95 947.559 409.993C947.603 409.787 947.677 409.647 947.78 409.573C947.883 409.5 948.016 409.463 948.177 409.463H950.276C950.408 409.463 950.518 409.507 950.607 409.595C950.71 409.684 950.754 409.794 950.739 409.927C950.725 410.648 950.563 411.318 950.253 411.936C949.944 412.555 949.51 413.1 948.95 413.571C948.391 414.027 947.714 414.388 946.919 414.653C946.124 414.918 945.225 415.05 944.224 415.05Z" fill="white"/>
<path d="M953.624 414.83C953.476 414.83 953.351 414.778 953.248 414.675C953.145 414.572 953.093 414.447 953.093 414.3V403.897C953.093 403.736 953.145 403.603 953.248 403.5C953.351 403.397 953.476 403.345 953.624 403.345H955.412C955.56 403.345 955.685 403.397 955.788 403.5C955.906 403.603 955.965 403.736 955.965 403.897V404.803C956.303 404.332 956.738 403.971 957.268 403.721C957.812 403.47 958.438 403.345 959.145 403.345H960.05C960.212 403.345 960.337 403.397 960.426 403.5C960.529 403.603 960.58 403.728 960.58 403.875V405.466C960.58 405.613 960.529 405.738 960.426 405.841C960.337 405.944 960.212 405.996 960.05 405.996H958.328C957.621 405.996 957.069 406.194 956.671 406.592C956.288 406.989 956.097 407.534 956.097 408.226V414.3C956.097 414.447 956.046 414.572 955.942 414.675C955.839 414.778 955.707 414.83 955.545 414.83H953.624Z" fill="white"/>
<path d="M967.099 415.05C965.465 415.05 964.169 414.579 963.212 413.637C962.255 412.695 961.74 411.355 961.666 409.618C961.651 409.47 961.644 409.286 961.644 409.065C961.644 408.83 961.651 408.646 961.666 408.513C961.725 407.409 961.975 406.452 962.417 405.642C962.873 404.832 963.499 404.214 964.294 403.787C965.089 403.345 966.024 403.124 967.099 403.124C968.291 403.124 969.293 403.375 970.102 403.875C970.912 404.361 971.523 405.046 971.936 405.929C972.348 406.798 972.554 407.807 972.554 408.955V409.419C972.554 409.566 972.502 409.691 972.399 409.794C972.296 409.897 972.164 409.949 972.002 409.949H964.67C964.67 409.949 964.67 409.971 964.67 410.015C964.67 410.059 964.67 410.096 964.67 410.125C964.684 410.641 964.78 411.119 964.957 411.561C965.148 411.988 965.42 412.334 965.774 412.599C966.142 412.864 966.576 412.997 967.077 412.997C967.489 412.997 967.835 412.938 968.115 412.82C968.395 412.687 968.623 412.54 968.799 412.378C968.976 412.216 969.101 412.084 969.175 411.981C969.307 411.804 969.41 411.701 969.484 411.671C969.572 411.627 969.698 411.605 969.86 411.605H971.759C971.906 411.605 972.024 411.649 972.112 411.738C972.215 411.826 972.259 411.936 972.245 412.069C972.23 412.305 972.105 412.592 971.869 412.93C971.648 413.269 971.324 413.6 970.898 413.924C970.471 414.248 969.933 414.52 969.285 414.741C968.652 414.947 967.923 415.05 967.099 415.05ZM964.67 408.094H969.55V408.027C969.55 407.453 969.455 406.953 969.263 406.526C969.072 406.099 968.792 405.76 968.424 405.51C968.056 405.259 967.614 405.134 967.099 405.134C966.584 405.134 966.142 405.259 965.774 405.51C965.406 405.76 965.126 406.099 964.935 406.526C964.758 406.953 964.67 407.453 964.67 408.027V408.094Z" fill="white"/>
<path d="M978.233 415.05C977.467 415.05 976.775 414.903 976.157 414.609C975.539 414.3 975.045 413.895 974.677 413.394C974.324 412.879 974.147 412.305 974.147 411.671C974.147 410.641 974.56 409.824 975.384 409.22C976.223 408.602 977.328 408.189 978.697 407.983L981.722 407.542V407.078C981.722 406.459 981.568 405.981 981.259 405.642C980.95 405.304 980.419 405.134 979.669 405.134C979.139 405.134 978.704 405.245 978.366 405.466C978.042 405.672 977.799 405.951 977.637 406.305C977.519 406.496 977.35 406.592 977.129 406.592H975.384C975.222 406.592 975.097 406.548 975.009 406.459C974.935 406.371 974.898 406.253 974.898 406.106C974.913 405.87 975.009 405.583 975.185 405.245C975.362 404.906 975.642 404.582 976.025 404.273C976.407 403.949 976.901 403.677 977.504 403.456C978.108 403.235 978.837 403.124 979.691 403.124C980.618 403.124 981.399 403.242 982.032 403.478C982.68 403.699 983.195 404.001 983.578 404.383C983.96 404.766 984.24 405.215 984.417 405.731C984.594 406.246 984.682 406.791 984.682 407.365V414.3C984.682 414.447 984.63 414.572 984.527 414.675C984.424 414.778 984.299 414.83 984.152 414.83H982.363C982.201 414.83 982.068 414.778 981.965 414.675C981.877 414.572 981.833 414.447 981.833 414.3V413.438C981.642 413.718 981.384 413.983 981.06 414.233C980.736 414.469 980.339 414.668 979.867 414.83C979.411 414.977 978.866 415.05 978.233 415.05ZM978.984 412.952C979.499 412.952 979.963 412.842 980.375 412.621C980.802 412.4 981.134 412.062 981.369 411.605C981.619 411.134 981.745 410.545 981.745 409.838V409.375L979.536 409.728C978.667 409.86 978.02 410.074 977.593 410.368C977.166 410.663 976.952 411.024 976.952 411.451C976.952 411.774 977.048 412.054 977.239 412.29C977.445 412.511 977.703 412.68 978.012 412.798C978.321 412.901 978.645 412.952 978.984 412.952Z" fill="white"/>
<path d="M992.597 414.83C991.714 414.83 990.97 414.675 990.367 414.366C989.763 414.057 989.314 413.6 989.02 412.997C988.725 412.378 988.578 411.613 988.578 410.7V405.686H986.833C986.686 405.686 986.561 405.635 986.458 405.532C986.355 405.429 986.303 405.304 986.303 405.156V403.875C986.303 403.728 986.355 403.603 986.458 403.5C986.561 403.397 986.686 403.345 986.833 403.345H988.578V399.679C988.578 399.532 988.622 399.407 988.71 399.304C988.813 399.201 988.946 399.149 989.108 399.149H990.897C991.044 399.149 991.169 399.201 991.272 399.304C991.375 399.407 991.427 399.532 991.427 399.679V403.345H994.187C994.335 403.345 994.46 403.397 994.563 403.5C994.666 403.603 994.718 403.728 994.718 403.875V405.156C994.718 405.304 994.666 405.429 994.563 405.532C994.46 405.635 994.335 405.686 994.187 405.686H991.427V410.479C991.427 411.082 991.53 411.554 991.736 411.892C991.957 412.231 992.332 412.4 992.862 412.4H994.386C994.533 412.4 994.659 412.452 994.762 412.555C994.865 412.658 994.916 412.783 994.916 412.93V414.3C994.916 414.447 994.865 414.572 994.762 414.675C994.659 414.778 994.533 414.83 994.386 414.83H992.597Z" fill="white"/>
<path d="M1001.82 415.05C1000.19 415.05 998.893 414.579 997.936 413.637C996.979 412.695 996.463 411.355 996.39 409.618C996.375 409.47 996.368 409.286 996.368 409.065C996.368 408.83 996.375 408.646 996.39 408.513C996.448 407.409 996.699 406.452 997.14 405.642C997.597 404.832 998.223 404.214 999.018 403.787C999.813 403.345 1000.75 403.124 1001.82 403.124C1003.02 403.124 1004.02 403.375 1004.83 403.875C1005.64 404.361 1006.25 405.046 1006.66 405.929C1007.07 406.798 1007.28 407.807 1007.28 408.955V409.419C1007.28 409.566 1007.23 409.691 1007.12 409.794C1007.02 409.897 1006.89 409.949 1006.73 409.949H999.393C999.393 409.949 999.393 409.971 999.393 410.015C999.393 410.059 999.393 410.096 999.393 410.125C999.408 410.641 999.504 411.119 999.68 411.561C999.872 411.988 1000.14 412.334 1000.5 412.599C1000.87 412.864 1001.3 412.997 1001.8 412.997C1002.21 412.997 1002.56 412.938 1002.84 412.82C1003.12 412.687 1003.35 412.54 1003.52 412.378C1003.7 412.216 1003.82 412.084 1003.9 411.981C1004.03 411.804 1004.13 411.701 1004.21 411.671C1004.3 411.627 1004.42 411.605 1004.58 411.605H1006.48C1006.63 411.605 1006.75 411.649 1006.84 411.738C1006.94 411.826 1006.98 411.936 1006.97 412.069C1006.95 412.305 1006.83 412.592 1006.59 412.93C1006.37 413.269 1006.05 413.6 1005.62 413.924C1005.19 414.248 1004.66 414.52 1004.01 414.741C1003.38 414.947 1002.65 415.05 1001.82 415.05ZM999.393 408.094H1004.27V408.027C1004.27 407.453 1004.18 406.953 1003.99 406.526C1003.8 406.099 1003.52 405.76 1003.15 405.51C1002.78 405.259 1002.34 405.134 1001.82 405.134C1001.31 405.134 1000.87 405.259 1000.5 405.51C1000.13 405.76 999.85 406.099 999.658 406.526C999.482 406.953 999.393 407.453 999.393 408.027V408.094Z" fill="white"/>
<path d="M1013.88 415.05C1013.12 415.05 1012.44 414.925 1011.85 414.675C1011.28 414.41 1010.8 414.042 1010.42 413.571C1010.03 413.1 1009.74 412.547 1009.53 411.914C1009.33 411.267 1009.21 410.56 1009.18 409.794C1009.17 409.529 1009.16 409.294 1009.16 409.087C1009.16 408.867 1009.17 408.624 1009.18 408.359C1009.21 407.622 1009.32 406.938 1009.51 406.305C1009.72 405.672 1010.01 405.12 1010.39 404.648C1010.79 404.162 1011.28 403.787 1011.85 403.522C1012.44 403.257 1013.12 403.124 1013.88 403.124C1014.68 403.124 1015.35 403.264 1015.89 403.544C1016.45 403.809 1016.92 404.155 1017.29 404.582V399.679C1017.29 399.532 1017.33 399.407 1017.42 399.304C1017.52 399.201 1017.65 399.149 1017.82 399.149H1019.69C1019.84 399.149 1019.97 399.201 1020.07 399.304C1020.17 399.407 1020.22 399.532 1020.22 399.679V414.3C1020.22 414.447 1020.17 414.572 1020.07 414.675C1019.97 414.778 1019.84 414.83 1019.69 414.83H1017.95C1017.79 414.83 1017.65 414.778 1017.55 414.675C1017.46 414.572 1017.42 414.447 1017.42 414.3V413.482C1017.05 413.939 1016.58 414.314 1016 414.609C1015.44 414.903 1014.74 415.05 1013.88 415.05ZM1014.7 412.687C1015.32 412.687 1015.81 412.547 1016.18 412.268C1016.55 411.988 1016.82 411.635 1017 411.208C1017.17 410.766 1017.27 410.317 1017.29 409.86C1017.3 409.595 1017.31 409.316 1017.31 409.021C1017.31 408.712 1017.3 408.425 1017.29 408.16C1017.27 407.718 1017.17 407.299 1016.98 406.901C1016.78 406.489 1016.51 406.15 1016.14 405.885C1015.77 405.62 1015.29 405.488 1014.7 405.488C1014.08 405.488 1013.59 405.627 1013.22 405.907C1012.87 406.172 1012.61 406.526 1012.45 406.967C1012.29 407.409 1012.19 407.895 1012.16 408.425C1012.15 408.867 1012.15 409.308 1012.16 409.75C1012.19 410.28 1012.29 410.766 1012.45 411.208C1012.61 411.649 1012.87 412.01 1013.22 412.29C1013.59 412.555 1014.08 412.687 1014.7 412.687Z" fill="white"/>
<path d="M798.312 452.521C798.312 477.932 777.712 498.532 752.301 498.532C726.89 498.532 706.291 477.932 706.291 452.521C706.291 427.11 726.89 406.511 752.301 406.511C777.712 406.511 798.312 427.11 798.312 452.521Z" fill="white"/>
<path d="M752.301 501.293C779.237 501.293 801.072 479.457 801.072 452.521C801.072 425.586 779.237 403.75 752.301 403.75C725.366 403.75 703.53 425.586 703.53 452.521C703.53 479.457 725.366 501.293 752.301 501.293Z" stroke="white" stroke-opacity="0.35" stroke-width="5.52128"/>
<path fill-rule="evenodd" clip-rule="evenodd" d="M752.301 490.644C773.356 490.644 790.424 473.576 790.424 452.521C790.424 431.466 773.356 414.398 752.301 414.398C731.246 414.398 714.178 431.466 714.178 452.521C714.178 473.576 731.246 490.644 752.301 490.644ZM752.301 498.532C777.712 498.532 798.312 477.932 798.312 452.521C798.312 427.11 777.712 406.511 752.301 406.511C726.89 406.511 706.291 427.11 706.291 452.521C706.291 477.932 726.89 498.532 752.301 498.532Z" fill="#145B5B"/>
<path d="M778.589 452.525C778.589 467.045 766.818 478.817 752.298 478.817C737.777 478.817 726.006 467.045 726.006 452.525C726.006 438.004 737.777 426.233 752.298 426.233C766.818 426.233 778.589 438.004 778.589 452.525Z" fill="#145B5B" fill-opacity="0.3"/>
<path d="M680.971 542.393C679.661 542.393 678.534 542.179 677.592 541.752C676.65 541.311 675.913 540.641 675.383 539.743C674.853 538.83 674.566 537.696 674.522 536.342C674.507 535.709 674.5 535.083 674.5 534.464C674.5 533.846 674.507 533.213 674.522 532.565C674.566 531.225 674.861 530.106 675.405 529.208C675.95 528.31 676.694 527.633 677.636 527.176C678.593 526.72 679.705 526.492 680.971 526.492C682.237 526.492 683.349 526.72 684.306 527.176C685.263 527.633 686.014 528.31 686.558 529.208C687.103 530.106 687.398 531.225 687.442 532.565C687.471 533.213 687.486 533.846 687.486 534.464C687.486 535.083 687.471 535.709 687.442 536.342C687.398 537.696 687.111 538.83 686.581 539.743C686.051 540.641 685.307 541.311 684.35 541.752C683.408 542.179 682.281 542.393 680.971 542.393ZM680.971 539.853C681.928 539.853 682.708 539.573 683.312 539.014C683.916 538.44 684.24 537.512 684.284 536.231C684.313 535.583 684.328 534.987 684.328 534.442C684.328 533.883 684.313 533.287 684.284 532.653C684.254 531.799 684.092 531.107 683.798 530.577C683.518 530.033 683.135 529.642 682.649 529.407C682.164 529.157 681.604 529.031 680.971 529.031C680.353 529.031 679.8 529.157 679.315 529.407C678.829 529.642 678.439 530.033 678.144 530.577C677.864 531.107 677.71 531.799 677.68 532.653C677.666 533.287 677.658 533.883 677.658 534.442C677.658 534.987 677.666 535.583 677.68 536.231C677.724 537.512 678.048 538.44 678.652 539.014C679.256 539.573 680.029 539.853 680.971 539.853Z" fill="white"/>
<path d="M690.651 542.172C690.504 542.172 690.379 542.121 690.276 542.017C690.173 541.914 690.121 541.789 690.121 541.642V531.24C690.121 531.078 690.173 530.945 690.276 530.842C690.379 530.739 690.504 530.688 690.651 530.688H692.44C692.587 530.688 692.712 530.739 692.815 530.842C692.933 530.945 692.992 531.078 692.992 531.24V532.145C693.331 531.674 693.765 531.314 694.295 531.063C694.84 530.813 695.466 530.688 696.172 530.688H697.078C697.24 530.688 697.365 530.739 697.453 530.842C697.556 530.945 697.608 531.071 697.608 531.218V532.808C697.608 532.955 697.556 533.08 697.453 533.183C697.365 533.287 697.24 533.338 697.078 533.338H695.355C694.649 533.338 694.096 533.537 693.699 533.934C693.316 534.332 693.125 534.877 693.125 535.569V541.642C693.125 541.789 693.073 541.914 692.97 542.017C692.867 542.121 692.734 542.172 692.573 542.172H690.651Z" fill="white"/>
<path d="M703.42 542.393C702.655 542.393 701.977 542.268 701.388 542.017C700.814 541.752 700.336 541.384 699.953 540.913C699.57 540.442 699.276 539.89 699.07 539.257C698.863 538.609 698.746 537.902 698.716 537.137C698.701 536.872 698.694 536.636 698.694 536.43C698.694 536.209 698.701 535.966 698.716 535.701C698.746 534.965 698.856 534.28 699.047 533.647C699.254 533.014 699.548 532.462 699.931 531.991C700.328 531.505 700.814 531.13 701.388 530.865C701.977 530.599 702.655 530.467 703.42 530.467C704.215 530.467 704.885 530.607 705.43 530.887C705.99 531.152 706.453 531.498 706.821 531.925V527.022C706.821 526.874 706.866 526.749 706.954 526.646C707.057 526.543 707.189 526.492 707.351 526.492H709.229C709.376 526.492 709.501 526.543 709.604 526.646C709.707 526.749 709.759 526.874 709.759 527.022V541.642C709.759 541.789 709.707 541.914 709.604 542.017C709.501 542.121 709.376 542.172 709.229 542.172H707.484C707.322 542.172 707.189 542.121 707.086 542.017C706.998 541.914 706.954 541.789 706.954 541.642V540.825C706.586 541.281 706.115 541.657 705.54 541.951C704.981 542.246 704.274 542.393 703.42 542.393ZM704.237 540.03C704.856 540.03 705.349 539.89 705.717 539.61C706.085 539.33 706.358 538.977 706.534 538.55C706.711 538.108 706.807 537.659 706.821 537.203C706.836 536.938 706.843 536.658 706.843 536.364C706.843 536.055 706.836 535.767 706.821 535.502C706.807 535.061 706.704 534.641 706.512 534.244C706.321 533.831 706.041 533.493 705.673 533.228C705.305 532.963 704.826 532.83 704.237 532.83C703.619 532.83 703.126 532.97 702.758 533.25C702.404 533.515 702.147 533.868 701.985 534.31C701.823 534.751 701.727 535.237 701.698 535.767C701.683 536.209 701.683 536.651 701.698 537.093C701.727 537.623 701.823 538.108 701.985 538.55C702.147 538.992 702.404 539.353 702.758 539.632C703.126 539.897 703.619 540.03 704.237 540.03Z" fill="white"/>
<path d="M717.649 542.393C716.015 542.393 714.719 541.922 713.762 540.979C712.805 540.037 712.29 538.697 712.216 536.96C712.202 536.813 712.194 536.629 712.194 536.408C712.194 536.172 712.202 535.988 712.216 535.856C712.275 534.751 712.526 533.794 712.967 532.985C713.424 532.175 714.049 531.557 714.844 531.13C715.64 530.688 716.574 530.467 717.649 530.467C718.842 530.467 719.843 530.717 720.653 531.218C721.463 531.704 722.074 532.388 722.486 533.272C722.898 534.14 723.104 535.149 723.104 536.297V536.761C723.104 536.908 723.053 537.034 722.95 537.137C722.847 537.24 722.714 537.291 722.552 537.291H715.22C715.22 537.291 715.22 537.313 715.22 537.358C715.22 537.402 715.22 537.439 715.22 537.468C715.235 537.983 715.33 538.462 715.507 538.903C715.698 539.33 715.971 539.676 716.324 539.941C716.692 540.207 717.127 540.339 717.627 540.339C718.039 540.339 718.385 540.28 718.665 540.162C718.945 540.03 719.173 539.883 719.35 539.721C719.527 539.559 719.652 539.426 719.725 539.323C719.858 539.146 719.961 539.043 720.034 539.014C720.123 538.97 720.248 538.948 720.41 538.948H722.309C722.456 538.948 722.574 538.992 722.663 539.08C722.766 539.169 722.81 539.279 722.795 539.411C722.78 539.647 722.655 539.934 722.42 540.273C722.199 540.611 721.875 540.943 721.448 541.267C721.021 541.591 720.484 541.863 719.836 542.084C719.203 542.29 718.474 542.393 717.649 542.393ZM715.22 535.436H720.101V535.37C720.101 534.796 720.005 534.295 719.814 533.868C719.622 533.441 719.342 533.102 718.974 532.852C718.606 532.602 718.165 532.477 717.649 532.477C717.134 532.477 716.692 532.602 716.324 532.852C715.956 533.102 715.676 533.441 715.485 533.868C715.308 534.295 715.22 534.796 715.22 535.37V535.436Z" fill="white"/>
<path d="M725.979 542.172C725.831 542.172 725.706 542.121 725.603 542.017C725.5 541.914 725.449 541.789 725.449 541.642V531.24C725.449 531.078 725.5 530.945 725.603 530.842C725.706 530.739 725.831 530.688 725.979 530.688H727.768C727.915 530.688 728.04 530.739 728.143 530.842C728.261 530.945 728.32 531.078 728.32 531.24V532.145C728.658 531.674 729.093 531.314 729.623 531.063C730.167 530.813 730.793 530.688 731.5 530.688H732.405C732.567 530.688 732.693 530.739 732.781 530.842C732.884 530.945 732.935 531.071 732.935 531.218V532.808C732.935 532.955 732.884 533.08 732.781 533.183C732.693 533.287 732.567 533.338 732.405 533.338H730.683C729.976 533.338 729.424 533.537 729.026 533.934C728.644 534.332 728.452 534.877 728.452 535.569V541.642C728.452 541.789 728.401 541.914 728.298 542.017C728.195 542.121 728.062 542.172 727.9 542.172H725.979Z" fill="white"/>
<path d="M739.009 542.393C738.125 542.393 737.367 542.29 736.734 542.084C736.116 541.878 735.608 541.62 735.21 541.311C734.813 541.002 734.518 540.692 734.327 540.383C734.135 540.074 734.032 539.816 734.017 539.61C734.003 539.448 734.047 539.323 734.15 539.235C734.268 539.132 734.393 539.08 734.525 539.08H736.27C736.329 539.08 736.381 539.088 736.425 539.102C736.469 539.117 736.528 539.161 736.601 539.235C736.793 539.397 736.992 539.566 737.198 539.743C737.419 539.919 737.676 540.074 737.971 540.207C738.265 540.324 738.633 540.383 739.075 540.383C739.649 540.383 740.128 540.273 740.51 540.052C740.908 539.816 741.107 539.485 741.107 539.058C741.107 538.749 741.018 538.499 740.842 538.307C740.68 538.116 740.371 537.946 739.914 537.799C739.458 537.637 738.81 537.468 737.971 537.291C737.146 537.1 736.462 536.857 735.917 536.562C735.372 536.268 734.967 535.9 734.702 535.458C734.437 535.017 734.305 534.501 734.305 533.912C734.305 533.338 734.474 532.793 734.813 532.278C735.166 531.748 735.681 531.314 736.358 530.975C737.05 530.636 737.904 530.467 738.92 530.467C739.715 530.467 740.407 530.57 740.996 530.776C741.585 530.968 742.071 531.211 742.454 531.505C742.852 531.799 743.153 532.101 743.359 532.41C743.566 532.705 743.676 532.963 743.691 533.183C743.705 533.345 743.661 533.478 743.558 533.581C743.455 533.669 743.337 533.713 743.205 533.713H741.571C741.497 533.713 741.431 533.699 741.372 533.669C741.313 533.64 741.254 533.603 741.195 533.559C741.033 533.412 740.856 533.257 740.665 533.095C740.474 532.933 740.238 532.793 739.958 532.675C739.693 532.543 739.34 532.477 738.898 532.477C738.339 532.477 737.912 532.602 737.617 532.852C737.323 533.088 737.176 533.39 737.176 533.758C737.176 534.008 737.242 534.229 737.374 534.42C737.522 534.597 737.809 534.766 738.236 534.928C738.663 535.09 739.311 535.259 740.179 535.436C741.166 535.613 741.946 535.878 742.52 536.231C743.109 536.57 743.521 536.967 743.757 537.424C744.007 537.865 744.132 538.359 744.132 538.903C744.132 539.566 743.934 540.162 743.536 540.692C743.153 541.222 742.579 541.642 741.814 541.951C741.063 542.246 740.128 542.393 739.009 542.393Z" fill="white"/>
<path d="M757.091 542.393C755.721 542.393 754.573 542.194 753.645 541.797C752.733 541.384 752.033 540.854 751.547 540.207C751.076 539.544 750.826 538.852 750.796 538.131C750.796 537.998 750.841 537.888 750.929 537.799C751.017 537.711 751.128 537.667 751.26 537.667H753.226C753.417 537.667 753.557 537.711 753.645 537.799C753.748 537.873 753.837 537.969 753.91 538.086C753.999 538.366 754.168 538.646 754.418 538.926C754.669 539.191 755.007 539.411 755.434 539.588C755.876 539.765 756.428 539.853 757.091 539.853C758.151 539.853 758.938 539.676 759.454 539.323C759.984 538.97 760.249 538.491 760.249 537.888C760.249 537.461 760.109 537.122 759.829 536.872C759.55 536.607 759.115 536.371 758.526 536.165C757.952 535.944 757.186 535.716 756.229 535.48C755.125 535.215 754.198 534.899 753.447 534.531C752.711 534.148 752.151 533.669 751.768 533.095C751.4 532.521 751.216 531.792 751.216 530.909C751.216 530.055 751.444 529.296 751.901 528.634C752.372 527.971 753.034 527.449 753.888 527.066C754.757 526.683 755.788 526.492 756.98 526.492C757.937 526.492 758.784 526.624 759.52 526.889C760.256 527.139 760.867 527.478 761.353 527.905C761.839 528.317 762.207 528.766 762.457 529.252C762.722 529.723 762.862 530.187 762.877 530.644C762.877 530.761 762.833 530.872 762.744 530.975C762.671 531.063 762.56 531.107 762.413 531.107H760.359C760.242 531.107 760.124 531.078 760.006 531.019C759.888 530.96 759.792 530.85 759.719 530.688C759.63 530.231 759.343 529.841 758.858 529.517C758.372 529.193 757.746 529.031 756.98 529.031C756.185 529.031 755.545 529.179 755.059 529.473C754.573 529.768 754.33 530.224 754.33 530.842C754.33 531.255 754.448 531.601 754.683 531.88C754.934 532.145 755.324 532.381 755.854 532.587C756.399 532.793 757.113 533.014 757.996 533.25C759.248 533.529 760.271 533.853 761.066 534.221C761.861 534.59 762.443 535.061 762.811 535.635C763.179 536.194 763.363 536.908 763.363 537.777C763.363 538.749 763.098 539.581 762.568 540.273C762.052 540.95 761.324 541.473 760.381 541.841C759.439 542.209 758.342 542.393 757.091 542.393Z" fill="white"/>
<path d="M770.576 542.393C768.942 542.393 767.646 541.922 766.689 540.979C765.732 540.037 765.217 538.697 765.143 536.96C765.128 536.813 765.121 536.629 765.121 536.408C765.121 536.172 765.128 535.988 765.143 535.856C765.202 534.751 765.452 533.794 765.894 532.985C766.35 532.175 766.976 531.557 767.771 531.13C768.566 530.688 769.501 530.467 770.576 530.467C771.769 530.467 772.77 530.717 773.579 531.218C774.389 531.704 775 532.388 775.413 533.272C775.825 534.14 776.031 535.149 776.031 536.297V536.761C776.031 536.908 775.979 537.034 775.876 537.137C775.773 537.24 775.641 537.291 775.479 537.291H768.147C768.147 537.291 768.147 537.313 768.147 537.358C768.147 537.402 768.147 537.439 768.147 537.468C768.161 537.983 768.257 538.462 768.434 538.903C768.625 539.33 768.897 539.676 769.251 539.941C769.619 540.207 770.053 540.339 770.554 540.339C770.966 540.339 771.312 540.28 771.592 540.162C771.872 540.03 772.1 539.883 772.276 539.721C772.453 539.559 772.578 539.426 772.652 539.323C772.784 539.146 772.887 539.043 772.961 539.014C773.049 538.97 773.175 538.948 773.337 538.948H775.236C775.383 538.948 775.501 538.992 775.589 539.08C775.692 539.169 775.736 539.279 775.722 539.411C775.707 539.647 775.582 539.934 775.346 540.273C775.125 540.611 774.802 540.943 774.375 541.267C773.948 541.591 773.41 541.863 772.762 542.084C772.129 542.29 771.4 542.393 770.576 542.393ZM768.147 535.436H773.027V535.37C773.027 534.796 772.932 534.295 772.74 533.868C772.549 533.441 772.269 533.102 771.901 532.852C771.533 532.602 771.091 532.477 770.576 532.477C770.061 532.477 769.619 532.602 769.251 532.852C768.883 533.102 768.603 533.441 768.412 533.868C768.235 534.295 768.147 534.796 768.147 535.37V535.436Z" fill="white"/>
<path d="M778.905 542.172C778.758 542.172 778.633 542.121 778.53 542.017C778.427 541.914 778.375 541.789 778.375 541.642V531.24C778.375 531.078 778.427 530.945 778.53 530.842C778.633 530.739 778.758 530.688 778.905 530.688H780.694C780.841 530.688 780.967 530.739 781.07 530.842C781.187 530.945 781.246 531.078 781.246 531.24V532.145C781.585 531.674 782.019 531.314 782.549 531.063C783.094 530.813 783.72 530.688 784.427 530.688H785.332C785.494 530.688 785.619 530.739 785.707 530.842C785.811 530.945 785.862 531.071 785.862 531.218V532.808C785.862 532.955 785.811 533.08 785.707 533.183C785.619 533.287 785.494 533.338 785.332 533.338H783.609C782.903 533.338 782.351 533.537 781.953 533.934C781.57 534.332 781.379 534.877 781.379 535.569V541.642C781.379 541.789 781.327 541.914 781.224 542.017C781.121 542.121 780.989 542.172 780.827 542.172H778.905Z" fill="white"/>
<path d="M791.648 542.172C791.413 542.172 791.236 542.121 791.118 542.017C791.015 541.9 790.927 541.767 790.853 541.62L786.723 531.372C786.694 531.299 786.679 531.233 786.679 531.174C786.679 531.041 786.723 530.931 786.812 530.842C786.915 530.739 787.032 530.688 787.165 530.688H788.954C789.131 530.688 789.263 530.739 789.351 530.842C789.44 530.931 789.499 531.019 789.528 531.107L792.465 538.859L795.403 531.107C795.432 531.019 795.491 530.931 795.579 530.842C795.668 530.739 795.8 530.688 795.977 530.688H797.788C797.906 530.688 798.009 530.739 798.097 530.842C798.2 530.931 798.252 531.041 798.252 531.174C798.252 531.233 798.244 531.299 798.23 531.372L794.078 541.62C794.019 541.767 793.93 541.9 793.813 542.017C793.695 542.121 793.518 542.172 793.283 542.172H791.648Z" fill="white"/>
<path d="M800.796 542.172C800.649 542.172 800.524 542.121 800.421 542.017C800.318 541.914 800.266 541.789 800.266 541.642V531.218C800.266 531.071 800.318 530.945 800.421 530.842C800.524 530.739 800.649 530.688 800.796 530.688H802.629C802.791 530.688 802.916 530.739 803.005 530.842C803.108 530.945 803.159 531.071 803.159 531.218V541.642C803.159 541.789 803.108 541.914 803.005 542.017C802.916 542.121 802.791 542.172 802.629 542.172H800.796ZM800.708 528.789C800.546 528.789 800.413 528.744 800.31 528.656C800.222 528.553 800.178 528.42 800.178 528.258V526.668C800.178 526.521 800.222 526.396 800.31 526.293C800.413 526.19 800.546 526.138 800.708 526.138H802.718C802.88 526.138 803.012 526.19 803.115 526.293C803.218 526.396 803.27 526.521 803.27 526.668V528.258C803.27 528.42 803.218 528.553 803.115 528.656C803.012 528.744 802.88 528.789 802.718 528.789H800.708Z" fill="white"/>
<path d="M811.123 542.393C810.063 542.393 809.128 542.194 808.318 541.797C807.523 541.399 806.898 540.825 806.441 540.074C806 539.308 805.757 538.388 805.712 537.313C805.698 537.093 805.69 536.805 805.69 536.452C805.69 536.084 805.698 535.782 805.712 535.547C805.757 534.472 806 533.559 806.441 532.808C806.898 532.042 807.523 531.461 808.318 531.063C809.128 530.666 810.063 530.467 811.123 530.467C812.066 530.467 812.868 530.599 813.531 530.865C814.193 531.13 814.738 531.461 815.165 531.858C815.592 532.256 815.908 532.675 816.115 533.117C816.335 533.544 816.453 533.934 816.468 534.288C816.483 534.45 816.431 534.582 816.313 534.685C816.21 534.774 816.085 534.818 815.938 534.818H813.994C813.847 534.818 813.729 534.781 813.641 534.707C813.567 534.634 813.494 534.523 813.42 534.376C813.199 533.787 812.905 533.375 812.537 533.139C812.183 532.889 811.727 532.764 811.167 532.764C810.431 532.764 809.842 532.999 809.401 533.471C808.974 533.927 808.745 534.656 808.716 535.657C808.687 536.216 808.687 536.732 808.716 537.203C808.745 538.219 808.974 538.955 809.401 539.411C809.842 539.868 810.431 540.096 811.167 540.096C811.742 540.096 812.205 539.978 812.559 539.743C812.912 539.492 813.199 539.073 813.42 538.484C813.494 538.337 813.567 538.226 813.641 538.153C813.729 538.079 813.847 538.042 813.994 538.042H815.938C816.085 538.042 816.21 538.094 816.313 538.197C816.431 538.285 816.483 538.41 816.468 538.572C816.453 538.837 816.38 539.139 816.247 539.478C816.129 539.802 815.93 540.14 815.651 540.494C815.386 540.832 815.047 541.149 814.635 541.443C814.223 541.723 813.722 541.951 813.133 542.128C812.559 542.305 811.889 542.393 811.123 542.393Z" fill="white"/>
<path d="M823.718 542.393C822.084 542.393 820.788 541.922 819.831 540.979C818.874 540.037 818.359 538.697 818.285 536.96C818.271 536.813 818.263 536.629 818.263 536.408C818.263 536.172 818.271 535.988 818.285 535.856C818.344 534.751 818.594 533.794 819.036 532.985C819.493 532.175 820.118 531.557 820.913 531.13C821.708 530.688 822.643 530.467 823.718 530.467C824.911 530.467 825.912 530.717 826.722 531.218C827.532 531.704 828.143 532.388 828.555 533.272C828.967 534.14 829.173 535.149 829.173 536.297V536.761C829.173 536.908 829.122 537.034 829.019 537.137C828.916 537.24 828.783 537.291 828.621 537.291H821.289C821.289 537.291 821.289 537.313 821.289 537.358C821.289 537.402 821.289 537.439 821.289 537.468C821.304 537.983 821.399 538.462 821.576 538.903C821.767 539.33 822.04 539.676 822.393 539.941C822.761 540.207 823.196 540.339 823.696 540.339C824.108 540.339 824.454 540.28 824.734 540.162C825.014 540.03 825.242 539.883 825.419 539.721C825.595 539.559 825.721 539.426 825.794 539.323C825.927 539.146 826.03 539.043 826.103 539.014C826.192 538.97 826.317 538.948 826.479 538.948H828.378C828.525 538.948 828.643 538.992 828.732 539.08C828.835 539.169 828.879 539.279 828.864 539.411C828.849 539.647 828.724 539.934 828.489 540.273C828.268 540.611 827.944 540.943 827.517 541.267C827.09 541.591 826.552 541.863 825.905 542.084C825.272 542.29 824.543 542.393 823.718 542.393ZM821.289 535.436H826.17V535.37C826.17 534.796 826.074 534.295 825.883 533.868C825.691 533.441 825.411 533.102 825.043 532.852C824.675 532.602 824.234 532.477 823.718 532.477C823.203 532.477 822.761 532.602 822.393 532.852C822.025 533.102 821.745 533.441 821.554 533.868C821.377 534.295 821.289 534.796 821.289 535.37V535.436Z" fill="white"/>
<circle cx="1054.49" cy="156.978" r="26.5316" fill="#165E64"/>
<circle cx="1082.09" cy="515.861" r="26.5316" fill="#165E64"/>
<circle cx="643.978" cy="276.606" r="26.5316" fill="#165E64"/>
<path d="M835.257 202.223C835.257 227.634 814.657 248.234 789.246 248.234C763.835 248.234 743.236 227.634 743.236 202.223C743.236 176.812 763.835 156.213 789.246 156.213C814.657 156.213 835.257 176.812 835.257 202.223Z" fill="white"/>
<path d="M789.246 250.995C816.182 250.995 838.018 229.159 838.018 202.223C838.018 175.288 816.182 153.452 789.246 153.452C762.311 153.452 740.475 175.288 740.475 202.223C740.475 229.159 762.311 250.995 789.246 250.995Z" stroke="white" stroke-opacity="0.35" stroke-width="5.52128"/>
<path fill-rule="evenodd" clip-rule="evenodd" d="M789.246 240.347C810.301 240.347 827.369 223.278 827.369 202.223C827.369 181.169 810.301 164.1 789.246 164.1C768.191 164.1 751.123 181.169 751.123 202.223C751.123 223.278 768.191 240.347 789.246 240.347ZM789.246 248.234C814.657 248.234 835.257 227.634 835.257 202.223C835.257 176.812 814.657 156.213 789.246 156.213C763.835 156.213 743.236 176.812 743.236 202.223C743.236 227.634 763.835 248.234 789.246 248.234Z" fill="#145B5B"/>
<path d="M815.534 202.227C815.534 216.748 803.763 228.519 789.243 228.519C774.722 228.519 762.951 216.748 762.951 202.227C762.951 187.706 774.722 175.935 789.243 175.935C803.763 175.935 815.534 187.706 815.534 202.227Z" fill="#145B5B" fill-opacity="0.3"/>
<path d="M722.881 294.014C722.734 294.014 722.609 293.963 722.506 293.86C722.403 293.756 722.351 293.631 722.351 293.484V279.107C722.351 278.945 722.403 278.812 722.506 278.709C722.609 278.606 722.734 278.555 722.881 278.555H732.599C732.761 278.555 732.893 278.606 732.996 278.709C733.099 278.812 733.151 278.945 733.151 279.107V280.564C733.151 280.712 733.099 280.837 732.996 280.94C732.893 281.043 732.761 281.094 732.599 281.094H725.333V285.003H732.113C732.275 285.003 732.407 285.055 732.51 285.158C732.613 285.246 732.665 285.371 732.665 285.533V286.903C732.665 287.065 732.613 287.197 732.51 287.3C732.407 287.389 732.275 287.433 732.113 287.433H725.333V291.474H732.775C732.937 291.474 733.07 291.526 733.173 291.629C733.276 291.732 733.327 291.864 733.327 292.026V293.484C733.327 293.631 733.276 293.756 733.173 293.86C733.07 293.963 732.937 294.014 732.775 294.014H722.881Z" fill="white"/>
<path d="M736.355 294.014C736.207 294.014 736.082 293.963 735.979 293.86C735.876 293.756 735.825 293.631 735.825 293.484V283.06C735.825 282.913 735.876 282.788 735.979 282.684C736.082 282.581 736.207 282.53 736.355 282.53H738.077C738.224 282.53 738.35 282.581 738.453 282.684C738.556 282.788 738.607 282.913 738.607 283.06V283.811C738.916 283.399 739.329 283.053 739.844 282.773C740.374 282.478 741 282.324 741.721 282.309C743.4 282.28 744.57 282.935 745.233 284.275C745.571 283.686 746.057 283.214 746.69 282.861C747.338 282.493 748.052 282.309 748.833 282.309C749.598 282.309 750.29 282.486 750.909 282.839C751.542 283.192 752.035 283.73 752.388 284.451C752.756 285.158 752.941 286.056 752.941 287.146V293.484C752.941 293.631 752.889 293.756 752.786 293.86C752.683 293.963 752.558 294.014 752.41 294.014H750.599C750.452 294.014 750.327 293.963 750.224 293.86C750.121 293.756 750.069 293.631 750.069 293.484V287.322C750.069 286.66 749.974 286.137 749.782 285.754C749.591 285.357 749.333 285.077 749.009 284.915C748.685 284.753 748.325 284.672 747.927 284.672C747.603 284.672 747.279 284.753 746.955 284.915C746.632 285.077 746.367 285.357 746.16 285.754C745.954 286.137 745.851 286.66 745.851 287.322V293.484C745.851 293.631 745.8 293.756 745.697 293.86C745.594 293.963 745.468 294.014 745.321 294.014H743.51C743.348 294.014 743.216 293.963 743.113 293.86C743.024 293.756 742.98 293.631 742.98 293.484V287.322C742.98 286.66 742.877 286.137 742.671 285.754C742.465 285.357 742.2 285.077 741.876 284.915C741.552 284.753 741.206 284.672 740.838 284.672C740.499 284.672 740.168 284.76 739.844 284.937C739.52 285.099 739.255 285.371 739.049 285.754C738.843 286.137 738.74 286.66 738.74 287.322V293.484C738.74 293.631 738.688 293.756 738.585 293.86C738.482 293.963 738.357 294.014 738.21 294.014H736.355Z" fill="white"/>
<path d="M759.088 294.235C758.322 294.235 757.63 294.088 757.012 293.793C756.393 293.484 755.9 293.079 755.532 292.579C755.179 292.063 755.002 291.489 755.002 290.856C755.002 289.825 755.414 289.008 756.239 288.404C757.078 287.786 758.182 287.374 759.552 287.168L762.577 286.726V286.262C762.577 285.644 762.423 285.165 762.113 284.827C761.804 284.488 761.274 284.319 760.523 284.319C759.993 284.319 759.559 284.429 759.22 284.65C758.896 284.856 758.653 285.136 758.491 285.489C758.374 285.681 758.204 285.776 757.983 285.776H756.239C756.077 285.776 755.952 285.732 755.863 285.644C755.79 285.556 755.753 285.438 755.753 285.29C755.768 285.055 755.863 284.768 756.04 284.429C756.217 284.091 756.496 283.767 756.879 283.457C757.262 283.134 757.755 282.861 758.359 282.64C758.963 282.419 759.691 282.309 760.545 282.309C761.473 282.309 762.253 282.427 762.886 282.662C763.534 282.883 764.05 283.185 764.432 283.568C764.815 283.951 765.095 284.4 765.272 284.915C765.448 285.43 765.537 285.975 765.537 286.549V293.484C765.537 293.631 765.485 293.756 765.382 293.86C765.279 293.963 765.154 294.014 765.007 294.014H763.218C763.056 294.014 762.923 293.963 762.82 293.86C762.732 293.756 762.688 293.631 762.688 293.484V292.623C762.496 292.902 762.239 293.168 761.915 293.418C761.591 293.653 761.193 293.852 760.722 294.014C760.266 294.161 759.721 294.235 759.088 294.235ZM759.839 292.137C760.354 292.137 760.818 292.026 761.23 291.806C761.657 291.585 761.988 291.246 762.224 290.79C762.474 290.319 762.599 289.73 762.599 289.023V288.559L760.391 288.912C759.522 289.045 758.874 289.258 758.447 289.553C758.02 289.847 757.807 290.208 757.807 290.635C757.807 290.959 757.903 291.239 758.094 291.474C758.3 291.695 758.558 291.864 758.867 291.982C759.176 292.085 759.5 292.137 759.839 292.137Z" fill="white"/>
<path d="M768.9 294.014C768.753 294.014 768.628 293.963 768.524 293.86C768.421 293.756 768.37 293.631 768.37 293.484V283.06C768.37 282.913 768.421 282.788 768.524 282.684C768.628 282.581 768.753 282.53 768.9 282.53H770.733C770.895 282.53 771.02 282.581 771.108 282.684C771.211 282.788 771.263 282.913 771.263 283.06V293.484C771.263 293.631 771.211 293.756 771.108 293.86C771.02 293.963 770.895 294.014 770.733 294.014H768.9ZM768.812 280.631C768.65 280.631 768.517 280.586 768.414 280.498C768.326 280.395 768.282 280.262 768.282 280.1V278.51C768.282 278.363 768.326 278.238 768.414 278.135C768.517 278.032 768.65 277.98 768.812 277.98H770.821C770.983 277.98 771.116 278.032 771.219 278.135C771.322 278.238 771.373 278.363 771.373 278.51V280.1C771.373 280.262 771.322 280.395 771.219 280.498C771.116 280.586 770.983 280.631 770.821 280.631H768.812Z" fill="white"/>
<path d="M774.745 294.014C774.598 294.014 774.473 293.963 774.37 293.86C774.267 293.756 774.215 293.631 774.215 293.484V278.864C774.215 278.716 774.267 278.591 774.37 278.488C774.473 278.385 774.598 278.334 774.745 278.334H776.578C776.726 278.334 776.851 278.385 776.954 278.488C777.057 278.591 777.108 278.716 777.108 278.864V293.484C777.108 293.631 777.057 293.756 776.954 293.86C776.851 293.963 776.726 294.014 776.578 294.014H774.745Z" fill="white"/>
<path d="M790.716 294.235C789.347 294.235 788.199 294.036 787.271 293.639C786.358 293.226 785.659 292.696 785.173 292.049C784.702 291.386 784.452 290.694 784.422 289.973C784.422 289.84 784.466 289.73 784.555 289.641C784.643 289.553 784.753 289.509 784.886 289.509H786.851C787.043 289.509 787.183 289.553 787.271 289.641C787.374 289.715 787.463 289.811 787.536 289.928C787.624 290.208 787.794 290.488 788.044 290.768C788.294 291.033 788.633 291.253 789.06 291.43C789.502 291.607 790.054 291.695 790.716 291.695C791.776 291.695 792.564 291.518 793.079 291.165C793.61 290.812 793.875 290.333 793.875 289.73C793.875 289.303 793.735 288.964 793.455 288.714C793.175 288.449 792.741 288.213 792.152 288.007C791.578 287.786 790.812 287.558 789.855 287.322C788.751 287.057 787.823 286.741 787.072 286.373C786.336 285.99 785.777 285.511 785.394 284.937C785.026 284.363 784.842 283.634 784.842 282.751C784.842 281.897 785.07 281.138 785.526 280.476C785.998 279.813 786.66 279.291 787.514 278.908C788.383 278.525 789.413 278.334 790.606 278.334C791.563 278.334 792.41 278.466 793.146 278.731C793.882 278.982 794.493 279.32 794.979 279.747C795.465 280.159 795.833 280.608 796.083 281.094C796.348 281.565 796.488 282.029 796.503 282.486C796.503 282.603 796.459 282.714 796.37 282.817C796.297 282.905 796.186 282.949 796.039 282.949H793.985C793.867 282.949 793.749 282.92 793.632 282.861C793.514 282.802 793.418 282.692 793.345 282.53C793.256 282.073 792.969 281.683 792.483 281.359C791.997 281.035 791.372 280.873 790.606 280.873C789.811 280.873 789.17 281.021 788.685 281.315C788.199 281.61 787.956 282.066 787.956 282.684C787.956 283.097 788.074 283.443 788.309 283.722C788.559 283.987 788.95 284.223 789.48 284.429C790.024 284.635 790.738 284.856 791.622 285.092C792.873 285.371 793.897 285.695 794.692 286.063C795.487 286.432 796.068 286.903 796.436 287.477C796.805 288.036 796.989 288.75 796.989 289.619C796.989 290.591 796.724 291.423 796.193 292.115C795.678 292.792 794.949 293.315 794.007 293.683C793.065 294.051 791.968 294.235 790.716 294.235Z" fill="white"/>
<path d="M804.202 294.235C802.567 294.235 801.272 293.764 800.315 292.822C799.358 291.879 798.842 290.539 798.769 288.802C798.754 288.655 798.747 288.471 798.747 288.25C798.747 288.014 798.754 287.83 798.769 287.698C798.828 286.594 799.078 285.636 799.52 284.827C799.976 284.017 800.602 283.399 801.397 282.972C802.192 282.53 803.127 282.309 804.202 282.309C805.394 282.309 806.395 282.559 807.205 283.06C808.015 283.546 808.626 284.23 809.038 285.114C809.45 285.982 809.657 286.991 809.657 288.139V288.603C809.657 288.75 809.605 288.876 809.502 288.979C809.399 289.082 809.266 289.133 809.104 289.133H801.772C801.772 289.133 801.772 289.155 801.772 289.2C801.772 289.244 801.772 289.281 801.772 289.31C801.787 289.825 801.883 290.304 802.059 290.746C802.251 291.172 802.523 291.518 802.876 291.784C803.245 292.049 803.679 292.181 804.179 292.181C804.592 292.181 804.938 292.122 805.218 292.004C805.497 291.872 805.725 291.725 805.902 291.563C806.079 291.401 806.204 291.268 806.278 291.165C806.41 290.988 806.513 290.885 806.587 290.856C806.675 290.812 806.8 290.79 806.962 290.79H808.862C809.009 290.79 809.127 290.834 809.215 290.922C809.318 291.011 809.362 291.121 809.347 291.253C809.333 291.489 809.208 291.776 808.972 292.115C808.751 292.453 808.427 292.785 808 293.109C807.573 293.433 807.036 293.705 806.388 293.926C805.755 294.132 805.026 294.235 804.202 294.235ZM801.772 287.278H806.653V287.212C806.653 286.638 806.557 286.137 806.366 285.71C806.175 285.283 805.895 284.944 805.527 284.694C805.159 284.444 804.717 284.319 804.202 284.319C803.686 284.319 803.245 284.444 802.876 284.694C802.508 284.944 802.229 285.283 802.037 285.71C801.861 286.137 801.772 286.638 801.772 287.212V287.278Z" fill="white"/>
<path d="M812.531 294.014C812.384 294.014 812.259 293.963 812.156 293.86C812.052 293.756 812.001 293.631 812.001 293.484V283.082C812.001 282.92 812.052 282.788 812.156 282.684C812.259 282.581 812.384 282.53 812.531 282.53H814.32C814.467 282.53 814.592 282.581 814.695 282.684C814.813 282.788 814.872 282.92 814.872 283.082V283.987C815.211 283.516 815.645 283.156 816.175 282.905C816.72 282.655 817.346 282.53 818.052 282.53H818.958C819.12 282.53 819.245 282.581 819.333 282.684C819.436 282.788 819.488 282.913 819.488 283.06V284.65C819.488 284.797 819.436 284.922 819.333 285.025C819.245 285.129 819.12 285.18 818.958 285.18H817.235C816.528 285.18 815.976 285.379 815.579 285.776C815.196 286.174 815.004 286.719 815.004 287.411V293.484C815.004 293.631 814.953 293.756 814.85 293.86C814.747 293.963 814.614 294.014 814.452 294.014H812.531Z" fill="white"/>
<path d="M825.274 294.014C825.038 294.014 824.862 293.963 824.744 293.86C824.641 293.742 824.552 293.609 824.479 293.462L820.349 283.214C820.319 283.141 820.305 283.075 820.305 283.016C820.305 282.883 820.349 282.773 820.437 282.684C820.54 282.581 820.658 282.53 820.791 282.53H822.579C822.756 282.53 822.889 282.581 822.977 282.684C823.065 282.773 823.124 282.861 823.154 282.949L826.091 290.701L829.028 282.949C829.058 282.861 829.117 282.773 829.205 282.684C829.293 282.581 829.426 282.53 829.603 282.53H831.414C831.531 282.53 831.634 282.581 831.723 282.684C831.826 282.773 831.877 282.883 831.877 283.016C831.877 283.075 831.87 283.141 831.855 283.214L827.703 293.462C827.644 293.609 827.556 293.742 827.438 293.86C827.32 293.963 827.144 294.014 826.908 294.014H825.274Z" fill="white"/>
<path d="M834.422 294.014C834.275 294.014 834.15 293.963 834.047 293.86C833.943 293.756 833.892 293.631 833.892 293.484V283.06C833.892 282.913 833.943 282.788 834.047 282.684C834.15 282.581 834.275 282.53 834.422 282.53H836.255C836.417 282.53 836.542 282.581 836.63 282.684C836.734 282.788 836.785 282.913 836.785 283.06V293.484C836.785 293.631 836.734 293.756 836.63 293.86C836.542 293.963 836.417 294.014 836.255 294.014H834.422ZM834.334 280.631C834.172 280.631 834.039 280.586 833.936 280.498C833.848 280.395 833.804 280.262 833.804 280.1V278.51C833.804 278.363 833.848 278.238 833.936 278.135C834.039 278.032 834.172 277.98 834.334 277.98H836.343C836.505 277.98 836.638 278.032 836.741 278.135C836.844 278.238 836.895 278.363 836.895 278.51V280.1C836.895 280.262 836.844 280.395 836.741 280.498C836.638 280.586 836.505 280.631 836.343 280.631H834.334Z" fill="white"/>
<path d="M844.749 294.235C843.689 294.235 842.754 294.036 841.944 293.639C841.149 293.241 840.523 292.667 840.067 291.916C839.625 291.15 839.382 290.23 839.338 289.155C839.323 288.935 839.316 288.647 839.316 288.294C839.316 287.926 839.323 287.624 839.338 287.389C839.382 286.314 839.625 285.401 840.067 284.65C840.523 283.884 841.149 283.303 841.944 282.905C842.754 282.508 843.689 282.309 844.749 282.309C845.691 282.309 846.494 282.442 847.156 282.707C847.819 282.972 848.364 283.303 848.791 283.7C849.218 284.098 849.534 284.518 849.74 284.959C849.961 285.386 850.079 285.776 850.094 286.13C850.108 286.292 850.057 286.424 849.939 286.527C849.836 286.616 849.711 286.66 849.564 286.66H847.62C847.473 286.66 847.355 286.623 847.267 286.549C847.193 286.476 847.119 286.365 847.046 286.218C846.825 285.629 846.531 285.217 846.162 284.981C845.809 284.731 845.353 284.606 844.793 284.606C844.057 284.606 843.468 284.841 843.026 285.313C842.599 285.769 842.371 286.498 842.342 287.499C842.312 288.058 842.312 288.574 842.342 289.045C842.371 290.061 842.599 290.797 843.026 291.253C843.468 291.71 844.057 291.938 844.793 291.938C845.367 291.938 845.831 291.82 846.185 291.585C846.538 291.334 846.825 290.915 847.046 290.326C847.119 290.179 847.193 290.068 847.267 289.995C847.355 289.921 847.473 289.884 847.62 289.884H849.564C849.711 289.884 849.836 289.936 849.939 290.039C850.057 290.127 850.108 290.252 850.094 290.414C850.079 290.679 850.005 290.981 849.873 291.32C849.755 291.644 849.556 291.982 849.276 292.336C849.011 292.674 848.673 292.991 848.261 293.285C847.848 293.565 847.348 293.793 846.759 293.97C846.185 294.147 845.515 294.235 844.749 294.235Z" fill="white"/>
<path d="M857.344 294.235C855.71 294.235 854.414 293.764 853.457 292.822C852.5 291.879 851.985 290.539 851.911 288.802C851.896 288.655 851.889 288.471 851.889 288.25C851.889 288.014 851.896 287.83 851.911 287.698C851.97 286.594 852.22 285.636 852.662 284.827C853.118 284.017 853.744 283.399 854.539 282.972C855.334 282.53 856.269 282.309 857.344 282.309C858.536 282.309 859.538 282.559 860.347 283.06C861.157 283.546 861.768 284.23 862.181 285.114C862.593 285.982 862.799 286.991 862.799 288.139V288.603C862.799 288.75 862.747 288.876 862.644 288.979C862.541 289.082 862.409 289.133 862.247 289.133H854.915C854.915 289.133 854.915 289.155 854.915 289.2C854.915 289.244 854.915 289.281 854.915 289.31C854.929 289.825 855.025 290.304 855.202 290.746C855.393 291.172 855.665 291.518 856.019 291.784C856.387 292.049 856.821 292.181 857.322 292.181C857.734 292.181 858.08 292.122 858.36 292.004C858.64 291.872 858.868 291.725 859.044 291.563C859.221 291.401 859.346 291.268 859.42 291.165C859.552 290.988 859.655 290.885 859.729 290.856C859.817 290.812 859.943 290.79 860.105 290.79H862.004C862.151 290.79 862.269 290.834 862.357 290.922C862.46 291.011 862.504 291.121 862.49 291.253C862.475 291.489 862.35 291.776 862.114 292.115C861.893 292.453 861.57 292.785 861.143 293.109C860.716 293.433 860.178 293.705 859.53 293.926C858.897 294.132 858.168 294.235 857.344 294.235ZM854.915 287.278H859.795V287.212C859.795 286.638 859.7 286.137 859.508 285.71C859.317 285.283 859.037 284.944 858.669 284.694C858.301 284.444 857.859 284.319 857.344 284.319C856.829 284.319 856.387 284.444 856.019 284.694C855.651 284.944 855.371 285.283 855.18 285.71C855.003 286.137 854.915 286.638 854.915 287.212V287.278Z" fill="white"/>
<path d="M1199.02 310.809C1199.02 336.22 1178.42 356.819 1153.01 356.819C1127.6 356.819 1107 336.22 1107 310.809C1107 285.398 1127.6 264.798 1153.01 264.798C1178.42 264.798 1199.02 285.398 1199.02 310.809Z" fill="white"/>
<path d="M1153.01 359.58C1179.95 359.58 1201.78 337.744 1201.78 310.809C1201.78 283.873 1179.95 262.037 1153.01 262.037C1126.08 262.037 1104.24 283.873 1104.24 310.809C1104.24 337.744 1126.08 359.58 1153.01 359.58Z" stroke="white" stroke-opacity="0.35" stroke-width="5.52128"/>
<path fill-rule="evenodd" clip-rule="evenodd" d="M1153.01 348.932C1174.07 348.932 1191.13 331.863 1191.13 310.809C1191.13 289.754 1174.07 272.685 1153.01 272.685C1131.96 272.685 1114.89 289.754 1114.89 310.809C1114.89 331.863 1131.96 348.932 1153.01 348.932ZM1153.01 356.819C1178.42 356.819 1199.02 336.22 1199.02 310.809C1199.02 285.398 1178.42 264.798 1153.01 264.798C1127.6 264.798 1107 285.398 1107 310.809C1107 336.22 1127.6 356.819 1153.01 356.819Z" fill="#145B5B"/>
<path d="M1179.3 310.812C1179.3 325.333 1167.53 337.104 1153.01 337.104C1138.49 337.104 1126.72 325.333 1126.72 310.812C1126.72 296.292 1138.49 284.52 1153.01 284.52C1167.53 284.52 1179.3 296.292 1179.3 310.812Z" fill="#145B5B" fill-opacity="0.3"/>
<path d="M1065.2 394.938C1065.05 394.938 1064.93 394.887 1064.82 394.783C1064.72 394.68 1064.67 394.555 1064.67 394.408V380.009C1064.67 379.861 1064.72 379.736 1064.82 379.633C1064.93 379.53 1065.05 379.479 1065.2 379.479H1067.28C1067.44 379.479 1067.56 379.53 1067.65 379.633C1067.75 379.736 1067.81 379.861 1067.81 380.009V394.408C1067.81 394.555 1067.75 394.68 1067.65 394.783C1067.56 394.887 1067.44 394.938 1067.28 394.938H1065.2Z" fill="white"/>
<path d="M1071.53 394.938C1071.39 394.938 1071.26 394.887 1071.16 394.783C1071.06 394.68 1071 394.555 1071 394.408V383.984C1071 383.837 1071.06 383.711 1071.16 383.608C1071.26 383.505 1071.39 383.454 1071.53 383.454H1073.35C1073.49 383.454 1073.62 383.505 1073.72 383.608C1073.82 383.711 1073.88 383.837 1073.88 383.984V384.889C1074.26 384.418 1074.74 384.028 1075.33 383.719C1075.94 383.395 1076.68 383.233 1077.56 383.233C1078.46 383.233 1079.24 383.439 1079.91 383.851C1080.57 384.249 1081.08 384.816 1081.43 385.552C1081.8 386.288 1081.98 387.171 1081.98 388.202V394.408C1081.98 394.555 1081.93 394.68 1081.83 394.783C1081.72 394.887 1081.6 394.938 1081.45 394.938H1079.51C1079.36 394.938 1079.24 394.887 1079.13 394.783C1079.03 394.68 1078.98 394.555 1078.98 394.408V388.335C1078.98 387.481 1078.76 386.811 1078.34 386.325C1077.92 385.839 1077.32 385.596 1076.53 385.596C1075.76 385.596 1075.15 385.839 1074.69 386.325C1074.24 386.811 1074.01 387.481 1074.01 388.335V394.408C1074.01 394.555 1073.96 394.68 1073.85 394.783C1073.75 394.887 1073.63 394.938 1073.48 394.938H1071.53Z" fill="white"/>
<path d="M1088.51 394.938C1088.27 394.938 1088.09 394.887 1087.97 394.783C1087.87 394.666 1087.78 394.533 1087.71 394.386L1083.58 384.138C1083.55 384.065 1083.54 383.999 1083.54 383.94C1083.54 383.807 1083.58 383.697 1083.67 383.608C1083.77 383.505 1083.89 383.454 1084.02 383.454H1085.81C1085.99 383.454 1086.12 383.505 1086.21 383.608C1086.3 383.697 1086.36 383.785 1086.38 383.873L1089.32 391.625L1092.26 383.873C1092.29 383.785 1092.35 383.697 1092.44 383.608C1092.52 383.505 1092.66 383.454 1092.83 383.454H1094.64C1094.76 383.454 1094.87 383.505 1094.95 383.608C1095.06 383.697 1095.11 383.807 1095.11 383.94C1095.11 383.999 1095.1 384.065 1095.09 384.138L1090.93 394.386C1090.88 394.533 1090.79 394.666 1090.67 394.783C1090.55 394.887 1090.37 394.938 1090.14 394.938H1088.51Z" fill="white"/>
<path d="M1101.66 395.159C1100.03 395.159 1098.73 394.688 1097.77 393.745C1096.82 392.803 1096.3 391.463 1096.23 389.726C1096.21 389.579 1096.21 389.395 1096.21 389.174C1096.21 388.938 1096.21 388.754 1096.23 388.622C1096.29 387.517 1096.54 386.56 1096.98 385.751C1097.43 384.941 1098.06 384.323 1098.86 383.896C1099.65 383.454 1100.59 383.233 1101.66 383.233C1102.85 383.233 1103.85 383.483 1104.66 383.984C1105.47 384.47 1106.08 385.154 1106.5 386.038C1106.91 386.906 1107.12 387.915 1107.12 389.063V389.527C1107.12 389.674 1107.06 389.8 1106.96 389.903C1106.86 390.006 1106.73 390.057 1106.56 390.057H1099.23C1099.23 390.057 1099.23 390.079 1099.23 390.124C1099.23 390.168 1099.23 390.205 1099.23 390.234C1099.25 390.749 1099.34 391.228 1099.52 391.669C1099.71 392.096 1099.98 392.442 1100.34 392.707C1100.7 392.973 1101.14 393.105 1101.64 393.105C1102.05 393.105 1102.4 393.046 1102.68 392.928C1102.96 392.796 1103.18 392.649 1103.36 392.487C1103.54 392.325 1103.66 392.192 1103.74 392.089C1103.87 391.912 1103.97 391.809 1104.05 391.78C1104.13 391.736 1104.26 391.714 1104.42 391.714H1106.32C1106.47 391.714 1106.59 391.758 1106.67 391.846C1106.78 391.935 1106.82 392.045 1106.81 392.177C1106.79 392.413 1106.67 392.7 1106.43 393.039C1106.21 393.377 1105.89 393.709 1105.46 394.033C1105.03 394.357 1104.49 394.629 1103.85 394.85C1103.21 395.056 1102.48 395.159 1101.66 395.159ZM1099.23 388.202H1104.11V388.136C1104.11 387.562 1104.02 387.061 1103.82 386.634C1103.63 386.207 1103.35 385.868 1102.99 385.618C1102.62 385.368 1102.18 385.243 1101.66 385.243C1101.14 385.243 1100.7 385.368 1100.34 385.618C1099.97 385.868 1099.69 386.207 1099.5 386.634C1099.32 387.061 1099.23 387.562 1099.23 388.136V388.202Z" fill="white"/>
<path d="M1109.99 394.938C1109.84 394.938 1109.72 394.887 1109.61 394.783C1109.51 394.68 1109.46 394.555 1109.46 394.408V383.984C1109.46 383.837 1109.51 383.711 1109.61 383.608C1109.72 383.505 1109.84 383.454 1109.99 383.454H1111.8C1111.95 383.454 1112.07 383.505 1112.18 383.608C1112.28 383.711 1112.33 383.837 1112.33 383.984V384.889C1112.71 384.418 1113.2 384.028 1113.79 383.719C1114.39 383.395 1115.14 383.233 1116.02 383.233C1116.92 383.233 1117.7 383.439 1118.36 383.851C1119.02 384.249 1119.53 384.816 1119.88 385.552C1120.25 386.288 1120.44 387.171 1120.44 388.202V394.408C1120.44 394.555 1120.38 394.68 1120.28 394.783C1120.18 394.887 1120.05 394.938 1119.91 394.938H1117.96C1117.82 394.938 1117.69 394.887 1117.59 394.783C1117.48 394.68 1117.43 394.555 1117.43 394.408V388.335C1117.43 387.481 1117.22 386.811 1116.79 386.325C1116.38 385.839 1115.78 385.596 1114.98 385.596C1114.22 385.596 1113.6 385.839 1113.15 386.325C1112.69 386.811 1112.46 387.481 1112.46 388.335V394.408C1112.46 394.555 1112.41 394.68 1112.31 394.783C1112.21 394.887 1112.08 394.938 1111.93 394.938H1109.99Z" fill="white"/>
<path d="M1128.3 394.938C1127.42 394.938 1126.67 394.783 1126.07 394.474C1125.47 394.165 1125.02 393.709 1124.72 393.105C1124.43 392.487 1124.28 391.721 1124.28 390.808V385.795H1122.54C1122.39 385.795 1122.27 385.743 1122.16 385.64C1122.06 385.537 1122.01 385.412 1122.01 385.265V383.984C1122.01 383.837 1122.06 383.711 1122.16 383.608C1122.27 383.505 1122.39 383.454 1122.54 383.454H1124.28V379.788C1124.28 379.64 1124.33 379.515 1124.41 379.412C1124.52 379.309 1124.65 379.258 1124.81 379.258H1126.6C1126.75 379.258 1126.87 379.309 1126.98 379.412C1127.08 379.515 1127.13 379.64 1127.13 379.788V383.454H1129.89C1130.04 383.454 1130.16 383.505 1130.27 383.608C1130.37 383.711 1130.42 383.837 1130.42 383.984V385.265C1130.42 385.412 1130.37 385.537 1130.27 385.64C1130.16 385.743 1130.04 385.795 1129.89 385.795H1127.13V390.587C1127.13 391.191 1127.23 391.662 1127.44 392.001C1127.66 392.339 1128.04 392.509 1128.57 392.509H1130.09C1130.24 392.509 1130.36 392.56 1130.47 392.663C1130.57 392.766 1130.62 392.892 1130.62 393.039V394.408C1130.62 394.555 1130.57 394.68 1130.47 394.783C1130.36 394.887 1130.24 394.938 1130.09 394.938H1128.3Z" fill="white"/>
<path d="M1137.66 395.159C1136.48 395.159 1135.49 394.953 1134.68 394.541C1133.88 394.128 1133.27 393.547 1132.84 392.796C1132.43 392.045 1132.2 391.169 1132.14 390.168C1132.12 389.903 1132.12 389.579 1132.12 389.196C1132.12 388.813 1132.12 388.489 1132.14 388.224C1132.2 387.208 1132.44 386.332 1132.87 385.596C1133.31 384.845 1133.93 384.264 1134.72 383.851C1135.53 383.439 1136.51 383.233 1137.66 383.233C1138.81 383.233 1139.78 383.439 1140.57 383.851C1141.38 384.264 1142 384.845 1142.43 385.596C1142.87 386.332 1143.12 387.208 1143.18 388.224C1143.2 388.489 1143.2 388.813 1143.2 389.196C1143.2 389.579 1143.2 389.903 1143.18 390.168C1143.12 391.169 1142.88 392.045 1142.45 392.796C1142.04 393.547 1141.43 394.128 1140.62 394.541C1139.82 394.953 1138.84 395.159 1137.66 395.159ZM1137.66 392.973C1138.44 392.973 1139.04 392.73 1139.47 392.244C1139.9 391.743 1140.13 391.014 1140.18 390.057C1140.19 389.836 1140.2 389.549 1140.2 389.196C1140.2 388.843 1140.19 388.555 1140.18 388.335C1140.13 387.392 1139.9 386.671 1139.47 386.17C1139.04 385.67 1138.44 385.419 1137.66 385.419C1136.88 385.419 1136.28 385.67 1135.85 386.17C1135.42 386.671 1135.19 387.392 1135.14 388.335C1135.13 388.555 1135.12 388.843 1135.12 389.196C1135.12 389.549 1135.13 389.836 1135.14 390.057C1135.19 391.014 1135.42 391.743 1135.85 392.244C1136.28 392.73 1136.88 392.973 1137.66 392.973Z" fill="white"/>
<path d="M1146.18 394.938C1146.03 394.938 1145.91 394.887 1145.8 394.783C1145.7 394.68 1145.65 394.555 1145.65 394.408V384.006C1145.65 383.844 1145.7 383.711 1145.8 383.608C1145.91 383.505 1146.03 383.454 1146.18 383.454H1147.97C1148.12 383.454 1148.24 383.505 1148.34 383.608C1148.46 383.711 1148.52 383.844 1148.52 384.006V384.911C1148.86 384.44 1149.29 384.08 1149.82 383.829C1150.37 383.579 1150.99 383.454 1151.7 383.454H1152.61C1152.77 383.454 1152.89 383.505 1152.98 383.608C1153.09 383.711 1153.14 383.837 1153.14 383.984V385.574C1153.14 385.721 1153.09 385.846 1152.98 385.949C1152.89 386.053 1152.77 386.104 1152.61 386.104H1150.88C1150.18 386.104 1149.63 386.303 1149.23 386.7C1148.84 387.098 1148.65 387.643 1148.65 388.335V394.408C1148.65 394.555 1148.6 394.68 1148.5 394.783C1148.4 394.887 1148.26 394.938 1148.1 394.938H1146.18Z" fill="white"/>
<path d="M1156.94 399.134C1156.82 399.134 1156.71 399.09 1156.63 399.002C1156.54 398.913 1156.49 398.81 1156.49 398.693C1156.49 398.634 1156.49 398.575 1156.49 398.516C1156.51 398.472 1156.54 398.413 1156.58 398.339L1158.3 394.253L1154.06 384.249C1154.01 384.102 1153.98 383.999 1153.98 383.94C1153.99 383.807 1154.04 383.697 1154.13 383.608C1154.22 383.505 1154.33 383.454 1154.46 383.454H1156.25C1156.43 383.454 1156.56 383.498 1156.65 383.586C1156.74 383.675 1156.8 383.77 1156.85 383.873L1159.78 391.095L1162.81 383.873C1162.85 383.756 1162.92 383.66 1163.01 383.586C1163.1 383.498 1163.23 383.454 1163.41 383.454H1165.17C1165.29 383.454 1165.39 383.498 1165.48 383.586C1165.59 383.675 1165.64 383.778 1165.64 383.896C1165.64 383.984 1165.61 384.102 1165.55 384.249L1159.3 398.715C1159.24 398.832 1159.17 398.928 1159.08 399.002C1158.99 399.09 1158.86 399.134 1158.68 399.134H1156.94Z" fill="white"/>
<path d="M1177.64 395.159C1176.27 395.159 1175.12 394.96 1174.19 394.563C1173.28 394.15 1172.58 393.62 1172.09 392.973C1171.62 392.31 1171.37 391.618 1171.34 390.897C1171.34 390.764 1171.39 390.654 1171.48 390.565C1171.56 390.477 1171.67 390.433 1171.81 390.433H1173.77C1173.96 390.433 1174.1 390.477 1174.19 390.565C1174.29 390.639 1174.38 390.735 1174.46 390.852C1174.55 391.132 1174.71 391.412 1174.96 391.692C1175.22 391.957 1175.55 392.177 1175.98 392.354C1176.42 392.531 1176.97 392.619 1177.64 392.619C1178.7 392.619 1179.48 392.442 1180 392.089C1180.53 391.736 1180.8 391.257 1180.8 390.654C1180.8 390.227 1180.66 389.888 1180.38 389.638C1180.1 389.373 1179.66 389.137 1179.07 388.931C1178.5 388.71 1177.73 388.482 1176.78 388.246C1175.67 387.981 1174.74 387.665 1173.99 387.297C1173.26 386.914 1172.7 386.435 1172.31 385.861C1171.95 385.287 1171.76 384.558 1171.76 383.675C1171.76 382.821 1171.99 382.062 1172.45 381.4C1172.92 380.737 1173.58 380.215 1174.43 379.832C1175.3 379.449 1176.33 379.258 1177.53 379.258C1178.48 379.258 1179.33 379.39 1180.07 379.655C1180.8 379.905 1181.41 380.244 1181.9 380.671C1182.39 381.083 1182.75 381.532 1183 382.018C1183.27 382.489 1183.41 382.953 1183.42 383.41C1183.42 383.527 1183.38 383.638 1183.29 383.741C1183.22 383.829 1183.11 383.873 1182.96 383.873H1180.91C1180.79 383.873 1180.67 383.844 1180.55 383.785C1180.43 383.726 1180.34 383.616 1180.27 383.454C1180.18 382.997 1179.89 382.607 1179.4 382.283C1178.92 381.959 1178.29 381.797 1177.53 381.797C1176.73 381.797 1176.09 381.945 1175.61 382.239C1175.12 382.534 1174.88 382.99 1174.88 383.608C1174.88 384.021 1174.99 384.367 1175.23 384.646C1175.48 384.911 1175.87 385.147 1176.4 385.353C1176.95 385.559 1177.66 385.78 1178.54 386.016C1179.79 386.295 1180.82 386.619 1181.61 386.987C1182.41 387.356 1182.99 387.827 1183.36 388.401C1183.73 388.96 1183.91 389.674 1183.91 390.543C1183.91 391.515 1183.64 392.347 1183.11 393.039C1182.6 393.716 1181.87 394.239 1180.93 394.607C1179.99 394.975 1178.89 395.159 1177.64 395.159Z" fill="white"/>
<path d="M1191.12 395.159C1189.49 395.159 1188.19 394.688 1187.24 393.745C1186.28 392.803 1185.76 391.463 1185.69 389.726C1185.67 389.579 1185.67 389.395 1185.67 389.174C1185.67 388.938 1185.67 388.754 1185.69 388.622C1185.75 387.517 1186 386.56 1186.44 385.751C1186.9 384.941 1187.52 384.323 1188.32 383.896C1189.11 383.454 1190.05 383.233 1191.12 383.233C1192.31 383.233 1193.32 383.483 1194.13 383.984C1194.94 384.47 1195.55 385.154 1195.96 386.038C1196.37 386.906 1196.58 387.915 1196.58 389.063V389.527C1196.58 389.674 1196.53 389.8 1196.42 389.903C1196.32 390.006 1196.19 390.057 1196.03 390.057H1188.69C1188.69 390.057 1188.69 390.079 1188.69 390.124C1188.69 390.168 1188.69 390.205 1188.69 390.234C1188.71 390.749 1188.8 391.228 1188.98 391.669C1189.17 392.096 1189.44 392.442 1189.8 392.707C1190.17 392.973 1190.6 393.105 1191.1 393.105C1191.51 393.105 1191.86 393.046 1192.14 392.928C1192.42 392.796 1192.65 392.649 1192.82 392.487C1193 392.325 1193.12 392.192 1193.2 392.089C1193.33 391.912 1193.43 391.809 1193.51 391.78C1193.6 391.736 1193.72 391.714 1193.88 391.714H1195.78C1195.93 391.714 1196.05 391.758 1196.14 391.846C1196.24 391.935 1196.28 392.045 1196.27 392.177C1196.25 392.413 1196.13 392.7 1195.89 393.039C1195.67 393.377 1195.35 393.709 1194.92 394.033C1194.49 394.357 1193.96 394.629 1193.31 394.85C1192.68 395.056 1191.95 395.159 1191.12 395.159ZM1188.69 388.202H1193.57V388.136C1193.57 387.562 1193.48 387.061 1193.29 386.634C1193.1 386.207 1192.82 385.868 1192.45 385.618C1192.08 385.368 1191.64 385.243 1191.12 385.243C1190.61 385.243 1190.17 385.368 1189.8 385.618C1189.43 385.868 1189.15 386.207 1188.96 386.634C1188.78 387.061 1188.69 387.562 1188.69 388.136V388.202Z" fill="white"/>
<path d="M1199.45 394.938C1199.3 394.938 1199.18 394.887 1199.08 394.783C1198.97 394.68 1198.92 394.555 1198.92 394.408V384.006C1198.92 383.844 1198.97 383.711 1199.08 383.608C1199.18 383.505 1199.3 383.454 1199.45 383.454H1201.24C1201.39 383.454 1201.51 383.505 1201.62 383.608C1201.73 383.711 1201.79 383.844 1201.79 384.006V384.911C1202.13 384.44 1202.57 384.08 1203.1 383.829C1203.64 383.579 1204.27 383.454 1204.97 383.454H1205.88C1206.04 383.454 1206.17 383.505 1206.25 383.608C1206.36 383.711 1206.41 383.837 1206.41 383.984V385.574C1206.41 385.721 1206.36 385.846 1206.25 385.949C1206.17 386.053 1206.04 386.104 1205.88 386.104H1204.16C1203.45 386.104 1202.9 386.303 1202.5 386.7C1202.12 387.098 1201.93 387.643 1201.93 388.335V394.408C1201.93 394.555 1201.87 394.68 1201.77 394.783C1201.67 394.887 1201.53 394.938 1201.37 394.938H1199.45Z" fill="white"/>
<path d="M1212.19 394.938C1211.96 394.938 1211.78 394.887 1211.66 394.783C1211.56 394.666 1211.47 394.533 1211.4 394.386L1207.27 384.138C1207.24 384.065 1207.23 383.999 1207.23 383.94C1207.23 383.807 1207.27 383.697 1207.36 383.608C1207.46 383.505 1207.58 383.454 1207.71 383.454H1209.5C1209.68 383.454 1209.81 383.505 1209.9 383.608C1209.99 383.697 1210.04 383.785 1210.07 383.873L1213.01 391.625L1215.95 383.873C1215.98 383.785 1216.04 383.697 1216.13 383.608C1216.21 383.505 1216.35 383.454 1216.52 383.454H1218.33C1218.45 383.454 1218.56 383.505 1218.64 383.608C1218.75 383.697 1218.8 383.807 1218.8 383.94C1218.8 383.999 1218.79 384.065 1218.78 384.138L1214.62 394.386C1214.57 394.533 1214.48 394.666 1214.36 394.783C1214.24 394.887 1214.06 394.938 1213.83 394.938H1212.19Z" fill="white"/>
<path d="M1221.34 394.938C1221.2 394.938 1221.07 394.887 1220.97 394.783C1220.86 394.68 1220.81 394.555 1220.81 394.408V383.984C1220.81 383.837 1220.86 383.711 1220.97 383.608C1221.07 383.505 1221.2 383.454 1221.34 383.454H1223.18C1223.34 383.454 1223.46 383.505 1223.55 383.608C1223.65 383.711 1223.71 383.837 1223.71 383.984V394.408C1223.71 394.555 1223.65 394.68 1223.55 394.783C1223.46 394.887 1223.34 394.938 1223.18 394.938H1221.34ZM1221.25 381.555C1221.09 381.555 1220.96 381.51 1220.86 381.422C1220.77 381.319 1220.72 381.186 1220.72 381.024V379.434C1220.72 379.287 1220.77 379.162 1220.86 379.059C1220.96 378.956 1221.09 378.904 1221.25 378.904H1223.26C1223.43 378.904 1223.56 378.956 1223.66 379.059C1223.76 379.162 1223.82 379.287 1223.82 379.434V381.024C1223.82 381.186 1223.76 381.319 1223.66 381.422C1223.56 381.51 1223.43 381.555 1223.26 381.555H1221.25Z" fill="white"/>
<path d="M1231.67 395.159C1230.61 395.159 1229.67 394.96 1228.86 394.563C1228.07 394.165 1227.44 393.591 1226.99 392.84C1226.55 392.074 1226.3 391.154 1226.26 390.079C1226.24 389.859 1226.24 389.571 1226.24 389.218C1226.24 388.85 1226.24 388.548 1226.26 388.313C1226.3 387.238 1226.55 386.325 1226.99 385.574C1227.44 384.808 1228.07 384.227 1228.86 383.829C1229.67 383.432 1230.61 383.233 1231.67 383.233C1232.61 383.233 1233.41 383.365 1234.08 383.631C1234.74 383.896 1235.28 384.227 1235.71 384.624C1236.14 385.022 1236.45 385.441 1236.66 385.883C1236.88 386.31 1237 386.7 1237.01 387.054C1237.03 387.216 1236.98 387.348 1236.86 387.451C1236.76 387.54 1236.63 387.584 1236.48 387.584H1234.54C1234.39 387.584 1234.28 387.547 1234.19 387.473C1234.11 387.4 1234.04 387.289 1233.97 387.142C1233.75 386.553 1233.45 386.141 1233.08 385.905C1232.73 385.655 1232.27 385.53 1231.71 385.53C1230.98 385.53 1230.39 385.765 1229.95 386.237C1229.52 386.693 1229.29 387.422 1229.26 388.423C1229.23 388.982 1229.23 389.498 1229.26 389.969C1229.29 390.985 1229.52 391.721 1229.95 392.177C1230.39 392.634 1230.98 392.862 1231.71 392.862C1232.29 392.862 1232.75 392.744 1233.11 392.509C1233.46 392.258 1233.75 391.839 1233.97 391.25C1234.04 391.103 1234.11 390.992 1234.19 390.919C1234.28 390.845 1234.39 390.808 1234.54 390.808H1236.48C1236.63 390.808 1236.76 390.86 1236.86 390.963C1236.98 391.051 1237.03 391.176 1237.01 391.338C1237 391.603 1236.93 391.905 1236.79 392.244C1236.68 392.568 1236.48 392.906 1236.2 393.26C1235.93 393.598 1235.59 393.915 1235.18 394.209C1234.77 394.489 1234.27 394.717 1233.68 394.894C1233.11 395.071 1232.44 395.159 1231.67 395.159Z" fill="white"/>
<path d="M1244.26 395.159C1242.63 395.159 1241.33 394.688 1240.38 393.745C1239.42 392.803 1238.91 391.463 1238.83 389.726C1238.82 389.579 1238.81 389.395 1238.81 389.174C1238.81 388.938 1238.82 388.754 1238.83 388.622C1238.89 387.517 1239.14 386.56 1239.58 385.751C1240.04 384.941 1240.66 384.323 1241.46 383.896C1242.25 383.454 1243.19 383.233 1244.26 383.233C1245.46 383.233 1246.46 383.483 1247.27 383.984C1248.08 384.47 1248.69 385.154 1249.1 386.038C1249.51 386.906 1249.72 387.915 1249.72 389.063V389.527C1249.72 389.674 1249.67 389.8 1249.56 389.903C1249.46 390.006 1249.33 390.057 1249.17 390.057H1241.84C1241.84 390.057 1241.84 390.079 1241.84 390.124C1241.84 390.168 1241.84 390.205 1241.84 390.234C1241.85 390.749 1241.95 391.228 1242.12 391.669C1242.31 392.096 1242.59 392.442 1242.94 392.707C1243.31 392.973 1243.74 393.105 1244.24 393.105C1244.65 393.105 1245 393.046 1245.28 392.928C1245.56 392.796 1245.79 392.649 1245.97 392.487C1246.14 392.325 1246.27 392.192 1246.34 392.089C1246.47 391.912 1246.58 391.809 1246.65 391.78C1246.74 391.736 1246.86 391.714 1247.03 391.714H1248.92C1249.07 391.714 1249.19 391.758 1249.28 391.846C1249.38 391.935 1249.43 392.045 1249.41 392.177C1249.4 392.413 1249.27 392.7 1249.03 393.039C1248.81 393.377 1248.49 393.709 1248.06 394.033C1247.64 394.357 1247.1 394.629 1246.45 394.85C1245.82 395.056 1245.09 395.159 1244.26 395.159ZM1241.84 388.202H1246.72V388.136C1246.72 387.562 1246.62 387.061 1246.43 386.634C1246.24 386.207 1245.96 385.868 1245.59 385.618C1245.22 385.368 1244.78 385.243 1244.26 385.243C1243.75 385.243 1243.31 385.368 1242.94 385.618C1242.57 385.868 1242.29 386.207 1242.1 386.634C1241.92 387.061 1241.84 387.562 1241.84 388.136V388.202Z" fill="white"/>
<path d="M970.667 388.15L971.449 387.766L971.109 386.964L963.577 369.213L976.403 368.19L978.417 368.03L976.974 366.616L947.527 337.758L945.963 336.225V338.415V380.873V383.132L947.541 381.516L956.562 372.285L964.058 390.3L964.434 391.204L965.313 390.773L970.667 388.15Z" fill="white" stroke="#022343" stroke-width="1.84043"/>
</svg>
