<!--
 Copyright 2023-2025 Solace Systems. All rights reserved.

 Licensed under the Apache License, Version 2.0 (the "License");
 you may not use this file except in compliance with the License.
 You may obtain a copy of the License at

     http://www.apache.org/licenses/LICENSE-2.0

 Unless required by applicable law or agreed to in writing, software
 distributed under the License is distributed on an "AS IS" BASIS,
 WITHOUT WARRANTIES OR CONDITIONS OF ANY KIND, either express or implied.
 See the License for the specific language governing permissions and
 limitations under the License.
-->
<svg width="1280" height="715" viewBox="0 0 1280 715" fill="none" xmlns="http://www.w3.org/2000/svg">
<rect width="1280" height="715" fill="#00CB90"/>
<rect width="659.235" height="163.235" transform="translate(0 185.471)" fill="black"/>
<path d="M53.1011 298.588L30.0737 234.164H44.1802L60.4839 281.845L76.2603 234.164H90.0591L66.9878 298.588H53.1011ZM94.937 245.59V234.164H107.286V245.59H94.937ZM94.937 298.588V251.918H107.286V298.588H94.937ZM162.789 298.588H151.319V291.733C149.415 294.399 147.159 296.391 144.551 297.709C141.973 298.998 139.366 299.643 136.729 299.643C131.368 299.643 126.768 297.49 122.93 293.183C119.122 288.847 117.217 282.812 117.217 275.077C117.217 267.167 119.078 261.161 122.798 257.06C126.519 252.929 131.221 250.864 136.905 250.864C142.12 250.864 146.631 253.032 150.44 257.368V234.164H162.789V298.588ZM129.83 274.243C129.83 279.223 130.518 282.827 131.895 285.053C133.887 288.276 136.67 289.887 140.245 289.887C143.086 289.887 145.503 288.686 147.496 286.284C149.488 283.852 150.484 280.234 150.484 275.429C150.484 270.068 149.517 266.215 147.583 263.871C145.65 261.498 143.174 260.312 140.157 260.312C137.227 260.312 134.766 261.484 132.774 263.827C130.811 266.142 129.83 269.614 129.83 274.243ZM202.032 283.735L214.336 285.8C212.754 290.312 210.25 293.754 206.822 296.127C203.423 298.471 199.161 299.643 194.034 299.643C185.918 299.643 179.913 296.992 176.016 291.689C172.94 287.441 171.402 282.079 171.402 275.605C171.402 267.87 173.423 261.821 177.466 257.455C181.509 253.061 186.622 250.864 192.803 250.864C199.747 250.864 205.225 253.163 209.239 257.763C213.252 262.333 215.171 269.35 214.996 278.813H184.058C184.146 282.475 185.142 285.331 187.046 287.382C188.951 289.404 191.324 290.414 194.166 290.414C196.099 290.414 197.725 289.887 199.043 288.832C200.362 287.778 201.358 286.078 202.032 283.735ZM202.735 271.254C202.647 267.68 201.724 264.97 199.966 263.124C198.208 261.249 196.07 260.312 193.55 260.312C190.855 260.312 188.628 261.293 186.871 263.256C185.113 265.219 184.249 267.885 184.278 271.254H202.735ZM222.247 274.594C222.247 270.493 223.257 266.523 225.279 262.685C227.3 258.847 230.157 255.917 233.848 253.896C237.569 251.874 241.714 250.864 246.285 250.864C253.345 250.864 259.131 253.163 263.643 257.763C268.155 262.333 270.411 268.119 270.411 275.121C270.411 282.182 268.125 288.041 263.555 292.7C259.014 297.328 253.287 299.643 246.373 299.643C242.095 299.643 238.008 298.676 234.112 296.743C230.245 294.809 227.3 291.982 225.279 288.261C223.257 284.511 222.247 279.955 222.247 274.594ZM234.903 275.253C234.903 279.882 236.001 283.427 238.199 285.888C240.396 288.349 243.106 289.579 246.329 289.579C249.551 289.579 252.247 288.349 254.415 285.888C256.612 283.427 257.71 279.853 257.71 275.165C257.71 270.595 256.612 267.079 254.415 264.618C252.247 262.158 249.551 260.927 246.329 260.927C243.106 260.927 240.396 262.158 238.199 264.618C236.001 267.079 234.903 270.624 234.903 275.253ZM305.215 234.164H328.99C334.351 234.164 338.438 234.575 341.25 235.395C345.03 236.508 348.267 238.486 350.962 241.327C353.658 244.169 355.708 247.656 357.115 251.786C358.521 255.888 359.224 260.956 359.224 266.992C359.224 272.294 358.565 276.865 357.247 280.702C355.635 285.39 353.335 289.184 350.347 292.084C348.091 294.282 345.044 295.995 341.207 297.226C338.335 298.134 334.498 298.588 329.693 298.588H305.215V234.164ZM318.223 245.063V287.734H327.935C331.568 287.734 334.19 287.529 335.801 287.118C337.911 286.591 339.654 285.698 341.031 284.438C342.437 283.178 343.58 281.113 344.458 278.242C345.337 275.341 345.777 271.401 345.777 266.42C345.777 261.44 345.337 257.617 344.458 254.951C343.58 252.285 342.349 250.204 340.767 248.71C339.185 247.216 337.178 246.205 334.747 245.678C332.93 245.268 329.371 245.063 324.068 245.063H318.223ZM397.237 283.735L409.542 285.8C407.959 290.312 405.455 293.754 402.027 296.127C398.628 298.471 394.366 299.643 389.239 299.643C381.124 299.643 375.118 296.992 371.221 291.689C368.145 287.441 366.607 282.079 366.607 275.605C366.607 267.87 368.628 261.821 372.671 257.455C376.714 253.061 381.827 250.864 388.008 250.864C394.952 250.864 400.43 253.163 404.444 257.763C408.458 262.333 410.376 269.35 410.201 278.813H379.263C379.351 282.475 380.347 285.331 382.251 287.382C384.156 289.404 386.529 290.414 389.371 290.414C391.304 290.414 392.93 289.887 394.249 288.832C395.567 287.778 396.563 286.078 397.237 283.735ZM397.94 271.254C397.852 267.68 396.929 264.97 395.171 263.124C393.414 261.249 391.275 260.312 388.755 260.312C386.06 260.312 383.833 261.293 382.076 263.256C380.318 265.219 379.454 267.885 379.483 271.254H397.94ZM419.385 251.918H430.767V258.29C434.839 253.339 439.688 250.864 445.313 250.864C448.301 250.864 450.894 251.479 453.091 252.709C455.289 253.94 457.09 255.8 458.497 258.29C460.547 255.8 462.759 253.94 465.132 252.709C467.505 251.479 470.04 250.864 472.735 250.864C476.163 250.864 479.063 251.567 481.436 252.973C483.809 254.35 485.582 256.386 486.753 259.081C487.603 261.074 488.028 264.296 488.028 268.749V298.588H475.679V271.913C475.679 267.285 475.254 264.296 474.405 262.949C473.262 261.191 471.504 260.312 469.131 260.312C467.403 260.312 465.777 260.839 464.253 261.894C462.73 262.949 461.631 264.501 460.958 266.552C460.284 268.574 459.947 271.782 459.947 276.176V298.588H447.598V273.012C447.598 268.471 447.378 265.541 446.939 264.223C446.5 262.905 445.811 261.923 444.874 261.279C443.965 260.634 442.72 260.312 441.138 260.312C439.234 260.312 437.52 260.825 435.997 261.85C434.473 262.875 433.375 264.355 432.701 266.288C432.056 268.222 431.734 271.43 431.734 275.912V298.588H419.385V251.918ZM497.52 274.594C497.52 270.493 498.531 266.523 500.552 262.685C502.574 258.847 505.43 255.917 509.122 253.896C512.842 251.874 516.988 250.864 521.558 250.864C528.619 250.864 534.405 253.163 538.917 257.763C543.428 262.333 545.684 268.119 545.684 275.121C545.684 282.182 543.399 288.041 538.829 292.7C534.288 297.328 528.56 299.643 521.646 299.643C517.369 299.643 513.282 298.676 509.385 296.743C505.518 294.809 502.574 291.982 500.552 288.261C498.531 284.511 497.52 279.955 497.52 274.594ZM510.176 275.253C510.176 279.882 511.275 283.427 513.472 285.888C515.669 288.349 518.379 289.579 521.602 289.579C524.825 289.579 527.52 288.349 529.688 285.888C531.885 283.427 532.984 279.853 532.984 275.165C532.984 270.595 531.885 267.079 529.688 264.618C527.52 262.158 524.825 260.927 521.602 260.927C518.379 260.927 515.669 262.158 513.472 264.618C511.275 267.079 510.176 270.624 510.176 275.253ZM551.045 285.273L563.438 283.383C563.965 285.785 565.035 287.617 566.646 288.876C568.257 290.107 570.513 290.722 573.414 290.722C576.607 290.722 579.009 290.136 580.621 288.964C581.705 288.144 582.247 287.045 582.247 285.668C582.247 284.731 581.954 283.954 581.368 283.339C580.752 282.753 579.375 282.211 577.237 281.713C567.276 279.516 560.962 277.509 558.296 275.693C554.605 273.173 552.759 269.672 552.759 265.19C552.759 261.147 554.356 257.748 557.549 254.994C560.743 252.241 565.694 250.864 572.403 250.864C578.79 250.864 583.536 251.904 586.641 253.984C589.747 256.064 591.885 259.14 593.057 263.212L581.412 265.366C580.914 263.549 579.961 262.158 578.555 261.191C577.178 260.224 575.201 259.741 572.623 259.741C569.371 259.741 567.042 260.195 565.635 261.103C564.698 261.747 564.229 262.582 564.229 263.608C564.229 264.487 564.639 265.234 565.459 265.849C566.573 266.669 570.411 267.827 576.973 269.321C583.565 270.815 588.165 272.646 590.772 274.814C593.35 277.011 594.639 280.073 594.639 283.998C594.639 288.276 592.852 291.952 589.278 295.029C585.704 298.105 580.416 299.643 573.414 299.643C567.056 299.643 562.017 298.354 558.296 295.776C554.605 293.198 552.188 289.697 551.045 285.273ZM607.867 264.267V251.918H620.215V264.267H607.867ZM607.867 298.588V286.24H620.215V298.588H607.867Z" fill="white"/>
<rect width="586.235" height="163.235" transform="translate(0 366.176)" fill="black"/>
<path d="M36.6655 479.294V414.87H84.4341V425.769H49.6733V440.051H82.0171V450.905H49.6733V468.44H85.6646V479.294H36.6655ZM109.439 479.294L90.6304 432.624H103.594L112.383 456.443L114.932 464.397C115.606 462.375 116.031 461.042 116.207 460.398C116.617 459.079 117.056 457.761 117.525 456.443L126.402 432.624H139.102L120.557 479.294H109.439ZM173.731 464.441L186.036 466.506C184.454 471.018 181.949 474.46 178.521 476.833C175.123 479.177 170.86 480.349 165.733 480.349C157.618 480.349 151.612 477.697 147.715 472.395C144.639 468.147 143.101 462.785 143.101 456.311C143.101 448.576 145.123 442.527 149.166 438.161C153.208 433.767 158.321 431.57 164.502 431.57C171.446 431.57 176.924 433.869 180.938 438.469C184.952 443.039 186.871 450.056 186.695 459.519H155.757C155.845 463.181 156.841 466.037 158.746 468.088C160.65 470.11 163.023 471.12 165.865 471.12C167.798 471.12 169.424 470.593 170.743 469.538C172.061 468.484 173.057 466.784 173.731 464.441ZM174.434 451.96C174.346 448.386 173.423 445.676 171.666 443.83C169.908 441.955 167.769 441.018 165.25 441.018C162.554 441.018 160.328 441.999 158.57 443.962C156.812 445.925 155.948 448.591 155.977 451.96H174.434ZM239.253 479.294H226.905V455.476C226.905 450.437 226.641 447.185 226.114 445.72C225.586 444.226 224.722 443.069 223.521 442.248C222.349 441.428 220.928 441.018 219.258 441.018C217.12 441.018 215.201 441.604 213.501 442.776C211.802 443.947 210.63 445.5 209.986 447.434C209.371 449.367 209.063 452.942 209.063 458.156V479.294H196.714V432.624H208.184V439.48C212.256 434.206 217.383 431.57 223.565 431.57C226.29 431.57 228.78 432.068 231.036 433.064C233.292 434.03 234.991 435.276 236.133 436.799C237.305 438.322 238.111 440.051 238.55 441.985C239.019 443.918 239.253 446.687 239.253 450.29V479.294ZM273.223 432.624V442.468H264.786V461.277C264.786 465.085 264.859 467.312 265.005 467.956C265.181 468.571 265.547 469.084 266.104 469.494C266.69 469.904 267.393 470.11 268.213 470.11C269.356 470.11 271.011 469.714 273.179 468.923L274.234 478.503C271.363 479.734 268.111 480.349 264.478 480.349C262.251 480.349 260.245 479.983 258.458 479.25C256.67 478.488 255.352 477.522 254.502 476.35C253.682 475.149 253.111 473.537 252.789 471.516C252.525 470.08 252.393 467.18 252.393 462.815V442.468H246.724V432.624H252.393V423.352L264.786 416.145V432.624H273.223ZM306.929 479.294V414.87H327.803C335.713 414.87 340.87 415.193 343.272 415.837C346.963 416.804 350.054 418.913 352.544 422.165C355.035 425.388 356.28 429.563 356.28 434.69C356.28 438.645 355.562 441.97 354.126 444.665C352.691 447.361 350.86 449.485 348.633 451.037C346.436 452.561 344.195 453.571 341.91 454.07C338.804 454.685 334.307 454.992 328.418 454.992H319.937V479.294H306.929ZM319.937 425.769V444.05H327.056C332.183 444.05 335.611 443.713 337.339 443.039C339.068 442.365 340.416 441.311 341.382 439.875C342.378 438.44 342.876 436.77 342.876 434.865C342.876 432.522 342.188 430.588 340.811 429.065C339.434 427.541 337.691 426.589 335.582 426.208C334.029 425.915 330.909 425.769 326.221 425.769H319.937ZM364.014 455.3C364.014 451.198 365.025 447.229 367.046 443.391C369.068 439.553 371.924 436.623 375.616 434.602C379.336 432.58 383.482 431.57 388.052 431.57C395.113 431.57 400.899 433.869 405.411 438.469C409.922 443.039 412.178 448.825 412.178 455.827C412.178 462.888 409.893 468.747 405.323 473.405C400.782 478.034 395.054 480.349 388.14 480.349C383.863 480.349 379.776 479.382 375.879 477.448C372.012 475.515 369.068 472.688 367.046 468.967C365.025 465.217 364.014 460.661 364.014 455.3ZM376.67 455.959C376.67 460.588 377.769 464.133 379.966 466.594C382.164 469.055 384.874 470.285 388.096 470.285C391.319 470.285 394.014 469.055 396.182 466.594C398.379 464.133 399.478 460.559 399.478 455.871C399.478 451.301 398.379 447.785 396.182 445.324C394.014 442.863 391.319 441.633 388.096 441.633C384.874 441.633 382.164 442.863 379.966 445.324C377.769 447.785 376.67 451.33 376.67 455.959ZM433.711 479.294H421.363V432.624H432.833V439.26C434.795 436.125 436.553 434.06 438.106 433.064C439.688 432.068 441.475 431.57 443.467 431.57C446.28 431.57 448.99 432.346 451.597 433.899L447.774 444.665C445.694 443.318 443.76 442.644 441.973 442.644C440.245 442.644 438.78 443.127 437.579 444.094C436.377 445.031 435.425 446.745 434.722 449.236C434.048 451.726 433.711 456.941 433.711 464.88V479.294ZM478.36 432.624V442.468H469.922V461.277C469.922 465.085 469.996 467.312 470.142 467.956C470.318 468.571 470.684 469.084 471.241 469.494C471.827 469.904 472.53 470.11 473.35 470.11C474.493 470.11 476.148 469.714 478.316 468.923L479.371 478.503C476.5 479.734 473.248 480.349 469.615 480.349C467.388 480.349 465.381 479.983 463.594 479.25C461.807 478.488 460.489 477.522 459.639 476.35C458.819 475.149 458.248 473.537 457.925 471.516C457.662 470.08 457.53 467.18 457.53 462.815V442.468H451.861V432.624H457.53V423.352L469.922 416.145V432.624H478.36ZM496.158 446.862L484.952 444.841C486.211 440.329 488.379 436.989 491.456 434.821C494.532 432.654 499.102 431.57 505.167 431.57C510.674 431.57 514.776 432.229 517.471 433.547C520.167 434.836 522.056 436.491 523.14 438.513C524.253 440.505 524.81 444.182 524.81 449.543L524.678 463.957C524.678 468.059 524.869 471.091 525.25 473.054C525.66 474.987 526.407 477.068 527.491 479.294H515.274C514.952 478.474 514.556 477.258 514.087 475.647C513.882 474.914 513.736 474.431 513.648 474.196C511.539 476.247 509.283 477.785 506.88 478.811C504.478 479.836 501.915 480.349 499.19 480.349C494.385 480.349 490.591 479.045 487.808 476.438C485.054 473.83 483.677 470.534 483.677 466.55C483.677 463.913 484.307 461.57 485.567 459.519C486.827 457.439 488.584 455.857 490.84 454.773C493.125 453.659 496.407 452.693 500.684 451.872C506.456 450.788 510.455 449.778 512.681 448.84V447.61C512.681 445.237 512.095 443.552 510.923 442.556C509.751 441.53 507.54 441.018 504.288 441.018C502.09 441.018 500.376 441.457 499.146 442.336C497.916 443.186 496.919 444.695 496.158 446.862ZM512.681 456.882C511.099 457.409 508.594 458.039 505.167 458.772C501.739 459.504 499.498 460.222 498.443 460.925C496.832 462.068 496.026 463.518 496.026 465.276C496.026 467.004 496.67 468.498 497.959 469.758C499.249 471.018 500.889 471.648 502.881 471.648C505.108 471.648 507.232 470.915 509.253 469.45C510.748 468.337 511.729 466.975 512.198 465.363C512.52 464.309 512.681 462.302 512.681 459.343V456.882ZM537.027 479.294V414.87H549.375V479.294H537.027Z" fill="white"/>
<path d="M1037.6 681.313H1039.62C1040.33 684.781 1041.66 687.228 1043.6 688.655C1045.55 690.082 1047.54 690.796 1049.58 690.796C1051.45 690.796 1052.82 690.378 1053.7 689.54C1054.58 688.703 1055.01 687.6 1055.01 686.232C1055.01 684.935 1054.54 683.826 1053.59 682.906C1053.07 682.41 1052.23 681.879 1051.07 681.313L1045.67 678.695C1042.82 677.304 1040.78 675.793 1039.55 674.166C1038.29 672.539 1037.67 670.616 1037.67 668.398C1037.67 665.591 1038.65 663.167 1040.62 661.126C1042.58 659.086 1045.33 658.066 1048.87 658.066C1050.41 658.066 1052.04 658.32 1053.77 658.826C1055.5 659.334 1056.58 659.587 1057.01 659.587C1057.6 659.587 1058.02 659.463 1058.27 659.215C1058.52 658.967 1058.72 658.62 1058.89 658.171H1060.49V668.645H1058.64C1057.95 666.191 1056.83 664.222 1055.26 662.735C1053.7 661.249 1051.87 660.506 1049.79 660.506C1048.18 660.506 1046.98 660.954 1046.18 661.851C1045.39 662.747 1044.99 663.714 1044.99 664.753C1044.99 665.601 1045.35 666.451 1046.06 667.3C1046.74 668.173 1048.05 669.069 1049.97 669.99L1053.95 671.901C1056.41 673.081 1058.21 674.224 1059.35 675.333C1061.25 677.22 1062.2 679.544 1062.2 682.303C1062.2 684.993 1061.22 687.5 1059.26 689.822C1057.31 692.147 1054.37 693.308 1050.46 693.308C1049.49 693.308 1048.51 693.208 1047.53 693.008C1046.55 692.808 1045.33 692.459 1043.89 691.964L1042.64 691.539C1042.19 691.375 1041.92 691.28 1041.81 691.257C1041.7 691.233 1041.56 691.221 1041.4 691.221C1041 691.221 1040.65 691.381 1040.35 691.699C1040.05 692.017 1039.72 692.554 1039.34 693.309H1037.6V681.313Z" fill="black"/>
<path d="M1069.26 663.054C1072.38 659.681 1076.29 657.993 1081.01 657.993C1085.82 657.993 1089.76 659.716 1092.83 663.16C1095.9 666.604 1097.43 670.78 1097.43 675.686C1097.43 680.522 1095.92 684.679 1092.88 688.159C1089.85 691.639 1085.89 693.379 1081.01 693.379C1076.27 693.379 1072.35 691.686 1069.24 688.301C1066.14 684.917 1064.59 680.711 1064.59 675.686C1064.59 670.638 1066.15 666.428 1069.26 663.054ZM1076.07 686.338C1076.9 689.475 1078.55 691.044 1081.01 691.044C1083.36 691.044 1084.9 689.841 1085.63 687.435C1086.37 685.028 1086.73 681.112 1086.73 675.687C1086.73 670.285 1086.35 666.375 1085.58 663.956C1084.81 661.538 1083.3 660.33 1081.05 660.33C1078.58 660.33 1076.94 661.899 1076.11 665.036C1075.56 667.136 1075.29 670.686 1075.29 675.687C1075.29 680.758 1075.55 684.31 1076.07 686.338Z" fill="black"/>
<path d="M1099.47 690.548C1100.75 690.242 1101.66 689.836 1102.19 689.328C1102.72 688.821 1102.99 687.765 1102.99 686.16V649.253C1102.99 647.705 1102.74 646.694 1102.24 646.217C1101.75 645.741 1100.82 645.35 1099.47 645.043V643.309H1113.27V686.161C1113.27 687.766 1113.53 688.815 1114.05 689.311C1114.57 689.807 1115.49 690.219 1116.82 690.55V692.283H1099.47V690.548Z" fill="black"/>
<path d="M1124.01 677.749C1127.16 675.835 1132.1 673.909 1138.83 671.971V666.699C1138.83 664.553 1138.38 662.967 1137.46 661.94C1136.55 660.914 1134.93 660.401 1132.61 660.401C1131.31 660.401 1130.24 660.643 1129.39 661.126C1128.55 661.61 1128.13 662.217 1128.13 662.949C1128.13 663.231 1128.18 663.469 1128.27 663.657C1128.37 663.846 1128.51 664.047 1128.7 664.259L1129.13 664.755C1129.46 665.157 1129.73 665.599 1129.93 666.082C1130.13 666.566 1130.23 667.078 1130.23 667.621C1130.23 668.989 1129.77 670.044 1128.86 670.788C1127.95 671.531 1126.89 671.903 1125.68 671.903C1124.28 671.903 1123.09 671.492 1122.11 670.668C1121.12 669.844 1120.63 668.656 1120.63 667.103C1120.63 664.327 1121.95 662.126 1124.58 660.504C1127.21 658.881 1130.44 658.068 1134.28 658.068C1138.4 658.068 1141.85 658.858 1144.63 660.439C1147.37 662.044 1148.75 664.992 1148.75 669.285V686.836C1148.75 687.356 1148.88 687.798 1149.16 688.163C1149.43 688.529 1149.73 688.711 1150.06 688.711C1150.35 688.711 1150.6 688.658 1150.83 688.552C1151.05 688.445 1151.4 688.157 1151.88 687.685L1152.98 689.206C1151.56 690.857 1149.98 692.014 1148.25 692.674C1147.16 693.098 1146.01 693.311 1144.8 693.311C1142.65 693.311 1141.07 692.685 1140.07 691.432C1139.51 690.722 1139.09 689.671 1138.83 688.276C1136.82 690.285 1134.54 691.702 1132 692.53C1130.46 693.05 1128.95 693.309 1127.45 693.309C1125.46 693.309 1123.6 692.676 1121.87 691.414C1120.14 690.15 1119.28 688.183 1119.28 685.513C1119.28 682.25 1120.86 679.663 1124.01 677.749ZM1136.7 687.078C1137.27 686.652 1137.95 685.991 1138.73 685.092V674.484C1136.78 674.957 1135.08 675.702 1133.61 676.719C1131.12 678.447 1129.88 680.646 1129.88 683.318C1129.88 684.904 1130.24 686.103 1130.96 686.919C1131.68 687.735 1132.49 688.143 1133.39 688.143C1134.58 688.143 1135.68 687.789 1136.7 687.078Z" fill="black"/>
<path d="M1179.46 660.224C1181.7 661.71 1182.82 663.62 1182.82 665.955C1182.82 667.206 1182.37 668.291 1181.49 669.211C1180.6 670.132 1179.46 670.592 1178.09 670.592C1177.17 670.592 1176.36 670.379 1175.67 669.955C1174.37 669.2 1173.72 667.832 1173.72 665.85C1173.72 665.638 1173.73 665.326 1173.75 664.912C1173.78 664.5 1173.79 664.057 1173.79 663.585C1173.79 662.311 1173.49 661.44 1172.9 660.967C1172.28 660.495 1171.59 660.259 1170.8 660.259C1168.55 660.259 1166.95 661.492 1166 663.957C1165.06 666.423 1164.58 669.247 1164.58 672.432C1164.58 676.961 1165.48 680.76 1167.28 683.827C1169.09 686.894 1171.51 688.428 1174.57 688.428C1176.49 688.428 1178.13 688.003 1179.48 687.153C1180.28 686.657 1181.28 685.75 1182.46 684.428L1183.81 685.667C1181.44 688.946 1178.67 691.199 1175.5 692.425C1173.81 693.061 1172.02 693.38 1170.13 693.38C1165.46 693.38 1161.64 691.717 1158.68 688.391C1155.72 685.064 1154.24 681.008 1154.24 676.217C1154.24 671.17 1155.81 666.87 1158.95 663.32C1162.09 659.769 1166.28 657.994 1171.51 657.994C1174.57 657.994 1177.22 658.737 1179.46 660.224Z" fill="black"/>
<path d="M1190.03 662.683C1193.01 659.605 1196.6 658.066 1200.8 658.066C1203.2 658.066 1205.45 658.692 1207.56 659.941C1209.67 661.192 1211.3 662.925 1212.44 665.142C1213.29 666.817 1213.89 668.988 1214.22 671.653C1214.38 672.903 1214.47 673.858 1214.47 674.519H1195.87C1196.04 677.42 1196.51 679.932 1197.3 682.055C1198.72 686.042 1201.23 688.035 1204.82 688.035C1206.53 688.035 1208.14 687.505 1209.66 686.443C1210.59 685.806 1211.74 684.733 1213.12 683.223L1214.79 684.249C1212.53 687.929 1209.92 690.489 1206.96 691.928C1205.04 692.848 1202.83 693.308 1200.34 693.308C1196.75 693.308 1193.39 691.905 1190.26 689.098C1187.13 686.29 1185.56 681.809 1185.56 675.651C1185.57 670.084 1187.05 665.761 1190.03 662.683ZM1205.51 671.829C1205.46 667.56 1205.13 664.575 1204.51 662.876C1203.89 661.177 1202.66 660.328 1200.8 660.328C1198.9 660.328 1197.6 661.307 1196.89 663.266C1196.19 665.225 1195.79 668.079 1195.7 671.829H1205.51Z" fill="black"/>
<path d="M1230.27 693.379C1236.97 693.379 1242.41 687.971 1242.41 681.301C1242.41 674.631 1236.97 669.223 1230.27 669.223C1223.57 669.223 1218.14 674.631 1218.14 681.301C1218.14 687.971 1223.57 693.379 1230.27 693.379Z" fill="black"/>
</svg>
