<?xml version="1.0" encoding="utf-8"?>
<!--
  Copyright 2023-2025 Solace Systems. All rights reserved.

  Licensed under the Apache License, Version 2.0 (the "License");
  you may not use this file except in compliance with the License.
  You may obtain a copy of the License at

      http://www.apache.org/licenses/LICENSE-2.0

  Unless required by applicable law or agreed to in writing, software
  distributed under the License is distributed on an "AS IS" BASIS,
  WITHOUT WARRANTIES OR CONDITIONS OF ANY KIND, either express or implied.
  See the License for the specific language governing permissions and
  limitations under the License.
-->
<svg width="16" height="16" viewBox="0 0 16 16" fill="none" xmlns="http://www.w3.org/2000/svg">
<path d="M4.75 5.5C5.16421 5.5 5.5 5.16421 5.5 4.75C5.5 4.33579 5.16421 4 4.75 4C4.33579 4 4 4.33579 4 4.75C4 5.16421 4.33579 5.5 4.75 5.5Z" fill="black"/>
<path fill-rule="evenodd" clip-rule="evenodd" d="M2 3.5C2 2.67157 2.67157 2 3.5 2H12.5C13.3284 2 14 2.67157 14 3.5V6C14 6.82843 13.3284 7.5 12.5 7.5H3.5C2.67157 7.5 2 6.82843 2 6V3.5ZM3.5 3.5H12.5V6H3.5V3.5Z" fill="black"/>
<path d="M5.5 11.25C5.5 11.6642 5.16421 12 4.75 12C4.33579 12 4 11.6642 4 11.25C4 10.8358 4.33579 10.5 4.75 10.5C5.16421 10.5 5.5 10.8358 5.5 11.25Z" fill="black"/>
<path fill-rule="evenodd" clip-rule="evenodd" d="M2 10C2 9.17157 2.67157 8.5 3.5 8.5H12.5C13.3284 8.5 14 9.17157 14 10V12.5C14 13.3284 13.3284 14 12.5 14H3.5C2.67157 14 2 13.3284 2 12.5V10ZM3.5 10H12.5V12.5H3.5V10Z" fill="black"/>
</svg>