<?xml version="1.0" encoding="UTF-8"?>
<svg id="Layer_1" data-name="Layer 1" xmlns="http://www.w3.org/2000/svg" viewBox="0 0 16 16">
  <defs>
    <style>
      .cls-1 {
        fill-rule: evenodd;
        stroke-width: 0px;
      }
    </style>
  </defs>
  <path class="cls-1" d="m4,4.75c0-.4142.3358-.75.75-.75s.75.3358.75.75-.3358.75-.75.75-.75-.3358-.75-.75Zm10-1.25v2.5c0,.8284-.6716,1.5-1.5,1.5H3.5c-.8284,0-1.5-.6716-1.5-1.5v-2.5c0-.8284.6716-1.5,1.5-1.5h9c.8284,0,1.5.6716,1.5,1.5Zm-1.5,0H3.5v2.5h9v-2.5Zm-7.75,8.5c.4142,0,.75-.3358.75-.75s-.3358-.75-.75-.75-.75.3358-.75.75.3358.75.75.75Zm9.25-2v2.5c0,.8284-.6716,1.5-1.5,1.5H3.5c-.8284,0-1.5-.6716-1.5-1.5v-2.5c0-.8284.6716-1.5,1.5-1.5h9c.8284,0,1.5.6716,1.5,1.5Zm-1.5,0H3.5v2.5h9v-2.5Z"/>
</svg>