<?xml version="1.0" encoding="UTF-8"?>
<svg id="Layer_1" data-name="Layer 1" xmlns="http://www.w3.org/2000/svg" viewBox="0 0 16 16">
  <defs>
    <style>
      .cls-1 {
        fill-rule: evenodd;
        stroke-width: 0px;
      }
    </style>
  </defs>
  <path class="cls-1" d="m9.5,8.4418v.7c0,.2209-.1791.4-.4.4h-2.2c-.2209,0-.4-.1791-.4-.4v-.7c0-.2209.1791-.4.4-.4h2.2c.2209,0,.4.1791.4.4Zm2.5-.9418v2.5h1.6c.2209,0,.4.1791.4.4v.7c0,.2209-.1791.4-.4.4h-1.8907c-.5933,1.4659-2.0305,2.5-3.7092,2.5s-3.1158-1.0341-3.7092-2.5h-1.8907c-.2209,0-.4-.1791-.4-.4v-.7c0-.2209.1791-.4.4-.4h1.6v-2.5h-1.6c-.2209,0-.4-.1791-.4-.4v-.7c0-.2209.1791-.4.4-.4h1.726c.1772-.6885.5331-1.3053,1.0154-1.7979l-1.0242-1.0243c-.1562-.1562-.1562-.4095,0-.5657l.4949-.4949c.1562-.1562.4095-.1562.5657,0l1.2177,1.2177c.4911-.2153,1.0339-.3348,1.6045-.3348.5699,0,1.1121.1192,1.6028.334l1.2169-1.2169c.1562-.1562.4094-.1562.5656,0l.495.4949c.1562.1562.1562.4095,0,.5657l-1.023,1.023c.4829.4929.8393,1.11,1.0167,1.7992h1.726c.2209,0,.4.1791.4.4v.7c0,.2209-.1791.4-.4.4h-1.6Zm-1.5-.5c0-1.3807-1.1193-2.5-2.5-2.5s-2.5,1.1193-2.5,2.5v3c0,1.3807,1.1193,2.5,2.5,2.5s2.5-1.1193,2.5-2.5v-3Z"/>
</svg>