<svg width="16" height="16" viewBox="0 0 16 16" fill="none" xmlns="http://www.w3.org/2000/svg">
<path d="M6.9 8.04175C6.67909 8.04175 6.5 8.22083 6.5 8.44175V9.14175C6.5 9.36266 6.67909 9.54175 6.9 9.54175H9.1C9.32091 9.54175 9.5 9.36266 9.5 9.14175V8.44175C9.5 8.22083 9.32091 8.04175 9.1 8.04175H6.9Z" fill="black"/>
<path fill-rule="evenodd" clip-rule="evenodd" d="M4.11716 3.17782C3.96095 3.02161 3.96095 2.76834 4.11716 2.61213L4.61213 2.11716C4.76834 1.96095 5.02161 1.96095 5.17782 2.11716L6.39548 3.33482C6.88664 3.11949 7.42936 3 8 3C8.56996 3 9.11207 3.11921 9.60277 3.33405L10.8197 2.11716C10.9759 1.96095 11.2291 1.96095 11.3853 2.11716L11.8803 2.61213C12.0365 2.76834 12.0365 3.02161 11.8803 3.17782L10.8573 4.20079C11.3402 4.69364 11.6966 5.31088 11.874 6H13.6C13.8209 6 14 6.17909 14 6.4V7.1C14 7.32091 13.8209 7.5 13.6 7.5H12V10H13.6C13.8209 10 14 10.1791 14 10.4V11.1C14 11.3209 13.8209 11.5 13.6 11.5H11.7092C11.1159 12.9659 9.67869 14 8 14C6.32131 14 4.88415 12.9659 4.29076 11.5H2.4C2.17909 11.5 2 11.3209 2 11.1V10.4C2 10.1791 2.17909 10 2.4 10H4V7.5H2.4C2.17909 7.5 2 7.32091 2 7.1V6.4C2 6.17909 2.17909 6 2.4 6H4.12602C4.30323 5.31148 4.65916 4.6947 5.1414 4.20206L4.11716 3.17782ZM5.5 7C5.5 5.61929 6.61929 4.5 8 4.5C9.38071 4.5 10.5 5.61929 10.5 7V10C10.5 11.3807 9.38071 12.5 8 12.5C6.61929 12.5 5.5 11.3807 5.5 10V7Z" fill="black"/>
</svg>
