<!--
 Copyright 2023-2025 Solace Systems. All rights reserved.

 Licensed under the Apache License, Version 2.0 (the "License");
 you may not use this file except in compliance with the License.
 You may obtain a copy of the License at

     http://www.apache.org/licenses/LICENSE-2.0

 Unless required by applicable law or agreed to in writing, software
 distributed under the License is distributed on an "AS IS" BASIS,
 WITHOUT WARRANTIES OR CONDITIONS OF ANY KIND, either express or implied.
 See the License for the specific language governing permissions and
 limitations under the License.
-->
<svg width="16" height="16" viewBox="0 0 16 16" fill="none" xmlns="http://www.w3.org/2000/svg">
<g clip-path="url(#clip0_8332_25914)">
<path fill-rule="evenodd" clip-rule="evenodd" d="M14.6668 8C14.6668 11.6819 11.6821 14.6667 8.00016 14.6667C4.31826 14.6667 1.3335 11.6819 1.3335 8C1.3335 4.3181 4.31826 1.33333 8.00016 1.33333C11.6821 1.33333 14.6668 4.3181 14.6668 8ZM12.0947 6.15043C12.1728 6.07232 12.1728 5.94569 12.0947 5.86759L11.4348 5.20762C11.3566 5.12951 11.23 5.12951 11.1519 5.20762L6.84049 9.51904L4.84721 7.52841C4.76905 7.45036 4.64242 7.45044 4.56436 7.5286L3.90484 8.189C3.82678 8.26716 3.82687 8.39379 3.90502 8.47185L6.69969 11.2628C6.77781 11.3408 6.90437 11.3408 6.98244 11.2627L12.0947 6.15043Z" fill="black"/>
</g>
<defs>
<clipPath id="clip0_8332_25914">
<rect width="16" height="16" fill="white"/>
</clipPath>
</defs>
</svg>
