<!--
 Copyright 2023-2025 Solace Systems. All rights reserved.

 Licensed under the Apache License, Version 2.0 (the "License");
 you may not use this file except in compliance with the License.
 You may obtain a copy of the License at

     http://www.apache.org/licenses/LICENSE-2.0

 Unless required by applicable law or agreed to in writing, software
 distributed under the License is distributed on an "AS IS" BASIS,
 WITHOUT WARRANTIES OR CONDITIONS OF ANY KIND, either express or implied.
 See the License for the specific language governing permissions and
 limitations under the License.
-->
<svg width="16" height="16" viewBox="0 0 16 16" fill="none" xmlns="http://www.w3.org/2000/svg">
<path fill-rule="evenodd" clip-rule="evenodd" d="M1 3.5C1 2.67157 1.67157 2 2.5 2H13.5C14.3284 2 15 2.67157 15 3.5V7.5C15 8.32843 14.3284 9 13.5 9H11.5V12.5H14.6C14.8209 12.5 15 12.6791 15 12.9V13.6C15 13.8209 14.8209 14 14.6 14H1.4C1.17909 14 1 13.8209 1 13.6V12.9C1 12.6791 1.17909 12.5 1.4 12.5H4.5V9H2.5C1.67157 9 1 8.32843 1 7.5V3.5ZM10 12.5V9H6V12.5H10ZM2.5 3.5H6L3.16563 7.5H2.5V3.5ZM5 7.5L7.82422 3.49609L11 3.5L8.17039 7.5H5ZM10 7.5H13.5V3.5H12.8203L10 7.5Z" fill="black"/>
</svg>
