<?xml version="1.0" encoding="UTF-8"?>
<svg id="Layer_1" data-name="Layer 1" xmlns="http://www.w3.org/2000/svg" viewBox="0 0 16 16">
  <defs>
    <style>
      .cls-1 {
        fill-rule: evenodd;
        stroke-width: 0px;
      }
    </style>
  </defs>
  <path class="cls-1" d="m1,3.5c0-.8284.6716-1.5,1.5-1.5h11c.8284,0,1.5.6716,1.5,1.5v4c0,.8284-.6716,1.5-1.5,1.5h-2v3.5h3.1c.2209,0,.4.1791.4.4v.7c0,.2209-.1791.4-.4.4H1.4c-.2209,0-.4-.1791-.4-.4v-.7c0-.2209.1791-.4.4-.4h3.1v-3.5h-2c-.8284,0-1.5-.6716-1.5-1.5V3.5Zm9,9v-3.5h-4v3.5h4ZM2.5,3.5h3.5l-2.8344,4h-.6656V3.5Zm2.5,4l2.8242-4.0039,3.1758.0039-2.8296,4h-3.1704Zm5,0h3.5V3.5h-.6797l-2.8203,4Z"/>
</svg>