<?xml version="1.0" encoding="UTF-8"?>
<svg id="Layer_1" data-name="Layer 1" xmlns="http://www.w3.org/2000/svg" viewBox="0 0 16 16">
  <defs>
    <style>
      .cls-1 {
        fill-rule: evenodd;
        stroke-width: 0px;
      }
    </style>
  </defs>
  <path class="cls-1" d="m5.4019,3.0118c.2048,0,.3728-.1563.4265-.354.2594-.9552,1.1334-1.6578,2.1717-1.6578s1.9123.7026,2.1717,1.6578c.0537.1977.2216.354.4264.354h1.9019c.8284,0,1.5.6716,1.5,1.5v3.4951h-1.5v-3.4966h-1.5v1.0985c0,.2209-.1791.4-.4.4h-5.2c-.2209,0-.4-.1791-.4-.4v-1.0985h-1.5v8.9912h3.5v1.4986h-3.5c-.8284,0-1.5-.6716-1.5-1.5V4.5118c0-.8284.6716-1.5,1.5-1.5h1.9019Zm3.3481.2497c0,.4138-.3358.7493-.75.7493s-.75-.3355-.75-.7493.3358-.7493.75-.7493.75.3354.75.7493Zm1.25,10.7395c.5564,0,1.0773-.1513,1.524-.415l1.2933,1.2921c.1562.1561.4095.1561.5657,0l.495-.4945c.1562-.156.1562-.4091,0-.5651l-1.2934-1.2921c.264-.4462.4154-.9667.4154-1.5225,0-1.6552-1.3431-2.9971-3-2.9971s-3,1.3418-3,2.9971,1.3432,2.9971,3,2.9971Zm0-1.4986c.8284,0,1.5-.6709,1.5-1.4985s-.6716-1.4985-1.5-1.4985-1.5.6709-1.5,1.4985.6716,1.4985,1.5,1.4985Z"/>
</svg>