<?xml version="1.0" encoding="UTF-8"?>
<svg id="Layer_1" data-name="Layer 1" xmlns="http://www.w3.org/2000/svg" viewBox="0 0 16 16">
  <defs>
    <style>
      .cls-1 {
        fill-rule: evenodd;
        stroke-width: 0px;
      }
    </style>
  </defs>
  <path class="cls-1" d="m7.3061,2.1772c.4412-.2347.9704-.2343,1.4112.0012l4.4894,2.3979c.4883.2608.7933.7695.7933,1.3231v4.2006c0,.554-.3053,1.0629-.7942,1.3235l-4.4988,2.3993c-.4411.2352-.9704.2353-1.4115.0001l-4.5011-2.3994c-.4889-.2606-.7944-.7696-.7944-1.3237v-4.1987c0-.5545.3059-1.0638.7955-1.3243l4.5106-2.3996Zm4.1999,3.1913l-3.4954-1.867-3.5124,1.8686,3.5019,1.6299,3.506-1.6315Zm-8.006,1.1856v3.5458l3.7505,1.9993v-3.8235l-3.7505-1.7216Zm5.2505,5.5456l3.7495-1.9996v-3.5456l-3.7495,1.7212v3.824Z"/>
</svg>