<svg width="16" height="16" viewBox="0 0 16 16" fill="none" xmlns="http://www.w3.org/2000/svg">
<g clip-path="url(#clip0_8411_27502)">
<path d="M10.3148 4.74533L8.00016 7.06L5.6855 4.74533C5.58083 4.64066 5.41216 4.64066 5.3075 4.74533L4.7455 5.30799C4.64083 5.41266 4.64083 5.58133 4.7455 5.686L7.06016 8L4.74616 10.314C4.6415 10.4187 4.6415 10.5873 4.74616 10.692L5.30816 11.254C5.41283 11.3587 5.5815 11.3587 5.68616 11.254L8.00016 8.94L10.3148 11.2547C10.4195 11.3593 10.5882 11.3593 10.6928 11.2547L11.2548 10.6927C11.3595 10.588 11.3595 10.4193 11.2548 10.3147L8.94016 8L11.2548 5.68533C11.3595 5.58066 11.3595 5.412 11.2548 5.30733L10.6928 4.74533C10.5882 4.64133 10.4188 4.64133 10.3148 4.74533ZM8.00016 1.33333C4.3335 1.33333 1.3335 4.33333 1.3335 8C1.3335 11.6667 4.3335 14.6667 8.00016 14.6667C11.6668 14.6667 14.6668 11.6667 14.6668 8C14.6668 4.33333 11.6668 1.33333 8.00016 1.33333ZM8.00016 2.66666C10.9335 2.66666 13.3335 5.06666 13.3335 8C13.3335 10.9333 10.9335 13.3333 8.00016 13.3333C5.06683 13.3333 2.66683 10.9333 2.66683 8C2.66683 5.06666 5.06683 2.66666 8.00016 2.66666Z" fill="black"/>
</g>
<defs>
<clipPath id="clip0_8411_27502">
<rect width="16" height="16" fill="white"/>
</clipPath>
</defs>
</svg>
