<svg width="12" height="12" viewBox="0 0 12 12" fill="none" xmlns="http://www.w3.org/2000/svg">
<path d="M1.56522 9.13043C1.56522 9.85081 2.14919 10.4348 2.86957 10.4348H4.95652V12H2.86957C1.28475 12 3.36133e-08 10.7153 0 9.13043V7.04348H1.56522V9.13043ZM12 9.13043C12 10.7153 10.7153 12 9.13043 12H7.04348V10.4348H9.13043C9.85081 10.4348 10.4348 9.85081 10.4348 9.13043V7.04348H12V9.13043ZM4.95652 1.56522H2.86957C2.14919 1.56522 1.56522 2.14919 1.56522 2.86957V4.95652H0V2.86957C3.36133e-08 1.28475 1.28475 0 2.86957 0H4.95652V1.56522ZM9.13043 0C10.7153 0 12 1.28475 12 2.86957V4.95652H10.4348V2.86957C10.4348 2.14919 9.85081 1.56522 9.13043 1.56522H7.04348V0H9.13043Z" fill="black"/>
</svg>
