<svg width="16" height="16" viewBox="0 0 16 16" fill="none" xmlns="http://www.w3.org/2000/svg">
<path d="M1.75 14C1.75 14.1381 1.86193 14.25 2 14.25H5V15.75H2C1.0335 15.75 0.25 14.9665 0.25 14V11H1.75V14ZM15.75 14C15.75 14.9665 14.9665 15.75 14 15.75H11V14.25H14C14.1381 14.25 14.25 14.1381 14.25 14V11H15.75V14ZM5 1.75H2C1.86193 1.75 1.75 1.86193 1.75 2V5H0.25V2C0.25 1.0335 1.0335 0.25 2 0.25H5V1.75ZM14 0.25C14.9665 0.25 15.75 1.0335 15.75 2V5H14.25V2C14.25 1.86193 14.1381 1.75 14 1.75H11V0.25H14Z" fill="black"/>
</svg>
