<?xml version="1.0" encoding="UTF-8"?>
<svg id="Layer_1" data-name="Layer 1" xmlns="http://www.w3.org/2000/svg" viewBox="0 0 16 16">
  <defs>
    <style>
      .cls-1 {
        stroke-width: 0px;
      }
    </style>
  </defs>
  <path class="cls-1" d="m12.3615,2.5779c.2006-.2006.1291-.5376-.153-.5671-.5789-.0603-1.1791.1314-1.6227.575-.5943.5942-.7364,1.4693-.4265,2.1979l-2.1561,2.1561-1.9716-1.9716.1855-.1855c.1562-.1562.1562-.4095,0-.5657l-.4385-.4385.9958-.9959c.1562-.1562.1577-.4146-.0318-.5283-.2864-.1718-.6203-.2545-.9643-.2545-.4797,0-.9397.1608-1.2789.4999-.0083.0083-.0166.0168-.0248.0253l-1.692,1.692c-.1562.1562-.1562.4095,0,.5657l.2172.2172h-.6709c-.2927,0-.4393.3539-.2323.5608l1.3423,1.3423c.207.207.5608.0604.5608-.2323v-.6708l.2171.2171c.1562.1562.4095.1562.5657,0l.1882-.1882,1.9716,1.9716-4.8215,4.8215c-.1562.1562-.1562.4094,0,.5657l.495.4949c.1562.1562.4095.1562.5657,0l4.5125-4.5125-.0008-.0008,1.4142-1.4142.0008.0008,2.1131-2.1131c.7276.3071,1.5999.1642,2.1927-.4286.4436-.4436.6353-1.0438.575-1.6227-.0294-.2821-.3665-.3536-.5671-.153l-.8903.8904s-.0013-.0015-.0038-.0008l-1.0524-1.0524c.0009-.0035.0001-.0046-.003-.0029l-.0029-.003.8918-.8918Zm-2.2378,6.4825l-1.0607,1.0606,3.759,3.759c.1562.1562.4095.1562.5657,0l.495-.4949c.1562-.1562.1562-.4095,0-.5657l-3.759-3.759Z"/>
</svg>