<?xml version="1.0" encoding="UTF-8"?>
<svg id="Layer_1" data-name="Layer 1" xmlns="http://www.w3.org/2000/svg" viewBox="0 0 16 16">
  <defs>
    <style>
      .cls-1 {
        fill-rule: evenodd;
        stroke-width: 0px;
      }
    </style>
  </defs>
  <path class="cls-1" d="m10.3972,6.705c.1563.1563.1563.4097,0,.5659l-2.6176,2.6174c-.1563.1563-.4097.1563-.566,0l-1.5564-1.5563c-.1562-.1562-.1562-.4096,0-.5659l.4952-.4952c.1562-.1562.4097-.1562.566,0l.7781.7781,1.8394-1.8392c.1563-.1562.4097-.1562.566,0l.4952.4952Zm4.4721,1.5966l-1.8685,1.7016v2.6011c0,.221-.1792.4002-.4002.4002h-2.6013l-1.6946,1.8645c-.1581.174-.4315.1748-.5907.0017l-1.7167-1.8662h-2.6013c-.221,0-.4002-.1792-.4002-.4002v-2.5854l-1.8666-1.7178c-.1725-.1587-.1722-.431.0006-.5894l1.866-1.7101v-2.6011c0-.221.1792-.4002.4002-.4002h2.6013l1.6952-1.869c.1583-.1745.4323-.1752.5914-.0016l1.7153,1.8706h2.6013c.221,0,.4002.1792.4002.4002v2.6011l1.869,1.7088c.1738.1589.1735.4327-.0005.5912Zm-1.8685-.2992l-1.5008-1.3792v-2.1222h-2.1223l-1.3791-1.5007-1.3796,1.5007h-2.1224v2.1222l-1.5004,1.3792,1.5004,1.3983v2.1032h2.1224l1.3793,1.5006,1.3794-1.5006h2.1223v-2.1223l1.5008-1.3793Z"/>
</svg>