<svg width="16" height="16" viewBox="0 0 16 16" fill="none" xmlns="http://www.w3.org/2000/svg">
<path d="M5.56358 7.63842C5.40057 7.79337 5.39732 8.05214 5.55639 8.21113L7.22698 9.8809C7.38326 10.0371 7.63664 10.0371 7.79291 9.88089L10.4102 7.26459C10.5665 7.10838 10.5665 6.85512 10.4102 6.69891L9.91508 6.20395C9.7588 6.04773 9.50542 6.04773 9.34914 6.20395L7.50995 8.04241L6.62885 7.16342C6.4753 7.01024 6.2276 7.00725 6.0704 7.15668L5.56358 7.63842Z" fill="#D9D9D9"/>
<path fill-rule="evenodd" clip-rule="evenodd" d="M7.7027 1.13052C7.86142 0.956486 8.13546 0.956494 8.29418 1.13054L9.88016 2.86971C9.95599 2.95286 10.0633 3.00024 10.1759 3.00024H12.6003C12.8213 3.00024 13.0005 3.17933 13.0005 3.40024V5.82444C13.0005 5.93647 13.0475 6.04337 13.1301 6.11913L14.8704 7.71581C15.0422 7.87343 15.0433 8.1439 14.8729 8.30293L13.1277 9.93091C13.0466 10.0066 13.0005 10.1125 13.0005 10.2233V12.6002C13.0005 12.8212 12.8213 13.0002 12.6003 13.0002H10.1748C10.0629 13.0002 9.95608 13.0471 9.8803 13.1295L8.28087 14.8677C8.12158 15.0408 7.84798 15.0398 7.68991 14.8656L6.11657 13.1315C6.04072 13.0479 5.93306 13.0002 5.82015 13.0002H3.39633C3.17532 13.0002 2.99615 12.8212 2.99615 12.6002V10.2236C2.99615 10.1126 2.94999 10.0065 2.86871 9.93088L1.12744 8.30989C0.957004 8.15123 0.957603 7.88116 1.12874 7.72325L2.86741 6.11903C2.94948 6.04331 2.99615 5.93675 2.99615 5.82511V3.40024C2.99615 3.17933 3.17532 3.00024 3.39633 3.00024H5.82077C5.93332 3.00024 6.04067 2.95286 6.1165 2.86972L7.7027 1.13052ZM7.99845 2.84399L9.30832 4.29662C9.3842 4.38077 9.49223 4.42881 9.60557 4.42881H11.5713V6.38947C11.5713 6.50522 11.6215 6.61529 11.7088 6.69126L13.2167 8.00241L11.7057 9.34467C11.6202 9.42058 11.5713 9.52939 11.5713 9.64366V11.5717H9.60695C9.49281 11.5717 9.3841 11.6204 9.30817 11.7056L8.00109 13.1719L6.68845 11.705C6.61253 11.6202 6.50405 11.5717 6.39018 11.5717H4.42535V9.64499C4.42535 9.52995 4.3758 9.42048 4.28935 9.34454L2.76638 8.00658L4.28702 6.69131C4.37487 6.61533 4.42535 6.50495 4.42535 6.38884V4.42881H6.39111C6.50444 4.42881 6.61246 4.38078 6.68834 4.29664L7.99845 2.84399Z" fill="#D9D9D9"/>
<path d="M6.98026 8.57338L7.51049 9.10233L8.04018 8.57285L9.63211 6.98154L9.63232 6.98175L7.50993 9.10331L6.7044 8.29818L6.98026 8.57338ZM7.7403 1.63623C7.7402 1.63612 7.7401 1.63601 7.74 1.6359L7.99843 1.40024L7.74 1.6359L7.7403 1.63623ZM6.21981 3.67881C6.22787 3.67583 6.2359 3.67276 6.24389 3.6696L6.23558 3.67881H6.21981ZM3.67183 6.23179C3.67302 6.22866 3.67419 6.22552 3.67535 6.22238V6.22875L3.67183 6.23179ZM3.67535 9.82633C3.67106 9.8147 3.6666 9.80314 3.66194 9.79166L3.67535 9.80344V9.82633ZM9.76112 3.67881L9.75282 3.66961C9.7608 3.67277 9.76882 3.67584 9.77687 3.67881H9.76112ZM12.3213 6.22994V6.2217C12.3228 6.22579 12.3243 6.22986 12.3259 6.23392L12.3213 6.22994ZM12.3213 9.80096L12.3362 9.78771C12.331 9.80041 12.3261 9.8132 12.3213 9.82608V9.80096ZM9.7637 12.3217H9.7758C9.76968 12.3239 9.76359 12.3263 9.75751 12.3286L9.7637 12.3217ZM6.23383 12.3217L6.24142 12.3302C6.23404 12.3273 6.22663 12.3244 6.21919 12.3217H6.23383ZM12.201 6.1253C12.2011 6.12541 12.2012 6.12551 12.2013 6.12562L12.201 6.1253Z" stroke="black" stroke-width="1.5"/>
</svg>
