<?xml version="1.0" encoding="UTF-8"?>
<svg id="Layer_1" data-name="Layer 1" xmlns="http://www.w3.org/2000/svg" viewBox="0 0 16 16">
  <defs>
    <style>
      .cls-1 {
        fill-rule: evenodd;
        stroke-width: 0px;
      }
    </style>
  </defs>
  <path class="cls-1" d="m8.0037,4.0014h-2.2186c-.5036,0-.9886.1898-1.3584.5317l-2.2923,2.119c-.1949.1802-.1637.4967.0627.6353l2.8047,1.7173,2.0007,2.0008.0015.0019,1.7472,2.8054c.1318.2117.423.2525.6081.0853l1.9873-1.7958c.4198-.3795.6595-.919.6595-1.4849v-2.6134c1.1055-1.1056,1.753-2.3029,1.9424-4.5029.0331-.3846.0522-.4766.0573-1.1007.0019-.2211-.1779-.4008-.3989-.399-.6241.0051-.7161.0242-1.1006.0573-2.1999.1894-3.3971.8369-4.5026,1.9426Zm.6188,6.7278l.7041,1.0563,1.1786-.9822v-1.5333s-1.8828,1.4592-1.8828,1.4592Zm1.8828-3.3469l.4396-.4396c.5462-.5463.9054-1.0639,1.1487-1.745.1523-.4265.2706-.8781.3406-1.6243-.7728.0535-1.1978.1883-1.6243.3406-.681.2433-1.1986.6025-1.7449,1.1488l-.4396.4396-2.1775,2.8256,1.232,1.232,2.8254-2.1778Zm-4.8816-1.8799l1.127-.0038-1.4719,1.8867-.9228-.6152,1.2676-1.2677Zm-1.6342,6.8643c.4198-.1399.5773-.2959.6334-.3713.048-.0645.0877-.1559.0793-.3337-.0041-.0874-.0429-.1784-.116-.2517-.0727-.0729-.1587-.1078-.2383-.111-.1838-.0075-.2785.0337-.344.0822-.0752.0558-.2306.2116-.37.6299-.0549.1647-.101.3315-.1398.4954.1639-.0387.3307-.0849.4954-.1398Zm-.6848,1.5047c-.3431.0596-.654.0991-.8889.1244-.2362.0254-.4312-.1671-.4078-.4035.0234-.2372.0614-.5513.1213-.8963.0591-.3404.1454-.7182.2713-1.096.4-1.2,1.1439-1.6347,2-1.6.8561.0348,1.5594.7433,1.6001,1.6.0407.8567-.4,1.6-1.6001,2-.3778.126-.7556.2123-1.0959.2714Z"/>
</svg>