<svg width="17" height="16" viewBox="0 0 17 16" fill="none" xmlns="http://www.w3.org/2000/svg">
<path d="M14.3241 10.2762C14.5526 10.4033 14.5526 10.7321 14.3241 10.8592L13.8553 11.119L8.82309 13.9159L8.74595 13.952C8.58787 14.0148 8.41083 14.0149 8.25278 13.952L8.17563 13.9159L2.67368 10.8592C2.44611 10.732 2.44613 10.4035 2.67368 10.2762L3.52134 9.80553L8.49985 12.5702L13.4764 9.80553L14.3241 10.2762Z" fill="black"/>
<path d="M14.3241 7.70788C14.5525 7.83497 14.5525 8.16375 14.3241 8.29088L13.8553 8.55065L8.82309 11.3475L8.74595 11.3837C8.58779 11.4466 8.41094 11.4465 8.25278 11.3837L8.17563 11.3475L2.67368 8.29088C2.44575 8.16369 2.44577 7.83508 2.67368 7.70788L3.52231 7.2362L8.49985 10.0008L13.4754 7.2362L14.3241 7.70788Z" fill="black"/>
<path fill-rule="evenodd" clip-rule="evenodd" d="M8.17563 2.08385C8.37732 1.97165 8.62339 1.97159 8.82505 2.08385L14.327 5.14635C14.5552 5.27344 14.5549 5.60206 14.327 5.72936L13.8563 5.9901L8.82505 8.79284L8.74692 8.82897C8.58857 8.89208 8.41213 8.89201 8.25376 8.82897L8.17563 8.79284L2.67368 5.72936C2.4454 5.60218 2.44533 5.27348 2.67368 5.14635L8.17563 2.08385ZM5.23423 5.43835L8.49985 7.2567L11.7655 5.43835L8.49985 3.61901L5.23423 5.43835Z" fill="black"/>
</svg>
