<?xml version="1.0" encoding="UTF-8"?>
<svg id="Layer_1" data-name="Layer 1" xmlns="http://www.w3.org/2000/svg" viewBox="0 0 16 16">
  <defs>
    <style>
      .cls-1 {
        fill-rule: evenodd;
        stroke-width: 0px;
      }
    </style>
  </defs>
  <path class="cls-1" d="m4.1172,8.2838c-.1562-.1562-.1562-.4094,0-.5657l1.9092-1.9092c.1562-.1562.4095-.1562.5657,0l.495.495c.1562.1562.1562.4094,0,.5657l-1.1313,1.1313,1.1313,1.1314c.1562.1562.1562.4094,0,.5657l-.495.4949c-.1562.1562-.4094.1562-.5657,0l-1.9092-1.9092Zm4.797,1.4142l.4949.4949c.1562.1563.4095.1563.5657,0l1.9092-1.9091c.1562-.1562.1562-.4095,0-.5657l-1.9091-1.9091c-.1562-.1562-.4095-.1562-.5657,0l-.495.495c-.1562.1562-.1562.4095,0,.5657l1.1313,1.1313-1.1313,1.1313c-.1562.1562-.1562.4095,0,.5657Zm5.0858-6.1981v9c0,.8284-.6716,1.5-1.5,1.5H3.5c-.8284,0-1.5-.6716-1.5-1.5V3.5c0-.8284.6716-1.5,1.5-1.5h9c.8284,0,1.5.6716,1.5,1.5Zm-1.5,0H3.5v9h9V3.5Z"/>
</svg>