<?xml version="1.0" encoding="utf-8"?>
<!--
  Copyright 2023-2025 Solace Systems. All rights reserved.

  Licensed under the Apache License, Version 2.0 (the "License");
  you may not use this file except in compliance with the License.
  You may obtain a copy of the License at

      http://www.apache.org/licenses/LICENSE-2.0

  Unless required by applicable law or agreed to in writing, software
  distributed under the License is distributed on an "AS IS" BASIS,
  WITHOUT WARRANTIES OR CONDITIONS OF ANY KIND, either express or implied.
  See the License for the specific language governing permissions and
  limitations under the License.
-->
<svg width="16" height="16" viewBox="0 0 16 16" fill="none" xmlns="http://www.w3.org/2000/svg">
<path d="M4.1172 7.71813C3.96097 7.87436 3.96097 8.12762 4.11718 8.28383L6.02637 10.193C6.18259 10.3492 6.43584 10.3492 6.59207 10.193L7.08701 9.69806C7.24325 9.54183 7.24325 9.28858 7.08704 9.13236L5.95566 8.00099L7.08701 6.86964C7.24325 6.7134 7.24325 6.46015 7.08704 6.30394L6.59205 5.80895C6.43584 5.65274 6.18259 5.65274 6.02635 5.80898L4.1172 7.71813Z" fill="black"/>
<path d="M11.884 8.28385C12.0402 8.12764 12.0402 7.87438 11.884 7.71815L9.97484 5.809C9.81861 5.65276 9.56536 5.65276 9.40915 5.80898L8.91416 6.30396C8.75795 6.46017 8.75795 6.71342 8.91418 6.86966L10.0455 8.00101L8.91416 9.13239C8.75795 9.2886 8.75795 9.54185 8.91418 9.69808L9.40912 10.193C9.56536 10.3493 9.81861 10.3493 9.97482 10.193L11.884 8.28385Z" fill="black"/>
<path fill-rule="evenodd" clip-rule="evenodd" d="M3.5 2C2.67157 2 2 2.67157 2 3.5V12.5C2 13.3284 2.67157 14 3.5 14H12.5C13.3284 14 14 13.3284 14 12.5V3.5C14 2.67157 13.3284 2 12.5 2H3.5ZM12.5 3.5H3.5V12.5H12.5V3.5Z" fill="black"/>
</svg>