<!--
 Copyright 2023-2025 Solace Systems. All rights reserved.

 Licensed under the Apache License, Version 2.0 (the "License");
 you may not use this file except in compliance with the License.
 You may obtain a copy of the License at

     http://www.apache.org/licenses/LICENSE-2.0

 Unless required by applicable law or agreed to in writing, software
 distributed under the License is distributed on an "AS IS" BASIS,
 WITHOUT WARRANTIES OR CONDITIONS OF ANY KIND, either express or implied.
 See the License for the specific language governing permissions and
 limitations under the License.
-->
<svg width="16" height="16" viewBox="0 0 16 16" fill="none" xmlns="http://www.w3.org/2000/svg">
<path fill-rule="evenodd" clip-rule="evenodd" d="M4.5 1C3.67157 1 3 1.67157 3 2.5V4C3 4.82843 3.67157 5.5 4.5 5.5L4.5 11.5C4.5 13.433 6.067 15 8 15C9.933 15 11.5 13.433 11.5 11.5V5.5C12.3284 5.5 13 4.82843 13 4V2.5C13 1.67157 12.3284 1 11.5 1H4.5ZM6 11.5V5.5H10V7H8.4C8.17909 7 8 7.17909 8 7.4V8.1C8 8.32091 8.17909 8.5 8.4 8.5H10V10H8.4C8.17909 10 8 10.1791 8 10.4V11.1C8 11.3209 8.17909 11.5 8.4 11.5H10C10 12.6046 9.10457 13.5 8 13.5C6.89543 13.5 6 12.6046 6 11.5ZM11.5 2.5H4.5V4H11.5V2.5Z" fill="black"/>
</svg>
