<?xml version="1.0" encoding="UTF-8"?>
<svg id="Layer_1" data-name="Layer 1" xmlns="http://www.w3.org/2000/svg" viewBox="0 0 16 16">
  <defs>
    <style>
      .cls-1 {
        fill-rule: evenodd;
        stroke-width: 0px;
      }
    </style>
  </defs>
  <path class="cls-1" d="m4.5,1c-.8284,0-1.5.6716-1.5,1.5v1.5c0,.8284.6716,1.5,1.5,1.5v6c0,1.933,1.567,3.5,3.5,3.5s3.5-1.567,3.5-3.5v-6c.8284,0,1.5-.6716,1.5-1.5v-1.5c0-.8284-.6716-1.5-1.5-1.5h-7Zm1.5,10.5v-6h4v1.5h-1.6c-.2209,0-.4.1791-.4.4v.7c0,.2209.1791.4.4.4h1.6v1.5h-1.6c-.2209,0-.4.1791-.4.4v.7c0,.2209.1791.4.4.4h1.6c0,1.1046-.8954,2-2,2s-2-.8954-2-2ZM11.5,2.5h-7v1.5h7v-1.5Z"/>
</svg>