<?xml version="1.0" encoding="UTF-8"?>
<svg id="Layer_1" data-name="Layer 1" xmlns="http://www.w3.org/2000/svg" viewBox="0 0 16 16">
  <defs>
    <style>
      .cls-1 {
        fill-rule: evenodd;
        stroke-width: 0px;
      }
    </style>
  </defs>
  <path class="cls-1" d="m4,3.5c0-.8284.6716-1.5,1.5-1.5h5c.8284,0,1.5.6716,1.5,1.5v1.5h1.5c.8284,0,1.5.6716,1.5,1.5v7.1c0,.2209-.1791.4-.4.4H1.4c-.2209,0-.4-.1791-.4-.4v-7.1c0-.8284.6716-1.5,1.5-1.5h1.5v-1.5Zm1.5,1.5h5v-1.5h-5v1.5Zm-3,1.5h11v2.2572h-3.5v-.3572c0-.2209-.1791-.4-.4-.4h-3.2c-.2209,0-.4.1791-.4.4v.3572h-3.5v-2.2572Zm0,3.7572v2.2428h11v-2.2428h-3.5v.3428c0,.2209-.1791.4-.4.4h-3.2c-.2209,0-.4-.1791-.4-.4v-.3428h-3.5Z"/>
</svg>