<?xml version="1.0" encoding="UTF-8"?>
<svg id="Layer_1" data-name="Layer 1" xmlns="http://www.w3.org/2000/svg" viewBox="0 0 16 16">
  <defs>
    <style>
      .cls-1 {
        stroke-width: 0px;
      }
    </style>
  </defs>
  <path class="cls-1" d="m7.4149,8.3535l2.5456-2.5456c.1562-.1562.4094-.1562.5657,0l.4949.495c.1562.1562.1562.4095,0,.5657l-3.3234,3.3234c-.1562.1562-.4095.1562-.5657,0l-1.9092-1.9092c-.1562-.1562-.1562-.4095,0-.5657l.495-.495c.1562-.1562.4095-.1562.5657,0l1.1314,1.1314Zm-3.718,3.6559c1.11,1.527,2.5118,2.5154,4.2055,2.9653.0639.017.1313.017.1952,0,1.6937-.4499,3.0955-1.4383,4.2055-2.9653,1.1313-1.5563,1.6969-3.2844,1.6969-5.1844v-3.5367c0-.1722-.1102-.325-.2735-.3795l-5.6-1.8667c-.0821-.0274-.1709-.0274-.253,0l-5.6,1.8667c-.1633.0545-.2735.2073-.2735.3795v3.5367c0,1.9.5656,3.6281,1.6969,5.1844Zm7.5281-1.0594c-.85,1.2375-1.925,2.0625-3.225,2.475-1.3-.4125-2.375-1.2375-3.225-2.475-.85-1.2375-1.275-2.6125-1.275-4.125l.0039-2.7391,4.4946-1.5228,4.5015,1.5278v2.734c0,1.5125-.425,2.8875-1.275,4.125Z"/>
</svg>