<svg width="130" height="130" viewBox="0 0 130 130" fill="none" xmlns="http://www.w3.org/2000/svg">
<path d="M118.767 63.287C118.767 93.1567 94.5533 117.371 64.6836 117.371C34.8137 117.371 10.5996 93.1567 10.5996 63.287C10.5996 33.4173 34.8137 9.203 64.6836 9.203C94.5533 9.203 118.767 33.4173 118.767 63.287Z" fill="#009193" fill-opacity="0.1"/>
<path d="M2.66064 118.364H127.699V119.356H2.66064V118.364Z" fill="#6A6A6A"/>
<path d="M93.3611 30.0857H36.0063C34.3621 30.0857 33.0292 31.4186 33.0292 33.0628V110.483C33.0292 112.127 34.3621 113.46 36.0063 113.46H93.3611C95.0053 113.46 96.3382 112.127 96.3382 110.483V33.0628C96.3382 31.4186 95.0053 30.0857 93.3611 30.0857Z" fill="white" stroke="#6A6A6A" stroke-width="2"/>
<path d="M37.2111 30.1092V106.455" stroke="#6A6A6A"/>
<path d="M95.3132 109.294H74.1694" stroke="#6A6A6A"/>
<path d="M95.3132 111.279H87.422" stroke="#6A6A6A"/>
<path d="M33.8296 106.736H95.3131" stroke="#6A6A6A" stroke-width="2"/>
<mask id="mask0_7860_1981" style="mask-type:luminance" maskUnits="userSpaceOnUse" x="60" y="49" width="11" height="9">
<path fill-rule="evenodd" clip-rule="evenodd" d="M60.7141 57.3661H60.218V54.1905C60.218 51.5597 62.4394 49.4271 65.1798 49.4271C67.9201 49.4271 70.1416 51.5597 70.1416 54.1905L70.1417 57.3661H69.6455V57.8131H68.157V54.6375C68.157 52.8837 66.8239 51.462 65.1798 51.462C63.5355 51.462 62.2027 52.8837 62.2027 54.6375V57.8131H60.7141V57.3661Z" fill="white"/>
</mask>
<g mask="url(#mask0_7860_1981)">
<path d="M60.7141 57.366H62.6989V55.3813H60.7141V57.366ZM60.2179 57.366H58.2332V59.3508H60.2179V57.366ZM70.1416 54.1905H68.1569V56.1752H70.1416V54.1905ZM70.1416 54.1905H72.1264V52.2057H70.1417L70.1416 54.1905ZM70.1417 57.366V59.3508H72.1264V57.366H70.1417ZM69.6455 57.366V55.3813H67.6608V57.366H69.6455ZM69.6455 57.8131V59.7978H71.6303V57.8131H69.6455ZM68.157 57.8131H66.1722V59.7978H68.157V57.8131ZM68.157 54.6375H70.1417V52.6386L68.1428 52.6529L68.157 54.6375ZM68.157 54.6375H66.1721V56.6365L68.1711 56.6223L68.157 54.6375ZM62.2027 57.8131V59.7978H64.1874V57.8131H62.2027ZM60.7141 57.8131H58.7294V59.7978H60.7141V57.8131ZM60.7141 55.3813H60.2179V59.3508H60.7141V55.3813ZM62.2027 57.366V54.1905H58.2332V57.366H62.2027ZM62.2027 54.1905C62.2027 52.7315 63.4584 51.4118 65.1798 51.4118V47.4424C61.4204 47.4424 58.2332 50.388 58.2332 54.1905H62.2027ZM65.1798 51.4118C66.9011 51.4118 68.1569 52.7315 68.1569 54.1905H72.1264C72.1264 50.388 68.9391 47.4424 65.1798 47.4424V51.4118ZM68.1569 54.1905L68.157 57.366H72.1264V54.1905H68.1569ZM70.1417 55.3813H69.6455V59.3508H70.1417V55.3813ZM71.6303 57.8131V57.366H67.6608V57.8131H71.6303ZM68.157 59.7978H69.6455V55.8284H68.157V59.7978ZM66.1721 54.6375L66.1722 57.8131H70.1417V54.6375H66.1721ZM65.1798 53.4467C65.6091 53.4467 66.1721 53.8572 66.1721 54.6375H70.1417C70.1417 51.9102 68.0388 49.4772 65.1798 49.4772V53.4467ZM64.1874 54.6375C64.1874 53.8572 64.7504 53.4467 65.1798 53.4467V49.4772C62.3207 49.4772 60.2179 51.9102 60.2179 54.6375H64.1874ZM64.1874 57.8131V54.6375H60.2179V57.8131H64.1874ZM60.7141 59.7978H62.2027V55.8284H60.7141V59.7978ZM58.7294 57.366V57.8131H62.6989V57.366H58.7294Z" fill="#6A6A6A"/>
</g>
<mask id="mask1_7860_1981" style="mask-type:luminance" maskUnits="userSpaceOnUse" x="58" y="56" width="15" height="12">
<path d="M58.2333 57.366C58.2333 56.8179 58.6776 56.3737 59.2256 56.3737H71.134C71.682 56.3737 72.1264 56.8179 72.1264 57.366V66.2973C72.1264 66.8454 71.682 67.2897 71.134 67.2897H59.2256C58.6776 67.2897 58.2333 66.8454 58.2333 66.2973V57.366Z" fill="white"/>
</mask>
<g mask="url(#mask1_7860_1981)">
<path d="M59.2256 58.3584H71.134V54.3889H59.2256V58.3584ZM70.1417 57.366V66.2973H74.1111V57.366H70.1417ZM71.134 65.3049H59.2256V69.2744H71.134V65.3049ZM60.218 66.2973V57.366H56.2485V66.2973H60.218ZM59.2256 65.3049C59.7736 65.3049 60.218 65.7492 60.218 66.2973H56.2485C56.2485 67.9416 57.5814 69.2744 59.2256 69.2744V65.3049ZM70.1417 66.2973C70.1417 65.7492 70.5859 65.3049 71.134 65.3049V69.2744C72.7782 69.2744 74.1111 67.9416 74.1111 66.2973H70.1417ZM71.134 58.3584C70.5859 58.3584 70.1417 57.9141 70.1417 57.366H74.1111C74.1111 55.7219 72.7782 54.3889 71.134 54.3889V58.3584ZM59.2256 54.3889C57.5814 54.3889 56.2485 55.7219 56.2485 57.366H60.218C60.218 57.9141 59.7736 58.3584 59.2256 58.3584V54.3889Z" fill="#6A6A6A"/>
</g>
<path fill-rule="evenodd" clip-rule="evenodd" d="M50.6085 80.646C50.6085 80.3719 50.8307 80.1498 51.1047 80.1498H79.2552C79.5292 80.1498 79.7513 80.3719 79.7513 80.646C79.7513 80.92 79.5292 81.1422 79.2552 81.1422H51.1047C50.8307 81.1422 50.6085 80.92 50.6085 80.646Z" fill="#6A6A6A"/>
<path fill-rule="evenodd" clip-rule="evenodd" d="M54.4208 89.7268C54.4208 89.4527 54.5847 89.2306 54.7871 89.2306H75.5725C75.7748 89.2306 75.9389 89.4527 75.9389 89.7268C75.9389 90.0008 75.7748 90.223 75.5725 90.223H54.7871C54.5847 90.223 54.4208 90.0008 54.4208 89.7268Z" fill="#6A6A6A"/>
<path fill-rule="evenodd" clip-rule="evenodd" d="M50.6085 85.1864C50.6085 84.9123 50.8307 84.6902 51.1047 84.6902H79.2552C79.5292 84.6902 79.7513 84.9123 79.7513 85.1864C79.7513 85.4604 79.5292 85.6826 79.2552 85.6826H51.1047C50.8307 85.6826 50.6085 85.4604 50.6085 85.1864Z" fill="#6A6A6A"/>
<path fill-rule="evenodd" clip-rule="evenodd" d="M65.9576 62.3743C66.5393 62.0872 66.9393 61.4881 66.9393 60.7955C66.9393 59.8237 66.1516 59.0359 65.1797 59.0359C64.2079 59.0359 63.4202 59.8237 63.4202 60.7955C63.4202 61.4882 63.8203 62.0873 64.402 62.3744V63.7027C64.402 64.1322 64.7502 64.4805 65.1798 64.4805C65.6094 64.4805 65.9576 64.1322 65.9576 63.7027V62.3743Z" fill="#6A6A6A"/>
<path d="M65.3146 72.4508C73.0137 72.4508 79.2551 66.2094 79.2551 58.5103C79.2551 50.8112 73.0137 44.5698 65.3146 44.5698C57.6155 44.5698 51.3741 50.8112 51.3741 58.5103C51.3741 66.2094 57.6155 72.4508 65.3146 72.4508Z" stroke="#6A6A6A"/>
</svg>
