<svg width="75" height="45" viewBox="0 0 75 45" fill="none" xmlns="http://www.w3.org/2000/svg">
<path d="M0 2C0 0.89543 0.895431 0 2 0H73C74.1046 0 75 0.895431 75 2V43C75 44.1046 74.1046 45 73 45H2C0.895429 45 0 44.1046 0 43V2Z" fill="white"/>
<path fill-rule="evenodd" clip-rule="evenodd" d="M73 1H2C1.44772 1 1 1.44772 1 2V43C1 43.5523 1.44771 44 2 44H73C73.5523 44 74 43.5523 74 43V2C74 1.44771 73.5523 1 73 1ZM2 0C0.895431 0 0 0.89543 0 2V43C0 44.1046 0.895429 45 2 45H73C74.1046 45 75 44.1046 75 43V2C75 0.895431 74.1046 0 73 0H2Z" fill="#6A6A6A"/>
<path d="M0 2C0 0.89543 0.895431 0 2 0H6V45H2C0.89543 45 0 44.1046 0 43V2Z" fill="#6A6A6A"/>
<rect opacity="0.2" x="10.5" y="4.5" width="59" height="9" rx="1.5" stroke="black"/>
<rect x="10.5" y="17.5" width="59" height="23" rx="1.5" fill="#00AD93" fill-opacity="0.1" stroke="#00AD93"/>
</svg>
