<svg width="88" height="88" viewBox="0 0 88 88" fill="none" xmlns="http://www.w3.org/2000/svg">
<path d="M48.9885 26.1832C49.1904 25.7696 49.6893 25.5979 50.1029 25.7998L57.2013 29.2648C57.6148 29.4667 57.7865 29.9656 57.5846 30.3792L54.6361 36.4194C54.4342 36.833 53.9353 37.0047 53.5217 36.8028L46.4233 33.3378C46.0097 33.1359 45.8381 32.637 46.04 32.2234L48.9885 26.1832Z" fill="white" stroke="#6A6A6A"/>
<path d="M39.9292 10.146C39.8035 9.70327 40.0605 9.24243 40.5032 9.11669L48.1016 6.95857C48.5443 6.83283 49.0051 7.08979 49.1309 7.53252L50.9673 13.9982C51.093 14.4409 50.8361 14.9018 50.3933 15.0275L42.795 17.1856C42.3522 17.3114 41.8914 17.0544 41.7657 16.6117L39.9292 10.146Z" fill="white" stroke="#6A6A6A"/>
<path d="M55.0098 42.2005C55.0098 41.7403 55.3829 41.3672 55.8431 41.3672L63.742 41.3672C64.2022 41.3672 64.5753 41.7403 64.5753 42.2005L64.5753 48.9219C64.5753 49.3822 64.2022 49.7553 63.742 49.7553L55.8431 49.7553C55.3829 49.7553 55.0098 49.3822 55.0098 48.9219L55.0098 42.2005Z" fill="white" stroke="#6A6A6A"/>
<path d="M24.8737 39.0409C24.9884 38.5951 25.4427 38.3268 25.8884 38.4414L33.5382 40.4095C33.9839 40.5241 34.2523 40.9784 34.1376 41.4242L32.463 47.9336C32.3483 48.3793 31.894 48.6477 31.4483 48.533L23.7985 46.565C23.3528 46.4503 23.0844 45.996 23.199 45.5503L24.8737 39.0409Z" fill="white" stroke="#6A6A6A"/>
<circle cx="46.7051" cy="45.6387" r="4.60745" fill="white" stroke="#6A6A6A"/>
<circle cx="33.8747" cy="24.7684" r="4.2035" transform="rotate(15 33.8747 24.7684)" fill="#00C895" stroke="#00C895"/>
<path d="M41.9316 27.9531L41.9316 39.2231" stroke="#6A6A6A" stroke-width="0.5" stroke-linecap="round"/>
<path d="M28.0176 25.8438L28.0176 37.1137" stroke="#6A6A6A" stroke-width="0.5" stroke-linecap="round"/>
<path d="M35.0625 4L35.0625 15.2699" stroke="#6A6A6A" stroke-width="0.5" stroke-linecap="round"/>
<path d="M33.4795 10.3359L33.4795 17.3797" stroke="#6A6A6A" stroke-width="0.5" stroke-linecap="round"/>
<path d="M29.957 30.0703L29.957 37.114" stroke="#6A6A6A" stroke-width="0.5" stroke-linecap="round"/>
<path d="M55.4883 15.2734L55.4883 22.3172" stroke="#6A6A6A" stroke-width="0.5" stroke-linecap="round"/>
<path d="M61.6533 26.5312L61.6533 37.8012" stroke="#6A6A6A" stroke-width="0.5" stroke-linecap="round"/>
<path d="M53.9053 6.82031L53.9053 24.4296" stroke="#6A6A6A" stroke-width="0.5" stroke-linecap="round"/>
<path d="M16.5439 46.888C16.5439 46.4278 16.917 46.0547 17.3773 46.0547H70.1712C70.6315 46.0547 71.0046 46.4278 71.0046 46.888V79.3016C71.0046 79.7212 70.6925 80.0754 70.2762 80.1283L43.8792 83.4808C43.8095 83.4897 43.739 83.4897 43.6692 83.4808L17.2723 80.1283C16.856 80.0754 16.5439 79.7212 16.5439 79.3016V46.888Z" fill="white" stroke="#6A6A6A"/>
<path d="M16.0624 46.423C16.2172 46.1928 16.4764 46.0547 16.7539 46.0547H42.2266C42.8547 46.0547 43.257 46.7232 42.9629 47.2782L37.166 58.2183C37.1343 58.2781 37.0696 58.3128 37.0023 58.3061L10.1589 55.6429C10.0335 55.6305 9.96676 55.4887 10.0371 55.3841L16.0624 46.423Z" fill="white" stroke="#6A6A6A"/>
<path d="M71.4435 46.423C71.2887 46.1928 71.0294 46.0547 70.7519 46.0547H45.2793C44.6512 46.0547 44.2489 46.7232 44.5429 47.2782L50.3398 58.2183C50.3715 58.2781 50.4362 58.3128 50.5036 58.3061L77.3469 55.6429C77.4723 55.6305 77.5391 55.4887 77.4688 55.3841L71.4435 46.423Z" fill="white" stroke="#6A6A6A"/>
<path d="M43.7744 47.0078V83.6351" stroke="#6A6A6A"/>
<path d="M19.5752 74.8672L25.839 75.7989" stroke="#6A6A6A" stroke-width="0.5" stroke-linecap="round"/>
<path d="M19.2471 77.0703L30.491 78.7428" stroke="#6A6A6A" stroke-width="0.5" stroke-linecap="round"/>
</svg>
