<svg width="130" height="130" viewBox="0 0 130 130" fill="none" xmlns="http://www.w3.org/2000/svg">
<g clip-path="url(#clip0_1703_183612)">
<path d="M120 60C120 93.1371 93.1371 120 60 120C26.8629 120 0 93.1371 0 60C0 26.8629 26.8629 0 60 0C93.1371 0 120 26.8629 120 60Z" fill="#00C895" fill-opacity="0.1"/>
<path d="M0 94C0 91.7909 1.79086 90 4 90H74C76.2091 90 78 91.7909 78 94V107C78 109.209 76.2091 111 74 111H4C1.79086 111 0 109.209 0 107V94Z" fill="white"/>
<path fill-rule="evenodd" clip-rule="evenodd" d="M74 92H4C2.89543 92 2 92.8954 2 94V107C2 108.105 2.89543 109 4 109H74C75.1046 109 76 108.105 76 107V94C76 92.8954 75.1046 92 74 92ZM4 90C1.79086 90 0 91.7909 0 94V107C0 109.209 1.79086 111 4 111H74C76.2091 111 78 109.209 78 107V94C78 91.7909 76.2091 90 74 90H4Z" fill="#6A6A6A"/>
<path d="M13.3345 100.5C13.3345 101.881 12.2152 103 10.8345 103C9.45376 103 8.33447 101.881 8.33447 100.5C8.33447 99.1193 9.45376 98 10.8345 98C12.2152 98 13.3345 99.1193 13.3345 100.5Z" fill="white"/>
<path fill-rule="evenodd" clip-rule="evenodd" d="M10.8345 102C11.6629 102 12.3345 101.328 12.3345 100.5C12.3345 99.6716 11.6629 99 10.8345 99C10.006 99 9.33447 99.6716 9.33447 100.5C9.33447 101.328 10.006 102 10.8345 102ZM10.8345 103C12.2152 103 13.3345 101.881 13.3345 100.5C13.3345 99.1193 12.2152 98 10.8345 98C9.45376 98 8.33447 99.1193 8.33447 100.5C8.33447 101.881 9.45376 103 10.8345 103Z" fill="#6A6A6A"/>
<path fill-rule="evenodd" clip-rule="evenodd" d="M20.8506 90V111H19.8506V90H20.8506Z" fill="#6A6A6A"/>
<path d="M46.5463 15.472C47.6434 13.5545 50.0836 12.8955 51.9968 14.0001L112.619 49.0001C114.532 50.1046 115.193 52.5545 114.096 54.4719L107.64 65.7557C106.543 67.6732 104.103 68.3322 102.19 67.2276L41.5682 32.2276C39.655 31.123 38.9934 28.6732 40.0905 26.7557L46.5463 15.472Z" fill="white"/>
<path fill-rule="evenodd" clip-rule="evenodd" d="M111.625 50.736L51.0036 15.736C50.047 15.1837 48.8269 15.5132 48.2784 16.472L41.8225 27.7557C41.274 28.7144 41.6048 29.9394 42.5614 30.4916L103.183 65.4916C104.14 66.0439 105.36 65.7144 105.908 64.7557L112.364 53.4719C112.913 52.5132 112.582 51.2883 111.625 50.736ZM51.9968 14.0001C50.0836 12.8955 47.6434 13.5545 46.5463 15.472L40.0905 26.7557C38.9934 28.6732 39.655 31.123 41.5682 32.2276L102.19 67.2276C104.103 68.3322 106.543 67.6732 107.64 65.7557L114.096 54.4719C115.193 52.5545 114.532 50.1046 112.619 49.0001L51.9968 14.0001Z" fill="#6A6A6A"/>
<ellipse cx="2.75" cy="2.75002" rx="2.75" ry="2.75002" transform="matrix(0.865738 0.500498 -0.497 0.867744 52.5103 22.9859)" fill="#00C895"/>
<path fill-rule="evenodd" clip-rule="evenodd" d="M68.1802 23.3433L57.6853 41.4969L56.8196 40.9964L67.3145 22.8428L68.1802 23.3433Z" fill="#6A6A6A"/>
<path d="M108.333 126C108.333 128.209 106.542 130 104.333 130L34.333 130C32.1239 130 30.333 128.209 30.333 126L30.333 113C30.333 110.791 32.1239 109 34.333 109L104.333 109C106.542 109 108.333 110.791 108.333 113L108.333 126Z" fill="white"/>
<path fill-rule="evenodd" clip-rule="evenodd" d="M34.333 128L104.333 128C105.438 128 106.333 127.105 106.333 126L106.333 113C106.333 111.895 105.438 111 104.333 111L34.333 111C33.2284 111 32.333 111.895 32.333 113L32.333 126C32.333 127.105 33.2284 128 34.333 128ZM104.333 130C106.542 130 108.333 128.209 108.333 126L108.333 113C108.333 110.791 106.542 109 104.333 109L34.333 109C32.1239 109 30.333 110.791 30.333 113L30.333 126C30.333 128.209 32.1239 130 34.333 130L104.333 130Z" fill="#6A6A6A"/>
<path d="M95.1235 119.5C95.1235 118.119 96.2428 117 97.6235 117C99.0042 117 100.124 118.119 100.124 119.5C100.124 120.881 99.0042 122 97.6235 122C96.2428 122 95.1235 120.881 95.1235 119.5Z" fill="white"/>
<path fill-rule="evenodd" clip-rule="evenodd" d="M97.6235 118C96.7951 118 96.1235 118.672 96.1235 119.5C96.1235 120.328 96.7951 121 97.6235 121C98.452 121 99.1235 120.328 99.1235 119.5C99.1235 118.672 98.452 118 97.6235 118ZM97.6235 117C96.2428 117 95.1235 118.119 95.1235 119.5C95.1235 120.881 96.2428 122 97.6235 122C99.0042 122 100.124 120.881 100.124 119.5C100.124 118.119 99.0042 117 97.6235 117Z" fill="#6A6A6A"/>
<path fill-rule="evenodd" clip-rule="evenodd" d="M87.8633 109V130H86.8633V109H87.8633Z" fill="#6A6A6A"/>
<path d="M97.043 88C97.043 90.2091 95.2521 92 93.043 92L23.043 92C20.8338 92 19.043 90.2091 19.043 88L19.043 75C19.043 72.7909 20.8338 71 23.043 71L93.043 71C95.2521 71 97.043 72.7909 97.043 75L97.043 88Z" fill="white"/>
<path fill-rule="evenodd" clip-rule="evenodd" d="M23.043 90L93.043 90C94.1475 90 95.043 89.1046 95.043 88L95.043 75C95.043 73.8954 94.1475 73 93.043 73L23.043 73C21.9384 73 21.043 73.8954 21.043 75L21.043 88C21.043 89.1046 21.9384 90 23.043 90ZM93.043 92C95.2521 92 97.043 90.2091 97.043 88L97.043 75C97.043 72.7909 95.2521 71 93.043 71L23.043 71C20.8338 71 19.043 72.7909 19.043 75L19.043 88C19.043 90.2091 20.8338 92 23.043 92L93.043 92Z" fill="#6A6A6A"/>
<path d="M83 81.5C83 80.1193 84.1193 79 85.5 79C86.8807 79 88 80.1193 88 81.5C88 82.8807 86.8807 84 85.5 84C84.1193 84 83 82.8807 83 81.5Z" fill="white"/>
<path fill-rule="evenodd" clip-rule="evenodd" d="M85.5 80C84.6716 80 84 80.6716 84 81.5C84 82.3284 84.6716 83 85.5 83C86.3284 83 87 82.3284 87 81.5C87 80.6716 86.3284 80 85.5 80ZM85.5 79C84.1193 79 83 80.1193 83 81.5C83 82.8807 84.1193 84 85.5 84C86.8807 84 88 82.8807 88 81.5C88 80.1193 86.8807 79 85.5 79Z" fill="#6A6A6A"/>
<path fill-rule="evenodd" clip-rule="evenodd" d="M76.5 71L76.5 92L75.5 92L75.5 71L76.5 71Z" fill="#6A6A6A"/>
<path d="M107.268 76.6817L106.002 56.0727C105.951 55.2331 106.846 54.7023 107.507 55.1809L123.586 66.8324C124.166 67.2527 124.13 68.1626 123.52 68.5318L118.695 71.4493L123.172 79.5707C123.437 80.0522 123.28 80.6677 122.821 80.9455L119.646 82.8651C119.187 83.1429 118.599 82.9778 118.334 82.4964L113.857 74.3749L108.707 77.4894C108.09 77.8624 107.314 77.4266 107.268 76.6817Z" fill="white"/>
<path fill-rule="evenodd" clip-rule="evenodd" d="M114.604 71.5862L119.561 80.5794L120.974 79.7253L116.016 70.7321L121.218 67.5866L108.131 58.1029L109.161 74.8777L114.604 71.5862ZM118.334 82.4964C118.599 82.9778 119.187 83.1429 119.646 82.8651L122.821 80.9455C123.28 80.6677 123.437 80.0522 123.172 79.5707L118.695 71.4493L123.52 68.5318C124.13 68.1626 124.166 67.2527 123.586 66.8324L107.507 55.1809C106.846 54.7023 105.951 55.2331 106.002 56.0727L107.268 76.6817C107.314 77.4266 108.09 77.8624 108.707 77.4894L113.857 74.3749L118.334 82.4964Z" fill="#6A6A6A"/>
</g>
<defs>
<clipPath id="clip0_1703_183612">
<rect width="130" height="130" fill="white"/>
</clipPath>
</defs>
</svg>
