<?xml version="1.0" encoding="utf-8"?>
<!--
  Copyright 2023-2025 Solace Systems. All rights reserved.

  Licensed under the Apache License, Version 2.0 (the "License");
  you may not use this file except in compliance with the License.
  You may obtain a copy of the License at

      http://www.apache.org/licenses/LICENSE-2.0

  Unless required by applicable law or agreed to in writing, software
  distributed under the License is distributed on an "AS IS" BASIS,
  WITHOUT WARRANTIES OR CONDITIONS OF ANY KIND, either express or implied.
  See the License for the specific language governing permissions and
  limitations under the License.
-->
<svg width="130" height="130" viewBox="0 0 130 130" fill="none" xmlns="http://www.w3.org/2000/svg">
<path opacity="0.1" d="M119 63.5C119 93.5995 94.5995 118 64.5 118C34.4005 118 10 93.5995 10 63.5C10 33.4005 34.4005 9 64.5 9C94.5995 9 119 33.4005 119 63.5Z" fill="#009193"/>
<path d="M16 32.0433C16 30.3865 17.3431 29.0433 19 29.0433H52.4134C59.5931 29.0433 65.4134 34.8636 65.4134 42.0433V112.059C65.4134 113.716 64.0703 115.059 62.4134 115.059H19C17.3431 115.059 16 113.716 16 112.059V32.0433Z" fill="white"/>
<path fill-rule="evenodd" clip-rule="evenodd" d="M52.4134 31.0433H19C18.4477 31.0433 18 31.4911 18 32.0433V112.059C18 112.612 18.4477 113.059 19 113.059H62.4134C62.9657 113.059 63.4134 112.612 63.4134 112.059V42.0433C63.4134 35.9682 58.4886 31.0433 52.4134 31.0433ZM19 29.0433C17.3431 29.0433 16 30.3865 16 32.0433V112.059C16 113.716 17.3431 115.059 19 115.059H62.4134C64.0703 115.059 65.4134 113.716 65.4134 112.059V42.0433C65.4134 34.8636 59.5931 29.0433 52.4134 29.0433H19Z" fill="#6A6A6A"/>
<path fill-rule="evenodd" clip-rule="evenodd" d="M63 109H18V112C18 112.552 18.4477 113 19 113H62C62.5523 113 63 112.552 63 112V109ZM16 107V112C16 113.657 17.3431 115 19 115H62C63.6569 115 65 113.657 65 112V107H16Z" fill="#6A6A6A"/>
<path d="M62 43C62 35.268 68.268 29 76 29H111C112.657 29 114 30.3431 114 32V112C114 113.657 112.657 115 111 115H65C63.3431 115 62 113.657 62 112V43Z" fill="white"/>
<path fill-rule="evenodd" clip-rule="evenodd" d="M111 31H76C69.3726 31 64 36.3726 64 43V112C64 112.552 64.4477 113 65 113H111C111.552 113 112 112.552 112 112V32C112 31.4477 111.552 31 111 31ZM76 29C68.268 29 62 35.268 62 43V112C62 113.657 63.3431 115 65 115H111C112.657 115 114 113.657 114 112V32C114 30.3431 112.657 29 111 29H76Z" fill="#6A6A6A"/>
<path fill-rule="evenodd" clip-rule="evenodd" d="M112 109H64V112C64 112.552 64.4477 113 65 113H111C111.552 113 112 112.552 112 112V109ZM62 107V112C62 113.657 63.3431 115 65 115H111C112.657 115 114 113.657 114 112V107H62Z" fill="#6A6A6A"/>
<path fill-rule="evenodd" clip-rule="evenodd" d="M41.7355 40.9388C41.7355 40.6627 41.9594 40.4388 42.2355 40.4388H54.1779C54.454 40.4388 54.6779 40.6627 54.6779 40.9388C54.6779 41.215 54.454 41.4388 54.1779 41.4388H42.2355C41.9594 41.4388 41.7355 41.215 41.7355 40.9388ZM41.7355 46.8868C41.7355 46.6106 41.9594 46.3868 42.2355 46.3868H54.1779C54.454 46.3868 54.6779 46.6106 54.6779 46.8868C54.6779 47.1629 54.454 47.3868 54.1779 47.3868H42.2355C41.9594 47.3868 41.7355 47.1629 41.7355 46.8868ZM41.7355 52.8347C41.7355 52.5585 41.9594 52.3347 42.2355 52.3347H54.1779C54.454 52.3347 54.6779 52.5585 54.6779 52.8347C54.6779 53.1108 54.454 53.3347 54.1779 53.3347H42.2355C41.9594 53.3347 41.7355 53.1108 41.7355 52.8347ZM24.6506 62.4428C24.6506 62.1667 24.8745 61.9428 25.1506 61.9428H37.093C37.3691 61.9428 37.593 62.1667 37.593 62.4428C37.593 62.719 37.3691 62.9428 37.093 62.9428H25.1506C24.8745 62.9428 24.6506 62.719 24.6506 62.4428ZM24.6506 68.3908C24.6506 68.1146 24.8745 67.8908 25.1506 67.8908H37.093C37.3691 67.8908 37.593 68.1146 37.593 68.3908C37.593 68.6669 37.3691 68.8908 37.093 68.8908H25.1506C24.8745 68.8908 24.6506 68.6669 24.6506 68.3908ZM24.6506 74.3387C24.6506 74.0625 24.8745 73.8387 25.1506 73.8387H37.093C37.3691 73.8387 37.593 74.0625 37.593 74.3387C37.593 74.6148 37.3691 74.8387 37.093 74.8387H25.1506C24.8745 74.8387 24.6506 74.6148 24.6506 74.3387Z" fill="#6A6A6A"/>
<path fill-rule="evenodd" clip-rule="evenodd" d="M24.6506 83.0317C24.6506 82.7556 24.8745 82.5317 25.1506 82.5317H53.5176C53.7937 82.5317 54.0176 82.7556 54.0176 83.0317C54.0176 83.3079 53.7937 83.5317 53.5176 83.5317H25.1506C24.8745 83.5317 24.6506 83.3079 24.6506 83.0317Z" fill="#6A6A6A"/>
<path fill-rule="evenodd" clip-rule="evenodd" d="M24.6506 92.1824C24.6506 91.9062 24.8745 91.6824 25.1506 91.6824H53.5176C53.7937 91.6824 54.0176 91.9062 54.0176 92.1824C54.0176 92.4585 53.7937 92.6824 53.5176 92.6824H25.1506C24.8745 92.6824 24.6506 92.4585 24.6506 92.1824Z" fill="#6A6A6A"/>
<path fill-rule="evenodd" clip-rule="evenodd" d="M24.6506 87.6071C24.6506 87.3309 24.8745 87.1071 25.1506 87.1071H53.5176C53.7937 87.1071 54.0176 87.3309 54.0176 87.6071C54.0176 87.8832 53.7937 88.1071 53.5176 88.1071H25.1506C24.8745 88.1071 24.6506 87.8832 24.6506 87.6071Z" fill="#6A6A6A"/>
<path fill-rule="evenodd" clip-rule="evenodd" d="M24.6506 96.7577C24.6506 96.4815 24.8745 96.2577 25.1506 96.2577H53.5176C53.7937 96.2577 54.0176 96.4815 54.0176 96.7577C54.0176 97.0338 53.7937 97.2577 53.5176 97.2577H25.1506C24.8745 97.2577 24.6506 97.0338 24.6506 96.7577Z" fill="#6A6A6A"/>
<path fill-rule="evenodd" clip-rule="evenodd" d="M70.4038 41.8539C70.4038 41.5777 70.6277 41.3539 70.9038 41.3539H106.591C106.867 41.3539 107.091 41.5777 107.091 41.8539C107.091 42.13 106.867 42.3539 106.591 42.3539H70.9038C70.6277 42.3539 70.4038 42.13 70.4038 41.8539ZM70.4038 47.8018C70.4038 47.5257 70.6277 47.3018 70.9038 47.3018H106.591C106.867 47.3018 107.091 47.5257 107.091 47.8018C107.091 48.0779 106.867 48.3018 106.591 48.3018H70.9038C70.6277 48.3018 70.4038 48.0779 70.4038 47.8018ZM70.4038 53.7497C70.4038 53.4736 70.6277 53.2497 70.9038 53.2497H106.591C106.867 53.2497 107.091 53.4736 107.091 53.7497C107.091 54.0259 106.867 54.2497 106.591 54.2497H70.9038C70.6277 54.2497 70.4038 54.0259 70.4038 53.7497Z" fill="#6A6A6A"/>
<path fill-rule="evenodd" clip-rule="evenodd" d="M70.4038 59.2401C70.4038 58.964 70.6277 58.7401 70.9038 58.7401H89.2051C89.4812 58.7401 89.7051 58.964 89.7051 59.2401C89.7051 59.5163 89.4812 59.7401 89.2051 59.7401H70.9038C70.6277 59.7401 70.4038 59.5163 70.4038 59.2401ZM70.4038 65.188C70.4038 64.9119 70.6277 64.688 70.9038 64.688H89.2051C89.4812 64.688 89.7051 64.9119 89.7051 65.188C89.7051 65.4642 89.4812 65.688 89.2051 65.688H70.9038C70.6277 65.688 70.4038 65.4642 70.4038 65.188ZM70.4038 71.1359C70.4038 70.8598 70.6277 70.6359 70.9038 70.6359H89.2051C89.4812 70.6359 89.7051 70.8598 89.7051 71.1359C89.7051 71.4121 89.4812 71.6359 89.2051 71.6359H70.9038C70.6277 71.6359 70.4038 71.4121 70.4038 71.1359Z" fill="#6A6A6A"/>
<path d="M36.3206 47.0237C36.3206 50.3374 33.6343 53.0237 30.3206 53.0237C27.0068 53.0237 24.3206 50.3374 24.3206 47.0237C24.3206 43.71 27.0068 41.0237 30.3206 41.0237C33.6343 41.0237 36.3206 43.71 36.3206 47.0237Z" fill="white"/>
<path fill-rule="evenodd" clip-rule="evenodd" d="M30.3206 51.0237C32.5297 51.0237 34.3206 49.2328 34.3206 47.0237C34.3206 44.8145 32.5297 43.0237 30.3206 43.0237C28.1114 43.0237 26.3206 44.8145 26.3206 47.0237C26.3206 49.2328 28.1114 51.0237 30.3206 51.0237ZM30.3206 53.0237C33.6343 53.0237 36.3206 50.3374 36.3206 47.0237C36.3206 43.71 33.6343 41.0237 30.3206 41.0237C27.0068 41.0237 24.3206 43.71 24.3206 47.0237C24.3206 50.3374 27.0068 53.0237 30.3206 53.0237Z" fill="#6A6A6A"/>
<path d="M105.95 64.8674C105.95 68.1811 103.264 70.8674 99.9502 70.8674C96.6365 70.8674 93.9502 68.1811 93.9502 64.8674C93.9502 61.5537 96.6365 58.8674 99.9502 58.8674C103.264 58.8674 105.95 61.5537 105.95 64.8674Z" fill="white"/>
<path fill-rule="evenodd" clip-rule="evenodd" d="M99.9502 68.8674C102.159 68.8674 103.95 67.0766 103.95 64.8674C103.95 62.6583 102.159 60.8674 99.9502 60.8674C97.7411 60.8674 95.9502 62.6583 95.9502 64.8674C95.9502 67.0766 97.7411 68.8674 99.9502 68.8674ZM99.9502 70.8674C103.264 70.8674 105.95 68.1811 105.95 64.8674C105.95 61.5537 103.264 58.8674 99.9502 58.8674C96.6365 58.8674 93.9502 61.5537 93.9502 64.8674C93.9502 68.1811 96.6365 70.8674 99.9502 70.8674Z" fill="#6A6A6A"/>
<path fill-rule="evenodd" clip-rule="evenodd" d="M106.424 78.7109H72.9062V100.333L106.424 100.333L106.424 78.7109ZM72.9062 76.7109C71.8017 76.7109 70.9062 77.6064 70.9062 78.7109V100.333C70.9062 101.437 71.8017 102.333 72.9063 102.333H106.424C107.528 102.333 108.424 101.437 108.424 100.333V78.7109C108.424 77.6064 107.528 76.7109 106.424 76.7109H72.9062Z" fill="#6A6A6A"/>
<path d="M43.9297 65C43.9297 63.8954 44.8251 63 45.9297 63H51.9297C53.0343 63 53.9297 63.8954 53.9297 65V70.0909C53.9297 71.1955 53.0343 72.0909 51.9297 72.0909H45.9297C44.8251 72.0909 43.9297 71.1955 43.9297 70.0909V65Z" fill="white"/>
<path fill-rule="evenodd" clip-rule="evenodd" d="M51.9297 65H45.9297L45.9297 70.0909L51.9297 70.0909V65ZM45.9297 63C44.8251 63 43.9297 63.8954 43.9297 65V70.0909C43.9297 71.1955 44.8251 72.0909 45.9297 72.0909H51.9297C53.0343 72.0909 53.9297 71.1955 53.9297 70.0909V65C53.9297 63.8954 53.0343 63 51.9297 63H45.9297Z" fill="#6A6A6A"/>
<path d="M2 119H128V120H2V119Z" fill="#6A6A6A"/>
</svg>