<!--
 Copyright 2023-2025 Solace Systems. All rights reserved.

 Licensed under the Apache License, Version 2.0 (the "License");
 you may not use this file except in compliance with the License.
 You may obtain a copy of the License at

     http://www.apache.org/licenses/LICENSE-2.0

 Unless required by applicable law or agreed to in writing, software
 distributed under the License is distributed on an "AS IS" BASIS,
 WITHOUT WARRANTIES OR CONDITIONS OF ANY KIND, either express or implied.
 See the License for the specific language governing permissions and
 limitations under the License.
-->
<svg width="130" height="130" viewBox="0 0 130 130" fill="none" xmlns="http://www.w3.org/2000/svg">
<path d="M120 65C120 95.3757 95.3757 120 65 120C34.6243 120 10 95.3757 10 65C10 34.6243 34.6243 10 65 10C95.3757 10 120 34.6243 120 65Z" fill="#F3F8FB"/>
<path d="M59 66.6327L65 49V63.0408H71L65 81V66.6327H59Z" fill="white"/>
<path fill-rule="evenodd" clip-rule="evenodd" d="M65.3265 47.0268C66.292 47.1865 67 48.0214 67 48.9999V61.0408H71C71.6431 61.0408 72.247 61.35 72.6229 61.8719C72.9988 62.3937 73.1007 63.0645 72.8969 63.6745L66.8969 81.6337C66.5862 82.5638 65.6469 83.1314 64.679 82.974C63.711 82.8166 63 81.9806 63 80.9999V68.6326H59C58.3549 68.6326 57.7494 68.3214 57.3739 67.7969C56.9983 67.2725 56.8988 66.599 57.1066 65.9883L63.1066 48.3557C63.4219 47.4293 64.3611 46.867 65.3265 47.0268ZM65 66.6326H59L65 48.9999V63.0408H71L65 80.9999V66.6326Z" fill="#6A6A6A"/>
<path fill-rule="evenodd" clip-rule="evenodd" d="M11.292 118.307C10.901 117.917 10.9002 117.283 11.2902 116.892L21.1768 106.98C21.5668 106.589 22.2 106.588 22.591 106.978C22.9821 107.368 22.9829 108.001 22.5929 108.392L12.7062 118.305C12.3162 118.696 11.683 118.697 11.292 118.307Z" fill="#6A6A6A"/>
<path d="M35.8574 82.5754L44.3317 74.0792C45.1117 73.2971 46.3781 73.2955 47.1601 74.0755L47.8681 74.7817C48.6502 75.5617 48.6518 76.8281 47.8718 77.6101L39.3975 86.1064L35.8574 82.5754Z" fill="white"/>
<path fill-rule="evenodd" clip-rule="evenodd" d="M34.4432 82.5773L43.6237 73.373C44.7938 72.1999 46.6933 72.1974 47.8663 73.3675L48.5744 74.0737C49.7475 75.2437 49.7499 77.1432 48.5799 78.3163L39.3994 87.5206L34.4432 82.5773ZM37.2717 82.5736L39.3957 84.6922L47.1638 76.9039C47.5538 76.5129 47.553 75.8797 47.162 75.4897L46.454 74.7835C46.0629 74.3935 45.4298 74.3943 45.0397 74.7854L37.2717 82.5736Z" fill="#6A6A6A"/>
<path d="M43.8594 90.5879L52.3337 82.0916C53.1137 81.3096 54.38 81.3079 55.1621 82.088L55.8701 82.7941C56.6522 83.5742 56.6538 84.8405 55.8738 85.6226L47.3995 94.1188L43.8594 90.5879Z" fill="white"/>
<path fill-rule="evenodd" clip-rule="evenodd" d="M42.4452 90.5897L51.6257 81.3854C52.7957 80.2123 54.6952 80.2099 55.8683 81.3799L56.5763 82.0861C57.7494 83.2562 57.7519 85.1557 56.5818 86.3288L47.4013 95.533L42.4452 90.5897ZM45.2736 90.5861L47.3977 92.7046L55.1658 84.9164C55.5558 84.5253 55.555 83.8922 55.1639 83.5022L54.4559 82.796C54.0649 82.406 53.4317 82.4068 53.0417 82.7978L45.2736 90.5861Z" fill="#6A6A6A"/>
<path d="M28.0977 81.9541L47.9223 101.727L37.3294 112.348C34.2093 115.476 29.144 115.483 26.0157 112.362L17.5195 103.888C14.3912 100.768 14.3847 95.7027 17.5048 92.5744L28.0977 81.9541Z" fill="white"/>
<path fill-rule="evenodd" clip-rule="evenodd" d="M45.0939 101.731L28.1013 84.7825L18.9209 93.9868C16.5807 96.333 16.5857 100.132 18.9319 102.472L27.4281 110.946C29.7743 113.286 33.5733 113.282 35.9134 110.935L45.0939 101.731ZM28.0977 81.9541L17.5048 92.5744C14.3847 95.7027 14.3912 100.768 17.5195 103.888L26.0157 112.362C29.144 115.483 34.2093 115.476 37.3294 112.348L47.9223 101.727L28.0977 81.9541Z" fill="#6A6A6A"/>
<path d="M27.6353 77.4141C28.8054 76.241 30.7049 76.2386 31.878 77.4086L52.4106 97.8881C53.5837 99.0582 53.5862 100.958 52.4161 102.131L51.0037 103.547C49.8337 104.72 47.9342 104.722 46.7611 103.552L26.2285 83.0728C25.0554 81.9027 25.0529 80.0032 26.223 78.8302L27.6353 77.4141Z" fill="white"/>
<path fill-rule="evenodd" clip-rule="evenodd" d="M50.9982 99.3042L30.4656 78.8247C30.0746 78.4346 29.4414 78.4355 29.0514 78.8265L27.639 80.2425C27.249 80.6336 27.2498 81.2667 27.6408 81.6567L48.1735 102.136C48.5645 102.526 49.1977 102.525 49.5877 102.134L51.0001 100.718C51.3901 100.327 51.3893 99.6942 50.9982 99.3042ZM31.878 77.4086C30.7049 76.2386 28.8054 76.241 27.6353 77.4141L26.223 78.8302C25.0529 80.0032 25.0554 81.9027 26.2285 83.0728L46.7611 103.552C47.9342 104.722 49.8337 104.72 51.0037 103.547L52.4161 102.131C53.5862 100.958 53.5837 99.0582 52.4106 97.8881L31.878 77.4086Z" fill="#6A6A6A"/>
<path fill-rule="evenodd" clip-rule="evenodd" d="M27.9453 90.6465C28.1405 90.4513 28.4571 90.4513 28.6524 90.6465L39.259 101.253C39.4542 101.448 39.4542 101.765 39.259 101.96C39.0637 102.155 38.7471 102.155 38.5519 101.96L27.9453 91.3536C27.75 91.1584 27.75 90.8418 27.9453 90.6465Z" fill="#6A6A6A"/>
<path fill-rule="evenodd" clip-rule="evenodd" d="M26.6464 95.419C26.8417 95.2237 27.1583 95.2237 27.3536 95.419L34.4246 102.49C34.6199 102.685 34.6199 103.002 34.4246 103.197C34.2294 103.392 33.9128 103.392 33.7175 103.197L26.6464 96.1261C26.4512 95.9308 26.4512 95.6142 26.6464 95.419Z" fill="#6A6A6A"/>
<path d="M98.3419 27.3908C97.5609 26.6097 97.5609 25.3434 98.3419 24.5623L101.17 21.7339C101.951 20.9529 103.218 20.9529 103.999 21.7339L106.827 24.5623C107.608 25.3434 107.608 26.6097 106.827 27.3908L103.999 30.2192C103.218 31.0003 101.951 31.0003 101.17 30.2192L98.3419 27.3908Z" fill="white"/>
<path fill-rule="evenodd" clip-rule="evenodd" d="M97.6349 28.0979C96.4633 26.9263 96.4633 25.0268 97.6349 23.8552L100.463 21.0268C101.635 19.8552 103.534 19.8552 104.706 21.0268L107.534 23.8552C108.706 25.0268 108.706 26.9263 107.534 28.0979L104.706 30.9263C103.534 32.0979 101.635 32.0979 100.463 30.9263L97.6349 28.0979ZM99.0491 25.2695C98.6586 25.66 98.6586 26.2931 99.0491 26.6837L101.878 29.5121C102.268 29.9026 102.901 29.9026 103.292 29.5121L106.12 26.6837C106.511 26.2931 106.511 25.66 106.12 25.2695L103.292 22.441C102.901 22.0505 102.268 22.0505 101.878 22.441L99.0491 25.2695Z" fill="#6A6A6A"/>
<path d="M94.1172 54.8838L74.3182 35.0848L82.3055 27.0975C83.4771 25.9259 85.3766 25.9259 86.5481 27.0975L102.104 42.6539C103.276 43.8254 103.276 45.7249 102.104 46.8965L94.1172 54.8838Z" fill="white"/>
<path fill-rule="evenodd" clip-rule="evenodd" d="M77.1466 35.0848L94.1172 52.0554L100.69 45.4823C101.081 45.0918 101.081 44.4586 100.69 44.0681L85.1339 28.5117C84.7434 28.1212 84.1102 28.1212 83.7197 28.5117L77.1466 35.0848ZM94.1172 54.8838L102.104 46.8965C103.276 45.7249 103.276 43.8254 102.104 42.6539L86.5481 27.0975C85.3766 25.9259 83.4771 25.9259 82.3055 27.0975L74.3182 35.0848L94.1172 54.8838Z" fill="#6A6A6A"/>
<path fill-rule="evenodd" clip-rule="evenodd" d="M105.293 23.2695C104.902 22.879 104.902 22.2458 105.293 21.8553L115.192 11.9558C115.583 11.5653 116.216 11.5653 116.607 11.9558C116.997 12.3463 116.997 12.9795 116.607 13.37L106.707 23.2695C106.317 23.66 105.683 23.66 105.293 23.2695Z" fill="#6A6A6A"/>
<path d="M101.236 44.2568L84.9729 27.9934L87.8013 25.165C90.9255 22.0408 95.9908 22.0408 99.115 25.165L104.065 30.1147C107.189 33.2389 107.189 38.3042 104.065 41.4284L101.236 44.2568Z" fill="white"/>
<path fill-rule="evenodd" clip-rule="evenodd" d="M87.8013 27.9934L101.236 41.4284L102.651 40.0142C104.994 37.671 104.994 33.8721 102.651 31.5289L97.7008 26.5792C95.3576 24.236 91.5587 24.236 89.2155 26.5792L87.8013 27.9934ZM101.236 44.2568L104.065 41.4284C107.189 38.3042 107.189 33.2389 104.065 30.1147L99.115 25.165C95.9908 22.0408 90.9255 22.0408 87.8013 25.165L84.9729 27.9934L101.236 44.2568Z" fill="#6A6A6A"/>
<path d="M95.4338 59.2351C94.2622 60.4067 92.3628 60.4067 91.1912 59.2351L69.978 38.0219C68.8064 36.8503 68.8064 34.9509 69.978 33.7793L71.3922 32.3651C72.5638 31.1935 74.4633 31.1935 75.6348 32.3651L96.848 53.5783C98.0196 54.7498 98.0196 56.6493 96.848 57.8209L95.4338 59.2351Z" fill="white"/>
<path fill-rule="evenodd" clip-rule="evenodd" d="M71.3922 36.6077L92.6054 57.8209C92.9959 58.2114 93.6291 58.2114 94.0196 57.8209L95.4338 56.4067C95.8243 56.0162 95.8243 55.383 95.4338 54.9925L74.2206 33.7793C73.8301 33.3888 73.1969 33.3888 72.8064 33.7793L71.3922 35.1935C71.0017 35.584 71.0017 36.2172 71.3922 36.6077ZM91.1912 59.2351C92.3628 60.4067 94.2622 60.4067 95.4338 59.2351L96.848 57.8209C98.0196 56.6493 98.0196 54.7498 96.848 53.5783L75.6348 32.3651C74.4633 31.1935 72.5638 31.1935 71.3922 32.3651L69.978 33.7793C68.8064 34.9509 68.8064 36.8503 69.978 38.0219L91.1912 59.2351Z" fill="#6A6A6A"/>
<path d="M62.2773 18.6786C63.2843 18.627 64.2996 18.6075 65.322 18.6212C66.3445 18.6349 67.3588 18.6814 68.3641 18.7599C68.6394 18.7814 68.8452 19.022 68.8237 19.2973C68.8022 19.5726 68.5616 19.7784 68.2863 19.7569C67.3024 19.6801 66.3096 19.6345 65.3087 19.6211C64.3077 19.6077 63.314 19.6268 62.3285 19.6773C62.0527 19.6914 61.8177 19.4793 61.8035 19.2035C61.7894 18.9277 62.0015 18.6927 62.2773 18.6786Z" fill="#6A6A6A"/>
<path d="M73.7911 20.013C73.8483 19.7429 74.1137 19.5702 74.3839 19.6274C76.3872 20.0516 78.3423 20.6046 80.2402 21.2771C80.5005 21.3693 80.6367 21.6551 80.5445 21.9154C80.4522 22.1757 80.1665 22.3119 79.9062 22.2197C78.0494 21.5617 76.1367 21.0208 74.1767 20.6057C73.9066 20.5485 73.7339 20.2832 73.7911 20.013Z" fill="#6A6A6A"/>
<path d="M56.8187 19.7862C56.8687 20.0578 56.6891 20.3185 56.4175 20.3685C54.4471 20.731 52.5206 21.2207 50.6469 21.8288C50.3843 21.914 50.1022 21.7702 50.017 21.5075C49.9317 21.2449 50.0756 20.9628 50.3382 20.8776C52.2534 20.256 54.2226 19.7555 56.2365 19.385C56.5081 19.335 56.7688 19.5147 56.8187 19.7862Z" fill="#6A6A6A"/>
<path d="M45.3554 23.368C45.4744 23.6172 45.3689 23.9157 45.1197 24.0347C43.3213 24.8935 41.5877 25.8671 39.9284 26.9462C39.6969 27.0967 39.3872 27.0311 39.2366 26.7996C39.0861 26.5681 39.1517 26.2584 39.3832 26.1079C41.0789 25.0051 42.8507 24.0101 44.6887 23.1323C44.9379 23.0133 45.2364 23.1188 45.3554 23.368Z" fill="#6A6A6A"/>
<path d="M35.2156 29.8049C35.395 30.0149 35.3702 30.3305 35.1602 30.5099C33.6501 31.7999 32.2252 33.1873 30.8952 34.6624C30.7103 34.8675 30.3941 34.8839 30.189 34.699C29.9839 34.514 29.9676 34.1979 30.1525 33.9928C31.5115 32.4855 32.9676 31.0678 34.5107 29.7496C34.7206 29.5702 35.0362 29.595 35.2156 29.8049Z" fill="#6A6A6A"/>
<path d="M27.0773 38.6383C27.3047 38.7949 27.3621 39.1063 27.2054 39.3337C26.0824 40.9636 25.0628 42.6706 24.1562 44.4454C24.0306 44.6913 23.7294 44.7888 23.4835 44.6632C23.2376 44.5376 23.1401 44.2364 23.2657 43.9904C24.1923 42.1765 25.2343 40.4319 26.3819 38.7663C26.5386 38.5389 26.85 38.4816 27.0773 38.6383Z" fill="#6A6A6A"/>
<path d="M21.4991 49.2734C21.7594 49.3656 21.8957 49.6514 21.8034 49.9117C21.1455 51.7685 20.6045 53.6812 20.1895 55.6412C20.1323 55.9113 19.8669 56.0839 19.5968 56.0267C19.3266 55.9695 19.154 55.7042 19.2112 55.434C19.6354 53.4307 20.1883 51.4756 20.8609 49.5777C20.9531 49.3174 21.2389 49.1812 21.4991 49.2734Z" fill="#6A6A6A"/>
<path d="M18.881 60.9942C19.1564 61.0157 19.3621 61.2563 19.3406 61.5316C19.2638 62.5154 19.2182 63.5083 19.2049 64.5092C19.1915 65.5101 19.2105 66.5039 19.261 67.4894C19.2751 67.7652 19.063 68.0002 18.7873 68.0143C18.5115 68.0285 18.2765 67.8163 18.2623 67.5406C18.2108 66.5335 18.1913 65.5183 18.205 64.4959C18.2186 63.4734 18.2652 62.459 18.3437 61.4538C18.3651 61.1785 18.6057 60.9727 18.881 60.9942Z" fill="#6A6A6A"/>
<path d="M19.37 72.9991C19.6416 72.9492 19.9023 73.1288 19.9522 73.4004C20.3147 75.3708 20.8044 77.2973 21.4125 79.171C21.4978 79.4336 21.3539 79.7156 21.0913 79.8009C20.8286 79.8861 20.5466 79.7423 20.4614 79.4797C19.8398 77.5644 19.3393 75.5953 18.9687 73.5814C18.9188 73.3098 19.0984 73.0491 19.37 72.9991Z" fill="#6A6A6A"/>
<path fill-rule="evenodd" clip-rule="evenodd" d="M106.184 47.6974C106.442 47.5974 106.731 47.725 106.831 47.9824C107.561 49.8593 108.172 51.7969 108.656 53.7866C108.721 54.0549 108.557 54.3253 108.288 54.3906C108.02 54.4559 107.75 54.2913 107.684 54.023C107.211 52.0764 106.613 50.1807 105.899 48.3445C105.799 48.0871 105.927 47.7974 106.184 47.6974ZM109.153 59.3344C109.427 59.3046 109.674 59.5031 109.704 59.7776C109.812 60.7801 109.889 61.7926 109.934 62.8142C109.978 63.8357 109.989 64.8511 109.968 65.8592C109.962 66.1353 109.733 66.3544 109.457 66.3485C109.181 66.3427 108.962 66.1141 108.968 65.8381C108.989 64.8514 108.978 63.8576 108.935 62.8575C108.891 61.8575 108.816 60.8664 108.71 59.8853C108.68 59.6108 108.878 59.3641 109.153 59.3344ZM109.024 71.3486C109.297 71.3904 109.485 71.6455 109.443 71.9185C109.133 73.9426 108.692 75.9259 108.128 77.8589C108.051 78.124 107.773 78.2762 107.508 78.1989C107.243 78.1216 107.091 77.844 107.168 77.5789C107.72 75.6878 108.151 73.7475 108.454 71.7671C108.496 71.4942 108.751 71.3068 109.024 71.3486ZM105.788 82.9142C106.041 83.0257 106.155 83.3209 106.044 83.5735C105.222 85.4371 104.28 87.2379 103.229 88.9659C103.085 89.2019 102.778 89.2767 102.542 89.1332C102.306 88.9897 102.231 88.6821 102.374 88.4462C103.403 86.7552 104.324 84.9932 105.129 83.1698C105.24 82.9172 105.536 82.8028 105.788 82.9142ZM99.6584 93.2426C99.8737 93.4156 99.9079 93.7303 99.7349 93.9456C98.4636 95.5275 97.0902 97.0255 95.6244 98.4291C95.4249 98.6201 95.1084 98.6132 94.9174 98.4138C94.7264 98.2143 94.7333 97.8978 94.9328 97.7068C96.3673 96.3332 97.7113 94.8673 98.9555 93.3191C99.1284 93.1039 99.4432 93.0696 99.6584 93.2426ZM91.0733 101.642C91.2367 101.865 91.1887 102.178 90.9661 102.341C89.3357 103.538 87.6232 104.632 85.8379 105.613C85.5958 105.746 85.2918 105.657 85.1589 105.415C85.026 105.173 85.1144 104.869 85.3564 104.736C87.1032 103.777 88.7789 102.707 90.3743 101.535C90.5969 101.372 90.9098 101.42 91.0733 101.642ZM80.6103 107.537C80.7103 107.794 80.5827 108.084 80.3253 108.184C78.4484 108.913 76.5108 109.525 74.5211 110.009C74.2528 110.074 73.9824 109.91 73.9171 109.641C73.8518 109.373 74.0164 109.102 74.2847 109.037C76.2313 108.564 78.127 107.965 79.9632 107.252C80.2206 107.152 80.5103 107.28 80.6103 107.537ZM50.1088 108.861C50.1861 108.596 50.4637 108.443 50.7288 108.521C52.6199 109.072 54.5602 109.504 56.5406 109.807C56.8135 109.849 57.0009 110.104 56.9591 110.377C56.9173 110.65 56.6622 110.837 56.3892 110.796C54.3651 110.486 52.3818 110.045 50.4488 109.481C50.1837 109.403 50.0315 109.126 50.1088 108.861ZM61.9592 110.81C61.965 110.534 62.1936 110.315 62.4696 110.321C63.4563 110.342 64.4501 110.331 65.4502 110.287C66.4502 110.244 67.4413 110.169 68.4224 110.062C68.6969 110.033 68.9436 110.231 68.9733 110.506C69.0031 110.78 68.8046 111.027 68.5301 111.057C67.5276 111.165 66.5151 111.242 65.4935 111.286C64.472 111.331 63.4566 111.342 62.4485 111.321C62.1724 111.315 61.9533 111.086 61.9592 110.81Z" fill="#6A6A6A"/>
<path d="M31 42C31 45.3137 28.3137 48 25 48C21.6863 48 19 45.3137 19 42C19 38.6863 21.6863 36 25 36C28.3137 36 31 38.6863 31 42Z" fill="white"/>
<path fill-rule="evenodd" clip-rule="evenodd" d="M25 46C27.2091 46 29 44.2091 29 42C29 39.7909 27.2091 38 25 38C22.7909 38 21 39.7909 21 42C21 44.2091 22.7909 46 25 46ZM25 48C28.3137 48 31 45.3137 31 42C31 38.6863 28.3137 36 25 36C21.6863 36 19 38.6863 19 42C19 45.3137 21.6863 48 25 48Z" fill="#6A6A6A"/>
<path d="M72 106C72 104.895 72.8954 104 74 104H80C81.1046 104 82 104.895 82 106V111C82 112.105 81.1046 113 80 113H74C72.8954 113 72 112.105 72 111V106Z" fill="white"/>
<path fill-rule="evenodd" clip-rule="evenodd" d="M80 106H74L74 111H80V106ZM74 104C72.8954 104 72 104.895 72 106V111C72 112.105 72.8954 113 74 113H80C81.1046 113 82 112.105 82 111V106C82 104.895 81.1046 104 80 104H74Z" fill="#6A6A6A"/>
<path fill-rule="evenodd" clip-rule="evenodd" d="M114.732 69.6619C114.041 68.6331 113.128 67.754 112.041 67.1055C111.274 67.6597 110.284 67.8905 109.295 67.6574C108.306 67.4242 107.523 66.775 107.085 65.9361C105.823 66.0305 104.613 66.4085 103.536 67.0201C103.625 67.9642 103.324 68.9423 102.627 69.6888C101.929 70.4359 100.977 70.7971 100.036 70.7637C99.7692 71.3187 99.5577 71.9112 99.4104 72.5358C99.2631 73.1603 99.1876 73.7849 99.1784 74.4007C100.035 74.7917 100.724 75.5397 101.015 76.5194C101.305 77.4984 101.137 78.5073 100.636 79.312C101.327 80.3415 102.241 81.2211 103.329 81.8697C104.096 81.3162 105.085 81.0857 106.073 81.3187C107.061 81.5516 107.844 82.1998 108.282 83.0374C109.545 82.9429 110.756 82.5644 111.834 81.9522C111.746 81.0097 112.047 80.0339 112.743 79.2888C113.439 78.5428 114.389 78.1816 115.329 78.2137C115.597 77.6576 115.809 77.0638 115.957 76.4377C116.104 75.8132 116.179 75.1886 116.188 74.5728C115.332 74.1818 114.643 73.4339 114.353 72.4544C114.063 71.4754 114.231 70.4666 114.732 69.6619Z" fill="white"/>
<path fill-rule="evenodd" clip-rule="evenodd" d="M108.908 69.297C109.953 69.5434 111.001 69.442 111.929 69.0692C112.242 69.3185 112.531 69.5944 112.795 69.8928C112.482 70.8483 112.445 71.9069 112.752 72.9423C113.059 73.9773 113.665 74.8397 114.445 75.4621C114.416 75.659 114.378 75.8566 114.332 76.0545C114.284 76.254 114.229 76.4491 114.167 76.6396C113.192 76.8482 112.265 77.3488 111.529 78.1371C110.793 78.925 110.353 79.887 110.205 80.8797C109.835 81.0296 109.452 81.1474 109.059 81.2307C108.395 80.4834 107.504 79.9253 106.46 79.6791C105.416 79.4328 104.369 79.534 103.441 79.9064C103.127 79.6566 102.836 79.3802 102.573 79.081C102.885 78.1256 102.922 77.0668 102.615 76.0315C102.308 74.9962 101.702 74.1337 100.922 73.5113C100.951 73.3144 100.989 73.1169 101.035 72.919C101.082 72.7213 101.137 72.5278 101.199 72.3389C102.175 72.1308 103.104 71.63 103.841 70.8404C104.578 70.0511 105.018 69.0871 105.166 68.0923C105.534 67.9432 105.916 67.8259 106.307 67.743C106.971 68.4915 107.863 69.0505 108.908 69.297ZM115.957 76.4377C116.104 75.8132 116.179 75.1886 116.188 74.5728C115.332 74.1818 114.643 73.4339 114.353 72.4544C114.063 71.4754 114.231 70.4666 114.732 69.6619C114.041 68.6331 113.128 67.754 112.041 67.1055C111.274 67.6597 110.284 67.8905 109.295 67.6574C108.306 67.4242 107.523 66.775 107.085 65.9361C105.823 66.0305 104.613 66.4085 103.536 67.0201C103.625 67.9642 103.324 68.9423 102.627 69.6888C101.929 70.4359 100.977 70.7971 100.036 70.7637C99.7692 71.3187 99.5577 71.9112 99.4104 72.5358C99.2631 73.1603 99.1876 73.7849 99.1784 74.4007C100.035 74.7917 100.724 75.5397 101.015 76.5194C101.305 77.4984 101.137 78.5073 100.636 79.312C101.327 80.3415 102.241 81.2211 103.329 81.8697C104.096 81.3162 105.085 81.0857 106.073 81.3187C107.061 81.5516 107.844 82.1998 108.282 83.0374C109.545 82.9429 110.756 82.5644 111.834 81.9522C111.746 81.0097 112.047 80.0339 112.743 79.2888C113.439 78.5428 114.389 78.1816 115.329 78.2137C115.597 77.6576 115.809 77.0638 115.957 76.4377ZM109.59 74.9357C109.339 75.9973 108.284 76.6567 107.231 76.4086C106.179 76.1605 105.529 75.0987 105.78 74.0371C106.03 72.9755 107.086 72.3161 108.138 72.5642C109.19 72.8124 109.84 73.8741 109.59 74.9357ZM111.215 75.3189C110.751 77.286 108.794 78.5079 106.845 78.0482C104.895 77.5884 103.691 75.621 104.155 73.6539C104.618 71.6868 106.575 70.4649 108.525 70.9247C110.474 71.3844 111.679 73.3518 111.215 75.3189Z" fill="#6A6A6A"/>
</svg>
