<svg width="130" height="130" viewBox="0 0 130 130" fill="none" xmlns="http://www.w3.org/2000/svg">
<rect width="130" height="130" fill="white"/>
<path opacity="0.1" d="M130 61.4874C130 95.4459 102.471 122.975 68.5125 122.975C34.554 122.975 7.02515 95.4459 7.02515 61.4874C7.02515 27.5288 34.554 0 68.5125 0C102.471 0 130 27.5288 130 61.4874Z" fill="#009193"/>
<path d="M0 25.9978C0 24.1285 1.51535 22.6132 3.38463 22.6132H41.082C49.1822 22.6132 55.7487 29.1797 55.7487 37.2799V116.273C55.7487 118.142 54.2333 119.657 52.3641 119.657H3.38463C1.51535 119.657 0 118.142 0 116.273V25.9978Z" fill="white"/>
<path fill-rule="evenodd" clip-rule="evenodd" d="M41.082 24.8696H3.38463C2.76154 24.8696 2.25642 25.3747 2.25642 25.9978V116.273C2.25642 116.896 2.76153 117.401 3.38463 117.401H52.3641C52.9871 117.401 53.4923 116.896 53.4923 116.273V37.2799C53.4923 30.4259 47.936 24.8696 41.082 24.8696ZM3.38463 22.6132C1.51535 22.6132 0 24.1285 0 25.9978V116.273C0 118.142 1.51535 119.657 3.38463 119.657H52.3641C54.2333 119.657 55.7487 118.142 55.7487 116.273V37.2799C55.7487 29.1797 49.1822 22.6132 41.082 22.6132H3.38463Z" fill="#6A6A6A"/>
<path fill-rule="evenodd" clip-rule="evenodd" d="M53.0258 112.821H2.25642V116.206C2.25642 116.829 2.76153 117.334 3.38462 117.334H51.8976C52.5207 117.334 53.0258 116.829 53.0258 116.206V112.821ZM0 110.565V116.206C0 118.075 1.51535 119.59 3.38462 119.59H51.8976C53.7669 119.59 55.2822 118.075 55.2822 116.206V110.565H0Z" fill="#6A6A6A"/>
<path d="M51.8976 38.3591C51.8976 29.6358 58.9692 22.5642 67.6925 22.5642H107.18C109.049 22.5642 110.564 24.0796 110.564 25.9488V116.206C110.564 118.075 109.049 119.59 107.18 119.59H55.2822C53.4129 119.59 51.8976 118.075 51.8976 116.206V38.3591Z" fill="white"/>
<path fill-rule="evenodd" clip-rule="evenodd" d="M107.18 24.8206H67.6925C60.2154 24.8206 54.154 30.882 54.154 38.3591V116.206C54.154 116.829 54.6591 117.334 55.2822 117.334H107.18C107.803 117.334 108.308 116.829 108.308 116.206V25.9488C108.308 25.3257 107.803 24.8206 107.18 24.8206ZM67.6925 22.5642C58.9692 22.5642 51.8976 29.6358 51.8976 38.3591V116.206C51.8976 118.075 53.4129 119.59 55.2822 119.59H107.18C109.049 119.59 110.564 118.075 110.564 116.206V25.9488C110.564 24.0796 109.049 22.5642 107.18 22.5642H67.6925Z" fill="#6A6A6A"/>
<path fill-rule="evenodd" clip-rule="evenodd" d="M108.308 112.821H54.154V116.206C54.154 116.829 54.6591 117.334 55.2822 117.334H107.18C107.803 117.334 108.308 116.829 108.308 116.206V112.821ZM51.8976 110.565V116.206C51.8976 118.075 53.4129 119.59 55.2822 119.59H107.18C109.049 119.59 110.564 118.075 110.564 116.206V110.565H51.8976Z" fill="#6A6A6A"/>
<path fill-rule="evenodd" clip-rule="evenodd" d="M29.0351 36.0335C29.0351 35.7219 29.2876 35.4694 29.5992 35.4694H43.0726C43.3842 35.4694 43.6367 35.7219 43.6367 36.0335C43.6367 36.345 43.3842 36.5976 43.0726 36.5976H29.5992C29.2876 36.5976 29.0351 36.345 29.0351 36.0335ZM29.0351 42.744C29.0351 42.4324 29.2876 42.1798 29.5992 42.1798H43.0726C43.3842 42.1798 43.6367 42.4324 43.6367 42.744C43.6367 43.0555 43.3842 43.3081 43.0726 43.3081H29.5992C29.2876 43.3081 29.0351 43.0555 29.0351 42.744ZM29.0351 49.4544C29.0351 49.1429 29.2876 48.8903 29.5992 48.8903H43.0726C43.3842 48.8903 43.6367 49.1429 43.6367 49.4544C43.6367 49.766 43.3842 50.0185 43.0726 50.0185H29.5992C29.2876 50.0185 29.0351 49.766 29.0351 49.4544ZM9.75977 60.2945C9.75977 59.9829 10.0123 59.7304 10.3239 59.7304H23.7973C24.1089 59.7304 24.3614 59.9829 24.3614 60.2945C24.3614 60.606 24.1089 60.8586 23.7973 60.8586H10.3239C10.0123 60.8586 9.75977 60.606 9.75977 60.2945ZM9.75977 67.005C9.75977 66.6934 10.0123 66.4408 10.3239 66.4408H23.7973C24.1089 66.4408 24.3614 66.6934 24.3614 67.005C24.3614 67.3165 24.1089 67.5691 23.7973 67.5691H10.3239C10.0123 67.5691 9.75977 67.3165 9.75977 67.005ZM9.75977 73.7154C9.75977 73.4039 10.0123 73.1513 10.3239 73.1513H23.7973C24.1089 73.1513 24.3614 73.4039 24.3614 73.7154C24.3614 74.027 24.1089 74.2795 23.7973 74.2795H10.3239C10.0123 74.2795 9.75977 74.027 9.75977 73.7154Z" fill="#6A6A6A"/>
<path fill-rule="evenodd" clip-rule="evenodd" d="M9.75977 83.5232C9.75977 83.2117 10.0123 82.9591 10.3239 82.9591H42.3277C42.6393 82.9591 42.8918 83.2117 42.8918 83.5232C42.8918 83.8348 42.6393 84.0873 42.3277 84.0873H10.3239C10.0123 84.0873 9.75977 83.8348 9.75977 83.5232Z" fill="#6A6A6A"/>
<path fill-rule="evenodd" clip-rule="evenodd" d="M9.75977 93.8472C9.75977 93.5356 10.0123 93.2831 10.3239 93.2831H42.3277C42.6393 93.2831 42.8918 93.5356 42.8918 93.8472C42.8918 94.1587 42.6393 94.4113 42.3277 94.4113H10.3239C10.0123 94.4113 9.75977 94.1587 9.75977 93.8472Z" fill="#6A6A6A"/>
<path fill-rule="evenodd" clip-rule="evenodd" d="M9.75977 88.6852C9.75977 88.3737 10.0123 88.1211 10.3239 88.1211H42.3277C42.6393 88.1211 42.8918 88.3737 42.8918 88.6852C42.8918 88.9967 42.6393 89.2493 42.3277 89.2493H10.3239C10.0123 89.2493 9.75977 88.9967 9.75977 88.6852Z" fill="#6A6A6A"/>
<path fill-rule="evenodd" clip-rule="evenodd" d="M9.75977 99.0089C9.75977 98.6974 10.0123 98.4448 10.3239 98.4448H42.3277C42.6393 98.4448 42.8918 98.6974 42.8918 99.0089C42.8918 99.3205 42.6393 99.573 42.3277 99.573H10.3239C10.0123 99.573 9.75977 99.3205 9.75977 99.0089Z" fill="#6A6A6A"/>
<path d="M22.9252 42.8986C22.9252 46.6372 19.8945 49.6679 16.156 49.6679C12.4174 49.6679 9.38672 46.6372 9.38672 42.8986C9.38672 39.1601 12.4174 36.1294 16.156 36.1294C19.8945 36.1294 22.9252 39.1601 22.9252 42.8986Z" fill="white"/>
<path fill-rule="evenodd" clip-rule="evenodd" d="M16.156 47.4115C18.6483 47.4115 20.6688 45.391 20.6688 42.8986C20.6688 40.4063 18.6483 38.3858 16.156 38.3858C13.6636 38.3858 11.6431 40.4063 11.6431 42.8986C11.6431 45.391 13.6636 47.4115 16.156 47.4115ZM16.156 49.6679C19.8945 49.6679 22.9252 46.6372 22.9252 42.8986C22.9252 39.1601 19.8945 36.1294 16.156 36.1294C12.4174 36.1294 9.38672 39.1601 9.38672 42.8986C9.38672 46.6372 12.4174 49.6679 16.156 49.6679Z" fill="#6A6A6A"/>
<path d="M31.5107 63.1796C31.5107 61.9334 32.521 60.9232 33.7672 60.9232H40.5364C41.7826 60.9232 42.7928 61.9335 42.7928 63.1796V68.9232C42.7928 70.1694 41.7826 71.1797 40.5364 71.1797H33.7672C32.521 71.1797 31.5107 70.1694 31.5107 68.9232V63.1796Z" fill="white"/>
<path fill-rule="evenodd" clip-rule="evenodd" d="M40.5364 63.1796H33.7672L33.7672 68.9232L40.5364 68.9232V63.1796ZM33.7672 60.9232C32.521 60.9232 31.5107 61.9334 31.5107 63.1796V68.9232C31.5107 70.1694 32.521 71.1797 33.7672 71.1797H40.5364C41.7826 71.1797 42.7928 70.1694 42.7928 68.9232V63.1796C42.7928 61.9335 41.7826 60.9232 40.5364 60.9232H33.7672Z" fill="#6A6A6A"/>
<path d="M102.325 102.029C101.702 100.949 102.072 99.5694 103.151 98.9463L107.108 96.6618C108.188 96.0387 109.568 96.4084 110.191 97.4877L123.409 120.382C124.032 121.461 123.662 122.841 122.583 123.464L118.626 125.749C117.547 126.372 116.167 126.002 115.543 124.923L102.325 102.029Z" fill="white"/>
<path fill-rule="evenodd" clip-rule="evenodd" d="M108.237 98.6159L104.28 100.9L117.498 123.795L121.455 121.51L108.237 98.6159ZM103.151 98.9463C102.072 99.5694 101.702 100.949 102.325 102.029L115.543 124.923C116.167 126.002 117.547 126.372 118.626 125.749L122.583 123.464C123.662 122.841 124.032 121.461 123.409 120.382L110.191 97.4877C109.568 96.4084 108.188 96.0387 107.108 96.6618L103.151 98.9463Z" fill="#6A6A6A"/>
<path d="M115.803 66.4824C115.803 82.3642 102.928 95.239 87.0466 95.239C71.1648 95.239 58.29 82.3642 58.29 66.4824C58.29 50.6006 71.1648 37.7258 87.0466 37.7258C102.928 37.7258 115.803 50.6006 115.803 66.4824Z" fill="white"/>
<path fill-rule="evenodd" clip-rule="evenodd" d="M87.0466 92.9825C101.682 92.9825 113.547 81.118 113.547 66.4824C113.547 51.8468 101.682 39.9822 87.0466 39.9822C72.411 39.9822 60.5465 51.8468 60.5465 66.4824C60.5465 81.118 72.411 92.9825 87.0466 92.9825ZM87.0466 95.239C102.928 95.239 115.803 82.3642 115.803 66.4824C115.803 50.6006 102.928 37.7258 87.0466 37.7258C71.1648 37.7258 58.29 50.6006 58.29 66.4824C58.29 82.3642 71.1648 95.239 87.0466 95.239Z" fill="#6A6A6A"/>
<path d="M109.771 66.4824C109.771 79.0328 99.5963 89.207 87.0458 89.207C74.4953 89.207 64.3212 79.0328 64.3212 66.4824C64.3212 53.9319 74.4953 43.7577 87.0458 43.7577C99.5963 43.7577 109.771 53.9319 109.771 66.4824Z" fill="white"/>
<path fill-rule="evenodd" clip-rule="evenodd" d="M87.0458 86.9506C98.3501 86.9506 107.514 77.7867 107.514 66.4824C107.514 55.1781 98.3501 46.0141 87.0458 46.0141C75.7415 46.0141 66.5776 55.1781 66.5776 66.4824C66.5776 77.7867 75.7415 86.9506 87.0458 86.9506ZM87.0458 89.207C99.5963 89.207 109.771 79.0328 109.771 66.4824C109.771 53.9319 99.5963 43.7577 87.0458 43.7577C74.4953 43.7577 64.3212 53.9319 64.3212 66.4824C64.3212 79.0328 74.4953 89.207 87.0458 89.207Z" fill="#6A6A6A"/>
<path fill-rule="evenodd" clip-rule="evenodd" d="M86.4824 49.2829C86.4824 48.9713 86.735 48.7188 87.0465 48.7188C96.8572 48.7188 104.81 56.6718 104.81 66.4824C104.81 66.794 104.558 67.0465 104.246 67.0465C103.935 67.0465 103.682 66.794 103.682 66.4824C103.682 57.2949 96.2341 49.847 87.0465 49.847C86.735 49.847 86.4824 49.5944 86.4824 49.2829ZM72.0594 74.9462C72.3254 74.7839 72.6725 74.868 72.8348 75.134C73.8285 76.7627 75.0945 78.2075 76.5695 79.4049C77.4599 80.1277 78.4264 80.7603 79.4549 81.2888C81.7303 82.4579 84.3105 83.1179 87.0465 83.1179C87.3581 83.1179 87.6106 83.3705 87.6106 83.682C87.6106 83.9936 87.3581 84.2461 87.0465 84.2461C84.127 84.2461 81.3705 83.5414 78.9393 82.2923C77.8408 81.7279 76.8089 81.0524 75.8584 80.2808C74.2841 79.0028 72.9327 77.4606 71.8717 75.7216C71.7094 75.4556 71.7935 75.1085 72.0594 74.9462Z" fill="#6A6A6A"/>
<path fill-rule="evenodd" clip-rule="evenodd" d="M104.511 99.0423L100.011 91.2478L101.965 90.1196L106.465 97.9141L104.511 99.0423Z" fill="#6A6A6A"/>
<path d="M86.2925 72.1957C86.13 72.1957 85.9946 72.1505 85.8863 72.0603C85.778 71.952 85.7239 71.8076 85.7239 71.6271C85.7239 71.4465 85.7239 71.266 85.7239 71.0855C85.7239 70.905 85.7239 70.7245 85.7239 70.544C85.76 69.7678 85.9315 69.0818 86.2383 68.4861C86.5452 67.8904 86.9153 67.3489 87.3485 66.8615C87.7998 66.3741 88.2511 65.9138 88.7024 65.4806C89.1536 65.0293 89.5327 64.578 89.8396 64.1267C90.1645 63.6754 90.3631 63.1971 90.4353 62.6916C90.5075 62.0418 90.3811 61.5003 90.0562 61.067C89.7313 60.6157 89.289 60.2728 88.7294 60.0381C88.1698 59.8034 87.5922 59.6861 86.9965 59.6861C86.0398 59.6861 85.2184 59.9388 84.5325 60.4442C83.8646 60.9316 83.4223 61.762 83.2057 62.9353C83.1516 63.1519 83.0613 63.3054 82.9349 63.3956C82.8086 63.4859 82.6642 63.531 82.5017 63.531H81.202C81.0396 63.531 80.8951 63.4769 80.7688 63.3686C80.6605 63.2603 80.6063 63.1158 80.6063 62.9353C80.6244 62.1952 80.7868 61.4912 81.0937 60.8233C81.4006 60.1554 81.8338 59.5688 82.3934 59.0633C82.971 58.5579 83.648 58.1608 84.4242 57.8719C85.2184 57.5651 86.103 57.4116 87.0777 57.4116C88.1789 57.4116 89.1175 57.5651 89.8937 57.8719C90.688 58.1608 91.3198 58.5579 91.7891 59.0633C92.2765 59.5507 92.6285 60.0922 92.8451 60.6879C93.0617 61.2836 93.152 61.8793 93.1159 62.475C93.0618 63.1971 92.8812 63.8469 92.5744 64.4246C92.2675 64.9842 91.8974 65.5076 91.4642 65.995C91.031 66.4644 90.5887 66.9337 90.1374 67.403C89.7042 67.8543 89.3251 68.3327 89.0002 68.8381C88.6933 69.3255 88.5218 69.858 88.4857 70.4357C88.4677 70.6342 88.4496 70.8328 88.4316 71.0314C88.4316 71.2119 88.4316 71.3924 88.4316 71.5729C88.3955 71.7715 88.3233 71.9249 88.215 72.0332C88.1067 72.1415 87.9532 72.1957 87.7547 72.1957H86.2925ZM86.0759 76.6363C85.8954 76.6363 85.7419 76.5821 85.6156 76.4738C85.5073 76.3475 85.4531 76.194 85.4531 76.0135V74.3618C85.4531 74.1813 85.5073 74.0369 85.6156 73.9286C85.7419 73.8022 85.8954 73.7391 86.0759 73.7391H87.8359C88.0345 73.7391 88.1879 73.8022 88.2962 73.9286C88.4226 74.0369 88.4857 74.1813 88.4857 74.3618V76.0135C88.4857 76.194 88.4226 76.3475 88.2962 76.4738C88.1879 76.5821 88.0345 76.6363 87.8359 76.6363H86.0759Z" fill="#6A6A6A"/>
</svg>
