<?xml version="1.0" encoding="utf-8"?>
<!--
  Copyright 2023-2025 Solace Systems. All rights reserved.

  Licensed under the Apache License, Version 2.0 (the "License");
  you may not use this file except in compliance with the License.
  You may obtain a copy of the License at

      http://www.apache.org/licenses/LICENSE-2.0

  Unless required by applicable law or agreed to in writing, software
  distributed under the License is distributed on an "AS IS" BASIS,
  WITHOUT WARRANTIES OR CONDITIONS OF ANY KIND, either express or implied.
  See the License for the specific language governing permissions and
  limitations under the License.
-->
<svg width="48" height="48" viewBox="0 0 48 48" fill="none" xmlns="http://www.w3.org/2000/svg">
<path d="M5 39C5 37.3431 6.34315 36 8 36H24C25.6569 36 27 37.3431 27 39C27 40.6569 25.6569 42 24 42H8C6.34315 42 5 40.6569 5 39Z" fill="white"/>
<path fill-rule="evenodd" clip-rule="evenodd" d="M36.3011 10.901L36.0843 12.0412L37.274 12.0535C39.3741 12.0754 40.9997 13.6643 40.9997 15.5392C40.9997 17.2352 39.6739 18.6936 37.8634 18.9763L37.552 19.0249L37.2739 19.0249L37.2653 19.0249L37.2306 19.0251L37.1958 19.0249L24.9952 19.0249V19.9998H37.0029L36.9999 20L37.1991 19.9999L37.2306 20L37.2739 19.9998L37.1991 19.9999L37.1872 19.9998H37.0029L38.0217 19.9389C40.2793 19.5865 42 17.7508 42 15.5392C42 13.4131 40.4097 11.6344 38.281 11.1869C37.9599 11.1195 37.6266 11.0822 37.2846 11.0787C37.3448 10.7621 37.3786 10.437 37.3836 10.1054C37.3841 10.0763 37.3843 10.0471 37.3843 10.0179C37.3843 6.6943 34.5036 4 30.95 4C28.6262 4 26.5901 5.1522 25.4592 6.87912C25.2772 7.15702 25.1187 7.44981 24.9861 7.75507C24.7281 7.54978 24.4345 7.38242 24.1152 7.26221C23.7492 7.1244 23.3493 7.04855 22.9305 7.04855C21.1774 7.04855 19.7562 8.37777 19.7562 10.0174C19.7562 10.1024 19.7601 10.1865 19.7675 10.2696C17.6516 10.9482 16.1186 12.674 16 14.7241H17.0025C17.1202 13.1567 18.3099 11.7634 20.0802 11.1957L20.8332 10.9542L20.764 10.1845C20.7591 10.1296 20.7565 10.0739 20.7565 10.0174C20.7565 8.95366 21.6906 8.02345 22.9305 8.02345C23.4798 8.02345 23.975 8.20908 24.3536 8.5103L25.3873 9.33274L25.9073 8.13499C26.705 6.2979 28.6491 4.97491 30.95 4.97491C33.9904 4.97491 36.384 7.2702 36.384 10.0179C36.384 10.3199 36.3555 10.6149 36.3011 10.901Z" fill="#6A6A6A"/>
<path fill-rule="evenodd" clip-rule="evenodd" d="M19.9115 18.2159C19.8213 18.0854 19.6706 18 19.5 18C19.2239 18 19 18.2239 19 18.5V32.5C19 32.7761 19.2239 33 19.5 33C19.7761 33 20 32.7761 20 32.5L20 19.7186L22.1428 21.8614C22.342 22.0606 22.6618 22.0638 22.8571 21.8686C23.0523 21.6733 23.0491 21.3535 22.8499 21.1543L19.9115 18.2159Z" fill="#6A6A6A"/>
<path fill-rule="evenodd" clip-rule="evenodd" d="M17.109 32.8116C17.2006 32.9264 17.3417 33 17.5 33C17.7762 33 18 32.7761 18 32.5L18 18.5C18 18.2239 17.7762 18 17.5 18C17.2239 18 17 18.2239 17 18.5L17 31.3345L16.3562 30.7276L14.815 29.2745C14.6308 29.1009 14.328 29.1231 14.1386 29.324C13.9492 29.5249 13.9449 29.8285 14.129 30.0021L17.109 32.8116Z" fill="#6A6A6A"/>
<path fill-rule="evenodd" clip-rule="evenodd" d="M11.5 36.0001V36H11V36.0001H8C6.34315 36.0001 5 37.3432 5 39.0001C5 40.6569 6.34315 42.0001 8 42.0001H23H23.5H24C24.007 42.0001 24.0141 42 24.0211 42H41.5C41.7761 42 42 41.7761 42 41.5C42 41.2239 41.7761 41 41.5 41H26.2362C26.7112 40.4693 27 39.7684 27 39.0001C27 37.3432 25.6569 36.0001 24 36.0001H11.5ZM24.0172 41C25.1139 40.9908 26 40.0989 26 39.0001C26 37.8955 25.1046 37.0001 24 37.0001H23.5V41H24.0172ZM23 41V37.0001H11.5V41H23ZM11 41V37.0001H8C6.89543 37.0001 6 37.8955 6 39.0001C6 40.1046 6.89543 41.0001 8 41.0001H8.4914C8.49426 41 8.49713 41 8.5 41H11Z" fill="#6A6A6A"/>
<circle cx="9" cy="39" r="1" fill="#00C895"/>
</svg>