<svg width="48" height="48" viewBox="0 0 48 48" fill="none" xmlns="http://www.w3.org/2000/svg">
<path fill-rule="evenodd" clip-rule="evenodd" d="M36.5795 11.1728C36.5795 11.5441 36.5453 11.9077 36.4798 12.2609C39.0883 12.2887 41.1939 14.3265 41.1939 16.8362C41.1939 19.1047 39.4736 20.9876 37.2167 21.3492V21.4116H36.4692C36.4547 21.4118 36.4403 21.4118 36.4258 21.4118C36.4114 21.4118 36.3969 21.4118 36.3825 21.4116H21.0155C20.9983 21.4118 20.9812 21.4118 20.964 21.4118C20.9469 21.4118 20.9297 21.4118 20.9126 21.4116H20.072V21.3507C17.3088 20.9681 15.1938 18.836 15.1938 16.2632C15.1938 14.0458 16.7648 12.1558 18.9677 11.431C18.9602 11.3457 18.9564 11.2595 18.9564 11.1723C18.9564 9.49044 20.3772 8.12701 22.1298 8.12701C22.9137 8.12701 23.6312 8.39975 24.1848 8.85172C25.1407 6.59285 27.45 5 30.147 5C33.6996 5 36.5795 7.76365 36.5795 11.1728Z" fill="white"/>
<path d="M5 39C5 37.3431 6.34315 36 8 36H24C25.6569 36 27 37.3431 27 39V39C27 40.6569 25.6569 42 24 42H8C6.34315 42 5 40.6569 5 39V39Z" fill="white"/>
<path fill-rule="evenodd" clip-rule="evenodd" d="M24 37H8C6.89543 37 6 37.8954 6 39C6 40.1046 6.89543 41 8 41H24C25.1046 41 26 40.1046 26 39C26 37.8954 25.1046 37 24 37ZM8 36C6.34315 36 5 37.3431 5 39C5 40.6569 6.34315 42 8 42H24C25.6569 42 27 40.6569 27 39C27 37.3431 25.6569 36 24 36H8Z" fill="#6A6A6A"/>
<path fill-rule="evenodd" clip-rule="evenodd" d="M11.4631 36.344L11.4631 41.5389L10.9631 41.5389L10.9631 36.344L11.4631 36.344Z" fill="#6A6A6A"/>
<path fill-rule="evenodd" clip-rule="evenodd" d="M24.1938 36L24.1938 41L23.6938 41L23.6938 36L24.1938 36Z" fill="#6A6A6A"/>
<path fill-rule="evenodd" clip-rule="evenodd" d="M35.4966 12.0787L35.2798 13.2482L36.4692 13.2608C38.5687 13.2832 40.1939 14.913 40.1939 16.8362C40.1939 18.5759 38.8685 20.0718 37.0585 20.3618L36.7471 20.4116L36.4691 20.4116L36.4605 20.4117L36.4258 20.4118L36.3911 20.4116L24.1938 20.4116V21.4116H36.3825L36.4258 21.4118L36.4691 21.4116H37.2166V21.3492C39.4736 20.9876 41.1939 19.1047 41.1939 16.8362C41.1939 14.6554 39.604 12.8309 37.4759 12.3719C37.1549 12.3027 36.8217 12.2645 36.4798 12.2609C36.54 11.9362 36.5737 11.6027 36.5788 11.2625C36.5792 11.2327 36.5794 11.2028 36.5794 11.1728C36.5794 7.76365 33.6995 5 30.147 5C27.8239 5 25.7883 6.18186 24.6578 7.95323C24.4758 8.23828 24.3173 8.5386 24.1848 8.85172C23.9269 8.64115 23.6333 8.46948 23.3141 8.34618C22.9482 8.20482 22.5485 8.12701 22.1298 8.12701C20.3772 8.12701 18.9564 9.49044 18.9564 11.1723C18.9564 11.2595 18.9602 11.3457 18.9677 11.431C16.8524 12.127 15.3199 13.8972 15.2012 16H16.2034C16.3212 14.3923 17.5105 12.9632 19.2802 12.3809L20.0331 12.1332L19.9639 11.3437C19.9589 11.2874 19.9564 11.2303 19.9564 11.1723C19.9564 10.0812 20.8902 9.12701 22.1298 9.12701C22.6789 9.12701 23.1739 9.31741 23.5524 9.62639L24.5859 10.47L25.1058 9.24142C25.9031 7.35705 27.8467 6 30.147 6C33.1865 6 35.5794 8.35437 35.5794 11.1728C35.5794 11.4826 35.551 11.7852 35.4966 12.0787Z" fill="#6A6A6A"/>
<path fill-rule="evenodd" clip-rule="evenodd" d="M19.3558 18.6487C19.2652 18.5569 19.1392 18.5 19 18.5C18.7239 18.5 18.5 18.7239 18.5 19V33C18.5 33.2761 18.7239 33.5 19 33.5C19.2761 33.5 19.5 33.2761 19.5 33L19.5 20.2071L21.6465 22.3536C21.8417 22.5489 22.1583 22.5489 22.3536 22.3536C22.5488 22.1583 22.5488 21.8417 22.3536 21.6465L19.3558 18.6487Z" fill="#6A6A6A"/>
<path fill-rule="evenodd" clip-rule="evenodd" d="M16.5986 33.2982C16.6897 33.4207 16.8356 33.5 17 33.5C17.2761 33.5 17.5 33.2761 17.5 33L17.5 19C17.5 18.7239 17.2761 18.5 17 18.5C16.7239 18.5 16.5 18.7239 16.5 19L16.5 31.8309L14.0299 29.5021C13.829 29.3126 13.5125 29.3219 13.3231 29.5229C13.1337 29.7238 13.143 30.0402 13.3439 30.2297L16.5986 33.2982Z" fill="#6A6A6A"/>
<path fill-rule="evenodd" clip-rule="evenodd" d="M8 41.5C8 41.2239 8.22386 41 8.5 41L41.5 41C41.7761 41 42 41.2239 42 41.5C42 41.7761 41.7761 42 41.5 42L8.5 42C8.22386 42 8 41.7761 8 41.5Z" fill="#6A6A6A"/>
<circle cx="9.11145" cy="39.1114" r="1.20038" fill="#00C895"/>
</svg>
