<svg width="80" height="80" viewBox="0 0 80 80" fill="none" xmlns="http://www.w3.org/2000/svg">
<path opacity="0.1" d="M73.8461 38.7692C73.8461 57.462 58.6927 72.6154 40 72.6154C21.3072 72.6154 6.15381 57.462 6.15381 38.7692C6.15381 20.0765 21.3072 4.9231 40 4.9231C58.6927 4.9231 73.8461 20.0765 73.8461 38.7692Z" fill="#009193"/>
<path fill-rule="evenodd" clip-rule="evenodd" d="M1.34619 73.5385C1.34619 73.2623 1.57005 73.0385 1.84619 73.0385H78.1539C78.43 73.0385 78.6539 73.2623 78.6539 73.5385C78.6539 73.8146 78.43 74.0385 78.1539 74.0385H1.84619C1.57005 74.0385 1.34619 73.8146 1.34619 73.5385Z" fill="#6A6A6A"/>
<path fill-rule="evenodd" clip-rule="evenodd" d="M34.0647 59.5H45.9358L49.1026 73.1175C49.1652 73.3865 48.9979 73.6552 48.7289 73.7178C48.4599 73.7803 48.1912 73.613 48.1286 73.344L45.1417 60.5H34.8589L31.8719 73.344C31.8093 73.613 31.5406 73.7803 31.2716 73.7178C31.0027 73.6552 30.8353 73.3865 30.8979 73.1175L34.0647 59.5Z" fill="#6A6A6A"/>
<path d="M8.61553 56V22.0769C8.61553 20.42 9.95868 19.0769 11.6155 19.0769H35.0771H40.0001H44.9232H68.3848C70.0416 19.0769 71.3848 20.4201 71.3848 22.0769V56C72.0645 56 72.6155 56.551 72.6155 57.2308V58C72.6155 59.1046 71.7201 60 70.6155 60H9.38476C8.28019 60 7.38477 59.1046 7.38477 58V57.2308C7.38477 56.551 7.9358 56 8.61553 56Z" fill="white"/>
<path fill-rule="evenodd" clip-rule="evenodd" d="M10.4617 19.5769C9.71823 19.5769 9.11553 20.1796 9.11553 20.9231V55.5H70.8848V20.9231C70.8848 20.1796 70.2821 19.5769 69.5386 19.5769H10.4617ZM71.8848 55.5733V20.9231C71.8848 19.6273 70.8344 18.5769 69.5386 18.5769H10.4617C9.16594 18.5769 8.11553 19.6273 8.11553 20.9231V55.5733C7.40343 55.7878 6.88477 56.4487 6.88477 57.2308V58.7692C6.88477 59.7251 7.65966 60.5 8.61553 60.5H71.3848C72.3406 60.5 73.1155 59.7251 73.1155 58.7692V57.2308C73.1155 56.4487 72.5969 55.7878 71.8848 55.5733ZM8.61553 56.5C8.21194 56.5 7.88477 56.8272 7.88477 57.2308V58.7692C7.88477 59.1728 8.21194 59.5 8.61553 59.5H71.3848C71.7884 59.5 72.1155 59.1728 72.1155 58.7692V57.2308C72.1155 56.8272 71.7884 56.5 71.3848 56.5H8.61553Z" fill="#6A6A6A"/>
<path fill-rule="evenodd" clip-rule="evenodd" d="M50.4157 26.7234C50.611 26.5281 50.9276 26.5281 51.1228 26.7234L52.969 28.5695C53.1642 28.7648 53.1642 29.0813 52.969 29.2766L51.1228 31.1228C50.9276 31.318 50.611 31.318 50.4157 31.1228C50.2205 30.9275 50.2205 30.6109 50.4157 30.4157L51.4083 29.4231H25.8462C25.57 29.4231 25.3462 29.1992 25.3462 28.9231C25.3462 28.6469 25.57 28.4231 25.8462 28.4231H51.4083L50.4157 27.4305C50.2205 27.2352 50.2205 26.9186 50.4157 26.7234Z" fill="#6A6A6A"/>
<path fill-rule="evenodd" clip-rule="evenodd" d="M42.1997 41.1849C42.395 41.3801 42.395 41.6967 42.1997 41.892L40.3536 43.7381C40.1583 43.9334 39.8417 43.9334 39.6465 43.7381L37.8003 41.892C37.6051 41.6967 37.6051 41.3801 37.8003 41.1849C37.9956 40.9896 38.3122 40.9896 38.5074 41.1849L39.5 42.1775V33.2307C39.5 32.9546 39.7239 32.7307 40 32.7307C40.2762 32.7307 40.5 32.9546 40.5 33.2307V42.1775L41.4926 41.1849C41.6879 40.9896 42.0045 40.9896 42.1997 41.1849Z" fill="#6A6A6A"/>
<path fill-rule="evenodd" clip-rule="evenodd" d="M56.7158 35.7923C56.5991 35.542 56.7074 35.2445 56.9577 35.1278L59.3239 34.0244C59.5742 33.9077 59.8717 34.016 59.9884 34.2662L61.0918 36.6325C61.2085 36.8827 61.1002 37.1802 60.8499 37.2969C60.5997 37.4136 60.3022 37.3054 60.1855 37.0551L59.5922 35.7829L55.743 46.3586C55.6485 46.6181 55.3616 46.7519 55.1021 46.6574C54.8426 46.563 54.7088 46.276 54.8033 46.0166L58.6525 35.4408L57.3803 36.0341C57.13 36.1508 56.8325 36.0425 56.7158 35.7923Z" fill="#6A6A6A"/>
<circle cx="18.7693" cy="28.9231" r="3.07692" fill="white"/>
<path fill-rule="evenodd" clip-rule="evenodd" d="M18.7693 26.3462C17.3461 26.3462 16.1924 27.4999 16.1924 28.9231C16.1924 30.3463 17.3461 31.5 18.7693 31.5C20.1925 31.5 21.3462 30.3463 21.3462 28.9231C21.3462 27.4999 20.1925 26.3462 18.7693 26.3462ZM15.1924 28.9231C15.1924 26.9476 16.7938 25.3462 18.7693 25.3462C20.7448 25.3462 22.3462 26.9476 22.3462 28.9231C22.3462 30.8986 20.7448 32.5 18.7693 32.5C16.7938 32.5 15.1924 30.8986 15.1924 28.9231Z" fill="#6A6A6A"/>
<circle cx="60.3079" cy="28.9231" r="3.07692" fill="#00C895"/>
<path fill-rule="evenodd" clip-rule="evenodd" d="M60.3079 26.3462C58.8847 26.3462 57.731 27.4999 57.731 28.9231C57.731 30.3463 58.8847 31.5 60.3079 31.5C61.7311 31.5 62.8848 30.3463 62.8848 28.9231C62.8848 27.4999 61.7311 26.3462 60.3079 26.3462ZM56.731 28.9231C56.731 26.9476 58.3324 25.3462 60.3079 25.3462C62.2834 25.3462 63.8848 26.9476 63.8848 28.9231C63.8848 30.8986 62.2834 32.5 60.3079 32.5C58.3324 32.5 56.731 30.8986 56.731 28.9231Z" fill="#00C895"/>
<circle cx="39.9998" cy="49.2307" r="3.07692" fill="white"/>
<path fill-rule="evenodd" clip-rule="evenodd" d="M39.9998 46.6538C38.5766 46.6538 37.4229 47.8075 37.4229 49.2307C37.4229 50.6539 38.5766 51.8077 39.9998 51.8077C41.423 51.8077 42.5767 50.6539 42.5767 49.2307C42.5767 47.8075 41.423 46.6538 39.9998 46.6538ZM36.4229 49.2307C36.4229 47.2553 38.0243 45.6538 39.9998 45.6538C41.9753 45.6538 43.5767 47.2553 43.5767 49.2307C43.5767 51.2062 41.9753 52.8077 39.9998 52.8077C38.0243 52.8077 36.4229 51.2062 36.4229 49.2307Z" fill="#6A6A6A"/>
<path d="M37.5386 27.0769C37.5386 26.7371 37.759 26.4615 38.0309 26.4615H41.9693C42.2412 26.4615 42.4617 26.7371 42.4617 27.0769V30.1539C42.4617 30.4937 42.2412 30.7692 41.9693 30.7692H38.0309C37.759 30.7692 37.5386 30.4937 37.5386 30.1539V27.0769Z" fill="white"/>
<path fill-rule="evenodd" clip-rule="evenodd" d="M37.0386 27.0769C37.0386 26.4609 37.5379 25.9615 38.154 25.9615H41.8463C42.4623 25.9615 42.9617 26.4609 42.9617 27.0769V30.1539C42.9617 30.7699 42.4623 31.2692 41.8463 31.2692H38.154C37.5379 31.2692 37.0386 30.7699 37.0386 30.1539V27.0769ZM38.154 26.9615C38.0902 26.9615 38.0386 27.0132 38.0386 27.0769V30.1539C38.0386 30.2176 38.0902 30.2692 38.154 30.2692H41.8463C41.91 30.2692 41.9617 30.2176 41.9617 30.1539V27.0769C41.9617 27.0132 41.91 26.9615 41.8463 26.9615H38.154Z" fill="#6A6A6A"/>
<path d="M52.3076 47.3847C52.3076 47.0448 52.5831 46.7693 52.923 46.7693H56.6153C56.9552 46.7693 57.2307 47.0448 57.2307 47.3847V50.4616C57.2307 50.8015 56.9552 51.077 56.6153 51.077H52.923C52.5831 51.077 52.3076 50.8015 52.3076 50.4616V47.3847Z" fill="white"/>
<path d="M52.3076 47.3847C52.3076 47.0448 52.5831 46.7693 52.923 46.7693H56.6153C56.9552 46.7693 57.2307 47.0448 57.2307 47.3847V50.4616C57.2307 50.8015 56.9552 51.077 56.6153 51.077H52.923C52.5831 51.077 52.3076 50.8015 52.3076 50.4616V47.3847Z" stroke="#6A6A6A"/>
<path fill-rule="evenodd" clip-rule="evenodd" d="M22.154 39.6923C21.5394 39.6923 20.985 39.4349 20.5926 39.022C19.9578 39.2341 19.3806 39.5721 18.8906 40.0062C19.0514 40.5521 18.997 41.1605 18.6899 41.6923C18.3827 42.2244 17.8827 42.5758 17.3291 42.7093C17.2647 43.0269 17.231 43.3557 17.231 43.6923C17.231 44.0289 17.2647 44.3576 17.3291 44.6752C17.8827 44.8087 18.3827 45.1601 18.6899 45.6923C18.997 46.2241 19.0514 46.8324 18.8906 47.3783C19.3806 47.8125 19.9578 48.1504 20.5926 48.3626C20.985 47.9497 21.5395 47.6923 22.154 47.6923C22.7686 47.6923 23.3231 47.9497 23.7155 48.3626C24.3503 48.1504 24.9275 47.8125 25.4175 47.3783C25.2566 46.8324 25.3111 46.2241 25.6181 45.6923C25.9254 45.1602 26.4253 44.8087 26.979 44.6753C27.0433 44.3576 27.0771 44.0289 27.0771 43.6923C27.0771 43.3556 27.0433 43.0269 26.979 42.7093C26.4253 42.5758 25.9254 42.2244 25.6181 41.6923C25.3111 41.1605 25.2566 40.5521 25.4175 40.0062C24.9275 39.5721 24.3503 39.2341 23.7155 39.022C23.3231 39.4349 22.7686 39.6923 22.154 39.6923ZM22.154 45.5384C23.1736 45.5384 24.0002 44.7119 24.0002 43.6923C24.0002 42.6727 23.1736 41.8461 22.154 41.8461C21.1344 41.8461 20.3079 42.6727 20.3079 43.6923C20.3079 44.7119 21.1344 45.5384 22.154 45.5384Z" fill="white"/>
<path fill-rule="evenodd" clip-rule="evenodd" d="M20.7358 38.4469L20.955 38.6775C21.2569 38.9952 21.6821 39.1923 22.154 39.1923C22.626 39.1923 23.0511 38.9952 23.3531 38.6775L23.5722 38.4469L23.874 38.5477C24.5738 38.7816 25.2097 39.154 25.7491 39.632L25.9869 39.8427L25.8971 40.1475C25.7733 40.5676 25.8154 41.0339 26.0511 41.4423C26.2871 41.8509 26.6702 42.1205 27.0961 42.2232L27.4058 42.2978L27.469 42.61C27.54 42.9601 27.5771 43.3221 27.5771 43.6923C27.5771 44.0624 27.54 44.4244 27.469 44.7745L27.4058 45.0867L27.0961 45.1613C26.6702 45.264 26.2871 45.5336 26.0511 45.9423C25.8154 46.3507 25.7733 46.8169 25.8971 47.237L25.9869 47.5418L25.7491 47.7526C25.2097 48.2305 24.5738 48.6029 23.874 48.8368L23.5722 48.9376L23.3531 48.707C23.0511 48.3893 22.626 48.1923 22.154 48.1923C21.6821 48.1923 21.257 48.3893 20.955 48.707L20.7358 48.9376L20.4341 48.8368C19.7342 48.6029 19.0984 48.2305 18.559 47.7526L18.3211 47.5418L18.411 47.237C18.5347 46.8169 18.4927 46.3507 18.2569 45.9423C18.021 45.5336 17.6379 45.264 17.2119 45.1613L16.9023 45.0867L16.8391 44.7745C16.7681 44.4244 16.731 44.0624 16.731 43.6923C16.731 43.3221 16.7681 42.9601 16.8391 42.61L16.9023 42.2978L17.2119 42.2232C17.6379 42.1205 18.021 41.8509 18.2569 41.4423C18.4927 41.0339 18.5347 40.5676 18.411 40.1475L18.3211 39.8427L18.559 39.632C19.0984 39.154 19.7342 38.7816 20.4341 38.5477L20.7358 38.4469ZM19.4451 40.1955C19.5384 40.7763 19.4402 41.3928 19.1229 41.9423C18.8056 42.4919 18.3208 42.8852 17.7709 43.0948C17.7446 43.29 17.731 43.4894 17.731 43.6923C17.731 43.8951 17.7446 44.0945 17.7709 44.2897C18.3208 44.4993 18.8056 44.8926 19.1229 45.4423C19.4402 45.9917 19.5384 46.6082 19.4451 47.189C19.7591 47.4327 20.1065 47.6348 20.4793 47.7874C20.9358 47.4157 21.5191 47.1923 22.154 47.1923C22.789 47.1923 23.3723 47.4157 23.8288 47.7874C24.2015 47.6348 24.549 47.4327 24.8629 47.189C24.7696 46.6082 24.8679 45.9917 25.1851 45.4423C25.5024 44.8926 25.9873 44.4993 26.5372 44.2897C26.5635 44.0945 26.5771 43.8951 26.5771 43.6923C26.5771 43.4894 26.5635 43.29 26.5372 43.0948C25.9873 42.8852 25.5024 42.4919 25.1851 41.9423C24.8679 41.3928 24.7696 40.7763 24.8629 40.1955C24.549 39.9519 24.2015 39.7497 23.8288 39.5971C23.3723 39.9688 22.789 40.1923 22.154 40.1923C21.5191 40.1923 20.9358 39.9688 20.4792 39.5971C20.1065 39.7497 19.7591 39.9519 19.4451 40.1955ZM22.154 42.3461C21.4106 42.3461 20.8079 42.9488 20.8079 43.6923C20.8079 44.4357 21.4106 45.0384 22.154 45.0384C22.8975 45.0384 23.5002 44.4357 23.5002 43.6923C23.5002 42.9488 22.8975 42.3461 22.154 42.3461ZM19.8079 43.6923C19.8079 42.3965 20.8583 41.3461 22.154 41.3461C23.4498 41.3461 24.5002 42.3965 24.5002 43.6923C24.5002 44.988 23.4498 46.0384 22.154 46.0384C20.8583 46.0384 19.8079 44.988 19.8079 43.6923Z" fill="#6A6A6A"/>
</svg>
