<?xml version="1.0" encoding="utf-8"?>
<!--
  Copyright 2023-2025 Solace Systems. All rights reserved.

  Licensed under the Apache License, Version 2.0 (the "License");
  you may not use this file except in compliance with the License.
  You may obtain a copy of the License at

      http://www.apache.org/licenses/LICENSE-2.0

  Unless required by applicable law or agreed to in writing, software
  distributed under the License is distributed on an "AS IS" BASIS,
  WITHOUT WARRANTIES OR CONDITIONS OF ANY KIND, either express or implied.
  See the License for the specific language governing permissions and
  limitations under the License.
-->
<svg width="48" height="48" viewBox="0 0 48 48" fill="none" xmlns="http://www.w3.org/2000/svg">
<g clip-path="url(#clip0_81_3867)">
<path d="M4 5C4 4.44771 4.44772 4 5 4H33C33.5523 4 34 4.44772 34 5V43C34 43.5523 33.5523 44 33 44H5C4.44772 44 4 43.5523 4 43V5Z" fill="white"/>
<path fill-rule="evenodd" clip-rule="evenodd" d="M33 5L5 5V43H33V5ZM5 4C4.44772 4 4 4.44771 4 5V43C4 43.5523 4.44772 44 5 44H33C33.5523 44 34 43.5523 34 43V5C34 4.44772 33.5523 4 33 4H5Z" fill="#6A6A6A"/>
<path fill-rule="evenodd" clip-rule="evenodd" d="M29 29H9V39H29V29ZM9 28C8.44772 28 8 28.4477 8 29V39C8 39.5523 8.44772 40 9 40H29C29.5523 40 30 39.5523 30 39V29C30 28.4477 29.5523 28 29 28H9Z" fill="#6A6A6A"/>
<path fill-rule="evenodd" clip-rule="evenodd" d="M29 18H23V24H29V18ZM23 17C22.4477 17 22 17.4477 22 18V24C22 24.5523 22.4477 25 23 25H29C29.5523 25 30 24.5523 30 24V18C30 17.4477 29.5523 17 29 17H23Z" fill="#6A6A6A"/>
<path fill-rule="evenodd" clip-rule="evenodd" d="M17.5 11C17.5 10.7239 17.7239 10.5 18 10.5H29.57C29.8461 10.5 30.07 10.7239 30.07 11C30.07 11.2761 29.8461 11.5 29.57 11.5H18C17.7239 11.5 17.5 11.2761 17.5 11Z" fill="#6A6A6A"/>
<path fill-rule="evenodd" clip-rule="evenodd" d="M7.5 19C7.5 18.7239 7.72386 18.5 8 18.5H19.57C19.8461 18.5 20.07 18.7239 20.07 19C20.07 19.2761 19.8461 19.5 19.57 19.5H8C7.72386 19.5 7.5 19.2761 7.5 19Z" fill="#6A6A6A"/>
<path fill-rule="evenodd" clip-rule="evenodd" d="M7.5 23C7.5 22.7239 7.72386 22.5 8 22.5H19.57C19.8461 22.5 20.07 22.7239 20.07 23C20.07 23.2761 19.8461 23.5 19.57 23.5H8C7.72386 23.5 7.5 23.2761 7.5 23Z" fill="#6A6A6A"/>
<path d="M14.2453 10.6227C14.2453 12.6234 12.6234 14.2453 10.6227 14.2453C8.62192 14.2453 7 12.6234 7 10.6227C7 8.62192 8.62192 7 10.6227 7C12.6234 7 14.2453 8.62192 14.2453 10.6227Z" fill="#00C895"/>
<path d="M39.0413 4.5989L42.9776 7.19936C43.4408 7.5054 43.5683 8.12904 43.2622 8.5923L26.1646 34.4725C25.9887 34.7388 25.7519 34.9593 25.4739 35.116L19.4743 38.4962L20.2298 31.6515C20.2648 31.3343 20.3748 31.03 20.5507 30.7638L37.6484 4.88354C37.9544 4.42029 38.5781 4.29285 39.0413 4.5989Z" fill="white"/>
<path fill-rule="evenodd" clip-rule="evenodd" d="M19.1988 38.9134C19.0423 38.81 18.9568 38.6278 18.9774 38.4414L19.7329 31.5966C19.7766 31.2006 19.914 30.8206 20.1336 30.4882L37.2313 4.60793C37.6895 3.91428 38.6233 3.72345 39.317 4.18171L43.2532 6.78218C43.9469 7.24044 44.1377 8.17425 43.6794 8.8679L26.5818 34.7481C26.3621 35.0806 26.0665 35.356 25.7194 35.5516L19.7198 38.9318C19.5564 39.0239 19.3552 39.0168 19.1988 38.9134ZM20.0783 37.582L25.2285 34.6803C25.4374 34.5627 25.6153 34.397 25.7474 34.1969L42.8451 8.31668C42.9989 8.08383 42.9349 7.77037 42.702 7.61654L38.7658 5.01607C38.5329 4.86224 38.2194 4.9263 38.0656 5.15915L20.9679 31.0394C20.8358 31.2394 20.7532 31.468 20.7269 31.7063L20.0783 37.582Z" fill="#6A6A6A"/>
<path fill-rule="evenodd" clip-rule="evenodd" d="M20.1419 35.7313L21.6887 36.7532L20.7461 38.1799L19.1993 37.1581L20.1419 35.7313Z" fill="#6A6A6A"/>
<path fill-rule="evenodd" clip-rule="evenodd" d="M36.6461 6.25403L42.2254 9.93993L41.6741 10.7743L36.0949 7.08839L36.6461 6.25403Z" fill="#6A6A6A"/>
<path fill-rule="evenodd" clip-rule="evenodd" d="M22.125 32.5896C22.0092 32.5131 21.9773 32.3572 22.0539 32.2414L37.9789 8.13611C38.0554 8.0203 38.2113 7.98844 38.3271 8.06495C38.4429 8.14146 38.4748 8.29737 38.3983 8.41318L22.4733 32.5185C22.3967 32.6343 22.2408 32.6661 22.125 32.5896Z" fill="#6A6A6A"/>
</g>
<defs>
<clipPath id="clip0_81_3867">
<rect width="40" height="40" fill="white" transform="translate(4 4)"/>
</clipPath>
</defs>
</svg>