<!--
 Copyright 2023-2025 Solace Systems. All rights reserved.

 Licensed under the Apache License, Version 2.0 (the "License");
 you may not use this file except in compliance with the License.
 You may obtain a copy of the License at

     http://www.apache.org/licenses/LICENSE-2.0

 Unless required by applicable law or agreed to in writing, software
 distributed under the License is distributed on an "AS IS" BASIS,
 WITHOUT WARRANTIES OR CONDITIONS OF ANY KIND, either express or implied.
 See the License for the specific language governing permissions and
 limitations under the License.
-->
<svg width="130" height="130" viewBox="0 0 130 130" fill="none" xmlns="http://www.w3.org/2000/svg">
<path opacity="0.1" d="M119 62.5C119 92.5995 94.5995 117 64.5 117C34.4005 117 10 92.5995 10 62.5C10 32.4005 34.4005 8 64.5 8C94.5995 8 119 32.4005 119 62.5Z" fill="#009193"/>
<rect x="2" y="119" width="126" height="1" fill="#6A6A6A"/>
<path d="M13.0678 34.0697C13.0678 31.8606 14.8587 30.0697 17.0678 30.0697H112.476C114.685 30.0697 116.476 31.8606 116.476 34.0697V92.1148H13.0678V34.0697Z" fill="white"/>
<path fill-rule="evenodd" clip-rule="evenodd" d="M112.476 32.0697H17.0678C15.9633 32.0697 15.0678 32.9651 15.0678 34.0697V90.1148H114.476V34.0697C114.476 32.9651 113.581 32.0697 112.476 32.0697ZM17.0678 30.0697C14.8587 30.0697 13.0678 31.8606 13.0678 34.0697V92.1148H116.476V34.0697C116.476 31.8606 114.685 30.0697 112.476 30.0697H17.0678Z" fill="#6A6A6A"/>
<path fill-rule="evenodd" clip-rule="evenodd" d="M72.6973 95.7485C72.6973 96.3008 72.2495 96.7485 71.6973 96.7485L53.2999 96.7485C52.7477 96.7485 52.2999 96.3008 52.2999 95.7485C52.2999 95.1963 52.7477 94.7485 53.2999 94.7485L71.6973 94.7485C72.2495 94.7485 72.6973 95.1963 72.6973 95.7485Z" fill="#6A6A6A"/>
<path fill-rule="evenodd" clip-rule="evenodd" d="M17.2035 34.7374C17.4796 34.7374 17.7035 34.9613 17.7035 35.2374L17.7035 86.9416C17.7035 87.2178 17.4796 87.4416 17.2035 87.4416C16.9274 87.4416 16.7035 87.2178 16.7035 86.9416L16.7035 35.2374C16.7035 34.9613 16.9274 34.7374 17.2035 34.7374Z" fill="#6A6A6A"/>
<path fill-rule="evenodd" clip-rule="evenodd" d="M112.343 34.7374C112.619 34.7374 112.843 34.9613 112.843 35.2374L112.843 87.9757C112.843 88.2519 112.619 88.4757 112.343 88.4757C112.067 88.4757 111.843 88.2519 111.843 87.9757L111.843 35.2374C111.843 34.9613 112.067 34.7374 112.343 34.7374Z" fill="#6A6A6A"/>
<path d="M11 93.0446C11 91.3877 12.3431 90.0446 14 90.0446H115.545C117.202 90.0446 118.545 91.3877 118.545 93.0446V95.3172C118.545 96.9741 117.202 98.3172 115.545 98.3172H14C12.3431 98.3172 11 96.9741 11 95.3172V93.0446Z" fill="white"/>
<path fill-rule="evenodd" clip-rule="evenodd" d="M115.545 92.0446H14C13.4477 92.0446 13 92.4923 13 93.0446V95.3172C13 95.8695 13.4477 96.3172 14 96.3172H115.545C116.097 96.3172 116.545 95.8695 116.545 95.3172V93.0446C116.545 92.4923 116.097 92.0446 115.545 92.0446ZM14 90.0446C12.3431 90.0446 11 91.3877 11 93.0446V95.3172C11 96.9741 12.3431 98.3172 14 98.3172H115.545C117.202 98.3172 118.545 96.9741 118.545 95.3172V93.0446C118.545 91.3877 117.202 90.0446 115.545 90.0446H14Z" fill="#6A6A6A"/>
<path d="M19.2713 88.4941C19.2713 87.0664 20.4288 85.9089 21.8566 85.9089H32.1974C33.6252 85.9089 34.7826 87.0664 34.7826 88.4941C34.7826 89.9219 33.6252 91.0794 32.1974 91.0794H21.8566C20.4288 91.0794 19.2713 89.9219 19.2713 88.4941Z" fill="white"/>
<path fill-rule="evenodd" clip-rule="evenodd" d="M32.1974 87.9089H21.8566C21.5333 87.9089 21.2713 88.1709 21.2713 88.4941C21.2713 88.8173 21.5333 89.0794 21.8566 89.0794H32.1974C32.5206 89.0794 32.7826 88.8173 32.7826 88.4941C32.7826 88.1709 32.5206 87.9089 32.1974 87.9089ZM21.8566 85.9089C20.4288 85.9089 19.2713 87.0664 19.2713 88.4941C19.2713 89.9219 20.4288 91.0794 21.8566 91.0794H32.1974C33.6252 91.0794 34.7826 89.9219 34.7826 88.4941C34.7826 87.0664 33.6252 85.9089 32.1974 85.9089H21.8566Z" fill="#6A6A6A"/>
<path d="M36.8518 45.5776C36.8518 49.0042 34.074 51.7821 30.6473 51.7821C27.2207 51.7821 24.4428 49.0042 24.4428 45.5776C24.4428 42.1509 27.2207 39.373 30.6473 39.373C34.074 39.373 36.8518 42.1509 36.8518 45.5776Z" fill="white"/>
<path fill-rule="evenodd" clip-rule="evenodd" d="M30.6473 49.7821C32.9694 49.7821 34.8518 47.8996 34.8518 45.5776C34.8518 43.2555 32.9694 41.373 30.6473 41.373C28.3253 41.373 26.4428 43.2555 26.4428 45.5776C26.4428 47.8996 28.3253 49.7821 30.6473 49.7821ZM30.6473 51.7821C34.074 51.7821 36.8518 49.0042 36.8518 45.5776C36.8518 42.1509 34.074 39.373 30.6473 39.373C27.2207 39.373 24.4428 42.1509 24.4428 45.5776C24.4428 49.0042 27.2207 51.7821 30.6473 51.7821Z" fill="#6A6A6A"/>
<path d="M104.066 45.5776C104.066 49.0042 101.288 51.7821 97.8615 51.7821C94.4349 51.7821 91.657 49.0042 91.657 45.5776C91.657 42.1509 94.4349 39.373 97.8615 39.373C101.288 39.373 104.066 42.1509 104.066 45.5776Z" fill="white"/>
<path fill-rule="evenodd" clip-rule="evenodd" d="M97.8615 49.7821C100.184 49.7821 102.066 47.8996 102.066 45.5776C102.066 43.2555 100.184 41.373 97.8615 41.373C95.5394 41.373 93.657 43.2555 93.657 45.5776C93.657 47.8996 95.5394 49.7821 97.8615 49.7821ZM97.8615 51.7821C101.288 51.7821 104.066 49.0042 104.066 45.5776C104.066 42.1509 101.288 39.373 97.8615 39.373C94.4349 39.373 91.657 42.1509 91.657 45.5776C91.657 49.0042 94.4349 51.7821 97.8615 51.7821Z" fill="#6A6A6A"/>
<path d="M70.9768 79.7045C70.9768 83.1312 68.199 85.909 64.7723 85.909C61.3457 85.909 58.5678 83.1312 58.5678 79.7045C58.5678 76.2779 61.3457 73.5 64.7723 73.5C68.199 73.5 70.9768 76.2779 70.9768 79.7045Z" fill="white"/>
<path fill-rule="evenodd" clip-rule="evenodd" d="M64.7723 83.909C67.0944 83.909 68.9768 82.0266 68.9768 79.7045C68.9768 77.3824 67.0944 75.5 64.7723 75.5C62.4503 75.5 60.5678 77.3824 60.5678 79.7045C60.5678 82.0266 62.4503 83.909 64.7723 83.909ZM64.7723 85.909C68.199 85.909 70.9768 83.1312 70.9768 79.7045C70.9768 76.2779 68.199 73.5 64.7723 73.5C61.3457 73.5 58.5678 76.2779 58.5678 79.7045C58.5678 83.1312 61.3457 85.909 64.7723 85.909Z" fill="#6A6A6A"/>
<path fill-rule="evenodd" clip-rule="evenodd" d="M85.4177 45.5785C85.4177 46.1308 84.97 46.5785 84.4177 46.5785L42.0202 46.5785C41.4679 46.5785 41.0202 46.1308 41.0202 45.5785C41.0202 45.0262 41.4679 44.5785 42.0202 44.5785L84.4177 44.5785C84.97 44.5785 85.4177 45.0262 85.4177 45.5785Z" fill="#6A6A6A"/>
<path fill-rule="evenodd" clip-rule="evenodd" d="M86.4535 45.5102C86.456 45.7754 86.3531 46.0308 86.1673 46.2201L83.065 49.3817C82.6782 49.7759 82.0451 49.7819 81.6509 49.3951C81.2567 49.0083 81.2507 48.3751 81.6375 47.9809L84.0392 45.5333L81.651 43.1907C81.2567 42.804 81.2506 42.1708 81.6374 41.7766C82.0241 41.3823 82.6572 41.3762 83.0515 41.7629L86.1538 44.8059C86.3431 44.9916 86.4509 45.245 86.4535 45.5102Z" fill="#6A6A6A"/>
<path fill-rule="evenodd" clip-rule="evenodd" d="M64.7748 69.328C64.2225 69.328 63.7748 68.8803 63.7748 68.328L63.7748 52.8167C63.7748 52.2645 64.2225 51.8167 64.7748 51.8167C65.3271 51.8167 65.7748 52.2645 65.7748 52.8167L65.7748 68.328C65.7748 68.8803 65.3271 69.328 64.7748 69.328Z" fill="#6A6A6A"/>
<path fill-rule="evenodd" clip-rule="evenodd" d="M64.8412 70.3619C64.576 70.3644 64.3206 70.2615 64.1313 70.0757L60.9697 66.9735C60.5755 66.5866 60.5695 65.9535 60.9564 65.5593C61.3432 65.1651 61.9763 65.1591 62.3705 65.5459L64.8182 67.9477L67.1607 65.5594C67.5475 65.1652 68.1806 65.159 68.5749 65.5458C68.9692 65.9325 68.9753 66.5657 68.5885 66.9599L65.5456 70.0622C65.3598 70.2515 65.1065 70.3594 64.8412 70.3619Z" fill="#6A6A6A"/>
<path fill-rule="evenodd" clip-rule="evenodd" d="M94.1463 56.5499C94.6642 56.7416 94.9286 57.3169 94.7369 57.8349L87.8115 76.5395C87.6197 77.0575 87.0444 77.3219 86.5265 77.1301C86.0086 76.9384 85.7441 76.363 85.9359 75.8451L92.8613 57.1404C93.053 56.6225 93.6284 56.3581 94.1463 56.5499Z" fill="#6A6A6A"/>
<path fill-rule="evenodd" clip-rule="evenodd" d="M94.5845 55.0014C94.8518 55.0859 95.0713 55.2787 95.1897 55.5328L97.3999 60.2796C97.6331 60.7802 97.4162 61.3751 96.9155 61.6082C96.4148 61.8414 95.82 61.6245 95.5869 61.1238L93.8371 57.366L90.2453 59.4353C89.7667 59.711 89.1553 59.5466 88.8796 59.068C88.6039 58.5895 88.7683 57.978 89.2469 57.7023L93.7839 55.0884C94.0268 54.9485 94.3173 54.9169 94.5845 55.0014Z" fill="#6A6A6A"/>
<path d="M81.3178 77.5679C81.3178 76.4633 82.2133 75.5679 83.3178 75.5679H89.6587C90.7633 75.5679 91.6587 76.4633 91.6587 77.5679V82.8746C91.6587 83.9792 90.7633 84.8746 89.6587 84.8746H83.3178C82.2133 84.8746 81.3178 83.9792 81.3178 82.8746V77.5679Z" fill="white"/>
<path fill-rule="evenodd" clip-rule="evenodd" d="M89.6587 77.5679H83.3178L83.3178 82.8746L89.6587 82.8746L89.6587 77.5679ZM83.3178 75.5679C82.2133 75.5679 81.3178 76.4633 81.3178 77.5679V82.8746C81.3178 83.9792 82.2133 84.8746 83.3178 84.8746H89.6587C90.7633 84.8746 91.6587 83.9792 91.6587 82.8746V77.5679C91.6587 76.4633 90.7633 75.5679 89.6587 75.5679H83.3178Z" fill="#6A6A6A"/>
<path d="M59.5998 42.4089C59.5998 41.3044 60.4953 40.4089 61.5998 40.4089H67.9407C69.0453 40.4089 69.9407 41.3044 69.9407 42.4089V47.7157C69.9407 48.8203 69.0453 49.7157 67.9407 49.7157H61.5998C60.4953 49.7157 59.5998 48.8203 59.5998 47.7157V42.4089Z" fill="white"/>
<path fill-rule="evenodd" clip-rule="evenodd" d="M67.9407 42.4089H61.5998L61.5998 47.7157L67.9407 47.7157L67.9407 42.4089ZM61.5998 40.4089C60.4953 40.4089 59.5998 41.3044 59.5998 42.4089V47.7157C59.5998 48.8203 60.4953 49.7157 61.5998 49.7157H67.9407C69.0453 49.7157 69.9407 48.8203 69.9407 47.7157V42.4089C69.9407 41.3044 69.0453 40.4089 67.9407 40.4089H61.5998Z" fill="#6A6A6A"/>
<path d="M56.5 29C56.5 28.4477 56.9477 28 57.5 28H71.0113C71.5636 28 72.0113 28.4477 72.0113 29V33.2045C72.0113 33.7568 71.5636 34.2045 71.0113 34.2045H57.5C56.9477 34.2045 56.5 33.7568 56.5 33.2045V29Z" fill="white"/>
<path fill-rule="evenodd" clip-rule="evenodd" d="M71.0113 29L57.5 29V33.2045L71.0113 33.2045V29ZM57.5 28C56.9477 28 56.5 28.4477 56.5 29V33.2045C56.5 33.7568 56.9477 34.2045 57.5 34.2045H71.0113C71.5636 34.2045 72.0113 33.7568 72.0113 33.2045V29C72.0113 28.4477 71.5636 28 71.0113 28H57.5Z" fill="#6A6A6A"/>
<path fill-rule="evenodd" clip-rule="evenodd" d="M55.6693 96.2839H73.8697L78.1609 118.813C78.2642 119.355 77.9082 119.879 77.3657 119.982C76.8231 120.085 76.2995 119.729 76.1962 119.187L72.2147 98.2839H57.3244L53.3429 119.187C53.2395 119.729 52.7159 120.085 52.1734 119.982C51.6309 119.879 51.2748 119.355 51.3782 118.813L55.6693 96.2839Z" fill="#6A6A6A"/>
</svg>
