<svg width="176" height="88" viewBox="0 0 176 88" fill="none" xmlns="http://www.w3.org/2000/svg">
<g clip-path="url(#clip0_81_3756)">
<path d="M6.00008 7.5584C6.00008 5.5932 7.5932 4.00008 9.5584 4.00008H94.4318C96.3971 4.00008 97.9902 5.5932 97.9902 7.5584V59.1941H6.00008V7.5584Z" fill="white"/>
<path fill-rule="evenodd" clip-rule="evenodd" d="M9.5584 6.00008C8.69777 6.00008 8.00008 6.69777 8.00008 7.5584V57.1941H95.9902V7.5584C95.9902 6.69777 95.2925 6.00008 94.4318 6.00008H9.5584ZM9.5584 4.00008C7.5932 4.00008 6.00008 5.5932 6.00008 7.5584V59.1941H97.9902V7.5584C97.9902 5.5932 96.3971 4.00008 94.4318 4.00008H9.5584Z" fill="#6A6A6A"/>
<path d="M4.00008 59.6688C4.00008 58.1949 5.19492 57.0001 6.66882 57.0001H97.001C98.4749 57.0001 99.6698 58.1949 99.6698 59.6688V61.6906C99.6698 63.1645 98.4749 64.3593 97.001 64.3593H6.66883C5.19492 64.3593 4.00008 63.1645 4.00008 61.6906V59.6688Z" fill="white"/>
<path fill-rule="evenodd" clip-rule="evenodd" d="M6.66882 59.0001C6.29949 59.0001 6.00008 59.2995 6.00008 59.6688V61.6906C6.00008 62.0599 6.29949 62.3593 6.66883 62.3593H97.001C97.3704 62.3593 97.6698 62.0599 97.6698 61.6906V59.6688C97.6698 59.2995 97.3704 59.0001 97.001 59.0001H6.66882ZM6.66882 57.0001C5.19492 57.0001 4.00008 58.1949 4.00008 59.6688V61.6906C4.00008 63.1645 5.19492 64.3593 6.66883 64.3593H97.001C98.4749 64.3593 99.6698 63.1645 99.6698 61.6906V59.6688C99.6698 58.1949 98.4749 57.0001 97.001 57.0001H6.66882Z" fill="#6A6A6A"/>
<path fill-rule="evenodd" clip-rule="evenodd" d="M43.8333 62.5997H60.024L63.8413 82.6407C63.9332 83.1234 63.6165 83.5891 63.1339 83.6811C62.6513 83.773 62.1855 83.4563 62.0936 82.9736L58.5517 64.3789H45.3056L41.7637 82.9736C41.6718 83.4563 41.206 83.773 40.7234 83.6811C40.2408 83.5891 39.924 83.1234 40.016 82.6407L43.8333 62.5997Z" fill="#6A6A6A"/>
<path d="M115.943 19.0001C115.943 17.8955 116.839 17.0001 117.943 17.0001H146.132C147.236 17.0001 148.132 17.8955 148.132 19.0001V47.1884C148.132 48.2929 147.236 49.1884 146.132 49.1884H117.943C116.839 49.1884 115.943 48.2929 115.943 47.1884V19.0001Z" fill="white"/>
<path fill-rule="evenodd" clip-rule="evenodd" d="M146.132 19.0001H117.943L117.943 47.1884H146.132V19.0001ZM117.943 17.0001C116.839 17.0001 115.943 17.8955 115.943 19.0001V47.1884C115.943 48.2929 116.839 49.1884 117.943 49.1884H146.132C147.236 49.1884 148.132 48.2929 148.132 47.1884V19.0001C148.132 17.8955 147.236 17.0001 146.132 17.0001H117.943Z" fill="#6A6A6A"/>
<path d="M133.182 29.3145C133.182 30.4191 134.078 31.3145 135.182 31.3145H141.241C142.346 31.3145 143.241 30.4191 143.241 29.3145V24.3767C143.241 23.2721 142.346 22.3767 141.241 22.3767H135.182C134.078 22.3767 133.182 23.2721 133.182 24.3767V29.3145Z" fill="white"/>
<path fill-rule="evenodd" clip-rule="evenodd" d="M141.241 30.3145H135.182C134.63 30.3145 134.182 29.8668 134.182 29.3145V24.3767C134.182 23.8244 134.63 23.3767 135.182 23.3767H141.241C141.793 23.3767 142.241 23.8244 142.241 24.3767V29.3145C142.241 29.8668 141.793 30.3145 141.241 30.3145ZM135.182 31.3145C134.078 31.3145 133.182 30.4191 133.182 29.3145V24.3767C133.182 23.2721 134.078 22.3767 135.182 22.3767H141.241C142.346 22.3767 143.241 23.2721 143.241 24.3767V29.3145C143.241 30.4191 142.346 31.3145 141.241 31.3145H135.182Z" fill="#6A6A6A"/>
<path d="M121.272 41.1837C121.272 42.2882 122.167 43.1837 123.272 43.1837H129.33C130.435 43.1837 131.33 42.2882 131.33 41.1837V36.2459C131.33 35.1413 130.435 34.2459 129.33 34.2459H123.272C122.167 34.2459 121.272 35.1413 121.272 36.2459V41.1837Z" fill="white"/>
<path fill-rule="evenodd" clip-rule="evenodd" d="M129.33 42.1837H123.272C122.719 42.1837 122.272 41.736 122.272 41.1837V36.2459C122.272 35.6936 122.719 35.2459 123.272 35.2459H129.33C129.883 35.2459 130.33 35.6936 130.33 36.2459V41.1837C130.33 41.736 129.883 42.1837 129.33 42.1837ZM123.272 43.1837C122.167 43.1837 121.272 42.2882 121.272 41.1837V36.2459C121.272 35.1413 122.167 34.2459 123.272 34.2459H129.33C130.435 34.2459 131.33 35.1413 131.33 36.2459V41.1837C131.33 42.2882 130.435 43.1837 129.33 43.1837H123.272Z" fill="#6A6A6A"/>
<path d="M143.241 38.7141C143.241 41.3996 141.064 43.5766 138.379 43.5766C135.693 43.5766 133.516 41.3996 133.516 38.7141C133.516 36.0287 135.693 33.8516 138.379 33.8516C141.064 33.8516 143.241 36.0287 143.241 38.7141Z" fill="white"/>
<path fill-rule="evenodd" clip-rule="evenodd" d="M138.379 42.5766C140.512 42.5766 142.241 40.8473 142.241 38.7141C142.241 36.5809 140.512 34.8516 138.379 34.8516C136.246 34.8516 134.516 36.5809 134.516 38.7141C134.516 40.8473 136.246 42.5766 138.379 42.5766ZM138.379 43.5766C141.064 43.5766 143.241 41.3996 143.241 38.7141C143.241 36.0287 141.064 33.8516 138.379 33.8516C135.693 33.8516 133.516 36.0287 133.516 38.7141C133.516 41.3996 135.693 43.5766 138.379 43.5766Z" fill="#6A6A6A"/>
<path d="M11.0001 9.67067C11.0001 9.30032 11.3003 9.00008 11.6707 9.00008H92.2495C92.6199 9.00008 92.9201 9.30032 92.9201 9.67067V53.5195C92.9201 53.8899 92.6199 54.1901 92.2495 54.1901H11.6707C11.3003 54.1901 11.0001 53.8899 11.0001 53.5195V9.67067Z" fill="#E6FAF4"/>
<path fill-rule="evenodd" clip-rule="evenodd" d="M12.0001 10.0001V53.1901H91.9201V10.0001H12.0001ZM11.6707 9.00008C11.3003 9.00008 11.0001 9.30032 11.0001 9.67067V53.5195C11.0001 53.8899 11.3003 54.1901 11.6707 54.1901H92.2495C92.6199 54.1901 92.9201 53.8898 92.9201 53.5195V9.67067C92.9201 9.30032 92.6199 9.00008 92.2495 9.00008H11.6707Z" fill="#00C895"/>
<path d="M30.0389 23.4941C30.0389 26.5424 27.5678 29.0135 24.5195 29.0135C21.4712 29.0135 19.0001 26.5424 19.0001 23.4941C19.0001 20.4458 21.4712 17.9747 24.5195 17.9747C27.5678 17.9747 30.0389 20.4458 30.0389 23.4941Z" fill="white"/>
<path fill-rule="evenodd" clip-rule="evenodd" d="M24.5195 28.0135C27.0155 28.0135 29.0389 25.9901 29.0389 23.4941C29.0389 20.9981 27.0155 18.9747 24.5195 18.9747C22.0235 18.9747 20.0001 20.9981 20.0001 23.4941C20.0001 25.9901 22.0235 28.0135 24.5195 28.0135ZM24.5195 29.0135C27.5678 29.0135 30.0389 26.5424 30.0389 23.4941C30.0389 20.4458 27.5678 17.9747 24.5195 17.9747C21.4712 17.9747 19.0001 20.4458 19.0001 23.4941C19.0001 26.5424 21.4712 29.0135 24.5195 29.0135Z" fill="#6A6A6A"/>
<path d="M25.4722 38.07L25.1015 25.797C25.0852 25.2573 25.6808 24.9206 26.1348 25.2129L36.3598 31.7966C36.7817 32.0683 36.7667 32.6902 36.332 32.9412L33.1445 34.7815L35.8838 39.526C36.069 39.8468 35.9591 40.2569 35.6384 40.4421L33.5376 41.6549C33.2169 41.8401 32.8067 41.7302 32.6216 41.4095L29.8823 36.6649L26.4778 38.6305C26.0385 38.8842 25.4875 38.5771 25.4722 38.07Z" fill="white"/>
<path fill-rule="evenodd" clip-rule="evenodd" d="M30.2483 35.2989L33.3229 40.6242L34.8531 39.7407L31.7785 34.4154L35.3644 32.3451L26.1199 26.3927L26.4551 37.4889L30.2483 35.2989ZM25.1015 25.797L25.4722 38.07C25.4875 38.5771 26.0385 38.8842 26.4778 38.6305L29.8823 36.6649L32.6216 41.4095C32.8067 41.7302 33.2169 41.8401 33.5376 41.6549L35.6384 40.4421C35.9591 40.2569 36.069 39.8468 35.8838 39.526L33.1445 34.7815L36.332 32.9412C36.7667 32.6902 36.7817 32.0683 36.3598 31.7966L26.1348 25.2129C25.6808 24.9206 25.0852 25.2573 25.1015 25.797Z" fill="#6A6A6A"/>
<path fill-rule="evenodd" clip-rule="evenodd" d="M77.8903 36.7653C77.8932 36.4892 77.6718 36.2629 77.3956 36.26C76.3806 36.2492 75.3656 36.2229 74.351 36.1811C74.0751 36.1697 73.8422 36.3842 73.8308 36.6601C73.8195 36.936 74.0339 37.1689 74.3098 37.1803C75.3346 37.2225 76.3598 37.2491 77.385 37.26C77.6612 37.2629 77.8874 37.0414 77.8903 36.7653ZM80.9715 36.7351C80.9799 37.0111 81.2104 37.2281 81.4864 37.2198C82.5113 37.1888 83.5358 37.1422 84.5595 37.0799C84.8351 37.0631 85.0449 36.8261 85.0282 36.5504C85.0114 36.2748 84.7743 36.0649 84.4987 36.0817C83.4852 36.1434 82.4709 36.1896 81.4562 36.2202C81.1802 36.2286 80.9632 36.4591 80.9715 36.7351ZM70.7554 36.4704C70.778 36.1952 70.5732 35.9537 70.298 35.9311C69.2865 35.848 68.2759 35.7493 67.2667 35.6352C66.9923 35.6041 66.7447 35.8014 66.7136 36.0758C66.6826 36.3502 66.8799 36.5978 67.1543 36.6288C68.1737 36.7441 69.1944 36.8438 70.2161 36.9277C70.4913 36.9504 70.7328 36.7456 70.7554 36.4704ZM88.0993 36.3005C88.1273 36.5752 88.3727 36.7752 88.6475 36.7472C89.6673 36.6432 90.6859 36.5236 91.7028 36.3884C91.9766 36.352 92.169 36.1006 92.1326 35.8269C92.0962 35.5531 91.8447 35.3607 91.571 35.3971C90.5642 35.531 89.5557 35.6494 88.546 35.7524C88.2713 35.7804 88.0713 36.0258 88.0993 36.3005ZM63.6597 35.6671C63.7019 35.3942 63.5149 35.1388 63.242 35.0966C62.2392 34.9415 61.2383 34.771 60.2394 34.5851C59.9679 34.5345 59.7069 34.7136 59.6564 34.9851C59.6058 35.2566 59.7849 35.5176 60.0564 35.5682C61.0653 35.756 62.0763 35.9282 63.0892 36.0849C63.3621 36.1271 63.6175 35.94 63.6597 35.6671ZM95.1779 35.3584C95.2254 35.6305 95.4845 35.8124 95.7565 35.7649C96.7661 35.5885 97.7735 35.3965 98.7786 35.1889C99.049 35.1331 99.223 34.8686 99.1671 34.5981C99.1113 34.3277 98.8467 34.1537 98.5763 34.2096C97.5813 34.4151 96.5839 34.6051 95.5843 34.7798C95.3123 34.8274 95.1304 35.0864 95.1779 35.3584ZM56.6395 34.3595C56.7011 34.0903 56.5328 33.8222 56.2636 33.7606C55.2747 33.5344 54.2885 33.2928 53.3052 33.036C53.038 32.9662 52.7649 33.1262 52.6951 33.3934C52.6253 33.6605 52.7853 33.9337 53.0525 34.0035C54.0456 34.263 55.0418 34.5069 56.0406 34.7354C56.3098 34.797 56.5779 34.6287 56.6395 34.3595ZM102.171 33.9135C102.238 34.1815 102.509 34.3445 102.777 34.2776C103.771 34.0296 104.763 33.7662 105.751 33.4874C106.016 33.4123 106.171 33.1361 106.096 32.8703C106.021 32.6046 105.745 32.45 105.479 32.525C104.501 32.801 103.519 33.0618 102.535 33.3074C102.267 33.3742 102.104 33.6456 102.171 33.9135ZM49.7306 32.5539C49.8112 32.2898 49.6625 32.0104 49.3984 31.9297C48.4285 31.6336 47.4621 31.3223 46.4993 30.9958C46.2378 30.9071 45.9539 31.0472 45.8652 31.3087C45.7766 31.5702 45.9167 31.8541 46.1782 31.9428C47.1506 32.2726 48.1267 32.587 49.1063 32.8861C49.3704 32.9668 49.6499 32.8181 49.7306 32.5539ZM109.043 31.973C109.129 32.2355 109.412 32.3787 109.674 32.2929C110.648 31.9747 111.617 31.6412 112.583 31.2924C112.843 31.1986 112.977 30.9121 112.884 30.6523C112.79 30.3926 112.503 30.2581 112.243 30.3519C111.287 30.6972 110.327 31.0273 109.363 31.3424C109.101 31.4282 108.958 31.7105 109.043 31.973ZM42.9681 30.2598C43.0674 30.0022 42.939 29.7128 42.6813 29.6135C42.2077 29.4311 41.7352 29.2449 41.2638 29.0549L39.4352 28.3181C39.1791 28.2149 38.8878 28.3388 38.7846 28.595C38.6814 28.8511 38.8053 29.1424 39.0615 29.2456L40.89 29.9824C41.3662 30.1743 41.8435 30.3624 42.3218 30.5467C42.5794 30.6459 42.8688 30.5175 42.9681 30.2598ZM115.76 29.5469C115.864 29.8026 116.156 29.9253 116.411 29.821C116.886 29.6274 117.36 29.43 117.832 29.2288L119.185 28.6527C119.439 28.5445 119.557 28.2508 119.449 27.9968C119.34 27.7427 119.047 27.6245 118.793 27.7327L117.44 28.3088C116.972 28.508 116.504 28.7034 116.034 28.8951C115.778 28.9994 115.655 29.2912 115.76 29.5469ZM34.8359 27.0038C34.9391 26.7477 34.8151 26.4564 34.559 26.3532L32.7304 25.6164C32.4743 25.5132 32.183 25.6371 32.0798 25.8933C31.9766 26.1494 32.1005 26.4407 32.3567 26.5439L34.1852 27.2807C34.4414 27.3839 34.7327 27.26 34.8359 27.0038ZM122.136 26.8522C122.244 27.1063 122.538 27.2245 122.792 27.1163L124.145 26.5402C124.399 26.432 124.517 26.1383 124.409 25.8842C124.301 25.6302 124.007 25.5119 123.753 25.6201L122.4 26.1963C122.146 26.3045 122.028 26.5982 122.136 26.8522Z" fill="#6A6A6A"/>
</g>
<defs>
<clipPath id="clip0_81_3756">
<rect width="168" height="80" fill="white" transform="translate(4.00008 4.00008)"/>
</clipPath>
</defs>
</svg>
