<!--
 Copyright 2023-2025 Solace Systems. All rights reserved.

 Licensed under the Apache License, Version 2.0 (the "License");
 you may not use this file except in compliance with the License.
 You may obtain a copy of the License at

     http://www.apache.org/licenses/LICENSE-2.0

 Unless required by applicable law or agreed to in writing, software
 distributed under the License is distributed on an "AS IS" BASIS,
 WITHOUT WARRANTIES OR CONDITIONS OF ANY KIND, either express or implied.
 See the License for the specific language governing permissions and
 limitations under the License.
-->
<svg width="130" height="130" viewBox="0 0 130 130" fill="none" xmlns="http://www.w3.org/2000/svg">
<path d="M2 119H128V120H2V119Z" fill="#6A6A6A"/>
<path opacity="0.1" d="M128 56.5C128 86.5995 103.6 111 73.5 111C43.4005 111 19 86.5995 19 56.5C19 26.4005 43.4005 2 73.5 2C103.6 2 128 26.4005 128 56.5Z" fill="#009193"/>
<path fill-rule="evenodd" clip-rule="evenodd" d="M70.5586 116C70.5586 116.276 70.3347 116.5 70.0586 116.5L58.0586 116.5C57.7825 116.5 57.5586 116.276 57.5586 116C57.5586 115.724 57.7825 115.5 58.0586 115.5L70.0586 115.5C70.3347 115.5 70.5586 115.724 70.5586 116Z" fill="#6A6A6A"/>
<path fill-rule="evenodd" clip-rule="evenodd" d="M72.5 102C72.5 101.724 72.7239 101.5 73 101.5L85 101.5C85.2761 101.5 85.5 101.724 85.5 102C85.5 102.276 85.2761 102.5 85 102.5L73 102.5C72.7239 102.5 72.5 102.276 72.5 102Z" fill="#6A6A6A"/>
<path d="M58.0586 112L82.0586 112C84.2677 112 86.0586 113.791 86.0586 116C86.0586 118.209 84.2677 120 82.0586 120L58.0586 120C57.5063 120 57.0586 119.552 57.0586 119L57.0586 113C57.0586 112.448 57.5063 112 58.0586 112Z" fill="white"/>
<path fill-rule="evenodd" clip-rule="evenodd" d="M59.0586 114L82.0586 114C83.1632 114 84.0586 114.895 84.0586 116C84.0586 117.105 83.1632 118 82.0586 118L59.0586 118L59.0586 114ZM82.0586 112L58.0586 112C57.5063 112 57.0586 112.448 57.0586 113L57.0586 119C57.0586 119.552 57.5063 120 58.0586 120L82.0586 120C84.2677 120 86.0586 118.209 86.0586 116C86.0586 113.791 84.2677 112 82.0586 112Z" fill="#6A6A6A"/>
<path d="M85 107L62 107C59.2386 107 57 104.761 57 102C57 99.2386 59.2386 97 62 97L85 97C85.5523 97 86 97.4477 86 98L86 106C86 106.552 85.5523 107 85 107Z" fill="white"/>
<path fill-rule="evenodd" clip-rule="evenodd" d="M84 105L62 105C60.3431 105 59 103.657 59 102C59 100.343 60.3431 99 62 99L84 99L84 105ZM62 107L85 107C85.5523 107 86 106.552 86 106L86 98C86 97.4477 85.5523 97 85 97L62 97C59.2386 97 57 99.2386 57 102C57 104.761 59.2386 107 62 107Z" fill="#6A6A6A"/>
<path d="M59.0586 107C59.0586 105.895 59.954 105 61.0586 105H89.0586C90.1632 105 91.0586 105.895 91.0586 107V112C91.0586 113.105 90.1632 114 89.0586 114H61.0586C59.954 114 59.0586 113.105 59.0586 112V107Z" fill="white"/>
<path fill-rule="evenodd" clip-rule="evenodd" d="M89.0586 107H61.0586V112H89.0586V107ZM61.0586 105C59.954 105 59.0586 105.895 59.0586 107V112C59.0586 113.105 59.954 114 61.0586 114H89.0586C90.1632 114 91.0586 113.105 91.0586 112V107C91.0586 105.895 90.1632 105 89.0586 105H61.0586Z" fill="#6A6A6A"/>
<path fill-rule="evenodd" clip-rule="evenodd" d="M66.5586 106.5V112.5H65.5586V106.5H66.5586ZM84.5586 106.5V112.5H83.5586V106.5H84.5586Z" fill="#6A6A6A"/>
<path d="M2.50464 74.4119C2.22593 73.343 2.85593 72.2136 3.91178 71.8891L15.9008 68.2052C16.9566 67.8808 18.0385 68.4842 18.3172 69.553L20.6965 78.6776C20.9752 79.7465 20.3452 80.8759 19.2893 81.2004L7.30033 84.8843C6.24449 85.2087 5.16262 84.6053 4.88392 83.5364L2.50464 74.4119Z" fill="white"/>
<path fill-rule="evenodd" clip-rule="evenodd" d="M16.4054 70.1405L4.41642 73.8244L6.7957 82.949L18.7847 79.2651L16.4054 70.1405ZM3.91178 71.8891C2.85593 72.2136 2.22593 73.343 2.50464 74.4119L4.88392 83.5364C5.16262 84.6053 6.24449 85.2087 7.30033 84.8843L19.2893 81.2004C20.3452 80.8759 20.9752 79.7465 20.6965 78.6776L18.3172 69.553C18.0385 68.4842 16.9566 67.8808 15.9008 68.2052L3.91178 71.8891Z" fill="#6A6A6A"/>
<path d="M84.7195 36.4236C84.4408 35.3547 85.0708 34.2253 86.1266 33.9008L94.9868 31.1783C96.0426 30.8539 97.1245 31.4573 97.4032 32.5262L105.394 63.1705C105.673 64.2393 105.043 65.3688 103.987 65.6932L95.1266 68.4157C94.0707 68.7402 92.9888 68.1367 92.7101 67.0679L84.7195 36.4236Z" fill="white"/>
<path fill-rule="evenodd" clip-rule="evenodd" d="M95.4914 33.1136L86.6313 35.8361L94.6219 66.4804L103.482 63.7579L95.4914 33.1136ZM86.1266 33.9008C85.0708 34.2253 84.4408 35.3547 84.7195 36.4236L92.7101 67.0679C92.9888 68.1367 94.0707 68.7402 95.1266 68.4157L103.987 65.6932C105.043 65.3688 105.673 64.2393 105.394 63.1705L97.4032 32.5262C97.1245 31.4573 96.0426 30.8539 94.9868 31.1783L86.1266 33.9008Z" fill="#6A6A6A"/>
<path d="M12.9695 62.4841C12.6908 61.4153 13.3208 60.2858 14.3766 59.9614L84.7166 38.3477C85.7725 38.0232 86.8543 38.6267 87.133 39.6955L93.3013 63.351C93.58 64.4198 92.95 65.5493 91.8942 65.8737L21.5542 87.4874C20.4983 87.8118 19.4165 87.2084 19.1378 86.1396L12.9695 62.4841Z" fill="white"/>
<path fill-rule="evenodd" clip-rule="evenodd" d="M85.2212 40.283L14.8813 61.8967L21.0495 85.5521L91.3895 63.9384L85.2212 40.283ZM14.3766 59.9614C13.3208 60.2858 12.6908 61.4153 12.9695 62.4841L19.1378 86.1396C19.4165 87.2084 20.4983 87.8118 21.5542 87.4874L91.8942 65.8737C92.95 65.5493 93.58 64.4198 93.3013 63.351L87.133 39.6955C86.8543 38.6267 85.7725 38.0232 84.7166 38.3477L14.3766 59.9614Z" fill="#6A6A6A"/>
<path d="M31.6141 84.3451C31.3073 83.284 31.9188 82.1751 32.9799 81.8683L40.9784 79.5558C42.0395 79.249 43.1485 79.8605 43.4552 80.9216L44.0495 82.9769C44.3562 84.038 43.7447 85.1469 42.6836 85.4537L34.6851 87.7662C33.624 88.073 32.5151 87.4615 32.2083 86.4004L31.6141 84.3451Z" fill="white"/>
<path fill-rule="evenodd" clip-rule="evenodd" d="M41.5339 81.4771L33.5354 83.7897L34.1296 85.8449L42.1281 83.5324L41.5339 81.4771ZM32.9799 81.8683C31.9188 82.1751 31.3073 83.284 31.6141 84.3451L32.2083 86.4004C32.5151 87.4615 33.624 88.073 34.6851 87.7662L42.6836 85.4537C43.7447 85.1469 44.3562 84.038 44.0495 82.9769L43.4552 80.9216C43.1485 79.8605 42.0395 79.249 40.9784 79.5558L32.9799 81.8683Z" fill="#6A6A6A"/>
<path d="M32.0586 93C32.0586 91.8954 32.954 91 34.0586 91H42.0586C43.1632 91 44.0586 91.8954 44.0586 93V96C44.0586 97.1046 43.1632 98 42.0586 98H34.0586C32.954 98 32.0586 97.1046 32.0586 96V93Z" fill="white"/>
<path fill-rule="evenodd" clip-rule="evenodd" d="M42.0586 93H34.0586L34.0586 96H42.0586V93ZM34.0586 91C32.954 91 32.0586 91.8954 32.0586 93V96C32.0586 97.1046 32.954 98 34.0586 98H42.0586C43.1632 98 44.0586 97.1046 44.0586 96V93C44.0586 91.8954 43.1632 91 42.0586 91H34.0586Z" fill="#6A6A6A"/>
<path fill-rule="evenodd" clip-rule="evenodd" d="M37.0586 91V86H39.0586V91C39.0586 91.5523 38.6109 92 38.0586 92C37.5063 92 37.0586 91.5523 37.0586 91Z" fill="#6A6A6A"/>
<path fill-rule="evenodd" clip-rule="evenodd" d="M47.5586 97.5C47.5586 98.0523 47.1109 98.5 46.5586 98.5L29.5586 98.5C29.0063 98.5 28.5586 98.0523 28.5586 97.5C28.5586 96.9477 29.0063 96.5 29.5586 96.5L46.5586 96.5C47.1109 96.5 47.5586 96.9477 47.5586 97.5Z" fill="#6A6A6A"/>
<path fill-rule="evenodd" clip-rule="evenodd" d="M28.3242 119.472C27.7873 119.343 27.457 118.803 27.5864 118.266L32.7699 96.7661C32.8993 96.2292 33.4395 95.8989 33.9764 96.0283C34.5133 96.1578 34.8436 96.6979 34.7142 97.2348L29.5307 118.735C29.4012 119.271 28.8611 119.602 28.3242 119.472Z" fill="#6A6A6A"/>
<path fill-rule="evenodd" clip-rule="evenodd" d="M47.7512 119.981C47.2093 120.088 46.6837 119.735 46.5773 119.193L42.2626 97.2147C42.1562 96.6727 42.5093 96.1472 43.0513 96.0408C43.5932 95.9344 44.1188 96.2875 44.2252 96.8294L48.5399 118.807C48.6463 119.349 48.2932 119.875 47.7512 119.981Z" fill="#6A6A6A"/>
<path fill-rule="evenodd" clip-rule="evenodd" d="M37.8672 120C37.3149 120 36.8672 119.552 36.8672 119L36.8669 97.0006C36.8669 96.4483 37.3146 96.0006 37.8669 96.0006C38.4192 96.0006 38.8669 96.4483 38.8669 97.0006L38.8672 119C38.8672 119.552 38.4195 120 37.8672 120Z" fill="#6A6A6A"/>
<path fill-rule="evenodd" clip-rule="evenodd" d="M84.4788 43.356C84.5583 43.6204 84.4084 43.8993 84.144 43.9788L17.644 63.9788C17.3796 64.0584 17.1007 63.9085 17.0212 63.644C16.9416 63.3796 17.0915 63.1007 17.356 63.0212L83.856 43.0212C84.1204 42.9417 84.3993 43.0916 84.4788 43.356Z" fill="#6A6A6A"/>
<path fill-rule="evenodd" clip-rule="evenodd" d="M44.9787 57.8555C45.0585 58.1199 44.9089 58.3989 44.6445 58.4787L18.1445 66.4787C17.8801 66.5585 17.6011 66.4089 17.5213 66.1445C17.4415 65.8802 17.5911 65.6012 17.8555 65.5213L44.3555 57.5213C44.6199 57.4415 44.8989 57.5911 44.9787 57.8555Z" fill="#6A6A6A"/>
<path fill-rule="evenodd" clip-rule="evenodd" d="M94.4789 35.3563C94.5583 35.6208 94.4082 35.8996 94.1437 35.9789L89.1437 37.4789C88.8792 37.5583 88.6004 37.4082 88.5211 37.1437C88.4417 36.8792 88.5918 36.6004 88.8563 36.5211L93.8563 35.0211C94.1208 34.9417 94.3996 35.0918 94.4789 35.3563Z" fill="#6A6A6A"/>
<path fill-rule="evenodd" clip-rule="evenodd" d="M14.4772 72.3509C14.5596 72.6144 14.4127 72.8949 14.1491 72.9773L6.14913 75.4773C5.88556 75.5596 5.60512 75.4127 5.52276 75.1491C5.44039 74.8856 5.58729 74.6051 5.85086 74.5228L13.8509 72.0228C14.1144 71.9404 14.3949 72.0873 14.4772 72.3509Z" fill="#6A6A6A"/>
<path fill-rule="evenodd" clip-rule="evenodd" d="M68.625 102.375C68.625 102.099 68.8489 101.875 69.125 101.875H84.125C84.4011 101.875 84.625 102.099 84.625 102.375C84.625 102.651 84.4011 102.875 84.125 102.875H69.125C68.8489 102.875 68.625 102.651 68.625 102.375ZM57.625 116C57.625 115.724 57.8489 115.5 58.125 115.5H73.125C73.4011 115.5 73.625 115.724 73.625 116C73.625 116.276 73.4011 116.5 73.125 116.5H58.125C57.8489 116.5 57.625 116.276 57.625 116Z" fill="#6A6A6A"/>
</svg>
