<?xml version="1.0" encoding="utf-8"?>
<!--
  Copyright 2023-2025 Solace Systems. All rights reserved.

  Licensed under the Apache License, Version 2.0 (the "License");
  you may not use this file except in compliance with the License.
  You may obtain a copy of the License at

      http://www.apache.org/licenses/LICENSE-2.0

  Unless required by applicable law or agreed to in writing, software
  distributed under the License is distributed on an "AS IS" BASIS,
  WITHOUT WARRANTIES OR CONDITIONS OF ANY KIND, either express or implied.
  See the License for the specific language governing permissions and
  limitations under the License.
-->
<svg width="88" height="89" viewBox="0 0 88 89" fill="none" xmlns="http://www.w3.org/2000/svg">
<circle cx="41.4066" cy="43.1563" r="35.2119" stroke="#6A6A6A" stroke-dasharray="4.18 4.18"/>
<circle cx="41.4089" cy="43.1553" r="26.1397" fill="white"/>
<circle cx="41.4089" cy="43.1553" r="26.1397" stroke="#6A6A6A" stroke-width="2"/>
<ellipse cx="41.5267" cy="43.1039" rx="12.253" ry="26.1397" transform="rotate(-23.5 41.5267 43.1039)" stroke="#6A6A6A"/>
<path d="M15.0952 44.0952L60.0421 24.5517" stroke="#6A6A6A" stroke-linecap="round" stroke-linejoin="round"/>
<path d="M22.775 61.7588L67.722 42.2153" stroke="#6A6A6A" stroke-linecap="round" stroke-linejoin="round"/>
<rect x="9.37122" y="66.0864" width="11.9478" height="10.553" rx="1.7864" fill="white" stroke="#6A6A6A" stroke-width="2"/>
<ellipse cx="10.7884" cy="23.1053" rx="6.7879" ry="6.7879" fill="#00C895"/>
<path d="M80.2276 58.7634C78.98 57.6156 77.4818 56.7361 75.8245 56.2162C74.9737 57.1899 73.7227 57.8051 72.328 57.8051C70.933 57.8051 69.6817 57.1896 68.8309 56.2153C67.1732 56.7349 65.6748 57.6141 64.4268 58.7616C64.8438 59.9847 64.7507 61.3747 64.0538 62.5817C63.3566 63.7894 62.1986 64.5651 60.93 64.8152C60.7484 65.6334 60.6526 66.4838 60.6526 67.3567C60.6526 68.2303 60.7486 69.0816 60.9305 69.9004C62.1988 70.1506 63.3565 70.9263 64.0536 72.1338C64.7502 73.3402 64.8435 74.7294 64.4272 75.9521C65.6756 77.1 67.1747 77.9794 68.833 78.4987C69.6838 77.5259 70.9342 76.9115 72.328 76.9115C73.7215 76.9115 74.9715 77.5256 75.8223 78.4979C77.4801 77.9782 78.9787 77.0987 80.2267 75.9509C79.8124 74.7295 79.9065 73.3425 80.6021 72.1377C81.2984 70.9316 82.4544 70.1563 83.721 69.9052C83.9036 69.0849 84 68.2321 84 67.3567C84 66.484 83.9042 65.6336 83.7226 64.8155C82.4549 64.565 81.2978 63.7894 80.601 62.5825C79.9043 61.3758 79.8111 59.9862 80.2276 58.7634Z" fill="white"/>
<path fill-rule="evenodd" clip-rule="evenodd" d="M80.601 62.5825C79.9043 61.3758 79.8111 59.9862 80.2276 58.7634C78.98 57.6156 77.4818 56.7361 75.8245 56.2162C74.9737 57.1899 73.7227 57.8051 72.328 57.8051C70.933 57.8051 69.6817 57.1896 68.8309 56.2153C67.1732 56.7349 65.6748 57.6141 64.4268 58.7616C64.8438 59.9847 64.7507 61.3747 64.0538 62.5817C63.3566 63.7894 62.1986 64.5651 60.93 64.8152C60.7484 65.6334 60.6526 66.4838 60.6526 67.3567C60.6526 68.2303 60.7486 69.0816 60.9305 69.9004C62.1988 70.1506 63.3565 70.9263 64.0536 72.1338C64.7502 73.3402 64.8435 74.7294 64.4272 75.9521C65.6756 77.1 67.1747 77.9794 68.833 78.4987C69.6838 77.5259 70.9342 76.9115 72.328 76.9115C73.7215 76.9115 74.9715 77.5256 75.8223 78.4979C77.4801 77.9782 78.9787 77.0987 80.2267 75.9509C79.8124 74.7295 79.9065 73.3425 80.6021 72.1377C81.2984 70.9316 82.4544 70.1563 83.721 69.9052C83.9036 69.0849 84 68.2321 84 67.3567C84 66.484 83.9042 65.6336 83.7226 64.8155C82.4549 64.565 81.2978 63.7894 80.601 62.5825ZM81.9475 66.3417C80.6984 65.7933 79.6039 64.8555 78.8689 63.5825C78.1335 62.3087 77.8687 60.8911 78.019 59.5343C77.4728 59.136 76.8838 58.7938 76.2604 58.5159C75.1603 59.3251 73.7996 59.8051 72.328 59.8051C70.8559 59.8051 69.4947 59.3247 68.3943 58.515C67.771 58.7927 67.182 59.1346 66.6358 59.5327C66.7862 60.8897 66.5214 62.3077 65.7859 63.5817C65.0504 64.8555 63.9551 65.7937 62.705 66.3419C62.6704 66.675 62.6526 67.0135 62.6526 67.3567C62.6526 67.7007 62.6705 68.04 62.7053 68.3738C63.9552 68.922 65.0504 69.8601 65.7857 71.1338C66.5209 72.4072 66.7857 73.8243 66.6358 75.1807C67.1828 75.5793 67.7727 75.9217 68.397 76.1996C69.4969 75.391 70.8571 74.9115 72.328 74.9115C73.7984 74.9115 75.1581 75.3906 76.2577 76.1987C76.8822 75.9205 77.4722 75.5778 78.0193 75.1789C77.8707 73.8243 78.1359 72.4093 78.87 71.1377C79.6046 69.8654 80.6983 68.9279 81.9467 68.3794C81.9819 68.0438 82 67.7026 82 67.3567C82 67.0134 81.9822 66.6748 81.9475 66.3417Z" fill="#6A6A6A"/>
<circle cx="72.3274" cy="67.3562" r="3.98119" stroke="#6A6A6A" stroke-width="2"/>
</svg>