<svg width="460" height="130" viewBox="0 0 460 130" fill="none" xmlns="http://www.w3.org/2000/svg">
<g clip-path="url(#clip0_915_66374)">
<path d="M1.428 19C1.33467 19 1.25533 18.9673 1.19 18.902C1.12467 18.8367 1.092 18.7573 1.092 18.664V9.55C1.092 9.44733 1.12467 9.36333 1.19 9.298C1.25533 9.23267 1.33467 9.2 1.428 9.2H5.18C5.908 9.2 6.54267 9.31667 7.084 9.55C7.62533 9.774 8.04533 10.1193 8.344 10.586C8.64267 11.0433 8.792 11.6173 8.792 12.308C8.792 13.008 8.64267 13.5867 8.344 14.044C8.04533 14.492 7.62533 14.828 7.084 15.052C6.54267 15.276 5.908 15.388 5.18 15.388H3.094V18.664C3.094 18.7573 3.06133 18.8367 2.996 18.902C2.94 18.9673 2.86067 19 2.758 19H1.428ZM3.066 13.834H5.11C5.65133 13.834 6.06667 13.708 6.356 13.456C6.64533 13.1947 6.79 12.812 6.79 12.308C6.79 11.8413 6.65467 11.468 6.384 11.188C6.11333 10.8987 5.68867 10.754 5.11 10.754H3.066V13.834ZM14.1005 19.14C13.2325 19.14 12.4952 18.9907 11.8885 18.692C11.2912 18.384 10.8338 17.95 10.5165 17.39C10.1992 16.8207 10.0218 16.1393 9.98452 15.346C9.97518 14.9633 9.97052 14.5527 9.97052 14.114C9.97052 13.6753 9.97518 13.2553 9.98452 12.854C10.0218 12.07 10.1992 11.3933 10.5165 10.824C10.8432 10.2547 11.3052 9.82067 11.9025 9.522C12.5092 9.214 13.2418 9.06 14.1005 9.06C14.7352 9.06 15.3045 9.144 15.8085 9.312C16.3125 9.48 16.7418 9.71333 17.0965 10.012C17.4512 10.3013 17.7265 10.642 17.9225 11.034C18.1185 11.426 18.2212 11.8507 18.2305 12.308C18.2398 12.392 18.2118 12.462 18.1465 12.518C18.0905 12.574 18.0205 12.602 17.9365 12.602H16.6065C16.5038 12.602 16.4198 12.5787 16.3545 12.532C16.2892 12.476 16.2425 12.3873 16.2145 12.266C16.0652 11.65 15.8085 11.23 15.4445 11.006C15.0805 10.782 14.6278 10.67 14.0865 10.67C13.4612 10.67 12.9618 10.8473 12.5885 11.202C12.2152 11.5473 12.0145 12.1213 11.9865 12.924C11.9585 13.6893 11.9585 14.4733 11.9865 15.276C12.0145 16.0787 12.2152 16.6573 12.5885 17.012C12.9618 17.3573 13.4612 17.53 14.0865 17.53C14.6278 17.53 15.0805 17.418 15.4445 17.194C15.8178 16.9607 16.0745 16.5407 16.2145 15.934C16.2425 15.8033 16.2892 15.7147 16.3545 15.668C16.4198 15.6213 16.5038 15.598 16.6065 15.598H17.9365C18.0205 15.598 18.0905 15.626 18.1465 15.682C18.2118 15.738 18.2398 15.808 18.2305 15.892C18.2212 16.3493 18.1185 16.774 17.9225 17.166C17.7265 17.558 17.4512 17.9033 17.0965 18.202C16.7418 18.4913 16.3125 18.72 15.8085 18.888C15.3045 19.056 14.7352 19.14 14.1005 19.14ZM23.7968 19.14C22.9848 19.14 22.2802 19.0047 21.6828 18.734C21.0855 18.454 20.6235 18.0293 20.2968 17.46C19.9702 16.8813 19.8068 16.144 19.8068 15.248V9.55C19.8068 9.44733 19.8395 9.36333 19.9048 9.298C19.9702 9.23267 20.0495 9.2 20.1428 9.2H21.4168C21.5195 9.2 21.5988 9.23267 21.6548 9.298C21.7202 9.36333 21.7528 9.44733 21.7528 9.55V15.248C21.7528 16.0133 21.9348 16.5827 22.2988 16.956C22.6628 17.32 23.1622 17.502 23.7968 17.502C24.4315 17.502 24.9262 17.32 25.2808 16.956C25.6448 16.5827 25.8268 16.0133 25.8268 15.248V9.55C25.8268 9.44733 25.8595 9.36333 25.9248 9.298C25.9902 9.23267 26.0742 9.2 26.1768 9.2H27.4368C27.5395 9.2 27.6188 9.23267 27.6748 9.298C27.7402 9.36333 27.7728 9.44733 27.7728 9.55V15.248C27.7728 16.144 27.6095 16.8813 27.2828 17.46C26.9655 18.0293 26.5082 18.454 25.9108 18.734C25.3228 19.0047 24.6182 19.14 23.7968 19.14ZM32.4203 19.14C31.8603 19.14 31.3796 19.0747 30.9783 18.944C30.5863 18.8133 30.2643 18.65 30.0123 18.454C29.7603 18.258 29.5736 18.062 29.4523 17.866C29.3309 17.67 29.2656 17.5067 29.2563 17.376C29.2469 17.2733 29.2749 17.194 29.3403 17.138C29.4149 17.0727 29.4943 17.04 29.5783 17.04H30.6843C30.7216 17.04 30.7543 17.0447 30.7823 17.054C30.8103 17.0633 30.8476 17.0913 30.8943 17.138C31.0156 17.2407 31.1416 17.348 31.2723 17.46C31.4123 17.572 31.5756 17.67 31.7623 17.754C31.9489 17.8287 32.1823 17.866 32.4623 17.866C32.8263 17.866 33.1296 17.796 33.3723 17.656C33.6243 17.5067 33.7503 17.2967 33.7503 17.026C33.7503 16.83 33.6943 16.6713 33.5823 16.55C33.4796 16.4287 33.2836 16.3213 32.9943 16.228C32.7049 16.1253 32.2943 16.018 31.7623 15.906C31.2396 15.7847 30.8056 15.6307 30.4603 15.444C30.1149 15.2573 29.8583 15.024 29.6903 14.744C29.5223 14.464 29.4383 14.1373 29.4383 13.764C29.4383 13.4 29.5456 13.0547 29.7603 12.728C29.9843 12.392 30.3109 12.1167 30.7403 11.902C31.1789 11.6873 31.7203 11.58 32.3643 11.58C32.8683 11.58 33.3069 11.6453 33.6803 11.776C34.0536 11.8973 34.3616 12.0513 34.6043 12.238C34.8563 12.4247 35.0476 12.616 35.1783 12.812C35.3089 12.9987 35.3789 13.162 35.3883 13.302C35.3976 13.4047 35.3696 13.4887 35.3043 13.554C35.2389 13.61 35.1643 13.638 35.0803 13.638H34.0443C33.9976 13.638 33.9556 13.6287 33.9183 13.61C33.8809 13.5913 33.8436 13.568 33.8063 13.54C33.7036 13.4467 33.5916 13.3487 33.4703 13.246C33.3489 13.134 33.1996 13.0407 33.0223 12.966C32.8543 12.8913 32.6303 12.854 32.3503 12.854C31.9956 12.854 31.7249 12.9333 31.5383 13.092C31.3516 13.2413 31.2583 13.4327 31.2583 13.666C31.2583 13.8247 31.3003 13.9647 31.3843 14.086C31.4776 14.198 31.6596 14.3053 31.9303 14.408C32.2009 14.5107 32.6116 14.618 33.1623 14.73C33.7876 14.842 34.2823 15.01 34.6463 15.234C35.0196 15.4487 35.2809 15.7007 35.4303 15.99C35.5889 16.27 35.6683 16.5827 35.6683 16.928C35.6683 17.348 35.5423 17.726 35.2903 18.062C35.0476 18.398 34.6836 18.664 34.1983 18.86C33.7223 19.0467 33.1296 19.14 32.4203 19.14ZM44.3867 19.14C43.5747 19.14 42.87 19.0047 42.2727 18.734C41.6753 18.454 41.2133 18.0293 40.8867 17.46C40.56 16.8813 40.3967 16.144 40.3967 15.248V9.55C40.3967 9.44733 40.4293 9.36333 40.4947 9.298C40.56 9.23267 40.6393 9.2 40.7327 9.2H42.0067C42.1093 9.2 42.1887 9.23267 42.2447 9.298C42.31 9.36333 42.3427 9.44733 42.3427 9.55V15.248C42.3427 16.0133 42.5247 16.5827 42.8887 16.956C43.2527 17.32 43.752 17.502 44.3867 17.502C45.0213 17.502 45.516 17.32 45.8707 16.956C46.2347 16.5827 46.4167 16.0133 46.4167 15.248V9.55C46.4167 9.44733 46.4493 9.36333 46.5147 9.298C46.58 9.23267 46.664 9.2 46.7667 9.2H48.0267C48.1293 9.2 48.2087 9.23267 48.2647 9.298C48.33 9.36333 48.3627 9.44733 48.3627 9.55V15.248C48.3627 16.144 48.1993 16.8813 47.8727 17.46C47.5553 18.0293 47.098 18.454 46.5007 18.734C45.9127 19.0047 45.208 19.14 44.3867 19.14ZM53.0101 19.14C52.4501 19.14 51.9695 19.0747 51.5681 18.944C51.1761 18.8133 50.8541 18.65 50.6021 18.454C50.3501 18.258 50.1635 18.062 50.0421 17.866C49.9208 17.67 49.8555 17.5067 49.8461 17.376C49.8368 17.2733 49.8648 17.194 49.9301 17.138C50.0048 17.0727 50.0841 17.04 50.1681 17.04H51.2741C51.3115 17.04 51.3441 17.0447 51.3721 17.054C51.4001 17.0633 51.4375 17.0913 51.4841 17.138C51.6055 17.2407 51.7315 17.348 51.8621 17.46C52.0021 17.572 52.1655 17.67 52.3521 17.754C52.5388 17.8287 52.7721 17.866 53.0521 17.866C53.4161 17.866 53.7195 17.796 53.9621 17.656C54.2141 17.5067 54.3401 17.2967 54.3401 17.026C54.3401 16.83 54.2841 16.6713 54.1721 16.55C54.0695 16.4287 53.8735 16.3213 53.5841 16.228C53.2948 16.1253 52.8841 16.018 52.3521 15.906C51.8295 15.7847 51.3955 15.6307 51.0501 15.444C50.7048 15.2573 50.4481 15.024 50.2801 14.744C50.1121 14.464 50.0281 14.1373 50.0281 13.764C50.0281 13.4 50.1355 13.0547 50.3501 12.728C50.5741 12.392 50.9008 12.1167 51.3301 11.902C51.7688 11.6873 52.3101 11.58 52.9541 11.58C53.4581 11.58 53.8968 11.6453 54.2701 11.776C54.6435 11.8973 54.9515 12.0513 55.1941 12.238C55.4461 12.4247 55.6375 12.616 55.7681 12.812C55.8988 12.9987 55.9688 13.162 55.9781 13.302C55.9875 13.4047 55.9595 13.4887 55.8941 13.554C55.8288 13.61 55.7541 13.638 55.6701 13.638H54.6341C54.5875 13.638 54.5455 13.6287 54.5081 13.61C54.4708 13.5913 54.4335 13.568 54.3961 13.54C54.2935 13.4467 54.1815 13.3487 54.0601 13.246C53.9388 13.134 53.7895 13.0407 53.6121 12.966C53.4441 12.8913 53.2201 12.854 52.9401 12.854C52.5855 12.854 52.3148 12.9333 52.1281 13.092C51.9415 13.2413 51.8481 13.4327 51.8481 13.666C51.8481 13.8247 51.8901 13.9647 51.9741 14.086C52.0675 14.198 52.2495 14.3053 52.5201 14.408C52.7908 14.5107 53.2015 14.618 53.7521 14.73C54.3775 14.842 54.8721 15.01 55.2361 15.234C55.6095 15.4487 55.8708 15.7007 56.0201 15.99C56.1788 16.27 56.2581 16.5827 56.2581 16.928C56.2581 17.348 56.1321 17.726 55.8801 18.062C55.6375 18.398 55.2735 18.664 54.7881 18.86C54.3121 19.0467 53.7195 19.14 53.0101 19.14ZM60.8393 19.14C59.8033 19.14 58.982 18.8413 58.3753 18.244C57.7686 17.6467 57.442 16.7973 57.3953 15.696C57.386 15.6027 57.3813 15.486 57.3813 15.346C57.3813 15.1967 57.386 15.08 57.3953 14.996C57.4326 14.2867 57.5913 13.68 57.8713 13.176C58.1606 12.6627 58.5573 12.2707 59.0613 12C59.5653 11.72 60.158 11.58 60.8393 11.58C61.5953 11.58 62.23 11.7387 62.7433 12.056C63.2566 12.364 63.644 12.798 63.9053 13.358C64.1666 13.9087 64.2973 14.548 64.2973 15.276V15.57C64.2973 15.6633 64.2646 15.7427 64.1993 15.808C64.134 15.8733 64.05 15.906 63.9473 15.906H59.2993C59.2993 15.906 59.2993 15.92 59.2993 15.948C59.2993 15.976 59.2993 15.9993 59.2993 16.018C59.3086 16.3447 59.3693 16.648 59.4813 16.928C59.6026 17.1987 59.7753 17.418 59.9993 17.586C60.2326 17.754 60.508 17.838 60.8253 17.838C61.0866 17.838 61.306 17.8007 61.4833 17.726C61.6606 17.642 61.8053 17.5487 61.9173 17.446C62.0293 17.3433 62.1086 17.2593 62.1553 17.194C62.2393 17.082 62.3046 17.0167 62.3513 16.998C62.4073 16.97 62.4866 16.956 62.5893 16.956H63.7933C63.8866 16.956 63.9613 16.984 64.0173 17.04C64.0826 17.096 64.1106 17.166 64.1013 17.25C64.092 17.3993 64.0126 17.5813 63.8633 17.796C63.7233 18.0107 63.518 18.2207 63.2473 18.426C62.9766 18.6313 62.636 18.804 62.2253 18.944C61.824 19.0747 61.362 19.14 60.8393 19.14ZM59.2993 14.73H62.3933V14.688C62.3933 14.324 62.3326 14.0067 62.2113 13.736C62.09 13.456 61.9126 13.2413 61.6793 13.092C61.446 12.9333 61.166 12.854 60.8393 12.854C60.5126 12.854 60.2326 12.9333 59.9993 13.092C59.766 13.2413 59.5886 13.456 59.4673 13.736C59.3553 14.0067 59.2993 14.324 59.2993 14.688V14.73ZM68.4854 19.14C68 19.14 67.5707 19.0607 67.1974 18.902C66.8334 18.734 66.53 18.5007 66.2874 18.202C66.0447 17.9033 65.858 17.5533 65.7274 17.152C65.5967 16.7413 65.522 16.2933 65.5034 15.808C65.494 15.64 65.4894 15.4907 65.4894 15.36C65.4894 15.22 65.494 15.066 65.5034 14.898C65.522 14.4313 65.592 13.9973 65.7134 13.596C65.844 13.1947 66.0307 12.8447 66.2734 12.546C66.5254 12.238 66.8334 12 67.1974 11.832C67.5707 11.664 68 11.58 68.4854 11.58C68.9894 11.58 69.414 11.6687 69.7594 11.846C70.114 12.014 70.408 12.2333 70.6414 12.504V9.396C70.6414 9.30267 70.6694 9.22333 70.7254 9.158C70.7907 9.09267 70.8747 9.06 70.9774 9.06H72.1674C72.2607 9.06 72.34 9.09267 72.4054 9.158C72.4707 9.22333 72.5034 9.30267 72.5034 9.396V18.664C72.5034 18.7573 72.4707 18.8367 72.4054 18.902C72.34 18.9673 72.2607 19 72.1674 19H71.0614C70.9587 19 70.8747 18.9673 70.8094 18.902C70.7534 18.8367 70.7254 18.7573 70.7254 18.664V18.146C70.492 18.4353 70.1934 18.6733 69.8294 18.86C69.4747 19.0467 69.0267 19.14 68.4854 19.14ZM69.0034 17.642C69.3954 17.642 69.708 17.5533 69.9414 17.376C70.1747 17.1987 70.3474 16.9747 70.4594 16.704C70.5714 16.424 70.632 16.1393 70.6414 15.85C70.6507 15.682 70.6554 15.5047 70.6554 15.318C70.6554 15.122 70.6507 14.94 70.6414 14.772C70.632 14.492 70.5667 14.226 70.4454 13.974C70.324 13.7127 70.1467 13.498 69.9134 13.33C69.68 13.162 69.3767 13.078 69.0034 13.078C68.6114 13.078 68.2987 13.1667 68.0654 13.344C67.8414 13.512 67.678 13.736 67.5754 14.016C67.4727 14.296 67.412 14.604 67.3934 14.94C67.384 15.22 67.384 15.5 67.3934 15.78C67.412 16.116 67.4727 16.424 67.5754 16.704C67.678 16.984 67.8414 17.2127 68.0654 17.39C68.2987 17.558 68.6114 17.642 69.0034 17.642Z" fill="black" fill-opacity="0.8"/>
<line x1="82.5" y1="11.5" x2="95.5" y2="11.5" stroke="black" stroke-opacity="0.8" stroke-linecap="round"/>
<line x1="82.5" y1="18.5" x2="95.5" y2="18.5" stroke="black" stroke-opacity="0.8" stroke-linecap="round"/>
<path d="M116.428 20C116.335 20 116.255 19.9673 116.19 19.902C116.125 19.8367 116.092 19.7573 116.092 19.664V10.55C116.092 10.4473 116.125 10.3633 116.19 10.298C116.255 10.2327 116.335 10.2 116.428 10.2H120.18C120.908 10.2 121.543 10.3167 122.084 10.55C122.625 10.774 123.045 11.1193 123.344 11.586C123.643 12.0433 123.792 12.6173 123.792 13.308C123.792 14.008 123.643 14.5867 123.344 15.044C123.045 15.492 122.625 15.828 122.084 16.052C121.543 16.276 120.908 16.388 120.18 16.388H118.094V19.664C118.094 19.7573 118.061 19.8367 117.996 19.902C117.94 19.9673 117.861 20 117.758 20H116.428ZM118.066 14.834H120.11C120.651 14.834 121.067 14.708 121.356 14.456C121.645 14.1947 121.79 13.812 121.79 13.308C121.79 12.8413 121.655 12.468 121.384 12.188C121.113 11.8987 120.689 11.754 120.11 11.754H118.066V14.834ZM129.101 20.14C128.233 20.14 127.495 19.9907 126.889 19.692C126.291 19.384 125.834 18.95 125.517 18.39C125.199 17.8207 125.022 17.1393 124.985 16.346C124.975 15.9633 124.971 15.5527 124.971 15.114C124.971 14.6753 124.975 14.2553 124.985 13.854C125.022 13.07 125.199 12.3933 125.517 11.824C125.843 11.2547 126.305 10.8207 126.903 10.522C127.509 10.214 128.242 10.06 129.101 10.06C129.735 10.06 130.305 10.144 130.809 10.312C131.313 10.48 131.742 10.7133 132.097 11.012C132.451 11.3013 132.727 11.642 132.923 12.034C133.119 12.426 133.221 12.8507 133.231 13.308C133.24 13.392 133.212 13.462 133.147 13.518C133.091 13.574 133.021 13.602 132.937 13.602H131.607C131.504 13.602 131.42 13.5787 131.355 13.532C131.289 13.476 131.243 13.3873 131.215 13.266C131.065 12.65 130.809 12.23 130.445 12.006C130.081 11.782 129.628 11.67 129.087 11.67C128.461 11.67 127.962 11.8473 127.589 12.202C127.215 12.5473 127.015 13.1213 126.987 13.924C126.959 14.6893 126.959 15.4733 126.987 16.276C127.015 17.0787 127.215 17.6573 127.589 18.012C127.962 18.3573 128.461 18.53 129.087 18.53C129.628 18.53 130.081 18.418 130.445 18.194C130.818 17.9607 131.075 17.5407 131.215 16.934C131.243 16.8033 131.289 16.7147 131.355 16.668C131.42 16.6213 131.504 16.598 131.607 16.598H132.937C133.021 16.598 133.091 16.626 133.147 16.682C133.212 16.738 133.24 16.808 133.231 16.892C133.221 17.3493 133.119 17.774 132.923 18.166C132.727 18.558 132.451 18.9033 132.097 19.202C131.742 19.4913 131.313 19.72 130.809 19.888C130.305 20.056 129.735 20.14 129.101 20.14ZM138.797 20.14C137.985 20.14 137.28 20.0047 136.683 19.734C136.085 19.454 135.623 19.0293 135.297 18.46C134.97 17.8813 134.807 17.144 134.807 16.248V10.55C134.807 10.4473 134.839 10.3633 134.905 10.298C134.97 10.2327 135.049 10.2 135.143 10.2H136.417C136.519 10.2 136.599 10.2327 136.655 10.298C136.72 10.3633 136.753 10.4473 136.753 10.55V16.248C136.753 17.0133 136.935 17.5827 137.299 17.956C137.663 18.32 138.162 18.502 138.797 18.502C139.431 18.502 139.926 18.32 140.281 17.956C140.645 17.5827 140.827 17.0133 140.827 16.248V10.55C140.827 10.4473 140.859 10.3633 140.925 10.298C140.99 10.2327 141.074 10.2 141.177 10.2H142.437C142.539 10.2 142.619 10.2327 142.675 10.298C142.74 10.3633 142.773 10.4473 142.773 10.55V16.248C142.773 17.144 142.609 17.8813 142.283 18.46C141.965 19.0293 141.508 19.454 140.911 19.734C140.323 20.0047 139.618 20.14 138.797 20.14ZM151.851 20.14C150.983 20.14 150.245 19.9907 149.639 19.692C149.041 19.384 148.584 18.95 148.267 18.39C147.949 17.8207 147.772 17.1393 147.735 16.346C147.725 15.9633 147.721 15.5527 147.721 15.114C147.721 14.6753 147.725 14.2553 147.735 13.854C147.772 13.07 147.949 12.3933 148.267 11.824C148.593 11.2547 149.055 10.8207 149.653 10.522C150.259 10.214 150.992 10.06 151.851 10.06C152.485 10.06 153.055 10.144 153.559 10.312C154.063 10.48 154.492 10.7133 154.847 11.012C155.201 11.3013 155.477 11.642 155.673 12.034C155.869 12.426 155.971 12.8507 155.981 13.308C155.99 13.392 155.962 13.462 155.897 13.518C155.841 13.574 155.771 13.602 155.687 13.602H154.357C154.254 13.602 154.17 13.5787 154.105 13.532C154.039 13.476 153.993 13.3873 153.965 13.266C153.815 12.65 153.559 12.23 153.195 12.006C152.831 11.782 152.378 11.67 151.837 11.67C151.211 11.67 150.712 11.8473 150.339 12.202C149.965 12.5473 149.765 13.1213 149.737 13.924C149.709 14.6893 149.709 15.4733 149.737 16.276C149.765 17.0787 149.965 17.6573 150.339 18.012C150.712 18.3573 151.211 18.53 151.837 18.53C152.378 18.53 152.831 18.418 153.195 18.194C153.568 17.9607 153.825 17.5407 153.965 16.934C153.993 16.8033 154.039 16.7147 154.105 16.668C154.17 16.6213 154.254 16.598 154.357 16.598H155.687C155.771 16.598 155.841 16.626 155.897 16.682C155.962 16.738 155.99 16.808 155.981 16.892C155.971 17.3493 155.869 17.774 155.673 18.166C155.477 18.558 155.201 18.9033 154.847 19.202C154.492 19.4913 154.063 19.72 153.559 19.888C153.055 20.056 152.485 20.14 151.851 20.14ZM160.693 20.14C159.946 20.14 159.316 20.0093 158.803 19.748C158.299 19.4867 157.911 19.118 157.641 18.642C157.379 18.166 157.23 17.6107 157.193 16.976C157.183 16.808 157.179 16.6027 157.179 16.36C157.179 16.1173 157.183 15.912 157.193 15.744C157.23 15.1 157.384 14.5447 157.655 14.078C157.935 13.602 158.327 13.2333 158.831 12.972C159.344 12.7107 159.965 12.58 160.693 12.58C161.421 12.58 162.037 12.7107 162.541 12.972C163.054 13.2333 163.446 13.602 163.717 14.078C163.997 14.5447 164.155 15.1 164.193 15.744C164.202 15.912 164.207 16.1173 164.207 16.36C164.207 16.6027 164.202 16.808 164.193 16.976C164.155 17.6107 164.001 18.166 163.731 18.642C163.469 19.118 163.082 19.4867 162.569 19.748C162.065 20.0093 161.439 20.14 160.693 20.14ZM160.693 18.754C161.187 18.754 161.57 18.6 161.841 18.292C162.111 17.9747 162.261 17.5127 162.289 16.906C162.298 16.766 162.303 16.584 162.303 16.36C162.303 16.136 162.298 15.954 162.289 15.814C162.261 15.2073 162.111 14.75 161.841 14.442C161.57 14.1247 161.187 13.966 160.693 13.966C160.198 13.966 159.815 14.1247 159.545 14.442C159.274 14.75 159.125 15.2073 159.097 15.814C159.087 15.954 159.083 16.136 159.083 16.36C159.083 16.584 159.087 16.766 159.097 16.906C159.125 17.5127 159.274 17.9747 159.545 18.292C159.815 18.6 160.198 18.754 160.693 18.754ZM168.516 20.14C167.956 20.14 167.475 20.0747 167.074 19.944C166.682 19.8133 166.36 19.65 166.108 19.454C165.856 19.258 165.669 19.062 165.548 18.866C165.427 18.67 165.361 18.5067 165.352 18.376C165.343 18.2733 165.371 18.194 165.436 18.138C165.511 18.0727 165.59 18.04 165.674 18.04H166.78C166.817 18.04 166.85 18.0447 166.878 18.054C166.906 18.0633 166.943 18.0913 166.99 18.138C167.111 18.2407 167.237 18.348 167.368 18.46C167.508 18.572 167.671 18.67 167.858 18.754C168.045 18.8287 168.278 18.866 168.558 18.866C168.922 18.866 169.225 18.796 169.468 18.656C169.72 18.5067 169.846 18.2967 169.846 18.026C169.846 17.83 169.79 17.6713 169.678 17.55C169.575 17.4287 169.379 17.3213 169.09 17.228C168.801 17.1253 168.39 17.018 167.858 16.906C167.335 16.7847 166.901 16.6307 166.556 16.444C166.211 16.2573 165.954 16.024 165.786 15.744C165.618 15.464 165.534 15.1373 165.534 14.764C165.534 14.4 165.641 14.0547 165.856 13.728C166.08 13.392 166.407 13.1167 166.836 12.902C167.275 12.6873 167.816 12.58 168.46 12.58C168.964 12.58 169.403 12.6453 169.776 12.776C170.149 12.8973 170.457 13.0513 170.7 13.238C170.952 13.4247 171.143 13.616 171.274 13.812C171.405 13.9987 171.475 14.162 171.484 14.302C171.493 14.4047 171.465 14.4887 171.4 14.554C171.335 14.61 171.26 14.638 171.176 14.638H170.14C170.093 14.638 170.051 14.6287 170.014 14.61C169.977 14.5913 169.939 14.568 169.902 14.54C169.799 14.4467 169.687 14.3487 169.566 14.246C169.445 14.134 169.295 14.0407 169.118 13.966C168.95 13.8913 168.726 13.854 168.446 13.854C168.091 13.854 167.821 13.9333 167.634 14.092C167.447 14.2413 167.354 14.4327 167.354 14.666C167.354 14.8247 167.396 14.9647 167.48 15.086C167.573 15.198 167.755 15.3053 168.026 15.408C168.297 15.5107 168.707 15.618 169.258 15.73C169.883 15.842 170.378 16.01 170.742 16.234C171.115 16.4487 171.377 16.7007 171.526 16.99C171.685 17.27 171.764 17.5827 171.764 17.928C171.764 18.348 171.638 18.726 171.386 19.062C171.143 19.398 170.779 19.664 170.294 19.86C169.818 20.0467 169.225 20.14 168.516 20.14ZM176.472 20C175.912 20 175.44 19.902 175.058 19.706C174.675 19.51 174.39 19.2207 174.204 18.838C174.017 18.446 173.924 17.9607 173.924 17.382V14.204H172.818C172.724 14.204 172.645 14.1713 172.58 14.106C172.514 14.0407 172.482 13.9567 172.482 13.854V13.056C172.482 12.9627 172.514 12.8833 172.58 12.818C172.645 12.7527 172.724 12.72 172.818 12.72H173.924V10.396C173.924 10.3027 173.952 10.2233 174.008 10.158C174.073 10.0927 174.157 10.06 174.26 10.06H175.394C175.487 10.06 175.566 10.0927 175.632 10.158C175.697 10.2233 175.73 10.3027 175.73 10.396V12.72H177.48C177.573 12.72 177.652 12.7527 177.718 12.818C177.783 12.8833 177.816 12.9627 177.816 13.056V13.854C177.816 13.9567 177.783 14.0407 177.718 14.106C177.652 14.1713 177.573 14.204 177.48 14.204H175.73V17.242C175.73 17.6247 175.795 17.9233 175.926 18.138C176.066 18.3527 176.304 18.46 176.64 18.46H177.606C177.699 18.46 177.778 18.4927 177.844 18.558C177.909 18.6233 177.942 18.7027 177.942 18.796V19.664C177.942 19.7573 177.909 19.8367 177.844 19.902C177.778 19.9673 177.699 20 177.606 20H176.472Z" fill="black" fill-opacity="0.8"/>
<path d="M109.44 25.18C108.6 25.18 107.907 24.9933 107.36 24.62C106.813 24.2467 106.387 23.68 106.08 22.92C105.787 22.16 105.58 21.1933 105.46 20.02C105.34 18.8333 105.28 17.4333 105.28 15.82C105.28 14.2067 105.34 12.8133 105.46 11.64C105.58 10.4533 105.787 9.48 106.08 8.72C106.387 7.96 106.813 7.4 107.36 7.04C107.907 6.66667 108.6 6.48 109.44 6.48C109.56 6.48 109.66 6.52667 109.74 6.62C109.833 6.7 109.88 6.8 109.88 6.92V7.2C109.88 7.32 109.84 7.42667 109.76 7.52C109.68 7.6 109.593 7.64 109.5 7.64C108.94 7.64 108.467 7.77333 108.08 8.04C107.693 8.29333 107.38 8.73333 107.14 9.36C106.9 9.97333 106.727 10.8067 106.62 11.86C106.513 12.9133 106.46 14.2333 106.46 15.82C106.46 17.4067 106.513 18.7267 106.62 19.78C106.727 20.8333 106.9 21.6667 107.14 22.28C107.38 22.9067 107.693 23.3533 108.08 23.62C108.467 23.8867 108.94 24.02 109.5 24.02C109.593 24.02 109.68 24.06 109.76 24.14C109.84 24.2333 109.88 24.34 109.88 24.46V24.74C109.88 24.86 109.833 24.96 109.74 25.04C109.66 25.1333 109.56 25.18 109.44 25.18Z" fill="black" fill-opacity="0.8"/>
<path d="M289.94 25.18C289.82 25.18 289.713 25.1333 289.62 25.04C289.54 24.96 289.5 24.86 289.5 24.74V24.46C289.5 24.34 289.54 24.2333 289.62 24.14C289.7 24.06 289.787 24.02 289.88 24.02C290.44 24.02 290.913 23.8867 291.3 23.62C291.687 23.3533 292 22.9067 292.24 22.28C292.48 21.6667 292.653 20.8333 292.76 19.78C292.867 18.7267 292.92 17.4067 292.92 15.82C292.92 14.2333 292.867 12.9133 292.76 11.86C292.653 10.8067 292.48 9.97333 292.24 9.36C292 8.73333 291.687 8.29333 291.3 8.04C290.913 7.77333 290.44 7.64 289.88 7.64C289.787 7.64 289.7 7.6 289.62 7.52C289.54 7.42667 289.5 7.32 289.5 7.2V6.92C289.5 6.8 289.54 6.7 289.62 6.62C289.713 6.52667 289.82 6.48 289.94 6.48C290.78 6.48 291.473 6.66667 292.02 7.04C292.567 7.4 292.987 7.96 293.28 8.72C293.587 9.48 293.8 10.4533 293.92 11.64C294.04 12.8133 294.1 14.2067 294.1 15.82C294.1 17.4333 294.04 18.8333 293.92 20.02C293.8 21.1933 293.587 22.16 293.28 22.92C292.987 23.68 292.567 24.2467 292.02 24.62C291.473 24.9933 290.78 25.18 289.94 25.18Z" fill="black" fill-opacity="0.8"/>
<path d="M211.584 20C211.491 20 211.411 19.9673 211.346 19.902C211.281 19.8367 211.248 19.7573 211.248 19.664V11.922H208.658C208.565 11.922 208.485 11.8893 208.42 11.824C208.355 11.7587 208.322 11.6793 208.322 11.586V10.55C208.322 10.4473 208.355 10.3633 208.42 10.298C208.485 10.2327 208.565 10.2 208.658 10.2H215.798C215.901 10.2 215.985 10.2327 216.05 10.298C216.115 10.3633 216.148 10.4473 216.148 10.55V11.586C216.148 11.6793 216.115 11.7587 216.05 11.824C215.985 11.8893 215.901 11.922 215.798 11.922H213.222V19.664C213.222 19.7573 213.189 19.8367 213.124 19.902C213.059 19.9673 212.975 20 212.872 20H211.584ZM219.335 20.14C218.589 20.14 217.959 20.0093 217.445 19.748C216.941 19.4867 216.554 19.118 216.283 18.642C216.022 18.166 215.873 17.6107 215.835 16.976C215.826 16.808 215.821 16.6027 215.821 16.36C215.821 16.1173 215.826 15.912 215.835 15.744C215.873 15.1 216.027 14.5447 216.297 14.078C216.577 13.602 216.969 13.2333 217.473 12.972C217.987 12.7107 218.607 12.58 219.335 12.58C220.063 12.58 220.679 12.7107 221.183 12.972C221.697 13.2333 222.089 13.602 222.359 14.078C222.639 14.5447 222.798 15.1 222.835 15.744C222.845 15.912 222.849 16.1173 222.849 16.36C222.849 16.6027 222.845 16.808 222.835 16.976C222.798 17.6107 222.644 18.166 222.373 18.642C222.112 19.118 221.725 19.4867 221.211 19.748C220.707 20.0093 220.082 20.14 219.335 20.14ZM219.335 18.754C219.83 18.754 220.213 18.6 220.483 18.292C220.754 17.9747 220.903 17.5127 220.931 16.906C220.941 16.766 220.945 16.584 220.945 16.36C220.945 16.136 220.941 15.954 220.931 15.814C220.903 15.2073 220.754 14.75 220.483 14.442C220.213 14.1247 219.83 13.966 219.335 13.966C218.841 13.966 218.458 14.1247 218.187 14.442C217.917 14.75 217.767 15.2073 217.739 15.814C217.73 15.954 217.725 16.136 217.725 16.36C217.725 16.584 217.73 16.766 217.739 16.906C217.767 17.5127 217.917 17.9747 218.187 18.292C218.458 18.6 218.841 18.754 219.335 18.754ZM227.636 20C227.076 20 226.605 19.902 226.222 19.706C225.839 19.51 225.555 19.2207 225.368 18.838C225.181 18.446 225.088 17.9607 225.088 17.382V14.204H223.982C223.889 14.204 223.809 14.1713 223.744 14.106C223.679 14.0407 223.646 13.9567 223.646 13.854V13.056C223.646 12.9627 223.679 12.8833 223.744 12.818C223.809 12.7527 223.889 12.72 223.982 12.72H225.088V10.396C225.088 10.3027 225.116 10.2233 225.172 10.158C225.237 10.0927 225.321 10.06 225.424 10.06H226.558C226.651 10.06 226.731 10.0927 226.796 10.158C226.861 10.2233 226.894 10.3027 226.894 10.396V12.72H228.644C228.737 12.72 228.817 12.7527 228.882 12.818C228.947 12.8833 228.98 12.9627 228.98 13.056V13.854C228.98 13.9567 228.947 14.0407 228.882 14.106C228.817 14.1713 228.737 14.204 228.644 14.204H226.894V17.242C226.894 17.6247 226.959 17.9233 227.09 18.138C227.23 18.3527 227.468 18.46 227.804 18.46H228.77C228.863 18.46 228.943 18.4927 229.008 18.558C229.073 18.6233 229.106 18.7027 229.106 18.796V19.664C229.106 19.7573 229.073 19.8367 229.008 19.902C228.943 19.9673 228.863 20 228.77 20H227.636ZM232.462 20.14C231.976 20.14 231.538 20.0467 231.146 19.86C230.754 19.664 230.441 19.4073 230.208 19.09C229.984 18.7633 229.872 18.3993 229.872 17.998C229.872 17.3447 230.138 16.8267 230.67 16.444C231.202 16.052 231.897 15.7907 232.756 15.66L234.674 15.38V15.086C234.674 14.694 234.576 14.3907 234.38 14.176C234.184 13.9613 233.848 13.854 233.372 13.854C233.036 13.854 232.76 13.924 232.546 14.064C232.34 14.1947 232.186 14.372 232.084 14.596C232.009 14.7173 231.902 14.778 231.762 14.778H230.656C230.553 14.778 230.474 14.75 230.418 14.694C230.371 14.638 230.348 14.5633 230.348 14.47C230.357 14.3207 230.418 14.1387 230.53 13.924C230.651 13.7093 230.828 13.504 231.062 13.308C231.304 13.1027 231.617 12.93 232 12.79C232.382 12.65 232.844 12.58 233.386 12.58C233.974 12.58 234.468 12.6547 234.87 12.804C235.28 12.944 235.607 13.1353 235.85 13.378C236.092 13.6207 236.27 13.9053 236.382 14.232C236.494 14.5587 236.55 14.904 236.55 15.268V19.664C236.55 19.7573 236.517 19.8367 236.452 19.902C236.386 19.9673 236.307 20 236.214 20H235.08C234.977 20 234.893 19.9673 234.828 19.902C234.772 19.8367 234.744 19.7573 234.744 19.664V19.118C234.622 19.286 234.459 19.4493 234.254 19.608C234.048 19.7667 233.796 19.8973 233.498 20C233.208 20.0933 232.863 20.14 232.462 20.14ZM232.938 18.81C233.264 18.81 233.558 18.74 233.82 18.6C234.09 18.46 234.3 18.2453 234.45 17.956C234.608 17.6573 234.688 17.284 234.688 16.836V16.542L233.288 16.766C232.737 16.85 232.326 16.9853 232.056 17.172C231.785 17.3587 231.65 17.5873 231.65 17.858C231.65 18.0633 231.71 18.2407 231.832 18.39C231.962 18.53 232.126 18.6373 232.322 18.712C232.518 18.7773 232.723 18.81 232.938 18.81ZM238.696 20C238.603 20 238.523 19.9673 238.458 19.902C238.393 19.8367 238.36 19.7573 238.36 19.664V10.396C238.36 10.3027 238.393 10.2233 238.458 10.158C238.523 10.0927 238.603 10.06 238.696 10.06H239.858C239.951 10.06 240.031 10.0927 240.096 10.158C240.161 10.2233 240.194 10.3027 240.194 10.396V19.664C240.194 19.7573 240.161 19.8367 240.096 19.902C240.031 19.9673 239.951 20 239.858 20H238.696ZM245.754 20C245.661 20 245.582 19.972 245.516 19.916C245.451 19.8507 245.418 19.7667 245.418 19.664V10.55C245.418 10.4473 245.451 10.3633 245.516 10.298C245.582 10.2327 245.661 10.2 245.754 10.2H247.028C247.131 10.2 247.21 10.2327 247.266 10.298C247.332 10.3633 247.364 10.4473 247.364 10.55V14.162H251.494V10.55C251.494 10.4473 251.527 10.3633 251.592 10.298C251.658 10.2327 251.737 10.2 251.83 10.2H253.09C253.193 10.2 253.277 10.2327 253.342 10.298C253.408 10.3633 253.44 10.4473 253.44 10.55V19.664C253.44 19.7573 253.408 19.8367 253.342 19.902C253.277 19.9673 253.193 20 253.09 20H251.83C251.737 20 251.658 19.9673 251.592 19.902C251.527 19.8367 251.494 19.7573 251.494 19.664V15.912H247.364V19.664C247.364 19.7573 247.332 19.8367 247.266 19.902C247.21 19.9673 247.131 20 247.028 20H245.754ZM258.669 20.14C257.923 20.14 257.293 20.0093 256.779 19.748C256.275 19.4867 255.888 19.118 255.617 18.642C255.356 18.166 255.207 17.6107 255.169 16.976C255.16 16.808 255.155 16.6027 255.155 16.36C255.155 16.1173 255.16 15.912 255.169 15.744C255.207 15.1 255.361 14.5447 255.631 14.078C255.911 13.602 256.303 13.2333 256.807 12.972C257.321 12.7107 257.941 12.58 258.669 12.58C259.397 12.58 260.013 12.7107 260.517 12.972C261.031 13.2333 261.423 13.602 261.693 14.078C261.973 14.5447 262.132 15.1 262.169 15.744C262.179 15.912 262.183 16.1173 262.183 16.36C262.183 16.6027 262.179 16.808 262.169 16.976C262.132 17.6107 261.978 18.166 261.707 18.642C261.446 19.118 261.059 19.4867 260.545 19.748C260.041 20.0093 259.416 20.14 258.669 20.14ZM258.669 18.754C259.164 18.754 259.547 18.6 259.817 18.292C260.088 17.9747 260.237 17.5127 260.265 16.906C260.275 16.766 260.279 16.584 260.279 16.36C260.279 16.136 260.275 15.954 260.265 15.814C260.237 15.2073 260.088 14.75 259.817 14.442C259.547 14.1247 259.164 13.966 258.669 13.966C258.175 13.966 257.792 14.1247 257.521 14.442C257.251 14.75 257.101 15.2073 257.073 15.814C257.064 15.954 257.059 16.136 257.059 16.36C257.059 16.584 257.064 16.766 257.073 16.906C257.101 17.5127 257.251 17.9747 257.521 18.292C257.792 18.6 258.175 18.754 258.669 18.754ZM266.437 20.14C265.867 20.14 265.373 20.014 264.953 19.762C264.542 19.5007 264.225 19.1367 264.001 18.67C263.777 18.194 263.665 17.634 263.665 16.99V13.056C263.665 12.9627 263.697 12.8833 263.763 12.818C263.828 12.7527 263.907 12.72 264.001 12.72H265.233C265.335 12.72 265.415 12.7527 265.471 12.818C265.536 12.8833 265.569 12.9627 265.569 13.056V16.906C265.569 18.0633 266.077 18.642 267.095 18.642C267.58 18.642 267.963 18.488 268.243 18.18C268.532 17.872 268.677 17.4473 268.677 16.906V13.056C268.677 12.9627 268.709 12.8833 268.775 12.818C268.84 12.7527 268.919 12.72 269.013 12.72H270.245C270.338 12.72 270.417 12.7527 270.483 12.818C270.548 12.8833 270.581 12.9627 270.581 13.056V19.664C270.581 19.7573 270.548 19.8367 270.483 19.902C270.417 19.9673 270.338 20 270.245 20H269.111C269.008 20 268.924 19.9673 268.859 19.902C268.803 19.8367 268.775 19.7573 268.775 19.664V19.09C268.523 19.4167 268.21 19.6733 267.837 19.86C267.463 20.0467 266.997 20.14 266.437 20.14ZM272.766 20C272.673 20 272.593 19.9673 272.528 19.902C272.463 19.8367 272.43 19.7573 272.43 19.664V13.07C272.43 12.9673 272.463 12.8833 272.528 12.818C272.593 12.7527 272.673 12.72 272.766 12.72H273.9C273.993 12.72 274.073 12.7527 274.138 12.818C274.213 12.8833 274.25 12.9673 274.25 13.07V13.644C274.465 13.3453 274.74 13.1167 275.076 12.958C275.421 12.7993 275.818 12.72 276.266 12.72H276.84C276.943 12.72 277.022 12.7527 277.078 12.818C277.143 12.8833 277.176 12.9627 277.176 13.056V14.064C277.176 14.1573 277.143 14.2367 277.078 14.302C277.022 14.3673 276.943 14.4 276.84 14.4H275.748C275.3 14.4 274.95 14.526 274.698 14.778C274.455 15.0207 274.334 15.366 274.334 15.814V19.664C274.334 19.7573 274.301 19.8367 274.236 19.902C274.171 19.9673 274.087 20 273.984 20H272.766ZM281.026 20.14C280.466 20.14 279.985 20.0747 279.584 19.944C279.192 19.8133 278.87 19.65 278.618 19.454C278.366 19.258 278.179 19.062 278.058 18.866C277.936 18.67 277.871 18.5067 277.862 18.376C277.852 18.2733 277.88 18.194 277.946 18.138C278.02 18.0727 278.1 18.04 278.184 18.04H279.29C279.327 18.04 279.36 18.0447 279.388 18.054C279.416 18.0633 279.453 18.0913 279.5 18.138C279.621 18.2407 279.747 18.348 279.878 18.46C280.018 18.572 280.181 18.67 280.368 18.754C280.554 18.8287 280.788 18.866 281.068 18.866C281.432 18.866 281.735 18.796 281.978 18.656C282.23 18.5067 282.356 18.2967 282.356 18.026C282.356 17.83 282.3 17.6713 282.188 17.55C282.085 17.4287 281.889 17.3213 281.6 17.228C281.31 17.1253 280.9 17.018 280.368 16.906C279.845 16.7847 279.411 16.6307 279.066 16.444C278.72 16.2573 278.464 16.024 278.296 15.744C278.128 15.464 278.044 15.1373 278.044 14.764C278.044 14.4 278.151 14.0547 278.366 13.728C278.59 13.392 278.916 13.1167 279.346 12.902C279.784 12.6873 280.326 12.58 280.97 12.58C281.474 12.58 281.912 12.6453 282.286 12.776C282.659 12.8973 282.967 13.0513 283.21 13.238C283.462 13.4247 283.653 13.616 283.784 13.812C283.914 13.9987 283.984 14.162 283.994 14.302C284.003 14.4047 283.975 14.4887 283.91 14.554C283.844 14.61 283.77 14.638 283.686 14.638H282.65C282.603 14.638 282.561 14.6287 282.524 14.61C282.486 14.5913 282.449 14.568 282.412 14.54C282.309 14.4467 282.197 14.3487 282.076 14.246C281.954 14.134 281.805 14.0407 281.628 13.966C281.46 13.8913 281.236 13.854 280.956 13.854C280.601 13.854 280.33 13.9333 280.144 14.092C279.957 14.2413 279.864 14.4327 279.864 14.666C279.864 14.8247 279.906 14.9647 279.99 15.086C280.083 15.198 280.265 15.3053 280.536 15.408C280.806 15.5107 281.217 15.618 281.768 15.73C282.393 15.842 282.888 16.01 283.252 16.234C283.625 16.4487 283.886 16.7007 284.036 16.99C284.194 17.27 284.274 17.5827 284.274 17.928C284.274 18.348 284.148 18.726 283.896 19.062C283.653 19.398 283.289 19.664 282.804 19.86C282.328 20.0467 281.735 20.14 281.026 20.14Z" fill="black" fill-opacity="0.8"/>
<path d="M329.592 20.14C328.976 20.14 328.425 20.0653 327.94 19.916C327.455 19.7667 327.044 19.5567 326.708 19.286C326.381 19.0153 326.129 18.698 325.952 18.334C325.784 17.97 325.7 17.564 325.7 17.116C325.7 16.5747 325.831 16.108 326.092 15.716C326.363 15.3147 326.713 15.0067 327.142 14.792C326.797 14.5773 326.526 14.302 326.33 13.966C326.143 13.63 326.05 13.238 326.05 12.79C326.05 12.2487 326.185 11.7773 326.456 11.376C326.736 10.9653 327.137 10.6433 327.66 10.41C328.192 10.1767 328.836 10.06 329.592 10.06C330.348 10.06 330.987 10.1767 331.51 10.41C332.033 10.634 332.429 10.9513 332.7 11.362C332.971 11.7633 333.106 12.2347 333.106 12.776C333.106 13.224 333.013 13.616 332.826 13.952C332.639 14.288 332.378 14.568 332.042 14.792C332.481 14.9973 332.831 15.3053 333.092 15.716C333.353 16.1173 333.484 16.5887 333.484 17.13C333.484 17.718 333.33 18.2407 333.022 18.698C332.723 19.146 332.28 19.5007 331.692 19.762C331.113 20.014 330.413 20.14 329.592 20.14ZM329.592 18.684C329.956 18.684 330.283 18.6233 330.572 18.502C330.871 18.3713 331.104 18.1893 331.272 17.956C331.449 17.7227 331.538 17.4473 331.538 17.13C331.538 16.8033 331.449 16.528 331.272 16.304C331.104 16.0707 330.871 15.8933 330.572 15.772C330.283 15.6413 329.956 15.576 329.592 15.576C329.228 15.576 328.897 15.6413 328.598 15.772C328.309 15.8933 328.075 16.0707 327.898 16.304C327.73 16.528 327.646 16.8033 327.646 17.13C327.646 17.4473 327.73 17.7227 327.898 17.956C328.075 18.1893 328.309 18.3713 328.598 18.502C328.897 18.6233 329.228 18.684 329.592 18.684ZM329.592 14.19C329.9 14.1807 330.18 14.12 330.432 14.008C330.693 13.896 330.899 13.742 331.048 13.546C331.207 13.35 331.286 13.1213 331.286 12.86C331.286 12.5893 331.211 12.356 331.062 12.16C330.922 11.9547 330.721 11.796 330.46 11.684C330.208 11.572 329.919 11.516 329.592 11.516C329.265 11.516 328.971 11.572 328.71 11.684C328.458 11.796 328.257 11.9547 328.108 12.16C327.968 12.356 327.898 12.5893 327.898 12.86C327.898 13.1307 327.968 13.364 328.108 13.56C328.257 13.756 328.458 13.91 328.71 14.022C328.971 14.134 329.265 14.19 329.592 14.19ZM336.218 20C336.134 20 336.064 19.972 336.008 19.916C335.952 19.8507 335.924 19.776 335.924 19.692C335.924 19.6547 335.933 19.6127 335.952 19.566L339.326 11.866H334.93C334.827 11.866 334.743 11.8333 334.678 11.768C334.622 11.7027 334.594 11.6233 334.594 11.53V10.55C334.594 10.4473 334.622 10.3633 334.678 10.298C334.743 10.2327 334.827 10.2 334.93 10.2H341.076C341.178 10.2 341.258 10.2327 341.314 10.298C341.379 10.3633 341.412 10.4473 341.412 10.55V11.418C341.412 11.5487 341.398 11.6607 341.37 11.754C341.351 11.838 341.323 11.9267 341.286 12.02L337.94 19.664C337.912 19.7293 337.86 19.804 337.785 19.888C337.72 19.9627 337.622 20 337.492 20H336.218ZM345.845 20.14C345.042 20.14 344.352 19.9907 343.773 19.692C343.194 19.384 342.746 18.9733 342.429 18.46C342.112 17.9373 341.953 17.354 341.953 16.71C341.953 16.4207 341.99 16.1407 342.065 15.87C342.14 15.5993 342.238 15.3427 342.359 15.1C342.48 14.8573 342.597 14.6427 342.709 14.456C342.83 14.26 342.938 14.106 343.031 13.994L345.593 10.48C345.63 10.4333 345.686 10.3773 345.761 10.312C345.836 10.2373 345.938 10.2 346.069 10.2H347.371C347.455 10.2 347.525 10.2327 347.581 10.298C347.637 10.354 347.665 10.424 347.665 10.508C347.665 10.5453 347.656 10.5827 347.637 10.62C347.628 10.648 347.614 10.6713 347.595 10.69L345.635 13.406C345.719 13.378 345.817 13.3593 345.929 13.35C346.041 13.3407 346.144 13.336 346.237 13.336C346.704 13.3453 347.147 13.4387 347.567 13.616C347.987 13.784 348.356 14.0173 348.673 14.316C348.99 14.6147 349.238 14.9647 349.415 15.366C349.602 15.7673 349.695 16.206 349.695 16.682C349.695 17.298 349.541 17.872 349.233 18.404C348.925 18.9267 348.482 19.3467 347.903 19.664C347.334 19.9813 346.648 20.14 345.845 20.14ZM345.831 18.53C346.167 18.53 346.475 18.46 346.755 18.32C347.044 18.18 347.278 17.9747 347.455 17.704C347.632 17.4333 347.721 17.0973 347.721 16.696C347.721 16.304 347.632 15.9727 347.455 15.702C347.278 15.4313 347.044 15.226 346.755 15.086C346.475 14.946 346.167 14.876 345.831 14.876C345.495 14.876 345.182 14.946 344.893 15.086C344.613 15.226 344.384 15.4313 344.207 15.702C344.03 15.9727 343.941 16.304 343.941 16.696C343.941 17.0973 344.03 17.4333 344.207 17.704C344.384 17.9747 344.613 18.18 344.893 18.32C345.182 18.46 345.495 18.53 345.831 18.53ZM354.748 20.14C354.086 20.14 353.521 20.042 353.054 19.846C352.588 19.65 352.205 19.3793 351.906 19.034C351.608 18.6887 351.384 18.292 351.234 17.844C351.085 17.3867 350.996 16.9013 350.968 16.388C350.959 16.136 350.95 15.8607 350.94 15.562C350.94 15.254 350.94 14.946 350.94 14.638C350.95 14.33 350.959 14.0453 350.968 13.784C350.987 13.2707 351.076 12.79 351.234 12.342C351.393 11.8847 351.622 11.488 351.92 11.152C352.228 10.816 352.616 10.55 353.082 10.354C353.549 10.158 354.104 10.06 354.748 10.06C355.402 10.06 355.962 10.158 356.428 10.354C356.895 10.55 357.278 10.816 357.576 11.152C357.884 11.488 358.113 11.8847 358.262 12.342C358.421 12.79 358.51 13.2707 358.528 13.784C358.547 14.0453 358.556 14.33 358.556 14.638C358.556 14.946 358.556 15.254 358.556 15.562C358.556 15.8607 358.547 16.136 358.528 16.388C358.51 16.9013 358.426 17.3867 358.276 17.844C358.127 18.292 357.903 18.6887 357.604 19.034C357.306 19.3793 356.918 19.65 356.442 19.846C355.976 20.042 355.411 20.14 354.748 20.14ZM354.748 18.53C355.355 18.53 355.798 18.334 356.078 17.942C356.368 17.5407 356.517 16.9993 356.526 16.318C356.545 16.0473 356.554 15.7767 356.554 15.506C356.554 15.226 356.554 14.946 356.554 14.666C356.554 14.386 356.545 14.12 356.526 13.868C356.517 13.2053 356.368 12.6733 356.078 12.272C355.798 11.8613 355.355 11.656 354.748 11.656C354.151 11.656 353.708 11.8613 353.418 12.272C353.138 12.6733 352.989 13.2053 352.97 13.868C352.97 14.12 352.966 14.386 352.956 14.666C352.956 14.946 352.956 15.226 352.956 15.506C352.966 15.7767 352.97 16.0473 352.97 16.318C352.989 16.9993 353.143 17.5407 353.432 17.942C353.722 18.334 354.16 18.53 354.748 18.53ZM364.097 20C363.994 20 363.915 19.972 363.859 19.916C363.803 19.8507 363.775 19.7713 363.775 19.678V10.536C363.775 10.4333 363.803 10.354 363.859 10.298C363.915 10.2327 363.994 10.2 364.097 10.2H364.811C364.913 10.2 364.993 10.2327 365.049 10.298C365.114 10.354 365.147 10.4333 365.147 10.536V14.4H369.963V10.536C369.963 10.4333 369.991 10.354 370.047 10.298C370.112 10.2327 370.191 10.2 370.285 10.2H370.999C371.101 10.2 371.181 10.2327 371.237 10.298C371.302 10.354 371.335 10.4333 371.335 10.536V19.678C371.335 19.7713 371.302 19.8507 371.237 19.916C371.181 19.972 371.101 20 370.999 20H370.285C370.191 20 370.112 19.972 370.047 19.916C369.991 19.8507 369.963 19.7713 369.963 19.678V15.66H365.147V19.678C365.147 19.7713 365.114 19.8507 365.049 19.916C364.993 19.972 364.913 20 364.811 20H364.097ZM376.569 20.14C375.859 20.14 375.267 20.0047 374.791 19.734C374.315 19.4633 373.951 19.09 373.699 18.614C373.447 18.1287 373.307 17.578 373.279 16.962C373.269 16.8033 373.265 16.6027 373.265 16.36C373.265 16.108 373.269 15.9073 373.279 15.758C373.307 15.1327 373.447 14.582 373.699 14.106C373.96 13.63 374.329 13.2567 374.805 12.986C375.281 12.7153 375.869 12.58 376.569 12.58C377.269 12.58 377.857 12.7153 378.333 12.986C378.809 13.2567 379.173 13.63 379.425 14.106C379.686 14.582 379.831 15.1327 379.859 15.758C379.868 15.9073 379.873 16.108 379.873 16.36C379.873 16.6027 379.868 16.8033 379.859 16.962C379.831 17.578 379.691 18.1287 379.439 18.614C379.187 19.09 378.823 19.4633 378.347 19.734C377.871 20.0047 377.278 20.14 376.569 20.14ZM376.569 19.062C377.147 19.062 377.609 18.88 377.955 18.516C378.3 18.1427 378.487 17.6013 378.515 16.892C378.524 16.752 378.529 16.5747 378.529 16.36C378.529 16.1453 378.524 15.968 378.515 15.828C378.487 15.1187 378.3 14.582 377.955 14.218C377.609 13.8447 377.147 13.658 376.569 13.658C375.99 13.658 375.523 13.8447 375.169 14.218C374.823 14.582 374.641 15.1187 374.623 15.828C374.613 15.968 374.609 16.1453 374.609 16.36C374.609 16.5747 374.613 16.752 374.623 16.892C374.641 17.6013 374.823 18.1427 375.169 18.516C375.523 18.88 375.99 19.062 376.569 19.062ZM384.342 20.14C383.745 20.14 383.236 20.0093 382.816 19.748C382.405 19.4773 382.093 19.104 381.878 18.628C381.663 18.152 381.556 17.606 381.556 16.99V13.042C381.556 12.9487 381.584 12.874 381.64 12.818C381.705 12.7527 381.785 12.72 381.878 12.72H382.578C382.671 12.72 382.746 12.7527 382.802 12.818C382.867 12.874 382.9 12.9487 382.9 13.042V16.92C382.9 18.3107 383.507 19.006 384.72 19.006C385.299 19.006 385.761 18.824 386.106 18.46C386.461 18.0867 386.638 17.5733 386.638 16.92V13.042C386.638 12.9487 386.666 12.874 386.722 12.818C386.787 12.7527 386.867 12.72 386.96 12.72H387.66C387.753 12.72 387.828 12.7527 387.884 12.818C387.94 12.874 387.968 12.9487 387.968 13.042V19.678C387.968 19.7713 387.94 19.8507 387.884 19.916C387.828 19.972 387.753 20 387.66 20H387.002C386.909 20 386.829 19.972 386.764 19.916C386.708 19.8507 386.68 19.7713 386.68 19.678V19.062C386.428 19.3887 386.12 19.65 385.756 19.846C385.401 20.042 384.93 20.14 384.342 20.14ZM390.37 20C390.276 20 390.197 19.972 390.132 19.916C390.076 19.8507 390.048 19.7713 390.048 19.678V13.056C390.048 12.9627 390.076 12.8833 390.132 12.818C390.197 12.7527 390.276 12.72 390.37 12.72H391.014C391.107 12.72 391.186 12.7527 391.252 12.818C391.317 12.8833 391.35 12.9627 391.35 13.056V13.672C391.536 13.3547 391.793 13.1167 392.12 12.958C392.446 12.7993 392.843 12.72 393.31 12.72H393.856C393.949 12.72 394.024 12.7527 394.08 12.818C394.145 12.874 394.178 12.9487 394.178 13.042V13.616C394.178 13.7093 394.145 13.784 394.08 13.84C394.024 13.896 393.949 13.924 393.856 13.924H393.016C392.512 13.924 392.115 14.0733 391.826 14.372C391.536 14.6613 391.392 15.058 391.392 15.562V19.678C391.392 19.7713 391.359 19.8507 391.294 19.916C391.228 19.972 391.149 20 391.056 20H390.37ZM397.886 20.14C397.363 20.14 396.915 20.0747 396.542 19.944C396.169 19.8133 395.865 19.6547 395.632 19.468C395.399 19.2813 395.221 19.0947 395.1 18.908C394.988 18.7213 394.927 18.572 394.918 18.46C394.909 18.3573 394.941 18.278 395.016 18.222C395.091 18.166 395.165 18.138 395.24 18.138H395.87C395.917 18.138 395.954 18.1473 395.982 18.166C396.019 18.1753 396.066 18.2127 396.122 18.278C396.243 18.4087 396.379 18.5393 396.528 18.67C396.677 18.8007 396.859 18.908 397.074 18.992C397.298 19.076 397.573 19.118 397.9 19.118C398.376 19.118 398.768 19.0293 399.076 18.852C399.384 18.6653 399.538 18.3947 399.538 18.04C399.538 17.8067 399.473 17.62 399.342 17.48C399.221 17.34 398.997 17.214 398.67 17.102C398.353 16.99 397.914 16.8733 397.354 16.752C396.794 16.6213 396.351 16.4627 396.024 16.276C395.697 16.08 395.464 15.8513 395.324 15.59C395.184 15.3193 395.114 15.016 395.114 14.68C395.114 14.3347 395.217 14.0033 395.422 13.686C395.627 13.3593 395.926 13.0933 396.318 12.888C396.719 12.6827 397.219 12.58 397.816 12.58C398.301 12.58 398.717 12.6407 399.062 12.762C399.407 12.8833 399.692 13.0373 399.916 13.224C400.14 13.4013 400.308 13.5787 400.42 13.756C400.532 13.9333 400.593 14.0827 400.602 14.204C400.611 14.2973 400.583 14.3767 400.518 14.442C400.453 14.498 400.378 14.526 400.294 14.526H399.706C399.641 14.526 399.585 14.512 399.538 14.484C399.501 14.456 399.463 14.4233 399.426 14.386C399.333 14.2647 399.221 14.1433 399.09 14.022C398.969 13.9007 398.805 13.8027 398.6 13.728C398.404 13.644 398.143 13.602 397.816 13.602C397.349 13.602 396.999 13.7 396.766 13.896C396.533 14.092 396.416 14.3393 396.416 14.638C396.416 14.8153 396.467 14.974 396.57 15.114C396.673 15.254 396.869 15.38 397.158 15.492C397.447 15.604 397.877 15.7253 398.446 15.856C399.062 15.9773 399.547 16.1407 399.902 16.346C400.257 16.5513 400.509 16.7893 400.658 17.06C400.807 17.3307 400.882 17.6433 400.882 17.998C400.882 18.39 400.77 18.7493 400.546 19.076C400.322 19.4027 399.986 19.664 399.538 19.86C399.09 20.0467 398.539 20.14 397.886 20.14ZM406.256 20C406.163 20 406.084 19.972 406.018 19.916C405.962 19.8507 405.934 19.7713 405.934 19.678V13.042C405.934 12.9487 405.962 12.874 406.018 12.818C406.084 12.7527 406.163 12.72 406.256 12.72H406.928C407.022 12.72 407.096 12.7527 407.152 12.818C407.218 12.874 407.25 12.9487 407.25 13.042V19.678C407.25 19.7713 407.218 19.8507 407.152 19.916C407.096 19.972 407.022 20 406.928 20H406.256ZM406.144 11.362C406.051 11.362 405.972 11.334 405.906 11.278C405.85 11.2127 405.822 11.1333 405.822 11.04V10.284C405.822 10.1907 405.85 10.1113 405.906 10.046C405.972 9.98067 406.051 9.948 406.144 9.948H407.026C407.12 9.948 407.199 9.98067 407.264 10.046C407.33 10.1113 407.362 10.1907 407.362 10.284V11.04C407.362 11.1333 407.33 11.2127 407.264 11.278C407.199 11.334 407.12 11.362 407.026 11.362H406.144ZM409.647 20C409.554 20 409.474 19.972 409.409 19.916C409.353 19.8507 409.325 19.7713 409.325 19.678V13.042C409.325 12.9487 409.353 12.874 409.409 12.818C409.474 12.7527 409.554 12.72 409.647 12.72H410.305C410.398 12.72 410.473 12.7527 410.529 12.818C410.594 12.874 410.627 12.9487 410.627 13.042V13.658C410.87 13.3407 411.173 13.084 411.537 12.888C411.91 12.6827 412.386 12.58 412.965 12.58C413.572 12.58 414.085 12.7153 414.505 12.986C414.934 13.2473 415.256 13.616 415.471 14.092C415.695 14.5587 415.807 15.1047 415.807 15.73V19.678C415.807 19.7713 415.774 19.8507 415.709 19.916C415.653 19.972 415.578 20 415.485 20H414.785C414.692 20 414.612 19.972 414.547 19.916C414.491 19.8507 414.463 19.7713 414.463 19.678V15.8C414.463 15.1467 414.304 14.638 413.987 14.274C413.67 13.9007 413.203 13.714 412.587 13.714C412.008 13.714 411.542 13.9007 411.187 14.274C410.842 14.638 410.669 15.1467 410.669 15.8V19.678C410.669 19.7713 410.636 19.8507 410.571 19.916C410.515 19.972 410.44 20 410.347 20H409.647ZM423.277 20.14C422.81 20.14 422.386 20.0467 422.003 19.86C421.62 19.6733 421.312 19.4213 421.079 19.104C420.846 18.7867 420.729 18.4273 420.729 18.026C420.729 17.382 420.99 16.8687 421.513 16.486C422.036 16.1033 422.717 15.8513 423.557 15.73L425.643 15.436V15.03C425.643 14.582 425.512 14.232 425.251 13.98C424.999 13.728 424.584 13.602 424.005 13.602C423.594 13.602 423.258 13.686 422.997 13.854C422.736 14.022 422.554 14.2367 422.451 14.498C422.395 14.638 422.297 14.708 422.157 14.708H421.527C421.424 14.708 421.345 14.68 421.289 14.624C421.242 14.5587 421.219 14.484 421.219 14.4C421.219 14.26 421.27 14.0873 421.373 13.882C421.485 13.6767 421.653 13.476 421.877 13.28C422.101 13.084 422.386 12.9207 422.731 12.79C423.086 12.65 423.515 12.58 424.019 12.58C424.579 12.58 425.05 12.6547 425.433 12.804C425.816 12.944 426.114 13.1353 426.329 13.378C426.553 13.6207 426.712 13.896 426.805 14.204C426.908 14.512 426.959 14.8247 426.959 15.142V19.678C426.959 19.7713 426.926 19.8507 426.861 19.916C426.805 19.972 426.73 20 426.637 20H425.993C425.89 20 425.811 19.972 425.755 19.916C425.699 19.8507 425.671 19.7713 425.671 19.678V19.076C425.55 19.244 425.386 19.412 425.181 19.58C424.976 19.7387 424.719 19.874 424.411 19.986C424.103 20.0887 423.725 20.14 423.277 20.14ZM423.571 19.09C423.954 19.09 424.304 19.0107 424.621 18.852C424.938 18.684 425.186 18.4273 425.363 18.082C425.55 17.7367 425.643 17.3027 425.643 16.78V16.388L424.019 16.626C423.356 16.7193 422.857 16.878 422.521 17.102C422.185 17.3167 422.017 17.592 422.017 17.928C422.017 18.1893 422.092 18.4087 422.241 18.586C422.4 18.754 422.596 18.88 422.829 18.964C423.072 19.048 423.319 19.09 423.571 19.09ZM433.294 22.66C433.22 22.66 433.154 22.632 433.098 22.576C433.042 22.52 433.014 22.4547 433.014 22.38C433.014 22.3427 433.019 22.3053 433.028 22.268C433.038 22.2307 433.056 22.184 433.084 22.128L434.162 19.566L431.488 13.252C431.442 13.14 431.418 13.0607 431.418 13.014C431.418 12.93 431.446 12.86 431.502 12.804C431.558 12.748 431.628 12.72 431.712 12.72H432.398C432.501 12.72 432.576 12.7433 432.622 12.79C432.669 12.8367 432.706 12.8927 432.734 12.958L434.862 18.054L437.046 12.958C437.074 12.8927 437.112 12.8367 437.158 12.79C437.214 12.7433 437.294 12.72 437.396 12.72H438.054C438.138 12.72 438.208 12.748 438.264 12.804C438.32 12.86 438.348 12.9253 438.348 13C438.348 13.0467 438.325 13.1307 438.278 13.252L434.302 22.422C434.274 22.4873 434.232 22.5433 434.176 22.59C434.13 22.6367 434.055 22.66 433.952 22.66H433.294ZM442.411 20.14C441.44 20.14 440.67 19.846 440.101 19.258C439.532 18.6607 439.219 17.8487 439.163 16.822C439.154 16.7007 439.149 16.5467 439.149 16.36C439.149 16.164 439.154 16.0053 439.163 15.884C439.2 15.2213 439.354 14.6427 439.625 14.148C439.896 13.644 440.264 13.2567 440.731 12.986C441.207 12.7153 441.762 12.58 442.397 12.58C443.106 12.58 443.699 12.7293 444.175 13.028C444.66 13.3267 445.029 13.7513 445.281 14.302C445.533 14.8527 445.659 15.4967 445.659 16.234V16.472C445.659 16.5747 445.626 16.654 445.561 16.71C445.505 16.766 445.43 16.794 445.337 16.794H440.493C440.493 16.8033 440.493 16.822 440.493 16.85C440.493 16.878 440.493 16.9013 440.493 16.92C440.512 17.3027 440.596 17.662 440.745 17.998C440.894 18.3247 441.109 18.5907 441.389 18.796C441.678 19.0013 442.014 19.104 442.397 19.104C442.733 19.104 443.013 19.0527 443.237 18.95C443.461 18.8473 443.643 18.7353 443.783 18.614C443.923 18.4833 444.016 18.3807 444.063 18.306C444.147 18.194 444.212 18.1287 444.259 18.11C444.306 18.082 444.38 18.068 444.483 18.068H445.169C445.253 18.068 445.323 18.096 445.379 18.152C445.444 18.1987 445.472 18.2687 445.463 18.362C445.454 18.502 445.379 18.6747 445.239 18.88C445.099 19.076 444.898 19.272 444.637 19.468C444.385 19.664 444.068 19.8273 443.685 19.958C443.312 20.0793 442.887 20.14 442.411 20.14ZM440.493 15.828H444.329V15.786C444.329 15.366 444.25 14.9927 444.091 14.666C443.942 14.3393 443.722 14.0827 443.433 13.896C443.144 13.7 442.798 13.602 442.397 13.602C441.996 13.602 441.65 13.7 441.361 13.896C441.081 14.0827 440.866 14.3393 440.717 14.666C440.568 14.9927 440.493 15.366 440.493 15.786V15.828ZM449.363 20.14C448.896 20.14 448.472 20.0467 448.089 19.86C447.706 19.6733 447.398 19.4213 447.165 19.104C446.932 18.7867 446.815 18.4273 446.815 18.026C446.815 17.382 447.076 16.8687 447.599 16.486C448.122 16.1033 448.803 15.8513 449.643 15.73L451.729 15.436V15.03C451.729 14.582 451.598 14.232 451.337 13.98C451.085 13.728 450.67 13.602 450.091 13.602C449.68 13.602 449.344 13.686 449.083 13.854C448.822 14.022 448.64 14.2367 448.537 14.498C448.481 14.638 448.383 14.708 448.243 14.708H447.613C447.51 14.708 447.431 14.68 447.375 14.624C447.328 14.5587 447.305 14.484 447.305 14.4C447.305 14.26 447.356 14.0873 447.459 13.882C447.571 13.6767 447.739 13.476 447.963 13.28C448.187 13.084 448.472 12.9207 448.817 12.79C449.172 12.65 449.601 12.58 450.105 12.58C450.665 12.58 451.136 12.6547 451.519 12.804C451.902 12.944 452.2 13.1353 452.415 13.378C452.639 13.6207 452.798 13.896 452.891 14.204C452.994 14.512 453.045 14.8247 453.045 15.142V19.678C453.045 19.7713 453.012 19.8507 452.947 19.916C452.891 19.972 452.816 20 452.723 20H452.079C451.976 20 451.897 19.972 451.841 19.916C451.785 19.8507 451.757 19.7713 451.757 19.678V19.076C451.636 19.244 451.472 19.412 451.267 19.58C451.062 19.7387 450.805 19.874 450.497 19.986C450.189 20.0887 449.811 20.14 449.363 20.14ZM449.657 19.09C450.04 19.09 450.39 19.0107 450.707 18.852C451.024 18.684 451.272 18.4273 451.449 18.082C451.636 17.7367 451.729 17.3027 451.729 16.78V16.388L450.105 16.626C449.442 16.7193 448.943 16.878 448.607 17.102C448.271 17.3167 448.103 17.592 448.103 17.928C448.103 18.1893 448.178 18.4087 448.327 18.586C448.486 18.754 448.682 18.88 448.915 18.964C449.158 19.048 449.405 19.09 449.657 19.09ZM455.379 20C455.286 20 455.207 19.972 455.141 19.916C455.085 19.8507 455.057 19.7713 455.057 19.678V13.056C455.057 12.9627 455.085 12.8833 455.141 12.818C455.207 12.7527 455.286 12.72 455.379 12.72H456.023C456.117 12.72 456.196 12.7527 456.261 12.818C456.327 12.8833 456.359 12.9627 456.359 13.056V13.672C456.546 13.3547 456.803 13.1167 457.129 12.958C457.456 12.7993 457.853 12.72 458.319 12.72H458.865C458.959 12.72 459.033 12.7527 459.089 12.818C459.155 12.874 459.187 12.9487 459.187 13.042V13.616C459.187 13.7093 459.155 13.784 459.089 13.84C459.033 13.896 458.959 13.924 458.865 13.924H458.025C457.521 13.924 457.125 14.0733 456.835 14.372C456.546 14.6613 456.401 15.058 456.401 15.562V19.678C456.401 19.7713 456.369 19.8507 456.303 19.916C456.238 19.972 456.159 20 456.065 20H455.379Z" fill="black" fill-opacity="0.8"/>
<line x1="302.5" y1="15.5" x2="316.5" y2="15.5" stroke="black" stroke-opacity="0.8" stroke-linecap="round"/>
<circle cx="309.5" cy="10.5" r="1.5" fill="black" fill-opacity="0.8"/>
<circle cx="309.5" cy="10.5" r="1" stroke="black" stroke-opacity="0.8"/>
<circle cx="309.5" cy="20.5" r="1.5" fill="black" fill-opacity="0.8"/>
<circle cx="309.5" cy="20.5" r="1" stroke="black" stroke-opacity="0.8"/>
<line x1="187.707" y1="9" x2="200" y2="21.2929" stroke="black" stroke-opacity="0.8" stroke-linecap="round"/>
<line x1="200" y1="8.70711" x2="187.707" y2="21" stroke="black" stroke-opacity="0.8" stroke-linecap="round"/>
<path d="M148 63.2231C155.155 56.0856 170.07 54.4063 163.728 70.7808C157.386 87.1552 170.352 93.3118 178.959 82.8161C187.567 72.3205 186.982 56.0858 208 58.1851" stroke="#6A6A6A" stroke-width="2"/>
<path d="M243.728 54.9447C242.676 54.6493 237.416 53.1725 236.567 52.8569C236.299 54.2846 235.881 57.0883 236.351 56.8813C236.939 56.6225 240.654 57.3257 241.513 57.3672C242.163 57.3986 247.977 62.0596 250.804 64.4462C251.81 64.2791 253.507 62.6516 253.038 62.2219C250.662 60.0423 244.78 55.2401 243.728 54.9447Z" fill="white" stroke="#6A6A6A" stroke-width="2"/>
<path d="M237.029 56.2878L237.306 52.7294C237.374 51.8499 236.859 51.0278 236.054 50.6679C234.236 49.8555 231.988 48.7533 231.028 48.5559C228.219 47.9783 218.356 48.1737 216.547 49.9992C212.138 54.4468 205.895 55.4015 205.699 55.421C205.543 55.4366 206.498 57.7842 207.721 59.7198C211.45 57.1407 219.429 53.6782 220.631 54.4773C222.009 55.3926 223.584 59.8543 224.486 62.3166L229.044 61.5952C229.465 61.5287 229.853 61.3298 230.153 61.0276L232.79 58.3678L235.232 58.1244C236.197 58.0283 236.954 57.2543 237.029 56.2878Z" fill="white" stroke="#6A6A6A" stroke-width="2"/>
<path d="M249.48 59C249.333 59.7809 247.787 61.5887 247.318 61.7205" stroke="#6A6A6A"/>
<path d="M246.48 57C246.286 57.7317 245.262 59.1512 244.324 59.727" stroke="#6A6A6A"/>
<path d="M244.48 55C244.234 55.9156 243.326 57.0174 242.338 57.7414" stroke="#6A6A6A"/>
<path d="M241.48 54C240.956 55.1131 240.345 55.8575 239.38 56.7859" stroke="#6A6A6A"/>
<path d="M208 60C209.125 64.4122 212.254 67 214.504 67C216.754 67 223.875 62.7706 225 62.1403" stroke="#6A6A6A" stroke-width="2"/>
<path d="M224 62.949C223.071 61.6777 220.905 59.3894 218.738 60.1522C216.571 60.9149 212.548 64.2202 211 66" stroke="#6A6A6A" stroke-width="2"/>
<path d="M137 47H115C110.029 47 106 51.0294 106 56V125H146V56C146 51.0294 141.971 47 137 47Z" fill="white" stroke="#6A6A6A" stroke-width="2"/>
<rect x="-1" y="1" width="48" height="5" rx="2.5" transform="matrix(-1 0 0 1 149 123)" fill="white" stroke="#6A6A6A" stroke-width="2"/>
<line x1="146" y1="96.5" x2="106" y2="96.5" stroke="#6A6A6A"/>
<mask id="mask0_915_66374" style="mask-type:alpha" maskUnits="userSpaceOnUse" x="111" y="53" width="30" height="26">
<rect x="111.5" y="53.5" width="29" height="25" rx="1.5" fill="white" stroke="#6A6A6A"/>
</mask>
<g mask="url(#mask0_915_66374)">
<circle cx="113" cy="69" r="4.25" fill="white" stroke="#6A6A6A" stroke-width="1.5"/>
<circle cx="114.631" cy="78.5967" r="4.25" fill="white" stroke="#6A6A6A" stroke-width="1.5"/>
<circle cx="125" cy="78" r="4.25" fill="white" stroke="#6A6A6A" stroke-width="1.5"/>
<circle cx="120" cy="63" r="4.25" fill="white" stroke="#6A6A6A" stroke-width="1.5"/>
<circle cx="127" cy="69" r="4.25" fill="white" stroke="#6A6A6A" stroke-width="1.5"/>
<circle cx="134" cy="75" r="4.25" fill="white" stroke="#6A6A6A" stroke-width="1.5"/>
<circle cx="129.055" cy="58.3148" r="4.25" fill="white" stroke="#6A6A6A" stroke-width="1.5"/>
<circle cx="5" cy="5" r="4" transform="matrix(0.964537 0.263947 -0.253777 0.967263 132.538 59)" fill="#00C895" stroke="#00C895" stroke-width="2"/>
</g>
<rect x="111.5" y="53.5" width="29" height="25" rx="1.5" stroke="#6A6A6A"/>
<mask id="path-38-inside-1_915_66374" fill="white">
<rect width="5" height="23" rx="0.64" transform="matrix(-1 0 0 1 151 57)"/>
</mask>
<rect width="5" height="23" rx="0.64" transform="matrix(-1 0 0 1 151 57)" fill="white" stroke="#6A6A6A" stroke-width="3" mask="url(#path-38-inside-1_915_66374)"/>
<circle cx="274" cy="81" r="4.25" fill="white" stroke="#6A6A6A" stroke-width="1.5"/>
<circle cx="301" cy="89" r="4.25" fill="white" stroke="#6A6A6A" stroke-width="1.5"/>
<circle cx="263" cy="65" r="4.25" fill="white" stroke="#6A6A6A" stroke-width="1.5"/>
<circle cx="284" cy="78" r="4.25" fill="white" stroke="#6A6A6A" stroke-width="1.5"/>
<circle cx="263" cy="81" r="4.25" fill="white" stroke="#6A6A6A" stroke-width="1.5"/>
<circle cx="255" cy="75" r="4.25" fill="white" stroke="#6A6A6A" stroke-width="1.5"/>
<circle cx="268" cy="73" r="4.25" fill="white" stroke="#6A6A6A" stroke-width="1.5"/>
<circle cx="5" cy="5" r="4" transform="matrix(0.966689 0.255955 -0.26171 0.965146 274.15 64.25)" fill="#00C895" stroke="#00C895" stroke-width="2"/>
<path d="M293.394 80.3135H247.394V108.314H293.394V80.3135Z" fill="white" stroke="#6A6A6A" stroke-width="1.5" stroke-linecap="round" stroke-linejoin="round"/>
<path d="M313 62V118H358C359.105 118 360 117.105 360 116V88.94C360 88.5396 359.88 88.1484 359.655 87.8171L344.056 64.8244C342.009 61.8069 338.6 60 334.953 60H315C313.895 60 313 60.8954 313 62Z" fill="white" stroke="#6A6A6A" stroke-width="2"/>
<path d="M243 90H313V118H243C241.895 118 241 117.105 241 116V92C241 90.8954 241.895 90 243 90Z" fill="white" stroke="#6A6A6A" stroke-width="2"/>
<path d="M324 87V69C324 67.8954 324.895 67 326 67H345.263L360 89H326C324.895 89 324 88.1046 324 87Z" fill="white"/>
<path d="M360 89V90L360.831 88.4435L360 89ZM345.263 67L346.094 66.4435L345.796 66H345.263V67ZM323 69V87H325V69H323ZM326 90H360V88H326V90ZM326 68H345.263V66H326V68ZM344.432 67.5565L359.169 89.5565L360.831 88.4435L346.094 66.4435L344.432 67.5565ZM323 87C323 88.6569 324.343 90 326 90V88C325.448 88 325 87.5523 325 87H323ZM325 69C325 68.4477 325.448 68 326 68V66C324.343 66 323 67.3431 323 69H325Z" fill="#6A6A6A"/>
<path d="M360 111L356 111C354.895 111 354 110.105 354 109V107C354 105.895 354.895 105 356 105H360" stroke="#6A6A6A" stroke-width="2"/>
<path d="M247 96H313" stroke="#6A6A6A" stroke-linecap="round"/>
<circle cx="263.5" cy="120.5" r="8.5" fill="white" stroke="#6A6A6A" stroke-width="2"/>
<path d="M259.887 116.971C257.923 118.912 257.923 122.059 259.887 124C261.851 125.941 265.036 125.941 267 124" stroke="#6A6A6A"/>
<circle cx="332.5" cy="120.5" r="8.5" fill="white" stroke="#6A6A6A" stroke-width="2"/>
<path d="M328.887 116.971C326.923 118.912 326.923 122.059 328.887 124C330.851 125.941 334.036 125.941 336 124" stroke="#6A6A6A"/>
<path fill-rule="evenodd" clip-rule="evenodd" d="M206 109.32C206 109.497 206.122 109.64 206.273 109.64L226.727 109.64C226.878 109.64 227 109.497 227 109.32C227 109.143 226.878 109 226.727 109L206.273 109C206.122 109 206 109.143 206 109.32Z" fill="#6A6A6A"/>
<path fill-rule="evenodd" clip-rule="evenodd" d="M234 93.32C234 93.4967 233.864 93.64 233.696 93.64L222.304 93.64C222.136 93.64 222 93.4967 222 93.32C222 93.1433 222.136 93 222.304 93L233.696 93C233.864 93 234 93.1433 234 93.32Z" fill="#6A6A6A"/>
<path fill-rule="evenodd" clip-rule="evenodd" d="M234 116.32C234 116.497 233.872 116.64 233.714 116.64L212.286 116.64C212.128 116.64 212 116.497 212 116.32C212 116.143 212.128 116 212.286 116L233.714 116C233.872 116 234 116.143 234 116.32Z" fill="#6A6A6A"/>
<path fill-rule="evenodd" clip-rule="evenodd" d="M215.202 106.32C215.202 106.497 215.323 106.64 215.473 106.64H226.932C227.081 106.64 227.202 106.497 227.202 106.32C227.202 106.143 227.081 106 226.932 106H215.473C215.323 106 215.202 106.143 215.202 106.32Z" fill="#6A6A6A"/>
</g>
<defs>
<clipPath id="clip0_915_66374">
<rect width="460" height="130" fill="white"/>
</clipPath>
</defs>
</svg>
