<svg width="300" height="100" viewBox="0 0 300 100" fill="none" xmlns="http://www.w3.org/2000/svg">
<g clip-path="url(#clip0_759_61357)">
<path d="M55.5822 19.9999C63.594 11.5 80.7101 11.5 73.6087 31C66.5073 50.5 83.1227 58.5 91.6352 45.5C100.148 32.5 99.647 13.5 123.182 16" stroke="#6A6A6A" stroke-width="2"/>
<path d="M166.012 12.8579C164.786 12.5156 158.659 10.8045 157.67 10.4389C157.357 12.0931 156.87 15.3417 157.418 15.1018C158.103 14.802 162.431 15.6167 163.431 15.6648C164.189 15.7013 170.962 21.1018 174.256 23.8672C175.428 23.6736 177.404 21.7878 176.858 21.2899C174.09 18.7644 167.237 13.2002 166.012 12.8579L166.012 12.8579Z" fill="white" stroke="#6A6A6A" stroke-width="2"/>
<path d="M157.907 14.8698L158.285 10.3694C158.361 9.47416 157.83 8.63735 157.003 8.28653C154.814 7.3584 152.01 6.0311 150.834 5.80182C147.501 5.15237 135.792 5.41398 133.636 7.50779C128.385 12.6093 120.97 13.7249 120.738 13.748C120.552 13.7664 121.677 16.4465 123.121 18.6545C127.559 15.6916 137.044 11.7024 138.469 12.6113C140.101 13.6523 141.952 18.7469 143.014 21.5582L148.568 20.6942C148.977 20.6305 149.357 20.4413 149.654 20.1528L152.888 17.0119L156.112 16.692C157.072 16.5968 157.827 15.8306 157.907 14.8698Z" fill="white" stroke="#6A6A6A" stroke-width="2"/>
<path d="M170.889 15.9998C170.718 16.9047 168.917 18.9993 168.37 19.152" stroke="#6A6A6A"/>
<path d="M168.889 13.9998C168.663 14.8477 167.47 16.4924 166.377 17.1595" stroke="#6A6A6A"/>
<path d="M165.984 13.0987C165.698 14.1596 164.641 15.4362 163.489 16.2751" stroke="#6A6A6A"/>
<path d="M163.156 11.9998C162.546 13.2896 161.834 14.1521 160.71 15.2278" stroke="#6A6A6A"/>
<path d="M123.5 19C124.857 24.0425 128.629 27 131.343 27C134.056 27 142.643 22.1664 144 21.446" stroke="#6A6A6A" stroke-width="2"/>
<path d="M142.371 21.1951C141.371 19.5001 139.038 16.4491 136.704 17.4661C134.371 18.4831 130.038 22.8901 128.371 25.2632" stroke="#6A6A6A" stroke-width="2"/>
<path d="M44 1H14C9.02944 1 5 5.02944 5 10V93H53V10C53 5.02944 48.9706 1 44 1Z" fill="white" stroke="#6A6A6A" stroke-width="2"/>
<rect x="-1" y="1" width="57" height="6" rx="3" transform="matrix(-1 0 0 1 57 92)" fill="white" stroke="#6A6A6A" stroke-width="2"/>
<line x1="54" y1="58.5" x2="4" y2="58.5" stroke="#6A6A6A"/>
<mask id="mask0_759_61357" style="mask-type:alpha" maskUnits="userSpaceOnUse" x="11" y="7" width="37" height="31">
<rect x="11.5176" y="7.5" width="35" height="30" rx="1.5" fill="white" stroke="#6A6A6A"/>
</mask>
<g mask="url(#mask0_759_61357)">
<circle cx="12.0176" cy="27" r="5.25" fill="white" stroke="#6A6A6A" stroke-width="1.5"/>
<circle cx="16.0176" cy="38" r="5.25" fill="white" stroke="#6A6A6A" stroke-width="1.5"/>
<circle cx="28.0176" cy="38" r="5.25" fill="white" stroke="#6A6A6A" stroke-width="1.5"/>
<circle cx="21.0176" cy="19" r="5.25" fill="white" stroke="#6A6A6A" stroke-width="1.5"/>
<circle cx="30.0352" cy="26.1748" r="5.25" fill="white" stroke="#6A6A6A" stroke-width="1.5"/>
<circle cx="39.8066" cy="35.2139" r="5.25" fill="white" stroke="#6A6A6A" stroke-width="1.5"/>
<circle cx="32.7656" cy="14.4819" r="5.25" fill="white" stroke="#6A6A6A" stroke-width="1.5"/>
<circle r="5" transform="matrix(0.964621 0.263639 -0.254075 0.967185 42.3297 23.3849)" fill="#00C895" stroke="#00C895" stroke-width="2"/>
</g>
<rect x="11.5156" y="7.5" width="35" height="30" rx="1.5" stroke="#6A6A6A"/>
<mask id="path-23-inside-1_759_61357" fill="white">
<rect width="6" height="25" rx="0.64" transform="matrix(-1 0 0 1 58 13)"/>
</mask>
<rect width="6" height="25" rx="0.64" transform="matrix(-1 0 0 1 58 13)" fill="white" stroke="#6A6A6A" stroke-width="4" mask="url(#path-23-inside-1_759_61357)"/>
<circle cx="200" cy="42" r="5.25" fill="white" stroke="#6A6A6A" stroke-width="1.5"/>
<circle cx="231" cy="53" r="5.25" fill="white" stroke="#6A6A6A" stroke-width="1.5"/>
<circle cx="187" cy="22" r="5.25" fill="white" stroke="#6A6A6A" stroke-width="1.5"/>
<circle cx="212" cy="38" r="5.25" fill="white" stroke="#6A6A6A" stroke-width="1.5"/>
<circle cx="188" cy="42" r="5.25" fill="white" stroke="#6A6A6A" stroke-width="1.5"/>
<circle cx="177" cy="34" r="5.25" fill="white" stroke="#6A6A6A" stroke-width="1.5"/>
<circle cx="194" cy="32" r="5.25" fill="white" stroke="#6A6A6A" stroke-width="1.5"/>
<path d="M210.182 28.6387C209.467 31.3061 206.724 32.8898 204.056 32.1761C201.389 31.4624 199.806 28.7215 200.522 26.054C201.238 23.3865 203.981 21.8029 206.648 22.5166C209.316 23.2303 210.898 25.9712 210.182 28.6387Z" fill="#00C895" stroke="#00C895" stroke-width="2"/>
<path d="M222 42H169V75H222V42Z" fill="white" stroke="#6A6A6A" stroke-width="1.5" stroke-linecap="round" stroke-linejoin="round"/>
<path d="M244.402 21V87H297.337C298.442 87 299.337 86.1046 299.337 85V52.8221C299.337 52.4227 299.218 52.0325 298.994 51.7016L280.148 23.8373C278.102 20.8124 274.688 19 271.036 19H246.402C245.298 19 244.402 19.8954 244.402 21Z" fill="white" stroke="#6A6A6A" stroke-width="2"/>
<path d="M163 54H244.402V87H163C161.895 87 161 86.1046 161 85V56C161 54.8954 161.895 54 163 54Z" fill="white" stroke="#6A6A6A" stroke-width="2"/>
<path d="M256.461 50.5V28C256.461 26.8954 257.356 26 258.461 26H281.582L298.993 52.5H258.461C257.356 52.5 256.461 51.6046 256.461 50.5Z" fill="white"/>
<path d="M298.993 52.5V53.5L299.829 51.9509L298.993 52.5ZM281.582 26L282.418 25.4509L282.122 25H281.582V26ZM255.461 28V50.5H257.461V28H255.461ZM258.461 53.5H298.993V51.5H258.461V53.5ZM258.461 27H281.582V25H258.461V27ZM280.746 26.5491L298.158 53.0491L299.829 51.9509L282.418 25.4509L280.746 26.5491ZM255.461 50.5C255.461 52.1569 256.804 53.5 258.461 53.5V51.5C257.909 51.5 257.461 51.0523 257.461 50.5H255.461ZM257.461 28C257.461 27.4477 257.909 27 258.461 27V25C256.804 25 255.461 26.3431 255.461 28H257.461Z" fill="#6A6A6A"/>
<path d="M300 78.5542L293.961 78.5542C292.856 78.5542 291.961 77.6588 291.961 76.5542V73.5542C291.961 72.4496 292.856 71.5542 293.961 71.5542H300" stroke="#6A6A6A" stroke-width="2"/>
<path d="M168.033 59.3013H244.401" stroke="#6A6A6A" stroke-linecap="round"/>
<circle cx="187.289" cy="89" r="10" fill="white" stroke="#6A6A6A" stroke-width="2"/>
<path d="M182.895 85.2822C180.55 87.6236 180.55 91.4198 182.895 93.7612C185.24 96.1027 189.042 96.1027 191.387 93.7612" stroke="#6A6A6A"/>
<circle cx="267.049" cy="89" r="10" fill="white" stroke="#6A6A6A" stroke-width="2"/>
<path d="M262.311 85.2822C259.966 87.6236 259.966 91.4198 262.311 93.7612C264.656 96.1027 268.458 96.1027 270.803 93.7612" stroke="#6A6A6A"/>
<path fill-rule="evenodd" clip-rule="evenodd" d="M120.176 75.5263C120.176 75.703 120.321 75.8463 120.5 75.8463L144.851 75.8463C145.03 75.8463 145.176 75.703 145.176 75.5263C145.176 75.3496 145.03 75.2063 144.851 75.2063L120.5 75.2063C120.321 75.2063 120.176 75.3496 120.176 75.5263Z" fill="#6A6A6A"/>
<path fill-rule="evenodd" clip-rule="evenodd" d="M153.133 56.32C153.133 56.4967 152.985 56.64 152.804 56.64L140.462 56.64C140.28 56.64 140.133 56.4967 140.133 56.32C140.133 56.1433 140.28 56 140.462 56L152.804 56C152.985 56 153.133 56.1433 153.133 56.32Z" fill="#6A6A6A"/>
<path fill-rule="evenodd" clip-rule="evenodd" d="M153.133 86.8805C153.133 87.0573 152.987 87.2005 152.808 87.2005L128.458 87.2005C128.278 87.2005 128.133 87.0573 128.133 86.8805C128.133 86.7038 128.278 86.5605 128.458 86.5605L152.808 86.5605C152.987 86.5605 153.133 86.7038 153.133 86.8805Z" fill="#6A6A6A"/>
<path fill-rule="evenodd" clip-rule="evenodd" d="M131.006 73.1852C131.006 73.362 131.147 73.5052 131.322 73.5052H144.69C144.864 73.5052 145.006 73.362 145.006 73.1852C145.006 73.0085 144.864 72.8652 144.69 72.8652H131.322C131.147 72.8652 131.006 73.0085 131.006 73.1852Z" fill="#6A6A6A"/>
</g>
<defs>
<clipPath id="clip0_759_61357">
<rect width="300" height="100" fill="white"/>
</clipPath>
</defs>
</svg>
