<svg width="220" height="72" viewBox="0 0 220 72" fill="none" xmlns="http://www.w3.org/2000/svg">
<g clip-path="url(#clip0_889_68261)">
<path d="M40.8646 15.0807C46.711 8.87807 58.8979 7.41878 53.7158 21.6485C48.5337 35.8782 59.1285 41.2285 66.1615 32.1075C73.1945 22.9865 72.7167 8.87827 89.8906 10.7026" stroke="#6A6A6A" stroke-width="2"/>
<path d="M121.143 8.40965C120.248 8.1599 115.777 6.9112 115.055 6.64438C114.827 7.85155 114.472 10.2221 114.872 10.0471C115.372 9.82827 118.53 10.4228 119.26 10.4579C119.812 10.4845 124.755 14.4255 127.158 16.4434C128.014 16.3021 129.456 14.926 129.058 14.5627C127.038 12.7198 122.037 8.65939 121.143 8.40965L121.143 8.40965Z" fill="white" stroke="#6A6A6A" stroke-width="2"/>
<path d="M115.263 9.42974L115.466 7.00315C115.542 6.1079 115.012 5.26836 114.187 4.91198C112.658 4.25153 110.855 3.41502 110.063 3.26064C107.631 2.78672 99.0864 2.97762 97.5137 4.50553C93.6817 8.22828 88.2707 9.04234 88.1012 9.05917C87.9655 9.07263 88.7865 11.0283 89.8404 12.6396C93.0785 10.4775 100 7.56649 101.04 8.22974C102.231 8.98936 103.582 12.707 104.357 14.7585L108.24 14.1545C108.649 14.0908 109.028 13.9016 109.325 13.6131L111.562 11.4409L113.467 11.2519C114.427 11.1567 115.182 10.3905 115.263 9.42974Z" fill="white" stroke="#6A6A6A" stroke-width="2"/>
<path d="M124.698 10.7025C124.573 11.3628 123.259 12.8913 122.86 13.0027" stroke="#6A6A6A"/>
<path d="M123.237 9.24298C123.072 9.8617 122.202 11.0619 121.404 11.5487" stroke="#6A6A6A"/>
<path d="M121.122 8.58551C120.913 9.35972 120.141 10.2913 119.301 10.9034" stroke="#6A6A6A"/>
<path d="M119.056 7.78376C118.611 8.72493 118.092 9.35434 117.272 10.1393" stroke="#6A6A6A"/>
<path d="M90.1172 12.8916C91.1071 16.5712 93.8603 18.7294 95.8402 18.7294C97.8202 18.7294 104.087 15.2022 105.077 14.6765" stroke="#6A6A6A" stroke-width="2"/>
<path d="M103.888 14.4935C103.158 13.2566 101.456 11.0302 99.7529 11.7723C98.0502 12.5145 94.8881 15.7304 93.6719 17.4621" stroke="#6A6A6A" stroke-width="2"/>
<path d="M29.3555 1H12.9148C7.94423 1 3.91479 5.02944 3.91479 10V67.5945H38.3555V10C38.3555 5.02944 34.326 1 29.3555 1Z" fill="white" stroke="#6A6A6A" stroke-width="2"/>
<rect x="-1" y="1" width="41" height="3.83783" rx="1.91892" transform="matrix(-1 0 0 1 40.999 66.1621)" fill="white" stroke="#6A6A6A" stroke-width="2"/>
<line x1="39.3555" y1="42.8242" x2="2.91479" y2="42.8242" stroke="#6A6A6A"/>
<mask id="mask0_889_68261" style="mask-type:alpha" maskUnits="userSpaceOnUse" x="8" y="5" width="27" height="23">
<rect x="8.52832" y="5.60791" width="25.2373" height="21.6216" rx="1.5" fill="white" stroke="#6A6A6A"/>
</mask>
<g mask="url(#mask0_889_68261)">
<path d="M12.3786 19.7026C12.3786 21.7074 10.7557 23.331 8.75569 23.331C6.75572 23.331 5.13281 21.7074 5.13281 19.7026C5.13281 17.6978 6.75572 16.0742 8.75569 16.0742C10.7557 16.0742 12.3786 17.6978 12.3786 19.7026Z" fill="white" stroke="#6A6A6A" stroke-width="1.5"/>
<path d="M15.2975 27.7294C15.2975 29.7342 13.6746 31.3578 11.6746 31.3578C9.67466 31.3578 8.05176 29.7342 8.05176 27.7294C8.05176 25.7247 9.67466 24.1011 11.6746 24.1011C13.6746 24.1011 15.2975 25.7247 15.2975 27.7294Z" fill="white" stroke="#6A6A6A" stroke-width="1.5"/>
<path d="M24.0436 27.7294C24.0436 29.7342 22.4207 31.3578 20.4207 31.3578C18.4208 31.3578 16.7979 29.7342 16.7979 27.7294C16.7979 25.7247 18.4208 24.1011 20.4207 24.1011C22.4207 24.1011 24.0436 25.7247 24.0436 27.7294Z" fill="white" stroke="#6A6A6A" stroke-width="1.5"/>
<path d="M18.9372 13.8647C18.9372 15.8695 17.3143 17.4931 15.3143 17.4931C13.3143 17.4931 11.6914 15.8695 11.6914 13.8647C11.6914 11.8599 13.3143 10.2363 15.3143 10.2363C17.3143 10.2363 18.9372 11.8599 18.9372 13.8647Z" fill="white" stroke="#6A6A6A" stroke-width="1.5"/>
<path d="M25.5143 19.1005C25.5143 21.1053 23.8914 22.7289 21.8914 22.7289C19.8915 22.7289 18.2686 21.1053 18.2686 19.1005C18.2686 17.0958 19.8915 15.4722 21.8914 15.4722C23.8914 15.4722 25.5143 17.0958 25.5143 19.1005Z" fill="white" stroke="#6A6A6A" stroke-width="1.5"/>
<path d="M32.6354 25.6962C32.6354 27.701 31.0125 29.3246 29.0125 29.3246C27.0126 29.3246 25.3896 27.701 25.3896 25.6962C25.3896 23.6915 27.0126 22.0679 29.0125 22.0679C31.0125 22.0679 32.6354 23.6915 32.6354 25.6962Z" fill="white" stroke="#6A6A6A" stroke-width="1.5"/>
<path d="M27.5026 10.5678C27.5026 12.5726 25.8797 14.1962 23.8797 14.1962C21.8797 14.1962 20.2568 12.5726 20.2568 10.5678C20.2568 8.56304 21.8797 6.93945 23.8797 6.93945C25.8797 6.93945 27.5026 8.56304 27.5026 10.5678Z" fill="white" stroke="#6A6A6A" stroke-width="1.5"/>
<path d="M34.103 17.9549C33.6292 19.7604 31.788 20.8234 29.9921 20.332C28.1961 19.8405 27.122 17.9797 27.5957 16.1742C28.0694 14.3686 29.9106 13.3056 31.7066 13.7971C33.5025 14.2886 34.5767 16.1494 34.103 17.9549Z" fill="#00C895" stroke="#00C895" stroke-width="2"/>
</g>
<rect x="8.52832" y="5.60791" width="25.2373" height="21.6216" rx="1.5" stroke="#6A6A6A"/>
<mask id="path-23-inside-1_889_68261" fill="white">
<rect width="4.37288" height="18.2432" rx="0.64" transform="matrix(-1 0 0 1 42.2686 9.48657)"/>
</mask>
<rect width="4.37288" height="18.2432" rx="0.64" transform="matrix(-1 0 0 1 42.2686 9.48657)" fill="white" stroke="#6A6A6A" stroke-width="3" mask="url(#path-23-inside-1_889_68261)"/>
<path d="M149.272 29.8808C149.272 31.8656 147.644 33.488 145.619 33.488C143.594 33.488 141.966 31.8656 141.966 29.8808C141.966 27.896 143.594 26.2737 145.619 26.2737C147.644 26.2737 149.272 27.896 149.272 29.8808Z" fill="white" stroke="#6A6A6A" stroke-width="1.5"/>
<path d="M172.022 37.8691C172.022 39.8539 170.394 41.4762 168.369 41.4762C166.344 41.4762 164.716 39.8539 164.716 37.8691C164.716 35.8843 166.344 34.262 168.369 34.262C170.394 34.262 172.022 35.8843 172.022 37.8691Z" fill="white" stroke="#6A6A6A" stroke-width="1.5"/>
<path d="M139.734 15.3571C139.734 17.3419 138.106 18.9643 136.082 18.9643C134.057 18.9643 132.429 17.3419 132.429 15.3571C132.429 13.3723 134.057 11.75 136.082 11.75C138.106 11.75 139.734 13.3723 139.734 15.3571Z" fill="white" stroke="#6A6A6A" stroke-width="1.5"/>
<path d="M158.077 26.9763C158.077 28.9611 156.449 30.5834 154.424 30.5834C152.4 30.5834 150.771 28.9611 150.771 26.9763C150.771 24.9915 152.4 23.3691 154.424 23.3691C156.449 23.3691 158.077 24.9915 158.077 26.9763Z" fill="white" stroke="#6A6A6A" stroke-width="1.5"/>
<path d="M140.466 29.8808C140.466 31.8656 138.838 33.488 136.813 33.488C134.788 33.488 133.16 31.8656 133.16 29.8808C133.16 27.896 134.788 26.2737 136.813 26.2737C138.838 26.2737 140.466 27.896 140.466 29.8808Z" fill="white" stroke="#6A6A6A" stroke-width="1.5"/>
<path d="M132.396 24.0715C132.396 26.0563 130.768 27.6786 128.743 27.6786C126.718 27.6786 125.09 26.0563 125.09 24.0715C125.09 22.0867 126.718 20.4644 128.743 20.4644C130.768 20.4644 132.396 22.0867 132.396 24.0715Z" fill="white" stroke="#6A6A6A" stroke-width="1.5"/>
<path d="M144.868 22.6191C144.868 24.6039 143.24 26.2262 141.215 26.2262C139.191 26.2262 137.562 24.6039 137.562 22.6191C137.562 20.6343 139.191 19.012 141.215 19.012C143.24 19.012 144.868 20.6343 144.868 22.6191Z" fill="white" stroke="#6A6A6A" stroke-width="1.5"/>
<path d="M152.835 20.1098C152.352 21.893 150.492 22.9659 148.669 22.4831C146.846 22.0004 145.778 20.1526 146.262 18.3694C146.746 16.5862 148.605 15.5133 150.428 15.9961C152.251 16.4789 153.319 18.3266 152.835 20.1098Z" fill="#00C895" stroke="#00C895" stroke-width="2"/>
<path d="M161.763 29.8809H122.871V53.8451H161.763V29.8809Z" fill="white" stroke="#6A6A6A" stroke-width="1.5" stroke-linecap="round" stroke-linejoin="round"/>
<path d="M178.202 15.1787V62.5596H216.514C217.619 62.5596 218.514 61.6642 218.514 60.5596V37.9131C218.514 37.5104 218.392 37.1171 218.165 36.7846L205.308 17.9719C203.258 14.9725 199.859 13.1787 196.226 13.1787H180.202C179.098 13.1787 178.202 14.0741 178.202 15.1787Z" fill="white" stroke="#6A6A6A" stroke-width="2"/>
<path d="M119 38.5952H178.201V62.5595H119C117.895 62.5595 117 61.664 117 60.5595V40.5952C117 39.4906 117.895 38.5952 119 38.5952Z" fill="white" stroke="#6A6A6A" stroke-width="2"/>
<path d="M187.05 35.5062V20.2622C187.05 19.1576 187.945 18.2622 189.05 18.2622H205.484L218.261 37.5062H189.05C187.945 37.5062 187.05 36.6108 187.05 35.5062Z" fill="white"/>
<path d="M218.261 37.5062V38.5062L219.094 36.9531L218.261 37.5062ZM205.484 18.2622L206.317 17.7091L206.02 17.2622H205.484V18.2622ZM186.05 20.2622V35.5062H188.05V20.2622H186.05ZM189.05 38.5062H218.261V36.5062H189.05V38.5062ZM189.05 19.2622H205.484V17.2622H189.05V19.2622ZM204.651 18.8153L217.428 38.0593L219.094 36.9531L206.317 17.7091L204.651 18.8153ZM186.05 35.5062C186.05 37.1631 187.393 38.5062 189.05 38.5062V36.5062C188.498 36.5062 188.05 36.0585 188.05 35.5062H186.05ZM188.05 20.2622C188.05 19.7099 188.498 19.2622 189.05 19.2622V17.2622C187.393 17.2622 186.05 18.6054 186.05 20.2622H188.05Z" fill="#6A6A6A"/>
<path d="M219 56.4266L215.102 56.4266C213.997 56.4266 213.102 55.5312 213.102 54.4266V53.3433C213.102 52.2387 213.997 51.3433 215.102 51.3433H219" stroke="#6A6A6A" stroke-width="2"/>
<path d="M122.161 42.4451H178.201" stroke="#6A6A6A" stroke-linecap="round"/>
<path d="M143.366 64.012C143.366 67.8616 140.209 71.0001 136.294 71.0001C132.378 71.0001 129.222 67.8616 129.222 64.012C129.222 60.1624 132.378 57.0239 136.294 57.0239C140.209 57.0239 143.366 60.1624 143.366 64.012Z" fill="white" stroke="#6A6A6A" stroke-width="2"/>
<path d="M133.068 61.3121C131.347 63.0124 131.347 65.7692 133.068 67.4695C134.788 69.1698 137.578 69.1698 139.299 67.4695" stroke="#6A6A6A"/>
<path d="M201.894 64.012C201.894 67.8616 198.738 71.0001 194.822 71.0001C190.906 71.0001 187.75 67.8616 187.75 64.012C187.75 60.1624 190.906 57.0239 194.822 57.0239C198.738 57.0239 201.894 60.1624 201.894 64.012Z" fill="white" stroke="#6A6A6A" stroke-width="2"/>
<path d="M191.344 61.3121C189.623 63.0124 189.623 65.7692 191.344 67.4695C193.065 69.1698 195.854 69.1698 197.575 67.4695" stroke="#6A6A6A"/>
<path fill-rule="evenodd" clip-rule="evenodd" d="M88.6953 53.6602C88.6953 53.7848 88.8012 53.8858 88.9318 53.8858L106.665 53.8858C106.796 53.8858 106.902 53.7848 106.902 53.6602C106.902 53.5356 106.796 53.4346 106.665 53.4346L88.9318 53.4346C88.8012 53.4346 88.6953 53.5356 88.6953 53.6602Z" fill="#6A6A6A"/>
<path fill-rule="evenodd" clip-rule="evenodd" d="M112.695 40.1175C112.695 40.2421 112.588 40.3431 112.456 40.3431L103.468 40.3431C103.335 40.3431 103.228 40.2421 103.228 40.1175C103.228 39.9929 103.335 39.8918 103.468 39.8918L112.456 39.8918C112.588 39.8918 112.695 39.9929 112.695 40.1175Z" fill="#6A6A6A"/>
<path fill-rule="evenodd" clip-rule="evenodd" d="M112.695 61.6663C112.695 61.7909 112.589 61.8919 112.459 61.8919L94.7252 61.8919C94.5946 61.8919 94.4888 61.7909 94.4888 61.6663C94.4888 61.5417 94.5946 61.4407 94.7252 61.4407L112.459 61.4407C112.589 61.4407 112.695 61.5417 112.695 61.6663Z" fill="#6A6A6A"/>
<path fill-rule="evenodd" clip-rule="evenodd" d="M96.583 52.0096C96.583 52.1342 96.686 52.2352 96.813 52.2352H106.549C106.676 52.2352 106.779 52.1342 106.779 52.0096C106.779 51.885 106.676 51.7839 106.549 51.7839H96.813C96.686 51.7839 96.583 51.885 96.583 52.0096Z" fill="#6A6A6A"/>
</g>
<defs>
<clipPath id="clip0_889_68261">
<rect width="220.001" height="72.0001" fill="white" transform="translate(-0.000976562)"/>
</clipPath>
</defs>
</svg>
