<?xml version="1.0" encoding="utf-8"?>
<!--
  Copyright 2023-2025 Solace Systems. All rights reserved.

  Licensed under the Apache License, Version 2.0 (the "License");
  you may not use this file except in compliance with the License.
  You may obtain a copy of the License at

      http://www.apache.org/licenses/LICENSE-2.0

  Unless required by applicable law or agreed to in writing, software
  distributed under the License is distributed on an "AS IS" BASIS,
  WITHOUT WARRANTIES OR CONDITIONS OF ANY KIND, either express or implied.
  See the License for the specific language governing permissions and
  limitations under the License.
-->
<svg width="130" height="130" viewBox="0 0 130 130" fill="none" xmlns="http://www.w3.org/2000/svg">
<g clip-path="url(#clip0_832_62710)">
<line x1="0.5" y1="129.5" x2="129.5" y2="129.5" stroke="#6A6A6A" stroke-linecap="round"/>
<rect x="25" y="1" width="80" height="91" rx="1" fill="white" stroke="#6A6A6A" stroke-width="2"/>
<rect x="22" y="1" width="86" height="10" rx="1" fill="white" stroke="#6A6A6A" stroke-width="2"/>
<rect x="34" y="20" width="62" height="40" rx="1" fill="white" stroke="#6A6A6A" stroke-width="2"/>
<rect x="22" y="78" width="86" height="51" rx="1" fill="white" stroke="#6A6A6A" stroke-width="2"/>
<rect x="22" y="78" width="86" height="6" rx="1" fill="white" stroke="#6A6A6A" stroke-width="2"/>
<rect x="76.75" y="91.75" width="19.5" height="17.5" rx="1.25" fill="white" stroke="#6A6A6A" stroke-width="1.5"/>
<line x1="81.75" y1="95.75" x2="81.75" y2="105.25" stroke="#6A6A6A" stroke-width="1.5" stroke-linecap="round"/>
<mask id="path-9-inside-1_832_62710" fill="white">
<rect x="65" y="74" width="8" height="5" rx="0.64"/>
</mask>
<rect x="65" y="74" width="8" height="5" rx="0.64" fill="white" stroke="#6A6A6A" stroke-width="3" stroke-linejoin="round" mask="url(#path-9-inside-1_832_62710)"/>
<mask id="path-10-inside-2_832_62710" fill="white">
<rect x="33" y="74" width="8" height="5" rx="0.64"/>
</mask>
<rect x="33" y="74" width="8" height="5" rx="0.64" fill="white" stroke="#6A6A6A" stroke-width="3" stroke-linejoin="round" mask="url(#path-10-inside-2_832_62710)"/>
<mask id="path-11-inside-3_832_62710" fill="white">
<rect x="89" y="74" width="8" height="5" rx="0.64"/>
</mask>
<rect x="89" y="74" width="8" height="5" rx="0.64" fill="white" stroke="#6A6A6A" stroke-width="3" stroke-linejoin="round" mask="url(#path-11-inside-3_832_62710)"/>
<mask id="path-12-inside-4_832_62710" fill="white">
<rect x="77" y="74" width="8" height="5" rx="0.64"/>
</mask>
<rect x="77" y="74" width="8" height="5" rx="0.64" fill="white" stroke="#6A6A6A" stroke-width="3" stroke-linejoin="round" mask="url(#path-12-inside-4_832_62710)"/>
<rect x="52.5" y="71" width="1.5" height="8" fill="#6A6A6A"/>
<circle cx="53.25" cy="69.25" r="4.25" fill="#00C895"/>
<path d="M44.9381 44.11C44.4174 44.11 43.9737 44.033 43.6071 43.879C43.2404 43.725 42.9397 43.5123 42.7051 43.241C42.4704 42.9697 42.2944 42.658 42.1771 42.306C42.0597 41.9467 41.9901 41.5653 41.9681 41.162C41.9607 40.964 41.9534 40.7477 41.9461 40.513C41.9461 40.271 41.9461 40.029 41.9461 39.787C41.9534 39.545 41.9607 39.3213 41.9681 39.116C41.9827 38.7127 42.0524 38.335 42.1771 37.983C42.3017 37.6237 42.4814 37.312 42.7161 37.048C42.9581 36.784 43.2624 36.575 43.6291 36.421C43.9957 36.267 44.4321 36.19 44.9381 36.19C45.4514 36.19 45.8914 36.267 46.2581 36.421C46.6247 36.575 46.9254 36.784 47.1601 37.048C47.4021 37.312 47.5817 37.6237 47.6991 37.983C47.8237 38.335 47.8934 38.7127 47.9081 39.116C47.9227 39.3213 47.9301 39.545 47.9301 39.787C47.9301 40.029 47.9301 40.271 47.9301 40.513C47.9301 40.7477 47.9227 40.964 47.9081 41.162C47.8934 41.5653 47.8274 41.9467 47.7101 42.306C47.5927 42.658 47.4167 42.9697 47.1821 43.241C46.9474 43.5123 46.6431 43.725 46.2691 43.879C45.9024 44.033 45.4587 44.11 44.9381 44.11ZM44.9381 42.845C45.4147 42.845 45.7631 42.691 45.9831 42.383C46.2104 42.0677 46.3277 41.6423 46.3351 41.107C46.3497 40.8943 46.3571 40.6817 46.3571 40.469C46.3571 40.249 46.3571 40.029 46.3571 39.809C46.3571 39.589 46.3497 39.38 46.3351 39.182C46.3277 38.6613 46.2104 38.2433 45.9831 37.928C45.7631 37.6053 45.4147 37.444 44.9381 37.444C44.4687 37.444 44.1204 37.6053 43.8931 37.928C43.6731 38.2433 43.5557 38.6613 43.5411 39.182C43.5411 39.38 43.5374 39.589 43.5301 39.809C43.5301 40.029 43.5301 40.249 43.5301 40.469C43.5374 40.6817 43.5411 40.8943 43.5411 41.107C43.5557 41.6423 43.6767 42.0677 43.9041 42.383C44.1314 42.691 44.4761 42.845 44.9381 42.845ZM54.9012 44.11C54.2192 44.11 53.6399 43.9927 53.1632 43.758C52.6939 43.516 52.3346 43.175 52.0852 42.735C51.8359 42.2877 51.6966 41.7523 51.6672 41.129C51.6599 40.8283 51.6562 40.5057 51.6562 40.161C51.6562 39.8163 51.6599 39.4863 51.6672 39.171C51.6966 38.555 51.8359 38.0233 52.0852 37.576C52.3419 37.1287 52.7049 36.7877 53.1742 36.553C53.6509 36.311 54.2266 36.19 54.9012 36.19C55.3999 36.19 55.8472 36.256 56.2432 36.388C56.6392 36.52 56.9766 36.7033 57.2552 36.938C57.5339 37.1653 57.7502 37.433 57.9042 37.741C58.0582 38.049 58.1389 38.3827 58.1462 38.742C58.1536 38.808 58.1316 38.863 58.0802 38.907C58.0362 38.951 57.9812 38.973 57.9152 38.973H56.8702C56.7896 38.973 56.7236 38.9547 56.6722 38.918C56.6209 38.874 56.5842 38.8043 56.5622 38.709C56.4449 38.225 56.2432 37.895 55.9572 37.719C55.6712 37.543 55.3156 37.455 54.8902 37.455C54.3989 37.455 54.0066 37.5943 53.7132 37.873C53.4199 38.1443 53.2622 38.5953 53.2402 39.226C53.2182 39.8273 53.2182 40.4433 53.2402 41.074C53.2622 41.7047 53.4199 42.1593 53.7132 42.438C54.0066 42.7093 54.3989 42.845 54.8902 42.845C55.3156 42.845 55.6712 42.757 55.9572 42.581C56.2506 42.3977 56.4522 42.0677 56.5622 41.591C56.5842 41.4883 56.6209 41.4187 56.6722 41.382C56.7236 41.3453 56.7896 41.327 56.8702 41.327H57.9152C57.9812 41.327 58.0362 41.349 58.0802 41.393C58.1316 41.437 58.1536 41.492 58.1462 41.558C58.1389 41.9173 58.0582 42.251 57.9042 42.559C57.7502 42.867 57.5339 43.1383 57.2552 43.373C56.9766 43.6003 56.6392 43.78 56.2432 43.912C55.8472 44.044 55.3999 44.11 54.9012 44.11ZM59.5828 44C59.5094 44 59.4471 43.9743 59.3958 43.923C59.3444 43.8717 59.3188 43.8093 59.3188 43.736V38.555C59.3188 38.4743 59.3444 38.4083 59.3958 38.357C59.4471 38.3057 59.5094 38.28 59.5828 38.28H60.4738C60.5471 38.28 60.6094 38.3057 60.6608 38.357C60.7194 38.4083 60.7488 38.4743 60.7488 38.555V39.006C60.9174 38.7713 61.1338 38.5917 61.3978 38.467C61.6691 38.3423 61.9808 38.28 62.3328 38.28H62.7838C62.8644 38.28 62.9268 38.3057 62.9708 38.357C63.0221 38.4083 63.0478 38.4707 63.0478 38.544V39.336C63.0478 39.4093 63.0221 39.4717 62.9708 39.523C62.9268 39.5743 62.8644 39.6 62.7838 39.6H61.9258C61.5738 39.6 61.2988 39.699 61.1008 39.897C60.9101 40.0877 60.8148 40.359 60.8148 40.711V43.736C60.8148 43.8093 60.7891 43.8717 60.7378 43.923C60.6864 43.9743 60.6204 44 60.5398 44H59.5828ZM66.2945 44.11C65.4805 44.11 64.8352 43.8753 64.3585 43.406C63.8818 42.9367 63.6252 42.2693 63.5885 41.404C63.5812 41.3307 63.5775 41.239 63.5775 41.129C63.5775 41.0117 63.5812 40.92 63.5885 40.854C63.6178 40.2967 63.7425 39.82 63.9625 39.424C64.1898 39.0207 64.5015 38.7127 64.8975 38.5C65.2935 38.28 65.7592 38.17 66.2945 38.17C66.8885 38.17 67.3872 38.2947 67.7905 38.544C68.1938 38.786 68.4982 39.127 68.7035 39.567C68.9088 39.9997 69.0115 40.502 69.0115 41.074V41.305C69.0115 41.3783 68.9858 41.4407 68.9345 41.492C68.8832 41.5433 68.8172 41.569 68.7365 41.569H65.0845C65.0845 41.569 65.0845 41.58 65.0845 41.602C65.0845 41.624 65.0845 41.6423 65.0845 41.657C65.0918 41.9137 65.1395 42.152 65.2275 42.372C65.3228 42.5847 65.4585 42.757 65.6345 42.889C65.8178 43.021 66.0342 43.087 66.2835 43.087C66.4888 43.087 66.6612 43.0577 66.8005 42.999C66.9398 42.933 67.0535 42.8597 67.1415 42.779C67.2295 42.6983 67.2918 42.6323 67.3285 42.581C67.3945 42.493 67.4458 42.4417 67.4825 42.427C67.5265 42.405 67.5888 42.394 67.6695 42.394H68.6155C68.6888 42.394 68.7475 42.416 68.7915 42.46C68.8428 42.504 68.8648 42.559 68.8575 42.625C68.8502 42.7423 68.7878 42.8853 68.6705 43.054C68.5605 43.2227 68.3992 43.3877 68.1865 43.549C67.9738 43.7103 67.7062 43.846 67.3835 43.956C67.0682 44.0587 66.7052 44.11 66.2945 44.11ZM65.0845 40.645H67.5155V40.612C67.5155 40.326 67.4678 40.0767 67.3725 39.864C67.2772 39.644 67.1378 39.4753 66.9545 39.358C66.7712 39.2333 66.5512 39.171 66.2945 39.171C66.0378 39.171 65.8178 39.2333 65.6345 39.358C65.4512 39.4753 65.3118 39.644 65.2165 39.864C65.1285 40.0767 65.0845 40.326 65.0845 40.612V40.645ZM72.3021 44.11C71.9208 44.11 71.5835 44.0477 71.2901 43.923C71.0041 43.791 70.7658 43.6077 70.5751 43.373C70.3845 43.1383 70.2378 42.8633 70.1351 42.548C70.0325 42.2253 69.9738 41.8733 69.9591 41.492C69.9518 41.36 69.9481 41.2427 69.9481 41.14C69.9481 41.03 69.9518 40.909 69.9591 40.777C69.9738 40.4103 70.0288 40.0693 70.1241 39.754C70.2268 39.4387 70.3735 39.1637 70.5641 38.929C70.7621 38.687 71.0041 38.5 71.2901 38.368C71.5835 38.236 71.9208 38.17 72.3021 38.17C72.6981 38.17 73.0318 38.2397 73.3031 38.379C73.5818 38.511 73.8128 38.6833 73.9961 38.896V36.454C73.9961 36.3807 74.0181 36.3183 74.0621 36.267C74.1135 36.2157 74.1795 36.19 74.2601 36.19H75.1951C75.2685 36.19 75.3308 36.2157 75.3821 36.267C75.4335 36.3183 75.4591 36.3807 75.4591 36.454V43.736C75.4591 43.8093 75.4335 43.8717 75.3821 43.923C75.3308 43.9743 75.2685 44 75.1951 44H74.3261C74.2455 44 74.1795 43.9743 74.1281 43.923C74.0841 43.8717 74.0621 43.8093 74.0621 43.736V43.329C73.8788 43.5563 73.6441 43.7433 73.3581 43.89C73.0795 44.0367 72.7275 44.11 72.3021 44.11ZM72.7091 42.933C73.0171 42.933 73.2628 42.8633 73.4461 42.724C73.6295 42.5847 73.7651 42.4087 73.8531 42.196C73.9411 41.976 73.9888 41.7523 73.9961 41.525C74.0035 41.393 74.0071 41.2537 74.0071 41.107C74.0071 40.953 74.0035 40.81 73.9961 40.678C73.9888 40.458 73.9375 40.249 73.8421 40.051C73.7468 39.8457 73.6075 39.677 73.4241 39.545C73.2408 39.413 73.0025 39.347 72.7091 39.347C72.4011 39.347 72.1555 39.4167 71.9721 39.556C71.7961 39.688 71.6678 39.864 71.5871 40.084C71.5065 40.304 71.4588 40.546 71.4441 40.81C71.4368 41.03 71.4368 41.25 71.4441 41.47C71.4588 41.734 71.5065 41.976 71.5871 42.196C71.6678 42.416 71.7961 42.5957 71.9721 42.735C72.1555 42.867 72.4011 42.933 72.7091 42.933ZM77.1892 44C77.1159 44 77.0536 43.9743 77.0022 43.923C76.9509 43.8717 76.9252 43.8093 76.9252 43.736V38.544C76.9252 38.4707 76.9509 38.4083 77.0022 38.357C77.0536 38.3057 77.1159 38.28 77.1892 38.28H78.1022C78.1829 38.28 78.2452 38.3057 78.2892 38.357C78.3406 38.4083 78.3662 38.4707 78.3662 38.544V43.736C78.3662 43.8093 78.3406 43.8717 78.2892 43.923C78.2452 43.9743 78.1829 44 78.1022 44H77.1892ZM77.1452 37.334C77.0719 37.334 77.0096 37.3083 76.9582 37.257C76.9069 37.2057 76.8812 37.1433 76.8812 37.07V36.278C76.8812 36.2047 76.9069 36.1423 76.9582 36.091C77.0096 36.0397 77.0719 36.014 77.1452 36.014H78.1462C78.2269 36.014 78.2929 36.0397 78.3442 36.091C78.3956 36.1423 78.4212 36.2047 78.4212 36.278V37.07C78.4212 37.1433 78.3956 37.2057 78.3442 37.257C78.2929 37.3083 78.2269 37.334 78.1462 37.334H77.1452ZM82.4106 44C81.9706 44 81.6003 43.923 81.2996 43.769C80.9989 43.615 80.7753 43.3877 80.6286 43.087C80.4819 42.779 80.4086 42.3977 80.4086 41.943V39.446H79.5396C79.4663 39.446 79.4039 39.4203 79.3526 39.369C79.3013 39.3177 79.2756 39.2517 79.2756 39.171V38.544C79.2756 38.4707 79.3013 38.4083 79.3526 38.357C79.4039 38.3057 79.4663 38.28 79.5396 38.28H80.4086V36.454C80.4086 36.3807 80.4306 36.3183 80.4746 36.267C80.5259 36.2157 80.5919 36.19 80.6726 36.19H81.5636C81.6369 36.19 81.6993 36.2157 81.7506 36.267C81.8019 36.3183 81.8276 36.3807 81.8276 36.454V38.28H83.2026C83.2759 38.28 83.3383 38.3057 83.3896 38.357C83.4409 38.4083 83.4666 38.4707 83.4666 38.544V39.171C83.4666 39.2517 83.4409 39.3177 83.3896 39.369C83.3383 39.4203 83.2759 39.446 83.2026 39.446H81.8276V41.833C81.8276 42.1337 81.8789 42.3683 81.9816 42.537C82.0916 42.7057 82.2786 42.79 82.5426 42.79H83.3016C83.3749 42.79 83.4373 42.8157 83.4886 42.867C83.5399 42.9183 83.5656 42.9807 83.5656 43.054V43.736C83.5656 43.8093 83.5399 43.8717 83.4886 43.923C83.4373 43.9743 83.3749 44 83.3016 44H82.4106ZM86.7084 44.11C86.2684 44.11 85.8908 44.0587 85.5754 43.956C85.2674 43.8533 85.0144 43.725 84.8164 43.571C84.6184 43.417 84.4718 43.263 84.3764 43.109C84.2811 42.955 84.2298 42.8267 84.2224 42.724C84.2151 42.6433 84.2371 42.581 84.2884 42.537C84.3471 42.4857 84.4094 42.46 84.4754 42.46H85.3444C85.3738 42.46 85.3994 42.4637 85.4214 42.471C85.4434 42.4783 85.4728 42.5003 85.5094 42.537C85.6048 42.6177 85.7038 42.702 85.8064 42.79C85.9164 42.878 86.0448 42.955 86.1914 43.021C86.3381 43.0797 86.5214 43.109 86.7414 43.109C87.0274 43.109 87.2658 43.054 87.4564 42.944C87.6544 42.8267 87.7534 42.6617 87.7534 42.449C87.7534 42.295 87.7094 42.1703 87.6214 42.075C87.5408 41.9797 87.3868 41.8953 87.1594 41.822C86.9321 41.7413 86.6094 41.657 86.1914 41.569C85.7808 41.4737 85.4398 41.3527 85.1684 41.206C84.8971 41.0593 84.6954 40.876 84.5634 40.656C84.4314 40.436 84.3654 40.1793 84.3654 39.886C84.3654 39.6 84.4498 39.3287 84.6184 39.072C84.7944 38.808 85.0511 38.5917 85.3884 38.423C85.7331 38.2543 86.1584 38.17 86.6644 38.17C87.0604 38.17 87.4051 38.2213 87.6984 38.324C87.9918 38.4193 88.2338 38.5403 88.4244 38.687C88.6224 38.8337 88.7728 38.984 88.8754 39.138C88.9781 39.2847 89.0331 39.413 89.0404 39.523C89.0478 39.6037 89.0258 39.6697 88.9744 39.721C88.9231 39.765 88.8644 39.787 88.7984 39.787H87.9844C87.9478 39.787 87.9148 39.7797 87.8854 39.765C87.8561 39.7503 87.8268 39.732 87.7974 39.71C87.7168 39.6367 87.6288 39.5597 87.5334 39.479C87.4381 39.391 87.3208 39.3177 87.1814 39.259C87.0494 39.2003 86.8734 39.171 86.6534 39.171C86.3748 39.171 86.1621 39.2333 86.0154 39.358C85.8688 39.4753 85.7954 39.6257 85.7954 39.809C85.7954 39.9337 85.8284 40.0437 85.8944 40.139C85.9678 40.227 86.1108 40.3113 86.3234 40.392C86.5361 40.4727 86.8588 40.557 87.2914 40.645C87.7828 40.733 88.1714 40.865 88.4574 41.041C88.7508 41.2097 88.9561 41.4077 89.0734 41.635C89.1981 41.855 89.2604 42.1007 89.2604 42.372C89.2604 42.702 89.1614 42.999 88.9634 43.263C88.7728 43.527 88.4868 43.736 88.1054 43.89C87.7314 44.0367 87.2658 44.11 86.7084 44.11Z" fill="#6A6A6A"/>
<path d="M27 120H36" stroke="#6A6A6A" stroke-linecap="round"/>
<path d="M27 124H42" stroke="#6A6A6A" stroke-linecap="round"/>
</g>
<defs>
<clipPath id="clip0_832_62710">
<rect width="130" height="130" fill="white"/>
</clipPath>
</defs>
</svg>