<?xml version="1.0" encoding="utf-8"?>
<!--
  Copyright 2023-2025 Solace Systems. All rights reserved.

  Licensed under the Apache License, Version 2.0 (the "License");
  you may not use this file except in compliance with the License.
  You may obtain a copy of the License at

      http://www.apache.org/licenses/LICENSE-2.0

  Unless required by applicable law or agreed to in writing, software
  distributed under the License is distributed on an "AS IS" BASIS,
  WITHOUT WARRANTIES OR CONDITIONS OF ANY KIND, either express or implied.
  See the License for the specific language governing permissions and
  limitations under the License.
-->
<svg width="136" height="136" viewBox="0 0 136 136" fill="none" xmlns="http://www.w3.org/2000/svg">
<path d="M118.336 68C118.336 95.6142 95.9507 118 68.3364 118C40.7222 118 18.3364 95.6142 18.3364 68C18.3364 40.3858 40.7222 18 68.3364 18C95.9507 18 118.336 40.3858 118.336 68Z" fill="#009193" fill-opacity="0.1"/>
<path d="M63.3265 28.1517C63.5171 27.4404 64.2482 27.0183 64.9595 27.2089L77.8385 30.6598C78.5498 30.8504 78.9719 31.5815 78.7814 32.2928L75.7919 43.4494C75.6014 44.1607 74.8702 44.5828 74.1589 44.3922L61.2799 40.9413C60.5686 40.7507 60.1465 40.0196 60.3371 39.3083L63.3265 28.1517Z" fill="white"/>
<path fill-rule="evenodd" clip-rule="evenodd" d="M65.0858 29.3133L62.4415 39.182L74.0326 42.2878L76.677 32.4191L65.0858 29.3133ZM64.9595 27.2089C64.2482 27.0183 63.5171 27.4404 63.3265 28.1517L60.3371 39.3083C60.1465 40.0196 60.5686 40.7507 61.2799 40.9413L74.1589 44.3922C74.8702 44.5828 75.6014 44.1607 75.7919 43.4494L78.7814 32.2928C78.9719 31.5815 78.5498 30.8504 77.8385 30.6598L64.9595 27.2089Z" fill="#6A6A6A"/>
<path d="M39.1967 34.5604C39.0061 33.8491 39.4282 33.118 40.1395 32.9274L53.0185 29.4764C53.7298 29.2859 54.4609 29.708 54.6515 30.4193L57.6409 41.5759C57.8315 42.2872 57.4094 43.0183 56.6981 43.2089L43.8191 46.6598C43.1078 46.8504 42.3767 46.4283 42.1861 45.717L39.1967 34.5604Z" fill="white"/>
<path fill-rule="evenodd" clip-rule="evenodd" d="M41.3011 34.6867L43.9454 44.5554L55.5365 41.4496L52.8922 31.5808L41.3011 34.6867ZM40.1395 32.9274C39.4282 33.118 39.0061 33.8491 39.1967 34.5604L42.1861 45.717C42.3767 46.4283 43.1078 46.8504 43.8191 46.6598L56.6981 43.2089C57.4094 43.0183 57.8315 42.2872 57.6409 41.5759L54.6515 30.4193C54.4609 29.708 53.7298 29.2859 53.0185 29.4764L40.1395 32.9274Z" fill="#6A6A6A"/>
<path d="M99.5894 38.0681C99.5894 42.4864 96.0076 46.0681 91.5894 46.0681C87.1711 46.0681 83.5894 42.4864 83.5894 38.0681C83.5894 33.6498 87.1711 30.0681 91.5894 30.0681C96.0076 30.0681 99.5894 33.6498 99.5894 38.0681Z" fill="white"/>
<path fill-rule="evenodd" clip-rule="evenodd" d="M91.5894 44.0681C94.9031 44.0681 97.5894 41.3818 97.5894 38.0681C97.5894 34.7544 94.9031 32.0681 91.5894 32.0681C88.2756 32.0681 85.5894 34.7544 85.5894 38.0681C85.5894 41.3818 88.2756 44.0681 91.5894 44.0681ZM91.5894 46.0681C96.0076 46.0681 99.5894 42.4864 99.5894 38.0681C99.5894 33.6498 96.0076 30.0681 91.5894 30.0681C87.1711 30.0681 83.5894 33.6498 83.5894 38.0681C83.5894 42.4864 87.1711 46.0681 91.5894 46.0681Z" fill="#6A6A6A"/>
<path d="M34.9594 40.2928C35.1499 39.5815 35.8811 39.1594 36.5923 39.35L49.4714 42.8009C50.1826 42.9915 50.6048 43.7226 50.4142 44.4339L47.4248 55.5905C47.2342 56.3018 46.503 56.7239 45.7918 56.5333L32.9127 53.0824C32.2015 52.8918 31.7794 52.1607 31.9699 51.4494L34.9594 40.2928Z" fill="white"/>
<path fill-rule="evenodd" clip-rule="evenodd" d="M36.7187 41.4544L34.0743 51.3231L45.6654 54.4289L48.3098 44.5602L36.7187 41.4544ZM36.5923 39.35C35.8811 39.1594 35.1499 39.5815 34.9594 40.2928L31.9699 51.4494C31.7794 52.1607 32.2015 52.8918 32.9127 53.0824L45.7918 56.5333C46.503 56.7239 47.2342 56.3018 47.4248 55.5905L50.4142 44.4339C50.6048 43.7226 50.1826 42.9915 49.4714 42.8009L36.5923 39.35Z" fill="#6A6A6A"/>
<path d="M53.8559 42.9103C53.4877 42.2726 53.7062 41.4571 54.3439 41.0889L65.8909 34.4223C66.5286 34.0541 67.3441 34.2726 67.7123 34.9103L78.1413 52.9739C78.5095 53.6116 78.291 54.4271 77.6533 54.7953L66.1063 61.4619C65.4685 61.8301 64.6531 61.6116 64.2849 60.9739L53.8559 42.9103Z" fill="white"/>
<path fill-rule="evenodd" clip-rule="evenodd" d="M55.9213 42.4877L65.6836 59.3966L76.0759 53.3966L66.3136 36.4877L55.9213 42.4877ZM54.3439 41.0889C53.7062 41.4571 53.4877 42.2726 53.8559 42.9103L64.2849 60.9739C64.6531 61.6116 65.4685 61.8301 66.1063 61.4619L77.6533 54.7953C78.291 54.4271 78.5095 53.6116 78.1413 52.9739L67.7123 34.9103C67.3441 34.2726 66.5286 34.0541 65.8909 34.4223L54.3439 41.0889Z" fill="#6A6A6A"/>
<path d="M80.9713 38.1928C81.3395 37.5551 82.1549 37.3366 82.7926 37.7048L96.1237 45.4015C96.7615 45.7697 96.98 46.5851 96.6118 47.2228L90.8367 57.2256C90.4685 57.8633 89.653 58.0818 89.0153 57.7136L75.6842 50.0169C75.0465 49.6487 74.828 48.8333 75.1962 48.1955L80.9713 38.1928Z" fill="white"/>
<path fill-rule="evenodd" clip-rule="evenodd" d="M82.37 39.7701L77.2616 48.6182L89.438 55.6482L94.5464 46.8002L82.37 39.7701ZM82.7926 37.7048C82.1549 37.3366 81.3395 37.5551 80.9713 38.1928L75.1962 48.1955C74.828 48.8333 75.0465 49.6487 75.6842 50.0169L89.0153 57.7136C89.653 58.0818 90.4685 57.8633 90.8367 57.2256L96.6118 47.2228C96.98 46.5851 96.7615 45.7697 96.1237 45.4015L82.7926 37.7048Z" fill="#6A6A6A"/>
<path d="M106.17 48.6445C106.17 53.0628 102.588 56.6445 98.1699 56.6445C93.7516 56.6445 90.1699 53.0628 90.1699 48.6445C90.1699 44.2263 93.7516 40.6445 98.1699 40.6445C102.588 40.6445 106.17 44.2263 106.17 48.6445Z" fill="white"/>
<path fill-rule="evenodd" clip-rule="evenodd" d="M98.1699 54.6445C101.484 54.6445 104.17 51.9582 104.17 48.6445C104.17 45.3308 101.484 42.6445 98.1699 42.6445C94.8562 42.6445 92.1699 45.3308 92.1699 48.6445C92.1699 51.9582 94.8562 54.6445 98.1699 54.6445ZM98.1699 56.6445C102.588 56.6445 106.17 53.0628 106.17 48.6445C106.17 44.2263 102.588 40.6445 98.1699 40.6445C93.7516 40.6445 90.1699 44.2263 90.1699 48.6445C90.1699 53.0628 93.7516 56.6445 98.1699 56.6445Z" fill="#6A6A6A"/>
<path d="M24 98.6338C24 103.052 20.4183 106.634 16 106.634C11.5817 106.634 8 103.052 8 98.6338C8 94.2155 11.5817 90.6338 16 90.6338C20.4183 90.6338 24 94.2155 24 98.6338Z" fill="white"/>
<path fill-rule="evenodd" clip-rule="evenodd" d="M16 104.634C19.3137 104.634 22 101.947 22 98.6338C22 95.3201 19.3137 92.6338 16 92.6338C12.6863 92.6338 10 95.3201 10 98.6338C10 101.947 12.6863 104.634 16 104.634ZM16 106.634C20.4183 106.634 24 103.052 24 98.6338C24 94.2155 20.4183 90.6338 16 90.6338C11.5817 90.6338 8 94.2155 8 98.6338C8 103.052 11.5817 106.634 16 106.634Z" fill="#6A6A6A"/>
<path d="M61.1892 46.0681C61.1892 50.4864 57.6075 54.0681 53.1892 54.0681C48.7709 54.0681 45.1892 50.4864 45.1892 46.0681C45.1892 41.6498 48.7709 38.0681 53.1892 38.0681C57.6075 38.0681 61.1892 41.6498 61.1892 46.0681Z" fill="#00C895"/>
<path d="M80.9482 47.0049C80.9482 51.4232 77.3665 55.0049 72.9482 55.0049C68.53 55.0049 64.9482 51.4232 64.9482 47.0049C64.9482 42.5866 68.53 39.0049 72.9482 39.0049C77.3665 39.0049 80.9482 42.5866 80.9482 47.0049Z" fill="white"/>
<path fill-rule="evenodd" clip-rule="evenodd" d="M72.9482 53.0049C76.262 53.0049 78.9482 50.3186 78.9482 47.0049C78.9482 43.6912 76.262 41.0049 72.9482 41.0049C69.6345 41.0049 66.9482 43.6912 66.9482 47.0049C66.9482 50.3186 69.6345 53.0049 72.9482 53.0049ZM72.9482 55.0049C77.3665 55.0049 80.9482 51.4232 80.9482 47.0049C80.9482 42.5866 77.3665 39.0049 72.9482 39.0049C68.53 39.0049 64.9482 42.5866 64.9482 47.0049C64.9482 51.4232 68.53 55.0049 72.9482 55.0049Z" fill="#6A6A6A"/>
<path d="M29.623 50.9754C29.623 50.239 30.22 49.6421 30.9564 49.6421H105.103C105.839 49.6421 106.436 50.239 106.436 50.9754V96.8338C106.436 97.5052 105.937 98.0719 105.271 98.1565L68.1975 102.865C68.0859 102.879 67.973 102.879 67.8615 102.865L30.7884 98.1565C30.1223 98.0719 29.623 97.5052 29.623 96.8338V50.9754Z" fill="white"/>
<path fill-rule="evenodd" clip-rule="evenodd" d="M31.623 51.6421V96.2464L68.0295 100.87L104.436 96.2464V51.6421H31.623ZM30.9564 49.6421C30.22 49.6421 29.623 50.239 29.623 50.9754V96.8338C29.623 97.5052 30.1223 98.0719 30.7884 98.1565L67.8615 102.865C67.973 102.879 68.0859 102.879 68.1975 102.865L105.271 98.1565C105.937 98.0719 106.436 97.5052 106.436 96.8338V50.9754C106.436 50.239 105.839 49.6421 105.103 49.6421H30.9564Z" fill="#6A6A6A"/>
<path d="M29.2263 50.2314C29.474 49.863 29.8889 49.6421 30.3328 49.6421H66.7388C67.7437 49.6421 68.3875 50.7117 67.9169 51.5997L59.4082 67.6577C59.2815 67.8968 59.0227 68.0356 58.7533 68.0089L20.9767 64.261C20.4749 64.2112 20.2079 63.644 20.4892 63.2256L29.2263 50.2314Z" fill="white"/>
<path fill-rule="evenodd" clip-rule="evenodd" d="M30.6879 51.6421L23.3933 62.4909L58.0601 65.9303L65.631 51.6421H30.6879ZM30.3328 49.6421C29.8889 49.6421 29.474 49.863 29.2263 50.2314L20.4892 63.2256C20.2079 63.644 20.4749 64.2112 20.9767 64.261L58.7533 68.0089C59.0227 68.0357 59.2815 67.8968 59.4082 67.6577L67.9169 51.5997C68.3874 50.7117 67.7437 49.6421 66.7388 49.6421H30.3328Z" fill="#6A6A6A"/>
<path d="M106.773 50.2314C106.526 49.863 106.111 49.6421 105.667 49.6421H69.261C68.256 49.6421 67.6123 50.7117 68.0828 51.5997L76.5915 67.6577C76.7183 67.8968 76.9771 68.0356 77.2464 68.0089L115.023 64.261C115.525 64.2112 115.792 63.644 115.511 63.2256L106.773 50.2314Z" fill="white"/>
<path fill-rule="evenodd" clip-rule="evenodd" d="M105.312 51.6421L112.606 62.4909L77.9397 65.9303L70.3687 51.6421H105.312ZM105.667 49.6421C106.111 49.6421 106.526 49.863 106.773 50.2314L115.511 63.2256C115.792 63.644 115.525 64.2112 115.023 64.261L77.2464 68.0089C76.9771 68.0357 76.7183 67.8968 76.5915 67.6577L68.0828 51.5997C67.6123 50.7117 68.256 49.6421 69.261 49.6421H105.667Z" fill="#6A6A6A"/>
<path fill-rule="evenodd" clip-rule="evenodd" d="M67.0298 102.383V51.6545H69.0298V102.383H67.0298Z" fill="#6A6A6A"/>
<path fill-rule="evenodd" clip-rule="evenodd" d="M34.0192 90.1667C34.0598 89.8935 34.3142 89.7051 34.5873 89.7457L43.2627 91.0361C43.5358 91.0767 43.7243 91.3311 43.6837 91.6042C43.643 91.8774 43.3887 92.0659 43.1156 92.0252L34.4402 90.7348C34.1671 90.6942 33.9786 90.4398 34.0192 90.1667Z" fill="#6A6A6A"/>
<path fill-rule="evenodd" clip-rule="evenodd" d="M33.5649 93.2179C33.6055 92.9448 33.8598 92.7563 34.133 92.797L49.7058 95.1134C49.9789 95.154 50.1674 95.4083 50.1268 95.6815C50.0862 95.9546 49.8318 96.1431 49.5587 96.1025L33.9859 93.7861C33.7127 93.7454 33.5242 93.4911 33.5649 93.2179Z" fill="#6A6A6A"/>
<path d="M100.674 90.0028C100.674 89.2664 101.271 88.6694 102.007 88.6694H115.34C116.077 88.6694 116.674 89.2664 116.674 90.0028V101.553C116.674 102.289 116.077 102.886 115.34 102.886H102.007C101.271 102.886 100.674 102.289 100.674 101.553V90.0028Z" fill="white"/>
<path fill-rule="evenodd" clip-rule="evenodd" d="M102.674 90.6694V100.886H114.674V90.6694H102.674ZM102.007 88.6694C101.271 88.6694 100.674 89.2664 100.674 90.0028V101.553C100.674 102.289 101.271 102.886 102.007 102.886H115.34C116.077 102.886 116.674 102.289 116.674 101.553V90.0028C116.674 89.2664 116.077 88.6694 115.34 88.6694H102.007Z" fill="#6A6A6A"/>
<path d="M105.294 102.384C105.294 106.802 101.712 110.384 97.2939 110.384C92.8757 110.384 89.2939 106.802 89.2939 102.384C89.2939 97.9655 92.8757 94.3838 97.2939 94.3838C101.712 94.3838 105.294 97.9655 105.294 102.384Z" fill="white"/>
<path fill-rule="evenodd" clip-rule="evenodd" d="M97.2939 108.384C100.608 108.384 103.294 105.697 103.294 102.384C103.294 99.0701 100.608 96.3838 97.2939 96.3838C93.9802 96.3838 91.2939 99.0701 91.2939 102.384C91.2939 105.697 93.9802 108.384 97.2939 108.384ZM97.2939 110.384C101.712 110.384 105.294 106.802 105.294 102.384C105.294 97.9655 101.712 94.3838 97.2939 94.3838C92.8757 94.3838 89.2939 97.9655 89.2939 102.384C89.2939 106.802 92.8757 110.384 97.2939 110.384Z" fill="#6A6A6A"/>
<path d="M128 112.669C128 117.088 124.418 120.669 120 120.669C115.582 120.669 112 117.088 112 112.669C112 108.251 115.582 104.669 120 104.669C124.418 104.669 128 108.251 128 112.669Z" fill="white"/>
<path fill-rule="evenodd" clip-rule="evenodd" d="M120 118.669C123.314 118.669 126 115.983 126 112.669C126 109.356 123.314 106.669 120 106.669C116.686 106.669 114 109.356 114 112.669C114 115.983 116.686 118.669 120 118.669ZM120 120.669C124.418 120.669 128 117.088 128 112.669C128 108.251 124.418 104.669 120 104.669C115.582 104.669 112 108.251 112 112.669C112 117.088 115.582 120.669 120 120.669Z" fill="#6A6A6A"/>
<path d="M83.4846 115.677C83.4846 120.095 79.9029 123.677 75.4846 123.677C71.0663 123.677 67.4846 120.095 67.4846 115.677C67.4846 111.258 71.0663 107.677 75.4846 107.677C79.9029 107.677 83.4846 111.258 83.4846 115.677Z" fill="white"/>
<path fill-rule="evenodd" clip-rule="evenodd" d="M75.4846 121.677C78.7983 121.677 81.4846 118.99 81.4846 115.677C81.4846 112.363 78.7983 109.677 75.4846 109.677C72.1709 109.677 69.4846 112.363 69.4846 115.677C69.4846 118.99 72.1709 121.677 75.4846 121.677ZM75.4846 123.677C79.9029 123.677 83.4846 120.095 83.4846 115.677C83.4846 111.258 79.9029 107.677 75.4846 107.677C71.0663 107.677 67.4846 111.258 67.4846 115.677C67.4846 120.095 71.0663 123.677 75.4846 123.677Z" fill="#6A6A6A"/>
<path d="M33.7388 106.634C33.7388 111.052 30.157 114.634 25.7388 114.634C21.3205 114.634 17.7388 111.052 17.7388 106.634C17.7388 102.216 21.3205 98.6338 25.7388 98.6338C30.157 98.6338 33.7388 102.216 33.7388 106.634Z" fill="white"/>
<path fill-rule="evenodd" clip-rule="evenodd" d="M25.7388 112.634C29.0525 112.634 31.7388 109.947 31.7388 106.634C31.7388 103.32 29.0525 100.634 25.7388 100.634C22.4251 100.634 19.7388 103.32 19.7388 106.634C19.7388 109.947 22.4251 112.634 25.7388 112.634ZM25.7388 114.634C30.157 114.634 33.7388 111.052 33.7388 106.634C33.7388 102.216 30.157 98.6338 25.7388 98.6338C21.3205 98.6338 17.7388 102.216 17.7388 106.634C17.7388 111.052 21.3205 114.634 25.7388 114.634Z" fill="#6A6A6A"/>
</svg>