<!--
 Copyright 2023-2025 Solace Systems. All rights reserved.

 Licensed under the Apache License, Version 2.0 (the "License");
 you may not use this file except in compliance with the License.
 You may obtain a copy of the License at

     http://www.apache.org/licenses/LICENSE-2.0

 Unless required by applicable law or agreed to in writing, software
 distributed under the License is distributed on an "AS IS" BASIS,
 WITHOUT WARRANTIES OR CONDITIONS OF ANY KIND, either express or implied.
 See the License for the specific language governing permissions and
 limitations under the License.
-->
<svg width="88" height="89" viewBox="0 0 88 89" fill="none" xmlns="http://www.w3.org/2000/svg">
<path d="M81.7606 41.863H76.3498C75.8005 41.863 75.354 42.3061 75.3499 42.8554L75.078 78.5482L82.7381 43.074C82.8726 42.4511 82.3979 41.863 81.7606 41.863Z" fill="white"/>
<path fill-rule="evenodd" clip-rule="evenodd" d="M74.3499 42.8477C74.3583 41.7491 75.2512 40.863 76.3498 40.863H81.7606C83.0352 40.863 83.9846 42.0393 83.7156 43.2851L76.0555 78.7592L74.078 78.5406L74.3499 42.8477ZM81.7606 42.863H76.3498L76.152 68.8367L81.7606 42.863Z" fill="#6A6A6A"/>
<path d="M5 31.7178C5 30.6133 5.89543 29.7178 7 29.7178H25.0468C25.7176 29.7178 26.3438 30.0541 26.7142 30.6134L29.9165 35.448C30.1017 35.7276 30.4148 35.8958 30.7502 35.8958H74.1225C75.2271 35.8958 76.1225 36.7912 76.1225 37.8958V78.2587C76.1225 79.3632 75.2271 80.2587 74.1225 80.2587H7C5.89543 80.2587 5 79.3632 5 78.2587V31.7178Z" fill="white"/>
<path fill-rule="evenodd" clip-rule="evenodd" d="M74.1225 78.2587V37.8958H30.7502C29.744 37.8958 28.8048 37.3913 28.2491 36.5524L25.0468 31.7178H7L7 78.2587L74.1225 78.2587ZM7 29.7178C5.89543 29.7178 5 30.6133 5 31.7178V78.2587C5 79.3632 5.89543 80.2587 7 80.2587H74.1225C75.2271 80.2587 76.1225 79.3632 76.1225 78.2587V37.8958C76.1225 36.7912 75.2271 35.8958 74.1225 35.8958H30.7502C30.4148 35.8958 30.1017 35.7276 29.9165 35.448L26.7142 30.6134C26.3438 30.0541 25.7176 29.7178 25.0468 29.7178H7Z" fill="#6A6A6A"/>
<path d="M8.21404 33.8278C8.21404 33.2755 8.66175 32.8278 9.21404 32.8278H24.1486C24.7009 32.8278 25.1486 33.2755 25.1486 33.8278V36.1551C25.1486 36.7074 24.7009 37.1551 24.1486 37.1551H9.21404C8.66175 37.1551 8.21404 36.7074 8.21404 36.1551V33.8278Z" fill="white"/>
<path fill-rule="evenodd" clip-rule="evenodd" d="M24.1486 33.8278H9.21404V36.1551H24.1486L24.1486 33.8278ZM9.21404 32.8278C8.66175 32.8278 8.21404 33.2755 8.21404 33.8278V36.1551C8.21404 36.7074 8.66175 37.1551 9.21404 37.1551H24.1486C24.7009 37.1551 25.1486 36.7074 25.1486 36.1551V33.8278C25.1486 33.2755 24.7009 32.8278 24.1486 32.8278H9.21404Z" fill="#6A6A6A"/>
<path d="M24.4286 47.4296C24.8219 47.022 25.4749 47.022 25.8681 47.4296L27.8414 49.4753C28.0865 49.7295 28.4476 49.8355 28.7912 49.7542L31.5572 49.1001C32.1084 48.9698 32.6578 49.3228 32.7682 49.8783L33.3222 52.6661C33.3911 53.0125 33.6375 53.2969 33.9705 53.4143L36.6511 54.3594C37.1853 54.5478 37.4565 55.1418 37.249 55.6688L36.208 58.3136C36.0786 58.6422 36.1322 59.0146 36.3488 59.2935L38.0929 61.5378C38.4404 61.985 38.3475 62.6314 37.888 62.9626L35.5823 64.6247C35.2959 64.8312 35.1395 65.1734 35.1711 65.5252L35.4249 68.3561C35.4755 68.9202 35.0478 69.4137 34.4822 69.444L31.644 69.5956C31.2914 69.6145 30.9748 69.8179 30.8112 70.1308L29.4942 72.6496C29.2317 73.1515 28.6052 73.3355 28.113 73.0551L25.6433 71.6483C25.3365 71.4735 24.9602 71.4735 24.6534 71.6483L22.1837 73.0551C21.6915 73.3355 21.065 73.1515 20.8025 72.6496L19.4855 70.1308C19.3219 69.8179 19.0054 69.6145 18.6527 69.5956L15.8145 69.444C15.2489 69.4137 14.8213 68.9202 14.8718 68.3561L15.1256 65.5252C15.1572 65.1734 15.0009 64.8312 14.7144 64.6247L12.4087 62.9626C11.9492 62.6314 11.8563 61.985 12.2039 61.5378L13.9479 59.2935C14.1646 59.0146 14.2181 58.6422 14.0888 58.3136L13.0477 55.6688C12.8402 55.1418 13.1115 54.5478 13.6457 54.3594L16.3262 53.4143C16.6592 53.2969 16.9057 53.0125 16.9745 52.6661L17.5285 49.8783C17.6389 49.3228 18.1883 48.9698 18.7395 49.1001L21.5055 49.7542C21.8492 49.8355 22.2102 49.7295 22.4554 49.4753L24.4286 47.4296Z" fill="white"/>
<path fill-rule="evenodd" clip-rule="evenodd" d="M25.1484 49.5643L23.8948 50.8638C23.1593 51.6263 22.0762 51.9443 21.0452 51.7005L19.2881 51.285L18.9361 53.056C18.7296 54.0951 17.9904 54.9482 16.9913 55.3005L15.2884 55.9009L15.9498 57.581C16.3378 58.5668 16.1772 59.6841 15.5271 60.5207L14.4192 61.9464L15.8839 63.0022C16.7433 63.6217 17.2123 64.6486 17.1177 65.7038L16.9564 67.5021L18.7594 67.5985C19.8173 67.655 20.767 68.2653 21.2579 69.2041L22.0945 70.8042L23.6634 69.9105C24.5839 69.3861 25.7128 69.3861 26.6333 69.9105L28.2022 70.8042L29.0388 69.2041C29.5297 68.2653 30.4794 67.655 31.5373 67.5985L33.3403 67.5021L33.1791 65.7037C33.0845 64.6486 33.5534 63.6217 34.4128 63.0022L35.8775 61.9464L34.7696 60.5207C34.1196 59.6841 33.9589 58.5668 34.3469 57.581L35.0083 55.9009L33.3055 55.3005C32.3063 54.9482 31.5671 54.0951 31.3606 53.056L31.0086 51.285L29.2515 51.7005C28.2205 51.9444 27.1374 51.6263 26.4019 50.8638L25.1484 49.5643ZM25.8681 47.4296C25.4749 47.022 24.8219 47.022 24.4286 47.4296L22.4554 49.4753C22.2102 49.7295 21.8492 49.8355 21.5055 49.7542L18.7395 49.1001C18.1883 48.9698 17.6389 49.3228 17.5285 49.8783L16.9745 52.6661C16.9057 53.0125 16.6592 53.2969 16.3262 53.4143L13.6457 54.3594C13.1115 54.5478 12.8402 55.1418 13.0477 55.6688L14.0888 58.3136C14.2181 58.6422 14.1646 59.0146 13.9479 59.2935L12.2039 61.5378C11.8563 61.985 11.9492 62.6314 12.4087 62.9626L14.7144 64.6247C15.0009 64.8312 15.1572 65.1734 15.1256 65.5252L14.8718 68.3561C14.8213 68.9202 15.2489 69.4137 15.8145 69.444L18.6527 69.5956C19.0054 69.6145 19.3219 69.8179 19.4855 70.1308L20.8025 72.6496C21.065 73.1515 21.6915 73.3355 22.1837 73.0551L24.6534 71.6483C24.9602 71.4735 25.3365 71.4735 25.6433 71.6483L28.113 73.0551C28.6052 73.3355 29.2317 73.1515 29.4942 72.6496L30.8112 70.1308C30.9748 69.8179 31.2914 69.6145 31.644 69.5956L34.4822 69.444C35.0478 69.4137 35.4755 68.9202 35.4249 68.3561L35.1711 65.5252C35.1395 65.1734 35.2959 64.8312 35.5823 64.6247L37.888 62.9626C38.3475 62.6314 38.4404 61.985 38.0929 61.5378L36.3488 59.2935C36.1322 59.0146 36.0786 58.6422 36.208 58.3136L37.249 55.6688C37.4565 55.1418 37.1853 54.5478 36.6511 54.3594L33.9705 53.4143C33.6375 53.2969 33.3911 53.0125 33.3222 52.6661L32.7682 49.8783C32.6578 49.3228 32.1084 48.9698 31.5572 49.1001L28.7912 49.7542C28.4476 49.8355 28.0865 49.7295 27.8414 49.4753L25.8681 47.4296Z" fill="#6A6A6A"/>
<path fill-rule="evenodd" clip-rule="evenodd" d="M31.2594 56.0093C31.6499 56.3998 31.6499 57.033 31.2594 57.4235L23.8844 64.7985C23.4938 65.189 22.8607 65.189 22.4701 64.7985L19.0368 61.3653C18.6463 60.9747 18.6463 60.3416 19.0368 59.951C19.4274 59.5605 20.0605 59.5605 20.451 59.951L23.1772 62.6772L29.8452 56.0093C30.2357 55.6188 30.8689 55.6188 31.2594 56.0093Z" fill="#00C895"/>
<path fill-rule="evenodd" clip-rule="evenodd" d="M68.4264 21.0347C68.012 22.5815 67.2122 23.9227 66.1572 24.9837L61.5651 30.8351C60.8915 31.6934 60.5978 32.7897 60.752 33.8698L61.6429 40.1106C61.7442 40.8208 61.087 41.4035 60.3941 41.2179L48.0238 37.9033C47.3309 37.7176 47.0531 36.8843 47.496 36.32L51.3872 31.3616C52.0608 30.5032 52.3546 29.407 52.2004 28.3268L51.1483 20.9568C50.7666 19.5121 50.7451 17.9527 51.1591 16.4079C52.4303 11.6636 57.3262 8.8534 62.0945 10.131C66.8627 11.4087 69.6976 16.2904 68.4264 21.0347Z" fill="white"/>
<path fill-rule="evenodd" clip-rule="evenodd" d="M64.6562 23.6567L64.739 23.5735C65.5546 22.7532 66.173 21.7173 66.4946 20.5171C67.4775 16.8489 65.2874 13.0571 61.5769 12.0629C57.8663 11.0687 54.0738 13.2574 53.0909 16.9256C52.7697 18.1243 52.7868 19.3289 53.0819 20.4459L53.1117 20.5587L54.1803 28.0442C54.4116 29.6644 53.971 31.3088 52.9606 32.5963L50.0043 36.3634L59.4489 38.8941L58.7721 34.1524C58.5408 32.5322 58.9814 30.8878 59.9918 29.6003L64.6562 23.6567ZM66.1572 24.9837L61.5651 30.8351C60.8915 31.6934 60.5978 32.7896 60.752 33.8698L61.6429 40.1106C61.7442 40.8208 61.087 41.4035 60.3941 41.2179L48.0238 37.9033C47.3309 37.7176 47.0531 36.8843 47.496 36.32L51.3872 31.3616C52.0608 30.5032 52.3546 29.407 52.2004 28.3268L51.1483 20.9568C50.7666 19.5121 50.7451 17.9527 51.1591 16.4079C52.4303 11.6636 57.3262 8.8534 62.0945 10.131C66.8627 11.4087 69.6976 16.2904 68.4264 21.0347C68.012 22.5815 67.2122 23.9227 66.1572 24.9837Z" fill="#6A6A6A"/>
<path d="M39.3954 41.6266C39.5384 41.0931 40.0867 40.7766 40.6202 40.9195L65.2974 47.5317C65.8308 47.6747 66.1474 48.223 66.0045 48.7565L64.6921 53.6542C64.5492 54.1877 64.0008 54.5043 63.4674 54.3613L38.7902 47.7491C38.2567 47.6062 37.9401 47.0578 38.0831 46.5244L39.3954 41.6266Z" fill="white"/>
<path fill-rule="evenodd" clip-rule="evenodd" d="M41.0685 43.1102L40.2738 46.0761L63.0191 52.1707L63.8138 49.2048L41.0685 43.1102ZM40.6202 40.9195C40.0867 40.7766 39.5384 41.0931 39.3954 41.6266L38.0831 46.5244C37.9401 47.0578 38.2567 47.6062 38.7902 47.7491L63.4674 54.3613C64.0008 54.5043 64.5492 54.1877 64.6921 53.6542L66.0045 48.7565C66.1474 48.223 65.8308 47.6747 65.2974 47.5317L40.6202 40.9195Z" fill="#6A6A6A"/>
<path d="M37.4648 35.7839C37.8936 34.1835 39.5387 33.2338 41.1391 33.6626L68.4741 40.987C70.0745 41.4158 71.0243 43.0608 70.5955 44.6612L68.8858 51.0419C68.7428 51.5754 68.1945 51.892 67.661 51.7491L36.4622 43.3894C35.9288 43.2464 35.6122 42.6981 35.7551 42.1646L37.4648 35.7839Z" fill="white"/>
<path fill-rule="evenodd" clip-rule="evenodd" d="M67.9565 42.9189L40.6214 35.5944C40.088 35.4515 39.5396 35.7681 39.3967 36.3016L37.9458 41.7163L67.2127 49.5584L68.6636 44.1436C68.8065 43.6101 68.49 43.0618 67.9565 42.9189ZM41.1391 33.6626C39.5387 33.2338 37.8936 34.1835 37.4648 35.7839L35.7551 42.1646C35.6122 42.6981 35.9288 43.2464 36.4622 43.3894L67.661 51.7491C68.1945 51.892 68.7428 51.5754 68.8858 51.0419L70.5955 44.6612C71.0243 43.0608 70.0745 41.4158 68.4741 40.987L41.1391 33.6626Z" fill="#6A6A6A"/>
<path fill-rule="evenodd" clip-rule="evenodd" d="M44.6932 40.1047C44.7647 39.838 45.0389 39.6797 45.3056 39.7512L61.8222 44.1768C62.0889 44.2483 62.2472 44.5224 62.1757 44.7892C62.1042 45.0559 61.8301 45.2142 61.5633 45.1427L45.0468 40.7171C44.7801 40.6456 44.6218 40.3715 44.6932 40.1047Z" fill="#6A6A6A"/>
</svg>
