<!--
 Copyright 2023-2025 Solace Systems. All rights reserved.

 Licensed under the Apache License, Version 2.0 (the "License");
 you may not use this file except in compliance with the License.
 You may obtain a copy of the License at

     http://www.apache.org/licenses/LICENSE-2.0

 Unless required by applicable law or agreed to in writing, software
 distributed under the License is distributed on an "AS IS" BASIS,
 WITHOUT WARRANTIES OR CONDITIONS OF ANY KIND, either express or implied.
 See the License for the specific language governing permissions and
 limitations under the License.
-->
<svg width="130" height="130" viewBox="0 0 130 130" fill="none" xmlns="http://www.w3.org/2000/svg">
<circle opacity="0.1" cx="65.5" cy="60.5" r="54.5" fill="#009193"/>
<path d="M29 48.0781C29 46.9736 29.8954 46.0781 31 46.0781H34.2187C35.3233 46.0781 36.2187 46.9736 36.2187 48.0781V89.7859C36.2187 90.8904 35.3233 91.7859 34.2187 91.7859H31C29.8954 91.7859 29 90.8904 29 89.7859V48.0781Z" fill="white"/>
<path fill-rule="evenodd" clip-rule="evenodd" d="M34.2187 48.0781H31L31 89.7859H34.2187V48.0781ZM31 46.0781C29.8954 46.0781 29 46.9736 29 48.0781V89.7859C29 90.8904 29.8954 91.7859 31 91.7859H34.2187C35.3233 91.7859 36.2187 90.8904 36.2187 89.7859V48.0781C36.2187 46.9736 35.3233 46.0781 34.2187 46.0781H31Z" fill="#6A6A6A"/>
<path d="M92.8672 48.0781C92.8672 46.9736 93.7626 46.0781 94.8672 46.0781H98.0859C99.1905 46.0781 100.086 46.9736 100.086 48.0781V89.7859C100.086 90.8904 99.1905 91.7859 98.0859 91.7859H94.8672C93.7626 91.7859 92.8672 90.8904 92.8672 89.7859V48.0781Z" fill="white"/>
<path fill-rule="evenodd" clip-rule="evenodd" d="M98.0859 48.0781H94.8672L94.8672 89.7859H98.0859V48.0781ZM94.8672 46.0781C93.7626 46.0781 92.8672 46.9736 92.8672 48.0781V89.7859C92.8672 90.8904 93.7626 91.7859 94.8672 91.7859H98.0859C99.1905 91.7859 100.086 90.8904 100.086 89.7859V48.0781C100.086 46.9736 99.1905 46.0781 98.0859 46.0781H94.8672Z" fill="#6A6A6A"/>
<path d="M2 123.867H128V124.867H2V123.867Z" fill="#6A6A6A"/>
<path d="M23 78.5742C23 77.4697 23.8954 76.5742 25 76.5742H104.04C105.145 76.5742 106.04 77.4696 106.04 78.5742V116.916C106.04 118.021 105.145 118.916 104.04 118.916H25C23.8954 118.916 23 118.021 23 116.916V78.5742Z" fill="white"/>
<path fill-rule="evenodd" clip-rule="evenodd" d="M104.04 78.5742H25V116.916H104.04V78.5742ZM25 76.5742C23.8954 76.5742 23 77.4697 23 78.5742V116.916C23 118.021 23.8954 118.916 25 118.916H104.04C105.145 118.916 106.04 118.021 106.04 116.916V78.5742C106.04 77.4696 105.145 76.5742 104.04 76.5742H25Z" fill="#6A6A6A"/>
<rect x="30" y="117.902" width="12.0852" height="5.96585" rx="1" fill="white" stroke="#6A6A6A" stroke-width="2"/>
<rect x="87" y="117.902" width="12.0852" height="5.96585" rx="1" fill="white" stroke="#6A6A6A" stroke-width="2"/>
<path d="M30.5964 29.0007C30.9446 28.3509 31.622 27.9453 32.3593 27.9453H97.7412C98.4785 27.9453 99.1559 28.3509 99.5041 29.0007L106.863 42.7358C107.019 43.0263 107.1 43.3507 107.1 43.6803V49.5141C107.1 51.7232 105.31 53.5141 103.1 53.5141H27C24.7909 53.5141 23 51.7232 23 49.5141V43.6803C23 43.3507 23.0815 43.0263 23.2371 42.7357L30.5964 29.0007Z" fill="white"/>
<path fill-rule="evenodd" clip-rule="evenodd" d="M97.7412 29.9453H32.3593L25 43.6803V49.5141C25 50.6187 25.8954 51.5141 27 51.5141H103.1C104.205 51.5141 105.1 50.6187 105.1 49.5141V43.6803L97.7412 29.9453ZM32.3593 27.9453C31.622 27.9453 30.9446 28.3509 30.5964 29.0007L23.2371 42.7357C23.0815 43.0263 23 43.3507 23 43.6803V49.5141C23 51.7232 24.7909 53.5141 27 53.5141H103.1C105.31 53.5141 107.1 51.7232 107.1 49.5141V43.6803C107.1 43.3507 107.019 43.0263 106.863 42.7358L99.5041 29.0007C99.1559 28.3509 98.4785 27.9453 97.7412 27.9453H32.3593Z" fill="#6A6A6A"/>
<path fill-rule="evenodd" clip-rule="evenodd" d="M23.9258 43.4648C23.9258 43.1887 24.1496 42.9648 24.4258 42.9648H93.9976C94.2738 42.9648 94.4976 43.1887 94.4976 43.4648C94.4976 43.741 94.2738 43.9648 93.9976 43.9648H24.4258C24.1496 43.9648 23.9258 43.741 23.9258 43.4648Z" fill="#6A6A6A"/>
<path fill-rule="evenodd" clip-rule="evenodd" d="M63.4453 28.3086C63.7215 28.3086 63.9453 28.5325 63.9453 28.8086L63.9453 43.4644C63.9453 43.7405 63.7215 43.9644 63.4453 43.9644C63.1692 43.9644 62.9453 43.7405 62.9453 43.4644L62.9453 28.8086C62.9453 28.5325 63.1692 28.3086 63.4453 28.3086Z" fill="#6A6A6A"/>
<path fill-rule="evenodd" clip-rule="evenodd" d="M47.811 28.5757C48.0778 28.6471 48.2361 28.9213 48.1646 29.188L44.3714 43.3445C44.2999 43.6112 44.0258 43.7695 43.759 43.698C43.4923 43.6265 43.334 43.3524 43.4055 43.0856L47.1987 28.9292C47.2701 28.6625 47.5443 28.5042 47.811 28.5757Z" fill="#6A6A6A"/>
<path fill-rule="evenodd" clip-rule="evenodd" d="M80.437 28.5757C80.1703 28.6471 80.012 28.9213 80.0835 29.188L83.8767 43.3445C83.9481 43.6112 84.2223 43.7695 84.489 43.698C84.7558 43.6265 84.914 43.3524 84.8426 43.0856L81.0494 28.9292C80.9779 28.6625 80.7037 28.5042 80.437 28.5757Z" fill="#6A6A6A"/>
<path fill-rule="evenodd" clip-rule="evenodd" d="M80.9676 88.2138C79.9524 88.366 78.88 88.2193 77.8908 87.7262C76.901 87.2329 76.1379 86.4644 75.6482 85.5615C75.2279 85.55 74.809 85.5763 74.3965 85.639C74.0206 86.5947 73.3573 87.4504 72.4354 88.0607C71.5125 88.6718 70.4643 88.9483 69.4367 88.9204C69.328 89.0975 69.2261 89.2812 69.1313 89.4712C69.0366 89.6613 68.9514 89.8532 68.8754 90.0466C69.5153 90.8499 69.9249 91.8525 69.9925 92.9562C70.0602 94.0596 69.7764 95.1043 69.2398 95.9796C69.4384 96.3476 69.6699 96.6988 69.9327 97.0282C70.9487 96.8756 72.0219 97.0221 73.0118 97.5155C74.0012 98.0086 74.764 98.7767 75.2538 99.6791C75.6762 99.6905 76.0971 99.6636 76.5115 99.6001C76.8876 98.6461 77.5504 97.792 78.4709 97.1825C79.3912 96.5732 80.436 96.2965 81.4609 96.3226C81.5701 96.1447 81.6726 95.9602 81.7678 95.7693C81.8626 95.579 81.9479 95.3868 82.024 95.1932C81.3863 94.3906 80.9782 93.3899 80.9107 92.2883C80.8431 91.1857 81.1265 90.1416 81.6624 89.2666C81.4635 88.8971 81.2313 88.5445 80.9676 88.2138ZM83.9539 94.7268C83.802 95.3374 83.5816 95.941 83.2893 96.5276C82.9966 97.1149 82.6468 97.6549 82.25 98.1443C81.3157 97.8894 80.2804 98.0233 79.4094 98.6C78.5389 99.1763 78.0115 100.076 77.881 101.036C76.6584 101.389 75.3571 101.478 74.0694 101.273C73.8236 100.335 73.1896 99.5035 72.2535 99.037C71.3171 98.5703 70.2713 98.5646 69.3741 98.9336C68.4346 98.03 67.7224 96.9382 67.2682 95.75C67.9573 95.0681 68.3597 94.1038 68.2957 93.0603C68.2317 92.0157 67.7135 91.1069 66.945 90.5145C67.0969 89.9036 67.3174 89.2997 67.6098 88.7129C67.9024 88.1259 68.252 87.5861 68.6486 87.0968C69.5849 87.3546 70.6235 87.2215 71.4969 86.6433C72.3689 86.0659 72.8967 85.1636 73.026 84.2027C74.2474 83.8507 75.547 83.7623 76.8331 83.9684C77.0787 84.9067 77.7128 85.7381 78.6491 86.2047C79.585 86.6712 80.6302 86.6772 81.527 86.3088C82.467 87.2135 83.1794 88.3068 83.6331 89.4965C82.9452 90.1782 82.5436 91.1417 82.6075 92.1843C82.6714 93.2269 83.1878 94.1342 83.9539 94.7268Z" fill="#6A6A6A"/>
<path fill-rule="evenodd" clip-rule="evenodd" d="M74.1869 95.0937C75.3672 95.6819 76.8008 95.202 77.3891 94.0217C77.9773 92.8415 77.4974 91.4078 76.3171 90.8195C75.1368 90.2313 73.7032 90.7112 73.1149 91.8915C72.5267 93.0718 73.0066 94.5054 74.1869 95.0937ZM73.4286 96.6152C75.4491 97.6222 77.9035 96.8006 78.9106 94.78C79.9176 92.7595 79.096 90.3051 77.0754 89.298C75.0549 88.291 72.6005 89.1126 71.5934 91.1332C70.5864 93.1537 71.408 95.6081 73.4286 96.6152Z" fill="#6A6A6A"/>
<path fill-rule="evenodd" clip-rule="evenodd" d="M66.3327 95.7077L65.3274 96.7443C64.9737 97.109 64.8563 97.6606 65.0648 98.1519C65.2731 98.6428 65.7507 98.9416 66.2583 98.9412L67.7023 98.9399L67.8727 100.374C67.9708 101.199 67.9754 102.025 67.8923 102.835L67.7453 104.27L66.3031 104.294C65.7956 104.302 65.3233 104.609 65.1235 105.103C64.9236 105.598 65.05 106.147 65.4091 106.505L66.4297 107.524L65.5383 108.658C65.0341 109.3 64.4566 109.89 63.8114 110.416L62.6916 111.329L61.6543 110.324C61.2896 109.97 60.7381 109.853 60.2468 110.061C59.7554 110.269 59.4565 110.748 59.4575 111.256L59.4603 112.701L58.0256 112.872C57.1991 112.97 56.3729 112.975 55.5614 112.892L54.1257 112.746L54.1025 111.302C54.0944 110.795 53.7875 110.322 53.293 110.122C52.7984 109.922 52.2491 110.049 51.8905 110.409L50.8714 111.431L49.7367 110.539C49.0962 110.035 48.5061 109.459 47.9807 108.815L47.0665 107.694L48.0737 106.657C48.4276 106.292 48.5452 105.74 48.3367 105.249C48.128 104.757 47.649 104.458 47.1404 104.459L45.6943 104.464L45.5227 103.028C45.424 102.202 45.4189 101.376 45.5015 100.565L45.648 99.1269L47.0939 99.106C47.6022 99.0986 48.0758 98.7915 48.276 98.2964C48.4762 97.801 48.3489 97.2507 47.988 96.8922L46.9621 95.873L47.8558 94.7361C48.36 94.0946 48.9376 93.5037 49.5829 92.9776L50.7051 92.0627L51.7425 93.0728C52.1071 93.4279 52.6597 93.5461 53.1518 93.3373C53.6439 93.1285 53.9429 92.6491 53.9411 92.1403L53.936 90.6924L55.3737 90.5216C56.2005 90.4233 57.0268 90.4188 57.8385 90.5022L59.2761 90.6499L59.2966 92.0949C59.3039 92.6034 59.611 93.0772 60.1062 93.2774C60.6011 93.4774 61.1506 93.3506 61.5092 92.9906L62.5292 91.9667L63.6647 92.8607C64.3054 93.3651 64.8956 93.9428 65.421 94.588L66.3327 95.7077ZM55.5654 92.1345C56.2719 92.0506 56.9783 92.0467 57.6725 92.118C57.6887 93.257 58.3752 94.3296 59.4975 94.7833C60.6189 95.2366 61.8568 94.9432 62.66 94.1369C63.208 94.5684 63.7125 95.0622 64.1614 95.6136C63.3692 96.4304 63.0972 97.6729 63.5695 98.7862C64.0415 99.8988 65.1228 100.566 66.2598 100.565C66.3436 101.271 66.3475 101.976 66.2765 102.67C65.1399 102.688 64.0704 103.374 63.6176 104.495C63.1647 105.615 63.457 106.851 64.2614 107.655C63.8301 108.203 63.3364 108.708 62.7851 109.158C61.9683 108.365 60.7258 108.093 59.6124 108.566C58.4989 109.038 57.8311 110.121 57.8333 111.259C57.127 111.343 56.4207 111.347 55.7266 111.276C55.7084 110.139 55.0223 109.069 53.9017 108.616C52.7809 108.163 51.5436 108.456 50.7404 109.262C50.1926 108.831 49.6882 108.338 49.2392 107.788C50.032 106.971 50.3044 105.728 49.8319 104.614C49.3591 103.5 48.2748 102.832 47.1355 102.835C47.0512 102.129 47.0468 101.424 47.1174 100.73C48.2561 100.714 49.3283 100.027 49.7818 98.9051C50.2357 97.7824 49.9411 96.543 49.1328 95.7399C49.5641 95.1912 50.0579 94.6861 50.6093 94.2365C51.4261 95.0319 52.6709 95.3057 53.7862 94.8325C54.9013 94.3595 55.5694 93.2743 55.5654 92.1345ZM57.8839 104.484C59.5055 103.796 60.2624 101.924 59.5744 100.302C58.8865 98.6808 57.0142 97.9239 55.3925 98.6119C53.7709 99.2999 53.014 101.172 53.702 102.794C54.39 104.415 56.2623 105.172 57.8839 104.484ZM61.0697 99.6681C62.108 102.116 60.9657 104.941 58.5183 105.98C56.0708 107.018 53.2451 105.876 52.2067 103.428C51.1684 100.981 52.3107 98.155 54.7582 97.1166C57.2056 96.0783 60.0314 97.2206 61.0697 99.6681Z" fill="#6A6A6A"/>
</svg>
