<!--
 Copyright 2023-2025 Solace Systems. All rights reserved.

 Licensed under the Apache License, Version 2.0 (the "License");
 you may not use this file except in compliance with the License.
 You may obtain a copy of the License at

     http://www.apache.org/licenses/LICENSE-2.0

 Unless required by applicable law or agreed to in writing, software
 distributed under the License is distributed on an "AS IS" BASIS,
 WITHOUT WARRANTIES OR CONDITIONS OF ANY KIND, either express or implied.
 See the License for the specific language governing permissions and
 limitations under the License.
-->
<svg width="137" height="136" viewBox="0 0 137 136" fill="none" xmlns="http://www.w3.org/2000/svg">
<path d="M123.888 67.1319C123.888 97.0016 99.6744 121.216 69.8047 121.216C39.9348 121.216 15.7207 97.0016 15.7207 67.1319C15.7207 37.2621 39.9348 13.0479 69.8047 13.0479C99.6744 13.0479 123.888 37.2621 123.888 67.1319Z" fill="#E6F4F4"/>
<path d="M57.8025 76.4576V67.4042L61.0531 66.5894L65.4888 73.6833L59.3096 77.3195C58.643 77.7118 57.8025 77.2311 57.8025 76.4576Z" fill="white"/>
<path fill-rule="evenodd" clip-rule="evenodd" d="M61.5155 65.4429L56.8025 66.6243V76.458C56.8025 78.005 58.4836 78.9663 59.8168 78.1817L66.8813 74.0245L61.5155 65.4429ZM60.5909 67.7365L64.0963 73.3428L58.8025 76.458V68.1848L60.5909 67.7365Z" fill="#6A6A6A"/>
<path d="M68.6592 82.8556L90.0587 53.8948C90.5867 53.1803 89.9902 52.1834 89.1109 52.3109L47.6349 58.3265C46.7404 58.4562 46.4633 59.6119 47.2017 60.1331L57.0142 67.0595C57.1219 67.1356 57.2136 67.2322 57.2838 67.3438L67.0086 82.7941C67.3837 83.39 68.2407 83.4219 68.6592 82.8556Z" fill="white"/>
<path fill-rule="evenodd" clip-rule="evenodd" d="M57.2838 67.3438L58.9764 66.2784C58.7657 65.9436 58.4908 65.6538 58.1676 65.4256L50.4044 59.9457L87.0256 54.6343L67.921 80.4892L58.9765 66.2784L57.2838 67.3438ZM48.3551 58.4992L48.3564 58.5001ZM90.0587 53.8948L68.6592 82.8556C68.2407 83.4219 67.3837 83.39 67.0086 82.7941L57.2838 67.3438C57.2136 67.2322 57.1219 67.1356 57.0142 67.0595L47.2017 60.1331C46.4633 59.6119 46.7404 58.4562 47.6349 58.3265L89.1109 52.3109C89.9902 52.1834 90.5867 53.1803 90.0587 53.8948Z" fill="#6A6A6A"/>
<path fill-rule="evenodd" clip-rule="evenodd" d="M88.3806 52.7544L57.418 65.6664L58.1878 67.5123L89.1504 54.6003L88.3806 52.7544Z" fill="#6A6A6A"/>
<path fill-rule="evenodd" clip-rule="evenodd" d="M61.7357 101.599C61.7357 102.598 61.6468 103.576 61.4767 104.525C62.0113 104.445 62.5579 104.404 63.1138 104.404C69.4024 104.404 74.5003 109.686 74.5003 116.202C74.5003 122.718 69.4024 128 63.1138 128C63.0604 128 63.007 128 62.9538 127.999H23.4806C23.4113 128 23.3418 128 23.2723 128C23.2027 128 23.1332 128 23.0639 127.999H22.3132V127.973C14.5013 127.534 8.31836 121.77 8.31836 114.724C8.31836 108.498 13.1458 103.273 19.659 101.838C19.6566 101.758 19.6555 101.678 19.6555 101.597C19.6555 97.2604 23.0484 93.7448 27.2338 93.7448C29.1041 93.7448 30.8161 94.4468 32.1378 95.6104C34.4214 89.7879 39.9353 85.6826 46.3745 85.6826C54.8582 85.6826 61.7357 92.8087 61.7357 101.599Z" fill="white"/>
<path fill-rule="evenodd" clip-rule="evenodd" d="M59.0165 106.914L59.5081 104.172C59.6574 103.339 59.7357 102.48 59.7357 101.599C59.7357 93.8457 53.6873 87.6826 46.3745 87.6826C40.8192 87.6826 36.0059 91.2255 33.9998 96.3406L32.958 98.9969L30.8163 97.1115C29.8397 96.2518 28.5914 95.7448 27.2338 95.7448C24.2193 95.7448 21.6555 98.2974 21.6555 101.597C21.6555 101.658 21.6564 101.719 21.6581 101.78L21.7063 103.435L20.0892 103.791C14.3143 105.063 10.3184 109.608 10.3184 114.724C10.3184 120.504 15.4548 125.585 22.4254 125.976L22.8249 125.999H23.076L23.0881 125.999C23.1494 126 23.2108 126 23.2723 126C23.3337 126 23.3951 126 23.4564 125.999L23.4685 125.999H62.9681L62.9823 125.999C63.0261 126 63.0699 126 63.1138 126C68.2314 126 72.5003 121.681 72.5003 116.202C72.5003 110.723 68.2314 106.404 63.1138 106.404C62.6571 106.404 62.2091 106.437 61.7718 106.503L59.0165 106.914ZM22.3132 127.973C14.5013 127.534 8.31836 121.77 8.31836 114.724C8.31836 108.498 13.1458 103.273 19.659 101.838C19.6566 101.758 19.6555 101.678 19.6555 101.597C19.6555 97.2604 23.0484 93.7448 27.2338 93.7448C28.3792 93.7448 29.4652 94.0081 30.4386 94.4795C31.0547 94.7778 31.6256 95.1594 32.1378 95.6104C32.3911 94.9647 32.6841 94.3401 33.0136 93.7399C35.6558 88.9279 40.6494 85.6826 46.3745 85.6826C54.8582 85.6826 61.7357 92.8087 61.7357 101.599C61.7357 101.894 61.7279 102.187 61.7126 102.478C61.6761 103.173 61.5966 103.856 61.4767 104.525C62.0113 104.445 62.5579 104.404 63.1138 104.404C63.2507 104.404 63.3871 104.406 63.5228 104.411C69.622 104.634 74.5003 109.828 74.5003 116.202C74.5003 122.718 69.4024 128 63.1138 128C63.0864 128 63.0591 128 63.0318 128C63.0058 127.999 62.9798 127.999 62.9538 127.999H23.4806C23.4113 128 23.3418 128 23.2723 128C23.2027 128 23.1332 128 23.0639 127.999H22.3132V127.973Z" fill="#6A6A6A"/>
<path fill-rule="evenodd" clip-rule="evenodd" d="M93.6326 76.9242C93.6326 77.5728 93.6903 78.2075 93.8006 78.823C93.4539 78.7713 93.0994 78.7446 92.7389 78.7446C88.6557 78.7446 85.3455 82.1744 85.3455 86.4053C85.3455 90.6036 88.6048 94.0131 92.6446 94.0655V94.0662H118.542C118.564 94.0663 118.586 94.0663 118.609 94.0663C118.631 94.0663 118.653 94.0663 118.675 94.0662H119.229V94.049C124.303 93.7648 128.318 90.0217 128.318 85.446C128.318 81.4035 125.184 78.0109 120.955 77.0791C120.957 77.0274 120.958 76.9755 120.958 76.9234C120.958 74.1075 118.755 71.8247 116.037 71.8247C114.822 71.8247 113.71 72.281 112.852 73.0371C111.369 69.2557 107.788 66.5894 103.607 66.5894C98.0982 66.5894 93.6326 71.2164 93.6326 76.9242Z" fill="white"/>
<path fill-rule="evenodd" clip-rule="evenodd" d="M96.2605 81.2116L95.7692 78.4702C95.6797 77.9707 95.6326 77.4541 95.6326 76.9242C95.6326 72.2534 99.2691 68.5894 103.607 68.5894C106.904 68.5894 109.784 70.6931 110.989 73.7671L112.031 76.4248L114.174 74.5379C114.687 74.0858 115.335 73.8247 116.037 73.8247C117.584 73.8247 118.958 75.1445 118.958 76.9234C118.958 76.9562 118.957 76.9888 118.956 77.0212L118.908 78.676L120.525 79.0322C124.016 79.8014 126.318 82.5136 126.318 85.446C126.318 88.7552 123.349 91.8151 119.118 92.0521L118.867 92.0662H118.663L118.609 92.0664L118.554 92.0662L118.542 92.0661L92.7091 92.0662L92.6705 92.0657C89.7888 92.0283 87.3455 89.574 87.3455 86.4053C87.3455 83.2114 89.8266 80.7446 92.7389 80.7446C93.0004 80.7446 93.2563 80.764 93.5058 80.8011L96.2605 81.2116ZM92.6446 94.0655L118.542 94.0662L118.609 94.0663L118.675 94.0662H119.229V94.049C124.303 93.7648 128.318 90.0217 128.318 85.446C128.318 81.4035 125.184 78.0109 120.955 77.0791C120.957 77.0274 120.958 76.9755 120.958 76.9234C120.958 74.1075 118.755 71.8247 116.037 71.8247C115.539 71.8247 115.059 71.9012 114.607 72.0435C113.954 72.2486 113.358 72.5906 112.852 73.0371C112.6 72.395 112.288 71.7851 111.922 71.215C110.136 68.4271 107.078 66.5894 103.607 66.5894C98.1421 66.5894 93.7038 71.143 93.6334 76.788C93.6329 76.8333 93.6326 76.8787 93.6326 76.9242C93.6326 77.5728 93.6903 78.2075 93.8006 78.823C93.4539 78.7713 93.0994 78.7446 92.7389 78.7446C92.4112 78.7446 92.0884 78.7667 91.7718 78.8095C88.1455 79.3004 85.3455 82.5141 85.3455 86.4053C85.3455 90.6036 88.6048 94.0131 92.6446 94.0655Z" fill="#6A6A6A"/>
<path fill-rule="evenodd" clip-rule="evenodd" d="M31.037 22.43C31.037 23.3355 31.1175 24.2215 31.2714 25.0807C30.7882 25.0089 30.2941 24.9717 29.7917 24.9717C24.0904 24.9717 19.4686 29.7606 19.4686 35.668C19.4686 41.5297 24.0191 46.2901 29.6595 46.3635V46.3645H65.8199C65.85 46.3647 65.8802 46.3648 65.9105 46.3648C65.9407 46.3648 65.9709 46.3647 66.0011 46.3645H66.7784V46.3405C73.8615 45.9432 79.4678 40.7171 79.4678 34.3286C79.4678 28.6841 75.0913 23.9471 69.1867 22.6462C69.1888 22.574 69.1898 22.5015 69.1898 22.4287C69.1898 18.497 66.1138 15.3098 62.3192 15.3098C60.6228 15.3098 59.0699 15.9469 57.8714 17.0027C55.8016 11.7229 50.8021 8 44.9635 8C37.2721 8 31.037 14.4605 31.037 22.43Z" fill="white"/>
<path fill-rule="evenodd" clip-rule="evenodd" d="M33.7312 27.4686L33.2401 24.728C33.1069 23.9847 33.037 23.2168 33.037 22.43C33.037 15.4976 38.443 10 44.9635 10C49.9181 10 54.2169 13.1603 56.0093 17.7327L57.0513 20.3905L59.1934 18.5034C60.0468 17.7516 61.1357 17.3098 62.3192 17.3098C64.9428 17.3098 67.1898 19.5341 67.1898 22.4287C67.1898 22.4822 67.189 22.5354 67.1875 22.5883L67.1396 24.2431L68.7564 24.5993C73.9228 25.7376 77.4678 29.7942 77.4678 34.3286C77.4678 39.4507 72.9081 43.9935 66.6664 44.3437L66.2944 44.3645H65.9895L65.9105 44.3648L65.8315 44.3646L65.8199 44.3645L29.7547 44.3645L29.6855 44.3636C25.2032 44.3053 21.4686 40.5001 21.4686 35.668C21.4686 30.7976 25.2613 26.9717 29.7917 26.9717C30.1953 26.9717 30.591 27.0015 30.9772 27.059L33.7312 27.4686ZM29.6595 46.3635V46.3645H65.8199L65.9105 46.3648L66.0011 46.3645H66.7784V46.3405C73.8615 45.9432 79.4678 40.7171 79.4678 34.3286C79.4678 28.6841 75.0913 23.9471 69.1867 22.6462C69.1888 22.574 69.1898 22.5015 69.1898 22.4287C69.1898 18.497 66.1138 15.3098 62.3192 15.3098C61.346 15.3098 60.42 15.5195 59.581 15.8976C58.9576 16.1786 58.3823 16.5526 57.8714 17.0027C57.6185 16.3578 57.322 15.7361 56.9856 15.1415C54.5677 10.8689 50.0889 8 44.9635 8C37.2721 8 31.037 14.4605 31.037 22.43C31.037 22.6334 31.041 22.8358 31.0491 23.0371C31.0768 23.7321 31.152 24.4145 31.2714 25.0807C30.7882 25.0089 30.2941 24.9717 29.7917 24.9717C29.6029 24.9717 29.4153 24.9769 29.229 24.9873C23.7894 25.2901 19.4686 29.9562 19.4686 35.668C19.4686 41.5297 24.0191 46.2901 29.6595 46.3635Z" fill="#6A6A6A"/>
</svg>
