<?xml version="1.0" encoding="utf-8"?>
<!--
  Copyright 2023-2025 Solace Systems. All rights reserved.

  Licensed under the Apache License, Version 2.0 (the "License");
  you may not use this file except in compliance with the License.
  You may obtain a copy of the License at

      http://www.apache.org/licenses/LICENSE-2.0

  Unless required by applicable law or agreed to in writing, software
  distributed under the License is distributed on an "AS IS" BASIS,
  WITHOUT WARRANTIES OR CONDITIONS OF ANY KIND, either express or implied.
  See the License for the specific language governing permissions and
  limitations under the License.
-->
<svg width="136" height="136" viewBox="0 0 136 136" fill="none" xmlns="http://www.w3.org/2000/svg">
<path d="M117.054 62.084C117.054 91.9537 92.8404 116.168 62.9707 116.168C33.1009 116.168 8.88672 91.9537 8.88672 62.084C8.88672 32.2143 33.1009 8 62.9707 8C92.8404 8 117.054 32.2143 117.054 62.084Z" fill="#E6F4F4"/>
<path d="M30.7212 79.7905V120.594C30.7212 121.699 31.6166 122.594 32.7212 122.594H126C127.105 122.594 128 121.699 128 120.594V79.7905C128 65.9834 116.807 54.7905 103 54.7905H55.7212C41.9141 54.7905 30.7212 65.9834 30.7212 79.7905Z" fill="white"/>
<path fill-rule="evenodd" clip-rule="evenodd" d="M32.7212 79.7905V120.594H126V79.7905C126 67.088 115.703 56.7905 103 56.7905H55.7212C43.0186 56.7905 32.7212 67.088 32.7212 79.7905ZM30.7212 120.594V79.7905C30.7212 65.9834 41.9141 54.7905 55.7212 54.7905H103C116.807 54.7905 128 65.9834 128 79.7905V120.594C128 121.699 127.105 122.594 126 122.594H32.7212C31.6166 122.594 30.7212 121.699 30.7212 120.594Z" fill="#6A6A6A"/>
<path fill-rule="evenodd" clip-rule="evenodd" d="M95.1758 113.645C95.1758 113.368 95.3996 113.145 95.6758 113.145L127.4 113.145C127.676 113.145 127.9 113.368 127.9 113.645C127.9 113.921 127.676 114.145 127.4 114.145L95.6758 114.145C95.3996 114.145 95.1758 113.921 95.1758 113.645Z" fill="#6A6A6A"/>
<path fill-rule="evenodd" clip-rule="evenodd" d="M95.1758 109.1C95.1758 108.824 95.3996 108.6 95.6758 108.6L127.4 108.6C127.676 108.6 127.9 108.824 127.9 109.1C127.9 109.376 127.676 109.6 127.4 109.6L95.6758 109.6C95.3996 109.6 95.1758 109.376 95.1758 109.1Z" fill="#6A6A6A"/>
<path d="M30.7212 77.3137V120.594C30.7212 121.699 31.6166 122.594 32.7212 122.594H73.7674C74.872 122.594 75.7674 121.699 75.7674 120.594V77.3137C75.7674 64.8745 65.6835 54.7905 53.2443 54.7905C40.8051 54.7905 30.7212 64.8745 30.7212 77.3137Z" fill="white"/>
<path fill-rule="evenodd" clip-rule="evenodd" d="M32.7212 77.3137V120.594H73.7674V77.3137C73.7674 65.979 64.5789 56.7905 53.2443 56.7905C41.9097 56.7905 32.7212 65.979 32.7212 77.3137ZM30.7212 120.594V77.3137C30.7212 64.8745 40.8051 54.7905 53.2443 54.7905C65.6835 54.7905 75.7674 64.8745 75.7674 77.3137V120.594C75.7674 121.699 74.872 122.594 73.7674 122.594H32.7212C31.6166 122.594 30.7212 121.699 30.7212 120.594Z" fill="#6A6A6A"/>
<path d="M73.7402 113.646C74.8448 113.646 75.7402 114.541 75.7402 115.646L75.7402 120.589C75.7402 121.694 74.8448 122.589 73.7402 122.589L39.3497 122.589L18.5881 122.589C17.7649 122.589 17.0976 123.257 17.0976 124.08V124.08C17.0976 124.903 16.4302 125.57 15.607 125.57L9.99995 125.57C8.89538 125.57 7.99995 124.675 7.99995 123.57L7.99995 115.646C7.99995 114.541 8.89538 113.646 9.99995 113.646L73.7402 113.646Z" fill="white"/>
<path fill-rule="evenodd" clip-rule="evenodd" d="M73.7402 120.589L73.7402 115.646L9.99995 115.646L9.99995 123.57L15.1345 123.57C15.3811 121.884 16.8334 120.589 18.5881 120.589L73.7402 120.589ZM75.7402 115.646C75.7402 114.541 74.8448 113.646 73.7402 113.646L9.99995 113.646C8.89538 113.646 7.99995 114.541 7.99995 115.646L7.99995 123.57C7.99995 124.675 8.89538 125.57 9.99995 125.57L15.607 125.57C16.4302 125.57 17.0976 124.903 17.0976 124.08C17.0976 123.257 17.7649 122.589 18.5881 122.589L73.7402 122.589C74.8448 122.589 75.7402 121.694 75.7402 120.589L75.7402 115.646Z" fill="#6A6A6A"/>
<path d="M108.1 84.3001V71.2637C108.1 70.7114 107.652 70.2637 107.1 70.2637L96.1988 70.2637V84.3001C96.1988 85.1245 97.1404 85.5948 97.7996 85.0995L101.548 82.2822C101.904 82.0148 102.394 82.0148 102.75 82.2822L106.499 85.0995C107.158 85.5948 108.1 85.1245 108.1 84.3001Z" fill="white"/>
<path fill-rule="evenodd" clip-rule="evenodd" d="M79.1353 70.2637C79.1353 69.7114 79.583 69.2637 80.1353 69.2637L107.1 69.2637C108.204 69.2637 109.1 70.1591 109.1 71.2637V84.3001C109.1 85.949 107.216 86.8896 105.898 85.8989L102.149 83.0817L98.4003 85.8989C97.0821 86.8895 95.1988 85.949 95.1988 84.3001V71.2637L80.1353 71.2637C79.583 71.2637 79.1353 70.816 79.1353 70.2637ZM97.1988 71.2637V84.3001L100.948 81.4828C101.659 80.948 102.639 80.9479 103.351 81.4828L107.1 84.3001V71.2637L97.1988 71.2637Z" fill="#6A6A6A"/>
<path d="M50.7404 34.9205V25.8671L53.9911 25.0522L58.4268 32.1462L52.2476 35.7824C51.581 36.1747 50.7404 35.694 50.7404 34.9205Z" fill="white"/>
<path fill-rule="evenodd" clip-rule="evenodd" d="M54.4535 23.9058L49.7405 25.0872V34.9209C49.7405 36.4679 51.4216 37.4291 52.7548 36.6446L59.8193 32.4874L54.4535 23.9058ZM53.5289 26.1994L57.0343 31.8057L51.7405 34.9209V26.6477L53.5289 26.1994Z" fill="#6A6A6A"/>
<path d="M61.5976 41.3185L82.9972 12.3577C83.5252 11.6432 82.9287 10.6463 82.0494 10.7738L40.5734 16.7894C39.6789 16.9191 39.4018 18.0748 40.1402 18.596L49.9527 25.5224C50.0604 25.5985 50.1521 25.6951 50.2223 25.8067L59.9471 41.2569C60.3221 41.8528 61.1792 41.8848 61.5976 41.3185Z" fill="white"/>
<path fill-rule="evenodd" clip-rule="evenodd" d="M50.2223 25.8067L51.9149 24.7413C51.7042 24.4065 51.4293 24.1166 51.106 23.8885L43.3429 18.4086L79.9641 13.0972L60.8595 38.952L51.9149 24.7413L50.2223 25.8067ZM41.2936 16.9621L41.2949 16.963ZM82.9972 12.3577L61.5976 41.3185C61.1792 41.8848 60.3221 41.8528 59.9471 41.2569L50.2223 25.8067C50.1521 25.6951 50.0604 25.5985 49.9527 25.5224L40.1402 18.596C39.4018 18.0748 39.6789 16.9191 40.5734 16.7894L82.0494 10.7738C82.9287 10.6463 83.5252 11.6432 82.9972 12.3577Z" fill="#6A6A6A"/>
<path fill-rule="evenodd" clip-rule="evenodd" d="M81.3191 11.2173L50.3565 24.1293L51.1263 25.9752L82.0889 13.0632L81.3191 11.2173Z" fill="#6A6A6A"/>
<path fill-rule="evenodd" clip-rule="evenodd" d="M45.7446 36.7121C46.0792 36.5764 46.4053 36.4513 46.7217 36.3374L47.0605 37.2783C46.7574 37.3874 46.4438 37.5076 46.1205 37.6388C45.8646 37.7426 45.573 37.6193 45.4692 37.3634C45.3654 37.1075 45.4887 36.816 45.7446 36.7121ZM43.5472 38.2517C43.6726 38.4977 43.5748 38.7988 43.3287 38.9242C42.7412 39.2235 42.1366 39.5483 41.5188 39.8971C41.2783 40.0329 40.9733 39.948 40.8376 39.7075C40.7018 39.4671 40.7867 39.1621 41.0272 39.0263C41.6568 38.6708 42.2739 38.3393 42.8747 38.0332C43.1207 37.9078 43.4218 38.0056 43.5472 38.2517ZM39.0283 40.7975C39.177 41.0302 39.1088 41.3393 38.8761 41.488C38.3082 41.8508 37.7345 42.2306 37.1578 42.6265C36.9302 42.7828 36.6189 42.7249 36.4626 42.4973C36.3063 42.2696 36.3642 41.9584 36.5919 41.8021C37.1776 41.4 37.7605 41.0141 38.3378 40.6453C38.5705 40.4966 38.8797 40.5648 39.0283 40.7975ZM34.7533 43.7321C34.9203 43.9521 34.8774 44.2657 34.6574 44.4327C34.1157 44.8441 33.5747 45.2682 33.0367 45.7045C32.8222 45.8784 32.5073 45.8455 32.3334 45.631C32.1595 45.4165 32.1924 45.1016 32.4069 44.9277C32.9533 44.4847 33.5026 44.0539 34.0527 43.6363C34.2727 43.4693 34.5863 43.5122 34.7533 43.7321ZM30.723 47.0033C30.9073 47.2089 30.89 47.525 30.6844 47.7094C30.175 48.1659 29.6716 48.6327 29.1761 49.109C28.9771 49.3004 28.6606 49.2942 28.4692 49.0951C28.2778 48.896 28.284 48.5795 28.4831 48.3881C28.9872 47.9035 29.4992 47.4288 30.0169 46.9647C30.2225 46.7804 30.5386 46.7977 30.723 47.0033ZM26.9867 50.6011C27.1891 50.789 27.2008 51.1054 27.0129 51.3077C26.5456 51.811 26.0892 52.3226 25.6458 52.8419C25.4665 53.0519 25.1509 53.0768 24.9409 52.8975C24.7309 52.7182 24.706 52.4026 24.8853 52.1926C25.3381 51.6623 25.8037 51.1402 26.2801 50.6273C26.468 50.4249 26.7844 50.4132 26.9867 50.6011ZM23.6251 54.5485C23.8472 54.7127 23.8942 55.0257 23.7301 55.2478C23.3214 55.8009 22.9294 56.3607 22.5562 56.9265C22.4042 57.157 22.0941 57.2207 21.8635 57.0686C21.633 56.9166 21.5694 56.6065 21.7214 56.376C22.1049 55.7945 22.5071 55.2201 22.9258 54.6535C23.09 54.4314 23.403 54.3844 23.6251 54.5485ZM20.7782 58.8848C21.0218 59.0148 21.1139 59.3177 20.9839 59.5613C20.6607 60.1669 20.3614 60.7776 20.0882 61.3925C19.9761 61.6449 19.6806 61.7586 19.4283 61.6464C19.1759 61.5343 19.0622 61.2388 19.1744 60.9865C19.4578 60.3485 19.7678 59.7162 20.1017 59.0905C20.2317 58.8469 20.5345 58.7548 20.7782 58.8848ZM18.6888 63.6247C18.9532 63.7041 19.1033 63.9828 19.0239 64.2473C18.8281 64.8997 18.6645 65.5551 18.5355 66.2127C18.4823 66.4837 18.2196 66.6603 17.9486 66.6071C17.6776 66.554 17.501 66.2912 17.5542 66.0202C17.6898 65.3291 17.8614 64.6419 18.0661 63.9599C18.1455 63.6954 18.4243 63.5453 18.6888 63.6247ZM17.7102 68.7046C17.9862 68.7122 18.2039 68.9421 18.1963 69.2181C18.178 69.8877 18.1989 70.5585 18.2618 71.2295C18.2875 71.5044 18.0855 71.7482 17.8106 71.7739C17.5356 71.7997 17.2919 71.5977 17.2661 71.3227C17.1994 70.6105 17.1773 69.8995 17.1967 69.1907C17.2043 68.9147 17.4342 68.6971 17.7102 68.7046ZM54.5791 74.0885C54.6299 73.8171 54.8911 73.6382 55.1625 73.6889C55.9278 73.832 56.6344 74.0882 57.2737 74.4349C57.5164 74.5665 57.6065 74.87 57.4748 75.1128C57.3432 75.3555 57.0397 75.4456 56.797 75.314C56.2483 75.0164 55.6404 74.7956 54.9787 74.6719C54.7073 74.6212 54.5284 74.36 54.5791 74.0885ZM52.4417 74.1491C52.4999 74.4191 52.3283 74.6851 52.0584 74.7433C51.7452 74.8108 51.4242 74.8978 51.0957 75.0057C50.7631 75.1149 50.4486 75.2328 50.152 75.3588C49.8978 75.4667 49.6043 75.3481 49.4964 75.094C49.3885 74.8398 49.507 74.5462 49.7612 74.4383C50.085 74.3008 50.4259 74.1731 50.7837 74.0556C51.1443 73.9372 51.4991 73.8409 51.8476 73.7658C52.1175 73.7076 52.3835 73.8792 52.4417 74.1491ZM18.2018 73.8491C18.4673 73.773 18.7441 73.9266 18.8202 74.1921C19.0017 74.8257 19.2243 75.4592 19.4906 76.0918C19.5978 76.3464 19.4783 76.6395 19.2238 76.7467C18.9692 76.8538 18.6761 76.7343 18.5689 76.4798C18.2873 75.8108 18.0514 75.1397 17.8588 74.4674C17.7828 74.202 17.9364 73.9251 18.2018 73.8491ZM47.6849 76.2364C47.8787 76.433 47.8764 76.7496 47.6797 76.9434C47.193 77.4231 46.8361 77.9439 46.6 78.4922C46.4908 78.7458 46.1967 78.8629 45.9431 78.7536C45.6894 78.6444 45.5724 78.3503 45.6816 78.0967C45.9725 77.4211 46.4061 76.7946 46.9778 76.2312C47.1745 76.0373 47.4911 76.0397 47.6849 76.2364ZM59.066 76.5412C59.2918 76.3822 59.6037 76.4364 59.7627 76.6622C60.194 77.2746 60.5326 77.9474 60.7697 78.6521C60.8577 78.9139 60.7169 79.1974 60.4552 79.2854C60.1934 79.3735 59.9099 79.2327 59.8218 78.9709C59.6151 78.3563 59.3199 77.7703 58.9451 77.2379C58.7861 77.0121 58.8402 76.7002 59.066 76.5412ZM20.1992 78.6099C20.4331 78.4631 20.7417 78.5337 20.8885 78.7676C21.2372 79.3232 21.6229 79.8775 22.0474 80.4301C22.2157 80.6491 22.1745 80.963 21.9556 81.1312C21.7366 81.2994 21.4227 81.2583 21.2544 81.0393C20.8114 80.4626 20.4076 79.8823 20.0416 79.2992C19.8948 79.0653 19.9654 78.7567 20.1992 78.6099ZM45.7596 80.881C46.0303 80.8265 46.2939 81.0017 46.3485 81.2724C46.4675 81.8633 46.6884 82.4754 47.0148 83.0986C47.1429 83.3433 47.0485 83.6454 46.8039 83.7735C46.5592 83.9016 46.2571 83.8072 46.129 83.5626C45.764 82.8657 45.5081 82.1643 45.3682 81.4699C45.3136 81.1992 45.4889 80.9356 45.7596 80.881ZM60.6819 81.4124C60.956 81.446 61.1509 81.6955 61.1173 81.9696C61.0267 82.7068 60.8209 83.4353 60.4895 84.126C60.3701 84.375 60.0714 84.48 59.8224 84.3605C59.5735 84.2411 59.4685 83.9424 59.5879 83.6934C59.8703 83.1049 60.0469 82.4819 60.1247 81.8477C60.1584 81.5737 60.4078 81.3787 60.6819 81.4124ZM23.3423 82.7176C23.5395 82.5242 23.8561 82.5273 24.0494 82.7244C24.2888 82.9684 24.5364 83.2119 24.7924 83.4549C25.0369 83.6869 25.2822 83.912 25.5283 84.1304C25.7349 84.3137 25.7537 84.6297 25.5705 84.8363C25.3872 85.0428 25.0712 85.0617 24.8646 84.8784C24.6101 84.6526 24.3565 84.4199 24.104 84.1803C23.8395 83.9293 23.5834 83.6774 23.3355 83.4246C23.1421 83.2275 23.1452 82.9109 23.3423 82.7176ZM48.0757 85.4926C48.2761 85.3026 48.5926 85.311 48.7826 85.5114C49.2234 85.9762 49.7216 86.4374 50.2771 86.8903C50.4911 87.0648 50.5232 87.3797 50.3487 87.5938C50.1742 87.8078 49.8592 87.8398 49.6452 87.6653C49.0591 87.1875 48.5292 86.6975 48.057 86.1995C47.8669 85.9991 47.8753 85.6826 48.0757 85.4926ZM58.4557 86.0021C58.622 86.2225 58.5781 86.5361 58.3577 86.7024C58.0685 86.9207 57.7563 87.1245 57.4208 87.3122C57.1387 87.47 56.8385 87.6315 56.5213 87.795C56.2758 87.9215 55.9743 87.825 55.8478 87.5796C55.7213 87.3341 55.8177 87.0326 56.0632 86.9061C56.3703 86.7478 56.6605 86.5916 56.9327 86.4394C57.2294 86.2734 57.5033 86.0943 57.7554 85.9041C57.9758 85.7378 58.2893 85.7817 58.4557 86.0021ZM27.155 86.1006C27.3151 85.8757 27.6273 85.8231 27.8522 85.9832C28.4012 86.3738 28.9527 86.7345 29.5056 87.0669C29.7423 87.2092 29.8188 87.5164 29.6765 87.753C29.5342 87.9897 29.227 88.0662 28.9904 87.924C28.4153 87.5782 27.8423 87.2034 27.2725 86.7979C27.0475 86.6378 26.9949 86.3256 27.155 86.1006ZM54.0016 88.424C54.1051 88.68 53.9816 88.9715 53.7256 89.0751C53.6924 89.0886 53.659 89.102 53.6255 89.1154C53.9384 89.2866 54.2611 89.4549 54.5935 89.6199C54.8409 89.7427 54.9418 90.0427 54.8191 90.29C54.6963 90.5374 54.3962 90.6384 54.1489 90.5156C53.5397 90.2132 52.9606 89.8995 52.4119 89.5762C52.2126 89.6476 52.0105 89.7181 51.8055 89.7873C51.5439 89.8757 51.2602 89.7352 51.1718 89.4736C51.0834 89.212 51.2239 88.9283 51.4855 88.8399C52.1373 88.6197 52.7602 88.387 53.3505 88.1481C53.6065 88.0445 53.898 88.1681 54.0016 88.424ZM31.4765 88.6919C31.5887 88.4396 31.8843 88.3261 32.1366 88.4384C32.7484 88.7107 33.3606 88.9519 33.9717 89.1644C34.2325 89.2551 34.3704 89.54 34.2798 89.8009C34.1891 90.0617 33.9041 90.1996 33.6433 90.1089C33.006 89.8874 32.3678 89.6358 31.73 89.352C31.4777 89.2397 31.3642 88.9442 31.4765 88.6919ZM49.2221 90.0362C49.2863 90.3048 49.1207 90.5746 48.8521 90.6388C48.2006 90.7946 47.5302 90.9338 46.8433 91.052C46.5711 91.0988 46.3125 90.9162 46.2657 90.644C46.2189 90.3719 46.4015 90.1133 46.6737 90.0665C47.3385 89.9521 47.9879 89.8173 48.6195 89.6662C48.8881 89.602 49.1579 89.7677 49.2221 90.0362ZM36.2358 90.3444C36.2928 90.0742 36.5581 89.9014 36.8283 89.9584C37.4814 90.0961 38.1314 90.2044 38.7766 90.2857C39.0506 90.3203 39.2446 90.5704 39.2101 90.8444C39.1755 91.1183 38.9254 91.3124 38.6515 91.2779C37.9797 91.1932 37.3027 91.0804 36.6219 90.9368C36.3517 90.8798 36.1789 90.6146 36.2358 90.3444ZM44.2517 90.8863C44.2702 91.1619 44.0618 91.4002 43.7862 91.4186C43.1116 91.4638 42.426 91.4856 41.7312 91.4805C41.4551 91.4785 41.2328 91.2531 41.2348 90.9769C41.2368 90.7008 41.4623 90.4786 41.7384 90.4806C42.4075 90.4854 43.0685 90.4644 43.7194 90.4208C43.995 90.4024 44.2333 90.6108 44.2517 90.8863ZM56.7809 91.1415C56.8789 90.8833 57.1676 90.7534 57.4258 90.8514C58.0525 91.0893 58.7048 91.316 59.3825 91.5302C59.6458 91.6135 59.7918 91.8944 59.7085 92.1577C59.6253 92.421 59.3444 92.567 59.0811 92.4837C58.3859 92.264 57.7158 92.0311 57.071 91.7863C56.8128 91.6884 56.6829 91.3996 56.7809 91.1415ZM61.764 92.7213C61.8274 92.4525 62.0966 92.286 62.3654 92.3494C63.0217 92.5042 63.6973 92.6477 64.392 92.7791C64.6633 92.8304 64.8417 93.092 64.7904 93.3633C64.7391 93.6346 64.4775 93.813 64.2062 93.7617C63.4971 93.6276 62.8069 93.4809 62.1359 93.3227C61.8671 93.2593 61.7006 92.99 61.764 92.7213ZM66.9047 93.6951C66.9394 93.4211 67.1897 93.2272 67.4636 93.2619C68.1363 93.3471 68.8242 93.4214 69.5272 93.484C69.8023 93.5085 70.0054 93.7514 69.9809 94.0264C69.9564 94.3015 69.7136 94.5046 69.4385 94.4801C68.7233 94.4164 68.0231 94.3408 67.3379 94.254C67.064 94.2193 66.87 93.969 66.9047 93.6951ZM72.1121 94.1599C72.1224 93.884 72.3545 93.6687 72.6304 93.679C72.9771 93.692 73.327 93.7022 73.6801 93.7097L73.659 94.7095C73.3005 94.7019 72.9452 94.6915 72.593 94.6783C72.3171 94.668 72.1017 94.4359 72.1121 94.1599Z" fill="#6A6A6A"/>
</svg>