<?xml version="1.0" encoding="utf-8"?>
<!--
  Copyright 2023-2025 Solace Systems. All rights reserved.

  Licensed under the Apache License, Version 2.0 (the "License");
  you may not use this file except in compliance with the License.
  You may obtain a copy of the License at

      http://www.apache.org/licenses/LICENSE-2.0

  Unless required by applicable law or agreed to in writing, software
  distributed under the License is distributed on an "AS IS" BASIS,
  WITHOUT WARRANTIES OR CONDITIONS OF ANY KIND, either express or implied.
  See the License for the specific language governing permissions and
  limitations under the License.
-->
<svg width="48" height="48" viewBox="0 0 48 48" fill="none" xmlns="http://www.w3.org/2000/svg">
<path d="M7 5C7 4.44772 7.44772 4 8 4H37C37.5523 4 38 4.44772 38 5V38C38 38.5523 37.5523 39 37 39H8C7.44772 39 7 38.5523 7 38V5Z" fill="white"/>
<path fill-rule="evenodd" clip-rule="evenodd" d="M37 5H8L8 38H37V5ZM8 4C7.44772 4 7 4.44772 7 5V38C7 38.5523 7.44772 39 8 39H37C37.5523 39 38 38.5523 38 38V5C38 4.44772 37.5523 4 37 4H8Z" fill="#6A6A6A"/>
<path fill-rule="evenodd" clip-rule="evenodd" d="M21.5713 10.5C21.5713 10.2239 21.7879 10 22.0552 10H33.0874C33.3547 10 33.5713 10.2239 33.5713 10.5C33.5713 10.7761 33.3547 11 33.0874 11H22.0552C21.7879 11 21.5713 10.7761 21.5713 10.5Z" fill="#6A6A6A"/>
<path fill-rule="evenodd" clip-rule="evenodd" d="M21.5713 13.5C21.5713 13.2239 21.7879 13 22.0552 13H33.0874C33.3547 13 33.5713 13.2239 33.5713 13.5C33.5713 13.7761 33.3547 14 33.0874 14H22.0552C21.7879 14 21.5713 13.7761 21.5713 13.5Z" fill="#6A6A6A"/>
<path fill-rule="evenodd" clip-rule="evenodd" d="M21.5713 16.5C21.5713 16.2239 21.7879 16 22.0552 16H33.0874C33.3547 16 33.5713 16.2239 33.5713 16.5C33.5713 16.7761 33.3547 17 33.0874 17H22.0552C21.7879 17 21.5713 16.7761 21.5713 16.5Z" fill="#6A6A6A"/>
<path fill-rule="evenodd" clip-rule="evenodd" d="M11 21.5C11 21.2239 11.2035 21 11.4545 21L20.5455 21C20.7965 21 21 21.2239 21 21.5C21 21.7761 20.7965 22 20.5455 22L11.4545 22C11.2035 22 11 21.7761 11 21.5Z" fill="#6A6A6A"/>
<path fill-rule="evenodd" clip-rule="evenodd" d="M11 24.5C11 24.2239 11.2239 24 11.5 24H18.5C18.7761 24 19 24.2239 19 24.5C19 24.7761 18.7761 25 18.5 25H11.5C11.2239 25 11 24.7761 11 24.5Z" fill="#6A6A6A"/>
<path d="M19.4287 13C19.4287 15.2091 17.6378 17 15.4287 17C13.2196 17 11.4287 15.2091 11.4287 13C11.4287 10.7909 13.2196 9 15.4287 9C17.6378 9 19.4287 10.7909 19.4287 13Z" fill="#00C895"/>
<path fill-rule="evenodd" clip-rule="evenodd" d="M25.8042 25.1763C25.6444 24.6477 25.9434 24.0896 26.472 23.9297L31.9945 22.2601C32.5232 22.1003 33.0813 22.3993 33.2411 22.928L33.6367 24.2363C34.1051 24.3072 34.5651 24.4144 35.0128 24.5557L35.9613 23.5514C36.3405 23.1498 36.9754 23.1297 37.3794 23.5063L41.5675 27.4106C41.9715 27.7872 41.9916 28.418 41.6124 28.8195L40.6805 29.8061C40.7736 30.0407 40.8576 30.2811 40.932 30.527C40.9969 30.7417 41.0533 30.9569 41.1015 31.1724L42.4173 31.4759C42.9554 31.6001 43.2882 32.1364 43.1605 32.6737L41.8369 38.2444C41.7093 38.7817 41.1695 39.1166 40.6314 38.9925L39.3725 38.702C39.0627 39.0953 38.7194 39.4644 38.3452 39.8044L38.7133 41.0219C38.8731 41.5505 38.5741 42.1086 38.0455 42.2685L32.523 43.9381C31.9943 44.0979 31.4362 43.7989 31.2764 43.2702L30.9178 42.0841C30.4055 42.0109 29.903 41.8944 29.4154 41.7372L28.5568 42.6463C28.1776 43.0478 27.5427 43.068 27.1387 42.6914L22.9506 38.787C22.5466 38.4104 22.5266 37.7796 22.9058 37.3781L23.7799 36.4527C23.6947 36.2342 23.6174 36.0107 23.5484 35.7825C23.4705 35.5248 23.4048 35.2663 23.3509 35.0076L22.1016 34.7194C21.5634 34.5952 21.2307 34.059 21.3583 33.5216L22.6819 27.9509C22.8096 27.4136 23.3493 27.0787 23.8875 27.2028L25.1909 27.5036C25.4943 27.1299 25.8284 26.7789 26.1908 26.455L25.8042 25.1763Z" fill="white"/>
<path fill-rule="evenodd" clip-rule="evenodd" d="M32.8623 25.1305L32.2839 23.2173L26.7614 24.8869L27.3325 26.7758L26.8571 27.2007C26.5347 27.4888 26.2374 27.8011 25.9673 28.1338L25.5741 28.6183L23.6626 28.1772L23.6612 28.177C23.6612 28.177 23.66 28.1773 23.658 28.1785C23.656 28.1797 23.655 28.181 23.655 28.181L23.6548 28.1821L22.3327 33.7464L24.1994 34.1771L24.3299 34.8037C24.3778 35.0337 24.4362 35.2636 24.5056 35.4931C24.5671 35.6964 24.6358 35.8952 24.7116 36.0894L24.9415 36.6791L23.6373 38.06L27.8206 41.9599L27.8217 41.9609C27.8217 41.9609 27.823 41.9612 27.8253 41.9611C27.8276 41.961 27.8291 41.9605 27.8291 41.9605L27.8298 41.9596L29.1217 40.5919L29.7222 40.7854C30.1562 40.9253 30.6034 41.029 31.0592 41.0942L31.6904 41.1843L32.2336 42.9809L37.7561 41.3113L37.2052 39.4891L37.6727 39.0643C38.0056 38.7618 38.3112 38.4333 38.587 38.0832L38.9794 37.5851L40.8562 38.0181L40.8574 38.0183L40.8591 38.0177L40.8608 38.0168L40.8637 38.0145L40.864 38.0132L42.1861 32.4489L40.2631 32.0052L40.1256 31.3906C40.0828 31.1991 40.0326 31.0076 39.9748 30.8164C39.9085 30.5974 39.8338 30.3835 39.7511 30.175L39.516 29.5827L40.8809 28.1376L36.6975 24.2377L37.3794 23.5063L41.5675 27.4106C41.9715 27.7872 41.9916 28.418 41.6124 28.8195L40.6805 29.8061C40.7736 30.0407 40.8576 30.2811 40.932 30.527C40.9969 30.7417 41.0533 30.9569 41.1015 31.1724L42.4173 31.4759C42.9554 31.6001 43.2882 32.1364 43.1605 32.6737L41.8369 38.2444C41.7093 38.7817 41.1695 39.1166 40.6314 38.9925L39.3725 38.702C39.0627 39.0953 38.7194 39.4644 38.3452 39.8044L38.7133 41.0219C38.8731 41.5505 38.5741 42.1086 38.0455 42.2685L32.523 43.9381C31.9943 44.0979 31.4362 43.7989 31.2764 43.2702L30.9178 42.0841C30.4055 42.0109 29.903 41.8944 29.4154 41.7372L28.5568 42.6463C28.1776 43.0478 27.5427 43.068 27.1387 42.6914L22.9506 38.787C22.5466 38.4104 22.5266 37.7796 22.9058 37.3781L23.7799 36.4527C23.6947 36.2342 23.6174 36.0107 23.5484 35.7825C23.4705 35.5248 23.4048 35.2663 23.3509 35.0076L22.1016 34.7194C21.5634 34.5952 21.2307 34.059 21.3583 33.5216L22.6819 27.9509C22.8096 27.4136 23.3493 27.0787 23.8875 27.2028L25.1909 27.5036C25.4943 27.1299 25.8284 26.7789 26.1908 26.455L25.8042 25.1763C25.6444 24.6477 25.9434 24.0896 26.472 23.9297L31.9945 22.2601C32.5232 22.1003 33.0813 22.3993 33.2411 22.928L33.6367 24.2363C34.1051 24.3072 34.5651 24.4144 35.0128 24.5557L35.9613 23.5514C36.3405 23.1498 36.9754 23.1297 37.3794 23.5063L36.6975 24.2377L36.6964 24.2368L36.6954 24.2366L36.6929 24.2365C36.6906 24.2366 36.6891 24.2372 36.6891 24.2372L36.6883 24.238L35.3094 25.698L34.7117 25.5093C34.3133 25.3835 33.9039 25.2881 33.4871 25.2251L32.8623 25.1305Z" fill="#6A6A6A"/>
<path d="M36.139 32.1631C36.7783 34.2777 35.5823 36.5102 33.4677 37.1495C31.3531 37.7888 29.1206 36.5929 28.4813 34.4783C27.842 32.3636 29.038 30.1312 31.1526 29.4919C33.2672 28.8526 35.4997 30.0485 36.139 32.1631Z" fill="white"/>
<path fill-rule="evenodd" clip-rule="evenodd" d="M33.1783 36.1923C34.7643 35.7129 35.6612 34.0385 35.1818 32.4525C34.7023 30.8666 33.0279 29.9696 31.442 30.4491C29.856 30.9285 28.959 32.6029 29.4385 34.1889C29.918 35.7748 31.5923 36.6718 33.1783 36.1923ZM33.4677 37.1495C35.5823 36.5102 36.7783 34.2777 36.139 32.1631C35.4997 30.0485 33.2672 28.8526 31.1526 29.4919C29.038 30.1312 27.842 32.3636 28.4813 34.4783C29.1206 36.5929 31.3531 37.7888 33.4677 37.1495Z" fill="#6A6A6A"/>
</svg>