<svg width="48" height="48" viewBox="0 0 48 48" fill="none" xmlns="http://www.w3.org/2000/svg">
<path d="M7 4C7 3.44772 7.44772 3 8 3H37C37.5523 3 38 3.44772 38 4V37C38 37.5523 37.5523 38 37 38H8C7.44772 38 7 37.5523 7 37V4Z" fill="white"/>
<path fill-rule="evenodd" clip-rule="evenodd" d="M37 4H8L8 37H37V4ZM8 3C7.44772 3 7 3.44772 7 4V37C7 37.5523 7.44772 38 8 38H37C37.5523 38 38 37.5523 38 37V4C38 3.44772 37.5523 3 37 3H8Z" fill="#6A6A6A"/>
<path fill-rule="evenodd" clip-rule="evenodd" d="M21.1714 9.5C21.1714 9.22386 21.3953 9 21.6714 9H33.0714C33.3476 9 33.5714 9.22386 33.5714 9.5C33.5714 9.77614 33.3476 10 33.0714 10H21.6714C21.3953 10 21.1714 9.77614 21.1714 9.5Z" fill="#6A6A6A"/>
<path fill-rule="evenodd" clip-rule="evenodd" d="M21.1714 12.5C21.1714 12.2239 21.3953 12 21.6714 12H33.0714C33.3476 12 33.5714 12.2239 33.5714 12.5C33.5714 12.7761 33.3476 13 33.0714 13H21.6714C21.3953 13 21.1714 12.7761 21.1714 12.5Z" fill="#6A6A6A"/>
<path fill-rule="evenodd" clip-rule="evenodd" d="M21.1714 15.5C21.1714 15.2239 21.3953 15 21.6714 15H33.0714C33.3476 15 33.5714 15.2239 33.5714 15.5C33.5714 15.7761 33.3476 16 33.0714 16H21.6714C21.3953 16 21.1714 15.7761 21.1714 15.5Z" fill="#6A6A6A"/>
<path fill-rule="evenodd" clip-rule="evenodd" d="M11 20.5C11 20.2239 11.2239 20 11.5 20L21.5 20C21.7761 20 22 20.2239 22 20.5C22 20.7761 21.7761 21 21.5 21L11.5 21C11.2239 21 11 20.7761 11 20.5Z" fill="#6A6A6A"/>
<path fill-rule="evenodd" clip-rule="evenodd" d="M11 23.5C11 23.2239 11.2239 23 11.5 23H18.5C18.7761 23 19 23.2239 19 23.5C19 23.7761 18.7761 24 18.5 24H11.5C11.2239 24 11 23.7761 11 23.5Z" fill="#6A6A6A"/>
<circle cx="15.4285" cy="12" r="4" fill="#00C895"/>
<path fill-rule="evenodd" clip-rule="evenodd" d="M26.8042 26.1762C26.6444 25.6476 26.9434 25.0894 27.472 24.9296L32.9945 23.26C33.5232 23.1002 34.0813 23.3992 34.2411 23.9278L34.6367 25.2362C35.1051 25.3071 35.5651 25.4142 36.0128 25.5555L36.9613 24.5512C37.3405 24.1497 37.9754 24.1295 38.3794 24.5061L42.5675 28.4105C42.9715 28.7871 42.9916 29.4179 42.6124 29.8194L41.6805 30.806C41.7736 31.0406 41.8576 31.281 41.932 31.5269C41.9969 31.7416 42.0533 31.9568 42.1015 32.1722L43.4173 32.4758C43.9554 32.6 44.2882 33.1362 44.1605 33.6736L42.8369 39.2443C42.7093 39.7816 42.1695 40.1165 41.6314 39.9924L40.3725 39.7019C40.0627 40.0952 39.7194 40.4643 39.3452 40.8043L39.7133 42.0217C39.8731 42.5504 39.5741 43.1085 39.0455 43.2683L33.523 44.9379C32.9943 45.0978 32.4362 44.7988 32.2764 44.2701L31.9178 43.084C31.4055 43.0108 30.903 42.8942 30.4154 42.7371L29.5568 43.6461C29.1776 44.0477 28.5427 44.0679 28.1387 43.6913L23.9506 39.7869C23.5466 39.4103 23.5266 38.7795 23.9058 38.378L24.7799 37.4525C24.6947 37.2341 24.6174 37.0106 24.5484 36.7824C24.4705 36.5247 24.4048 36.2662 24.3509 36.0075L23.1016 35.7192C22.5634 35.5951 22.2307 35.0588 22.3583 34.5215L23.6819 28.9508C23.8096 28.4135 24.3493 28.0786 24.8875 28.2027L26.1909 28.5035C26.4943 28.1297 26.8284 27.7788 27.1908 27.4549L26.8042 26.1762Z" fill="white"/>
<path fill-rule="evenodd" clip-rule="evenodd" d="M33.8623 26.1304L33.2839 24.2172L27.7614 25.8868L28.3325 27.7757L27.8571 28.2005C27.5347 28.4887 27.2374 28.801 26.9673 29.1337L26.5741 29.6181L24.6626 29.1771C24.6613 29.1768 24.661 29.1768 24.6612 29.1769C24.6614 29.1769 24.6612 29.1769 24.6612 29.1769C24.661 29.1769 24.66 29.1772 24.658 29.1784C24.656 29.1796 24.6551 29.1807 24.655 29.1809C24.655 29.1809 24.655 29.181 24.655 29.1809C24.6551 29.1807 24.6551 29.1807 24.6548 29.182L23.3327 34.7463L25.1994 35.177L25.3299 35.8036C25.3778 36.0335 25.4362 36.2635 25.5056 36.493C25.5671 36.6963 25.6358 36.8951 25.7116 37.0893L25.9415 37.679L24.6373 39.0599L28.8206 42.9598C28.8216 42.9607 28.822 42.9609 28.8217 42.9607C28.8217 42.9607 28.8218 42.9608 28.8217 42.9607C28.8219 42.9608 28.823 42.9611 28.8253 42.961C28.8276 42.9609 28.8289 42.9604 28.8291 42.9603C28.8289 42.9605 28.8289 42.9605 28.8298 42.9595L30.1217 41.5918L30.7222 41.7853C31.1562 41.9252 31.6034 42.0289 32.0592 42.094L32.6904 42.1842L33.2336 43.9807L38.7561 42.3111L38.2052 40.489L38.6727 40.0642C39.0056 39.7617 39.3112 39.4332 39.587 39.0831L39.9794 38.5849L41.8562 39.018C41.8568 39.0181 41.8572 39.0182 41.8574 39.0182C41.8577 39.0181 41.8583 39.018 41.8591 39.0176C41.8596 39.0173 41.8602 39.0171 41.8608 39.0167C41.8625 39.0156 41.8634 39.0147 41.8637 39.0143C41.8637 39.0143 41.8637 39.0144 41.8637 39.0143C41.8637 39.0141 41.8639 39.0136 41.864 39.0131L43.1861 33.4488L41.2631 33.0051L41.1256 32.3905C41.0828 32.199 41.0326 32.0075 40.9748 31.8163C40.9085 31.5973 40.8338 31.3834 40.7511 31.1749L40.516 30.5826L41.8809 29.1375L37.6975 25.2376L38.3794 24.5061L42.5675 28.4105C42.9715 28.7871 42.9916 29.4179 42.6124 29.8194L41.6805 30.806C41.7736 31.0406 41.8576 31.281 41.932 31.5269C41.9969 31.7416 42.0533 31.9568 42.1015 32.1722L43.4173 32.4758C43.9554 32.6 44.2882 33.1362 44.1605 33.6736L42.8369 39.2443C42.7093 39.7816 42.1695 40.1165 41.6314 39.9924L40.3725 39.7019C40.0627 40.0952 39.7194 40.4643 39.3452 40.8043L39.7133 42.0217C39.8731 42.5504 39.5741 43.1085 39.0455 43.2683L33.523 44.9379C32.9943 45.0978 32.4362 44.7988 32.2764 44.2701L31.9178 43.084C31.4055 43.0108 30.903 42.8942 30.4154 42.7371L29.5568 43.6461C29.1776 44.0477 28.5427 44.0679 28.1387 43.6913L23.9506 39.7869C23.5466 39.4103 23.5266 38.7795 23.9058 38.378L24.7799 37.4525C24.6947 37.2341 24.6174 37.0106 24.5484 36.7824C24.4705 36.5247 24.4048 36.2662 24.3509 36.0075L23.1016 35.7192C22.5634 35.5951 22.2307 35.0588 22.3583 34.5215L23.6819 28.9508C23.8096 28.4135 24.3493 28.0786 24.8875 28.2027L26.1909 28.5035C26.4943 28.1297 26.8284 27.7788 27.1908 27.4549L26.8042 26.1762C26.6444 25.6476 26.9434 25.0894 27.472 24.9296L32.9945 23.26C33.5232 23.1002 34.0813 23.3992 34.2411 23.9278L34.6367 25.2362C35.1051 25.3071 35.5651 25.4142 36.0128 25.5555L36.9613 24.5512C37.3405 24.1497 37.9754 24.1295 38.3794 24.5061L37.6975 25.2376C37.6966 25.2367 37.6962 25.2365 37.6964 25.2366C37.6966 25.2367 37.6964 25.2366 37.6964 25.2366C37.6963 25.2366 37.6962 25.2366 37.6954 25.2365C37.6948 25.2364 37.6939 25.2364 37.6929 25.2364C37.6906 25.2365 37.6892 25.237 37.6891 25.237C37.6891 25.237 37.689 25.2371 37.6891 25.237C37.6893 25.2369 37.6892 25.2369 37.6883 25.2379L36.3094 26.6978L35.7117 26.5092C35.3133 26.3834 34.9039 26.288 34.4871 26.225L33.8623 26.1304Z" fill="#6A6A6A"/>
<path d="M37.139 33.163C37.7783 35.2776 36.5823 37.5101 34.4677 38.1494C32.3531 38.7887 30.1206 37.5927 29.4813 35.4781C28.842 33.3635 30.038 31.131 32.1526 30.4917C34.2672 29.8524 36.4997 31.0484 37.139 33.163Z" fill="white"/>
<path fill-rule="evenodd" clip-rule="evenodd" d="M34.1783 37.1922C35.7643 36.7127 36.6612 35.0384 36.1818 33.4524C35.7023 31.8664 34.0279 30.9695 32.442 31.4489C30.856 31.9284 29.959 33.6028 30.4385 35.1887C30.918 36.7747 32.5923 37.6717 34.1783 37.1922ZM34.4677 38.1494C36.5823 37.5101 37.7783 35.2776 37.139 33.163C36.4997 31.0484 34.2672 29.8524 32.1526 30.4917C30.038 31.131 28.842 33.3635 29.4813 35.4781C30.1206 37.5927 32.3531 38.7887 34.4677 38.1494Z" fill="#6A6A6A"/>
</svg>
