<svg width="130" height="130" viewBox="0 0 130 130" fill="none" xmlns="http://www.w3.org/2000/svg">
<rect width="130" height="130" fill="white"/>
<path opacity="0.1" d="M127.461 63.5C127.461 93.5995 103.06 118 72.9609 118C42.8614 118 18.4609 93.5995 18.4609 63.5C18.4609 33.4005 42.8614 9 72.9609 9C103.06 9 127.461 33.4005 127.461 63.5Z" fill="#2D8EC5"/>
<path d="M91.7054 61.3507C91.7054 84.0554 73.2996 102.461 50.5949 102.461C27.8902 102.461 9.48438 84.0554 9.48438 61.3507C9.48438 38.646 27.8902 20.2402 50.5949 20.2402C73.2996 20.2402 91.7054 38.646 91.7054 61.3507Z" fill="white"/>
<path fill-rule="evenodd" clip-rule="evenodd" d="M50.5949 100.461C72.195 100.461 89.7054 82.9509 89.7054 61.3507C89.7054 39.7506 72.195 22.2402 50.5949 22.2402C28.9947 22.2402 11.4844 39.7506 11.4844 61.3507C11.4844 82.9509 28.9947 100.461 50.5949 100.461ZM50.5949 102.461C73.2996 102.461 91.7054 84.0554 91.7054 61.3507C91.7054 38.646 73.2996 20.2402 50.5949 20.2402C27.8902 20.2402 9.48438 38.646 9.48438 61.3507C9.48438 84.0554 27.8902 102.461 50.5949 102.461Z" fill="#6A6A6A"/>
<path fill-rule="evenodd" clip-rule="evenodd" d="M75.025 80.2353C74.1712 72.3187 70.8517 62.5366 65.2299 52.7992C59.608 43.0619 52.7962 35.2961 46.3671 30.5983C43.1513 28.2486 40.0705 26.6952 37.3149 26.0214C34.566 25.3492 32.2026 25.5639 30.3139 26.6543C28.4253 27.7447 27.0576 29.6842 26.2653 32.4008C25.471 35.1242 25.276 38.569 25.703 42.5287C26.5568 50.4454 29.8763 60.2275 35.4981 69.9648C41.12 79.7022 47.9318 87.468 54.3609 92.1657C57.5767 94.5154 60.6574 96.0689 63.4131 96.7427C66.1619 97.4148 68.5254 97.2002 70.414 96.1097C72.3027 95.0193 73.6703 93.0799 74.4627 90.3632C75.257 87.6399 75.452 84.1951 75.025 80.2353ZM70.914 96.9758C79.6025 91.9595 77.4454 71.9571 66.0959 52.2992C54.7464 32.6413 38.5024 20.772 29.8139 25.7883C21.1254 30.8046 23.2826 50.807 34.6321 70.4648C45.9816 90.1227 62.2256 101.992 70.914 96.9758Z" fill="#6A6A6A"/>
<path fill-rule="evenodd" clip-rule="evenodd" d="M75.717 29.7232L10.9147 67.2471L10.4136 66.3817L75.2159 28.8578L75.717 29.7232Z" fill="#6A6A6A"/>
<path fill-rule="evenodd" clip-rule="evenodd" d="M91.0491 56.0709L26.2467 93.5948L25.7456 92.7294L90.548 55.2055L91.0491 56.0709Z" fill="#6A6A6A"/>
<path fill-rule="evenodd" clip-rule="evenodd" d="M25.5357 13.5049L29.395 20.2774L28.5456 20.7777C23.3295 23.8502 18.7697 27.9201 15.1264 32.7548C11.4832 37.5896 8.82785 43.0946 7.31211 48.9555C5.79636 54.8165 5.44986 60.9186 6.29238 66.9135C7.1349 72.9083 9.14995 78.6785 12.2225 83.8947C15.295 89.1108 19.3648 93.6706 24.1996 97.3139C29.0344 100.957 34.5394 103.612 40.4003 105.128C46.2613 106.644 52.3634 106.99 58.3583 106.148C64.3531 105.305 70.1233 103.29 75.3394 100.218L76.2013 99.7101L79.6622 105.589L77.9386 106.604L75.4874 102.44C70.2755 105.366 64.5612 107.296 58.6366 108.128C52.3816 109.008 46.0148 108.646 39.8996 107.064C33.7843 105.483 28.0405 102.712 22.996 98.9112C17.9514 95.1098 13.7051 90.3521 10.4992 84.9097C7.29339 79.4673 5.19092 73.4468 4.31185 67.1918C3.43277 60.9369 3.79431 54.57 5.37581 48.4548C6.95732 42.3396 9.72782 36.5957 13.5291 31.5512C17.1326 26.7693 21.5954 22.7045 26.6862 19.5635L23.7981 14.4951L25.5357 13.5049Z" fill="#6A6A6A"/>
<path fill-rule="evenodd" clip-rule="evenodd" d="M49.3789 126.999V108.377H51.3789V126.999H49.3789Z" fill="#6A6A6A"/>
<path fill-rule="evenodd" clip-rule="evenodd" d="M63.168 127.998H37.2073V125.998H63.168V127.998Z" fill="#6A6A6A"/>
<circle cx="64.7184" cy="50.3637" r="7.18962" fill="white" stroke="#6A6A6A" stroke-width="2"/>
<path d="M74.884 30.9856L64.5 48.9711L54.116 30.9856C49.5009 22.992 55.2698 13 64.5 13C73.7302 13 79.4991 22.992 74.884 30.9856Z" fill="white" stroke="#6A6A6A" stroke-width="2"/>
<circle cx="64.4985" cy="24.7261" r="7.07516" fill="#00C895"/>
</svg>
