<svg width="130" height="130" viewBox="0 0 130 130" fill="none" xmlns="http://www.w3.org/2000/svg">
<g clip-path="url(#clip0_469_4167)">
<path opacity="0.1" d="M119 64.5C119 94.5995 94.5995 119 64.5 119C34.4005 119 10 94.5995 10 64.5C10 34.4005 34.4005 10 64.5 10C94.5995 10 119 34.4005 119 64.5Z" fill="#2D8EC5"/>
<path d="M16.9443 85.5292C48.8349 85.5292 68.2243 79.7371 73.9327 76.841C78.7833 74.3802 82.8719 67.607 82.8719 60.4869C82.8719 50.3258 75.6568 44.1328 65.4956 44.1328C55.3345 44.1328 48.1194 50.3258 48.1194 60.4869C48.1194 67.607 52.2079 74.3045 57.0585 76.841C62.5966 79.7371 81.6453 85.5292 113.536 85.5292" stroke="#6A6A6A" stroke-linecap="round" stroke-dasharray="4 4"/>
<circle cx="17.0654" cy="84.3278" r="6.95459" fill="white" stroke="#6A6A6A" stroke-width="2"/>
<path d="M26.9153 65.4913L16.8542 82.9177L6.79313 65.4913C2.32152 57.7463 7.91103 48.065 16.8542 48.065C25.7974 48.065 31.3869 57.7463 26.9153 65.4913Z" fill="white" stroke="#6A6A6A" stroke-width="2"/>
<circle cx="16.8536" cy="59.4261" r="6.87211" fill="#00C895"/>
<circle cx="113.358" cy="84.3278" r="6.95459" fill="white" stroke="#6A6A6A" stroke-width="2"/>
<path d="M123.207 65.4914L113.146 82.9177L103.085 65.4914C98.613 57.7463 104.203 48.065 113.146 48.065C122.089 48.065 127.678 57.7463 123.207 65.4914Z" fill="white" stroke="#6A6A6A" stroke-width="2"/>
<circle cx="113.145" cy="59.4258" r="6.37211" fill="white" stroke="#6A6A6A"/>
<circle cx="90.8477" cy="83.8479" r="4.59131" transform="rotate(15 90.8477 83.8479)" fill="#00C895" stroke="#00C895" stroke-width="2"/>
<circle cx="76.4317" cy="47.9144" r="4.59131" transform="rotate(15 76.4317 47.9144)" fill="white" stroke="#6A6A6A" stroke-width="2"/>
<circle cx="69.2764" cy="44.8479" r="4.59131" transform="rotate(15 69.2764 44.8479)" fill="white" stroke="#6A6A6A" stroke-width="2"/>
<circle cx="62.1221" cy="44.8479" r="4.59131" transform="rotate(15 62.1221 44.8479)" fill="white" stroke="#6A6A6A" stroke-width="2"/>
<circle cx="54.9673" cy="46.8922" r="4.59131" transform="rotate(15 54.9673 46.8922)" fill="white" stroke="#6A6A6A" stroke-width="2"/>
</g>
<defs>
<clipPath id="clip0_469_4167">
<rect width="130" height="130" fill="white"/>
</clipPath>
</defs>
</svg>
