<svg width="130" height="130" viewBox="0 0 130 130" fill="none" xmlns="http://www.w3.org/2000/svg">
<path opacity="0.1" d="M119 63.5C119 93.5995 94.5995 118 64.5 118C34.4005 118 10 93.5995 10 63.5C10 33.4005 34.4005 9 64.5 9C94.5995 9 119 33.4005 119 63.5Z" fill="#2D8EC5"/>
<path fill-rule="evenodd" clip-rule="evenodd" d="M63.2097 41.739C63.9543 41.6685 64.7169 41.6328 65.4956 41.6328C66.2744 41.6328 67.037 41.6685 67.7815 41.739C68.0564 41.765 68.2582 42.009 68.2322 42.2839C68.2061 42.5588 67.9622 42.7606 67.6873 42.7345C66.975 42.6671 66.2439 42.6328 65.4956 42.6328C64.7474 42.6328 64.0163 42.6671 63.304 42.7345C63.0291 42.7606 62.7851 42.5588 62.7591 42.2839C62.733 42.009 62.9348 41.765 63.2097 41.739ZM71.6398 42.9746C71.7255 42.7121 72.0077 42.5688 72.2702 42.6544C73.7769 43.1462 75.168 43.811 76.4197 44.6389C76.65 44.7913 76.7132 45.1015 76.5608 45.3318C76.4085 45.5621 76.0983 45.6253 75.868 45.473C74.6955 44.6974 73.3864 44.0706 71.96 43.6051C71.6975 43.5194 71.5541 43.2371 71.6398 42.9746ZM59.3514 42.9746C59.4371 43.2371 59.2938 43.5194 59.0313 43.6051C57.6049 44.0706 56.2957 44.6974 55.1233 45.473C54.8929 45.6253 54.5827 45.5621 54.4304 45.3318C54.278 45.1015 54.3413 44.7913 54.5716 44.6389C55.8232 43.811 57.2143 43.1462 58.721 42.6544C58.9835 42.5688 59.2658 42.7121 59.3514 42.9746ZM79.1383 47.6616C79.353 47.4879 79.6678 47.5211 79.8416 47.7357C80.7965 48.9154 81.5764 50.2502 82.158 51.726C82.2592 51.983 82.133 52.2733 81.8761 52.3745C81.6192 52.4758 81.3288 52.3496 81.2276 52.0927C80.6828 50.71 79.954 49.4641 79.0643 48.3649C78.8906 48.1502 78.9237 47.8354 79.1383 47.6616ZM51.8529 47.6616C52.0675 47.8354 52.1007 48.1502 51.9269 48.3649C51.0372 49.4641 50.3084 50.71 49.7636 52.0927C49.6624 52.3496 49.372 52.4758 49.1151 52.3745C48.8582 52.2733 48.732 51.983 48.8333 51.726C49.4148 50.2502 50.1947 48.9154 51.1497 47.7357C51.3234 47.5211 51.6382 47.4879 51.8529 47.6616ZM82.6941 55.7519C82.9686 55.7213 83.2159 55.9188 83.2466 56.1933C83.3296 56.935 83.3719 57.6999 83.3719 58.4869C83.3719 59.3259 83.3166 60.1596 83.2113 60.9819C83.1763 61.2558 82.9258 61.4494 82.6519 61.4144C82.378 61.3793 82.1843 61.1288 82.2194 60.8549C82.3195 60.0733 82.3719 59.282 82.3719 58.4869C82.3719 57.7358 82.3315 57.008 82.2528 56.3044C82.2221 56.03 82.4197 55.7826 82.6941 55.7519ZM48.2971 55.7519C48.5715 55.7826 48.7691 56.03 48.7384 56.3044C48.6597 57.008 48.6194 57.7358 48.6194 58.4869C48.6194 59.2824 48.6718 60.073 48.7719 60.8533C48.8071 61.1272 48.6136 61.3777 48.3397 61.4129C48.0658 61.448 47.8152 61.2545 47.7801 60.9806C47.6747 60.1595 47.6194 59.3263 47.6194 58.4869C47.6194 57.6999 47.6617 56.935 47.7446 56.1933C47.7753 55.9188 48.0227 55.7213 48.2971 55.7519ZM49.2927 65.1621C49.5504 65.063 49.8397 65.1916 49.9388 65.4494C50.5222 66.9668 51.2754 68.3827 52.1502 69.6438C52.3076 69.8707 52.2512 70.1823 52.0243 70.3397C51.7975 70.4971 51.4859 70.4407 51.3285 70.2138C50.4077 68.8863 49.6171 67.3994 49.0054 65.8082C48.9063 65.5505 49.0349 65.2612 49.2927 65.1621ZM81.7023 65.1676C81.9602 65.2662 82.0894 65.5552 81.9908 65.8131C81.3815 67.4073 80.594 68.8979 79.6763 70.2267C79.5194 70.4539 79.2079 70.5109 78.9807 70.354C78.7535 70.197 78.6965 69.8856 78.8534 69.6584C79.725 68.3965 80.4754 66.9769 81.0567 65.4561C81.1553 65.1982 81.4443 65.069 81.7023 65.1676ZM54.6373 73.1909C54.8099 72.9753 55.1246 72.9405 55.3401 73.1131C55.972 73.619 56.6254 74.0503 57.2902 74.398C57.7821 74.6552 58.3893 74.9388 59.1127 75.2417C59.3674 75.3484 59.4874 75.6414 59.3807 75.8961C59.274 76.1508 58.9811 76.2708 58.7264 76.1641C57.9831 75.8528 57.3493 75.5573 56.8268 75.2841C56.0998 74.9039 55.3927 74.4362 54.7152 73.8937C54.4996 73.7211 54.4647 73.4065 54.6373 73.1909ZM76.3663 73.2075C76.538 73.4237 76.502 73.7382 76.2857 73.91C75.6038 74.4515 74.8917 74.9152 74.1589 75.2869C73.628 75.5563 72.987 75.8475 72.238 76.1544C71.9825 76.2591 71.6904 76.1368 71.5857 75.8813C71.4811 75.6257 71.6033 75.3337 71.8589 75.229C72.5888 74.93 73.2046 74.6498 73.7065 74.3951C74.3735 74.0567 75.0294 73.6307 75.6638 73.1269C75.88 72.9551 76.1946 72.9912 76.3663 73.2075ZM68.6259 76.9411C68.7102 77.204 68.5654 77.4855 68.3024 77.5699C67.9102 77.6956 67.5033 77.8224 67.0815 77.9499C67.1894 78.0717 67.2357 78.2437 67.19 78.4125C67.1177 78.679 66.8431 78.8365 66.5766 78.7643C66.1753 78.6555 65.7844 78.5468 65.404 78.4383C65.0476 78.5382 64.6824 78.6384 64.3083 78.7386C64.0416 78.81 63.7674 78.6517 63.696 78.385C63.6548 78.2314 63.6899 78.0753 63.778 77.9569C63.3779 77.834 62.9916 77.7117 62.619 77.5903C62.3564 77.5048 62.2129 77.2226 62.2984 76.9601C62.3839 76.6975 62.6661 76.554 62.9286 76.6395C63.6946 76.8889 64.5205 77.1428 65.4063 77.3986C66.3334 77.1354 67.1972 76.8741 67.9971 76.6176C68.2601 76.5333 68.5416 76.6781 68.6259 76.9411ZM60.6394 79.1402C60.7009 79.4094 60.5324 79.6775 60.2632 79.7389C58.9855 80.0306 57.6313 80.3184 56.201 80.5984C55.93 80.6515 55.6673 80.4748 55.6142 80.2038C55.5612 79.9328 55.7379 79.6701 56.0089 79.617C57.4292 79.339 58.7733 79.0534 60.0407 78.764C60.3099 78.7026 60.5779 78.871 60.6394 79.1402ZM70.2092 79.1662C70.2711 78.8971 70.5395 78.7292 70.8086 78.7912C72.0643 79.0804 73.3971 79.3658 74.8066 79.6435C75.0775 79.6969 75.2539 79.9598 75.2005 80.2307C75.1471 80.5017 74.8842 80.678 74.6133 80.6246C73.1936 80.3449 71.8504 80.0573 70.5842 79.7656C70.3151 79.7037 70.1472 79.4353 70.2092 79.1662ZM52.5194 80.7648C52.565 81.0371 52.3812 81.2949 52.1089 81.3405C50.7929 81.561 49.4236 81.7735 48.0014 81.9759C47.7281 82.0148 47.4749 81.8247 47.436 81.5514C47.3971 81.278 47.5872 81.0248 47.8606 80.9859C49.2747 80.7847 50.6358 80.5733 51.9437 80.3542C52.216 80.3086 52.4738 80.4924 52.5194 80.7648ZM78.2613 80.7885C78.3071 80.5162 78.565 80.3326 78.8373 80.3784C80.1331 80.5964 81.4824 80.8066 82.8851 81.0067C83.1585 81.0456 83.3485 81.2989 83.3095 81.5722C83.2705 81.8456 83.0173 82.0356 82.7439 81.9966C81.3331 81.7954 79.9755 81.5839 78.6714 81.3645C78.3991 81.3187 78.2155 81.0608 78.2613 80.7885ZM44.3209 81.9582C44.3536 82.2324 44.1578 82.4812 43.8836 82.5139C42.5482 82.6732 41.1721 82.823 39.7556 82.9618C39.4808 82.9888 39.2362 82.7878 39.2093 82.513C39.1823 82.2382 39.3833 81.9935 39.6581 81.9666C41.0676 81.8285 42.4367 81.6794 43.7652 81.5209C44.0394 81.4882 44.2882 81.684 44.3209 81.9582ZM86.3889 81.975C86.4217 81.7008 86.6705 81.505 86.9447 81.5378C88.2608 81.6949 89.6178 81.8426 91.0156 81.9795C91.2904 82.0064 91.4914 82.251 91.4645 82.5258C91.4376 82.8006 91.1929 83.0016 90.9181 82.9747C89.5134 82.8372 88.1494 82.6887 86.8261 82.5307C86.5519 82.498 86.3562 82.2492 86.3889 81.975ZM36.0749 82.7885C36.0964 83.0638 35.8906 83.3044 35.6153 83.3259C34.267 83.4311 32.8859 83.5261 31.4722 83.6099C31.1965 83.6262 30.9598 83.416 30.9435 83.1403C30.9271 82.8647 31.1374 82.628 31.413 82.6116C32.8206 82.5283 34.1954 82.4336 35.5375 82.3289C35.8128 82.3074 36.0534 82.5132 36.0749 82.7885ZM94.5627 82.7976C94.5842 82.5223 94.8247 82.3165 95.1 82.338C96.4307 82.4416 97.7945 82.5351 99.1912 82.6175C99.4669 82.6338 99.6772 82.8704 99.6609 83.1461C99.6447 83.4218 99.408 83.632 99.1323 83.6158C97.7294 83.533 96.3594 83.439 95.0224 83.3349C94.7471 83.3135 94.5413 83.0729 94.5627 82.7976ZM27.8074 83.2978C27.8188 83.5737 27.6044 83.8066 27.3285 83.818C25.9714 83.8742 24.5868 83.9199 23.1749 83.9542C22.8988 83.9609 22.6696 83.7425 22.6629 83.4665C22.6562 83.1904 22.8745 82.9612 23.1506 82.9545C24.5569 82.9203 25.9358 82.8748 27.2872 82.8189C27.5631 82.8075 27.796 83.0219 27.8074 83.2978ZM102.76 83.301C102.772 83.0251 103.005 82.8106 103.281 82.822C104.62 82.8771 105.988 82.922 107.383 82.9557C107.659 82.9623 107.877 83.1915 107.871 83.4676C107.864 83.7436 107.635 83.962 107.359 83.9554C105.958 83.9216 104.585 83.8765 103.239 83.8211C102.964 83.8098 102.749 83.5769 102.76 83.301ZM19.5235 83.5169C19.5257 83.7931 19.3037 84.0187 19.0275 84.0209C18.3392 84.0264 17.6447 84.0292 16.9443 84.0292C16.6682 84.0292 16.4443 83.8053 16.4443 83.5292C16.4443 83.253 16.6682 83.0292 16.9443 83.0292C17.6421 83.0292 18.3338 83.0264 19.0196 83.0209C19.2957 83.0187 19.5213 83.2408 19.5235 83.5169ZM110.974 83.5171C110.976 83.241 111.202 83.0189 111.478 83.0211C112.158 83.0264 112.844 83.0292 113.536 83.0292C113.812 83.0292 114.036 83.253 114.036 83.5292C114.036 83.8053 113.812 84.0292 113.536 84.0292C112.841 84.0292 112.153 84.0264 111.47 84.021C111.194 84.0188 110.972 83.7932 110.974 83.5171Z" fill="#6A6A6A"/>
<path d="M25.02 82.3276C25.02 86.7208 21.4586 90.2822 17.0654 90.2822C12.6722 90.2822 9.11084 86.7208 9.11084 82.3276C9.11084 77.9344 12.6722 74.373 17.0654 74.373C21.4586 74.373 25.02 77.9344 25.02 82.3276Z" fill="white"/>
<path fill-rule="evenodd" clip-rule="evenodd" d="M17.0654 88.2822C20.3541 88.2822 23.02 85.6163 23.02 82.3276C23.02 79.039 20.3541 76.373 17.0654 76.373C13.7768 76.373 11.1108 79.039 11.1108 82.3276C11.1108 85.6163 13.7768 88.2822 17.0654 88.2822ZM17.0654 90.2822C21.4586 90.2822 25.02 86.7208 25.02 82.3276C25.02 77.9344 21.4586 74.373 17.0654 74.373C12.6722 74.373 9.11084 77.9344 9.11084 82.3276C9.11084 86.7208 12.6722 90.2822 17.0654 90.2822Z" fill="#6A6A6A"/>
<path d="M16.8543 82.9177L5.92721 63.9914C1.07071 55.5797 7.14133 45.065 16.8543 45.065L-nan -nanL-nan -nanL16.8543 45.065C26.5673 45.065 32.638 55.5797 27.7815 63.9914L16.8543 82.9177Z" fill="white"/>
<path fill-rule="evenodd" clip-rule="evenodd" d="M16.8543 82.9177L27.7815 63.9914C32.638 55.5797 26.5673 45.065 16.8543 45.065C7.14133 45.065 1.07071 55.5797 5.92721 63.9914L16.8543 82.9177ZM16.8543 78.9177L26.0494 62.9914C30.1361 55.913 25.0277 47.065 16.8543 47.065C8.68094 47.065 3.57256 55.913 7.65926 62.9914L16.8543 78.9177Z" fill="#6A6A6A"/>
<path d="M23.7252 57.4261C23.7252 61.2214 20.6484 64.2982 16.8531 64.2982C13.0577 64.2982 9.98096 61.2214 9.98096 57.4261C9.98096 53.6307 13.0577 50.554 16.8531 50.554C20.6484 50.554 23.7252 53.6307 23.7252 57.4261Z" fill="#00C895"/>
<path d="M121.312 82.3276C121.312 86.7208 117.751 90.2822 113.358 90.2822C108.965 90.2822 105.403 86.7208 105.403 82.3276C105.403 77.9344 108.965 74.373 113.358 74.373C117.751 74.373 121.312 77.9344 121.312 82.3276Z" fill="white"/>
<path fill-rule="evenodd" clip-rule="evenodd" d="M113.358 88.2822C116.647 88.2822 119.312 85.6163 119.312 82.3276C119.312 79.039 116.647 76.373 113.358 76.373C110.069 76.373 107.403 79.039 107.403 82.3276C107.403 85.6163 110.069 88.2822 113.358 88.2822ZM113.358 90.2822C117.751 90.2822 121.312 86.7208 121.312 82.3276C121.312 77.9344 117.751 74.373 113.358 74.373C108.965 74.373 105.403 77.9344 105.403 82.3276C105.403 86.7208 108.965 90.2822 113.358 90.2822Z" fill="#6A6A6A"/>
<path d="M120.017 57.4258C120.017 61.2212 116.94 64.2979 113.145 64.2979C109.349 64.2979 106.272 61.2212 106.272 57.4258C106.272 53.6305 109.349 50.5537 113.145 50.5537C116.94 50.5537 120.017 53.6305 120.017 57.4258Z" fill="white"/>
<path d="M113.146 82.9177L102.219 63.9914C97.3622 55.5797 103.433 45.065 113.146 45.065L-nan -nanL-nan -nanL113.146 45.065C122.859 45.065 128.929 55.5797 124.073 63.9914L113.146 82.9177Z" fill="white"/>
<path fill-rule="evenodd" clip-rule="evenodd" d="M113.146 82.9177L124.073 63.9914C128.929 55.5797 122.859 45.065 113.146 45.065C103.433 45.065 97.3622 55.5797 102.219 63.9914L113.146 82.9177ZM113.146 78.9177L122.341 62.9914C126.428 55.913 121.319 47.065 113.146 47.065C104.972 47.065 99.8641 55.913 103.951 62.9914L113.146 78.9177Z" fill="#6A6A6A"/>
<path fill-rule="evenodd" clip-rule="evenodd" d="M113.145 63.2979C116.388 63.2979 119.017 60.6689 119.017 57.4258C119.017 54.1827 116.388 51.5537 113.145 51.5537C109.901 51.5537 107.272 54.1827 107.272 57.4258C107.272 60.6689 109.901 63.2979 113.145 63.2979ZM113.145 64.2979C116.94 64.2979 120.017 61.2212 120.017 57.4258C120.017 53.6305 116.94 50.5537 113.145 50.5537C109.349 50.5537 106.272 53.6305 106.272 57.4258C106.272 61.2212 109.349 64.2979 113.145 64.2979Z" fill="#6A6A6A"/>
<path d="M83.2485 48.2951C82.4492 51.2778 79.3833 53.0479 76.4006 52.2487C73.4178 51.4495 71.6477 48.3836 72.4469 45.4008C73.2461 42.418 76.3121 40.6479 79.2948 41.4471C82.2776 42.2464 84.0477 45.3123 83.2485 48.2951Z" fill="#00C895"/>
<path fill-rule="evenodd" clip-rule="evenodd" d="M76.9182 50.3169C78.834 50.8302 80.8033 49.6933 81.3166 47.7774C81.83 45.8616 80.693 43.8923 78.7772 43.379C76.8614 42.8656 74.8921 44.0026 74.3788 45.9184C73.8654 47.8343 75.0024 49.8035 76.9182 50.3169ZM76.4006 52.2487C79.3833 53.0479 82.4492 51.2778 83.2485 48.2951C84.0477 45.3123 82.2776 42.2464 79.2948 41.4471C76.3121 40.6479 73.2461 42.418 72.4469 45.4008C71.6477 48.3836 73.4178 51.4495 76.4006 52.2487Z" fill="#00C895"/>
</svg>
