<svg width="130" height="130" viewBox="0 0 130 130" fill="none" xmlns="http://www.w3.org/2000/svg">
<path opacity="0.1" d="M117 52C117 77.4051 96.4051 98 71 98C45.5949 98 25 77.4051 25 52C25 26.5949 45.5949 6 71 6C96.4051 6 117 26.5949 117 52Z" fill="#2D8EC5"/>
<circle cx="62.2971" cy="58.1179" r="40.7961" fill="white" stroke="#6A6A6A" stroke-width="2"/>
<path d="M37.5029 90.7048L102.676 52.4508" stroke="#6A6A6A"/>
<path d="M21.9175 62.3685L87.091 25.5313" stroke="#6A6A6A"/>
<path d="M82.8868 93.3098C78.7591 95.693 72.714 94.1871 66.1434 89.445C59.6149 84.7334 52.7463 76.9422 47.1098 67.1796C41.4734 57.4169 38.1603 47.5729 37.3442 39.5633C36.5227 31.502 38.2411 25.5138 42.3688 23.1307C46.4966 20.7475 52.5417 22.2534 59.1122 26.9955C65.6407 31.7071 72.5093 39.4983 78.1458 49.2609C83.7823 59.0236 87.0953 68.8676 87.9115 76.8772C88.7329 84.9385 87.0145 90.9267 82.8868 93.3098Z" stroke="#6A6A6A"/>
<path d="M33.2522 9.23792L36.7943 15.5743C21.9889 23.9744 12 39.8797 12 58.1181C12 85.1139 33.8844 106.998 60.8802 106.998C70.2256 106.998 78.9584 104.376 86.3829 99.8262L89.2165 104.165" stroke="#6A6A6A" stroke-width="2"/>
<circle cx="77.6052" cy="46.7605" r="7.32735" fill="white" stroke="#6A6A6A" stroke-width="2"/>
<path d="M87.9555 27.0648L77.3823 45.378L66.8092 27.0648C62.11 18.9255 67.984 8.7515 77.3823 8.7515C86.7807 8.7515 92.6547 18.9255 87.9555 27.0648Z" fill="white" stroke="#6A6A6A" stroke-width="2"/>
<circle cx="77.3807" cy="20.6918" r="7.19415" fill="#00C895"/>
<path d="M62.2969 106.29V124" stroke="#6A6A6A"/>
<path d="M48.8374 124H75.7569" stroke="#6A6A6A" stroke-width="2"/>
</svg>
