<svg width="130" height="130" viewBox="0 0 130 130" fill="none" xmlns="http://www.w3.org/2000/svg">
<path opacity="0.1" d="M117 52C117 77.4051 96.4051 98 71 98C45.5949 98 25 77.4051 25 52C25 26.5949 45.5949 6 71 6C96.4051 6 117 26.5949 117 52Z" fill="#2D8EC5"/>
<path d="M104.093 58.1179C104.093 81.2012 85.3806 99.9139 62.2973 99.9139C39.214 99.9139 20.5012 81.2012 20.5012 58.1179C20.5012 35.0345 39.214 16.3218 62.2973 16.3218C85.3806 16.3218 104.093 35.0345 104.093 58.1179Z" fill="white"/>
<path fill-rule="evenodd" clip-rule="evenodd" d="M62.2973 97.9139C84.2761 97.9139 102.093 80.0966 102.093 58.1179C102.093 36.1391 84.2761 18.3218 62.2973 18.3218C40.3185 18.3218 22.5012 36.1391 22.5012 58.1179C22.5012 80.0966 40.3185 97.9139 62.2973 97.9139ZM62.2973 99.9139C85.3806 99.9139 104.093 81.2012 104.093 58.1179C104.093 35.0345 85.3806 16.3218 62.2973 16.3218C39.214 16.3218 20.5012 35.0345 20.5012 58.1179C20.5012 81.2012 39.214 99.9139 62.2973 99.9139Z" fill="#6A6A6A"/>
<path fill-rule="evenodd" clip-rule="evenodd" d="M102.93 52.8819L37.7562 91.136L37.25 90.2736L102.424 52.0195L102.93 52.8819Z" fill="#6A6A6A"/>
<path fill-rule="evenodd" clip-rule="evenodd" d="M87.3372 25.9665L22.1637 62.8037L21.6716 61.9332L86.8452 25.0959L87.3372 25.9665Z" fill="#6A6A6A"/>
<path fill-rule="evenodd" clip-rule="evenodd" d="M66.436 89.0396C72.9792 93.7618 78.7861 95.1 82.6368 92.8768C86.4875 90.6536 88.232 84.9556 87.4141 76.9279C86.6066 69.0034 83.3224 59.2269 77.7128 49.5109C72.1032 39.7948 65.2787 32.0624 58.8196 27.4008C52.2764 22.6786 46.4695 21.3404 42.6188 23.5636C38.7681 25.7868 37.0236 31.4848 37.8416 39.5125C38.649 47.437 41.9333 57.2134 47.5429 66.9295C53.1524 76.6456 59.977 84.378 66.436 89.0396ZM46.6768 67.4295C58.0036 87.0481 74.3273 98.829 83.1368 93.7428C91.9463 88.6566 89.9056 68.6295 78.5788 49.0109C67.252 29.3923 50.9283 17.6114 42.1188 22.6976C33.3094 27.7837 35.35 47.8109 46.6768 67.4295Z" fill="#6A6A6A"/>
<path fill-rule="evenodd" clip-rule="evenodd" d="M34.1251 8.75L38.152 15.9538L37.2878 16.4441C22.7826 24.6738 13 40.2542 13 58.1181C13 84.5616 34.4367 105.998 60.8802 105.998C70.0359 105.998 78.5887 103.429 85.8604 98.9736L86.6888 98.466L90.0537 103.618L88.3793 104.711L86.0717 101.179C78.6778 105.513 70.0677 107.998 60.8802 107.998C33.3321 107.998 11 85.6662 11 58.1181C11 39.8605 20.8097 23.8953 35.4414 15.2036L32.3794 9.72587L34.1251 8.75Z" fill="#6A6A6A"/>
<path d="M85.9321 46.7605C85.9321 51.3595 82.2038 55.0878 77.6047 55.0878C73.0056 55.0878 69.2773 51.3595 69.2773 46.7605C69.2773 42.1614 73.0056 38.4331 77.6047 38.4331C82.2038 38.4331 85.9321 42.1614 85.9321 46.7605Z" fill="white"/>
<path fill-rule="evenodd" clip-rule="evenodd" d="M77.6047 53.0878C81.0992 53.0878 83.9321 50.255 83.9321 46.7605C83.9321 43.266 81.0992 40.4331 77.6047 40.4331C74.1102 40.4331 71.2773 43.266 71.2773 46.7605C71.2773 50.255 74.1102 53.0878 77.6047 53.0878ZM77.6047 55.0878C82.2038 55.0878 85.9321 51.3595 85.9321 46.7605C85.9321 42.1614 82.2038 38.4331 77.6047 38.4331C73.0056 38.4331 69.2773 42.1614 69.2773 46.7605C69.2773 51.3595 73.0056 55.0878 77.6047 55.0878Z" fill="#6A6A6A"/>
<path d="M77.3818 47.3779L65.9426 27.5646C60.8585 18.7587 67.2136 7.75138 77.3818 7.75138C87.55 7.75138 93.9051 18.7588 88.821 27.5647L77.3818 47.3779Z" fill="white"/>
<path fill-rule="evenodd" clip-rule="evenodd" d="M77.3818 47.3779L88.821 27.5647C93.9051 18.7588 87.55 7.75138 77.3818 7.75138C67.2136 7.75138 60.8585 18.7587 65.9426 27.5646L77.3818 47.3779ZM77.3818 43.3779L87.0889 26.5647C91.4032 19.0921 86.0104 9.75138 77.3818 9.75138C68.7532 9.75138 63.3604 19.0921 67.6746 26.5646L77.3818 43.3779Z" fill="#6A6A6A"/>
<path d="M84.5743 20.6917C84.5743 24.6649 81.3534 27.8859 77.3802 27.8859C73.407 27.8859 70.186 24.6649 70.186 20.6917C70.186 16.7185 73.407 13.4976 77.3802 13.4976C81.3534 13.4976 84.5743 16.7185 84.5743 20.6917Z" fill="#00C895"/>
<path fill-rule="evenodd" clip-rule="evenodd" d="M61.7969 124V106.29H62.7969V124H61.7969Z" fill="#6A6A6A"/>
<path fill-rule="evenodd" clip-rule="evenodd" d="M75.7569 125H48.8374V123H75.7569V125Z" fill="#6A6A6A"/>
</svg>
