<!--
 Copyright 2023-2025 Solace Systems. All rights reserved.

 Licensed under the Apache License, Version 2.0 (the "License");
 you may not use this file except in compliance with the License.
 You may obtain a copy of the License at

     http://www.apache.org/licenses/LICENSE-2.0

 Unless required by applicable law or agreed to in writing, software
 distributed under the License is distributed on an "AS IS" BASIS,
 WITHOUT WARRANTIES OR CONDITIONS OF ANY KIND, either express or implied.
 See the License for the specific language governing permissions and
 limitations under the License.
-->
<svg width="130" height="130" viewBox="0 0 130 130" fill="none" xmlns="http://www.w3.org/2000/svg">
<path opacity="0.1" d="M120 64.5C120 94.5995 95.5995 119 65.5 119C35.4005 119 11 94.5995 11 64.5C11 34.4005 35.4005 10 65.5 10C95.5995 10 120 34.4005 120 64.5Z" fill="#2D8EC5"/>
<path fill-rule="evenodd" clip-rule="evenodd" d="M63.2097 40.739C63.9543 40.6685 64.7169 40.6328 65.4956 40.6328C66.2744 40.6328 67.037 40.6685 67.7815 40.739C68.0564 40.765 68.2582 41.009 68.2322 41.2839C68.2061 41.5588 67.9622 41.7606 67.6873 41.7345C66.975 41.6671 66.2439 41.6328 65.4956 41.6328C64.7474 41.6328 64.0163 41.6671 63.304 41.7345C63.0291 41.7606 62.7851 41.5588 62.7591 41.2839C62.733 41.009 62.9348 40.765 63.2097 40.739ZM71.6398 41.9746C71.7255 41.7121 72.0077 41.5688 72.2702 41.6544C73.7769 42.1462 75.168 42.811 76.4197 43.6389C76.65 43.7913 76.7132 44.1015 76.5608 44.3318C76.4085 44.5621 76.0983 44.6253 75.868 44.473C74.6955 43.6974 73.3864 43.0706 71.96 42.6051C71.6975 42.5194 71.5541 42.2371 71.6398 41.9746ZM59.3514 41.9746C59.4371 42.2371 59.2938 42.5194 59.0313 42.6051C57.6049 43.0706 56.2957 43.6974 55.1233 44.473C54.8929 44.6253 54.5827 44.5621 54.4304 44.3318C54.278 44.1015 54.3413 43.7913 54.5716 43.6389C55.8232 42.811 57.2143 42.1462 58.721 41.6544C58.9835 41.5688 59.2658 41.7121 59.3514 41.9746ZM79.1383 46.6616C79.353 46.4879 79.6678 46.5211 79.8416 46.7357C80.7965 47.9154 81.5764 49.2502 82.158 50.726C82.2592 50.983 82.133 51.2733 81.8761 51.3745C81.6192 51.4758 81.3288 51.3496 81.2276 51.0927C80.6828 49.71 79.954 48.4641 79.0643 47.3649C78.8906 47.1502 78.9237 46.8354 79.1383 46.6616ZM51.8529 46.6616C52.0675 46.8354 52.1007 47.1502 51.9269 47.3649C51.0372 48.4641 50.3084 49.71 49.7636 51.0927C49.6624 51.3496 49.372 51.4758 49.1151 51.3745C48.8582 51.2733 48.732 50.983 48.8333 50.726C49.4148 49.2502 50.1947 47.9154 51.1497 46.7357C51.3234 46.5211 51.6382 46.4879 51.8529 46.6616ZM82.6941 54.7519C82.9686 54.7213 83.2159 54.9188 83.2466 55.1933C83.3296 55.935 83.3719 56.6999 83.3719 57.4869C83.3719 58.3259 83.3166 59.1596 83.2113 59.9819C83.1763 60.2558 82.9258 60.4494 82.6519 60.4144C82.378 60.3793 82.1843 60.1288 82.2194 59.8549C82.3195 59.0733 82.3719 58.282 82.3719 57.4869C82.3719 56.7358 82.3315 56.008 82.2528 55.3044C82.2221 55.03 82.4197 54.7826 82.6941 54.7519ZM48.2971 54.7519C48.5715 54.7826 48.7691 55.03 48.7384 55.3044C48.6597 56.008 48.6194 56.7358 48.6194 57.4869C48.6194 58.2824 48.6718 59.073 48.7719 59.8533C48.8071 60.1272 48.6136 60.3777 48.3397 60.4129C48.0658 60.448 47.8152 60.2545 47.7801 59.9806C47.6747 59.1595 47.6194 58.3263 47.6194 57.4869C47.6194 56.6999 47.6617 55.935 47.7446 55.1933C47.7753 54.9188 48.0227 54.7213 48.2971 54.7519ZM49.2927 64.1621C49.5504 64.063 49.8397 64.1916 49.9388 64.4494C50.5222 65.9668 51.2754 67.3827 52.1502 68.6438C52.3076 68.8707 52.2512 69.1823 52.0243 69.3397C51.7975 69.4971 51.4859 69.4407 51.3285 69.2138C50.4077 67.8863 49.6171 66.3994 49.0054 64.8082C48.9063 64.5505 49.0349 64.2612 49.2927 64.1621ZM81.7023 64.1676C81.9602 64.2662 82.0894 64.5552 81.9908 64.8131C81.3815 66.4073 80.594 67.8979 79.6763 69.2267C79.5194 69.4539 79.2079 69.5109 78.9807 69.354C78.7535 69.197 78.6965 68.8856 78.8534 68.6584C79.725 67.3965 80.4754 65.9769 81.0567 64.4561C81.1553 64.1982 81.4443 64.069 81.7023 64.1676ZM54.6373 72.1909C54.8099 71.9753 55.1246 71.9405 55.3401 72.1131C55.972 72.619 56.6254 73.0503 57.2902 73.398C57.7821 73.6552 58.3893 73.9388 59.1127 74.2417C59.3674 74.3484 59.4874 74.6414 59.3807 74.8961C59.274 75.1508 58.9811 75.2708 58.7264 75.1641C57.9831 74.8528 57.3493 74.5573 56.8268 74.2841C56.0998 73.9039 55.3927 73.4362 54.7152 72.8937C54.4996 72.7211 54.4647 72.4065 54.6373 72.1909ZM76.3663 72.2075C76.538 72.4237 76.502 72.7382 76.2857 72.91C75.6038 73.4515 74.8917 73.9152 74.1589 74.2869C73.628 74.5563 72.987 74.8475 72.238 75.1544C71.9825 75.2591 71.6904 75.1368 71.5857 74.8813C71.4811 74.6257 71.6033 74.3337 71.8589 74.229C72.5888 73.93 73.2046 73.6498 73.7065 73.3951C74.3735 73.0567 75.0294 72.6307 75.6638 72.1269C75.88 71.9551 76.1946 71.9912 76.3663 72.2075ZM68.6259 75.9411C68.7102 76.204 68.5654 76.4855 68.3024 76.5699C67.9102 76.6956 67.5033 76.8224 67.0815 76.9499C67.1894 77.0717 67.2357 77.2437 67.19 77.4125C67.1177 77.679 66.8431 77.8365 66.5766 77.7643C66.1753 77.6555 65.7844 77.5468 65.404 77.4383C65.0476 77.5382 64.6824 77.6384 64.3083 77.7386C64.0416 77.81 63.7674 77.6517 63.696 77.385C63.6548 77.2314 63.6899 77.0753 63.778 76.9569C63.3779 76.834 62.9916 76.7117 62.619 76.5903C62.3564 76.5048 62.2129 76.2226 62.2984 75.9601C62.3839 75.6975 62.6661 75.554 62.9286 75.6395C63.6946 75.8889 64.5205 76.1428 65.4063 76.3986C66.3334 76.1354 67.1972 75.8741 67.9971 75.6176C68.2601 75.5333 68.5416 75.6781 68.6259 75.9411ZM60.6394 78.1402C60.7009 78.4094 60.5324 78.6775 60.2632 78.7389C58.9855 79.0306 57.6313 79.3184 56.201 79.5984C55.93 79.6515 55.6673 79.4748 55.6142 79.2038C55.5612 78.9328 55.7379 78.6701 56.0089 78.617C57.4292 78.339 58.7733 78.0534 60.0407 77.764C60.3099 77.7026 60.5779 77.871 60.6394 78.1402ZM70.2092 78.1662C70.2711 77.8971 70.5395 77.7292 70.8086 77.7912C72.0643 78.0804 73.3971 78.3658 74.8066 78.6435C75.0775 78.6969 75.2539 78.9598 75.2005 79.2307C75.1471 79.5017 74.8842 79.678 74.6133 79.6246C73.1936 79.3449 71.8504 79.0573 70.5842 78.7656C70.3151 78.7037 70.1472 78.4353 70.2092 78.1662ZM52.5194 79.7648C52.565 80.0371 52.3812 80.2949 52.1089 80.3405C50.7929 80.561 49.4236 80.7735 48.0014 80.9759C47.7281 81.0148 47.4749 80.8247 47.436 80.5514C47.3971 80.278 47.5872 80.0248 47.8606 79.9859C49.2747 79.7847 50.6358 79.5733 51.9437 79.3542C52.216 79.3086 52.4738 79.4924 52.5194 79.7648ZM78.2613 79.7885C78.3071 79.5162 78.565 79.3326 78.8373 79.3784C80.1331 79.5964 81.4824 79.8066 82.8851 80.0067C83.1585 80.0456 83.3485 80.2989 83.3095 80.5722C83.2705 80.8456 83.0173 81.0356 82.7439 80.9966C81.3331 80.7954 79.9755 80.5839 78.6714 80.3645C78.3991 80.3187 78.2155 80.0608 78.2613 79.7885ZM44.3209 80.9582C44.3536 81.2324 44.1578 81.4812 43.8836 81.5139C42.5482 81.6732 41.1721 81.823 39.7556 81.9618C39.4808 81.9888 39.2362 81.7878 39.2093 81.513C39.1823 81.2382 39.3833 80.9935 39.6581 80.9666C41.0676 80.8285 42.4367 80.6794 43.7652 80.5209C44.0394 80.4882 44.2882 80.684 44.3209 80.9582ZM86.3889 80.975C86.4217 80.7008 86.6705 80.505 86.9447 80.5378C88.2608 80.6949 89.6178 80.8426 91.0156 80.9795C91.2904 81.0064 91.4914 81.251 91.4645 81.5258C91.4376 81.8006 91.1929 82.0016 90.9181 81.9747C89.5134 81.8372 88.1494 81.6887 86.8261 81.5307C86.5519 81.498 86.3562 81.2492 86.3889 80.975ZM36.0749 81.7885C36.0964 82.0638 35.8906 82.3044 35.6153 82.3259C34.267 82.4311 32.8859 82.5261 31.4722 82.6099C31.1965 82.6262 30.9598 82.416 30.9435 82.1403C30.9271 81.8647 31.1374 81.628 31.413 81.6116C32.8206 81.5283 34.1954 81.4336 35.5375 81.3289C35.8128 81.3074 36.0534 81.5132 36.0749 81.7885ZM94.5627 81.7976C94.5842 81.5223 94.8247 81.3165 95.1 81.338C96.4307 81.4416 97.7945 81.5351 99.1912 81.6175C99.4669 81.6338 99.6772 81.8704 99.6609 82.1461C99.6447 82.4218 99.408 82.632 99.1323 82.6158C97.7294 82.533 96.3594 82.439 95.0224 82.3349C94.7471 82.3135 94.5413 82.0729 94.5627 81.7976ZM27.8074 82.2978C27.8188 82.5737 27.6044 82.8066 27.3285 82.818C25.9714 82.8742 24.5868 82.9199 23.1749 82.9542C22.8988 82.9609 22.6696 82.7425 22.6629 82.4665C22.6562 82.1904 22.8745 81.9612 23.1506 81.9545C24.5569 81.9203 25.9358 81.8748 27.2872 81.8189C27.5631 81.8075 27.796 82.0219 27.8074 82.2978ZM102.76 82.301C102.772 82.0251 103.005 81.8106 103.281 81.822C104.62 81.8771 105.988 81.922 107.383 81.9557C107.659 81.9623 107.877 82.1915 107.871 82.4676C107.864 82.7436 107.635 82.962 107.359 82.9554C105.958 82.9216 104.585 82.8765 103.239 82.8211C102.964 82.8098 102.749 82.5769 102.76 82.301ZM19.5235 82.5169C19.5257 82.7931 19.3037 83.0187 19.0275 83.0209C18.3392 83.0264 17.6447 83.0292 16.9443 83.0292C16.6682 83.0292 16.4443 82.8053 16.4443 82.5292C16.4443 82.253 16.6682 82.0292 16.9443 82.0292C17.6421 82.0292 18.3338 82.0264 19.0196 82.0209C19.2957 82.0187 19.5213 82.2408 19.5235 82.5169ZM110.974 82.5171C110.976 82.241 111.202 82.0189 111.478 82.0211C112.158 82.0264 112.844 82.0292 113.536 82.0292C113.812 82.0292 114.036 82.253 114.036 82.5292C114.036 82.8053 113.812 83.0292 113.536 83.0292C112.841 83.0292 112.153 83.0264 111.47 83.021C111.194 83.0188 110.972 82.7932 110.974 82.5171Z" fill="#6A6A6A"/>
<path d="M83.2485 47.2951C82.4492 50.2778 79.3833 52.0479 76.4006 51.2487C73.4178 50.4495 71.6477 47.3836 72.4469 44.4008C73.2461 41.418 76.3121 39.6479 79.2948 40.4471C82.2776 41.2464 84.0477 44.3123 83.2485 47.2951Z" fill="#00C895"/>
<path fill-rule="evenodd" clip-rule="evenodd" d="M76.9182 49.3169C78.834 49.8302 80.8033 48.6933 81.3166 46.7774C81.83 44.8616 80.693 42.8923 78.7772 42.379C76.8614 41.8656 74.8921 43.0026 74.3788 44.9184C73.8654 46.8343 75.0024 48.8035 76.9182 49.3169ZM76.4006 51.2487C79.3833 52.0479 82.4492 50.2778 83.2485 47.2951C84.0477 44.3123 82.2776 41.2464 79.2948 40.4471C76.3121 39.6479 73.2461 41.418 72.4469 44.4008C71.6477 47.3836 73.4178 50.4495 76.4006 51.2487Z" fill="#00C895"/>
<path d="M24.8022 83.2627C24.8022 87.6559 21.2408 91.2173 16.8477 91.2173C12.4545 91.2173 8.89307 87.6559 8.89307 83.2627C8.89307 78.8695 12.4545 75.3081 16.8477 75.3081C21.2408 75.3081 24.8022 78.8695 24.8022 83.2627Z" fill="white"/>
<path fill-rule="evenodd" clip-rule="evenodd" d="M16.8477 89.2173C20.1363 89.2173 22.8022 86.5513 22.8022 83.2627C22.8022 79.9741 20.1363 77.3081 16.8477 77.3081C13.559 77.3081 10.8931 79.9741 10.8931 83.2627C10.8931 86.5513 13.559 89.2173 16.8477 89.2173ZM16.8477 91.2173C21.2408 91.2173 24.8022 87.6559 24.8022 83.2627C24.8022 78.8695 21.2408 75.3081 16.8477 75.3081C12.4545 75.3081 8.89307 78.8695 8.89307 83.2627C8.89307 87.6559 12.4545 91.2173 16.8477 91.2173Z" fill="#6A6A6A"/>
<path d="M16.6366 83.8528L5.70944 64.9265C0.852934 56.5147 6.92356 46.0001 16.6366 46.0001C26.3496 46.0001 32.4202 56.5147 27.5637 64.9264L16.6366 83.8528Z" fill="white"/>
<path fill-rule="evenodd" clip-rule="evenodd" d="M16.6366 83.8528L27.5637 64.9264C32.4202 56.5147 26.3496 46.0001 16.6366 46.0001C6.92356 46.0001 0.852934 56.5147 5.70944 64.9265L16.6366 83.8528ZM16.6366 79.8528L25.8316 63.9264C29.9183 56.8481 24.81 48.0001 16.6366 48.0001C8.46316 48.0001 3.35478 56.8481 7.44149 63.9265L16.6366 79.8528Z" fill="#6A6A6A"/>
<path d="M23.5074 58.3611C23.5074 62.1565 20.4307 65.2332 16.6353 65.2332C12.8399 65.2332 9.76318 62.1565 9.76318 58.3611C9.76318 54.5658 12.8399 51.489 16.6353 51.489C20.4307 51.489 23.5074 54.5658 23.5074 58.3611Z" fill="#00C895"/>
<path d="M120.803 83.2627C120.803 87.6559 117.242 91.2173 112.849 91.2173C108.455 91.2173 104.894 87.6559 104.894 83.2627C104.894 78.8695 108.455 75.3081 112.849 75.3081C117.242 75.3081 120.803 78.8695 120.803 83.2627Z" fill="white"/>
<path fill-rule="evenodd" clip-rule="evenodd" d="M112.849 89.2173C116.137 89.2173 118.803 86.5513 118.803 83.2627C118.803 79.9741 116.137 77.3081 112.849 77.3081C109.56 77.3081 106.894 79.9741 106.894 83.2627C106.894 86.5513 109.56 89.2173 112.849 89.2173ZM112.849 91.2173C117.242 91.2173 120.803 87.6559 120.803 83.2627C120.803 78.8695 117.242 75.3081 112.849 75.3081C108.455 75.3081 104.894 78.8695 104.894 83.2627C104.894 87.6559 108.455 91.2173 112.849 91.2173Z" fill="#6A6A6A"/>
<path d="M112.637 83.8528L101.709 64.9265C96.8529 56.5147 102.924 46.0001 112.637 46.0001C122.35 46.0001 128.42 56.5147 123.564 64.9264L112.637 83.8528Z" fill="white"/>
<path fill-rule="evenodd" clip-rule="evenodd" d="M112.637 83.8528L123.564 64.9264C128.42 56.5147 122.35 46.0001 112.637 46.0001C102.924 46.0001 96.8529 56.5147 101.709 64.9265L112.637 83.8528ZM112.637 79.8528L121.832 63.9264C125.918 56.8481 120.81 48.0001 112.637 48.0001C104.463 48.0001 99.3548 56.8481 103.441 63.9265L112.637 79.8528Z" fill="#6A6A6A"/>
<path d="M119.507 58.3609C119.507 62.1562 116.431 65.233 112.635 65.233C108.84 65.233 105.763 62.1562 105.763 58.3609C105.763 54.5655 108.84 51.4888 112.635 51.4888C116.431 51.4888 119.507 54.5655 119.507 58.3609Z" fill="white"/>
<path fill-rule="evenodd" clip-rule="evenodd" d="M112.635 64.233C115.878 64.233 118.507 61.604 118.507 58.3609C118.507 55.1178 115.878 52.4888 112.635 52.4888C109.392 52.4888 106.763 55.1178 106.763 58.3609C106.763 61.604 109.392 64.233 112.635 64.233ZM112.635 65.233C116.431 65.233 119.507 62.1562 119.507 58.3609C119.507 54.5655 116.431 51.4888 112.635 51.4888C108.84 51.4888 105.763 54.5655 105.763 58.3609C105.763 62.1562 108.84 65.233 112.635 65.233Z" fill="#6A6A6A"/>
</svg>
