<svg width="130" height="130" viewBox="0 0 130 130" fill="none" xmlns="http://www.w3.org/2000/svg">
<g clip-path="url(#clip0_471_4260)">
<rect width="130" height="130" fill="white"/>
<path opacity="0.1" d="M119 63.5C119 93.5995 94.5995 118 64.5 118C34.4005 118 10 93.5995 10 63.5C10 33.4005 34.4005 9 64.5 9C94.5995 9 119 33.4005 119 63.5Z" fill="#2D8EC5"/>
<path d="M16.9443 83.5292C48.8349 83.5292 68.2243 77.7371 73.9327 74.841C78.7833 72.3802 82.8719 65.607 82.8719 58.4869C82.8719 48.3258 75.6568 42.1328 65.4956 42.1328C55.3345 42.1328 48.1194 48.3258 48.1194 58.4869C48.1194 65.607 52.2079 72.3045 57.0585 74.841C62.5966 77.7371 81.6453 83.5292 113.536 83.5292" stroke="#6A6A6A" stroke-linecap="round" stroke-dasharray="4 4"/>
<circle cx="17.0654" cy="82.3277" r="6.95459" fill="white" stroke="#6A6A6A" stroke-width="2"/>
<path d="M26.9153 63.4913L16.8542 80.9177L6.79313 63.4913C2.32152 55.7463 7.91103 46.065 16.8542 46.065C25.7974 46.065 31.3869 55.7463 26.9153 63.4913Z" fill="white" stroke="#6A6A6A" stroke-width="2"/>
<circle cx="16.8536" cy="57.4261" r="6.87211" fill="#00C895"/>
<circle cx="113.358" cy="82.3277" r="6.95459" fill="white" stroke="#6A6A6A" stroke-width="2"/>
<path d="M123.207 63.4914L113.146 80.9177L103.085 63.4914C98.613 55.7463 104.203 46.065 113.146 46.065C122.089 46.065 127.678 55.7463 123.207 63.4914Z" fill="white" stroke="#6A6A6A" stroke-width="2"/>
<circle cx="113.145" cy="57.4258" r="6.37211" fill="white" stroke="#6A6A6A"/>
<circle cx="77.8477" cy="46.8479" r="4.59131" transform="rotate(15 77.8477 46.8479)" fill="#00C895" stroke="#00C895" stroke-width="2"/>
</g>
<defs>
<clipPath id="clip0_471_4260">
<rect width="130" height="130" fill="white"/>
</clipPath>
</defs>
</svg>
