<svg width="130" height="130" viewBox="0 0 130 130" fill="none" xmlns="http://www.w3.org/2000/svg">
<path opacity="0.1" d="M119 64.5C119 94.5995 94.5995 119 64.5 119C34.4005 119 10 94.5995 10 64.5C10 34.4005 34.4005 10 64.5 10C94.5995 10 119 34.4005 119 64.5Z" fill="#2D8EC5"/>
<path fill-rule="evenodd" clip-rule="evenodd" d="M63.2097 43.739C63.9543 43.6685 64.7169 43.6328 65.4956 43.6328C66.2744 43.6328 67.037 43.6685 67.7815 43.739C68.0564 43.765 68.2582 44.009 68.2322 44.2839C68.2061 44.5588 67.9622 44.7606 67.6873 44.7345C66.975 44.6671 66.2439 44.6328 65.4956 44.6328C64.7474 44.6328 64.0163 44.6671 63.304 44.7345C63.0291 44.7606 62.7851 44.5588 62.7591 44.2839C62.733 44.009 62.9348 43.765 63.2097 43.739ZM71.6398 44.9746C71.7255 44.7121 72.0077 44.5688 72.2702 44.6544C73.7769 45.1462 75.168 45.811 76.4197 46.6389C76.65 46.7913 76.7132 47.1015 76.5608 47.3318C76.4085 47.5621 76.0983 47.6253 75.868 47.473C74.6955 46.6974 73.3864 46.0706 71.96 45.6051C71.6975 45.5194 71.5541 45.2371 71.6398 44.9746ZM59.3514 44.9746C59.4371 45.2371 59.2938 45.5194 59.0313 45.6051C57.6049 46.0706 56.2957 46.6974 55.1233 47.473C54.8929 47.6253 54.5827 47.5621 54.4304 47.3318C54.278 47.1015 54.3413 46.7913 54.5716 46.6389C55.8232 45.811 57.2143 45.1462 58.721 44.6544C58.9835 44.5688 59.2658 44.7121 59.3514 44.9746ZM79.1383 49.6616C79.353 49.4879 79.6678 49.5211 79.8416 49.7357C80.7965 50.9154 81.5764 52.2502 82.158 53.726C82.2592 53.983 82.133 54.2733 81.8761 54.3745C81.6192 54.4758 81.3288 54.3496 81.2276 54.0927C80.6828 52.71 79.954 51.4641 79.0643 50.3649C78.8906 50.1502 78.9237 49.8354 79.1383 49.6616ZM51.8529 49.6616C52.0675 49.8354 52.1007 50.1502 51.9269 50.3649C51.0372 51.4641 50.3084 52.71 49.7636 54.0927C49.6624 54.3496 49.372 54.4758 49.1151 54.3745C48.8582 54.2733 48.732 53.983 48.8333 53.726C49.4148 52.2502 50.1947 50.9154 51.1497 49.7357C51.3234 49.5211 51.6382 49.4879 51.8529 49.6616ZM82.6941 57.7519C82.9686 57.7213 83.2159 57.9188 83.2466 58.1933C83.3296 58.935 83.3719 59.6999 83.3719 60.4869C83.3719 61.3259 83.3166 62.1596 83.2113 62.9819C83.1763 63.2558 82.9258 63.4494 82.6519 63.4144C82.378 63.3793 82.1843 63.1288 82.2194 62.8549C82.3195 62.0733 82.3719 61.282 82.3719 60.4869C82.3719 59.7358 82.3315 59.008 82.2528 58.3044C82.2221 58.03 82.4197 57.7826 82.6941 57.7519ZM48.2971 57.7519C48.5715 57.7826 48.7691 58.03 48.7384 58.3044C48.6597 59.008 48.6194 59.7358 48.6194 60.4869C48.6194 61.2824 48.6718 62.073 48.7719 62.8533C48.8071 63.1272 48.6136 63.3777 48.3397 63.4129C48.0658 63.448 47.8152 63.2545 47.7801 62.9806C47.6747 62.1595 47.6194 61.3263 47.6194 60.4869C47.6194 59.6999 47.6617 58.935 47.7446 58.1933C47.7753 57.9188 48.0227 57.7213 48.2971 57.7519ZM49.2927 67.1621C49.5504 67.063 49.8397 67.1916 49.9388 67.4494C50.5222 68.9668 51.2754 70.3827 52.1502 71.6438C52.3076 71.8707 52.2512 72.1823 52.0243 72.3397C51.7975 72.4971 51.4859 72.4407 51.3285 72.2138C50.4077 70.8863 49.6171 69.3994 49.0054 67.8082C48.9063 67.5505 49.0349 67.2612 49.2927 67.1621ZM81.7023 67.1676C81.9602 67.2662 82.0894 67.5552 81.9908 67.8131C81.3815 69.4073 80.594 70.8979 79.6763 72.2267C79.5194 72.4539 79.2079 72.5109 78.9807 72.354C78.7535 72.197 78.6965 71.8856 78.8534 71.6584C79.725 70.3965 80.4754 68.9769 81.0567 67.4561C81.1553 67.1982 81.4443 67.069 81.7023 67.1676ZM54.6373 75.1909C54.8099 74.9753 55.1246 74.9405 55.3401 75.1131C55.972 75.619 56.6254 76.0503 57.2902 76.398C57.7821 76.6552 58.3893 76.9388 59.1127 77.2417C59.3674 77.3484 59.4874 77.6414 59.3807 77.8961C59.274 78.1508 58.9811 78.2708 58.7264 78.1641C57.9831 77.8528 57.3493 77.5573 56.8268 77.2841C56.0998 76.9039 55.3927 76.4362 54.7152 75.8937C54.4996 75.7211 54.4647 75.4065 54.6373 75.1909ZM76.3663 75.2075C76.538 75.4237 76.502 75.7382 76.2857 75.91C75.6038 76.4515 74.8917 76.9152 74.1589 77.2869C73.628 77.5563 72.987 77.8475 72.238 78.1544C71.9825 78.2591 71.6904 78.1368 71.5857 77.8813C71.4811 77.6257 71.6033 77.3337 71.8589 77.229C72.5888 76.93 73.2046 76.6498 73.7065 76.3951C74.3735 76.0567 75.0294 75.6307 75.6638 75.1269C75.88 74.9551 76.1946 74.9912 76.3663 75.2075ZM68.6259 78.9411C68.7102 79.204 68.5654 79.4855 68.3024 79.5699C67.9102 79.6956 67.5033 79.8224 67.0815 79.9499C67.1894 80.0717 67.2357 80.2437 67.19 80.4125C67.1177 80.679 66.8431 80.8365 66.5766 80.7643C66.1753 80.6555 65.7844 80.5468 65.404 80.4383C65.0476 80.5382 64.6824 80.6384 64.3083 80.7386C64.0416 80.81 63.7674 80.6517 63.696 80.385C63.6548 80.2314 63.6899 80.0753 63.778 79.9569C63.3779 79.834 62.9916 79.7117 62.619 79.5903C62.3564 79.5048 62.2129 79.2226 62.2984 78.9601C62.3839 78.6975 62.6661 78.554 62.9286 78.6395C63.6946 78.8889 64.5205 79.1428 65.4063 79.3986C66.3334 79.1354 67.1972 78.8741 67.9971 78.6176C68.2601 78.5333 68.5416 78.6781 68.6259 78.9411ZM60.6394 81.1402C60.7009 81.4094 60.5324 81.6775 60.2632 81.7389C58.9855 82.0306 57.6313 82.3184 56.201 82.5984C55.93 82.6515 55.6673 82.4748 55.6142 82.2038C55.5612 81.9328 55.7379 81.6701 56.0089 81.617C57.4292 81.339 58.7733 81.0534 60.0407 80.764C60.3099 80.7026 60.5779 80.871 60.6394 81.1402ZM70.2092 81.1662C70.2711 80.8971 70.5395 80.7292 70.8086 80.7912C72.0643 81.0804 73.3971 81.3658 74.8066 81.6435C75.0775 81.6969 75.2539 81.9598 75.2005 82.2307C75.1471 82.5017 74.8842 82.678 74.6133 82.6246C73.1936 82.3449 71.8504 82.0573 70.5842 81.7656C70.3151 81.7037 70.1472 81.4353 70.2092 81.1662ZM52.5194 82.7648C52.565 83.0371 52.3812 83.2949 52.1089 83.3405C50.7929 83.561 49.4236 83.7735 48.0014 83.9759C47.7281 84.0148 47.4749 83.8247 47.436 83.5514C47.3971 83.278 47.5872 83.0248 47.8606 82.9859C49.2747 82.7847 50.6358 82.5733 51.9437 82.3542C52.216 82.3086 52.4738 82.4924 52.5194 82.7648ZM78.2613 82.7885C78.3071 82.5162 78.565 82.3326 78.8373 82.3784C80.1331 82.5964 81.4824 82.8066 82.8851 83.0067C83.1585 83.0456 83.3485 83.2989 83.3095 83.5722C83.2705 83.8456 83.0173 84.0356 82.7439 83.9966C81.3331 83.7954 79.9755 83.5839 78.6714 83.3645C78.3991 83.3187 78.2155 83.0608 78.2613 82.7885ZM44.3209 83.9582C44.3536 84.2324 44.1578 84.4812 43.8836 84.5139C42.5482 84.6732 41.1721 84.823 39.7556 84.9618C39.4808 84.9888 39.2362 84.7878 39.2093 84.513C39.1823 84.2382 39.3833 83.9935 39.6581 83.9666C41.0676 83.8285 42.4367 83.6794 43.7652 83.5209C44.0394 83.4882 44.2882 83.684 44.3209 83.9582ZM86.3889 83.975C86.4217 83.7008 86.6705 83.505 86.9447 83.5378C88.2608 83.6949 89.6178 83.8426 91.0156 83.9795C91.2904 84.0064 91.4914 84.251 91.4645 84.5258C91.4376 84.8006 91.1929 85.0016 90.9181 84.9747C89.5134 84.8372 88.1494 84.6887 86.8261 84.5307C86.5519 84.498 86.3562 84.2492 86.3889 83.975ZM36.0749 84.7885C36.0964 85.0638 35.8906 85.3044 35.6153 85.3259C34.267 85.4311 32.8859 85.5261 31.4722 85.6099C31.1965 85.6262 30.9598 85.416 30.9435 85.1403C30.9271 84.8647 31.1374 84.628 31.413 84.6116C32.8206 84.5283 34.1954 84.4336 35.5375 84.3289C35.8128 84.3074 36.0534 84.5132 36.0749 84.7885ZM94.5627 84.7976C94.5842 84.5223 94.8247 84.3165 95.1 84.338C96.4307 84.4416 97.7945 84.5351 99.1912 84.6175C99.4669 84.6338 99.6772 84.8704 99.6609 85.1461C99.6447 85.4218 99.408 85.632 99.1323 85.6158C97.7294 85.533 96.3594 85.439 95.0224 85.3349C94.7471 85.3135 94.5413 85.0729 94.5627 84.7976ZM27.8074 85.2978C27.8188 85.5737 27.6044 85.8066 27.3285 85.818C25.9714 85.8742 24.5868 85.9199 23.1749 85.9542C22.8988 85.9609 22.6696 85.7425 22.6629 85.4665C22.6562 85.1904 22.8745 84.9612 23.1506 84.9545C24.5569 84.9203 25.9358 84.8748 27.2872 84.8189C27.5631 84.8075 27.796 85.0219 27.8074 85.2978ZM102.76 85.301C102.772 85.0251 103.005 84.8106 103.281 84.822C104.62 84.8771 105.988 84.922 107.383 84.9557C107.659 84.9623 107.877 85.1915 107.871 85.4676C107.864 85.7436 107.635 85.962 107.359 85.9554C105.958 85.9216 104.585 85.8765 103.239 85.8211C102.964 85.8098 102.749 85.5769 102.76 85.301ZM19.5235 85.5169C19.5257 85.7931 19.3037 86.0187 19.0275 86.0209C18.3392 86.0264 17.6447 86.0292 16.9443 86.0292C16.6682 86.0292 16.4443 85.8053 16.4443 85.5292C16.4443 85.253 16.6682 85.0292 16.9443 85.0292C17.6421 85.0292 18.3338 85.0264 19.0196 85.0209C19.2957 85.0187 19.5213 85.2408 19.5235 85.5169ZM110.974 85.5171C110.976 85.241 111.202 85.0189 111.478 85.0211C112.158 85.0264 112.844 85.0292 113.536 85.0292C113.812 85.0292 114.036 85.253 114.036 85.5292C114.036 85.8053 113.812 86.0292 113.536 86.0292C112.841 86.0292 112.153 86.0264 111.47 86.021C111.194 86.0188 110.972 85.7932 110.974 85.5171Z" fill="#6A6A6A"/>
<path d="M25.02 84.3276C25.02 88.7208 21.4586 92.2822 17.0654 92.2822C12.6722 92.2822 9.11084 88.7208 9.11084 84.3276C9.11084 79.9344 12.6722 76.373 17.0654 76.373C21.4586 76.373 25.02 79.9344 25.02 84.3276Z" fill="white"/>
<path fill-rule="evenodd" clip-rule="evenodd" d="M17.0654 90.2822C20.3541 90.2822 23.02 87.6163 23.02 84.3276C23.02 81.039 20.3541 78.373 17.0654 78.373C13.7768 78.373 11.1108 81.039 11.1108 84.3276C11.1108 87.6163 13.7768 90.2822 17.0654 90.2822ZM17.0654 92.2822C21.4586 92.2822 25.02 88.7208 25.02 84.3276C25.02 79.9344 21.4586 76.373 17.0654 76.373C12.6722 76.373 9.11084 79.9344 9.11084 84.3276C9.11084 88.7208 12.6722 92.2822 17.0654 92.2822Z" fill="#6A6A6A"/>
<path d="M16.8543 84.9177L5.92721 65.9914C1.07071 57.5797 7.14133 47.065 16.8543 47.065C26.5673 47.065 32.638 57.5797 27.7815 65.9914L16.8543 84.9177Z" fill="white"/>
<path fill-rule="evenodd" clip-rule="evenodd" d="M16.8543 84.9177L27.7815 65.9914C32.638 57.5797 26.5673 47.065 16.8543 47.065C7.14133 47.065 1.07071 57.5797 5.92721 65.9914L16.8543 84.9177ZM16.8543 80.9177L26.0494 64.9914C30.1361 57.913 25.0277 49.065 16.8543 49.065C8.68094 49.065 3.57256 57.913 7.65926 64.9914L16.8543 80.9177Z" fill="#6A6A6A"/>
<path d="M23.7252 59.4261C23.7252 63.2214 20.6484 66.2982 16.8531 66.2982C13.0577 66.2982 9.98096 63.2214 9.98096 59.4261C9.98096 55.6307 13.0577 52.554 16.8531 52.554C20.6484 52.554 23.7252 55.6307 23.7252 59.4261Z" fill="#00C895"/>
<path d="M121.312 84.3276C121.312 88.7208 117.751 92.2822 113.358 92.2822C108.965 92.2822 105.403 88.7208 105.403 84.3276C105.403 79.9344 108.965 76.373 113.358 76.373C117.751 76.373 121.312 79.9344 121.312 84.3276Z" fill="white"/>
<path fill-rule="evenodd" clip-rule="evenodd" d="M113.358 90.2822C116.647 90.2822 119.312 87.6163 119.312 84.3276C119.312 81.039 116.647 78.373 113.358 78.373C110.069 78.373 107.403 81.039 107.403 84.3276C107.403 87.6163 110.069 90.2822 113.358 90.2822ZM113.358 92.2822C117.751 92.2822 121.312 88.7208 121.312 84.3276C121.312 79.9344 117.751 76.373 113.358 76.373C108.965 76.373 105.403 79.9344 105.403 84.3276C105.403 88.7208 108.965 92.2822 113.358 92.2822Z" fill="#6A6A6A"/>
<path d="M113.146 84.9177L102.219 65.9914C97.3622 57.5797 103.433 47.065 113.146 47.065C122.859 47.065 128.929 57.5797 124.073 65.9914L113.146 84.9177Z" fill="white"/>
<path fill-rule="evenodd" clip-rule="evenodd" d="M113.146 84.9177L124.073 65.9914C128.929 57.5797 122.859 47.065 113.146 47.065C103.433 47.065 97.3622 57.5797 102.219 65.9914L113.146 84.9177ZM113.146 80.9177L122.341 64.9914C126.428 57.913 121.319 49.065 113.146 49.065C104.972 49.065 99.8641 57.913 103.951 64.9914L113.146 80.9177Z" fill="#6A6A6A"/>
<path d="M120.017 59.4258C120.017 63.2212 116.94 66.2979 113.145 66.2979C109.349 66.2979 106.272 63.2212 106.272 59.4258C106.272 55.6305 109.349 52.5537 113.145 52.5537C116.94 52.5537 120.017 55.6305 120.017 59.4258Z" fill="white"/>
<path fill-rule="evenodd" clip-rule="evenodd" d="M113.145 65.2979C116.388 65.2979 119.017 62.6689 119.017 59.4258C119.017 56.1827 116.388 53.5537 113.145 53.5537C109.901 53.5537 107.272 56.1827 107.272 59.4258C107.272 62.6689 109.901 65.2979 113.145 65.2979ZM113.145 66.2979C116.94 66.2979 120.017 63.2212 120.017 59.4258C120.017 55.6305 116.94 52.5537 113.145 52.5537C109.349 52.5537 106.272 55.6305 106.272 59.4258C106.272 63.2212 109.349 66.2979 113.145 66.2979Z" fill="#6A6A6A"/>
<path d="M96.2485 85.2951C95.4492 88.2778 92.3833 90.0479 89.4006 89.2487C86.4178 88.4495 84.6477 85.3836 85.4469 82.4008C86.2461 79.418 89.3121 77.6479 92.2948 78.4471C95.2776 79.2464 97.0477 82.3123 96.2485 85.2951Z" fill="#00C895"/>
<path fill-rule="evenodd" clip-rule="evenodd" d="M89.9182 87.3169C91.834 87.8302 93.8033 86.6933 94.3166 84.7774C94.83 82.8616 93.693 80.8923 91.7772 80.379C89.8614 79.8656 87.8921 81.0026 87.3788 82.9184C86.8654 84.8343 88.0024 86.8035 89.9182 87.3169ZM89.4006 89.2487C92.3833 90.0479 95.4492 88.2778 96.2485 85.2951C97.0477 82.3123 95.2776 79.2464 92.2948 78.4471C89.3121 77.6479 86.2461 79.418 85.4469 82.4008C84.6477 85.3836 86.4178 88.4495 89.4006 89.2487Z" fill="#00C895"/>
<path d="M81.8325 49.3615C81.0332 52.3442 77.9673 54.1143 74.9845 53.3151C72.0018 52.5159 70.2317 49.45 71.0309 46.4672C71.8301 43.4844 74.896 41.7143 77.8788 42.5135C80.8616 43.3128 82.6317 46.3787 81.8325 49.3615Z" fill="white"/>
<path fill-rule="evenodd" clip-rule="evenodd" d="M75.5022 51.3833C77.418 51.8966 79.3873 50.7597 79.9006 48.8438C80.414 46.928 79.277 44.9587 77.3612 44.4454C75.4453 43.932 73.4761 45.069 72.9627 46.9848C72.4494 48.9007 73.5863 50.8699 75.5022 51.3833ZM74.9845 53.3151C77.9673 54.1143 81.0332 52.3442 81.8325 49.3615C82.6317 46.3787 80.8616 43.3128 77.8788 42.5135C74.896 41.7143 71.8301 43.4844 71.0309 46.4672C70.2317 49.45 72.0018 52.5159 74.9845 53.3151Z" fill="#6A6A6A"/>
<path d="M74.6772 46.2951C73.878 49.2778 70.812 51.0479 67.8293 50.2487C64.8465 49.4495 63.0764 46.3836 63.8756 43.4008C64.6748 40.418 67.7408 38.6479 70.7235 39.4471C73.7063 40.2464 75.4764 43.3123 74.6772 46.2951Z" fill="white"/>
<path fill-rule="evenodd" clip-rule="evenodd" d="M68.3469 48.3169C70.2627 48.8302 72.232 47.6933 72.7453 45.7774C73.2587 43.8616 72.1217 41.8923 70.2059 41.379C68.2901 40.8656 66.3208 42.0026 65.8075 43.9184C65.2941 45.8343 66.4311 47.8035 68.3469 48.3169ZM67.8293 50.2487C70.812 51.0479 73.878 49.2778 74.6772 46.2951C75.4764 43.3123 73.7063 40.2464 70.7235 39.4471C67.7408 38.6479 64.6748 40.418 63.8756 43.4008C63.0764 46.3836 64.8465 49.4495 67.8293 50.2487Z" fill="#6A6A6A"/>
<path d="M67.5229 46.2951C66.7237 49.2778 63.6577 51.0479 60.675 50.2487C57.6922 49.4495 55.9221 46.3836 56.7213 43.4008C57.5206 40.418 60.5865 38.6479 63.5692 39.4471C66.552 40.2464 68.3221 43.3123 67.5229 46.2951Z" fill="white"/>
<path fill-rule="evenodd" clip-rule="evenodd" d="M61.1926 48.3169C63.1084 48.8302 65.0777 47.6933 65.591 45.7774C66.1044 43.8616 64.9674 41.8923 63.0516 41.379C61.1358 40.8656 59.1665 42.0026 58.6532 43.9184C58.1398 45.8343 59.2768 47.8035 61.1926 48.3169ZM60.675 50.2487C63.6577 51.0479 66.7237 49.2778 67.5229 46.2951C68.3221 43.3123 66.552 40.2464 63.5692 39.4471C60.5865 38.6479 57.5206 40.418 56.7213 43.4008C55.9221 46.3836 57.6922 49.4495 60.675 50.2487Z" fill="#6A6A6A"/>
<path d="M60.3681 48.3392C59.5689 51.322 56.503 53.0921 53.5202 52.2929C50.5374 51.4937 48.7673 48.4277 49.5665 45.445C50.3658 42.4622 53.4317 40.6921 56.4145 41.4913C59.3972 42.2906 61.1673 45.3565 60.3681 48.3392Z" fill="white"/>
<path fill-rule="evenodd" clip-rule="evenodd" d="M54.0378 50.361C55.9537 50.8744 57.9229 49.7375 58.4363 47.8216C58.9496 45.9058 57.8127 43.9365 55.8968 43.4232C53.981 42.9098 52.0117 44.0468 51.4984 45.9626C50.985 47.8785 52.122 49.8477 54.0378 50.361ZM53.5202 52.2929C56.503 53.0921 59.5689 51.322 60.3681 48.3392C61.1673 45.3565 59.3972 42.2906 56.4145 41.4913C53.4317 40.6921 50.3658 42.4622 49.5665 45.445C48.7673 48.4277 50.5374 51.4937 53.5202 52.2929Z" fill="#6A6A6A"/>
</svg>
