<?xml version="1.0" encoding="utf-8"?>
<!--
  Copyright 2023-2025 Solace Systems. All rights reserved.

  Licensed under the Apache License, Version 2.0 (the "License");
  you may not use this file except in compliance with the License.
  You may obtain a copy of the License at

      http://www.apache.org/licenses/LICENSE-2.0

  Unless required by applicable law or agreed to in writing, software
  distributed under the License is distributed on an "AS IS" BASIS,
  WITHOUT WARRANTIES OR CONDITIONS OF ANY KIND, either express or implied.
  See the License for the specific language governing permissions and
  limitations under the License.
-->
<svg width="409" height="137" viewBox="0 0 409 137" fill="none" xmlns="http://www.w3.org/2000/svg">
<path d="M309.848 47.3357C309.744 47.3357 309.664 47.3117 309.608 47.2637C309.552 47.2077 309.504 47.1317 309.464 47.0357L307.76 41.4677C307.744 41.4277 307.736 41.3877 307.736 41.3477C307.736 41.2757 307.76 41.2157 307.808 41.1677C307.864 41.1197 307.924 41.0957 307.988 41.0957H308.516C308.604 41.0957 308.672 41.1197 308.72 41.1677C308.768 41.2157 308.8 41.2597 308.816 41.2997L310.148 45.8237L311.576 41.3477C311.592 41.2917 311.624 41.2357 311.672 41.1797C311.728 41.1237 311.808 41.0957 311.912 41.0957H312.32C312.424 41.0957 312.504 41.1237 312.56 41.1797C312.616 41.2357 312.648 41.2917 312.656 41.3477L314.084 45.8237L315.416 41.2997C315.424 41.2597 315.452 41.2157 315.5 41.1677C315.548 41.1197 315.616 41.0957 315.704 41.0957H316.232C316.304 41.0957 316.364 41.1197 316.412 41.1677C316.46 41.2157 316.484 41.2757 316.484 41.3477C316.484 41.3877 316.476 41.4277 316.46 41.4677L314.756 47.0357C314.732 47.1317 314.688 47.2077 314.624 47.2637C314.568 47.3117 314.484 47.3357 314.372 47.3357H313.904C313.8 47.3357 313.712 47.3117 313.64 47.2637C313.576 47.2077 313.532 47.1317 313.508 47.0357L312.116 42.7397L310.724 47.0357C310.692 47.1317 310.644 47.2077 310.58 47.2637C310.516 47.3117 310.428 47.3357 310.316 47.3357H309.848Z" fill="#6A6D70"/>
<path d="M304.021 47.4557C303.413 47.4557 302.905 47.3397 302.497 47.1077C302.089 46.8757 301.777 46.5557 301.561 46.1477C301.345 45.7317 301.225 45.2597 301.201 44.7317C301.193 44.5957 301.189 44.4237 301.189 44.2157C301.189 43.9997 301.193 43.8277 301.201 43.6997C301.225 43.1637 301.345 42.6917 301.561 42.2837C301.785 41.8757 302.101 41.5557 302.509 41.3237C302.917 41.0917 303.421 40.9757 304.021 40.9757C304.621 40.9757 305.125 41.0917 305.533 41.3237C305.941 41.5557 306.253 41.8757 306.469 42.2837C306.693 42.6917 306.817 43.1637 306.841 43.6997C306.849 43.8277 306.853 43.9997 306.853 44.2157C306.853 44.4237 306.849 44.5957 306.841 44.7317C306.817 45.2597 306.697 45.7317 306.481 46.1477C306.265 46.5557 305.953 46.8757 305.545 47.1077C305.137 47.3397 304.629 47.4557 304.021 47.4557ZM304.021 46.5317C304.517 46.5317 304.913 46.3757 305.209 46.0637C305.505 45.7437 305.665 45.2797 305.689 44.6717C305.697 44.5517 305.701 44.3997 305.701 44.2157C305.701 44.0317 305.697 43.8797 305.689 43.7597C305.665 43.1517 305.505 42.6917 305.209 42.3797C304.913 42.0597 304.517 41.8997 304.021 41.8997C303.525 41.8997 303.125 42.0597 302.821 42.3797C302.525 42.6917 302.369 43.1517 302.353 43.7597C302.345 43.8797 302.341 44.0317 302.341 44.2157C302.341 44.3997 302.345 44.5517 302.353 44.6717C302.369 45.2797 302.525 45.7437 302.821 46.0637C303.125 46.3757 303.525 46.5317 304.021 46.5317Z" fill="#6A6D70"/>
<path d="M298.836 47.3357C298.756 47.3357 298.688 47.3117 298.632 47.2637C298.584 47.2077 298.56 47.1397 298.56 47.0597V39.0917C298.56 39.0117 298.584 38.9477 298.632 38.8997C298.688 38.8437 298.756 38.8157 298.836 38.8157H299.4C299.488 38.8157 299.556 38.8437 299.604 38.8997C299.652 38.9477 299.676 39.0117 299.676 39.0917V47.0597C299.676 47.1397 299.652 47.2077 299.604 47.2637C299.556 47.3117 299.488 47.3357 299.4 47.3357H298.836Z" fill="#6A6D70"/>
<path d="M291.972 47.3357C291.884 47.3357 291.816 47.3117 291.768 47.2637C291.72 47.2077 291.696 47.1397 291.696 47.0597V39.2237C291.696 39.1357 291.72 39.0677 291.768 39.0197C291.816 38.9637 291.884 38.9357 291.972 38.9357H296.868C296.956 38.9357 297.024 38.9637 297.072 39.0197C297.12 39.0677 297.144 39.1357 297.144 39.2237V39.7037C297.144 39.7917 297.12 39.8597 297.072 39.9077C297.024 39.9557 296.956 39.9797 296.868 39.9797H292.86V42.7757H296.628C296.716 42.7757 296.784 42.8037 296.832 42.8597C296.88 42.9077 296.904 42.9757 296.904 43.0637V43.5437C296.904 43.6237 296.88 43.6917 296.832 43.7477C296.784 43.7957 296.716 43.8197 296.628 43.8197H292.86V47.0597C292.86 47.1397 292.832 47.2077 292.776 47.2637C292.728 47.3117 292.66 47.3357 292.572 47.3357H291.972Z" fill="#6A6D70"/>
<path d="M286.347 47.3357C285.899 47.3357 285.535 47.2517 285.255 47.0837C284.975 46.9077 284.771 46.6637 284.643 46.3517C284.515 46.0317 284.451 45.6557 284.451 45.2237V42.0557H283.515C283.435 42.0557 283.367 42.0317 283.311 41.9837C283.263 41.9277 283.239 41.8597 283.239 41.7797V41.3717C283.239 41.2917 283.263 41.2277 283.311 41.1797C283.367 41.1237 283.435 41.0957 283.515 41.0957H284.451V39.0917C284.451 39.0117 284.475 38.9477 284.523 38.8997C284.579 38.8437 284.647 38.8157 284.727 38.8157H285.291C285.371 38.8157 285.435 38.8437 285.483 38.8997C285.539 38.9477 285.567 39.0117 285.567 39.0917V41.0957H287.055C287.135 41.0957 287.199 41.1237 287.247 41.1797C287.303 41.2277 287.331 41.2917 287.331 41.3717V41.7797C287.331 41.8597 287.303 41.9277 287.247 41.9837C287.199 42.0317 287.135 42.0557 287.055 42.0557H285.567V45.1397C285.567 45.5157 285.631 45.8117 285.759 46.0277C285.887 46.2437 286.115 46.3517 286.443 46.3517H287.175C287.255 46.3517 287.319 46.3797 287.367 46.4357C287.423 46.4837 287.451 46.5477 287.451 46.6277V47.0597C287.451 47.1397 287.423 47.2077 287.367 47.2637C287.319 47.3117 287.255 47.3357 287.175 47.3357H286.347Z" fill="#6A6D70"/>
<path d="M276.992 47.3357C276.912 47.3357 276.844 47.3117 276.788 47.2637C276.74 47.2077 276.716 47.1397 276.716 47.0597V41.3717C276.716 41.2917 276.74 41.2277 276.788 41.1797C276.844 41.1237 276.912 41.0957 276.992 41.0957H277.556C277.636 41.0957 277.7 41.1237 277.748 41.1797C277.804 41.2277 277.832 41.2917 277.832 41.3717V41.8997C278.04 41.6277 278.3 41.4077 278.612 41.2397C278.932 41.0637 279.34 40.9757 279.836 40.9757C280.356 40.9757 280.796 41.0917 281.156 41.3237C281.524 41.5477 281.8 41.8637 281.984 42.2717C282.168 42.6717 282.26 43.1397 282.26 43.6757V47.0597C282.26 47.1397 282.236 47.2077 282.188 47.2637C282.14 47.3117 282.076 47.3357 281.996 47.3357H281.396C281.316 47.3357 281.248 47.3117 281.192 47.2637C281.144 47.2077 281.12 47.1397 281.12 47.0597V43.7357C281.12 43.1757 280.984 42.7397 280.712 42.4277C280.44 42.1077 280.04 41.9477 279.512 41.9477C279.016 41.9477 278.616 42.1077 278.312 42.4277C278.016 42.7397 277.868 43.1757 277.868 43.7357V47.0597C277.868 47.1397 277.84 47.2077 277.784 47.2637C277.736 47.3117 277.672 47.3357 277.592 47.3357H276.992Z" fill="#6A6D70"/>
<path d="M272.485 47.4557C271.661 47.4557 271.005 47.2037 270.517 46.6997C270.029 46.1877 269.761 45.4917 269.713 44.6117C269.705 44.5077 269.701 44.3757 269.701 44.2157C269.701 44.0477 269.705 43.9117 269.713 43.8077C269.745 43.2397 269.877 42.7437 270.109 42.3197C270.341 41.8877 270.657 41.5557 271.057 41.3237C271.465 41.0917 271.941 40.9757 272.485 40.9757C273.093 40.9757 273.601 41.1037 274.009 41.3597C274.425 41.6157 274.741 41.9797 274.957 42.4517C275.173 42.9237 275.281 43.4757 275.281 44.1077V44.3117C275.281 44.3997 275.253 44.4677 275.197 44.5157C275.149 44.5637 275.085 44.5877 275.005 44.5877H270.853C270.853 44.5957 270.853 44.6117 270.853 44.6357C270.853 44.6597 270.853 44.6797 270.853 44.6957C270.869 45.0237 270.941 45.3317 271.069 45.6197C271.197 45.8997 271.381 46.1277 271.621 46.3037C271.861 46.4797 272.149 46.5677 272.485 46.5677C272.773 46.5677 273.013 46.5237 273.205 46.4357C273.397 46.3477 273.553 46.2517 273.673 46.1477C273.793 46.0357 273.873 45.9517 273.913 45.8957C273.985 45.7917 274.041 45.7317 274.081 45.7157C274.121 45.6917 274.185 45.6797 274.273 45.6797H274.849C274.929 45.6797 274.993 45.7037 275.041 45.7517C275.097 45.7917 275.121 45.8517 275.113 45.9317C275.105 46.0517 275.041 46.1997 274.921 46.3757C274.801 46.5437 274.629 46.7117 274.405 46.8797C274.181 47.0477 273.909 47.1877 273.589 47.2997C273.269 47.4037 272.901 47.4557 272.485 47.4557ZM270.853 43.7597H274.141V43.7237C274.141 43.3637 274.073 43.0437 273.937 42.7637C273.809 42.4837 273.621 42.2637 273.373 42.1037C273.125 41.9357 272.829 41.8517 272.485 41.8517C272.141 41.8517 271.845 41.9357 271.597 42.1037C271.357 42.2637 271.173 42.4837 271.045 42.7637C270.917 43.0437 270.853 43.3637 270.853 43.7237V43.7597Z" fill="#6A6D70"/>
<path d="M265.751 47.3357C265.631 47.3357 265.535 47.3077 265.463 47.2517C265.399 47.1957 265.347 47.1237 265.307 47.0357L263.087 41.4677C263.071 41.4277 263.063 41.3877 263.063 41.3477C263.063 41.2757 263.087 41.2157 263.135 41.1677C263.183 41.1197 263.243 41.0957 263.315 41.0957H263.891C263.979 41.0957 264.047 41.1197 264.095 41.1677C264.143 41.2157 264.171 41.2597 264.179 41.2997L266.015 46.0277L267.839 41.2997C267.855 41.2597 267.883 41.2157 267.923 41.1677C267.971 41.1197 268.039 41.0957 268.127 41.0957H268.715C268.779 41.0957 268.835 41.1197 268.883 41.1677C268.939 41.2157 268.967 41.2757 268.967 41.3477C268.967 41.3877 268.959 41.4277 268.943 41.4677L266.711 47.0357C266.679 47.1237 266.627 47.1957 266.555 47.2517C266.491 47.3077 266.395 47.3357 266.267 47.3357H265.751Z" fill="#6A6D70"/>
<path d="M256.909 47.3357C256.821 47.3357 256.753 47.3117 256.705 47.2637C256.657 47.2077 256.633 47.1397 256.633 47.0597V39.2237C256.633 39.1357 256.657 39.0677 256.705 39.0197C256.753 38.9637 256.821 38.9357 256.909 38.9357H261.865C261.953 38.9357 262.021 38.9637 262.069 39.0197C262.117 39.0677 262.141 39.1357 262.141 39.2237V39.6797C262.141 39.7677 262.117 39.8357 262.069 39.8837C262.021 39.9317 261.953 39.9557 261.865 39.9557H257.785V42.5837H261.601C261.689 42.5837 261.757 42.6117 261.805 42.6677C261.853 42.7157 261.877 42.7837 261.877 42.8717V43.3157C261.877 43.3957 261.853 43.4637 261.805 43.5197C261.757 43.5677 261.689 43.5917 261.601 43.5917H257.785V46.3157H261.961C262.049 46.3157 262.117 46.3397 262.165 46.3877C262.213 46.4357 262.237 46.5037 262.237 46.5917V47.0597C262.237 47.1397 262.213 47.2077 262.165 47.2637C262.117 47.3117 262.049 47.3357 261.961 47.3357H256.909Z" fill="#6A6D70"/>
<path d="M322.525 29.3357C322.445 29.3357 322.377 29.3117 322.321 29.2637C322.273 29.2077 322.249 29.1397 322.249 29.0597V21.0917C322.249 21.0117 322.273 20.9477 322.321 20.8997C322.377 20.8437 322.445 20.8157 322.525 20.8157H323.089C323.177 20.8157 323.245 20.8437 323.293 20.8997C323.341 20.9477 323.365 21.0117 323.365 21.0917V29.0597C323.365 29.1397 323.341 29.2077 323.293 29.2637C323.245 29.3117 323.177 29.3357 323.089 29.3357H322.525Z" fill="#6A6D70"/>
<path d="M317.356 29.4557C316.956 29.4557 316.592 29.3757 316.264 29.2157C315.936 29.0557 315.672 28.8397 315.472 28.5677C315.272 28.2957 315.172 27.9877 315.172 27.6437C315.172 27.0917 315.396 26.6517 315.844 26.3237C316.292 25.9957 316.876 25.7797 317.596 25.6757L319.384 25.4237V25.0757C319.384 24.6917 319.272 24.3917 319.048 24.1757C318.832 23.9597 318.476 23.8517 317.98 23.8517C317.62 23.8517 317.328 23.9237 317.104 24.0677C316.888 24.2117 316.736 24.3957 316.648 24.6197C316.6 24.7397 316.516 24.7997 316.396 24.7997H315.856C315.768 24.7997 315.7 24.7757 315.652 24.7277C315.612 24.6717 315.592 24.6077 315.592 24.5357C315.592 24.4157 315.636 24.2677 315.724 24.0917C315.82 23.9157 315.964 23.7437 316.156 23.5757C316.348 23.4077 316.592 23.2677 316.888 23.1557C317.192 23.0357 317.56 22.9757 317.992 22.9757C318.472 22.9757 318.876 23.0397 319.204 23.1677C319.532 23.2877 319.788 23.4517 319.972 23.6597C320.164 23.8677 320.3 24.1037 320.38 24.3677C320.468 24.6317 320.512 24.8997 320.512 25.1717V29.0597C320.512 29.1397 320.484 29.2077 320.428 29.2637C320.38 29.3117 320.316 29.3357 320.236 29.3357H319.684C319.596 29.3357 319.528 29.3117 319.48 29.2637C319.432 29.2077 319.408 29.1397 319.408 29.0597V28.5437C319.304 28.6877 319.164 28.8317 318.988 28.9757C318.812 29.1117 318.592 29.2277 318.328 29.3237C318.064 29.4117 317.74 29.4557 317.356 29.4557ZM317.608 28.5557C317.936 28.5557 318.236 28.4877 318.508 28.3517C318.78 28.2077 318.992 27.9877 319.144 27.6917C319.304 27.3957 319.384 27.0237 319.384 26.5757V26.2397L317.992 26.4437C317.424 26.5237 316.996 26.6597 316.708 26.8517C316.42 27.0357 316.276 27.2717 316.276 27.5597C316.276 27.7837 316.34 27.9717 316.468 28.1237C316.604 28.2677 316.772 28.3757 316.972 28.4477C317.18 28.5197 317.392 28.5557 317.608 28.5557Z" fill="#6A6D70"/>
<path d="M308.615 29.3357C308.535 29.3357 308.467 29.3117 308.411 29.2637C308.363 29.2077 308.339 29.1397 308.339 29.0597V23.3717C308.339 23.2917 308.363 23.2277 308.411 23.1797C308.467 23.1237 308.535 23.0957 308.615 23.0957H309.179C309.259 23.0957 309.323 23.1237 309.371 23.1797C309.427 23.2277 309.455 23.2917 309.455 23.3717V23.8997C309.663 23.6277 309.923 23.4077 310.235 23.2397C310.555 23.0637 310.963 22.9757 311.459 22.9757C311.979 22.9757 312.419 23.0917 312.779 23.3237C313.147 23.5477 313.423 23.8637 313.607 24.2717C313.791 24.6717 313.883 25.1397 313.883 25.6757V29.0597C313.883 29.1397 313.859 29.2077 313.811 29.2637C313.763 29.3117 313.699 29.3357 313.619 29.3357H313.019C312.939 29.3357 312.871 29.3117 312.815 29.2637C312.767 29.2077 312.743 29.1397 312.743 29.0597V25.7357C312.743 25.1757 312.607 24.7397 312.335 24.4277C312.063 24.1077 311.663 23.9477 311.135 23.9477C310.639 23.9477 310.239 24.1077 309.935 24.4277C309.639 24.7397 309.491 25.1757 309.491 25.7357V29.0597C309.491 29.1397 309.463 29.2077 309.407 29.2637C309.359 29.3117 309.295 29.3357 309.215 29.3357H308.615Z" fill="#6A6D70"/>
<path d="M304.004 29.4557C303.396 29.4557 302.888 29.3397 302.48 29.1077C302.072 28.8757 301.76 28.5557 301.544 28.1477C301.328 27.7317 301.208 27.2597 301.184 26.7317C301.176 26.5957 301.172 26.4237 301.172 26.2157C301.172 25.9997 301.176 25.8277 301.184 25.6997C301.208 25.1637 301.328 24.6917 301.544 24.2837C301.768 23.8757 302.084 23.5557 302.492 23.3237C302.9 23.0917 303.404 22.9757 304.004 22.9757C304.604 22.9757 305.108 23.0917 305.516 23.3237C305.924 23.5557 306.236 23.8757 306.452 24.2837C306.676 24.6917 306.8 25.1637 306.824 25.6997C306.832 25.8277 306.836 25.9997 306.836 26.2157C306.836 26.4237 306.832 26.5957 306.824 26.7317C306.8 27.2597 306.68 27.7317 306.464 28.1477C306.248 28.5557 305.936 28.8757 305.528 29.1077C305.12 29.3397 304.612 29.4557 304.004 29.4557ZM304.004 28.5317C304.5 28.5317 304.896 28.3757 305.192 28.0637C305.488 27.7437 305.648 27.2797 305.672 26.6717C305.68 26.5517 305.684 26.3997 305.684 26.2157C305.684 26.0317 305.68 25.8797 305.672 25.7597C305.648 25.1517 305.488 24.6917 305.192 24.3797C304.896 24.0597 304.5 23.8997 304.004 23.8997C303.508 23.8997 303.108 24.0597 302.804 24.3797C302.508 24.6917 302.352 25.1517 302.336 25.7597C302.328 25.8797 302.324 26.0317 302.324 26.2157C302.324 26.3997 302.328 26.5517 302.336 26.6717C302.352 27.2797 302.508 27.7437 302.804 28.0637C303.108 28.3757 303.508 28.5317 304.004 28.5317Z" fill="#6A6D70"/>
<path d="M298.794 29.3357C298.714 29.3357 298.646 29.3117 298.59 29.2637C298.542 29.2077 298.518 29.1397 298.518 29.0597V23.3717C298.518 23.2917 298.542 23.2277 298.59 23.1797C298.646 23.1237 298.714 23.0957 298.794 23.0957H299.37C299.45 23.0957 299.514 23.1237 299.562 23.1797C299.61 23.2277 299.634 23.2917 299.634 23.3717V29.0597C299.634 29.1397 299.61 29.2077 299.562 29.2637C299.514 29.3117 299.45 29.3357 299.37 29.3357H298.794ZM298.698 21.9317C298.618 21.9317 298.55 21.9077 298.494 21.8597C298.446 21.8037 298.422 21.7357 298.422 21.6557V21.0077C298.422 20.9277 298.446 20.8637 298.494 20.8157C298.55 20.7597 298.618 20.7317 298.698 20.7317H299.454C299.534 20.7317 299.598 20.7597 299.646 20.8157C299.702 20.8637 299.73 20.9277 299.73 21.0077V21.6557C299.73 21.7357 299.702 21.8037 299.646 21.8597C299.598 21.9077 299.534 21.9317 299.454 21.9317H298.698Z" fill="#6A6D70"/>
<path d="M296.267 29.3357C295.819 29.3357 295.455 29.2517 295.175 29.0837C294.895 28.9077 294.691 28.6637 294.563 28.3517C294.435 28.0317 294.371 27.6557 294.371 27.2237V24.0557H293.435C293.355 24.0557 293.287 24.0317 293.231 23.9837C293.183 23.9277 293.159 23.8597 293.159 23.7797V23.3717C293.159 23.2917 293.183 23.2277 293.231 23.1797C293.287 23.1237 293.355 23.0957 293.435 23.0957H294.371V21.0917C294.371 21.0117 294.395 20.9477 294.443 20.8997C294.499 20.8437 294.567 20.8157 294.647 20.8157H295.211C295.291 20.8157 295.355 20.8437 295.403 20.8997C295.459 20.9477 295.487 21.0117 295.487 21.0917V23.0957H296.975C297.055 23.0957 297.119 23.1237 297.167 23.1797C297.223 23.2277 297.251 23.2917 297.251 23.3717V23.7797C297.251 23.8597 297.223 23.9277 297.167 23.9837C297.119 24.0317 297.055 24.0557 296.975 24.0557H295.487V27.1397C295.487 27.5157 295.551 27.8117 295.679 28.0277C295.807 28.2437 296.035 28.3517 296.363 28.3517H297.095C297.175 28.3517 297.239 28.3797 297.287 28.4357C297.343 28.4837 297.371 28.5477 297.371 28.6277V29.0597C297.371 29.1397 297.343 29.2077 297.287 29.2637C297.239 29.3117 297.175 29.3357 297.095 29.3357H296.267Z" fill="#6A6D70"/>
<path d="M289.73 29.4557C289.162 29.4557 288.67 29.3477 288.254 29.1317C287.846 28.9077 287.53 28.5917 287.306 28.1837C287.082 27.7677 286.962 27.2717 286.946 26.6957C286.938 26.5757 286.934 26.4157 286.934 26.2157C286.934 26.0157 286.938 25.8557 286.946 25.7357C286.962 25.1597 287.082 24.6677 287.306 24.2597C287.53 23.8437 287.846 23.5277 288.254 23.3117C288.67 23.0877 289.162 22.9757 289.73 22.9757C290.194 22.9757 290.59 23.0397 290.918 23.1677C291.254 23.2957 291.53 23.4597 291.746 23.6597C291.962 23.8597 292.122 24.0757 292.226 24.3077C292.338 24.5397 292.398 24.7597 292.406 24.9677C292.414 25.0477 292.39 25.1117 292.334 25.1597C292.278 25.2077 292.21 25.2317 292.13 25.2317H291.554C291.474 25.2317 291.414 25.2157 291.374 25.1837C291.334 25.1437 291.294 25.0797 291.254 24.9917C291.11 24.5997 290.914 24.3237 290.666 24.1637C290.418 24.0037 290.11 23.9237 289.742 23.9237C289.262 23.9237 288.87 24.0717 288.566 24.3677C288.27 24.6637 288.11 25.1397 288.086 25.7957C288.078 26.0837 288.078 26.3637 288.086 26.6357C288.11 27.2997 288.27 27.7797 288.566 28.0757C288.87 28.3637 289.262 28.5077 289.742 28.5077C290.11 28.5077 290.418 28.4277 290.666 28.2677C290.914 28.1077 291.11 27.8317 291.254 27.4397C291.294 27.3517 291.334 27.2917 291.374 27.2597C291.414 27.2197 291.474 27.1997 291.554 27.1997H292.13C292.21 27.1997 292.278 27.2237 292.334 27.2717C292.39 27.3197 292.414 27.3837 292.406 27.4637C292.398 27.6317 292.362 27.8037 292.298 27.9797C292.234 28.1557 292.13 28.3357 291.986 28.5197C291.85 28.6957 291.678 28.8557 291.47 28.9997C291.262 29.1357 291.01 29.2477 290.714 29.3357C290.426 29.4157 290.098 29.4557 289.73 29.4557Z" fill="#6A6D70"/>
<path d="M282.979 29.4557C282.155 29.4557 281.499 29.2037 281.011 28.6997C280.523 28.1877 280.255 27.4917 280.207 26.6117C280.199 26.5077 280.195 26.3757 280.195 26.2157C280.195 26.0477 280.199 25.9117 280.207 25.8077C280.239 25.2397 280.371 24.7437 280.603 24.3197C280.835 23.8877 281.151 23.5557 281.551 23.3237C281.959 23.0917 282.435 22.9757 282.979 22.9757C283.587 22.9757 284.095 23.1037 284.503 23.3597C284.919 23.6157 285.235 23.9797 285.451 24.4517C285.667 24.9237 285.775 25.4757 285.775 26.1077V26.3117C285.775 26.3997 285.747 26.4677 285.691 26.5157C285.643 26.5637 285.579 26.5877 285.499 26.5877H281.347C281.347 26.5957 281.347 26.6117 281.347 26.6357C281.347 26.6597 281.347 26.6797 281.347 26.6957C281.363 27.0237 281.435 27.3317 281.563 27.6197C281.691 27.8997 281.875 28.1277 282.115 28.3037C282.355 28.4797 282.643 28.5677 282.979 28.5677C283.267 28.5677 283.507 28.5237 283.699 28.4357C283.891 28.3477 284.047 28.2517 284.167 28.1477C284.287 28.0357 284.367 27.9517 284.407 27.8957C284.479 27.7917 284.535 27.7317 284.575 27.7157C284.615 27.6917 284.679 27.6797 284.767 27.6797H285.343C285.423 27.6797 285.487 27.7037 285.535 27.7517C285.591 27.7917 285.615 27.8517 285.607 27.9317C285.599 28.0517 285.535 28.1997 285.415 28.3757C285.295 28.5437 285.123 28.7117 284.899 28.8797C284.675 29.0477 284.403 29.1877 284.083 29.2997C283.763 29.4037 283.395 29.4557 282.979 29.4557ZM281.347 25.7597H284.635V25.7237C284.635 25.3637 284.567 25.0437 284.431 24.7637C284.303 24.4837 284.115 24.2637 283.867 24.1037C283.619 23.9357 283.323 23.8517 282.979 23.8517C282.635 23.8517 282.339 23.9357 282.091 24.1037C281.851 24.2637 281.667 24.4837 281.539 24.7637C281.411 25.0437 281.347 25.3637 281.347 25.7237V25.7597Z" fill="#6A6D70"/>
<path d="M276.329 29.3357C276.249 29.3357 276.181 29.3117 276.125 29.2637C276.077 29.2077 276.053 29.1397 276.053 29.0597V23.3837C276.053 23.3037 276.077 23.2357 276.125 23.1797C276.181 23.1237 276.249 23.0957 276.329 23.0957H276.881C276.961 23.0957 277.029 23.1237 277.085 23.1797C277.141 23.2357 277.169 23.3037 277.169 23.3837V23.9117C277.329 23.6397 277.549 23.4357 277.829 23.2997C278.109 23.1637 278.445 23.0957 278.837 23.0957H279.317C279.397 23.0957 279.461 23.1237 279.509 23.1797C279.557 23.2277 279.581 23.2917 279.581 23.3717V23.8637C279.581 23.9437 279.557 24.0077 279.509 24.0557C279.461 24.1037 279.397 24.1277 279.317 24.1277H278.597C278.165 24.1277 277.825 24.2557 277.577 24.5117C277.329 24.7597 277.205 25.0997 277.205 25.5317V29.0597C277.205 29.1397 277.177 29.2077 277.121 29.2637C277.065 29.3117 276.997 29.3357 276.917 29.3357H276.329Z" fill="#6A6D70"/>
<path d="M273.306 29.3357C273.226 29.3357 273.158 29.3117 273.102 29.2637C273.054 29.2077 273.03 29.1397 273.03 29.0597V23.3717C273.03 23.2917 273.054 23.2277 273.102 23.1797C273.158 23.1237 273.226 23.0957 273.306 23.0957H273.882C273.962 23.0957 274.026 23.1237 274.074 23.1797C274.122 23.2277 274.146 23.2917 274.146 23.3717V29.0597C274.146 29.1397 274.122 29.2077 274.074 29.2637C274.026 29.3117 273.962 29.3357 273.882 29.3357H273.306ZM273.21 21.9317C273.13 21.9317 273.062 21.9077 273.006 21.8597C272.958 21.8037 272.934 21.7357 272.934 21.6557V21.0077C272.934 20.9277 272.958 20.8637 273.006 20.8157C273.062 20.7597 273.13 20.7317 273.21 20.7317H273.966C274.046 20.7317 274.11 20.7597 274.158 20.8157C274.214 20.8637 274.242 20.9277 274.242 21.0077V21.6557C274.242 21.7357 274.214 21.8037 274.158 21.8597C274.11 21.9077 274.046 21.9317 273.966 21.9317H273.21Z" fill="#6A6D70"/>
<path d="M268.173 29.4557C267.733 29.4557 267.353 29.3797 267.033 29.2277C266.713 29.0677 266.449 28.8557 266.241 28.5917C266.041 28.3197 265.889 28.0117 265.785 27.6677C265.689 27.3237 265.633 26.9597 265.617 26.5757C265.609 26.4477 265.605 26.3277 265.605 26.2157C265.605 26.1037 265.609 25.9837 265.617 25.8557C265.633 25.4797 265.689 25.1197 265.785 24.7757C265.889 24.4317 266.041 24.1237 266.241 23.8517C266.449 23.5797 266.713 23.3677 267.033 23.2157C267.353 23.0557 267.733 22.9757 268.173 22.9757C268.645 22.9757 269.037 23.0597 269.349 23.2277C269.661 23.3957 269.917 23.6037 270.117 23.8517V21.0917C270.117 21.0117 270.141 20.9477 270.189 20.8997C270.245 20.8437 270.313 20.8157 270.393 20.8157H270.969C271.049 20.8157 271.113 20.8437 271.161 20.8997C271.217 20.9477 271.245 21.0117 271.245 21.0917V29.0597C271.245 29.1397 271.217 29.2077 271.161 29.2637C271.113 29.3117 271.049 29.3357 270.969 29.3357H270.429C270.341 29.3357 270.273 29.3117 270.225 29.2637C270.177 29.2077 270.153 29.1397 270.153 29.0597V28.5557C269.953 28.8117 269.693 29.0277 269.373 29.2037C269.053 29.3717 268.653 29.4557 268.173 29.4557ZM268.425 28.4837C268.825 28.4837 269.145 28.3917 269.385 28.2077C269.625 28.0237 269.805 27.7917 269.925 27.5117C270.045 27.2237 270.109 26.9317 270.117 26.6357C270.125 26.5077 270.129 26.3557 270.129 26.1797C270.129 25.9957 270.125 25.8397 270.117 25.7117C270.109 25.4317 270.041 25.1557 269.913 24.8837C269.793 24.6117 269.609 24.3877 269.361 24.2117C269.121 24.0357 268.809 23.9477 268.425 23.9477C268.017 23.9477 267.693 24.0397 267.453 24.2237C267.213 24.3997 267.041 24.6357 266.937 24.9317C266.833 25.2197 266.773 25.5317 266.757 25.8677C266.749 26.0997 266.749 26.3317 266.757 26.5637C266.773 26.8997 266.833 27.2157 266.937 27.5117C267.041 27.7997 267.213 28.0357 267.453 28.2197C267.693 28.3957 268.017 28.4837 268.425 28.4837Z" fill="#6A6D70"/>
<path d="M260.297 26.2397C260.217 26.2397 260.149 26.2157 260.093 26.1677C260.045 26.1117 260.021 26.0437 260.021 25.9637V25.5077C260.021 25.4277 260.045 25.3637 260.093 25.3157C260.149 25.2597 260.217 25.2317 260.297 25.2317H263.897C263.977 25.2317 264.041 25.2597 264.089 25.3157C264.145 25.3637 264.173 25.4277 264.173 25.5077V25.9637C264.173 26.0437 264.145 26.1117 264.089 26.1677C264.041 26.2157 263.977 26.2397 263.897 26.2397H260.297Z" fill="#6A6D70"/>
<path d="M257.451 29.3357C257.371 29.3357 257.303 29.3117 257.247 29.2637C257.199 29.2077 257.175 29.1397 257.175 29.0597V23.3717C257.175 23.2917 257.199 23.2277 257.247 23.1797C257.303 23.1237 257.371 23.0957 257.451 23.0957H258.027C258.107 23.0957 258.171 23.1237 258.219 23.1797C258.267 23.2277 258.291 23.2917 258.291 23.3717V29.0597C258.291 29.1397 258.267 29.2077 258.219 29.2637C258.171 29.3117 258.107 29.3357 258.027 29.3357H257.451ZM257.355 21.9317C257.275 21.9317 257.207 21.9077 257.151 21.8597C257.103 21.8037 257.079 21.7357 257.079 21.6557V21.0077C257.079 20.9277 257.103 20.8637 257.151 20.8157C257.207 20.7597 257.275 20.7317 257.355 20.7317H258.111C258.191 20.7317 258.255 20.7597 258.303 20.8157C258.359 20.8637 258.387 20.9277 258.387 21.0077V21.6557C258.387 21.7357 258.359 21.8037 258.303 21.8597C258.255 21.9077 258.191 21.9317 258.111 21.9317H257.355Z" fill="#6A6D70"/>
<path d="M249.568 29.3357C249.48 29.3357 249.412 29.3117 249.364 29.2637C249.316 29.2077 249.292 29.1397 249.292 29.0597V21.2237C249.292 21.1357 249.316 21.0677 249.364 21.0197C249.412 20.9637 249.48 20.9357 249.568 20.9357H252.856C253.456 20.9357 253.944 21.0357 254.32 21.2357C254.704 21.4277 254.984 21.6917 255.16 22.0277C255.344 22.3637 255.436 22.7397 255.436 23.1557C255.436 23.4837 255.38 23.7677 255.268 24.0077C255.164 24.2397 255.032 24.4317 254.872 24.5837C254.712 24.7277 254.556 24.8397 254.404 24.9197C254.716 25.0717 254.992 25.3197 255.232 25.6637C255.48 26.0077 255.604 26.4237 255.604 26.9117C255.604 27.3517 255.504 27.7557 255.304 28.1237C255.104 28.4917 254.804 28.7877 254.404 29.0117C254.012 29.2277 253.524 29.3357 252.94 29.3357H249.568ZM250.468 28.3637H252.784C253.304 28.3637 253.704 28.2237 253.984 27.9437C254.264 27.6637 254.404 27.3197 254.404 26.9117C254.404 26.4877 254.264 26.1397 253.984 25.8677C253.704 25.5877 253.304 25.4477 252.784 25.4477H250.468V28.3637ZM250.468 24.4877H252.676C253.188 24.4877 253.576 24.3717 253.84 24.1397C254.104 23.8997 254.236 23.5757 254.236 23.1677C254.236 22.7597 254.104 22.4477 253.84 22.2317C253.576 22.0157 253.188 21.9077 252.676 21.9077H250.468V24.4877Z" fill="#6A6D70"/>
<path d="M146.848 48.8357C146.744 48.8357 146.664 48.8117 146.608 48.7637C146.552 48.7077 146.504 48.6317 146.464 48.5357L144.76 42.9677C144.744 42.9277 144.736 42.8877 144.736 42.8477C144.736 42.7757 144.76 42.7157 144.808 42.6677C144.864 42.6197 144.924 42.5957 144.988 42.5957H145.516C145.604 42.5957 145.672 42.6197 145.72 42.6677C145.768 42.7157 145.8 42.7597 145.816 42.7997L147.148 47.3237L148.576 42.8477C148.592 42.7917 148.624 42.7357 148.672 42.6797C148.728 42.6237 148.808 42.5957 148.912 42.5957H149.32C149.424 42.5957 149.504 42.6237 149.56 42.6797C149.616 42.7357 149.648 42.7917 149.656 42.8477L151.084 47.3237L152.416 42.7997C152.424 42.7597 152.452 42.7157 152.5 42.6677C152.548 42.6197 152.616 42.5957 152.704 42.5957H153.232C153.304 42.5957 153.364 42.6197 153.412 42.6677C153.46 42.7157 153.484 42.7757 153.484 42.8477C153.484 42.8877 153.476 42.9277 153.46 42.9677L151.756 48.5357C151.732 48.6317 151.688 48.7077 151.624 48.7637C151.568 48.8117 151.484 48.8357 151.372 48.8357H150.904C150.8 48.8357 150.712 48.8117 150.64 48.7637C150.576 48.7077 150.532 48.6317 150.508 48.5357L149.116 44.2397L147.724 48.5357C147.692 48.6317 147.644 48.7077 147.58 48.7637C147.516 48.8117 147.428 48.8357 147.316 48.8357H146.848Z" fill="#6A6D70"/>
<path d="M141.021 48.9557C140.413 48.9557 139.905 48.8397 139.497 48.6077C139.089 48.3757 138.777 48.0557 138.561 47.6477C138.345 47.2317 138.225 46.7597 138.201 46.2317C138.193 46.0957 138.189 45.9237 138.189 45.7157C138.189 45.4997 138.193 45.3277 138.201 45.1997C138.225 44.6637 138.345 44.1917 138.561 43.7837C138.785 43.3757 139.101 43.0557 139.509 42.8237C139.917 42.5917 140.421 42.4757 141.021 42.4757C141.621 42.4757 142.125 42.5917 142.533 42.8237C142.941 43.0557 143.253 43.3757 143.469 43.7837C143.693 44.1917 143.817 44.6637 143.841 45.1997C143.849 45.3277 143.853 45.4997 143.853 45.7157C143.853 45.9237 143.849 46.0957 143.841 46.2317C143.817 46.7597 143.697 47.2317 143.481 47.6477C143.265 48.0557 142.953 48.3757 142.545 48.6077C142.137 48.8397 141.629 48.9557 141.021 48.9557ZM141.021 48.0317C141.517 48.0317 141.913 47.8757 142.209 47.5637C142.505 47.2437 142.665 46.7797 142.689 46.1717C142.697 46.0517 142.701 45.8997 142.701 45.7157C142.701 45.5317 142.697 45.3797 142.689 45.2597C142.665 44.6517 142.505 44.1917 142.209 43.8797C141.913 43.5597 141.517 43.3997 141.021 43.3997C140.525 43.3997 140.125 43.5597 139.821 43.8797C139.525 44.1917 139.369 44.6517 139.353 45.2597C139.345 45.3797 139.341 45.5317 139.341 45.7157C139.341 45.8997 139.345 46.0517 139.353 46.1717C139.369 46.7797 139.525 47.2437 139.821 47.5637C140.125 47.8757 140.525 48.0317 141.021 48.0317Z" fill="#6A6D70"/>
<path d="M135.836 48.8357C135.756 48.8357 135.688 48.8117 135.632 48.7637C135.584 48.7077 135.56 48.6397 135.56 48.5597V40.5917C135.56 40.5117 135.584 40.4477 135.632 40.3997C135.688 40.3437 135.756 40.3157 135.836 40.3157H136.4C136.488 40.3157 136.556 40.3437 136.604 40.3997C136.652 40.4477 136.676 40.5117 136.676 40.5917V48.5597C136.676 48.6397 136.652 48.7077 136.604 48.7637C136.556 48.8117 136.488 48.8357 136.4 48.8357H135.836Z" fill="#6A6D70"/>
<path d="M128.972 48.8357C128.884 48.8357 128.816 48.8117 128.768 48.7637C128.72 48.7077 128.696 48.6397 128.696 48.5597V40.7237C128.696 40.6357 128.72 40.5677 128.768 40.5197C128.816 40.4637 128.884 40.4357 128.972 40.4357H133.868C133.956 40.4357 134.024 40.4637 134.072 40.5197C134.12 40.5677 134.144 40.6357 134.144 40.7237V41.2037C134.144 41.2917 134.12 41.3597 134.072 41.4077C134.024 41.4557 133.956 41.4797 133.868 41.4797H129.86V44.2757H133.628C133.716 44.2757 133.784 44.3037 133.832 44.3597C133.88 44.4077 133.904 44.4757 133.904 44.5637V45.0437C133.904 45.1237 133.88 45.1917 133.832 45.2477C133.784 45.2957 133.716 45.3197 133.628 45.3197H129.86V48.5597C129.86 48.6397 129.832 48.7077 129.776 48.7637C129.728 48.8117 129.66 48.8357 129.572 48.8357H128.972Z" fill="#6A6D70"/>
<path d="M123.347 48.8357C122.899 48.8357 122.535 48.7517 122.255 48.5837C121.975 48.4077 121.771 48.1637 121.643 47.8517C121.515 47.5317 121.451 47.1557 121.451 46.7237V43.5557H120.515C120.435 43.5557 120.367 43.5317 120.311 43.4837C120.263 43.4277 120.239 43.3597 120.239 43.2797V42.8717C120.239 42.7917 120.263 42.7277 120.311 42.6797C120.367 42.6237 120.435 42.5957 120.515 42.5957H121.451V40.5917C121.451 40.5117 121.475 40.4477 121.523 40.3997C121.579 40.3437 121.647 40.3157 121.727 40.3157H122.291C122.371 40.3157 122.435 40.3437 122.483 40.3997C122.539 40.4477 122.567 40.5117 122.567 40.5917V42.5957H124.055C124.135 42.5957 124.199 42.6237 124.247 42.6797C124.303 42.7277 124.331 42.7917 124.331 42.8717V43.2797C124.331 43.3597 124.303 43.4277 124.247 43.4837C124.199 43.5317 124.135 43.5557 124.055 43.5557H122.567V46.6397C122.567 47.0157 122.631 47.3117 122.759 47.5277C122.887 47.7437 123.115 47.8517 123.443 47.8517H124.175C124.255 47.8517 124.319 47.8797 124.367 47.9357C124.423 47.9837 124.451 48.0477 124.451 48.1277V48.5597C124.451 48.6397 124.423 48.7077 124.367 48.7637C124.319 48.8117 124.255 48.8357 124.175 48.8357H123.347Z" fill="#6A6D70"/>
<path d="M113.992 48.8357C113.912 48.8357 113.844 48.8117 113.788 48.7637C113.74 48.7077 113.716 48.6397 113.716 48.5597V42.8717C113.716 42.7917 113.74 42.7277 113.788 42.6797C113.844 42.6237 113.912 42.5957 113.992 42.5957H114.556C114.636 42.5957 114.7 42.6237 114.748 42.6797C114.804 42.7277 114.832 42.7917 114.832 42.8717V43.3997C115.04 43.1277 115.3 42.9077 115.612 42.7397C115.932 42.5637 116.34 42.4757 116.836 42.4757C117.356 42.4757 117.796 42.5917 118.156 42.8237C118.524 43.0477 118.8 43.3637 118.984 43.7717C119.168 44.1717 119.26 44.6397 119.26 45.1757V48.5597C119.26 48.6397 119.236 48.7077 119.188 48.7637C119.14 48.8117 119.076 48.8357 118.996 48.8357H118.396C118.316 48.8357 118.248 48.8117 118.192 48.7637C118.144 48.7077 118.12 48.6397 118.12 48.5597V45.2357C118.12 44.6757 117.984 44.2397 117.712 43.9277C117.44 43.6077 117.04 43.4477 116.512 43.4477C116.016 43.4477 115.616 43.6077 115.312 43.9277C115.016 44.2397 114.868 44.6757 114.868 45.2357V48.5597C114.868 48.6397 114.84 48.7077 114.784 48.7637C114.736 48.8117 114.672 48.8357 114.592 48.8357H113.992Z" fill="#6A6D70"/>
<path d="M109.485 48.9557C108.661 48.9557 108.005 48.7037 107.517 48.1997C107.029 47.6877 106.761 46.9917 106.713 46.1117C106.705 46.0077 106.701 45.8757 106.701 45.7157C106.701 45.5477 106.705 45.4117 106.713 45.3077C106.745 44.7397 106.877 44.2437 107.109 43.8197C107.341 43.3877 107.657 43.0557 108.057 42.8237C108.465 42.5917 108.941 42.4757 109.485 42.4757C110.093 42.4757 110.601 42.6037 111.009 42.8597C111.425 43.1157 111.741 43.4797 111.957 43.9517C112.173 44.4237 112.281 44.9757 112.281 45.6077V45.8117C112.281 45.8997 112.253 45.9677 112.197 46.0157C112.149 46.0637 112.085 46.0877 112.005 46.0877H107.853C107.853 46.0957 107.853 46.1117 107.853 46.1357C107.853 46.1597 107.853 46.1797 107.853 46.1957C107.869 46.5237 107.941 46.8317 108.069 47.1197C108.197 47.3997 108.381 47.6277 108.621 47.8037C108.861 47.9797 109.149 48.0677 109.485 48.0677C109.773 48.0677 110.013 48.0237 110.205 47.9357C110.397 47.8477 110.553 47.7517 110.673 47.6477C110.793 47.5357 110.873 47.4517 110.913 47.3957C110.985 47.2917 111.041 47.2317 111.081 47.2157C111.121 47.1917 111.185 47.1797 111.273 47.1797H111.849C111.929 47.1797 111.993 47.2037 112.041 47.2517C112.097 47.2917 112.121 47.3517 112.113 47.4317C112.105 47.5517 112.041 47.6997 111.921 47.8757C111.801 48.0437 111.629 48.2117 111.405 48.3797C111.181 48.5477 110.909 48.6877 110.589 48.7997C110.269 48.9037 109.901 48.9557 109.485 48.9557ZM107.853 45.2597H111.141V45.2237C111.141 44.8637 111.073 44.5437 110.937 44.2637C110.809 43.9837 110.621 43.7637 110.373 43.6037C110.125 43.4357 109.829 43.3517 109.485 43.3517C109.141 43.3517 108.845 43.4357 108.597 43.6037C108.357 43.7637 108.173 43.9837 108.045 44.2637C107.917 44.5437 107.853 44.8637 107.853 45.2237V45.2597Z" fill="#6A6D70"/>
<path d="M102.751 48.8357C102.631 48.8357 102.535 48.8077 102.463 48.7517C102.399 48.6957 102.347 48.6237 102.307 48.5357L100.087 42.9677C100.071 42.9277 100.063 42.8877 100.063 42.8477C100.063 42.7757 100.087 42.7157 100.135 42.6677C100.183 42.6197 100.243 42.5957 100.315 42.5957H100.891C100.979 42.5957 101.047 42.6197 101.095 42.6677C101.143 42.7157 101.171 42.7597 101.179 42.7997L103.015 47.5277L104.839 42.7997C104.855 42.7597 104.883 42.7157 104.923 42.6677C104.971 42.6197 105.039 42.5957 105.127 42.5957H105.715C105.779 42.5957 105.835 42.6197 105.883 42.6677C105.939 42.7157 105.967 42.7757 105.967 42.8477C105.967 42.8877 105.959 42.9277 105.943 42.9677L103.711 48.5357C103.679 48.6237 103.627 48.6957 103.555 48.7517C103.491 48.8077 103.395 48.8357 103.267 48.8357H102.751Z" fill="#6A6D70"/>
<path d="M93.9093 48.8357C93.8213 48.8357 93.7533 48.8117 93.7053 48.7637C93.6573 48.7077 93.6333 48.6397 93.6333 48.5597V40.7237C93.6333 40.6357 93.6573 40.5677 93.7053 40.5197C93.7533 40.4637 93.8213 40.4357 93.9093 40.4357H98.8653C98.9533 40.4357 99.0213 40.4637 99.0693 40.5197C99.1173 40.5677 99.1413 40.6357 99.1413 40.7237V41.1797C99.1413 41.2677 99.1173 41.3357 99.0693 41.3837C99.0213 41.4317 98.9533 41.4557 98.8653 41.4557H94.7853V44.0837H98.6013C98.6893 44.0837 98.7573 44.1117 98.8053 44.1677C98.8533 44.2157 98.8773 44.2837 98.8773 44.3717V44.8157C98.8773 44.8957 98.8533 44.9637 98.8053 45.0197C98.7573 45.0677 98.6893 45.0917 98.6013 45.0917H94.7853V47.8157H98.9613C99.0493 47.8157 99.1173 47.8397 99.1653 47.8877C99.2133 47.9357 99.2373 48.0037 99.2373 48.0917V48.5597C99.2373 48.6397 99.2133 48.7077 99.1653 48.7637C99.1173 48.8117 99.0493 48.8357 98.9613 48.8357H93.9093Z" fill="#6A6D70"/>
<path d="M170.464 30.8357C170.384 30.8357 170.316 30.8117 170.26 30.7637C170.212 30.7077 170.188 30.6397 170.188 30.5597V22.5917C170.188 22.5117 170.212 22.4477 170.26 22.3997C170.316 22.3437 170.384 22.3157 170.464 22.3157H171.028C171.116 22.3157 171.184 22.3437 171.232 22.3997C171.28 22.4477 171.304 22.5117 171.304 22.5917V30.5597C171.304 30.6397 171.28 30.7077 171.232 30.7637C171.184 30.8117 171.116 30.8357 171.028 30.8357H170.464Z" fill="#6A6D70"/>
<path d="M165.295 30.9557C164.895 30.9557 164.531 30.8757 164.203 30.7157C163.875 30.5557 163.611 30.3397 163.411 30.0677C163.211 29.7957 163.111 29.4877 163.111 29.1437C163.111 28.5917 163.335 28.1517 163.783 27.8237C164.231 27.4957 164.815 27.2797 165.535 27.1757L167.323 26.9237V26.5757C167.323 26.1917 167.211 25.8917 166.987 25.6757C166.771 25.4597 166.415 25.3517 165.919 25.3517C165.559 25.3517 165.267 25.4237 165.043 25.5677C164.827 25.7117 164.675 25.8957 164.587 26.1197C164.539 26.2397 164.455 26.2997 164.335 26.2997H163.795C163.707 26.2997 163.639 26.2757 163.591 26.2277C163.551 26.1717 163.531 26.1077 163.531 26.0357C163.531 25.9157 163.575 25.7677 163.663 25.5917C163.759 25.4157 163.903 25.2437 164.095 25.0757C164.287 24.9077 164.531 24.7677 164.827 24.6557C165.131 24.5357 165.499 24.4757 165.931 24.4757C166.411 24.4757 166.815 24.5397 167.143 24.6677C167.471 24.7877 167.727 24.9517 167.911 25.1597C168.103 25.3677 168.239 25.6037 168.319 25.8677C168.407 26.1317 168.451 26.3997 168.451 26.6717V30.5597C168.451 30.6397 168.423 30.7077 168.367 30.7637C168.319 30.8117 168.255 30.8357 168.175 30.8357H167.623C167.535 30.8357 167.467 30.8117 167.419 30.7637C167.371 30.7077 167.347 30.6397 167.347 30.5597V30.0437C167.243 30.1877 167.103 30.3317 166.927 30.4757C166.751 30.6117 166.531 30.7277 166.267 30.8237C166.003 30.9117 165.679 30.9557 165.295 30.9557ZM165.547 30.0557C165.875 30.0557 166.175 29.9877 166.447 29.8517C166.719 29.7077 166.931 29.4877 167.083 29.1917C167.243 28.8957 167.323 28.5237 167.323 28.0757V27.7397L165.931 27.9437C165.363 28.0237 164.935 28.1597 164.647 28.3517C164.359 28.5357 164.215 28.7717 164.215 29.0597C164.215 29.2837 164.279 29.4717 164.407 29.6237C164.543 29.7677 164.711 29.8757 164.911 29.9477C165.119 30.0197 165.331 30.0557 165.547 30.0557Z" fill="#6A6D70"/>
<path d="M156.554 30.8357C156.474 30.8357 156.406 30.8117 156.35 30.7637C156.302 30.7077 156.278 30.6397 156.278 30.5597V24.8717C156.278 24.7917 156.302 24.7277 156.35 24.6797C156.406 24.6237 156.474 24.5957 156.554 24.5957H157.118C157.198 24.5957 157.262 24.6237 157.31 24.6797C157.366 24.7277 157.394 24.7917 157.394 24.8717V25.3997C157.602 25.1277 157.862 24.9077 158.174 24.7397C158.494 24.5637 158.902 24.4757 159.398 24.4757C159.918 24.4757 160.358 24.5917 160.718 24.8237C161.086 25.0477 161.362 25.3637 161.546 25.7717C161.73 26.1717 161.822 26.6397 161.822 27.1757V30.5597C161.822 30.6397 161.798 30.7077 161.75 30.7637C161.702 30.8117 161.638 30.8357 161.558 30.8357H160.958C160.878 30.8357 160.81 30.8117 160.754 30.7637C160.706 30.7077 160.682 30.6397 160.682 30.5597V27.2357C160.682 26.6757 160.546 26.2397 160.274 25.9277C160.002 25.6077 159.602 25.4477 159.074 25.4477C158.578 25.4477 158.178 25.6077 157.874 25.9277C157.578 26.2397 157.43 26.6757 157.43 27.2357V30.5597C157.43 30.6397 157.402 30.7077 157.346 30.7637C157.298 30.8117 157.234 30.8357 157.154 30.8357H156.554Z" fill="#6A6D70"/>
<path d="M151.943 30.9557C151.335 30.9557 150.827 30.8397 150.419 30.6077C150.011 30.3757 149.699 30.0557 149.483 29.6477C149.267 29.2317 149.147 28.7597 149.123 28.2317C149.115 28.0957 149.111 27.9237 149.111 27.7157C149.111 27.4997 149.115 27.3277 149.123 27.1997C149.147 26.6637 149.267 26.1917 149.483 25.7837C149.707 25.3757 150.023 25.0557 150.431 24.8237C150.839 24.5917 151.343 24.4757 151.943 24.4757C152.543 24.4757 153.047 24.5917 153.455 24.8237C153.863 25.0557 154.175 25.3757 154.391 25.7837C154.615 26.1917 154.739 26.6637 154.763 27.1997C154.771 27.3277 154.775 27.4997 154.775 27.7157C154.775 27.9237 154.771 28.0957 154.763 28.2317C154.739 28.7597 154.619 29.2317 154.403 29.6477C154.187 30.0557 153.875 30.3757 153.467 30.6077C153.059 30.8397 152.551 30.9557 151.943 30.9557ZM151.943 30.0317C152.439 30.0317 152.835 29.8757 153.131 29.5637C153.427 29.2437 153.587 28.7797 153.611 28.1717C153.619 28.0517 153.623 27.8997 153.623 27.7157C153.623 27.5317 153.619 27.3797 153.611 27.2597C153.587 26.6517 153.427 26.1917 153.131 25.8797C152.835 25.5597 152.439 25.3997 151.943 25.3997C151.447 25.3997 151.047 25.5597 150.743 25.8797C150.447 26.1917 150.291 26.6517 150.275 27.2597C150.267 27.3797 150.263 27.5317 150.263 27.7157C150.263 27.8997 150.267 28.0517 150.275 28.1717C150.291 28.7797 150.447 29.2437 150.743 29.5637C151.047 29.8757 151.447 30.0317 151.943 30.0317Z" fill="#6A6D70"/>
<path d="M146.734 30.8357C146.654 30.8357 146.586 30.8117 146.53 30.7637C146.482 30.7077 146.458 30.6397 146.458 30.5597V24.8717C146.458 24.7917 146.482 24.7277 146.53 24.6797C146.586 24.6237 146.654 24.5957 146.734 24.5957H147.31C147.39 24.5957 147.454 24.6237 147.502 24.6797C147.55 24.7277 147.574 24.7917 147.574 24.8717V30.5597C147.574 30.6397 147.55 30.7077 147.502 30.7637C147.454 30.8117 147.39 30.8357 147.31 30.8357H146.734ZM146.638 23.4317C146.558 23.4317 146.49 23.4077 146.434 23.3597C146.386 23.3037 146.362 23.2357 146.362 23.1557V22.5077C146.362 22.4277 146.386 22.3637 146.434 22.3157C146.49 22.2597 146.558 22.2317 146.638 22.2317H147.394C147.474 22.2317 147.538 22.2597 147.586 22.3157C147.642 22.3637 147.67 22.4277 147.67 22.5077V23.1557C147.67 23.2357 147.642 23.3037 147.586 23.3597C147.538 23.4077 147.474 23.4317 147.394 23.4317H146.638Z" fill="#6A6D70"/>
<path d="M144.206 30.8357C143.758 30.8357 143.394 30.7517 143.114 30.5837C142.834 30.4077 142.63 30.1637 142.502 29.8517C142.374 29.5317 142.31 29.1557 142.31 28.7237V25.5557H141.374C141.294 25.5557 141.226 25.5317 141.17 25.4837C141.122 25.4277 141.098 25.3597 141.098 25.2797V24.8717C141.098 24.7917 141.122 24.7277 141.17 24.6797C141.226 24.6237 141.294 24.5957 141.374 24.5957H142.31V22.5917C142.31 22.5117 142.334 22.4477 142.382 22.3997C142.438 22.3437 142.506 22.3157 142.586 22.3157H143.15C143.23 22.3157 143.294 22.3437 143.342 22.3997C143.398 22.4477 143.426 22.5117 143.426 22.5917V24.5957H144.914C144.994 24.5957 145.058 24.6237 145.106 24.6797C145.162 24.7277 145.19 24.7917 145.19 24.8717V25.2797C145.19 25.3597 145.162 25.4277 145.106 25.4837C145.058 25.5317 144.994 25.5557 144.914 25.5557H143.426V28.6397C143.426 29.0157 143.49 29.3117 143.618 29.5277C143.746 29.7437 143.974 29.8517 144.302 29.8517H145.034C145.114 29.8517 145.178 29.8797 145.226 29.9357C145.282 29.9837 145.31 30.0477 145.31 30.1277V30.5597C145.31 30.6397 145.282 30.7077 145.226 30.7637C145.178 30.8117 145.114 30.8357 145.034 30.8357H144.206Z" fill="#6A6D70"/>
<path d="M137.669 30.9557C137.101 30.9557 136.609 30.8477 136.193 30.6317C135.785 30.4077 135.469 30.0917 135.245 29.6837C135.021 29.2677 134.901 28.7717 134.885 28.1957C134.877 28.0757 134.873 27.9157 134.873 27.7157C134.873 27.5157 134.877 27.3557 134.885 27.2357C134.901 26.6597 135.021 26.1677 135.245 25.7597C135.469 25.3437 135.785 25.0277 136.193 24.8117C136.609 24.5877 137.101 24.4757 137.669 24.4757C138.133 24.4757 138.529 24.5397 138.857 24.6677C139.193 24.7957 139.469 24.9597 139.685 25.1597C139.901 25.3597 140.061 25.5757 140.165 25.8077C140.277 26.0397 140.337 26.2597 140.345 26.4677C140.353 26.5477 140.329 26.6117 140.273 26.6597C140.217 26.7077 140.149 26.7317 140.069 26.7317H139.493C139.413 26.7317 139.353 26.7157 139.313 26.6837C139.273 26.6437 139.233 26.5797 139.193 26.4917C139.049 26.0997 138.853 25.8237 138.605 25.6637C138.357 25.5037 138.049 25.4237 137.681 25.4237C137.201 25.4237 136.809 25.5717 136.505 25.8677C136.209 26.1637 136.049 26.6397 136.025 27.2957C136.017 27.5837 136.017 27.8637 136.025 28.1357C136.049 28.7997 136.209 29.2797 136.505 29.5757C136.809 29.8637 137.201 30.0077 137.681 30.0077C138.049 30.0077 138.357 29.9277 138.605 29.7677C138.853 29.6077 139.049 29.3317 139.193 28.9397C139.233 28.8517 139.273 28.7917 139.313 28.7597C139.353 28.7197 139.413 28.6997 139.493 28.6997H140.069C140.149 28.6997 140.217 28.7237 140.273 28.7717C140.329 28.8197 140.353 28.8837 140.345 28.9637C140.337 29.1317 140.301 29.3037 140.237 29.4797C140.173 29.6557 140.069 29.8357 139.925 30.0197C139.789 30.1957 139.617 30.3557 139.409 30.4997C139.201 30.6357 138.949 30.7477 138.653 30.8357C138.365 30.9157 138.037 30.9557 137.669 30.9557Z" fill="#6A6D70"/>
<path d="M130.918 30.9557C130.094 30.9557 129.438 30.7037 128.95 30.1997C128.462 29.6877 128.194 28.9917 128.146 28.1117C128.138 28.0077 128.134 27.8757 128.134 27.7157C128.134 27.5477 128.138 27.4117 128.146 27.3077C128.178 26.7397 128.31 26.2437 128.542 25.8197C128.774 25.3877 129.09 25.0557 129.49 24.8237C129.898 24.5917 130.374 24.4757 130.918 24.4757C131.526 24.4757 132.034 24.6037 132.442 24.8597C132.858 25.1157 133.174 25.4797 133.39 25.9517C133.606 26.4237 133.714 26.9757 133.714 27.6077V27.8117C133.714 27.8997 133.686 27.9677 133.63 28.0157C133.582 28.0637 133.518 28.0877 133.438 28.0877H129.286C129.286 28.0957 129.286 28.1117 129.286 28.1357C129.286 28.1597 129.286 28.1797 129.286 28.1957C129.302 28.5237 129.374 28.8317 129.502 29.1197C129.63 29.3997 129.814 29.6277 130.054 29.8037C130.294 29.9797 130.582 30.0677 130.918 30.0677C131.206 30.0677 131.446 30.0237 131.638 29.9357C131.83 29.8477 131.986 29.7517 132.106 29.6477C132.226 29.5357 132.306 29.4517 132.346 29.3957C132.418 29.2917 132.474 29.2317 132.514 29.2157C132.554 29.1917 132.618 29.1797 132.706 29.1797H133.282C133.362 29.1797 133.426 29.2037 133.474 29.2517C133.53 29.2917 133.554 29.3517 133.546 29.4317C133.538 29.5517 133.474 29.6997 133.354 29.8757C133.234 30.0437 133.062 30.2117 132.838 30.3797C132.614 30.5477 132.342 30.6877 132.022 30.7997C131.702 30.9037 131.334 30.9557 130.918 30.9557ZM129.286 27.2597H132.574V27.2237C132.574 26.8637 132.506 26.5437 132.37 26.2637C132.242 25.9837 132.054 25.7637 131.806 25.6037C131.558 25.4357 131.262 25.3517 130.918 25.3517C130.574 25.3517 130.278 25.4357 130.03 25.6037C129.79 25.7637 129.606 25.9837 129.478 26.2637C129.35 26.5437 129.286 26.8637 129.286 27.2237V27.2597Z" fill="#6A6D70"/>
<path d="M124.269 30.8357C124.189 30.8357 124.121 30.8117 124.065 30.7637C124.017 30.7077 123.993 30.6397 123.993 30.5597V24.8837C123.993 24.8037 124.017 24.7357 124.065 24.6797C124.121 24.6237 124.189 24.5957 124.269 24.5957H124.821C124.901 24.5957 124.969 24.6237 125.025 24.6797C125.081 24.7357 125.109 24.8037 125.109 24.8837V25.4117C125.269 25.1397 125.489 24.9357 125.769 24.7997C126.049 24.6637 126.385 24.5957 126.777 24.5957H127.257C127.337 24.5957 127.401 24.6237 127.449 24.6797C127.497 24.7277 127.521 24.7917 127.521 24.8717V25.3637C127.521 25.4437 127.497 25.5077 127.449 25.5557C127.401 25.6037 127.337 25.6277 127.257 25.6277H126.537C126.105 25.6277 125.765 25.7557 125.517 26.0117C125.269 26.2597 125.145 26.5997 125.145 27.0317V30.5597C125.145 30.6397 125.117 30.7077 125.061 30.7637C125.005 30.8117 124.937 30.8357 124.857 30.8357H124.269Z" fill="#6A6D70"/>
<path d="M121.246 30.8357C121.166 30.8357 121.098 30.8117 121.042 30.7637C120.994 30.7077 120.97 30.6397 120.97 30.5597V24.8717C120.97 24.7917 120.994 24.7277 121.042 24.6797C121.098 24.6237 121.166 24.5957 121.246 24.5957H121.822C121.902 24.5957 121.966 24.6237 122.014 24.6797C122.062 24.7277 122.086 24.7917 122.086 24.8717V30.5597C122.086 30.6397 122.062 30.7077 122.014 30.7637C121.966 30.8117 121.902 30.8357 121.822 30.8357H121.246ZM121.15 23.4317C121.07 23.4317 121.002 23.4077 120.946 23.3597C120.898 23.3037 120.874 23.2357 120.874 23.1557V22.5077C120.874 22.4277 120.898 22.3637 120.946 22.3157C121.002 22.2597 121.07 22.2317 121.15 22.2317H121.906C121.986 22.2317 122.05 22.2597 122.098 22.3157C122.154 22.3637 122.182 22.4277 122.182 22.5077V23.1557C122.182 23.2357 122.154 23.3037 122.098 23.3597C122.05 23.4077 121.986 23.4317 121.906 23.4317H121.15Z" fill="#6A6D70"/>
<path d="M113.128 30.8357C113.04 30.8357 112.972 30.8117 112.924 30.7637C112.876 30.7077 112.852 30.6397 112.852 30.5597V22.7237C112.852 22.6357 112.876 22.5677 112.924 22.5197C112.972 22.4637 113.04 22.4357 113.128 22.4357H115.852C116.676 22.4357 117.34 22.5597 117.844 22.8077C118.348 23.0557 118.716 23.4237 118.948 23.9117C119.18 24.3917 119.3 24.9837 119.308 25.6877C119.316 26.0477 119.32 26.3637 119.32 26.6357C119.32 26.9077 119.316 27.2197 119.308 27.5717C119.292 28.3077 119.168 28.9197 118.936 29.4077C118.712 29.8877 118.352 30.2477 117.856 30.4877C117.368 30.7197 116.72 30.8357 115.912 30.8357H113.128ZM114.028 29.8157H115.852C116.404 29.8157 116.844 29.7397 117.172 29.5877C117.5 29.4357 117.736 29.1917 117.88 28.8557C118.032 28.5197 118.112 28.0757 118.12 27.5237C118.136 27.2837 118.144 27.0757 118.144 26.8997C118.144 26.7157 118.144 26.5357 118.144 26.3597C118.144 26.1757 118.136 25.9677 118.12 25.7357C118.104 24.9597 117.92 24.3877 117.568 24.0197C117.216 23.6437 116.624 23.4557 115.792 23.4557H114.028V29.8157Z" fill="#6A6D70"/>
<path d="M105.524 30.9557C104.7 30.9557 104.044 30.7037 103.556 30.1997C103.068 29.6877 102.8 28.9917 102.752 28.1117C102.744 28.0077 102.74 27.8757 102.74 27.7157C102.74 27.5477 102.744 27.4117 102.752 27.3077C102.784 26.7397 102.916 26.2437 103.148 25.8197C103.38 25.3877 103.696 25.0557 104.096 24.8237C104.504 24.5917 104.98 24.4757 105.524 24.4757C106.132 24.4757 106.64 24.6037 107.048 24.8597C107.464 25.1157 107.78 25.4797 107.996 25.9517C108.212 26.4237 108.32 26.9757 108.32 27.6077V27.8117C108.32 27.8997 108.292 27.9677 108.236 28.0157C108.188 28.0637 108.124 28.0877 108.044 28.0877H103.892C103.892 28.0957 103.892 28.1117 103.892 28.1357C103.892 28.1597 103.892 28.1797 103.892 28.1957C103.908 28.5237 103.98 28.8317 104.108 29.1197C104.236 29.3997 104.42 29.6277 104.66 29.8037C104.9 29.9797 105.188 30.0677 105.524 30.0677C105.812 30.0677 106.052 30.0237 106.244 29.9357C106.436 29.8477 106.592 29.7517 106.712 29.6477C106.832 29.5357 106.912 29.4517 106.952 29.3957C107.024 29.2917 107.08 29.2317 107.12 29.2157C107.16 29.1917 107.224 29.1797 107.312 29.1797H107.888C107.968 29.1797 108.032 29.2037 108.08 29.2517C108.136 29.2917 108.16 29.3517 108.152 29.4317C108.144 29.5517 108.08 29.6997 107.96 29.8757C107.84 30.0437 107.668 30.2117 107.444 30.3797C107.22 30.5477 106.948 30.6877 106.628 30.7997C106.308 30.9037 105.94 30.9557 105.524 30.9557ZM103.892 27.2597H107.18V27.2237C107.18 26.8637 107.112 26.5437 106.976 26.2637C106.848 25.9837 106.66 25.7637 106.412 25.6037C106.164 25.4357 105.868 25.3517 105.524 25.3517C105.18 25.3517 104.884 25.4357 104.636 25.6037C104.396 25.7637 104.212 25.9837 104.084 26.2637C103.956 26.5437 103.892 26.8637 103.892 27.2237V27.2597Z" fill="#6A6D70"/>
<path d="M100.41 30.8357C100.33 30.8357 100.262 30.8117 100.206 30.7637C100.158 30.7077 100.134 30.6397 100.134 30.5597V22.5917C100.134 22.5117 100.158 22.4477 100.206 22.3997C100.262 22.3437 100.33 22.3157 100.41 22.3157H100.974C101.062 22.3157 101.13 22.3437 101.178 22.3997C101.226 22.4477 101.25 22.5117 101.25 22.5917V30.5597C101.25 30.6397 101.226 30.7077 101.178 30.7637C101.13 30.8117 101.062 30.8357 100.974 30.8357H100.41Z" fill="#6A6D70"/>
<path d="M95.5177 33.4757C94.9737 33.4757 94.5257 33.4037 94.1737 33.2597C93.8297 33.1157 93.5577 32.9397 93.3577 32.7317C93.1657 32.5317 93.0257 32.3277 92.9377 32.1197C92.8577 31.9197 92.8137 31.7597 92.8057 31.6397C92.7977 31.5597 92.8217 31.4917 92.8777 31.4357C92.9417 31.3797 93.0097 31.3517 93.0817 31.3517H93.6577C93.7297 31.3517 93.7897 31.3677 93.8377 31.3997C93.8857 31.4317 93.9257 31.4997 93.9577 31.6037C94.0057 31.7237 94.0777 31.8557 94.1737 31.9997C94.2697 32.1517 94.4177 32.2797 94.6177 32.3837C94.8177 32.4957 95.0977 32.5517 95.4577 32.5517C95.8337 32.5517 96.1497 32.4997 96.4057 32.3957C96.6617 32.2997 96.8537 32.1237 96.9817 31.8677C97.1177 31.6197 97.1857 31.2757 97.1857 30.8357V30.0197C96.9937 30.2677 96.7417 30.4757 96.4297 30.6437C96.1177 30.8037 95.7257 30.8837 95.2537 30.8837C94.8057 30.8837 94.4217 30.8077 94.1017 30.6557C93.7817 30.4957 93.5177 30.2837 93.3097 30.0197C93.1097 29.7477 92.9577 29.4397 92.8537 29.0957C92.7577 28.7517 92.7017 28.3917 92.6857 28.0157C92.6777 27.7917 92.6777 27.5717 92.6857 27.3557C92.7017 26.9797 92.7577 26.6197 92.8537 26.2757C92.9577 25.9317 93.1097 25.6237 93.3097 25.3517C93.5177 25.0797 93.7817 24.8677 94.1017 24.7157C94.4217 24.5557 94.8057 24.4757 95.2537 24.4757C95.7337 24.4757 96.1297 24.5677 96.4417 24.7517C96.7617 24.9277 97.0217 25.1437 97.2217 25.3997V24.8837C97.2217 24.8037 97.2457 24.7357 97.2937 24.6797C97.3497 24.6237 97.4177 24.5957 97.4977 24.5957H98.0497C98.1297 24.5957 98.1977 24.6237 98.2537 24.6797C98.3097 24.7357 98.3377 24.8037 98.3377 24.8837V30.7037C98.3377 31.2397 98.2457 31.7157 98.0617 32.1317C97.8857 32.5477 97.5897 32.8757 97.1737 33.1157C96.7657 33.3557 96.2137 33.4757 95.5177 33.4757ZM95.4937 29.9237C95.8937 29.9237 96.2137 29.8317 96.4537 29.6477C96.7017 29.4637 96.8817 29.2317 96.9937 28.9517C97.1137 28.6717 97.1777 28.3877 97.1857 28.0997C97.1937 27.9877 97.1977 27.8517 97.1977 27.6917C97.1977 27.5237 97.1937 27.3837 97.1857 27.2717C97.1777 26.9837 97.1137 26.6997 96.9937 26.4197C96.8817 26.1397 96.7017 25.9077 96.4537 25.7237C96.2137 25.5397 95.8937 25.4477 95.4937 25.4477C95.0937 25.4477 94.7737 25.5397 94.5337 25.7237C94.2937 25.8997 94.1217 26.1357 94.0177 26.4317C93.9137 26.7197 93.8537 27.0317 93.8377 27.3677C93.8297 27.5757 93.8297 27.7877 93.8377 28.0037C93.8537 28.3397 93.9137 28.6557 94.0177 28.9517C94.1217 29.2397 94.2937 29.4757 94.5337 29.6597C94.7737 29.8357 95.0937 29.9237 95.4937 29.9237Z" fill="#6A6D70"/>
<path d="M85.9603 30.8357C85.8803 30.8357 85.8123 30.8117 85.7563 30.7637C85.7083 30.7077 85.6843 30.6397 85.6843 30.5597V24.8717C85.6843 24.7917 85.7083 24.7277 85.7563 24.6797C85.8123 24.6237 85.8803 24.5957 85.9603 24.5957H86.5243C86.6043 24.5957 86.6683 24.6237 86.7163 24.6797C86.7723 24.7277 86.8003 24.7917 86.8003 24.8717V25.3997C87.0083 25.1277 87.2683 24.9077 87.5803 24.7397C87.9003 24.5637 88.3083 24.4757 88.8043 24.4757C89.3243 24.4757 89.7643 24.5917 90.1243 24.8237C90.4923 25.0477 90.7683 25.3637 90.9523 25.7717C91.1363 26.1717 91.2283 26.6397 91.2283 27.1757V30.5597C91.2283 30.6397 91.2043 30.7077 91.1563 30.7637C91.1083 30.8117 91.0443 30.8357 90.9643 30.8357H90.3643C90.2843 30.8357 90.2163 30.8117 90.1603 30.7637C90.1123 30.7077 90.0883 30.6397 90.0883 30.5597V27.2357C90.0883 26.6757 89.9523 26.2397 89.6803 25.9277C89.4083 25.6077 89.0083 25.4477 88.4803 25.4477C87.9843 25.4477 87.5843 25.6077 87.2803 25.9277C86.9843 26.2397 86.8363 26.6757 86.8363 27.2357V30.5597C86.8363 30.6397 86.8083 30.7077 86.7523 30.7637C86.7043 30.8117 86.6403 30.8357 86.5603 30.8357H85.9603Z" fill="#6A6D70"/>
<path d="M82.9369 30.8357C82.8569 30.8357 82.7889 30.8117 82.7329 30.7637C82.6849 30.7077 82.6609 30.6397 82.6609 30.5597V24.8717C82.6609 24.7917 82.6849 24.7277 82.7329 24.6797C82.7889 24.6237 82.8569 24.5957 82.9369 24.5957H83.5129C83.5929 24.5957 83.6569 24.6237 83.7049 24.6797C83.7529 24.7277 83.7769 24.7917 83.7769 24.8717V30.5597C83.7769 30.6397 83.7529 30.7077 83.7049 30.7637C83.6569 30.8117 83.5929 30.8357 83.5129 30.8357H82.9369ZM82.8409 23.4317C82.7609 23.4317 82.6929 23.4077 82.6369 23.3597C82.5889 23.3037 82.5649 23.2357 82.5649 23.1557V22.5077C82.5649 22.4277 82.5889 22.3637 82.6369 22.3157C82.6929 22.2597 82.7609 22.2317 82.8409 22.2317H83.5969C83.6769 22.2317 83.7409 22.2597 83.7889 22.3157C83.8449 22.3637 83.8729 22.4277 83.8729 22.5077V23.1557C83.8729 23.2357 83.8449 23.3037 83.7889 23.3597C83.7409 23.4077 83.6769 23.4317 83.5969 23.4317H82.8409Z" fill="#6A6D70"/>
<path d="M78.052 30.9557C77.356 30.9557 76.772 30.8517 76.3 30.6437C75.828 30.4277 75.464 30.1517 75.208 29.8157C74.96 29.4717 74.828 29.1077 74.812 28.7237C74.812 28.6597 74.836 28.6037 74.884 28.5557C74.94 28.4997 75.004 28.4717 75.076 28.4717H75.688C75.784 28.4717 75.856 28.4957 75.904 28.5437C75.952 28.5917 75.984 28.6477 76 28.7117C76.04 28.9037 76.136 29.0957 76.288 29.2877C76.448 29.4717 76.668 29.6277 76.948 29.7557C77.236 29.8757 77.604 29.9357 78.052 29.9357C78.74 29.9357 79.244 29.8157 79.564 29.5757C79.892 29.3277 80.056 28.9997 80.056 28.5917C80.056 28.3117 79.968 28.0877 79.792 27.9197C79.624 27.7437 79.364 27.5877 79.012 27.4517C78.66 27.3157 78.204 27.1677 77.644 27.0077C77.06 26.8397 76.576 26.6557 76.192 26.4557C75.808 26.2557 75.52 26.0077 75.328 25.7117C75.144 25.4157 75.052 25.0397 75.052 24.5837C75.052 24.1517 75.168 23.7677 75.4 23.4317C75.632 23.0877 75.964 22.8157 76.396 22.6157C76.836 22.4157 77.368 22.3157 77.992 22.3157C78.488 22.3157 78.92 22.3837 79.288 22.5197C79.664 22.6477 79.976 22.8237 80.224 23.0477C80.472 23.2637 80.66 23.4997 80.788 23.7557C80.916 24.0037 80.984 24.2477 80.992 24.4877C80.992 24.5437 80.972 24.5997 80.932 24.6557C80.892 24.7037 80.828 24.7277 80.74 24.7277H80.104C80.048 24.7277 79.988 24.7117 79.924 24.6797C79.868 24.6477 79.824 24.5877 79.792 24.4997C79.744 24.1717 79.56 23.8957 79.24 23.6717C78.92 23.4477 78.504 23.3357 77.992 23.3357C77.472 23.3357 77.048 23.4357 76.72 23.6357C76.4 23.8357 76.24 24.1477 76.24 24.5717C76.24 24.8437 76.316 25.0717 76.468 25.2557C76.62 25.4317 76.86 25.5877 77.188 25.7237C77.516 25.8597 77.944 26.0037 78.472 26.1557C79.112 26.3317 79.636 26.5197 80.044 26.7197C80.452 26.9117 80.752 27.1557 80.944 27.4517C81.144 27.7397 81.244 28.1117 81.244 28.5677C81.244 29.0717 81.112 29.5037 80.848 29.8637C80.584 30.2157 80.212 30.4877 79.732 30.6797C79.26 30.8637 78.7 30.9557 78.052 30.9557Z" fill="#6A6D70"/>
<path d="M204.757 70.3357L367.757 70.3357" stroke="#D0D3D7" stroke-width="3"/>
<path fill-rule="evenodd" clip-rule="evenodd" d="M275.257 65.518L280.075 70.3355L275.257 75.1534L277.44 77.3357L284.44 70.3354L277.44 63.3357L275.257 65.518ZM296.771 74.0666L293.04 70.3359L296.771 66.6047L294.952 64.7862L289.403 70.3359L294.953 75.8853L296.771 74.0666Z" fill="#D0D3D7"/>
<path fill-rule="evenodd" clip-rule="evenodd" d="M282.854 68.7941L284.392 70.3315L282.846 71.8772H284.301L285.847 70.3315L284.309 68.7941H282.854ZM290.891 68.7941L289.353 70.3315L290.899 71.8772H289.444L287.899 70.3315L289.436 68.7941H290.891Z" fill="white" fill-opacity="0.5"/>
<path d="M41.7573 70.3362L204.757 70.3362" stroke="#D0D3D7" stroke-width="3"/>
<path d="M166.757 64.3362L172.757 70.3362L166.757 76.3362" stroke="#D0D3D7" stroke-width="3"/>
<circle cx="204.781" cy="70.3357" r="10" fill="#286EB4"/>
<path d="M219.995 94.8357C219.515 94.8357 219.111 94.7517 218.783 94.5837C218.455 94.4157 218.211 94.1677 218.051 93.8397C217.891 93.5037 217.811 93.0877 217.811 92.5917V89.8677H216.863C216.783 89.8677 216.715 89.8397 216.659 89.7837C216.603 89.7277 216.575 89.6597 216.575 89.5797V88.8837C216.575 88.8037 216.603 88.7357 216.659 88.6797C216.715 88.6237 216.783 88.5957 216.863 88.5957H217.811V86.6037C217.811 86.5237 217.835 86.4557 217.883 86.3997C217.939 86.3437 218.011 86.3157 218.099 86.3157H219.071C219.151 86.3157 219.219 86.3437 219.275 86.3997C219.331 86.4557 219.359 86.5237 219.359 86.6037V88.5957H220.859C220.939 88.5957 221.007 88.6237 221.063 88.6797C221.119 88.7357 221.147 88.8037 221.147 88.8837V89.5797C221.147 89.6597 221.119 89.7277 221.063 89.7837C221.007 89.8397 220.939 89.8677 220.859 89.8677H219.359V92.4717C219.359 92.7997 219.415 93.0557 219.527 93.2397C219.647 93.4237 219.851 93.5157 220.139 93.5157H220.967C221.047 93.5157 221.115 93.5437 221.171 93.5997C221.227 93.6557 221.255 93.7237 221.255 93.8037V94.5477C221.255 94.6277 221.227 94.6957 221.171 94.7517C221.115 94.8077 221.047 94.8357 220.967 94.8357H219.995Z" fill="#32363A"/>
<path d="M210.045 94.8357C209.965 94.8357 209.897 94.8077 209.841 94.7517C209.785 94.6957 209.757 94.6277 209.757 94.5477V88.8837C209.757 88.8037 209.785 88.7357 209.841 88.6797C209.897 88.6237 209.965 88.5957 210.045 88.5957H211.029C211.109 88.5957 211.177 88.6237 211.233 88.6797C211.289 88.7357 211.317 88.8037 211.317 88.8837V89.3757C211.525 89.1197 211.789 88.9077 212.109 88.7397C212.437 88.5637 212.841 88.4757 213.321 88.4757C213.809 88.4757 214.233 88.5877 214.593 88.8117C214.953 89.0277 215.229 89.3357 215.421 89.7357C215.621 90.1357 215.721 90.6157 215.721 91.1757V94.5477C215.721 94.6277 215.693 94.6957 215.637 94.7517C215.581 94.8077 215.513 94.8357 215.433 94.8357H214.377C214.297 94.8357 214.229 94.8077 214.173 94.7517C214.117 94.6957 214.089 94.6277 214.089 94.5477V91.2477C214.089 90.7837 213.973 90.4197 213.741 90.1557C213.517 89.8917 213.189 89.7597 212.757 89.7597C212.341 89.7597 212.009 89.8917 211.761 90.1557C211.513 90.4197 211.389 90.7837 211.389 91.2477V94.5477C211.389 94.6277 211.361 94.6957 211.305 94.7517C211.249 94.8077 211.181 94.8357 211.101 94.8357H210.045Z" fill="#32363A"/>
<path d="M205.519 94.9557C204.631 94.9557 203.927 94.6997 203.407 94.1877C202.887 93.6757 202.607 92.9477 202.567 92.0037C202.559 91.9237 202.555 91.8237 202.555 91.7037C202.555 91.5757 202.559 91.4757 202.567 91.4037C202.599 90.8037 202.735 90.2837 202.975 89.8437C203.223 89.4037 203.563 89.0677 203.995 88.8357C204.427 88.5957 204.935 88.4757 205.519 88.4757C206.167 88.4757 206.711 88.6117 207.151 88.8837C207.591 89.1477 207.923 89.5197 208.147 89.9997C208.371 90.4717 208.483 91.0197 208.483 91.6437V91.8957C208.483 91.9757 208.455 92.0437 208.399 92.0997C208.343 92.1557 208.271 92.1837 208.183 92.1837H204.199C204.199 92.1837 204.199 92.1957 204.199 92.2197C204.199 92.2437 204.199 92.2637 204.199 92.2797C204.207 92.5597 204.259 92.8197 204.355 93.0597C204.459 93.2917 204.607 93.4797 204.799 93.6237C204.999 93.7677 205.235 93.8397 205.507 93.8397C205.731 93.8397 205.919 93.8077 206.071 93.7437C206.223 93.6717 206.347 93.5917 206.443 93.5037C206.539 93.4157 206.607 93.3437 206.647 93.2877C206.719 93.1917 206.775 93.1357 206.815 93.1197C206.863 93.0957 206.931 93.0837 207.019 93.0837H208.051C208.131 93.0837 208.195 93.1077 208.243 93.1557C208.299 93.2037 208.323 93.2637 208.315 93.3357C208.307 93.4637 208.239 93.6197 208.111 93.8037C207.991 93.9877 207.815 94.1677 207.583 94.3437C207.351 94.5197 207.059 94.6677 206.707 94.7877C206.363 94.8997 205.967 94.9557 205.519 94.9557ZM204.199 91.1757H206.851V91.1397C206.851 90.8277 206.799 90.5557 206.695 90.3237C206.591 90.0917 206.439 89.9077 206.239 89.7717C206.039 89.6357 205.799 89.5677 205.519 89.5677C205.239 89.5677 204.999 89.6357 204.799 89.7717C204.599 89.9077 204.447 90.0917 204.343 90.3237C204.247 90.5557 204.199 90.8277 204.199 91.1397V91.1757Z" fill="#32363A"/>
<path d="M198.371 94.8357C198.243 94.8357 198.147 94.8077 198.083 94.7517C198.027 94.6877 197.979 94.6157 197.939 94.5357L195.695 88.9677C195.679 88.9277 195.671 88.8917 195.671 88.8597C195.671 88.7877 195.695 88.7277 195.743 88.6797C195.799 88.6237 195.863 88.5957 195.935 88.5957H196.907C197.003 88.5957 197.075 88.6237 197.123 88.6797C197.171 88.7277 197.203 88.7757 197.219 88.8237L198.815 93.0357L200.411 88.8237C200.427 88.7757 200.459 88.7277 200.507 88.6797C200.555 88.6237 200.627 88.5957 200.723 88.5957H201.707C201.771 88.5957 201.827 88.6237 201.875 88.6797C201.931 88.7277 201.959 88.7877 201.959 88.8597C201.959 88.8917 201.955 88.9277 201.947 88.9677L199.691 94.5357C199.659 94.6157 199.611 94.6877 199.547 94.7517C199.483 94.8077 199.387 94.8357 199.259 94.8357H198.371Z" fill="#32363A"/>
<path d="M189.259 94.8357C189.179 94.8357 189.111 94.8077 189.055 94.7517C188.999 94.6957 188.971 94.6277 188.971 94.5477V86.7357C188.971 86.6477 188.999 86.5757 189.055 86.5197C189.111 86.4637 189.179 86.4357 189.259 86.4357H194.539C194.627 86.4357 194.699 86.4637 194.755 86.5197C194.811 86.5757 194.839 86.6477 194.839 86.7357V87.5277C194.839 87.6077 194.811 87.6757 194.755 87.7317C194.699 87.7877 194.627 87.8157 194.539 87.8157H190.591V89.9397H194.275C194.363 89.9397 194.435 89.9677 194.491 90.0237C194.547 90.0717 194.575 90.1397 194.575 90.2277V90.9717C194.575 91.0597 194.547 91.1317 194.491 91.1877C194.435 91.2357 194.363 91.2597 194.275 91.2597H190.591V93.4557H194.635C194.723 93.4557 194.795 93.4837 194.851 93.5397C194.907 93.5957 194.935 93.6677 194.935 93.7557V94.5477C194.935 94.6277 194.907 94.6957 194.851 94.7517C194.795 94.8077 194.723 94.8357 194.635 94.8357H189.259Z" fill="#32363A"/>
<path d="M59.2148 70.3357C59.2148 80.0007 51.3798 87.8357 41.7148 87.8357C32.0499 87.8357 24.2148 80.0007 24.2148 70.3357C24.2148 60.6707 32.0499 52.8357 41.7148 52.8357C51.3798 52.8357 59.2148 60.6707 59.2148 70.3357Z" fill="white"/>
<path fill-rule="evenodd" clip-rule="evenodd" d="M41.7148 84.8357C49.723 84.8357 56.2148 78.3438 56.2148 70.3357C56.2148 62.3276 49.723 55.8357 41.7148 55.8357C33.7067 55.8357 27.2148 62.3276 27.2148 70.3357C27.2148 78.3438 33.7067 84.8357 41.7148 84.8357ZM41.7148 87.8357C51.3798 87.8357 59.2148 80.0007 59.2148 70.3357C59.2148 60.6707 51.3798 52.8357 41.7148 52.8357C32.0499 52.8357 24.2148 60.6707 24.2148 70.3357C24.2148 80.0007 32.0499 87.8357 41.7148 87.8357Z" fill="#205992"/>
<path d="M51.7148 70.3357C51.7148 75.8585 47.2377 80.3357 41.7148 80.3357C36.192 80.3357 31.7148 75.8585 31.7148 70.3357C31.7148 64.8128 36.192 60.3357 41.7148 60.3357C47.2377 60.3357 51.7148 64.8128 51.7148 70.3357Z" fill="#7EA8D2"/>
<path d="M385.347 70.3357C385.347 80.0007 377.512 87.8357 367.847 87.8357C358.182 87.8357 350.347 80.0007 350.347 70.3357C350.347 60.6707 358.182 52.8357 367.847 52.8357C377.512 52.8357 385.347 60.6707 385.347 70.3357Z" fill="white"/>
<path fill-rule="evenodd" clip-rule="evenodd" d="M367.847 84.8357C375.855 84.8357 382.347 78.3438 382.347 70.3357C382.347 62.3276 375.855 55.8357 367.847 55.8357C359.839 55.8357 353.347 62.3276 353.347 70.3357C353.347 78.3438 359.839 84.8357 367.847 84.8357ZM367.847 87.8357C377.512 87.8357 385.347 80.0007 385.347 70.3357C385.347 60.6707 377.512 52.8357 367.847 52.8357C358.182 52.8357 350.347 60.6707 350.347 70.3357C350.347 80.0007 358.182 87.8357 367.847 87.8357Z" fill="#205992"/>
<path d="M377.847 70.3357C377.847 75.8585 373.37 80.3357 367.847 80.3357C362.324 80.3357 357.847 75.8585 357.847 70.3357C357.847 64.8128 362.324 60.3357 367.847 60.3357C373.37 60.3357 377.847 64.8128 377.847 70.3357Z" fill="#7EA8D2"/>
<path d="M68.4472 103.836C68.3672 103.836 68.2992 103.808 68.2432 103.752C68.1872 103.696 68.1592 103.628 68.1592 103.548V97.8837C68.1592 97.8037 68.1872 97.7357 68.2432 97.6797C68.2992 97.6237 68.3672 97.5957 68.4472 97.5957H69.4312C69.5112 97.5957 69.5792 97.6237 69.6352 97.6797C69.6912 97.7357 69.7192 97.8037 69.7192 97.8837V98.3757C69.9272 98.1197 70.1912 97.9077 70.5112 97.7397C70.8392 97.5637 71.2432 97.4757 71.7232 97.4757C72.2112 97.4757 72.6352 97.5877 72.9952 97.8117C73.3552 98.0277 73.6312 98.3357 73.8232 98.7357C74.0232 99.1357 74.1232 99.6157 74.1232 100.176V103.548C74.1232 103.628 74.0952 103.696 74.0392 103.752C73.9832 103.808 73.9152 103.836 73.8352 103.836H72.7792C72.6992 103.836 72.6312 103.808 72.5752 103.752C72.5192 103.696 72.4912 103.628 72.4912 103.548V100.248C72.4912 99.7837 72.3752 99.4197 72.1432 99.1557C71.9192 98.8917 71.5912 98.7597 71.1592 98.7597C70.7432 98.7597 70.4112 98.8917 70.1632 99.1557C69.9152 99.4197 69.7912 99.7837 69.7912 100.248V103.548C69.7912 103.628 69.7632 103.696 69.7072 103.752C69.6512 103.808 69.5832 103.836 69.5032 103.836H68.4472Z" fill="#32363A"/>
<path d="M63.8177 103.956C63.1777 103.956 62.6377 103.844 62.1977 103.62C61.7657 103.396 61.4337 103.08 61.2017 102.672C60.9777 102.264 60.8497 101.788 60.8177 101.244C60.8097 101.1 60.8057 100.924 60.8057 100.716C60.8057 100.508 60.8097 100.332 60.8177 100.188C60.8497 99.6357 60.9817 99.1597 61.2137 98.7597C61.4537 98.3517 61.7897 98.0357 62.2217 97.8117C62.6617 97.5877 63.1937 97.4757 63.8177 97.4757C64.4417 97.4757 64.9697 97.5877 65.4017 97.8117C65.8417 98.0357 66.1777 98.3517 66.4097 98.7597C66.6497 99.1597 66.7857 99.6357 66.8177 100.188C66.8257 100.332 66.8297 100.508 66.8297 100.716C66.8297 100.924 66.8257 101.1 66.8177 101.244C66.7857 101.788 66.6537 102.264 66.4217 102.672C66.1977 103.08 65.8657 103.396 65.4257 103.62C64.9937 103.844 64.4577 103.956 63.8177 103.956ZM63.8177 102.768C64.2417 102.768 64.5697 102.636 64.8017 102.372C65.0337 102.1 65.1617 101.704 65.1857 101.184C65.1937 101.064 65.1977 100.908 65.1977 100.716C65.1977 100.524 65.1937 100.368 65.1857 100.248C65.1617 99.7357 65.0337 99.3437 64.8017 99.0717C64.5697 98.7997 64.2417 98.6637 63.8177 98.6637C63.3937 98.6637 63.0657 98.7997 62.8337 99.0717C62.6017 99.3437 62.4737 99.7357 62.4497 100.248C62.4417 100.368 62.4377 100.524 62.4377 100.716C62.4377 100.908 62.4417 101.064 62.4497 101.184C62.4737 101.704 62.6017 102.1 62.8337 102.372C63.0657 102.636 63.3937 102.768 63.8177 102.768Z" fill="#32363A"/>
<path d="M58.1463 103.836C58.0663 103.836 57.9983 103.808 57.9423 103.752C57.8863 103.696 57.8583 103.628 57.8583 103.548V97.8837C57.8583 97.8037 57.8863 97.7357 57.9423 97.6797C57.9983 97.6237 58.0663 97.5957 58.1463 97.5957H59.1423C59.2303 97.5957 59.2983 97.6237 59.3463 97.6797C59.4023 97.7357 59.4303 97.8037 59.4303 97.8837V103.548C59.4303 103.628 59.4023 103.696 59.3463 103.752C59.2983 103.808 59.2303 103.836 59.1423 103.836H58.1463ZM58.0983 96.5637C58.0103 96.5637 57.9383 96.5397 57.8823 96.4917C57.8343 96.4357 57.8103 96.3637 57.8103 96.2757V95.4117C57.8103 95.3317 57.8343 95.2637 57.8823 95.2077C57.9383 95.1517 58.0103 95.1237 58.0983 95.1237H59.1903C59.2783 95.1237 59.3503 95.1517 59.4063 95.2077C59.4623 95.2637 59.4903 95.3317 59.4903 95.4117V96.2757C59.4903 96.3637 59.4623 96.4357 59.4063 96.4917C59.3503 96.5397 59.2783 96.5637 59.1903 96.5637H58.0983Z" fill="#32363A"/>
<path d="M55.5338 103.836C55.0538 103.836 54.6498 103.752 54.3218 103.584C53.9938 103.416 53.7498 103.168 53.5898 102.84C53.4298 102.504 53.3498 102.088 53.3498 101.592V98.8677H52.4018C52.3218 98.8677 52.2538 98.8397 52.1978 98.7837C52.1418 98.7277 52.1138 98.6597 52.1138 98.5797V97.8837C52.1138 97.8037 52.1418 97.7357 52.1978 97.6797C52.2538 97.6237 52.3218 97.5957 52.4018 97.5957H53.3498V95.6037C53.3498 95.5237 53.3738 95.4557 53.4218 95.3997C53.4778 95.3437 53.5498 95.3157 53.6378 95.3157H54.6098C54.6898 95.3157 54.7578 95.3437 54.8138 95.3997C54.8698 95.4557 54.8978 95.5237 54.8978 95.6037V97.5957H56.3978C56.4778 97.5957 56.5458 97.6237 56.6018 97.6797C56.6578 97.7357 56.6858 97.8037 56.6858 97.8837V98.5797C56.6858 98.6597 56.6578 98.7277 56.6018 98.7837C56.5458 98.8397 56.4778 98.8677 56.3978 98.8677H54.8978V101.472C54.8978 101.8 54.9538 102.056 55.0658 102.24C55.1858 102.424 55.3898 102.516 55.6778 102.516H56.5058C56.5858 102.516 56.6538 102.544 56.7098 102.6C56.7658 102.656 56.7938 102.724 56.7938 102.804V103.548C56.7938 103.628 56.7658 103.696 56.7098 103.752C56.6538 103.808 56.5858 103.836 56.5058 103.836H55.5338Z" fill="#32363A"/>
<path d="M47.729 103.956C47.313 103.956 46.937 103.876 46.601 103.716C46.265 103.548 45.997 103.328 45.797 103.056C45.605 102.776 45.509 102.464 45.509 102.12C45.509 101.56 45.733 101.116 46.181 100.788C46.637 100.452 47.237 100.228 47.981 100.116L49.625 99.8757V99.6237C49.625 99.2877 49.541 99.0277 49.373 98.8437C49.205 98.6597 48.917 98.5677 48.509 98.5677C48.221 98.5677 47.985 98.6277 47.801 98.7477C47.625 98.8597 47.493 99.0117 47.405 99.2037C47.341 99.3077 47.249 99.3597 47.129 99.3597H46.181C46.093 99.3597 46.025 99.3357 45.977 99.2877C45.937 99.2397 45.917 99.1757 45.917 99.0957C45.925 98.9677 45.977 98.8117 46.073 98.6277C46.169 98.4437 46.321 98.2677 46.529 98.0997C46.737 97.9237 47.005 97.7757 47.333 97.6557C47.661 97.5357 48.057 97.4757 48.521 97.4757C49.025 97.4757 49.449 97.5397 49.793 97.6677C50.145 97.7877 50.425 97.9517 50.633 98.1597C50.841 98.3677 50.993 98.6117 51.089 98.8917C51.185 99.1717 51.233 99.4677 51.233 99.7797V103.548C51.233 103.628 51.205 103.696 51.149 103.752C51.093 103.808 51.025 103.836 50.945 103.836H49.973C49.885 103.836 49.813 103.808 49.757 103.752C49.709 103.696 49.685 103.628 49.685 103.548V103.08C49.581 103.232 49.441 103.376 49.265 103.512C49.089 103.64 48.873 103.748 48.617 103.836C48.369 103.916 48.073 103.956 47.729 103.956ZM48.137 102.816C48.417 102.816 48.669 102.756 48.893 102.636C49.125 102.516 49.305 102.332 49.433 102.084C49.569 101.828 49.637 101.508 49.637 101.124V100.872L48.437 101.064C47.965 101.136 47.613 101.252 47.381 101.412C47.149 101.572 47.033 101.768 47.033 102C47.033 102.176 47.085 102.328 47.189 102.456C47.301 102.576 47.441 102.668 47.609 102.732C47.777 102.788 47.953 102.816 48.137 102.816Z" fill="#32363A"/>
<path d="M41.7616 103.956C41.1856 103.956 40.6776 103.848 40.2376 103.632C39.8056 103.416 39.4656 103.104 39.2176 102.696C38.9776 102.28 38.8456 101.78 38.8216 101.196C38.8136 101.076 38.8096 100.92 38.8096 100.728C38.8096 100.528 38.8136 100.364 38.8216 100.236C38.8456 99.6517 38.9776 99.1557 39.2176 98.7477C39.4656 98.3317 39.8056 98.0157 40.2376 97.7997C40.6776 97.5837 41.1856 97.4757 41.7616 97.4757C42.2736 97.4757 42.7096 97.5477 43.0696 97.6917C43.4296 97.8357 43.7256 98.0157 43.9576 98.2317C44.1896 98.4477 44.3616 98.6757 44.4736 98.9157C44.5936 99.1477 44.6576 99.3597 44.6656 99.5517C44.6736 99.6397 44.6456 99.7117 44.5816 99.7677C44.5256 99.8157 44.4576 99.8397 44.3776 99.8397H43.3216C43.2416 99.8397 43.1776 99.8197 43.1296 99.7797C43.0896 99.7397 43.0496 99.6797 43.0096 99.5997C42.8896 99.2797 42.7296 99.0557 42.5296 98.9277C42.3376 98.7917 42.0896 98.7237 41.7856 98.7237C41.3856 98.7237 41.0656 98.8517 40.8256 99.1077C40.5936 99.3557 40.4696 99.7517 40.4536 100.296C40.4376 100.6 40.4376 100.88 40.4536 101.136C40.4696 101.688 40.5936 102.088 40.8256 102.336C41.0656 102.584 41.3856 102.708 41.7856 102.708C42.0976 102.708 42.3496 102.644 42.5416 102.516C42.7336 102.38 42.8896 102.152 43.0096 101.832C43.0496 101.752 43.0896 101.692 43.1296 101.652C43.1776 101.612 43.2416 101.592 43.3216 101.592H44.3776C44.4576 101.592 44.5256 101.62 44.5816 101.676C44.6456 101.724 44.6736 101.792 44.6656 101.88C44.6576 102.024 44.6176 102.188 44.5456 102.372C44.4816 102.548 44.3736 102.732 44.2216 102.924C44.0776 103.108 43.8936 103.28 43.6696 103.44C43.4456 103.592 43.1736 103.716 42.8536 103.812C42.5416 103.908 42.1776 103.956 41.7616 103.956Z" fill="#32363A"/>
<path d="M36.1502 103.836C36.0702 103.836 36.0022 103.808 35.9462 103.752C35.8902 103.696 35.8622 103.628 35.8622 103.548V97.8837C35.8622 97.8037 35.8902 97.7357 35.9462 97.6797C36.0022 97.6237 36.0702 97.5957 36.1502 97.5957H37.1462C37.2342 97.5957 37.3022 97.6237 37.3502 97.6797C37.4062 97.7357 37.4342 97.8037 37.4342 97.8837V103.548C37.4342 103.628 37.4062 103.696 37.3502 103.752C37.3022 103.808 37.2342 103.836 37.1462 103.836H36.1502ZM36.1022 96.5637C36.0142 96.5637 35.9422 96.5397 35.8862 96.4917C35.8382 96.4357 35.8142 96.3637 35.8142 96.2757V95.4117C35.8142 95.3317 35.8382 95.2637 35.8862 95.2077C35.9422 95.1517 36.0142 95.1237 36.1022 95.1237H37.1942C37.2822 95.1237 37.3542 95.1517 37.4102 95.2077C37.4662 95.2637 37.4942 95.3317 37.4942 95.4117V96.2757C37.4942 96.3637 37.4662 96.4357 37.4102 96.4917C37.3542 96.5397 37.2822 96.5637 37.1942 96.5637H36.1022Z" fill="#32363A"/>
<path d="M32.7287 103.836C32.6487 103.836 32.5807 103.808 32.5247 103.752C32.4687 103.696 32.4407 103.628 32.4407 103.548V95.6037C32.4407 95.5237 32.4687 95.4557 32.5247 95.3997C32.5807 95.3437 32.6487 95.3157 32.7287 95.3157H33.7247C33.8047 95.3157 33.8727 95.3437 33.9287 95.3997C33.9847 95.4557 34.0127 95.5237 34.0127 95.6037V103.548C34.0127 103.628 33.9847 103.696 33.9287 103.752C33.8727 103.808 33.8047 103.836 33.7247 103.836H32.7287Z" fill="#32363A"/>
<path d="M25.3576 106.116C25.2776 106.116 25.2096 106.088 25.1536 106.032C25.0976 105.976 25.0696 105.908 25.0696 105.828V97.8837C25.0696 97.8037 25.0976 97.7357 25.1536 97.6797C25.2096 97.6237 25.2776 97.5957 25.3576 97.5957H26.3056C26.3936 97.5957 26.4616 97.6237 26.5096 97.6797C26.5656 97.7357 26.5936 97.8037 26.5936 97.8837V98.3637C26.7856 98.1077 27.0376 97.8957 27.3496 97.7277C27.6616 97.5597 28.0496 97.4757 28.5136 97.4757C28.9376 97.4757 29.3056 97.5437 29.6176 97.6797C29.9296 97.8157 30.1896 98.0117 30.3976 98.2677C30.6056 98.5157 30.7656 98.8117 30.8776 99.1557C30.9896 99.4997 31.0536 99.8797 31.0696 100.296C31.0776 100.432 31.0816 100.572 31.0816 100.716C31.0816 100.86 31.0776 101.004 31.0696 101.148C31.0616 101.548 31.0016 101.92 30.8896 102.264C30.7776 102.6 30.6136 102.896 30.3976 103.152C30.1896 103.4 29.9296 103.596 29.6176 103.74C29.3056 103.884 28.9376 103.956 28.5136 103.956C28.0816 103.956 27.7136 103.88 27.4096 103.728C27.1056 103.568 26.8576 103.36 26.6656 103.104V105.828C26.6656 105.908 26.6376 105.976 26.5816 106.032C26.5336 106.088 26.4656 106.116 26.3776 106.116H25.3576ZM28.0696 102.672C28.4136 102.672 28.6816 102.6 28.8736 102.456C29.0656 102.304 29.2016 102.108 29.2816 101.868C29.3696 101.628 29.4216 101.364 29.4376 101.076C29.4536 100.836 29.4536 100.596 29.4376 100.356C29.4216 100.068 29.3696 99.8037 29.2816 99.5637C29.2016 99.3237 29.0656 99.1317 28.8736 98.9877C28.6816 98.8357 28.4136 98.7597 28.0696 98.7597C27.7416 98.7597 27.4736 98.8357 27.2656 98.9877C27.0656 99.1397 26.9176 99.3357 26.8216 99.5757C26.7336 99.8077 26.6816 100.048 26.6656 100.296C26.6576 100.44 26.6536 100.592 26.6536 100.752C26.6536 100.912 26.6576 101.068 26.6656 101.22C26.6736 101.46 26.7296 101.692 26.8336 101.916C26.9376 102.132 27.0896 102.312 27.2896 102.456C27.4896 102.6 27.7496 102.672 28.0696 102.672Z" fill="#32363A"/>
<path d="M17.9865 106.116C17.9065 106.116 17.8385 106.088 17.7825 106.032C17.7265 105.976 17.6985 105.908 17.6985 105.828V97.8837C17.6985 97.8037 17.7265 97.7357 17.7825 97.6797C17.8385 97.6237 17.9065 97.5957 17.9865 97.5957H18.9345C19.0225 97.5957 19.0905 97.6237 19.1385 97.6797C19.1945 97.7357 19.2225 97.8037 19.2225 97.8837V98.3637C19.4145 98.1077 19.6665 97.8957 19.9785 97.7277C20.2905 97.5597 20.6785 97.4757 21.1425 97.4757C21.5665 97.4757 21.9345 97.5437 22.2465 97.6797C22.5585 97.8157 22.8185 98.0117 23.0265 98.2677C23.2345 98.5157 23.3945 98.8117 23.5065 99.1557C23.6185 99.4997 23.6825 99.8797 23.6985 100.296C23.7065 100.432 23.7105 100.572 23.7105 100.716C23.7105 100.86 23.7065 101.004 23.6985 101.148C23.6905 101.548 23.6305 101.92 23.5185 102.264C23.4065 102.6 23.2425 102.896 23.0265 103.152C22.8185 103.4 22.5585 103.596 22.2465 103.74C21.9345 103.884 21.5665 103.956 21.1425 103.956C20.7105 103.956 20.3425 103.88 20.0385 103.728C19.7345 103.568 19.4865 103.36 19.2945 103.104V105.828C19.2945 105.908 19.2665 105.976 19.2105 106.032C19.1625 106.088 19.0945 106.116 19.0065 106.116H17.9865ZM20.6985 102.672C21.0425 102.672 21.3105 102.6 21.5025 102.456C21.6945 102.304 21.8305 102.108 21.9105 101.868C21.9985 101.628 22.0505 101.364 22.0665 101.076C22.0825 100.836 22.0825 100.596 22.0665 100.356C22.0505 100.068 21.9985 99.8037 21.9105 99.5637C21.8305 99.3237 21.6945 99.1317 21.5025 98.9877C21.3105 98.8357 21.0425 98.7597 20.6985 98.7597C20.3705 98.7597 20.1025 98.8357 19.8945 98.9877C19.6945 99.1397 19.5465 99.3357 19.4505 99.5757C19.3625 99.8077 19.3105 100.048 19.2945 100.296C19.2865 100.44 19.2825 100.592 19.2825 100.752C19.2825 100.912 19.2865 101.068 19.2945 101.22C19.3025 101.46 19.3585 101.692 19.4625 101.916C19.5665 102.132 19.7185 102.312 19.9185 102.456C20.1185 102.6 20.3785 102.672 20.6985 102.672Z" fill="#32363A"/>
<path d="M8.99419 103.836C8.93019 103.836 8.87019 103.812 8.81419 103.764C8.76619 103.716 8.74219 103.656 8.74219 103.584C8.74219 103.552 8.75019 103.516 8.76619 103.476L11.6582 95.7357C11.6822 95.6557 11.7262 95.5877 11.7902 95.5317C11.8622 95.4677 11.9582 95.4357 12.0782 95.4357H13.3862C13.5062 95.4357 13.5982 95.4677 13.6622 95.5317C13.7262 95.5877 13.7742 95.6557 13.8062 95.7357L16.6982 103.476C16.7062 103.516 16.7102 103.552 16.7102 103.584C16.7102 103.656 16.6862 103.716 16.6382 103.764C16.5902 103.812 16.5342 103.836 16.4702 103.836H15.4262C15.3142 103.836 15.2302 103.812 15.1742 103.764C15.1262 103.708 15.0942 103.656 15.0782 103.608L14.5142 102.144H10.9502L10.3862 103.608C10.3702 103.656 10.3342 103.708 10.2782 103.764C10.2302 103.812 10.1502 103.836 10.0382 103.836H8.99419ZM11.3702 100.764H14.0942L12.7262 97.0557L11.3702 100.764Z" fill="#32363A"/>
<path d="M394.58 103.836C394.5 103.836 394.432 103.808 394.376 103.752C394.32 103.696 394.292 103.628 394.292 103.548V97.8837C394.292 97.8037 394.32 97.7357 394.376 97.6797C394.432 97.6237 394.5 97.5957 394.58 97.5957H395.564C395.644 97.5957 395.712 97.6237 395.768 97.6797C395.824 97.7357 395.852 97.8037 395.852 97.8837V98.3757C396.06 98.1197 396.324 97.9077 396.644 97.7397C396.972 97.5637 397.376 97.4757 397.856 97.4757C398.344 97.4757 398.768 97.5877 399.128 97.8117C399.488 98.0277 399.764 98.3357 399.956 98.7357C400.156 99.1357 400.256 99.6157 400.256 100.176V103.548C400.256 103.628 400.228 103.696 400.172 103.752C400.116 103.808 400.048 103.836 399.968 103.836H398.912C398.832 103.836 398.764 103.808 398.708 103.752C398.652 103.696 398.624 103.628 398.624 103.548V100.248C398.624 99.7837 398.508 99.4197 398.276 99.1557C398.052 98.8917 397.724 98.7597 397.292 98.7597C396.876 98.7597 396.544 98.8917 396.296 99.1557C396.048 99.4197 395.924 99.7837 395.924 100.248V103.548C395.924 103.628 395.896 103.696 395.84 103.752C395.784 103.808 395.716 103.836 395.636 103.836H394.58Z" fill="#32363A"/>
<path d="M389.95 103.956C389.31 103.956 388.77 103.844 388.33 103.62C387.898 103.396 387.566 103.08 387.334 102.672C387.11 102.264 386.982 101.788 386.95 101.244C386.942 101.1 386.938 100.924 386.938 100.716C386.938 100.508 386.942 100.332 386.95 100.188C386.982 99.6357 387.114 99.1597 387.346 98.7597C387.586 98.3517 387.922 98.0357 388.354 97.8117C388.794 97.5877 389.326 97.4757 389.95 97.4757C390.574 97.4757 391.102 97.5877 391.534 97.8117C391.974 98.0357 392.31 98.3517 392.542 98.7597C392.782 99.1597 392.918 99.6357 392.95 100.188C392.958 100.332 392.962 100.508 392.962 100.716C392.962 100.924 392.958 101.1 392.95 101.244C392.918 101.788 392.786 102.264 392.554 102.672C392.33 103.08 391.998 103.396 391.558 103.62C391.126 103.844 390.59 103.956 389.95 103.956ZM389.95 102.768C390.374 102.768 390.702 102.636 390.934 102.372C391.166 102.1 391.294 101.704 391.318 101.184C391.326 101.064 391.33 100.908 391.33 100.716C391.33 100.524 391.326 100.368 391.318 100.248C391.294 99.7357 391.166 99.3437 390.934 99.0717C390.702 98.7997 390.374 98.6637 389.95 98.6637C389.526 98.6637 389.198 98.7997 388.966 99.0717C388.734 99.3437 388.606 99.7357 388.582 100.248C388.574 100.368 388.57 100.524 388.57 100.716C388.57 100.908 388.574 101.064 388.582 101.184C388.606 101.704 388.734 102.1 388.966 102.372C389.198 102.636 389.526 102.768 389.95 102.768Z" fill="#32363A"/>
<path d="M384.279 103.836C384.199 103.836 384.131 103.808 384.075 103.752C384.019 103.696 383.991 103.628 383.991 103.548V97.8837C383.991 97.8037 384.019 97.7357 384.075 97.6797C384.131 97.6237 384.199 97.5957 384.279 97.5957H385.275C385.363 97.5957 385.431 97.6237 385.479 97.6797C385.535 97.7357 385.563 97.8037 385.563 97.8837V103.548C385.563 103.628 385.535 103.696 385.479 103.752C385.431 103.808 385.363 103.836 385.275 103.836H384.279ZM384.231 96.5637C384.143 96.5637 384.071 96.5397 384.015 96.4917C383.967 96.4357 383.943 96.3637 383.943 96.2757V95.4117C383.943 95.3317 383.967 95.2637 384.015 95.2077C384.071 95.1517 384.143 95.1237 384.231 95.1237H385.323C385.411 95.1237 385.483 95.1517 385.539 95.2077C385.595 95.2637 385.623 95.3317 385.623 95.4117V96.2757C385.623 96.3637 385.595 96.4357 385.539 96.4917C385.483 96.5397 385.411 96.5637 385.323 96.5637H384.231Z" fill="#32363A"/>
<path d="M381.666 103.836C381.186 103.836 380.782 103.752 380.454 103.584C380.126 103.416 379.882 103.168 379.722 102.84C379.562 102.504 379.482 102.088 379.482 101.592V98.8677H378.534C378.454 98.8677 378.386 98.8397 378.33 98.7837C378.274 98.7277 378.246 98.6597 378.246 98.5797V97.8837C378.246 97.8037 378.274 97.7357 378.33 97.6797C378.386 97.6237 378.454 97.5957 378.534 97.5957H379.482V95.6037C379.482 95.5237 379.506 95.4557 379.554 95.3997C379.61 95.3437 379.682 95.3157 379.77 95.3157H380.742C380.822 95.3157 380.89 95.3437 380.946 95.3997C381.002 95.4557 381.03 95.5237 381.03 95.6037V97.5957H382.53C382.61 97.5957 382.678 97.6237 382.734 97.6797C382.79 97.7357 382.818 97.8037 382.818 97.8837V98.5797C382.818 98.6597 382.79 98.7277 382.734 98.7837C382.678 98.8397 382.61 98.8677 382.53 98.8677H381.03V101.472C381.03 101.8 381.086 102.056 381.198 102.24C381.318 102.424 381.522 102.516 381.81 102.516H382.638C382.718 102.516 382.786 102.544 382.842 102.6C382.898 102.656 382.926 102.724 382.926 102.804V103.548C382.926 103.628 382.898 103.696 382.842 103.752C382.786 103.808 382.718 103.836 382.638 103.836H381.666Z" fill="#32363A"/>
<path d="M373.861 103.956C373.445 103.956 373.069 103.876 372.733 103.716C372.397 103.548 372.129 103.328 371.929 103.056C371.737 102.776 371.641 102.464 371.641 102.12C371.641 101.56 371.865 101.116 372.313 100.788C372.769 100.452 373.369 100.228 374.113 100.116L375.757 99.8757V99.6237C375.757 99.2877 375.673 99.0277 375.505 98.8437C375.337 98.6597 375.049 98.5677 374.641 98.5677C374.353 98.5677 374.117 98.6277 373.933 98.7477C373.757 98.8597 373.625 99.0117 373.537 99.2037C373.473 99.3077 373.381 99.3597 373.261 99.3597H372.313C372.225 99.3597 372.157 99.3357 372.109 99.2877C372.069 99.2397 372.049 99.1757 372.049 99.0957C372.057 98.9677 372.109 98.8117 372.205 98.6277C372.301 98.4437 372.453 98.2677 372.661 98.0997C372.869 97.9237 373.137 97.7757 373.465 97.6557C373.793 97.5357 374.189 97.4757 374.653 97.4757C375.157 97.4757 375.581 97.5397 375.925 97.6677C376.277 97.7877 376.557 97.9517 376.765 98.1597C376.973 98.3677 377.125 98.6117 377.221 98.8917C377.317 99.1717 377.365 99.4677 377.365 99.7797V103.548C377.365 103.628 377.337 103.696 377.281 103.752C377.225 103.808 377.157 103.836 377.077 103.836H376.105C376.017 103.836 375.945 103.808 375.889 103.752C375.841 103.696 375.817 103.628 375.817 103.548V103.08C375.713 103.232 375.573 103.376 375.397 103.512C375.221 103.64 375.005 103.748 374.749 103.836C374.501 103.916 374.205 103.956 373.861 103.956ZM374.269 102.816C374.549 102.816 374.801 102.756 375.025 102.636C375.257 102.516 375.437 102.332 375.565 102.084C375.701 101.828 375.769 101.508 375.769 101.124V100.872L374.569 101.064C374.097 101.136 373.745 101.252 373.513 101.412C373.281 101.572 373.165 101.768 373.165 102C373.165 102.176 373.217 102.328 373.321 102.456C373.433 102.576 373.573 102.668 373.741 102.732C373.909 102.788 374.085 102.816 374.269 102.816Z" fill="#32363A"/>
<path d="M367.894 103.956C367.318 103.956 366.81 103.848 366.37 103.632C365.938 103.416 365.598 103.104 365.35 102.696C365.11 102.28 364.978 101.78 364.954 101.196C364.946 101.076 364.942 100.92 364.942 100.728C364.942 100.528 364.946 100.364 364.954 100.236C364.978 99.6517 365.11 99.1557 365.35 98.7477C365.598 98.3317 365.938 98.0157 366.37 97.7997C366.81 97.5837 367.318 97.4757 367.894 97.4757C368.406 97.4757 368.842 97.5477 369.202 97.6917C369.562 97.8357 369.858 98.0157 370.09 98.2317C370.322 98.4477 370.494 98.6757 370.606 98.9157C370.726 99.1477 370.79 99.3597 370.798 99.5517C370.806 99.6397 370.778 99.7117 370.714 99.7677C370.658 99.8157 370.59 99.8397 370.51 99.8397H369.454C369.374 99.8397 369.31 99.8197 369.262 99.7797C369.222 99.7397 369.182 99.6797 369.142 99.5997C369.022 99.2797 368.862 99.0557 368.662 98.9277C368.47 98.7917 368.222 98.7237 367.918 98.7237C367.518 98.7237 367.198 98.8517 366.958 99.1077C366.726 99.3557 366.602 99.7517 366.586 100.296C366.57 100.6 366.57 100.88 366.586 101.136C366.602 101.688 366.726 102.088 366.958 102.336C367.198 102.584 367.518 102.708 367.918 102.708C368.23 102.708 368.482 102.644 368.674 102.516C368.866 102.38 369.022 102.152 369.142 101.832C369.182 101.752 369.222 101.692 369.262 101.652C369.31 101.612 369.374 101.592 369.454 101.592H370.51C370.59 101.592 370.658 101.62 370.714 101.676C370.778 101.724 370.806 101.792 370.798 101.88C370.79 102.024 370.75 102.188 370.678 102.372C370.614 102.548 370.506 102.732 370.354 102.924C370.21 103.108 370.026 103.28 369.802 103.44C369.578 103.592 369.306 103.716 368.986 103.812C368.674 103.908 368.31 103.956 367.894 103.956Z" fill="#32363A"/>
<path d="M362.283 103.836C362.203 103.836 362.135 103.808 362.079 103.752C362.023 103.696 361.995 103.628 361.995 103.548V97.8837C361.995 97.8037 362.023 97.7357 362.079 97.6797C362.135 97.6237 362.203 97.5957 362.283 97.5957H363.279C363.367 97.5957 363.435 97.6237 363.483 97.6797C363.539 97.7357 363.567 97.8037 363.567 97.8837V103.548C363.567 103.628 363.539 103.696 363.483 103.752C363.435 103.808 363.367 103.836 363.279 103.836H362.283ZM362.235 96.5637C362.147 96.5637 362.075 96.5397 362.019 96.4917C361.971 96.4357 361.947 96.3637 361.947 96.2757V95.4117C361.947 95.3317 361.971 95.2637 362.019 95.2077C362.075 95.1517 362.147 95.1237 362.235 95.1237H363.327C363.415 95.1237 363.487 95.1517 363.543 95.2077C363.599 95.2637 363.627 95.3317 363.627 95.4117V96.2757C363.627 96.3637 363.599 96.4357 363.543 96.4917C363.487 96.5397 363.415 96.5637 363.327 96.5637H362.235Z" fill="#32363A"/>
<path d="M358.861 103.836C358.781 103.836 358.713 103.808 358.657 103.752C358.601 103.696 358.573 103.628 358.573 103.548V95.6037C358.573 95.5237 358.601 95.4557 358.657 95.3997C358.713 95.3437 358.781 95.3157 358.861 95.3157H359.857C359.937 95.3157 360.005 95.3437 360.061 95.3997C360.117 95.4557 360.145 95.5237 360.145 95.6037V103.548C360.145 103.628 360.117 103.696 360.061 103.752C360.005 103.808 359.937 103.836 359.857 103.836H358.861Z" fill="#32363A"/>
<path d="M351.49 106.116C351.41 106.116 351.342 106.088 351.286 106.032C351.23 105.976 351.202 105.908 351.202 105.828V97.8837C351.202 97.8037 351.23 97.7357 351.286 97.6797C351.342 97.6237 351.41 97.5957 351.49 97.5957H352.438C352.526 97.5957 352.594 97.6237 352.642 97.6797C352.698 97.7357 352.726 97.8037 352.726 97.8837V98.3637C352.918 98.1077 353.17 97.8957 353.482 97.7277C353.794 97.5597 354.182 97.4757 354.646 97.4757C355.07 97.4757 355.438 97.5437 355.75 97.6797C356.062 97.8157 356.322 98.0117 356.53 98.2677C356.738 98.5157 356.898 98.8117 357.01 99.1557C357.122 99.4997 357.186 99.8797 357.202 100.296C357.21 100.432 357.214 100.572 357.214 100.716C357.214 100.86 357.21 101.004 357.202 101.148C357.194 101.548 357.134 101.92 357.022 102.264C356.91 102.6 356.746 102.896 356.53 103.152C356.322 103.4 356.062 103.596 355.75 103.74C355.438 103.884 355.07 103.956 354.646 103.956C354.214 103.956 353.846 103.88 353.542 103.728C353.238 103.568 352.99 103.36 352.798 103.104V105.828C352.798 105.908 352.77 105.976 352.714 106.032C352.666 106.088 352.598 106.116 352.51 106.116H351.49ZM354.202 102.672C354.546 102.672 354.814 102.6 355.006 102.456C355.198 102.304 355.334 102.108 355.414 101.868C355.502 101.628 355.554 101.364 355.57 101.076C355.586 100.836 355.586 100.596 355.57 100.356C355.554 100.068 355.502 99.8037 355.414 99.5637C355.334 99.3237 355.198 99.1317 355.006 98.9877C354.814 98.8357 354.546 98.7597 354.202 98.7597C353.874 98.7597 353.606 98.8357 353.398 98.9877C353.198 99.1397 353.05 99.3357 352.954 99.5757C352.866 99.8077 352.814 100.048 352.798 100.296C352.79 100.44 352.786 100.592 352.786 100.752C352.786 100.912 352.79 101.068 352.798 101.22C352.806 101.46 352.862 101.692 352.966 101.916C353.07 102.132 353.222 102.312 353.422 102.456C353.622 102.6 353.882 102.672 354.202 102.672Z" fill="#32363A"/>
<path d="M344.119 106.116C344.039 106.116 343.971 106.088 343.915 106.032C343.859 105.976 343.831 105.908 343.831 105.828V97.8837C343.831 97.8037 343.859 97.7357 343.915 97.6797C343.971 97.6237 344.039 97.5957 344.119 97.5957H345.067C345.155 97.5957 345.223 97.6237 345.271 97.6797C345.327 97.7357 345.355 97.8037 345.355 97.8837V98.3637C345.547 98.1077 345.799 97.8957 346.111 97.7277C346.423 97.5597 346.811 97.4757 347.275 97.4757C347.699 97.4757 348.067 97.5437 348.379 97.6797C348.691 97.8157 348.951 98.0117 349.159 98.2677C349.367 98.5157 349.527 98.8117 349.639 99.1557C349.751 99.4997 349.815 99.8797 349.831 100.296C349.839 100.432 349.843 100.572 349.843 100.716C349.843 100.86 349.839 101.004 349.831 101.148C349.823 101.548 349.763 101.92 349.651 102.264C349.539 102.6 349.375 102.896 349.159 103.152C348.951 103.4 348.691 103.596 348.379 103.74C348.067 103.884 347.699 103.956 347.275 103.956C346.843 103.956 346.475 103.88 346.171 103.728C345.867 103.568 345.619 103.36 345.427 103.104V105.828C345.427 105.908 345.399 105.976 345.343 106.032C345.295 106.088 345.227 106.116 345.139 106.116H344.119ZM346.831 102.672C347.175 102.672 347.443 102.6 347.635 102.456C347.827 102.304 347.963 102.108 348.043 101.868C348.131 101.628 348.183 101.364 348.199 101.076C348.215 100.836 348.215 100.596 348.199 100.356C348.183 100.068 348.131 99.8037 348.043 99.5637C347.963 99.3237 347.827 99.1317 347.635 98.9877C347.443 98.8357 347.175 98.7597 346.831 98.7597C346.503 98.7597 346.235 98.8357 346.027 98.9877C345.827 99.1397 345.679 99.3357 345.583 99.5757C345.495 99.8077 345.443 100.048 345.427 100.296C345.419 100.44 345.415 100.592 345.415 100.752C345.415 100.912 345.419 101.068 345.427 101.22C345.435 101.46 345.491 101.692 345.595 101.916C345.699 102.132 345.851 102.312 346.051 102.456C346.251 102.6 346.511 102.672 346.831 102.672Z" fill="#32363A"/>
<path d="M335.127 103.836C335.063 103.836 335.003 103.812 334.947 103.764C334.899 103.716 334.875 103.656 334.875 103.584C334.875 103.552 334.883 103.516 334.899 103.476L337.791 95.7357C337.815 95.6557 337.859 95.5877 337.923 95.5317C337.995 95.4677 338.091 95.4357 338.211 95.4357H339.519C339.639 95.4357 339.731 95.4677 339.795 95.5317C339.859 95.5877 339.907 95.6557 339.939 95.7357L342.831 103.476C342.839 103.516 342.843 103.552 342.843 103.584C342.843 103.656 342.819 103.716 342.771 103.764C342.723 103.812 342.667 103.836 342.603 103.836H341.559C341.447 103.836 341.363 103.812 341.307 103.764C341.259 103.708 341.227 103.656 341.211 103.608L340.647 102.144H337.083L336.519 103.608C336.503 103.656 336.467 103.708 336.411 103.764C336.363 103.812 336.283 103.836 336.171 103.836H335.127ZM337.503 100.764H340.227L338.859 97.0557L337.503 100.764Z" fill="#32363A"/>
</svg>