<!--
 Copyright 2023-2025 Solace Systems. All rights reserved.

 Licensed under the Apache License, Version 2.0 (the "License");
 you may not use this file except in compliance with the License.
 You may obtain a copy of the License at

     http://www.apache.org/licenses/LICENSE-2.0

 Unless required by applicable law or agreed to in writing, software
 distributed under the License is distributed on an "AS IS" BASIS,
 WITHOUT WARRANTIES OR CONDITIONS OF ANY KIND, either express or implied.
 See the License for the specific language governing permissions and
 limitations under the License.
-->
<svg width="48" height="48" viewBox="0 0 48 48" fill="none" xmlns="http://www.w3.org/2000/svg">
<path d="M6.00317 10.9414C6.00317 9.83684 6.8986 8.94141 8.00317 8.94141H35.0042C36.1087 8.94141 37.0042 9.83684 37.0042 10.9414V40.5173C37.0042 41.6219 36.1087 42.5173 35.0042 42.5173H8.00317C6.8986 42.5173 6.00317 41.6219 6.00317 40.5173V10.9414Z" fill="white"/>
<path fill-rule="evenodd" clip-rule="evenodd" d="M8.00317 8.44141C6.62246 8.44141 5.50317 9.56069 5.50317 10.9414V40.5173C5.50317 41.898 6.62246 43.0173 8.00317 43.0173H35.0042C36.3849 43.0173 37.5042 41.898 37.5042 40.5173V10.9414C37.5042 9.56069 36.3849 8.44141 35.0042 8.44141H8.00317ZM6.50317 10.9414C6.50317 10.113 7.17475 9.44141 8.00317 9.44141H35.0042C35.8326 9.44141 36.5042 10.113 36.5042 10.9414V40.5173C36.5042 41.3458 35.8326 42.0173 35.0042 42.0173H8.00317C7.17475 42.0173 6.50317 41.3458 6.50317 40.5173V10.9414ZM8.99432 11.4798L13.0843 11.4783L13.084 10.4783L8.99396 10.4798C8.16574 10.4801 7.49451 11.1516 7.49451 11.9798V39.4803C7.49451 40.3088 8.16608 40.9803 8.9945 40.9803L33.995 40.9804C34.8234 40.9804 35.495 40.3088 35.495 39.4804V30.9824H34.495V39.4804C34.495 39.7565 34.2711 39.9804 33.995 39.9804L8.99451 39.9803C8.71836 39.9803 8.49451 39.7565 8.49451 39.4803V11.9798C8.49451 11.7037 8.71825 11.4799 8.99432 11.4798ZM29.9943 11.4783L33.9947 11.4798C34.2708 11.4799 34.4945 11.7037 34.4945 11.9798V17.1513H35.4945V11.9798C35.4945 11.1516 34.8233 10.4801 33.9951 10.4798L29.9947 10.4783L29.9943 11.4783Z" fill="#6A6A6A"/>
<path d="M12.4336 9.76686C12.4336 8.76301 13.1777 7.91469 14.173 7.7839L15.5933 7.59728C16.3076 7.50341 16.8966 6.99168 17.0893 6.2975C17.3051 5.52031 18.0127 4.98242 18.8193 4.98242H24.6783C25.4762 4.98242 26.1701 5.52925 26.3566 6.305C26.5218 6.99186 27.0888 7.50876 27.788 7.60982L28.8597 7.76474C29.8435 7.90694 30.5736 8.75012 30.5736 9.74417V10.2857C30.5736 11.3902 29.6782 12.2857 28.5736 12.2857H14.4336C13.329 12.2857 12.4336 11.3902 12.4336 10.2857V9.76686Z" fill="white"/>
<path fill-rule="evenodd" clip-rule="evenodd" d="M14.4336 11.2857H28.5736C29.1259 11.2857 29.5736 10.838 29.5736 10.2857V9.74417C29.5736 9.24715 29.2086 8.82556 28.7167 8.75445L27.6449 8.59954C26.5407 8.43993 25.6452 7.62357 25.3843 6.53879C25.3059 6.21245 25.014 5.98242 24.6783 5.98242H18.8193C18.462 5.98242 18.1485 6.22072 18.0529 6.56504C17.7528 7.64585 16.8357 8.44261 15.7236 8.58875L14.3033 8.77538C13.8057 8.84077 13.4336 9.26493 13.4336 9.76686V10.2857C13.4336 10.838 13.8813 11.2857 14.4336 11.2857ZM14.173 7.7839C13.1777 7.91469 12.4336 8.76301 12.4336 9.76686V10.2857C12.4336 11.3902 13.329 12.2857 14.4336 12.2857H28.5736C29.6782 12.2857 30.5736 11.3902 30.5736 10.2857V9.74417C30.5736 8.75012 29.8435 7.90694 28.8597 7.76474L27.788 7.60982C27.0888 7.50876 26.5218 6.99186 26.3566 6.305C26.1701 5.52925 25.4762 4.98242 24.6783 4.98242H18.8193C18.0127 4.98242 17.3051 5.52031 17.0893 6.2975C16.8966 6.99168 16.3076 7.50341 15.5933 7.59728L14.173 7.7839Z" fill="#6A6A6A"/>
<path fill-rule="evenodd" clip-rule="evenodd" d="M24.4656 6.90391L19.1375 6.90391V8.52005L24.4656 8.52005V6.90391ZM19.1375 6.51953C18.9197 6.51953 18.7432 6.69162 18.7432 6.90391V8.52005C18.7432 8.73233 18.9197 8.90443 19.1375 8.90443H24.4656C24.6834 8.90443 24.86 8.73233 24.86 8.52005V6.90391C24.86 6.69162 24.6834 6.51953 24.4656 6.51953H19.1375Z" fill="#6A6A6A"/>
<path fill-rule="evenodd" clip-rule="evenodd" d="M11.0039 30.9805C11.0039 30.7043 11.2278 30.4805 11.5039 30.4805H19.5039C19.78 30.4805 20.0039 30.7043 20.0039 30.9805C20.0039 31.2566 19.78 31.4805 19.5039 31.4805H11.5039C11.2278 31.4805 11.0039 31.2566 11.0039 30.9805Z" fill="#6A6A6A"/>
<path fill-rule="evenodd" clip-rule="evenodd" d="M11.0039 34.9805C11.0039 34.7043 11.2278 34.4805 11.5039 34.4805H24.5039C24.78 34.4805 25.0039 34.7043 25.0039 34.9805C25.0039 35.2566 24.78 35.4805 24.5039 35.4805H11.5039C11.2278 35.4805 11.0039 35.2566 11.0039 34.9805Z" fill="#6A6A6A"/>
<path fill-rule="evenodd" clip-rule="evenodd" d="M14.651 16.4824V18.5491C14.651 18.8805 14.3824 19.1491 14.051 19.1491H11.9844V20.8158H14.051C14.3824 20.8158 14.651 21.0844 14.651 21.4158V23.4824H16.3177V21.4158C16.3177 21.0844 16.5863 20.8158 16.9177 20.8158H18.9844V19.1491H16.9177C16.5863 19.1491 16.3177 18.8805 16.3177 18.5491V16.4824H14.651ZM13.651 16.0824C13.651 15.7511 13.9197 15.4824 14.251 15.4824H16.7177C17.0491 15.4824 17.3177 15.7511 17.3177 16.0824V18.1491H19.3844C19.7157 18.1491 19.9844 18.4177 19.9844 18.7491V21.2158C19.9844 21.5471 19.7157 21.8158 19.3844 21.8158H17.3177V23.8824C17.3177 24.2138 17.0491 24.4824 16.7177 24.4824H14.251C13.9197 24.4824 13.651 24.2138 13.651 23.8824V21.8158H11.5844C11.253 21.8158 10.9844 21.5471 10.9844 21.2158V18.7491C10.9844 18.4177 11.253 18.1491 11.5844 18.1491H13.651V16.0824Z" fill="#6A6A6A"/>
<path fill-rule="evenodd" clip-rule="evenodd" d="M36.2276 33.1919L34.9674 31.0093L35.8334 30.5093L37.0936 32.6919L36.2276 33.1919Z" fill="#6A6A6A"/>
<path d="M38.4708 19.9563C40.6944 23.8078 39.3748 28.7327 35.5234 30.9563C31.6719 33.18 26.747 31.8604 24.5233 28.0089C22.2997 24.1574 23.6193 19.2325 27.4708 17.0089C31.3223 14.7852 36.2471 16.1048 38.4708 19.9563Z" fill="white"/>
<path fill-rule="evenodd" clip-rule="evenodd" d="M35.0234 30.0903C38.3965 28.1428 39.5523 23.8295 37.6048 20.4563C35.6573 17.0831 31.344 15.9274 27.9708 17.8749C24.5976 19.8224 23.4419 24.1357 25.3894 27.5089C27.3369 30.8821 31.6502 32.0378 35.0234 30.0903ZM35.5234 30.9563C39.3748 28.7327 40.6944 23.8078 38.4708 19.9563C36.2471 16.1048 31.3223 14.7852 27.4708 17.0089C23.6193 19.2325 22.2997 24.1574 24.5233 28.0089C26.747 31.8604 31.6719 33.18 35.5234 30.9563Z" fill="#6A6A6A"/>
<path fill-rule="evenodd" clip-rule="evenodd" d="M30.2945 22.0617L29.4245 24.4542C29.3383 24.6913 29.113 24.8491 28.8607 24.8491H24.3145L24.3145 23.8491H28.5805L29.8129 20.4599C30.0167 19.8997 30.8243 19.9472 30.9608 20.5276L32.1213 25.4594L33.2833 24.065C33.3973 23.9282 33.5661 23.8491 33.7442 23.8491H38.7057L38.7057 24.8491H33.9315L32.3764 26.7153C32.0596 27.0954 31.4448 26.9503 31.3314 26.4686L30.2945 22.0617Z" fill="#00C895"/>
<path d="M36.0958 34.4904C35.7446 33.8822 35.953 33.1045 36.5612 32.7534C37.1694 32.4022 37.9471 32.6106 38.2982 33.2188L41.3598 38.5217C41.711 39.1299 41.5026 39.9076 40.8944 40.2587C40.2862 40.6099 39.5085 40.4015 39.1574 39.7933L36.0958 34.4904Z" fill="white"/>
<path fill-rule="evenodd" clip-rule="evenodd" d="M40.4938 39.0217L37.4322 33.7188C37.3572 33.5889 37.1911 33.5444 37.0612 33.6194C36.9313 33.6944 36.8868 33.8605 36.9618 33.9904L40.0234 39.2933C40.0984 39.4232 40.2645 39.4677 40.3944 39.3927C40.5243 39.3177 40.5688 39.1516 40.4938 39.0217ZM36.5612 32.7534C35.953 33.1045 35.7446 33.8822 36.0958 34.4904L39.1574 39.7933C39.5085 40.4015 40.2862 40.6099 40.8944 40.2587C41.5026 39.9076 41.711 39.1299 41.3598 38.5217L38.2982 33.2188C37.9471 32.6106 37.1694 32.4022 36.5612 32.7534Z" fill="#6A6A6A"/>
</svg>
