<svg width="88" height="48" viewBox="0 0 88 48" fill="none" xmlns="http://www.w3.org/2000/svg">
<path d="M31.9653 4.91266C31.9653 4.40861 32.3739 4 32.878 4H79.4484C79.9524 4 80.3611 4.40861 80.3611 4.91266V36.2618C80.3611 36.7659 79.9524 37.1745 79.4484 37.1745H32.878C32.3739 37.1745 31.9653 36.7659 31.9653 36.2618V4.91266Z" fill="white"/>
<path fill-rule="evenodd" clip-rule="evenodd" d="M79.4484 4.91266H32.878L32.878 36.2618H79.4484V4.91266ZM32.878 4C32.3739 4 31.9653 4.40861 31.9653 4.91266V36.2618C31.9653 36.7659 32.3739 37.1745 32.878 37.1745H79.4484C79.9524 37.1745 80.3611 36.7659 80.3611 36.2618V4.91266C80.3611 4.40861 79.9524 4 79.4484 4H32.878Z" fill="#6A6A6A"/>
<path d="M52.7382 36.8916C52.8376 36.4824 53.204 36.1943 53.625 36.1943H59.092C59.513 36.1943 59.8794 36.4824 59.9788 36.8916L60.7679 40.14C60.9075 40.7145 60.4723 41.2681 59.881 41.2681H52.8359C52.2447 41.2681 51.8095 40.7145 51.9491 40.14L52.7382 36.8916Z" fill="white"/>
<path fill-rule="evenodd" clip-rule="evenodd" d="M59.092 37.107L53.625 37.107L52.8359 40.3554L59.881 40.3554L59.092 37.107ZM53.625 36.1943C53.204 36.1943 52.8376 36.4824 52.7382 36.8916L51.9491 40.14C51.8095 40.7145 52.2447 41.2681 52.8359 41.2681H59.881C60.4723 41.2681 60.9075 40.7145 60.7679 40.14L59.9788 36.8916C59.8794 36.4824 59.513 36.1943 59.092 36.1943H53.625Z" fill="#6A6A6A"/>
<path d="M47.3818 41.0098C47.3818 40.5058 47.7904 40.0972 48.2945 40.0972H64.0321C64.5362 40.0972 64.9448 40.5058 64.9448 41.0098V43.0874C64.9448 43.5914 64.5362 44 64.0321 44H48.2945C47.7904 44 47.3818 43.5914 47.3818 43.0874V41.0098Z" fill="white"/>
<path fill-rule="evenodd" clip-rule="evenodd" d="M64.0321 41.0098H48.2945L48.2945 43.0874L64.0321 43.0874L64.0321 41.0098ZM48.2945 40.0972C47.7904 40.0972 47.3818 40.5058 47.3818 41.0098V43.0874C47.3818 43.5914 47.7904 44 48.2945 44H64.0321C64.5362 44 64.9448 43.5914 64.9448 43.0874V41.0098C64.9448 40.5058 64.5362 40.0972 64.0321 40.0972H48.2945Z" fill="#6A6A6A"/>
<path fill-rule="evenodd" clip-rule="evenodd" d="M79.7755 32.752H32.9409V31.8394H79.7755V32.752Z" fill="#6A6A6A"/>
<path fill-rule="evenodd" clip-rule="evenodd" d="M8 21.6754C8 21.8014 8.10215 21.9036 8.22817 21.9036L25.3399 21.9036C25.4659 21.9036 25.5681 21.8014 25.5681 21.6754C25.5681 21.5494 25.4659 21.4473 25.3399 21.4473L8.22817 21.4473C8.10215 21.4473 8 21.5494 8 21.6754Z" fill="#6A6A6A"/>
<path fill-rule="evenodd" clip-rule="evenodd" d="M30.6738 8.20937C30.6738 8.33538 30.5717 8.43753 30.4457 8.43753L21.89 8.43753C21.764 8.43753 21.6618 8.33538 21.6618 8.20937C21.6618 8.08335 21.764 7.9812 21.89 7.9812L30.4457 7.9812C30.5717 7.9812 30.6738 8.08335 30.6738 8.20937Z" fill="#6A6A6A"/>
<path fill-rule="evenodd" clip-rule="evenodd" d="M30.6738 29.6359C30.6738 29.7619 30.5717 29.864 30.4457 29.864L13.3339 29.864C13.2079 29.864 13.1058 29.7619 13.1058 29.6359C13.1058 29.5099 13.2079 29.4077 13.3339 29.4077L30.4457 29.4077C30.5717 29.4077 30.6738 29.5099 30.6738 29.6359Z" fill="#6A6A6A"/>
<path fill-rule="evenodd" clip-rule="evenodd" d="M15.4507 20.0348C15.4507 20.1608 15.5528 20.263 15.6788 20.263H25.3393C25.4653 20.263 25.5675 20.1608 25.5675 20.0348C25.5675 19.9088 25.4653 19.8066 25.3393 19.8066H15.6788C15.5528 19.8066 15.4507 19.9088 15.4507 20.0348Z" fill="#6A6A6A"/>
<path d="M19.0518 10.055C19.2729 9.60206 19.8193 9.41411 20.2723 9.63522L24.7832 11.8372C25.2362 12.0583 25.4242 12.6047 25.203 13.0577L23.3357 16.8831C23.1146 17.336 22.5682 17.524 22.1152 17.3029L17.6043 15.1009C17.1513 14.8798 16.9634 14.3334 17.1845 13.8804L19.0518 10.055Z" fill="white"/>
<path fill-rule="evenodd" clip-rule="evenodd" d="M24.3829 12.6573L19.872 10.4554L18.0047 14.2808L22.5156 16.4827L24.3829 12.6573ZM20.2723 9.63522C19.8193 9.41411 19.2729 9.60206 19.0518 10.055L17.1845 13.8804C16.9634 14.3334 17.1513 14.8798 17.6043 15.1009L22.1152 17.3029C22.5682 17.524 23.1146 17.336 23.3357 16.8831L25.203 13.0577C25.4242 12.6047 25.2362 12.0583 24.7832 11.8372L20.2723 9.63522Z" fill="#6A6A6A"/>
<path d="M28.1672 22.7746C28.0317 22.2891 28.3155 21.7857 28.801 21.6502L33.6359 20.301C34.1214 20.1655 34.6248 20.4493 34.7603 20.9348L35.9044 25.0349C36.0399 25.5204 35.7562 26.0238 35.2707 26.1593L30.4357 27.5085C29.9502 27.644 29.4468 27.3602 29.3113 26.8747L28.1672 22.7746Z" fill="white"/>
<path fill-rule="evenodd" clip-rule="evenodd" d="M33.8812 21.1801L29.0463 22.5293L30.1904 26.6294L35.0253 25.2802L33.8812 21.1801ZM28.801 21.6502C28.3155 21.7857 28.0317 22.2891 28.1672 22.7746L29.3113 26.8747C29.4468 27.3602 29.9502 27.644 30.4357 27.5085L35.2707 26.1593C35.7562 26.0238 36.0399 25.5204 35.9044 25.0349L34.7603 20.9348C34.6248 20.4493 34.1214 20.1655 33.6359 20.301L28.801 21.6502Z" fill="#6A6A6A"/>
<path d="M48.0806 10.8384C48.0806 10.3344 48.4892 9.92578 48.9932 9.92578H54.0129C54.5169 9.92578 54.9255 10.3344 54.9255 10.8384V15.0952C54.9255 15.5993 54.5169 16.0079 54.0129 16.0079H48.9932C48.4892 16.0079 48.0806 15.5993 48.0806 15.0952V10.8384Z" fill="white"/>
<path fill-rule="evenodd" clip-rule="evenodd" d="M54.0129 10.8384H48.9932L48.9932 15.0952H54.0129V10.8384ZM48.9932 9.92578C48.4892 9.92578 48.0806 10.3344 48.0806 10.8384V15.0952C48.0806 15.5993 48.4892 16.0079 48.9932 16.0079H54.0129C54.5169 16.0079 54.9255 15.5993 54.9255 15.0952V10.8384C54.9255 10.3344 54.5169 9.92578 54.0129 9.92578H48.9932Z" fill="#6A6A6A"/>
<path d="M57.6196 21.7676C57.6196 21.2636 58.0282 20.855 58.5323 20.855H63.5519C64.056 20.855 64.4646 21.2636 64.4646 21.7676V26.0244C64.4646 26.5285 64.056 26.9371 63.5519 26.9371H58.5323C58.0282 26.9371 57.6196 26.5285 57.6196 26.0244V21.7676Z" fill="white"/>
<path fill-rule="evenodd" clip-rule="evenodd" d="M63.5519 21.7676H58.5323L58.5323 26.0244H63.5519V21.7676ZM58.5323 20.855C58.0282 20.855 57.6196 21.2636 57.6196 21.7676V26.0244C57.6196 26.5285 58.0282 26.9371 58.5323 26.9371H63.5519C64.056 26.9371 64.4646 26.5285 64.4646 26.0244V21.7676C64.4646 21.2636 64.056 20.855 63.5519 20.855H58.5323Z" fill="#6A6A6A"/>
<path d="M67.7515 26.2924C67.7515 26.7965 68.1601 27.2051 68.6641 27.2051H73.6838C74.1878 27.2051 74.5964 26.7965 74.5964 26.2924V22.0356C74.5964 21.5316 74.1878 21.1229 73.6838 21.1229H68.6641C68.1601 21.1229 67.7515 21.5316 67.7515 22.0356V26.2924Z" fill="white"/>
<path fill-rule="evenodd" clip-rule="evenodd" d="M73.6838 26.2924H68.6641L68.6641 22.0356H73.6838V26.2924ZM68.6641 27.2051C68.1601 27.2051 67.7515 26.7965 67.7515 26.2924V22.0356C67.7515 21.5316 68.1601 21.1229 68.6641 21.1229H73.6838C74.1878 21.1229 74.5964 21.5316 74.5964 22.0356V26.2924C74.5964 26.7965 74.1878 27.2051 73.6838 27.2051H68.6641Z" fill="#6A6A6A"/>
<path d="M43.5807 12.9669C43.5807 14.7943 42.0992 16.2757 40.2718 16.2757C38.4443 16.2757 36.9629 14.7943 36.9629 12.9669C36.9629 11.1394 38.4443 9.65796 40.2718 9.65796C42.0992 9.65796 43.5807 11.1394 43.5807 12.9669Z" fill="white"/>
<path fill-rule="evenodd" clip-rule="evenodd" d="M40.2718 15.3631C41.5952 15.3631 42.668 14.2903 42.668 12.9669C42.668 11.6435 41.5952 10.5706 40.2718 10.5706C38.9484 10.5706 37.8756 11.6435 37.8756 12.9669C37.8756 14.2903 38.9484 15.3631 40.2718 15.3631ZM40.2718 16.2757C42.0992 16.2757 43.5807 14.7943 43.5807 12.9669C43.5807 11.1394 42.0992 9.65796 40.2718 9.65796C38.4443 9.65796 36.9629 11.1394 36.9629 12.9669C36.9629 14.7943 38.4443 16.2757 40.2718 16.2757Z" fill="#6A6A6A"/>
<path d="M46.8898 23.8961C46.8898 25.7235 45.4083 27.2049 43.5809 27.2049C41.7534 27.2049 40.272 25.7235 40.272 23.8961C40.272 22.0686 41.7534 20.5872 43.5809 20.5872C45.4083 20.5872 46.8898 22.0686 46.8898 23.8961Z" fill="white"/>
<path fill-rule="evenodd" clip-rule="evenodd" d="M43.5809 26.2923C44.9043 26.2923 45.9771 25.2195 45.9771 23.8961C45.9771 22.5727 44.9043 21.4998 43.5809 21.4998C42.2575 21.4998 41.1846 22.5727 41.1846 23.8961C41.1846 25.2195 42.2575 26.2923 43.5809 26.2923ZM43.5809 27.2049C45.4083 27.2049 46.8898 25.7235 46.8898 23.8961C46.8898 22.0686 45.4083 20.5872 43.5809 20.5872C41.7534 20.5872 40.272 22.0686 40.272 23.8961C40.272 25.7235 41.7534 27.2049 43.5809 27.2049Z" fill="#6A6A6A"/>
<path d="M74.5968 12.9669C74.5968 14.7943 73.1154 16.2757 71.2879 16.2757C69.4604 16.2757 67.979 14.7943 67.979 12.9669C67.979 11.1394 69.4604 9.65796 71.2879 9.65796C73.1154 9.65796 74.5968 11.1394 74.5968 12.9669Z" fill="white"/>
<path fill-rule="evenodd" clip-rule="evenodd" d="M71.2879 15.3631C72.6113 15.3631 73.6841 14.2903 73.6841 12.9669C73.6841 11.6435 72.6113 10.5706 71.2879 10.5706C69.9645 10.5706 68.8917 11.6435 68.8917 12.9669C68.8917 14.2903 69.9645 15.3631 71.2879 15.3631ZM71.2879 16.2757C73.1154 16.2757 74.5968 14.7943 74.5968 12.9669C74.5968 11.1394 73.1154 9.65796 71.2879 9.65796C69.4604 9.65796 67.979 11.1394 67.979 12.9669C67.979 14.7943 69.4604 16.2757 71.2879 16.2757Z" fill="#6A6A6A"/>
<path d="M64.1557 13.7556C63.7201 15.3811 62.0492 16.3458 60.4236 15.9103C58.7981 15.4747 57.8334 13.8038 58.2689 12.1782C58.7045 10.5527 60.3754 9.58796 62.001 10.0235C63.6266 10.4591 64.5912 12.13 64.1557 13.7556Z" fill="#00C895"/>
<path fill-rule="evenodd" clip-rule="evenodd" d="M60.6599 15.0287C61.7986 15.3338 62.969 14.6581 63.2741 13.5194C63.5792 12.3807 62.9035 11.2102 61.7648 10.9051C60.6261 10.6 59.4556 11.2757 59.1505 12.4144C58.8454 13.5531 59.5212 14.7236 60.6599 15.0287ZM60.4236 15.9103C62.0492 16.3458 63.7201 15.3811 64.1557 13.7556C64.5912 12.13 63.6266 10.4591 62.001 10.0235C60.3754 9.58796 58.7045 10.5527 58.2689 12.1782C57.8334 13.8038 58.7981 15.4747 60.4236 15.9103Z" fill="#00C895"/>
</svg>
