<svg width="131" height="130" viewBox="0 0 131 130" fill="none" xmlns="http://www.w3.org/2000/svg">
<path opacity="0.1" d="M120.091 63.5C120.091 93.5995 95.6902 118 65.5907 118C35.4912 118 11.0907 93.5995 11.0907 63.5C11.0907 33.4005 35.4912 9 65.5907 9C95.6902 9 120.091 33.4005 120.091 63.5Z" fill="#009193"/>
<rect x="3.0907" y="120" width="126" height="1" fill="#6A6A6A"/>
<path d="M24.1585 35.0698C24.1585 32.8607 25.9494 31.0698 28.1585 31.0698H123.567C125.776 31.0698 127.567 32.8607 127.567 35.0698V93.1149H24.1585V35.0698Z" fill="white"/>
<path fill-rule="evenodd" clip-rule="evenodd" d="M123.567 33.0698H28.1585C27.0539 33.0698 26.1585 33.9653 26.1585 35.0698V91.1149H125.567V35.0698C125.567 33.9653 124.672 33.0698 123.567 33.0698ZM28.1585 31.0698C25.9494 31.0698 24.1585 32.8607 24.1585 35.0698V93.1149H127.567V35.0698C127.567 32.8607 125.776 31.0698 123.567 31.0698H28.1585Z" fill="#6A6A6A"/>
<path fill-rule="evenodd" clip-rule="evenodd" d="M83.7879 96.7485C83.7879 97.3008 83.3402 97.7485 82.7879 97.7485L64.3906 97.7485C63.8383 97.7485 63.3906 97.3008 63.3906 96.7485C63.3906 96.1963 63.8383 95.7485 64.3906 95.7485L82.7879 95.7485C83.3402 95.7485 83.7879 96.1963 83.7879 96.7485Z" fill="#6A6A6A"/>
<path fill-rule="evenodd" clip-rule="evenodd" d="M123.434 35.7373C123.71 35.7373 123.934 35.9612 123.934 36.2373L123.934 88.9756C123.934 89.2517 123.71 89.4756 123.434 89.4756C123.158 89.4756 122.934 89.2517 122.934 88.9756L122.934 36.2373C122.934 35.9612 123.158 35.7373 123.434 35.7373Z" fill="#6A6A6A"/>
<path d="M22.0907 94.0444C22.0907 92.3876 23.4338 91.0444 25.0907 91.0444H126.635C128.292 91.0444 129.635 92.3876 129.635 94.0444V96.3171C129.635 97.974 128.292 99.3171 126.635 99.3171H25.0907C23.4338 99.3171 22.0907 97.974 22.0907 96.3171V94.0444Z" fill="white"/>
<path fill-rule="evenodd" clip-rule="evenodd" d="M126.635 93.0444H25.0907C24.5384 93.0444 24.0907 93.4921 24.0907 94.0444V96.3171C24.0907 96.8694 24.5384 97.3171 25.0907 97.3171H126.635C127.188 97.3171 127.635 96.8694 127.635 96.3171V94.0444C127.635 93.4922 127.188 93.0444 126.635 93.0444ZM25.0907 91.0444C23.4338 91.0444 22.0907 92.3876 22.0907 94.0444V96.3171C22.0907 97.974 23.4338 99.3171 25.0907 99.3171H126.635C128.292 99.3171 129.635 97.974 129.635 96.3171V94.0444C129.635 92.3876 128.292 91.0444 126.635 91.0444H25.0907Z" fill="#6A6A6A"/>
<path d="M115.157 46.5776C115.157 50.0042 112.379 52.7821 108.952 52.7821C105.526 52.7821 102.748 50.0042 102.748 46.5776C102.748 43.1509 105.526 40.373 108.952 40.373C112.379 40.373 115.157 43.1509 115.157 46.5776Z" fill="white"/>
<path d="M82.0675 80.7045C82.0675 84.1312 79.2897 86.909 75.863 86.909C72.4364 86.909 69.6585 84.1312 69.6585 80.7045C69.6585 77.2779 72.4364 74.5 75.863 74.5C79.2897 74.5 82.0675 77.2779 82.0675 80.7045Z" fill="white"/>
<path d="M92.4086 78.5679C92.4086 77.4633 93.304 76.5679 94.4086 76.5679H100.749C101.854 76.5679 102.749 77.4633 102.749 78.5679V83.8746C102.749 84.9792 101.854 85.8746 100.749 85.8746H94.4086C93.304 85.8746 92.4086 84.9792 92.4086 83.8746V78.5679Z" fill="white"/>
<path d="M67.5907 30C67.5907 29.4477 68.0384 29 68.5907 29H82.102C82.6542 29 83.102 29.4477 83.102 30V34.2045C83.102 34.7568 82.6542 35.2045 82.102 35.2045H68.5907C68.0384 35.2045 67.5907 34.7568 67.5907 34.2045V30Z" fill="white"/>
<path fill-rule="evenodd" clip-rule="evenodd" d="M82.102 30L68.5907 30V34.2045L82.102 34.2045V30ZM68.5907 29C68.0384 29 67.5907 29.4477 67.5907 30V34.2045C67.5907 34.7568 68.0384 35.2045 68.5907 35.2045H82.102C82.6542 35.2045 83.102 34.7568 83.102 34.2045V30C83.102 29.4477 82.6542 29 82.102 29H68.5907Z" fill="#6A6A6A"/>
<path fill-rule="evenodd" clip-rule="evenodd" d="M66.7601 97.2837H84.9604L89.2516 119.812C89.3549 120.355 88.9989 120.878 88.4564 120.982C87.9138 121.085 87.3903 120.729 87.2869 120.187L83.3054 99.2837H68.4151L64.4336 120.187C64.3302 120.729 63.8067 121.085 63.2641 120.982C62.7216 120.878 62.3656 120.355 62.4689 119.812L66.7601 97.2837Z" fill="#6A6A6A"/>
<path fill-rule="evenodd" clip-rule="evenodd" d="M1.24792 68.8695C1.24792 69.0979 1.39813 69.283 1.58343 69.283L26.7451 69.283C26.9304 69.283 27.0806 69.0979 27.0806 68.8695C27.0806 68.6412 26.9304 68.4561 26.7451 68.4561L1.58343 68.4561C1.39813 68.4561 1.24792 68.6412 1.24792 68.8695Z" fill="#6A6A6A"/>
<path fill-rule="evenodd" clip-rule="evenodd" d="M35.3495 44.4652C35.3495 44.6936 35.1644 44.8787 34.936 44.8787L19.4312 44.8787C19.2028 44.8787 19.0177 44.6936 19.0177 44.4652C19.0177 44.2369 19.2028 44.0518 19.4312 44.0518L34.936 44.0518C35.1644 44.0518 35.3495 44.2369 35.3495 44.4652Z" fill="#6A6A6A"/>
<path fill-rule="evenodd" clip-rule="evenodd" d="M35.3495 83.2953C35.3495 83.5237 35.184 83.7088 34.9799 83.7088L7.26355 83.7088C7.05945 83.7088 6.89399 83.5237 6.89399 83.2953C6.89399 83.067 7.05945 82.8818 7.26355 82.8818L34.9799 82.8818C35.184 82.8818 35.3495 83.067 35.3495 83.2953Z" fill="#6A6A6A"/>
<path fill-rule="evenodd" clip-rule="evenodd" d="M7.76355 65.8969C7.76355 66.1252 7.94867 66.3104 8.17704 66.3104H25.684C25.9123 66.3104 26.0975 66.1252 26.0975 65.8969C26.0975 65.6685 25.9123 65.4834 25.684 65.4834H8.17704C7.94867 65.4834 7.76355 65.6685 7.76355 65.8969Z" fill="#6A6A6A"/>
<path d="M60.7389 52.3197C60.7389 55.0792 58.5019 57.3162 55.7424 57.3162C52.983 57.3162 50.746 55.0792 50.746 52.3197C50.746 49.5602 52.983 47.3232 55.7424 47.3232C58.5019 47.3232 60.7389 49.5602 60.7389 52.3197Z" fill="white" stroke="#6A6A6A" stroke-width="2"/>
<path d="M68.7389 72.3197C68.7389 75.0792 66.5019 77.3162 63.7424 77.3162C60.983 77.3162 58.746 75.0792 58.746 72.3197C58.746 69.5602 60.983 67.3232 63.7424 67.3232C66.5019 67.3232 68.7389 69.5602 68.7389 72.3197Z" fill="white" stroke="#6A6A6A" stroke-width="2"/>
<path d="M106.947 52.3197C106.947 55.0792 104.71 57.3162 101.95 57.3162C99.191 57.3162 96.954 55.0792 96.954 52.3197C96.954 49.5602 99.191 47.3232 101.95 47.3232C104.71 47.3232 106.947 49.5602 106.947 52.3197Z" fill="white" stroke="#6A6A6A" stroke-width="2"/>
<path d="M75.9681 49.3232C75.9681 48.771 76.4159 48.3232 76.9681 48.3232H83.9681C84.5204 48.3232 84.9681 48.771 84.9681 49.3232V55.3232C84.9681 55.8755 84.5204 56.3232 83.9681 56.3232H76.9681C76.4159 56.3232 75.9681 55.8755 75.9681 55.3232V49.3232Z" fill="white" stroke="#6A6A6A" stroke-width="2"/>
<path d="M29.2755 71.9858C29.0848 71.4675 29.3503 70.8927 29.8686 70.702L36.4381 68.2849C36.9564 68.0942 37.5312 68.3597 37.7219 68.878L39.7937 74.509C39.9844 75.0273 39.7188 75.6021 39.2005 75.7928L32.6311 78.2099C32.1128 78.4006 31.538 78.135 31.3473 77.6167L29.2755 71.9858Z" fill="white" stroke="#6A6A6A" stroke-width="2"/>
<path d="M17.4995 48.1073C17.7664 47.6238 18.3748 47.4482 18.8583 47.7151L24.9864 51.0984C25.4699 51.3653 25.6454 51.9736 25.3785 52.4571L22.4786 57.7098C22.2117 58.1933 21.6033 58.3688 21.1198 58.1019L14.9917 54.7187C14.5082 54.4518 14.3327 53.8434 14.5996 53.3599L17.4995 48.1073Z" fill="white" stroke="#6A6A6A" stroke-width="2"/>
<path d="M83.6927 69.8496C83.6927 69.2973 84.1405 68.8496 84.6927 68.8496H91.6927C92.245 68.8496 92.6927 69.2973 92.6927 69.8496V75.8496C92.6927 76.4019 92.245 76.8496 91.6927 76.8496H84.6927C84.1405 76.8496 83.6927 76.4019 83.6927 75.8496V69.8496Z" fill="white" stroke="#6A6A6A" stroke-width="2"/>
<path d="M103.947 69.9346C103.947 69.3823 104.394 68.9346 104.947 68.9346H111.947C112.499 68.9346 112.947 69.3823 112.947 69.9346V75.9346C112.947 76.4869 112.499 76.9346 111.947 76.9346H104.947C104.394 76.9346 103.947 76.4869 103.947 75.9346V69.9346Z" fill="white" stroke="#6A6A6A" stroke-width="2"/>
</svg>
