<svg width="88" height="88" viewBox="0 0 88 88" fill="none" xmlns="http://www.w3.org/2000/svg">
<rect x="23.5" y="13.5" width="41" height="23" rx="0.5" fill="white" stroke="#6A6A6A"/>
<path d="M69 18.5H83C83.2761 18.5 83.5 18.7239 83.5 19V31.796C83.5 32.1089 83.2158 32.3449 82.9082 32.2875L68.9082 29.6732C68.6716 29.629 68.5 29.4224 68.5 29.1817V19C68.5 18.7239 68.7239 18.5 69 18.5Z" fill="white" stroke="#6A6A6A"/>
<path d="M19 18.5H5C4.72386 18.5 4.5 18.7239 4.5 19V31.796C4.5 32.1089 4.78418 32.3449 5.09178 32.2875L19.0918 29.6732C19.3284 29.629 19.5 29.4224 19.5 29.1817V19C19.5 18.7239 19.2761 18.5 19 18.5Z" fill="white" stroke="#6A6A6A"/>
<path d="M70.9302 26.1969L74.1707 22.6787L74.8003 27.9376L80.5773 23.1417" stroke="#6A6A6A" stroke-width="0.5"/>
<path d="M16.7129 26.0117L13.4724 22.4935L12.8428 27.7524L7.06578 22.9565" stroke="#6A6A6A" stroke-width="0.5"/>
<rect x="63.5" y="61.5" width="2" height="13" fill="white" stroke="#6A6A6A"/>
<rect x="19.5" y="61.5" width="2" height="13" fill="white" stroke="#6A6A6A"/>
<path d="M15.5 59.309L21.118 56.5H64.8615L69.5 59.2831V61.5H15.5V59.309Z" fill="white" stroke="#6A6A6A"/>
<line x1="16" y1="59.75" x2="69" y2="59.75" stroke="#6A6A6A" stroke-width="0.5"/>
<path fill-rule="evenodd" clip-rule="evenodd" d="M4 47.5C4 47.2239 4.22386 47 4.5 47H82.5C82.7761 47 83 47.2239 83 47.5C83 47.7761 82.7761 48 82.5 48H4.5C4.22386 48 4 47.7761 4 47.5Z" fill="#6A6A6A"/>
<path d="M49 75H57" stroke="#6A6A6A" stroke-linecap="round"/>
<path d="M53 70L53 75" stroke="#6A6A6A" stroke-linecap="round"/>
<path d="M49.2957 51.8787C49.3514 51.6561 49.5513 51.5 49.7808 51.5H56.2192C56.4487 51.5 56.6486 51.6561 56.7043 51.8787L58.9675 60.9315C58.9911 61.0261 59.0055 61.1229 59.0104 61.2204L59.4481 69.975C59.4624 70.2606 59.2347 70.5 58.9488 70.5H47.0512C46.7653 70.5 46.5376 70.2606 46.5519 69.975L46.9896 61.2204C46.9945 61.1229 47.0089 61.0261 47.0325 60.9315L49.2957 51.8787Z" fill="white" stroke="#6A6A6A"/>
<path d="M29 75H37" stroke="#6A6A6A" stroke-linecap="round"/>
<path d="M33 70L33 75" stroke="#6A6A6A" stroke-linecap="round"/>
<path d="M29.2957 51.8787C29.3514 51.6561 29.5513 51.5 29.7808 51.5H36.2192C36.4487 51.5 36.6486 51.6561 36.7043 51.8787L38.9675 60.9315C38.9911 61.0261 39.0055 61.1229 39.0104 61.2204L39.4481 69.975C39.4624 70.2606 39.2347 70.5 38.9488 70.5H27.0512C26.7653 70.5 26.5376 70.2606 26.5519 69.975L26.9896 61.2204C26.9945 61.1229 27.0089 61.0261 27.0325 60.9315L29.2957 51.8787Z" fill="white" stroke="#6A6A6A"/>
<path fill-rule="evenodd" clip-rule="evenodd" d="M27 33.25C27 33.1119 27.1119 33 27.25 33H38.0851C38.2232 33 38.3351 33.1119 38.3351 33.25C38.3351 33.3881 38.2232 33.5 38.0851 33.5H27.25C27.1119 33.5 27 33.3881 27 33.25Z" fill="#6A6A6A"/>
<path fill-rule="evenodd" clip-rule="evenodd" d="M53 33.25C53 33.1119 53.1119 33 53.25 33L59.8752 33C60.0132 33 60.1252 33.1119 60.1252 33.25C60.1252 33.3881 60.0132 33.5 59.8752 33.5L53.25 33.5C53.1119 33.5 53 33.3881 53 33.25Z" fill="#6A6A6A"/>
<rect x="32" y="16" width="5" height="15" rx="1" fill="#00C895"/>
<path fill-rule="evenodd" clip-rule="evenodd" d="M45.0939 22.473H41.9061C41.6559 22.473 41.4531 22.6848 41.4531 22.9461V30.0539C41.4531 30.3152 41.6559 30.527 41.9061 30.527H45.0939C45.3441 30.527 45.5469 30.3152 45.5469 30.0539V22.9461C45.5469 22.6848 45.3441 22.473 45.0939 22.473ZM41.9061 22C41.4057 22 41 22.4236 41 22.9461V30.0539C41 30.5764 41.4057 31 41.9061 31H45.0939C45.5943 31 46 30.5764 46 30.0539V22.9461C46 22.4236 45.5943 22 45.0939 22H41.9061Z" fill="#6A6A6A"/>
<path fill-rule="evenodd" clip-rule="evenodd" d="M54.0939 25.4703H50.9061C50.6559 25.4703 50.4531 25.6809 50.4531 25.9407V30.0593C50.4531 30.3191 50.6559 30.5297 50.9061 30.5297H54.0939C54.3441 30.5297 54.5469 30.3191 54.5469 30.0593V25.9407C54.5469 25.6809 54.3441 25.4703 54.0939 25.4703ZM50.9061 25C50.4057 25 50 25.4212 50 25.9407V30.0593C50 30.5788 50.4057 31 50.9061 31H54.0939C54.5943 31 55 30.5788 55 30.0593V25.9407C55 25.4212 54.5943 25 54.0939 25H50.9061Z" fill="#6A6A6A"/>
<path fill-rule="evenodd" clip-rule="evenodd" d="M27 30.5C27 30.2239 27.2239 30 27.5 30H59.5C59.7761 30 60 30.2239 60 30.5C60 30.7761 59.7761 31 59.5 31H27.5C27.2239 31 27 30.7761 27 30.5Z" fill="#6A6A6A"/>
</svg>
