<svg width="88" height="88" viewBox="0 0 88 88" fill="none" xmlns="http://www.w3.org/2000/svg">
<rect x="23.5" y="13.5" width="41" height="23" rx="0.5" fill="white" stroke="#6A6A6A"/>
<path d="M69 18.5H83.3049C83.5811 18.5 83.8049 18.7239 83.8049 19V31.8605C83.8049 32.1729 83.5217 32.4088 83.2145 32.3522L68.9095 29.7202C68.6723 29.6766 68.5 29.4697 68.5 29.2285V19C68.5 18.7239 68.7239 18.5 69 18.5Z" fill="white" stroke="#6A6A6A"/>
<path d="M19.3049 18.5H5C4.72386 18.5 4.5 18.7239 4.5 19V31.8605C4.5 32.1729 4.78325 32.4088 5.09048 32.3522L19.3954 29.7202C19.6327 29.6766 19.8049 29.4697 19.8049 29.2285V19C19.8049 18.7239 19.5811 18.5 19.3049 18.5Z" fill="white" stroke="#6A6A6A"/>
<path d="M70.9302 26.1969L74.1707 22.6787L74.8003 27.9376L80.5773 23.1417" stroke="#6A6A6A" stroke-width="0.5"/>
<path d="M16.7129 26.0117L13.4724 22.4935L12.8428 27.7524L7.06578 22.9565" stroke="#6A6A6A" stroke-width="0.5"/>
<rect x="63.5" y="61.5" width="2" height="13" fill="white" stroke="#6A6A6A"/>
<rect x="19.5" y="61.5" width="2" height="13" fill="white" stroke="#6A6A6A"/>
<path d="M15.5 59.309L21.118 56.5H64.8615L69.5 59.2831V61.5H15.5V59.309Z" fill="white" stroke="#6A6A6A"/>
<line x1="16" y1="59.75" x2="69" y2="59.75" stroke="#6A6A6A" stroke-width="0.5"/>
<path fill-rule="evenodd" clip-rule="evenodd" d="M4 47.5C4 47.2239 4.22386 47 4.5 47H82.5C82.7761 47 83 47.2239 83 47.5C83 47.7761 82.7761 48 82.5 48H4.5C4.22386 48 4 47.7761 4 47.5Z" fill="#6A6A6A"/>
<path d="M49 75H57" stroke="#6A6A6A" stroke-linecap="round"/>
<path d="M53 70L53 75" stroke="#6A6A6A" stroke-linecap="round"/>
<path d="M49.7808 51.5H56.2192C56.4487 51.5 56.6486 51.6561 56.7043 51.8787L58.9675 60.9315C58.9911 61.0261 59.0055 61.1229 59.0104 61.2204L59.4481 69.975C59.4624 70.2606 59.2347 70.5 58.9488 70.5H47.0512C46.7653 70.5 46.5376 70.2606 46.5519 69.975L46.9896 61.2204C46.9945 61.1229 47.0089 61.0261 47.0325 60.9315L49.2957 51.8787C49.3514 51.6561 49.5513 51.5 49.7808 51.5Z" fill="white" stroke="#6A6A6A"/>
<path d="M29 75H37" stroke="#6A6A6A" stroke-linecap="round"/>
<path d="M33 70L33 75" stroke="#6A6A6A" stroke-linecap="round"/>
<path d="M29.7808 51.5H36.2192C36.4487 51.5 36.6486 51.6561 36.7043 51.8787L38.9675 60.9315C38.9911 61.0261 39.0055 61.1229 39.0104 61.2204L39.4481 69.975C39.4624 70.2606 39.2347 70.5 38.9488 70.5H27.0512C26.7653 70.5 26.5376 70.2606 26.5519 69.975L26.9896 61.2204C26.9945 61.1229 27.0089 61.0261 27.0325 60.9315L29.2957 51.8787C29.3514 51.6561 29.5513 51.5 29.7808 51.5Z" fill="white" stroke="#6A6A6A"/>
<path fill-rule="evenodd" clip-rule="evenodd" d="M27 34.25C27 34.1119 27.1119 34 27.25 34H38.0851C38.2232 34 38.3351 34.1119 38.3351 34.25C38.3351 34.3881 38.2232 34.5 38.0851 34.5H27.25C27.1119 34.5 27 34.3881 27 34.25Z" fill="#6A6A6A"/>
<path fill-rule="evenodd" clip-rule="evenodd" d="M53 34.25C53 34.1119 53.1119 34 53.25 34L59.8752 34C60.0132 34 60.1252 34.1119 60.1252 34.25C60.1252 34.3881 60.0132 34.5 59.8752 34.5L53.25 34.5C53.1119 34.5 53 34.3881 53 34.25Z" fill="#6A6A6A"/>
<rect x="32" y="16" width="5.51793" height="15.1906" rx="1" fill="#00C895"/>
<path fill-rule="evenodd" clip-rule="evenodd" d="M45.5179 22.1777H42C41.7239 22.1777 41.5 22.4016 41.5 22.6777V30.1905C41.5 30.4667 41.7239 30.6905 42 30.6905H45.5179C45.7941 30.6905 46.0179 30.4667 46.0179 30.1905V22.6777C46.0179 22.4016 45.7941 22.1777 45.5179 22.1777ZM42 21.6777C41.4477 21.6777 41 22.1255 41 22.6777V30.1905C41 30.7428 41.4477 31.1905 42 31.1905H45.5179C46.0702 31.1905 46.5179 30.7428 46.5179 30.1905V22.6777C46.5179 22.1254 46.0702 21.6777 45.5179 21.6777H42Z" fill="#6A6A6A"/>
<path fill-rule="evenodd" clip-rule="evenodd" d="M54.5179 25.5H51C50.7239 25.5 50.5 25.7239 50.5 26V30.3783C50.5 30.6544 50.7239 30.8783 51 30.8783H54.5179C54.7941 30.8783 55.0179 30.6544 55.0179 30.3783V26C55.0179 25.7239 54.7941 25.5 54.5179 25.5ZM51 25C50.4477 25 50 25.4477 50 26V30.3783C50 30.9306 50.4477 31.3783 51 31.3783H54.5179C55.0702 31.3783 55.5179 30.9306 55.5179 30.3783V26C55.5179 25.4477 55.0702 25 54.5179 25H51Z" fill="#6A6A6A"/>
<path fill-rule="evenodd" clip-rule="evenodd" d="M27 31.5C27 31.2239 27.2239 31 27.5 31H59.5C59.7761 31 60 31.2239 60 31.5C60 31.7761 59.7761 32 59.5 32H27.5C27.2239 32 27 31.7761 27 31.5Z" fill="#6A6A6A"/>
</svg>
