<svg width="130" height="130" viewBox="0 0 130 130" fill="none" xmlns="http://www.w3.org/2000/svg">
<path d="M0 0H130V130H0V0Z" fill="white"/>
<path opacity="0.1" d="M120 60.5C120 90.5995 95.5995 115 65.5 115C35.4005 115 11 90.5995 11 60.5C11 30.4005 35.4005 6 65.5 6C95.5995 6 120 30.4005 120 60.5Z" fill="#7E55A8"/>
<path d="M31 101H32V123H31V101Z" fill="white"/>
<path fill-rule="evenodd" clip-rule="evenodd" d="M29 99H34V125H29V99ZM31 101H32V123H31V101Z" fill="#6A6A6A"/>
<path d="M102 101H103V123H102V101Z" fill="white"/>
<path fill-rule="evenodd" clip-rule="evenodd" d="M100 99H105V125H100V99ZM102 101H103V123H102V101Z" fill="#6A6A6A"/>
<path d="M29 31C29 29.8954 29.8954 29 31 29H98C99.1046 29 100 29.8954 100 31V67C100 68.1046 99.1046 69 98 69H31C29.8954 69 29 68.1046 29 67V31Z" fill="white"/>
<path fill-rule="evenodd" clip-rule="evenodd" d="M98 31H31V67H98V31ZM31 29C29.8954 29 29 29.8954 29 31V67C29 68.1046 29.8954 69 31 69H98C99.1046 69 100 68.1046 100 67V31C100 29.8954 99.1046 29 98 29H31Z" fill="#6A6A6A"/>
<path fill-rule="evenodd" clip-rule="evenodd" d="M130 125H0V124H130V125Z" fill="#6A6A6A"/>
<path d="M48.3812 41C48.3812 40.4477 48.8289 40 49.3812 40H55.631C56.1833 40 56.631 40.4477 56.631 41V60.9996C56.631 61.5519 56.1833 61.9996 55.631 61.9996H49.3812C48.8289 61.9996 48.3812 61.5519 48.3812 60.9996V41Z" fill="white"/>
<path fill-rule="evenodd" clip-rule="evenodd" d="M55.631 41H49.3812V60.9996H55.631L55.631 41ZM49.3812 40C48.8289 40 48.3812 40.4477 48.3812 41V60.9996C48.3812 61.5519 48.8289 61.9996 49.3812 61.9996H55.631C56.1833 61.9996 56.631 61.5519 56.631 60.9996V41C56.631 40.4477 56.1833 40 55.631 40H49.3812Z" fill="#6A6A6A"/>
<path d="M62.1306 47.8746C62.1306 47.3223 62.5783 46.8746 63.1306 46.8746H69.3804C69.9327 46.8746 70.3804 47.3223 70.3804 47.8746V60.9994C70.3804 61.5517 69.9327 61.9994 69.3804 61.9994H63.1306C62.5783 61.9994 62.1306 61.5517 62.1306 60.9994V47.8746Z" fill="white"/>
<path fill-rule="evenodd" clip-rule="evenodd" d="M69.3804 47.8746L63.1306 47.8746V60.9994L69.3804 60.9994L69.3804 47.8746ZM63.1306 46.8746C62.5783 46.8746 62.1306 47.3223 62.1306 47.8746V60.9994C62.1306 61.5517 62.5783 61.9994 63.1306 61.9994H69.3804C69.9327 61.9994 70.3804 61.5517 70.3804 60.9994V47.8746C70.3804 47.3223 69.9327 46.8746 69.3804 46.8746H63.1306Z" fill="#6A6A6A"/>
<path d="M75.8945 53.375C75.8945 52.8227 76.3422 52.375 76.8945 52.375H83.1444C83.6967 52.375 84.1444 52.8227 84.1444 53.375V60.9998C84.1444 61.5521 83.6967 61.9998 83.1444 61.9998H76.8945C76.3422 61.9998 75.8945 61.5521 75.8945 60.9998V53.375Z" fill="white"/>
<path fill-rule="evenodd" clip-rule="evenodd" d="M83.1444 53.375L76.8945 53.375V60.9998L83.1444 60.9998L83.1444 53.375ZM76.8945 52.375C76.3422 52.375 75.8945 52.8227 75.8945 53.375V60.9998C75.8945 61.5521 76.3422 61.9998 76.8945 61.9998H83.1444C83.6967 61.9998 84.1444 61.5521 84.1444 60.9998V53.375C84.1444 52.8227 83.6967 52.375 83.1444 52.375H76.8945Z" fill="#6A6A6A"/>
<path fill-rule="evenodd" clip-rule="evenodd" d="M39.5 61.3624C39.5 61.0863 39.7239 60.8624 40 60.8624H90.8741C91.1503 60.8624 91.3741 61.0863 91.3741 61.3624C91.3741 61.6386 91.1503 61.8624 90.8741 61.8624H40C39.7239 61.8624 39.5 61.6386 39.5 61.3624Z" fill="#6A6A6A"/>
<path d="M130 39.3516C130 38.247 129.105 37.3516 128 37.3516H104.051C102.946 37.3516 102.051 38.247 102.051 39.3516V54.6619C102.051 55.5969 102.699 56.4072 103.611 56.6129L127.56 62.014C128.811 62.296 130 61.3451 130 60.063V39.3516Z" fill="white"/>
<path fill-rule="evenodd" clip-rule="evenodd" d="M104.051 39.3516H128L128 60.063L104.051 54.6619L104.051 39.3516ZM128 37.3516C129.105 37.3516 130 38.247 130 39.3516V60.063C130 61.3451 128.811 62.296 127.56 62.014L103.611 56.6129C102.699 56.4072 102.051 55.5969 102.051 54.6619V39.3516C102.051 38.247 102.946 37.3516 104.051 37.3516H128Z" fill="#6A6A6A"/>
<path fill-rule="evenodd" clip-rule="evenodd" d="M124.588 43.3718L113.868 52.7943L113.921 47.7851L108.191 52.8215L107.524 52.0897L114.954 45.559L114.901 50.5682L123.921 42.64L124.588 43.3718Z" fill="#6A6A6A"/>
<path d="M0.00012207 39.3516C0.00012207 38.247 0.895553 37.3516 2.00012 37.3516H24.9649C26.0694 37.3516 26.9649 38.247 26.9649 39.3516V54.6747C26.9649 55.6039 26.3249 56.4107 25.4201 56.6222L2.45536 61.9903C1.20068 62.2836 0.00012207 61.3313 0.00012207 60.0428V39.3516Z" fill="white"/>
<path fill-rule="evenodd" clip-rule="evenodd" d="M24.9649 39.3516H2.00012L2.00012 60.0428L24.9649 54.6747L24.9649 39.3516ZM2.00012 37.3516C0.895553 37.3516 0.00012207 38.247 0.00012207 39.3516V60.0428C0.00012207 61.3313 1.20068 62.2836 2.45536 61.9903L25.4201 56.6222C26.3249 56.4107 26.9649 55.6039 26.9649 54.6747V39.3516C26.9649 38.247 26.0694 37.3516 24.9649 37.3516H2.00012Z" fill="#6A6A6A"/>
<path fill-rule="evenodd" clip-rule="evenodd" d="M5.20949 43.3753L15.5799 52.8236L15.529 47.8144L21.0287 52.825L21.7021 52.0858L14.5057 45.5293L14.5567 50.5385L5.88297 42.6361L5.20949 43.3753Z" fill="#6A6A6A"/>
<path fill-rule="evenodd" clip-rule="evenodd" d="M49 124L49 114L51 114L51 124L49 124Z" fill="#6A6A6A"/>
<path fill-rule="evenodd" clip-rule="evenodd" d="M83 124L83 115L85 115L85 124L83 124Z" fill="#6A6A6A"/>
<path fill-rule="evenodd" clip-rule="evenodd" d="M43 123C43 122.448 43.4477 122 44 122L57 122C57.5523 122 58 122.448 58 123C58 123.552 57.5523 124 57 124L44 124C43.4477 124 43 123.552 43 123Z" fill="#6A6A6A"/>
<path fill-rule="evenodd" clip-rule="evenodd" d="M77 123C77 122.448 77.4477 122 78 122L91 122C91.5523 122 92 122.448 92 123C92 123.552 91.5523 124 91 124L78 124C77.4477 124 77 123.552 77 123Z" fill="#6A6A6A"/>
<path fill-rule="evenodd" clip-rule="evenodd" d="M31.0296 93.8008H103.519L111.245 98.6007V98.6008V104.601H22.4453V98.6008V98.6007H22.4455L31.0296 93.8008Z" fill="white"/>
<path fill-rule="evenodd" clip-rule="evenodd" d="M22.4453 98.6007V104.601H111.245V98.6008L103.519 93.8008H31.0296L22.4453 98.6007ZM31.5508 95.8008L24.4453 99.7739V102.601H109.245V99.7127L102.949 95.8008H31.5508Z" fill="#6A6A6A"/>
<path fill-rule="evenodd" clip-rule="evenodd" d="M109.5 100L24 100L24 99L109.5 99L109.5 100Z" fill="#6A6A6A"/>
<path d="M41.2941 84.6314C41.4715 83.6855 42.2974 83 43.2598 83H56.7401C57.7026 83 58.5285 83.6855 58.7059 84.6314L61.3863 98.9272C61.3954 98.9757 61.4009 99.0247 61.4028 99.074L61.9222 112.925C61.9647 114.058 61.0575 115 59.9236 115H40.0764C38.9424 115 38.0353 114.058 38.0778 112.925L38.5944 99.148C38.5981 99.0495 38.6091 98.9513 38.6273 98.8544L41.2941 84.6314Z" fill="white"/>
<path fill-rule="evenodd" clip-rule="evenodd" d="M56.7401 85H43.2598L40.593 99.223L40.0764 113H59.9236L59.4069 99.223L56.7401 85ZM43.2598 83C42.2974 83 41.4715 83.6855 41.2941 84.6314L38.6273 98.8544C38.6091 98.9513 38.5981 99.0495 38.5944 99.148L38.0778 112.925C38.0353 114.058 38.9424 115 40.0764 115H59.9236C61.0575 115 61.9647 114.058 61.9222 112.925L61.4028 99.074C61.4009 99.0247 61.3954 98.9757 61.3863 98.9272L58.7059 84.6314C58.5285 83.6855 57.7026 83 56.7401 83H43.2598Z" fill="#6A6A6A"/>
<path d="M75.1542 84.6463C75.3254 83.6934 76.1545 83 77.1226 83H89.8773C90.8455 83 91.6746 83.6934 91.8458 84.6463L94.4124 98.9301C94.4208 98.9766 94.4258 99.0237 94.4275 99.071L94.9255 112.928C94.9662 114.06 94.0595 115 92.9268 115H74.0731C72.9404 115 72.0338 114.06 72.0744 112.928L72.5699 99.142C72.5733 99.0475 72.5834 98.9533 72.6001 98.8601L75.1542 84.6463Z" fill="white"/>
<path fill-rule="evenodd" clip-rule="evenodd" d="M89.8773 85H77.1226L74.5686 99.2138L74.0731 113H92.9268L92.4314 99.2138L89.8773 85ZM77.1226 83C76.1545 83 75.3254 83.6934 75.1542 84.6463L72.6001 98.8601C72.5834 98.9533 72.5733 99.0475 72.5699 99.142L72.0744 112.928C72.0338 114.06 72.9404 115 74.0731 115H92.9268C94.0595 115 94.9662 114.06 94.9255 112.928L94.4275 99.071C94.4258 99.0237 94.4208 98.9766 94.4124 98.9301L91.8458 84.6463C91.6746 83.6934 90.8455 83 89.8773 83H77.1226Z" fill="#6A6A6A"/>
</svg>
