<?xml version="1.0" encoding="utf-8"?>
<!--
  Copyright 2023-2025 Solace Systems. All rights reserved.

  Licensed under the Apache License, Version 2.0 (the "License");
  you may not use this file except in compliance with the License.
  You may obtain a copy of the License at

      http://www.apache.org/licenses/LICENSE-2.0

  Unless required by applicable law or agreed to in writing, software
  distributed under the License is distributed on an "AS IS" BASIS,
  WITHOUT WARRANTIES OR CONDITIONS OF ANY KIND, either express or implied.
  See the License for the specific language governing permissions and
  limitations under the License.
-->
<svg width="88" height="88" viewBox="0 0 88 88" fill="none" xmlns="http://www.w3.org/2000/svg">
<path d="M23 14C23 13.4477 23.4477 13 24 13H64C64.5523 13 65 13.4477 65 14V36C65 36.5523 64.5523 37 64 37H24C23.4477 37 23 36.5523 23 36V14Z" fill="white"/>
<path fill-rule="evenodd" clip-rule="evenodd" d="M64 14H24V36H64V14ZM24 13C23.4477 13 23 13.4477 23 14V36C23 36.5523 23.4477 37 24 37H64C64.5523 37 65 36.5523 65 36V14C65 13.4477 64.5523 13 64 13H24Z" fill="#6A6A6A"/>
<path d="M68 19C68 18.4477 68.4477 18 69 18H83C83.5523 18 84 18.4477 84 19V31.796C84 32.4218 83.4316 32.8939 82.8164 32.779L68.8164 30.1647C68.3431 30.0763 68 29.6631 68 29.1817V19Z" fill="white"/>
<path fill-rule="evenodd" clip-rule="evenodd" d="M83 19H69L69 29.1817L83 31.796V19ZM69 18C68.4477 18 68 18.4477 68 19V29.1817C68 29.6631 68.3431 30.0763 68.8164 30.1647L82.8164 32.779C83.4316 32.8939 84 32.4218 84 31.796V19C84 18.4477 83.5523 18 83 18H69Z" fill="#6A6A6A"/>
<path d="M20 19C20 18.4477 19.5523 18 19 18H5C4.44771 18 4 18.4477 4 19V31.796C4 32.4218 4.56836 32.8939 5.18356 32.779L19.1836 30.1647C19.6569 30.0763 20 29.6631 20 29.1817V19Z" fill="white"/>
<path fill-rule="evenodd" clip-rule="evenodd" d="M5 19H19L19 29.1817L5 31.796V19ZM19 18C19.5523 18 20 18.4477 20 19V29.1817C20 29.6631 19.6569 30.0763 19.1836 30.1647L5.18356 32.779C4.56836 32.8939 4 32.4218 4 31.796V19C4 18.4477 4.44771 18 5 18H19Z" fill="#6A6A6A"/>
<path fill-rule="evenodd" clip-rule="evenodd" d="M74.3542 22.1102L74.9937 27.4519L80.4174 22.9493L80.7368 23.334L74.6064 28.4233L73.9867 23.2472L71.1139 26.3663L70.7461 26.0275L74.3542 22.1102Z" fill="#6A6A6A"/>
<path fill-rule="evenodd" clip-rule="evenodd" d="M13.2889 21.925L12.6494 27.2667L7.22566 22.7641L6.90629 23.1488L13.0367 28.2381L13.6563 23.062L16.5292 26.1811L16.897 25.8424L13.2889 21.925Z" fill="#6A6A6A"/>
<path d="M63 61H66V75H63V61Z" fill="white"/>
<path fill-rule="evenodd" clip-rule="evenodd" d="M65 62H64V74H65V62ZM63 61V75H66V61H63Z" fill="#6A6A6A"/>
<path d="M19 61H22V75H19V61Z" fill="white"/>
<path fill-rule="evenodd" clip-rule="evenodd" d="M21 62H20V74H21V62ZM19 61V75H22V61H19Z" fill="#6A6A6A"/>
<path fill-rule="evenodd" clip-rule="evenodd" d="M16.2361 59.5L21.2361 57H64.723L68.8897 59.5H16.2361ZM16 60V61H69V60H16ZM21 56H65L70 59V62H15V59L21 56Z" fill="#6A6A6A"/>
<path fill-rule="evenodd" clip-rule="evenodd" d="M4 47.5C4 47.2239 4.22386 47 4.5 47H82.5C82.7761 47 83 47.2239 83 47.5C83 47.7761 82.7761 48 82.5 48H4.5C4.22386 48 4 47.7761 4 47.5Z" fill="#6A6A6A"/>
<path fill-rule="evenodd" clip-rule="evenodd" d="M53.5 70C53.5 69.7239 53.2761 69.5 53 69.5C52.7239 69.5 52.5 69.7239 52.5 70L52.5 74.5H49C48.7239 74.5 48.5 74.7239 48.5 75C48.5 75.2761 48.7239 75.5 49 75.5H53H57C57.2761 75.5 57.5 75.2761 57.5 75C57.5 74.7239 57.2761 74.5 57 74.5H53.5L53.5 70Z" fill="#6A6A6A"/>
<path d="M48.8107 51.7575C48.922 51.3123 49.322 51 49.7808 51H56.2193C56.6781 51 57.0781 51.3123 57.1894 51.7575L59.4526 60.8102C59.4842 60.9364 59.5033 61.0654 59.5098 61.1954L59.9475 69.9501C59.9761 70.5212 59.5207 71 58.9488 71H47.0513C46.4794 71 46.024 70.5212 46.0525 69.9501L46.4903 61.1954C46.4968 61.0654 46.5159 60.9364 46.5475 60.8102L48.8107 51.7575Z" fill="white"/>
<path fill-rule="evenodd" clip-rule="evenodd" d="M56.2193 52H49.7808L47.5176 61.0527C47.5019 61.1159 47.4923 61.1804 47.489 61.2453L47.0513 70L58.9488 70L58.5111 61.2453C58.5078 61.1804 58.4982 61.1159 58.4825 61.0527L56.2193 52ZM49.7808 51C49.322 51 48.922 51.3123 48.8107 51.7575L46.5475 60.8102C46.5159 60.9364 46.4968 61.0654 46.4903 61.1954L46.0525 69.9501C46.024 70.5212 46.4794 71 47.0513 71H58.9488C59.5207 71 59.9761 70.5212 59.9475 69.9501L59.5098 61.1954C59.5033 61.0654 59.4842 60.9364 59.4526 60.8102L57.1894 51.7575C57.0781 51.3123 56.6781 51 56.2193 51H49.7808Z" fill="#6A6A6A"/>
<path fill-rule="evenodd" clip-rule="evenodd" d="M33.5 70C33.5 69.7239 33.2761 69.5 33 69.5C32.7239 69.5 32.5 69.7239 32.5 70L32.5 74.5H29C28.7239 74.5 28.5 74.7239 28.5 75C28.5 75.2761 28.7239 75.5 29 75.5H33H37C37.2761 75.5 37.5 75.2761 37.5 75C37.5 74.7239 37.2761 74.5 37 74.5H33.5L33.5 70Z" fill="#6A6A6A"/>
<path d="M28.8107 51.7575C28.922 51.3123 29.322 51 29.7808 51H36.2193C36.6781 51 37.0781 51.3123 37.1894 51.7575L39.4526 60.8102C39.4842 60.9364 39.5033 61.0654 39.5098 61.1954L39.9475 69.9501C39.9761 70.5212 39.5207 71 38.9488 71H27.0513C26.4794 71 26.024 70.5212 26.0525 69.9501L26.4903 61.1954C26.4968 61.0654 26.5159 60.9364 26.5475 60.8102L28.8107 51.7575Z" fill="white"/>
<path fill-rule="evenodd" clip-rule="evenodd" d="M36.2193 52H29.7808L27.5176 61.0527C27.5019 61.1159 27.4923 61.1804 27.489 61.2453L27.0513 70L38.9488 70L38.5111 61.2453C38.5078 61.1804 38.4982 61.1159 38.4825 61.0527L36.2193 52ZM29.7808 51C29.322 51 28.922 51.3123 28.8107 51.7575L26.5475 60.8102C26.5159 60.9364 26.4968 61.0654 26.4903 61.1954L26.0525 69.9501C26.024 70.5212 26.4794 71 27.0513 71H38.9488C39.5207 71 39.9761 70.5212 39.9475 69.9501L39.5098 61.1954C39.5033 61.0654 39.4842 60.9364 39.4526 60.8102L37.1894 51.7575C37.0781 51.3123 36.6781 51 36.2193 51H29.7808Z" fill="#6A6A6A"/>
<path fill-rule="evenodd" clip-rule="evenodd" d="M27 33.25C27 33.1119 27.1119 33 27.25 33H38.0851C38.2232 33 38.3351 33.1119 38.3351 33.25C38.3351 33.3881 38.2232 33.5 38.0851 33.5H27.25C27.1119 33.5 27 33.3881 27 33.25Z" fill="#6A6A6A"/>
<path fill-rule="evenodd" clip-rule="evenodd" d="M53 33.25C53 33.1119 53.1119 33 53.25 33L59.8752 33C60.0132 33 60.1252 33.1119 60.1252 33.25C60.1252 33.3881 60.0132 33.5 59.8752 33.5L53.25 33.5C53.1119 33.5 53 33.3881 53 33.25Z" fill="#6A6A6A"/>
<rect x="32" y="16" width="5" height="15" rx="1" fill="#00C895"/>
<path fill-rule="evenodd" clip-rule="evenodd" d="M45.0939 22.473H41.9061C41.6559 22.473 41.4531 22.6848 41.4531 22.9461V30.0539C41.4531 30.3152 41.6559 30.527 41.9061 30.527H45.0939C45.3441 30.527 45.5469 30.3152 45.5469 30.0539V22.9461C45.5469 22.6848 45.3441 22.473 45.0939 22.473ZM41.9061 22C41.4057 22 41 22.4236 41 22.9461V30.0539C41 30.5764 41.4057 31 41.9061 31H45.0939C45.5943 31 46 30.5764 46 30.0539V22.9461C46 22.4236 45.5943 22 45.0939 22H41.9061Z" fill="#6A6A6A"/>
<path fill-rule="evenodd" clip-rule="evenodd" d="M54.0939 25.4703H50.9061C50.6559 25.4703 50.4531 25.6809 50.4531 25.9407V30.0593C50.4531 30.3191 50.6559 30.5297 50.9061 30.5297H54.0939C54.3441 30.5297 54.5469 30.3191 54.5469 30.0593V25.9407C54.5469 25.6809 54.3441 25.4703 54.0939 25.4703ZM50.9061 25C50.4057 25 50 25.4212 50 25.9407V30.0593C50 30.5788 50.4057 31 50.9061 31H54.0939C54.5943 31 55 30.5788 55 30.0593V25.9407C55 25.4212 54.5943 25 54.0939 25H50.9061Z" fill="#6A6A6A"/>
<path fill-rule="evenodd" clip-rule="evenodd" d="M27 30.5C27 30.2239 27.2239 30 27.5 30H59.5C59.7761 30 60 30.2239 60 30.5C60 30.7761 59.7761 31 59.5 31H27.5C27.2239 31 27 30.7761 27 30.5Z" fill="#6A6A6A"/>
</svg>