<svg width="88" height="88" viewBox="0 0 88 88" fill="none" xmlns="http://www.w3.org/2000/svg">
<path d="M76.5215 75.3009C76.5215 76.4055 75.6261 77.3009 74.5215 77.3009L14.5215 77.3009C13.4169 77.3009 12.5215 76.4055 12.5215 75.3009L12.5215 39.1875C12.5215 38.6229 12.7601 38.0847 13.1784 37.7055L43.1784 10.518C43.9406 9.82733 45.1024 9.82733 45.8645 10.518L75.8645 37.7055C76.2829 38.0847 76.5215 38.6229 76.5215 39.1875L76.5215 75.3009Z" fill="white"/>
<path fill-rule="evenodd" clip-rule="evenodd" d="M14.5215 75.3009L74.5215 75.3009L74.5215 39.1875L44.5215 12L14.5215 39.1875L14.5215 75.3009ZM74.5215 77.3009C75.6261 77.3009 76.5215 76.4055 76.5215 75.3009L76.5215 39.1875C76.5215 38.6229 76.2829 38.0847 75.8645 37.7055L45.8645 10.518C45.1024 9.82733 43.9406 9.82733 43.1784 10.518L13.1784 37.7055C12.7601 38.0847 12.5215 38.6229 12.5215 39.1875L12.5215 75.3009C12.5215 76.4055 13.4169 77.3009 14.5215 77.3009L74.5215 77.3009Z" fill="#6A6A6A"/>
<path fill-rule="evenodd" clip-rule="evenodd" d="M74.5215 41.3009H13.5215V39.3009H74.5215V41.3009Z" fill="#6A6A6A"/>
<path d="M23.5215 24.3009H64.5215V49.3009H23.5215V24.3009Z" fill="white"/>
<path fill-rule="evenodd" clip-rule="evenodd" d="M25 24.3009C24.4477 24.3009 24 24.7486 24 25.3009V50.3009H22V25.3009C22 23.644 23.3431 22.3009 25 22.3009H63C64.6569 22.3009 66 23.644 66 25.3009V50.3009H64V25.3009C64 24.7486 63.5523 24.3009 63 24.3009H25Z" fill="#6A6A6A"/>
<path fill-rule="evenodd" clip-rule="evenodd" d="M49.4919 49.3009H55.888C57.3525 49.3009 57.9801 47.635 57.9801 45.9691C57.9801 42.8594 55.7834 40.4161 52.7499 40.4161H47.9038C48.5374 40.9749 49.0672 41.6516 49.4681 42.4161H52.7499C54.5423 42.4161 55.9801 43.8223 55.9801 45.9691C55.9801 46.5934 55.8562 47.0635 55.728 47.3009H50.2129C50.1032 47.9342 49.9047 48.5702 49.5846 49.1428C49.5549 49.196 49.524 49.2487 49.4919 49.3009Z" fill="#6A6A6A"/>
<path d="M34.967 40.4161H43.3353C46.3689 40.4161 48.5655 42.8594 48.5655 45.9691C48.5655 47.635 47.9379 49.3009 46.4735 49.3009H31.8289C30.3644 49.3009 29.7368 47.635 29.7368 45.9691C29.7368 42.7484 31.9335 40.4161 34.967 40.4161Z" fill="#00C895"/>
<path fill-rule="evenodd" clip-rule="evenodd" d="M49.7423 36.7153C51.1483 36.7153 52.4495 35.414 52.4495 34.0081C52.4495 32.6022 51.1483 31.3009 49.7423 31.3009C48.3364 31.3009 47.0352 32.6022 47.0352 34.0081C47.0352 35.414 48.3364 36.7153 49.7423 36.7153ZM54.4495 34.0081C54.4495 36.5186 52.2528 38.7153 49.7423 38.7153C47.2318 38.7153 45.0352 36.5186 45.0352 34.0081C45.0352 31.4976 47.2318 29.3009 49.7423 29.3009C52.2528 29.3009 54.4495 31.4976 54.4495 34.0081Z" fill="#6A6A6A"/>
<path d="M39.1513 38.7153C41.6618 38.7153 43.8585 36.5186 43.8585 34.0081C43.8585 31.4976 41.6618 29.3009 39.1513 29.3009C36.6408 29.3009 34.4441 31.4976 34.4441 34.0081C34.4441 36.5186 36.6408 38.7153 39.1513 38.7153Z" fill="#00C895"/>
<path fill-rule="evenodd" clip-rule="evenodd" d="M55.6887 61.0259L75.6887 42.0259L74.3112 40.5759L54.3112 59.5759L55.6887 61.0259Z" fill="#6A6A6A"/>
<path fill-rule="evenodd" clip-rule="evenodd" d="M45.7924 53.3419L76.584 75.4891L75.4162 77.1127L44.6246 54.9656C44.2714 54.7115 43.7946 54.715 43.4451 54.9741L13.5956 77.1042L12.4045 75.4976L42.254 53.3675C43.3023 52.5902 44.7329 52.5799 45.7924 53.3419Z" fill="#6A6A6A"/>
<path fill-rule="evenodd" clip-rule="evenodd" d="M33.3113 61.0259L13.3113 42.0259L14.6888 40.5759L34.6888 59.5759L33.3113 61.0259Z" fill="#6A6A6A"/>
</svg>
