<svg width="361" height="229" viewBox="0 0 361 229" fill="none" xmlns="http://www.w3.org/2000/svg">
<path fill-rule="evenodd" clip-rule="evenodd" d="M171.888 39.95L279.534 46.0782L325.915 115.668L273.932 209.374L109.123 187.239L21.4062 76.3494L171.888 39.95ZM170.864 44.3131L206.393 132.065L110.725 182.817L28.4198 78.7683L170.864 44.3131ZM116.631 184.212L271.759 205.046L319.856 118.344L209.559 134.913L116.631 184.212ZM210.186 130.774L320.165 114.253L277.313 49.9582L175.109 44.1398L210.186 130.774Z" fill="#86939E"/>
<path d="M136.386 182.605C136.386 197.009 124.441 208.686 109.707 208.686C94.9728 208.686 83.0283 197.009 83.0283 182.605C83.0283 168.201 94.9728 156.524 109.707 156.524C124.441 156.524 136.386 168.201 136.386 182.605Z" fill="white"/>
<path d="M147.722 182.605C147.722 203.13 130.702 219.769 109.707 219.769C88.7121 219.769 71.6924 203.13 71.6924 182.605C71.6924 162.08 88.7121 145.442 109.707 145.442C130.702 145.442 147.722 162.08 147.722 182.605Z" fill="url(#paint0_radial_1966_128843)"/>
<path fill-rule="evenodd" clip-rule="evenodd" d="M109.707 204.215C121.915 204.215 131.812 194.54 131.812 182.605C131.812 170.67 121.915 160.995 109.707 160.995C97.4987 160.995 87.6018 170.67 87.6018 182.605C87.6018 194.54 97.4987 204.215 109.707 204.215ZM109.707 208.686C124.441 208.686 136.386 197.009 136.386 182.605C136.386 168.201 124.441 156.524 109.707 156.524C94.9728 156.524 83.0283 168.201 83.0283 182.605C83.0283 197.009 94.9728 208.686 109.707 208.686Z" fill="#145B5B"/>
<path d="M124.95 182.603C124.95 190.834 118.125 197.507 109.705 197.507C101.285 197.507 94.46 190.834 94.46 182.603C94.46 174.372 101.285 167.699 109.705 167.699C118.125 167.699 124.95 174.372 124.95 182.603Z" fill="#145B5B" fill-opacity="0.3"/>
<path d="M348.831 115.274C348.831 129.679 336.887 141.356 322.152 141.356C307.418 141.356 295.474 129.679 295.474 115.274C295.474 100.87 307.418 89.1929 322.152 89.1929C336.887 89.1929 348.831 100.87 348.831 115.274Z" fill="white"/>
<path d="M360.167 115.278C360.167 135.803 343.147 152.442 322.152 152.442C301.157 152.442 284.138 135.803 284.138 115.278C284.138 94.7534 301.157 78.1147 322.152 78.1147C343.147 78.1147 360.167 94.7534 360.167 115.278Z" fill="url(#paint1_radial_1966_128843)"/>
<path fill-rule="evenodd" clip-rule="evenodd" d="M322.152 136.884C334.361 136.884 344.258 127.209 344.258 115.274C344.258 103.339 334.361 93.664 322.152 93.664C309.944 93.664 300.047 103.339 300.047 115.274C300.047 127.209 309.944 136.884 322.152 136.884ZM322.152 141.356C336.887 141.356 348.831 129.679 348.831 115.274C348.831 100.87 336.887 89.1929 322.152 89.1929C307.418 89.1929 295.474 100.87 295.474 115.274C295.474 129.679 307.418 141.356 322.152 141.356Z" fill="#145B5B"/>
<path d="M337.395 115.276C337.395 123.507 330.57 130.18 322.15 130.18C313.731 130.18 306.905 123.507 306.905 115.276C306.905 107.045 313.731 100.373 322.15 100.373C330.57 100.373 337.395 107.045 337.395 115.276Z" fill="#145B5B" fill-opacity="0.3"/>
<path d="M198.63 37.7553C198.63 52.1596 186.685 63.8366 171.951 63.8366C157.217 63.8366 145.272 52.1596 145.272 37.7553C145.272 23.351 157.217 11.674 171.951 11.674C186.685 11.674 198.63 23.351 198.63 37.7553Z" fill="white"/>
<path d="M209.966 37.7593C209.966 58.2841 192.946 74.9227 171.951 74.9227C150.956 74.9227 133.937 58.2841 133.937 37.7593C133.937 17.2345 150.956 0.595825 171.951 0.595825C192.946 0.595825 209.966 17.2345 209.966 37.7593Z" fill="url(#paint2_radial_1966_128843)"/>
<path fill-rule="evenodd" clip-rule="evenodd" d="M171.951 59.3655C184.16 59.3655 194.056 49.6903 194.056 37.7553C194.056 25.8203 184.16 16.145 171.951 16.145C159.743 16.145 149.846 25.8203 149.846 37.7553C149.846 49.6903 159.743 59.3655 171.951 59.3655ZM171.951 63.8366C186.685 63.8366 198.63 52.1596 198.63 37.7553C198.63 23.351 186.685 11.674 171.951 11.674C157.217 11.674 145.272 23.351 145.272 37.7553C145.272 52.1596 157.217 63.8366 171.951 63.8366Z" fill="#145B5B"/>
<path d="M187.194 37.7573C187.194 45.9883 180.369 52.6609 171.949 52.6609C163.53 52.6609 156.704 45.9883 156.704 37.7573C156.704 29.5262 163.53 22.8536 171.949 22.8536C180.369 22.8536 187.194 29.5262 187.194 37.7573Z" fill="#145B5B" fill-opacity="0.3"/>
<g filter="url(#filter0_i_1966_128843)">
<path d="M291.834 47.575C291.834 55.5367 285.38 61.991 277.418 61.991C269.456 61.991 263.002 55.5367 263.002 47.575C263.002 39.6132 269.456 33.1589 277.418 33.1589C285.38 33.1589 291.834 39.6132 291.834 47.575Z" fill="#009193"/>
</g>
<path fill-rule="evenodd" clip-rule="evenodd" d="M293.834 47.575C293.834 56.6413 286.484 63.991 277.418 63.991C268.352 63.991 261.002 56.6413 261.002 47.575C261.002 38.5086 268.352 31.1589 277.418 31.1589C286.484 31.1589 293.834 38.5086 293.834 47.575ZM277.418 61.991C285.38 61.991 291.834 55.5367 291.834 47.575C291.834 39.6132 285.38 33.1589 277.418 33.1589C269.456 33.1589 263.002 39.6132 263.002 47.575C263.002 55.5367 269.456 61.991 277.418 61.991Z" fill="#022343"/>
<g filter="url(#filter1_i_1966_128843)">
<path d="M223.45 133.855C223.45 141.817 216.996 148.271 209.034 148.271C201.072 148.271 194.618 141.817 194.618 133.855C194.618 125.894 201.072 119.439 209.034 119.439C216.996 119.439 223.45 125.894 223.45 133.855Z" fill="#009193"/>
</g>
<path fill-rule="evenodd" clip-rule="evenodd" d="M225.45 133.855C225.45 142.922 218.1 150.271 209.034 150.271C199.968 150.271 192.618 142.922 192.618 133.855C192.618 124.789 199.968 117.439 209.034 117.439C218.1 117.439 225.45 124.789 225.45 133.855ZM209.034 148.271C216.996 148.271 223.45 141.817 223.45 133.855C223.45 125.894 216.996 119.439 209.034 119.439C201.072 119.439 194.618 125.894 194.618 133.855C194.618 141.817 201.072 148.271 209.034 148.271Z" fill="#022343"/>
<g filter="url(#filter2_i_1966_128843)">
<path d="M287.542 205.353C287.542 213.314 281.088 219.769 273.126 219.769C265.164 219.769 258.71 213.314 258.71 205.353C258.71 197.391 265.164 190.937 273.126 190.937C281.088 190.937 287.542 197.391 287.542 205.353Z" fill="#009193"/>
</g>
<path fill-rule="evenodd" clip-rule="evenodd" d="M289.542 205.353C289.542 214.419 282.192 221.769 273.126 221.769C264.06 221.769 256.71 214.419 256.71 205.353C256.71 196.286 264.06 188.937 273.126 188.937C282.192 188.937 289.542 196.286 289.542 205.353ZM273.126 219.769C281.088 219.769 287.542 213.314 287.542 205.353C287.542 197.391 281.088 190.937 273.126 190.937C265.164 190.937 258.71 197.391 258.71 205.353C258.71 213.314 265.164 219.769 273.126 219.769Z" fill="#022343"/>
<path d="M75.544 226.102C74.8 226.102 74.176 225.994 73.672 225.778C73.176 225.554 72.796 225.266 72.532 224.914C72.276 224.554 72.14 224.178 72.124 223.786C72.124 223.714 72.148 223.654 72.196 223.606C72.244 223.558 72.304 223.534 72.376 223.534H73.444C73.548 223.534 73.624 223.558 73.672 223.606C73.728 223.646 73.776 223.698 73.816 223.762C73.864 223.914 73.956 224.066 74.092 224.218C74.228 224.362 74.412 224.482 74.644 224.578C74.884 224.674 75.184 224.722 75.544 224.722C76.12 224.722 76.548 224.626 76.828 224.434C77.116 224.242 77.26 223.982 77.26 223.654C77.26 223.422 77.184 223.238 77.032 223.102C76.88 222.958 76.644 222.83 76.324 222.718C76.012 222.598 75.596 222.474 75.076 222.346C74.476 222.202 73.972 222.03 73.564 221.83C73.164 221.622 72.86 221.362 72.652 221.05C72.452 220.738 72.352 220.342 72.352 219.862C72.352 219.398 72.476 218.986 72.724 218.626C72.98 218.266 73.34 217.982 73.804 217.774C74.276 217.566 74.836 217.462 75.484 217.462C76.004 217.462 76.464 217.534 76.864 217.678C77.264 217.814 77.596 217.998 77.86 218.23C78.124 218.454 78.324 218.698 78.46 218.962C78.604 219.218 78.68 219.47 78.688 219.718C78.688 219.782 78.664 219.842 78.616 219.898C78.576 219.946 78.516 219.97 78.436 219.97H77.32C77.256 219.97 77.192 219.954 77.128 219.922C77.064 219.89 77.012 219.83 76.972 219.742C76.924 219.494 76.768 219.282 76.504 219.106C76.24 218.93 75.9 218.842 75.484 218.842C75.052 218.842 74.704 218.922 74.44 219.082C74.176 219.242 74.044 219.49 74.044 219.826C74.044 220.05 74.108 220.238 74.236 220.39C74.372 220.534 74.584 220.662 74.872 220.774C75.168 220.886 75.556 221.006 76.036 221.134C76.716 221.286 77.272 221.462 77.704 221.662C78.136 221.862 78.452 222.118 78.652 222.43C78.852 222.734 78.952 223.122 78.952 223.594C78.952 224.122 78.808 224.574 78.52 224.95C78.24 225.318 77.844 225.602 77.332 225.802C76.82 226.002 76.224 226.102 75.544 226.102Z" fill="#DBDFE2"/>
<path d="M80.4832 225.982C80.4032 225.982 80.3352 225.954 80.2792 225.898C80.2232 225.842 80.1952 225.774 80.1952 225.694V217.75C80.1952 217.67 80.2232 217.602 80.2792 217.546C80.3352 217.49 80.4032 217.462 80.4832 217.462H81.5512C81.6392 217.462 81.7072 217.49 81.7552 217.546C81.8112 217.602 81.8392 217.67 81.8392 217.75V220.486C82.0552 220.23 82.3192 220.022 82.6312 219.862C82.9432 219.702 83.3272 219.622 83.7832 219.622C84.2712 219.622 84.6952 219.734 85.0552 219.958C85.4232 220.174 85.7072 220.482 85.9072 220.882C86.1072 221.282 86.2072 221.762 86.2072 222.322V225.694C86.2072 225.774 86.1792 225.842 86.1232 225.898C86.0672 225.954 85.9992 225.982 85.9192 225.982H84.8392C84.7592 225.982 84.6912 225.954 84.6352 225.898C84.5792 225.842 84.5512 225.774 84.5512 225.694V222.394C84.5512 221.93 84.4352 221.566 84.2032 221.302C83.9792 221.038 83.6512 220.906 83.2192 220.906C82.8032 220.906 82.4672 221.038 82.2112 221.302C81.9632 221.566 81.8392 221.93 81.8392 222.394V225.694C81.8392 225.774 81.8112 225.842 81.7552 225.898C81.7072 225.954 81.6392 225.982 81.5512 225.982H80.4832Z" fill="#DBDFE2"/>
<path d="M88.0181 225.982C87.9381 225.982 87.8701 225.954 87.8141 225.898C87.7581 225.842 87.7301 225.774 87.7301 225.694V220.03C87.7301 219.95 87.7581 219.882 87.8141 219.826C87.8701 219.77 87.9381 219.742 88.0181 219.742H89.0141C89.1021 219.742 89.1701 219.77 89.2181 219.826C89.2741 219.882 89.3021 219.95 89.3021 220.03V225.694C89.3021 225.774 89.2741 225.842 89.2181 225.898C89.1701 225.954 89.1021 225.982 89.0141 225.982H88.0181ZM87.9701 218.71C87.8821 218.71 87.8101 218.686 87.7541 218.638C87.7061 218.582 87.6821 218.51 87.6821 218.422V217.558C87.6821 217.478 87.7061 217.41 87.7541 217.354C87.8101 217.298 87.8821 217.27 87.9701 217.27H89.0621C89.1501 217.27 89.2221 217.298 89.2781 217.354C89.3341 217.41 89.3621 217.478 89.3621 217.558V218.422C89.3621 218.51 89.3341 218.582 89.2781 218.638C89.2221 218.686 89.1501 218.71 89.0621 218.71H87.9701Z" fill="#DBDFE2"/>
<path d="M91.4403 228.262C91.3603 228.262 91.2923 228.234 91.2363 228.178C91.1803 228.122 91.1523 228.054 91.1523 227.974V220.03C91.1523 219.95 91.1803 219.882 91.2363 219.826C91.2923 219.77 91.3603 219.742 91.4403 219.742H92.3883C92.4763 219.742 92.5443 219.77 92.5923 219.826C92.6483 219.882 92.6763 219.95 92.6763 220.03V220.51C92.8683 220.254 93.1203 220.042 93.4323 219.874C93.7443 219.706 94.1323 219.622 94.5963 219.622C95.0203 219.622 95.3883 219.69 95.7003 219.826C96.0123 219.962 96.2723 220.158 96.4803 220.414C96.6883 220.662 96.8483 220.958 96.9603 221.302C97.0723 221.646 97.1363 222.026 97.1523 222.442C97.1603 222.578 97.1643 222.718 97.1643 222.862C97.1643 223.006 97.1603 223.15 97.1523 223.294C97.1443 223.694 97.0843 224.066 96.9723 224.41C96.8603 224.746 96.6963 225.042 96.4803 225.298C96.2723 225.546 96.0123 225.742 95.7003 225.886C95.3883 226.03 95.0203 226.102 94.5963 226.102C94.1643 226.102 93.7963 226.026 93.4923 225.874C93.1883 225.714 92.9403 225.506 92.7483 225.25V227.974C92.7483 228.054 92.7203 228.122 92.6643 228.178C92.6163 228.234 92.5483 228.262 92.4603 228.262H91.4403ZM94.1523 224.818C94.4963 224.818 94.7643 224.746 94.9563 224.602C95.1483 224.45 95.2843 224.254 95.3643 224.014C95.4523 223.774 95.5043 223.51 95.5203 223.222C95.5363 222.982 95.5363 222.742 95.5203 222.502C95.5043 222.214 95.4523 221.95 95.3643 221.71C95.2843 221.47 95.1483 221.278 94.9563 221.134C94.7643 220.982 94.4963 220.906 94.1523 220.906C93.8243 220.906 93.5563 220.982 93.3483 221.134C93.1483 221.286 93.0003 221.482 92.9043 221.722C92.8163 221.954 92.7643 222.194 92.7483 222.442C92.7403 222.586 92.7363 222.738 92.7363 222.898C92.7363 223.058 92.7403 223.214 92.7483 223.366C92.7563 223.606 92.8123 223.838 92.9163 224.062C93.0203 224.278 93.1723 224.458 93.3723 224.602C93.5723 224.746 93.8323 224.818 94.1523 224.818Z" fill="#DBDFE2"/>
<path d="M98.8114 228.262C98.7314 228.262 98.6634 228.234 98.6074 228.178C98.5514 228.122 98.5234 228.054 98.5234 227.974V220.03C98.5234 219.95 98.5514 219.882 98.6074 219.826C98.6634 219.77 98.7314 219.742 98.8114 219.742H99.7594C99.8474 219.742 99.9154 219.77 99.9634 219.826C100.019 219.882 100.047 219.95 100.047 220.03V220.51C100.239 220.254 100.491 220.042 100.803 219.874C101.115 219.706 101.503 219.622 101.967 219.622C102.391 219.622 102.759 219.69 103.071 219.826C103.383 219.962 103.643 220.158 103.851 220.414C104.059 220.662 104.219 220.958 104.331 221.302C104.443 221.646 104.507 222.026 104.523 222.442C104.531 222.578 104.535 222.718 104.535 222.862C104.535 223.006 104.531 223.15 104.523 223.294C104.515 223.694 104.455 224.066 104.343 224.41C104.231 224.746 104.067 225.042 103.851 225.298C103.643 225.546 103.383 225.742 103.071 225.886C102.759 226.03 102.391 226.102 101.967 226.102C101.535 226.102 101.167 226.026 100.863 225.874C100.559 225.714 100.311 225.506 100.119 225.25V227.974C100.119 228.054 100.091 228.122 100.035 228.178C99.9874 228.234 99.9194 228.262 99.8314 228.262H98.8114ZM101.523 224.818C101.867 224.818 102.135 224.746 102.327 224.602C102.519 224.45 102.655 224.254 102.735 224.014C102.823 223.774 102.875 223.51 102.891 223.222C102.907 222.982 102.907 222.742 102.891 222.502C102.875 222.214 102.823 221.95 102.735 221.71C102.655 221.47 102.519 221.278 102.327 221.134C102.135 220.982 101.867 220.906 101.523 220.906C101.195 220.906 100.927 220.982 100.719 221.134C100.519 221.286 100.371 221.482 100.275 221.722C100.187 221.954 100.135 222.194 100.119 222.442C100.111 222.586 100.107 222.738 100.107 222.898C100.107 223.058 100.111 223.214 100.119 223.366C100.127 223.606 100.183 223.838 100.287 224.062C100.391 224.278 100.543 224.458 100.743 224.602C100.943 224.746 101.203 224.818 101.523 224.818Z" fill="#DBDFE2"/>
<path d="M106.17 225.982C106.09 225.982 106.022 225.954 105.966 225.898C105.91 225.842 105.882 225.774 105.882 225.694V220.03C105.882 219.95 105.91 219.882 105.966 219.826C106.022 219.77 106.09 219.742 106.17 219.742H107.166C107.254 219.742 107.322 219.77 107.37 219.826C107.426 219.882 107.454 219.95 107.454 220.03V225.694C107.454 225.774 107.426 225.842 107.37 225.898C107.322 225.954 107.254 225.982 107.166 225.982H106.17ZM106.122 218.71C106.034 218.71 105.962 218.686 105.906 218.638C105.858 218.582 105.834 218.51 105.834 218.422V217.558C105.834 217.478 105.858 217.41 105.906 217.354C105.962 217.298 106.034 217.27 106.122 217.27H107.214C107.302 217.27 107.374 217.298 107.43 217.354C107.486 217.41 107.514 217.478 107.514 217.558V218.422C107.514 218.51 107.486 218.582 107.43 218.638C107.374 218.686 107.302 218.71 107.214 218.71H106.122Z" fill="#DBDFE2"/>
<path d="M109.581 225.982C109.501 225.982 109.433 225.954 109.377 225.898C109.321 225.842 109.293 225.774 109.293 225.694V220.03C109.293 219.95 109.321 219.882 109.377 219.826C109.433 219.77 109.501 219.742 109.581 219.742H110.565C110.645 219.742 110.713 219.77 110.769 219.826C110.825 219.882 110.853 219.95 110.853 220.03V220.522C111.061 220.266 111.325 220.054 111.645 219.886C111.973 219.71 112.377 219.622 112.857 219.622C113.345 219.622 113.769 219.734 114.129 219.958C114.489 220.174 114.765 220.482 114.957 220.882C115.157 221.282 115.257 221.762 115.257 222.322V225.694C115.257 225.774 115.229 225.842 115.173 225.898C115.117 225.954 115.049 225.982 114.969 225.982H113.913C113.833 225.982 113.765 225.954 113.709 225.898C113.653 225.842 113.625 225.774 113.625 225.694V222.394C113.625 221.93 113.509 221.566 113.277 221.302C113.053 221.038 112.725 220.906 112.293 220.906C111.877 220.906 111.545 221.038 111.297 221.302C111.049 221.566 110.925 221.93 110.925 222.394V225.694C110.925 225.774 110.897 225.842 110.841 225.898C110.785 225.954 110.717 225.982 110.637 225.982H109.581Z" fill="#DBDFE2"/>
<path d="M119.601 228.622C119.017 228.622 118.537 228.546 118.161 228.394C117.785 228.242 117.489 228.058 117.273 227.842C117.057 227.626 116.901 227.41 116.805 227.194C116.717 226.986 116.669 226.822 116.661 226.702C116.653 226.622 116.677 226.55 116.733 226.486C116.797 226.43 116.869 226.402 116.949 226.402H117.993C118.073 226.402 118.137 226.418 118.185 226.45C118.233 226.49 118.273 226.558 118.305 226.654C118.353 226.758 118.417 226.87 118.497 226.99C118.577 227.11 118.697 227.21 118.857 227.29C119.025 227.378 119.253 227.422 119.541 227.422C119.845 227.422 120.101 227.378 120.309 227.29C120.517 227.202 120.673 227.054 120.777 226.846C120.889 226.638 120.945 226.35 120.945 225.982V225.166C120.753 225.398 120.505 225.586 120.201 225.73C119.905 225.874 119.537 225.946 119.097 225.946C118.665 225.946 118.293 225.878 117.981 225.742C117.669 225.598 117.409 225.402 117.201 225.154C116.993 224.898 116.833 224.598 116.721 224.254C116.617 223.91 116.557 223.53 116.541 223.114C116.533 222.898 116.533 222.682 116.541 222.466C116.557 222.066 116.617 221.694 116.721 221.35C116.825 221.006 116.981 220.706 117.189 220.45C117.405 220.186 117.669 219.982 117.981 219.838C118.293 219.694 118.665 219.622 119.097 219.622C119.553 219.622 119.937 219.71 120.249 219.886C120.561 220.054 120.817 220.266 121.017 220.522V220.042C121.017 219.954 121.045 219.882 121.101 219.826C121.157 219.77 121.225 219.742 121.305 219.742H122.277C122.357 219.742 122.425 219.77 122.481 219.826C122.537 219.882 122.565 219.954 122.565 220.042L122.577 225.826C122.577 226.402 122.469 226.898 122.253 227.314C122.037 227.73 121.709 228.05 121.269 228.274C120.837 228.506 120.281 228.622 119.601 228.622ZM119.541 224.674C119.869 224.674 120.133 224.602 120.333 224.458C120.533 224.314 120.681 224.126 120.777 223.894C120.873 223.662 120.929 223.426 120.945 223.186C120.953 223.082 120.957 222.95 120.957 222.79C120.957 222.63 120.953 222.502 120.945 222.406C120.929 222.158 120.873 221.922 120.777 221.698C120.681 221.466 120.533 221.278 120.333 221.134C120.133 220.982 119.869 220.906 119.541 220.906C119.213 220.906 118.949 220.982 118.749 221.134C118.549 221.278 118.405 221.47 118.317 221.71C118.237 221.95 118.189 222.214 118.173 222.502C118.157 222.694 118.157 222.89 118.173 223.09C118.189 223.37 118.237 223.634 118.317 223.882C118.405 224.122 118.549 224.314 118.749 224.458C118.949 224.602 119.213 224.674 119.541 224.674Z" fill="#DBDFE2"/>
<path d="M126.229 225.982C126.165 225.982 126.105 225.958 126.049 225.91C126.001 225.862 125.977 225.802 125.977 225.73C125.977 225.698 125.985 225.662 126.001 225.622L128.893 217.882C128.917 217.802 128.961 217.734 129.025 217.678C129.097 217.614 129.193 217.582 129.313 217.582H130.621C130.741 217.582 130.833 217.614 130.897 217.678C130.961 217.734 131.009 217.802 131.041 217.882L133.933 225.622C133.941 225.662 133.945 225.698 133.945 225.73C133.945 225.802 133.921 225.862 133.873 225.91C133.825 225.958 133.769 225.982 133.705 225.982H132.661C132.549 225.982 132.465 225.958 132.409 225.91C132.361 225.854 132.329 225.802 132.313 225.754L131.749 224.29H128.185L127.621 225.754C127.605 225.802 127.569 225.854 127.513 225.91C127.465 225.958 127.385 225.982 127.273 225.982H126.229ZM128.605 222.91H131.329L129.961 219.202L128.605 222.91Z" fill="#DBDFE2"/>
<path d="M135.222 228.262C135.142 228.262 135.074 228.234 135.018 228.178C134.962 228.122 134.934 228.054 134.934 227.974V220.03C134.934 219.95 134.962 219.882 135.018 219.826C135.074 219.77 135.142 219.742 135.222 219.742H136.17C136.258 219.742 136.326 219.77 136.374 219.826C136.43 219.882 136.458 219.95 136.458 220.03V220.51C136.65 220.254 136.902 220.042 137.214 219.874C137.526 219.706 137.914 219.622 138.378 219.622C138.802 219.622 139.17 219.69 139.482 219.826C139.794 219.962 140.054 220.158 140.262 220.414C140.47 220.662 140.63 220.958 140.742 221.302C140.854 221.646 140.918 222.026 140.934 222.442C140.942 222.578 140.946 222.718 140.946 222.862C140.946 223.006 140.942 223.15 140.934 223.294C140.926 223.694 140.866 224.066 140.754 224.41C140.642 224.746 140.478 225.042 140.262 225.298C140.054 225.546 139.794 225.742 139.482 225.886C139.17 226.03 138.802 226.102 138.378 226.102C137.946 226.102 137.578 226.026 137.274 225.874C136.97 225.714 136.722 225.506 136.53 225.25V227.974C136.53 228.054 136.502 228.122 136.446 228.178C136.398 228.234 136.33 228.262 136.242 228.262H135.222ZM137.934 224.818C138.278 224.818 138.546 224.746 138.738 224.602C138.93 224.45 139.066 224.254 139.146 224.014C139.234 223.774 139.286 223.51 139.302 223.222C139.318 222.982 139.318 222.742 139.302 222.502C139.286 222.214 139.234 221.95 139.146 221.71C139.066 221.47 138.93 221.278 138.738 221.134C138.546 220.982 138.278 220.906 137.934 220.906C137.606 220.906 137.338 220.982 137.13 221.134C136.93 221.286 136.782 221.482 136.686 221.722C136.598 221.954 136.546 222.194 136.53 222.442C136.522 222.586 136.518 222.738 136.518 222.898C136.518 223.058 136.522 223.214 136.53 223.366C136.538 223.606 136.594 223.838 136.698 224.062C136.802 224.278 136.954 224.458 137.154 224.602C137.354 224.746 137.614 224.818 137.934 224.818Z" fill="#DBDFE2"/>
<path d="M142.593 228.262C142.513 228.262 142.445 228.234 142.389 228.178C142.333 228.122 142.305 228.054 142.305 227.974V220.03C142.305 219.95 142.333 219.882 142.389 219.826C142.445 219.77 142.513 219.742 142.593 219.742H143.541C143.629 219.742 143.697 219.77 143.745 219.826C143.801 219.882 143.829 219.95 143.829 220.03V220.51C144.021 220.254 144.273 220.042 144.585 219.874C144.897 219.706 145.285 219.622 145.749 219.622C146.173 219.622 146.541 219.69 146.853 219.826C147.165 219.962 147.425 220.158 147.633 220.414C147.841 220.662 148.001 220.958 148.113 221.302C148.225 221.646 148.289 222.026 148.305 222.442C148.313 222.578 148.317 222.718 148.317 222.862C148.317 223.006 148.313 223.15 148.305 223.294C148.297 223.694 148.237 224.066 148.125 224.41C148.013 224.746 147.849 225.042 147.633 225.298C147.425 225.546 147.165 225.742 146.853 225.886C146.541 226.03 146.173 226.102 145.749 226.102C145.317 226.102 144.949 226.026 144.645 225.874C144.341 225.714 144.093 225.506 143.901 225.25V227.974C143.901 228.054 143.873 228.122 143.817 228.178C143.769 228.234 143.701 228.262 143.613 228.262H142.593ZM145.305 224.818C145.649 224.818 145.917 224.746 146.109 224.602C146.301 224.45 146.437 224.254 146.517 224.014C146.605 223.774 146.657 223.51 146.673 223.222C146.689 222.982 146.689 222.742 146.673 222.502C146.657 222.214 146.605 221.95 146.517 221.71C146.437 221.47 146.301 221.278 146.109 221.134C145.917 220.982 145.649 220.906 145.305 220.906C144.977 220.906 144.709 220.982 144.501 221.134C144.301 221.286 144.153 221.482 144.057 221.722C143.969 221.954 143.917 222.194 143.901 222.442C143.893 222.586 143.889 222.738 143.889 222.898C143.889 223.058 143.893 223.214 143.901 223.366C143.909 223.606 143.965 223.838 144.069 224.062C144.173 224.278 144.325 224.458 144.525 224.602C144.725 224.746 144.985 224.818 145.305 224.818Z" fill="#DBDFE2"/>
<path d="M284.218 156.442C284.138 156.442 284.07 156.414 284.014 156.358C283.958 156.302 283.93 156.234 283.93 156.154V148.342C283.93 148.254 283.958 148.182 284.014 148.126C284.07 148.07 284.138 148.042 284.218 148.042H287.434C288.058 148.042 288.602 148.142 289.066 148.342C289.53 148.534 289.89 148.83 290.146 149.23C290.402 149.622 290.53 150.114 290.53 150.706C290.53 151.306 290.402 151.802 290.146 152.194C289.89 152.578 289.53 152.866 289.066 153.058C288.602 153.25 288.058 153.346 287.434 153.346H285.646V156.154C285.646 156.234 285.618 156.302 285.562 156.358C285.514 156.414 285.446 156.442 285.358 156.442H284.218ZM285.622 152.014H287.374C287.838 152.014 288.194 151.906 288.442 151.69C288.69 151.466 288.814 151.138 288.814 150.706C288.814 150.306 288.698 149.986 288.466 149.746C288.234 149.498 287.87 149.374 287.374 149.374H285.622V152.014Z" fill="#DBDFE2"/>
<path d="M293.379 156.562C292.963 156.562 292.587 156.482 292.251 156.322C291.915 156.154 291.647 155.934 291.447 155.662C291.255 155.382 291.159 155.07 291.159 154.726C291.159 154.166 291.383 153.722 291.831 153.394C292.287 153.058 292.887 152.834 293.631 152.722L295.275 152.482V152.23C295.275 151.894 295.191 151.634 295.023 151.45C294.855 151.266 294.567 151.174 294.159 151.174C293.871 151.174 293.635 151.234 293.451 151.354C293.275 151.466 293.143 151.618 293.055 151.81C292.991 151.914 292.899 151.966 292.779 151.966H291.831C291.743 151.966 291.675 151.942 291.627 151.894C291.587 151.846 291.567 151.782 291.567 151.702C291.575 151.574 291.627 151.418 291.723 151.234C291.819 151.05 291.971 150.874 292.179 150.706C292.387 150.53 292.655 150.382 292.983 150.262C293.311 150.142 293.707 150.082 294.171 150.082C294.675 150.082 295.099 150.146 295.443 150.274C295.795 150.394 296.075 150.558 296.283 150.766C296.491 150.974 296.643 151.218 296.739 151.498C296.835 151.778 296.883 152.074 296.883 152.386V156.154C296.883 156.234 296.855 156.302 296.799 156.358C296.743 156.414 296.675 156.442 296.595 156.442H295.623C295.535 156.442 295.463 156.414 295.407 156.358C295.359 156.302 295.335 156.234 295.335 156.154V155.686C295.231 155.838 295.091 155.982 294.915 156.118C294.739 156.246 294.523 156.354 294.267 156.442C294.019 156.522 293.723 156.562 293.379 156.562ZM293.787 155.422C294.067 155.422 294.319 155.362 294.543 155.242C294.775 155.122 294.955 154.938 295.083 154.69C295.219 154.434 295.287 154.114 295.287 153.73V153.478L294.087 153.67C293.615 153.742 293.263 153.858 293.031 154.018C292.799 154.178 292.683 154.374 292.683 154.606C292.683 154.782 292.735 154.934 292.839 155.062C292.951 155.182 293.091 155.274 293.259 155.338C293.427 155.394 293.603 155.422 293.787 155.422Z" fill="#DBDFE2"/>
<path d="M299.386 158.722C299.322 158.722 299.266 158.698 299.218 158.65C299.17 158.602 299.146 158.546 299.146 158.482C299.146 158.45 299.146 158.418 299.146 158.386C299.154 158.362 299.17 158.33 299.194 158.29L300.13 156.07L297.826 150.634C297.794 150.554 297.778 150.498 297.778 150.466C297.786 150.394 297.814 150.334 297.862 150.286C297.91 150.23 297.97 150.202 298.042 150.202H299.014C299.11 150.202 299.182 150.226 299.23 150.274C299.278 150.322 299.314 150.374 299.338 150.43L300.934 154.354L302.578 150.43C302.602 150.366 302.638 150.314 302.686 150.274C302.734 150.226 302.806 150.202 302.902 150.202H303.862C303.926 150.202 303.982 150.226 304.03 150.274C304.086 150.322 304.114 150.378 304.114 150.442C304.114 150.49 304.098 150.554 304.066 150.634L300.67 158.494C300.638 158.558 300.598 158.61 300.55 158.65C300.502 158.698 300.43 158.722 300.334 158.722H299.386Z" fill="#DBDFE2"/>
<path d="M305.437 156.442C305.357 156.442 305.289 156.414 305.233 156.358C305.177 156.302 305.149 156.234 305.149 156.154V150.49C305.149 150.41 305.177 150.342 305.233 150.286C305.289 150.23 305.357 150.202 305.437 150.202H306.373C306.453 150.202 306.521 150.23 306.577 150.286C306.633 150.342 306.661 150.41 306.661 150.49V150.898C306.829 150.674 307.053 150.486 307.333 150.334C307.621 150.174 307.961 150.09 308.353 150.082C309.265 150.066 309.901 150.422 310.261 151.15C310.445 150.83 310.709 150.574 311.053 150.382C311.405 150.182 311.793 150.082 312.217 150.082C312.633 150.082 313.009 150.178 313.345 150.37C313.689 150.562 313.957 150.854 314.149 151.246C314.349 151.63 314.449 152.118 314.449 152.71V156.154C314.449 156.234 314.421 156.302 314.365 156.358C314.309 156.414 314.241 156.442 314.161 156.442H313.177C313.097 156.442 313.029 156.414 312.973 156.358C312.917 156.302 312.889 156.234 312.889 156.154V152.806C312.889 152.446 312.837 152.162 312.733 151.954C312.629 151.738 312.489 151.586 312.313 151.498C312.137 151.41 311.941 151.366 311.725 151.366C311.549 151.366 311.373 151.41 311.197 151.498C311.021 151.586 310.877 151.738 310.765 151.954C310.653 152.162 310.597 152.446 310.597 152.806V156.154C310.597 156.234 310.569 156.302 310.513 156.358C310.457 156.414 310.389 156.442 310.309 156.442H309.325C309.237 156.442 309.165 156.414 309.109 156.358C309.061 156.302 309.037 156.234 309.037 156.154V152.806C309.037 152.446 308.981 152.162 308.869 151.954C308.757 151.738 308.613 151.586 308.437 151.498C308.261 151.41 308.073 151.366 307.873 151.366C307.689 151.366 307.509 151.414 307.333 151.51C307.157 151.598 307.013 151.746 306.901 151.954C306.789 152.162 306.733 152.446 306.733 152.806V156.154C306.733 156.234 306.705 156.302 306.649 156.358C306.593 156.414 306.525 156.442 306.445 156.442H305.437Z" fill="#DBDFE2"/>
<path d="M318.665 156.562C317.777 156.562 317.073 156.306 316.553 155.794C316.033 155.282 315.753 154.554 315.713 153.61C315.705 153.53 315.701 153.43 315.701 153.31C315.701 153.182 315.705 153.082 315.713 153.01C315.745 152.41 315.881 151.89 316.121 151.45C316.369 151.01 316.709 150.674 317.141 150.442C317.573 150.202 318.081 150.082 318.665 150.082C319.313 150.082 319.857 150.218 320.297 150.49C320.737 150.754 321.069 151.126 321.293 151.606C321.517 152.078 321.629 152.626 321.629 153.25V153.502C321.629 153.582 321.601 153.65 321.545 153.706C321.489 153.762 321.417 153.79 321.329 153.79H317.345C317.345 153.79 317.345 153.802 317.345 153.826C317.345 153.85 317.345 153.87 317.345 153.886C317.353 154.166 317.405 154.426 317.501 154.666C317.605 154.898 317.753 155.086 317.945 155.23C318.145 155.374 318.381 155.446 318.653 155.446C318.877 155.446 319.065 155.414 319.217 155.35C319.369 155.278 319.493 155.198 319.589 155.11C319.685 155.022 319.753 154.95 319.793 154.894C319.865 154.798 319.921 154.742 319.961 154.726C320.009 154.702 320.077 154.69 320.165 154.69H321.197C321.277 154.69 321.341 154.714 321.389 154.762C321.445 154.81 321.469 154.87 321.461 154.942C321.453 155.07 321.385 155.226 321.257 155.41C321.137 155.594 320.961 155.774 320.729 155.95C320.497 156.126 320.205 156.274 319.853 156.394C319.509 156.506 319.113 156.562 318.665 156.562ZM317.345 152.782H319.997V152.746C319.997 152.434 319.945 152.162 319.841 151.93C319.737 151.698 319.585 151.514 319.385 151.378C319.185 151.242 318.945 151.174 318.665 151.174C318.385 151.174 318.145 151.242 317.945 151.378C317.745 151.514 317.593 151.698 317.489 151.93C317.393 152.162 317.345 152.434 317.345 152.746V152.782Z" fill="#DBDFE2"/>
<path d="M323.191 156.442C323.111 156.442 323.043 156.414 322.987 156.358C322.931 156.302 322.903 156.234 322.903 156.154V150.49C322.903 150.41 322.931 150.342 322.987 150.286C323.043 150.23 323.111 150.202 323.191 150.202H324.175C324.255 150.202 324.323 150.23 324.379 150.286C324.435 150.342 324.463 150.41 324.463 150.49V150.982C324.671 150.726 324.935 150.514 325.255 150.346C325.583 150.17 325.987 150.082 326.467 150.082C326.955 150.082 327.379 150.194 327.739 150.418C328.099 150.634 328.375 150.942 328.567 151.342C328.767 151.742 328.867 152.222 328.867 152.782V156.154C328.867 156.234 328.839 156.302 328.783 156.358C328.727 156.414 328.659 156.442 328.579 156.442H327.523C327.443 156.442 327.375 156.414 327.319 156.358C327.263 156.302 327.235 156.234 327.235 156.154V152.854C327.235 152.39 327.119 152.026 326.887 151.762C326.663 151.498 326.335 151.366 325.903 151.366C325.487 151.366 325.155 151.498 324.907 151.762C324.659 152.026 324.535 152.39 324.535 152.854V156.154C324.535 156.234 324.507 156.302 324.451 156.358C324.395 156.414 324.327 156.442 324.247 156.442H323.191Z" fill="#DBDFE2"/>
<path d="M333.141 156.442C332.661 156.442 332.257 156.358 331.929 156.19C331.601 156.022 331.357 155.774 331.197 155.446C331.037 155.11 330.957 154.694 330.957 154.198V151.474H330.009C329.929 151.474 329.861 151.446 329.805 151.39C329.749 151.334 329.721 151.266 329.721 151.186V150.49C329.721 150.41 329.749 150.342 329.805 150.286C329.861 150.23 329.929 150.202 330.009 150.202H330.957V148.21C330.957 148.13 330.981 148.062 331.029 148.006C331.085 147.95 331.157 147.922 331.245 147.922H332.217C332.297 147.922 332.365 147.95 332.421 148.006C332.477 148.062 332.505 148.13 332.505 148.21V150.202H334.005C334.085 150.202 334.153 150.23 334.209 150.286C334.265 150.342 334.293 150.41 334.293 150.49V151.186C334.293 151.266 334.265 151.334 334.209 151.39C334.153 151.446 334.085 151.474 334.005 151.474H332.505V154.078C332.505 154.406 332.561 154.662 332.673 154.846C332.793 155.03 332.997 155.122 333.285 155.122H334.113C334.193 155.122 334.261 155.15 334.317 155.206C334.373 155.262 334.401 155.33 334.401 155.41V156.154C334.401 156.234 334.373 156.302 334.317 156.358C334.261 156.414 334.193 156.442 334.113 156.442H333.141Z" fill="#DBDFE2"/>
<path d="M337.519 156.442C337.455 156.442 337.395 156.418 337.339 156.37C337.291 156.322 337.267 156.262 337.267 156.19C337.267 156.158 337.275 156.122 337.291 156.082L340.183 148.342C340.207 148.262 340.251 148.194 340.315 148.138C340.387 148.074 340.483 148.042 340.603 148.042H341.911C342.031 148.042 342.123 148.074 342.187 148.138C342.251 148.194 342.299 148.262 342.331 148.342L345.223 156.082C345.231 156.122 345.235 156.158 345.235 156.19C345.235 156.262 345.211 156.322 345.163 156.37C345.115 156.418 345.059 156.442 344.995 156.442H343.951C343.839 156.442 343.755 156.418 343.699 156.37C343.651 156.314 343.619 156.262 343.603 156.214L343.039 154.75H339.475L338.911 156.214C338.895 156.262 338.859 156.314 338.803 156.37C338.755 156.418 338.675 156.442 338.563 156.442H337.519ZM339.895 153.37H342.619L341.251 149.662L339.895 153.37Z" fill="#DBDFE2"/>
<path d="M346.511 158.722C346.431 158.722 346.363 158.694 346.307 158.638C346.251 158.582 346.223 158.514 346.223 158.434V150.49C346.223 150.41 346.251 150.342 346.307 150.286C346.363 150.23 346.431 150.202 346.511 150.202H347.459C347.547 150.202 347.615 150.23 347.663 150.286C347.719 150.342 347.747 150.41 347.747 150.49V150.97C347.939 150.714 348.191 150.502 348.503 150.334C348.815 150.166 349.203 150.082 349.667 150.082C350.091 150.082 350.459 150.15 350.771 150.286C351.083 150.422 351.343 150.618 351.551 150.874C351.759 151.122 351.919 151.418 352.031 151.762C352.143 152.106 352.207 152.486 352.223 152.902C352.231 153.038 352.235 153.178 352.235 153.322C352.235 153.466 352.231 153.61 352.223 153.754C352.215 154.154 352.155 154.526 352.043 154.87C351.931 155.206 351.767 155.502 351.551 155.758C351.343 156.006 351.083 156.202 350.771 156.346C350.459 156.49 350.091 156.562 349.667 156.562C349.235 156.562 348.867 156.486 348.563 156.334C348.259 156.174 348.011 155.966 347.819 155.71V158.434C347.819 158.514 347.791 158.582 347.735 158.638C347.687 158.694 347.619 158.722 347.531 158.722H346.511ZM349.223 155.278C349.567 155.278 349.835 155.206 350.027 155.062C350.219 154.91 350.355 154.714 350.435 154.474C350.523 154.234 350.575 153.97 350.591 153.682C350.607 153.442 350.607 153.202 350.591 152.962C350.575 152.674 350.523 152.41 350.435 152.17C350.355 151.93 350.219 151.738 350.027 151.594C349.835 151.442 349.567 151.366 349.223 151.366C348.895 151.366 348.627 151.442 348.419 151.594C348.219 151.746 348.071 151.942 347.975 152.182C347.887 152.414 347.835 152.654 347.819 152.902C347.811 153.046 347.807 153.198 347.807 153.358C347.807 153.518 347.811 153.674 347.819 153.826C347.827 154.066 347.883 154.298 347.987 154.522C348.091 154.738 348.243 154.918 348.443 155.062C348.643 155.206 348.903 155.278 349.223 155.278Z" fill="#DBDFE2"/>
<path d="M353.883 158.722C353.803 158.722 353.735 158.694 353.679 158.638C353.623 158.582 353.595 158.514 353.595 158.434V150.49C353.595 150.41 353.623 150.342 353.679 150.286C353.735 150.23 353.803 150.202 353.883 150.202H354.831C354.919 150.202 354.987 150.23 355.035 150.286C355.091 150.342 355.119 150.41 355.119 150.49V150.97C355.311 150.714 355.563 150.502 355.875 150.334C356.187 150.166 356.575 150.082 357.039 150.082C357.463 150.082 357.831 150.15 358.143 150.286C358.455 150.422 358.715 150.618 358.923 150.874C359.131 151.122 359.291 151.418 359.403 151.762C359.515 152.106 359.579 152.486 359.595 152.902C359.603 153.038 359.607 153.178 359.607 153.322C359.607 153.466 359.603 153.61 359.595 153.754C359.587 154.154 359.527 154.526 359.415 154.87C359.303 155.206 359.139 155.502 358.923 155.758C358.715 156.006 358.455 156.202 358.143 156.346C357.831 156.49 357.463 156.562 357.039 156.562C356.607 156.562 356.239 156.486 355.935 156.334C355.631 156.174 355.383 155.966 355.191 155.71V158.434C355.191 158.514 355.163 158.582 355.107 158.638C355.059 158.694 354.991 158.722 354.903 158.722H353.883ZM356.595 155.278C356.939 155.278 357.207 155.206 357.399 155.062C357.591 154.91 357.727 154.714 357.807 154.474C357.895 154.234 357.947 153.97 357.963 153.682C357.979 153.442 357.979 153.202 357.963 152.962C357.947 152.674 357.895 152.41 357.807 152.17C357.727 151.93 357.591 151.738 357.399 151.594C357.207 151.442 356.939 151.366 356.595 151.366C356.267 151.366 355.999 151.442 355.791 151.594C355.591 151.746 355.443 151.942 355.347 152.182C355.259 152.414 355.207 152.654 355.191 152.902C355.183 153.046 355.179 153.198 355.179 153.358C355.179 153.518 355.183 153.674 355.191 153.826C355.199 154.066 355.255 154.298 355.359 154.522C355.463 154.738 355.615 154.918 355.815 155.062C356.015 155.206 356.275 155.278 356.595 155.278Z" fill="#DBDFE2"/>
<path d="M146.224 80.3312C146.144 80.3312 146.076 80.3032 146.02 80.2472C145.964 80.1912 145.936 80.1232 145.936 80.0432V72.2192C145.936 72.1392 145.964 72.0712 146.02 72.0152C146.076 71.9592 146.144 71.9312 146.224 71.9312H147.352C147.44 71.9312 147.508 71.9592 147.556 72.0152C147.612 72.0712 147.64 72.1392 147.64 72.2192V80.0432C147.64 80.1232 147.612 80.1912 147.556 80.2472C147.508 80.3032 147.44 80.3312 147.352 80.3312H146.224Z" fill="#DBDFE2"/>
<path d="M149.665 80.3312C149.585 80.3312 149.517 80.3032 149.461 80.2472C149.405 80.1912 149.377 80.1232 149.377 80.0432V74.3792C149.377 74.2992 149.405 74.2312 149.461 74.1752C149.517 74.1192 149.585 74.0912 149.665 74.0912H150.649C150.729 74.0912 150.797 74.1192 150.853 74.1752C150.909 74.2312 150.937 74.2992 150.937 74.3792V74.8712C151.145 74.6152 151.409 74.4032 151.729 74.2352C152.057 74.0592 152.461 73.9712 152.941 73.9712C153.429 73.9712 153.853 74.0832 154.213 74.3072C154.573 74.5232 154.849 74.8312 155.041 75.2312C155.241 75.6312 155.341 76.1112 155.341 76.6712V80.0432C155.341 80.1232 155.313 80.1912 155.257 80.2472C155.201 80.3032 155.133 80.3312 155.053 80.3312H153.997C153.917 80.3312 153.849 80.3032 153.793 80.2472C153.737 80.1912 153.709 80.1232 153.709 80.0432V76.7432C153.709 76.2792 153.593 75.9152 153.361 75.6512C153.137 75.3872 152.809 75.2552 152.377 75.2552C151.961 75.2552 151.629 75.3872 151.381 75.6512C151.133 75.9152 151.009 76.2792 151.009 76.7432V80.0432C151.009 80.1232 150.981 80.1912 150.925 80.2472C150.869 80.3032 150.801 80.3312 150.721 80.3312H149.665Z" fill="#DBDFE2"/>
<path d="M158.886 80.3312C158.758 80.3312 158.662 80.3032 158.598 80.2472C158.542 80.1832 158.494 80.1112 158.454 80.0312L156.21 74.4632C156.194 74.4232 156.186 74.3872 156.186 74.3552C156.186 74.2832 156.21 74.2232 156.258 74.1752C156.314 74.1192 156.378 74.0912 156.45 74.0912H157.422C157.518 74.0912 157.59 74.1192 157.638 74.1752C157.686 74.2232 157.718 74.2712 157.734 74.3192L159.33 78.5312L160.926 74.3192C160.942 74.2712 160.974 74.2232 161.022 74.1752C161.07 74.1192 161.142 74.0912 161.238 74.0912H162.222C162.286 74.0912 162.342 74.1192 162.39 74.1752C162.446 74.2232 162.474 74.2832 162.474 74.3552C162.474 74.3872 162.47 74.4232 162.462 74.4632L160.206 80.0312C160.174 80.1112 160.126 80.1832 160.062 80.2472C159.998 80.3032 159.902 80.3312 159.774 80.3312H158.886Z" fill="#DBDFE2"/>
<path d="M166.034 80.4512C165.146 80.4512 164.442 80.1952 163.922 79.6832C163.402 79.1712 163.122 78.4432 163.082 77.4992C163.074 77.4192 163.07 77.3192 163.07 77.1992C163.07 77.0712 163.074 76.9712 163.082 76.8992C163.114 76.2992 163.25 75.7792 163.49 75.3392C163.738 74.8992 164.078 74.5632 164.51 74.3312C164.942 74.0912 165.45 73.9712 166.034 73.9712C166.682 73.9712 167.226 74.1072 167.666 74.3792C168.106 74.6432 168.438 75.0152 168.662 75.4952C168.886 75.9672 168.998 76.5152 168.998 77.1392V77.3912C168.998 77.4712 168.97 77.5392 168.914 77.5952C168.858 77.6512 168.786 77.6792 168.698 77.6792H164.714C164.714 77.6792 164.714 77.6912 164.714 77.7152C164.714 77.7392 164.714 77.7592 164.714 77.7752C164.722 78.0552 164.774 78.3152 164.87 78.5552C164.974 78.7872 165.122 78.9752 165.314 79.1192C165.514 79.2632 165.75 79.3352 166.022 79.3352C166.246 79.3352 166.434 79.3032 166.586 79.2392C166.738 79.1672 166.862 79.0872 166.958 78.9992C167.054 78.9112 167.122 78.8392 167.162 78.7832C167.234 78.6872 167.29 78.6312 167.33 78.6152C167.378 78.5912 167.446 78.5792 167.534 78.5792H168.566C168.646 78.5792 168.71 78.6032 168.758 78.6512C168.814 78.6992 168.838 78.7592 168.83 78.8312C168.822 78.9592 168.754 79.1152 168.626 79.2992C168.506 79.4832 168.33 79.6632 168.098 79.8392C167.866 80.0152 167.574 80.1632 167.222 80.2832C166.878 80.3952 166.482 80.4512 166.034 80.4512ZM164.714 76.6712H167.366V76.6352C167.366 76.3232 167.314 76.0512 167.21 75.8192C167.106 75.5872 166.954 75.4032 166.754 75.2672C166.554 75.1312 166.314 75.0632 166.034 75.0632C165.754 75.0632 165.514 75.1312 165.314 75.2672C165.114 75.4032 164.962 75.5872 164.858 75.8192C164.762 76.0512 164.714 76.3232 164.714 76.6352V76.6712Z" fill="#DBDFE2"/>
<path d="M170.56 80.3312C170.48 80.3312 170.412 80.3032 170.356 80.2472C170.3 80.1912 170.272 80.1232 170.272 80.0432V74.3792C170.272 74.2992 170.3 74.2312 170.356 74.1752C170.412 74.1192 170.48 74.0912 170.56 74.0912H171.544C171.624 74.0912 171.692 74.1192 171.748 74.1752C171.804 74.2312 171.832 74.2992 171.832 74.3792V74.8712C172.04 74.6152 172.304 74.4032 172.624 74.2352C172.952 74.0592 173.356 73.9712 173.836 73.9712C174.324 73.9712 174.748 74.0832 175.108 74.3072C175.468 74.5232 175.744 74.8312 175.936 75.2312C176.136 75.6312 176.236 76.1112 176.236 76.6712V80.0432C176.236 80.1232 176.208 80.1912 176.152 80.2472C176.096 80.3032 176.028 80.3312 175.948 80.3312H174.892C174.812 80.3312 174.744 80.3032 174.688 80.2472C174.632 80.1912 174.604 80.1232 174.604 80.0432V76.7432C174.604 76.2792 174.488 75.9152 174.256 75.6512C174.032 75.3872 173.704 75.2552 173.272 75.2552C172.856 75.2552 172.524 75.3872 172.276 75.6512C172.028 75.9152 171.904 76.2792 171.904 76.7432V80.0432C171.904 80.1232 171.876 80.1912 171.82 80.2472C171.764 80.3032 171.696 80.3312 171.616 80.3312H170.56Z" fill="#DBDFE2"/>
<path d="M180.51 80.3312C180.03 80.3312 179.626 80.2472 179.298 80.0792C178.97 79.9112 178.726 79.6632 178.566 79.3352C178.406 78.9992 178.326 78.5832 178.326 78.0872V75.3632H177.378C177.298 75.3632 177.23 75.3352 177.174 75.2792C177.118 75.2232 177.09 75.1552 177.09 75.0752V74.3792C177.09 74.2992 177.118 74.2312 177.174 74.1752C177.23 74.1192 177.298 74.0912 177.378 74.0912H178.326V72.0992C178.326 72.0192 178.35 71.9512 178.398 71.8952C178.454 71.8392 178.526 71.8112 178.614 71.8112H179.586C179.666 71.8112 179.734 71.8392 179.79 71.8952C179.846 71.9512 179.874 72.0192 179.874 72.0992V74.0912H181.374C181.454 74.0912 181.522 74.1192 181.578 74.1752C181.634 74.2312 181.662 74.2992 181.662 74.3792V75.0752C181.662 75.1552 181.634 75.2232 181.578 75.2792C181.522 75.3352 181.454 75.3632 181.374 75.3632H179.874V77.9672C179.874 78.2952 179.93 78.5512 180.042 78.7352C180.162 78.9192 180.366 79.0112 180.654 79.0112H181.482C181.562 79.0112 181.63 79.0392 181.686 79.0952C181.742 79.1512 181.77 79.2192 181.77 79.2992V80.0432C181.77 80.1232 181.742 80.1912 181.686 80.2472C181.63 80.3032 181.562 80.3312 181.482 80.3312H180.51Z" fill="#DBDFE2"/>
<path d="M185.595 80.4512C184.955 80.4512 184.415 80.3392 183.975 80.1152C183.543 79.8912 183.211 79.5752 182.979 79.1672C182.755 78.7592 182.627 78.2832 182.595 77.7392C182.587 77.5952 182.583 77.4192 182.583 77.2112C182.583 77.0032 182.587 76.8272 182.595 76.6832C182.627 76.1312 182.759 75.6552 182.991 75.2552C183.231 74.8472 183.567 74.5312 183.999 74.3072C184.439 74.0832 184.971 73.9712 185.595 73.9712C186.219 73.9712 186.747 74.0832 187.179 74.3072C187.619 74.5312 187.955 74.8472 188.187 75.2552C188.427 75.6552 188.563 76.1312 188.595 76.6832C188.603 76.8272 188.607 77.0032 188.607 77.2112C188.607 77.4192 188.603 77.5952 188.595 77.7392C188.563 78.2832 188.431 78.7592 188.199 79.1672C187.975 79.5752 187.643 79.8912 187.203 80.1152C186.771 80.3392 186.235 80.4512 185.595 80.4512ZM185.595 79.2632C186.019 79.2632 186.347 79.1312 186.579 78.8672C186.811 78.5952 186.939 78.1992 186.963 77.6792C186.971 77.5592 186.975 77.4032 186.975 77.2112C186.975 77.0192 186.971 76.8632 186.963 76.7432C186.939 76.2312 186.811 75.8392 186.579 75.5672C186.347 75.2952 186.019 75.1592 185.595 75.1592C185.171 75.1592 184.843 75.2952 184.611 75.5672C184.379 75.8392 184.251 76.2312 184.227 76.7432C184.219 76.8632 184.215 77.0192 184.215 77.2112C184.215 77.4032 184.219 77.5592 184.227 77.6792C184.251 78.1992 184.379 78.5952 184.611 78.8672C184.843 79.1312 185.171 79.2632 185.595 79.2632Z" fill="#DBDFE2"/>
<path d="M190.224 80.3312C190.144 80.3312 190.076 80.3032 190.02 80.2472C189.964 80.1912 189.936 80.1232 189.936 80.0432V74.3912C189.936 74.3032 189.964 74.2312 190.02 74.1752C190.076 74.1192 190.144 74.0912 190.224 74.0912H191.196C191.276 74.0912 191.344 74.1192 191.4 74.1752C191.464 74.2312 191.496 74.3032 191.496 74.3912V74.8832C191.68 74.6272 191.916 74.4312 192.204 74.2952C192.5 74.1592 192.84 74.0912 193.224 74.0912H193.716C193.804 74.0912 193.872 74.1192 193.92 74.1752C193.976 74.2312 194.004 74.2992 194.004 74.3792V75.2432C194.004 75.3232 193.976 75.3912 193.92 75.4472C193.872 75.5032 193.804 75.5312 193.716 75.5312H192.78C192.396 75.5312 192.096 75.6392 191.88 75.8552C191.672 76.0712 191.568 76.3672 191.568 76.7432V80.0432C191.568 80.1232 191.54 80.1912 191.484 80.2472C191.428 80.3032 191.356 80.3312 191.268 80.3312H190.224Z" fill="#DBDFE2"/>
<path d="M196.068 82.6112C196.004 82.6112 195.948 82.5872 195.9 82.5392C195.852 82.4912 195.828 82.4352 195.828 82.3712C195.828 82.3392 195.828 82.3072 195.828 82.2752C195.836 82.2512 195.852 82.2192 195.876 82.1792L196.812 79.9592L194.508 74.5232C194.476 74.4432 194.46 74.3872 194.46 74.3552C194.468 74.2832 194.496 74.2232 194.544 74.1752C194.592 74.1192 194.652 74.0912 194.724 74.0912H195.696C195.792 74.0912 195.864 74.1152 195.912 74.1632C195.96 74.2112 195.996 74.2632 196.02 74.3192L197.616 78.2432L199.26 74.3192C199.284 74.2552 199.32 74.2032 199.368 74.1632C199.416 74.1152 199.488 74.0912 199.584 74.0912H200.544C200.608 74.0912 200.664 74.1152 200.712 74.1632C200.768 74.2112 200.796 74.2672 200.796 74.3312C200.796 74.3792 200.78 74.4432 200.748 74.5232L197.352 82.3832C197.32 82.4472 197.28 82.4992 197.232 82.5392C197.184 82.5872 197.112 82.6112 197.016 82.6112H196.068Z" fill="#DBDFE2"/>
<circle cx="25.3125" cy="77.907" r="24.7344" fill="url(#paint3_radial_1966_128843)"/>
<g filter="url(#filter3_d_1966_128843)">
<path d="M39.7285 77.907C39.7285 85.8687 33.2742 92.323 25.3125 92.323C17.3508 92.323 10.8965 85.8687 10.8965 77.907C10.8965 69.9452 17.3508 63.491 25.3125 63.491C33.2742 63.491 39.7285 69.9452 39.7285 77.907Z" fill="#66DEBF"/>
</g>
<path d="M38.2298 108.252L38.434 108.743L38.9114 108.509L41.8205 107.083L42.2457 106.875L42.0608 106.439L37.9681 96.7941L44.9372 96.2384L46.0314 96.1511L45.2474 95.3828L29.2474 79.7028L28.3975 78.8699V80.0599V103.13V104.357L29.2551 103.479L34.1567 98.4631L38.2298 108.252Z" fill="white" stroke="#022343"/>
<defs>
<filter id="filter0_i_1966_128843" x="263.002" y="33.1589" width="28.832" height="28.832" filterUnits="userSpaceOnUse" color-interpolation-filters="sRGB">
<feFlood flood-opacity="0" result="BackgroundImageFix"/>
<feBlend mode="normal" in="SourceGraphic" in2="BackgroundImageFix" result="shape"/>
<feColorMatrix in="SourceAlpha" type="matrix" values="0 0 0 0 0 0 0 0 0 0 0 0 0 0 0 0 0 0 127 0" result="hardAlpha"/>
<feOffset/>
<feGaussianBlur stdDeviation="5"/>
<feComposite in2="hardAlpha" operator="arithmetic" k2="-1" k3="1"/>
<feColorMatrix type="matrix" values="0 0 0 0 1 0 0 0 0 1 0 0 0 0 1 0 0 0 0.5 0"/>
<feBlend mode="normal" in2="shape" result="effect1_innerShadow_1966_128843"/>
</filter>
<filter id="filter1_i_1966_128843" x="194.618" y="119.439" width="28.832" height="28.832" filterUnits="userSpaceOnUse" color-interpolation-filters="sRGB">
<feFlood flood-opacity="0" result="BackgroundImageFix"/>
<feBlend mode="normal" in="SourceGraphic" in2="BackgroundImageFix" result="shape"/>
<feColorMatrix in="SourceAlpha" type="matrix" values="0 0 0 0 0 0 0 0 0 0 0 0 0 0 0 0 0 0 127 0" result="hardAlpha"/>
<feOffset/>
<feGaussianBlur stdDeviation="5"/>
<feComposite in2="hardAlpha" operator="arithmetic" k2="-1" k3="1"/>
<feColorMatrix type="matrix" values="0 0 0 0 1 0 0 0 0 1 0 0 0 0 1 0 0 0 0.5 0"/>
<feBlend mode="normal" in2="shape" result="effect1_innerShadow_1966_128843"/>
</filter>
<filter id="filter2_i_1966_128843" x="258.71" y="190.937" width="28.832" height="28.832" filterUnits="userSpaceOnUse" color-interpolation-filters="sRGB">
<feFlood flood-opacity="0" result="BackgroundImageFix"/>
<feBlend mode="normal" in="SourceGraphic" in2="BackgroundImageFix" result="shape"/>
<feColorMatrix in="SourceAlpha" type="matrix" values="0 0 0 0 0 0 0 0 0 0 0 0 0 0 0 0 0 0 127 0" result="hardAlpha"/>
<feOffset/>
<feGaussianBlur stdDeviation="5"/>
<feComposite in2="hardAlpha" operator="arithmetic" k2="-1" k3="1"/>
<feColorMatrix type="matrix" values="0 0 0 0 1 0 0 0 0 1 0 0 0 0 1 0 0 0 0.5 0"/>
<feBlend mode="normal" in2="shape" result="effect1_innerShadow_1966_128843"/>
</filter>
<filter id="filter3_d_1966_128843" x="5.89648" y="58.491" width="38.832" height="38.832" filterUnits="userSpaceOnUse" color-interpolation-filters="sRGB">
<feFlood flood-opacity="0" result="BackgroundImageFix"/>
<feColorMatrix in="SourceAlpha" type="matrix" values="0 0 0 0 0 0 0 0 0 0 0 0 0 0 0 0 0 0 127 0" result="hardAlpha"/>
<feOffset/>
<feGaussianBlur stdDeviation="2.5"/>
<feComposite in2="hardAlpha" operator="out"/>
<feColorMatrix type="matrix" values="0 0 0 0 0.00784314 0 0 0 0 0.137255 0 0 0 0 0.262745 0 0 0 0.5 0"/>
<feBlend mode="normal" in2="BackgroundImageFix" result="effect1_dropShadow_1966_128843"/>
<feBlend mode="normal" in="SourceGraphic" in2="effect1_dropShadow_1966_128843" result="shape"/>
</filter>
<radialGradient id="paint0_radial_1966_128843" cx="0" cy="0" r="1" gradientUnits="userSpaceOnUse" gradientTransform="translate(109.707 182.605) rotate(90) scale(37.1634 38.0146)">
<stop offset="0.489583" stop-color="white"/>
<stop offset="0.885417" stop-color="white" stop-opacity="0"/>
</radialGradient>
<radialGradient id="paint1_radial_1966_128843" cx="0" cy="0" r="1" gradientUnits="userSpaceOnUse" gradientTransform="translate(322.152 115.278) rotate(90) scale(37.1634 38.0146)">
<stop offset="0.489583" stop-color="white"/>
<stop offset="0.885417" stop-color="white" stop-opacity="0"/>
</radialGradient>
<radialGradient id="paint2_radial_1966_128843" cx="0" cy="0" r="1" gradientUnits="userSpaceOnUse" gradientTransform="translate(171.951 37.7593) rotate(90) scale(37.1634 38.0146)">
<stop offset="0.489583" stop-color="white"/>
<stop offset="0.885417" stop-color="white" stop-opacity="0"/>
</radialGradient>
<radialGradient id="paint3_radial_1966_128843" cx="0" cy="0" r="1" gradientUnits="userSpaceOnUse" gradientTransform="translate(25.3125 77.907) rotate(90) scale(24.7344)">
<stop offset="0.34375" stop-color="#00C895"/>
<stop offset="1" stop-color="#00C895" stop-opacity="0.24"/>
</radialGradient>
</defs>
</svg>
