<svg width="389" height="219" viewBox="0 0 389 219" fill="none" xmlns="http://www.w3.org/2000/svg">
<path opacity="0.2" fill-rule="evenodd" clip-rule="evenodd" d="M275.404 197.964L291.731 171.168L289.875 163.525L292.79 162.817L293.938 167.545L308.283 144H311.796L296.5 169.105L301.227 167.957L301.934 170.873L294.293 172.728L277.966 199.525L275.404 197.964ZM318.498 133L331.62 111.463L329.058 109.902L314.985 133H318.498Z" fill="#E7E9EC"/>
<g opacity="0.2">
<path d="M66.5245 147.052L15.7265 75.8846" stroke="#E7E9EC" stroke-width="3"/>
<path d="M32.9197 110.3L34.3174 101.93L42.6868 103.328" stroke="#E7E9EC" stroke-width="3"/>
</g>
<g opacity="0.2">
<path d="M15.312 76.3363L111.701 35.4681" stroke="#E7E9EC" stroke-width="3"/>
<path d="M74.3734 44.7777L82.2395 47.9595L79.0576 55.8257" stroke="#E7E9EC" stroke-width="3"/>
</g>
<g opacity="0.2">
<path d="M134.312 29.0977L257.199 11.702" stroke="#E7E9EC" stroke-width="3"/>
<path d="M218.733 11.0874L225.515 16.1872L220.415 22.969" stroke="#E7E9EC" stroke-width="3"/>
</g>
<g opacity="0.2">
<path d="M259.947 13.6465L322.925 84.6047" stroke="#E7E9EC" stroke-width="3"/>
<path d="M302.188 52.2014L301.683 60.6716L293.213 60.167" stroke="#E7E9EC" stroke-width="3"/>
</g>
<g opacity="0.2">
<path d="M269 204.198L94.6926 171.849" stroke="#E7E9EC" stroke-width="3"/>
<path d="M130.96 184.682L126.155 177.688L133.149 172.884" stroke="#E7E9EC" stroke-width="3"/>
</g>
<path d="M77.9421 163.57L212.249 110.064" stroke="#6FCCBC" stroke-width="3"/>
<path d="M174.727 118.554L182.522 121.907L179.168 129.702" stroke="#6FCCBC" stroke-width="3"/>
<path d="M219.091 114.455L138.355 39.71" stroke="#6FCCBC" stroke-width="3"/>
<path d="M162.164 69.9283L161.837 61.4493L170.316 61.1226" stroke="#6FCCBC" stroke-width="3"/>
<path d="M213.981 109.11L311.176 97.3565" stroke="#6FCCBC" stroke-width="3"/>
<path d="M272.731 95.9619L279.408 101.198L274.171 107.875" stroke="#6FCCBC" stroke-width="3"/>
<circle cx="257.467" cy="14.416" r="14.416" fill="#165E64"/>
<circle cx="14.416" cy="76.5645" r="14.416" fill="#165E64"/>
<circle cx="272.467" cy="204.416" r="14.416" fill="#165E64"/>
<path d="M152.826 33.0999C152.826 47.5042 140.882 59.1812 126.147 59.1812C111.413 59.1812 99.4688 47.5042 99.4688 33.0999C99.4688 18.6956 111.413 7.01855 126.147 7.01855C140.882 7.01855 152.826 18.6956 152.826 33.0999Z" fill="white"/>
<path d="M126.147 60.6812C141.678 60.6812 154.326 48.3645 154.326 33.0999C154.326 17.8353 141.678 5.51855 126.147 5.51855C110.617 5.51855 97.9688 17.8353 97.9688 33.0999C97.9688 48.3645 110.617 60.6812 126.147 60.6812Z" stroke="white" stroke-opacity="0.35" stroke-width="3"/>
<path fill-rule="evenodd" clip-rule="evenodd" d="M126.147 54.7101C138.356 54.7101 148.253 45.0349 148.253 33.0999C148.253 21.1649 138.356 11.4896 126.147 11.4896C113.939 11.4896 104.042 21.1649 104.042 33.0999C104.042 45.0349 113.939 54.7101 126.147 54.7101ZM126.147 59.1812C140.882 59.1812 152.826 47.5042 152.826 33.0999C152.826 18.6956 140.882 7.01855 126.147 7.01855C111.413 7.01855 99.4688 18.6956 99.4688 33.0999C99.4688 47.5042 111.413 59.1812 126.147 59.1812Z" fill="#145B5B"/>
<path d="M141.39 33.1019C141.39 41.3329 134.565 48.0055 126.145 48.0055C117.726 48.0055 110.9 41.3329 110.9 33.1019C110.9 24.8708 117.726 18.1982 126.145 18.1982C134.565 18.1982 141.39 24.8708 141.39 33.1019Z" fill="#145B5B" fill-opacity="0.3"/>
<path d="M88.4091 82C88.3291 82 88.2611 81.972 88.2051 81.916C88.1491 81.86 88.1211 81.792 88.1211 81.712V73.9C88.1211 73.812 88.1491 73.74 88.2051 73.684C88.2611 73.628 88.3291 73.6 88.4091 73.6H93.6891C93.7771 73.6 93.8491 73.628 93.9051 73.684C93.9611 73.74 93.9891 73.812 93.9891 73.9V74.692C93.9891 74.772 93.9611 74.84 93.9051 74.896C93.8491 74.952 93.7771 74.98 93.6891 74.98H89.7411V77.104H93.4251C93.5131 77.104 93.5851 77.132 93.6411 77.188C93.6971 77.236 93.7251 77.304 93.7251 77.392V78.136C93.7251 78.224 93.6971 78.296 93.6411 78.352C93.5851 78.4 93.5131 78.424 93.4251 78.424H89.7411V80.62H93.7851C93.8731 80.62 93.9451 80.648 94.0011 80.704C94.0571 80.76 94.0851 80.832 94.0851 80.92V81.712C94.0851 81.792 94.0571 81.86 94.0011 81.916C93.9451 81.972 93.8731 82 93.7851 82H88.4091Z" fill="white"/>
<path d="M95.7299 82C95.6499 82 95.5819 81.972 95.5259 81.916C95.4699 81.86 95.4419 81.792 95.4419 81.712V76.048C95.4419 75.968 95.4699 75.9 95.5259 75.844C95.5819 75.788 95.6499 75.76 95.7299 75.76H96.6659C96.7459 75.76 96.8139 75.788 96.8699 75.844C96.9259 75.9 96.9539 75.968 96.9539 76.048V76.456C97.1219 76.232 97.3459 76.044 97.6259 75.892C97.9139 75.732 98.2539 75.648 98.6459 75.64C99.5579 75.624 100.194 75.98 100.554 76.708C100.738 76.388 101.002 76.132 101.346 75.94C101.698 75.74 102.086 75.64 102.51 75.64C102.926 75.64 103.302 75.736 103.638 75.928C103.982 76.12 104.25 76.412 104.442 76.804C104.642 77.188 104.742 77.676 104.742 78.268V81.712C104.742 81.792 104.714 81.86 104.658 81.916C104.602 81.972 104.534 82 104.454 82H103.47C103.39 82 103.322 81.972 103.266 81.916C103.21 81.86 103.182 81.792 103.182 81.712V78.364C103.182 78.004 103.13 77.72 103.026 77.512C102.922 77.296 102.782 77.144 102.606 77.056C102.43 76.968 102.234 76.924 102.018 76.924C101.842 76.924 101.666 76.968 101.49 77.056C101.314 77.144 101.17 77.296 101.058 77.512C100.946 77.72 100.89 78.004 100.89 78.364V81.712C100.89 81.792 100.862 81.86 100.806 81.916C100.75 81.972 100.682 82 100.602 82H99.6179C99.5299 82 99.4579 81.972 99.4019 81.916C99.3539 81.86 99.3299 81.792 99.3299 81.712V78.364C99.3299 78.004 99.2739 77.72 99.1619 77.512C99.0499 77.296 98.9059 77.144 98.7299 77.056C98.5539 76.968 98.3659 76.924 98.1659 76.924C97.9819 76.924 97.8019 76.972 97.6259 77.068C97.4499 77.156 97.3059 77.304 97.1939 77.512C97.0819 77.72 97.0259 78.004 97.0259 78.364V81.712C97.0259 81.792 96.9979 81.86 96.9419 81.916C96.8859 81.972 96.8179 82 96.7379 82H95.7299Z" fill="white"/>
<path d="M108.082 82.12C107.666 82.12 107.29 82.04 106.954 81.88C106.618 81.712 106.35 81.492 106.15 81.22C105.958 80.94 105.862 80.628 105.862 80.284C105.862 79.724 106.086 79.28 106.534 78.952C106.99 78.616 107.59 78.392 108.334 78.28L109.978 78.04V77.788C109.978 77.452 109.894 77.192 109.726 77.008C109.558 76.824 109.27 76.732 108.862 76.732C108.574 76.732 108.338 76.792 108.154 76.912C107.978 77.024 107.846 77.176 107.758 77.368C107.694 77.472 107.602 77.524 107.482 77.524H106.534C106.446 77.524 106.378 77.5 106.33 77.452C106.29 77.404 106.27 77.34 106.27 77.26C106.278 77.132 106.33 76.976 106.426 76.792C106.522 76.608 106.674 76.432 106.882 76.264C107.09 76.088 107.358 75.94 107.686 75.82C108.014 75.7 108.41 75.64 108.874 75.64C109.378 75.64 109.802 75.704 110.146 75.832C110.498 75.952 110.778 76.116 110.986 76.324C111.194 76.532 111.346 76.776 111.442 77.056C111.538 77.336 111.586 77.632 111.586 77.944V81.712C111.586 81.792 111.558 81.86 111.502 81.916C111.446 81.972 111.378 82 111.298 82H110.326C110.238 82 110.166 81.972 110.11 81.916C110.062 81.86 110.038 81.792 110.038 81.712V81.244C109.934 81.396 109.794 81.54 109.618 81.676C109.442 81.804 109.226 81.912 108.97 82C108.722 82.08 108.426 82.12 108.082 82.12ZM108.49 80.98C108.77 80.98 109.022 80.92 109.246 80.8C109.478 80.68 109.658 80.496 109.786 80.248C109.922 79.992 109.99 79.672 109.99 79.288V79.036L108.79 79.228C108.318 79.3 107.966 79.416 107.734 79.576C107.502 79.736 107.386 79.932 107.386 80.164C107.386 80.34 107.438 80.492 107.542 80.62C107.654 80.74 107.794 80.832 107.962 80.896C108.13 80.952 108.306 80.98 108.49 80.98Z" fill="white"/>
<path d="M113.414 82C113.334 82 113.266 81.972 113.21 81.916C113.154 81.86 113.126 81.792 113.126 81.712V76.048C113.126 75.968 113.154 75.9 113.21 75.844C113.266 75.788 113.334 75.76 113.414 75.76H114.41C114.498 75.76 114.566 75.788 114.614 75.844C114.67 75.9 114.698 75.968 114.698 76.048V81.712C114.698 81.792 114.67 81.86 114.614 81.916C114.566 81.972 114.498 82 114.41 82H113.414ZM113.366 74.728C113.278 74.728 113.206 74.704 113.15 74.656C113.102 74.6 113.078 74.528 113.078 74.44V73.576C113.078 73.496 113.102 73.428 113.15 73.372C113.206 73.316 113.278 73.288 113.366 73.288H114.458C114.546 73.288 114.618 73.316 114.674 73.372C114.73 73.428 114.758 73.496 114.758 73.576V74.44C114.758 74.528 114.73 74.6 114.674 74.656C114.618 74.704 114.546 74.728 114.458 74.728H113.366Z" fill="white"/>
<path d="M116.59 82C116.51 82 116.442 81.972 116.386 81.916C116.33 81.86 116.302 81.792 116.302 81.712V73.768C116.302 73.688 116.33 73.62 116.386 73.564C116.442 73.508 116.51 73.48 116.59 73.48H117.586C117.666 73.48 117.734 73.508 117.79 73.564C117.846 73.62 117.874 73.688 117.874 73.768V81.712C117.874 81.792 117.846 81.86 117.79 81.916C117.734 81.972 117.666 82 117.586 82H116.59Z" fill="white"/>
<path d="M125.268 82.12C124.524 82.12 123.9 82.012 123.396 81.796C122.9 81.572 122.52 81.284 122.256 80.932C122 80.572 121.864 80.196 121.848 79.804C121.848 79.732 121.872 79.672 121.92 79.624C121.968 79.576 122.028 79.552 122.1 79.552H123.168C123.272 79.552 123.348 79.576 123.396 79.624C123.452 79.664 123.5 79.716 123.54 79.78C123.588 79.932 123.68 80.084 123.816 80.236C123.952 80.38 124.136 80.5 124.368 80.596C124.608 80.692 124.908 80.74 125.268 80.74C125.844 80.74 126.272 80.644 126.552 80.452C126.84 80.26 126.984 80 126.984 79.672C126.984 79.44 126.908 79.256 126.756 79.12C126.604 78.976 126.368 78.848 126.048 78.736C125.736 78.616 125.32 78.492 124.8 78.364C124.2 78.22 123.696 78.048 123.288 77.848C122.888 77.64 122.584 77.38 122.376 77.068C122.176 76.756 122.076 76.36 122.076 75.88C122.076 75.416 122.2 75.004 122.448 74.644C122.704 74.284 123.064 74 123.528 73.792C124 73.584 124.56 73.48 125.208 73.48C125.728 73.48 126.188 73.552 126.588 73.696C126.988 73.832 127.32 74.016 127.584 74.248C127.848 74.472 128.048 74.716 128.184 74.98C128.328 75.236 128.404 75.488 128.412 75.736C128.412 75.8 128.388 75.86 128.34 75.916C128.3 75.964 128.24 75.988 128.16 75.988H127.044C126.98 75.988 126.916 75.972 126.852 75.94C126.788 75.908 126.736 75.848 126.696 75.76C126.648 75.512 126.492 75.3 126.228 75.124C125.964 74.948 125.624 74.86 125.208 74.86C124.776 74.86 124.428 74.94 124.164 75.1C123.9 75.26 123.768 75.508 123.768 75.844C123.768 76.068 123.832 76.256 123.96 76.408C124.096 76.552 124.308 76.68 124.596 76.792C124.892 76.904 125.28 77.024 125.76 77.152C126.44 77.304 126.996 77.48 127.428 77.68C127.86 77.88 128.176 78.136 128.376 78.448C128.576 78.752 128.676 79.14 128.676 79.612C128.676 80.14 128.532 80.592 128.244 80.968C127.964 81.336 127.568 81.62 127.056 81.82C126.544 82.02 125.948 82.12 125.268 82.12Z" fill="white"/>
<path d="M132.595 82.12C131.707 82.12 131.003 81.864 130.483 81.352C129.963 80.84 129.683 80.112 129.643 79.168C129.635 79.088 129.631 78.988 129.631 78.868C129.631 78.74 129.635 78.64 129.643 78.568C129.675 77.968 129.811 77.448 130.051 77.008C130.299 76.568 130.639 76.232 131.071 76C131.503 75.76 132.011 75.64 132.595 75.64C133.243 75.64 133.787 75.776 134.227 76.048C134.667 76.312 134.999 76.684 135.223 77.164C135.447 77.636 135.559 78.184 135.559 78.808V79.06C135.559 79.14 135.531 79.208 135.475 79.264C135.419 79.32 135.347 79.348 135.259 79.348H131.275C131.275 79.348 131.275 79.36 131.275 79.384C131.275 79.408 131.275 79.428 131.275 79.444C131.283 79.724 131.335 79.984 131.431 80.224C131.535 80.456 131.683 80.644 131.875 80.788C132.075 80.932 132.311 81.004 132.583 81.004C132.807 81.004 132.995 80.972 133.147 80.908C133.299 80.836 133.423 80.756 133.519 80.668C133.615 80.58 133.683 80.508 133.723 80.452C133.795 80.356 133.851 80.3 133.891 80.284C133.939 80.26 134.007 80.248 134.095 80.248H135.127C135.207 80.248 135.271 80.272 135.319 80.32C135.375 80.368 135.399 80.428 135.391 80.5C135.383 80.628 135.315 80.784 135.187 80.968C135.067 81.152 134.891 81.332 134.659 81.508C134.427 81.684 134.135 81.832 133.783 81.952C133.439 82.064 133.043 82.12 132.595 82.12ZM131.275 78.34H133.927V78.304C133.927 77.992 133.875 77.72 133.771 77.488C133.667 77.256 133.515 77.072 133.315 76.936C133.115 76.8 132.875 76.732 132.595 76.732C132.315 76.732 132.075 76.8 131.875 76.936C131.675 77.072 131.523 77.256 131.419 77.488C131.323 77.72 131.275 77.992 131.275 78.304V78.34Z" fill="white"/>
<path d="M137.121 82C137.041 82 136.973 81.972 136.917 81.916C136.861 81.86 136.833 81.792 136.833 81.712V76.06C136.833 75.972 136.861 75.9 136.917 75.844C136.973 75.788 137.041 75.76 137.121 75.76H138.093C138.173 75.76 138.241 75.788 138.297 75.844C138.361 75.9 138.393 75.972 138.393 76.06V76.552C138.577 76.296 138.813 76.1 139.101 75.964C139.397 75.828 139.737 75.76 140.121 75.76H140.613C140.701 75.76 140.769 75.788 140.817 75.844C140.873 75.9 140.901 75.968 140.901 76.048V76.912C140.901 76.992 140.873 77.06 140.817 77.116C140.769 77.172 140.701 77.2 140.613 77.2H139.677C139.293 77.2 138.993 77.308 138.777 77.524C138.569 77.74 138.465 78.036 138.465 78.412V81.712C138.465 81.792 138.437 81.86 138.381 81.916C138.325 81.972 138.253 82 138.165 82H137.121Z" fill="white"/>
<path d="M144.044 82C143.916 82 143.82 81.972 143.756 81.916C143.7 81.852 143.652 81.78 143.612 81.7L141.368 76.132C141.352 76.092 141.344 76.056 141.344 76.024C141.344 75.952 141.368 75.892 141.416 75.844C141.472 75.788 141.536 75.76 141.608 75.76H142.58C142.676 75.76 142.748 75.788 142.796 75.844C142.844 75.892 142.876 75.94 142.892 75.988L144.488 80.2L146.084 75.988C146.1 75.94 146.132 75.892 146.18 75.844C146.228 75.788 146.3 75.76 146.396 75.76H147.38C147.444 75.76 147.5 75.788 147.548 75.844C147.604 75.892 147.632 75.952 147.632 76.024C147.632 76.056 147.628 76.092 147.62 76.132L145.364 81.7C145.332 81.78 145.284 81.852 145.22 81.916C145.156 81.972 145.06 82 144.932 82H144.044Z" fill="white"/>
<path d="M149.015 82C148.935 82 148.867 81.972 148.811 81.916C148.755 81.86 148.727 81.792 148.727 81.712V76.048C148.727 75.968 148.755 75.9 148.811 75.844C148.867 75.788 148.935 75.76 149.015 75.76H150.011C150.099 75.76 150.167 75.788 150.215 75.844C150.271 75.9 150.299 75.968 150.299 76.048V81.712C150.299 81.792 150.271 81.86 150.215 81.916C150.167 81.972 150.099 82 150.011 82H149.015ZM148.967 74.728C148.879 74.728 148.807 74.704 148.751 74.656C148.703 74.6 148.679 74.528 148.679 74.44V73.576C148.679 73.496 148.703 73.428 148.751 73.372C148.807 73.316 148.879 73.288 148.967 73.288H150.059C150.147 73.288 150.219 73.316 150.275 73.372C150.331 73.428 150.359 73.496 150.359 73.576V74.44C150.359 74.528 150.331 74.6 150.275 74.656C150.219 74.704 150.147 74.728 150.059 74.728H148.967Z" fill="white"/>
<path d="M154.626 82.12C154.05 82.12 153.542 82.012 153.102 81.796C152.67 81.58 152.33 81.268 152.082 80.86C151.842 80.444 151.71 79.944 151.686 79.36C151.678 79.24 151.674 79.084 151.674 78.892C151.674 78.692 151.678 78.528 151.686 78.4C151.71 77.816 151.842 77.32 152.082 76.912C152.33 76.496 152.67 76.18 153.102 75.964C153.542 75.748 154.05 75.64 154.626 75.64C155.138 75.64 155.574 75.712 155.934 75.856C156.294 76 156.59 76.18 156.822 76.396C157.054 76.612 157.226 76.84 157.338 77.08C157.458 77.312 157.522 77.524 157.53 77.716C157.538 77.804 157.51 77.876 157.446 77.932C157.39 77.98 157.322 78.004 157.242 78.004H156.186C156.106 78.004 156.042 77.984 155.994 77.944C155.954 77.904 155.914 77.844 155.874 77.764C155.754 77.444 155.594 77.22 155.394 77.092C155.202 76.956 154.954 76.888 154.65 76.888C154.25 76.888 153.93 77.016 153.69 77.272C153.458 77.52 153.334 77.916 153.318 78.46C153.302 78.764 153.302 79.044 153.318 79.3C153.334 79.852 153.458 80.252 153.69 80.5C153.93 80.748 154.25 80.872 154.65 80.872C154.962 80.872 155.214 80.808 155.406 80.68C155.598 80.544 155.754 80.316 155.874 79.996C155.914 79.916 155.954 79.856 155.994 79.816C156.042 79.776 156.106 79.756 156.186 79.756H157.242C157.322 79.756 157.39 79.784 157.446 79.84C157.51 79.888 157.538 79.956 157.53 80.044C157.522 80.188 157.482 80.352 157.41 80.536C157.346 80.712 157.238 80.896 157.086 81.088C156.942 81.272 156.758 81.444 156.534 81.604C156.31 81.756 156.038 81.88 155.718 81.976C155.406 82.072 155.042 82.12 154.626 82.12Z" fill="white"/>
<path d="M161.47 82.12C160.582 82.12 159.878 81.864 159.358 81.352C158.838 80.84 158.558 80.112 158.518 79.168C158.51 79.088 158.506 78.988 158.506 78.868C158.506 78.74 158.51 78.64 158.518 78.568C158.55 77.968 158.686 77.448 158.926 77.008C159.174 76.568 159.514 76.232 159.946 76C160.378 75.76 160.886 75.64 161.47 75.64C162.118 75.64 162.662 75.776 163.102 76.048C163.542 76.312 163.874 76.684 164.098 77.164C164.322 77.636 164.434 78.184 164.434 78.808V79.06C164.434 79.14 164.406 79.208 164.35 79.264C164.294 79.32 164.222 79.348 164.134 79.348H160.15C160.15 79.348 160.15 79.36 160.15 79.384C160.15 79.408 160.15 79.428 160.15 79.444C160.158 79.724 160.21 79.984 160.306 80.224C160.41 80.456 160.558 80.644 160.75 80.788C160.95 80.932 161.186 81.004 161.458 81.004C161.682 81.004 161.87 80.972 162.022 80.908C162.174 80.836 162.298 80.756 162.394 80.668C162.49 80.58 162.558 80.508 162.598 80.452C162.67 80.356 162.726 80.3 162.766 80.284C162.814 80.26 162.882 80.248 162.97 80.248H164.002C164.082 80.248 164.146 80.272 164.194 80.32C164.25 80.368 164.274 80.428 164.266 80.5C164.258 80.628 164.19 80.784 164.062 80.968C163.942 81.152 163.766 81.332 163.534 81.508C163.302 81.684 163.01 81.832 162.658 81.952C162.314 82.064 161.918 82.12 161.47 82.12ZM160.15 78.34H162.802V78.304C162.802 77.992 162.75 77.72 162.646 77.488C162.542 77.256 162.39 77.072 162.19 76.936C161.99 76.8 161.75 76.732 161.47 76.732C161.19 76.732 160.95 76.8 160.75 76.936C160.55 77.072 160.398 77.256 160.294 77.488C160.198 77.72 160.15 77.992 160.15 78.304V78.34Z" fill="white"/>
<path d="M100.744 162.159C100.744 176.564 88.7997 188.241 74.0654 188.241C59.3312 188.241 47.3867 176.564 47.3867 162.159C47.3867 147.755 59.3312 136.078 74.0654 136.078C88.7997 136.078 100.744 147.755 100.744 162.159Z" fill="white"/>
<path d="M74.0654 189.741C89.5959 189.741 102.244 177.424 102.244 162.159C102.244 146.895 89.5959 134.578 74.0654 134.578C58.535 134.578 45.8867 146.895 45.8867 162.159C45.8867 177.424 58.535 189.741 74.0654 189.741Z" stroke="white" stroke-opacity="0.35" stroke-width="3"/>
<path fill-rule="evenodd" clip-rule="evenodd" d="M74.0654 183.77C86.2738 183.77 96.1706 174.094 96.1706 162.159C96.1706 150.224 86.2738 140.549 74.0654 140.549C61.8571 140.549 51.9602 150.224 51.9602 162.159C51.9602 174.094 61.8571 183.77 74.0654 183.77ZM74.0654 188.241C88.7997 188.241 100.744 176.564 100.744 162.159C100.744 147.755 88.7997 136.078 74.0654 136.078C59.3312 136.078 47.3867 147.755 47.3867 162.159C47.3867 176.564 59.3312 188.241 74.0654 188.241Z" fill="#145B5B"/>
<path d="M89.3083 162.161C89.3083 170.392 82.4829 177.065 74.0633 177.065C65.6438 177.065 58.8184 170.392 58.8184 162.161C58.8184 153.93 65.6438 147.258 74.0633 147.258C82.4829 147.258 89.3083 153.93 89.3083 162.161Z" fill="#145B5B" fill-opacity="0.3"/>
<path d="M35.6293 208.832C34.9173 208.832 34.3053 208.716 33.7933 208.484C33.2813 208.244 32.8813 207.88 32.5933 207.392C32.3053 206.896 32.1493 206.28 32.1253 205.544C32.1173 205.2 32.1133 204.86 32.1133 204.524C32.1133 204.188 32.1173 203.844 32.1253 203.492C32.1493 202.764 32.3093 202.156 32.6053 201.668C32.9013 201.18 33.3053 200.812 33.8173 200.564C34.3373 200.316 34.9413 200.192 35.6293 200.192C36.3173 200.192 36.9213 200.316 37.4413 200.564C37.9613 200.812 38.3693 201.18 38.6653 201.668C38.9613 202.156 39.1213 202.764 39.1453 203.492C39.1613 203.844 39.1693 204.188 39.1693 204.524C39.1693 204.86 39.1613 205.2 39.1453 205.544C39.1213 206.28 38.9653 206.896 38.6773 207.392C38.3893 207.88 37.9853 208.244 37.4653 208.484C36.9533 208.716 36.3413 208.832 35.6293 208.832ZM35.6293 207.452C36.1493 207.452 36.5733 207.3 36.9013 206.996C37.2293 206.684 37.4053 206.18 37.4293 205.484C37.4453 205.132 37.4533 204.808 37.4533 204.512C37.4533 204.208 37.4453 203.884 37.4293 203.54C37.4133 203.076 37.3253 202.7 37.1653 202.412C37.0133 202.116 36.8053 201.904 36.5413 201.776C36.2773 201.64 35.9733 201.572 35.6293 201.572C35.2933 201.572 34.9933 201.64 34.7293 201.776C34.4653 201.904 34.2533 202.116 34.0933 202.412C33.9413 202.7 33.8573 203.076 33.8413 203.54C33.8333 203.884 33.8293 204.208 33.8293 204.512C33.8293 204.808 33.8333 205.132 33.8413 205.484C33.8653 206.18 34.0413 206.684 34.3693 206.996C34.6973 207.3 35.1173 207.452 35.6293 207.452Z" fill="white"/>
<path d="M40.889 208.712C40.809 208.712 40.741 208.684 40.685 208.628C40.629 208.572 40.601 208.504 40.601 208.424V202.772C40.601 202.684 40.629 202.612 40.685 202.556C40.741 202.5 40.809 202.472 40.889 202.472H41.861C41.941 202.472 42.009 202.5 42.065 202.556C42.129 202.612 42.161 202.684 42.161 202.772V203.264C42.345 203.008 42.581 202.812 42.869 202.676C43.165 202.54 43.505 202.472 43.889 202.472H44.381C44.469 202.472 44.537 202.5 44.585 202.556C44.641 202.612 44.669 202.68 44.669 202.76V203.624C44.669 203.704 44.641 203.772 44.585 203.828C44.537 203.884 44.469 203.912 44.381 203.912H43.445C43.061 203.912 42.761 204.02 42.545 204.236C42.337 204.452 42.233 204.748 42.233 205.124V208.424C42.233 208.504 42.205 208.572 42.149 208.628C42.093 208.684 42.021 208.712 41.933 208.712H40.889Z" fill="white"/>
<path d="M47.8272 208.832C47.4112 208.832 47.0432 208.764 46.7232 208.628C46.4112 208.484 46.1512 208.284 45.9432 208.028C45.7352 207.772 45.5752 207.472 45.4632 207.128C45.3512 206.776 45.2872 206.392 45.2712 205.976C45.2632 205.832 45.2592 205.704 45.2592 205.592C45.2592 205.472 45.2632 205.34 45.2712 205.196C45.2872 204.796 45.3472 204.424 45.4512 204.08C45.5632 203.736 45.7232 203.436 45.9312 203.18C46.1472 202.916 46.4112 202.712 46.7232 202.568C47.0432 202.424 47.4112 202.352 47.8272 202.352C48.2592 202.352 48.6232 202.428 48.9192 202.58C49.2232 202.724 49.4752 202.912 49.6752 203.144V200.48C49.6752 200.4 49.6992 200.332 49.7472 200.276C49.8032 200.22 49.8752 200.192 49.9632 200.192H50.9832C51.0632 200.192 51.1312 200.22 51.1872 200.276C51.2432 200.332 51.2712 200.4 51.2712 200.48V208.424C51.2712 208.504 51.2432 208.572 51.1872 208.628C51.1312 208.684 51.0632 208.712 50.9832 208.712H50.0352C49.9472 208.712 49.8752 208.684 49.8192 208.628C49.7712 208.572 49.7472 208.504 49.7472 208.424V207.98C49.5472 208.228 49.2912 208.432 48.9792 208.592C48.6752 208.752 48.2912 208.832 47.8272 208.832ZM48.2712 207.548C48.6072 207.548 48.8752 207.472 49.0752 207.32C49.2752 207.168 49.4232 206.976 49.5192 206.744C49.6152 206.504 49.6672 206.26 49.6752 206.012C49.6832 205.868 49.6872 205.716 49.6872 205.556C49.6872 205.388 49.6832 205.232 49.6752 205.088C49.6672 204.848 49.6112 204.62 49.5072 204.404C49.4032 204.18 49.2512 203.996 49.0512 203.852C48.8512 203.708 48.5912 203.636 48.2712 203.636C47.9352 203.636 47.6672 203.712 47.4672 203.864C47.2752 204.008 47.1352 204.2 47.0472 204.44C46.9592 204.68 46.9072 204.944 46.8912 205.232C46.8832 205.472 46.8832 205.712 46.8912 205.952C46.9072 206.24 46.9592 206.504 47.0472 206.744C47.1352 206.984 47.2752 207.18 47.4672 207.332C47.6672 207.476 47.9352 207.548 48.2712 207.548Z" fill="white"/>
<path d="M55.5586 208.832C54.6706 208.832 53.9666 208.576 53.4466 208.064C52.9266 207.552 52.6466 206.824 52.6066 205.88C52.5986 205.8 52.5946 205.7 52.5946 205.58C52.5946 205.452 52.5986 205.352 52.6066 205.28C52.6386 204.68 52.7746 204.16 53.0146 203.72C53.2626 203.28 53.6026 202.944 54.0346 202.712C54.4666 202.472 54.9746 202.352 55.5586 202.352C56.2066 202.352 56.7506 202.488 57.1906 202.76C57.6306 203.024 57.9626 203.396 58.1866 203.876C58.4106 204.348 58.5226 204.896 58.5226 205.52V205.772C58.5226 205.852 58.4946 205.92 58.4386 205.976C58.3826 206.032 58.3106 206.06 58.2226 206.06H54.2386C54.2386 206.06 54.2386 206.072 54.2386 206.096C54.2386 206.12 54.2386 206.14 54.2386 206.156C54.2466 206.436 54.2986 206.696 54.3946 206.936C54.4986 207.168 54.6466 207.356 54.8386 207.5C55.0386 207.644 55.2746 207.716 55.5466 207.716C55.7706 207.716 55.9586 207.684 56.1106 207.62C56.2626 207.548 56.3866 207.468 56.4826 207.38C56.5786 207.292 56.6466 207.22 56.6866 207.164C56.7586 207.068 56.8146 207.012 56.8546 206.996C56.9026 206.972 56.9706 206.96 57.0586 206.96H58.0906C58.1706 206.96 58.2346 206.984 58.2826 207.032C58.3386 207.08 58.3626 207.14 58.3546 207.212C58.3466 207.34 58.2786 207.496 58.1506 207.68C58.0306 207.864 57.8546 208.044 57.6226 208.22C57.3906 208.396 57.0986 208.544 56.7466 208.664C56.4026 208.776 56.0066 208.832 55.5586 208.832ZM54.2386 205.052H56.8906V205.016C56.8906 204.704 56.8386 204.432 56.7346 204.2C56.6306 203.968 56.4786 203.784 56.2786 203.648C56.0786 203.512 55.8386 203.444 55.5586 203.444C55.2786 203.444 55.0386 203.512 54.8386 203.648C54.6386 203.784 54.4866 203.968 54.3826 204.2C54.2866 204.432 54.2386 204.704 54.2386 205.016V205.052Z" fill="white"/>
<path d="M60.0843 208.712C60.0043 208.712 59.9363 208.684 59.8803 208.628C59.8243 208.572 59.7963 208.504 59.7963 208.424V202.772C59.7963 202.684 59.8243 202.612 59.8803 202.556C59.9363 202.5 60.0043 202.472 60.0843 202.472H61.0563C61.1363 202.472 61.2043 202.5 61.2603 202.556C61.3243 202.612 61.3563 202.684 61.3563 202.772V203.264C61.5403 203.008 61.7763 202.812 62.0643 202.676C62.3603 202.54 62.7003 202.472 63.0843 202.472H63.5763C63.6643 202.472 63.7323 202.5 63.7803 202.556C63.8363 202.612 63.8643 202.68 63.8643 202.76V203.624C63.8643 203.704 63.8363 203.772 63.7803 203.828C63.7323 203.884 63.6643 203.912 63.5763 203.912H62.6403C62.2563 203.912 61.9563 204.02 61.7403 204.236C61.5323 204.452 61.4283 204.748 61.4283 205.124V208.424C61.4283 208.504 61.4003 208.572 61.3443 208.628C61.2883 208.684 61.2163 208.712 61.1283 208.712H60.0843Z" fill="white"/>
<path d="M67.1642 208.832C66.6842 208.832 66.2723 208.776 65.9283 208.664C65.5923 208.552 65.3163 208.412 65.1003 208.244C64.8843 208.076 64.7243 207.908 64.6203 207.74C64.5163 207.572 64.4603 207.432 64.4523 207.32C64.4443 207.232 64.4683 207.164 64.5243 207.116C64.5883 207.06 64.6563 207.032 64.7283 207.032H65.6763C65.7083 207.032 65.7363 207.036 65.7603 207.044C65.7843 207.052 65.8163 207.076 65.8563 207.116C65.9603 207.204 66.0683 207.296 66.1803 207.392C66.3003 207.488 66.4403 207.572 66.6003 207.644C66.7603 207.708 66.9603 207.74 67.2003 207.74C67.5123 207.74 67.7723 207.68 67.9803 207.56C68.1963 207.432 68.3043 207.252 68.3043 207.02C68.3043 206.852 68.2563 206.716 68.1603 206.612C68.0723 206.508 67.9042 206.416 67.6562 206.336C67.4082 206.248 67.0563 206.156 66.6003 206.06C66.1523 205.956 65.7803 205.824 65.4843 205.664C65.1883 205.504 64.9683 205.304 64.8243 205.064C64.6803 204.824 64.6082 204.544 64.6082 204.224C64.6082 203.912 64.7003 203.616 64.8843 203.336C65.0763 203.048 65.3563 202.812 65.7243 202.628C66.1003 202.444 66.5643 202.352 67.1163 202.352C67.5483 202.352 67.9243 202.408 68.2443 202.52C68.5643 202.624 68.8283 202.756 69.0363 202.916C69.2523 203.076 69.4163 203.24 69.5283 203.408C69.6403 203.568 69.7003 203.708 69.7083 203.828C69.7163 203.916 69.6922 203.988 69.6362 204.044C69.5802 204.092 69.5163 204.116 69.4443 204.116H68.5563C68.5163 204.116 68.4802 204.108 68.4482 204.092C68.4162 204.076 68.3843 204.056 68.3523 204.032C68.2643 203.952 68.1683 203.868 68.0643 203.78C67.9603 203.692 67.8323 203.616 67.6803 203.552C67.5363 203.48 67.3443 203.444 67.1043 203.444C66.8003 203.444 66.5683 203.512 66.4083 203.648C66.2483 203.776 66.1683 203.94 66.1683 204.14C66.1683 204.276 66.2043 204.396 66.2763 204.5C66.3563 204.596 66.5123 204.688 66.7443 204.776C66.9763 204.864 67.3283 204.956 67.8003 205.052C68.3363 205.148 68.7603 205.292 69.0723 205.484C69.3923 205.668 69.6163 205.884 69.7443 206.132C69.8803 206.372 69.9482 206.64 69.9482 206.936C69.9482 207.296 69.8403 207.62 69.6243 207.908C69.4163 208.196 69.1043 208.424 68.6883 208.592C68.2803 208.752 67.7722 208.832 67.1642 208.832Z" fill="white"/>
<path d="M76.9892 208.832C76.2452 208.832 75.6212 208.724 75.1172 208.508C74.6212 208.284 74.2412 207.996 73.9772 207.644C73.7212 207.284 73.5852 206.908 73.5692 206.516C73.5692 206.444 73.5932 206.384 73.6412 206.336C73.6892 206.288 73.7492 206.264 73.8212 206.264H74.8892C74.9932 206.264 75.0692 206.288 75.1172 206.336C75.1732 206.376 75.2212 206.428 75.2612 206.492C75.3092 206.644 75.4012 206.796 75.5372 206.948C75.6732 207.092 75.8572 207.212 76.0892 207.308C76.3292 207.404 76.6292 207.452 76.9892 207.452C77.5652 207.452 77.9932 207.356 78.2732 207.164C78.5612 206.972 78.7052 206.712 78.7052 206.384C78.7052 206.152 78.6292 205.968 78.4772 205.832C78.3252 205.688 78.0892 205.56 77.7692 205.448C77.4572 205.328 77.0412 205.204 76.5212 205.076C75.9212 204.932 75.4172 204.76 75.0092 204.56C74.6092 204.352 74.3052 204.092 74.0972 203.78C73.8972 203.468 73.7972 203.072 73.7972 202.592C73.7972 202.128 73.9212 201.716 74.1692 201.356C74.4252 200.996 74.7852 200.712 75.2492 200.504C75.7212 200.296 76.2812 200.192 76.9292 200.192C77.4492 200.192 77.9092 200.264 78.3092 200.408C78.7092 200.544 79.0412 200.728 79.3052 200.96C79.5692 201.184 79.7692 201.428 79.9052 201.692C80.0492 201.948 80.1252 202.2 80.1332 202.448C80.1332 202.512 80.1092 202.572 80.0612 202.628C80.0212 202.676 79.9612 202.7 79.8812 202.7H78.7652C78.7012 202.7 78.6372 202.684 78.5732 202.652C78.5092 202.62 78.4572 202.56 78.4172 202.472C78.3692 202.224 78.2132 202.012 77.9492 201.836C77.6852 201.66 77.3452 201.572 76.9292 201.572C76.4972 201.572 76.1492 201.652 75.8852 201.812C75.6212 201.972 75.4892 202.22 75.4892 202.556C75.4892 202.78 75.5532 202.968 75.6812 203.12C75.8172 203.264 76.0292 203.392 76.3172 203.504C76.6132 203.616 77.0012 203.736 77.4812 203.864C78.1612 204.016 78.7172 204.192 79.1492 204.392C79.5812 204.592 79.8972 204.848 80.0972 205.16C80.2972 205.464 80.3972 205.852 80.3972 206.324C80.3972 206.852 80.2532 207.304 79.9652 207.68C79.6852 208.048 79.2892 208.332 78.7772 208.532C78.2652 208.732 77.6692 208.832 76.9892 208.832Z" fill="white"/>
<path d="M84.3164 208.832C83.4284 208.832 82.7244 208.576 82.2044 208.064C81.6844 207.552 81.4044 206.824 81.3644 205.88C81.3564 205.8 81.3524 205.7 81.3524 205.58C81.3524 205.452 81.3564 205.352 81.3644 205.28C81.3964 204.68 81.5324 204.16 81.7724 203.72C82.0204 203.28 82.3604 202.944 82.7924 202.712C83.2244 202.472 83.7324 202.352 84.3164 202.352C84.9644 202.352 85.5084 202.488 85.9484 202.76C86.3884 203.024 86.7204 203.396 86.9444 203.876C87.1684 204.348 87.2804 204.896 87.2804 205.52V205.772C87.2804 205.852 87.2524 205.92 87.1964 205.976C87.1404 206.032 87.0684 206.06 86.9804 206.06H82.9964C82.9964 206.06 82.9964 206.072 82.9964 206.096C82.9964 206.12 82.9964 206.14 82.9964 206.156C83.0044 206.436 83.0564 206.696 83.1524 206.936C83.2564 207.168 83.4044 207.356 83.5964 207.5C83.7964 207.644 84.0324 207.716 84.3044 207.716C84.5284 207.716 84.7164 207.684 84.8684 207.62C85.0204 207.548 85.1444 207.468 85.2404 207.38C85.3364 207.292 85.4044 207.22 85.4444 207.164C85.5164 207.068 85.5724 207.012 85.6124 206.996C85.6604 206.972 85.7284 206.96 85.8164 206.96H86.8484C86.9284 206.96 86.9924 206.984 87.0404 207.032C87.0964 207.08 87.1204 207.14 87.1124 207.212C87.1044 207.34 87.0364 207.496 86.9084 207.68C86.7884 207.864 86.6124 208.044 86.3804 208.22C86.1484 208.396 85.8564 208.544 85.5044 208.664C85.1604 208.776 84.7644 208.832 84.3164 208.832ZM82.9964 205.052H85.6484V205.016C85.6484 204.704 85.5964 204.432 85.4924 204.2C85.3884 203.968 85.2364 203.784 85.0364 203.648C84.8364 203.512 84.5964 203.444 84.3164 203.444C84.0364 203.444 83.7964 203.512 83.5964 203.648C83.3964 203.784 83.2444 203.968 83.1404 204.2C83.0444 204.432 82.9964 204.704 82.9964 205.016V205.052Z" fill="white"/>
<path d="M88.8422 208.712C88.7622 208.712 88.6942 208.684 88.6382 208.628C88.5822 208.572 88.5542 208.504 88.5542 208.424V202.772C88.5542 202.684 88.5822 202.612 88.6382 202.556C88.6942 202.5 88.7622 202.472 88.8422 202.472H89.8142C89.8942 202.472 89.9622 202.5 90.0182 202.556C90.0822 202.612 90.1142 202.684 90.1142 202.772V203.264C90.2982 203.008 90.5342 202.812 90.8222 202.676C91.1182 202.54 91.4582 202.472 91.8422 202.472H92.3342C92.4222 202.472 92.4902 202.5 92.5382 202.556C92.5942 202.612 92.6222 202.68 92.6222 202.76V203.624C92.6222 203.704 92.5942 203.772 92.5382 203.828C92.4902 203.884 92.4222 203.912 92.3342 203.912H91.3982C91.0142 203.912 90.7142 204.02 90.4982 204.236C90.2902 204.452 90.1862 204.748 90.1862 205.124V208.424C90.1862 208.504 90.1582 208.572 90.1022 208.628C90.0462 208.684 89.9742 208.712 89.8862 208.712H88.8422Z" fill="white"/>
<path d="M95.7661 208.712C95.6381 208.712 95.5421 208.684 95.4781 208.628C95.4221 208.564 95.3741 208.492 95.3341 208.412L93.0901 202.844C93.0741 202.804 93.0661 202.768 93.0661 202.736C93.0661 202.664 93.0901 202.604 93.1381 202.556C93.1941 202.5 93.2581 202.472 93.3301 202.472H94.3021C94.3981 202.472 94.4701 202.5 94.5181 202.556C94.5661 202.604 94.5981 202.652 94.6141 202.7L96.2101 206.912L97.8061 202.7C97.8221 202.652 97.8541 202.604 97.9021 202.556C97.9501 202.5 98.0221 202.472 98.1181 202.472H99.1021C99.1661 202.472 99.2221 202.5 99.2701 202.556C99.3261 202.604 99.3541 202.664 99.3541 202.736C99.3541 202.768 99.3501 202.804 99.3421 202.844L97.0861 208.412C97.0541 208.492 97.0061 208.564 96.9421 208.628C96.8781 208.684 96.7821 208.712 96.6541 208.712H95.7661Z" fill="white"/>
<path d="M100.737 208.712C100.657 208.712 100.589 208.684 100.533 208.628C100.477 208.572 100.449 208.504 100.449 208.424V202.76C100.449 202.68 100.477 202.612 100.533 202.556C100.589 202.5 100.657 202.472 100.737 202.472H101.733C101.821 202.472 101.889 202.5 101.937 202.556C101.993 202.612 102.021 202.68 102.021 202.76V208.424C102.021 208.504 101.993 208.572 101.937 208.628C101.889 208.684 101.821 208.712 101.733 208.712H100.737ZM100.689 201.44C100.601 201.44 100.529 201.416 100.473 201.368C100.425 201.312 100.401 201.24 100.401 201.152V200.288C100.401 200.208 100.425 200.14 100.473 200.084C100.529 200.028 100.601 200 100.689 200H101.781C101.869 200 101.941 200.028 101.997 200.084C102.053 200.14 102.081 200.208 102.081 200.288V201.152C102.081 201.24 102.053 201.312 101.997 201.368C101.941 201.416 101.869 201.44 101.781 201.44H100.689Z" fill="white"/>
<path d="M106.348 208.832C105.772 208.832 105.264 208.724 104.824 208.508C104.392 208.292 104.052 207.98 103.804 207.572C103.564 207.156 103.432 206.656 103.408 206.072C103.4 205.952 103.396 205.796 103.396 205.604C103.396 205.404 103.4 205.24 103.408 205.112C103.432 204.528 103.564 204.032 103.804 203.624C104.052 203.208 104.392 202.892 104.824 202.676C105.264 202.46 105.772 202.352 106.348 202.352C106.86 202.352 107.296 202.424 107.656 202.568C108.016 202.712 108.312 202.892 108.544 203.108C108.776 203.324 108.948 203.552 109.06 203.792C109.18 204.024 109.244 204.236 109.252 204.428C109.26 204.516 109.232 204.588 109.168 204.644C109.112 204.692 109.044 204.716 108.964 204.716H107.908C107.828 204.716 107.764 204.696 107.716 204.656C107.676 204.616 107.636 204.556 107.596 204.476C107.476 204.156 107.316 203.932 107.116 203.804C106.924 203.668 106.676 203.6 106.372 203.6C105.972 203.6 105.652 203.728 105.412 203.984C105.18 204.232 105.056 204.628 105.04 205.172C105.024 205.476 105.024 205.756 105.04 206.012C105.056 206.564 105.18 206.964 105.412 207.212C105.652 207.46 105.972 207.584 106.372 207.584C106.684 207.584 106.936 207.52 107.128 207.392C107.32 207.256 107.476 207.028 107.596 206.708C107.636 206.628 107.676 206.568 107.716 206.528C107.764 206.488 107.828 206.468 107.908 206.468H108.964C109.044 206.468 109.112 206.496 109.168 206.552C109.232 206.6 109.26 206.668 109.252 206.756C109.244 206.9 109.204 207.064 109.132 207.248C109.068 207.424 108.96 207.608 108.808 207.8C108.664 207.984 108.48 208.156 108.256 208.316C108.032 208.468 107.76 208.592 107.44 208.688C107.128 208.784 106.764 208.832 106.348 208.832Z" fill="white"/>
<path d="M113.191 208.832C112.303 208.832 111.599 208.576 111.079 208.064C110.559 207.552 110.279 206.824 110.239 205.88C110.231 205.8 110.227 205.7 110.227 205.58C110.227 205.452 110.231 205.352 110.239 205.28C110.271 204.68 110.407 204.16 110.647 203.72C110.895 203.28 111.235 202.944 111.667 202.712C112.099 202.472 112.607 202.352 113.191 202.352C113.839 202.352 114.383 202.488 114.823 202.76C115.263 203.024 115.595 203.396 115.819 203.876C116.043 204.348 116.155 204.896 116.155 205.52V205.772C116.155 205.852 116.127 205.92 116.071 205.976C116.015 206.032 115.943 206.06 115.855 206.06H111.871C111.871 206.06 111.871 206.072 111.871 206.096C111.871 206.12 111.871 206.14 111.871 206.156C111.879 206.436 111.931 206.696 112.027 206.936C112.131 207.168 112.279 207.356 112.471 207.5C112.671 207.644 112.907 207.716 113.179 207.716C113.403 207.716 113.591 207.684 113.743 207.62C113.895 207.548 114.019 207.468 114.115 207.38C114.211 207.292 114.279 207.22 114.319 207.164C114.391 207.068 114.447 207.012 114.487 206.996C114.535 206.972 114.603 206.96 114.691 206.96H115.723C115.803 206.96 115.867 206.984 115.915 207.032C115.971 207.08 115.995 207.14 115.987 207.212C115.979 207.34 115.911 207.496 115.783 207.68C115.663 207.864 115.487 208.044 115.255 208.22C115.023 208.396 114.731 208.544 114.379 208.664C114.035 208.776 113.639 208.832 113.191 208.832ZM111.871 205.052H114.523V205.016C114.523 204.704 114.471 204.432 114.367 204.2C114.263 203.968 114.111 203.784 113.911 203.648C113.711 203.512 113.471 203.444 113.191 203.444C112.911 203.444 112.671 203.512 112.471 203.648C112.271 203.784 112.119 203.968 112.015 204.2C111.919 204.432 111.871 204.704 111.871 205.016V205.052Z" fill="white"/>
<path d="M365.408 96.0813C365.408 110.486 353.464 122.163 338.729 122.163C323.995 122.163 312.051 110.486 312.051 96.0813C312.051 81.677 323.995 70 338.729 70C353.464 70 365.408 81.677 365.408 96.0813Z" fill="white"/>
<path d="M338.729 123.663C354.26 123.663 366.908 111.346 366.908 96.0813C366.908 80.8167 354.26 68.5 338.729 68.5C323.199 68.5 310.551 80.8167 310.551 96.0813C310.551 111.346 323.199 123.663 338.729 123.663Z" stroke="white" stroke-opacity="0.35" stroke-width="3"/>
<path fill-rule="evenodd" clip-rule="evenodd" d="M338.729 117.692C350.938 117.692 360.835 108.016 360.835 96.0813C360.835 84.1463 350.938 74.4711 338.729 74.4711C326.521 74.4711 316.624 84.1463 316.624 96.0813C316.624 108.016 326.521 117.692 338.729 117.692ZM338.729 122.163C353.464 122.163 365.408 110.486 365.408 96.0813C365.408 81.677 353.464 70 338.729 70C323.995 70 312.051 81.677 312.051 96.0813C312.051 110.486 323.995 122.163 338.729 122.163Z" fill="#145B5B"/>
<path d="M353.972 96.0833C353.972 104.314 347.147 110.987 338.727 110.987C330.308 110.987 323.482 104.314 323.482 96.0833C323.482 87.8523 330.308 81.1797 338.727 81.1797C347.147 81.1797 353.972 87.8523 353.972 96.0833Z" fill="#145B5B" fill-opacity="0.3"/>
<path d="M288.288 141.712C288.208 141.712 288.14 141.684 288.084 141.628C288.028 141.572 288 141.504 288 141.424V133.6C288 133.52 288.028 133.452 288.084 133.396C288.14 133.34 288.208 133.312 288.288 133.312H289.416C289.504 133.312 289.572 133.34 289.62 133.396C289.676 133.452 289.704 133.52 289.704 133.6V141.424C289.704 141.504 289.676 141.572 289.62 141.628C289.572 141.684 289.504 141.712 289.416 141.712H288.288Z" fill="white"/>
<path d="M291.73 141.712C291.65 141.712 291.582 141.684 291.526 141.628C291.47 141.572 291.442 141.504 291.442 141.424V135.76C291.442 135.68 291.47 135.612 291.526 135.556C291.582 135.5 291.65 135.472 291.73 135.472H292.714C292.794 135.472 292.862 135.5 292.918 135.556C292.974 135.612 293.002 135.68 293.002 135.76V136.252C293.21 135.996 293.474 135.784 293.794 135.616C294.122 135.44 294.526 135.352 295.006 135.352C295.494 135.352 295.918 135.464 296.278 135.688C296.638 135.904 296.914 136.212 297.106 136.612C297.306 137.012 297.406 137.492 297.406 138.052V141.424C297.406 141.504 297.378 141.572 297.322 141.628C297.266 141.684 297.198 141.712 297.118 141.712H296.062C295.982 141.712 295.914 141.684 295.858 141.628C295.802 141.572 295.774 141.504 295.774 141.424V138.124C295.774 137.66 295.658 137.296 295.426 137.032C295.202 136.768 294.874 136.636 294.442 136.636C294.026 136.636 293.694 136.768 293.446 137.032C293.198 137.296 293.074 137.66 293.074 138.124V141.424C293.074 141.504 293.046 141.572 292.99 141.628C292.934 141.684 292.866 141.712 292.786 141.712H291.73Z" fill="white"/>
<path d="M300.951 141.712C300.823 141.712 300.727 141.684 300.663 141.628C300.607 141.564 300.559 141.492 300.519 141.412L298.275 135.844C298.259 135.804 298.251 135.768 298.251 135.736C298.251 135.664 298.275 135.604 298.323 135.556C298.379 135.5 298.443 135.472 298.515 135.472H299.487C299.583 135.472 299.655 135.5 299.703 135.556C299.751 135.604 299.783 135.652 299.799 135.7L301.395 139.912L302.991 135.7C303.007 135.652 303.039 135.604 303.087 135.556C303.135 135.5 303.207 135.472 303.303 135.472H304.287C304.351 135.472 304.407 135.5 304.455 135.556C304.511 135.604 304.539 135.664 304.539 135.736C304.539 135.768 304.535 135.804 304.527 135.844L302.271 141.412C302.239 141.492 302.191 141.564 302.127 141.628C302.063 141.684 301.967 141.712 301.839 141.712H300.951Z" fill="white"/>
<path d="M308.099 141.832C307.211 141.832 306.507 141.576 305.987 141.064C305.467 140.552 305.187 139.824 305.147 138.88C305.139 138.8 305.135 138.7 305.135 138.58C305.135 138.452 305.139 138.352 305.147 138.28C305.179 137.68 305.315 137.16 305.555 136.72C305.803 136.28 306.143 135.944 306.575 135.712C307.007 135.472 307.515 135.352 308.099 135.352C308.747 135.352 309.291 135.488 309.731 135.76C310.171 136.024 310.503 136.396 310.727 136.876C310.951 137.348 311.063 137.896 311.063 138.52V138.772C311.063 138.852 311.035 138.92 310.979 138.976C310.923 139.032 310.851 139.06 310.763 139.06H306.779C306.779 139.06 306.779 139.072 306.779 139.096C306.779 139.12 306.779 139.14 306.779 139.156C306.787 139.436 306.839 139.696 306.935 139.936C307.039 140.168 307.187 140.356 307.379 140.5C307.579 140.644 307.815 140.716 308.087 140.716C308.311 140.716 308.499 140.684 308.651 140.62C308.803 140.548 308.927 140.468 309.023 140.38C309.119 140.292 309.187 140.22 309.227 140.164C309.299 140.068 309.355 140.012 309.395 139.996C309.443 139.972 309.511 139.96 309.599 139.96H310.631C310.711 139.96 310.775 139.984 310.823 140.032C310.879 140.08 310.903 140.14 310.895 140.212C310.887 140.34 310.819 140.496 310.691 140.68C310.571 140.864 310.395 141.044 310.163 141.22C309.931 141.396 309.639 141.544 309.287 141.664C308.943 141.776 308.547 141.832 308.099 141.832ZM306.779 138.052H309.431V138.016C309.431 137.704 309.379 137.432 309.275 137.2C309.171 136.968 309.019 136.784 308.819 136.648C308.619 136.512 308.379 136.444 308.099 136.444C307.819 136.444 307.579 136.512 307.379 136.648C307.179 136.784 307.027 136.968 306.923 137.2C306.827 137.432 306.779 137.704 306.779 138.016V138.052Z" fill="white"/>
<path d="M312.624 141.712C312.544 141.712 312.476 141.684 312.42 141.628C312.364 141.572 312.336 141.504 312.336 141.424V135.76C312.336 135.68 312.364 135.612 312.42 135.556C312.476 135.5 312.544 135.472 312.624 135.472H313.608C313.688 135.472 313.756 135.5 313.812 135.556C313.868 135.612 313.896 135.68 313.896 135.76V136.252C314.104 135.996 314.368 135.784 314.688 135.616C315.016 135.44 315.42 135.352 315.9 135.352C316.388 135.352 316.812 135.464 317.172 135.688C317.532 135.904 317.808 136.212 318 136.612C318.2 137.012 318.3 137.492 318.3 138.052V141.424C318.3 141.504 318.272 141.572 318.216 141.628C318.16 141.684 318.092 141.712 318.012 141.712H316.956C316.876 141.712 316.808 141.684 316.752 141.628C316.696 141.572 316.668 141.504 316.668 141.424V138.124C316.668 137.66 316.552 137.296 316.32 137.032C316.096 136.768 315.768 136.636 315.336 136.636C314.92 136.636 314.588 136.768 314.34 137.032C314.092 137.296 313.968 137.66 313.968 138.124V141.424C313.968 141.504 313.94 141.572 313.884 141.628C313.828 141.684 313.76 141.712 313.68 141.712H312.624Z" fill="white"/>
<path d="M322.574 141.712C322.094 141.712 321.69 141.628 321.362 141.46C321.034 141.292 320.79 141.044 320.63 140.716C320.47 140.38 320.39 139.964 320.39 139.468V136.744H319.442C319.362 136.744 319.294 136.716 319.238 136.66C319.182 136.604 319.154 136.536 319.154 136.456V135.76C319.154 135.68 319.182 135.612 319.238 135.556C319.294 135.5 319.362 135.472 319.442 135.472H320.39V133.48C320.39 133.4 320.414 133.332 320.462 133.276C320.518 133.22 320.59 133.192 320.678 133.192H321.65C321.73 133.192 321.798 133.22 321.854 133.276C321.91 133.332 321.938 133.4 321.938 133.48V135.472H323.438C323.518 135.472 323.586 135.5 323.642 135.556C323.698 135.612 323.726 135.68 323.726 135.76V136.456C323.726 136.536 323.698 136.604 323.642 136.66C323.586 136.716 323.518 136.744 323.438 136.744H321.938V139.348C321.938 139.676 321.994 139.932 322.106 140.116C322.226 140.3 322.43 140.392 322.718 140.392H323.546C323.626 140.392 323.694 140.42 323.75 140.476C323.806 140.532 323.834 140.6 323.834 140.68V141.424C323.834 141.504 323.806 141.572 323.75 141.628C323.694 141.684 323.626 141.712 323.546 141.712H322.574Z" fill="white"/>
<path d="M327.659 141.832C327.019 141.832 326.479 141.72 326.039 141.496C325.607 141.272 325.275 140.956 325.043 140.548C324.819 140.14 324.691 139.664 324.659 139.12C324.651 138.976 324.647 138.8 324.647 138.592C324.647 138.384 324.651 138.208 324.659 138.064C324.691 137.512 324.823 137.036 325.055 136.636C325.295 136.228 325.631 135.912 326.063 135.688C326.503 135.464 327.035 135.352 327.659 135.352C328.283 135.352 328.811 135.464 329.243 135.688C329.683 135.912 330.019 136.228 330.251 136.636C330.491 137.036 330.627 137.512 330.659 138.064C330.667 138.208 330.671 138.384 330.671 138.592C330.671 138.8 330.667 138.976 330.659 139.12C330.627 139.664 330.495 140.14 330.263 140.548C330.039 140.956 329.707 141.272 329.267 141.496C328.835 141.72 328.299 141.832 327.659 141.832ZM327.659 140.644C328.083 140.644 328.411 140.512 328.643 140.248C328.875 139.976 329.003 139.58 329.027 139.06C329.035 138.94 329.039 138.784 329.039 138.592C329.039 138.4 329.035 138.244 329.027 138.124C329.003 137.612 328.875 137.22 328.643 136.948C328.411 136.676 328.083 136.54 327.659 136.54C327.235 136.54 326.907 136.676 326.675 136.948C326.443 137.22 326.315 137.612 326.291 138.124C326.283 138.244 326.279 138.4 326.279 138.592C326.279 138.784 326.283 138.94 326.291 139.06C326.315 139.58 326.443 139.976 326.675 140.248C326.907 140.512 327.235 140.644 327.659 140.644Z" fill="white"/>
<path d="M332.289 141.712C332.209 141.712 332.141 141.684 332.085 141.628C332.029 141.572 332.001 141.504 332.001 141.424V135.772C332.001 135.684 332.029 135.612 332.085 135.556C332.141 135.5 332.209 135.472 332.289 135.472H333.261C333.341 135.472 333.409 135.5 333.465 135.556C333.529 135.612 333.561 135.684 333.561 135.772V136.264C333.745 136.008 333.981 135.812 334.269 135.676C334.565 135.54 334.905 135.472 335.289 135.472H335.781C335.869 135.472 335.937 135.5 335.985 135.556C336.041 135.612 336.069 135.68 336.069 135.76V136.624C336.069 136.704 336.041 136.772 335.985 136.828C335.937 136.884 335.869 136.912 335.781 136.912H334.845C334.461 136.912 334.161 137.02 333.945 137.236C333.737 137.452 333.633 137.748 333.633 138.124V141.424C333.633 141.504 333.605 141.572 333.549 141.628C333.493 141.684 333.421 141.712 333.333 141.712H332.289Z" fill="white"/>
<path d="M338.132 143.992C338.068 143.992 338.012 143.968 337.964 143.92C337.916 143.872 337.892 143.816 337.892 143.752C337.892 143.72 337.892 143.688 337.892 143.656C337.9 143.632 337.916 143.6 337.94 143.56L338.876 141.34L336.572 135.904C336.54 135.824 336.524 135.768 336.524 135.736C336.532 135.664 336.56 135.604 336.608 135.556C336.656 135.5 336.716 135.472 336.788 135.472H337.76C337.856 135.472 337.928 135.496 337.976 135.544C338.024 135.592 338.06 135.644 338.084 135.7L339.68 139.624L341.324 135.7C341.348 135.636 341.384 135.584 341.432 135.544C341.48 135.496 341.552 135.472 341.648 135.472H342.608C342.672 135.472 342.728 135.496 342.776 135.544C342.832 135.592 342.86 135.648 342.86 135.712C342.86 135.76 342.844 135.824 342.812 135.904L339.416 143.764C339.384 143.828 339.344 143.88 339.296 143.92C339.248 143.968 339.176 143.992 339.08 143.992H338.132Z" fill="white"/>
<path d="M349.381 141.832C348.637 141.832 348.013 141.724 347.509 141.508C347.013 141.284 346.633 140.996 346.369 140.644C346.113 140.284 345.977 139.908 345.961 139.516C345.961 139.444 345.985 139.384 346.033 139.336C346.081 139.288 346.141 139.264 346.213 139.264H347.281C347.385 139.264 347.461 139.288 347.509 139.336C347.565 139.376 347.613 139.428 347.653 139.492C347.701 139.644 347.793 139.796 347.929 139.948C348.065 140.092 348.249 140.212 348.481 140.308C348.721 140.404 349.021 140.452 349.381 140.452C349.957 140.452 350.385 140.356 350.665 140.164C350.953 139.972 351.097 139.712 351.097 139.384C351.097 139.152 351.021 138.968 350.869 138.832C350.717 138.688 350.481 138.56 350.161 138.448C349.849 138.328 349.433 138.204 348.913 138.076C348.313 137.932 347.809 137.76 347.401 137.56C347.001 137.352 346.697 137.092 346.489 136.78C346.289 136.468 346.189 136.072 346.189 135.592C346.189 135.128 346.313 134.716 346.561 134.356C346.817 133.996 347.177 133.712 347.641 133.504C348.113 133.296 348.673 133.192 349.321 133.192C349.841 133.192 350.301 133.264 350.701 133.408C351.101 133.544 351.433 133.728 351.697 133.96C351.961 134.184 352.161 134.428 352.297 134.692C352.441 134.948 352.517 135.2 352.525 135.448C352.525 135.512 352.501 135.572 352.453 135.628C352.413 135.676 352.353 135.7 352.273 135.7H351.157C351.093 135.7 351.029 135.684 350.965 135.652C350.901 135.62 350.849 135.56 350.809 135.472C350.761 135.224 350.605 135.012 350.341 134.836C350.077 134.66 349.737 134.572 349.321 134.572C348.889 134.572 348.541 134.652 348.277 134.812C348.013 134.972 347.881 135.22 347.881 135.556C347.881 135.78 347.945 135.968 348.073 136.12C348.209 136.264 348.421 136.392 348.709 136.504C349.005 136.616 349.393 136.736 349.873 136.864C350.553 137.016 351.109 137.192 351.541 137.392C351.973 137.592 352.289 137.848 352.489 138.16C352.689 138.464 352.789 138.852 352.789 139.324C352.789 139.852 352.645 140.304 352.357 140.68C352.077 141.048 351.681 141.332 351.169 141.532C350.657 141.732 350.061 141.832 349.381 141.832Z" fill="white"/>
<path d="M356.708 141.832C355.82 141.832 355.116 141.576 354.596 141.064C354.076 140.552 353.796 139.824 353.756 138.88C353.748 138.8 353.744 138.7 353.744 138.58C353.744 138.452 353.748 138.352 353.756 138.28C353.788 137.68 353.924 137.16 354.164 136.72C354.412 136.28 354.752 135.944 355.184 135.712C355.616 135.472 356.124 135.352 356.708 135.352C357.356 135.352 357.9 135.488 358.34 135.76C358.78 136.024 359.112 136.396 359.336 136.876C359.56 137.348 359.672 137.896 359.672 138.52V138.772C359.672 138.852 359.644 138.92 359.588 138.976C359.532 139.032 359.46 139.06 359.372 139.06H355.388C355.388 139.06 355.388 139.072 355.388 139.096C355.388 139.12 355.388 139.14 355.388 139.156C355.396 139.436 355.448 139.696 355.544 139.936C355.648 140.168 355.796 140.356 355.988 140.5C356.188 140.644 356.424 140.716 356.696 140.716C356.92 140.716 357.108 140.684 357.26 140.62C357.412 140.548 357.536 140.468 357.632 140.38C357.728 140.292 357.796 140.22 357.836 140.164C357.908 140.068 357.964 140.012 358.004 139.996C358.052 139.972 358.12 139.96 358.208 139.96H359.24C359.32 139.96 359.384 139.984 359.432 140.032C359.488 140.08 359.512 140.14 359.504 140.212C359.496 140.34 359.428 140.496 359.3 140.68C359.18 140.864 359.004 141.044 358.772 141.22C358.54 141.396 358.248 141.544 357.896 141.664C357.552 141.776 357.156 141.832 356.708 141.832ZM355.388 138.052H358.04V138.016C358.04 137.704 357.988 137.432 357.884 137.2C357.78 136.968 357.628 136.784 357.428 136.648C357.228 136.512 356.988 136.444 356.708 136.444C356.428 136.444 356.188 136.512 355.988 136.648C355.788 136.784 355.636 136.968 355.532 137.2C355.436 137.432 355.388 137.704 355.388 138.016V138.052Z" fill="white"/>
<path d="M361.234 141.712C361.154 141.712 361.086 141.684 361.03 141.628C360.974 141.572 360.946 141.504 360.946 141.424V135.772C360.946 135.684 360.974 135.612 361.03 135.556C361.086 135.5 361.154 135.472 361.234 135.472H362.206C362.286 135.472 362.354 135.5 362.41 135.556C362.474 135.612 362.506 135.684 362.506 135.772V136.264C362.69 136.008 362.926 135.812 363.214 135.676C363.51 135.54 363.85 135.472 364.234 135.472H364.726C364.814 135.472 364.882 135.5 364.93 135.556C364.986 135.612 365.014 135.68 365.014 135.76V136.624C365.014 136.704 364.986 136.772 364.93 136.828C364.882 136.884 364.814 136.912 364.726 136.912H363.79C363.406 136.912 363.106 137.02 362.89 137.236C362.682 137.452 362.578 137.748 362.578 138.124V141.424C362.578 141.504 362.55 141.572 362.494 141.628C362.438 141.684 362.366 141.712 362.278 141.712H361.234Z" fill="white"/>
<path d="M368.158 141.712C368.03 141.712 367.934 141.684 367.87 141.628C367.814 141.564 367.766 141.492 367.726 141.412L365.482 135.844C365.466 135.804 365.458 135.768 365.458 135.736C365.458 135.664 365.482 135.604 365.53 135.556C365.586 135.5 365.65 135.472 365.722 135.472H366.694C366.79 135.472 366.862 135.5 366.91 135.556C366.958 135.604 366.99 135.652 367.006 135.7L368.602 139.912L370.198 135.7C370.214 135.652 370.246 135.604 370.294 135.556C370.342 135.5 370.414 135.472 370.51 135.472H371.494C371.558 135.472 371.614 135.5 371.662 135.556C371.718 135.604 371.746 135.664 371.746 135.736C371.746 135.768 371.742 135.804 371.734 135.844L369.478 141.412C369.446 141.492 369.398 141.564 369.334 141.628C369.27 141.684 369.174 141.712 369.046 141.712H368.158Z" fill="white"/>
<path d="M373.128 141.712C373.048 141.712 372.98 141.684 372.924 141.628C372.868 141.572 372.84 141.504 372.84 141.424V135.76C372.84 135.68 372.868 135.612 372.924 135.556C372.98 135.5 373.048 135.472 373.128 135.472H374.124C374.212 135.472 374.28 135.5 374.328 135.556C374.384 135.612 374.412 135.68 374.412 135.76V141.424C374.412 141.504 374.384 141.572 374.328 141.628C374.28 141.684 374.212 141.712 374.124 141.712H373.128ZM373.08 134.44C372.992 134.44 372.92 134.416 372.864 134.368C372.816 134.312 372.792 134.24 372.792 134.152V133.288C372.792 133.208 372.816 133.14 372.864 133.084C372.92 133.028 372.992 133 373.08 133H374.172C374.26 133 374.332 133.028 374.388 133.084C374.444 133.14 374.472 133.208 374.472 133.288V134.152C374.472 134.24 374.444 134.312 374.388 134.368C374.332 134.416 374.26 134.44 374.172 134.44H373.08Z" fill="white"/>
<path d="M378.74 141.832C378.164 141.832 377.656 141.724 377.216 141.508C376.784 141.292 376.444 140.98 376.196 140.572C375.956 140.156 375.824 139.656 375.8 139.072C375.792 138.952 375.788 138.796 375.788 138.604C375.788 138.404 375.792 138.24 375.8 138.112C375.824 137.528 375.956 137.032 376.196 136.624C376.444 136.208 376.784 135.892 377.216 135.676C377.656 135.46 378.164 135.352 378.74 135.352C379.252 135.352 379.688 135.424 380.048 135.568C380.408 135.712 380.704 135.892 380.936 136.108C381.168 136.324 381.34 136.552 381.452 136.792C381.572 137.024 381.636 137.236 381.644 137.428C381.652 137.516 381.624 137.588 381.56 137.644C381.504 137.692 381.436 137.716 381.356 137.716H380.3C380.22 137.716 380.156 137.696 380.108 137.656C380.068 137.616 380.028 137.556 379.988 137.476C379.868 137.156 379.708 136.932 379.508 136.804C379.316 136.668 379.068 136.6 378.764 136.6C378.364 136.6 378.044 136.728 377.804 136.984C377.572 137.232 377.448 137.628 377.432 138.172C377.416 138.476 377.416 138.756 377.432 139.012C377.448 139.564 377.572 139.964 377.804 140.212C378.044 140.46 378.364 140.584 378.764 140.584C379.076 140.584 379.328 140.52 379.52 140.392C379.712 140.256 379.868 140.028 379.988 139.708C380.028 139.628 380.068 139.568 380.108 139.528C380.156 139.488 380.22 139.468 380.3 139.468H381.356C381.436 139.468 381.504 139.496 381.56 139.552C381.624 139.6 381.652 139.668 381.644 139.756C381.636 139.9 381.596 140.064 381.524 140.248C381.46 140.424 381.352 140.608 381.2 140.8C381.056 140.984 380.872 141.156 380.648 141.316C380.424 141.468 380.152 141.592 379.832 141.688C379.52 141.784 379.156 141.832 378.74 141.832Z" fill="white"/>
<path d="M385.583 141.832C384.695 141.832 383.991 141.576 383.471 141.064C382.951 140.552 382.671 139.824 382.631 138.88C382.623 138.8 382.619 138.7 382.619 138.58C382.619 138.452 382.623 138.352 382.631 138.28C382.663 137.68 382.799 137.16 383.039 136.72C383.287 136.28 383.627 135.944 384.059 135.712C384.491 135.472 384.999 135.352 385.583 135.352C386.231 135.352 386.775 135.488 387.215 135.76C387.655 136.024 387.987 136.396 388.211 136.876C388.435 137.348 388.547 137.896 388.547 138.52V138.772C388.547 138.852 388.519 138.92 388.463 138.976C388.407 139.032 388.335 139.06 388.247 139.06H384.263C384.263 139.06 384.263 139.072 384.263 139.096C384.263 139.12 384.263 139.14 384.263 139.156C384.271 139.436 384.323 139.696 384.419 139.936C384.523 140.168 384.671 140.356 384.863 140.5C385.063 140.644 385.299 140.716 385.571 140.716C385.795 140.716 385.983 140.684 386.135 140.62C386.287 140.548 386.411 140.468 386.507 140.38C386.603 140.292 386.671 140.22 386.711 140.164C386.783 140.068 386.839 140.012 386.879 139.996C386.927 139.972 386.995 139.96 387.083 139.96H388.115C388.195 139.96 388.259 139.984 388.307 140.032C388.363 140.08 388.387 140.14 388.379 140.212C388.371 140.34 388.303 140.496 388.175 140.68C388.055 140.864 387.879 141.044 387.647 141.22C387.415 141.396 387.123 141.544 386.771 141.664C386.427 141.776 386.031 141.832 385.583 141.832ZM384.263 138.052H386.915V138.016C386.915 137.704 386.863 137.432 386.759 137.2C386.655 136.968 386.503 136.784 386.303 136.648C386.103 136.512 385.863 136.444 385.583 136.444C385.303 136.444 385.063 136.512 384.863 136.648C384.663 136.784 384.511 136.968 384.407 137.2C384.311 137.432 384.263 137.704 384.263 138.016V138.052Z" fill="white"/>
<circle cx="216.215" cy="109.014" r="14.416" fill="#00C895"/>
<circle cx="216.215" cy="109.014" r="17.416" stroke="#00C895" stroke-opacity="0.3" stroke-width="6"/>
<path d="M181.563 149.12C180.851 149.12 180.239 149.004 179.727 148.772C179.215 148.532 178.815 148.168 178.527 147.68C178.239 147.184 178.083 146.568 178.059 145.832C178.051 145.488 178.047 145.148 178.047 144.812C178.047 144.476 178.051 144.132 178.059 143.78C178.083 143.052 178.243 142.444 178.539 141.956C178.835 141.468 179.239 141.1 179.751 140.852C180.271 140.604 180.875 140.48 181.563 140.48C182.251 140.48 182.855 140.604 183.375 140.852C183.895 141.1 184.303 141.468 184.599 141.956C184.895 142.444 185.055 143.052 185.079 143.78C185.095 144.132 185.103 144.476 185.103 144.812C185.103 145.148 185.095 145.488 185.079 145.832C185.055 146.568 184.899 147.184 184.611 147.68C184.323 148.168 183.919 148.532 183.399 148.772C182.887 149.004 182.275 149.12 181.563 149.12ZM181.563 147.74C182.083 147.74 182.507 147.588 182.835 147.284C183.163 146.972 183.339 146.468 183.363 145.772C183.379 145.42 183.387 145.096 183.387 144.8C183.387 144.496 183.379 144.172 183.363 143.828C183.347 143.364 183.259 142.988 183.099 142.7C182.947 142.404 182.739 142.192 182.475 142.064C182.211 141.928 181.907 141.86 181.563 141.86C181.227 141.86 180.927 141.928 180.663 142.064C180.399 142.192 180.187 142.404 180.027 142.7C179.875 142.988 179.791 143.364 179.775 143.828C179.767 144.172 179.763 144.496 179.763 144.8C179.763 145.096 179.767 145.42 179.775 145.772C179.799 146.468 179.975 146.972 180.303 147.284C180.631 147.588 181.051 147.74 181.563 147.74Z" fill="white"/>
<path d="M186.823 149C186.743 149 186.675 148.972 186.619 148.916C186.563 148.86 186.535 148.792 186.535 148.712V143.06C186.535 142.972 186.563 142.9 186.619 142.844C186.675 142.788 186.743 142.76 186.823 142.76H187.795C187.875 142.76 187.943 142.788 187.999 142.844C188.063 142.9 188.095 142.972 188.095 143.06V143.552C188.279 143.296 188.515 143.1 188.803 142.964C189.099 142.828 189.439 142.76 189.823 142.76H190.315C190.403 142.76 190.471 142.788 190.519 142.844C190.575 142.9 190.603 142.968 190.603 143.048V143.912C190.603 143.992 190.575 144.06 190.519 144.116C190.471 144.172 190.403 144.2 190.315 144.2H189.379C188.995 144.2 188.695 144.308 188.479 144.524C188.271 144.74 188.167 145.036 188.167 145.412V148.712C188.167 148.792 188.139 148.86 188.083 148.916C188.027 148.972 187.955 149 187.867 149H186.823Z" fill="white"/>
<path d="M193.761 149.12C193.345 149.12 192.977 149.052 192.657 148.916C192.345 148.772 192.085 148.572 191.877 148.316C191.669 148.06 191.509 147.76 191.397 147.416C191.285 147.064 191.221 146.68 191.205 146.264C191.197 146.12 191.193 145.992 191.193 145.88C191.193 145.76 191.197 145.628 191.205 145.484C191.221 145.084 191.281 144.712 191.385 144.368C191.497 144.024 191.657 143.724 191.865 143.468C192.081 143.204 192.345 143 192.657 142.856C192.977 142.712 193.345 142.64 193.761 142.64C194.193 142.64 194.557 142.716 194.853 142.868C195.157 143.012 195.409 143.2 195.609 143.432V140.768C195.609 140.688 195.633 140.62 195.681 140.564C195.737 140.508 195.809 140.48 195.897 140.48H196.917C196.997 140.48 197.065 140.508 197.121 140.564C197.177 140.62 197.205 140.688 197.205 140.768V148.712C197.205 148.792 197.177 148.86 197.121 148.916C197.065 148.972 196.997 149 196.917 149H195.969C195.881 149 195.809 148.972 195.753 148.916C195.705 148.86 195.681 148.792 195.681 148.712V148.268C195.481 148.516 195.225 148.72 194.913 148.88C194.609 149.04 194.225 149.12 193.761 149.12ZM194.205 147.836C194.541 147.836 194.809 147.76 195.009 147.608C195.209 147.456 195.357 147.264 195.453 147.032C195.549 146.792 195.601 146.548 195.609 146.3C195.617 146.156 195.621 146.004 195.621 145.844C195.621 145.676 195.617 145.52 195.609 145.376C195.601 145.136 195.545 144.908 195.441 144.692C195.337 144.468 195.185 144.284 194.985 144.14C194.785 143.996 194.525 143.924 194.205 143.924C193.869 143.924 193.601 144 193.401 144.152C193.209 144.296 193.069 144.488 192.981 144.728C192.893 144.968 192.841 145.232 192.825 145.52C192.817 145.76 192.817 146 192.825 146.24C192.841 146.528 192.893 146.792 192.981 147.032C193.069 147.272 193.209 147.468 193.401 147.62C193.601 147.764 193.869 147.836 194.205 147.836Z" fill="white"/>
<path d="M201.492 149.12C200.604 149.12 199.9 148.864 199.38 148.352C198.86 147.84 198.58 147.112 198.54 146.168C198.532 146.088 198.528 145.988 198.528 145.868C198.528 145.74 198.532 145.64 198.54 145.568C198.572 144.968 198.708 144.448 198.948 144.008C199.196 143.568 199.536 143.232 199.968 143C200.4 142.76 200.908 142.64 201.492 142.64C202.14 142.64 202.684 142.776 203.124 143.048C203.564 143.312 203.896 143.684 204.12 144.164C204.344 144.636 204.456 145.184 204.456 145.808V146.06C204.456 146.14 204.428 146.208 204.372 146.264C204.316 146.32 204.244 146.348 204.156 146.348H200.172C200.172 146.348 200.172 146.36 200.172 146.384C200.172 146.408 200.172 146.428 200.172 146.444C200.18 146.724 200.232 146.984 200.328 147.224C200.432 147.456 200.58 147.644 200.772 147.788C200.972 147.932 201.208 148.004 201.48 148.004C201.704 148.004 201.892 147.972 202.044 147.908C202.196 147.836 202.32 147.756 202.416 147.668C202.512 147.58 202.58 147.508 202.62 147.452C202.692 147.356 202.748 147.3 202.788 147.284C202.836 147.26 202.904 147.248 202.992 147.248H204.024C204.104 147.248 204.168 147.272 204.216 147.32C204.272 147.368 204.296 147.428 204.288 147.5C204.28 147.628 204.212 147.784 204.084 147.968C203.964 148.152 203.788 148.332 203.556 148.508C203.324 148.684 203.032 148.832 202.68 148.952C202.336 149.064 201.94 149.12 201.492 149.12ZM200.172 145.34H202.824V145.304C202.824 144.992 202.772 144.72 202.668 144.488C202.564 144.256 202.412 144.072 202.212 143.936C202.012 143.8 201.772 143.732 201.492 143.732C201.212 143.732 200.972 143.8 200.772 143.936C200.572 144.072 200.42 144.256 200.316 144.488C200.22 144.72 200.172 144.992 200.172 145.304V145.34Z" fill="white"/>
<path d="M206.018 149C205.938 149 205.87 148.972 205.814 148.916C205.758 148.86 205.73 148.792 205.73 148.712V143.06C205.73 142.972 205.758 142.9 205.814 142.844C205.87 142.788 205.938 142.76 206.018 142.76H206.99C207.07 142.76 207.138 142.788 207.194 142.844C207.258 142.9 207.29 142.972 207.29 143.06V143.552C207.474 143.296 207.71 143.1 207.998 142.964C208.294 142.828 208.634 142.76 209.018 142.76H209.51C209.598 142.76 209.666 142.788 209.714 142.844C209.77 142.9 209.798 142.968 209.798 143.048V143.912C209.798 143.992 209.77 144.06 209.714 144.116C209.666 144.172 209.598 144.2 209.51 144.2H208.574C208.19 144.2 207.89 144.308 207.674 144.524C207.466 144.74 207.362 145.036 207.362 145.412V148.712C207.362 148.792 207.334 148.86 207.278 148.916C207.222 148.972 207.15 149 207.062 149H206.018Z" fill="white"/>
<path d="M216.602 149.12C215.858 149.12 215.226 148.992 214.706 148.736C214.194 148.472 213.802 148.1 213.53 147.62C213.258 147.132 213.106 146.548 213.074 145.868C213.066 145.54 213.062 145.188 213.062 144.812C213.062 144.436 213.066 144.076 213.074 143.732C213.106 143.06 213.258 142.48 213.53 141.992C213.81 141.504 214.206 141.132 214.718 140.876C215.238 140.612 215.866 140.48 216.602 140.48C217.146 140.48 217.634 140.552 218.066 140.696C218.498 140.84 218.866 141.04 219.17 141.296C219.474 141.544 219.71 141.836 219.878 142.172C220.046 142.508 220.134 142.872 220.142 143.264C220.15 143.336 220.126 143.396 220.07 143.444C220.022 143.492 219.962 143.516 219.89 143.516H218.75C218.662 143.516 218.59 143.496 218.534 143.456C218.478 143.408 218.438 143.332 218.414 143.228C218.286 142.7 218.066 142.34 217.754 142.148C217.442 141.956 217.054 141.86 216.59 141.86C216.054 141.86 215.626 142.012 215.306 142.316C214.986 142.612 214.814 143.104 214.79 143.792C214.766 144.448 214.766 145.12 214.79 145.808C214.814 146.496 214.986 146.992 215.306 147.296C215.626 147.592 216.054 147.74 216.59 147.74C217.054 147.74 217.442 147.644 217.754 147.452C218.066 147.252 218.286 146.892 218.414 146.372C218.438 146.26 218.478 146.184 218.534 146.144C218.59 146.104 218.662 146.084 218.75 146.084H219.89C219.962 146.084 220.022 146.108 220.07 146.156C220.126 146.204 220.15 146.264 220.142 146.336C220.134 146.728 220.046 147.092 219.878 147.428C219.71 147.764 219.474 148.06 219.17 148.316C218.866 148.564 218.498 148.76 218.066 148.904C217.634 149.048 217.146 149.12 216.602 149.12Z" fill="white"/>
<path d="M221.709 149C221.629 149 221.561 148.972 221.505 148.916C221.449 148.86 221.421 148.792 221.421 148.712V143.06C221.421 142.972 221.449 142.9 221.505 142.844C221.561 142.788 221.629 142.76 221.709 142.76H222.681C222.761 142.76 222.829 142.788 222.885 142.844C222.949 142.9 222.981 142.972 222.981 143.06V143.552C223.165 143.296 223.401 143.1 223.689 142.964C223.985 142.828 224.325 142.76 224.709 142.76H225.201C225.289 142.76 225.357 142.788 225.405 142.844C225.461 142.9 225.489 142.968 225.489 143.048V143.912C225.489 143.992 225.461 144.06 225.405 144.116C225.357 144.172 225.289 144.2 225.201 144.2H224.265C223.881 144.2 223.581 144.308 223.365 144.524C223.157 144.74 223.053 145.036 223.053 145.412V148.712C223.053 148.792 223.025 148.86 222.969 148.916C222.913 148.972 222.841 149 222.753 149H221.709Z" fill="white"/>
<path d="M229.031 149.12C228.143 149.12 227.439 148.864 226.919 148.352C226.399 147.84 226.119 147.112 226.079 146.168C226.071 146.088 226.067 145.988 226.067 145.868C226.067 145.74 226.071 145.64 226.079 145.568C226.111 144.968 226.247 144.448 226.487 144.008C226.735 143.568 227.075 143.232 227.507 143C227.939 142.76 228.447 142.64 229.031 142.64C229.679 142.64 230.223 142.776 230.663 143.048C231.103 143.312 231.435 143.684 231.659 144.164C231.883 144.636 231.995 145.184 231.995 145.808V146.06C231.995 146.14 231.967 146.208 231.911 146.264C231.855 146.32 231.783 146.348 231.695 146.348H227.711C227.711 146.348 227.711 146.36 227.711 146.384C227.711 146.408 227.711 146.428 227.711 146.444C227.719 146.724 227.771 146.984 227.867 147.224C227.971 147.456 228.119 147.644 228.311 147.788C228.511 147.932 228.747 148.004 229.019 148.004C229.243 148.004 229.431 147.972 229.583 147.908C229.735 147.836 229.859 147.756 229.955 147.668C230.051 147.58 230.119 147.508 230.159 147.452C230.231 147.356 230.287 147.3 230.327 147.284C230.375 147.26 230.443 147.248 230.531 147.248H231.563C231.643 147.248 231.707 147.272 231.755 147.32C231.811 147.368 231.835 147.428 231.827 147.5C231.819 147.628 231.751 147.784 231.623 147.968C231.503 148.152 231.327 148.332 231.095 148.508C230.863 148.684 230.571 148.832 230.219 148.952C229.875 149.064 229.479 149.12 229.031 149.12ZM227.711 145.34H230.363V145.304C230.363 144.992 230.311 144.72 230.207 144.488C230.103 144.256 229.951 144.072 229.751 143.936C229.551 143.8 229.311 143.732 229.031 143.732C228.751 143.732 228.511 143.8 228.311 143.936C228.111 144.072 227.959 144.256 227.855 144.488C227.759 144.72 227.711 144.992 227.711 145.304V145.34Z" fill="white"/>
<path d="M235.081 149.12C234.665 149.12 234.289 149.04 233.953 148.88C233.617 148.712 233.349 148.492 233.149 148.22C232.957 147.94 232.861 147.628 232.861 147.284C232.861 146.724 233.085 146.28 233.533 145.952C233.989 145.616 234.589 145.392 235.333 145.28L236.977 145.04V144.788C236.977 144.452 236.893 144.192 236.725 144.008C236.557 143.824 236.269 143.732 235.861 143.732C235.573 143.732 235.337 143.792 235.153 143.912C234.977 144.024 234.845 144.176 234.757 144.368C234.693 144.472 234.601 144.524 234.481 144.524H233.533C233.445 144.524 233.377 144.5 233.329 144.452C233.289 144.404 233.269 144.34 233.269 144.26C233.277 144.132 233.329 143.976 233.425 143.792C233.521 143.608 233.673 143.432 233.881 143.264C234.089 143.088 234.357 142.94 234.685 142.82C235.013 142.7 235.409 142.64 235.873 142.64C236.377 142.64 236.801 142.704 237.145 142.832C237.497 142.952 237.777 143.116 237.985 143.324C238.193 143.532 238.345 143.776 238.441 144.056C238.537 144.336 238.585 144.632 238.585 144.944V148.712C238.585 148.792 238.557 148.86 238.501 148.916C238.445 148.972 238.377 149 238.297 149H237.325C237.237 149 237.165 148.972 237.109 148.916C237.061 148.86 237.037 148.792 237.037 148.712V148.244C236.933 148.396 236.793 148.54 236.617 148.676C236.441 148.804 236.225 148.912 235.969 149C235.721 149.08 235.425 149.12 235.081 149.12ZM235.489 147.98C235.769 147.98 236.021 147.92 236.245 147.8C236.477 147.68 236.657 147.496 236.785 147.248C236.921 146.992 236.989 146.672 236.989 146.288V146.036L235.789 146.228C235.317 146.3 234.965 146.416 234.733 146.576C234.501 146.736 234.385 146.932 234.385 147.164C234.385 147.34 234.437 147.492 234.541 147.62C234.653 147.74 234.793 147.832 234.961 147.896C235.129 147.952 235.305 147.98 235.489 147.98Z" fill="white"/>
<path d="M242.886 149C242.406 149 242.002 148.916 241.674 148.748C241.346 148.58 241.102 148.332 240.942 148.004C240.782 147.668 240.702 147.252 240.702 146.756V144.032H239.754C239.674 144.032 239.606 144.004 239.55 143.948C239.494 143.892 239.466 143.824 239.466 143.744V143.048C239.466 142.968 239.494 142.9 239.55 142.844C239.606 142.788 239.674 142.76 239.754 142.76H240.702V140.768C240.702 140.688 240.726 140.62 240.774 140.564C240.83 140.508 240.902 140.48 240.99 140.48H241.962C242.042 140.48 242.11 140.508 242.166 140.564C242.222 140.62 242.25 140.688 242.25 140.768V142.76H243.75C243.83 142.76 243.898 142.788 243.954 142.844C244.01 142.9 244.038 142.968 244.038 143.048V143.744C244.038 143.824 244.01 143.892 243.954 143.948C243.898 144.004 243.83 144.032 243.75 144.032H242.25V146.636C242.25 146.964 242.306 147.22 242.418 147.404C242.538 147.588 242.742 147.68 243.03 147.68H243.858C243.938 147.68 244.006 147.708 244.062 147.764C244.118 147.82 244.146 147.888 244.146 147.968V148.712C244.146 148.792 244.118 148.86 244.062 148.916C244.006 148.972 243.938 149 243.858 149H242.886Z" fill="white"/>
<path d="M247.898 149.12C247.01 149.12 246.306 148.864 245.786 148.352C245.266 147.84 244.986 147.112 244.946 146.168C244.938 146.088 244.934 145.988 244.934 145.868C244.934 145.74 244.938 145.64 244.946 145.568C244.978 144.968 245.114 144.448 245.354 144.008C245.602 143.568 245.942 143.232 246.374 143C246.806 142.76 247.314 142.64 247.898 142.64C248.546 142.64 249.09 142.776 249.53 143.048C249.97 143.312 250.302 143.684 250.526 144.164C250.75 144.636 250.862 145.184 250.862 145.808V146.06C250.862 146.14 250.834 146.208 250.778 146.264C250.722 146.32 250.65 146.348 250.562 146.348H246.578C246.578 146.348 246.578 146.36 246.578 146.384C246.578 146.408 246.578 146.428 246.578 146.444C246.586 146.724 246.638 146.984 246.734 147.224C246.838 147.456 246.986 147.644 247.178 147.788C247.378 147.932 247.614 148.004 247.886 148.004C248.11 148.004 248.298 147.972 248.45 147.908C248.602 147.836 248.726 147.756 248.822 147.668C248.918 147.58 248.986 147.508 249.026 147.452C249.098 147.356 249.154 147.3 249.194 147.284C249.242 147.26 249.31 147.248 249.398 147.248H250.43C250.51 147.248 250.574 147.272 250.622 147.32C250.678 147.368 250.702 147.428 250.694 147.5C250.686 147.628 250.618 147.784 250.49 147.968C250.37 148.152 250.194 148.332 249.962 148.508C249.73 148.684 249.438 148.832 249.086 148.952C248.742 149.064 248.346 149.12 247.898 149.12ZM246.578 145.34H249.23V145.304C249.23 144.992 249.178 144.72 249.074 144.488C248.97 144.256 248.818 144.072 248.618 143.936C248.418 143.8 248.178 143.732 247.898 143.732C247.618 143.732 247.378 143.8 247.178 143.936C246.978 144.072 246.826 144.256 246.722 144.488C246.626 144.72 246.578 144.992 246.578 145.304V145.34Z" fill="white"/>
<path d="M254.452 149.12C254.036 149.12 253.668 149.052 253.348 148.916C253.036 148.772 252.776 148.572 252.568 148.316C252.36 148.06 252.2 147.76 252.088 147.416C251.976 147.064 251.912 146.68 251.896 146.264C251.888 146.12 251.884 145.992 251.884 145.88C251.884 145.76 251.888 145.628 251.896 145.484C251.912 145.084 251.972 144.712 252.076 144.368C252.188 144.024 252.348 143.724 252.556 143.468C252.772 143.204 253.036 143 253.348 142.856C253.668 142.712 254.036 142.64 254.452 142.64C254.884 142.64 255.248 142.716 255.544 142.868C255.848 143.012 256.1 143.2 256.3 143.432V140.768C256.3 140.688 256.324 140.62 256.372 140.564C256.428 140.508 256.5 140.48 256.588 140.48H257.608C257.688 140.48 257.756 140.508 257.812 140.564C257.868 140.62 257.896 140.688 257.896 140.768V148.712C257.896 148.792 257.868 148.86 257.812 148.916C257.756 148.972 257.688 149 257.608 149H256.66C256.572 149 256.5 148.972 256.444 148.916C256.396 148.86 256.372 148.792 256.372 148.712V148.268C256.172 148.516 255.916 148.72 255.604 148.88C255.3 149.04 254.916 149.12 254.452 149.12ZM254.896 147.836C255.232 147.836 255.5 147.76 255.7 147.608C255.9 147.456 256.048 147.264 256.144 147.032C256.24 146.792 256.292 146.548 256.3 146.3C256.308 146.156 256.312 146.004 256.312 145.844C256.312 145.676 256.308 145.52 256.3 145.376C256.292 145.136 256.236 144.908 256.132 144.692C256.028 144.468 255.876 144.284 255.676 144.14C255.476 143.996 255.216 143.924 254.896 143.924C254.56 143.924 254.292 144 254.092 144.152C253.9 144.296 253.76 144.488 253.672 144.728C253.584 144.968 253.532 145.232 253.516 145.52C253.508 145.76 253.508 146 253.516 146.24C253.532 146.528 253.584 146.792 253.672 147.032C253.76 147.272 253.9 147.468 254.092 147.62C254.292 147.764 254.56 147.836 254.896 147.836Z" fill="white"/>
<path d="M226.383 136.192L226.587 136.683L227.065 136.449L229.974 135.024L230.399 134.815L230.214 134.379L226.121 124.734L233.091 124.178L234.185 124.091L233.401 123.323L217.401 107.643L216.551 106.81V108V131.07V132.297L217.408 131.419L222.31 126.403L226.383 136.192Z" fill="white" stroke="#022343"/>
</svg>
