<svg width="376" height="256" viewBox="0 0 376 256" fill="none" xmlns="http://www.w3.org/2000/svg">
<path opacity="0.2" fill-rule="evenodd" clip-rule="evenodd" d="M269.423 220.874L279.782 191.255L276.369 184.17L279.071 182.868L281.183 187.25L290.238 161.361L293.416 161.361L284.015 188.24L288.396 186.129L289.698 188.832L282.614 192.245L272.254 221.864L269.423 220.874ZM297.263 150.361L306.299 124.526L303.467 123.536L294.085 150.361L297.263 150.361Z" fill="#E7E9EC"/>
<g opacity="0.2">
<path d="M81.6984 179.008L35.8129 104.579" stroke="#E7E9EC" stroke-width="3"/>
<path d="M50.6474 140.075L52.6061 131.818L60.8622 133.777" stroke="#E7E9EC" stroke-width="3"/>
</g>
<g opacity="0.2">
<path d="M27.6639 94.1565L99.3153 62.2204" stroke="#E7E9EC" stroke-width="3"/>
<path d="M62.1642 72.2101L70.0872 75.2477L67.0495 83.1707" stroke="#E7E9EC" stroke-width="3"/>
</g>
<g opacity="0.2">
<path d="M122.719 53.0825L244.691 30.1362" stroke="#E7E9EC" stroke-width="3"/>
<path d="M206.237 31.2652L213.242 36.0524L208.455 43.0583" stroke="#E7E9EC" stroke-width="3"/>
</g>
<g opacity="0.2">
<path d="M257.11 34.0386L304.353 105.909" stroke="#E7E9EC" stroke-width="3"/>
<path d="M288.494 70.859L286.776 79.1686L278.466 77.4505" stroke="#E7E9EC" stroke-width="3"/>
</g>
<g opacity="0.2">
<path d="M265 224.199L109.258 195.295" stroke="#E7E9EC" stroke-width="3"/>
<path d="M145.525 208.128L140.721 201.134L147.715 196.329" stroke="#E7E9EC" stroke-width="3"/>
</g>
<path d="M95.8037 183.894L186.194 133.774" stroke="#6FCCBC" stroke-width="3"/>
<path d="M150.051 146.954L158.208 149.292L155.871 157.449" stroke="#6FCCBC" stroke-width="3"/>
<path d="M199.388 134.935L124.239 64.3516" stroke="#6FCCBC" stroke-width="3"/>
<path d="M147.829 94.7405L147.564 86.2594L156.045 85.9937" stroke="#6FCCBC" stroke-width="3"/>
<path d="M201.081 129.17L302.26 116.935" stroke="#6FCCBC" stroke-width="3"/>
<path d="M263.815 115.54L270.492 120.777L265.255 127.453" stroke="#6FCCBC" stroke-width="3"/>
<circle cx="194.168" cy="129.416" r="14.416" fill="#00C895"/>
<circle cx="194.168" cy="129.416" r="17.416" stroke="#00C895" stroke-opacity="0.3" stroke-width="6"/>
<path d="M158.516 170.64C157.804 170.64 157.192 170.524 156.68 170.292C156.168 170.052 155.768 169.688 155.48 169.2C155.192 168.704 155.036 168.088 155.012 167.352C155.004 167.008 155 166.668 155 166.332C155 165.996 155.004 165.652 155.012 165.3C155.036 164.572 155.196 163.964 155.492 163.476C155.788 162.988 156.192 162.62 156.704 162.372C157.224 162.124 157.828 162 158.516 162C159.204 162 159.808 162.124 160.328 162.372C160.848 162.62 161.256 162.988 161.552 163.476C161.848 163.964 162.008 164.572 162.032 165.3C162.048 165.652 162.056 165.996 162.056 166.332C162.056 166.668 162.048 167.008 162.032 167.352C162.008 168.088 161.852 168.704 161.564 169.2C161.276 169.688 160.872 170.052 160.352 170.292C159.84 170.524 159.228 170.64 158.516 170.64ZM158.516 169.26C159.036 169.26 159.46 169.108 159.788 168.804C160.116 168.492 160.292 167.988 160.316 167.292C160.332 166.94 160.34 166.616 160.34 166.32C160.34 166.016 160.332 165.692 160.316 165.348C160.3 164.884 160.212 164.508 160.052 164.22C159.9 163.924 159.692 163.712 159.428 163.584C159.164 163.448 158.86 163.38 158.516 163.38C158.18 163.38 157.88 163.448 157.616 163.584C157.352 163.712 157.14 163.924 156.98 164.22C156.828 164.508 156.744 164.884 156.728 165.348C156.72 165.692 156.716 166.016 156.716 166.32C156.716 166.616 156.72 166.94 156.728 167.292C156.752 167.988 156.928 168.492 157.256 168.804C157.584 169.108 158.004 169.26 158.516 169.26Z" fill="white"/>
<path d="M163.776 170.52C163.696 170.52 163.628 170.492 163.572 170.436C163.516 170.38 163.488 170.312 163.488 170.232V164.58C163.488 164.492 163.516 164.42 163.572 164.364C163.628 164.308 163.696 164.28 163.776 164.28H164.748C164.828 164.28 164.896 164.308 164.952 164.364C165.016 164.42 165.048 164.492 165.048 164.58V165.072C165.232 164.816 165.468 164.62 165.756 164.484C166.052 164.348 166.392 164.28 166.776 164.28H167.268C167.356 164.28 167.424 164.308 167.472 164.364C167.528 164.42 167.556 164.488 167.556 164.568V165.432C167.556 165.512 167.528 165.58 167.472 165.636C167.424 165.692 167.356 165.72 167.268 165.72H166.332C165.948 165.72 165.648 165.828 165.432 166.044C165.224 166.26 165.12 166.556 165.12 166.932V170.232C165.12 170.312 165.092 170.38 165.036 170.436C164.98 170.492 164.908 170.52 164.82 170.52H163.776Z" fill="white"/>
<path d="M170.714 170.64C170.298 170.64 169.93 170.572 169.61 170.436C169.298 170.292 169.038 170.092 168.83 169.836C168.622 169.58 168.462 169.28 168.35 168.936C168.238 168.584 168.174 168.2 168.158 167.784C168.15 167.64 168.146 167.512 168.146 167.4C168.146 167.28 168.15 167.148 168.158 167.004C168.174 166.604 168.234 166.232 168.338 165.888C168.45 165.544 168.61 165.244 168.818 164.988C169.034 164.724 169.298 164.52 169.61 164.376C169.93 164.232 170.298 164.16 170.714 164.16C171.146 164.16 171.51 164.236 171.806 164.388C172.11 164.532 172.362 164.72 172.562 164.952V162.288C172.562 162.208 172.586 162.14 172.634 162.084C172.69 162.028 172.762 162 172.85 162H173.87C173.95 162 174.018 162.028 174.074 162.084C174.13 162.14 174.158 162.208 174.158 162.288V170.232C174.158 170.312 174.13 170.38 174.074 170.436C174.018 170.492 173.95 170.52 173.87 170.52H172.922C172.834 170.52 172.762 170.492 172.706 170.436C172.658 170.38 172.634 170.312 172.634 170.232V169.788C172.434 170.036 172.178 170.24 171.866 170.4C171.562 170.56 171.178 170.64 170.714 170.64ZM171.158 169.356C171.494 169.356 171.762 169.28 171.962 169.128C172.162 168.976 172.31 168.784 172.406 168.552C172.502 168.312 172.554 168.068 172.562 167.82C172.57 167.676 172.574 167.524 172.574 167.364C172.574 167.196 172.57 167.04 172.562 166.896C172.554 166.656 172.498 166.428 172.394 166.212C172.29 165.988 172.138 165.804 171.938 165.66C171.738 165.516 171.478 165.444 171.158 165.444C170.822 165.444 170.554 165.52 170.354 165.672C170.162 165.816 170.022 166.008 169.934 166.248C169.846 166.488 169.794 166.752 169.778 167.04C169.77 167.28 169.77 167.52 169.778 167.76C169.794 168.048 169.846 168.312 169.934 168.552C170.022 168.792 170.162 168.988 170.354 169.14C170.554 169.284 170.822 169.356 171.158 169.356Z" fill="white"/>
<path d="M178.445 170.64C177.557 170.64 176.853 170.384 176.333 169.872C175.813 169.36 175.533 168.632 175.493 167.688C175.485 167.608 175.481 167.508 175.481 167.388C175.481 167.26 175.485 167.16 175.493 167.088C175.525 166.488 175.661 165.968 175.901 165.528C176.149 165.088 176.489 164.752 176.921 164.52C177.353 164.28 177.861 164.16 178.445 164.16C179.093 164.16 179.637 164.296 180.077 164.568C180.517 164.832 180.849 165.204 181.073 165.684C181.297 166.156 181.409 166.704 181.409 167.328V167.58C181.409 167.66 181.381 167.728 181.325 167.784C181.269 167.84 181.197 167.868 181.109 167.868H177.125C177.125 167.868 177.125 167.88 177.125 167.904C177.125 167.928 177.125 167.948 177.125 167.964C177.133 168.244 177.185 168.504 177.281 168.744C177.385 168.976 177.533 169.164 177.725 169.308C177.925 169.452 178.161 169.524 178.433 169.524C178.657 169.524 178.845 169.492 178.997 169.428C179.149 169.356 179.273 169.276 179.369 169.188C179.465 169.1 179.533 169.028 179.573 168.972C179.645 168.876 179.701 168.82 179.741 168.804C179.789 168.78 179.857 168.768 179.945 168.768H180.977C181.057 168.768 181.121 168.792 181.169 168.84C181.225 168.888 181.249 168.948 181.241 169.02C181.233 169.148 181.165 169.304 181.037 169.488C180.917 169.672 180.741 169.852 180.509 170.028C180.277 170.204 179.985 170.352 179.633 170.472C179.289 170.584 178.893 170.64 178.445 170.64ZM177.125 166.86H179.777V166.824C179.777 166.512 179.725 166.24 179.621 166.008C179.517 165.776 179.365 165.592 179.165 165.456C178.965 165.32 178.725 165.252 178.445 165.252C178.165 165.252 177.925 165.32 177.725 165.456C177.525 165.592 177.373 165.776 177.269 166.008C177.173 166.24 177.125 166.512 177.125 166.824V166.86Z" fill="white"/>
<path d="M182.971 170.52C182.891 170.52 182.823 170.492 182.767 170.436C182.711 170.38 182.683 170.312 182.683 170.232V164.58C182.683 164.492 182.711 164.42 182.767 164.364C182.823 164.308 182.891 164.28 182.971 164.28H183.943C184.023 164.28 184.091 164.308 184.147 164.364C184.211 164.42 184.243 164.492 184.243 164.58V165.072C184.427 164.816 184.663 164.62 184.951 164.484C185.247 164.348 185.587 164.28 185.971 164.28H186.463C186.551 164.28 186.619 164.308 186.667 164.364C186.723 164.42 186.751 164.488 186.751 164.568V165.432C186.751 165.512 186.723 165.58 186.667 165.636C186.619 165.692 186.551 165.72 186.463 165.72H185.527C185.143 165.72 184.843 165.828 184.627 166.044C184.419 166.26 184.315 166.556 184.315 166.932V170.232C184.315 170.312 184.287 170.38 184.231 170.436C184.175 170.492 184.103 170.52 184.015 170.52H182.971Z" fill="white"/>
<path d="M193.555 170.64C192.811 170.64 192.179 170.512 191.659 170.256C191.147 169.992 190.755 169.62 190.483 169.14C190.211 168.652 190.059 168.068 190.027 167.388C190.019 167.06 190.015 166.708 190.015 166.332C190.015 165.956 190.019 165.596 190.027 165.252C190.059 164.58 190.211 164 190.483 163.512C190.763 163.024 191.159 162.652 191.671 162.396C192.191 162.132 192.819 162 193.555 162C194.099 162 194.587 162.072 195.019 162.216C195.451 162.36 195.819 162.56 196.123 162.816C196.427 163.064 196.663 163.356 196.831 163.692C196.999 164.028 197.087 164.392 197.095 164.784C197.103 164.856 197.079 164.916 197.023 164.964C196.975 165.012 196.915 165.036 196.843 165.036H195.703C195.615 165.036 195.543 165.016 195.487 164.976C195.431 164.928 195.391 164.852 195.367 164.748C195.239 164.22 195.019 163.86 194.707 163.668C194.395 163.476 194.007 163.38 193.543 163.38C193.007 163.38 192.579 163.532 192.259 163.836C191.939 164.132 191.767 164.624 191.743 165.312C191.719 165.968 191.719 166.64 191.743 167.328C191.767 168.016 191.939 168.512 192.259 168.816C192.579 169.112 193.007 169.26 193.543 169.26C194.007 169.26 194.395 169.164 194.707 168.972C195.019 168.772 195.239 168.412 195.367 167.892C195.391 167.78 195.431 167.704 195.487 167.664C195.543 167.624 195.615 167.604 195.703 167.604H196.843C196.915 167.604 196.975 167.628 197.023 167.676C197.079 167.724 197.103 167.784 197.095 167.856C197.087 168.248 196.999 168.612 196.831 168.948C196.663 169.284 196.427 169.58 196.123 169.836C195.819 170.084 195.451 170.28 195.019 170.424C194.587 170.568 194.099 170.64 193.555 170.64Z" fill="white"/>
<path d="M198.662 170.52C198.582 170.52 198.514 170.492 198.458 170.436C198.402 170.38 198.374 170.312 198.374 170.232V164.58C198.374 164.492 198.402 164.42 198.458 164.364C198.514 164.308 198.582 164.28 198.662 164.28H199.634C199.714 164.28 199.782 164.308 199.838 164.364C199.902 164.42 199.934 164.492 199.934 164.58V165.072C200.118 164.816 200.354 164.62 200.642 164.484C200.938 164.348 201.278 164.28 201.662 164.28H202.154C202.242 164.28 202.31 164.308 202.358 164.364C202.414 164.42 202.442 164.488 202.442 164.568V165.432C202.442 165.512 202.414 165.58 202.358 165.636C202.31 165.692 202.242 165.72 202.154 165.72H201.218C200.834 165.72 200.534 165.828 200.318 166.044C200.11 166.26 200.006 166.556 200.006 166.932V170.232C200.006 170.312 199.978 170.38 199.922 170.436C199.866 170.492 199.794 170.52 199.706 170.52H198.662Z" fill="white"/>
<path d="M205.984 170.64C205.096 170.64 204.392 170.384 203.872 169.872C203.352 169.36 203.072 168.632 203.032 167.688C203.024 167.608 203.02 167.508 203.02 167.388C203.02 167.26 203.024 167.16 203.032 167.088C203.064 166.488 203.2 165.968 203.44 165.528C203.688 165.088 204.028 164.752 204.46 164.52C204.892 164.28 205.4 164.16 205.984 164.16C206.632 164.16 207.176 164.296 207.616 164.568C208.056 164.832 208.388 165.204 208.612 165.684C208.836 166.156 208.948 166.704 208.948 167.328V167.58C208.948 167.66 208.92 167.728 208.864 167.784C208.808 167.84 208.736 167.868 208.648 167.868H204.664C204.664 167.868 204.664 167.88 204.664 167.904C204.664 167.928 204.664 167.948 204.664 167.964C204.672 168.244 204.724 168.504 204.82 168.744C204.924 168.976 205.072 169.164 205.264 169.308C205.464 169.452 205.7 169.524 205.972 169.524C206.196 169.524 206.384 169.492 206.536 169.428C206.688 169.356 206.812 169.276 206.908 169.188C207.004 169.1 207.072 169.028 207.112 168.972C207.184 168.876 207.24 168.82 207.28 168.804C207.328 168.78 207.396 168.768 207.484 168.768H208.516C208.596 168.768 208.66 168.792 208.708 168.84C208.764 168.888 208.788 168.948 208.78 169.02C208.772 169.148 208.704 169.304 208.576 169.488C208.456 169.672 208.28 169.852 208.048 170.028C207.816 170.204 207.524 170.352 207.172 170.472C206.828 170.584 206.432 170.64 205.984 170.64ZM204.664 166.86H207.316V166.824C207.316 166.512 207.264 166.24 207.16 166.008C207.056 165.776 206.904 165.592 206.704 165.456C206.504 165.32 206.264 165.252 205.984 165.252C205.704 165.252 205.464 165.32 205.264 165.456C205.064 165.592 204.912 165.776 204.808 166.008C204.712 166.24 204.664 166.512 204.664 166.824V166.86Z" fill="white"/>
<path d="M212.034 170.64C211.618 170.64 211.242 170.56 210.906 170.4C210.57 170.232 210.302 170.012 210.102 169.74C209.91 169.46 209.814 169.148 209.814 168.804C209.814 168.244 210.038 167.8 210.486 167.472C210.942 167.136 211.542 166.912 212.286 166.8L213.93 166.56V166.308C213.93 165.972 213.846 165.712 213.678 165.528C213.51 165.344 213.222 165.252 212.814 165.252C212.526 165.252 212.29 165.312 212.106 165.432C211.93 165.544 211.798 165.696 211.71 165.888C211.646 165.992 211.554 166.044 211.434 166.044H210.486C210.398 166.044 210.33 166.02 210.282 165.972C210.242 165.924 210.222 165.86 210.222 165.78C210.23 165.652 210.282 165.496 210.378 165.312C210.474 165.128 210.626 164.952 210.834 164.784C211.042 164.608 211.31 164.46 211.638 164.34C211.966 164.22 212.362 164.16 212.826 164.16C213.33 164.16 213.754 164.224 214.098 164.352C214.45 164.472 214.73 164.636 214.938 164.844C215.146 165.052 215.298 165.296 215.394 165.576C215.49 165.856 215.538 166.152 215.538 166.464V170.232C215.538 170.312 215.51 170.38 215.454 170.436C215.398 170.492 215.33 170.52 215.25 170.52H214.278C214.19 170.52 214.118 170.492 214.062 170.436C214.014 170.38 213.99 170.312 213.99 170.232V169.764C213.886 169.916 213.746 170.06 213.57 170.196C213.394 170.324 213.178 170.432 212.922 170.52C212.674 170.6 212.378 170.64 212.034 170.64ZM212.442 169.5C212.722 169.5 212.974 169.44 213.198 169.32C213.43 169.2 213.61 169.016 213.738 168.768C213.874 168.512 213.942 168.192 213.942 167.808V167.556L212.742 167.748C212.27 167.82 211.918 167.936 211.686 168.096C211.454 168.256 211.338 168.452 211.338 168.684C211.338 168.86 211.39 169.012 211.494 169.14C211.606 169.26 211.746 169.352 211.914 169.416C212.082 169.472 212.258 169.5 212.442 169.5Z" fill="white"/>
<path d="M219.839 170.52C219.359 170.52 218.955 170.436 218.627 170.268C218.299 170.1 218.055 169.852 217.895 169.524C217.735 169.188 217.655 168.772 217.655 168.276V165.552H216.707C216.627 165.552 216.559 165.524 216.503 165.468C216.447 165.412 216.419 165.344 216.419 165.264V164.568C216.419 164.488 216.447 164.42 216.503 164.364C216.559 164.308 216.627 164.28 216.707 164.28H217.655V162.288C217.655 162.208 217.679 162.14 217.727 162.084C217.783 162.028 217.855 162 217.943 162H218.915C218.995 162 219.063 162.028 219.119 162.084C219.175 162.14 219.203 162.208 219.203 162.288V164.28H220.703C220.783 164.28 220.851 164.308 220.907 164.364C220.963 164.42 220.991 164.488 220.991 164.568V165.264C220.991 165.344 220.963 165.412 220.907 165.468C220.851 165.524 220.783 165.552 220.703 165.552H219.203V168.156C219.203 168.484 219.259 168.74 219.371 168.924C219.491 169.108 219.695 169.2 219.983 169.2H220.811C220.891 169.2 220.959 169.228 221.015 169.284C221.071 169.34 221.099 169.408 221.099 169.488V170.232C221.099 170.312 221.071 170.38 221.015 170.436C220.959 170.492 220.891 170.52 220.811 170.52H219.839Z" fill="white"/>
<path d="M224.852 170.64C223.964 170.64 223.26 170.384 222.74 169.872C222.22 169.36 221.94 168.632 221.9 167.688C221.892 167.608 221.888 167.508 221.888 167.388C221.888 167.26 221.892 167.16 221.9 167.088C221.932 166.488 222.068 165.968 222.308 165.528C222.556 165.088 222.896 164.752 223.328 164.52C223.76 164.28 224.268 164.16 224.852 164.16C225.5 164.16 226.044 164.296 226.484 164.568C226.924 164.832 227.256 165.204 227.48 165.684C227.704 166.156 227.816 166.704 227.816 167.328V167.58C227.816 167.66 227.788 167.728 227.732 167.784C227.676 167.84 227.604 167.868 227.516 167.868H223.532C223.532 167.868 223.532 167.88 223.532 167.904C223.532 167.928 223.532 167.948 223.532 167.964C223.54 168.244 223.592 168.504 223.688 168.744C223.792 168.976 223.94 169.164 224.132 169.308C224.332 169.452 224.568 169.524 224.84 169.524C225.064 169.524 225.252 169.492 225.404 169.428C225.556 169.356 225.68 169.276 225.776 169.188C225.872 169.1 225.94 169.028 225.98 168.972C226.052 168.876 226.108 168.82 226.148 168.804C226.196 168.78 226.264 168.768 226.352 168.768H227.384C227.464 168.768 227.528 168.792 227.576 168.84C227.632 168.888 227.656 168.948 227.648 169.02C227.64 169.148 227.572 169.304 227.444 169.488C227.324 169.672 227.148 169.852 226.916 170.028C226.684 170.204 226.392 170.352 226.04 170.472C225.696 170.584 225.3 170.64 224.852 170.64ZM223.532 166.86H226.184V166.824C226.184 166.512 226.132 166.24 226.028 166.008C225.924 165.776 225.772 165.592 225.572 165.456C225.372 165.32 225.132 165.252 224.852 165.252C224.572 165.252 224.332 165.32 224.132 165.456C223.932 165.592 223.78 165.776 223.676 166.008C223.58 166.24 223.532 166.512 223.532 166.824V166.86Z" fill="white"/>
<path d="M231.405 170.64C230.989 170.64 230.621 170.572 230.301 170.436C229.989 170.292 229.729 170.092 229.521 169.836C229.313 169.58 229.153 169.28 229.041 168.936C228.929 168.584 228.865 168.2 228.849 167.784C228.841 167.64 228.837 167.512 228.837 167.4C228.837 167.28 228.841 167.148 228.849 167.004C228.865 166.604 228.925 166.232 229.029 165.888C229.141 165.544 229.301 165.244 229.509 164.988C229.725 164.724 229.989 164.52 230.301 164.376C230.621 164.232 230.989 164.16 231.405 164.16C231.837 164.16 232.201 164.236 232.497 164.388C232.801 164.532 233.053 164.72 233.253 164.952V162.288C233.253 162.208 233.277 162.14 233.325 162.084C233.381 162.028 233.453 162 233.541 162H234.561C234.641 162 234.709 162.028 234.765 162.084C234.821 162.14 234.849 162.208 234.849 162.288V170.232C234.849 170.312 234.821 170.38 234.765 170.436C234.709 170.492 234.641 170.52 234.561 170.52H233.613C233.525 170.52 233.453 170.492 233.397 170.436C233.349 170.38 233.325 170.312 233.325 170.232V169.788C233.125 170.036 232.869 170.24 232.557 170.4C232.253 170.56 231.869 170.64 231.405 170.64ZM231.849 169.356C232.185 169.356 232.453 169.28 232.653 169.128C232.853 168.976 233.001 168.784 233.097 168.552C233.193 168.312 233.245 168.068 233.253 167.82C233.261 167.676 233.265 167.524 233.265 167.364C233.265 167.196 233.261 167.04 233.253 166.896C233.245 166.656 233.189 166.428 233.085 166.212C232.981 165.988 232.829 165.804 232.629 165.66C232.429 165.516 232.169 165.444 231.849 165.444C231.513 165.444 231.245 165.52 231.045 165.672C230.853 165.816 230.713 166.008 230.625 166.248C230.537 166.488 230.485 166.752 230.469 167.04C230.461 167.28 230.461 167.52 230.469 167.76C230.485 168.048 230.537 168.312 230.625 168.552C230.713 168.792 230.853 168.988 231.045 169.14C231.245 169.284 231.513 169.356 231.849 169.356Z" fill="white"/>
<path d="M114.273 191C114.273 204.807 103.081 216 89.2734 216C75.4663 216 64.2734 204.807 64.2734 191C64.2734 177.193 75.4663 166 89.2734 166C103.081 166 114.273 177.193 114.273 191Z" fill="white"/>
<path d="M89.2734 217.5C103.909 217.5 115.773 205.636 115.773 191C115.773 176.364 103.909 164.5 89.2734 164.5C74.6379 164.5 62.7734 176.364 62.7734 191C62.7734 205.636 74.6379 217.5 89.2734 217.5Z" stroke="white" stroke-opacity="0.35" stroke-width="3"/>
<path fill-rule="evenodd" clip-rule="evenodd" d="M89.2734 211.714C100.714 211.714 109.988 202.44 109.988 191C109.988 179.56 100.714 170.286 89.2734 170.286C77.8333 170.286 68.5592 179.56 68.5592 191C68.5592 202.44 77.8333 211.714 89.2734 211.714ZM89.2734 216C103.081 216 114.273 204.807 114.273 191C114.273 177.193 103.081 166 89.2734 166C75.4663 166 64.2734 177.193 64.2734 191C64.2734 204.807 75.4663 216 89.2734 216Z" fill="#145B5B"/>
<path d="M103.557 191.002C103.557 198.892 97.1612 205.288 89.2714 205.288C81.3816 205.288 74.9857 198.892 74.9857 191.002C74.9857 183.112 81.3816 176.716 89.2714 176.716C97.1612 176.716 103.557 183.112 103.557 191.002Z" fill="#145B5B" fill-opacity="0.3"/>
<path d="M50.516 239.832C49.804 239.832 49.192 239.716 48.68 239.484C48.168 239.244 47.768 238.88 47.48 238.392C47.192 237.896 47.036 237.28 47.012 236.544C47.004 236.2 47 235.86 47 235.524C47 235.188 47.004 234.844 47.012 234.492C47.036 233.764 47.196 233.156 47.492 232.668C47.788 232.18 48.192 231.812 48.704 231.564C49.224 231.316 49.828 231.192 50.516 231.192C51.204 231.192 51.808 231.316 52.328 231.564C52.848 231.812 53.256 232.18 53.552 232.668C53.848 233.156 54.008 233.764 54.032 234.492C54.048 234.844 54.056 235.188 54.056 235.524C54.056 235.86 54.048 236.2 54.032 236.544C54.008 237.28 53.852 237.896 53.564 238.392C53.276 238.88 52.872 239.244 52.352 239.484C51.84 239.716 51.228 239.832 50.516 239.832ZM50.516 238.452C51.036 238.452 51.46 238.3 51.788 237.996C52.116 237.684 52.292 237.18 52.316 236.484C52.332 236.132 52.34 235.808 52.34 235.512C52.34 235.208 52.332 234.884 52.316 234.54C52.3 234.076 52.212 233.7 52.052 233.412C51.9 233.116 51.692 232.904 51.428 232.776C51.164 232.64 50.86 232.572 50.516 232.572C50.18 232.572 49.88 232.64 49.616 232.776C49.352 232.904 49.14 233.116 48.98 233.412C48.828 233.7 48.744 234.076 48.728 234.54C48.72 234.884 48.716 235.208 48.716 235.512C48.716 235.808 48.72 236.132 48.728 236.484C48.752 237.18 48.928 237.684 49.256 237.996C49.584 238.3 50.004 238.452 50.516 238.452Z" fill="white"/>
<path d="M55.7758 239.712C55.6958 239.712 55.6278 239.684 55.5718 239.628C55.5158 239.572 55.4878 239.504 55.4878 239.424V233.772C55.4878 233.684 55.5158 233.612 55.5718 233.556C55.6278 233.5 55.6958 233.472 55.7758 233.472H56.7478C56.8278 233.472 56.8958 233.5 56.9518 233.556C57.0158 233.612 57.0478 233.684 57.0478 233.772V234.264C57.2318 234.008 57.4678 233.812 57.7558 233.676C58.0518 233.54 58.3918 233.472 58.7758 233.472H59.2678C59.3558 233.472 59.4238 233.5 59.4718 233.556C59.5278 233.612 59.5558 233.68 59.5558 233.76V234.624C59.5558 234.704 59.5278 234.772 59.4718 234.828C59.4238 234.884 59.3558 234.912 59.2678 234.912H58.3317C57.9478 234.912 57.6478 235.02 57.4318 235.236C57.2238 235.452 57.1198 235.748 57.1198 236.124V239.424C57.1198 239.504 57.0918 239.572 57.0358 239.628C56.9798 239.684 56.9077 239.712 56.8197 239.712H55.7758Z" fill="white"/>
<path d="M62.7139 239.832C62.2979 239.832 61.9299 239.764 61.6099 239.628C61.2979 239.484 61.0379 239.284 60.8299 239.028C60.6219 238.772 60.4619 238.472 60.3499 238.128C60.2379 237.776 60.1739 237.392 60.1579 236.976C60.1499 236.832 60.1459 236.704 60.1459 236.592C60.1459 236.472 60.1499 236.34 60.1579 236.196C60.1739 235.796 60.2339 235.424 60.3379 235.08C60.4499 234.736 60.6099 234.436 60.8179 234.18C61.0339 233.916 61.2979 233.712 61.6099 233.568C61.9299 233.424 62.2979 233.352 62.7139 233.352C63.1459 233.352 63.5099 233.428 63.8059 233.58C64.1099 233.724 64.3619 233.912 64.5619 234.144V231.48C64.5619 231.4 64.5859 231.332 64.6339 231.276C64.6899 231.22 64.7619 231.192 64.8499 231.192H65.8699C65.9499 231.192 66.0179 231.22 66.0739 231.276C66.1299 231.332 66.1579 231.4 66.1579 231.48V239.424C66.1579 239.504 66.1299 239.572 66.0739 239.628C66.0179 239.684 65.9499 239.712 65.8699 239.712H64.9219C64.8339 239.712 64.7619 239.684 64.7059 239.628C64.6579 239.572 64.6339 239.504 64.6339 239.424V238.98C64.4339 239.228 64.1779 239.432 63.8659 239.592C63.5619 239.752 63.1779 239.832 62.7139 239.832ZM63.1579 238.548C63.4939 238.548 63.7619 238.472 63.9619 238.32C64.1619 238.168 64.3099 237.976 64.4059 237.744C64.5019 237.504 64.5539 237.26 64.5619 237.012C64.5699 236.868 64.5739 236.716 64.5739 236.556C64.5739 236.388 64.5699 236.232 64.5619 236.088C64.5539 235.848 64.4979 235.62 64.3939 235.404C64.2899 235.18 64.1379 234.996 63.9379 234.852C63.7379 234.708 63.4779 234.636 63.1579 234.636C62.8219 234.636 62.5539 234.712 62.3539 234.864C62.1619 235.008 62.0219 235.2 61.9339 235.44C61.8459 235.68 61.7939 235.944 61.7779 236.232C61.7699 236.472 61.7699 236.712 61.7779 236.952C61.7939 237.24 61.8459 237.504 61.9339 237.744C62.0219 237.984 62.1619 238.18 62.3539 238.332C62.5539 238.476 62.8219 238.548 63.1579 238.548Z" fill="white"/>
<path d="M70.4453 239.832C69.5573 239.832 68.8533 239.576 68.3333 239.064C67.8133 238.552 67.5333 237.824 67.4933 236.88C67.4853 236.8 67.4813 236.7 67.4813 236.58C67.4813 236.452 67.4853 236.352 67.4933 236.28C67.5253 235.68 67.6613 235.16 67.9013 234.72C68.1493 234.28 68.4893 233.944 68.9213 233.712C69.3533 233.472 69.8613 233.352 70.4453 233.352C71.0933 233.352 71.6373 233.488 72.0773 233.76C72.5173 234.024 72.8493 234.396 73.0733 234.876C73.2973 235.348 73.4093 235.896 73.4093 236.52V236.772C73.4093 236.852 73.3813 236.92 73.3253 236.976C73.2693 237.032 73.1973 237.06 73.1093 237.06H69.1253C69.1253 237.06 69.1253 237.072 69.1253 237.096C69.1253 237.12 69.1253 237.14 69.1253 237.156C69.1333 237.436 69.1853 237.696 69.2813 237.936C69.3853 238.168 69.5333 238.356 69.7253 238.5C69.9253 238.644 70.1613 238.716 70.4333 238.716C70.6573 238.716 70.8453 238.684 70.9973 238.62C71.1493 238.548 71.2733 238.468 71.3693 238.38C71.4653 238.292 71.5333 238.22 71.5733 238.164C71.6453 238.068 71.7013 238.012 71.7413 237.996C71.7893 237.972 71.8573 237.96 71.9453 237.96H72.9773C73.0573 237.96 73.1213 237.984 73.1693 238.032C73.2253 238.08 73.2493 238.14 73.2413 238.212C73.2333 238.34 73.1653 238.496 73.0373 238.68C72.9173 238.864 72.7413 239.044 72.5093 239.22C72.2773 239.396 71.9853 239.544 71.6333 239.664C71.2893 239.776 70.8933 239.832 70.4453 239.832ZM69.1253 236.052H71.7773V236.016C71.7773 235.704 71.7253 235.432 71.6213 235.2C71.5173 234.968 71.3653 234.784 71.1653 234.648C70.9653 234.512 70.7253 234.444 70.4453 234.444C70.1653 234.444 69.9253 234.512 69.7253 234.648C69.5253 234.784 69.3733 234.968 69.2693 235.2C69.1733 235.432 69.1253 235.704 69.1253 236.016V236.052Z" fill="white"/>
<path d="M74.9711 239.712C74.8911 239.712 74.8231 239.684 74.7671 239.628C74.7111 239.572 74.6831 239.504 74.6831 239.424V233.772C74.6831 233.684 74.7111 233.612 74.7671 233.556C74.8231 233.5 74.8911 233.472 74.9711 233.472H75.9431C76.0231 233.472 76.0911 233.5 76.1471 233.556C76.2111 233.612 76.2431 233.684 76.2431 233.772V234.264C76.4271 234.008 76.6631 233.812 76.9511 233.676C77.2471 233.54 77.5871 233.472 77.9711 233.472H78.4631C78.5511 233.472 78.6191 233.5 78.6671 233.556C78.7231 233.612 78.7511 233.68 78.7511 233.76V234.624C78.7511 234.704 78.7231 234.772 78.6671 234.828C78.6191 234.884 78.5511 234.912 78.4631 234.912H77.5271C77.1431 234.912 76.8431 235.02 76.6271 235.236C76.4191 235.452 76.3151 235.748 76.3151 236.124V239.424C76.3151 239.504 76.2871 239.572 76.2311 239.628C76.1751 239.684 76.1031 239.712 76.0151 239.712H74.9711Z" fill="white"/>
<path d="M82.051 239.832C81.571 239.832 81.159 239.776 80.815 239.664C80.479 239.552 80.203 239.412 79.987 239.244C79.771 239.076 79.611 238.908 79.507 238.74C79.403 238.572 79.347 238.432 79.339 238.32C79.331 238.232 79.355 238.164 79.411 238.116C79.475 238.06 79.543 238.032 79.615 238.032H80.563C80.595 238.032 80.623 238.036 80.647 238.044C80.671 238.052 80.703 238.076 80.743 238.116C80.847 238.204 80.955 238.296 81.067 238.392C81.187 238.488 81.327 238.572 81.487 238.644C81.647 238.708 81.847 238.74 82.087 238.74C82.399 238.74 82.659 238.68 82.867 238.56C83.083 238.432 83.191 238.252 83.191 238.02C83.191 237.852 83.143 237.716 83.047 237.612C82.959 237.508 82.791 237.416 82.543 237.336C82.295 237.248 81.943 237.156 81.487 237.06C81.039 236.956 80.667 236.824 80.371 236.664C80.075 236.504 79.855 236.304 79.711 236.064C79.567 235.824 79.495 235.544 79.495 235.224C79.495 234.912 79.587 234.616 79.771 234.336C79.963 234.048 80.243 233.812 80.611 233.628C80.987 233.444 81.451 233.352 82.003 233.352C82.435 233.352 82.811 233.408 83.131 233.52C83.451 233.624 83.715 233.756 83.923 233.916C84.139 234.076 84.303 234.24 84.415 234.408C84.527 234.568 84.587 234.708 84.595 234.828C84.603 234.916 84.579 234.988 84.523 235.044C84.467 235.092 84.403 235.116 84.331 235.116H83.443C83.403 235.116 83.367 235.108 83.335 235.092C83.303 235.076 83.271 235.056 83.239 235.032C83.151 234.952 83.055 234.868 82.951 234.78C82.847 234.692 82.719 234.616 82.567 234.552C82.423 234.48 82.231 234.444 81.991 234.444C81.687 234.444 81.455 234.512 81.295 234.648C81.135 234.776 81.055 234.94 81.055 235.14C81.055 235.276 81.091 235.396 81.163 235.5C81.243 235.596 81.399 235.688 81.631 235.776C81.863 235.864 82.215 235.956 82.687 236.052C83.223 236.148 83.647 236.292 83.959 236.484C84.279 236.668 84.503 236.884 84.631 237.132C84.767 237.372 84.835 237.64 84.835 237.936C84.835 238.296 84.727 238.62 84.511 238.908C84.303 239.196 83.991 239.424 83.575 239.592C83.167 239.752 82.659 239.832 82.051 239.832Z" fill="white"/>
<path d="M91.8759 239.832C91.1319 239.832 90.5079 239.724 90.0039 239.508C89.5079 239.284 89.1279 238.996 88.8639 238.644C88.6079 238.284 88.4719 237.908 88.4559 237.516C88.4559 237.444 88.4799 237.384 88.5279 237.336C88.5759 237.288 88.6359 237.264 88.7079 237.264H89.7759C89.8799 237.264 89.9559 237.288 90.0039 237.336C90.0599 237.376 90.1079 237.428 90.1479 237.492C90.1959 237.644 90.2879 237.796 90.4239 237.948C90.5599 238.092 90.7439 238.212 90.9759 238.308C91.2159 238.404 91.5159 238.452 91.8759 238.452C92.4519 238.452 92.8799 238.356 93.1599 238.164C93.4479 237.972 93.5919 237.712 93.5919 237.384C93.5919 237.152 93.5159 236.968 93.3639 236.832C93.2119 236.688 92.9759 236.56 92.6559 236.448C92.3439 236.328 91.9279 236.204 91.4079 236.076C90.8079 235.932 90.3039 235.76 89.8959 235.56C89.4959 235.352 89.1919 235.092 88.9839 234.78C88.7839 234.468 88.6839 234.072 88.6839 233.592C88.6839 233.128 88.8079 232.716 89.0559 232.356C89.3119 231.996 89.6719 231.712 90.1359 231.504C90.6079 231.296 91.1679 231.192 91.8159 231.192C92.3359 231.192 92.7959 231.264 93.1959 231.408C93.5959 231.544 93.9279 231.728 94.1919 231.96C94.4559 232.184 94.6559 232.428 94.7919 232.692C94.9359 232.948 95.0119 233.2 95.0199 233.448C95.0199 233.512 94.9959 233.572 94.9479 233.628C94.9079 233.676 94.8479 233.7 94.7679 233.7H93.6519C93.5879 233.7 93.5239 233.684 93.4599 233.652C93.3959 233.62 93.3439 233.56 93.3039 233.472C93.2559 233.224 93.0999 233.012 92.8359 232.836C92.5719 232.66 92.2319 232.572 91.8159 232.572C91.3839 232.572 91.0359 232.652 90.7719 232.812C90.5079 232.972 90.3759 233.22 90.3759 233.556C90.3759 233.78 90.4399 233.968 90.5679 234.12C90.7039 234.264 90.9159 234.392 91.2039 234.504C91.4999 234.616 91.8879 234.736 92.3679 234.864C93.0479 235.016 93.6039 235.192 94.0359 235.392C94.4679 235.592 94.7839 235.848 94.9839 236.16C95.1839 236.464 95.2839 236.852 95.2839 237.324C95.2839 237.852 95.1399 238.304 94.8519 238.68C94.5719 239.048 94.1759 239.332 93.6639 239.532C93.1519 239.732 92.5559 239.832 91.8759 239.832Z" fill="white"/>
<path d="M99.2031 239.832C98.3151 239.832 97.6111 239.576 97.0911 239.064C96.5711 238.552 96.2911 237.824 96.2511 236.88C96.2431 236.8 96.2391 236.7 96.2391 236.58C96.2391 236.452 96.2431 236.352 96.2511 236.28C96.2831 235.68 96.4191 235.16 96.6591 234.72C96.9071 234.28 97.2471 233.944 97.6791 233.712C98.1111 233.472 98.6191 233.352 99.2031 233.352C99.8511 233.352 100.395 233.488 100.835 233.76C101.275 234.024 101.607 234.396 101.831 234.876C102.055 235.348 102.167 235.896 102.167 236.52V236.772C102.167 236.852 102.139 236.92 102.083 236.976C102.027 237.032 101.955 237.06 101.867 237.06H97.8831C97.8831 237.06 97.8831 237.072 97.8831 237.096C97.8831 237.12 97.8831 237.14 97.8831 237.156C97.8911 237.436 97.9431 237.696 98.0391 237.936C98.1431 238.168 98.2911 238.356 98.4831 238.5C98.6831 238.644 98.9191 238.716 99.1911 238.716C99.4151 238.716 99.6031 238.684 99.7551 238.62C99.9071 238.548 100.031 238.468 100.127 238.38C100.223 238.292 100.291 238.22 100.331 238.164C100.403 238.068 100.459 238.012 100.499 237.996C100.547 237.972 100.615 237.96 100.703 237.96H101.735C101.815 237.96 101.879 237.984 101.927 238.032C101.983 238.08 102.007 238.14 101.999 238.212C101.991 238.34 101.923 238.496 101.795 238.68C101.675 238.864 101.499 239.044 101.267 239.22C101.035 239.396 100.743 239.544 100.391 239.664C100.047 239.776 99.6511 239.832 99.2031 239.832ZM97.8831 236.052H100.535V236.016C100.535 235.704 100.483 235.432 100.379 235.2C100.275 234.968 100.123 234.784 99.9231 234.648C99.7231 234.512 99.4831 234.444 99.2031 234.444C98.9231 234.444 98.6831 234.512 98.4831 234.648C98.2831 234.784 98.1311 234.968 98.0271 235.2C97.9311 235.432 97.8831 235.704 97.8831 236.016V236.052Z" fill="white"/>
<path d="M103.729 239.712C103.649 239.712 103.581 239.684 103.525 239.628C103.469 239.572 103.441 239.504 103.441 239.424V233.772C103.441 233.684 103.469 233.612 103.525 233.556C103.581 233.5 103.649 233.472 103.729 233.472H104.701C104.781 233.472 104.849 233.5 104.905 233.556C104.969 233.612 105.001 233.684 105.001 233.772V234.264C105.185 234.008 105.421 233.812 105.709 233.676C106.005 233.54 106.345 233.472 106.729 233.472H107.221C107.309 233.472 107.377 233.5 107.425 233.556C107.481 233.612 107.509 233.68 107.509 233.76V234.624C107.509 234.704 107.481 234.772 107.425 234.828C107.377 234.884 107.309 234.912 107.221 234.912H106.285C105.901 234.912 105.601 235.02 105.385 235.236C105.177 235.452 105.073 235.748 105.073 236.124V239.424C105.073 239.504 105.045 239.572 104.989 239.628C104.933 239.684 104.861 239.712 104.773 239.712H103.729Z" fill="white"/>
<path d="M110.653 239.712C110.525 239.712 110.429 239.684 110.365 239.628C110.309 239.564 110.261 239.492 110.221 239.412L107.977 233.844C107.961 233.804 107.953 233.768 107.953 233.736C107.953 233.664 107.977 233.604 108.025 233.556C108.081 233.5 108.145 233.472 108.217 233.472H109.189C109.285 233.472 109.357 233.5 109.405 233.556C109.453 233.604 109.485 233.652 109.501 233.7L111.097 237.912L112.693 233.7C112.709 233.652 112.741 233.604 112.789 233.556C112.837 233.5 112.909 233.472 113.005 233.472H113.989C114.053 233.472 114.109 233.5 114.157 233.556C114.213 233.604 114.241 233.664 114.241 233.736C114.241 233.768 114.237 233.804 114.229 233.844L111.973 239.412C111.941 239.492 111.893 239.564 111.829 239.628C111.765 239.684 111.669 239.712 111.541 239.712H110.653Z" fill="white"/>
<path d="M115.623 239.712C115.543 239.712 115.475 239.684 115.419 239.628C115.363 239.572 115.335 239.504 115.335 239.424V233.76C115.335 233.68 115.363 233.612 115.419 233.556C115.475 233.5 115.543 233.472 115.623 233.472H116.619C116.707 233.472 116.775 233.5 116.823 233.556C116.879 233.612 116.907 233.68 116.907 233.76V239.424C116.907 239.504 116.879 239.572 116.823 239.628C116.775 239.684 116.707 239.712 116.619 239.712H115.623ZM115.575 232.44C115.487 232.44 115.415 232.416 115.359 232.368C115.311 232.312 115.287 232.24 115.287 232.152V231.288C115.287 231.208 115.311 231.14 115.359 231.084C115.415 231.028 115.487 231 115.575 231H116.667C116.755 231 116.827 231.028 116.883 231.084C116.939 231.14 116.967 231.208 116.967 231.288V232.152C116.967 232.24 116.939 232.312 116.883 232.368C116.827 232.416 116.755 232.44 116.667 232.44H115.575Z" fill="white"/>
<path d="M121.235 239.832C120.659 239.832 120.151 239.724 119.711 239.508C119.279 239.292 118.939 238.98 118.691 238.572C118.451 238.156 118.319 237.656 118.295 237.072C118.287 236.952 118.283 236.796 118.283 236.604C118.283 236.404 118.287 236.24 118.295 236.112C118.319 235.528 118.451 235.032 118.691 234.624C118.939 234.208 119.279 233.892 119.711 233.676C120.151 233.46 120.659 233.352 121.235 233.352C121.747 233.352 122.183 233.424 122.543 233.568C122.903 233.712 123.199 233.892 123.431 234.108C123.663 234.324 123.835 234.552 123.947 234.792C124.067 235.024 124.131 235.236 124.139 235.428C124.147 235.516 124.119 235.588 124.055 235.644C123.999 235.692 123.931 235.716 123.851 235.716H122.795C122.715 235.716 122.651 235.696 122.603 235.656C122.563 235.616 122.523 235.556 122.483 235.476C122.363 235.156 122.203 234.932 122.003 234.804C121.811 234.668 121.563 234.6 121.259 234.6C120.859 234.6 120.539 234.728 120.299 234.984C120.067 235.232 119.943 235.628 119.927 236.172C119.911 236.476 119.911 236.756 119.927 237.012C119.943 237.564 120.067 237.964 120.299 238.212C120.539 238.46 120.859 238.584 121.259 238.584C121.571 238.584 121.823 238.52 122.015 238.392C122.207 238.256 122.363 238.028 122.483 237.708C122.523 237.628 122.563 237.568 122.603 237.528C122.651 237.488 122.715 237.468 122.795 237.468H123.851C123.931 237.468 123.999 237.496 124.055 237.552C124.119 237.6 124.147 237.668 124.139 237.756C124.131 237.9 124.091 238.064 124.019 238.248C123.955 238.424 123.847 238.608 123.695 238.8C123.551 238.984 123.367 239.156 123.143 239.316C122.919 239.468 122.647 239.592 122.327 239.688C122.015 239.784 121.651 239.832 121.235 239.832Z" fill="white"/>
<path d="M128.078 239.832C127.19 239.832 126.486 239.576 125.966 239.064C125.446 238.552 125.166 237.824 125.126 236.88C125.118 236.8 125.114 236.7 125.114 236.58C125.114 236.452 125.118 236.352 125.126 236.28C125.158 235.68 125.294 235.16 125.534 234.72C125.782 234.28 126.122 233.944 126.554 233.712C126.986 233.472 127.494 233.352 128.078 233.352C128.726 233.352 129.27 233.488 129.71 233.76C130.15 234.024 130.482 234.396 130.706 234.876C130.93 235.348 131.042 235.896 131.042 236.52V236.772C131.042 236.852 131.014 236.92 130.958 236.976C130.902 237.032 130.83 237.06 130.742 237.06H126.758C126.758 237.06 126.758 237.072 126.758 237.096C126.758 237.12 126.758 237.14 126.758 237.156C126.766 237.436 126.818 237.696 126.914 237.936C127.018 238.168 127.166 238.356 127.358 238.5C127.558 238.644 127.794 238.716 128.066 238.716C128.29 238.716 128.478 238.684 128.63 238.62C128.782 238.548 128.906 238.468 129.002 238.38C129.098 238.292 129.166 238.22 129.206 238.164C129.278 238.068 129.334 238.012 129.374 237.996C129.422 237.972 129.49 237.96 129.578 237.96H130.61C130.69 237.96 130.754 237.984 130.802 238.032C130.858 238.08 130.882 238.14 130.874 238.212C130.866 238.34 130.798 238.496 130.67 238.68C130.55 238.864 130.374 239.044 130.142 239.22C129.91 239.396 129.618 239.544 129.266 239.664C128.922 239.776 128.526 239.832 128.078 239.832ZM126.758 236.052H129.41V236.016C129.41 235.704 129.358 235.432 129.254 235.2C129.15 234.968 128.998 234.784 128.798 234.648C128.598 234.512 128.358 234.444 128.078 234.444C127.798 234.444 127.558 234.512 127.358 234.648C127.158 234.784 127.006 234.968 126.902 235.2C126.806 235.432 126.758 235.704 126.758 236.016V236.052Z" fill="white"/>
<circle cx="253.467" cy="30.416" r="14.416" fill="#165E64"/>
<circle cx="268.467" cy="225.416" r="14.416" fill="#165E64"/>
<circle cx="30.416" cy="95.416" r="14.416" fill="#165E64"/>
<path d="M134.348 55C134.348 68.8071 123.155 80 109.348 80C95.5405 80 84.3477 68.8071 84.3477 55C84.3477 41.1929 95.5405 30 109.348 30C123.155 30 134.348 41.1929 134.348 55Z" fill="white"/>
<path d="M109.348 81.5C123.983 81.5 135.848 69.6355 135.848 55C135.848 40.3645 123.983 28.5 109.348 28.5C94.7121 28.5 82.8477 40.3645 82.8477 55C82.8477 69.6355 94.7121 81.5 109.348 81.5Z" stroke="white" stroke-opacity="0.35" stroke-width="3"/>
<path fill-rule="evenodd" clip-rule="evenodd" d="M109.348 75.7143C120.788 75.7143 130.062 66.4402 130.062 55C130.062 43.5598 120.788 34.2857 109.348 34.2857C97.9075 34.2857 88.6334 43.5598 88.6334 55C88.6334 66.4402 97.9075 75.7143 109.348 75.7143ZM109.348 80C123.155 80 134.348 68.8071 134.348 55C134.348 41.1929 123.155 30 109.348 30C95.5405 30 84.3477 41.1929 84.3477 55C84.3477 68.8071 95.5405 80 109.348 80Z" fill="#145B5B"/>
<path d="M123.631 55.0019C123.631 62.8917 117.235 69.2876 109.346 69.2876C101.456 69.2876 95.0599 62.8917 95.0599 55.0019C95.0599 47.1121 101.456 40.7162 109.346 40.7162C117.235 40.7162 123.631 47.1121 123.631 55.0019Z" fill="#145B5B" fill-opacity="0.3"/>
<path d="M73.288 104.875C73.208 104.875 73.14 104.847 73.084 104.791C73.028 104.735 73 104.667 73 104.587V96.7747C73 96.6867 73.028 96.6147 73.084 96.5587C73.14 96.5027 73.208 96.4747 73.288 96.4747H78.568C78.656 96.4747 78.728 96.5027 78.784 96.5587C78.84 96.6147 78.868 96.6867 78.868 96.7747V97.5667C78.868 97.6467 78.84 97.7147 78.784 97.7707C78.728 97.8267 78.656 97.8547 78.568 97.8547H74.62V99.9787H78.304C78.392 99.9787 78.464 100.007 78.52 100.063C78.576 100.111 78.604 100.179 78.604 100.267V101.011C78.604 101.099 78.576 101.171 78.52 101.227C78.464 101.275 78.392 101.299 78.304 101.299H74.62V103.495H78.664C78.752 103.495 78.824 103.523 78.88 103.579C78.936 103.635 78.964 103.707 78.964 103.795V104.587C78.964 104.667 78.936 104.735 78.88 104.791C78.824 104.847 78.752 104.875 78.664 104.875H73.288Z" fill="white"/>
<path d="M80.6088 104.875C80.5288 104.875 80.4608 104.847 80.4048 104.791C80.3488 104.735 80.3208 104.667 80.3208 104.587V98.9227C80.3208 98.8427 80.3488 98.7747 80.4048 98.7187C80.4608 98.6627 80.5288 98.6347 80.6088 98.6347H81.5448C81.6248 98.6347 81.6928 98.6627 81.7488 98.7187C81.8048 98.7747 81.8328 98.8427 81.8328 98.9227V99.3307C82.0008 99.1067 82.2248 98.9187 82.5048 98.7667C82.7928 98.6067 83.1328 98.5227 83.5248 98.5147C84.4368 98.4987 85.0728 98.8547 85.4328 99.5827C85.6168 99.2627 85.8808 99.0067 86.2248 98.8147C86.5768 98.6147 86.9648 98.5147 87.3888 98.5147C87.8048 98.5147 88.1808 98.6107 88.5168 98.8027C88.8608 98.9947 89.1288 99.2867 89.3208 99.6787C89.5208 100.063 89.6208 100.551 89.6208 101.143V104.587C89.6208 104.667 89.5928 104.735 89.5368 104.791C89.4808 104.847 89.4128 104.875 89.3328 104.875H88.3488C88.2688 104.875 88.2008 104.847 88.1448 104.791C88.0888 104.735 88.0608 104.667 88.0608 104.587V101.239C88.0608 100.879 88.0088 100.595 87.9048 100.387C87.8008 100.171 87.6608 100.019 87.4848 99.9307C87.3088 99.8427 87.1128 99.7987 86.8968 99.7987C86.7208 99.7987 86.5448 99.8427 86.3688 99.9307C86.1928 100.019 86.0488 100.171 85.9368 100.387C85.8248 100.595 85.7688 100.879 85.7688 101.239V104.587C85.7688 104.667 85.7408 104.735 85.6848 104.791C85.6288 104.847 85.5608 104.875 85.4808 104.875H84.4968C84.4088 104.875 84.3368 104.847 84.2808 104.791C84.2328 104.735 84.2088 104.667 84.2088 104.587V101.239C84.2088 100.879 84.1528 100.595 84.0408 100.387C83.9288 100.171 83.7848 100.019 83.6088 99.9307C83.4328 99.8427 83.2448 99.7987 83.0448 99.7987C82.8608 99.7987 82.6808 99.8467 82.5048 99.9427C82.3288 100.031 82.1848 100.179 82.0728 100.387C81.9608 100.595 81.9048 100.879 81.9048 101.239V104.587C81.9048 104.667 81.8768 104.735 81.8208 104.791C81.7648 104.847 81.6968 104.875 81.6168 104.875H80.6088Z" fill="white"/>
<path d="M92.961 104.995C92.545 104.995 92.169 104.915 91.833 104.755C91.497 104.587 91.229 104.367 91.029 104.095C90.837 103.815 90.741 103.503 90.741 103.159C90.741 102.599 90.965 102.155 91.413 101.827C91.869 101.491 92.469 101.267 93.213 101.155L94.857 100.915V100.663C94.857 100.327 94.773 100.067 94.605 99.8827C94.437 99.6987 94.149 99.6067 93.741 99.6067C93.453 99.6067 93.217 99.6667 93.033 99.7867C92.857 99.8987 92.725 100.051 92.637 100.243C92.573 100.347 92.481 100.399 92.361 100.399H91.413C91.325 100.399 91.257 100.375 91.209 100.327C91.169 100.279 91.149 100.215 91.149 100.135C91.157 100.007 91.209 99.8507 91.305 99.6667C91.401 99.4827 91.553 99.3067 91.761 99.1387C91.969 98.9627 92.237 98.8147 92.565 98.6947C92.893 98.5747 93.289 98.5147 93.753 98.5147C94.257 98.5147 94.681 98.5787 95.025 98.7067C95.377 98.8267 95.657 98.9907 95.865 99.1987C96.073 99.4067 96.225 99.6507 96.321 99.9307C96.417 100.211 96.465 100.507 96.465 100.819V104.587C96.465 104.667 96.437 104.735 96.381 104.791C96.325 104.847 96.257 104.875 96.177 104.875H95.205C95.117 104.875 95.045 104.847 94.989 104.791C94.941 104.735 94.917 104.667 94.917 104.587V104.119C94.813 104.271 94.673 104.415 94.497 104.551C94.321 104.679 94.105 104.787 93.849 104.875C93.601 104.955 93.305 104.995 92.961 104.995ZM93.369 103.855C93.649 103.855 93.901 103.795 94.125 103.675C94.357 103.555 94.537 103.371 94.665 103.123C94.801 102.867 94.869 102.547 94.869 102.163V101.911L93.669 102.103C93.197 102.175 92.845 102.291 92.613 102.451C92.381 102.611 92.265 102.807 92.265 103.039C92.265 103.215 92.317 103.367 92.421 103.495C92.533 103.615 92.673 103.707 92.841 103.771C93.009 103.827 93.185 103.855 93.369 103.855Z" fill="white"/>
<path d="M98.2924 104.875C98.2124 104.875 98.1444 104.847 98.0884 104.791C98.0324 104.735 98.0044 104.667 98.0044 104.587V98.9227C98.0044 98.8427 98.0324 98.7747 98.0884 98.7187C98.1444 98.6627 98.2124 98.6347 98.2924 98.6347H99.2884C99.3764 98.6347 99.4444 98.6627 99.4924 98.7187C99.5484 98.7747 99.5764 98.8427 99.5764 98.9227V104.587C99.5764 104.667 99.5484 104.735 99.4924 104.791C99.4444 104.847 99.3764 104.875 99.2884 104.875H98.2924ZM98.2444 97.6027C98.1564 97.6027 98.0844 97.5787 98.0284 97.5307C97.9804 97.4747 97.9564 97.4027 97.9564 97.3147V96.4507C97.9564 96.3707 97.9804 96.3027 98.0284 96.2467C98.0844 96.1907 98.1564 96.1627 98.2444 96.1627H99.3364C99.4244 96.1627 99.4964 96.1907 99.5524 96.2467C99.6084 96.3027 99.6364 96.3707 99.6364 96.4507V97.3147C99.6364 97.4027 99.6084 97.4747 99.5524 97.5307C99.4964 97.5787 99.4244 97.6027 99.3364 97.6027H98.2444Z" fill="white"/>
<path d="M101.469 104.875C101.389 104.875 101.32 104.847 101.264 104.791C101.208 104.735 101.181 104.667 101.181 104.587V96.6427C101.181 96.5627 101.208 96.4947 101.264 96.4387C101.32 96.3827 101.389 96.3547 101.469 96.3547H102.464C102.544 96.3547 102.612 96.3827 102.668 96.4387C102.724 96.4947 102.752 96.5627 102.752 96.6427V104.587C102.752 104.667 102.724 104.735 102.668 104.791C102.612 104.847 102.544 104.875 102.464 104.875H101.469Z" fill="white"/>
<path d="M110.146 104.995C109.402 104.995 108.778 104.887 108.274 104.671C107.778 104.447 107.398 104.159 107.134 103.807C106.878 103.447 106.742 103.071 106.726 102.679C106.726 102.607 106.75 102.547 106.798 102.499C106.846 102.451 106.906 102.427 106.978 102.427H108.046C108.15 102.427 108.226 102.451 108.274 102.499C108.33 102.539 108.378 102.591 108.418 102.655C108.466 102.807 108.558 102.959 108.694 103.111C108.83 103.255 109.014 103.375 109.246 103.471C109.486 103.567 109.786 103.615 110.146 103.615C110.722 103.615 111.15 103.519 111.43 103.327C111.718 103.135 111.862 102.875 111.862 102.547C111.862 102.315 111.786 102.131 111.634 101.995C111.482 101.851 111.246 101.723 110.926 101.611C110.614 101.491 110.198 101.367 109.678 101.239C109.078 101.095 108.574 100.923 108.166 100.723C107.766 100.515 107.462 100.255 107.254 99.9427C107.054 99.6307 106.954 99.2347 106.954 98.7547C106.954 98.2907 107.078 97.8787 107.326 97.5187C107.582 97.1587 107.942 96.8747 108.406 96.6667C108.878 96.4587 109.438 96.3547 110.086 96.3547C110.606 96.3547 111.066 96.4267 111.466 96.5707C111.866 96.7067 112.198 96.8907 112.462 97.1227C112.726 97.3467 112.926 97.5907 113.062 97.8547C113.206 98.1107 113.282 98.3627 113.29 98.6107C113.29 98.6747 113.266 98.7347 113.218 98.7907C113.178 98.8387 113.118 98.8627 113.038 98.8627H111.922C111.858 98.8627 111.794 98.8467 111.73 98.8147C111.666 98.7827 111.614 98.7227 111.574 98.6347C111.526 98.3867 111.37 98.1747 111.106 97.9987C110.842 97.8227 110.502 97.7347 110.086 97.7347C109.654 97.7347 109.306 97.8147 109.042 97.9747C108.778 98.1347 108.646 98.3827 108.646 98.7187C108.646 98.9427 108.71 99.1307 108.838 99.2827C108.974 99.4267 109.186 99.5547 109.474 99.6667C109.77 99.7787 110.158 99.8987 110.638 100.027C111.318 100.179 111.874 100.355 112.306 100.555C112.738 100.755 113.054 101.011 113.254 101.323C113.454 101.627 113.554 102.015 113.554 102.487C113.554 103.015 113.41 103.467 113.122 103.843C112.842 104.211 112.446 104.495 111.934 104.695C111.422 104.895 110.826 104.995 110.146 104.995Z" fill="white"/>
<path d="M117.474 104.995C116.586 104.995 115.882 104.739 115.362 104.227C114.842 103.715 114.562 102.987 114.522 102.043C114.514 101.963 114.51 101.863 114.51 101.743C114.51 101.615 114.514 101.515 114.522 101.443C114.554 100.843 114.69 100.323 114.93 99.8827C115.178 99.4427 115.518 99.1067 115.95 98.8747C116.382 98.6347 116.89 98.5147 117.474 98.5147C118.122 98.5147 118.666 98.6507 119.106 98.9227C119.546 99.1867 119.878 99.5587 120.102 100.039C120.326 100.511 120.438 101.059 120.438 101.683V101.935C120.438 102.015 120.41 102.083 120.354 102.139C120.298 102.195 120.226 102.223 120.138 102.223H116.154C116.154 102.223 116.154 102.235 116.154 102.259C116.154 102.283 116.154 102.303 116.154 102.319C116.162 102.599 116.214 102.859 116.31 103.099C116.414 103.331 116.562 103.519 116.754 103.663C116.954 103.807 117.19 103.879 117.462 103.879C117.686 103.879 117.874 103.847 118.026 103.783C118.178 103.711 118.302 103.631 118.398 103.543C118.494 103.455 118.562 103.383 118.602 103.327C118.674 103.231 118.73 103.175 118.77 103.159C118.818 103.135 118.886 103.123 118.974 103.123H120.006C120.086 103.123 120.15 103.147 120.198 103.195C120.254 103.243 120.278 103.303 120.27 103.375C120.262 103.503 120.194 103.659 120.066 103.843C119.946 104.027 119.77 104.207 119.538 104.383C119.306 104.559 119.014 104.707 118.662 104.827C118.318 104.939 117.922 104.995 117.474 104.995ZM116.154 101.215H118.806V101.179C118.806 100.867 118.754 100.595 118.65 100.363C118.546 100.131 118.394 99.9467 118.194 99.8107C117.994 99.6747 117.754 99.6067 117.474 99.6067C117.194 99.6067 116.954 99.6747 116.754 99.8107C116.554 99.9467 116.402 100.131 116.298 100.363C116.202 100.595 116.154 100.867 116.154 101.179V101.215Z" fill="white"/>
<path d="M121.999 104.875C121.919 104.875 121.851 104.847 121.795 104.791C121.739 104.735 121.711 104.667 121.711 104.587V98.9347C121.711 98.8467 121.739 98.7747 121.795 98.7187C121.851 98.6627 121.919 98.6347 121.999 98.6347H122.971C123.051 98.6347 123.119 98.6627 123.175 98.7187C123.239 98.7747 123.271 98.8467 123.271 98.9347V99.4267C123.455 99.1707 123.691 98.9747 123.979 98.8387C124.275 98.7027 124.615 98.6347 124.999 98.6347H125.491C125.579 98.6347 125.647 98.6627 125.695 98.7187C125.751 98.7747 125.779 98.8427 125.779 98.9227V99.7867C125.779 99.8667 125.751 99.9347 125.695 99.9907C125.647 100.047 125.579 100.075 125.491 100.075H124.555C124.171 100.075 123.871 100.183 123.655 100.399C123.447 100.615 123.343 100.911 123.343 101.287V104.587C123.343 104.667 123.315 104.735 123.259 104.791C123.203 104.847 123.131 104.875 123.043 104.875H121.999Z" fill="white"/>
<path d="M128.923 104.875C128.795 104.875 128.699 104.847 128.635 104.791C128.579 104.727 128.531 104.655 128.491 104.575L126.247 99.0067C126.231 98.9667 126.223 98.9307 126.223 98.8987C126.223 98.8267 126.247 98.7667 126.295 98.7187C126.351 98.6627 126.415 98.6347 126.487 98.6347H127.459C127.555 98.6347 127.627 98.6627 127.675 98.7187C127.723 98.7667 127.755 98.8147 127.771 98.8627L129.367 103.075L130.963 98.8627C130.979 98.8147 131.011 98.7667 131.059 98.7187C131.107 98.6627 131.179 98.6347 131.275 98.6347H132.259C132.323 98.6347 132.379 98.6627 132.427 98.7187C132.483 98.7667 132.511 98.8267 132.511 98.8987C132.511 98.9307 132.507 98.9667 132.499 99.0067L130.243 104.575C130.211 104.655 130.163 104.727 130.099 104.791C130.035 104.847 129.939 104.875 129.811 104.875H128.923Z" fill="white"/>
<path d="M133.894 104.875C133.814 104.875 133.746 104.847 133.69 104.791C133.634 104.735 133.606 104.667 133.606 104.587V98.9227C133.606 98.8427 133.634 98.7747 133.69 98.7187C133.746 98.6627 133.814 98.6347 133.894 98.6347H134.89C134.978 98.6347 135.046 98.6627 135.094 98.7187C135.15 98.7747 135.178 98.8427 135.178 98.9227V104.587C135.178 104.667 135.15 104.735 135.094 104.791C135.046 104.847 134.978 104.875 134.89 104.875H133.894ZM133.846 97.6027C133.758 97.6027 133.686 97.5787 133.63 97.5307C133.582 97.4747 133.558 97.4027 133.558 97.3147V96.4507C133.558 96.3707 133.582 96.3027 133.63 96.2467C133.686 96.1907 133.758 96.1627 133.846 96.1627H134.938C135.026 96.1627 135.098 96.1907 135.154 96.2467C135.21 96.3027 135.238 96.3707 135.238 96.4507V97.3147C135.238 97.4027 135.21 97.4747 135.154 97.5307C135.098 97.5787 135.026 97.6027 134.938 97.6027H133.846Z" fill="white"/>
<path d="M139.505 104.995C138.929 104.995 138.421 104.887 137.981 104.671C137.549 104.455 137.209 104.143 136.961 103.735C136.721 103.319 136.589 102.819 136.565 102.235C136.557 102.115 136.553 101.959 136.553 101.767C136.553 101.567 136.557 101.403 136.565 101.275C136.589 100.691 136.721 100.195 136.961 99.7867C137.209 99.3707 137.549 99.0547 137.981 98.8387C138.421 98.6227 138.929 98.5147 139.505 98.5147C140.017 98.5147 140.453 98.5867 140.813 98.7307C141.173 98.8747 141.469 99.0547 141.701 99.2707C141.933 99.4867 142.105 99.7147 142.217 99.9547C142.337 100.187 142.401 100.399 142.409 100.591C142.417 100.679 142.389 100.751 142.325 100.807C142.269 100.855 142.201 100.879 142.121 100.879H141.065C140.985 100.879 140.921 100.859 140.873 100.819C140.833 100.779 140.793 100.719 140.753 100.639C140.633 100.319 140.473 100.095 140.273 99.9667C140.081 99.8307 139.833 99.7627 139.529 99.7627C139.129 99.7627 138.809 99.8907 138.569 100.147C138.337 100.395 138.213 100.791 138.197 101.335C138.181 101.639 138.181 101.919 138.197 102.175C138.213 102.727 138.337 103.127 138.569 103.375C138.809 103.623 139.129 103.747 139.529 103.747C139.841 103.747 140.093 103.683 140.285 103.555C140.477 103.419 140.633 103.191 140.753 102.871C140.793 102.791 140.833 102.731 140.873 102.691C140.921 102.651 140.985 102.631 141.065 102.631H142.121C142.201 102.631 142.269 102.659 142.325 102.715C142.389 102.763 142.417 102.831 142.409 102.919C142.401 103.063 142.361 103.227 142.289 103.411C142.225 103.587 142.117 103.771 141.965 103.963C141.821 104.147 141.637 104.319 141.413 104.479C141.189 104.631 140.917 104.755 140.597 104.851C140.285 104.947 139.921 104.995 139.505 104.995Z" fill="white"/>
<path d="M146.349 104.995C145.461 104.995 144.757 104.739 144.237 104.227C143.717 103.715 143.437 102.987 143.397 102.043C143.389 101.963 143.385 101.863 143.385 101.743C143.385 101.615 143.389 101.515 143.397 101.443C143.429 100.843 143.565 100.323 143.805 99.8827C144.053 99.4427 144.393 99.1067 144.825 98.8747C145.257 98.6347 145.765 98.5147 146.349 98.5147C146.997 98.5147 147.541 98.6507 147.981 98.9227C148.421 99.1867 148.753 99.5587 148.977 100.039C149.201 100.511 149.313 101.059 149.313 101.683V101.935C149.313 102.015 149.285 102.083 149.229 102.139C149.173 102.195 149.101 102.223 149.013 102.223H145.029C145.029 102.223 145.029 102.235 145.029 102.259C145.029 102.283 145.029 102.303 145.029 102.319C145.037 102.599 145.089 102.859 145.185 103.099C145.289 103.331 145.437 103.519 145.629 103.663C145.829 103.807 146.065 103.879 146.337 103.879C146.561 103.879 146.749 103.847 146.901 103.783C147.053 103.711 147.177 103.631 147.273 103.543C147.369 103.455 147.437 103.383 147.477 103.327C147.549 103.231 147.605 103.175 147.645 103.159C147.693 103.135 147.761 103.123 147.849 103.123H148.881C148.961 103.123 149.025 103.147 149.073 103.195C149.129 103.243 149.153 103.303 149.145 103.375C149.137 103.503 149.069 103.659 148.941 103.843C148.821 104.027 148.645 104.207 148.413 104.383C148.181 104.559 147.889 104.707 147.537 104.827C147.193 104.939 146.797 104.995 146.349 104.995ZM145.029 101.215H147.681V101.179C147.681 100.867 147.629 100.595 147.525 100.363C147.421 100.131 147.269 99.9467 147.069 99.8107C146.869 99.6747 146.629 99.6067 146.349 99.6067C146.069 99.6067 145.829 99.6747 145.629 99.8107C145.429 99.9467 145.277 100.131 145.173 100.363C145.077 100.595 145.029 100.867 145.029 101.179V101.215Z" fill="white"/>
<path d="M332 114C332 127.807 320.807 139 307 139C293.193 139 282 127.807 282 114C282 100.193 293.193 89 307 89C320.807 89 332 100.193 332 114Z" fill="white"/>
<path d="M307 140.5C321.636 140.5 333.5 128.636 333.5 114C333.5 99.3645 321.636 87.5 307 87.5C292.364 87.5 280.5 99.3645 280.5 114C280.5 128.636 292.364 140.5 307 140.5Z" stroke="white" stroke-opacity="0.35" stroke-width="3"/>
<path fill-rule="evenodd" clip-rule="evenodd" d="M307 134.714C318.44 134.714 327.714 125.44 327.714 114C327.714 102.56 318.44 93.2857 307 93.2857C295.56 93.2857 286.286 102.56 286.286 114C286.286 125.44 295.56 134.714 307 134.714ZM307 139C320.807 139 332 127.807 332 114C332 100.193 320.807 89 307 89C293.193 89 282 100.193 282 114C282 127.807 293.193 139 307 139Z" fill="#145B5B"/>
<path d="M321.284 114.002C321.284 121.892 314.888 128.288 306.998 128.288C299.108 128.288 292.712 121.892 292.712 114.002C292.712 106.112 299.108 99.7162 306.998 99.7162C314.888 99.7162 321.284 106.112 321.284 114.002Z" fill="#145B5B" fill-opacity="0.3"/>
<path d="M259.288 159.712C259.208 159.712 259.14 159.684 259.084 159.628C259.028 159.572 259 159.504 259 159.424V151.6C259 151.52 259.028 151.452 259.084 151.396C259.14 151.34 259.208 151.312 259.288 151.312H260.416C260.504 151.312 260.572 151.34 260.62 151.396C260.676 151.452 260.704 151.52 260.704 151.6V159.424C260.704 159.504 260.676 159.572 260.62 159.628C260.572 159.684 260.504 159.712 260.416 159.712H259.288Z" fill="white"/>
<path d="M262.73 159.712C262.65 159.712 262.582 159.684 262.526 159.628C262.47 159.572 262.442 159.504 262.442 159.424V153.76C262.442 153.68 262.47 153.612 262.526 153.556C262.582 153.5 262.65 153.472 262.73 153.472H263.714C263.794 153.472 263.862 153.5 263.918 153.556C263.974 153.612 264.002 153.68 264.002 153.76V154.252C264.21 153.996 264.474 153.784 264.794 153.616C265.122 153.44 265.526 153.352 266.006 153.352C266.494 153.352 266.918 153.464 267.278 153.688C267.638 153.904 267.914 154.212 268.106 154.612C268.306 155.012 268.406 155.492 268.406 156.052V159.424C268.406 159.504 268.378 159.572 268.322 159.628C268.266 159.684 268.198 159.712 268.118 159.712H267.062C266.982 159.712 266.914 159.684 266.858 159.628C266.802 159.572 266.774 159.504 266.774 159.424V156.124C266.774 155.66 266.658 155.296 266.426 155.032C266.202 154.768 265.874 154.636 265.442 154.636C265.026 154.636 264.694 154.768 264.446 155.032C264.198 155.296 264.074 155.66 264.074 156.124V159.424C264.074 159.504 264.046 159.572 263.99 159.628C263.934 159.684 263.866 159.712 263.786 159.712H262.73Z" fill="white"/>
<path d="M271.951 159.712C271.823 159.712 271.727 159.684 271.663 159.628C271.607 159.564 271.559 159.492 271.519 159.412L269.275 153.844C269.259 153.804 269.251 153.768 269.251 153.736C269.251 153.664 269.275 153.604 269.323 153.556C269.379 153.5 269.443 153.472 269.515 153.472H270.487C270.583 153.472 270.655 153.5 270.703 153.556C270.751 153.604 270.783 153.652 270.799 153.7L272.395 157.912L273.991 153.7C274.007 153.652 274.039 153.604 274.087 153.556C274.135 153.5 274.207 153.472 274.303 153.472H275.287C275.351 153.472 275.407 153.5 275.455 153.556C275.511 153.604 275.539 153.664 275.539 153.736C275.539 153.768 275.535 153.804 275.527 153.844L273.271 159.412C273.239 159.492 273.191 159.564 273.127 159.628C273.063 159.684 272.967 159.712 272.839 159.712H271.951Z" fill="white"/>
<path d="M279.099 159.832C278.211 159.832 277.507 159.576 276.987 159.064C276.467 158.552 276.187 157.824 276.147 156.88C276.139 156.8 276.135 156.7 276.135 156.58C276.135 156.452 276.139 156.352 276.147 156.28C276.179 155.68 276.315 155.16 276.555 154.72C276.803 154.28 277.143 153.944 277.575 153.712C278.007 153.472 278.515 153.352 279.099 153.352C279.747 153.352 280.291 153.488 280.731 153.76C281.171 154.024 281.503 154.396 281.727 154.876C281.951 155.348 282.063 155.896 282.063 156.52V156.772C282.063 156.852 282.035 156.92 281.979 156.976C281.923 157.032 281.851 157.06 281.763 157.06H277.779C277.779 157.06 277.779 157.072 277.779 157.096C277.779 157.12 277.779 157.14 277.779 157.156C277.787 157.436 277.839 157.696 277.935 157.936C278.039 158.168 278.187 158.356 278.379 158.5C278.579 158.644 278.815 158.716 279.087 158.716C279.311 158.716 279.499 158.684 279.651 158.62C279.803 158.548 279.927 158.468 280.023 158.38C280.119 158.292 280.187 158.22 280.227 158.164C280.299 158.068 280.355 158.012 280.395 157.996C280.443 157.972 280.511 157.96 280.599 157.96H281.631C281.711 157.96 281.775 157.984 281.823 158.032C281.879 158.08 281.903 158.14 281.895 158.212C281.887 158.34 281.819 158.496 281.691 158.68C281.571 158.864 281.395 159.044 281.163 159.22C280.931 159.396 280.639 159.544 280.287 159.664C279.943 159.776 279.547 159.832 279.099 159.832ZM277.779 156.052H280.431V156.016C280.431 155.704 280.379 155.432 280.275 155.2C280.171 154.968 280.019 154.784 279.819 154.648C279.619 154.512 279.379 154.444 279.099 154.444C278.819 154.444 278.579 154.512 278.379 154.648C278.179 154.784 278.027 154.968 277.923 155.2C277.827 155.432 277.779 155.704 277.779 156.016V156.052Z" fill="white"/>
<path d="M283.624 159.712C283.544 159.712 283.476 159.684 283.42 159.628C283.364 159.572 283.336 159.504 283.336 159.424V153.76C283.336 153.68 283.364 153.612 283.42 153.556C283.476 153.5 283.544 153.472 283.624 153.472H284.608C284.688 153.472 284.756 153.5 284.812 153.556C284.868 153.612 284.896 153.68 284.896 153.76V154.252C285.104 153.996 285.368 153.784 285.688 153.616C286.016 153.44 286.42 153.352 286.9 153.352C287.388 153.352 287.812 153.464 288.172 153.688C288.532 153.904 288.808 154.212 289 154.612C289.2 155.012 289.3 155.492 289.3 156.052V159.424C289.3 159.504 289.272 159.572 289.216 159.628C289.16 159.684 289.092 159.712 289.012 159.712H287.956C287.876 159.712 287.808 159.684 287.752 159.628C287.696 159.572 287.668 159.504 287.668 159.424V156.124C287.668 155.66 287.552 155.296 287.32 155.032C287.096 154.768 286.768 154.636 286.336 154.636C285.92 154.636 285.588 154.768 285.34 155.032C285.092 155.296 284.968 155.66 284.968 156.124V159.424C284.968 159.504 284.94 159.572 284.884 159.628C284.828 159.684 284.76 159.712 284.68 159.712H283.624Z" fill="white"/>
<path d="M293.574 159.712C293.094 159.712 292.69 159.628 292.362 159.46C292.034 159.292 291.79 159.044 291.63 158.716C291.47 158.38 291.39 157.964 291.39 157.468V154.744H290.442C290.362 154.744 290.294 154.716 290.238 154.66C290.182 154.604 290.154 154.536 290.154 154.456V153.76C290.154 153.68 290.182 153.612 290.238 153.556C290.294 153.5 290.362 153.472 290.442 153.472H291.39V151.48C291.39 151.4 291.414 151.332 291.462 151.276C291.518 151.22 291.59 151.192 291.678 151.192H292.65C292.73 151.192 292.798 151.22 292.854 151.276C292.91 151.332 292.938 151.4 292.938 151.48V153.472H294.438C294.518 153.472 294.586 153.5 294.642 153.556C294.698 153.612 294.726 153.68 294.726 153.76V154.456C294.726 154.536 294.698 154.604 294.642 154.66C294.586 154.716 294.518 154.744 294.438 154.744H292.938V157.348C292.938 157.676 292.994 157.932 293.106 158.116C293.226 158.3 293.43 158.392 293.718 158.392H294.546C294.626 158.392 294.694 158.42 294.75 158.476C294.806 158.532 294.834 158.6 294.834 158.68V159.424C294.834 159.504 294.806 159.572 294.75 159.628C294.694 159.684 294.626 159.712 294.546 159.712H293.574Z" fill="white"/>
<path d="M298.659 159.832C298.019 159.832 297.479 159.72 297.039 159.496C296.607 159.272 296.275 158.956 296.043 158.548C295.819 158.14 295.691 157.664 295.659 157.12C295.651 156.976 295.647 156.8 295.647 156.592C295.647 156.384 295.651 156.208 295.659 156.064C295.691 155.512 295.823 155.036 296.055 154.636C296.295 154.228 296.631 153.912 297.063 153.688C297.503 153.464 298.035 153.352 298.659 153.352C299.283 153.352 299.811 153.464 300.243 153.688C300.683 153.912 301.019 154.228 301.251 154.636C301.491 155.036 301.627 155.512 301.659 156.064C301.667 156.208 301.671 156.384 301.671 156.592C301.671 156.8 301.667 156.976 301.659 157.12C301.627 157.664 301.495 158.14 301.263 158.548C301.039 158.956 300.707 159.272 300.267 159.496C299.835 159.72 299.299 159.832 298.659 159.832ZM298.659 158.644C299.083 158.644 299.411 158.512 299.643 158.248C299.875 157.976 300.003 157.58 300.027 157.06C300.035 156.94 300.039 156.784 300.039 156.592C300.039 156.4 300.035 156.244 300.027 156.124C300.003 155.612 299.875 155.22 299.643 154.948C299.411 154.676 299.083 154.54 298.659 154.54C298.235 154.54 297.907 154.676 297.675 154.948C297.443 155.22 297.315 155.612 297.291 156.124C297.283 156.244 297.279 156.4 297.279 156.592C297.279 156.784 297.283 156.94 297.291 157.06C297.315 157.58 297.443 157.976 297.675 158.248C297.907 158.512 298.235 158.644 298.659 158.644Z" fill="white"/>
<path d="M303.289 159.712C303.209 159.712 303.141 159.684 303.085 159.628C303.029 159.572 303.001 159.504 303.001 159.424V153.772C303.001 153.684 303.029 153.612 303.085 153.556C303.141 153.5 303.209 153.472 303.289 153.472H304.261C304.341 153.472 304.409 153.5 304.465 153.556C304.529 153.612 304.561 153.684 304.561 153.772V154.264C304.745 154.008 304.981 153.812 305.269 153.676C305.565 153.54 305.905 153.472 306.289 153.472H306.781C306.869 153.472 306.937 153.5 306.985 153.556C307.041 153.612 307.069 153.68 307.069 153.76V154.624C307.069 154.704 307.041 154.772 306.985 154.828C306.937 154.884 306.869 154.912 306.781 154.912H305.845C305.461 154.912 305.161 155.02 304.945 155.236C304.737 155.452 304.633 155.748 304.633 156.124V159.424C304.633 159.504 304.605 159.572 304.549 159.628C304.493 159.684 304.421 159.712 304.333 159.712H303.289Z" fill="white"/>
<path d="M309.132 161.992C309.068 161.992 309.012 161.968 308.964 161.92C308.916 161.872 308.892 161.816 308.892 161.752C308.892 161.72 308.892 161.688 308.892 161.656C308.9 161.632 308.916 161.6 308.94 161.56L309.876 159.34L307.572 153.904C307.54 153.824 307.524 153.768 307.524 153.736C307.532 153.664 307.56 153.604 307.608 153.556C307.656 153.5 307.716 153.472 307.788 153.472H308.76C308.856 153.472 308.928 153.496 308.976 153.544C309.024 153.592 309.06 153.644 309.084 153.7L310.68 157.624L312.324 153.7C312.348 153.636 312.384 153.584 312.432 153.544C312.48 153.496 312.552 153.472 312.648 153.472H313.608C313.672 153.472 313.728 153.496 313.776 153.544C313.832 153.592 313.86 153.648 313.86 153.712C313.86 153.76 313.844 153.824 313.812 153.904L310.416 161.764C310.384 161.828 310.344 161.88 310.296 161.92C310.248 161.968 310.176 161.992 310.08 161.992H309.132Z" fill="white"/>
<path d="M320.381 159.832C319.637 159.832 319.013 159.724 318.509 159.508C318.013 159.284 317.633 158.996 317.369 158.644C317.113 158.284 316.977 157.908 316.961 157.516C316.961 157.444 316.985 157.384 317.033 157.336C317.081 157.288 317.141 157.264 317.213 157.264H318.281C318.385 157.264 318.461 157.288 318.509 157.336C318.565 157.376 318.613 157.428 318.653 157.492C318.701 157.644 318.793 157.796 318.929 157.948C319.065 158.092 319.249 158.212 319.481 158.308C319.721 158.404 320.021 158.452 320.381 158.452C320.957 158.452 321.385 158.356 321.665 158.164C321.953 157.972 322.097 157.712 322.097 157.384C322.097 157.152 322.021 156.968 321.869 156.832C321.717 156.688 321.481 156.56 321.161 156.448C320.849 156.328 320.433 156.204 319.913 156.076C319.313 155.932 318.809 155.76 318.401 155.56C318.001 155.352 317.697 155.092 317.489 154.78C317.289 154.468 317.189 154.072 317.189 153.592C317.189 153.128 317.313 152.716 317.561 152.356C317.817 151.996 318.177 151.712 318.641 151.504C319.113 151.296 319.673 151.192 320.321 151.192C320.841 151.192 321.301 151.264 321.701 151.408C322.101 151.544 322.433 151.728 322.697 151.96C322.961 152.184 323.161 152.428 323.297 152.692C323.441 152.948 323.517 153.2 323.525 153.448C323.525 153.512 323.501 153.572 323.453 153.628C323.413 153.676 323.353 153.7 323.273 153.7H322.157C322.093 153.7 322.029 153.684 321.965 153.652C321.901 153.62 321.849 153.56 321.809 153.472C321.761 153.224 321.605 153.012 321.341 152.836C321.077 152.66 320.737 152.572 320.321 152.572C319.889 152.572 319.541 152.652 319.277 152.812C319.013 152.972 318.881 153.22 318.881 153.556C318.881 153.78 318.945 153.968 319.073 154.12C319.209 154.264 319.421 154.392 319.709 154.504C320.005 154.616 320.393 154.736 320.873 154.864C321.553 155.016 322.109 155.192 322.541 155.392C322.973 155.592 323.289 155.848 323.489 156.16C323.689 156.464 323.789 156.852 323.789 157.324C323.789 157.852 323.645 158.304 323.357 158.68C323.077 159.048 322.681 159.332 322.169 159.532C321.657 159.732 321.061 159.832 320.381 159.832Z" fill="white"/>
<path d="M327.708 159.832C326.82 159.832 326.116 159.576 325.596 159.064C325.076 158.552 324.796 157.824 324.756 156.88C324.748 156.8 324.744 156.7 324.744 156.58C324.744 156.452 324.748 156.352 324.756 156.28C324.788 155.68 324.924 155.16 325.164 154.72C325.412 154.28 325.752 153.944 326.184 153.712C326.616 153.472 327.124 153.352 327.708 153.352C328.356 153.352 328.9 153.488 329.34 153.76C329.78 154.024 330.112 154.396 330.336 154.876C330.56 155.348 330.672 155.896 330.672 156.52V156.772C330.672 156.852 330.644 156.92 330.588 156.976C330.532 157.032 330.46 157.06 330.372 157.06H326.388C326.388 157.06 326.388 157.072 326.388 157.096C326.388 157.12 326.388 157.14 326.388 157.156C326.396 157.436 326.448 157.696 326.544 157.936C326.648 158.168 326.796 158.356 326.988 158.5C327.188 158.644 327.424 158.716 327.696 158.716C327.92 158.716 328.108 158.684 328.26 158.62C328.412 158.548 328.536 158.468 328.632 158.38C328.728 158.292 328.796 158.22 328.836 158.164C328.908 158.068 328.964 158.012 329.004 157.996C329.052 157.972 329.12 157.96 329.208 157.96H330.24C330.32 157.96 330.384 157.984 330.432 158.032C330.488 158.08 330.512 158.14 330.504 158.212C330.496 158.34 330.428 158.496 330.3 158.68C330.18 158.864 330.004 159.044 329.772 159.22C329.54 159.396 329.248 159.544 328.896 159.664C328.552 159.776 328.156 159.832 327.708 159.832ZM326.388 156.052H329.04V156.016C329.04 155.704 328.988 155.432 328.884 155.2C328.78 154.968 328.628 154.784 328.428 154.648C328.228 154.512 327.988 154.444 327.708 154.444C327.428 154.444 327.188 154.512 326.988 154.648C326.788 154.784 326.636 154.968 326.532 155.2C326.436 155.432 326.388 155.704 326.388 156.016V156.052Z" fill="white"/>
<path d="M332.234 159.712C332.154 159.712 332.086 159.684 332.03 159.628C331.974 159.572 331.946 159.504 331.946 159.424V153.772C331.946 153.684 331.974 153.612 332.03 153.556C332.086 153.5 332.154 153.472 332.234 153.472H333.206C333.286 153.472 333.354 153.5 333.41 153.556C333.474 153.612 333.506 153.684 333.506 153.772V154.264C333.69 154.008 333.926 153.812 334.214 153.676C334.51 153.54 334.85 153.472 335.234 153.472H335.726C335.814 153.472 335.882 153.5 335.93 153.556C335.986 153.612 336.014 153.68 336.014 153.76V154.624C336.014 154.704 335.986 154.772 335.93 154.828C335.882 154.884 335.814 154.912 335.726 154.912H334.79C334.406 154.912 334.106 155.02 333.89 155.236C333.682 155.452 333.578 155.748 333.578 156.124V159.424C333.578 159.504 333.55 159.572 333.494 159.628C333.438 159.684 333.366 159.712 333.278 159.712H332.234Z" fill="white"/>
<path d="M339.158 159.712C339.03 159.712 338.934 159.684 338.87 159.628C338.814 159.564 338.766 159.492 338.726 159.412L336.482 153.844C336.466 153.804 336.458 153.768 336.458 153.736C336.458 153.664 336.482 153.604 336.53 153.556C336.586 153.5 336.65 153.472 336.722 153.472H337.694C337.79 153.472 337.862 153.5 337.91 153.556C337.958 153.604 337.99 153.652 338.006 153.7L339.602 157.912L341.198 153.7C341.214 153.652 341.246 153.604 341.294 153.556C341.342 153.5 341.414 153.472 341.51 153.472H342.494C342.558 153.472 342.614 153.5 342.662 153.556C342.718 153.604 342.746 153.664 342.746 153.736C342.746 153.768 342.742 153.804 342.734 153.844L340.478 159.412C340.446 159.492 340.398 159.564 340.334 159.628C340.27 159.684 340.174 159.712 340.046 159.712H339.158Z" fill="white"/>
<path d="M344.128 159.712C344.048 159.712 343.98 159.684 343.924 159.628C343.868 159.572 343.84 159.504 343.84 159.424V153.76C343.84 153.68 343.868 153.612 343.924 153.556C343.98 153.5 344.048 153.472 344.128 153.472H345.124C345.212 153.472 345.28 153.5 345.328 153.556C345.384 153.612 345.412 153.68 345.412 153.76V159.424C345.412 159.504 345.384 159.572 345.328 159.628C345.28 159.684 345.212 159.712 345.124 159.712H344.128ZM344.08 152.44C343.992 152.44 343.92 152.416 343.864 152.368C343.816 152.312 343.792 152.24 343.792 152.152V151.288C343.792 151.208 343.816 151.14 343.864 151.084C343.92 151.028 343.992 151 344.08 151H345.172C345.26 151 345.332 151.028 345.388 151.084C345.444 151.14 345.472 151.208 345.472 151.288V152.152C345.472 152.24 345.444 152.312 345.388 152.368C345.332 152.416 345.26 152.44 345.172 152.44H344.08Z" fill="white"/>
<path d="M349.74 159.832C349.164 159.832 348.656 159.724 348.216 159.508C347.784 159.292 347.444 158.98 347.196 158.572C346.956 158.156 346.824 157.656 346.8 157.072C346.792 156.952 346.788 156.796 346.788 156.604C346.788 156.404 346.792 156.24 346.8 156.112C346.824 155.528 346.956 155.032 347.196 154.624C347.444 154.208 347.784 153.892 348.216 153.676C348.656 153.46 349.164 153.352 349.74 153.352C350.252 153.352 350.688 153.424 351.048 153.568C351.408 153.712 351.704 153.892 351.936 154.108C352.168 154.324 352.34 154.552 352.452 154.792C352.572 155.024 352.636 155.236 352.644 155.428C352.652 155.516 352.624 155.588 352.56 155.644C352.504 155.692 352.436 155.716 352.356 155.716H351.3C351.22 155.716 351.156 155.696 351.108 155.656C351.068 155.616 351.028 155.556 350.988 155.476C350.868 155.156 350.708 154.932 350.508 154.804C350.316 154.668 350.068 154.6 349.764 154.6C349.364 154.6 349.044 154.728 348.804 154.984C348.572 155.232 348.448 155.628 348.432 156.172C348.416 156.476 348.416 156.756 348.432 157.012C348.448 157.564 348.572 157.964 348.804 158.212C349.044 158.46 349.364 158.584 349.764 158.584C350.076 158.584 350.328 158.52 350.52 158.392C350.712 158.256 350.868 158.028 350.988 157.708C351.028 157.628 351.068 157.568 351.108 157.528C351.156 157.488 351.22 157.468 351.3 157.468H352.356C352.436 157.468 352.504 157.496 352.56 157.552C352.624 157.6 352.652 157.668 352.644 157.756C352.636 157.9 352.596 158.064 352.524 158.248C352.46 158.424 352.352 158.608 352.2 158.8C352.056 158.984 351.872 159.156 351.648 159.316C351.424 159.468 351.152 159.592 350.832 159.688C350.52 159.784 350.156 159.832 349.74 159.832Z" fill="white"/>
<path d="M356.583 159.832C355.695 159.832 354.991 159.576 354.471 159.064C353.951 158.552 353.671 157.824 353.631 156.88C353.623 156.8 353.619 156.7 353.619 156.58C353.619 156.452 353.623 156.352 353.631 156.28C353.663 155.68 353.799 155.16 354.039 154.72C354.287 154.28 354.627 153.944 355.059 153.712C355.491 153.472 355.999 153.352 356.583 153.352C357.231 153.352 357.775 153.488 358.215 153.76C358.655 154.024 358.987 154.396 359.211 154.876C359.435 155.348 359.547 155.896 359.547 156.52V156.772C359.547 156.852 359.519 156.92 359.463 156.976C359.407 157.032 359.335 157.06 359.247 157.06H355.263C355.263 157.06 355.263 157.072 355.263 157.096C355.263 157.12 355.263 157.14 355.263 157.156C355.271 157.436 355.323 157.696 355.419 157.936C355.523 158.168 355.671 158.356 355.863 158.5C356.063 158.644 356.299 158.716 356.571 158.716C356.795 158.716 356.983 158.684 357.135 158.62C357.287 158.548 357.411 158.468 357.507 158.38C357.603 158.292 357.671 158.22 357.711 158.164C357.783 158.068 357.839 158.012 357.879 157.996C357.927 157.972 357.995 157.96 358.083 157.96H359.115C359.195 157.96 359.259 157.984 359.307 158.032C359.363 158.08 359.387 158.14 359.379 158.212C359.371 158.34 359.303 158.496 359.175 158.68C359.055 158.864 358.879 159.044 358.647 159.22C358.415 159.396 358.123 159.544 357.771 159.664C357.427 159.776 357.031 159.832 356.583 159.832ZM355.263 156.052H357.915V156.016C357.915 155.704 357.863 155.432 357.759 155.2C357.655 154.968 357.503 154.784 357.303 154.648C357.103 154.512 356.863 154.444 356.583 154.444C356.303 154.444 356.063 154.512 355.863 154.648C355.663 154.784 355.511 154.968 355.407 155.2C355.311 155.432 355.263 155.704 355.263 156.016V156.052Z" fill="white"/>
<path d="M204.332 157.192L204.537 157.683L205.014 157.449L207.923 156.024L208.348 155.815L208.163 155.379L204.071 145.734L211.04 145.178L212.134 145.091L211.35 144.323L195.35 128.643L194.5 127.81V129V152.07V153.297L195.358 152.419L200.259 147.403L204.332 157.192Z" fill="white" stroke="#022343"/>
</svg>
