<?xml version="1.0" encoding="utf-8"?>
<!--
  Copyright 2023-2025 Solace Systems. All rights reserved.

  Licensed under the Apache License, Version 2.0 (the "License");
  you may not use this file except in compliance with the License.
  You may obtain a copy of the License at

      http://www.apache.org/licenses/LICENSE-2.0

  Unless required by applicable law or agreed to in writing, software
  distributed under the License is distributed on an "AS IS" BASIS,
  WITHOUT WARRANTIES OR CONDITIONS OF ANY KIND, either express or implied.
  See the License for the specific language governing permissions and
  limitations under the License.
-->
<svg width="130" height="130" viewBox="0 0 130 130" fill="none" xmlns="http://www.w3.org/2000/svg">
<rect x="2" y="122" width="126" height="1" fill="#6A6A6A"/>
<path opacity="0.1" d="M121 66.5C121 96.5995 96.5995 121 66.5 121C36.4005 121 12 96.5995 12 66.5C12 36.4005 36.4005 12 66.5 12C96.5995 12 121 36.4005 121 66.5Z" fill="#009193"/>
<rect x="28" y="33" width="74" height="85" rx="2" fill="white"/>
<path fill-rule="evenodd" clip-rule="evenodd" d="M100 35H30L30 116H100V35ZM30 33C28.8954 33 28 33.8954 28 35V116C28 117.105 28.8954 118 30 118H100C101.105 118 102 117.105 102 116V35C102 33.8954 101.105 33 100 33H30Z" fill="#6A6A6A"/>
<path fill-rule="evenodd" clip-rule="evenodd" d="M96 38H34C33.4477 38 33 38.4477 33 39V112C33 112.552 33.4477 113 34 113H96C96.5523 113 97 112.552 97 112V39C97 38.4477 96.5523 38 96 38ZM34 37C32.8954 37 32 37.8954 32 39V112C32 113.105 32.8954 114 34 114H96C97.1046 114 98 113.105 98 112V39C98 37.8954 97.1046 37 96 37H34Z" fill="#6A6A6A"/>
<path d="M42 33.6314C42 32.6301 42.7405 31.7831 43.7328 31.6493L51.6837 30.5775C52.4813 30.4699 53.1367 29.8948 53.347 29.1179L54.3323 25.4775C54.5683 24.6055 55.3595 24 56.2628 24H74.9146C75.8433 24 76.6499 24.6394 76.8618 25.5436L77.69 29.0773C77.8771 29.8757 78.5327 30.479 79.3438 30.5993L86.2934 31.6298C87.2739 31.7753 88 32.617 88 33.6082V41C88 42.1046 87.1046 43 86 43H44C42.8954 43 42 42.1046 42 41V33.6314Z" fill="white"/>
<path fill-rule="evenodd" clip-rule="evenodd" d="M44 41H86V33.6082L79.0505 32.5776C77.4281 32.3371 76.117 31.1305 75.7428 29.5337L74.9146 26H56.2628L55.2775 29.6404C54.857 31.1941 53.5461 32.3445 51.9509 32.5595L44 33.6314L44 41ZM43.7328 31.6493C42.7405 31.7831 42 32.6301 42 33.6314V41C42 42.1046 42.8954 43 44 43H86C87.1046 43 88 42.1046 88 41V33.6082C88 32.617 87.2739 31.7753 86.2934 31.6298L79.3438 30.5993C78.5327 30.479 77.8771 29.8757 77.69 29.0773L76.8618 25.5436C76.6499 24.6394 75.8433 24 74.9146 24H56.2628C55.3595 24 54.5683 24.6055 54.3323 25.4775L53.347 29.1179C53.1367 29.8948 52.4813 30.4699 51.6837 30.5775L43.7328 31.6493Z" fill="#6A6A6A"/>
<path fill-rule="evenodd" clip-rule="evenodd" d="M72.5113 29L59 29V33.2045L72.5113 33.2045V29ZM59 28C58.4477 28 58 28.4477 58 29V33.2045C58 33.7568 58.4477 34.2045 59 34.2045H72.5113C73.0635 34.2045 73.5113 33.7568 73.5113 33.2045V29C73.5113 28.4477 73.0635 28 72.5113 28H59Z" fill="#6A6A6A"/>
<path fill-rule="evenodd" clip-rule="evenodd" d="M39 46C39.5523 46 40 46.4477 40 47L40 75C40 75.5523 39.5523 76 39 76C38.4477 76 38 75.5523 38 75L38 47C38 46.4477 38.4477 46 39 46Z" fill="#6A6A6A"/>
<path fill-rule="evenodd" clip-rule="evenodd" d="M90 75C90 75.5523 89.5523 76 89 76H39C38.4477 76 38 75.5523 38 75C38 74.4477 38.4477 74 39 74H89C89.5523 74 90 74.4477 90 75Z" fill="#6A6A6A"/>
<path fill-rule="evenodd" clip-rule="evenodd" d="M84.8253 50.4353C85.1372 50.8911 85.0205 51.5134 84.5647 51.8253L83.0249 52.8788C82.5691 53.1907 81.9468 53.074 81.6349 52.6182C81.3231 52.1624 81.4398 51.5401 81.8956 51.2282L83.4353 50.1747C83.8911 49.8628 84.5135 49.9795 84.8253 50.4353ZM50.6591 54.7244L52.2444 55.8868C52.6898 56.2134 53.3156 56.1171 53.6422 55.6717C53.9687 55.2263 53.8724 54.6005 53.4271 54.2739L51.7623 53.0532C50.9621 52.4665 49.8447 52.5968 49.201 53.3519L48.2058 54.5194C47.8475 54.9397 47.8977 55.5709 48.318 55.9292C48.7383 56.2874 49.3695 56.2372 49.7278 55.8169L50.6591 54.7244ZM80.206 53.5959C80.5179 54.0517 80.4012 54.674 79.9454 54.9859L76.8658 57.0929C76.41 57.4048 75.7877 57.2881 75.4758 56.8323C75.164 56.3765 75.2806 55.7542 75.7365 55.4423L78.816 53.3353C79.2718 53.0234 79.8941 53.1401 80.206 53.5959ZM47.625 56.7421C48.0453 57.1004 48.0956 57.7316 47.7373 58.1519L45.7468 60.4869C45.3885 60.9072 44.7573 60.9575 44.337 60.5992C43.9167 60.2409 43.8665 59.6097 44.2248 59.1894L46.2153 56.8544C46.5735 56.4341 47.2047 56.3838 47.625 56.7421ZM55.3589 56.9305C55.6855 56.4851 56.3113 56.3888 56.7566 56.7154L60.0862 59.1569C60.5316 59.4834 60.6279 60.1092 60.3013 60.5546C59.9748 61 59.349 61.0963 58.9036 60.7697L55.574 58.3283C55.1286 58.0017 55.0323 57.3759 55.3589 56.9305ZM74.0469 57.81C74.3588 58.2658 74.2421 58.8881 73.7863 59.2L70.7067 61.3071C70.2509 61.6189 69.6286 61.5022 69.3167 61.0464C69.0049 60.5906 69.1215 59.9683 69.5773 59.6565L72.6569 57.5494C73.1127 57.2375 73.735 57.3542 74.0469 57.81ZM43.644 61.4122C44.0643 61.7705 44.1146 62.4016 43.7563 62.8219L42.761 63.9894C42.4028 64.4097 41.7716 64.46 41.3513 64.1017C40.931 63.7434 40.8807 63.1123 41.239 62.692L42.2343 61.5245C42.5925 61.1042 43.2237 61.0539 43.644 61.4122ZM62.0181 61.8134C62.3446 61.368 62.9704 61.2717 63.4158 61.5983L65.02 62.7746L66.4978 61.7635C66.9536 61.4516 67.5759 61.5683 67.8878 62.0241C68.1996 62.4799 68.083 63.1023 67.6272 63.4141L66.0874 64.4677C65.4239 64.9216 64.5462 64.9073 63.898 64.4319L62.2332 63.2112C61.7878 62.8846 61.6915 62.2588 62.0181 61.8134Z" fill="#6A6A6A"/>
<path d="M56.9161 69.1093L64.6805 58.4207L71.3589 66.2354C71.9873 66.9706 72.9964 67.2556 73.9165 66.9575L87.4622 62.5699C88.2504 62.3146 88.6823 61.4688 88.427 60.6807C88.1717 59.8926 87.3259 59.4606 86.5378 59.7159L73.3768 63.9789L66.4618 55.8874C65.4561 54.7106 63.6148 54.7833 62.705 56.0357L54.9396 66.7258L51.5164 62.7383C50.5095 61.5655 48.6716 61.6401 47.7632 62.8907L41.7864 71.1185C41.2995 71.7887 41.4482 72.7268 42.1184 73.2136C42.7887 73.7005 43.7267 73.5519 44.2136 72.8816L49.7397 65.2743L53.1628 69.2617C54.1697 70.4346 56.0076 70.36 56.9161 69.1093Z" fill="#6A6A6A" stroke="white" stroke-linecap="round"/>
<path fill-rule="evenodd" clip-rule="evenodd" d="M88.464 48.4214C88.6066 48.645 88.6545 48.9161 88.5972 49.1751L87.64 53.4999C87.5207 54.0391 86.9868 54.3795 86.4476 54.2601C85.9083 54.1408 85.568 53.6069 85.6873 53.0677L86.4283 49.7195L83.1619 48.9972C82.6227 48.8779 82.2822 48.3441 82.4014 47.8048C82.5207 47.2656 83.0545 46.9251 83.5938 47.0444L87.8368 47.9826C88.0958 48.0399 88.3214 48.1977 88.464 48.4214Z" fill="#6A6A6A"/>
<path fill-rule="evenodd" clip-rule="evenodd" d="M90.0251 59.8607C90.1216 60.1078 90.116 60.3831 90.0095 60.626L88.2311 64.6827C88.0094 65.1885 87.4196 65.4188 86.9138 65.1971C86.408 64.9754 86.1777 64.3856 86.3994 63.8797L87.7762 60.7391L84.7121 59.3965C84.2062 59.1749 83.9758 58.5851 84.1975 58.0793C84.4191 57.5734 85.0089 57.343 85.5147 57.5646L89.4949 59.3086C89.7379 59.415 89.9286 59.6136 90.0251 59.8607Z" fill="#6A6A6A"/>
<path d="M58 90.5C58 90.2239 58.2239 90 58.5 90H76.5C76.7761 90 77 90.2239 77 90.5V90.5C77 90.7761 76.7761 91 76.5 91H58.5C58.2239 91 58 90.7761 58 90.5V90.5Z" fill="#6A6A6A"/>
<path d="M58 106.5C58 106.224 58.2239 106 58.5 106H76.5C76.7761 106 77 106.224 77 106.5V106.5C77 106.776 76.7761 107 76.5 107H58.5C58.2239 107 58 106.776 58 106.5V106.5Z" fill="#6A6A6A"/>
<path d="M58 84.5C58 84.2239 58.2239 84 58.5 84H89.5C89.7761 84 90 84.2239 90 84.5V84.5C90 84.7761 89.7761 85 89.5 85H58.5C58.2239 85 58 84.7761 58 84.5V84.5Z" fill="#6A6A6A"/>
<path d="M58 100.5C58 100.224 58.2239 100 58.5 100H89.5C89.7761 100 90 100.224 90 100.5V100.5C90 100.776 89.7761 101 89.5 101H58.5C58.2239 101 58 100.776 58 100.5V100.5Z" fill="#6A6A6A"/>
<path fill-rule="evenodd" clip-rule="evenodd" d="M46 91C48.2091 91 50 89.2091 50 87C50 84.7909 48.2091 83 46 83C43.7909 83 42 84.7909 42 87C42 89.2091 43.7909 91 46 91ZM46 93C49.3137 93 52 90.3137 52 87C52 83.6863 49.3137 81 46 81C42.6863 81 40 83.6863 40 87C40 90.3137 42.6863 93 46 93Z" fill="#6A6A6A"/>
<path fill-rule="evenodd" clip-rule="evenodd" d="M49.3408 101H43L43 106.307L49.3408 106.307L49.3408 101ZM43 99C41.8954 99 41 99.8954 41 101V106.307C41 107.411 41.8954 108.307 43 108.307H49.3408C50.4454 108.307 51.3408 107.411 51.3408 106.307V101C51.3408 99.8954 50.4454 99 49.3408 99H43Z" fill="#6A6A6A"/>
</svg>