<svg width="136" height="136" viewBox="0 0 136 136" fill="none" xmlns="http://www.w3.org/2000/svg">
<g clip-path="url(#clip0_156_5652)">
<path d="M116 79C116 106.614 93.6142 129 66 129C38.3858 129 16 106.614 16 79C16 51.3858 38.3858 29 66 29C93.6142 29 116 51.3858 116 79Z" fill="#DBDFE2"/>
<path d="M91 81C85.4772 81 81 85.4772 81 91V100.213C78.7514 101.185 75.6147 101.684 72.291 102.212L72.0055 102.258C71.2178 102.383 70.7527 103.047 71.1376 103.607C73.7297 107.374 78.3558 109.454 81 110.387V119C81 124.523 85.4772 129 91 129H119C124.523 129 129 124.523 129 119V91C129 85.4772 124.523 81 119 81H91Z" fill="white"/>
<path fill-rule="evenodd" clip-rule="evenodd" d="M83 101.527L81.7938 102.048C79.6295 102.984 76.8115 103.508 74.0211 103.961C76.3111 106.291 79.5227 107.745 81.6657 108.501L83 108.972V119C83 123.418 86.5817 127 91 127H119C123.418 127 127 123.418 127 119V91C127 86.5817 123.418 83 119 83H91C86.5817 83 83 86.5817 83 91V101.527ZM72.0055 102.258L72.291 102.212C75.6147 101.684 78.7514 101.185 81 100.213V91C81 85.4772 85.4772 81 91 81H119C124.523 81 129 85.4772 129 91V119C129 124.523 124.523 129 119 129H91C85.4772 129 81 124.523 81 119V110.387C78.3558 109.454 73.7297 107.374 71.1376 103.607C70.7527 103.047 71.2178 102.383 72.0055 102.258Z" fill="#6A6A6A"/>
<rect x="89.0283" y="94" width="8" height="1" rx="0.5" fill="#6A6A6A"/>
<rect x="89.0283" y="89" width="12" height="1" rx="0.5" fill="#6A6A6A"/>
<rect x="89.0283" y="99" width="8" height="1" rx="0.5" fill="#6A6A6A"/>
<rect x="89.0283" y="110" width="16" height="1" rx="0.5" fill="#6A6A6A"/>
<rect x="89.0283" y="115" width="32" height="1" rx="0.5" fill="#6A6A6A"/>
<rect x="89.0283" y="120" width="24" height="1" rx="0.5" fill="#6A6A6A"/>
<circle cx="112.528" cy="98" r="10" fill="#00C895"/>
<path d="M111.528 103.6C111.528 103.8 111.728 104 111.928 104H113.128C113.328 104 113.528 103.8 113.528 103.6V102.4C113.528 102.2 113.328 102 113.128 102H111.928C111.728 102 111.528 102.2 111.528 102.4V103.6ZM112.528 92C110.428 92 108.728 93.6 108.528 95.6C108.528 95.8 108.728 96 108.928 96H110.128C110.328 96 110.528 95.8 110.528 95.6C110.728 94.7 111.528 94 112.528 94C113.628 94 114.528 94.9 114.528 96C114.528 97.9 111.828 97.8 111.528 100.6C111.528 100.8 111.728 101 111.928 101H113.128C113.328 101 113.528 100.8 113.528 100.6C113.828 98.7 116.528 98.3 116.528 96C116.528 93.8 114.728 92 112.528 92Z" fill="white"/>
<path fill-rule="evenodd" clip-rule="evenodd" d="M55.0169 9L55.0118 9.00001C46.0281 9.02116 37.4029 12.2946 31.0245 18.1289C24.6432 23.9659 21.0272 31.8968 21 40.1948L21 40.1981L21.0001 68.9887C21 68.9924 21 68.9962 21 69C21 69.4142 21.2519 69.7696 21.6108 69.9214C21.7304 69.972 21.862 70 22 70H26.0001C26.2653 70 26.5196 69.8946 26.7072 69.7071C26.8947 69.5196 27.0001 69.2652 27.0001 69L27 41.3465C27.0226 34.4295 29.9649 27.7877 35.2074 22.8766C40.452 17.9636 47.571 15.1853 55.0122 15.1667C62.4501 15.1883 69.5647 17.9683 74.8046 22.8812C80.0426 27.7922 82.9806 34.4323 82.9999 41.3463L83 41.3477L82.9999 66.2886C82.9999 66.8409 83.4477 67.2886 83.9999 67.2886H88C88.5523 67.2886 89 66.8409 89 66.2886C89 66.2848 89 66.2811 88.9999 66.2773V66.2756L88.9999 40.1981L88.9999 40.1953C88.9766 31.9007 85.3658 23.9717 78.9899 18.1346C72.6169 12.3002 63.9968 9.02471 55.0169 9Z" fill="white"/>
<path fill-rule="evenodd" clip-rule="evenodd" d="M55.0169 9L55.0118 9.00001C46.0281 9.02116 37.4029 12.2946 31.0245 18.1289C24.6432 23.9659 21.0272 31.8968 21 40.1948L21 40.1981L21.0001 68.9887L21 69C21 69.4142 21.2519 69.7696 21.6108 69.9214C21.7304 69.972 21.862 70 22 70H26.0001C26.2653 70 26.5196 69.8946 26.7072 69.7071C26.8947 69.5196 27.0001 69.2652 27.0001 69L27 41.3465C27.0226 34.4295 29.9649 27.7877 35.2074 22.8766C40.452 17.9636 47.571 15.1853 55.0122 15.1667C62.4501 15.1883 69.5647 17.9683 74.8046 22.8812C80.0426 27.7922 82.9806 34.4323 82.9999 41.3463L83 41.3477L82.9999 66.2886L83 66.2914C83.0015 66.8424 83.4486 67.2886 83.9999 67.2886H88C88.5523 67.2886 89 66.8409 89 66.2886L88.9999 66.2787L88.9999 66.2773L88.9999 40.1981L88.9999 40.1953C88.9766 31.9007 85.3658 23.9717 78.9899 18.1346C72.6169 12.3002 63.9968 9.02471 55.0169 9ZM55.0165 11C46.5071 11.02 38.3682 14.1222 32.3744 19.6047C26.3839 25.0842 23.0258 32.4907 23 40.1997L23.0001 68H25.0001L25 41.34C25.0245 33.8514 28.211 26.6903 33.8401 21.417C39.4668 16.146 47.0777 13.1865 55.0072 13.1667L55.0181 13.1667C62.9443 13.1897 70.5506 16.1511 76.1726 21.4222C81.797 26.6956 84.979 33.8551 84.9999 41.3408L85 41.3477L84.9999 65.2886H86.9999L86.9999 40.2035L86.9999 40.2009C86.9783 32.4947 83.625 25.0896 77.6394 19.6098C71.6521 14.1285 63.5203 11.0246 55.0165 11ZM23 40.2014L23 40.1997Z" fill="#6A6A6A"/>
<path fill-rule="evenodd" clip-rule="evenodd" d="M21 82V70H23V82C23 92.4934 31.5066 101 42 101H46V103H42C30.402 103 21 93.598 21 82Z" fill="#6A6A6A"/>
<path d="M29 60C29 67.732 29 74 29 74C21.8203 74 16 67.732 16 60C16 52.268 21.8203 46 29 46C29 46 29 52.268 29 60Z" fill="white"/>
<path fill-rule="evenodd" clip-rule="evenodd" d="M26.9999 48.2004C21.9685 49.2186 18 54.0059 18 60C18 65.9941 21.9685 70.7814 26.9999 71.7996V48.2004ZM26.9999 73.8353C20.7698 72.7993 16 66.9995 16 60C16 53.0005 20.7698 47.2007 26.9999 46.1647C27.6516 46.0563 28.3192 46 28.999 46C28.9987 46 28.9993 46 28.999 46L28.9999 74C29.0002 74 28.9996 74 28.9999 74C28.3201 74 27.6516 73.9437 26.9999 73.8353Z" fill="#6A6A6A"/>
<path d="M27 47C27 43.6863 29.6863 41 33 41V41C36.3137 41 39 43.6863 39 47V73C39 76.3137 36.3137 79 33 79V79C29.6863 79 27 76.3137 27 73V47Z" fill="white"/>
<path fill-rule="evenodd" clip-rule="evenodd" d="M37 73V47C37 44.7909 35.2091 43 33 43C30.7909 43 29 44.7909 29 47V73C29 75.2091 30.7909 77 33 77C35.2091 77 37 75.2091 37 73ZM33 41C29.6863 41 27 43.6863 27 47V73C27 76.3137 29.6863 79 33 79C36.3137 79 39 76.3137 39 73V47C39 43.6863 36.3137 41 33 41Z" fill="#6A6A6A"/>
<path d="M81 60C81 52.268 81 46 81 46C88.1797 46 94 52.268 94 60C94 67.732 88.1797 74 81 74C81 74 81 67.732 81 60Z" fill="white"/>
<path fill-rule="evenodd" clip-rule="evenodd" d="M83.0001 71.7996C88.0315 70.7814 92 65.9941 92 60C92 54.0059 88.0315 49.2186 83.0001 48.2004L83.0001 71.7996ZM83.0001 46.1647C89.2302 47.2007 94 53.0005 94 60C94 66.9995 89.2302 72.7993 83.0001 73.8353C82.3484 73.9437 81.6808 74 81.001 74C81.0013 74 81.0007 74 81.001 74L81.0001 46C80.9998 46 81.0004 46 81.0001 46C81.6799 46 82.3484 46.0563 83.0001 46.1647Z" fill="#6A6A6A"/>
<path d="M83 73C83 76.3137 80.3137 79 77 79V79C73.6863 79 71 76.3137 71 73L71 47C71 43.6863 73.6863 41 77 41V41C80.3137 41 83 43.6863 83 47L83 73Z" fill="white"/>
<path fill-rule="evenodd" clip-rule="evenodd" d="M73 47L73 73C73 75.2091 74.7909 77 77 77C79.2091 77 81 75.2091 81 73L81 47C81 44.7909 79.2091 43 77 43C74.7909 43 73 44.7909 73 47ZM77 79C80.3137 79 83 76.3137 83 73L83 47C83 43.6863 80.3137 41 77 41C73.6863 41 71 43.6863 71 47L71 73C71 76.3137 73.6863 79 77 79Z" fill="#6A6A6A"/>
<path d="M37 101C37 98.7909 38.7909 97 41 97H55C57.2091 97 59 98.7909 59 101V103C59 105.209 57.2091 107 55 107H41C38.7909 107 37 105.209 37 103V101Z" fill="white"/>
<path fill-rule="evenodd" clip-rule="evenodd" d="M55 99H41C39.8954 99 39 99.8954 39 101V103C39 104.105 39.8954 105 41 105H55C56.1046 105 57 104.105 57 103V101C57 99.8954 56.1046 99 55 99ZM41 97C38.7909 97 37 98.7909 37 101V103C37 105.209 38.7909 107 41 107H55C57.2091 107 59 105.209 59 103V101C59 98.7909 57.2091 97 55 97H41Z" fill="#6A6A6A"/>
</g>
<defs>
<clipPath id="clip0_156_5652">
<rect width="136" height="136" fill="white"/>
</clipPath>
</defs>
</svg>
