<?xml version="1.0" encoding="utf-8"?>
<!--
  Copyright 2023-2025 Solace Systems. All rights reserved.

  Licensed under the Apache License, Version 2.0 (the "License");
  you may not use this file except in compliance with the License.
  You may obtain a copy of the License at

      http://www.apache.org/licenses/LICENSE-2.0

  Unless required by applicable law or agreed to in writing, software
  distributed under the License is distributed on an "AS IS" BASIS,
  WITHOUT WARRANTIES OR CONDITIONS OF ANY KIND, either express or implied.
  See the License for the specific language governing permissions and
  limitations under the License.
-->
<svg width="48" height="49" viewBox="0 0 48 49" fill="none" xmlns="http://www.w3.org/2000/svg">
<path fill-rule="evenodd" clip-rule="evenodd" d="M13.4063 20.0729V15.428C13.4063 9.83086 18.1492 5.29352 23.9999 5.29352C29.8505 5.29352 34.5934 9.83086 34.5934 15.428L34.5936 20.0729H36.712C37.8821 20.0729 38.8307 21.0182 38.8307 22.1842V41.1863C38.8307 42.3524 37.8821 43.2977 36.712 43.2977H11.2876C10.1175 43.2977 9.16895 42.3524 9.16895 41.1863V22.1842C9.16895 21.0182 10.1175 20.0729 11.2876 20.0729H13.4063ZM30.3561 20.0729L30.356 16.3791C30.356 12.6477 27.5103 9.62283 23.9999 9.62283C20.4895 9.62283 17.6438 12.6477 17.6438 16.3791V20.0729H30.3561Z" fill="white"/>
<path fill-rule="evenodd" clip-rule="evenodd" d="M23.9999 6.29352C18.6593 6.29352 14.4063 10.4244 14.4063 15.428V19.0729H16.6438V16.3791C16.6438 12.1538 19.8806 8.62283 23.9999 8.62283C28.1192 8.62283 31.356 12.1538 31.356 16.3791C31.356 16.3791 31.356 16.3791 31.356 16.3791L31.3561 19.0729H33.5935L33.5934 15.428C33.5934 10.4245 29.3404 6.29352 23.9999 6.29352ZM35.5935 19.0729H36.712C38.4311 19.0729 39.8307 20.4626 39.8307 22.1842V41.1863C39.8307 42.9079 38.4312 44.2977 36.712 44.2977H11.2876C9.56852 44.2977 8.16895 42.9079 8.16895 41.1863V22.1842C8.16895 20.4626 9.56852 19.0729 11.2876 19.0729H12.4063V15.428C12.4063 9.23729 17.6391 4.29352 23.9999 4.29352C30.3605 4.29352 35.5933 9.23726 35.5934 15.4279C35.5934 15.4279 35.5934 15.4279 35.5934 15.4279L35.5935 19.0729ZM11.2876 21.0729C10.6665 21.0729 10.1689 21.5737 10.1689 22.1842V41.1863C10.1689 41.7968 10.6665 42.2977 11.2876 42.2977H36.712C37.3331 42.2977 37.8307 41.7968 37.8307 41.1863V22.1842C37.8307 21.5738 37.3331 21.0729 36.712 21.0729H11.2876ZM29.3561 19.0729L29.356 16.3792C29.356 13.1417 26.9013 10.6228 23.9999 10.6228C21.0984 10.6228 18.6438 13.1416 18.6438 16.3791V19.0729H29.3561Z" fill="#6A6A6A"/>
<path d="M25.6393 33.4332C26.8649 32.8466 27.7079 31.6226 27.7079 30.2077C27.7079 28.2223 26.0479 26.6129 24.0002 26.6129C21.9525 26.6129 20.2925 28.2223 20.2925 30.2077C20.2925 31.6227 21.1357 32.8468 22.3615 33.4333V36.147C22.3615 37.0246 23.0953 37.736 24.0004 37.736C24.9055 37.736 25.6393 37.0246 25.6393 36.147V33.4332Z" fill="#6A6A6A"/>
<path fill-rule="evenodd" clip-rule="evenodd" d="M35.623 22.9051C35.8992 22.9051 36.123 23.1289 36.123 23.4051L36.123 40.0168C36.123 40.2929 35.8992 40.5168 35.623 40.5168C35.3469 40.5168 35.123 40.2929 35.123 40.0168L35.123 23.4051C35.123 23.1289 35.3469 22.9051 35.623 22.9051Z" fill="#6A6A6A"/>
<line x1="12.4497" y1="23.4051" x2="12.4497" y2="40.0168" stroke="#6A6A6A" stroke-linecap="round"/>
</svg>