<?xml version="1.0" encoding="utf-8"?>
<!--
  Copyright 2023-2025 Solace Systems. All rights reserved.

  Licensed under the Apache License, Version 2.0 (the "License");
  you may not use this file except in compliance with the License.
  You may obtain a copy of the License at

      http://www.apache.org/licenses/LICENSE-2.0

  Unless required by applicable law or agreed to in writing, software
  distributed under the License is distributed on an "AS IS" BASIS,
  WITHOUT WARRANTIES OR CONDITIONS OF ANY KIND, either express or implied.
  See the License for the specific language governing permissions and
  limitations under the License.
-->
<svg width="136" height="136" viewBox="0 0 136 136" fill="none" xmlns="http://www.w3.org/2000/svg">
<g clip-path="url(#clip0_11908_44882)">
<path d="M123 74C123 106.585 96.5848 133 64 133C31.4152 133 5 106.585 5 74C5 41.4152 31.4152 15 64 15C96.5848 15 123 41.4152 123 74Z" fill="#DBDFE2"/>
<path fill-rule="evenodd" clip-rule="evenodd" d="M9.95966 69.5017C10.2349 69.4794 10.4761 69.6844 10.4984 69.9597C10.5244 70.2806 10.554 70.6072 10.5873 70.9391C10.6148 71.2138 10.4144 71.4589 10.1396 71.4864C9.86485 71.514 9.61978 71.3136 9.59224 71.0388C9.55835 70.7007 9.52818 70.3678 9.50166 70.0404C9.47936 69.7652 9.68441 69.524 9.95966 69.5017ZM10.3964 73.5001C10.6694 73.4584 10.9245 73.6458 10.9663 73.9187C11.0647 74.5622 11.1757 75.2199 11.2997 75.8903C11.35 76.1618 11.1706 76.4227 10.899 76.4729C10.6275 76.5231 10.3666 76.3437 10.3164 76.0722C10.1905 75.3917 10.0778 74.7238 9.97777 74.07C9.936 73.797 10.1234 73.5419 10.3964 73.5001ZM11.3092 78.445C11.5783 78.3829 11.8467 78.5508 11.9088 78.8199C12.0562 79.4597 12.2151 80.108 12.3856 80.7636C12.4552 81.0309 12.2949 81.3039 12.0276 81.3734C11.7604 81.4429 11.4874 81.2826 11.4179 81.0154C11.2449 80.3507 11.0839 79.6934 10.9343 79.0445C10.8723 78.7754 11.0401 78.507 11.3092 78.445ZM12.5769 83.3193C12.8411 83.2388 13.1205 83.3878 13.2009 83.6519C13.3929 84.2826 13.5957 84.9181 13.8095 85.5574C13.897 85.8193 13.7557 86.1026 13.4938 86.1902C13.2319 86.2777 12.9486 86.1364 12.8611 85.8745C12.6444 85.2266 12.4389 84.5825 12.2443 83.9432C12.1638 83.6791 12.3128 83.3997 12.5769 83.3193ZM14.1742 88.0951C14.4323 87.9969 14.7212 88.1265 14.8194 88.3846C15.0544 89.0025 15.2999 89.6225 15.556 90.2437C15.6612 90.499 15.5396 90.7913 15.2843 90.8965C15.029 91.0018 14.7367 90.8801 14.6314 90.6248C14.3718 89.995 14.123 89.3665 13.8847 88.7402C13.7865 88.4821 13.9161 88.1933 14.1742 88.0951ZM16.0938 92.7495C16.3445 92.6337 16.6416 92.7429 16.7575 92.9936C17.0354 93.5948 17.3237 94.1961 17.6224 94.7965C17.7454 95.0437 17.6447 95.3439 17.3974 95.4669C17.1502 95.5899 16.85 95.4892 16.727 95.2419C16.424 94.6328 16.1317 94.023 15.8498 93.4132C15.7339 93.1625 15.8432 92.8654 16.0938 92.7495ZM18.3371 97.2565C18.5787 97.1228 18.883 97.2102 19.0167 97.4517C19.3381 98.032 19.6697 98.6105 20.0117 99.1864C20.1528 99.4238 20.0746 99.7306 19.8372 99.8716C19.5998 100.013 19.293 99.9345 19.152 99.6971C18.8047 99.1124 18.4681 98.5252 18.1419 97.9362C18.0081 97.6946 18.0955 97.3903 18.3371 97.2565ZM20.9091 101.585C21.1397 101.433 21.4498 101.496 21.6017 101.727C21.9671 102.281 22.3428 102.832 22.729 103.379C22.8883 103.604 22.8346 103.916 22.609 104.076C22.3835 104.235 22.0715 104.181 21.9122 103.956C21.5197 103.4 21.138 102.84 20.7668 102.277C20.6148 102.047 20.6785 101.737 20.9091 101.585ZM23.8149 105.697C24.0322 105.526 24.3465 105.564 24.5168 105.782C24.9262 106.304 25.3459 106.821 25.7761 107.333C25.9538 107.545 25.9265 107.86 25.7151 108.038C25.5037 108.215 25.1883 108.188 25.0106 107.977C24.5729 107.456 24.146 106.93 23.7298 106.399C23.5594 106.181 23.5975 105.867 23.8149 105.697ZM27.0562 109.551C27.2579 109.362 27.5743 109.373 27.7629 109.575C28.2148 110.058 28.6771 110.535 29.1499 111.005C29.3456 111.2 29.3465 111.516 29.1517 111.712C28.957 111.908 28.6404 111.909 28.4446 111.714C27.9632 111.235 27.4926 110.749 27.0326 110.258C26.8439 110.056 26.8545 109.739 27.0562 109.551ZM30.6234 113.097C30.807 112.891 31.123 112.873 31.3293 113.056C31.8237 113.496 32.3284 113.929 32.8436 114.353C33.0567 114.529 33.0871 114.844 32.9115 115.057C32.7359 115.27 32.4207 115.301 32.2076 115.125C31.6825 114.692 31.1683 114.251 30.6646 113.803C30.4583 113.62 30.4398 113.304 30.6234 113.097ZM34.5068 116.297C34.6699 116.074 34.9827 116.025 35.2056 116.188C35.7403 116.58 36.2854 116.963 36.8409 117.337C37.0699 117.491 37.1305 117.802 36.9763 118.031C36.822 118.26 36.5113 118.32 36.2823 118.166C35.7159 117.785 35.1602 117.394 34.6151 116.996C34.3923 116.832 34.3438 116.52 34.5068 116.297ZM38.6851 119.11C38.8257 118.873 39.1323 118.794 39.37 118.934C39.9374 119.27 40.5148 119.597 41.1025 119.914C41.3454 120.045 41.4361 120.348 41.3049 120.591C41.1737 120.834 40.8704 120.925 40.6274 120.794C40.0283 120.47 39.4395 120.137 38.8609 119.795C38.6233 119.655 38.5445 119.348 38.6851 119.11ZM43.1094 121.498C43.2262 121.248 43.5237 121.14 43.7739 121.257C44.3718 121.536 44.9794 121.805 45.5968 122.065C45.8514 122.172 45.9709 122.465 45.8638 122.72C45.7567 122.975 45.4636 123.094 45.2091 122.987C44.5798 122.722 43.9604 122.447 43.351 122.163C43.1007 122.046 42.9926 121.749 43.1094 121.498ZM47.7491 123.451C47.8415 123.19 48.1274 123.054 48.3876 123.147C49.0094 123.368 49.6405 123.579 50.281 123.78C50.5445 123.863 50.691 124.144 50.6082 124.407C50.5254 124.671 50.2448 124.817 49.9813 124.734C49.329 124.529 48.6862 124.314 48.0528 124.089C47.7926 123.997 47.6566 123.711 47.7491 123.451ZM66.1716 123.464L69.3536 126.646C69.5488 126.842 69.5488 127.158 69.3536 127.354L66.1716 130.536C65.9763 130.731 65.6598 130.731 65.4645 130.536C65.2692 130.34 65.2692 130.024 65.4645 129.828L67.8239 127.469C67.6203 127.403 67.4742 127.211 67.4773 126.986C67.4803 126.77 67.6202 126.588 67.8134 126.52L65.4645 124.172C65.2692 123.976 65.2692 123.66 65.4645 123.464C65.6598 123.269 65.9763 123.269 66.1716 123.464ZM52.5482 124.959C52.6166 124.691 52.8889 124.53 53.1565 124.598C53.795 124.762 54.4423 124.915 55.0984 125.059C55.3682 125.118 55.539 125.385 55.48 125.654C55.4209 125.924 55.1544 126.095 54.8846 126.036C54.2171 125.89 53.5585 125.733 52.9087 125.567C52.6411 125.499 52.4797 125.227 52.5482 124.959ZM57.4697 126.037C57.515 125.764 57.7726 125.58 58.045 125.626C58.6928 125.733 59.3487 125.832 60.0129 125.92C60.2866 125.957 60.4789 126.208 60.4424 126.482C60.4059 126.756 60.1545 126.948 59.8807 126.911C59.206 126.822 58.5394 126.722 57.8809 126.612C57.6085 126.567 57.4244 126.309 57.4697 126.037ZM62.4481 126.701C62.4719 126.426 62.7141 126.223 62.9892 126.246C63.6521 126.303 64.3228 126.351 65.0013 126.389C65.277 126.405 65.4879 126.641 65.4725 126.917C65.457 127.192 65.2209 127.403 64.9452 127.388C64.2568 127.349 63.5762 127.301 62.9033 127.243C62.6282 127.219 62.4244 126.977 62.4481 126.701Z" fill="#6A6A6A"/>
<path fill-rule="evenodd" clip-rule="evenodd" d="M129.04 68.4983C128.765 68.5206 128.524 68.3156 128.502 68.0403C128.475 67.7137 128.445 67.3815 128.411 67.0438C128.384 66.7691 128.584 66.524 128.859 66.4965C129.134 66.469 129.379 66.6694 129.406 66.9442C129.441 67.288 129.471 67.6266 129.498 67.9596C129.521 68.2349 129.316 68.4761 129.04 68.4983ZM128.596 64.431C128.323 64.4727 128.068 64.2852 128.026 64.0123C127.926 63.3576 127.813 62.6884 127.687 62.0064C127.637 61.7349 127.816 61.4741 128.088 61.4239C128.359 61.3737 128.62 61.5531 128.67 61.8246C128.798 62.5167 128.913 63.1961 129.014 63.8611C129.056 64.1341 128.869 64.3892 128.596 64.431ZM127.667 59.4009C127.398 59.4629 127.13 59.295 127.068 59.0259C126.918 58.3749 126.756 57.7153 126.583 57.0483C126.513 56.781 126.674 56.508 126.941 56.4385C127.208 56.3691 127.481 56.5294 127.551 56.7967C127.726 57.4727 127.89 58.1414 128.042 58.8014C128.104 59.0705 127.936 59.3389 127.667 59.4009ZM126.378 54.4425C126.114 54.5228 125.834 54.3738 125.754 54.1096C125.559 53.468 125.353 52.8214 125.135 52.1709C125.048 51.909 125.189 51.6258 125.451 51.5382C125.713 51.4507 125.996 51.5921 126.084 51.854C126.304 52.5131 126.513 53.1683 126.711 53.8186C126.791 54.0828 126.642 54.3621 126.378 54.4425ZM124.754 49.5841C124.496 49.6822 124.207 49.5525 124.109 49.2944C123.87 48.6657 123.62 48.0349 123.36 47.4028C123.255 47.1475 123.376 46.8552 123.632 46.7501C123.887 46.6449 124.179 46.7666 124.284 47.0219C124.548 47.6626 124.801 48.302 125.043 48.9391C125.142 49.1972 125.012 49.486 124.754 49.5841ZM122.802 44.8491C122.551 44.9649 122.254 44.8555 122.138 44.6048C121.856 43.993 121.563 43.3812 121.259 42.7703C121.136 42.523 121.237 42.2229 121.484 42.1C121.731 41.9771 122.031 42.0779 122.154 42.3252C122.462 42.9448 122.759 43.5652 123.046 44.1855C123.162 44.4362 123.052 44.7333 122.802 44.8491ZM120.521 40.2639C120.279 40.3976 119.975 40.3101 119.841 40.0685C119.514 39.4779 119.177 38.8893 118.83 38.3033C118.689 38.0658 118.767 37.759 119.004 37.6181C119.242 37.4772 119.549 37.5554 119.689 37.7929C120.042 38.3877 120.385 38.9851 120.716 39.5843C120.85 39.8259 120.762 40.1302 120.521 40.2639ZM117.905 35.8606C117.675 36.0124 117.365 35.9486 117.213 35.718C116.841 35.1538 116.459 34.5932 116.067 34.0368C115.907 33.8112 115.961 33.4992 116.187 33.34C116.413 33.1808 116.725 33.2346 116.884 33.4602C117.283 34.0255 117.671 34.595 118.048 35.168C118.2 35.3986 118.136 35.7087 117.905 35.8606ZM114.951 31.6768C114.733 31.847 114.419 31.8088 114.249 31.5914C113.833 31.0598 113.406 30.5333 112.968 30.0124C112.791 29.8009 112.818 29.4856 113.03 29.308C113.241 29.1304 113.556 29.1578 113.734 29.3693C114.179 29.8991 114.613 30.4345 115.036 30.9749C115.206 31.1923 115.168 31.5066 114.951 31.6768ZM111.655 27.7553C111.453 27.9438 111.136 27.9331 110.948 27.7313C110.488 27.2394 110.018 26.7539 109.537 26.2752C109.342 26.0804 109.341 25.7638 109.536 25.5681C109.731 25.3724 110.047 25.3717 110.243 25.5665C110.732 26.0538 111.211 26.5481 111.679 27.0486C111.867 27.2504 111.856 27.5668 111.655 27.7553ZM108.027 24.1466C107.843 24.3528 107.527 24.3711 107.321 24.1874C106.818 23.7397 106.305 23.2994 105.781 22.8671C105.568 22.6914 105.538 22.3762 105.713 22.1632C105.889 21.9502 106.204 21.92 106.417 22.0957C106.951 22.5361 107.474 22.9846 107.986 23.4406C108.192 23.6243 108.211 23.9403 108.027 24.1466ZM104.077 20.8908C103.914 21.1136 103.601 21.162 103.379 20.9988C102.835 20.6005 102.28 20.2107 101.715 19.8298C101.486 19.6754 101.426 19.3647 101.58 19.1357C101.735 18.9067 102.045 18.8463 102.274 19.0006C102.85 19.3888 103.415 19.7861 103.969 20.192C104.192 20.3552 104.241 20.6681 104.077 20.8908ZM99.8279 18.0277C99.6872 18.2653 99.3805 18.3439 99.1429 18.2033C98.5658 17.8617 97.9784 17.5291 97.3807 17.2062C97.1378 17.0749 97.0473 16.7715 97.1785 16.5286C97.3098 16.2856 97.6132 16.1951 97.8561 16.3264C98.4653 16.6556 99.064 16.9945 99.6523 17.3427C99.8899 17.4834 99.9685 17.7901 99.8279 18.0277ZM95.3279 15.5974C95.211 15.8476 94.9134 15.9557 94.6633 15.8388C94.0551 15.5547 93.437 15.2801 92.8088 15.0156C92.5543 14.9085 92.4349 14.6153 92.5421 14.3608C92.6492 14.1063 92.9424 13.9869 93.1969 14.094C93.8369 14.3635 94.4667 14.6432 95.0865 14.9328C95.3367 15.0497 95.4448 15.3473 95.3279 15.5974ZM90.6085 13.6109C90.5159 13.8711 90.23 14.007 89.9698 13.9144C89.3373 13.6894 88.6953 13.4743 88.0438 13.2694C87.7803 13.1866 87.6339 12.9059 87.7168 12.6425C87.7996 12.3791 88.0803 12.2327 88.3437 12.3155C89.0071 12.5241 89.6608 12.7431 90.305 12.9722C90.5651 13.0648 90.701 13.3507 90.6085 13.6109ZM71.8284 13.5355L68.6464 10.3535C68.4512 10.1583 68.4512 9.84169 68.6464 9.64642L71.8284 6.46444C72.0237 6.26918 72.3402 6.26918 72.5355 6.46444C72.7308 6.65971 72.7308 6.97629 72.5355 7.17155L70.1801 9.52695C70.3908 9.58814 70.5435 9.78404 70.5403 10.0141C70.5373 10.2352 70.3911 10.4208 70.1911 10.484L72.5355 12.8284C72.7308 13.0237 72.7308 13.3402 72.5355 13.5355C72.3402 13.7308 72.0237 13.7308 71.8284 13.5355ZM85.7269 12.0759C85.6584 12.3434 85.386 12.5048 85.1185 12.4363C84.4689 12.27 83.8104 12.1135 83.1428 11.9673C82.8731 11.9082 82.7023 11.6416 82.7614 11.3719C82.8205 11.1021 83.0871 10.9314 83.3568 10.9905C84.0357 11.1392 84.7056 11.2983 85.3665 11.4675C85.634 11.536 85.7954 11.8084 85.7269 12.0759ZM80.7205 10.9793C80.6751 11.2517 80.4175 11.4357 80.1451 11.3904C79.4861 11.2806 78.8188 11.1805 78.1431 11.0903C77.8694 11.0538 77.6771 10.8023 77.7136 10.5286C77.7502 10.2549 78.0017 10.0626 78.2754 10.0991C78.9617 10.1907 79.6397 10.2924 80.3094 10.4039C80.5818 10.4493 80.7658 10.7069 80.7205 10.9793ZM75.6562 10.3032C75.6325 10.5783 75.3902 10.7821 75.1151 10.7584C74.4407 10.7001 73.7584 10.6515 73.0682 10.6127C72.7925 10.5972 72.5815 10.3611 72.597 10.0854C72.6125 9.80973 72.8486 9.59879 73.1243 9.61428C73.8244 9.65363 74.5167 9.70298 75.2011 9.76206C75.4762 9.78581 75.68 10.0281 75.6562 10.3032Z" fill="#6A6A6A"/>
<path d="M24 29C24 26.7909 25.7909 25 28 25H111C113.209 25 115 26.7909 115 29V109C115 111.209 113.209 113 111 113H28C25.7909 113 24 111.209 24 109V29Z" fill="white"/>
<path fill-rule="evenodd" clip-rule="evenodd" d="M111 27H28C26.8954 27 26 27.8954 26 29V109C26 110.105 26.8954 111 28 111H111C112.105 111 113 110.105 113 109V29C113 27.8954 112.105 27 111 27ZM28 25C25.7909 25 24 26.7909 24 29V109C24 111.209 25.7909 113 28 113H111C113.209 113 115 111.209 115 109V29C115 26.7909 113.209 25 111 25H28Z" fill="#6A6A6A"/>
<path fill-rule="evenodd" clip-rule="evenodd" d="M66 70H52C51.4477 70 51 70.4477 51 71V85C51 85.5523 51.4477 86 52 86H66C66.5523 86 67 85.5523 67 85V71C67 70.4477 66.5523 70 66 70ZM52 69C50.8954 69 50 69.8954 50 71V85C50 86.1046 50.8954 87 52 87H66C67.1046 87 68 86.1046 68 85V71C68 69.8954 67.1046 69 66 69H52Z" fill="#6A6A6A"/>
<path fill-rule="evenodd" clip-rule="evenodd" d="M60.8559 72.0015C59.968 72.0316 59.1378 72.4385 58.6257 73.1398C58.0521 73.9255 57.9925 74.9175 58.3993 75.7693C58.6501 76.2945 58.6999 77.0192 58.2599 77.6218L54.115 83.299L55.0537 83.9294L59.245 78.1887C59.6763 77.598 60.3684 77.4132 60.9296 77.4566C61.9492 77.5354 62.9326 77.1189 63.5114 76.3261C64.0272 75.6197 64.1282 74.743 63.845 73.9531L62.9685 75.1536C62.3851 75.9526 61.2836 76.0819 60.5111 75.5632C59.7172 75.03 59.4487 73.9288 60.053 73.1012L60.8559 72.0015ZM61.6612 71.0588C62.1526 71.1424 62.3236 71.6871 62.0441 72.0699L60.8606 73.6908C60.6164 74.0253 60.7095 74.4919 61.0686 74.733C61.4276 74.9741 61.9166 74.8984 62.1608 74.564L63.3443 72.943C63.6238 72.5602 64.216 72.528 64.4659 72.9423C65.203 74.1641 65.1985 75.7113 64.3191 76.9158C63.5156 78.0163 62.1821 78.5564 60.8525 78.4536C60.5404 78.4295 60.2284 78.5377 60.0527 78.7784L55.7366 84.69C55.4924 85.0244 55.0034 85.1001 54.6443 84.859L53.3441 83.9859C52.9851 83.7448 52.892 83.2782 53.1362 82.9437L57.4523 77.0321C57.628 76.7914 57.6273 76.4732 57.4969 76.2003C56.9415 75.0372 57.0146 73.6506 57.8181 72.5502C58.6975 71.3457 60.2119 70.8125 61.6612 71.0588Z" fill="#6A6A6A"/>
<path fill-rule="evenodd" clip-rule="evenodd" d="M66 49H52C51.4477 49 51 49.4477 51 50V64C51 64.5523 51.4477 65 52 65H66C66.5523 65 67 64.5523 67 64V50C67 49.4477 66.5523 49 66 49ZM52 48C50.8954 48 50 48.8954 50 50V64C50 65.1046 50.8954 66 52 66H66C67.1046 66 68 65.1046 68 64V50C68 48.8954 67.1046 48 66 48H52Z" fill="#6A6A6A"/>
<path fill-rule="evenodd" clip-rule="evenodd" d="M60.8559 51.0015C59.968 51.0316 59.1378 51.4385 58.6257 52.1398C58.0521 52.9255 57.9925 53.9175 58.3993 54.7693C58.6501 55.2945 58.6999 56.0192 58.2599 56.6218L54.115 62.299L55.0537 62.9294L59.245 57.1887C59.6763 56.598 60.3684 56.4132 60.9296 56.4566C61.9492 56.5354 62.9326 56.1189 63.5114 55.3261C64.0272 54.6197 64.1282 53.743 63.845 52.9531L62.9685 54.1536C62.3851 54.9526 61.2836 55.0819 60.5111 54.5632C59.7172 54.03 59.4487 52.9288 60.053 52.1012L60.8559 51.0015ZM61.6612 50.0588C62.1526 50.1424 62.3236 50.6871 62.0441 51.0699L60.8606 52.6908C60.6164 53.0253 60.7095 53.4919 61.0686 53.733C61.4276 53.9741 61.9166 53.8984 62.1608 53.564L63.3443 51.943C63.6238 51.5602 64.216 51.528 64.4659 51.9423C65.203 53.1641 65.1985 54.7113 64.3191 55.9158C63.5156 57.0163 62.1821 57.5564 60.8525 57.4536C60.5404 57.4295 60.2284 57.5377 60.0527 57.7784L55.7366 63.69C55.4924 64.0244 55.0034 64.1001 54.6443 63.859L53.3441 62.9859C52.9851 62.7448 52.892 62.2782 53.1362 61.9437L57.4523 56.0321C57.628 55.7914 57.6273 55.4732 57.4969 55.2003C56.9415 54.0372 57.0146 52.6506 57.8181 51.5502C58.6975 50.3457 60.2119 49.8125 61.6612 50.0588Z" fill="#6A6A6A"/>
<path d="M25 39H113V41H25V39Z" fill="#6A6A6A"/>
<path d="M40 24C40 21.7909 41.7909 20 44 20V20C46.2091 20 48 21.7909 48 24V30C48 32.2091 46.2091 34 44 34V34C41.7909 34 40 32.2091 40 30V24Z" fill="white"/>
<path fill-rule="evenodd" clip-rule="evenodd" d="M46 30V24C46 22.8954 45.1046 22 44 22C42.8954 22 42 22.8954 42 24V30C42 31.1046 42.8954 32 44 32C45.1046 32 46 31.1046 46 30ZM44 20C41.7909 20 40 21.7909 40 24V30C40 32.2091 41.7909 34 44 34C46.2091 34 48 32.2091 48 30V24C48 21.7909 46.2091 20 44 20Z" fill="#6A6A6A"/>
<path d="M91 24C91 21.7909 92.7909 20 95 20V20C97.2091 20 99 21.7909 99 24V30C99 32.2091 97.2091 34 95 34V34C92.7909 34 91 32.2091 91 30V24Z" fill="white"/>
<path fill-rule="evenodd" clip-rule="evenodd" d="M97 30V24C97 22.8954 96.1046 22 95 22C93.8954 22 93 22.8954 93 24V30C93 31.1046 93.8954 32 95 32C96.1046 32 97 31.1046 97 30ZM95 20C92.7909 20 91 21.7909 91 24V30C91 32.2091 92.7909 34 95 34C97.2091 34 99 32.2091 99 30V24C99 21.7909 97.2091 20 95 20Z" fill="#6A6A6A"/>
<path fill-rule="evenodd" clip-rule="evenodd" d="M87 49H73C72.4477 49 72 49.4477 72 50V64C72 64.5523 72.4477 65 73 65H87C87.5523 65 88 64.5523 88 64V50C88 49.4477 87.5523 49 87 49ZM73 48C71.8954 48 71 48.8954 71 50V64C71 65.1046 71.8954 66 73 66H87C88.1046 66 89 65.1046 89 64V50C89 48.8954 88.1046 48 87 48H73Z" fill="#6A6A6A"/>
<path fill-rule="evenodd" clip-rule="evenodd" d="M108 49H94C93.4477 49 93 49.4477 93 50V64C93 64.5523 93.4477 65 94 65H108C108.552 65 109 64.5523 109 64V50C109 49.4477 108.552 49 108 49ZM94 48C92.8954 48 92 48.8954 92 50V64C92 65.1046 92.8954 66 94 66H108C109.105 66 110 65.1046 110 64V50C110 48.8954 109.105 48 108 48H94Z" fill="#6A6A6A"/>
<path fill-rule="evenodd" clip-rule="evenodd" d="M87 70H73C72.4477 70 72 70.4477 72 71V85C72 85.5523 72.4477 86 73 86H87C87.5523 86 88 85.5523 88 85V71C88 70.4477 87.5523 70 87 70ZM73 69C71.8954 69 71 69.8954 71 71V85C71 86.1046 71.8954 87 73 87H87C88.1046 87 89 86.1046 89 85V71C89 69.8954 88.1046 69 87 69H73Z" fill="#6A6A6A"/>
<path fill-rule="evenodd" clip-rule="evenodd" d="M108 70H94C93.4477 70 93 70.4477 93 71V85C93 85.5523 93.4477 86 94 86H108C108.552 86 109 85.5523 109 85V71C109 70.4477 108.552 70 108 70ZM94 69C92.8954 69 92 69.8954 92 71V85C92 86.1046 92.8954 87 94 87H108C109.105 87 110 86.1046 110 85V71C110 69.8954 109.105 69 108 69H94Z" fill="#6A6A6A"/>
<path fill-rule="evenodd" clip-rule="evenodd" d="M87 91H73C72.4477 91 72 91.4477 72 92V106C72 106.552 72.4477 107 73 107H87C87.5523 107 88 106.552 88 106V92C88 91.4477 87.5523 91 87 91ZM73 90C71.8954 90 71 90.8954 71 92V106C71 107.105 71.8954 108 73 108H87C88.1046 108 89 107.105 89 106V92C89 90.8954 88.1046 90 87 90H73Z" fill="#6A6A6A"/>
<path fill-rule="evenodd" clip-rule="evenodd" d="M108 91H94C93.4477 91 93 91.4477 93 92V106C93 106.552 93.4477 107 94 107H108C108.552 107 109 106.552 109 106V92C109 91.4477 108.552 91 108 91ZM94 90C92.8954 90 92 90.8954 92 92V106C92 107.105 92.8954 108 94 108H108C109.105 108 110 107.105 110 106V92C110 90.8954 109.105 90 108 90H94Z" fill="#6A6A6A"/>
<path fill-rule="evenodd" clip-rule="evenodd" d="M45 70H31C30.4477 70 30 70.4477 30 71V85C30 85.5523 30.4477 86 31 86H45C45.5523 86 46 85.5523 46 85V71C46 70.4477 45.5523 70 45 70ZM31 69C29.8954 69 29 69.8954 29 71V85C29 86.1046 29.8954 87 31 87H45C46.1046 87 47 86.1046 47 85V71C47 69.8954 46.1046 69 45 69H31Z" fill="#6A6A6A"/>
<path fill-rule="evenodd" clip-rule="evenodd" d="M45 91H31C30.4477 91 30 91.4477 30 92V106C30 106.552 30.4477 107 31 107H45C45.5523 107 46 106.552 46 106V92C46 91.4477 45.5523 91 45 91ZM31 90C29.8954 90 29 90.8954 29 92V106C29 107.105 29.8954 108 31 108H45C46.1046 108 47 107.105 47 106V92C47 90.8954 46.1046 90 45 90H31Z" fill="#6A6A6A"/>
<path d="M29 43H110V44H29V43Z" fill="#6A6A6A"/>
<path fill-rule="evenodd" clip-rule="evenodd" d="M66 91H52C51.4477 91 51 91.4477 51 92V106C51 106.552 51.4477 107 52 107H66C66.5523 107 67 106.552 67 106V92C67 91.4477 66.5523 91 66 91ZM52 90C50.8954 90 50 90.8954 50 92V106C50 107.105 50.8954 108 52 108H66C67.1046 108 68 107.105 68 106V92C68 90.8954 67.1046 90 66 90H52Z" fill="#6A6A6A"/>
<path fill-rule="evenodd" clip-rule="evenodd" d="M60.8559 93.0015C59.968 93.0316 59.1378 93.4385 58.6257 94.1398C58.0521 94.9255 57.9925 95.9175 58.3993 96.7693C58.6501 97.2945 58.6999 98.0192 58.2599 98.6218L54.115 104.299L55.0537 104.929L59.245 99.1887C59.6763 98.598 60.3684 98.4132 60.9296 98.4566C61.9492 98.5354 62.9326 98.1189 63.5114 97.3261C64.0272 96.6197 64.1282 95.743 63.845 94.9531L62.9685 96.1536C62.3851 96.9526 61.2836 97.0819 60.5111 96.5632C59.7172 96.03 59.4487 94.9288 60.053 94.1012L60.8559 93.0015ZM61.6612 92.0588C62.1526 92.1424 62.3236 92.6871 62.0441 93.0699L60.8606 94.6908C60.6164 95.0253 60.7095 95.4919 61.0686 95.733C61.4276 95.9741 61.9166 95.8984 62.1608 95.564L63.3443 93.943C63.6238 93.5602 64.216 93.528 64.4659 93.9423C65.203 95.1641 65.1985 96.7113 64.3191 97.9158C63.5156 99.0163 62.1821 99.5564 60.8525 99.4536C60.5404 99.4295 60.2284 99.5377 60.0527 99.7784L55.7366 105.69C55.4924 106.024 55.0034 106.1 54.6443 105.859L53.3441 104.986C52.9851 104.745 52.892 104.278 53.1362 103.944L57.4523 98.0321C57.628 97.7914 57.6273 97.4732 57.4969 97.2003C56.9415 96.0372 57.0146 94.6506 57.8181 93.5502C58.6975 92.3457 60.2119 91.8125 61.6612 92.0588Z" fill="#6A6A6A"/>
</g>
<defs>
<clipPath id="clip0_11908_44882">
<rect width="136" height="136" fill="white"/>
</clipPath>
</defs>
</svg>