<!--
 Copyright 2023-2025 Solace Systems. All rights reserved.

 Licensed under the Apache License, Version 2.0 (the "License");
 you may not use this file except in compliance with the License.
 You may obtain a copy of the License at

     http://www.apache.org/licenses/LICENSE-2.0

 Unless required by applicable law or agreed to in writing, software
 distributed under the License is distributed on an "AS IS" BASIS,
 WITHOUT WARRANTIES OR CONDITIONS OF ANY KIND, either express or implied.
 See the License for the specific language governing permissions and
 limitations under the License.
-->
<svg width="168" height="88" viewBox="0 0 168 88" fill="none" xmlns="http://www.w3.org/2000/svg">
<path fill-rule="evenodd" clip-rule="evenodd" d="M73.691 46.1337C73.5416 46.3659 73.2322 46.433 73 46.2835C72.1575 45.7412 71.3269 45.18 70.509 44.6002C70.2837 44.4405 70.2305 44.1285 70.3902 43.9032C70.5498 43.6779 70.8619 43.6247 71.0872 43.7844C71.893 44.3555 72.7112 44.9084 73.5412 45.4427C73.7734 45.5922 73.8405 45.9016 73.691 46.1337ZM76.2428 47.6709C76.3782 47.4303 76.6831 47.3449 76.9237 47.4803C77.7841 47.9643 78.6553 48.4291 79.5369 48.8745C79.7834 48.999 79.8822 49.2997 79.7577 49.5462C79.6332 49.7927 79.3325 49.8915 79.086 49.767C78.1911 49.315 77.3067 48.8431 76.4334 48.3519C76.1928 48.2165 76.1074 47.9116 76.2428 47.6709ZM68.012 42.1089C67.8392 42.3243 67.5245 42.3588 67.3091 42.186C66.528 41.5593 65.7603 40.9148 65.0067 40.2527C64.7992 40.0705 64.7788 39.7546 64.961 39.5471C65.1433 39.3397 65.4592 39.3192 65.6667 39.5015C66.4091 40.1537 67.1654 40.7887 67.9349 41.406C68.1503 41.5788 68.1848 41.8935 68.012 42.1089ZM82.4556 50.8097C82.5652 50.5563 82.8595 50.4397 83.113 50.5493C84.0185 50.941 84.9334 51.3127 85.857 51.6641C86.1151 51.7623 86.2447 52.0512 86.1465 52.3093C86.0483 52.5673 85.7595 52.697 85.5014 52.5988C84.5638 52.242 83.6351 51.8647 82.716 51.4671C82.4626 51.3575 82.346 51.0632 82.4556 50.8097ZM62.7826 37.5153C62.5883 37.7116 62.2717 37.7132 62.0755 37.5189C61.3642 36.8148 60.6677 36.0939 59.9867 35.3566C59.7993 35.1537 59.8118 34.8374 60.0147 34.65C60.2175 34.4627 60.5339 34.4752 60.7212 34.678C61.3922 35.4044 62.0783 36.1146 62.779 36.8082C62.9753 37.0025 62.9768 37.3191 62.7826 37.5153ZM88.961 53.2852C89.0436 53.0217 89.3242 52.8752 89.5877 52.9578C90.5285 53.253 91.477 53.5275 92.4328 53.7811C92.6997 53.8519 92.8586 54.1257 92.7878 54.3926C92.717 54.6595 92.4432 54.8185 92.1763 54.7477C91.2062 54.4903 90.2433 54.2116 89.2884 53.912C89.0249 53.8293 88.8783 53.5487 88.961 53.2852ZM58.0591 32.4023C57.8455 32.5773 57.5305 32.5459 57.3555 32.3323C57.0383 31.945 56.7251 31.5538 56.416 31.1587C56.2458 30.9412 56.2841 30.627 56.5016 30.4568C56.7191 30.2866 57.0334 30.325 57.2035 30.5425C57.5081 30.9317 57.8166 31.3171 58.1291 31.6987C58.3041 31.9123 58.2728 32.2273 58.0591 32.4023ZM95.689 55.0706C95.7438 54.7999 96.0076 54.625 96.2783 54.6798C96.7617 54.7777 97.2466 54.8703 97.7331 54.9575L98.9878 55.1826C99.2596 55.2313 99.4404 55.4912 99.3916 55.763C99.3429 56.0348 99.083 56.2156 98.8112 56.1669L97.5565 55.9418C97.0627 55.8532 96.5705 55.7592 96.0798 55.6599C95.8092 55.6051 95.6342 55.3412 95.689 55.0706ZM101.753 56.1866C101.802 55.9148 102.062 55.734 102.334 55.7828L103.588 56.0078C103.86 56.0566 104.041 56.3165 103.992 56.5883C103.943 56.8601 103.684 57.0409 103.412 56.9921L102.157 56.7671C101.885 56.7183 101.704 56.4584 101.753 56.1866Z" fill="#6A6A6A"/>
<path d="M4 21C4 19.8954 4.89543 19 6 19H53C54.1046 19 55 19.8954 55 21V37C55 38.1046 54.1046 39 53 39H6C4.89543 39 4 38.1046 4 37V21Z" fill="white"/>
<path fill-rule="evenodd" clip-rule="evenodd" d="M53 21H6L6 37H53V21ZM6 19C4.89543 19 4 19.8954 4 21V37C4 38.1046 4.89543 39 6 39H53C54.1046 39 55 38.1046 55 37V21C55 19.8954 54.1046 19 53 19H6Z" fill="#6A6A6A"/>
<path d="M113 49C113 47.8954 113.895 47 115 47H162C163.105 47 164 47.8954 164 49V65C164 66.1046 163.105 67 162 67H115C113.895 67 113 66.1046 113 65V49Z" fill="white"/>
<path fill-rule="evenodd" clip-rule="evenodd" d="M162 49H115L115 65H162V49ZM115 47C113.895 47 113 47.8954 113 49V65C113 66.1046 113.895 67 115 67H162C163.105 67 164 66.1046 164 65V49C164 47.8954 163.105 47 162 47H115Z" fill="#00C895"/>
<path d="M113 21C113 19.8954 113.895 19 115 19H162C163.105 19 164 19.8954 164 21V37C164 38.1046 163.105 39 162 39H115C113.895 39 113 38.1046 113 37V21Z" fill="white"/>
<path fill-rule="evenodd" clip-rule="evenodd" d="M162 21H115L115 37H162V21ZM115 19C113.895 19 113 19.8954 113 21V37C113 38.1046 113.895 39 115 39H162C163.105 39 164 38.1046 164 37V21C164 19.8954 163.105 19 162 19H115Z" fill="#6A6A6A"/>
<path d="M107.512 57.6055C107.512 57.8056 107.717 57.9958 107.922 57.9958H122.212L118.889 61.4527C118.684 61.6528 118.684 61.853 118.889 62.0532L119.709 62.8538C119.922 63.062 120.138 63.035 120.323 62.8538L125.798 57.3052C126.002 57.1051 126.002 56.9049 125.798 56.7047L120.266 51.1501C120.061 50.95 119.856 50.95 119.651 51.1501L118.832 51.9508C118.627 52.151 118.627 52.3511 118.832 52.5513L122.11 55.9941H107.922C107.717 55.9941 107.512 56.2043 107.512 56.4045V57.6055Z" fill="#6A6A6A"/>
<path d="M121.385 69.5504L120.817 57.5048C120.791 56.9552 121.401 56.61 121.859 56.9155L131.798 63.5508C132.212 63.8268 132.192 64.4408 131.761 64.6893L128.739 66.4343L131.466 71.1582C131.651 71.4789 131.542 71.889 131.221 72.0742L129.264 73.204C128.943 73.3892 128.533 73.2793 128.348 72.9585L125.621 68.2347L122.391 70.0995C121.956 70.3507 121.409 70.0521 121.385 69.5504Z" fill="white"/>
<path fill-rule="evenodd" clip-rule="evenodd" d="M125.987 66.8687L129.049 72.1733L130.436 71.3729L127.373 66.0683L130.802 64.0883L121.846 58.1095L122.359 68.9632L125.987 66.8687ZM120.817 57.5048L121.385 69.5504C121.409 70.0521 121.956 70.3507 122.391 70.0995L125.621 68.2347L128.348 72.9585C128.533 73.2793 128.943 73.3892 129.264 73.204L131.221 72.0742C131.542 71.889 131.651 71.4789 131.466 71.1582L128.739 66.4343L131.761 64.6893C132.192 64.4408 132.212 63.8268 131.798 63.5508L121.859 56.9155C121.401 56.61 120.791 56.9552 120.817 57.5048Z" fill="#6A6A6A"/>
</svg>
