<svg width="88" height="48" viewBox="0 0 88 48" fill="none" xmlns="http://www.w3.org/2000/svg">
<path d="M71.3231 15.2861H66.999C66.4467 15.2861 65.999 15.7338 65.999 16.2861V43.0174L72.296 16.5173C72.4453 15.8891 71.9689 15.2861 71.3231 15.2861Z" fill="white" stroke="#6A6A6A" stroke-linejoin="round"/>
<path d="M37.3377 6.69567L42.3932 7.99628C43.1955 8.20268 43.6786 9.0204 43.4722 9.82271L42.4276 13.8831C42.2212 14.6854 41.4035 15.1684 40.6012 14.962L35.5457 13.6614C34.7434 13.455 34.2603 12.6373 34.4667 11.835L35.5113 7.77464C35.7177 6.97234 36.5354 6.48927 37.3377 6.69567Z" fill="white" stroke="#6A6A6A"/>
<path d="M69.4394 22.9997L64.4561 24.5543C63.6653 24.8011 63.2242 25.6422 63.4709 26.433L64.7195 30.4353C64.9663 31.2262 65.8074 31.6673 66.5982 31.4205L71.5814 29.8659C72.3723 29.6192 72.8134 28.7781 72.5666 27.9872L71.318 23.9849C71.0713 23.1941 70.2302 22.753 69.4394 22.9997Z" fill="white" stroke="#6A6A6A"/>
<circle cx="52.1172" cy="10.8289" r="3.95705" fill="white" stroke="#6A6A6A"/>
<circle cx="57.7861" cy="9.02702" r="3.60454" transform="rotate(15 57.7861 9.02702)" fill="#00C895" stroke="#00C895"/>
<path d="M66.6886 12.8235V42C66.6886 42.8285 66.017 43.5 65.1886 43.5H16C15.1716 43.5 14.5 42.8285 14.5 42V8.20337C14.5 7.37494 15.1716 6.70337 16 6.70337H28.721C29.2242 6.70337 29.6938 6.9556 29.9716 7.37504L32.142 10.6518C32.4199 11.0713 32.8895 11.3235 33.3926 11.3235H65.1886C66.017 11.3235 66.6886 11.9951 66.6886 12.8235Z" fill="white" stroke="#6A6A6A"/>
<rect x="17.2412" y="9.41211" width="10.9892" height="2.23618" rx="0.5" fill="white" stroke="#6A6A6A"/>
</svg>
