<svg width="73" height="49" viewBox="0 0 73 49" fill="none" xmlns="http://www.w3.org/2000/svg">
<path d="M69.6803 14.3381H64.0311C63.4788 14.3381 63.0311 14.7859 63.0311 15.3381V47.6461L70.6532 15.5693C70.8025 14.9411 70.3261 14.3381 69.6803 14.3381Z" fill="white"/>
<path fill-rule="evenodd" clip-rule="evenodd" d="M62.0311 15.3381C62.0311 14.2336 62.9265 13.3381 64.0311 13.3381H69.6803C70.9718 13.3381 71.9247 14.544 71.6261 15.8005L64.004 47.8773C63.8867 48.3708 63.4185 48.6983 62.9147 48.6393C62.4109 48.5802 62.0311 48.1533 62.0311 47.6461V15.3381ZM69.6803 15.3381H64.0311V39.1122L69.6803 15.3381Z" fill="#6A6A6A"/>
<path d="M25.9317 4.77726C26.2069 3.70752 27.2972 3.06343 28.3669 3.33864L35.2181 5.10121C36.2878 5.37642 36.9319 6.46671 36.6567 7.53645L35.2016 13.1924C34.9264 14.2621 33.8362 14.9062 32.7664 14.631L25.9152 12.8684C24.8455 12.5932 24.2014 11.5029 24.4766 10.4332L25.9317 4.77726Z" fill="white"/>
<path fill-rule="evenodd" clip-rule="evenodd" d="M34.7198 7.03814L27.8686 5.27557L26.4135 10.9315L33.2647 12.6941L34.7198 7.03814ZM28.3669 3.33864C27.2972 3.06343 26.2069 3.70752 25.9317 4.77726L24.4766 10.4332C24.2014 11.5029 24.8455 12.5932 25.9152 12.8684L32.7664 14.631C33.8362 14.9062 34.9264 14.2621 35.2016 13.1924L36.6567 7.53645C36.9319 6.46671 36.2878 5.37642 35.2181 5.10121L28.3669 3.33864Z" fill="#6A6A6A"/>
<path d="M69.8737 24.2236C69.5448 23.1692 68.4233 22.5811 67.3688 22.91L60.6156 25.0169C59.5611 25.3458 58.973 26.4673 59.302 27.5217L61.0412 33.0968C61.3702 34.1513 62.4917 34.7394 63.5461 34.4104L70.2994 32.3036C71.3538 31.9746 71.9419 30.8532 71.613 29.7987L69.8737 24.2236Z" fill="white"/>
<path fill-rule="evenodd" clip-rule="evenodd" d="M61.2112 26.9261L67.9645 24.8193L69.7037 30.3944L62.9505 32.5012L61.2112 26.9261ZM67.3688 22.91C68.4233 22.5811 69.5448 23.1692 69.8737 24.2236L71.613 29.7987C71.9419 30.8532 71.3538 31.9746 70.2994 32.3036L63.5461 34.4104C62.4917 34.7394 61.3702 34.1513 61.0412 33.0968L59.302 27.5217C58.973 26.4673 59.5611 25.3458 60.6156 25.0169L67.3688 22.91Z" fill="#6A6A6A"/>
<path d="M51.7112 8.98482C51.7112 11.9414 49.3144 14.3382 46.3578 14.3382C43.4012 14.3382 41.0045 11.9414 41.0045 8.98482C41.0045 6.02825 43.4012 3.63147 46.3578 3.63147C49.3144 3.63147 51.7112 6.02825 51.7112 8.98482Z" fill="white"/>
<path fill-rule="evenodd" clip-rule="evenodd" d="M46.3578 12.3382C48.2098 12.3382 49.7112 10.8368 49.7112 8.98482C49.7112 7.13282 48.2098 5.63147 46.3578 5.63147C44.5058 5.63147 43.0045 7.13282 43.0045 8.98482C43.0045 10.8368 44.5058 12.3382 46.3578 12.3382ZM46.3578 14.3382C49.3144 14.3382 51.7112 11.9414 51.7112 8.98482C51.7112 6.02825 49.3144 3.63147 46.3578 3.63147C43.4012 3.63147 41.0045 6.02825 41.0045 8.98482C41.0045 11.9414 43.4012 14.3382 46.3578 14.3382Z" fill="#6A6A6A"/>
<path d="M57.9289 8.09644C57.2242 10.7264 54.5209 12.2871 51.8909 11.5824C49.261 10.8777 47.7002 8.17447 48.4049 5.54451C49.1096 2.91454 51.8129 1.3538 54.4429 2.0585C57.0728 2.7632 58.6336 5.46647 57.9289 8.09644Z" fill="#00C895"/>
<path fill-rule="evenodd" clip-rule="evenodd" d="M52.4086 9.6506C53.9716 10.0694 55.5782 9.14184 55.997 7.5788C56.4159 6.01577 55.4883 4.40916 53.9252 3.99035C52.3622 3.57154 50.7556 4.49911 50.3368 6.06214C49.918 7.62518 50.8456 9.23178 52.4086 9.6506ZM51.8909 11.5824C54.5209 12.2871 57.2242 10.7264 57.9289 8.09644C58.6336 5.46647 57.0728 2.7632 54.4429 2.0585C51.8129 1.3538 49.1096 2.91454 48.4049 5.54451C47.7002 8.17447 49.261 10.8777 51.8909 11.5824Z" fill="#00C895"/>
<path d="M0.575256 5.42896C0.575256 4.32439 1.47069 3.42896 2.57526 3.42896H18.4727C19.1435 3.42896 19.7697 3.76526 20.1401 4.32452L22.926 8.53043C23.1112 8.81006 23.4242 8.97821 23.7597 8.97821H62.46C63.5645 8.97821 64.46 9.87364 64.46 10.9782V46.8265C64.46 47.931 63.5645 48.8265 62.46 48.8265H2.57526C1.47069 48.8265 0.575256 47.931 0.575256 46.8265V5.42896Z" fill="white"/>
<path fill-rule="evenodd" clip-rule="evenodd" d="M62.46 46.8265V10.9782H23.7597C22.7534 10.9782 21.8142 10.4738 21.2586 9.63486L18.4727 5.42895L2.57526 5.42896V46.8265H62.46ZM2.57526 3.42896C1.47069 3.42896 0.575256 4.32439 0.575256 5.42896V46.8265C0.575256 47.931 1.47069 48.8265 2.57526 48.8265H62.46C63.5645 48.8265 64.46 47.931 64.46 46.8265V10.9782C64.46 9.87364 63.5645 8.97821 62.46 8.97821H23.7597C23.4242 8.97821 23.1112 8.81006 22.926 8.53043L20.1401 4.32452C19.7697 3.76526 19.1435 3.42896 18.4727 3.42896H2.57526Z" fill="#6A6A6A"/>
<path d="M3.86786 7.68231C3.86786 7.13003 4.31557 6.68231 4.86786 6.68231H17.2681C17.8204 6.68231 18.2681 7.13003 18.2681 7.68231V9.56928C18.2681 10.1216 17.8204 10.5693 17.2681 10.5693H4.86786C4.31557 10.5693 3.86786 10.1216 3.86786 9.56928V7.68231Z" fill="white"/>
<path fill-rule="evenodd" clip-rule="evenodd" d="M17.2681 7.68231H4.86786V9.56928L17.2681 9.56928V7.68231ZM4.86786 6.68231C4.31557 6.68231 3.86786 7.13003 3.86786 7.68231V9.56928C3.86786 10.1216 4.31557 10.5693 4.86786 10.5693H17.2681C17.8204 10.5693 18.2681 10.1216 18.2681 9.56928V7.68231C18.2681 7.13003 17.8204 6.68231 17.2681 6.68231H4.86786Z" fill="#6A6A6A"/>
</svg>
