<svg width="88" height="48" viewBox="0 0 88 48" fill="none" xmlns="http://www.w3.org/2000/svg">
<path d="M71.3231 15.2891H66.999C66.4467 15.2891 65.999 15.7368 65.999 16.2891V43.0204L72.296 16.5203C72.4453 15.8921 71.9689 15.2891 71.3231 15.2891Z" fill="white"/>
<path fill-rule="evenodd" clip-rule="evenodd" d="M65.499 16.2891C65.499 15.4606 66.1706 14.7891 66.999 14.7891H71.3231C72.2918 14.7891 73.0064 15.6935 72.7825 16.6359C72.7825 16.6359 72.7825 16.6359 72.7825 16.6359L66.4855 43.136C66.4268 43.3827 66.1927 43.5465 65.9408 43.517C65.6889 43.4874 65.499 43.274 65.499 43.0204V16.2891ZM66.999 15.7891C66.7229 15.7891 66.499 16.0129 66.499 16.2891V38.7534L71.8096 16.4047L71.8096 16.4047C71.8842 16.0906 71.646 15.7891 71.3231 15.7891H66.999Z" fill="#6A6A6A"/>
<path d="M37.3376 6.6961L42.3931 7.99671C43.1954 8.20311 43.6785 9.02083 43.4721 9.82314L42.4275 13.8835C42.2211 14.6858 41.4034 15.1688 40.6011 14.9624L35.5456 13.6618C34.7433 13.4554 34.2602 12.6377 34.4666 11.8354L35.5112 7.77507C35.7176 6.97277 36.5353 6.4897 37.3376 6.6961Z" fill="white"/>
<path fill-rule="evenodd" clip-rule="evenodd" d="M37.2132 7.18045C36.6783 7.04286 36.1332 7.3649 35.9956 7.89977L35.9956 7.89977L34.951 11.9601C34.8134 12.495 35.1354 13.0401 35.6703 13.1777L35.5457 13.662L35.6703 13.1777L40.7258 14.4783C41.2607 14.6159 41.8058 14.2939 41.9434 13.7591L42.4276 13.8837L41.9434 13.7591L42.988 9.69869C43.1256 9.16382 42.8035 8.61867 42.2687 8.48107L42.3932 7.99683L42.2687 8.48106L37.2132 7.18046C37.2132 7.18045 37.2132 7.18045 37.2132 7.18045ZM35.0271 7.65062C35.3023 6.58089 36.3926 5.93679 37.4623 6.21199L37.4623 6.21199L42.5178 7.5126C43.5875 7.7878 44.2317 8.87808 43.9565 9.94783L43.4722 9.82326L43.9565 9.94784L42.9119 14.0082C42.6367 15.078 41.5464 15.722 40.4767 15.4468L40.6012 14.9626L40.4767 15.4468L35.4212 14.1462C34.3514 13.871 33.7073 12.7807 33.9825 11.711L34.4667 11.8356L33.9825 11.711L35.0271 7.65062C35.0271 7.65062 35.0271 7.65062 35.0271 7.65062Z" fill="#6A6A6A"/>
<path d="M69.4393 22.9981L64.456 24.5527C63.6652 24.7995 63.2241 25.6406 63.4708 26.4314L64.7194 30.4337C64.9662 31.2246 65.8073 31.6657 66.5981 31.4189L71.5813 29.8643C72.3722 29.6176 72.8133 28.7765 72.5665 27.9856L71.3179 23.9833C71.0712 23.1925 70.2301 22.7514 69.4393 22.9981Z" fill="white"/>
<path fill-rule="evenodd" clip-rule="evenodd" d="M69.2905 22.521C70.3449 22.192 71.4664 22.7802 71.7953 23.8346L73.0439 27.8368C73.373 28.8914 72.7848 30.0129 71.7303 30.3418L66.7472 31.8964C65.6927 32.2255 64.5713 31.6373 64.2422 30.5828L62.9936 26.5805C62.6647 25.5261 63.2528 24.4046 64.3072 24.0756L69.2905 22.521ZM70.8407 24.1324C70.6763 23.6052 70.1155 23.3111 69.5883 23.4756L64.6051 25.0302C64.6051 25.0302 64.6051 25.0302 64.6051 25.0302C64.0779 25.1947 63.7838 25.7555 63.9482 26.2827M63.9482 26.2827L65.1968 30.2849C65.1968 30.2849 65.1968 30.2849 65.1968 30.2849C65.3614 30.8123 65.9222 31.1063 66.4493 30.9418L71.4325 29.3872C71.9598 29.2227 72.2539 28.662 72.0893 28.1347L70.8407 24.1324" fill="#6A6A6A"/>
<path d="M52.1172 14.7891C54.3026 14.7891 56.0743 13.0175 56.0743 10.8321C56.0743 8.64663 54.3026 6.875 52.1172 6.875C49.9318 6.875 48.1602 8.64663 48.1602 10.8321C48.1602 13.0175 49.9318 14.7891 52.1172 14.7891Z" fill="white"/>
<path fill-rule="evenodd" clip-rule="evenodd" d="M52.1172 7.375C50.2079 7.375 48.6602 8.92277 48.6602 10.8321C48.6602 12.7413 50.2079 14.2891 52.1172 14.2891C54.0265 14.2891 55.5743 12.7413 55.5743 10.8321C55.5743 8.92277 54.0265 7.375 52.1172 7.375ZM47.6602 10.8321C47.6602 8.37049 49.6556 6.375 52.1172 6.375C54.5788 6.375 56.5743 8.37049 56.5743 10.8321C56.5743 13.2936 54.5788 15.2891 52.1172 15.2891C49.6556 15.2891 47.6602 13.2936 47.6602 10.8321Z" fill="#6A6A6A"/>
<path d="M56.8532 12.5057C58.7761 13.021 60.7526 11.8798 61.2678 9.95694C61.7831 8.03404 60.6419 6.05754 58.719 5.5423C56.7961 5.02706 54.8196 6.16819 54.3044 8.09109C53.7891 10.014 54.9303 11.9905 56.8532 12.5057Z" fill="#00C895"/>
<path fill-rule="evenodd" clip-rule="evenodd" d="M58.5896 6.02826C56.9335 5.58449 55.2312 6.56733 54.7874 8.2235C54.3436 9.87967 55.3265 11.582 56.9826 12.0258C58.6388 12.4695 60.3411 11.4867 60.7849 9.83053C61.2287 8.17436 60.2458 6.47203 58.5896 6.02826ZM53.8215 7.96468C54.4082 5.77505 56.6588 4.47562 58.8485 5.06233C61.0381 5.64904 62.3375 7.89971 61.7508 10.0893C61.1641 12.279 58.9134 13.5784 56.7238 12.9917C54.5342 12.405 53.2347 10.1543 53.8215 7.96468Z" fill="#00C895"/>
<path d="M66.6886 12.8233V41.9998C66.6886 42.8283 66.017 43.4998 65.1886 43.4998H16C15.1716 43.4998 14.5 42.8283 14.5 41.9998V8.20312C14.5 7.3747 15.1716 6.70312 16 6.70312H28.721C29.2242 6.70312 29.6938 6.95535 29.9716 7.37479L32.142 10.6516C32.4199 11.0711 32.8895 11.3233 33.3926 11.3233H65.1886C66.017 11.3233 66.6886 11.9949 66.6886 12.8233Z" fill="white"/>
<path fill-rule="evenodd" clip-rule="evenodd" d="M16 7.20312C15.4477 7.20312 15 7.65084 15 8.20312V41.9998C15 42.5521 15.4477 42.9998 16 42.9998H65.1886C65.7409 42.9998 66.1886 42.5521 66.1886 41.9998V12.8233C66.1886 12.271 65.7409 11.8233 65.1886 11.8233H33.3926C32.7218 11.8233 32.0957 11.487 31.7252 10.9277L31.7251 10.9277L29.5547 7.6509L29.5547 7.65089C29.3696 7.37129 29.0565 7.20312 28.721 7.20312H16ZM14 8.20312C14 7.09855 14.8955 6.20312 16 6.20312H28.721C29.3919 6.20312 30.018 6.53941 30.3885 7.09869C30.3885 7.09869 30.3885 7.0987 30.3885 7.0987L32.5588 10.3754C32.7441 10.6551 33.0572 10.8233 33.3926 10.8233H65.1886C66.2931 10.8233 67.1886 11.7187 67.1886 12.8233V41.9998C67.1886 43.1044 66.2931 43.9998 65.1886 43.9998H16C14.8955 43.9998 14 43.1044 14 41.9998V8.20312Z" fill="#6A6A6A"/>
<path d="M27.7304 9.41406H17.7412C17.4651 9.41406 17.2412 9.63792 17.2412 9.91406V11.1502C17.2412 11.4264 17.4651 11.6502 17.7412 11.6502H27.7304C28.0066 11.6502 28.2304 11.4264 28.2304 11.1502V9.91406C28.2304 9.63792 28.0066 9.41406 27.7304 9.41406Z" fill="white"/>
<path fill-rule="evenodd" clip-rule="evenodd" d="M16.7412 9.91406C16.7412 9.36178 17.1889 8.91406 17.7412 8.91406H27.7304C28.2827 8.91406 28.7304 9.36178 28.7304 9.91406V11.1502C28.7304 11.7025 28.2827 12.1502 27.7304 12.1502H17.7412C17.1889 12.1502 16.7412 11.7025 16.7412 11.1502V9.91406ZM27.7304 9.91406H17.7412V11.1502H27.7304V9.91406Z" fill="#6A6A6A"/>
</svg>
