<svg width="130" height="130" viewBox="0 0 130 130" fill="none" xmlns="http://www.w3.org/2000/svg">
<path d="M0 0H130V130H0V0Z" fill="white"/>
<path opacity="0.1" d="M121 59.5C121 89.5995 96.5995 114 66.5 114C36.4005 114 12 89.5995 12 59.5C12 29.4005 36.4005 5 66.5 5C96.5995 5 121 29.4005 121 59.5Z" fill="#2D8EC5"/>
<path d="M109.79 59.6311C109.79 82.6492 91.1297 101.309 68.1116 101.309C45.0935 101.309 26.4336 82.6492 26.4336 59.6311C26.4336 36.613 45.0935 17.9531 68.1116 17.9531C91.1297 17.9531 109.79 36.613 109.79 59.6311Z" fill="white"/>
<path fill-rule="evenodd" clip-rule="evenodd" d="M68.1116 99.3091C90.0251 99.3091 107.79 81.5447 107.79 59.6311C107.79 37.7176 90.0251 19.9531 68.1116 19.9531C46.198 19.9531 28.4336 37.7176 28.4336 59.6311C28.4336 81.5447 46.198 99.3091 68.1116 99.3091ZM68.1116 101.309C91.1297 101.309 109.79 82.6492 109.79 59.6311C109.79 36.613 91.1297 17.9531 68.1116 17.9531C45.0935 17.9531 26.4336 36.613 26.4336 59.6311C26.4336 82.6492 45.0935 101.309 68.1116 101.309Z" fill="#6A6A6A"/>
<path fill-rule="evenodd" clip-rule="evenodd" d="M92.8917 78.7741C92.0258 70.7458 88.6598 60.8269 82.9596 50.9538C77.2594 41.0808 70.3523 33.2062 63.8326 28.4423C60.5715 26.0595 57.4466 24.4835 54.6506 23.7998C51.8614 23.1178 49.4615 23.3353 47.5428 24.443C45.6242 25.5507 44.2359 27.5204 43.4319 30.2769C42.626 33.0402 42.4284 36.5344 42.8614 40.55C43.7272 48.5782 47.0933 58.4972 52.7935 68.3702C58.4937 78.2433 65.4007 86.1179 71.9205 90.8818C75.1816 93.2646 78.3065 94.8406 81.1025 95.5242C83.8917 96.2062 86.2916 95.9888 88.2103 94.8811C90.1289 93.7734 91.5172 91.8037 92.3211 89.0471C93.127 86.2839 93.3247 82.7897 92.8917 78.7741ZM88.7103 95.7471C97.5187 90.6616 95.3317 70.3831 83.8256 50.4538C72.3194 30.5246 55.8512 18.4914 47.0428 23.577C38.2344 28.6625 40.4213 48.941 51.9275 68.8702C63.4336 88.7995 79.9018 100.833 88.7103 95.7471Z" fill="#6A6A6A"/>
<path fill-rule="evenodd" clip-rule="evenodd" d="M93.5803 27.5608L27.8834 65.6027L27.3823 64.7373L93.0791 26.6954L93.5803 27.5608Z" fill="#6A6A6A"/>
<path fill-rule="evenodd" clip-rule="evenodd" d="M109.123 54.2717L43.4263 92.3136L42.9252 91.4482L108.622 53.4063L109.123 54.2717Z" fill="#6A6A6A"/>
<path fill-rule="evenodd" clip-rule="evenodd" d="M68.3945 127.434V108.555H70.3945V127.434H68.3945Z" fill="#6A6A6A"/>
<path fill-rule="evenodd" clip-rule="evenodd" d="M82.3438 128.436H56.0523V126.436H82.3438V128.436Z" fill="#6A6A6A"/>
<path fill-rule="evenodd" clip-rule="evenodd" d="M42.0945 12.3701L46.0003 19.2243L45.151 19.7246C39.8613 22.8404 35.2371 26.9677 31.5425 31.8706C27.8478 36.7736 25.1551 42.3562 23.618 48.2998C22.0809 54.2434 21.7295 60.4316 22.5839 66.511C23.4383 72.5904 25.4817 78.442 28.5976 83.7317C31.7135 89.0214 35.8407 93.6455 40.7436 97.3402C45.6466 101.035 51.2292 103.728 57.1728 105.265C63.1165 106.802 69.3046 107.153 75.384 106.299C81.4635 105.444 87.315 103.401 92.6047 100.285L93.4666 99.7774L96.9682 105.726L95.2447 106.74L92.7527 102.507C87.4672 105.476 81.6715 107.435 75.6624 108.279C69.3229 109.17 62.87 108.804 56.6721 107.201C50.4742 105.598 44.6527 102.79 39.54 98.9374C34.4273 95.0847 30.1235 90.2628 26.8743 84.7468C23.6252 79.2308 21.4943 73.1289 20.6033 66.7894C19.7124 60.4499 20.0788 53.9969 21.6817 47.7991C23.2846 41.6012 26.0925 35.7797 29.9452 30.667C33.6 25.8169 38.1271 21.6947 43.2915 18.5103L40.3569 13.3603L42.0945 12.3701Z" fill="#6A6A6A"/>
<path fill-rule="evenodd" clip-rule="evenodd" d="M73.814 40.4986L74.7727 44.188L72.837 44.691L72.7607 44.3975L72.6455 44.5134L71.2264 43.1041L73.814 40.4986ZM65.8209 48.5473L68.5237 45.8257L69.9428 47.235L67.24 49.9566L65.8209 48.5473ZM75.8076 48.171L76.8426 52.154L74.9069 52.657L73.8719 48.674L75.8076 48.171ZM60.4154 53.9904L63.1181 51.2688L64.5372 52.6781L61.8345 55.3997L60.4154 53.9904ZM77.8776 56.137L78.9125 60.1199L76.9768 60.6229L75.9418 56.6399L77.8776 56.137ZM55.0099 59.4335L57.7126 56.7119L59.1317 58.1212L56.429 60.8428L55.0099 59.4335ZM79.9475 64.1029L80.9824 68.0859L79.0467 68.5889L78.0118 64.6059L79.9475 64.1029ZM49.6043 64.8766L52.3071 62.155L53.7262 63.5643L51.0234 66.2859L49.6043 64.8766ZM82.0174 72.0689L82.9082 75.4971L79.2298 75.0128L79.4908 73.0299L80.2258 73.1267L80.0817 72.5719L82.0174 72.0689ZM46.9016 67.5981L48.2264 68.9139L48.597 68.9626L48.3359 70.9455L44.1275 70.3915L46.9016 67.5981ZM57.1627 72.1076L52.7493 71.5266L53.0104 69.5437L57.4238 70.1247L57.1627 72.1076ZM65.9895 73.2697L61.5761 72.6886L61.8372 70.7057L66.2506 71.2868L65.9895 73.2697ZM74.8164 74.4317L70.403 73.8507L70.664 71.8678L75.0774 72.4489L74.8164 74.4317Z" fill="#6A6A6A"/>
<path d="M94.9132 75.9611C94.9132 81.4916 90.2447 85.9749 84.4859 85.9749C78.7271 85.9749 74.0586 81.4916 74.0586 75.9611C74.0586 70.4306 78.7271 65.9473 84.4859 65.9473C90.2447 65.9473 94.9132 70.4306 94.9132 75.9611Z" fill="white"/>
<path fill-rule="evenodd" clip-rule="evenodd" d="M84.4859 83.9749C89.2172 83.9749 92.9132 80.3115 92.9132 75.9611C92.9132 71.6107 89.2172 67.9473 84.4859 67.9473C79.7546 67.9473 76.0586 71.6107 76.0586 75.9611C76.0586 80.3115 79.7546 83.9749 84.4859 83.9749ZM84.4859 85.9749C90.2447 85.9749 94.9132 81.4916 94.9132 75.9611C94.9132 70.4306 90.2447 65.9473 84.4859 65.9473C78.7271 65.9473 74.0586 70.4306 74.0586 75.9611C74.0586 81.4916 78.7271 85.9749 84.4859 85.9749Z" fill="#6A6A6A"/>
<path d="M77.9608 39.0346C77.9608 41.8885 75.5518 44.2021 72.58 44.2021C69.6083 44.2021 67.1992 41.8885 67.1992 39.0346C67.1992 36.1807 69.6083 33.8672 72.58 33.8672C75.5518 33.8672 77.9608 36.1807 77.9608 39.0346Z" fill="white"/>
<path fill-rule="evenodd" clip-rule="evenodd" d="M72.58 42.2021C74.5242 42.2021 75.9608 40.7085 75.9608 39.0346C75.9608 37.3608 74.5242 35.8672 72.58 35.8672C70.6358 35.8672 69.1992 37.3608 69.1992 39.0346C69.1992 40.7085 70.6358 42.2021 72.58 42.2021ZM72.58 44.2021C75.5518 44.2021 77.9608 41.8885 77.9608 39.0346C77.9608 36.1807 75.5518 33.8672 72.58 33.8672C69.6083 33.8672 67.1992 36.1807 67.1992 39.0346C67.1992 41.8885 69.6083 44.2021 72.58 44.2021Z" fill="#6A6A6A"/>
<path d="M52.8186 69.6649C52.8186 73.143 49.8826 75.9626 46.2609 75.9626C42.6391 75.9626 39.7031 73.143 39.7031 69.6649C39.7031 66.1868 42.6391 63.3672 46.2609 63.3672C49.8826 63.3672 52.8186 66.1868 52.8186 69.6649Z" fill="white"/>
<path fill-rule="evenodd" clip-rule="evenodd" d="M46.2609 73.9626C48.8551 73.9626 50.8186 71.963 50.8186 69.6649C50.8186 67.3668 48.8551 65.3672 46.2609 65.3672C43.6667 65.3672 41.7031 67.3668 41.7031 69.6649C41.7031 71.963 43.6667 73.9626 46.2609 73.9626ZM46.2609 75.9626C49.8826 75.9626 52.8186 73.143 52.8186 69.6649C52.8186 66.1868 49.8826 63.3672 46.2609 63.3672C42.6391 63.3672 39.7031 66.1868 39.7031 69.6649C39.7031 73.143 42.6391 75.9626 46.2609 75.9626Z" fill="#6A6A6A"/>
</svg>
