<?xml version="1.0" encoding="utf-8"?>
<!--
  Copyright 2023-2025 Solace Systems. All rights reserved.

  Licensed under the Apache License, Version 2.0 (the "License");
  you may not use this file except in compliance with the License.
  You may obtain a copy of the License at

      http://www.apache.org/licenses/LICENSE-2.0

  Unless required by applicable law or agreed to in writing, software
  distributed under the License is distributed on an "AS IS" BASIS,
  WITHOUT WARRANTIES OR CONDITIONS OF ANY KIND, either express or implied.
  See the License for the specific language governing permissions and
  limitations under the License.
-->
<svg width="130" height="130" viewBox="0 0 130 130" fill="none" xmlns="http://www.w3.org/2000/svg">
<path opacity="0.1" d="M118.74 64.5C118.74 94.5995 94.3398 119 64.2402 119C34.1407 119 9.74023 94.5995 9.74023 64.5C9.74023 34.4005 34.1407 10 64.2402 10C94.3398 10 118.74 34.4005 118.74 64.5Z" fill="#009193"/>
<path d="M8.9458 41.7349C8.9458 38.6571 11.4408 36.1621 14.5186 36.1621H115.149C118.227 36.1621 120.722 38.6571 120.722 41.7349V103.228H8.9458V41.7349Z" fill="white"/>
<path fill-rule="evenodd" clip-rule="evenodd" d="M115.149 38.1621H14.5186C12.5454 38.1621 10.9458 39.7617 10.9458 41.7349V101.228H118.722V41.7349C118.722 39.7617 117.123 38.1621 115.149 38.1621ZM14.5186 36.1621C11.4408 36.1621 8.9458 38.6571 8.9458 41.7349V103.228H120.722V41.7349C120.722 38.6571 118.227 36.1621 115.149 36.1621H14.5186Z" fill="#6A6A6A"/>
<path fill-rule="evenodd" clip-rule="evenodd" d="M14.8506 45.2139C15.1267 45.2139 15.3506 45.4377 15.3506 45.7139L15.3506 93.383C15.3506 93.6591 15.1267 93.883 14.8506 93.883C14.5744 93.883 14.3506 93.6591 14.3506 93.383L14.3506 45.7139C14.3506 45.4377 14.5744 45.2139 14.8506 45.2139Z" fill="#6A6A6A"/>
<path fill-rule="evenodd" clip-rule="evenodd" d="M114.292 44.0215C114.569 44.0215 114.792 44.2453 114.792 44.5215L114.792 93.144C114.792 93.4201 114.569 93.644 114.292 93.644C114.016 93.644 113.792 93.4201 113.792 93.144L113.792 44.5215C113.792 44.2453 114.016 44.0215 114.292 44.0215Z" fill="#6A6A6A"/>
<rect x="58.9837" y="45.4573" width="15.3733" height="5.31339" rx="0.696599" fill="white" stroke="#6A6A6A" stroke-width="1.3932"/>
<path d="M5 102.181C5 100.642 6.24751 99.3945 7.7864 99.3945H121.883C123.422 99.3945 124.669 100.642 124.669 102.181V104.967C124.669 106.506 123.422 107.754 121.883 107.754H7.7864C6.24752 107.754 5 106.506 5 104.967V102.181Z" fill="white"/>
<path fill-rule="evenodd" clip-rule="evenodd" d="M121.883 101.395H7.7864C7.35208 101.395 7 101.747 7 102.181V104.967C7 105.402 7.35208 105.754 7.7864 105.754H121.883C122.317 105.754 122.669 105.402 122.669 104.967V102.181C122.669 101.747 122.317 101.395 121.883 101.395ZM7.7864 99.3945C6.24751 99.3945 5 100.642 5 102.181V104.967C5 106.506 6.24752 107.754 7.7864 107.754H121.883C123.422 107.754 124.669 106.506 124.669 104.967V102.181C124.669 100.642 123.422 99.3945 121.883 99.3945H7.7864Z" fill="#6A6A6A"/>
<path fill-rule="evenodd" clip-rule="evenodd" d="M62.0407 19.3117C62.7349 19.2734 63.4341 19.2539 64.1377 19.2539C64.8414 19.2539 65.5406 19.2734 66.2347 19.3117C66.5105 19.327 66.7216 19.5629 66.7064 19.8386C66.6911 20.1143 66.4553 20.3255 66.1795 20.3102C65.5037 20.2728 64.823 20.2539 64.1377 20.2539C63.4525 20.2539 62.7717 20.2728 62.0959 20.3102C61.8202 20.3255 61.5843 20.1143 61.5691 19.8386C61.5538 19.5629 61.765 19.327 62.0407 19.3117ZM58.4489 20.1865C58.4948 20.4587 58.3113 20.7167 58.039 20.7627C56.6858 20.991 55.3581 21.294 54.0601 21.6673C53.7947 21.7437 53.5177 21.5904 53.4414 21.325C53.365 21.0597 53.5183 20.7826 53.7837 20.7063C55.1176 20.3226 56.4821 20.0112 57.8727 19.7766C58.1449 19.7307 58.4029 19.9142 58.4489 20.1865ZM69.8266 20.1865C69.8725 19.9142 70.1305 19.7307 70.4028 19.7766C71.7933 20.0112 73.1578 20.3226 74.4918 20.7063C74.7571 20.7826 74.9104 21.0597 74.8341 21.325C74.7577 21.5904 74.4807 21.7437 74.2154 21.6673C72.9174 21.294 71.5896 20.991 70.2364 20.7627C69.9641 20.7167 69.7806 20.4587 69.8266 20.1865ZM77.7958 22.3614C77.9016 22.1063 78.1941 21.9853 78.4492 22.0911C79.7467 22.6291 81.0072 23.238 82.226 23.9131C82.4676 24.0469 82.5549 24.3511 82.4211 24.5927C82.2873 24.8343 81.9831 24.9216 81.7415 24.7879C80.5553 24.1309 79.3287 23.5383 78.0662 23.0148C77.8111 22.909 77.6901 22.6165 77.7958 22.3614ZM50.4796 22.3614C50.5854 22.6165 50.4643 22.909 50.2093 23.0148C48.9468 23.5383 47.7201 24.1309 46.534 24.7879C46.2924 24.9217 45.9881 24.8343 45.8543 24.5927C45.7205 24.3512 45.8079 24.0469 46.0494 23.9131C47.2683 23.238 48.5288 22.6291 49.8262 22.0911C50.0813 21.9853 50.3738 22.1063 50.4796 22.3614ZM85.0772 26.2651C85.2372 26.04 85.5494 25.9872 85.7744 26.1472C86.9157 26.9585 88.0095 27.8322 89.0508 28.7634C89.2566 28.9474 89.2743 29.2635 89.0902 29.4694C88.9061 29.6752 88.59 29.6928 88.3842 29.5088C87.3706 28.6024 86.3059 27.7519 85.1951 26.9623C84.97 26.8023 84.9172 26.4902 85.0772 26.2651ZM43.1982 26.2651C43.3582 26.4902 43.3054 26.8023 43.0804 26.9623C41.9695 27.7519 40.9048 28.6024 39.8912 29.5088C39.6854 29.6929 39.3693 29.6752 39.1852 29.4694C39.0012 29.2635 39.0188 28.9474 39.2246 28.7634C40.2659 27.8322 41.3597 26.9585 42.501 26.1472C42.7261 25.9872 43.0382 26.04 43.1982 26.2651ZM91.3095 31.6887C91.5153 31.5046 91.8314 31.5222 92.0155 31.7281C92.9467 32.7693 93.8204 33.8631 94.6316 35.0044C94.7916 35.2295 94.7389 35.5417 94.5138 35.7016C94.2887 35.8616 93.9765 35.8089 93.8166 35.5838C93.0269 34.4729 92.1765 33.4083 91.2701 32.3947C91.086 32.1888 91.1037 31.8727 91.3095 31.6887ZM36.9659 31.6887C37.1718 31.8727 37.1894 32.1888 37.0054 32.3947C36.0989 33.4083 35.2485 34.4729 34.4589 35.5838C34.2989 35.8089 33.9867 35.8616 33.7617 35.7017C33.5366 35.5417 33.4838 35.2295 33.6438 35.0044C34.4551 33.8631 35.3288 32.7693 36.2599 31.7281C36.444 31.5222 36.7601 31.5046 36.9659 31.6887ZM96.1861 38.3577C96.4277 38.2239 96.732 38.3113 96.8658 38.5529C97.5408 39.7717 98.1498 41.0322 98.6878 42.3296C98.7936 42.5847 98.6725 42.8772 98.4175 42.983C98.1624 43.0888 97.8699 42.9678 97.7641 42.7127C97.2405 41.4502 96.6479 40.2235 95.991 39.0374C95.8572 38.7958 95.9446 38.4915 96.1861 38.3577ZM32.0893 38.3577C32.3309 38.4915 32.4182 38.7958 32.2844 39.0374C31.6275 40.2235 31.0349 41.4502 30.5114 42.7127C30.4056 42.9678 30.1131 43.0888 29.858 42.983C29.6029 42.8772 29.4819 42.5847 29.5876 42.3296C30.1257 41.0322 30.7346 39.7717 31.4096 38.5529C31.5434 38.3113 31.8477 38.2239 32.0893 38.3577ZM28.8216 45.9448C29.087 46.0211 29.2403 46.2981 29.1639 46.5635C28.7906 47.8615 28.4876 49.1892 28.2593 50.5424C28.2133 50.8147 27.9553 50.9982 27.683 50.9523C27.4107 50.9063 27.2273 50.6484 27.2732 50.3761C27.5078 48.9855 27.8192 47.621 28.2029 46.2871C28.2792 46.0217 28.5562 45.8685 28.8216 45.9448ZM99.4538 45.9448C99.7192 45.8685 99.9962 46.0217 100.073 46.2871C100.456 47.621 100.768 48.9855 101.002 50.3761C101.048 50.6484 100.865 50.9063 100.592 50.9523C100.32 50.9982 100.062 50.8147 100.016 50.5424C99.7879 49.1893 99.4848 47.8615 99.1115 46.5635C99.0352 46.2981 99.1884 46.0211 99.4538 45.9448ZM27.3352 54.0725C27.6109 54.0877 27.822 54.3236 27.8068 54.5993C27.7694 55.2751 27.7505 55.9559 27.7505 56.6411C27.7505 57.3264 27.7694 58.0071 27.8068 58.6829C27.822 58.9587 27.6109 59.1945 27.3352 59.2098C27.0594 59.225 26.8236 59.0139 26.8083 58.7382C26.7699 58.044 26.7505 57.3448 26.7505 56.6411C26.7505 55.9375 26.7699 55.2383 26.8083 54.5441C26.8236 54.2684 27.0594 54.0572 27.3352 54.0725ZM100.94 54.0725C101.216 54.0572 101.452 54.2684 101.467 54.5441C101.506 55.2383 101.525 55.9375 101.525 56.6411C101.525 57.3448 101.506 58.044 101.467 58.7382C101.452 59.0139 101.216 59.225 100.94 59.2098C100.665 59.1945 100.453 58.9587 100.469 58.683C100.506 58.0071 100.525 57.3264 100.525 56.6411C100.525 55.9559 100.506 55.2751 100.469 54.5993C100.453 54.3236 100.665 54.0877 100.94 54.0725ZM27.683 62.33C27.9553 62.284 28.2133 62.4675 28.2593 62.7398C28.4876 64.093 28.7906 65.4208 29.1639 66.7188C29.2403 66.9842 29.087 67.2612 28.8216 67.3375C28.5562 67.4138 28.2792 67.2606 28.2029 66.9952C27.8192 65.6612 27.5078 64.2967 27.2732 62.9062C27.2273 62.6339 27.4107 62.3759 27.683 62.33ZM100.592 62.33C100.865 62.3759 101.048 62.6339 101.002 62.9062C100.768 64.2967 100.456 65.6612 100.073 66.9952C99.9962 67.2606 99.7192 67.4138 99.4538 67.3375C99.1884 67.2612 99.0352 66.9842 99.1115 66.7188C99.4848 65.4208 99.7879 64.093 100.016 62.7398C100.062 62.4675 100.32 62.284 100.592 62.33ZM98.4175 70.2993C98.6725 70.405 98.7936 70.6976 98.6878 70.9526C98.1498 72.2501 97.5408 73.5106 96.8658 74.7294C96.732 74.971 96.4277 75.0583 96.1861 74.9246C95.9446 74.7908 95.8572 74.4865 95.991 74.2449C96.6479 73.0588 97.2405 71.8321 97.7641 70.5696C97.8699 70.3145 98.1624 70.1935 98.4175 70.2993ZM29.858 70.2993C30.1131 70.1935 30.4056 70.3145 30.5114 70.5696C31.0349 71.8321 31.6275 73.0588 32.2844 74.2449C32.4182 74.4865 32.3309 74.7908 32.0893 74.9246C31.8477 75.0583 31.5434 74.971 31.4097 74.7294C30.7346 73.5106 30.1257 72.2501 29.5876 70.9527C29.4819 70.6976 29.6029 70.405 29.858 70.2993ZM94.5138 77.5806C94.7389 77.7406 94.7916 78.0528 94.6316 78.2778C93.8204 79.4192 92.9467 80.5129 92.0155 81.5542C91.8314 81.7601 91.5153 81.7777 91.3095 81.5936C91.1037 81.4095 91.086 81.0935 91.2701 80.8876C92.1765 79.874 93.0269 78.8094 93.8166 77.6985C93.9766 77.4734 94.2887 77.4206 94.5138 77.5806ZM33.7617 77.5806C33.9867 77.4207 34.2989 77.4734 34.4589 77.6985C35.2485 78.8094 36.0989 79.874 37.0054 80.8876C37.1894 81.0935 37.1718 81.4095 36.9659 81.5936C36.7601 81.7777 36.444 81.7601 36.2599 81.5542C35.3288 80.5129 34.4551 79.4192 33.6438 78.2779C33.4838 78.0528 33.5366 77.7406 33.7617 77.5806ZM89.0902 83.8129C89.2743 84.0188 89.2566 84.3348 89.0508 84.5189C88.0095 85.4501 86.9157 86.3238 85.7744 87.135C85.5494 87.295 85.2372 87.2423 85.0772 87.0172C84.9172 86.7921 84.97 86.48 85.1951 86.32C86.306 85.5304 87.3706 84.6799 88.3842 83.7735C88.59 83.5894 88.9061 83.6071 89.0902 83.8129ZM39.1852 83.8129C39.3693 83.6071 39.6854 83.5894 39.8913 83.7735C40.9048 84.6799 41.9695 85.5304 43.0804 86.32C43.3055 86.48 43.3582 86.7921 43.1982 87.0172C43.0382 87.2423 42.7261 87.295 42.501 87.1351C41.3597 86.3238 40.2659 85.4501 39.2247 84.5189C39.0188 84.3349 39.0012 84.0188 39.1852 83.8129ZM45.8543 88.6896C45.9881 88.448 46.2924 88.3606 46.534 88.4944C47.7201 89.1514 48.9468 89.7439 50.2093 90.2675C50.4643 90.3733 50.5854 90.6658 50.4796 90.9209C50.3738 91.176 50.0813 91.297 49.8262 91.1912C48.5288 90.6532 47.2683 90.0442 46.0495 89.3692C45.8079 89.2354 45.7205 88.9311 45.8543 88.6896ZM82.4211 88.6896C82.5549 88.9311 82.4676 89.2354 82.226 89.3692C81.0072 90.0442 79.7467 90.6532 78.4492 91.1912C78.1942 91.297 77.9016 91.176 77.7958 90.9209C77.6901 90.6658 77.8111 90.3733 78.0662 90.2675C79.3287 89.7439 80.5554 89.1514 81.7415 88.4944C81.9831 88.3606 82.2873 88.448 82.4211 88.6896ZM53.4414 91.9572C53.5177 91.6919 53.7947 91.5386 54.0601 91.6149C55.3581 91.9883 56.6858 92.2913 58.039 92.5196C58.3113 92.5655 58.4948 92.8235 58.4489 93.0958C58.4029 93.3681 58.1449 93.5516 57.8727 93.5057C56.4821 93.271 55.1176 92.9596 53.7837 92.576C53.5183 92.4996 53.365 92.2226 53.4414 91.9572ZM74.8341 91.9572C74.9104 92.2226 74.7571 92.4996 74.4918 92.576C73.1578 92.9596 71.7933 93.271 70.4028 93.5057C70.1305 93.5516 69.8725 93.3681 69.8266 93.0958C69.7806 92.8235 69.9641 92.5656 70.2364 92.5196C71.5896 92.2913 72.9174 91.9883 74.2154 91.6149C74.4807 91.5386 74.7577 91.6919 74.8341 91.9572ZM61.5691 93.4437C61.5843 93.168 61.8202 92.9568 62.0959 92.9721C62.7717 93.0094 63.4525 93.0284 64.1377 93.0284C64.823 93.0284 65.5037 93.0094 66.1795 92.9721C66.4553 92.9568 66.6911 93.168 66.7064 93.4437C66.7216 93.7194 66.5105 93.9553 66.2347 93.9705C65.5406 94.0089 64.8414 94.0284 64.1377 94.0284C63.4341 94.0284 62.7349 94.0089 62.0407 93.9705C61.765 93.9553 61.5538 93.7194 61.5691 93.4437Z" fill="#6A6A6A"/>
<circle cx="64.1401" cy="56.6401" r="27" fill="white"/>
<path fill-rule="evenodd" clip-rule="evenodd" d="M64.1401 30.6401C49.7807 30.6401 38.1401 42.2807 38.1401 56.6401C38.1401 70.9995 49.7807 82.6401 64.1401 82.6401C78.4995 82.6401 90.1401 70.9995 90.1401 56.6401C90.1401 42.2807 78.4995 30.6401 64.1401 30.6401ZM36.1401 56.6401C36.1401 41.1762 48.6762 28.6401 64.1401 28.6401C79.6041 28.6401 92.1401 41.1762 92.1401 56.6401C92.1401 72.1041 79.6041 84.6401 64.1401 84.6401C48.6762 84.6401 36.1401 72.1041 36.1401 56.6401Z" fill="#6A6A6A"/>
<path fill-rule="evenodd" clip-rule="evenodd" d="M48.9425 42.6611C48.7929 47.9667 50.1641 54.6485 53.1146 61.4342C56.0651 68.2198 60.0167 73.7797 63.999 77.2887C68.0143 80.8268 71.9073 82.1596 74.8295 80.889C77.7516 79.6184 79.4319 75.8622 79.5827 70.5127C79.7323 65.2071 78.3611 58.5252 75.4106 51.7396C72.4601 44.9539 68.5085 39.3941 64.5262 35.8851C60.511 32.347 56.6179 31.0142 53.6958 32.2848C50.7736 33.5554 49.0933 37.3115 48.9425 42.6611ZM47.9429 42.6329C48.0962 37.1944 49.8091 32.8843 53.297 31.3677C56.7849 29.8511 61.1053 31.5379 65.1874 35.1348C69.3024 38.7608 73.3321 44.4516 76.3277 51.3408C79.3232 58.2301 80.7369 65.0583 80.5823 70.5408C80.429 75.9794 78.7161 80.2894 75.2282 81.806C71.7403 83.3226 67.4199 81.6359 63.3379 78.039C59.2228 74.4129 55.1931 68.7222 52.1975 61.8329C49.202 54.9437 47.7883 48.1155 47.9429 42.6329Z" fill="#6A6A6A"/>
<path fill-rule="evenodd" clip-rule="evenodd" d="M36.5021 57.8105C36.392 57.5572 36.508 57.2627 36.7613 57.1526L83.1874 36.9659C83.4407 36.8558 83.7352 36.9718 83.8453 37.225C83.9554 37.4783 83.8394 37.7728 83.5862 37.8829L37.16 58.0696C36.9068 58.1797 36.6122 58.0637 36.5021 57.8105Z" fill="#6A6A6A"/>
<path fill-rule="evenodd" clip-rule="evenodd" d="M44.4352 76.0551C44.3251 75.8018 44.4411 75.5073 44.6944 75.3972L91.1205 55.2105C91.3738 55.1004 91.6683 55.2164 91.7784 55.4697C91.8886 55.7229 91.7725 56.0175 91.5193 56.1276L45.0931 76.3142C44.8399 76.4244 44.5453 76.3083 44.4352 76.0551Z" fill="#6A6A6A"/>
<path d="M30.0151 82.0794C30.0151 80.5405 31.2626 79.293 32.8015 79.293H41.6356C43.1745 79.293 44.422 80.5405 44.422 82.0794V89.4727C44.422 91.0116 43.1745 92.2591 41.6356 92.2591H32.8015C31.2626 92.2591 30.0151 91.0116 30.0151 89.4727V82.0794Z" fill="white"/>
<path fill-rule="evenodd" clip-rule="evenodd" d="M41.6356 81.293H32.8015C32.3672 81.293 32.0151 81.6451 32.0151 82.0794V89.4727C32.0151 89.9071 32.3672 90.2591 32.8015 90.2591H41.6356C42.0699 90.2591 42.422 89.907 42.422 89.4727V82.0794C42.422 81.645 42.0699 81.293 41.6356 81.293ZM32.8015 79.293C31.2626 79.293 30.0151 80.5405 30.0151 82.0794V89.4727C30.0151 91.0116 31.2626 92.2591 32.8015 92.2591H41.6356C43.1745 92.2591 44.422 91.0116 44.422 89.4727V82.0794C44.422 80.5405 43.1745 79.293 41.6356 79.293H32.8015Z" fill="#6A6A6A"/>
<path d="M39.5231 35.9302C39.5231 39.8025 36.384 42.9415 32.5118 42.9415C28.6396 42.9415 25.5005 39.8025 25.5005 35.9302C25.5005 32.058 28.6396 28.9189 32.5118 28.9189C36.384 28.9189 39.5231 32.058 39.5231 35.9302Z" fill="#00C895"/>
<path fill-rule="evenodd" clip-rule="evenodd" d="M32.5118 40.9415C35.2794 40.9415 37.5231 38.6979 37.5231 35.9302C37.5231 33.1626 35.2794 30.9189 32.5118 30.9189C29.7441 30.9189 27.5005 33.1626 27.5005 35.9302C27.5005 38.6979 29.7441 40.9415 32.5118 40.9415ZM32.5118 42.9415C36.384 42.9415 39.5231 39.8025 39.5231 35.9302C39.5231 32.058 36.384 28.9189 32.5118 28.9189C28.6396 28.9189 25.5005 32.058 25.5005 35.9302C25.5005 39.8025 28.6396 42.9415 32.5118 42.9415Z" fill="#00C895"/>
<path d="M104.237 72.7619C102.948 71.5763 101.401 70.6678 99.6888 70.1308C98.81 71.1366 97.5179 71.772 96.0773 71.772C94.6364 71.772 93.3439 71.1362 92.465 70.1299C90.7529 70.6665 89.2052 71.5746 87.9162 72.7598C88.347 74.0232 88.2509 75.459 87.531 76.7059C86.8108 77.9534 85.6145 78.7547 84.3041 79.0129C84.1165 79.858 84.0176 80.7364 84.0176 81.6379C84.0176 82.5404 84.1167 83.4196 84.3047 84.2655C85.6146 84.5239 86.8104 85.3251 87.5305 86.5723C88.2499 87.8184 88.3463 89.2533 87.9164 90.5162C89.2059 91.7019 90.7544 92.6102 92.4673 93.1467C93.3461 92.1419 94.6376 91.5072 96.0773 91.5072C97.5167 91.5072 98.8078 92.1415 99.6866 93.1458C101.399 92.609 102.947 91.7006 104.236 90.5152C103.808 89.2535 103.905 87.8208 104.623 86.5764C105.343 85.3305 106.537 84.5296 107.845 84.2703C108.034 83.423 108.133 82.5421 108.133 81.6379C108.133 80.7365 108.034 79.8581 107.847 79.0131C106.537 78.7544 105.342 77.9533 104.623 76.7066C103.903 75.4602 103.807 74.025 104.237 72.7619Z" fill="white"/>
<path fill-rule="evenodd" clip-rule="evenodd" d="M102.025 73.5276C101.439 73.0963 100.804 72.7274 100.131 72.4305C99 73.272 97.5964 73.772 96.0773 73.772C94.5577 73.772 93.1535 73.2716 92.0225 72.4295C91.3497 72.7262 90.715 73.0947 90.1282 73.5257C90.2914 74.9255 90.0224 76.3907 89.2631 77.7059C88.5038 79.0209 87.3697 79.9863 86.0761 80.5449C86.0375 80.9034 86.0176 81.2681 86.0176 81.6379C86.0176 82.0087 86.0376 82.3742 86.0764 82.7336C87.3696 83.2923 88.5035 84.2575 89.2625 85.5723C90.0214 86.8868 90.2905 88.3509 90.1279 89.7499C90.7156 90.1816 91.3513 90.5507 92.0253 90.8476C93.1558 90.0067 94.5589 89.5072 96.0773 89.5072C97.5952 89.5072 98.9977 90.0063 100.128 90.8466C100.802 90.5494 101.438 90.1802 102.025 89.7483C101.864 88.351 102.133 86.889 102.891 85.5764C103.65 84.2628 104.782 83.2981 106.074 82.7392C106.113 82.378 106.133 82.0106 106.133 81.6379C106.133 81.2679 106.113 80.9031 106.075 80.5445C104.782 79.9857 103.649 79.0207 102.891 77.7066C102.131 76.3917 101.862 74.927 102.025 73.5276ZM107.847 79.0131C108.034 79.8581 108.133 80.7365 108.133 81.6379C108.133 82.5421 108.034 83.423 107.845 84.2703C106.537 84.5296 105.343 85.3305 104.623 86.5764C103.905 87.8208 103.808 89.2535 104.236 90.5152C102.947 91.7006 101.399 92.609 99.6866 93.1458C98.8078 92.1415 97.5167 91.5072 96.0773 91.5072C94.6376 91.5072 93.3461 92.1419 92.4673 93.1467C90.7544 92.6102 89.2059 91.7019 87.9164 90.5162C88.3463 89.2533 88.2499 87.8184 87.5305 86.5723C86.8104 85.3251 85.6146 84.5239 84.3047 84.2655C84.1167 83.4196 84.0176 82.5404 84.0176 81.6379C84.0176 80.7364 84.1165 79.858 84.3041 79.0129C85.6145 78.7547 86.8108 77.9534 87.531 76.7059C88.2509 75.459 88.347 74.0232 87.9162 72.7598C89.2052 71.5746 90.7529 70.6665 92.465 70.1299C93.3439 71.1362 94.6364 71.772 96.0773 71.772C97.5179 71.772 98.81 71.1366 99.6888 70.1308C101.401 70.6678 102.948 71.5763 104.237 72.7619C103.807 74.025 103.903 75.4602 104.623 76.7066C105.342 77.9533 106.537 78.7544 107.847 79.0131Z" fill="#6A6A6A"/>
<circle cx="96.0763" cy="81.6374" r="4.14513" fill="white" stroke="#6A6A6A" stroke-width="2"/>
</svg>