<!--
 Copyright 2023-2025 Solace Systems. All rights reserved.

 Licensed under the Apache License, Version 2.0 (the "License");
 you may not use this file except in compliance with the License.
 You may obtain a copy of the License at

     http://www.apache.org/licenses/LICENSE-2.0

 Unless required by applicable law or agreed to in writing, software
 distributed under the License is distributed on an "AS IS" BASIS,
 WITHOUT WARRANTIES OR CONDITIONS OF ANY KIND, either express or implied.
 See the License for the specific language governing permissions and
 limitations under the License.
-->
<svg width="131" height="131" viewBox="0 0 131 131" fill="none" xmlns="http://www.w3.org/2000/svg">
<path opacity="0.1" d="M119.312 65.3872C119.312 95.4867 94.9113 119.887 64.8118 119.887C34.7122 119.887 10.3118 95.4867 10.3118 65.3872C10.3118 35.2877 34.7122 10.8872 64.8118 10.8872C94.9113 10.8872 119.312 35.2877 119.312 65.3872Z" fill="#009193"/>
<path d="M9.51733 42.6221C9.51733 39.5443 12.0124 37.0493 15.0901 37.0493H115.721C118.799 37.0493 121.294 39.5443 121.294 42.6221V104.115H9.51733V42.6221Z" fill="white"/>
<path fill-rule="evenodd" clip-rule="evenodd" d="M115.721 39.0493H15.0901C13.1169 39.0493 11.5173 40.6489 11.5173 42.6221V102.115H119.294V42.6221C119.294 40.6489 117.694 39.0493 115.721 39.0493ZM15.0901 37.0493C12.0124 37.0493 9.51733 39.5443 9.51733 42.6221V104.115H121.294V42.6221C121.294 39.5443 118.799 37.0493 115.721 37.0493H15.0901Z" fill="#6A6A6A"/>
<path fill-rule="evenodd" clip-rule="evenodd" d="M15.4221 46.1011C15.6983 46.1011 15.9221 46.3249 15.9221 46.6011V94.2702C15.9221 94.5463 15.6983 94.7702 15.4221 94.7702C15.146 94.7702 14.9221 94.5463 14.9221 94.2702V46.6011C14.9221 46.3249 15.146 46.1011 15.4221 46.1011Z" fill="#6A6A6A"/>
<path fill-rule="evenodd" clip-rule="evenodd" d="M114.864 44.9087C115.14 44.9087 115.364 45.1325 115.364 45.4087V94.0312C115.364 94.3073 115.14 94.5312 114.864 94.5312C114.588 94.5312 114.364 94.3073 114.364 94.0312V45.4087C114.364 45.1325 114.588 44.9087 114.864 44.9087Z" fill="#6A6A6A"/>
<path d="M74.2319 46.3447H60.2518C59.8671 46.3447 59.5552 46.6566 59.5552 47.0413V50.9615C59.5552 51.3462 59.8671 51.6581 60.2518 51.6581H74.2319C74.6166 51.6581 74.9285 51.3462 74.9285 50.9615V47.0413C74.9285 46.6566 74.6166 46.3447 74.2319 46.3447Z" fill="white" stroke="#6A6A6A" stroke-width="1.3932"/>
<path d="M5.57153 103.068C5.57153 101.529 6.81905 100.282 8.35793 100.282H122.454C123.993 100.282 125.241 101.529 125.241 103.068V105.854C125.241 107.393 123.993 108.641 122.454 108.641H8.35794C6.81905 108.641 5.57153 107.393 5.57153 105.854V103.068Z" fill="white"/>
<path fill-rule="evenodd" clip-rule="evenodd" d="M122.454 102.282H8.35793C7.92361 102.282 7.57153 102.634 7.57153 103.068V105.854C7.57153 106.289 7.92361 106.641 8.35794 106.641H122.454C122.889 106.641 123.241 106.289 123.241 105.854V103.068C123.241 102.634 122.889 102.282 122.454 102.282ZM8.35793 100.282C6.81905 100.282 5.57153 101.529 5.57153 103.068V105.854C5.57153 107.393 6.81905 108.641 8.35794 108.641H122.454C123.993 108.641 125.241 107.393 125.241 105.854V103.068C125.241 101.529 123.993 100.282 122.454 100.282H8.35793Z" fill="#6A6A6A"/>
<path fill-rule="evenodd" clip-rule="evenodd" d="M62.6122 20.1989C63.3064 20.1606 64.0056 20.1411 64.7093 20.1411C65.4129 20.1411 66.1121 20.1606 66.8063 20.1989C67.082 20.2142 67.2932 20.4501 67.2779 20.7258C67.2627 21.0015 67.0268 21.2127 66.7511 21.1974C66.0753 21.16 65.3945 21.1411 64.7093 21.1411C64.024 21.1411 63.3432 21.16 62.6674 21.1974C62.3917 21.2127 62.1558 21.0015 62.1406 20.7258C62.1254 20.4501 62.3365 20.2142 62.6122 20.1989ZM59.0204 21.0737C59.0664 21.3459 58.8829 21.6039 58.6106 21.6499C57.2574 21.8782 55.9296 22.1812 54.6316 22.5545C54.3662 22.6309 54.0892 22.4776 54.0129 22.2122C53.9366 21.9469 54.0898 21.6698 54.3552 21.5935C55.6892 21.2098 57.0537 20.8984 58.4442 20.6638C58.7165 20.6179 58.9745 20.8014 59.0204 21.0737ZM70.3981 21.0737C70.444 20.8014 70.702 20.6179 70.9743 20.6638C72.3649 20.8984 73.7294 21.2098 75.0633 21.5935C75.3287 21.6698 75.4819 21.9469 75.4056 22.2122C75.3293 22.4776 75.0523 22.6309 74.7869 22.5545C73.4889 22.1812 72.1611 21.8782 70.8079 21.6499C70.5357 21.6039 70.3522 21.3459 70.3981 21.0737ZM78.3674 23.2486C78.4732 22.9935 78.7657 22.8725 79.0208 22.9783C80.3182 23.5163 81.5787 24.1252 82.7975 24.8003C83.0391 24.9341 83.1265 25.2383 82.9927 25.4799C82.8589 25.7215 82.5546 25.8088 82.313 25.6751C81.1269 25.0181 79.9002 24.4255 78.6377 23.902C78.3826 23.7962 78.2616 23.5037 78.3674 23.2486ZM51.0511 23.2486C51.1569 23.5037 51.0359 23.7962 50.7808 23.902C49.5183 24.4255 48.2916 25.0181 47.1055 25.6751C46.8639 25.8089 46.5596 25.7215 46.4258 25.4799C46.292 25.2384 46.3794 24.9341 46.621 24.8003C47.8398 24.1252 49.1003 23.5163 50.3977 22.9783C50.6528 22.8725 50.9454 22.9935 51.0511 23.2486ZM85.6487 27.1523C85.8087 26.9272 86.1209 26.8744 86.346 27.0344C87.4873 27.8457 88.5811 28.7194 89.6223 29.6506C89.8282 29.8346 89.8458 30.1507 89.6617 30.3566C89.4777 30.5624 89.1616 30.58 88.9557 30.396C87.9421 29.4896 86.8775 28.6391 85.7666 27.8495C85.5415 27.6895 85.4888 27.3774 85.6487 27.1523ZM43.7698 27.1523C43.9297 27.3774 43.877 27.6895 43.6519 27.8495C42.541 28.6391 41.4764 29.4896 40.4628 30.396C40.2569 30.5801 39.9408 30.5624 39.7568 30.3566C39.5727 30.1507 39.5903 29.8346 39.7962 29.6506C40.8375 28.7194 41.9312 27.8457 43.0725 27.0344C43.2976 26.8744 43.6098 26.9272 43.7698 27.1523ZM91.881 32.5759C92.0869 32.3918 92.403 32.4094 92.587 32.6153C93.5182 33.6565 94.3919 34.7503 95.2032 35.8916C95.3632 36.1167 95.3104 36.4289 95.0853 36.5888C94.8602 36.7488 94.5481 36.6961 94.3881 36.471C93.5985 35.3601 92.748 34.2955 91.8416 33.2819C91.6575 33.076 91.6752 32.7599 91.881 32.5759ZM37.5375 32.5759C37.7433 32.7599 37.761 33.076 37.5769 33.2819C36.6705 34.2955 35.82 35.3601 35.0304 36.471C34.8704 36.6961 34.5583 36.7488 34.3332 36.5889C34.1081 36.4289 34.0554 36.1167 34.2153 35.8916C35.0266 34.7503 35.9003 33.6565 36.8315 32.6153C37.0155 32.4094 37.3316 32.3918 37.5375 32.5759ZM96.7577 39.2449C96.9992 39.1111 97.3035 39.1985 97.4373 39.4401C98.1124 40.6589 98.7213 41.9194 99.2593 43.2168C99.3651 43.4719 99.2441 43.7644 98.989 43.8702C98.7339 43.976 98.4414 43.855 98.3356 43.5999C97.8121 42.3374 97.2195 41.1107 96.5625 39.9246C96.4287 39.683 96.5161 39.3787 96.7577 39.2449ZM32.6608 39.2449C32.9024 39.3787 32.9898 39.683 32.856 39.9246C32.199 41.1107 31.6064 42.3374 31.0829 43.5999C30.9771 43.855 30.6846 43.976 30.4295 43.8702C30.1744 43.7644 30.0534 43.4719 30.1592 43.2168C30.6972 41.9194 31.3062 40.6589 31.9812 39.4401C32.115 39.1985 32.4193 39.1111 32.6608 39.2449ZM29.3932 46.832C29.6585 46.9083 29.8118 47.1853 29.7355 47.4507C29.3621 48.7487 29.0591 50.0764 28.8308 51.4296C28.7848 51.7019 28.5269 51.8854 28.2546 51.8395C27.9823 51.7935 27.7988 51.5356 27.8447 51.2633C28.0794 49.8727 28.3908 48.5082 28.7744 47.1743C28.8508 46.9089 29.1278 46.7557 29.3932 46.832ZM100.025 46.832C100.291 46.7557 100.568 46.9089 100.644 47.1743C101.028 48.5082 101.339 49.8727 101.574 51.2633C101.62 51.5356 101.436 51.7935 101.164 51.8395C100.892 51.8854 100.634 51.7019 100.588 51.4296C100.359 50.0765 100.056 48.7487 99.683 47.4507C99.6067 47.1853 99.76 46.9083 100.025 46.832ZM27.9067 54.9597C28.1824 54.9749 28.3936 55.2108 28.3783 55.4865C28.341 56.1623 28.322 56.8431 28.322 57.5283C28.322 58.2136 28.341 58.8943 28.3783 59.5701C28.3936 59.8459 28.1824 60.0817 27.9067 60.097C27.631 60.1122 27.3951 59.9011 27.3799 59.6254C27.3415 58.9312 27.322 58.232 27.322 57.5283C27.322 56.8247 27.3415 56.1255 27.3799 55.4313C27.3951 55.1556 27.631 54.9444 27.9067 54.9597ZM101.512 54.9597C101.788 54.9444 102.023 55.1556 102.039 55.4313C102.077 56.1255 102.096 56.8247 102.096 57.5283C102.096 58.232 102.077 58.9312 102.039 59.6254C102.023 59.9011 101.788 60.1122 101.512 60.097C101.236 60.0817 101.025 59.8459 101.04 59.5702C101.078 58.8943 101.096 58.2136 101.096 57.5283C101.096 56.8431 101.078 56.1623 101.04 55.4865C101.025 55.2108 101.236 54.9749 101.512 54.9597ZM28.2546 63.2172C28.5269 63.1712 28.7848 63.3547 28.8308 63.627C29.0591 64.9802 29.3621 66.308 29.7355 67.606C29.8118 67.8714 29.6585 68.1484 29.3932 68.2247C29.1278 68.301 28.8508 68.1478 28.7744 67.8824C28.3908 66.5484 28.0794 65.1839 27.8447 63.7934C27.7988 63.5211 27.9823 63.2631 28.2546 63.2172ZM101.164 63.2172C101.436 63.2631 101.62 63.5211 101.574 63.7934C101.339 65.1839 101.028 66.5484 100.644 67.8824C100.568 68.1478 100.291 68.301 100.025 68.2247C99.76 68.1484 99.6067 67.8714 99.683 67.606C100.056 66.308 100.359 64.9802 100.588 63.627C100.634 63.3547 100.892 63.1712 101.164 63.2172ZM98.989 71.1865C99.2441 71.2922 99.3651 71.5848 99.2593 71.8398C98.7213 73.1373 98.1124 74.3978 97.4373 75.6166C97.3035 75.8582 96.9993 75.9455 96.7577 75.8118C96.5161 75.678 96.4287 75.3737 96.5625 75.1321C97.2195 73.946 97.8121 72.7193 98.3356 71.4568C98.4414 71.2017 98.7339 71.0807 98.989 71.1865ZM30.4295 71.1865C30.6846 71.0807 30.9771 71.2017 31.0829 71.4568C31.6064 72.7193 32.199 73.946 32.856 75.1321C32.9898 75.3737 32.9024 75.678 32.6608 75.8118C32.4193 75.9455 32.115 75.8582 31.9812 75.6166C31.3062 74.3978 30.6972 73.1373 30.1592 71.8399C30.0534 71.5848 30.1744 71.2922 30.4295 71.1865ZM95.0853 78.4678C95.3104 78.6278 95.3632 78.94 95.2032 79.165C94.3919 80.3064 93.5182 81.4001 92.587 82.4414C92.403 82.6473 92.0869 82.6649 91.881 82.4808C91.6752 82.2967 91.6575 81.9807 91.8416 81.7748C92.748 80.7612 93.5985 79.6966 94.3881 78.5857C94.5481 78.3606 94.8602 78.3078 95.0853 78.4678ZM34.3332 78.4678C34.5583 78.3079 34.8704 78.3606 35.0304 78.5857C35.82 79.6966 36.6705 80.7612 37.5769 81.7748C37.761 81.9807 37.7433 82.2967 37.5375 82.4808C37.3316 82.6649 37.0155 82.6473 36.8315 82.4414C35.9003 81.4001 35.0266 80.3064 34.2153 79.1651C34.0554 78.94 34.1081 78.6278 34.3332 78.4678ZM89.6617 84.7001C89.8458 84.906 89.8282 85.222 89.6223 85.4061C88.5811 86.3373 87.4873 87.211 86.346 88.0222C86.1209 88.1822 85.8087 88.1295 85.6488 87.9044C85.4888 87.6793 85.5415 87.3672 85.7666 87.2072C86.8775 86.4176 87.9421 85.5671 88.9557 84.6607C89.1616 84.4766 89.4777 84.4943 89.6617 84.7001ZM39.7568 84.7001C39.9409 84.4943 40.2569 84.4766 40.4628 84.6607C41.4764 85.5671 42.541 86.4176 43.6519 87.2072C43.877 87.3672 43.9298 87.6793 43.7698 87.9044C43.6098 88.1295 43.2976 88.1822 43.0725 88.0223C41.9312 87.211 40.8375 86.3373 39.7962 85.4061C39.5903 85.2221 39.5727 84.906 39.7568 84.7001ZM46.4258 89.5768C46.5596 89.3352 46.8639 89.2478 47.1055 89.3816C48.2916 90.0386 49.5183 90.6311 50.7808 91.1547C51.0359 91.2605 51.1569 91.553 51.0511 91.8081C50.9454 92.0632 50.6528 92.1842 50.3977 92.0784C49.1003 91.5404 47.8398 90.9314 46.621 90.2564C46.3794 90.1226 46.2921 89.8183 46.4258 89.5768ZM82.9927 89.5768C83.1265 89.8183 83.0391 90.1226 82.7975 90.2564C81.5787 90.9314 80.3182 91.5404 79.0208 92.0784C78.7657 92.1842 78.4732 92.0632 78.3674 91.8081C78.2616 91.553 78.3826 91.2605 78.6377 91.1547C79.9002 90.6311 81.1269 90.0386 82.313 89.3816C82.5546 89.2478 82.8589 89.3352 82.9927 89.5768ZM54.0129 92.8444C54.0892 92.5791 54.3662 92.4258 54.6316 92.5021C55.9296 92.8755 57.2574 93.1785 58.6106 93.4068C58.8829 93.4527 59.0663 93.7107 59.0204 93.983C58.9745 94.2553 58.7165 94.4388 58.4442 94.3929C57.0537 94.1582 55.6892 93.8468 54.3552 93.4632C54.0898 93.3868 53.9366 93.1098 54.0129 92.8444ZM75.4056 92.8444C75.4819 93.1098 75.3287 93.3868 75.0633 93.4632C73.7294 93.8468 72.3649 94.1582 70.9743 94.3929C70.702 94.4388 70.444 94.2553 70.3981 93.983C70.3522 93.7107 70.5357 93.4528 70.8079 93.4068C72.1611 93.1785 73.4889 92.8755 74.7869 92.5021C75.0523 92.4258 75.3293 92.5791 75.4056 92.8444ZM62.1406 94.3309C62.1558 94.0552 62.3917 93.844 62.6674 93.8593C63.3432 93.8966 64.024 93.9156 64.7093 93.9156C65.3945 93.9156 66.0753 93.8966 66.7511 93.8593C67.0268 93.844 67.2627 94.0552 67.2779 94.3309C67.2932 94.6066 67.082 94.8425 66.8063 94.8577C66.1121 94.8961 65.4129 94.9156 64.7093 94.9156C64.0056 94.9156 63.3064 94.8961 62.6122 94.8577C62.3365 94.8425 62.1254 94.6066 62.1406 94.3309Z" fill="#6A6A6A"/>
<path d="M64.7117 84.5273C79.6234 84.5273 91.7117 72.439 91.7117 57.5273C91.7117 42.6157 79.6234 30.5273 64.7117 30.5273C49.8 30.5273 37.7117 42.6157 37.7117 57.5273C37.7117 72.439 49.8 84.5273 64.7117 84.5273Z" fill="white"/>
<path fill-rule="evenodd" clip-rule="evenodd" d="M64.7117 31.5273C50.3523 31.5273 38.7117 43.1679 38.7117 57.5273C38.7117 71.8867 50.3523 83.5273 64.7117 83.5273C79.0711 83.5273 90.7117 71.8867 90.7117 57.5273C90.7117 43.1679 79.0711 31.5273 64.7117 31.5273ZM36.7117 57.5273C36.7117 42.0634 49.2477 29.5273 64.7117 29.5273C80.1756 29.5273 92.7117 42.0634 92.7117 57.5273C92.7117 72.9913 80.1756 85.5273 64.7117 85.5273C49.2477 85.5273 36.7117 72.9913 36.7117 57.5273Z" fill="#6A6A6A"/>
<path fill-rule="evenodd" clip-rule="evenodd" d="M49.5138 43.5482C49.3642 48.8538 50.7354 55.5356 53.6859 62.3213C56.6364 69.1069 60.588 74.6668 64.5703 78.1758C68.5855 81.7139 72.4786 83.0467 75.4007 81.7761C78.3229 80.5055 80.0032 76.7493 80.154 71.3998C80.3036 66.0942 78.9324 59.4123 75.9819 52.6267C73.0314 45.841 69.0798 40.2812 65.0975 36.7722C61.0822 33.2341 57.1892 31.9013 54.267 33.1719C51.3449 34.4425 49.6646 38.1986 49.5138 43.5482ZM48.5142 43.52C48.6675 38.0815 50.3804 33.7714 53.8683 32.2548C57.3562 30.7382 61.6766 32.425 65.7586 36.0219C69.8737 39.6479 73.9034 45.3387 76.899 52.2279C79.8945 59.1172 81.3082 65.9454 81.1536 71.4279C81.0003 76.8665 79.2874 81.1765 75.7995 82.6931C72.3116 84.2097 67.9912 82.523 63.9091 78.9261C59.7941 75.3 55.7644 69.6093 52.7688 62.72C49.7733 55.8308 48.3596 49.0026 48.5142 43.52Z" fill="#6A6A6A"/>
<path fill-rule="evenodd" clip-rule="evenodd" d="M37.0735 58.6972C36.9634 58.444 37.0794 58.1494 37.3327 58.0393L83.7588 37.8526C84.0121 37.7425 84.3066 37.8585 84.4167 38.1118C84.5269 38.365 84.4108 38.6596 84.1576 38.7697L37.7314 58.9563C37.4782 59.0665 37.1836 58.9504 37.0735 58.6972Z" fill="#6A6A6A"/>
<path fill-rule="evenodd" clip-rule="evenodd" d="M45.0066 76.9418C44.8965 76.6886 45.0125 76.394 45.2658 76.2839L91.6919 56.0972C91.9452 55.9871 92.2397 56.1032 92.3499 56.3564C92.46 56.6096 92.3439 56.9042 92.0907 57.0143L45.6645 77.201C45.4113 77.3111 45.1167 77.1951 45.0066 76.9418Z" fill="#6A6A6A"/>
<path d="M30.5867 82.9666C30.5867 81.4277 31.8342 80.1802 33.3731 80.1802H42.2071C43.746 80.1802 44.9935 81.4277 44.9935 82.9666V90.3599C44.9935 91.8988 43.746 93.1463 42.2071 93.1463H33.3731C31.8342 93.1463 30.5867 91.8988 30.5867 90.3599V82.9666Z" fill="white"/>
<path fill-rule="evenodd" clip-rule="evenodd" d="M42.2071 82.1802H33.3731C32.9388 82.1802 32.5867 82.5323 32.5867 82.9666V90.3599C32.5867 90.7943 32.9388 91.1463 33.3731 91.1463H42.2071C42.6414 91.1463 42.9935 90.7942 42.9935 90.3599V82.9666C42.9935 82.5322 42.6414 82.1802 42.2071 82.1802ZM33.3731 80.1802C31.8342 80.1802 30.5867 81.4277 30.5867 82.9666V90.3599C30.5867 91.8988 31.8342 93.1463 33.3731 93.1463H42.2071C43.746 93.1463 44.9935 91.8988 44.9935 90.3599V82.9666C44.9935 81.4277 43.746 80.1802 42.2071 80.1802H33.3731Z" fill="#6A6A6A"/>
<path d="M40.0946 36.8175C40.0946 40.6898 36.9555 43.8288 33.0833 43.8288C29.2111 43.8288 26.072 40.6898 26.072 36.8175C26.072 32.9453 29.2111 29.8062 33.0833 29.8062C36.9555 29.8062 40.0946 32.9453 40.0946 36.8175Z" fill="white"/>
<path fill-rule="evenodd" clip-rule="evenodd" d="M33.0833 41.8288C35.851 41.8288 38.0946 39.5852 38.0946 36.8175C38.0946 34.0499 35.851 31.8062 33.0833 31.8062C30.3157 31.8062 28.072 34.0499 28.072 36.8175C28.072 39.5852 30.3157 41.8288 33.0833 41.8288ZM33.0833 43.8288C36.9555 43.8288 40.0946 40.6898 40.0946 36.8175C40.0946 32.9453 36.9555 29.8062 33.0833 29.8062C29.2111 29.8062 26.072 32.9453 26.072 36.8175C26.072 40.6898 29.2111 43.8288 33.0833 43.8288Z" fill="white"/>
<path fill-rule="evenodd" clip-rule="evenodd" d="M33.0833 41.8288C35.851 41.8288 38.0946 39.5852 38.0946 36.8175C38.0946 34.0499 35.851 31.8062 33.0833 31.8062C30.3157 31.8062 28.072 34.0499 28.072 36.8175C28.072 39.5852 30.3157 41.8288 33.0833 41.8288ZM33.0833 43.8288C36.9555 43.8288 40.0946 40.6898 40.0946 36.8175C40.0946 32.9453 36.9555 29.8062 33.0833 29.8062C29.2111 29.8062 26.072 32.9453 26.072 36.8175C26.072 40.6898 29.2111 43.8288 33.0833 43.8288Z" fill="#6A6A6A"/>
<path d="M104.808 73.6491C103.52 72.4635 101.972 71.555 100.26 71.018C99.3816 72.0238 98.0894 72.6592 96.6489 72.6592C95.2079 72.6592 93.9154 72.0234 93.0366 71.0171C91.3245 71.5537 89.7767 72.4618 88.4878 73.647C88.9186 74.9104 88.8224 76.3462 88.1026 77.5931C87.3823 78.8406 86.186 79.6419 84.8757 79.9001C84.688 80.7452 84.5891 81.6236 84.5891 82.5251C84.5891 83.4276 84.6882 84.3068 84.8762 85.1527C86.1862 85.4111 87.382 86.2123 88.102 87.4595C88.8215 88.7056 88.9179 90.1405 88.4879 91.4034C89.7774 92.5891 91.3259 93.4974 93.0388 94.0339C93.9176 93.0291 95.2091 92.3944 96.6489 92.3944C98.0882 92.3944 99.3794 93.0287 100.258 94.033C101.97 93.4962 103.518 92.5878 104.807 91.4024C104.379 90.1407 104.476 88.708 105.195 87.4636C105.914 86.2177 107.108 85.4168 108.417 85.1575C108.605 84.3102 108.705 83.4293 108.705 82.5251C108.705 81.6237 108.606 80.7453 108.418 79.9003C107.109 79.6416 105.914 78.8405 105.194 77.5938C104.475 76.3474 104.378 74.9122 104.808 73.6491Z" fill="white"/>
<path fill-rule="evenodd" clip-rule="evenodd" d="M102.597 74.4148C102.01 73.9835 101.375 73.6146 100.702 73.3177C99.5715 74.1592 98.1679 74.6592 96.6489 74.6592C95.1292 74.6592 93.725 74.1588 92.594 73.3167C91.9212 73.6134 91.2865 73.9819 90.6997 74.4129C90.8629 75.8127 90.594 77.2779 89.8346 78.5931C89.0754 79.9081 87.9412 80.8735 86.6476 81.4321C86.609 81.7906 86.5891 82.1553 86.5891 82.5251C86.5891 82.8959 86.6091 83.2614 86.6479 83.6208C87.9411 84.1795 89.075 85.1447 89.8341 86.4595C90.593 87.774 90.862 89.2381 90.6995 90.6371C91.2871 91.0688 91.9228 91.4379 92.5968 91.7348C93.7273 90.8939 95.1304 90.3944 96.6489 90.3944C98.1667 90.3944 99.5692 90.8935 100.7 91.7338C101.373 91.4366 102.009 91.0674 102.597 90.6355C102.436 89.2382 102.705 87.7762 103.463 86.4636C104.221 85.15 105.354 84.1853 106.645 83.6264C106.685 83.2652 106.705 82.8978 106.705 82.5251C106.705 82.1551 106.685 81.7903 106.646 81.4317C105.354 80.8729 104.221 79.9079 103.462 78.5938C102.703 77.2789 102.434 75.8142 102.597 74.4148ZM108.418 79.9003C108.606 80.7453 108.705 81.6237 108.705 82.5251C108.705 83.4293 108.605 84.3102 108.417 85.1575C107.108 85.4168 105.914 86.2177 105.195 87.4636C104.476 88.708 104.379 90.1407 104.807 91.4024C103.518 92.5878 101.97 93.4962 100.258 94.033C99.3794 93.0287 98.0882 92.3944 96.6489 92.3944C95.2091 92.3944 93.9176 93.0291 93.0388 94.0339C91.3259 93.4974 89.7774 92.5891 88.4879 91.4034C88.9179 90.1405 88.8215 88.7056 88.102 87.4595C87.382 86.2123 86.1862 85.4111 84.8762 85.1527C84.6882 84.3068 84.5891 83.4276 84.5891 82.5251C84.5891 81.6236 84.688 80.7452 84.8757 79.9001C86.186 79.6419 87.3823 78.8406 88.1026 77.5931C88.8224 76.3462 88.9186 74.9104 88.4878 73.647C89.7767 72.4618 91.3245 71.5537 93.0366 71.0171C93.9154 72.0234 95.2079 72.6592 96.6489 72.6592C98.0894 72.6592 99.3816 72.0238 100.26 71.018C101.972 71.555 103.52 72.4635 104.808 73.6491C104.378 74.9122 104.475 76.3474 105.194 77.5938C105.914 78.8405 107.109 79.6416 108.418 79.9003Z" fill="#6A6A6A"/>
<path d="M96.6478 86.6697C98.9371 86.6697 100.793 84.8138 100.793 82.5245C100.793 80.2352 98.9371 78.3794 96.6478 78.3794C94.3585 78.3794 92.5027 80.2352 92.5027 82.5245C92.5027 84.8138 94.3585 86.6697 96.6478 86.6697Z" fill="white" stroke="#6A6A6A" stroke-width="2"/>
</svg>
