<?xml version="1.0" encoding="utf-8"?>
<!--
  Copyright 2023-2025 Solace Systems. All rights reserved.

  Licensed under the Apache License, Version 2.0 (the "License");
  you may not use this file except in compliance with the License.
  You may obtain a copy of the License at

      http://www.apache.org/licenses/LICENSE-2.0

  Unless required by applicable law or agreed to in writing, software
  distributed under the License is distributed on an "AS IS" BASIS,
  WITHOUT WARRANTIES OR CONDITIONS OF ANY KIND, either express or implied.
  See the License for the specific language governing permissions and
  limitations under the License.
-->
<svg width="136" height="136" viewBox="0 0 136 136" fill="none" xmlns="http://www.w3.org/2000/svg">
<path opacity="0.1" d="M122 67.5C122 97.5995 97.5995 122 67.5 122C37.4005 122 13 97.5995 13 67.5C13 37.4005 37.4005 13 67.5 13C97.5995 13 122 37.4005 122 67.5Z" fill="#3C69E1"/>
<path d="M92 95C90.8954 95 90 94.1046 90 93L90 57C90 51.4772 94.4772 47 100 47L126 47C127.105 47 128 47.8954 128 49L128 85C128 90.5228 123.523 95 118 95L92 95Z" fill="white"/>
<path fill-rule="evenodd" clip-rule="evenodd" d="M92 57L92 93L118 93C122.418 93 126 89.4183 126 85L126 49L100 49C95.5817 49 92 52.5817 92 57ZM90 93C90 94.1046 90.8954 95 92 95L118 95C123.523 95 128 90.5228 128 85L128 49C128 47.8954 127.105 47 126 47L100 47C94.4772 47 90 51.4772 90 57L90 93Z" fill="#6A6A6A"/>
<path fill-rule="evenodd" clip-rule="evenodd" d="M97.5 86C97.5 85.7239 97.7239 85.5 98 85.5H110C110.276 85.5 110.5 85.7239 110.5 86C110.5 86.2761 110.276 86.5 110 86.5H98C97.7239 86.5 97.5 86.2761 97.5 86Z" fill="#6A6A6A"/>
<path d="M10 87C8.89543 87 8 86.1046 8 85L8 57C8 51.4772 12.4772 47 18 47L44 47C45.1046 47 46 47.8954 46 49L46 77C46 82.5228 41.5228 87 36 87L10 87Z" fill="white"/>
<path fill-rule="evenodd" clip-rule="evenodd" d="M10 57L10 85L36 85C40.4183 85 44 81.4183 44 77L44 49L18 49C13.5817 49 10 52.5817 10 57ZM8 85C8 86.1046 8.89543 87 10 87L36 87C41.5228 87 46 82.5228 46 77L46 49C46 47.8954 45.1046 47 44 47L18 47C12.4772 47 8 51.4772 8 57L8 85Z" fill="#6A6A6A"/>
<path fill-rule="evenodd" clip-rule="evenodd" d="M16 78.5C16 78.2239 16.2239 78 16.5 78H27.5C27.7761 78 28 78.2239 28 78.5C28 78.7761 27.7761 79 27.5 79H16.5C16.2239 79 16 78.7761 16 78.5Z" fill="#6A6A6A"/>
<path fill-rule="evenodd" clip-rule="evenodd" d="M97.5 79C97.5 78.7239 97.7239 78.5 98 78.5H120C120.276 78.5 120.5 78.7239 120.5 79C120.5 79.2761 120.276 79.5 120 79.5H98C97.7239 79.5 97.5 79.2761 97.5 79Z" fill="#6A6A6A"/>
<path fill-rule="evenodd" clip-rule="evenodd" d="M16 71.5C16 71.2239 16.2141 71 16.4783 71H37.5217C37.7859 71 38 71.2239 38 71.5C38 71.7761 37.7859 72 37.5217 72H16.4783C16.2141 72 16 71.7761 16 71.5Z" fill="#6A6A6A"/>
<path fill-rule="evenodd" clip-rule="evenodd" d="M97.5 72C97.5 71.7239 97.7239 71.5 98 71.5H120C120.276 71.5 120.5 71.7239 120.5 72C120.5 72.2761 120.276 72.5 120 72.5H98C97.7239 72.5 97.5 72.2761 97.5 72Z" fill="#6A6A6A"/>
<path d="M105.822 55C106.275 55.0079 106.686 55.0824 107.054 55.2238C107.43 55.3651 107.756 55.5771 108.032 55.8597C108.316 56.1345 108.535 56.4879 108.688 56.9197C108.841 57.3437 108.918 57.8383 108.918 58.4036C108.918 58.7334 108.968 59.0121 109.068 59.2398C109.168 59.4597 109.325 59.6285 109.54 59.7463L109.689 59.8169C109.896 59.9268 110 60.0839 110 60.288V60.7238C110 60.9279 109.896 61.0849 109.689 61.1949L109.54 61.2655C109.317 61.3754 109.156 61.5443 109.056 61.7719C108.964 61.9996 108.918 62.2744 108.918 62.5964C108.918 63.1695 108.841 63.6681 108.688 64.0921C108.535 64.5161 108.32 64.8655 108.044 65.1403C107.767 65.4229 107.441 65.6349 107.065 65.7762C106.689 65.9254 106.279 66 105.834 66H105.765C105.688 66 105.627 65.9764 105.581 65.9293C105.535 65.8822 105.512 65.8194 105.512 65.7409V64.6809C105.512 64.6024 105.535 64.5396 105.581 64.4925C105.627 64.4454 105.68 64.4218 105.742 64.4218H105.776C106.099 64.3904 106.359 64.3041 106.559 64.1627C106.766 64.0293 106.916 63.8212 107.008 63.5385C107.1 63.2559 107.146 62.8869 107.146 62.4315C107.146 61.929 107.223 61.5128 107.376 61.1831C107.537 60.8455 107.74 60.6178 107.986 60.5C107.825 60.4215 107.679 60.2919 107.549 60.1113C107.426 59.9229 107.326 59.6991 107.249 59.44C107.18 59.1809 107.146 58.8944 107.146 58.5803C107.146 58.1171 107.1 57.748 107.008 57.4732C106.916 57.1906 106.77 56.9786 106.57 56.8373C106.371 56.6959 106.114 56.6135 105.799 56.5899H105.742C105.68 56.5821 105.627 56.5546 105.581 56.5075C105.535 56.4604 105.512 56.4015 105.512 56.3308V55.2591C105.512 55.1884 105.535 55.1296 105.581 55.0824C105.627 55.0275 105.688 55 105.765 55H105.822Z" fill="#6A6A6A"/>
<path d="M102.189 66C101.736 66 101.322 65.9293 100.946 65.788C100.57 65.6467 100.24 65.4347 99.9565 65.152C99.6803 64.8694 99.4654 64.5161 99.312 64.0921C99.1662 63.6681 99.0933 63.1695 99.0933 62.5964C99.0933 62.2744 99.0396 61.9996 98.9322 61.7719C98.8325 61.5443 98.6752 61.3715 98.4603 61.2537L98.3107 61.1949C98.1036 61.0771 98 60.9161 98 60.712V60.288C98 60.0839 98.1036 59.9229 98.3107 59.8051L98.4603 59.7463C98.6828 59.6285 98.844 59.4557 98.9437 59.2281C99.0434 59.0004 99.0933 58.7256 99.0933 58.4036C99.0933 57.8305 99.1662 57.3358 99.312 56.9197C99.4654 56.4957 99.6803 56.1424 99.9565 55.8597C100.233 55.5771 100.559 55.3651 100.935 55.2238C101.311 55.0824 101.721 55.0079 102.166 55H102.247C102.316 55 102.373 55.0275 102.419 55.0824C102.473 55.1296 102.5 55.1884 102.5 55.2591V56.3308C102.5 56.4015 102.477 56.4604 102.431 56.5075C102.385 56.5546 102.331 56.5821 102.27 56.5899H102.224C101.901 56.6135 101.641 56.6959 101.441 56.8373C101.242 56.9707 101.096 57.1788 101.004 57.4615C100.912 57.7441 100.866 58.1171 100.866 58.5803C100.866 59.0749 100.785 59.4911 100.624 59.8287C100.463 60.1585 100.26 60.3822 100.014 60.5C100.175 60.5707 100.317 60.7002 100.44 60.8887C100.57 61.0771 100.674 61.3048 100.751 61.5717C100.827 61.8308 100.866 62.1135 100.866 62.4197C100.866 62.8751 100.912 63.248 101.004 63.5385C101.096 63.8212 101.242 64.0293 101.441 64.1627C101.641 64.2962 101.898 64.3787 102.212 64.4101L102.27 64.4218C102.331 64.4218 102.385 64.4454 102.431 64.4925C102.477 64.5396 102.5 64.6024 102.5 64.6809V65.7409C102.5 65.8194 102.473 65.8822 102.419 65.9293C102.373 65.9764 102.316 66 102.247 66H102.189Z" fill="#6A6A6A"/>
<path fill-rule="evenodd" clip-rule="evenodd" d="M68.9993 90.5109C69.0906 90.3766 69.1659 90.2237 69.2207 90.0522C69.5184 89.1216 70.5362 88.6315 71.4493 88.9789C71.617 89.0427 71.7828 89.0792 71.944 89.0917C72.668 88.4927 73.2663 87.7471 73.6933 86.9004C73.6452 86.7454 73.5727 86.5914 73.4728 86.4416C72.9309 85.6286 73.1822 84.5274 74.0233 84.0301C74.1774 83.9389 74.3092 83.8322 74.4194 83.7141C74.4029 82.7391 74.1818 81.814 73.7973 80.9797C73.6461 80.9207 73.4804 80.8814 73.3011 80.8661C72.3276 80.7829 71.6233 79.8998 71.7588 78.9322C71.7837 78.7546 71.7824 78.5849 71.7587 78.4249C71.0216 77.8569 70.165 77.4361 69.2332 77.2069C69.0928 77.2883 68.9587 77.3934 68.8348 77.5241C68.1628 78.2333 67.0332 78.2333 66.3612 77.5241C66.2373 77.3933 66.1031 77.2882 65.9626 77.2068C65.0309 77.4359 64.1745 77.8564 63.4375 78.4242C63.4137 78.5844 63.4123 78.7543 63.4372 78.9322C63.5728 79.8998 62.8685 80.7829 61.895 80.8661C61.7153 80.8814 61.5492 80.9209 61.3978 80.9801C61.0135 81.814 60.7925 82.7388 60.7759 83.7133C60.8863 83.8317 61.0183 83.9387 61.1728 84.0301C62.0138 84.5274 62.2652 85.6286 61.7232 86.4416C61.6232 86.5917 61.5505 86.7461 61.5024 86.9013C61.9294 87.7477 62.5275 88.493 63.2513 89.0918C63.4128 89.0793 63.5788 89.0428 63.7467 88.9789C64.6599 88.6315 65.6776 89.1216 65.9753 90.0522C66.0302 90.2238 66.1055 90.3768 66.1968 90.5111C66.649 90.6054 67.1175 90.655 67.5976 90.655C68.0781 90.655 68.5469 90.6054 68.9993 90.5109Z" fill="white"/>
<path fill-rule="evenodd" clip-rule="evenodd" d="M68.9993 90.5109C69.0906 90.3766 69.1659 90.2237 69.2207 90.0522C69.5184 89.1216 70.5362 88.6315 71.4493 88.9789C71.617 89.0427 71.7828 89.0792 71.944 89.0917C72.668 88.4927 73.2663 87.7471 73.6933 86.9004C73.6452 86.7454 73.5727 86.5914 73.4728 86.4416C72.9309 85.6286 73.1822 84.5274 74.0233 84.0301C74.1774 83.9389 74.3092 83.8322 74.4194 83.7141C74.4029 82.7391 74.1818 81.814 73.7973 80.9797C73.6461 80.9207 73.4804 80.8814 73.3011 80.8661C72.3276 80.7829 71.6233 79.8998 71.7588 78.9322C71.7837 78.7546 71.7824 78.5849 71.7587 78.4249C71.0216 77.8569 70.165 77.4361 69.2332 77.2069C69.0928 77.2883 68.9587 77.3934 68.8348 77.5241C68.1628 78.2333 67.0332 78.2333 66.3612 77.5241C66.2373 77.3933 66.1031 77.2882 65.9626 77.2068C65.0309 77.4359 64.1745 77.8564 63.4375 78.4242C63.4137 78.5844 63.4123 78.7543 63.4372 78.9322C63.5728 79.8998 62.8685 80.7829 61.895 80.8661C61.7153 80.8814 61.5492 80.9209 61.3978 80.9801C61.0135 81.814 60.7925 82.7388 60.7759 83.7133C60.8863 83.8317 61.0183 83.9387 61.1728 84.0301C62.0138 84.5274 62.2652 85.6286 61.7232 86.4416C61.6232 86.5917 61.5505 86.7461 61.5024 86.9013C61.9294 87.7477 62.5275 88.493 63.2513 89.0918C63.4128 89.0793 63.5788 89.0428 63.7467 88.9789C64.6599 88.6315 65.6776 89.1216 65.9753 90.0522C66.0302 90.2238 66.1055 90.3768 66.1968 90.5111C66.649 90.6054 67.1175 90.655 67.5976 90.655C68.0781 90.655 68.5469 90.6054 68.9993 90.5109ZM66.8803 89.6114C67.115 89.6402 67.3544 89.655 67.5976 89.655C67.8411 89.655 68.0808 89.6401 68.3158 89.6113C68.8243 88.2685 70.3009 87.5571 71.6678 87.9962C72.0105 87.6612 72.312 87.2843 72.5639 86.8741C71.8311 85.6393 72.1956 84.0413 73.3914 83.2464C73.3428 82.759 73.2342 82.2901 73.0733 81.8465C71.6504 81.6499 70.6278 80.368 70.7522 78.9371C70.352 78.6786 69.9184 78.4681 69.4595 78.3133C68.4182 79.3036 66.7776 79.3036 65.7364 78.3131C65.2775 78.4678 64.844 78.6782 64.4438 78.9367C64.5685 80.368 63.5454 81.6504 62.1219 81.8466C61.9611 82.29 61.8525 82.7588 61.8039 83.2459C63.0005 84.0407 63.3653 85.6396 62.6318 86.8748C62.8837 87.2848 63.185 87.6615 63.5276 87.9964C64.8948 87.5569 66.3718 88.2683 66.8803 89.6114Z" fill="#6A6A6A"/>
<path fill-rule="evenodd" clip-rule="evenodd" d="M65.66 82.7594C65.0591 83.8002 65.4157 85.1311 66.4566 85.732C67.4974 86.3329 68.8282 85.9763 69.4292 84.9355C70.0301 83.8947 69.6735 82.5638 68.6327 81.9629C67.5918 81.362 66.261 81.7186 65.66 82.7594ZM64.794 82.2594C63.917 83.7785 64.4374 85.721 65.9566 86.5981C67.4757 87.4751 69.4181 86.9546 70.2952 85.4355C71.1722 83.9164 70.6518 81.9739 69.1327 81.0969C67.6135 80.2198 65.6711 80.7403 64.794 82.2594Z" fill="#6A6A6A"/>
<path d="M48 65.3027C48 65.4028 48.1045 65.4979 48.209 65.4979H86.0933L84.3986 67.2263C84.2942 67.3264 84.2942 67.4265 84.3986 67.5266L84.8166 67.9269C84.9252 68.031 85.0354 68.0175 85.13 67.9269L87.9216 65.1526C88.0261 65.0525 88.0261 64.9524 87.9216 64.8524L85.1007 62.0751C84.9963 61.975 84.8918 61.975 84.7873 62.0751L84.3694 62.4754C84.2649 62.5755 84.2649 62.6756 84.3694 62.7756L86.041 64.4971H48.209C48.1045 64.4971 48 64.6022 48 64.7022V65.3027Z" fill="#6A6A6A"/>
<path d="M76 85.8532C76 85.97 76.1066 86.0809 76.2131 86.0809H86.0553L84.3269 88.0974C84.2203 88.2142 84.2203 88.3309 84.3269 88.4477L84.7531 88.9147C84.8639 89.0362 84.9764 89.0204 85.0728 88.9147L87.9201 85.6781C88.0266 85.5613 88.0266 85.4445 87.9201 85.3278L85.043 82.0876C84.9364 81.9708 84.8298 81.9708 84.7233 82.0876L84.2971 82.5546C84.1905 82.6714 84.1905 82.7882 84.2971 82.9049L86.002 84.9132H76.2131C76.1066 84.9132 76 85.0359 76 85.1526V85.8532Z" fill="#6A6A6A"/>
<path d="M67 65.25C67 65.1119 67.1119 65 67.25 65H67.75C67.8881 65 68 65.1119 68 65.25V74.75C68 74.8881 67.8881 75 67.75 75H67.25C67.1119 75 67 74.8881 67 74.75V65.25Z" fill="#6A6A6A"/>
<path fill-rule="evenodd" clip-rule="evenodd" d="M21.5288 56.674C21.9387 57.0441 21.9709 57.6765 21.6008 58.0863L18.6946 61.3046L21.6009 64.5238C21.971 64.9337 21.9387 65.5661 21.5287 65.9361C21.1188 66.3062 20.4864 66.2739 20.1163 65.864L16 61.3045L20.1164 56.7459C20.4866 56.3361 21.1189 56.3038 21.5288 56.674Z" fill="#6A6A6A"/>
<path fill-rule="evenodd" clip-rule="evenodd" d="M32.1658 56.674C31.7559 57.0441 31.7237 57.6765 32.0938 58.0863L35 61.3046L32.0937 64.5238C31.7236 64.9337 31.7559 65.5661 32.1659 65.9361C32.5758 66.3062 33.2081 66.2739 33.5782 65.864L37.6946 61.3045L33.5782 56.7459C33.208 56.3361 32.5757 56.3038 32.1658 56.674Z" fill="#6A6A6A"/>
<path fill-rule="evenodd" clip-rule="evenodd" d="M29.4321 56.3474C29.9103 56.5939 30.0859 57.2008 29.8242 57.7029L25.6543 65.7029C25.3926 66.2049 24.7928 66.4121 24.3146 66.1656C23.8364 65.919 23.6608 65.3122 23.9225 64.8101L28.0924 56.8101C28.3541 56.308 28.9539 56.1009 29.4321 56.3474Z" fill="#6A6A6A"/>
</svg>