<svg width="89" height="49" viewBox="0 0 89 49" fill="none" xmlns="http://www.w3.org/2000/svg">
<path d="M22.3061 16.2114L19.276 27.5197C19.2741 27.5269 19.2652 27.5294 19.2596 27.5245C17.9395 26.3489 17.3488 25.0233 16.944 23.402C16.7936 22.7996 16.8207 22.1685 16.9814 21.5687L17.3434 20.2178C17.5041 19.618 17.7962 19.0579 18.2277 18.6114C19.3889 17.4097 20.5632 16.557 22.2943 16.1991C22.3015 16.1976 22.308 16.2042 22.3061 16.2114Z" fill="white"/>
<path d="M6.10127 20.1169L14.289 22.3108C14.8224 22.4537 15.3708 22.1371 15.5137 21.6037L16.0899 19.4533C16.2328 18.9198 15.9162 18.3715 15.3828 18.2286L7.1952 16.0347C6.94467 15.9676 6.68715 16.1162 6.62002 16.3668L5.76926 19.5418C5.70215 19.7923 5.85079 20.0498 6.10127 20.1169Z" fill="white"/>
<path fill-rule="evenodd" clip-rule="evenodd" d="M4.81452 17.3336C4.68115 17.2979 4.54406 17.377 4.50833 17.5104C4.47259 17.6438 4.55174 17.7809 4.68511 17.8166L5.6449 18.0738L5.29408 19.3831C5.15114 19.9165 5.46772 20.4649 6.00119 20.6078L14.6424 22.9232C15.1759 23.0661 15.7242 22.7496 15.8671 22.2161L16.7022 19.0998C16.8451 18.5663 16.5285 18.018 15.995 17.8751L7.35383 15.5597C6.82036 15.4167 6.27203 15.7333 6.12909 16.2668L5.77431 17.5908L4.81452 17.3336ZM14.9012 21.9573L6.26001 19.6419L7.09501 16.5256L15.7362 18.841L14.9012 21.9573Z" fill="#6A6A6A"/>
<path d="M5.74395 32.6609C5.67683 32.9114 5.82549 33.1689 6.07599 33.236L9.70462 34.2083C9.95513 34.2754 10.2126 34.1268 10.2797 33.8763L12.9535 23.8975C13.0207 23.647 12.872 23.3895 12.6215 23.3224L8.99286 22.3501C8.74235 22.283 8.48487 22.4317 8.41774 22.6822L5.74395 32.6609Z" fill="white"/>
<path d="M10.4839 14.9713C10.4168 15.2218 10.5654 15.4793 10.8159 15.5464L14.4445 16.5187C14.6951 16.5858 14.9525 16.4371 15.0197 16.1866L17.6935 6.20789C17.7606 5.95739 17.6119 5.6999 17.3614 5.63277L13.7328 4.66049C13.4823 4.59336 13.2248 4.74202 13.1577 4.99253L10.4839 14.9713Z" fill="white"/>
<path fill-rule="evenodd" clip-rule="evenodd" d="M9.57592 34.6913C10.0932 34.8298 10.6248 34.5229 10.7634 34.0057L13.4372 24.0269C13.5758 23.5097 13.2688 22.978 12.7516 22.8394L9.12297 21.8671C8.60573 21.7286 8.07408 22.0355 7.93548 22.5527L5.26169 32.5315C5.12309 33.0487 5.43005 33.5804 5.94729 33.719L9.57592 34.6913ZM10.5835 30.8132L9.80535 33.7175L8.26141 33.3038L9.03964 30.3995L10.5835 30.8132ZM10.713 30.3302L11.5558 27.1845L10.012 26.7709L9.16906 29.9165L10.713 30.3302ZM11.6852 26.7016L12.4634 23.7975L10.9195 23.3838L10.1414 26.2879L11.6852 26.7016ZM10.4366 23.2544L8.89354 22.8409L8.11538 25.745L9.65842 26.1585L10.4366 23.2544ZM7.98598 26.228L7.1431 29.3737L8.68609 29.7871L9.52901 26.6415L7.98598 26.228ZM7.01369 29.8566L8.55668 30.2701L7.77845 33.1743L6.23549 32.7609L7.01369 29.8566ZM14.3158 17.0016C14.8331 17.1402 15.3647 16.8333 15.5033 16.316L18.1771 6.33729C18.3157 5.82005 18.0088 5.2884 17.4915 5.1498L13.8629 4.17751C13.3457 4.03892 12.814 4.34587 12.6754 4.86311L10.0016 14.8418C9.86302 15.3591 10.17 15.8907 10.6872 16.0293L14.3158 17.0016ZM15.3234 13.1237L14.5453 16.0278L13.0014 15.6141L13.7795 12.71L15.3234 13.1237ZM15.4529 12.6407L16.2957 9.49503L14.7519 9.08135L13.909 12.227L15.4529 12.6407ZM16.4251 9.01206L17.2033 6.10786L15.6595 5.69419L14.8813 8.59839L16.4251 9.01206ZM15.1765 5.56478L13.6335 5.15131L12.8553 8.05552L14.3983 8.46898L15.1765 5.56478ZM12.7259 8.53849L11.883 11.6842L13.426 12.0976L14.2689 8.95194L12.7259 8.53849ZM11.7536 12.1671L13.2966 12.5806L12.5184 15.4847L10.9754 15.0713L11.7536 12.1671Z" fill="#6A6A6A"/>
<path fill-rule="evenodd" clip-rule="evenodd" d="M19.0126 26.5705L21.6031 16.9025C20.4158 17.3032 19.5117 18.0023 18.587 18.9592C18.2226 19.3363 17.9681 19.8176 17.8261 20.3476L17.4642 21.6984C17.3222 22.2284 17.3019 22.7725 17.4289 23.2813C17.7513 24.5723 18.1847 25.6298 19.0126 26.5705ZM19.7588 27.6495C19.6578 28.0261 19.2026 28.1438 18.9269 27.8982C17.5061 26.633 16.8779 25.2027 16.4587 23.5235C16.2849 22.8274 16.3188 22.1093 16.4982 21.4396L16.8602 20.0888C17.0397 19.4191 17.3693 18.7803 17.8679 18.2643C19.0706 17.0197 20.3297 16.0951 22.1928 15.7098C22.5543 15.635 22.8897 15.9645 22.7888 16.3412L21.4034 21.5116L22.5201 21.8109C22.5209 21.8111 22.5218 21.8113 22.5226 21.8115C22.767 21.5676 23.1312 21.457 23.4887 21.5528C24.0222 21.6957 24.3387 22.244 24.1958 22.7775C24.0529 23.311 23.5045 23.6275 22.9711 23.4846C22.6135 23.3888 22.3534 23.1109 22.2638 22.7774C22.2629 22.7772 22.2621 22.777 22.2613 22.7768L21.1446 22.4776L19.7588 27.6495Z" fill="#6A6A6A"/>
<path d="M66.691 16.2114L69.7211 27.5197C69.723 27.5269 69.7319 27.5294 69.7374 27.5245C71.0576 26.3489 71.6482 25.0233 72.053 23.402C72.2035 22.7996 72.1764 22.1685 72.0156 21.5687L71.6537 20.2178C71.493 19.618 71.2009 19.0579 70.7694 18.6114C69.6082 17.4097 68.4338 16.557 66.7028 16.1991C66.6955 16.1976 66.6891 16.2042 66.691 16.2114Z" fill="white"/>
<path d="M82.8958 20.1169L74.7081 22.3108C74.1746 22.4537 73.6263 22.1371 73.4834 21.6037L72.9072 19.4533C72.7642 18.9198 73.0808 18.3715 73.6143 18.2286L81.8019 16.0347C82.0524 15.9676 82.3099 16.1162 82.3771 16.3668L83.2278 19.5418C83.2949 19.7923 83.1463 20.0498 82.8958 20.1169Z" fill="white"/>
<path fill-rule="evenodd" clip-rule="evenodd" d="M84.1826 17.3336C84.3159 17.2979 84.453 17.377 84.4887 17.5104C84.5245 17.6438 84.4453 17.7809 84.312 17.8166L83.3522 18.0738L83.703 19.3831C83.8459 19.9165 83.5294 20.4649 82.9959 20.6078L74.3547 22.9232C73.8212 23.0661 73.2729 22.7496 73.1299 22.2161L72.2949 19.0998C72.152 18.5663 72.4686 18.018 73.002 17.8751L81.6432 15.5597C82.1767 15.4167 82.725 15.7333 82.868 16.2668L83.2228 17.5908L84.1826 17.3336ZM74.0958 21.9573L82.7371 19.6419L81.9021 16.5256L73.2608 18.841L74.0958 21.9573Z" fill="#6A6A6A"/>
<path d="M83.2531 32.6609C83.3202 32.9114 83.1716 33.1689 82.9211 33.236L79.2924 34.2083C79.0419 34.2754 78.7845 34.1268 78.7173 33.8763L76.0435 23.8975C75.9764 23.647 76.1251 23.3895 76.3756 23.3224L80.0042 22.3501C80.2547 22.283 80.5122 22.4317 80.5793 22.6822L83.2531 32.6609Z" fill="white"/>
<path d="M78.5132 14.9713C78.5803 15.2218 78.4317 15.4793 78.1812 15.5464L74.5525 16.5187C74.302 16.5858 74.0445 16.4371 73.9774 16.1866L71.3036 6.20789C71.2365 5.95739 71.3852 5.6999 71.6357 5.63277L75.2643 4.66049C75.5148 4.59336 75.7723 4.74202 75.8394 4.99253L78.5132 14.9713Z" fill="white"/>
<path fill-rule="evenodd" clip-rule="evenodd" d="M79.4212 34.6913C78.9039 34.8298 78.3723 34.5229 78.2337 34.0057L75.5599 24.0269C75.4213 23.5097 75.7282 22.978 76.2455 22.8394L79.8741 21.8671C80.3913 21.7286 80.923 22.0355 81.0616 22.5527L83.7354 32.5315C83.874 33.0487 83.567 33.5804 83.0498 33.719L79.4212 34.6913ZM78.4135 30.8132L79.1917 33.7175L80.7357 33.3038L79.9574 30.3995L78.4135 30.8132ZM78.2841 30.3302L77.4412 27.1845L78.9851 26.7709L79.828 29.9165L78.2841 30.3302ZM77.3118 26.7016L76.5337 23.7975L78.0775 23.3838L78.8557 26.2879L77.3118 26.7016ZM78.5605 23.2544L80.1035 22.8409L80.8817 25.745L79.3386 26.1585L78.5605 23.2544ZM81.0111 26.228L81.854 29.3737L80.311 29.7871L79.4681 26.6415L81.0111 26.228ZM81.9834 29.8566L80.4404 30.2701L81.2186 33.1743L82.7616 32.7609L81.9834 29.8566ZM74.6812 17.0016C74.164 17.1402 73.6323 16.8333 73.4937 16.316L70.82 6.33729C70.6814 5.82005 70.9883 5.2884 71.5055 5.1498L75.1342 4.17751C75.6514 4.03892 76.1831 4.34587 76.3217 4.86311L78.9955 14.8418C79.1341 15.3591 78.8271 15.8907 78.3099 16.0293L74.6812 17.0016ZM73.6736 13.1237L74.4518 16.0278L75.9957 15.6141L75.2175 12.71L73.6736 13.1237ZM73.5442 12.6407L72.7013 9.49503L74.2452 9.08135L75.0881 12.227L73.5442 12.6407ZM72.5719 9.01206L71.7938 6.10786L73.3376 5.69419L74.1158 8.59839L72.5719 9.01206ZM73.8205 5.56478L75.3636 5.15131L76.1418 8.05552L74.5988 8.46898L73.8205 5.56478ZM76.2712 8.53849L77.1141 11.6842L75.5711 12.0976L74.7282 8.95194L76.2712 8.53849ZM77.2435 12.1671L75.7005 12.5806L76.4787 15.4847L78.0217 15.0713L77.2435 12.1671Z" fill="#6A6A6A"/>
<path fill-rule="evenodd" clip-rule="evenodd" d="M69.9845 26.5705L67.3939 16.9025C68.5813 17.3032 69.4854 18.0023 70.41 18.9592C70.7744 19.3363 71.0289 19.8176 71.1709 20.3476L71.5329 21.6984C71.6749 22.2284 71.6952 22.7725 71.5681 23.2813C71.2458 24.5723 70.8124 25.6298 69.9845 26.5705ZM69.2383 27.6495C69.3392 28.0261 69.7945 28.1438 70.0702 27.8982C71.491 26.633 72.1191 25.2027 72.5384 23.5235C72.7122 22.8274 72.6783 22.1093 72.4988 21.4396L72.1369 20.0888C71.9574 19.4191 71.6278 18.7803 71.1291 18.2643C69.9265 17.0197 68.6673 16.0951 66.8043 15.7098C66.4428 15.635 66.1073 15.9645 66.2083 16.3412L67.5937 21.5116L66.477 21.8109C66.4761 21.8111 66.4753 21.8113 66.4745 21.8115C66.2301 21.5676 65.8659 21.457 65.5084 21.5528C64.9749 21.6957 64.6583 22.244 64.8013 22.7775C64.9442 23.311 65.4925 23.6275 66.026 23.4846C66.3835 23.3888 66.6437 23.1109 66.7333 22.7774C66.7341 22.7772 66.7349 22.777 66.7358 22.7768L67.8525 22.4776L69.2383 27.6495Z" fill="#6A6A6A"/>
<path d="M56.5 32.1604C56.5 38.7878 51.1274 44.1604 44.5 44.1604C37.8726 44.1604 32.5 38.7878 32.5 32.1604C32.5 25.533 37.8726 20.1604 44.5 20.1604C51.1274 20.1604 56.5 25.533 56.5 32.1604Z" fill="white"/>
<path fill-rule="evenodd" clip-rule="evenodd" d="M47.7819 42.6625C46.7454 42.986 45.6431 43.1604 44.5 43.1604C42.1724 43.1604 40.0137 42.4375 38.2361 41.2039L42.5691 38.6949C44.3166 40.7251 46.1717 42.1335 47.7819 42.6625ZM42.681 38.0524C41.8367 37.0333 41.0193 35.8628 40.2733 34.5706C39.5349 33.2916 38.9345 32.0117 38.4759 30.7826L46.2022 26.3086C47.04 27.3225 47.8508 28.4854 48.5914 29.7681C49.3353 31.0565 49.939 32.3459 50.3989 33.5833L42.681 38.0524ZM43.0096 38.4399L50.5705 34.0617C51.0191 35.3601 51.305 36.5923 51.4239 37.6949C51.5467 38.8335 51.4888 39.8099 51.2669 40.5706C51.2302 40.6963 51.1894 40.8153 51.1445 40.9276C50.3797 41.5082 49.5365 41.9909 48.6337 42.3573C48.5226 42.3403 48.4083 42.3176 48.2908 42.2888C47.521 42.1006 46.6465 41.6626 45.7218 40.987C44.8289 40.3345 43.9074 39.4737 43.0096 38.4399ZM51.0111 33.8066C51.906 36.3601 52.1971 38.6924 51.8364 40.3567C54.085 38.3426 55.5 35.4167 55.5 32.1604C55.5 31.8469 55.4869 31.5366 55.4612 31.2297L51.0111 33.8066ZM55.4021 30.6862C55.0066 27.7336 53.4398 25.1518 51.1845 23.4237L46.6408 26.0547C47.4794 27.0771 48.2873 28.2413 49.0244 29.5181C49.7646 30.8001 50.3708 32.0871 50.8377 33.3292L55.4021 30.6862ZM42.2423 38.3064L37.7952 40.8815C35.5443 39.1484 33.9832 36.5635 33.5946 33.6091L38.0372 31.0366C38.5027 32.2703 39.1055 33.5479 39.8403 34.8206C40.5828 36.1067 41.3971 37.2786 42.2423 38.3064ZM37.8633 30.5596L33.5367 33.0649C33.5124 32.7666 33.5 32.4649 33.5 32.1604C33.5 28.9829 34.8473 26.1201 37.0017 24.112C36.6818 25.7727 36.984 28.0611 37.8633 30.5596ZM44.5 21.1604C46.8182 21.1604 48.9688 21.8775 50.7423 23.1019L46.3145 25.6658C44.5754 23.64 42.7284 22.2296 41.1214 21.689C42.1859 21.3458 43.3213 21.1604 44.5 21.1604ZM37.4408 26.6438C37.5606 27.7542 37.8497 28.996 38.3038 30.3045L45.8742 25.9208C44.9704 24.8772 44.0422 24.0088 43.1429 23.3517C42.2182 22.6761 41.3437 22.2381 40.574 22.0499C40.4795 22.0268 40.3871 22.0075 40.2967 21.992C39.3482 22.3846 38.4665 22.9059 37.6736 23.5343C37.6466 23.6095 37.6214 23.6874 37.5978 23.7681C37.376 24.5288 37.318 25.5052 37.4408 26.6438ZM38.7383 21.6316C40.4484 20.6937 42.4119 20.1604 44.5 20.1604C51.1274 20.1604 56.5 25.533 56.5 32.1604C56.5 38.7878 51.1274 44.1604 44.5 44.1604C37.8726 44.1604 32.5 38.7878 32.5 32.1604C32.5 27.8756 34.7458 24.1152 38.1244 21.9923C38.2218 21.9136 38.3249 21.8426 38.4339 21.7797C38.5321 21.723 38.6336 21.6736 38.7383 21.6316Z" fill="#6A6A6A"/>
<path d="M48.4072 25.8408C48.4072 27.2215 47.2879 28.3408 45.9072 28.3408C44.5265 28.3408 43.4072 27.2215 43.4072 25.8408C43.4072 24.4601 44.5265 23.3408 45.9072 23.3408C47.2879 23.3408 48.4072 24.4601 48.4072 25.8408Z" fill="#00C895"/>
<path fill-rule="evenodd" clip-rule="evenodd" d="M45.7609 22.7818C46.0314 22.7265 46.2059 22.4623 46.1506 22.1918C46.0835 21.8635 45.9837 21.537 45.8547 21.2149C45.7521 20.9585 45.461 20.8339 45.2047 20.9365C44.9483 21.0392 44.8237 21.3302 44.9264 21.5866C45.0349 21.8577 45.1167 22.1269 45.1709 22.392C45.2262 22.6626 45.4903 22.8371 45.7609 22.7818ZM24.2907 21.4827C24.5193 21.6376 24.8302 21.578 24.9852 21.3494C25.1597 21.092 25.3371 20.845 25.5172 20.6079C25.6842 20.388 25.6414 20.0743 25.4215 19.9073C25.2016 19.7402 24.8879 19.7831 24.7209 20.003C24.5297 20.2546 24.3418 20.5163 24.1575 20.7882C24.0025 21.0168 24.0622 21.3277 24.2907 21.4827ZM44.7623 20.1843C44.9828 20.0181 45.0268 19.7045 44.8606 19.484C44.4807 18.98 44.0328 18.496 43.5293 18.0427C43.3241 17.8579 43.008 17.8745 42.8232 18.0797C42.6384 18.2849 42.655 18.6011 42.8602 18.7858C43.3203 19.2001 43.7239 19.6374 44.0621 20.086C44.2283 20.3065 44.5418 20.3505 44.7623 20.1843ZM25.9869 19.245C26.1851 19.4373 26.5016 19.4325 26.6939 19.2343C27.1286 18.7862 27.5746 18.3869 28.0288 18.0329C28.2466 17.8632 28.2856 17.549 28.1159 17.3312C27.9461 17.1133 27.6319 17.0744 27.4141 17.2441C26.9225 17.6272 26.4422 18.0576 25.9761 18.538C25.7839 18.7362 25.7887 19.0527 25.9869 19.245ZM42.1288 17.5515C42.2791 17.3198 42.2131 17.0102 41.9814 16.8599C41.4498 16.5152 40.8813 16.2013 40.2835 15.9258C40.0327 15.8103 39.7357 15.92 39.6201 16.1708C39.5046 16.4216 39.6143 16.7186 39.8651 16.8341C40.4196 17.0896 40.9461 17.3804 41.4373 17.699C41.669 17.8492 41.9786 17.7832 42.1288 17.5515ZM28.8392 16.8499C28.9734 17.0913 29.2778 17.1782 29.5191 17.0441C30.0547 16.7465 30.5978 16.5028 31.1445 16.3083C31.4046 16.2157 31.5405 15.9297 31.4479 15.6696C31.3554 15.4094 31.0694 15.2735 30.8092 15.3661C30.2109 15.579 29.6174 15.8454 29.0334 16.17C28.792 16.3041 28.7051 16.6085 28.8392 16.8499ZM38.8057 15.863C38.8847 15.5984 38.7343 15.3198 38.4697 15.2408C37.8564 15.0577 37.2226 14.9156 36.5749 14.8217C36.3016 14.782 36.0479 14.9714 36.0083 15.2447C35.9687 15.518 36.1581 15.7717 36.4314 15.8113C37.0292 15.898 37.6153 16.0293 38.1835 16.199C38.4481 16.278 38.7267 16.1276 38.8057 15.863ZM32.2895 15.4479C32.3373 15.7198 32.5965 15.9016 32.8684 15.8538C33.4627 15.7495 34.057 15.6968 34.646 15.6906C34.9222 15.6877 35.1436 15.4614 35.1407 15.1853C35.1378 14.9092 34.9116 14.6877 34.6355 14.6906C33.9939 14.6974 33.3452 14.7548 32.6955 14.8689C32.4235 14.9167 32.2417 15.1759 32.2895 15.4479Z" fill="#00C895"/>
<path fill-rule="evenodd" clip-rule="evenodd" d="M58.1324 24.6691C58.3686 25.5508 58.7762 26.3774 59.3319 27.1015C59.8876 27.8257 60.5805 28.4333 61.371 28.8897C61.6101 29.0278 61.9159 28.9459 62.054 28.7067C62.192 28.4676 62.1101 28.1618 61.871 28.0237C61.1942 27.633 60.601 27.1128 60.1253 26.4928C59.6495 25.8728 59.3006 25.1652 59.0983 24.4103C58.8961 23.6555 58.8445 22.8682 58.9465 22.0934C59.0485 21.3186 59.3021 20.5715 59.6928 19.8947C59.8309 19.6556 59.7489 19.3498 59.5098 19.2117C59.2706 19.0736 58.9649 19.1556 58.8268 19.3947C58.3704 20.1852 58.0742 21.0579 57.955 21.9629C57.8359 22.8679 57.8961 23.7875 58.1324 24.6691ZM60.4258 24.0542C60.5659 24.5769 60.8075 25.0668 61.1369 25.496C61.4662 25.9253 61.8769 26.2854 62.3455 26.556C62.5846 26.6941 62.8904 26.6121 63.0285 26.373C63.1666 26.1338 63.0846 25.828 62.8455 25.69C62.4907 25.4851 62.1796 25.2123 61.9302 24.8873C61.6808 24.5622 61.4978 24.1912 61.3918 23.7954C61.2857 23.3996 61.2587 22.9868 61.3121 22.5806C61.3656 22.1744 61.4986 21.7827 61.7035 21.4278C61.8415 21.1887 61.7596 20.8829 61.5205 20.7448C61.2813 20.6067 60.9755 20.6887 60.8374 20.9278C60.5669 21.3964 60.3913 21.9137 60.3207 22.4501C60.2501 22.9865 60.2858 23.5316 60.4258 24.0542Z" fill="#00C895"/>
</svg>
