<!--
 Copyright 2023-2025 Solace Systems. All rights reserved.

 Licensed under the Apache License, Version 2.0 (the "License");
 you may not use this file except in compliance with the License.
 You may obtain a copy of the License at

     http://www.apache.org/licenses/LICENSE-2.0

 Unless required by applicable law or agreed to in writing, software
 distributed under the License is distributed on an "AS IS" BASIS,
 WITHOUT WARRANTIES OR CONDITIONS OF ANY KIND, either express or implied.
 See the License for the specific language governing permissions and
 limitations under the License.
-->
<svg width="89" height="49" viewBox="0 0 89 49" fill="none" xmlns="http://www.w3.org/2000/svg">
<path d="M61.1638 20.5596L65.1507 35.4389C65.1527 35.4461 65.1616 35.4486 65.1671 35.4437C66.9835 33.8278 67.7508 31.9965 68.2859 29.7308C68.4286 29.1265 68.4043 28.4959 68.2436 27.8961L67.6137 25.5453C67.453 24.9455 67.1588 24.3873 66.733 23.9352C65.1367 22.2406 63.5565 21.0383 61.1756 20.5472C61.1684 20.5457 61.1619 20.5524 61.1638 20.5596Z" fill="white"/>
<path d="M82.4738 25.6999L71.4034 28.6662C70.87 28.8092 70.3216 28.4926 70.1787 27.9591L69.258 24.5232C69.1151 23.9897 69.4317 23.4414 69.9651 23.2985L81.0353 20.3322C81.3648 20.2439 81.7034 20.4394 81.7917 20.7689L82.9103 24.9438C82.9986 25.2732 82.8031 25.6117 82.4738 25.6999Z" fill="white"/>
<path fill-rule="evenodd" clip-rule="evenodd" d="M84.1868 22.1163C84.3202 22.0805 84.4572 22.1597 84.493 22.2931C84.5287 22.4264 84.4496 22.5635 84.3162 22.5992L82.9014 22.9783L83.4238 24.9278C83.5667 25.4613 83.2501 26.0096 82.7167 26.1526L71.05 29.2786C70.5165 29.4216 69.9682 29.105 69.8252 28.5715L68.6458 24.1697C68.5028 23.6362 68.8194 23.0879 69.3529 22.9449L81.0196 19.8189C81.553 19.6759 82.1014 19.9925 82.2443 20.526L82.772 22.4954L84.1868 22.1163ZM70.7912 28.3127L82.4579 25.1866L81.2784 20.7848L69.6117 23.9109L70.7912 28.3127Z" fill="#6A6A6A"/>
<path d="M82.9431 42.1939C83.0313 42.5233 82.8358 42.8619 82.5064 42.9501L77.7351 44.2286C77.4057 44.3169 77.0671 44.1214 76.9789 43.792L73.463 30.6708C73.3748 30.3414 73.5703 30.0028 73.8996 29.9145L78.671 28.6361C79.0004 28.5478 79.339 28.7433 79.4272 29.0727L82.9431 42.1939Z" fill="white"/>
<path d="M76.7104 18.9335C76.7987 19.2629 76.6032 19.6014 76.2738 19.6897L71.5025 20.9682C71.1731 21.0564 70.8345 20.861 70.7462 20.5316L67.2304 7.41033C67.1422 7.08094 67.3376 6.74236 67.667 6.6541L72.4384 5.37562C72.7678 5.28736 73.1064 5.48284 73.1946 5.81223L76.7104 18.9335Z" fill="white"/>
<path fill-rule="evenodd" clip-rule="evenodd" d="M71.6852 21.4369C71.0891 21.5966 70.4763 21.2429 70.3166 20.6467L66.8008 7.5255C66.641 6.92937 66.9948 6.31663 67.5909 6.1569L72.3623 4.87842C72.9584 4.71869 73.5712 5.07245 73.7309 5.66858L77.2467 18.7898C77.4064 19.3859 77.0527 19.9987 76.4566 20.1584L71.6852 21.4369ZM71.2825 20.3879C71.2993 20.4506 71.3637 20.4878 71.4264 20.471L73.5174 19.9107L72.4938 16.0908L70.2894 16.6815L71.2825 20.3879ZM70.16 16.1985L69.0109 11.9101L71.2152 11.3195L72.3644 15.6079L70.16 16.1985ZM68.8815 11.4272L67.7667 7.26668C67.7499 7.20402 67.7871 7.13961 67.8498 7.12282L69.9406 6.56258L71.0858 10.8365L68.8815 11.4272ZM70.4236 6.43317L72.6211 5.84434C72.6838 5.82755 72.7482 5.86474 72.765 5.9274L73.8798 10.0879L71.5688 10.7071L70.4236 6.43317ZM74.0092 10.5708L75.1582 14.8592L72.8473 15.4785L71.6982 11.1901L74.0092 10.5708ZM75.2877 15.3422L76.2808 19.0486C76.2976 19.1113 76.2604 19.1757 76.1977 19.1925L74.0003 19.7813L72.9767 15.9614L75.2877 15.3422ZM76.549 43.9072C76.7087 44.5034 77.3215 44.8571 77.9176 44.6974L82.689 43.4189C83.2851 43.2592 83.6389 42.6464 83.4791 42.0503L79.9633 28.9291C79.8036 28.3329 79.1908 27.9792 78.5947 28.1389L73.8234 29.4174C73.2272 29.5771 72.8735 30.1899 73.0332 30.786L76.549 43.9072ZM77.6588 43.7315C77.5961 43.7483 77.5317 43.7111 77.5149 43.6484L76.4952 39.8427L78.6998 39.252L79.75 43.1711L77.6588 43.7315ZM75.2167 35.0713L76.3658 39.3597L78.5704 38.769L77.4213 34.4806L75.2167 35.0713ZM73.9991 30.5272L75.0873 34.5884L77.2919 33.9977L76.1733 29.823L74.0822 30.3833C74.0195 30.4001 73.9823 30.4645 73.9991 30.5272ZM78.8535 29.1048L76.6562 29.6936L77.7748 33.8682L80.0856 33.2491L78.9974 29.1879C78.9806 29.1252 78.9162 29.088 78.8535 29.1048ZM81.3641 38.0204L80.215 33.732L77.9042 34.3512L79.0534 38.6396L81.3641 38.0204ZM82.5132 42.3091L81.4935 38.5034L79.1828 39.1225L80.233 43.0417L82.4302 42.453C82.4928 42.4362 82.53 42.3718 82.5132 42.3091Z" fill="#6A6A6A"/>
<path fill-rule="evenodd" clip-rule="evenodd" d="M65.419 34.5043L61.8636 21.2352C63.6827 21.7812 65.0015 22.8252 66.3701 24.278C66.7336 24.6639 66.9903 25.1465 67.1318 25.6747L67.7617 28.0254C67.9032 28.5536 67.9222 29.0999 67.8003 29.6158C67.3416 31.5583 66.7214 33.1218 65.419 34.5043ZM64.6688 35.5682C64.7699 35.9452 65.2251 36.0622 65.5005 35.8172C67.4229 34.107 68.2258 32.165 68.7736 29.8457C68.9372 29.153 68.9075 28.4381 68.7276 27.7666L68.0977 25.4159C67.9178 24.7444 67.586 24.1105 67.098 23.5924C65.464 21.8577 63.7976 20.5773 61.2777 20.0575C60.9168 19.983 60.5809 20.3119 60.6819 20.6889L62.5458 27.6451L60.9967 28.0601C60.6829 27.6492 60.1412 27.4457 59.6108 27.5879C58.9093 27.7758 58.493 28.4969 58.681 29.1983C58.8689 29.8998 59.59 30.3161 60.2914 30.1281C60.8219 29.986 61.1893 29.5389 61.2556 29.0261L62.8046 28.611L64.6688 35.5682Z" fill="#6A6A6A"/>
<path d="M19.2662 25.9624L22.2963 14.6541C22.2982 14.647 22.2917 14.6403 22.2845 14.6418C20.5534 14.9998 19.3791 15.8525 18.2179 17.0541C17.7864 17.5007 17.4943 18.0608 17.3336 18.6606L16.9716 20.0114C16.8109 20.6113 16.7838 21.2423 16.9342 21.8448C17.339 23.4661 17.9297 24.7917 19.2498 25.9672C19.2554 25.9721 19.2643 25.9696 19.2662 25.9624Z" fill="white"/>
<path d="M7.18525 14.4777L15.3729 16.6716C15.9064 16.8145 16.223 17.3629 16.08 17.8963L15.5039 20.0467C15.3609 20.5802 14.8126 20.8968 14.2791 20.7538L6.09153 18.56C5.841 18.4928 5.69232 18.2353 5.75945 17.9848L6.6102 14.8097C6.67732 14.5592 6.93478 14.4106 7.18525 14.4777Z" fill="white"/>
<path fill-rule="evenodd" clip-rule="evenodd" d="M21.5937 15.3447L19.0032 25.0127C18.1753 24.072 17.7418 23.0146 17.4195 21.7236C17.2925 21.2148 17.3128 20.6707 17.4548 20.1407L17.8167 18.7899C17.9587 18.2599 18.2132 17.7786 18.5776 17.4014C19.5023 16.4445 20.4063 15.7455 21.5937 15.3447ZM22.7794 14.7834C22.8803 14.4067 22.5449 14.0773 22.1834 14.152C20.3203 14.5373 19.0611 15.462 17.8585 16.7065C17.3599 17.2225 17.0302 17.8613 16.8508 18.531L16.4888 19.8819C16.3094 20.5516 16.2755 21.2696 16.4493 21.9658C16.8685 23.6449 17.4967 25.0753 18.9175 26.3405C19.1932 26.586 19.6484 26.4683 19.7493 26.0917L21.1154 20.9935L22.2324 21.2928C22.2331 21.293 22.2337 21.2931 22.2344 21.2933C22.324 21.6268 22.5841 21.9048 22.9417 22.0006C23.4752 22.1435 24.0235 21.827 24.1664 21.2935C24.3094 20.76 23.9928 20.2117 23.4593 20.0687C23.1018 19.973 22.7377 20.0835 22.4933 20.3274C22.4926 20.3272 22.4919 20.327 22.4913 20.3269L21.3742 20.0276L22.7794 14.7834Z" fill="#6A6A6A"/>
<path d="M11.6076 10.5623C11.383 10.692 11.3061 10.9792 11.4357 11.2038L13.314 14.4571C13.4437 14.6817 13.7309 14.7587 13.9555 14.629L22.9022 9.46361C23.1268 9.33394 23.2037 9.04675 23.0741 8.82215L21.1957 5.56881C21.0661 5.34421 20.7789 5.26726 20.5543 5.39693L11.6076 10.5623Z" fill="white"/>
<path fill-rule="evenodd" clip-rule="evenodd" d="M12.9333 12.7967L15.5368 11.2936L16.336 12.6779L13.7325 14.181L12.9333 12.7967ZM12.0673 13.2967L12.8817 14.7074C13.1495 15.1711 13.7424 15.33 14.2062 15.0623L23.1529 9.89691C23.6166 9.62917 23.7755 9.03618 23.5078 8.57244L21.6295 5.3191C21.3617 4.85535 20.7687 4.69646 20.305 4.9642L11.3583 10.1296C10.8946 10.3973 10.7357 10.9903 11.0034 11.454L11.8173 12.8637L8.40973 14.831L8.65973 15.264L12.0673 13.2967ZM12.6833 12.3637L15.2868 10.8606L14.4881 9.47726L11.8846 10.9804L12.6833 12.3637ZM14.9212 9.22726L15.7198 10.6106L18.5401 8.98227L17.7415 7.59895L14.9212 9.22726ZM18.1745 7.34895L18.9732 8.73228L21.5773 7.2288L20.7786 5.84544L18.1745 7.34895ZM21.8273 7.66181L19.2232 9.16529L20.0224 10.5496L22.6265 9.04609L21.8273 7.66181ZM19.5894 10.7996L18.7901 9.41529L15.9698 11.0436L16.7691 12.4279L19.5894 10.7996Z" fill="#6A6A6A"/>
<path d="M7.94546 24.2338C7.81579 24.0092 7.89274 23.722 8.11733 23.5924L11.3707 21.714C11.5953 21.5844 11.8825 21.6613 12.0121 21.8859L17.1775 30.8326C17.3072 31.0572 17.2302 31.3444 17.0056 31.4741L13.7523 33.3524C13.5277 33.482 13.2405 33.4051 13.1108 33.1805L7.94546 24.2338Z" fill="white"/>
<path fill-rule="evenodd" clip-rule="evenodd" d="M11.7136 25.566L7.74309 18.689L7.31008 18.939L11.2805 25.816L9.87045 26.6301L10.1204 27.0631L11.5305 26.249L13.1589 29.0693L11.7488 29.8835L11.9988 30.3165L13.4089 29.5023L14.9275 32.1325L15.3605 31.8825L13.8419 29.2523L15.2521 28.4382L15.0021 28.0051L13.5919 28.8193L11.9636 25.999L13.3738 25.1848L13.1238 24.7518L11.7136 25.566Z" fill="#6A6A6A"/>
<path fill-rule="evenodd" clip-rule="evenodd" d="M12.4448 21.6361C12.177 21.1723 11.584 21.0134 11.1203 21.2812L7.86694 23.1595C7.4032 23.4272 7.24431 24.0202 7.51205 24.484L12.6774 33.4307C12.9452 33.8944 13.5381 34.0533 14.0019 33.7855L17.2552 31.9072C17.719 31.6395 17.8779 31.0465 17.6101 30.5828L12.4448 21.6361ZM11.5939 22.1624L16.7289 31.0564L13.5282 32.9043L8.39328 24.0103L11.5939 22.1624Z" fill="#6A6A6A"/>
<path fill-rule="evenodd" clip-rule="evenodd" d="M4.50268 15.939C4.46694 16.0724 4.54609 16.2094 4.67945 16.2452L6.12209 16.6317C6.25546 16.6675 6.39254 16.5883 6.42828 16.455C6.46402 16.3216 6.38487 16.1845 6.2515 16.1488L4.80886 15.7622C4.6755 15.7265 4.53841 15.8056 4.50268 15.939Z" fill="#6A6A6A"/>
<path fill-rule="evenodd" clip-rule="evenodd" d="M16.6943 17.5345C16.8372 17.0011 16.5207 16.4527 15.9872 16.3098L7.34598 13.9944C6.81252 13.8514 6.26418 14.168 6.12124 14.7015L5.28623 17.8178C5.14329 18.3512 5.45987 18.8996 5.99334 19.0425L14.6346 21.3579C15.168 21.5009 15.7164 21.1843 15.8593 20.6508L16.6943 17.5345ZM7.08716 14.9603L15.7284 17.2757L14.8934 20.392L6.25216 18.0766L7.08716 14.9603Z" fill="#6A6A6A"/>
<path d="M49.6338 32.8286C49.6338 39.456 44.2612 44.8286 37.6338 44.8286C31.0064 44.8286 25.6338 39.456 25.6338 32.8286C25.6338 26.2012 31.0064 20.8286 37.6338 20.8286C44.2612 20.8286 49.6338 26.2012 49.6338 32.8286Z" fill="white"/>
<path fill-rule="evenodd" clip-rule="evenodd" d="M40.9157 43.3307C39.8792 43.6543 38.7769 43.8286 37.6338 43.8286C35.3062 43.8286 33.1475 43.1057 31.3699 41.8722L35.7029 39.3631C37.4504 41.3933 39.3055 42.8017 40.9157 43.3307ZM35.8147 38.7206C34.9705 37.7015 34.1531 36.531 33.4071 35.2388C32.6687 33.9598 32.0683 32.6799 31.6097 31.4508L39.336 26.9769C40.1738 27.9907 40.9846 29.1536 41.7252 30.4363C42.4691 31.7247 43.0728 33.0141 43.5327 34.2515L35.8147 38.7206ZM36.1434 39.1081L43.7043 34.7299C44.1528 36.0283 44.4388 37.2605 44.5577 38.3631C44.6805 39.5017 44.6226 40.4781 44.4007 41.2388C44.364 41.3645 44.3232 41.4835 44.2783 41.5958C43.5135 42.1764 42.6703 42.6591 41.7675 43.0255C41.6564 43.0086 41.542 42.9858 41.4246 42.9571C40.6548 42.7688 39.7803 42.3308 38.8556 41.6552C37.9627 41.0027 37.0412 40.1419 36.1434 39.1081ZM44.1449 34.4748C45.0398 37.0283 45.3309 39.3607 44.9702 41.0249C47.2188 39.0108 48.6338 36.085 48.6338 32.8286C48.6338 32.5152 48.6207 32.2048 48.595 31.898L44.1449 34.4748ZM48.5359 31.3544C48.1404 28.4018 46.5736 25.8201 44.3183 24.0919L39.7746 26.7229C40.6132 27.7453 41.4211 28.9095 42.1582 30.1863C42.8984 31.4683 43.5046 32.7553 43.9715 33.9974L48.5359 31.3544ZM35.3761 38.9746L30.929 41.5497C28.6781 39.8166 27.117 37.2317 26.7283 34.2774L31.171 31.7048C31.6365 32.9385 32.2393 34.2161 32.9741 35.4888C33.7166 36.7749 34.5309 37.9468 35.3761 38.9746ZM30.997 31.2278L26.6704 33.7331C26.6462 33.4348 26.6338 33.1332 26.6338 32.8286C26.6338 29.6511 27.9811 26.7883 30.1355 24.7802C29.8156 26.4409 30.1178 28.7293 30.997 31.2278ZM37.6338 21.8286C39.9519 21.8286 42.1026 22.5457 43.8761 23.7701L39.4483 26.334C37.7092 24.3082 35.8621 22.8978 34.2552 22.3572C35.3197 22.014 36.4551 21.8286 37.6338 21.8286ZM30.5746 27.312C30.6944 28.4224 30.9835 29.6642 31.4376 30.9727L39.008 26.589C38.1042 25.5454 37.176 24.677 36.2767 24.02C35.352 23.3443 34.4775 22.9063 33.7077 22.7181C33.6133 22.695 33.5208 22.6757 33.4305 22.6602C32.482 23.0528 31.6003 23.5741 30.8074 24.2025C30.7804 24.2777 30.7551 24.3556 30.7316 24.4363C30.5097 25.197 30.4518 26.1734 30.5746 27.312ZM31.872 22.2998C33.5822 21.3619 35.5457 20.8286 37.6338 20.8286C44.2612 20.8286 49.6338 26.2012 49.6338 32.8286C49.6338 39.456 44.2612 44.8286 37.6338 44.8286C31.0064 44.8286 25.6338 39.456 25.6338 32.8286C25.6338 28.5438 27.8796 24.7835 31.2582 22.6605C31.3556 22.5818 31.4587 22.5108 31.5677 22.4479C31.6659 22.3912 31.7674 22.3419 31.872 22.2998Z" fill="#6A6A6A"/>
<path d="M41.541 26.509C41.541 27.8897 40.4217 29.009 39.041 29.009C37.6603 29.009 36.541 27.8897 36.541 26.509C36.541 25.1283 37.6603 24.009 39.041 24.009C40.4217 24.009 41.541 25.1283 41.541 26.509Z" fill="#00C895"/>
<path fill-rule="evenodd" clip-rule="evenodd" d="M52.2222 31.0354C52.4585 31.917 52.8661 32.7436 53.4218 33.4677C53.9774 34.1919 54.6703 34.7995 55.4608 35.2559C55.7 35.394 56.0057 35.3121 56.1438 35.0729C56.2819 34.8338 56.2 34.528 55.9608 34.3899C55.284 33.9992 54.6908 33.479 54.2151 32.859C53.7394 32.239 53.3904 31.5314 53.1882 30.7765C52.9859 30.0217 52.9343 29.2344 53.0363 28.4596C53.1383 27.6848 53.3919 26.9377 53.7826 26.2609C53.9207 26.0218 53.8388 25.716 53.5996 25.5779C53.3605 25.4399 53.0547 25.5218 52.9166 25.7609C52.4602 26.5514 52.164 27.4241 52.0449 28.3291C51.9257 29.2341 51.986 30.1537 52.2222 31.0354ZM54.5157 30.4204C54.6557 30.9431 54.8973 31.433 55.2267 31.8622C55.5561 32.2915 55.9668 32.6517 56.4353 32.9222C56.6745 33.0603 56.9803 32.9783 57.1184 32.7392C57.2564 32.5 57.1745 32.1942 56.9353 32.0562C56.5805 31.8513 56.2695 31.5785 56.0201 31.2535C55.7706 30.9284 55.5877 30.5574 55.4816 30.1616C55.3756 29.7658 55.3485 29.3531 55.402 28.9468C55.4555 28.5406 55.5884 28.1489 55.7933 27.794C55.9314 27.5549 55.8494 27.2491 55.6103 27.111C55.3711 26.9729 55.0654 27.0549 54.9273 27.294C54.6568 27.7626 54.4812 28.2799 54.4105 28.8163C54.3399 29.3527 54.3756 29.8978 54.5157 30.4204Z" fill="#00C895"/>
</svg>
