<?xml version="1.0" encoding="utf-8"?>
<!--
  Copyright 2023-2025 Solace Systems. All rights reserved.

  Licensed under the Apache License, Version 2.0 (the "License");
  you may not use this file except in compliance with the License.
  You may obtain a copy of the License at

      http://www.apache.org/licenses/LICENSE-2.0

  Unless required by applicable law or agreed to in writing, software
  distributed under the License is distributed on an "AS IS" BASIS,
  WITHOUT WARRANTIES OR CONDITIONS OF ANY KIND, either express or implied.
  See the License for the specific language governing permissions and
  limitations under the License.
-->
<svg width="89" height="49" viewBox="0 0 89 49" fill="none" xmlns="http://www.w3.org/2000/svg">
<path d="M27.843 20.0837L23.8561 34.963C23.8542 34.9702 23.8453 34.9728 23.8397 34.9678C22.0234 33.352 21.256 31.5207 20.7209 29.255C20.5782 28.6506 20.6025 28.0201 20.7633 27.4202L21.3931 25.0695C21.5539 24.4697 21.8481 23.9114 22.2739 23.4594C23.8701 21.7648 25.4503 20.5625 27.8312 20.0714C27.8385 20.0699 27.8449 20.0766 27.843 20.0837Z" fill="white"/>
<path d="M6.53306 25.2241L17.6034 28.1904C18.1369 28.3333 18.6852 28.0168 18.8282 27.4833L19.7488 24.0474C19.8918 23.5139 19.5752 22.9656 19.0417 22.8226L7.9715 19.8564C7.64207 19.7681 7.30345 19.9636 7.21518 20.293L6.09651 24.468C6.00826 24.7973 6.20371 25.1359 6.53306 25.2241Z" fill="white"/>
<path fill-rule="evenodd" clip-rule="evenodd" d="M4.82004 21.6404C4.68668 21.6047 4.54959 21.6839 4.51386 21.8172C4.47812 21.9506 4.55727 22.0877 4.69063 22.1234L6.10542 22.5025L5.58306 24.452C5.44012 24.9855 5.7567 25.5338 6.29017 25.6767L17.9569 28.8028C18.4903 28.9458 19.0387 28.6292 19.1816 28.0957L20.3611 23.6939C20.504 23.1604 20.1874 22.6121 19.654 22.4691L7.98728 19.343C7.45381 19.2001 6.90547 19.5167 6.76253 20.0501L6.23483 22.0195L4.82004 21.6404ZM18.2157 27.8369L6.54898 24.7108L7.72846 20.309L19.3951 23.435L18.2157 27.8369Z" fill="#6A6A6A"/>
<path d="M6.06378 41.7181C5.97552 42.0475 6.17099 42.386 6.50039 42.4743L11.2717 43.7528C11.6011 43.841 11.9397 43.6456 12.028 43.3162L15.5438 30.1949C15.6321 29.8656 15.4366 29.527 15.1072 29.4387L10.3358 28.1602C10.0064 28.072 9.66786 28.2674 9.5796 28.5968L6.06378 41.7181Z" fill="white"/>
<path d="M12.2964 18.4576C12.2081 18.787 12.4036 19.1256 12.733 19.2139L17.5044 20.4923C17.8338 20.5806 18.1723 20.3851 18.2606 20.0557L21.7764 6.9345C21.8647 6.60511 21.6692 6.26653 21.3398 6.17827L16.5684 4.89979C16.2391 4.81153 15.9005 5.00701 15.8122 5.3364L12.2964 18.4576Z" fill="white"/>
<path fill-rule="evenodd" clip-rule="evenodd" d="M17.3216 20.9611C17.9178 21.1208 18.5305 20.767 18.6902 20.1709L22.2061 7.04967C22.3658 6.45354 22.012 5.8408 21.4159 5.68107L16.6445 4.40259C16.0484 4.24286 15.4357 4.59662 15.2759 5.19275L11.7601 18.314C11.6004 18.9101 11.9542 19.5229 12.5503 19.6826L17.3216 20.9611ZM17.7243 19.9121C17.7075 19.9747 17.6431 20.0119 17.5805 19.9951L15.4895 19.4349L16.5131 15.615L18.7175 16.2057L17.7243 19.9121ZM18.8469 15.7227L19.9959 11.4343L17.7916 10.8437L16.6425 15.132L18.8469 15.7227ZM20.1253 10.9513L21.2401 6.79085C21.2569 6.72819 21.2197 6.66378 21.1571 6.64699L19.0662 6.08675L17.921 10.3607L20.1253 10.9513ZM18.5833 5.95734L16.3857 5.36851C16.3231 5.35172 16.2587 5.38891 16.2419 5.45157L15.1271 9.61205L17.4381 10.2313L18.5833 5.95734ZM14.9977 10.095L13.8486 14.3834L16.1595 15.0026L17.3087 10.7142L14.9977 10.095ZM13.7192 14.8664L12.726 18.5728C12.7093 18.6355 12.7464 18.6999 12.8091 18.7167L15.0065 19.3055L16.0301 15.4856L13.7192 14.8664ZM12.4578 43.4314C12.2981 44.0275 11.6853 44.3813 11.0892 44.2216L6.31786 42.9431C5.72173 42.7833 5.36797 42.1706 5.5277 41.5745L9.04352 28.4532C9.20325 27.8571 9.816 27.5034 10.4121 27.6631L15.1835 28.9416C15.7796 29.1013 16.1334 29.714 15.9736 30.3102L12.4578 43.4314ZM11.348 43.2556C11.4107 43.2724 11.4751 43.2352 11.4919 43.1726L12.5116 39.3669L10.307 38.7761L9.25682 42.6953L11.348 43.2556ZM13.7901 34.5955L12.641 38.8839L10.4364 38.2932L11.5856 34.0048L13.7901 34.5955ZM15.0077 30.0513L13.9195 34.1125L11.715 33.5218L12.8336 29.3472L14.9247 29.9075C14.9873 29.9243 15.0245 29.9887 15.0077 30.0513ZM10.1533 28.629L12.3506 29.2178L11.232 33.3924L8.92126 32.7732L10.0094 28.7121C10.0262 28.6494 10.0906 28.6122 10.1533 28.629ZM7.64277 37.5446L8.79185 33.2562L11.1026 33.8754L9.95347 38.1638L7.64277 37.5446ZM6.49362 41.8333L7.51337 38.0276L9.82405 38.6467L8.77385 42.5659L6.57668 41.9772C6.51402 41.9604 6.47683 41.896 6.49362 41.8333Z" fill="#6A6A6A"/>
<path fill-rule="evenodd" clip-rule="evenodd" d="M23.5878 34.0285L27.1432 20.7594C25.3241 21.3054 24.0053 22.3493 22.6368 23.8022C22.2732 24.1881 22.0166 24.6707 21.875 25.1989L21.2452 27.5496C21.1036 28.0777 21.0846 28.624 21.2065 29.14C21.6653 31.0825 22.2854 32.646 23.5878 34.0285ZM24.338 35.0924C24.237 35.4694 23.7817 35.5863 23.5063 35.3414C21.5839 33.6312 20.781 31.6891 20.2333 29.3699C20.0697 28.6771 20.0993 27.9623 20.2792 27.2908L20.9091 24.94C21.089 24.2685 21.4208 23.6347 21.9089 23.1165C23.5429 21.3819 25.2092 20.1015 27.7291 19.5816C28.09 19.5072 28.4259 19.836 28.3249 20.2131L26.461 27.1692L28.0101 27.5843C28.3239 27.1733 28.8656 26.9699 29.3961 27.1121C30.0975 27.3 30.5138 28.021 30.3258 28.7225C30.1379 29.424 29.4169 29.8402 28.7154 29.6523C28.1849 29.5101 27.8175 29.0631 27.7513 28.5502L26.2022 28.1352L24.338 35.0924Z" fill="#6A6A6A"/>
<path d="M69.7338 25.4758L66.7037 14.1676C66.7018 14.1604 66.7083 14.1537 66.7155 14.1552C68.4466 14.5132 69.6209 15.3659 70.7821 16.5676C71.2136 17.0141 71.5057 17.5742 71.6664 18.174L72.0284 19.5249C72.1891 20.1247 72.2162 20.7558 72.0658 21.3583C71.661 22.9795 71.0703 24.3051 69.7502 25.4806C69.7446 25.4856 69.7357 25.483 69.7338 25.4758Z" fill="white"/>
<path d="M81.8148 13.9911L73.6271 16.185C73.0936 16.328 72.777 16.8763 72.92 17.4098L73.4961 19.5601C73.6391 20.0936 74.1874 20.4102 74.7209 20.2672L82.9085 18.0734C83.159 18.0063 83.3077 17.7487 83.2405 17.4982L82.3898 14.3231C82.3227 14.0727 82.0652 13.924 81.8148 13.9911Z" fill="white"/>
<path fill-rule="evenodd" clip-rule="evenodd" d="M67.4063 14.8582L69.9968 24.5262C70.8247 23.5854 71.2582 22.528 71.5805 21.237C71.7075 20.7282 71.6872 20.1841 71.5452 19.6541L71.1833 18.3033C71.0413 17.7733 70.7868 17.292 70.4224 16.9149C69.4977 15.958 68.5937 15.2589 67.4063 14.8582ZM66.2206 14.2968C66.1197 13.9202 66.4551 13.5907 66.8166 13.6655C68.6797 14.0508 69.9389 14.9754 71.1415 16.22C71.6401 16.736 71.9698 17.3748 72.1492 18.0445L72.5112 19.3953C72.6906 20.065 72.7245 20.7831 72.5507 21.4792C72.1315 23.1584 71.5033 24.5887 70.0825 25.8539C69.8068 26.0994 69.3516 25.9818 69.2507 25.6051L67.8846 20.5069L66.7676 20.8062C66.7669 20.8064 66.7663 20.8066 66.7656 20.8067C66.676 21.1403 66.4159 21.4182 66.0583 21.514C65.5248 21.657 64.9765 21.3404 64.8336 20.8069C64.6906 20.2734 65.0072 19.7251 65.5407 19.5822C65.8982 19.4864 66.2623 19.5969 66.5067 19.8408C66.5074 19.8407 66.5081 19.8405 66.5087 19.8403L67.6258 19.541L66.2206 14.2968Z" fill="#6A6A6A"/>
<path d="M77.3924 10.0757C77.617 10.2054 77.6939 10.4926 77.5643 10.7172L75.686 13.9705C75.5563 14.1951 75.2691 14.2721 75.0445 14.1424L66.0978 8.97703C65.8732 8.84736 65.7963 8.56017 65.9259 8.33558L67.8043 5.08224C67.9339 4.85764 68.2211 4.78069 68.4457 4.91036L77.3924 10.0757Z" fill="white"/>
<path fill-rule="evenodd" clip-rule="evenodd" d="M76.0667 12.3101L73.4632 10.807L72.664 12.1913L75.2675 13.6945L76.0667 12.3101ZM76.9327 12.8101L76.1183 14.2208C75.8505 14.6846 75.2576 14.8434 74.7938 14.5757L65.8471 9.41033C65.3834 9.14259 65.2245 8.54961 65.4922 8.08586L67.3705 4.83252C67.6383 4.36878 68.2313 4.20989 68.695 4.47763L77.6417 9.64301C78.1054 9.91075 78.2643 10.5037 77.9966 10.9675L77.1827 12.3771L80.5903 14.3444L80.3403 14.7775L76.9327 12.8101ZM76.3167 11.8771L73.7132 10.374L74.5119 8.99069L77.1154 10.4938L76.3167 11.8771ZM74.0788 8.74069L73.2802 10.124L70.4599 8.4957L71.2585 7.11237L74.0788 8.74069ZM70.8255 6.86237L70.0268 8.24571L67.4227 6.74223L68.2214 5.35887L70.8255 6.86237ZM67.1727 7.17524L69.7768 8.67872L68.9776 10.063L66.3735 8.55952L67.1727 7.17524ZM69.4106 10.313L70.2099 8.92871L73.0302 10.557L72.2309 11.9413L69.4106 10.313Z" fill="#6A6A6A"/>
<path d="M81.0545 23.7472C81.1842 23.5226 81.1073 23.2355 80.8827 23.1058L77.6293 21.2275C77.4047 21.0978 77.1175 21.1747 76.9879 21.3993L71.8225 30.346C71.6928 30.5706 71.7698 30.8578 71.9944 30.9875L75.2477 32.8658C75.4723 32.9955 75.7595 32.9185 75.8892 32.6939L81.0545 23.7472Z" fill="white"/>
<path fill-rule="evenodd" clip-rule="evenodd" d="M77.2864 25.0794L81.2569 18.2024L81.6899 18.4524L77.7195 25.3294L79.1296 26.1436L78.8796 26.5766L77.4695 25.7624L75.8411 28.5827L77.2512 29.3969L77.0012 29.8299L75.5911 29.0158L74.0725 31.646L73.6395 31.3959L75.1581 28.7658L73.7479 27.9516L73.9979 27.5186L75.4081 28.3327L77.0364 25.5124L75.6262 24.6983L75.8762 24.2652L77.2864 25.0794Z" fill="#6A6A6A"/>
<path fill-rule="evenodd" clip-rule="evenodd" d="M76.5552 21.1495C76.823 20.6858 77.416 20.5269 77.8797 20.7946L81.1331 22.6729C81.5968 22.9407 81.7557 23.5336 81.488 23.9974L76.3226 32.9441C76.0548 33.4078 75.4619 33.5667 74.9981 33.299L71.7448 31.4207C71.281 31.1529 71.1221 30.5599 71.3899 30.0962L76.5552 21.1495ZM77.4061 21.6758L72.2711 30.5698L75.4718 32.4177L80.6067 23.5237L77.4061 21.6758Z" fill="#6A6A6A"/>
<path fill-rule="evenodd" clip-rule="evenodd" d="M84.4973 15.4524C84.5331 15.5858 84.4539 15.7229 84.3205 15.7586L82.8779 16.1452C82.7445 16.1809 82.6075 16.1017 82.5717 15.9684C82.536 15.835 82.6151 15.6979 82.7485 15.6622L84.1911 15.2756C84.3245 15.2399 84.4616 15.3191 84.4973 15.4524Z" fill="#6A6A6A"/>
<path fill-rule="evenodd" clip-rule="evenodd" d="M72.3057 17.048C72.1628 16.5145 72.4793 15.9662 73.0128 15.8232L81.654 13.5078C82.1875 13.3649 82.7358 13.6814 82.8788 14.2149L83.7138 17.3312C83.8567 17.8647 83.5401 18.413 83.0067 18.5559L74.3654 20.8713C73.832 21.0143 73.2836 20.6977 73.1407 20.1642L72.3057 17.048ZM81.9128 14.4737L73.2716 16.7891L74.1066 19.9054L82.7478 17.59L81.9128 14.4737Z" fill="#6A6A6A"/>
<path d="M63.3662 32.3359C63.3662 38.9634 57.9936 44.3359 51.3662 44.3359C44.7388 44.3359 39.3662 38.9634 39.3662 32.3359C39.3662 25.7085 44.7388 20.3359 51.3662 20.3359C57.9936 20.3359 63.3662 25.7085 63.3662 32.3359Z" fill="white"/>
<path fill-rule="evenodd" clip-rule="evenodd" d="M54.6481 42.838C53.6116 43.1616 52.5093 43.3359 51.3662 43.3359C49.0386 43.3359 46.8799 42.613 45.1023 41.3795L49.4353 38.8704C51.1828 40.9007 53.038 42.3091 54.6481 42.838ZM49.5472 38.2279C48.7029 37.2089 47.8855 36.0383 47.1395 34.7461C46.4011 33.4671 45.8008 32.1872 45.3421 30.9581L53.0685 26.4842C53.9062 27.498 54.717 28.6609 55.4576 29.9436C56.2015 31.2321 56.8052 32.5214 57.2651 33.7588L49.5472 38.2279ZM49.8758 38.6154L57.4367 34.2373C57.8853 35.5357 58.1712 36.7678 58.2901 37.8704C58.4129 39.0091 58.355 39.9854 58.1331 40.7461C58.0965 40.8718 58.0556 40.9908 58.0107 41.1031C57.2459 41.6837 56.4027 42.1665 55.4999 42.5328C55.3888 42.5159 55.2745 42.4931 55.157 42.4644C54.3873 42.2762 53.5127 41.8382 52.588 41.1625C51.6951 40.51 50.7736 39.6493 49.8758 38.6154ZM57.8773 33.9821C58.7722 36.5357 59.0633 38.868 58.7026 40.5322C60.9513 38.5181 62.3662 35.5923 62.3662 32.3359C62.3662 32.0225 62.3531 31.7121 62.3274 31.4053L57.8773 33.9821ZM62.2683 30.8617C61.8728 27.9091 60.306 25.3274 58.0507 23.5992L53.507 26.2302C54.3456 27.2526 55.1535 28.4169 55.8907 29.6936C56.6308 30.9756 57.237 32.2626 57.7039 33.5047L62.2683 30.8617ZM49.1085 38.4819L44.6614 41.057C42.4105 39.324 40.8494 36.739 40.4608 33.7847L44.9034 31.2121C45.3689 32.4459 45.9717 33.7235 46.7065 34.9961C47.449 36.2822 48.2633 37.4541 49.1085 38.4819ZM44.7295 30.7351L40.4029 33.2404C40.3786 32.9421 40.3662 32.6405 40.3662 32.3359C40.3662 29.1584 41.7135 26.2956 43.8679 24.2875C43.548 25.9482 43.8502 28.2367 44.7295 30.7351ZM51.3662 21.3359C53.6844 21.3359 55.835 22.053 57.6085 23.2775L53.1808 25.8414C51.4416 23.8155 49.5946 22.4051 47.9876 21.8645C49.0521 21.5213 50.1875 21.3359 51.3662 21.3359ZM44.307 26.8194C44.4268 27.9298 44.7159 29.1715 45.17 30.48L52.7404 26.0963C51.8366 25.0527 50.9084 24.1844 50.0091 23.5273C49.0844 22.8516 48.2099 22.4136 47.4402 22.2254C47.3457 22.2023 47.2533 22.183 47.1629 22.1676C46.2144 22.5601 45.3328 23.0815 44.5398 23.7098C44.5128 23.785 44.4876 23.863 44.464 23.9437C44.2422 24.7044 44.1842 25.6807 44.307 26.8194ZM45.6045 21.8071C47.3146 20.8693 49.2781 20.3359 51.3662 20.3359C57.9936 20.3359 63.3662 25.7085 63.3662 32.3359C63.3662 38.9634 57.9936 44.3359 51.3662 44.3359C44.7388 44.3359 39.3662 38.9634 39.3662 32.3359C39.3662 28.0511 41.612 24.2908 44.9907 22.1678C45.088 22.0891 45.1911 22.0181 45.3001 21.9552C45.3983 21.8985 45.4998 21.8492 45.6045 21.8071Z" fill="#6A6A6A"/>
<path d="M55.2734 26.0164C55.2734 27.3971 54.1541 28.5164 52.7734 28.5164C51.3927 28.5164 50.2734 27.3971 50.2734 26.0164C50.2734 24.6356 51.3927 23.5164 52.7734 23.5164C54.1541 23.5164 55.2734 24.6356 55.2734 26.0164Z" fill="#00C895"/>
<path fill-rule="evenodd" clip-rule="evenodd" d="M31.1121 28.7372C31.3852 28.7778 31.6396 28.5893 31.6802 28.3161C31.7265 28.0047 31.7793 27.7 31.8382 27.402C31.8918 27.1311 31.7157 26.868 31.4448 26.8144C31.1739 26.7608 30.9108 26.937 30.8572 27.2079C30.7951 27.5218 30.7396 27.8422 30.691 28.1691C30.6504 28.4422 30.8389 28.6966 31.1121 28.7372ZM31.6601 25.9533C31.924 26.0347 32.2039 25.8868 32.2853 25.6229C32.4717 25.0186 32.6859 24.4468 32.9245 23.9067C33.0361 23.6541 32.9218 23.3588 32.6692 23.2472C32.4166 23.1356 32.1214 23.2499 32.0098 23.5025C31.7551 24.0791 31.5274 24.6875 31.3297 25.3281C31.2483 25.592 31.3963 25.8719 31.6601 25.9533ZM33.0795 22.4564C33.3156 22.5996 33.6231 22.5244 33.7663 22.2883C34.09 21.7547 34.4406 21.2604 34.8135 20.8044C34.9884 20.5906 34.9568 20.2756 34.7431 20.1008C34.5293 19.926 34.2143 19.9575 34.0395 20.1713C33.6367 20.6637 33.2591 21.1964 32.9113 21.7696C32.7681 22.0057 32.8434 22.3132 33.0795 22.4564ZM52.303 22.4983C52.5672 22.4176 52.7159 22.1382 52.6353 21.8741C52.5362 21.5494 52.4212 21.2361 52.2914 20.9344C52.1822 20.6807 51.8881 20.5636 51.6344 20.6728C51.3808 20.7819 51.2637 21.0761 51.3728 21.3297C51.488 21.5973 51.5904 21.8761 51.6789 22.166C51.7595 22.4301 52.0389 22.5789 52.303 22.4983ZM51.1896 19.8979C51.4111 19.733 51.457 19.4197 51.292 19.1982C50.8872 18.6545 50.4243 18.1694 49.9147 17.7444C49.7027 17.5675 49.3874 17.596 49.2105 17.8081C49.0336 18.0202 49.0622 18.3355 49.2742 18.5123C49.7249 18.8882 50.1332 19.3163 50.49 19.7954C50.6549 20.0169 50.9681 20.0628 51.1896 19.8979ZM35.3552 19.4553C35.5406 19.6599 35.8568 19.6755 36.0614 19.4901C36.5187 19.0758 36.9978 18.7067 37.4928 18.3819C37.7237 18.2304 37.788 17.9204 37.6365 17.6895C37.485 17.4586 37.175 17.3943 36.9441 17.5458C36.4061 17.8989 35.8859 18.2998 35.39 18.749C35.1854 18.9344 35.1698 19.2506 35.3552 19.4553ZM48.4644 17.3185C48.5901 17.0727 48.4926 16.7715 48.2468 16.6458C47.6593 16.3455 47.0376 16.1061 46.3928 15.9285C46.1265 15.8552 45.8513 16.0115 45.7779 16.2778C45.7046 16.544 45.861 16.8192 46.1272 16.8926C46.709 17.0528 47.2669 17.268 47.7917 17.5362C48.0375 17.6619 48.3387 17.5644 48.4644 17.3185ZM38.418 17.2608C38.531 17.5128 38.8268 17.6255 39.0788 17.5125C39.6377 17.2618 40.208 17.0609 40.7824 16.9087C41.0493 16.838 41.2083 16.5642 41.1376 16.2973C41.0668 16.0304 40.7931 15.8713 40.5262 15.9421C39.8997 16.1081 39.2782 16.3271 38.6697 16.6C38.4177 16.713 38.305 17.0088 38.418 17.2608ZM42.0156 16.1405C42.041 16.4155 42.2846 16.6178 42.5595 16.5924C43.1668 16.5362 43.7699 16.5331 44.3604 16.5817C44.6356 16.6044 44.8771 16.3996 44.8997 16.1244C44.9224 15.8492 44.7177 15.6077 44.4425 15.5851C43.7931 15.5316 43.1317 15.5351 42.4674 15.5966C42.1924 15.622 41.9902 15.8656 42.0156 16.1405Z" fill="#00C895"/>
</svg>