<svg width="89" height="49" viewBox="0 0 89 49" fill="none" xmlns="http://www.w3.org/2000/svg">
<path d="M39.2031 31.8665C39.2031 39.0462 33.3828 44.8665 26.2031 44.8665C19.0234 44.8665 13.2031 39.0462 13.2031 31.8665C13.2031 24.6868 19.0234 18.8665 26.2031 18.8665C33.3828 18.8665 39.2031 24.6868 39.2031 31.8665Z" fill="white"/>
<path fill-rule="evenodd" clip-rule="evenodd" d="M29.8963 43.2874C28.7329 43.6634 27.4917 43.8665 26.2031 43.8665C23.6419 43.8665 21.268 43.064 19.3193 41.6969L24.0975 38.93C26.0447 41.1962 28.1164 42.75 29.8963 43.2874ZM24.2093 38.2875C23.2897 37.1788 22.3996 35.9048 21.5876 34.4984C20.7841 33.1067 20.1312 31.7137 19.6328 30.3759L28.0703 25.4902C28.9825 26.5929 29.8652 27.8583 30.6711 29.2541C31.4807 30.6564 32.1375 32.0601 32.6373 33.4073L24.2093 38.2875ZM24.5378 38.675L32.809 33.8856C33.3013 35.3048 33.6149 36.6522 33.745 37.8577C33.8784 39.0947 33.8158 40.1583 33.5734 40.9892C33.5238 41.1595 33.467 41.3188 33.4034 41.4671C32.5977 42.0723 31.7134 42.5785 30.7685 42.9675C30.6175 42.9483 30.4611 42.919 30.2994 42.8795C29.4586 42.6739 28.5063 42.1963 27.5017 41.4623C26.5254 40.7489 25.5182 39.8068 24.5378 38.675ZM33.2495 33.6305C34.2498 36.477 34.5583 39.0711 34.1182 40.8861C36.6224 38.6869 38.2031 35.4612 38.2031 31.8665C38.2031 31.5036 38.187 31.1444 38.1555 30.7897L33.2495 33.6305ZM38.0948 30.2471C37.6615 27.035 35.9574 24.2261 33.5052 22.3431L28.5089 25.2362C29.422 26.3476 30.3017 27.6143 31.1041 29.0041C31.91 30.3999 32.5693 31.8012 33.0762 33.1531L38.0948 30.2471ZM23.7706 38.5415L18.8799 41.3735C16.4323 39.4854 14.7341 36.6731 14.3079 33.4593L19.1941 30.6299C19.6994 31.9724 20.3548 33.3631 21.1546 34.7484C21.9631 36.1487 22.8501 37.424 23.7706 38.5415ZM19.0201 30.1529L14.2484 32.916C14.2184 32.5701 14.2031 32.2201 14.2031 31.8665C14.2031 28.3586 15.7083 25.2023 18.108 23.0081C17.7153 24.8219 18.0371 27.3676 19.0201 30.1529ZM22.4079 20.479C24.1841 21.0309 26.2457 22.5869 28.1826 24.8473L33.0646 22.0204C31.1201 20.6628 28.7546 19.8665 26.2031 19.8665C24.8768 19.8665 23.6007 20.0816 22.4079 20.479ZM19.4605 29.8979L27.7424 25.1023C26.7552 23.9594 25.7405 23.0088 24.757 22.2902C23.7525 21.5562 22.8001 21.0786 21.9593 20.873C21.8244 20.84 21.6932 20.8142 21.5657 20.7953C20.5682 21.2137 19.6391 21.7629 18.8 22.4215C18.7584 22.53 18.7201 22.6439 18.6853 22.7632C18.4429 23.5942 18.3804 24.6577 18.5138 25.8947C18.6447 27.1091 18.962 28.4673 19.4605 29.8979ZM19.962 20.4598C21.8145 19.4441 23.9414 18.8665 26.2031 18.8665C33.3828 18.8665 39.2031 24.6868 39.2031 31.8665C39.2031 39.0462 33.3828 44.8665 26.2031 44.8665C19.0234 44.8665 13.2031 39.0462 13.2031 31.8665C13.2031 27.2253 15.6353 23.1522 19.2945 20.8521C19.4003 20.7664 19.5125 20.6892 19.631 20.6207C19.7378 20.5591 19.8482 20.5055 19.962 20.4598Z" fill="#6A6A6A"/>
<circle cx="27.8916" cy="25.2795" r="3" fill="#00C895"/>
<path d="M51.9803 20.6311L55.9672 35.5104C55.9691 35.5176 55.978 35.5201 55.9835 35.5152C57.7999 33.8994 58.5672 32.068 59.1023 29.8023C59.245 29.198 59.2207 28.5674 59.06 27.9676L58.4301 25.6169C58.2694 25.017 57.9752 24.4588 57.5494 24.0068C55.9531 22.3122 54.3729 21.1099 51.9921 20.6188C51.9848 20.6173 51.9783 20.6239 51.9803 20.6311Z" fill="white"/>
<path d="M73.2902 25.7715L62.2198 28.7378C61.6864 28.8807 61.138 28.5641 60.9951 28.0307L60.0744 24.5947C59.9315 24.0613 60.2481 23.5129 60.7815 23.37L71.8517 20.4037C72.1812 20.3155 72.5198 20.511 72.6081 20.8404L73.7267 25.0153C73.815 25.3447 73.6195 25.6832 73.2902 25.7715Z" fill="white"/>
<path fill-rule="evenodd" clip-rule="evenodd" d="M75.0032 22.1878C75.1366 22.1521 75.2737 22.2312 75.3094 22.3646C75.3451 22.498 75.266 22.635 75.1326 22.6708L73.7178 23.0499L74.2402 24.9994C74.3831 25.5328 74.0665 26.0812 73.5331 26.2241L61.8664 29.3502C61.3329 29.4931 60.7846 29.1765 60.6416 28.6431L59.4622 24.2412C59.3192 23.7078 59.6358 23.1594 60.1693 23.0165L71.836 19.8904C72.3694 19.7475 72.9178 20.064 73.0607 20.5975L73.5884 22.5669L75.0032 22.1878ZM61.6076 28.3843L73.2743 25.2582L72.0948 20.8563L60.4281 23.9824L61.6076 28.3843Z" fill="#6A6A6A"/>
<path d="M73.7595 42.2654C73.8477 42.5948 73.6522 42.9334 73.3229 43.0217L68.5515 44.3002C68.2221 44.3884 67.8835 44.1929 67.7953 43.8635L64.2794 30.7423C64.1912 30.4129 64.3867 30.0743 64.7161 29.9861L69.4874 28.7076C69.8168 28.6193 70.1554 28.8148 70.2436 29.1442L73.7595 42.2654Z" fill="white"/>
<path d="M67.5268 19.005C67.6151 19.3344 67.4196 19.673 67.0902 19.7612L62.3189 21.0397C61.9895 21.128 61.6509 20.9325 61.5627 20.6031L58.0468 7.48187C57.9586 7.15247 58.154 6.8139 58.4834 6.72564L63.2548 5.44715C63.5842 5.35889 63.9228 5.55437 64.011 5.88377L67.5268 19.005Z" fill="white"/>
<path fill-rule="evenodd" clip-rule="evenodd" d="M62.5016 21.5084C61.9055 21.6682 61.2927 21.3144 61.133 20.7183L57.6172 7.59703C57.4574 7.0009 57.8112 6.38816 58.4073 6.22843L63.1787 4.94995C63.7748 4.79022 64.3876 5.14398 64.5473 5.74011L68.0631 18.8613C68.2229 19.4575 67.8691 20.0702 67.273 20.2299L62.5016 21.5084ZM62.0989 20.4594C62.1157 20.5221 62.1801 20.5593 62.2428 20.5425L64.3338 19.9822L63.3102 16.1624L61.1058 16.753L62.0989 20.4594ZM60.9764 16.2701L59.8273 11.9817L62.0316 11.391L63.1808 15.6794L60.9764 16.2701ZM59.6979 11.4987L58.5831 7.33821C58.5663 7.27555 58.6035 7.21115 58.6662 7.19436L60.757 6.63411L61.9022 10.9081L59.6979 11.4987ZM61.24 6.5047L63.4375 5.91588C63.5002 5.89909 63.5646 5.93627 63.5814 5.99893L64.6962 10.1594L62.3852 10.7786L61.24 6.5047ZM64.8256 10.6424L65.9747 14.9308L63.6637 15.55L62.5146 11.2616L64.8256 10.6424ZM66.1041 15.4137L67.0972 19.1202C67.114 19.1828 67.0768 19.2472 67.0141 19.264L64.8167 19.8528L63.7931 16.0329L66.1041 15.4137ZM67.3654 43.9788C67.5252 44.5749 68.1379 44.9287 68.734 44.7689L73.5054 43.4904C74.1015 43.3307 74.4553 42.718 74.2955 42.1218L70.7797 29.0006C70.62 28.4045 70.0072 28.0507 69.4111 28.2104L64.6398 29.4889C64.0436 29.6487 63.6899 30.2614 63.8496 30.8575L67.3654 43.9788ZM68.4752 43.803C68.4125 43.8198 68.3481 43.7826 68.3313 43.7199L67.3116 39.9142L69.5162 39.3235L70.5664 43.2427L68.4752 43.803ZM66.0331 35.1429L67.1822 39.4313L69.3868 38.8405L68.2377 34.5521L66.0331 35.1429ZM64.8155 30.5987L65.9037 34.6599L68.1083 34.0692L66.9897 29.8945L64.8986 30.4549C64.8359 30.4716 64.7987 30.536 64.8155 30.5987ZM69.6699 29.1764L67.4726 29.7651L68.5912 33.9398L70.902 33.3206L69.8138 29.2594C69.797 29.1968 69.7326 29.1596 69.6699 29.1764ZM72.1805 38.092L71.0314 33.8036L68.7206 34.4227L69.8698 38.7111L72.1805 38.092ZM73.3296 42.3807L72.3099 38.5749L69.9992 39.1941L71.0494 43.1132L73.2466 42.5245C73.3092 42.5077 73.3464 42.4433 73.3296 42.3807Z" fill="#6A6A6A"/>
<path fill-rule="evenodd" clip-rule="evenodd" d="M56.2354 34.5758L52.68 21.3067C54.4991 21.8528 55.8179 22.8967 57.1865 24.3496C57.55 24.7355 57.8067 25.2181 57.9482 25.7462L58.5781 28.097C58.7196 28.6251 58.7386 29.1714 58.6167 29.6874C58.158 31.6299 57.5378 33.1933 56.2354 34.5758ZM55.4852 35.6398C55.5863 36.0168 56.0415 36.1337 56.3169 35.8887C58.2393 34.1785 59.0422 32.2365 59.59 29.9172C59.7536 29.2245 59.7239 28.5096 59.544 27.8381L58.9141 25.4874C58.7342 24.8159 58.4024 24.182 57.9144 23.6639C56.2804 21.9292 54.614 20.6488 52.0941 20.129C51.7332 20.0546 51.3973 20.3834 51.4983 20.7605L53.3622 27.7166L51.8131 28.1317C51.4993 27.7207 50.9577 27.5173 50.4272 27.6594C49.7257 27.8474 49.3094 28.5684 49.4974 29.2699C49.6854 29.9713 50.4064 30.3876 51.1078 30.1996C51.6383 30.0575 52.0057 29.6105 52.072 29.0976L53.6211 28.6825L55.4852 35.6398Z" fill="#6A6A6A"/>
<path fill-rule="evenodd" clip-rule="evenodd" d="M43.0386 31.1069C43.2749 31.9886 43.6825 32.8151 44.2382 33.5393C44.7938 34.2634 45.4867 34.8711 46.2772 35.3275C46.5164 35.4655 46.8222 35.3836 46.9602 35.1445C47.0983 34.9053 47.0164 34.5995 46.7772 34.4615C46.1004 34.0707 45.5072 33.5505 45.0315 32.9305C44.5558 32.3105 44.2068 31.6029 44.0046 30.8481C43.8023 30.0932 43.7507 29.3059 43.8527 28.5311C43.9547 27.7564 44.2083 27.0092 44.5991 26.3325C44.7371 26.0933 44.6552 25.7875 44.416 25.6495C44.1769 25.5114 43.8711 25.5933 43.733 25.8325C43.2766 26.623 42.9804 27.4956 42.8613 28.4006C42.7421 29.3056 42.8024 30.2252 43.0386 31.1069ZM45.3321 30.492C45.4721 31.0146 45.7137 31.5045 46.0431 31.9338C46.3725 32.363 46.7832 32.7232 47.2518 32.9937C47.4909 33.1318 47.7967 33.0499 47.9348 32.8107C48.0728 32.5716 47.9909 32.2658 47.7518 32.1277C47.3969 31.9228 47.0859 31.6501 46.8365 31.325C46.587 30.9999 46.4041 30.6289 46.298 30.2332C46.192 29.8374 46.1649 29.4246 46.2184 29.0184C46.2719 28.6121 46.4048 28.2204 46.6097 27.8656C46.7478 27.6264 46.6658 27.3206 46.4267 27.1826C46.1876 27.0445 45.8818 27.1264 45.7437 27.3656C45.4732 27.8341 45.2976 28.3514 45.2269 28.8878C45.1563 29.4243 45.1921 29.9693 45.3321 30.492Z" fill="#00C895"/>
</svg>
