<svg width="48" height="48" viewBox="0 0 48 48" fill="none" xmlns="http://www.w3.org/2000/svg">
<path d="M23.0784 33.5H25.5591C26.0277 33.5 26.4331 33.8263 26.5333 34.2841L26.7512 35.2798C26.8874 35.9018 26.4137 36.4904 25.777 36.4904H22.8604C22.2237 36.4904 21.7501 35.9018 21.8862 35.2798L22.1041 34.2841C22.2043 33.8263 22.6098 33.5 23.0784 33.5Z" fill="white" stroke="#6A6A6A" stroke-linecap="round" stroke-linejoin="round"/>
<path d="M19.4973 36.5688H28.9479C29.4987 36.5688 29.9452 37.0154 29.9452 37.5661V37.6411C29.9452 38.1919 29.4987 38.6384 28.9479 38.6384H19.4973C18.9465 38.6384 18.5 38.1919 18.5 37.6411V37.5661C18.5 37.0154 18.9465 36.5688 19.4973 36.5688Z" fill="white" stroke="#6A6A6A" stroke-linecap="round" stroke-linejoin="round"/>
<line x1="8" y1="28.5" x2="39" y2="28.5" stroke="black"/>
<rect x="5.5" y="8.5" width="37" height="25" rx="0.997299" fill="white" stroke="#6A6A6A"/>
<path fill-rule="evenodd" clip-rule="evenodd" d="M5 11.25C5 11.1119 5.12166 11 5.27174 11H42.2283C42.3783 11 42.5 11.1119 42.5 11.25C42.5 11.3881 42.3783 11.5 42.2283 11.5H5.27174C5.12166 11.5 5 11.3881 5 11.25Z" fill="#6A6A6A"/>
<rect x="13" y="14" width="5" height="15" rx="1" fill="#00C895"/>
<rect x="21.5" y="20.5" width="4" height="8" rx="0.5" fill="white" stroke="#6A6A6A"/>
<rect x="29.5" y="23.5" width="4" height="5" rx="0.5" fill="white" stroke="#6A6A6A"/>
<path fill-rule="evenodd" clip-rule="evenodd" d="M10 28.5C10 28.2239 10.2175 28 10.4857 28H37.5143C37.7825 28 38 28.2239 38 28.5C38 28.7761 37.7825 29 37.5143 29H10.4857C10.2175 29 10 28.7761 10 28.5Z" fill="#6A6A6A"/>
<path fill-rule="evenodd" clip-rule="evenodd" d="M5 31.25C5 31.1119 5.11653 31 5.26027 31L42.7397 31C42.8835 31 43 31.1119 43 31.25C43 31.3881 42.8835 31.5 42.7397 31.5L5.26027 31.5C5.11653 31.5 5 31.3881 5 31.25Z" fill="#6A6A6A"/>
</svg>
