<?xml version="1.0" encoding="utf-8"?>
<!--
  Copyright 2023-2025 Solace Systems. All rights reserved.

  Licensed under the Apache License, Version 2.0 (the "License");
  you may not use this file except in compliance with the License.
  You may obtain a copy of the License at

      http://www.apache.org/licenses/LICENSE-2.0

  Unless required by applicable law or agreed to in writing, software
  distributed under the License is distributed on an "AS IS" BASIS,
  WITHOUT WARRANTIES OR CONDITIONS OF ANY KIND, either express or implied.
  See the License for the specific language governing permissions and
  limitations under the License.
-->
<svg width="48" height="48" viewBox="0 0 48 48" fill="none" xmlns="http://www.w3.org/2000/svg">
<path d="M21.6536 34.1613C21.8101 33.4816 22.4153 33 23.1128 33H25.8872C26.5847 33 27.1898 33.4816 27.3463 34.1613L27.5779 35.1667C27.7939 36.1048 27.0813 37 26.1187 37H22.8812C21.9186 37 21.2061 36.1048 21.4221 35.1667L21.6536 34.1613Z" fill="white"/>
<path d="M18 37.5C18 36.6731 18.6704 36 19.4973 36H29.5027C30.3296 36 31 36.6731 31 37.5V37.5C31 38.3269 30.3296 39 29.5027 39H19.4973C18.6704 39 18 38.3269 18 37.5V37.5Z" fill="white"/>
<path fill-rule="evenodd" clip-rule="evenodd" d="M23.1128 34H25.8872C26.1189 34 26.3199 34.16 26.3718 34.3857L26.6034 35.3911C26.6751 35.7027 26.4384 36 26.1187 36H22.8812C22.5615 36 22.3249 35.7027 22.3966 35.3911L22.6281 34.3857C22.6801 34.16 22.8811 34 23.1128 34ZM21.4682 36C21.3774 35.7432 21.3553 35.457 21.4221 35.1667L21.6536 34.1613C21.8101 33.4816 22.4153 33 23.1128 33H25.8872C26.5847 33 27.1898 33.4816 27.3463 34.1613L27.5779 35.1667C27.6447 35.457 27.6226 35.7432 27.5317 36H29.5027C30.3296 36 31 36.6731 31 37.5C31 38.3269 30.3296 39 29.5027 39H19.4973C18.6704 39 18 38.3269 18 37.5C18 36.6731 18.6704 36 19.4973 36H21.4682ZM26.1187 37H22.8812H19.4973C19.225 37 19 37.223 19 37.5C19 37.777 19.225 38 19.4973 38H29.5027C29.775 38 30 37.777 30 37.5C30 37.223 29.775 37 29.5027 37H26.1187Z" fill="#6A6A6A"/>
<line x1="8" y1="28.5" x2="39" y2="28.5" stroke="black"/>
<path d="M5 9.4973C5 8.67036 5.67036 8 6.4973 8H41.5027C42.3296 8 43 8.67036 43 9.4973V32.5027C43 33.3296 42.3296 34 41.5027 34H6.4973C5.67036 34 5 33.3296 5 32.5027V9.4973Z" fill="white"/>
<rect x="13" y="14" width="5" height="15" rx="1" fill="#00C895"/>
<path d="M21 21C21 20.4477 21.4477 20 22 20H25C25.5523 20 26 20.4477 26 21V28C26 28.5523 25.5523 29 25 29H22C21.4477 29 21 28.5523 21 28V21Z" fill="white"/>
<path d="M29 24C29 23.4477 29.4477 23 30 23H33C33.5523 23 34 23.4477 34 24V28C34 28.5523 33.5523 29 33 29H30C29.4477 29 29 28.5523 29 28V24Z" fill="white"/>
<path fill-rule="evenodd" clip-rule="evenodd" d="M25 21H22V28H25V21ZM26 28V21C26 20.4477 25.5523 20 25 20H22C21.4477 20 21 20.4477 21 21V28H10.4857C10.2175 28 10 28.2239 10 28.5C10 28.7761 10.2175 29 10.4857 29H22H25H30H33H37.5143C37.7825 29 38 28.7761 38 28.5C38 28.2239 37.7825 28 37.5143 28H34V24C34 23.4477 33.5523 23 33 23H30C29.4477 23 29 23.4477 29 24V28H26ZM30 28H33V24H30V28Z" fill="#6A6A6A"/>
<path fill-rule="evenodd" clip-rule="evenodd" d="M41.5027 9H6.4973C6.22265 9 6 9.22265 6 9.4973V11H42V9.4973C42 9.22265 41.7774 9 41.5027 9ZM5 31.25V11.25V9.4973C5 8.67036 5.67036 8 6.4973 8H41.5027C42.3296 8 43 8.67036 43 9.4973V31.25V32.5027C43 33.3296 42.3296 34 41.5027 34H6.4973C5.67036 34 5 33.3296 5 32.5027V31.25ZM6 31.5V32.5027C6 32.7774 6.22265 33 6.4973 33H41.5027C41.7774 33 42 32.7774 42 32.5027V31.5L6 31.5ZM42 31L6 31V11.5H42V31Z" fill="#6A6A6A"/>
</svg>