<svg width="131" height="130" viewBox="0 0 131 130" fill="none" xmlns="http://www.w3.org/2000/svg">
<path opacity="0.1" d="M109.745 65C109.745 90.9574 88.7019 112 62.7445 112C36.7871 112 15.7445 90.9574 15.7445 65C15.7445 39.0426 36.7871 18 62.7445 18C88.7019 18 109.745 39.0426 109.745 65Z" fill="#009193"/>
<ellipse cx="62.7451" cy="65.0007" rx="31.6666" ry="31.6667" fill="white"/>
<ellipse cx="62.7451" cy="65.0007" rx="31.6666" ry="31.6667" stroke="#6A6A6A" stroke-width="2"/>
<ellipse cx="62.7442" cy="65" rx="15" ry="31.6667" transform="rotate(-23.5 62.7442 65)" stroke="#6A6A6A"/>
<path d="M30.5806 66.2612L85.6041 42.3363" stroke="#6A6A6A" stroke-linecap="round" stroke-linejoin="round"/>
<path d="M39.8864 87.6602L94.9099 63.7352" stroke="#6A6A6A" stroke-linecap="round" stroke-linejoin="round"/>
<ellipse cx="62.744" cy="65.002" rx="45" ry="45" stroke="#6A6A6A" stroke-linecap="square" stroke-dasharray="3 5"/>
<ellipse cx="24.7444" cy="37.9984" rx="8.33334" ry="8.33334" fill="white"/>
<ellipse cx="24.7444" cy="37.9984" rx="8.33334" ry="8.33334" stroke="#6A6A6A" stroke-width="2"/>
<rect x="19.4105" y="84.667" width="13.3333" height="11.6667" rx="1" fill="white" stroke="#6A6A6A" stroke-width="2"/>
<path fill-rule="evenodd" clip-rule="evenodd" d="M102.744 83.4807C101.08 83.4807 99.5782 82.7835 98.5154 81.6653C96.7961 82.2398 95.2329 83.1551 93.9058 84.3309C94.3415 85.8095 94.194 87.457 93.3624 88.8973C92.5303 90.3385 91.1762 91.2903 89.6768 91.6518C89.5025 92.512 89.411 93.4023 89.411 94.314C89.411 95.2257 89.5025 96.116 89.6768 96.9762C91.1762 97.3377 92.5304 98.2895 93.3624 99.7307C94.194 101.171 94.3415 102.819 93.9058 104.297C95.2329 105.473 96.7961 106.388 98.5154 106.963C99.5782 105.844 101.08 105.147 102.744 105.147C104.409 105.147 105.911 105.844 106.973 106.963C108.693 106.388 110.256 105.473 111.583 104.297C111.147 102.819 111.295 101.171 112.126 99.7307C112.958 98.2895 114.312 97.3377 115.812 96.9762C115.986 96.116 116.078 95.2257 116.078 94.314C116.078 93.4023 115.986 92.512 115.812 91.6517C114.312 91.2903 112.958 90.3385 112.126 88.8973C111.295 87.457 111.147 85.8095 111.583 84.3309C110.256 83.1551 108.693 82.2398 106.973 81.6653C105.911 82.7835 104.409 83.4807 102.744 83.4807ZM102.744 99.314C105.506 99.314 107.744 97.0754 107.744 94.314C107.744 91.5526 105.506 89.314 102.744 89.314C99.9829 89.314 97.7443 91.5526 97.7443 94.314C97.7443 97.0754 99.9829 99.314 102.744 99.314Z" fill="white"/>
<path fill-rule="evenodd" clip-rule="evenodd" d="M98.8019 80.5151L99.2402 80.9763C100.122 81.9042 101.365 82.4807 102.744 82.4807C104.124 82.4807 105.367 81.9042 106.248 80.9764L106.687 80.5151L107.29 80.7168C109.14 81.3348 110.82 82.319 112.246 83.5824L112.722 84.0039L112.542 84.6136C112.181 85.8404 112.303 87.2038 112.992 88.3973C113.682 89.5915 114.802 90.3797 116.046 90.6796L116.665 90.8289L116.792 91.4531C116.979 92.3784 117.078 93.3352 117.078 94.314C117.078 95.2927 116.979 96.2496 116.792 97.1748L116.665 97.7991L116.046 97.9484C114.802 98.2483 113.682 99.0365 112.992 100.231C112.303 101.424 112.181 102.788 112.542 104.014L112.722 104.624L112.246 105.046C110.82 106.309 109.14 107.293 107.29 107.911L106.687 108.113L106.248 107.652C105.367 106.724 104.124 106.147 102.744 106.147C101.365 106.147 100.122 106.724 99.2402 107.652L98.8019 108.113L98.1984 107.911C96.3491 107.293 94.6686 106.309 93.2426 105.046L92.7669 104.624L92.9466 104.014C93.3081 102.788 93.1854 101.424 92.4964 100.231C91.8069 99.0365 90.6866 98.2483 89.4425 97.9484L88.8232 97.7991L88.6967 97.1748C88.5093 96.2496 88.411 95.2927 88.411 94.314C88.411 93.3352 88.5093 92.3784 88.6967 91.4532L88.8232 90.8289L89.4425 90.6796C90.6866 90.3797 91.8069 89.5915 92.4964 88.3973C93.1854 87.2038 93.3081 85.8404 92.9466 84.6136L92.7669 84.0039L93.2426 83.5824C94.6686 82.319 96.3491 81.3348 98.1984 80.7168L98.8019 80.5151ZM95.0223 84.6967C95.3202 86.2512 95.0824 87.9182 94.2284 89.3973C93.3742 90.8769 92.0488 91.9166 90.553 92.4357C90.4595 93.0476 90.411 93.6748 90.411 94.314C90.411 94.9531 90.4595 95.5804 90.553 96.1923C92.0488 96.7114 93.3742 97.7511 94.2284 99.2307C95.0824 100.71 95.3202 102.377 95.0223 103.931C95.9962 104.714 97.091 105.352 98.2739 105.812C99.4715 104.776 101.035 104.147 102.744 104.147C104.454 104.147 106.017 104.776 107.215 105.812C108.398 105.352 109.492 104.714 110.466 103.931C110.168 102.377 110.406 100.71 111.26 99.2307C112.114 97.7511 113.44 96.7114 114.936 96.1923C115.029 95.5804 115.078 94.9531 115.078 94.314C115.078 93.6748 115.029 93.0476 114.936 92.4356C113.44 91.9165 112.114 90.8769 111.26 89.3973C110.406 87.9182 110.169 86.2512 110.466 84.6967C109.492 83.9136 108.398 83.2758 107.215 82.8155C106.017 83.8521 104.454 84.4807 102.744 84.4807C101.035 84.4807 99.4715 83.8521 98.2739 82.8155C97.091 83.2758 95.9962 83.9136 95.0223 84.6967ZM102.744 90.314C100.535 90.314 98.7443 92.1048 98.7443 94.314C98.7443 96.5231 100.535 98.314 102.744 98.314C104.953 98.314 106.744 96.5231 106.744 94.314C106.744 92.1048 104.953 90.314 102.744 90.314ZM96.7443 94.314C96.7443 91.0003 99.4306 88.314 102.744 88.314C106.058 88.314 108.744 91.0003 108.744 94.314C108.744 97.6277 106.058 100.314 102.744 100.314C99.4306 100.314 96.7443 97.6277 96.7443 94.314Z" fill="#6A6A6A"/>
</svg>
