<!--
 Copyright 2023-2025 Solace Systems. All rights reserved.

 Licensed under the Apache License, Version 2.0 (the "License");
 you may not use this file except in compliance with the License.
 You may obtain a copy of the License at

     http://www.apache.org/licenses/LICENSE-2.0

 Unless required by applicable law or agreed to in writing, software
 distributed under the License is distributed on an "AS IS" BASIS,
 WITHOUT WARRANTIES OR CONDITIONS OF ANY KIND, either express or implied.
 See the License for the specific language governing permissions and
 limitations under the License.
-->
<svg width="130" height="130" viewBox="0 0 130 130" fill="none" xmlns="http://www.w3.org/2000/svg">
<g clip-path="url(#clip0_2504_13179)">
<path opacity="0.1" d="M119.5 64C119.5 94.0995 95.0999 118.5 65.0004 118.5C34.9009 118.5 10.5004 94.0995 10.5004 64C10.5004 33.9005 34.9009 9.5 65.0004 9.5C95.0999 9.5 119.5 33.9005 119.5 64Z" fill="#009193"/>
<path d="M29.1547 100.285H30.1547V122.285H29.1547V100.285Z" fill="white"/>
<path d="M100.155 100.285H101.155V122.285H100.155V100.285Z" fill="white"/>
<path fill-rule="evenodd" clip-rule="evenodd" d="M29.1843 93.0859H101.674L109.4 97.8858V97.8859V103.886H20.6V97.8859V97.8858H20.6002L29.1843 93.0859Z" fill="white"/>
<path fill-rule="evenodd" clip-rule="evenodd" d="M21.1777 97.8858V103.886H27.7324V124.284H32.7324V103.886H98.7324V124.284H103.732V103.886H109.978V97.8859L102.252 93.0859H29.7621L21.1777 97.8858ZM29.7324 122.565V103.886H30.7324V122.565H29.7324ZM100.732 122.565V103.886H101.732V122.565H100.732ZM24.5618 98.2852H106.831L101.681 95.0859H30.2832L24.5618 98.2852ZM107.978 99.2852H23.1777V101.886H107.978V99.2852Z" fill="#6A6A6A"/>
<rect x="2.00043" y="123.285" width="126" height="1" fill="#6A6A6A"/>
<path d="M25.1736 33.7773C25.1736 31.5682 26.9645 29.7773 29.1736 29.7773H101.404C103.613 29.7773 105.404 31.5682 105.404 33.7773V77.9154H25.1736V33.7773Z" fill="white"/>
<path fill-rule="evenodd" clip-rule="evenodd" d="M101.982 31.7773H29.7515C28.647 31.7773 27.7515 32.6728 27.7515 33.7773V75.9154H103.982V33.7773C103.982 32.6728 103.086 31.7773 101.982 31.7773ZM29.7515 29.7773C27.5424 29.7773 25.7515 31.5682 25.7515 33.7773V77.9154H105.982V33.7773C105.982 31.5682 104.191 29.7773 101.982 29.7773H29.7515Z" fill="#6A6A6A"/>
<path fill-rule="evenodd" clip-rule="evenodd" d="M29.7904 34.418C30.0665 34.418 30.2904 34.6418 30.2904 34.918L30.2904 71.918C30.2904 72.1941 30.0665 72.418 29.7904 72.418C29.5143 72.418 29.2904 72.1941 29.2904 71.918L29.2904 34.918C29.2904 34.6418 29.5143 34.418 29.7904 34.418Z" fill="#6A6A6A"/>
<path fill-rule="evenodd" clip-rule="evenodd" d="M101.949 34.418C102.225 34.418 102.449 34.6418 102.449 34.918L102.449 71.918C102.449 72.1941 102.225 72.418 101.949 72.418C101.672 72.418 101.449 72.1941 101.449 71.918L101.449 34.918C101.449 34.6418 101.672 34.418 101.949 34.418Z" fill="#6A6A6A"/>
<rect x="61.074" y="36.4492" width="11.0345" height="3.81381" rx="0.5" fill="white" stroke="#6A6A6A"/>
<path d="M23.2889 76.1641C23.2889 75.0595 24.1843 74.1641 25.2889 74.1641H105.289C106.393 74.1641 107.289 75.0595 107.289 76.1641V78.1641C107.289 79.2686 106.393 80.1641 105.289 80.1641H25.2889C24.1843 80.1641 23.2889 79.2686 23.2889 78.1641V76.1641Z" fill="white"/>
<path fill-rule="evenodd" clip-rule="evenodd" d="M105.867 76.1641H25.8666V78.1641H105.867V76.1641ZM25.8666 74.1641C24.762 74.1641 23.8666 75.0595 23.8666 76.1641V78.1641C23.8666 79.2686 24.762 80.1641 25.8666 80.1641H105.867C106.971 80.1641 107.867 79.2686 107.867 78.1641V76.1641C107.867 75.0595 106.971 74.1641 105.867 74.1641H25.8666Z" fill="#6A6A6A"/>
<path fill-rule="evenodd" clip-rule="evenodd" d="M64.3701 18.5413C64.8655 18.5139 65.3645 18.5 65.8666 18.5C66.3687 18.5 66.8677 18.5139 67.3631 18.5413C67.6388 18.5565 67.8499 18.7924 67.8347 19.0681C67.8195 19.3438 67.5836 19.555 67.3079 19.5397C66.8308 19.5134 66.3503 19.5 65.8666 19.5C65.3829 19.5 64.9024 19.5134 64.4254 19.5397C64.1496 19.555 63.9138 19.3438 63.8985 19.0681C63.8833 18.7924 64.0944 18.5565 64.3701 18.5413ZM61.0068 19.4453C61.0629 19.7157 60.8892 19.9804 60.6188 20.0365C59.671 20.2333 58.7424 20.4823 57.8361 20.7804C57.5738 20.8666 57.2912 20.7239 57.2049 20.4616C57.1186 20.1993 57.2613 19.9167 57.5236 19.8304C58.4656 19.5206 59.4306 19.2618 60.4156 19.0574C60.686 19.0012 60.9506 19.1749 61.0068 19.4453ZM70.7264 19.4453C70.7826 19.1749 71.0473 19.0012 71.3176 19.0574C72.3026 19.2618 73.2677 19.5206 74.2096 19.8304C74.4719 19.9167 74.6146 20.1993 74.5283 20.4616C74.4421 20.7239 74.1595 20.8666 73.8972 20.7804C72.9908 20.4823 72.0622 20.2333 71.1144 20.0365C70.844 19.9804 70.6703 19.7157 70.7264 19.4453ZM54.5111 21.5787C54.6357 21.8251 54.537 22.1259 54.2906 22.2505C53.4307 22.6855 52.5986 23.1674 51.7976 23.6929C51.5667 23.8443 51.2568 23.78 51.1053 23.5491C50.9538 23.3182 51.0182 23.0082 51.2491 22.8567C52.0812 22.3108 52.9458 21.8101 53.8392 21.3582C54.0856 21.2336 54.3864 21.3323 54.5111 21.5787ZM77.2222 21.5787C77.3468 21.3323 77.6476 21.2336 77.894 21.3582C78.7875 21.8101 79.652 22.3108 80.4841 22.8568C80.715 23.0082 80.7794 23.3182 80.6279 23.5491C80.4765 23.78 80.1665 23.8444 79.9356 23.6929C79.1346 23.1674 78.3025 22.6855 77.4426 22.2505C77.1962 22.1259 77.0975 21.8251 77.2222 21.5787ZM48.7929 25.3261C48.9769 25.5319 48.9593 25.848 48.7535 26.0321C48.0372 26.6726 47.3571 27.3527 46.7165 28.069C46.5324 28.2748 46.2163 28.2925 46.0105 28.1084C45.8047 27.9243 45.787 27.6082 45.9711 27.4024C46.6364 26.6584 47.3429 25.952 48.0869 25.2866C48.2927 25.1026 48.6088 25.1202 48.7929 25.3261ZM82.9404 25.3261C83.1244 25.1202 83.4405 25.1026 83.6464 25.2866C84.3904 25.952 85.0968 26.6584 85.7621 27.4024C85.9462 27.6082 85.9286 27.9243 85.7227 28.1084C85.5169 28.2925 85.2008 28.2748 85.0167 28.069C84.3762 27.3527 83.696 26.6726 82.9798 26.0321C82.7739 25.848 82.7563 25.5319 82.9404 25.3261ZM44.2335 30.4208C44.4644 30.5723 44.5288 30.8823 44.3773 31.1132C43.8518 31.9142 43.3699 32.7463 42.935 33.6061C42.8104 33.8525 42.5096 33.9512 42.2631 33.8266C42.0167 33.702 41.918 33.4012 42.0427 33.1548C42.4946 32.2613 42.9953 31.3968 43.5412 30.5646C43.6927 30.3337 44.0026 30.2694 44.2335 30.4208ZM87.4997 30.4208C87.7306 30.2694 88.0405 30.3337 88.192 30.5646C88.7379 31.3968 89.2386 32.2613 89.6906 33.1548C89.8152 33.4012 89.7165 33.702 89.4701 33.8266C89.2237 33.9513 88.9229 33.8525 88.7982 33.6061C88.3633 32.7463 87.8814 31.9142 87.3559 31.1132C87.2044 30.8823 87.2688 30.5723 87.4997 30.4208ZM41.1461 36.5204C41.4084 36.6067 41.5511 36.8893 41.4648 37.1516C41.1667 38.058 40.9177 38.9866 40.7209 39.9344C40.6648 40.2048 40.4001 40.3785 40.1297 40.3223C39.8594 40.2662 39.6857 40.0015 39.7418 39.7311C39.9463 38.7462 40.2051 37.7811 40.5149 36.8392C40.6011 36.5769 40.8837 36.4341 41.1461 36.5204ZM90.5872 36.5204C90.8495 36.4342 91.1321 36.5769 91.2183 36.8392C91.5281 37.7811 91.7869 38.7462 91.9914 39.7311C92.0475 40.0015 91.8739 40.2662 91.6035 40.3223C91.3331 40.3785 91.0684 40.2048 91.0123 39.9344C90.8155 38.9866 90.5665 38.058 90.2684 37.1516C90.1821 36.8893 90.3248 36.6067 90.5872 36.5204ZM39.7526 43.2141C40.0283 43.2293 40.2394 43.4652 40.2242 43.7409C40.1978 44.2179 40.1844 44.6985 40.1844 45.1822C40.1844 45.6659 40.1978 46.1464 40.2242 46.6234C40.2394 46.8991 40.0283 47.135 39.7526 47.1502C39.4768 47.1655 39.241 46.9543 39.2257 46.6786C39.1983 46.1832 39.1844 45.6843 39.1844 45.1822C39.1844 44.68 39.1983 44.1811 39.2257 43.6857C39.241 43.41 39.4768 43.1988 39.7526 43.2141ZM91.9807 43.2141C92.2564 43.1988 92.4922 43.41 92.5075 43.6857C92.5349 44.1811 92.5488 44.68 92.5488 45.1822C92.5488 45.6843 92.5349 46.1832 92.5075 46.6786C92.4922 46.9543 92.2564 47.1655 91.9807 47.1503C91.7049 47.135 91.4938 46.8991 91.509 46.6234C91.5354 46.1464 91.5488 45.6659 91.5488 45.1822C91.5488 44.6985 91.5354 44.2179 91.509 43.7409C91.4938 43.4652 91.7049 43.2293 91.9807 43.2141ZM40.1297 50.042C40.4001 49.9859 40.6648 50.1595 40.7209 50.4299C40.9177 51.3777 41.1667 52.3064 41.4648 53.2127C41.5511 53.475 41.4084 53.7576 41.1461 53.8439C40.8837 53.9302 40.6011 53.7875 40.5149 53.5251C40.2051 52.5832 39.9463 51.6181 39.7418 50.6332C39.6857 50.3628 39.8594 50.0981 40.1297 50.042ZM91.6035 50.042C91.8738 50.0981 92.0475 50.3628 91.9914 50.6332C91.7869 51.6181 91.5281 52.5832 91.2183 53.5251C91.1321 53.7875 90.8495 53.9302 90.5872 53.8439C90.3248 53.7576 90.1821 53.475 90.2684 53.2127C90.5665 52.3064 90.8155 51.3777 91.0123 50.4299C91.0684 50.1595 91.3331 49.9859 91.6035 50.042ZM42.2631 56.5377C42.5096 56.4131 42.8104 56.5118 42.935 56.7582C43.3699 57.618 43.8518 58.4502 44.3773 59.2512C44.5288 59.482 44.4644 59.792 44.2335 59.9435C44.0026 60.095 43.6927 60.0306 43.5412 59.7997C42.9953 58.9676 42.4946 58.103 42.0427 57.2096C41.918 56.9631 42.0167 56.6623 42.2631 56.5377ZM89.4701 56.5377C89.7165 56.6624 89.8152 56.9632 89.6906 57.2096C89.2386 58.103 88.7379 58.9676 88.192 59.7997C88.0405 60.0306 87.7306 60.095 87.4997 59.9435C87.2688 59.792 87.2044 59.482 87.3559 59.2512C87.8814 58.4502 88.3633 57.618 88.7982 56.7582C88.9229 56.5118 89.2237 56.4131 89.4701 56.5377ZM46.0105 62.2559C46.2163 62.0718 46.5324 62.0895 46.7165 62.2953C47.357 63.0116 48.0372 63.6917 48.7534 64.3323C48.9593 64.5163 48.9769 64.8324 48.7929 65.0383C48.6088 65.2441 48.2927 65.2617 48.0868 65.0777C47.3429 64.4123 46.6364 63.7059 45.9711 62.9619C45.787 62.7561 45.8047 62.44 46.0105 62.2559ZM85.7227 62.2559C85.9286 62.44 85.9462 62.7561 85.7621 62.9619C85.0968 63.7059 84.3904 64.4124 83.6464 65.0777C83.4405 65.2618 83.1244 65.2441 82.9404 65.0383C82.7563 64.8324 82.7739 64.5163 82.9798 64.3323C83.696 63.6917 84.3762 63.0116 85.0167 62.2953C85.2008 62.0895 85.5169 62.0718 85.7227 62.2559ZM51.1053 66.8152C51.2568 66.5843 51.5667 66.52 51.7976 66.6714C52.5986 67.1969 53.4307 67.6788 54.2906 68.1138C54.537 68.2384 54.6357 68.5392 54.5111 68.7856C54.3864 69.032 54.0856 69.1308 53.8392 69.0061C52.9458 68.5542 52.0812 68.0535 51.2491 67.5076C51.0182 67.3561 50.9538 67.0461 51.1053 66.8152ZM80.6279 66.8152C80.7794 67.0461 80.715 67.3561 80.4841 67.5076C79.652 68.0535 78.7875 68.5542 77.894 69.0061C77.6476 69.1308 77.3468 69.032 77.2222 68.7856C77.0975 68.5392 77.1962 68.2384 77.4426 68.1138C78.3025 67.6788 79.1346 67.1969 79.9356 66.6714C80.1665 66.52 80.4765 66.5843 80.6279 66.8152ZM57.2049 69.9027C57.2912 69.6404 57.5737 69.4977 57.8361 69.584C58.7424 69.8821 59.671 70.1311 60.6188 70.3278C60.8892 70.384 61.0629 70.6486 61.0068 70.919C60.9506 71.1894 60.6859 71.3631 60.4156 71.3069C59.4306 71.1025 58.4656 70.8437 57.5236 70.5339C57.2613 70.4476 57.1186 70.165 57.2049 69.9027ZM74.5283 69.9027C74.6146 70.165 74.4719 70.4476 74.2096 70.5339C73.2677 70.8437 72.3026 71.1025 71.3176 71.307C71.0473 71.3631 70.7826 71.1894 70.7264 70.919C70.6703 70.6486 70.844 70.384 71.1144 70.3278C72.0622 70.1311 72.9908 69.8821 73.8971 69.584C74.1595 69.4977 74.4421 69.6404 74.5283 69.9027ZM63.8985 71.2962C63.9138 71.0205 64.1496 70.8093 64.4254 70.8246C64.9024 70.851 65.3829 70.8643 65.8666 70.8643C66.3503 70.8643 66.8308 70.851 67.3078 70.8246C67.5836 70.8093 67.8194 71.0205 67.8347 71.2962C67.8499 71.5719 67.6388 71.8078 67.3631 71.823C66.8677 71.8504 66.3687 71.8643 65.8666 71.8643C65.3645 71.8643 64.8655 71.8504 64.3701 71.823C64.0944 71.8078 63.8833 71.5719 63.8985 71.2962Z" fill="#6A6A6A"/>
<circle cx="65.8666" cy="45.1736" r="19.8924" fill="white"/>
<path fill-rule="evenodd" clip-rule="evenodd" d="M70.7768 62.3839C69.2166 62.8281 67.5694 63.066 65.8666 63.066C62.1723 63.066 58.7395 61.9464 55.889 60.0279L62.7277 56.0679C65.4161 59.1756 68.2545 61.3944 70.7768 62.3839ZM72.3971 61.8368C72.33 61.8226 72.2621 61.8071 72.1935 61.7903C70.946 61.4853 69.5167 60.7719 67.9953 59.6602C66.5533 58.6066 65.0639 57.2209 63.6091 55.5575L75.8106 48.4922C76.5271 50.5902 76.9844 52.579 77.1765 54.3595C77.3785 56.2328 77.2816 57.8274 76.9221 59.0602C76.898 59.1426 76.8729 59.2231 76.8468 59.3017C75.5035 60.3472 74.0072 61.2053 72.3971 61.8368ZM78.1339 58.1987C81.597 54.9359 83.759 50.3072 83.759 45.1736C83.759 44.7505 83.7443 44.3308 83.7154 43.915L76.6924 47.9816C78.0562 51.9046 78.5579 55.5076 78.1339 58.1987ZM83.6059 42.8228C82.971 37.9844 80.4028 33.7546 76.7024 30.9344L69.4773 35.1181C70.8461 36.7953 72.1645 38.7003 73.369 40.7865C74.5806 42.8851 75.5757 44.9917 76.3457 47.0268L83.6059 42.8228ZM75.8094 30.2959L68.8249 34.3403C66.1497 31.2376 63.3236 29.0145 60.8066 28.0068C62.4111 27.5346 64.1093 27.2812 65.8666 27.2812C69.5459 27.2812 72.9658 28.3918 75.8094 30.2959ZM54.6002 31.2731C55.9874 30.1473 57.5465 29.2251 59.2319 28.5517C59.2611 28.5585 59.2905 28.5654 59.32 28.5727C60.5675 28.8777 61.9969 29.5911 63.5182 30.7027C64.9732 31.7659 66.4765 33.1671 67.9438 34.8505L55.7223 41.9274C54.9946 39.8086 54.5308 37.8 54.3371 36.0035C54.135 34.1301 54.2319 32.5356 54.5915 31.3027C54.5944 31.2928 54.5973 31.2829 54.6002 31.2731ZM55.2704 28.3352C49.6849 31.8576 45.9742 38.0823 45.9742 45.1736C45.9742 56.1599 54.8804 65.066 65.8666 65.066C76.8529 65.066 85.759 56.1599 85.759 45.1736C85.759 34.1874 76.8529 25.2812 65.8666 25.2812C62.4217 25.2812 59.1812 26.157 56.3558 27.6979C56.1689 27.7709 55.9878 27.8576 55.8131 27.9585C55.6213 28.0692 55.4405 28.1951 55.2704 28.3352ZM53.3463 32.3916C52.9825 35.0699 53.5005 38.6025 54.8408 42.4378L48.015 46.3903C47.988 45.9883 47.9742 45.5825 47.9742 45.1736C47.9742 40.1662 50.0312 35.6393 53.3463 32.3916ZM48.122 47.4839C48.7461 52.325 51.3051 56.56 54.9983 59.3881L62.0739 55.291C60.6916 53.6026 59.36 51.6818 58.1445 49.5764C56.9439 47.497 55.956 45.4096 55.1889 43.3918L48.122 47.4839ZM72.503 41.2865C73.7219 43.3977 74.7121 45.509 75.4684 47.5348L62.9509 54.7831C61.5704 53.1118 60.2329 51.1937 59.0105 49.0764C57.8028 46.9846 56.8196 44.8927 56.066 42.8839L68.6005 35.6258C69.9676 37.2863 71.2918 39.1886 72.503 41.2865Z" fill="#6A6A6A"/>
<rect x="37.4125" y="57.4521" width="10.3408" height="9.30676" rx="2" fill="white"/>
<path fill-rule="evenodd" clip-rule="evenodd" d="M45.7533 59.4531H39.4125L39.4125 64.7599L45.7533 64.7599L45.7533 59.4531ZM39.4125 57.4531C38.3079 57.4531 37.4125 58.3486 37.4125 59.4531V64.7599C37.4125 65.8645 38.3079 66.7599 39.4125 66.7599H45.7533C46.8579 66.7599 47.7533 65.8645 47.7533 64.7599V59.4531C47.7533 58.3486 46.8579 57.4531 45.7533 57.4531H39.4125Z" fill="#6A6A6A"/>
<circle cx="41.5488" cy="30.7826" r="6.20451" fill="white"/>
<path fill-rule="evenodd" clip-rule="evenodd" d="M41.548 34.9871C43.8701 34.9871 45.7525 33.1047 45.7525 30.7826C45.7525 28.4605 43.8701 26.5781 41.548 26.5781C39.2259 26.5781 37.3435 28.4605 37.3435 30.7826C37.3435 33.1047 39.2259 34.9871 41.548 34.9871ZM41.548 36.9871C44.9746 36.9871 47.7525 34.2093 47.7525 30.7826C47.7525 27.356 44.9746 24.5781 41.548 24.5781C38.1213 24.5781 35.3435 27.356 35.3435 30.7826C35.3435 34.2093 38.1213 36.9871 41.548 36.9871Z" fill="#6A6A6A"/>
<path fill-rule="evenodd" clip-rule="evenodd" d="M95.6871 56.4607C94.7623 55.6101 93.6518 54.9583 92.4233 54.5729C91.7925 55.295 90.865 55.7511 89.8309 55.7511C88.7965 55.7511 87.8688 55.2948 87.238 54.5724C86.0096 54.9574 84.8991 55.609 83.9742 56.4592C84.2831 57.3659 84.214 58.3962 83.6974 59.2909C83.1804 60.1865 82.3216 60.7617 81.381 60.9469C81.2461 61.5539 81.175 62.1849 81.175 62.8324C81.175 63.48 81.2461 64.111 81.381 64.718C82.321 64.9036 83.1791 65.4787 83.6958 66.3737C84.2122 67.2681 84.2814 68.298 83.9728 69.2044C84.8984 70.0556 86.0099 70.7078 87.2395 71.093C87.8702 70.3716 88.7973 69.9159 89.8309 69.9159C90.8642 69.9159 91.7911 70.3713 92.4218 71.0924C93.651 70.7071 94.7621 70.055 95.6874 69.2039C95.3804 68.2984 95.4502 67.2703 95.9658 66.3773C96.482 65.4832 97.3388 64.9084 98.2777 64.7222C98.4132 64.1139 98.4846 63.4815 98.4846 62.8324C98.4846 62.1849 98.4135 61.5539 98.2786 60.9469C97.3388 60.7612 96.4809 60.1862 95.9642 59.2913C95.4479 58.397 95.3786 57.3672 95.6871 56.4607Z" fill="white"/>
<path fill-rule="evenodd" clip-rule="evenodd" d="M89.8309 57.4511C90.924 57.4511 91.9382 57.1089 92.7708 56.5278C93.1395 56.7001 93.4909 56.9041 93.8214 57.1362C93.7351 58.1471 93.9459 59.1955 94.492 60.1413C95.0379 61.0869 95.8402 61.7936 96.7585 62.2243C96.7758 62.4244 96.7846 62.6272 96.7846 62.8324C96.7846 63.0392 96.7757 63.2436 96.7581 63.4453C95.8406 63.876 95.0391 64.5823 94.4936 65.5273C93.9483 66.4717 93.7373 67.5184 93.8226 68.5278C93.4912 68.7607 93.1388 68.9652 92.769 69.1379C91.9367 68.5576 90.9232 68.2159 89.8309 68.2159C88.7382 68.2159 87.7244 68.5578 86.8919 69.1386C86.5222 68.9659 86.1699 68.7616 85.8386 68.5289C85.925 67.518 85.7141 66.4696 85.168 65.5237C84.622 64.5779 83.8196 63.8712 82.9011 63.4405C82.8838 63.2404 82.875 63.0376 82.875 62.8324C82.875 62.6274 82.8838 62.4248 82.9011 62.2249C83.8202 61.7943 84.6233 61.0873 85.1697 60.141C85.7159 59.1948 85.9267 58.146 85.8402 57.1348C86.1705 56.903 86.5216 56.6993 86.8901 56.5272C87.7229 57.1087 88.7374 57.4511 89.8309 57.4511ZM98.4846 62.8324C98.4846 62.1849 98.4135 61.5539 98.2786 60.9469C97.3388 60.7612 96.4809 60.1862 95.9642 59.2913C95.4479 58.397 95.3786 57.3672 95.6871 56.4607C94.7623 55.6101 93.6518 54.9583 92.4233 54.5729C91.7925 55.295 90.865 55.7511 89.8309 55.7511C88.7965 55.7511 87.8688 55.2948 87.238 54.5724C86.0096 54.9574 84.8991 55.609 83.9742 56.4592C84.2831 57.3659 84.214 58.3962 83.6974 59.2909C83.1804 60.1865 82.3216 60.7617 81.381 60.9469C81.2461 61.5539 81.175 62.1849 81.175 62.8324C81.175 63.48 81.2461 64.111 81.381 64.718C82.321 64.9036 83.1791 65.4787 83.6958 66.3737C84.2122 67.2681 84.2814 68.298 83.9728 69.2044C84.8984 70.0556 86.0099 70.7078 87.2395 71.093C87.8702 70.3716 88.7973 69.9159 89.8309 69.9159C90.8642 69.9159 91.7911 70.3713 92.4218 71.0924C93.651 70.7071 94.7621 70.055 95.6874 69.2039C95.3804 68.2984 95.4502 67.2703 95.9658 66.3773C96.482 65.4832 97.3388 64.9084 98.2777 64.7222C98.4132 64.1139 98.4846 63.4815 98.4846 62.8324ZM91.8239 62.8318C91.8239 63.9325 90.9316 64.8249 89.8309 64.8249C88.7302 64.8249 87.8379 63.9325 87.8379 62.8318C87.8379 61.7311 88.7302 60.8388 89.8309 60.8388C90.9316 60.8388 91.8239 61.7311 91.8239 62.8318ZM93.5239 62.8318C93.5239 64.8714 91.8705 66.5249 89.8309 66.5249C87.7913 66.5249 86.1379 64.8714 86.1379 62.8318C86.1379 60.7922 87.7913 59.1388 89.8309 59.1388C91.8705 59.1388 93.5239 60.7922 93.5239 62.8318Z" fill="#6A6A6A"/>
<path d="M56.8718 83.7955C57.0492 82.8495 57.8752 82.1641 58.8376 82.1641H72.3179C73.2803 82.1641 74.1063 82.8495 74.2836 83.7955L76.9641 98.0913C76.9732 98.1397 76.9787 98.1888 76.9805 98.2381L77.4999 112.089C77.5424 113.222 76.6353 114.164 75.5013 114.164H55.6541C54.5202 114.164 53.613 113.222 53.6555 112.089L54.1722 98.3121C54.1759 98.2135 54.1869 98.1154 54.205 98.0185L56.8718 83.7955Z" fill="white"/>
<path fill-rule="evenodd" clip-rule="evenodd" d="M72.3179 84.1641H58.8376L56.1708 98.387L55.6541 112.164L75.5013 112.164L74.9847 98.3871L72.3179 84.1641ZM58.8376 82.1641C57.8752 82.1641 57.0492 82.8495 56.8718 83.7955L54.205 98.0185C54.1869 98.1154 54.1759 98.2135 54.1722 98.3121L53.6555 112.089C53.6131 113.222 54.5202 114.164 55.6541 114.164H64.5777V121.285H59.0777C58.5255 121.285 58.0777 121.733 58.0777 122.285C58.0777 122.837 58.5255 123.285 59.0777 123.285H72.0777C72.63 123.285 73.0777 122.837 73.0777 122.285C73.0777 121.733 72.63 121.285 72.0777 121.285H66.5777V114.164H75.5013C76.6353 114.164 77.5424 113.222 77.4999 112.089L76.9805 98.2381C76.9787 98.1888 76.9732 98.1397 76.9641 98.0913L74.2836 83.7955C74.1063 82.8495 73.2803 82.1641 72.3179 82.1641H58.8376Z" fill="#6A6A6A"/>
</g>
<defs>
<clipPath id="clip0_2504_13179">
<rect width="130" height="130" fill="white"/>
</clipPath>
</defs>
</svg>
