<svg width="130" height="130" viewBox="0 0 130 130" fill="none" xmlns="http://www.w3.org/2000/svg">
<g clip-path="url(#clip0_2504_13179)">
<path opacity="0.1" d="M119.5 64C119.5 94.0995 95.0999 118.5 65.0004 118.5C34.9009 118.5 10.5004 94.0995 10.5004 64C10.5004 33.9005 34.9009 9.5 65.0004 9.5C95.0999 9.5 119.5 33.9005 119.5 64Z" fill="#009193"/>
<path d="M29.1547 100.285H30.1547V122.285H29.1547V100.285Z" fill="white"/>
<path d="M100.155 100.285H101.155V122.285H100.155V100.285Z" fill="white"/>
<path fill-rule="evenodd" clip-rule="evenodd" d="M29.1843 93.0859H101.674L109.4 97.8858V97.8859V103.886H20.6V97.8859V97.8858H20.6002L29.1843 93.0859Z" fill="white"/>
<path fill-rule="evenodd" clip-rule="evenodd" d="M21.1777 97.8858V103.886H27.7324V124.284H32.7324V103.886H98.7324V124.284H103.732V103.886H109.978V97.8859L102.252 93.0859H29.7621L21.1777 97.8858ZM29.7324 122.565V103.886H30.7324V122.565H29.7324ZM100.732 122.565V103.886H101.732V122.565H100.732ZM24.5618 98.2852H106.831L101.681 95.0859H30.2832L24.5618 98.2852ZM107.978 99.2852H23.1777V101.886H107.978V99.2852Z" fill="#6A6A6A"/>
<rect x="2.00043" y="123.285" width="126" height="1" fill="#6A6A6A"/>
<path d="M24.8848 33.7773C24.8848 31.5682 26.6756 29.7773 28.8848 29.7773H101.115C103.324 29.7773 105.115 31.5682 105.115 33.7773V77.9154H24.8848V33.7773Z" fill="white"/>
<path fill-rule="evenodd" clip-rule="evenodd" d="M101.115 31.7773H28.8848C27.7802 31.7773 26.8848 32.6728 26.8848 33.7773V75.9154H103.115V33.7773C103.115 32.6728 102.219 31.7773 101.115 31.7773ZM28.8848 29.7773C26.6756 29.7773 24.8848 31.5682 24.8848 33.7773V77.9154H105.115V33.7773C105.115 31.5682 103.324 29.7773 101.115 29.7773H28.8848Z" fill="#6A6A6A"/>
<path fill-rule="evenodd" clip-rule="evenodd" d="M28.9238 34.418C29.2 34.418 29.4238 34.6418 29.4238 34.918L29.4238 71.918C29.4238 72.1941 29.2 72.418 28.9238 72.418C28.6477 72.418 28.4238 72.1941 28.4238 71.918L28.4238 34.918C28.4238 34.6418 28.6477 34.418 28.9238 34.418Z" fill="#6A6A6A"/>
<path fill-rule="evenodd" clip-rule="evenodd" d="M101.082 34.418C101.358 34.418 101.582 34.6418 101.582 34.918L101.582 71.918C101.582 72.1941 101.358 72.418 101.082 72.418C100.806 72.418 100.582 72.1941 100.582 71.918L100.582 34.918C100.582 34.6418 100.806 34.418 101.082 34.418Z" fill="#6A6A6A"/>
<rect x="60.7852" y="36.4492" width="11.0345" height="3.81381" rx="0.5" fill="white" stroke="#6A6A6A"/>
<path d="M23 76.1641C23 75.0595 23.8954 74.1641 25 74.1641H105C106.105 74.1641 107 75.0595 107 76.1641V78.1641C107 79.2686 106.105 80.1641 105 80.1641H25C23.8954 80.1641 23 79.2686 23 78.1641V76.1641Z" fill="white"/>
<path fill-rule="evenodd" clip-rule="evenodd" d="M105 76.1641H25V78.1641H105V76.1641ZM25 74.1641C23.8954 74.1641 23 75.0595 23 76.1641V78.1641C23 79.2686 23.8954 80.1641 25 80.1641H105C106.105 80.1641 107 79.2686 107 78.1641V76.1641C107 75.0595 106.105 74.1641 105 74.1641H25Z" fill="#6A6A6A"/>
<path fill-rule="evenodd" clip-rule="evenodd" d="M62.9884 18.5413C63.4838 18.5139 63.9828 18.5 64.4849 18.5C64.987 18.5 65.486 18.5139 65.9814 18.5413C66.2571 18.5565 66.4682 18.7924 66.453 19.0681C66.4377 19.3438 66.2019 19.555 65.9261 19.5397C65.4491 19.5134 64.9686 19.5 64.4849 19.5C64.0012 19.5 63.5207 19.5134 63.0437 19.5397C62.7679 19.555 62.5321 19.3438 62.5168 19.0681C62.5016 18.7924 62.7127 18.5565 62.9884 18.5413ZM59.6251 19.4453C59.6812 19.7157 59.5075 19.9804 59.2371 20.0365C58.2893 20.2333 57.3607 20.4823 56.4544 20.7804C56.192 20.8666 55.9094 20.7239 55.8232 20.4616C55.7369 20.1993 55.8796 19.9167 56.1419 19.8304C57.0839 19.5206 58.0489 19.2618 59.0339 19.0574C59.3042 19.0012 59.5689 19.1749 59.6251 19.4453ZM69.3447 19.4453C69.4009 19.1749 69.6656 19.0012 69.9359 19.0574C70.9209 19.2618 71.8859 19.5206 72.8279 19.8304C73.0902 19.9167 73.2329 20.1993 73.1466 20.4616C73.0603 20.7239 72.7778 20.8666 72.5154 20.7804C71.6091 20.4823 70.6805 20.2333 69.7327 20.0365C69.4623 19.9804 69.2886 19.7157 69.3447 19.4453ZM53.1293 21.5787C53.254 21.8251 53.1553 22.1259 52.9089 22.2505C52.049 22.6855 51.2169 23.1674 50.4159 23.6929C50.185 23.8443 49.875 23.78 49.7236 23.5491C49.5721 23.3182 49.6365 23.0082 49.8674 22.8567C50.6995 22.3108 51.564 21.8101 52.4575 21.3582C52.7039 21.2336 53.0047 21.3323 53.1293 21.5787ZM75.8404 21.5787C75.9651 21.3323 76.2659 21.2336 76.5123 21.3582C77.4058 21.8101 78.2703 22.3108 79.1024 22.8568C79.3333 23.0082 79.3977 23.3182 79.2462 23.5491C79.0947 23.78 78.7848 23.8444 78.5539 23.6929C77.7529 23.1674 76.9208 22.6855 76.0609 22.2505C75.8145 22.1259 75.7158 21.8251 75.8404 21.5787ZM47.4111 25.3261C47.5952 25.5319 47.5776 25.848 47.3717 26.0321C46.6555 26.6726 45.9753 27.3527 45.3348 28.069C45.1507 28.2748 44.8346 28.2925 44.6288 28.1084C44.423 27.9243 44.4053 27.6082 44.5894 27.4024C45.2547 26.6584 45.9611 25.952 46.7051 25.2866C46.911 25.1026 47.2271 25.1202 47.4111 25.3261ZM81.5586 25.3261C81.7427 25.1202 82.0588 25.1026 82.2647 25.2866C83.0086 25.952 83.7151 26.6584 84.3804 27.4024C84.5645 27.6082 84.5468 27.9243 84.341 28.1084C84.1352 28.2925 83.8191 28.2748 83.635 28.069C82.9945 27.3527 82.3143 26.6726 81.5981 26.0321C81.3922 25.848 81.3746 25.5319 81.5586 25.3261ZM42.8518 30.4208C43.0827 30.5723 43.1471 30.8823 42.9956 31.1132C42.4701 31.9142 41.9882 32.7463 41.5533 33.6061C41.4286 33.8525 41.1278 33.9512 40.8814 33.8266C40.635 33.702 40.5363 33.4012 40.6609 33.1548C41.1129 32.2613 41.6136 31.3968 42.1595 30.5646C42.311 30.3337 42.6209 30.2694 42.8518 30.4208ZM86.118 30.4208C86.3489 30.2694 86.6588 30.3337 86.8103 30.5646C87.3562 31.3968 87.8569 32.2613 88.3088 33.1548C88.4335 33.4012 88.3348 33.702 88.0884 33.8266C87.8419 33.9513 87.5411 33.8525 87.4165 33.6061C86.9816 32.7463 86.4997 31.9142 85.9742 31.1132C85.8227 30.8823 85.8871 30.5723 86.118 30.4208ZM39.7643 36.5204C40.0267 36.6067 40.1694 36.8893 40.0831 37.1516C39.785 38.058 39.536 38.9866 39.3392 39.9344C39.2831 40.2048 39.0184 40.3785 38.748 40.3223C38.4777 40.2662 38.304 40.0015 38.3601 39.7311C38.5646 38.7462 38.8234 37.7811 39.1332 36.8392C39.2194 36.5769 39.502 36.4341 39.7643 36.5204ZM89.2054 36.5204C89.4678 36.4342 89.7504 36.5769 89.8366 36.8392C90.1464 37.7811 90.4052 38.7462 90.6097 39.7311C90.6658 40.0015 90.4921 40.2662 90.2218 40.3223C89.9514 40.3785 89.6867 40.2048 89.6306 39.9344C89.4338 38.9866 89.1848 38.058 88.8867 37.1516C88.8004 36.8893 88.9431 36.6067 89.2054 36.5204ZM38.3709 43.2141C38.6466 43.2293 38.8577 43.4652 38.8425 43.7409C38.8161 44.2179 38.8027 44.6985 38.8027 45.1822C38.8027 45.6659 38.8161 46.1464 38.8425 46.6234C38.8577 46.8991 38.6466 47.135 38.3708 47.1502C38.0951 47.1655 37.8593 46.9543 37.844 46.6786C37.8166 46.1832 37.8027 45.6843 37.8027 45.1822C37.8027 44.68 37.8166 44.1811 37.844 43.6857C37.8593 43.41 38.0951 43.1988 38.3709 43.2141ZM90.5989 43.2141C90.8747 43.1988 91.1105 43.41 91.1258 43.6857C91.1532 44.1811 91.1671 44.68 91.1671 45.1822C91.1671 45.6843 91.1532 46.1832 91.1258 46.6786C91.1105 46.9543 90.8747 47.1655 90.5989 47.1503C90.3232 47.135 90.1121 46.8991 90.1273 46.6234C90.1537 46.1464 90.1671 45.6659 90.1671 45.1822C90.1671 44.6985 90.1537 44.2179 90.1273 43.7409C90.1121 43.4652 90.3232 43.2293 90.5989 43.2141ZM38.748 50.042C39.0184 49.9859 39.2831 50.1595 39.3392 50.4299C39.536 51.3777 39.785 52.3064 40.0831 53.2127C40.1694 53.475 40.0267 53.7576 39.7643 53.8439C39.502 53.9302 39.2194 53.7875 39.1332 53.5251C38.8234 52.5832 38.5646 51.6181 38.3601 50.6332C38.304 50.3628 38.4777 50.0981 38.748 50.042ZM90.2218 50.042C90.4921 50.0981 90.6658 50.3628 90.6097 50.6332C90.4052 51.6181 90.1464 52.5832 89.8366 53.5251C89.7504 53.7875 89.4678 53.9302 89.2054 53.8439C88.9431 53.7576 88.8004 53.475 88.8867 53.2127C89.1848 52.3064 89.4338 51.3777 89.6306 50.4299C89.6867 50.1595 89.9514 49.9859 90.2218 50.042ZM40.8814 56.5377C41.1278 56.4131 41.4286 56.5118 41.5533 56.7582C41.9882 57.618 42.4701 58.4502 42.9956 59.2512C43.1471 59.482 43.0827 59.792 42.8518 59.9435C42.6209 60.095 42.311 60.0306 42.1595 59.7997C41.6136 58.9676 41.1129 58.103 40.6609 57.2096C40.5363 56.9631 40.635 56.6623 40.8814 56.5377ZM88.0884 56.5377C88.3348 56.6624 88.4335 56.9632 88.3088 57.2096C87.8569 58.103 87.3562 58.9676 86.8103 59.7997C86.6588 60.0306 86.3489 60.095 86.118 59.9435C85.8871 59.792 85.8227 59.482 85.9742 59.2512C86.4997 58.4502 86.9816 57.618 87.4165 56.7582C87.5411 56.5118 87.8419 56.4131 88.0884 56.5377ZM44.6288 62.2559C44.8346 62.0718 45.1507 62.0895 45.3348 62.2953C45.9753 63.0116 46.6555 63.6917 47.3717 64.3323C47.5776 64.5163 47.5952 64.8324 47.4111 65.0383C47.2271 65.2441 46.911 65.2617 46.7051 65.0777C45.9611 64.4123 45.2547 63.7059 44.5894 62.9619C44.4053 62.7561 44.4229 62.44 44.6288 62.2559ZM84.341 62.2559C84.5468 62.44 84.5645 62.7561 84.3804 62.9619C83.7151 63.7059 83.0086 64.4124 82.2646 65.0777C82.0588 65.2618 81.7427 65.2441 81.5586 65.0383C81.3746 64.8324 81.3922 64.5163 81.598 64.3323C82.3143 63.6917 82.9944 63.0116 83.635 62.2953C83.8191 62.0895 84.1352 62.0718 84.341 62.2559ZM49.7236 66.8152C49.875 66.5843 50.185 66.52 50.4159 66.6714C51.2169 67.1969 52.049 67.6788 52.9089 68.1138C53.1553 68.2384 53.254 68.5392 53.1293 68.7856C53.0047 69.032 52.7039 69.1308 52.4575 69.0061C51.564 68.5542 50.6995 68.0535 49.8674 67.5076C49.6365 67.3561 49.5721 67.0461 49.7236 66.8152ZM79.2462 66.8152C79.3977 67.0461 79.3333 67.3561 79.1024 67.5076C78.2703 68.0535 77.4057 68.5542 76.5123 69.0061C76.2659 69.1308 75.9651 69.032 75.8404 68.7856C75.7158 68.5392 75.8145 68.2384 76.0609 68.1138C76.9208 67.6788 77.7529 67.1969 78.5539 66.6714C78.7848 66.52 79.0947 66.5843 79.2462 66.8152ZM55.8232 69.9027C55.9094 69.6404 56.192 69.4977 56.4543 69.584C57.3607 69.8821 58.2893 70.1311 59.2371 70.3278C59.5075 70.384 59.6812 70.6486 59.6251 70.919C59.5689 71.1894 59.3042 71.3631 59.0339 71.3069C58.0489 71.1025 57.0838 70.8437 56.1419 70.5339C55.8796 70.4476 55.7369 70.165 55.8232 69.9027ZM73.1466 69.9027C73.2329 70.165 73.0902 70.4476 72.8279 70.5339C71.8859 70.8437 70.9209 71.1025 69.9359 71.307C69.6655 71.3631 69.4009 71.1894 69.3447 70.919C69.2886 70.6486 69.4623 70.384 69.7327 70.3278C70.6805 70.1311 71.6091 69.8821 72.5154 69.584C72.7778 69.4977 73.0603 69.6404 73.1466 69.9027ZM62.5168 71.2962C62.532 71.0205 62.7679 70.8093 63.0436 70.8246C63.5207 70.851 64.0012 70.8643 64.4849 70.8643C64.9686 70.8643 65.4491 70.851 65.9261 70.8246C66.2019 70.8093 66.4377 71.0205 66.453 71.2962C66.4682 71.5719 66.2571 71.8078 65.9814 71.823C65.486 71.8504 64.987 71.8643 64.4849 71.8643C63.9828 71.8643 63.4838 71.8504 62.9884 71.823C62.7127 71.8078 62.5016 71.5719 62.5168 71.2962Z" fill="#6A6A6A"/>
<circle cx="64.4842" cy="45.1736" r="19.8924" fill="white"/>
<path fill-rule="evenodd" clip-rule="evenodd" d="M69.3944 62.3839C67.8341 62.8281 66.1869 63.066 64.4842 63.066C60.7898 63.066 57.357 61.9464 54.5065 60.0279L61.3452 56.0679C64.0337 59.1756 66.8721 61.3944 69.3944 62.3839ZM71.0146 61.8368C70.9475 61.8226 70.8796 61.8071 70.811 61.7903C69.5635 61.4853 68.1342 60.7719 66.6128 59.6602C65.1709 58.6066 63.6814 57.2209 62.2266 55.5575L74.4282 48.4922C75.1447 50.5902 75.602 52.579 75.794 54.3595C75.9961 56.2328 75.8992 57.8274 75.5396 59.0602C75.5156 59.1426 75.4905 59.2231 75.4643 59.3017C74.121 60.3472 72.6247 61.2053 71.0146 61.8368ZM76.7514 58.1987C80.2146 54.9359 82.3765 50.3072 82.3765 45.1736C82.3765 44.7505 82.3619 44.3308 82.333 43.915L75.3099 47.9816C76.6737 51.9046 77.1755 55.5076 76.7514 58.1987ZM82.2235 42.8228C81.5885 37.9844 79.0203 33.7546 75.32 30.9344L68.0949 35.1181C69.4637 36.7953 70.7821 38.7003 71.9866 40.7865C73.1982 42.8851 74.1933 44.9917 74.9633 47.0268L82.2235 42.8228ZM74.4269 30.2959L67.4425 34.3403C64.7673 31.2376 61.9412 29.0145 59.4241 28.0068C61.0286 27.5346 62.7268 27.2812 64.4842 27.2812C68.1634 27.2812 71.5833 28.3918 74.4269 30.2959ZM53.2177 31.2731C54.605 30.1473 56.164 29.2251 57.8495 28.5517C57.8787 28.5585 57.9081 28.5654 57.9376 28.5727C59.1851 28.8777 60.6144 29.5911 62.1358 30.7027C63.5908 31.7659 65.0941 33.1671 66.5614 34.8505L54.3399 41.9274C53.6122 39.8086 53.1484 37.8 52.9546 36.0035C52.7526 34.1301 52.8494 32.5356 53.209 31.3027C53.2119 31.2928 53.2148 31.2829 53.2177 31.2731ZM53.888 28.3352C48.3024 31.8576 44.5918 38.0823 44.5918 45.1736C44.5918 56.1599 53.4979 65.066 64.4842 65.066C75.4704 65.066 84.3765 56.1599 84.3765 45.1736C84.3765 34.1874 75.4704 25.2812 64.4842 25.2812C61.0392 25.2812 57.7988 26.157 54.9734 27.6979C54.7864 27.7709 54.6054 27.8576 54.4306 27.9585C54.2389 28.0692 54.058 28.1951 53.888 28.3352ZM51.9639 32.3916C51.6 35.0699 52.118 38.6025 53.4584 42.4378L46.6325 46.3903C46.6055 45.9883 46.5918 45.5825 46.5918 45.1736C46.5918 40.1662 48.6488 35.6393 51.9639 32.3916ZM46.7396 47.4839C47.3637 52.325 49.9226 56.56 53.6159 59.3881L60.6914 55.291C59.3092 53.6026 57.9776 51.6818 56.762 49.5764C55.5615 47.497 54.5735 45.4096 53.8065 43.3918L46.7396 47.4839ZM71.1206 41.2865C72.3395 43.3977 73.3297 45.509 74.0859 47.5348L61.5685 54.7831C60.1879 53.1118 58.8505 51.1937 57.6281 49.0764C56.4204 46.9846 55.4372 44.8927 54.6836 42.8839L67.218 35.6258C68.5852 37.2863 69.9094 39.1886 71.1206 41.2865Z" fill="#6A6A6A"/>
<rect x="38.0078" y="57.4492" width="10.3408" height="9.30676" rx="2" fill="white"/>
<path fill-rule="evenodd" clip-rule="evenodd" d="M46.3487 59.4502H40.0078L40.0078 64.757L46.3487 64.757L46.3487 59.4502ZM40.0078 57.4502C38.9032 57.4502 38.0078 58.3456 38.0078 59.4502V64.757C38.0078 65.8615 38.9032 66.757 40.0078 66.757H46.3487C47.4532 66.757 48.3487 65.8615 48.3487 64.757V59.4502C48.3487 58.3456 47.4532 57.4502 46.3487 57.4502H40.0078Z" fill="#6A6A6A"/>
<circle cx="40.6147" cy="30.7826" r="6.20451" fill="white"/>
<path fill-rule="evenodd" clip-rule="evenodd" d="M40.6138 34.9871C42.9359 34.9871 44.8183 33.1047 44.8183 30.7826C44.8183 28.4605 42.9359 26.5781 40.6138 26.5781C38.2918 26.5781 36.4093 28.4605 36.4093 30.7826C36.4093 33.1047 38.2918 34.9871 40.6138 34.9871ZM40.6138 36.9871C44.0405 36.9871 46.8183 34.2093 46.8183 30.7826C46.8183 27.356 44.0405 24.5781 40.6138 24.5781C37.1872 24.5781 34.4093 27.356 34.4093 30.7826C34.4093 34.2093 37.1872 36.9871 40.6138 36.9871Z" fill="#6A6A6A"/>
<path fill-rule="evenodd" clip-rule="evenodd" d="M93.7851 55.7341C92.8602 54.8834 91.7497 54.2316 90.5213 53.8462C89.8905 54.5683 88.9629 55.0244 87.9288 55.0244C86.8945 55.0244 85.9667 54.5681 85.3359 53.8457C84.1075 54.2308 82.997 54.8823 82.0721 55.7325C82.381 56.6392 82.312 57.6695 81.7954 58.5643C81.2783 59.4598 80.4196 60.035 79.4789 60.2202C79.344 60.8272 79.2729 61.4582 79.2729 62.1058C79.2729 62.7533 79.344 63.3843 79.4789 63.9913C80.4189 64.1769 81.277 64.752 81.7937 65.647C82.3101 66.5414 82.3793 67.5713 82.0707 68.4778C82.9963 69.329 84.1078 69.9811 85.3374 70.3663C85.9682 69.6449 86.8953 69.1892 87.9288 69.1892C88.9621 69.1892 89.889 69.6447 90.5198 70.3657C91.7489 69.9804 92.8601 69.3283 93.7853 68.4772C93.4784 67.5717 93.5482 66.5436 94.0638 65.6506C94.5799 64.7565 95.4368 64.1817 96.3756 63.9955C96.5111 63.3872 96.5826 62.7548 96.5826 62.1058C96.5826 61.4582 96.5114 60.8272 96.3766 60.2202C95.4367 60.0345 94.5788 59.4595 94.0622 58.5646C93.5458 57.6703 93.4766 56.6405 93.7851 55.7341Z" fill="white"/>
<path fill-rule="evenodd" clip-rule="evenodd" d="M87.9288 56.7244C89.0219 56.7244 90.0361 56.3822 90.8688 55.8011C91.2375 55.9735 91.5888 56.1774 91.9194 56.4095C91.833 57.4204 92.0438 58.4688 92.5899 59.4146C93.1359 60.3602 93.9381 61.0669 94.8564 61.4976C94.8737 61.6977 94.8826 61.9006 94.8826 62.1058C94.8826 62.3125 94.8736 62.5169 94.856 62.7186C93.9386 63.1493 93.1371 63.8557 92.5915 64.8006C92.0463 65.745 91.8352 66.7917 91.9206 67.8011C91.5891 68.034 91.2367 68.2385 90.8669 68.4113C90.0346 67.8309 89.0211 67.4892 87.9288 67.4892C86.8361 67.4892 85.8223 67.8312 84.9899 68.4119C84.6202 68.2393 84.2679 68.0349 83.9365 67.8022C84.0229 66.7914 83.8121 65.7429 83.266 64.797C82.7199 63.8512 81.9175 63.1445 80.999 62.7138C80.9818 62.5137 80.9729 62.3109 80.9729 62.1058C80.9729 61.9008 80.9817 61.6981 80.999 61.4982C81.9182 61.0676 82.7212 60.3606 83.2676 59.4143C83.8139 58.4681 84.0247 57.4193 83.9381 56.4082C84.2684 56.1763 84.6196 55.9727 84.988 55.8005C85.8208 56.382 86.8353 56.7244 87.9288 56.7244ZM96.5826 62.1058C96.5826 61.4582 96.5114 60.8272 96.3766 60.2202C95.4367 60.0345 94.5788 59.4595 94.0622 58.5646C93.5458 57.6703 93.4766 56.6405 93.7851 55.7341C92.8602 54.8834 91.7497 54.2316 90.5213 53.8462C89.8905 54.5683 88.9629 55.0244 87.9288 55.0244C86.8945 55.0244 85.9667 54.5681 85.3359 53.8457C84.1075 54.2308 82.997 54.8823 82.0721 55.7325C82.381 56.6392 82.312 57.6695 81.7954 58.5643C81.2783 59.4598 80.4196 60.035 79.4789 60.2202C79.344 60.8272 79.2729 61.4582 79.2729 62.1058C79.2729 62.7533 79.344 63.3843 79.4789 63.9913C80.4189 64.1769 81.277 64.752 81.7937 65.647C82.3101 66.5414 82.3793 67.5713 82.0707 68.4778C82.9963 69.329 84.1078 69.9811 85.3374 70.3663C85.9682 69.6449 86.8953 69.1892 87.9288 69.1892C88.9621 69.1892 89.889 69.6447 90.5198 70.3657C91.7489 69.9804 92.8601 69.3283 93.7853 68.4772C93.4784 67.5717 93.5482 66.5436 94.0638 65.6506C94.5799 64.7565 95.4368 64.1817 96.3756 63.9955C96.5111 63.3872 96.5826 62.7548 96.5826 62.1058ZM89.9219 62.1051C89.9219 63.2059 89.0296 64.0982 87.9288 64.0982C86.8281 64.0982 85.9358 63.2059 85.9358 62.1051C85.9358 61.0044 86.8281 60.1121 87.9288 60.1121C89.0296 60.1121 89.9219 61.0044 89.9219 62.1051ZM91.6219 62.1051C91.6219 64.1447 89.9684 65.7982 87.9288 65.7982C85.8892 65.7982 84.2358 64.1447 84.2358 62.1051C84.2358 60.0655 85.8892 58.4121 87.9288 58.4121C89.9684 58.4121 91.6219 60.0655 91.6219 62.1051Z" fill="#6A6A6A"/>
<path d="M56.2945 83.7955C56.4719 82.8495 57.2978 82.1641 58.2602 82.1641H71.7405C72.703 82.1641 73.5289 82.8495 73.7063 83.7955L76.3867 98.0913C76.3958 98.1397 76.4013 98.1888 76.4032 98.2381L76.9226 112.089C76.9651 113.222 76.058 114.164 74.924 114.164H55.0768C53.9428 114.164 53.0357 113.222 53.0782 112.089L53.5948 98.3121C53.5985 98.2135 53.6095 98.1154 53.6277 98.0185L56.2945 83.7955Z" fill="white"/>
<path fill-rule="evenodd" clip-rule="evenodd" d="M71.7406 84.1641H58.2603L55.5935 98.387L55.0768 112.164L74.924 112.164L74.4074 98.3871L71.7406 84.1641ZM58.2603 82.1641C57.2978 82.1641 56.4719 82.8495 56.2945 83.7955L53.6277 98.0185C53.6095 98.1154 53.5986 98.2135 53.5949 98.3121L53.0782 112.089C53.0357 113.222 53.9429 114.164 55.0768 114.164H64.0004V121.285H58.5004C57.9481 121.285 57.5004 121.733 57.5004 122.285C57.5004 122.837 57.9481 123.285 58.5004 123.285H71.5004C72.0527 123.285 72.5004 122.837 72.5004 122.285C72.5004 121.733 72.0527 121.285 71.5004 121.285H66.0004V114.164H74.924C76.058 114.164 76.9651 113.222 76.9226 112.089L76.4032 98.2381C76.4013 98.1888 76.3958 98.1397 76.3868 98.0913L73.7063 83.7955C73.5289 82.8495 72.703 82.1641 71.7406 82.1641H58.2603Z" fill="#6A6A6A"/>
</g>
<defs>
<clipPath id="clip0_2504_13179">
<rect width="130" height="130" fill="white"/>
</clipPath>
</defs>
</svg>
