<?xml version="1.0" encoding="utf-8"?>
<!--
  Copyright 2023-2025 Solace Systems. All rights reserved.

  Licensed under the Apache License, Version 2.0 (the "License");
  you may not use this file except in compliance with the License.
  You may obtain a copy of the License at

      http://www.apache.org/licenses/LICENSE-2.0

  Unless required by applicable law or agreed to in writing, software
  distributed under the License is distributed on an "AS IS" BASIS,
  WITHOUT WARRANTIES OR CONDITIONS OF ANY KIND, either express or implied.
  See the License for the specific language governing permissions and
  limitations under the License.
-->
<svg width="48" height="48" viewBox="0 0 48 48" fill="none" xmlns="http://www.w3.org/2000/svg">
<path fill-rule="evenodd" clip-rule="evenodd" d="M8.00098 34.5V38.5H13.001V34.5H8.00098ZM7.64205 33.5C7.288 33.5 7.00098 33.787 7.00098 34.1411V38.8589C7.00098 39.213 7.288 39.5 7.64205 39.5H13.3599C13.714 39.5 14.001 39.213 14.001 38.8589V34.1411C14.001 33.787 13.714 33.5 13.3599 33.5H7.64205Z" fill="#6A6A6A"/>
<path fill-rule="evenodd" clip-rule="evenodd" d="M18.001 30.5V38.5H23.001V30.5H18.001ZM17.6421 29.5C17.288 29.5 17.001 29.787 17.001 30.1411V38.8589C17.001 39.213 17.288 39.5 17.6421 39.5H23.3599C23.714 39.5 24.001 39.213 24.001 38.8589V30.1411C24.001 29.787 23.714 29.5 23.3599 29.5H17.6421Z" fill="#6A6A6A"/>
<path fill-rule="evenodd" clip-rule="evenodd" d="M28.0007 25.5V38.5H33.0007V25.5H28.0007ZM27.6418 24.5C27.2878 24.5 27.0007 24.787 27.0007 25.1411V38.8589C27.0007 39.213 27.2878 39.5 27.6418 39.5H33.3597C33.7137 39.5 34.0007 39.213 34.0007 38.8589V25.1411C34.0007 24.787 33.7137 24.5 33.3597 24.5H27.6418Z" fill="#6A6A6A"/>
<path fill-rule="evenodd" clip-rule="evenodd" d="M38.0007 20.5V38.5H43.0007V20.5H38.0007ZM37.5007 19.5C37.2246 19.5 37.0007 19.7239 37.0007 20V39C37.0007 39.2761 37.2246 39.5 37.5007 39.5H43.5007C43.7769 39.5 44.0007 39.2761 44.0007 39V20C44.0007 19.7239 43.7769 19.5 43.5007 19.5H37.5007Z" fill="#6A6A6A"/>
<path d="M43.9995 14.5C43.9995 16.433 42.4325 18 40.4995 18C38.5665 18 36.9995 16.433 36.9995 14.5C36.9995 12.567 38.5665 11 40.4995 11C42.4325 11 43.9995 12.567 43.9995 14.5Z" fill="#00C895"/>
<path fill-rule="evenodd" clip-rule="evenodd" d="M40.4995 17.3589C42.0785 17.3589 43.3584 16.0789 43.3584 14.5C43.3584 12.9211 42.0785 11.6411 40.4995 11.6411C38.9206 11.6411 37.6406 12.9211 37.6406 14.5C37.6406 16.0789 38.9206 17.3589 40.4995 17.3589ZM40.4995 18C42.4325 18 43.9995 16.433 43.9995 14.5C43.9995 12.567 42.4325 11 40.4995 11C38.5665 11 36.9995 12.567 36.9995 14.5C36.9995 16.433 38.5665 18 40.4995 18Z" fill="#00C895"/>
<path fill-rule="evenodd" clip-rule="evenodd" d="M36.0576 14.4668C36.0759 14.6037 35.9799 14.7295 35.843 14.7478C35.5728 14.784 35.3172 14.8519 35.075 14.9472C34.9465 14.9978 34.8014 14.9346 34.7508 14.8061C34.7003 14.6776 34.7635 14.5325 34.8919 14.4819C35.1708 14.3722 35.4655 14.2939 35.7766 14.2522C35.9134 14.2339 36.0393 14.33 36.0576 14.4668ZM33.751 15.4858C33.8482 15.5838 33.8475 15.7421 33.7494 15.8393C33.3755 16.21 33.0433 16.6544 32.7485 17.144C32.6772 17.2623 32.5236 17.3004 32.4053 17.2292C32.2871 17.1579 32.2489 17.0043 32.3201 16.886C32.6309 16.37 32.9876 15.8905 33.3974 15.4842C33.4955 15.387 33.6538 15.3877 33.751 15.4858ZM31.8685 18.3141C31.9961 18.367 32.0566 18.5133 32.0037 18.6408C31.7843 19.1699 31.598 19.7093 31.4396 20.2293C31.3993 20.3614 31.2596 20.4358 31.1276 20.3956C30.9955 20.3553 30.921 20.2156 30.9613 20.0836C31.1233 19.5517 31.3149 18.9965 31.5419 18.4493C31.5947 18.3218 31.741 18.2612 31.8685 18.3141ZM30.8168 21.567C30.9512 21.5984 31.0348 21.7329 31.0034 21.8673C30.9318 22.1738 30.8713 22.4532 30.8196 22.6957C30.8018 22.7794 30.7661 22.8549 30.7174 22.9189C30.6647 22.9882 30.5829 23.0223 30.5021 23.0171C30.4631 23.0868 30.3915 23.1366 30.3059 23.1442C30.2284 23.1511 30.1482 23.1427 30.0702 23.117C29.7398 23.0083 29.4216 22.9173 29.115 22.8427C28.9808 22.81 28.8986 22.6748 28.9312 22.5407C28.9639 22.4065 29.0991 22.3242 29.2332 22.3569C29.5533 22.4348 29.8843 22.5295 30.2264 22.642C30.2384 22.646 30.2503 22.6472 30.2618 22.6462C30.2748 22.645 30.2875 22.6449 30.3001 22.6457C30.3058 22.6356 30.3122 22.6257 30.3194 22.6162C30.3246 22.6094 30.3285 22.6014 30.3306 22.5916C30.3825 22.3477 30.4439 22.0647 30.5165 21.7537C30.5479 21.6192 30.6823 21.5357 30.8168 21.567ZM27.1714 22.5716C26.4528 22.5549 25.8169 22.6442 25.2527 22.8115C25.1203 22.8508 24.9812 22.7753 24.9419 22.6429C24.9027 22.5105 24.9782 22.3714 25.1105 22.3321C25.7274 22.1492 26.4154 22.0539 27.183 22.0717C27.321 22.0749 27.4303 22.1894 27.4271 22.3275C27.4239 22.4655 27.3094 22.5748 27.1714 22.5716ZM23.5894 23.33C23.673 23.4399 23.6516 23.5967 23.5417 23.6803C23.0123 24.0828 22.5724 24.5667 22.2041 25.0828C22.1238 25.1951 21.9677 25.2212 21.8553 25.141C21.743 25.0608 21.7169 24.9046 21.7971 24.7923C22.1887 24.2438 22.6623 23.7208 23.2391 23.2823C23.349 23.1987 23.5059 23.22 23.5894 23.33ZM21.1143 26.4686C21.2404 26.5248 21.2971 26.6726 21.2409 26.7987C21.0978 27.1198 20.975 27.4306 20.8681 27.7192C20.8375 27.8017 20.7898 27.8731 20.7305 27.9308C20.666 27.9935 20.5764 28.0144 20.4951 27.994C20.4457 28.0606 20.3643 28.1012 20.2755 28.0945C20.1953 28.0885 20.1149 28.0661 20.0398 28.0261C19.7454 27.8691 19.452 27.7383 19.1606 27.6314C19.031 27.5838 18.9645 27.4401 19.012 27.3105C19.0596 27.1809 19.2032 27.1144 19.3329 27.162C19.6462 27.277 19.9607 27.4173 20.2751 27.5849C20.2874 27.5915 20.3002 27.595 20.3128 27.5959C20.3274 27.597 20.3416 27.5993 20.3553 27.6028C20.3632 27.5921 20.3721 27.5819 20.3819 27.5724C20.3891 27.5653 20.3951 27.5566 20.3992 27.5455C20.5088 27.2498 20.6356 26.9286 20.7842 26.5952C20.8404 26.4691 20.9882 26.4124 21.1143 26.4686ZM17.284 27.2485C16.6236 27.2173 15.9841 27.2932 15.3794 27.4493C15.2457 27.4839 15.1094 27.4035 15.0748 27.2698C15.0403 27.1361 15.1207 26.9997 15.2544 26.9652C15.9038 26.7975 16.5935 26.7153 17.3075 26.749C17.4455 26.7555 17.552 26.8726 17.5455 27.0105C17.539 27.1484 17.4219 27.255 17.284 27.2485ZM13.6909 27.8391C13.7597 27.9588 13.7184 28.1116 13.5987 28.1804C13.0121 28.5174 12.4934 28.9205 12.0644 29.3479C11.9666 29.4453 11.8083 29.445 11.7109 29.3472C11.6134 29.2494 11.6137 29.0911 11.7115 28.9936C12.1712 28.5357 12.7248 28.1058 13.3496 27.7469C13.4693 27.6781 13.6221 27.7194 13.6909 27.8391ZM10.8317 30.5568C10.9581 30.6122 11.0156 30.7597 10.9602 30.8861C10.8197 31.2064 10.751 31.4996 10.751 31.75C10.751 31.8881 10.639 32 10.501 32C10.3629 32 10.251 31.8881 10.251 31.75C10.251 31.4121 10.3425 31.0495 10.5023 30.6853C10.5578 30.5588 10.7052 30.5013 10.8317 30.5568Z" fill="#6A6A6A"/>
<path fill-rule="evenodd" clip-rule="evenodd" d="M4.49951 8.5C4.77565 8.5 4.99951 8.72386 4.99951 9V38.5H42.9995C43.2757 38.5 43.4995 38.7239 43.4995 39C43.4995 39.2761 43.2757 39.5 42.9995 39.5H4.99951C4.44723 39.5 3.99951 39.0523 3.99951 38.5V9C3.99951 8.72386 4.22337 8.5 4.49951 8.5Z" fill="#6A6A6A"/>
</svg>