<?xml version="1.0" encoding="utf-8"?>
<!--
  Copyright 2023-2025 Solace Systems. All rights reserved.

  Licensed under the Apache License, Version 2.0 (the "License");
  you may not use this file except in compliance with the License.
  You may obtain a copy of the License at

      http://www.apache.org/licenses/LICENSE-2.0

  Unless required by applicable law or agreed to in writing, software
  distributed under the License is distributed on an "AS IS" BASIS,
  WITHOUT WARRANTIES OR CONDITIONS OF ANY KIND, either express or implied.
  See the License for the specific language governing permissions and
  limitations under the License.
-->
<svg width="49" height="49" viewBox="0 0 49 49" fill="none" xmlns="http://www.w3.org/2000/svg">
<path d="M5.98193 10.4917C5.98193 9.93941 6.42965 9.4917 6.98193 9.4917H42.9819C43.5342 9.4917 43.9819 9.93941 43.9819 10.4917V37.4917C43.9819 38.044 43.5342 38.4917 42.9819 38.4917H6.98193C6.42965 38.4917 5.98193 38.044 5.98193 37.4917V10.4917Z" fill="white"/>
<path fill-rule="evenodd" clip-rule="evenodd" d="M42.9819 10.4917H6.98193V37.4917H42.9819V10.4917ZM6.98193 9.4917C6.42965 9.4917 5.98193 9.93941 5.98193 10.4917V37.4917C5.98193 38.044 6.42965 38.4917 6.98193 38.4917H42.9819C43.5342 38.4917 43.9819 38.044 43.9819 37.4917V10.4917C43.9819 9.93941 43.5342 9.4917 42.9819 9.4917H6.98193Z" fill="#6A6A6A"/>
<path fill-rule="evenodd" clip-rule="evenodd" d="M30.4746 43.4717L28.4872 37.9144L29.4441 37.624L31.4315 43.1813C31.5245 43.4414 31.3856 43.7171 31.1214 43.7973C30.8572 43.8775 30.5676 43.7317 30.4746 43.4717Z" fill="#6A6A6A"/>
<path fill-rule="evenodd" clip-rule="evenodd" d="M19.4876 43.4717L21.475 37.9144L20.5181 37.624L18.5307 43.1813C18.4377 43.4414 18.5765 43.7171 18.8408 43.7973C19.105 43.8775 19.3946 43.7317 19.4876 43.4717Z" fill="#6A6A6A"/>
<path fill-rule="evenodd" clip-rule="evenodd" d="M10.0029 25.4692H10.5029V26.4692C10.5029 26.7454 10.7268 26.9692 11.0029 26.9692H12.0029V27.4692H11.0029C10.4506 27.4692 10.0029 27.0215 10.0029 26.4692V25.4692ZM10.0029 23.4692H10.5029V21.4692H10.0029V23.4692ZM10.0029 19.4692H10.5029V17.4692H10.0029V19.4692ZM10.0029 15.4692H10.5029V14.4692C10.5029 14.1931 10.7268 13.9692 11.0029 13.9692H12.0029V13.4692H11.0029C10.4506 13.4692 10.0029 13.917 10.0029 14.4692V15.4692ZM14.0029 13.4692V13.9692H16.0029V13.4692H14.0029ZM18.0029 13.4692V13.9692H20.0029V13.4692H18.0029ZM22.0029 13.4692V13.9692H23.0029C23.2791 13.9692 23.5029 14.1931 23.5029 14.4692V15.4692H24.0029V14.4692C24.0029 13.917 23.5552 13.4692 23.0029 13.4692H22.0029ZM24.0029 17.4692H23.5029V19.4692H24.0029V17.4692ZM24.0029 21.4692H23.5029V23.4692H24.0029V21.4692ZM16.0029 27.4692V26.9692H14.0029V27.4692H16.0029Z" fill="#6A6A6A"/>
<path d="M20.5029 20.4692C20.5029 22.4022 18.9359 23.9692 17.0029 23.9692C15.0699 23.9692 13.5029 22.4022 13.5029 20.4692C13.5029 18.5362 15.0699 16.9692 17.0029 16.9692C18.9359 16.9692 20.5029 18.5362 20.5029 20.4692Z" fill="#00C895"/>
<path fill-rule="evenodd" clip-rule="evenodd" d="M21.6751 29.0371L24.0429 32.8147L24.7894 32.4177L22.4216 28.6401L25.0173 27.2597L18.6997 23.5128L19.227 22.6986L25.5446 26.4456C26.2136 26.8424 26.2157 27.7521 25.5484 28.107L23.8356 29.0179L25.6723 31.9482C25.9656 32.4161 25.8081 33.0057 25.3204 33.265L24.574 33.662C24.0863 33.9213 23.4533 33.7522 23.16 33.2842L21.3233 30.354L19.4598 31.345C18.7852 31.7037 17.9231 31.2333 17.8989 30.4931L17.6698 23.5082C17.6448 22.7432 18.5279 22.284 19.227 22.6986L18.6997 23.5128L18.9287 30.4976L21.6751 29.0371Z" fill="#6A6A6A"/>
<path fill-rule="evenodd" clip-rule="evenodd" d="M35.501 22.9692C36.8817 22.9692 38.001 21.85 38.001 20.4692C38.001 19.0885 36.8817 17.9692 35.501 17.9692C34.1203 17.9692 33.001 19.0885 33.001 20.4692C33.001 21.85 34.1203 22.9692 35.501 22.9692ZM35.501 23.9692C37.434 23.9692 39.001 22.4022 39.001 20.4692C39.001 18.5362 37.434 16.9692 35.501 16.9692C33.568 16.9692 32.001 18.5362 32.001 20.4692C32.001 22.4022 33.568 23.9692 35.501 23.9692Z" fill="#6A6A6A"/>
<path fill-rule="evenodd" clip-rule="evenodd" d="M23.2446 20.4692C23.2446 20.3312 23.3566 20.2192 23.4946 20.2192L30.0608 20.2192L30.0608 20.7192L23.4946 20.7192C23.3566 20.7192 23.2446 20.6073 23.2446 20.4692Z" fill="#6A6A6A"/>
<path fill-rule="evenodd" clip-rule="evenodd" d="M27.3403 17.7486C27.4379 17.6509 27.5962 17.6509 27.6939 17.7486L30.2376 20.2923C30.3353 20.3899 30.3353 20.5482 30.2376 20.6459C30.14 20.7435 29.9817 20.7435 29.8841 20.6459L27.3403 18.1021C27.2427 18.0045 27.2427 17.8462 27.3403 17.7486Z" fill="#6A6A6A"/>
<path fill-rule="evenodd" clip-rule="evenodd" d="M27.3404 23.19C27.2427 23.0923 27.2427 22.934 27.3404 22.8364L29.8841 20.2927C29.9817 20.195 30.14 20.195 30.2377 20.2927C30.3353 20.3903 30.3353 20.5486 30.2377 20.6462L27.6939 23.19C27.5963 23.2876 27.438 23.2876 27.3404 23.19Z" fill="#6A6A6A"/>
<path d="M4.98193 35.5068C4.98193 34.9546 5.42965 34.5068 5.98193 34.5068H43.9819C44.5342 34.5068 44.9819 34.9546 44.9819 35.5068V37.5068C44.9819 38.0591 44.5342 38.5068 43.9819 38.5068H5.98193C5.42965 38.5068 4.98193 38.0591 4.98193 37.5068V35.5068Z" fill="white"/>
<path fill-rule="evenodd" clip-rule="evenodd" d="M43.9819 35.5068H5.98193L5.98193 37.5068H43.9819V35.5068ZM5.98193 34.5068C5.42965 34.5068 4.98193 34.9546 4.98193 35.5068V37.5068C4.98193 38.0591 5.42965 38.5068 5.98193 38.5068H43.9819C44.5342 38.5068 44.9819 38.0591 44.9819 37.5068V35.5068C44.9819 34.9546 44.5342 34.5068 43.9819 34.5068H5.98193Z" fill="#6A6A6A"/>
</svg>