<!--
 Copyright 2023-2025 Solace Systems. All rights reserved.

 Licensed under the Apache License, Version 2.0 (the "License");
 you may not use this file except in compliance with the License.
 You may obtain a copy of the License at

     http://www.apache.org/licenses/LICENSE-2.0

 Unless required by applicable law or agreed to in writing, software
 distributed under the License is distributed on an "AS IS" BASIS,
 WITHOUT WARRANTIES OR CONDITIONS OF ANY KIND, either express or implied.
 See the License for the specific language governing permissions and
 limitations under the License.
-->
<svg width="49" height="49" viewBox="0 0 49 49" fill="none" xmlns="http://www.w3.org/2000/svg">
<path d="M38.9226 24.8398C38.9226 31.4673 33.55 36.8398 26.9226 36.8398C20.2952 36.8398 14.9226 31.4673 14.9226 24.8398C14.9226 18.2124 20.2952 12.8398 26.9226 12.8398C33.55 12.8398 38.9226 18.2124 38.9226 24.8398Z" fill="white"/>
<path fill-rule="evenodd" clip-rule="evenodd" d="M26.9226 35.8398C32.9977 35.8398 37.9226 30.915 37.9226 24.8398C37.9226 18.7647 32.9977 13.8398 26.9226 13.8398C20.8475 13.8398 15.9226 18.7647 15.9226 24.8398C15.9226 30.915 20.8475 35.8398 26.9226 35.8398ZM26.9226 36.8398C33.55 36.8398 38.9226 31.4673 38.9226 24.8398C38.9226 18.2124 33.55 12.8398 26.9226 12.8398C20.2952 12.8398 14.9226 18.2124 14.9226 24.8398C14.9226 31.4673 20.2952 36.8398 26.9226 36.8398Z" fill="#6A6A6A"/>
<path fill-rule="evenodd" clip-rule="evenodd" d="M33.8468 30.3743C33.6013 28.0985 32.6443 25.2708 31.0143 22.4476C29.3843 19.6243 27.414 17.3817 25.5657 16.0312C24.6411 15.3555 23.7665 14.9175 22.9968 14.7293C22.2305 14.5419 21.599 14.6079 21.1067 14.8921C20.6144 15.1764 20.2416 15.6902 20.0207 16.4476C19.7988 17.2083 19.7409 18.1846 19.8637 19.3233C20.1091 21.5991 21.0662 24.4268 22.6961 27.25C24.3261 30.0733 26.2965 32.3159 28.1447 33.6664C29.0694 34.3421 29.9439 34.7801 30.7136 34.9683C31.48 35.1557 32.1114 35.0897 32.6037 34.8055C33.096 34.5212 33.4689 34.0074 33.6897 33.25C33.9116 32.4893 33.9696 31.513 33.8468 30.3743ZM32.8537 35.2385C35.3898 33.7742 34.7602 27.9356 31.4473 22.1976C28.1344 16.4595 23.3929 12.9949 20.8567 14.4591C18.3206 15.9234 18.9503 21.762 22.2631 27.5C25.576 33.2381 30.3176 36.7027 32.8537 35.2385Z" fill="#6A6A6A"/>
<path fill-rule="evenodd" clip-rule="evenodd" d="M34.3082 15.6978L15.3926 26.6509L15.1421 26.2182L34.0576 15.2651L34.3082 15.6978Z" fill="#6A6A6A"/>
<path fill-rule="evenodd" clip-rule="evenodd" d="M38.7833 23.3887L19.8677 34.3418L19.6172 33.9091L38.5327 22.956L38.7833 23.3887Z" fill="#6A6A6A"/>
<path fill-rule="evenodd" clip-rule="evenodd" d="M25.7625 7.11681C26.092 7.09859 26.424 7.08936 26.758 7.08936C27.0921 7.08936 27.4241 7.09859 27.7536 7.11681C27.8915 7.12444 27.9971 7.24237 27.9894 7.38023C27.9818 7.5181 27.8639 7.62367 27.726 7.61605C27.4056 7.59833 27.0829 7.58936 26.758 7.58936C26.4332 7.58936 26.1105 7.59833 25.7901 7.61605C25.6522 7.62367 25.5343 7.5181 25.5267 7.38023C25.519 7.24237 25.6246 7.12444 25.7625 7.11681ZM24.0718 7.54244C24.0947 7.67858 24.003 7.80758 23.8668 7.83055C23.2253 7.93879 22.5959 8.08244 21.9806 8.25942C21.8479 8.29759 21.7094 8.22096 21.6712 8.08826C21.633 7.95557 21.7097 7.81707 21.8424 7.7789C22.4757 7.59675 23.1235 7.44891 23.7837 7.33752C23.9198 7.31454 24.0488 7.40629 24.0718 7.54244ZM29.4443 7.54244C29.4673 7.40629 29.5963 7.31454 29.7324 7.33752C30.3926 7.44891 31.0404 7.59675 31.6737 7.7789C31.8064 7.81707 31.8831 7.95557 31.8449 8.08826C31.8067 8.22096 31.6682 8.29759 31.5355 8.25942C30.9202 8.08244 30.2908 7.93879 29.6493 7.83055C29.5131 7.80758 29.4214 7.67858 29.4443 7.54244ZM20.2902 8.5715C20.3431 8.69904 20.2826 8.84531 20.155 8.8982C19.5565 9.14639 18.975 9.42731 18.4127 9.73875C18.2919 9.80564 18.1398 9.76196 18.0729 9.64117C18.006 9.52039 18.0497 9.36825 18.1704 9.30135C18.7491 8.98087 19.3475 8.69177 19.9635 8.43633C20.091 8.38344 20.2373 8.44396 20.2902 8.5715ZM33.2259 8.5715C33.2788 8.44396 33.4251 8.38344 33.5526 8.43633C34.1686 8.69177 34.767 8.98087 35.3457 9.30135C35.4664 9.36825 35.5101 9.52039 35.4432 9.64117C35.3763 9.76196 35.2242 9.80564 35.1034 9.73875C34.5411 9.42731 33.9596 9.14639 33.3611 8.8982C33.2335 8.84531 33.173 8.69904 33.2259 8.5715ZM16.8344 10.421C16.9144 10.5335 16.888 10.6896 16.7755 10.7696C16.2488 11.1439 15.7441 11.5471 15.2636 11.9768C15.1607 12.0688 15.0026 12.06 14.9106 11.9571C14.8185 11.8542 14.8274 11.6961 14.9303 11.6041C15.4246 11.162 15.9439 10.7472 16.4858 10.362C16.5983 10.282 16.7544 10.3084 16.8344 10.421ZM36.6817 10.421C36.7617 10.3084 36.9178 10.2821 37.0303 10.362C37.5722 10.7472 38.0915 11.162 38.5858 11.6041C38.6887 11.6961 38.6975 11.8542 38.6055 11.9571C38.5135 12.06 38.3554 12.0688 38.2525 11.9768C37.772 11.5471 37.2673 11.1439 36.7406 10.7696C36.6281 10.6896 36.6017 10.5335 36.6817 10.421ZM13.8758 12.9919C13.9787 13.0839 13.9875 13.242 13.8955 13.3449C13.4658 13.8254 13.0626 14.3301 12.6883 14.8568C12.6083 14.9693 12.4522 14.9957 12.3397 14.9157C12.2271 14.8357 12.2007 14.6796 12.2807 14.5671C12.6659 14.0252 13.0807 13.506 13.5228 13.0116C13.6148 12.9087 13.7729 12.8999 13.8758 12.9919ZM11.5599 16.1542C11.6807 16.2211 11.7243 16.3732 11.6574 16.494C11.346 17.0563 11.0651 17.6378 10.8169 18.2363C10.764 18.3639 10.6177 18.4244 10.4902 18.3715C10.3627 18.3186 10.3021 18.1723 10.355 18.0448C10.6105 17.4288 10.8996 16.8304 11.22 16.2517C11.2869 16.131 11.4391 16.0873 11.5599 16.1542ZM41.9562 16.1542C42.077 16.0873 42.2292 16.131 42.2961 16.2517C42.6165 16.8304 42.9056 17.4288 43.1611 18.0448C43.214 18.1723 43.1534 18.3186 43.0259 18.3715C42.8984 18.4244 42.7521 18.3639 42.6992 18.2363C42.451 17.6378 42.1701 17.0563 41.8587 16.494C41.7918 16.3732 41.8354 16.2211 41.9562 16.1542ZM10.007 19.7525C10.1396 19.7907 10.2163 19.9292 10.1781 20.0619C10.0011 20.6772 9.85748 21.3066 9.74924 21.9481C9.72627 22.0843 9.59728 22.176 9.46113 22.1531C9.32498 22.1301 9.23324 22.0011 9.25621 21.865C9.3676 21.2048 9.51544 20.557 9.69759 19.9237C9.73576 19.791 9.87427 19.7143 10.007 19.7525ZM43.5091 19.7525C43.6418 19.7143 43.7803 19.791 43.8185 19.9237C44.0007 20.557 44.1485 21.2048 44.2599 21.865C44.2829 22.0011 44.1911 22.1301 44.055 22.1531C43.9188 22.176 43.7898 22.0843 43.7669 21.9481C43.6586 21.3066 43.515 20.6772 43.338 20.0619C43.2998 19.9292 43.3764 19.7907 43.5091 19.7525ZM44.2172 23.608C44.355 23.6003 44.473 23.7059 44.4806 23.8438C44.4988 24.1733 44.508 24.5053 44.508 24.8394C44.508 25.1734 44.4988 25.5054 44.4806 25.8349C44.473 25.9728 44.355 26.0784 44.2172 26.0707C44.0793 26.0631 43.9737 25.9452 43.9814 25.8073C43.9991 25.4869 44.008 25.1642 44.008 24.8394C44.008 24.5145 43.9991 24.1918 43.9814 23.8714C43.9737 23.7335 44.0793 23.6156 44.2172 23.608ZM9.46113 27.5256C9.59728 27.5027 9.72627 27.5944 9.74924 27.7306C9.85748 28.3721 10.0011 29.0015 10.1781 29.6168C10.2163 29.7495 10.1396 29.888 10.007 29.9262C9.87427 29.9644 9.73576 29.8877 9.69759 29.755C9.51544 29.1217 9.3676 28.4739 9.25621 27.8138C9.23324 27.6776 9.32498 27.5486 9.46113 27.5256ZM44.055 27.5256C44.1911 27.5486 44.2829 27.6776 44.2599 27.8138C44.1485 28.4739 44.0007 29.1217 43.8185 29.755C43.7803 29.8877 43.6418 29.9644 43.5091 29.9262C43.3764 29.888 43.2998 29.7495 43.338 29.6168C43.515 29.0015 43.6586 28.3721 43.7669 27.7306C43.7898 27.5944 43.9188 27.5027 44.055 27.5256ZM10.4902 31.3072C10.6177 31.2543 10.764 31.3148 10.8169 31.4424C11.0651 32.0409 11.346 32.6224 11.6574 33.1847C11.7243 33.3055 11.6807 33.4576 11.5599 33.5245C11.4391 33.5914 11.2869 33.5478 11.22 33.427C10.8996 32.8483 10.6105 32.2499 10.355 31.6339C10.3021 31.5064 10.3627 31.3601 10.4902 31.3072ZM43.0259 31.3072C43.1534 31.3601 43.214 31.5064 43.1611 31.6339C42.9056 32.2499 42.6165 32.8483 42.2961 33.427C42.2292 33.5478 42.077 33.5914 41.9562 33.5245C41.8354 33.4576 41.7918 33.3055 41.8587 33.1847C42.1701 32.6224 42.451 32.0409 42.6992 31.4424C42.7521 31.3148 42.8984 31.2543 43.0259 31.3072ZM12.3397 34.763C12.4522 34.683 12.6083 34.7094 12.6883 34.8219C13.0626 35.3486 13.4658 35.8533 13.8955 36.3338C13.9875 36.4367 13.9787 36.5948 13.8758 36.6868C13.7728 36.7789 13.6148 36.77 13.5228 36.6671C13.0807 36.1728 12.6659 35.6535 12.2807 35.1116C12.2007 34.9991 12.2271 34.843 12.3397 34.763ZM14.9106 37.7216C15.0026 37.6187 15.1607 37.6099 15.2636 37.7019C15.7441 38.1316 16.2488 38.5348 16.7755 38.9091C16.888 38.9891 16.9144 39.1452 16.8344 39.2577C16.7544 39.3703 16.5983 39.3967 16.4858 39.3167C15.9439 38.9315 15.4246 38.5167 14.9303 38.0746C14.8274 37.9826 14.8185 37.8246 14.9106 37.7216ZM38.6055 37.7216C38.6975 37.8246 38.6887 37.9826 38.5858 38.0746C38.0915 38.5167 37.5722 38.9315 37.0303 39.3167C36.9178 39.3967 36.7617 39.3703 36.6817 39.2577C36.6017 39.1452 36.6281 38.9891 36.7406 38.9091C37.2673 38.5348 37.772 38.1316 38.2525 37.7019C38.3554 37.6099 38.5135 37.6187 38.6055 37.7216ZM35.4432 40.0375C35.5101 40.1583 35.4664 40.3105 35.3457 40.3774C34.767 40.6978 34.1686 40.9869 33.5526 41.2424C33.4251 41.2953 33.2788 41.2347 33.2259 41.1072C33.173 40.9797 33.2335 40.8334 33.3611 40.7805C33.9596 40.5323 34.5411 40.2514 35.1034 39.94C35.2242 39.8731 35.3763 39.9168 35.4432 40.0375ZM21.6712 41.5904C21.7094 41.4578 21.8479 41.3811 21.9806 41.4193C22.5959 41.5963 23.2253 41.7399 23.8668 41.8482C24.003 41.8711 24.0947 42.0001 24.0718 42.1363C24.0488 42.2724 23.9198 42.3642 23.7837 42.3412C23.1235 42.2298 22.4757 42.082 21.8424 41.8998C21.7097 41.8616 21.633 41.7231 21.6712 41.5904ZM31.8449 41.5904C31.8831 41.7231 31.8064 41.8616 31.6737 41.8998C31.0404 42.082 30.3926 42.2298 29.7324 42.3412C29.5963 42.3642 29.4673 42.2724 29.4443 42.1363C29.4214 42.0001 29.5131 41.8711 29.6493 41.8482C30.2908 41.7399 30.9202 41.5963 31.5355 41.4193C31.6682 41.3811 31.8067 41.4578 31.8449 41.5904ZM25.5267 42.2985C25.5343 42.1606 25.6522 42.055 25.7901 42.0627C26.1105 42.0804 26.4332 42.0894 26.758 42.0894C27.0829 42.0894 27.4056 42.0804 27.726 42.0627C27.8639 42.055 27.9818 42.1606 27.9894 42.2985C27.9971 42.4363 27.8915 42.5543 27.7536 42.5619C27.4241 42.5801 27.0921 42.5894 26.758 42.5894C26.424 42.5894 26.092 42.5801 25.7625 42.5619C25.6246 42.5543 25.519 42.4363 25.5267 42.2985Z" fill="#6A6A6A"/>
<path d="M24.9429 8.69775C24.9429 10.6308 23.3759 12.1978 21.4429 12.1978C19.5099 12.1978 17.9429 10.6308 17.9429 8.69775C17.9429 6.76476 19.5099 5.19775 21.4429 5.19775C23.3759 5.19775 24.9429 6.76476 24.9429 8.69775Z" fill="#00C895"/>
<path d="M44.2581 35.8824C44.2581 37.9174 42.6084 39.5671 40.5734 39.5671C38.5384 39.5671 36.8887 37.9174 36.8887 35.8824C36.8887 33.8474 38.5384 32.1978 40.5734 32.1978C42.6084 32.1978 44.2581 33.8474 44.2581 35.8824Z" fill="white"/>
<path fill-rule="evenodd" clip-rule="evenodd" d="M40.5734 38.5671C42.0561 38.5671 43.2581 37.3652 43.2581 35.8824C43.2581 34.3997 42.0561 33.1978 40.5734 33.1978C39.0906 33.1978 37.8887 34.3997 37.8887 35.8824C37.8887 37.3652 39.0906 38.5671 40.5734 38.5671ZM40.5734 39.5671C42.6084 39.5671 44.2581 37.9174 44.2581 35.8824C44.2581 33.8474 42.6084 32.1978 40.5734 32.1978C38.5384 32.1978 36.8887 33.8474 36.8887 35.8824C36.8887 37.9174 38.5384 39.5671 40.5734 39.5671Z" fill="#6A6A6A"/>
<path d="M12.8254 24.8395C12.8254 26.8745 11.1757 28.5242 9.14075 28.5242C7.10575 28.5242 5.45605 26.8745 5.45605 24.8395C5.45605 22.8045 7.10575 21.1548 9.14075 21.1548C11.1757 21.1548 12.8254 22.8045 12.8254 24.8395Z" fill="white"/>
<path fill-rule="evenodd" clip-rule="evenodd" d="M9.14075 27.5242C10.6235 27.5242 11.8254 26.3222 11.8254 24.8395C11.8254 23.3568 10.6235 22.1548 9.14075 22.1548C7.65803 22.1548 6.45605 23.3568 6.45605 24.8395C6.45605 26.3222 7.65803 27.5242 9.14075 27.5242ZM9.14075 28.5242C11.1757 28.5242 12.8254 26.8745 12.8254 24.8395C12.8254 22.8045 11.1757 21.1548 9.14075 21.1548C7.10575 21.1548 5.45605 22.8045 5.45605 24.8395C5.45605 26.8745 7.10575 28.5242 9.14075 28.5242Z" fill="#6A6A6A"/>
<path d="M38.6582 12.8081C38.6582 12.2558 39.1059 11.8081 39.6582 11.8081H42.6582C43.2105 11.8081 43.6582 12.2558 43.6582 12.8081V15.8081C43.6582 16.3604 43.2105 16.8081 42.6582 16.8081H39.6582C39.1059 16.8081 38.6582 16.3604 38.6582 15.8081V12.8081Z" fill="white"/>
<path fill-rule="evenodd" clip-rule="evenodd" d="M42.6582 12.8081H39.6582L39.6582 15.8081H42.6582V12.8081ZM39.6582 11.8081C39.1059 11.8081 38.6582 12.2558 38.6582 12.8081V15.8081C38.6582 16.3604 39.1059 16.8081 39.6582 16.8081H42.6582C43.2105 16.8081 43.6582 16.3604 43.6582 15.8081V12.8081C43.6582 12.2558 43.2105 11.8081 42.6582 11.8081H39.6582Z" fill="#6A6A6A"/>
<path d="M17.2427 39.5767C17.2427 39.0244 17.6904 38.5767 18.2427 38.5767H21.2427C21.795 38.5767 22.2427 39.0244 22.2427 39.5767V42.5767C22.2427 43.1289 21.795 43.5767 21.2427 43.5767H18.2427C17.6904 43.5767 17.2427 43.1289 17.2427 42.5767V39.5767Z" fill="white"/>
<path fill-rule="evenodd" clip-rule="evenodd" d="M21.2427 39.5767H18.2427L18.2427 42.5767H21.2427V39.5767ZM18.2427 38.5767C17.6904 38.5767 17.2427 39.0244 17.2427 39.5767V42.5767C17.2427 43.1289 17.6904 43.5767 18.2427 43.5767H21.2427C21.795 43.5767 22.2427 43.1289 22.2427 42.5767V39.5767C22.2427 39.0244 21.795 38.5767 21.2427 38.5767H18.2427Z" fill="#6A6A6A"/>
</svg>
