<svg width="49" height="49" viewBox="0 0 49 49" fill="none" xmlns="http://www.w3.org/2000/svg">
<path d="M5.98193 10.8682C5.98193 10.3159 6.42965 9.86816 6.98193 9.86816H42.9819C43.5342 9.86816 43.9819 10.3159 43.9819 10.8682V37.8682C43.9819 38.4204 43.5342 38.8682 42.9819 38.8682H6.98193C6.42965 38.8682 5.98193 38.4204 5.98193 37.8682V10.8682Z" fill="white"/>
<path fill-rule="evenodd" clip-rule="evenodd" d="M42.9819 10.8682H6.98193V37.8682H42.9819V10.8682ZM6.98193 9.86816C6.42965 9.86816 5.98193 10.3159 5.98193 10.8682V37.8682C5.98193 38.4204 6.42965 38.8682 6.98193 38.8682H42.9819C43.5342 38.8682 43.9819 38.4204 43.9819 37.8682V10.8682C43.9819 10.3159 43.5342 9.86816 42.9819 9.86816H6.98193Z" fill="#6A6A6A"/>
<path d="M4.98193 35.8833C4.98193 35.331 5.42965 34.8833 5.98193 34.8833H43.9819C44.5342 34.8833 44.9819 35.331 44.9819 35.8833V37.8833C44.9819 38.4356 44.5342 38.8833 43.9819 38.8833H5.98193C5.42965 38.8833 4.98193 38.4356 4.98193 37.8833V35.8833Z" fill="white"/>
<path fill-rule="evenodd" clip-rule="evenodd" d="M43.9819 35.8833H5.98193L5.98193 37.8833H43.9819V35.8833ZM5.98193 34.8833C5.42965 34.8833 4.98193 35.331 4.98193 35.8833V37.8833C4.98193 38.4356 5.42965 38.8833 5.98193 38.8833H43.9819C44.5342 38.8833 44.9819 38.4356 44.9819 37.8833V35.8833C44.9819 35.331 44.5342 34.8833 43.9819 34.8833H5.98193Z" fill="#6A6A6A"/>
<path fill-rule="evenodd" clip-rule="evenodd" d="M6.98193 10.9058V34.9058H42.9819V10.9058H6.98193ZM6.71741 9.90576C6.31122 9.90576 5.98193 10.235 5.98193 10.6412V35.1703C5.98193 35.5765 6.31122 35.9058 6.71741 35.9058H43.2465C43.6526 35.9058 43.9819 35.5765 43.9819 35.1703V10.6412C43.9819 10.235 43.6526 9.90576 43.2465 9.90576H6.71741Z" fill="#6A6A6A"/>
<path fill-rule="evenodd" clip-rule="evenodd" d="M31.9854 18.6558L15.9819 18.6558L15.9819 18.1558L31.9854 18.1558L31.9854 18.6558Z" fill="#6A6A6A"/>
<path fill-rule="evenodd" clip-rule="evenodd" d="M33.9156 22.3919L27.3045 29.003L26.9509 28.6494L33.562 22.0383L33.9156 22.3919Z" fill="#6A6A6A"/>
<path d="M40.1641 18.4058C40.1641 20.3388 38.5971 21.9058 36.6641 21.9058C34.7311 21.9058 33.1641 20.3388 33.1641 18.4058C33.1641 16.4728 34.7311 14.9058 36.6641 14.9058C38.5971 14.9058 40.1641 16.4728 40.1641 18.4058Z" fill="#00C895"/>
<path fill-rule="evenodd" clip-rule="evenodd" d="M27.0354 28.8857H24.0354L24.0354 31.8857H27.0354V28.8857ZM24.0354 27.8857C23.4831 27.8857 23.0354 28.3335 23.0354 28.8857V31.8857C23.0354 32.438 23.4831 32.8857 24.0354 32.8857H27.0354C27.5877 32.8857 28.0354 32.438 28.0354 31.8857V28.8857C28.0354 28.3335 27.5877 27.8857 27.0354 27.8857H24.0354Z" fill="#6A6A6A"/>
<path fill-rule="evenodd" clip-rule="evenodd" d="M5.98193 35.9058V37.9058H43.9819V35.9058H5.98193ZM5.71741 34.9058C5.31122 34.9058 4.98193 35.235 4.98193 35.6412V38.1703C4.98193 38.5765 5.31122 38.9058 5.71741 38.9058H44.2465C44.6526 38.9058 44.9819 38.5765 44.9819 38.1703V35.6412C44.9819 35.235 44.6526 34.9058 44.2465 34.9058H5.71741Z" fill="#6A6A6A"/>
<path fill-rule="evenodd" clip-rule="evenodd" d="M13.4819 20.9058C14.8626 20.9058 15.9819 19.7865 15.9819 18.4058C15.9819 17.025 14.8626 15.9058 13.4819 15.9058C12.1012 15.9058 10.9819 17.025 10.9819 18.4058C10.9819 19.7865 12.1012 20.9058 13.4819 20.9058ZM13.4819 21.9058C15.4149 21.9058 16.9819 20.3388 16.9819 18.4058C16.9819 16.4728 15.4149 14.9058 13.4819 14.9058C11.5489 14.9058 9.98193 16.4728 9.98193 18.4058C9.98193 20.3388 11.5489 21.9058 13.4819 21.9058Z" fill="#6A6A6A"/>
<path fill-rule="evenodd" clip-rule="evenodd" d="M27.8176 24.1406C27.8176 24.0026 27.9296 23.8906 28.0676 23.8906H31.665C31.8031 23.8906 31.915 24.0026 31.915 24.1406C31.915 24.2787 31.8031 24.3906 31.665 24.3906H28.0676C27.9296 24.3906 27.8176 24.2787 27.8176 24.1406Z" fill="#6A6A6A"/>
<path fill-rule="evenodd" clip-rule="evenodd" d="M31.7354 27.9883C31.5973 27.9883 31.4854 27.8764 31.4854 27.7383L31.4854 24.1409C31.4854 24.0028 31.5973 23.8909 31.7354 23.8909C31.8734 23.8909 31.9854 24.0028 31.9854 24.1409L31.9854 27.7383C31.9854 27.8764 31.8734 27.9883 31.7354 27.9883Z" fill="#6A6A6A"/>
<path fill-rule="evenodd" clip-rule="evenodd" d="M24.1604 15.6851C24.258 15.5874 24.4163 15.5874 24.5139 15.6851L27.0577 18.2288C27.1553 18.3265 27.1553 18.4848 27.0577 18.5824C26.9601 18.68 26.8018 18.68 26.7041 18.5824L24.1604 16.0386C24.0628 15.941 24.0628 15.7827 24.1604 15.6851Z" fill="#6A6A6A"/>
<path fill-rule="evenodd" clip-rule="evenodd" d="M24.1604 21.1265C24.0628 21.0289 24.0628 20.8706 24.1604 20.7729L26.7042 18.2292C26.8018 18.1315 26.9601 18.1315 27.0577 18.2292C27.1554 18.3268 27.1554 18.4851 27.0577 18.5827L24.514 21.1265C24.4163 21.2241 24.2581 21.2241 24.1604 21.1265Z" fill="#6A6A6A"/>
</svg>
