<svg width="48" height="48" viewBox="0 0 48 48" fill="none" xmlns="http://www.w3.org/2000/svg">
<path d="M7 5C7 4.44771 7.44772 4 8 4H41C41.5523 4 42 4.44772 42 5V43C42 43.5523 41.5523 44 41 44H8C7.44772 44 7 43.5523 7 43V5Z" fill="white"/>
<path fill-rule="evenodd" clip-rule="evenodd" d="M41 5L8 5L8 43H41V5ZM8 4C7.44772 4 7 4.44771 7 5V43C7 43.5523 7.44772 44 8 44H41C41.5523 44 42 43.5523 42 43V5C42 4.44772 41.5523 4 41 4H8Z" fill="#6A6A6A"/>
<path fill-rule="evenodd" clip-rule="evenodd" d="M23 12.5C23 12.2239 23.2239 12 23.5 12H36.5C36.7761 12 37 12.2239 37 12.5C37 12.7761 36.7761 13 36.5 13H23.5C23.2239 13 23 12.7761 23 12.5Z" fill="#6A6A6A"/>
<path fill-rule="evenodd" clip-rule="evenodd" d="M23 23.5C23 23.2239 23.2239 23 23.5 23H36.5C36.7761 23 37 23.2239 37 23.5C37 23.7761 36.7761 24 36.5 24H23.5C23.2239 24 23 23.7761 23 23.5Z" fill="#6A6A6A"/>
<path fill-rule="evenodd" clip-rule="evenodd" d="M23 34.5C23 34.2239 23.2239 34 23.5 34H36.5C36.7761 34 37 34.2239 37 34.5C37 34.7761 36.7761 35 36.5 35H23.5C23.2239 35 23 34.7761 23 34.5Z" fill="#6A6A6A"/>
<path d="M20 24C20 26.2091 18.2091 28 16 28C13.7909 28 12 26.2091 12 24C12 21.7909 13.7909 20 16 20C18.2091 20 20 21.7909 20 24Z" fill="white"/>
<path fill-rule="evenodd" clip-rule="evenodd" d="M16 27C17.6569 27 19 25.6569 19 24C19 22.3431 17.6569 21 16 21C14.3431 21 13 22.3431 13 24C13 25.6569 14.3431 27 16 27ZM16 28C18.2091 28 20 26.2091 20 24C20 21.7909 18.2091 20 16 20C13.7909 20 12 21.7909 12 24C12 26.2091 13.7909 28 16 28Z" fill="#6A6A6A"/>
<path d="M20 35C20 37.2091 18.2091 39 16 39C13.7909 39 12 37.2091 12 35C12 32.7909 13.7909 31 16 31C18.2091 31 20 32.7909 20 35Z" fill="white"/>
<path fill-rule="evenodd" clip-rule="evenodd" d="M16 38C17.6569 38 19 36.6569 19 35C19 33.3431 17.6569 32 16 32C14.3431 32 13 33.3431 13 35C13 36.6569 14.3431 38 16 38ZM16 39C18.2091 39 20 37.2091 20 35C20 32.7909 18.2091 31 16 31C13.7909 31 12 32.7909 12 35C12 37.2091 13.7909 39 16 39Z" fill="#6A6A6A"/>
<path d="M20 13C20 15.2091 18.2091 17 16 17C13.7909 17 12 15.2091 12 13C12 10.7909 13.7909 9 16 9C18.2091 9 20 10.7909 20 13Z" fill="#00C895"/>
<path fill-rule="evenodd" clip-rule="evenodd" d="M18.3286 11.1455C18.5367 11.3269 18.5584 11.6428 18.3769 11.8509L15.3847 15.2829L13.6233 13.2654C13.4417 13.0574 13.4632 12.7415 13.6712 12.5599C13.8792 12.3783 14.1951 12.3997 14.3767 12.6077L15.3842 13.7618L17.6231 11.1938C17.8046 10.9856 18.1204 10.964 18.3286 11.1455Z" fill="white"/>
</svg>
