<svg width="49" height="49" viewBox="0 0 49 49" fill="none" xmlns="http://www.w3.org/2000/svg">
<path d="M4.98193 11.7529C4.98193 10.6484 5.87736 9.75293 6.98193 9.75293H16.9819C21.4002 9.75293 24.9819 13.3347 24.9819 17.7529V36.7529C24.9819 38.4098 23.6388 39.7529 21.9819 39.7529H6.98193C5.87736 39.7529 4.98193 38.8575 4.98193 37.7529V11.7529Z" fill="white"/>
<path fill-rule="evenodd" clip-rule="evenodd" d="M16.9819 10.7529H6.98193C6.42965 10.7529 5.98193 11.2006 5.98193 11.7529V37.7529C5.98193 38.3052 6.42965 38.7529 6.98193 38.7529H21.9819C23.0865 38.7529 23.9819 37.8575 23.9819 36.7529V17.7529C23.9819 13.8869 20.8479 10.7529 16.9819 10.7529ZM6.98193 9.75293C5.87736 9.75293 4.98193 10.6484 4.98193 11.7529V37.7529C4.98193 38.8575 5.87736 39.7529 6.98193 39.7529H21.9819C23.6388 39.7529 24.9819 38.4098 24.9819 36.7529V17.7529C24.9819 13.3347 21.4002 9.75293 16.9819 9.75293H6.98193Z" fill="#6A6A6A"/>
<path d="M23.9819 17.7529C23.9819 13.3347 27.5637 9.75293 31.9819 9.75293H42.9819C44.0865 9.75293 44.9819 10.6484 44.9819 11.7529V37.7529C44.9819 38.8575 44.0865 39.7529 42.9819 39.7529H26.9819C25.3251 39.7529 23.9819 38.4098 23.9819 36.7529V17.7529Z" fill="white"/>
<path fill-rule="evenodd" clip-rule="evenodd" d="M42.9819 10.7529H31.9819C28.1159 10.7529 24.9819 13.8869 24.9819 17.7529V36.7529C24.9819 37.8575 25.8774 38.7529 26.9819 38.7529H42.9819C43.5342 38.7529 43.9819 38.3052 43.9819 37.7529V11.7529C43.9819 11.2006 43.5342 10.7529 42.9819 10.7529ZM31.9819 9.75293C27.5637 9.75293 23.9819 13.3347 23.9819 17.7529V36.7529C23.9819 38.4098 25.3251 39.7529 26.9819 39.7529H42.9819C44.0865 39.7529 44.9819 38.8575 44.9819 37.7529V11.7529C44.9819 10.6484 44.0865 9.75293 42.9819 9.75293H31.9819Z" fill="#6A6A6A"/>
<path fill-rule="evenodd" clip-rule="evenodd" d="M8.48193 29.7529C8.48193 29.4768 8.70579 29.2529 8.98193 29.2529H13.9064C14.1826 29.2529 14.4064 29.4768 14.4064 29.7529C14.4064 30.0291 14.1826 30.2529 13.9064 30.2529H8.98193C8.70579 30.2529 8.48193 30.0291 8.48193 29.7529Z" fill="#6A6A6A"/>
<path fill-rule="evenodd" clip-rule="evenodd" d="M8.48193 26.7529C8.48193 26.4768 8.70579 26.2529 8.98193 26.2529H13.9064C14.1826 26.2529 14.4064 26.4768 14.4064 26.7529C14.4064 27.0291 14.1826 27.2529 13.9064 27.2529H8.98193C8.70579 27.2529 8.48193 27.0291 8.48193 26.7529Z" fill="#6A6A6A"/>
<path fill-rule="evenodd" clip-rule="evenodd" d="M28.2588 20.6519C28.2588 20.3757 28.4826 20.1519 28.7588 20.1519H39.8662C40.1424 20.1519 40.3662 20.3757 40.3662 20.6519C40.3662 20.928 40.1424 21.1519 39.8662 21.1519H28.7588C28.4826 21.1519 28.2588 20.928 28.2588 20.6519Z" fill="#6A6A6A"/>
<path fill-rule="evenodd" clip-rule="evenodd" d="M28.29 17.9282C28.29 17.6521 28.5139 17.4282 28.79 17.4282H39.8975C40.1736 17.4282 40.3975 17.6521 40.3975 17.9282C40.3975 18.2044 40.1736 18.4282 39.8975 18.4282H28.79C28.5139 18.4282 28.29 18.2044 28.29 17.9282Z" fill="#6A6A6A"/>
<path fill-rule="evenodd" clip-rule="evenodd" d="M17.4819 17.7529C17.4819 17.4768 17.7058 17.2529 17.9819 17.2529H21.0388C21.315 17.2529 21.5388 17.4768 21.5388 17.7529C21.5388 18.0291 21.315 18.2529 21.0388 18.2529H17.9819C17.7058 18.2529 17.4819 18.0291 17.4819 17.7529Z" fill="#6A6A6A"/>
<path fill-rule="evenodd" clip-rule="evenodd" d="M17.4819 20.7529C17.4819 20.4768 17.7058 20.2529 17.9819 20.2529H21.0388C21.315 20.2529 21.5388 20.4768 21.5388 20.7529C21.5388 21.0291 21.315 21.2529 21.0388 21.2529H17.9819C17.7058 21.2529 17.4819 21.0291 17.4819 20.7529Z" fill="#6A6A6A"/>
<path d="M27.9819 25.7529C27.9819 25.2006 28.4296 24.7529 28.9819 24.7529H39.9819C40.5342 24.7529 40.9819 25.2006 40.9819 25.7529V30.7529C40.9819 31.3052 40.5342 31.7529 39.9819 31.7529H28.9819C28.4296 31.7529 27.9819 31.3052 27.9819 30.7529V25.7529Z" fill="white"/>
<path fill-rule="evenodd" clip-rule="evenodd" d="M39.9819 25.7529H28.9819L28.9819 30.7529H39.9819V25.7529ZM28.9819 24.7529C28.4296 24.7529 27.9819 25.2006 27.9819 25.7529V30.7529C27.9819 31.3052 28.4296 31.7529 28.9819 31.7529H39.9819C40.5342 31.7529 40.9819 31.3052 40.9819 30.7529V25.7529C40.9819 25.2006 40.5342 24.7529 39.9819 24.7529H28.9819Z" fill="#6A6A6A"/>
<path d="M15.9819 26.7529C15.9819 26.2006 16.4296 25.7529 16.9819 25.7529H19.9819C20.5342 25.7529 20.9819 26.2006 20.9819 26.7529V29.7529C20.9819 30.3052 20.5342 30.7529 19.9819 30.7529H16.9819C16.4296 30.7529 15.9819 30.3052 15.9819 29.7529V26.7529Z" fill="white"/>
<path fill-rule="evenodd" clip-rule="evenodd" d="M19.9819 26.7529H16.9819L16.9819 29.7529H19.9819V26.7529ZM16.9819 25.7529C16.4296 25.7529 15.9819 26.2006 15.9819 26.7529V29.7529C15.9819 30.3052 16.4296 30.7529 16.9819 30.7529H19.9819C20.5342 30.7529 20.9819 30.3052 20.9819 29.7529V26.7529C20.9819 26.2006 20.5342 25.7529 19.9819 25.7529H16.9819Z" fill="#6A6A6A"/>
<path d="M15.982 19.2529C15.982 21.1859 14.4149 22.7529 12.4819 22.7529C10.5489 22.7529 8.98193 21.1859 8.98193 19.2529C8.98193 17.3199 10.5489 15.7529 12.4819 15.7529C14.4149 15.7529 15.982 17.3199 15.982 19.2529Z" fill="#00C895"/>
<path fill-rule="evenodd" clip-rule="evenodd" d="M4.98193 36.2529L43.9819 36.2529L43.9819 37.2529L4.98193 37.2529L4.98193 36.2529Z" fill="#6A6A6A"/>
</svg>
