<?xml version="1.0" encoding="utf-8"?>
<!--
  Copyright 2023-2025 Solace Systems. All rights reserved.

  Licensed under the Apache License, Version 2.0 (the "License");
  you may not use this file except in compliance with the License.
  You may obtain a copy of the License at

      http://www.apache.org/licenses/LICENSE-2.0

  Unless required by applicable law or agreed to in writing, software
  distributed under the License is distributed on an "AS IS" BASIS,
  WITHOUT WARRANTIES OR CONDITIONS OF ANY KIND, either express or implied.
  See the License for the specific language governing permissions and
  limitations under the License.
-->
<svg width="131" height="121" viewBox="0 0 131 121" fill="none" xmlns="http://www.w3.org/2000/svg">
<circle cx="53.5" cy="53.5" r="53.5" fill="#009193" fill-opacity="0.1"/>
<rect x="24.2185" y="23" width="78.7814" height="20.1613" rx="3" fill="white" stroke="#6A6A6A" stroke-width="2"/>
<circle cx="37.4422" cy="33.0697" r="1.85475" stroke="#6A6A6A" stroke-linecap="round" stroke-linejoin="round"/>
<rect x="24.2185" y="42.9181" width="78.7814" height="20.1613" rx="3" fill="white" stroke="#6A6A6A" stroke-width="2"/>
<circle cx="37.4422" cy="52.9858" r="1.85475" stroke="#6A6A6A" stroke-linecap="round" stroke-linejoin="round"/>
<line x1="45.6033" y1="63.0803" x2="45.6033" y2="23.2447" stroke="#6A6A6A" stroke-width="2"/>
<line x1="50.6306" y1="39.4281" x2="50.6306" y2="26.9795" stroke="#6A6A6A"/>
<line x1="50.6306" y1="59.3464" x2="50.6306" y2="46.8978" stroke="#6A6A6A"/>
<rect x="15.4851" y="62.9155" width="78.7814" height="20.1613" rx="3" fill="white" stroke="#6A6A6A" stroke-width="2"/>
<circle cx="28.709" cy="72.9833" r="1.85475" fill="#00AD93" stroke="#00AD93" stroke-linecap="round" stroke-linejoin="round"/>
<line x1="36.6926" y1="82.887" x2="36.6926" y2="61.8896" stroke="#6A6A6A" stroke-width="2"/>
<line x1="41.8972" y1="79.3439" x2="41.8972" y2="66.8953" stroke="#6A6A6A"/>
<circle cx="84.8854" cy="75.0649" r="24.8854" stroke="#6A6A6A" stroke-width="2"/>
<path d="M104.262 92.8475L103.554 92.1404L102.14 93.5546L102.847 94.2617L104.262 92.8475ZM129.293 120.707C129.683 121.098 130.317 121.098 130.707 120.707C131.098 120.317 131.098 119.684 130.707 119.293L129.293 120.707ZM102.847 94.2617L129.293 120.707L130.707 119.293L104.262 92.8475L102.847 94.2617Z" fill="#6A6A6A"/>
</svg>