<?xml version="1.0" encoding="utf-8"?>
<!--
  Copyright 2023-2025 Solace Systems. All rights reserved.

  Licensed under the Apache License, Version 2.0 (the "License");
  you may not use this file except in compliance with the License.
  You may obtain a copy of the License at

      http://www.apache.org/licenses/LICENSE-2.0

  Unless required by applicable law or agreed to in writing, software
  distributed under the License is distributed on an "AS IS" BASIS,
  WITHOUT WARRANTIES OR CONDITIONS OF ANY KIND, either express or implied.
  See the License for the specific language governing permissions and
  limitations under the License.
-->
<svg width="587" height="185" viewBox="0 0 587 185" fill="none" xmlns="http://www.w3.org/2000/svg">
<g clip-path="url(#clip0_1959_154724)">
<rect width="587" height="184.882" fill="#EBEDF2"/>
<g filter="url(#filter0_d_1959_154724)">
<rect x="36" y="36" width="515" height="170" rx="4" fill="white"/>
</g>
<mask id="path-2-inside-1_1959_154724" fill="white">
<path d="M264 36H547C549.209 36 551 37.7909 551 40V190H264V36Z"/>
</mask>
<path d="M264 36H547C549.209 36 551 37.7909 551 40V190H264V36Z" fill="#F9F9F9"/>
<path d="M264 36H551H264ZM551 190H264H551ZM263.076 190V36H264.924V190H263.076ZM551 36V190V36Z" fill="black" fill-opacity="0.1" mask="url(#path-2-inside-1_1959_154724)"/>
<path d="M440 149L420 226" stroke="black" stroke-opacity="0.1" stroke-width="4"/>
<path d="M303 159.367L369.326 153.039M303 159.367L329.046 87.2348L383.296 95.6103M303 159.367L313.943 187.783L324.885 216.199L417 237.867M369.326 153.039L383.296 95.6103M369.326 153.039L417 237.867M383.296 95.6103L403.5 116.367L439.5 150L509.795 89.4017M383.296 95.6103L428.308 70L509.795 89.4017M509.795 89.4017V159.367L472 191.5L417 237.867" stroke="black" stroke-opacity="0.1" stroke-width="4"/>
<path d="M320.648 160.808C320.648 169.004 314.004 175.648 305.808 175.648C297.612 175.648 290.968 169.004 290.968 160.808C290.968 152.612 297.612 145.968 305.808 145.968C314.004 145.968 320.648 152.612 320.648 160.808Z" fill="white"/>
<path fill-rule="evenodd" clip-rule="evenodd" d="M305.808 173.105C312.599 173.105 318.105 167.599 318.105 160.808C318.105 154.017 312.599 148.511 305.808 148.511C299.017 148.511 293.511 154.017 293.511 160.808C293.511 167.599 299.017 173.105 305.808 173.105ZM305.808 175.648C314.004 175.648 320.648 169.004 320.648 160.808C320.648 152.612 314.004 145.968 305.808 145.968C297.612 145.968 290.968 152.612 290.968 160.808C290.968 169.004 297.612 175.648 305.808 175.648Z" fill="#145B5B"/>
<path d="M314.289 160.808C314.289 165.491 310.492 169.288 305.809 169.288C301.125 169.288 297.329 165.491 297.329 160.808C297.329 156.125 301.125 152.328 305.809 152.328C310.492 152.328 314.289 156.125 314.289 160.808Z" fill="#145B5B" fill-opacity="0.3"/>
<path d="M524.031 89.1284C524.031 97.3244 517.387 103.968 509.191 103.968C500.995 103.968 494.351 97.3244 494.351 89.1284C494.351 80.9325 500.995 74.2883 509.191 74.2883C517.387 74.2883 524.031 80.9325 524.031 89.1284Z" fill="white"/>
<path fill-rule="evenodd" clip-rule="evenodd" d="M509.191 101.425C515.982 101.425 521.488 95.9197 521.488 89.1284C521.488 82.3371 515.982 76.8317 509.191 76.8317C502.4 76.8317 496.894 82.3371 496.894 89.1284C496.894 95.9197 502.4 101.425 509.191 101.425ZM509.191 103.968C517.387 103.968 524.031 97.3244 524.031 89.1284C524.031 80.9325 517.387 74.2883 509.191 74.2883C500.995 74.2883 494.351 80.9325 494.351 89.1284C494.351 97.3244 500.995 103.968 509.191 103.968Z" fill="#145B5B"/>
<path d="M517.672 89.1283C517.672 93.8117 513.875 97.6083 509.191 97.6083C504.508 97.6083 500.711 93.8117 500.711 89.1283C500.711 84.4449 504.508 80.6483 509.191 80.6483C513.875 80.6483 517.672 84.4449 517.672 89.1283Z" fill="#145B5B" fill-opacity="0.3"/>
<path d="M399.039 97.4487C399.039 105.645 392.395 112.289 384.199 112.289C376.003 112.289 369.359 105.645 369.359 97.4487C369.359 89.2528 376.003 82.6086 384.199 82.6086C392.395 82.6086 399.039 89.2528 399.039 97.4487Z" fill="white"/>
<path fill-rule="evenodd" clip-rule="evenodd" d="M384.199 109.745C390.99 109.745 396.495 104.24 396.495 97.4487C396.495 90.6574 390.99 85.152 384.199 85.152C377.407 85.152 371.902 90.6574 371.902 97.4487C371.902 104.24 377.407 109.745 384.199 109.745ZM384.199 112.289C392.395 112.289 399.039 105.645 399.039 97.4487C399.039 89.2528 392.395 82.6086 384.199 82.6086C376.003 82.6086 369.359 89.2528 369.359 97.4487C369.359 105.645 376.003 112.289 384.199 112.289Z" fill="#145B5B"/>
<path d="M392.679 97.4486C392.679 102.132 388.883 105.929 384.199 105.929C379.516 105.929 375.719 102.132 375.719 97.4486C375.719 92.7652 379.516 88.9686 384.199 88.9686C388.883 88.9686 392.679 92.7652 392.679 97.4486Z" fill="#145B5B" fill-opacity="0.3"/>
<circle cx="428" cy="71" r="8.25" fill="#009193"/>
<circle cx="329" cy="88" r="8.25" fill="#009193"/>
<circle cx="370" cy="154" r="8.25" fill="#009193"/>
<circle cx="440" cy="149" r="8.25" fill="#009193"/>
<circle cx="510" cy="159" r="8.25" fill="#009193"/>
<path d="M52.453 66C52.3839 66 52.3192 65.9741 52.2588 65.9223C52.2071 65.8706 52.1812 65.8059 52.1812 65.7282C52.1812 65.6937 52.1898 65.6549 52.2071 65.6117L55.326 57.2643C55.3519 57.1781 55.3994 57.1047 55.4684 57.0443C55.546 56.9753 55.6496 56.9408 55.779 56.9408H57.1896C57.3191 56.9408 57.4183 56.9753 57.4873 57.0443C57.5563 57.1047 57.6081 57.1781 57.6426 57.2643L60.7616 65.6117C60.7702 65.6549 60.7745 65.6937 60.7745 65.7282C60.7745 65.8059 60.7486 65.8706 60.6968 65.9223C60.6451 65.9741 60.5847 66 60.5157 66H59.3897C59.2689 66 59.1783 65.9741 59.118 65.9223C59.0662 65.862 59.0317 65.8059 59.0144 65.7541L58.4062 64.1752H54.5625L53.9542 65.7541C53.9369 65.8059 53.8981 65.862 53.8377 65.9223C53.786 65.9741 53.6997 66 53.5789 66H52.453ZM55.0154 62.6869H57.9532L56.4778 58.6879L55.0154 62.6869ZM62.151 68.4589C62.0647 68.4589 61.9914 68.4287 61.931 68.3683C61.8706 68.3079 61.8404 68.2346 61.8404 68.1483V59.5809C61.8404 59.4946 61.8706 59.4213 61.931 59.3609C61.9914 59.3005 62.0647 59.2703 62.151 59.2703H63.1734C63.2683 59.2703 63.3416 59.3005 63.3934 59.3609C63.4538 59.4213 63.484 59.4946 63.484 59.5809V60.0986C63.691 59.8225 63.9628 59.5938 64.2993 59.4127C64.6358 59.2315 65.0542 59.1409 65.5546 59.1409C66.0119 59.1409 66.4088 59.2142 66.7453 59.3609C67.0818 59.5076 67.3622 59.7189 67.5865 59.995C67.8108 60.2625 67.9834 60.5817 68.1042 60.9527C68.225 61.3237 68.294 61.7335 68.3112 62.1822C68.3199 62.3289 68.3242 62.4798 68.3242 62.6351C68.3242 62.7905 68.3199 62.9458 68.3112 63.1011C68.3026 63.5324 68.2379 63.9336 68.1171 64.3046C67.9963 64.667 67.8194 64.9862 67.5865 65.2623C67.3622 65.5298 67.0818 65.7412 66.7453 65.8965C66.4088 66.0518 66.0119 66.1294 65.5546 66.1294C65.0887 66.1294 64.6919 66.0475 64.364 65.8835C64.0361 65.711 63.7687 65.4866 63.5616 65.2106V68.1483C63.5616 68.2346 63.5314 68.3079 63.471 68.3683C63.4193 68.4287 63.3459 68.4589 63.251 68.4589H62.151ZM65.0758 64.7447C65.4468 64.7447 65.7358 64.667 65.9429 64.5117C66.15 64.3478 66.2966 64.1364 66.3829 63.8776C66.4778 63.6187 66.5339 63.334 66.5512 63.0234C66.5684 62.7646 66.5684 62.5057 66.5512 62.2469C66.5339 61.9363 66.4778 61.6516 66.3829 61.3927C66.2966 61.1339 66.15 60.9268 65.9429 60.7715C65.7358 60.6076 65.4468 60.5256 65.0758 60.5256C64.7221 60.5256 64.433 60.6076 64.2087 60.7715C63.993 60.9355 63.8334 61.1469 63.7299 61.4057C63.635 61.6559 63.5789 61.9147 63.5616 62.1822C63.553 62.3375 63.5487 62.5014 63.5487 62.674C63.5487 62.8465 63.553 63.0148 63.5616 63.1787C63.5702 63.4375 63.6306 63.6877 63.7428 63.9293C63.855 64.1623 64.0189 64.3564 64.2346 64.5117C64.4503 64.667 64.7307 64.7447 65.0758 64.7447ZM70.1005 68.4589C70.0142 68.4589 69.9409 68.4287 69.8805 68.3683C69.8201 68.3079 69.7899 68.2346 69.7899 68.1483V59.5809C69.7899 59.4946 69.8201 59.4213 69.8805 59.3609C69.9409 59.3005 70.0142 59.2703 70.1005 59.2703H71.1229C71.2178 59.2703 71.2912 59.3005 71.3429 59.3609C71.4033 59.4213 71.4335 59.4946 71.4335 59.5809V60.0986C71.6406 59.8225 71.9124 59.5938 72.2489 59.4127C72.5853 59.2315 73.0038 59.1409 73.5042 59.1409C73.9615 59.1409 74.3584 59.2142 74.6948 59.3609C75.0313 59.5076 75.3117 59.7189 75.5361 59.995C75.7604 60.2625 75.9329 60.5817 76.0537 60.9527C76.1745 61.3237 76.2435 61.7335 76.2608 62.1822C76.2694 62.3289 76.2737 62.4798 76.2737 62.6351C76.2737 62.7905 76.2694 62.9458 76.2608 63.1011C76.2522 63.5324 76.1875 63.9336 76.0667 64.3046C75.9459 64.667 75.769 64.9862 75.5361 65.2623C75.3117 65.5298 75.0313 65.7412 74.6948 65.8965C74.3584 66.0518 73.9615 66.1294 73.5042 66.1294C73.0383 66.1294 72.6414 66.0475 72.3136 65.8835C71.9857 65.711 71.7182 65.4866 71.5112 65.2106V68.1483C71.5112 68.2346 71.481 68.3079 71.4206 68.3683C71.3688 68.4287 71.2955 68.4589 71.2006 68.4589H70.1005ZM73.0254 64.7447C73.3964 64.7447 73.6854 64.667 73.8925 64.5117C74.0995 64.3478 74.2462 64.1364 74.3325 63.8776C74.4274 63.6187 74.4835 63.334 74.5007 63.0234C74.518 62.7646 74.518 62.5057 74.5007 62.2469C74.4835 61.9363 74.4274 61.6516 74.3325 61.3927C74.2462 61.1339 74.0995 60.9268 73.8925 60.7715C73.6854 60.6076 73.3964 60.5256 73.0254 60.5256C72.6716 60.5256 72.3826 60.6076 72.1583 60.7715C71.9426 60.9355 71.783 61.1469 71.6794 61.4057C71.5845 61.6559 71.5284 61.9147 71.5112 62.1822C71.5025 62.3375 71.4982 62.5014 71.4982 62.674C71.4982 62.8465 71.5025 63.0148 71.5112 63.1787C71.5198 63.4375 71.5802 63.6877 71.6924 63.9293C71.8045 64.1623 71.9685 64.3564 72.1841 64.5117C72.3998 64.667 72.6802 64.7447 73.0254 64.7447ZM78.0501 66C77.9638 66 77.8905 65.9698 77.8301 65.9094C77.7697 65.849 77.7395 65.7757 77.7395 65.6894V57.122C77.7395 57.0357 77.7697 56.9624 77.8301 56.902C77.8905 56.8416 77.9638 56.8114 78.0501 56.8114H79.1243C79.2105 56.8114 79.2839 56.8416 79.3443 56.902C79.4047 56.9624 79.4349 57.0357 79.4349 57.122V65.6894C79.4349 65.7757 79.4047 65.849 79.3443 65.9094C79.2839 65.9698 79.2105 66 79.1243 66H78.0501ZM81.7402 66C81.6539 66 81.5806 65.9698 81.5202 65.9094C81.4598 65.849 81.4296 65.7757 81.4296 65.6894V59.5809C81.4296 59.4946 81.4598 59.4213 81.5202 59.3609C81.5806 59.3005 81.6539 59.2703 81.7402 59.2703H82.8144C82.9093 59.2703 82.9826 59.3005 83.0344 59.3609C83.0948 59.4213 83.125 59.4946 83.125 59.5809V65.6894C83.125 65.7757 83.0948 65.849 83.0344 65.9094C82.9826 65.9698 82.9093 66 82.8144 66H81.7402ZM81.6884 58.1573C81.5935 58.1573 81.5159 58.1314 81.4555 58.0797C81.4037 58.0193 81.3778 57.9416 81.3778 57.8467V56.9149C81.3778 56.8286 81.4037 56.7553 81.4555 56.6949C81.5159 56.6345 81.5935 56.6043 81.6884 56.6043H82.8661C82.961 56.6043 83.0387 56.6345 83.0991 56.6949C83.1595 56.7553 83.1897 56.8286 83.1897 56.9149V57.8467C83.1897 57.9416 83.1595 58.0193 83.0991 58.0797C83.0387 58.1314 82.961 58.1573 82.8661 58.1573H81.6884ZM87.7918 66.1294C87.1706 66.1294 86.6227 66.0129 86.1482 65.78C85.6823 65.547 85.3156 65.2106 85.0481 64.7705C84.7893 64.3219 84.6469 63.7826 84.621 63.1528C84.6124 63.0234 84.6081 62.8552 84.6081 62.6481C84.6081 62.4324 84.6124 62.2555 84.621 62.1175C84.6469 61.4876 84.7893 60.9527 85.0481 60.5127C85.3156 60.0641 85.6823 59.7233 86.1482 59.4903C86.6227 59.2574 87.1706 59.1409 87.7918 59.1409C88.344 59.1409 88.8142 59.2185 89.2024 59.3738C89.5907 59.5291 89.9099 59.7233 90.1601 59.9562C90.4103 60.1892 90.5958 60.4351 90.7166 60.6939C90.846 60.9441 90.915 61.1727 90.9237 61.3798C90.9323 61.4747 90.9021 61.5524 90.8331 61.6128C90.7727 61.6645 90.6994 61.6904 90.6131 61.6904H89.4742C89.3879 61.6904 89.3189 61.6688 89.2671 61.6257C89.224 61.5826 89.1809 61.5178 89.1377 61.4316C89.0083 61.0865 88.8357 60.8449 88.62 60.7068C88.413 60.5602 88.1455 60.4868 87.8177 60.4868C87.3863 60.4868 87.0412 60.6249 86.7823 60.901C86.5321 61.1684 86.3984 61.5955 86.3811 62.1822C86.3639 62.51 86.3639 62.812 86.3811 63.0881C86.3984 63.6834 86.5321 64.1148 86.7823 64.3823C87.0412 64.6497 87.3863 64.7835 87.8177 64.7835C88.1541 64.7835 88.4259 64.7145 88.633 64.5764C88.8401 64.4297 89.0083 64.1838 89.1377 63.8387C89.1809 63.7525 89.224 63.6877 89.2671 63.6446C89.3189 63.6015 89.3879 63.5799 89.4742 63.5799H90.6131C90.6994 63.5799 90.7727 63.6101 90.8331 63.6705C90.9021 63.7223 90.9323 63.7956 90.9237 63.8905C90.915 64.0458 90.8719 64.2227 90.7943 64.4211C90.7252 64.6109 90.6088 64.8094 90.4448 65.0164C90.2895 65.2149 90.0911 65.4004 89.8495 65.5729C89.6079 65.7369 89.3146 65.8706 88.9695 65.9741C88.633 66.0777 88.2404 66.1294 87.7918 66.1294ZM94.2276 66.1294C93.7789 66.1294 93.3734 66.0431 93.011 65.8706C92.6487 65.6894 92.3596 65.4521 92.1439 65.1588C91.9369 64.8568 91.8333 64.5203 91.8333 64.1493C91.8333 63.5454 92.0749 63.0665 92.5581 62.7128C93.0499 62.3504 93.6969 62.1089 94.4993 61.9881L96.2724 61.7292V61.4575C96.2724 61.0951 96.1818 60.8147 96.0006 60.6162C95.8194 60.4178 95.5088 60.3186 95.0688 60.3186C94.7582 60.3186 94.5036 60.3833 94.3052 60.5127C94.1154 60.6335 93.973 60.7974 93.8781 61.0045C93.8091 61.1167 93.7099 61.1727 93.5805 61.1727H92.5581C92.4632 61.1727 92.3898 61.1469 92.3381 61.0951C92.2949 61.0433 92.2734 60.9743 92.2734 60.888C92.282 60.75 92.3381 60.5817 92.4416 60.3833C92.5451 60.1848 92.7091 59.995 92.9334 59.8139C93.1577 59.624 93.4467 59.4644 93.8005 59.335C94.1542 59.2056 94.5813 59.1409 95.0817 59.1409C95.6253 59.1409 96.0825 59.2099 96.4535 59.348C96.8332 59.4774 97.1351 59.6542 97.3595 59.8786C97.5838 60.1029 97.7477 60.366 97.8512 60.668C97.9548 60.97 98.0065 61.2892 98.0065 61.6257V65.6894C98.0065 65.7757 97.9763 65.849 97.916 65.9094C97.8556 65.9698 97.7822 66 97.6959 66H96.6477C96.5528 66 96.4751 65.9698 96.4147 65.9094C96.3629 65.849 96.3371 65.7757 96.3371 65.6894V65.1847C96.2249 65.3486 96.0739 65.5039 95.8841 65.6506C95.6943 65.7886 95.4613 65.9051 95.1852 66C94.9178 66.0863 94.5986 66.1294 94.2276 66.1294ZM94.6676 64.9C94.9695 64.9 95.2413 64.8352 95.4829 64.7058C95.7331 64.5764 95.9272 64.378 96.0653 64.1105C96.212 63.8344 96.2853 63.4893 96.2853 63.0752V62.8034L94.9911 63.0105C94.4821 63.0881 94.1025 63.2132 93.8522 63.3858C93.602 63.5583 93.4769 63.7697 93.4769 64.0199C93.4769 64.2097 93.533 64.3737 93.6452 64.5117C93.766 64.6411 93.917 64.7403 94.0981 64.8094C94.2793 64.8698 94.4691 64.9 94.6676 64.9ZM102.645 66C102.127 66 101.692 65.9094 101.338 65.7282C100.984 65.547 100.721 65.2796 100.548 64.9258C100.376 64.5635 100.29 64.1148 100.29 63.5799V60.6421H99.2671C99.1809 60.6421 99.1075 60.6119 99.0471 60.5515C98.9867 60.4911 98.9565 60.4178 98.9565 60.3315V59.5809C98.9565 59.4946 98.9867 59.4213 99.0471 59.3609C99.1075 59.3005 99.1809 59.2703 99.2671 59.2703H100.29V57.122C100.29 57.0357 100.315 56.9624 100.367 56.902C100.428 56.8416 100.505 56.8114 100.6 56.8114H101.648C101.735 56.8114 101.808 56.8416 101.868 56.902C101.929 56.9624 101.959 57.0357 101.959 57.122V59.2703H103.577C103.663 59.2703 103.736 59.3005 103.797 59.3609C103.857 59.4213 103.887 59.4946 103.887 59.5809V60.3315C103.887 60.4178 103.857 60.4911 103.797 60.5515C103.736 60.6119 103.663 60.6421 103.577 60.6421H101.959V63.4505C101.959 63.8042 102.019 64.0803 102.14 64.2787C102.27 64.4772 102.49 64.5764 102.8 64.5764H103.693C103.779 64.5764 103.853 64.6066 103.913 64.667C103.974 64.7274 104.004 64.8007 104.004 64.887V65.6894C104.004 65.7757 103.974 65.849 103.913 65.9094C103.853 65.9698 103.779 66 103.693 66H102.645ZM105.462 66C105.376 66 105.303 65.9698 105.242 65.9094C105.182 65.849 105.152 65.7757 105.152 65.6894V59.5809C105.152 59.4946 105.182 59.4213 105.242 59.3609C105.303 59.3005 105.376 59.2703 105.462 59.2703H106.537C106.632 59.2703 106.705 59.3005 106.757 59.3609C106.817 59.4213 106.847 59.4946 106.847 59.5809V65.6894C106.847 65.7757 106.817 65.849 106.757 65.9094C106.705 65.9698 106.632 66 106.537 66H105.462ZM105.411 58.1573C105.316 58.1573 105.238 58.1314 105.178 58.0797C105.126 58.0193 105.1 57.9416 105.1 57.8467V56.9149C105.1 56.8286 105.126 56.7553 105.178 56.6949C105.238 56.6345 105.316 56.6043 105.411 56.6043H106.588C106.683 56.6043 106.761 56.6345 106.821 56.6949C106.882 56.7553 106.912 56.8286 106.912 56.9149V57.8467C106.912 57.9416 106.882 58.0193 106.821 58.0797C106.761 58.1314 106.683 58.1573 106.588 58.1573H105.411ZM111.579 66.1294C110.889 66.1294 110.306 66.0086 109.832 65.767C109.366 65.5255 109.008 65.1847 108.757 64.7447C108.516 64.3046 108.378 63.7913 108.343 63.2046C108.335 63.0493 108.33 62.8595 108.33 62.6351C108.33 62.4108 108.335 62.221 108.343 62.0657C108.378 61.4704 108.52 60.957 108.77 60.5256C109.029 60.0856 109.392 59.7448 109.858 59.5033C110.332 59.2617 110.906 59.1409 111.579 59.1409C112.252 59.1409 112.821 59.2617 113.287 59.5033C113.762 59.7448 114.124 60.0856 114.374 60.5256C114.633 60.957 114.78 61.4704 114.814 62.0657C114.823 62.221 114.827 62.4108 114.827 62.6351C114.827 62.8595 114.823 63.0493 114.814 63.2046C114.78 63.7913 114.637 64.3046 114.387 64.7447C114.146 65.1847 113.787 65.5255 113.313 65.767C112.847 66.0086 112.269 66.1294 111.579 66.1294ZM111.579 64.8482C112.036 64.8482 112.39 64.7058 112.64 64.4211C112.89 64.1278 113.028 63.7007 113.054 63.1399C113.063 63.0105 113.067 62.8422 113.067 62.6351C113.067 62.4281 113.063 62.2598 113.054 62.1304C113.028 61.5782 112.89 61.1555 112.64 60.8621C112.39 60.5688 112.036 60.4221 111.579 60.4221C111.122 60.4221 110.768 60.5688 110.518 60.8621C110.267 61.1555 110.129 61.5782 110.103 62.1304C110.095 62.2598 110.09 62.4281 110.09 62.6351C110.09 62.8422 110.095 63.0105 110.103 63.1399C110.129 63.7007 110.267 64.1278 110.518 64.4211C110.768 64.7058 111.122 64.8482 111.579 64.8482ZM116.572 66C116.485 66 116.412 65.9698 116.352 65.9094C116.291 65.849 116.261 65.7757 116.261 65.6894V59.5809C116.261 59.4946 116.291 59.4213 116.352 59.3609C116.412 59.3005 116.485 59.2703 116.572 59.2703H117.633C117.719 59.2703 117.792 59.3005 117.853 59.3609C117.913 59.4213 117.943 59.4946 117.943 59.5809V60.1115C118.168 59.8354 118.453 59.6068 118.798 59.4256C119.151 59.2358 119.587 59.1409 120.105 59.1409C120.631 59.1409 121.088 59.2617 121.477 59.5033C121.865 59.7362 122.162 60.0684 122.37 60.4998C122.585 60.9312 122.693 61.4488 122.693 62.0528V65.6894C122.693 65.7757 122.663 65.849 122.603 65.9094C122.542 65.9698 122.469 66 122.382 66H121.244C121.157 66 121.084 65.9698 121.024 65.9094C120.963 65.849 120.933 65.7757 120.933 65.6894V62.1304C120.933 61.63 120.808 61.2374 120.558 60.9527C120.316 60.668 119.962 60.5256 119.496 60.5256C119.048 60.5256 118.69 60.668 118.422 60.9527C118.155 61.2374 118.021 61.63 118.021 62.1304V65.6894C118.021 65.7757 117.991 65.849 117.931 65.9094C117.87 65.9698 117.797 66 117.711 66H116.572ZM127.76 66C127.674 66 127.601 65.9698 127.54 65.9094C127.48 65.849 127.45 65.7757 127.45 65.6894V57.2643C127.45 57.1694 127.48 57.0918 127.54 57.0314C127.601 56.971 127.674 56.9408 127.76 56.9408H128.757C128.878 56.9408 128.964 56.971 129.016 57.0314C129.076 57.0831 129.115 57.122 129.132 57.1479L132.859 62.9458V57.2643C132.859 57.1694 132.885 57.0918 132.937 57.0314C132.997 56.971 133.075 56.9408 133.17 56.9408H134.257C134.352 56.9408 134.43 56.971 134.49 57.0314C134.55 57.0918 134.581 57.1694 134.581 57.2643V65.6765C134.581 65.7714 134.55 65.849 134.49 65.9094C134.43 65.9698 134.356 66 134.27 66H133.261C133.14 66 133.053 65.9698 133.002 65.9094C132.95 65.849 132.911 65.8102 132.885 65.7929L129.171 60.1245V65.6894C129.171 65.7757 129.141 65.849 129.08 65.9094C129.02 65.9698 128.942 66 128.847 66H127.76ZM138.399 66.1294C137.95 66.1294 137.545 66.0431 137.182 65.8706C136.82 65.6894 136.531 65.4521 136.315 65.1588C136.108 64.8568 136.005 64.5203 136.005 64.1493C136.005 63.5454 136.246 63.0665 136.729 62.7128C137.221 62.3504 137.868 62.1089 138.671 61.9881L140.444 61.7292V61.4575C140.444 61.0951 140.353 60.8147 140.172 60.6162C139.991 60.4178 139.68 60.3186 139.24 60.3186C138.929 60.3186 138.675 60.3833 138.476 60.5127C138.287 60.6335 138.144 60.7974 138.049 61.0045C137.98 61.1167 137.881 61.1727 137.752 61.1727H136.729C136.634 61.1727 136.561 61.1469 136.509 61.0951C136.466 61.0433 136.445 60.9743 136.445 60.888C136.453 60.75 136.509 60.5817 136.613 60.3833C136.716 60.1848 136.88 59.995 137.105 59.8139C137.329 59.624 137.618 59.4644 137.972 59.335C138.325 59.2056 138.753 59.1409 139.253 59.1409C139.797 59.1409 140.254 59.2099 140.625 59.348C141.004 59.4774 141.306 59.6542 141.531 59.8786C141.755 60.1029 141.919 60.366 142.022 60.668C142.126 60.97 142.178 61.2892 142.178 61.6257V65.6894C142.178 65.7757 142.148 65.849 142.087 65.9094C142.027 65.9698 141.953 66 141.867 66H140.819C140.724 66 140.646 65.9698 140.586 65.9094C140.534 65.849 140.508 65.7757 140.508 65.6894V65.1847C140.396 65.3486 140.245 65.5039 140.055 65.6506C139.866 65.7886 139.633 65.9051 139.356 66C139.089 66.0863 138.77 66.1294 138.399 66.1294ZM138.839 64.9C139.141 64.9 139.413 64.8352 139.654 64.7058C139.904 64.5764 140.098 64.378 140.237 64.1105C140.383 63.8344 140.457 63.4893 140.457 63.0752V62.8034L139.162 63.0105C138.653 63.0881 138.274 63.2132 138.023 63.3858C137.773 63.5583 137.648 63.7697 137.648 64.0199C137.648 64.2097 137.704 64.3737 137.816 64.5117C137.937 64.6411 138.088 64.7403 138.269 64.8094C138.451 64.8698 138.64 64.9 138.839 64.9ZM144.149 66C144.062 66 143.989 65.9698 143.929 65.9094C143.868 65.849 143.838 65.7757 143.838 65.6894V59.5809C143.838 59.4946 143.868 59.4213 143.929 59.3609C143.989 59.3005 144.062 59.2703 144.149 59.2703H145.158C145.244 59.2703 145.318 59.3005 145.378 59.3609C145.439 59.4213 145.469 59.4946 145.469 59.5809V60.0209C145.65 59.7793 145.891 59.5766 146.193 59.4127C146.504 59.2401 146.871 59.1495 147.294 59.1409C148.277 59.1236 148.963 59.5076 149.351 60.2927C149.55 59.9476 149.834 59.6715 150.205 59.4644C150.585 59.2487 151.003 59.1409 151.461 59.1409C151.909 59.1409 152.315 59.2444 152.677 59.4515C153.048 59.6586 153.337 59.9735 153.544 60.3962C153.76 60.8104 153.868 61.3367 153.868 61.9751V65.6894C153.868 65.7757 153.838 65.849 153.777 65.9094C153.717 65.9698 153.644 66 153.557 66H152.496C152.41 66 152.336 65.9698 152.276 65.9094C152.216 65.849 152.185 65.7757 152.185 65.6894V62.0787C152.185 61.6904 152.129 61.3841 152.017 61.1598C151.905 60.9268 151.754 60.7629 151.564 60.668C151.374 60.5731 151.163 60.5256 150.93 60.5256C150.74 60.5256 150.551 60.5731 150.361 60.668C150.171 60.7629 150.016 60.9268 149.895 61.1598C149.774 61.3841 149.714 61.6904 149.714 62.0787V65.6894C149.714 65.7757 149.683 65.849 149.623 65.9094C149.563 65.9698 149.489 66 149.403 66H148.342C148.247 66 148.169 65.9698 148.109 65.9094C148.057 65.849 148.031 65.7757 148.031 65.6894V62.0787C148.031 61.6904 147.971 61.3841 147.85 61.1598C147.729 60.9268 147.574 60.7629 147.384 60.668C147.194 60.5731 146.992 60.5256 146.776 60.5256C146.577 60.5256 146.383 60.5774 146.193 60.6809C146.004 60.7759 145.848 60.9355 145.728 61.1598C145.607 61.3841 145.546 61.6904 145.546 62.0787V65.6894C145.546 65.7757 145.516 65.849 145.456 65.9094C145.395 65.9698 145.322 66 145.236 66H144.149ZM158.415 66.1294C157.457 66.1294 156.698 65.8533 156.137 65.3011C155.576 64.749 155.274 63.9638 155.231 62.9458C155.223 62.8595 155.218 62.7516 155.218 62.6222C155.218 62.4842 155.223 62.3763 155.231 62.2987C155.266 61.6516 155.412 61.0908 155.671 60.6162C155.939 60.1417 156.305 59.7793 156.771 59.5291C157.237 59.2703 157.785 59.1409 158.415 59.1409C159.114 59.1409 159.7 59.2876 160.175 59.5809C160.65 59.8656 161.008 60.2668 161.249 60.7845C161.491 61.2935 161.612 61.8845 161.612 62.5575V62.8293C161.612 62.9156 161.581 62.9889 161.521 63.0493C161.461 63.1097 161.383 63.1399 161.288 63.1399H156.991C156.991 63.1399 156.991 63.1528 156.991 63.1787C156.991 63.2046 156.991 63.2262 156.991 63.2434C157 63.5454 157.056 63.8258 157.16 64.0846C157.272 64.3348 157.431 64.5376 157.638 64.6929C157.854 64.8482 158.109 64.9258 158.402 64.9258C158.644 64.9258 158.846 64.8913 159.01 64.8223C159.174 64.7447 159.308 64.6584 159.411 64.5635C159.515 64.4686 159.588 64.3909 159.631 64.3305C159.709 64.227 159.769 64.1666 159.813 64.1493C159.864 64.1234 159.938 64.1105 160.033 64.1105H161.146C161.232 64.1105 161.301 64.1364 161.353 64.1882C161.413 64.2399 161.439 64.3046 161.43 64.3823C161.422 64.5203 161.348 64.6886 161.21 64.887C161.081 65.0855 160.891 65.2796 160.641 65.4694C160.391 65.6592 160.076 65.8188 159.696 65.9482C159.325 66.069 158.898 66.1294 158.415 66.1294ZM156.991 62.0528H159.851V62.0139C159.851 61.6775 159.795 61.3841 159.683 61.1339C159.571 60.8837 159.407 60.6853 159.191 60.5386C158.976 60.3919 158.717 60.3186 158.415 60.3186C158.113 60.3186 157.854 60.3919 157.638 60.5386C157.423 60.6853 157.259 60.8837 157.147 61.1339C157.043 61.3841 156.991 61.6775 156.991 62.0139V62.0528Z" fill="#00AD93"/>
<path d="M55.5719 85.5625C55.4856 85.5625 55.4123 85.5366 55.3519 85.4848C55.3001 85.4245 55.2743 85.3511 55.2743 85.2648V78.0175L53.1259 79.674C53.0569 79.7258 52.9836 79.7473 52.9059 79.7387C52.8283 79.7301 52.7636 79.6913 52.7118 79.6222L52.3753 79.1952C52.3235 79.1175 52.302 79.0399 52.3106 78.9622C52.3279 78.8846 52.371 78.8199 52.44 78.7681L55.2613 76.5939C55.3217 76.5507 55.3778 76.5249 55.4296 76.5162C55.4813 76.5076 55.5374 76.5033 55.5978 76.5033H56.2578C56.3441 76.5033 56.4131 76.5335 56.4649 76.5939C56.5167 76.6456 56.5425 76.7147 56.5425 76.8009V85.2648C56.5425 85.3511 56.5167 85.4245 56.4649 85.4848C56.4131 85.5366 56.3441 85.5625 56.2578 85.5625H55.5719ZM61.6382 85.6919C61.0428 85.6919 60.5381 85.6013 60.124 85.4201C59.7185 85.2303 59.3863 84.9715 59.1275 84.6436C58.8686 84.3158 58.6788 83.9405 58.558 83.5177C58.4459 83.0949 58.3812 82.6463 58.3639 82.1718C58.3553 81.9388 58.3466 81.6929 58.338 81.4341C58.338 81.1753 58.338 80.9164 58.338 80.6576C58.3466 80.3901 58.3553 80.1356 58.3639 79.894C58.3725 79.4195 58.4372 78.9708 58.558 78.5481C58.6874 78.1167 58.8772 77.7414 59.1275 77.4222C59.3863 77.0943 59.7228 76.8398 60.1369 76.6586C60.551 76.4688 61.0515 76.3739 61.6382 76.3739C62.2335 76.3739 62.7339 76.4688 63.1394 76.6586C63.5535 76.8398 63.89 77.0943 64.1488 77.4222C64.4077 77.7414 64.5975 78.1167 64.7183 78.5481C64.8477 78.9708 64.9167 79.4195 64.9254 79.894C64.934 80.1356 64.9383 80.3901 64.9383 80.6576C64.9469 80.9164 64.9469 81.1753 64.9383 81.4341C64.9383 81.6929 64.934 81.9388 64.9254 82.1718C64.9167 82.6463 64.8477 83.0949 64.7183 83.5177C64.5975 83.9405 64.4077 84.3158 64.1488 84.6436C63.8986 84.9715 63.5665 85.2303 63.1523 85.4201C62.7468 85.6013 62.2421 85.6919 61.6382 85.6919ZM61.6382 84.5919C62.3111 84.5919 62.8072 84.3719 63.1265 83.9318C63.4543 83.4832 63.6226 82.8749 63.6312 82.1071C63.6484 81.8569 63.6571 81.6153 63.6571 81.3823C63.6571 81.1407 63.6571 80.9035 63.6571 80.6705C63.6571 80.4289 63.6484 80.1917 63.6312 79.9587C63.6226 79.2081 63.4543 78.6085 63.1265 78.1598C62.8072 77.7026 62.3111 77.4739 61.6382 77.4739C60.9738 77.4739 60.4777 77.7026 60.1499 78.1598C59.8306 78.6085 59.6624 79.2081 59.6451 79.9587C59.6451 80.1917 59.6408 80.4289 59.6322 80.6705C59.6322 80.9035 59.6322 81.1407 59.6322 81.3823C59.6408 81.6153 59.6451 81.8569 59.6451 82.1071C59.6624 82.8749 59.8349 83.4832 60.1628 83.9318C60.4907 84.3719 60.9824 84.5919 61.6382 84.5919ZM70.3464 85.5625C70.2515 85.5625 70.1782 85.5366 70.1264 85.4848C70.0746 85.4245 70.0488 85.3511 70.0488 85.2648V76.8139C70.0488 76.719 70.0746 76.6456 70.1264 76.5939C70.1782 76.5335 70.2515 76.5033 70.3464 76.5033H73.6336C74.2721 76.5033 74.8243 76.6068 75.2902 76.8139C75.7647 77.021 76.1314 77.3316 76.3902 77.7457C76.649 78.1512 76.7785 78.6602 76.7785 79.2728C76.7785 79.8854 76.649 80.3944 76.3902 80.7999C76.1314 81.2055 75.7647 81.5117 75.2902 81.7188C74.8243 81.9259 74.2721 82.0294 73.6336 82.0294H71.3429V85.2648C71.3429 85.3511 71.3127 85.4245 71.2523 85.4848C71.2006 85.5366 71.1272 85.5625 71.0323 85.5625H70.3464ZM71.33 80.9423H73.5689C74.2074 80.9423 74.6862 80.7999 75.0054 80.5152C75.3247 80.2305 75.4843 79.8164 75.4843 79.2728C75.4843 78.7379 75.329 78.3238 75.0184 78.0304C74.7078 77.7371 74.2246 77.5904 73.5689 77.5904H71.33V80.9423ZM80.6946 85.6919C80.1425 85.6919 79.6723 85.5711 79.284 85.3295C78.9044 85.0793 78.6153 84.7342 78.4169 84.2942C78.2185 83.8542 78.1192 83.3495 78.1192 82.78V79.1305C78.1192 79.0442 78.1451 78.9752 78.1969 78.9234C78.2573 78.863 78.3306 78.8328 78.4169 78.8328H79.064C79.1503 78.8328 79.2193 78.863 79.2711 78.9234C79.3315 78.9752 79.3617 79.0442 79.3617 79.1305V82.7153C79.3617 84.0009 79.9225 84.6436 81.0441 84.6436C81.579 84.6436 82.0061 84.4754 82.3253 84.1389C82.6532 83.7938 82.8171 83.3193 82.8171 82.7153V79.1305C82.8171 79.0442 82.843 78.9752 82.8947 78.9234C82.9551 78.863 83.0285 78.8328 83.1148 78.8328H83.7489C83.8438 78.8328 83.9171 78.863 83.9689 78.9234C84.0207 78.9752 84.0466 79.0442 84.0466 79.1305V85.2648C84.0466 85.3511 84.0207 85.4245 83.9689 85.4848C83.9171 85.5366 83.8438 85.5625 83.7489 85.5625H83.1536C83.0673 85.5625 82.994 85.5366 82.9336 85.4848C82.8818 85.4245 82.8559 85.3511 82.8559 85.2648V84.6954C82.623 84.9974 82.3382 85.239 82.0018 85.4201C81.6739 85.6013 81.2382 85.6919 80.6946 85.6919ZM89.2952 85.6919C88.7776 85.6919 88.3462 85.6013 88.0011 85.4201C87.656 85.2303 87.3799 84.9974 87.1728 84.7213V85.2648C87.1728 85.3511 87.1426 85.4245 87.0822 85.4848C87.0304 85.5366 86.9614 85.5625 86.8751 85.5625H86.2798C86.1935 85.5625 86.1202 85.5366 86.0598 85.4848C86.008 85.4245 85.9822 85.3511 85.9822 85.2648V76.6715C85.9822 76.5853 86.008 76.5162 86.0598 76.4645C86.1202 76.4041 86.1935 76.3739 86.2798 76.3739H86.901C86.9959 76.3739 87.0693 76.4041 87.121 76.4645C87.1728 76.5162 87.1987 76.5853 87.1987 76.6715V79.6481C87.4144 79.3807 87.6905 79.1563 88.0269 78.9752C88.3721 78.794 88.7948 78.7034 89.2952 78.7034C89.7784 78.7034 90.1882 78.7897 90.5247 78.9622C90.8698 79.1261 91.1502 79.3548 91.3659 79.6481C91.5902 79.9415 91.7585 80.2736 91.8706 80.6446C91.9828 81.0156 92.0432 81.4039 92.0518 81.8094C92.0605 81.9474 92.0648 82.0769 92.0648 82.1976C92.0648 82.3184 92.0605 82.4479 92.0518 82.5859C92.0432 83 91.9828 83.3926 91.8706 83.7636C91.7585 84.1346 91.5902 84.4668 91.3659 84.7601C91.1502 85.0448 90.8698 85.2735 90.5247 85.446C90.1882 85.61 89.7784 85.6919 89.2952 85.6919ZM89.0235 84.6436C89.4721 84.6436 89.8215 84.5487 90.0717 84.3589C90.3306 84.1605 90.5161 83.906 90.6282 83.5954C90.7404 83.2761 90.8051 82.9353 90.8224 82.573C90.831 82.3228 90.831 82.0725 90.8224 81.8223C90.8051 81.46 90.7404 81.1235 90.6282 80.8129C90.5161 80.4937 90.3306 80.2391 90.0717 80.0493C89.8215 79.8509 89.4721 79.7517 89.0235 79.7517C88.618 79.7517 88.2815 79.8466 88.014 80.0364C87.7465 80.2262 87.5438 80.4678 87.4057 80.7611C87.2763 81.0545 87.2073 81.3521 87.1987 81.6541C87.19 81.7921 87.1857 81.9604 87.1857 82.1588C87.1857 82.3486 87.19 82.5126 87.1987 82.6506C87.2159 82.9698 87.285 83.2848 87.4057 83.5954C87.5352 83.8973 87.7293 84.1475 87.9881 84.346C88.2556 84.5444 88.6007 84.6436 89.0235 84.6436ZM93.9766 85.5625C93.8903 85.5625 93.817 85.5366 93.7566 85.4848C93.7048 85.4245 93.6789 85.3511 93.6789 85.2648V76.6715C93.6789 76.5853 93.7048 76.5162 93.7566 76.4645C93.817 76.4041 93.8903 76.3739 93.9766 76.3739H94.5849C94.6798 76.3739 94.7531 76.4041 94.8049 76.4645C94.8566 76.5162 94.8825 76.5853 94.8825 76.6715V85.2648C94.8825 85.3511 94.8566 85.4245 94.8049 85.4848C94.7531 85.5366 94.6798 85.5625 94.5849 85.5625H93.9766ZM97.237 85.5625C97.1507 85.5625 97.0774 85.5366 97.017 85.4848C96.9652 85.4245 96.9394 85.3511 96.9394 85.2648V79.1305C96.9394 79.0442 96.9652 78.9752 97.017 78.9234C97.0774 78.863 97.1507 78.8328 97.237 78.8328H97.8582C97.9445 78.8328 98.0135 78.863 98.0653 78.9234C98.1171 78.9752 98.1429 79.0442 98.1429 79.1305V85.2648C98.1429 85.3511 98.1171 85.4245 98.0653 85.4848C98.0135 85.5366 97.9445 85.5625 97.8582 85.5625H97.237ZM97.1335 77.5775C97.0472 77.5775 96.9739 77.5516 96.9135 77.4998C96.8617 77.4394 96.8358 77.3661 96.8358 77.2798V76.5809C96.8358 76.4947 96.8617 76.4256 96.9135 76.3739C96.9739 76.3135 97.0472 76.2833 97.1335 76.2833H97.9488C98.0351 76.2833 98.1041 76.3135 98.1559 76.3739C98.2163 76.4256 98.2465 76.4947 98.2465 76.5809V77.2798C98.2465 77.3661 98.2163 77.4394 98.1559 77.4998C98.1041 77.5516 98.0351 77.5775 97.9488 77.5775H97.1335ZM102.479 85.6919C101.996 85.6919 101.582 85.6315 101.237 85.5107C100.892 85.3899 100.611 85.2433 100.395 85.0707C100.18 84.8982 100.016 84.7256 99.9036 84.553C99.8001 84.3805 99.744 84.2424 99.7354 84.1389C99.7267 84.044 99.7569 83.9707 99.826 83.9189C99.895 83.8671 99.964 83.8412 100.033 83.8412H100.602C100.654 83.8412 100.693 83.8499 100.719 83.8671C100.753 83.8758 100.797 83.9103 100.848 83.9707C100.961 84.0915 101.086 84.2122 101.224 84.333C101.362 84.4538 101.53 84.553 101.728 84.6307C101.935 84.7083 102.19 84.7472 102.492 84.7472C102.932 84.7472 103.294 84.6652 103.579 84.5013C103.864 84.3287 104.006 84.0785 104.006 83.7507C104.006 83.535 103.946 83.3624 103.825 83.233C103.713 83.1036 103.506 82.9871 103.204 82.8836C102.91 82.78 102.505 82.6722 101.987 82.56C101.47 82.4392 101.06 82.2926 100.758 82.12C100.456 81.9388 100.24 81.7274 100.111 81.4859C99.9813 81.2356 99.9166 80.9552 99.9166 80.6446C99.9166 80.3254 100.011 80.0191 100.201 79.7258C100.391 79.4238 100.667 79.1779 101.03 78.9881C101.401 78.7983 101.862 78.7034 102.414 78.7034C102.863 78.7034 103.247 78.7595 103.566 78.8716C103.885 78.9838 104.149 79.1261 104.356 79.2987C104.563 79.4626 104.718 79.6266 104.821 79.7905C104.925 79.9544 104.981 80.0925 104.99 80.2046C104.998 80.2909 104.972 80.3642 104.912 80.4246C104.852 80.4764 104.783 80.5023 104.705 80.5023H104.161C104.101 80.5023 104.049 80.4893 104.006 80.4635C103.972 80.4376 103.937 80.4074 103.903 80.3729C103.816 80.2607 103.713 80.1485 103.592 80.0364C103.48 79.9242 103.329 79.8336 103.139 79.7646C102.958 79.687 102.716 79.6481 102.414 79.6481C101.983 79.6481 101.659 79.7387 101.444 79.9199C101.228 80.1011 101.12 80.3297 101.12 80.6058C101.12 80.7697 101.168 80.9164 101.262 81.0458C101.357 81.1753 101.539 81.2917 101.806 81.3953C102.074 81.4988 102.47 81.611 102.997 81.7317C103.566 81.8439 104.015 81.9949 104.343 82.1847C104.67 82.3745 104.903 82.5945 105.041 82.8447C105.18 83.0949 105.249 83.384 105.249 83.7118C105.249 84.0742 105.141 84.4064 104.925 84.7083C104.718 85.0103 104.407 85.2519 103.993 85.4331C103.588 85.6056 103.083 85.6919 102.479 85.6919ZM107.057 85.5625C106.971 85.5625 106.898 85.5366 106.837 85.4848C106.786 85.4245 106.76 85.3511 106.76 85.2648V76.6715C106.76 76.5853 106.786 76.5162 106.837 76.4645C106.898 76.4041 106.971 76.3739 107.057 76.3739H107.704C107.799 76.3739 107.873 76.4041 107.924 76.4645C107.976 76.5162 108.002 76.5853 108.002 76.6715V79.687C108.235 79.3936 108.52 79.1563 108.856 78.9752C109.193 78.794 109.62 78.7034 110.137 78.7034C110.698 78.7034 111.173 78.8285 111.561 79.0787C111.958 79.3203 112.256 79.6611 112.454 80.1011C112.661 80.5325 112.765 81.0372 112.765 81.6153V85.2648C112.765 85.3511 112.739 85.4245 112.687 85.4848C112.635 85.5366 112.562 85.5625 112.467 85.5625H111.82C111.734 85.5625 111.66 85.5366 111.6 85.4848C111.548 85.4245 111.522 85.3511 111.522 85.2648V81.68C111.522 81.076 111.376 80.6058 111.082 80.2693C110.789 79.9242 110.358 79.7517 109.788 79.7517C109.253 79.7517 108.822 79.9242 108.494 80.2693C108.166 80.6058 108.002 81.076 108.002 81.68V85.2648C108.002 85.3511 107.976 85.4245 107.924 85.4848C107.873 85.5366 107.799 85.5625 107.704 85.5625H107.057ZM117.312 85.6919C116.423 85.6919 115.716 85.4201 115.19 84.8766C114.663 84.3244 114.374 83.5738 114.323 82.6247C114.314 82.5126 114.31 82.3702 114.31 82.1976C114.31 82.0165 114.314 81.8698 114.323 81.7576C114.357 81.1451 114.499 80.6101 114.75 80.1529C115 79.687 115.341 79.3289 115.772 79.0787C116.212 78.8285 116.725 78.7034 117.312 78.7034C117.968 78.7034 118.516 78.8414 118.956 79.1175C119.404 79.3936 119.745 79.7862 119.978 80.2952C120.211 80.8043 120.327 81.3996 120.327 82.0812V82.3012C120.327 82.3961 120.297 82.4694 120.237 82.5212C120.185 82.573 120.116 82.5988 120.03 82.5988H115.552C115.552 82.6075 115.552 82.6247 115.552 82.6506C115.552 82.6765 115.552 82.6981 115.552 82.7153C115.569 83.0691 115.647 83.4012 115.785 83.7118C115.923 84.0138 116.121 84.2597 116.38 84.4495C116.639 84.6393 116.95 84.7342 117.312 84.7342C117.623 84.7342 117.882 84.6868 118.089 84.5919C118.296 84.497 118.464 84.3934 118.593 84.2813C118.723 84.1605 118.809 84.0699 118.852 84.0095C118.93 83.8973 118.99 83.8326 119.033 83.8154C119.076 83.7895 119.145 83.7765 119.24 83.7765H119.862C119.948 83.7765 120.017 83.8024 120.069 83.8542C120.129 83.8973 120.155 83.962 120.146 84.0483C120.138 84.1777 120.069 84.3373 119.939 84.5272C119.81 84.7083 119.624 84.8895 119.383 85.0707C119.141 85.2519 118.848 85.4029 118.503 85.5237C118.158 85.6358 117.761 85.6919 117.312 85.6919ZM115.552 81.7059H119.098V81.667C119.098 81.2788 119.025 80.9337 118.878 80.6317C118.74 80.3297 118.537 80.0925 118.27 79.9199C118.002 79.7387 117.683 79.6481 117.312 79.6481C116.941 79.6481 116.622 79.7387 116.354 79.9199C116.096 80.0925 115.897 80.3297 115.759 80.6317C115.621 80.9337 115.552 81.2788 115.552 81.667V81.7059ZM124.334 85.6919C123.859 85.6919 123.45 85.61 123.104 85.446C122.759 85.2735 122.475 85.0448 122.25 84.7601C122.035 84.4668 121.871 84.1346 121.758 83.7636C121.655 83.3926 121.595 83 121.577 82.5859C121.569 82.4479 121.564 82.3184 121.564 82.1976C121.564 82.0769 121.569 81.9474 121.577 81.8094C121.595 81.4039 121.655 81.0156 121.758 80.6446C121.871 80.2736 122.035 79.9415 122.25 79.6481C122.475 79.3548 122.759 79.1261 123.104 78.9622C123.45 78.7897 123.859 78.7034 124.334 78.7034C124.843 78.7034 125.266 78.794 125.602 78.9752C125.939 79.1563 126.215 79.3807 126.43 79.6481V76.6715C126.43 76.5853 126.456 76.5162 126.508 76.4645C126.568 76.4041 126.642 76.3739 126.728 76.3739H127.349C127.436 76.3739 127.505 76.4041 127.556 76.4645C127.617 76.5162 127.647 76.5853 127.647 76.6715V85.2648C127.647 85.3511 127.617 85.4245 127.556 85.4848C127.505 85.5366 127.436 85.5625 127.349 85.5625H126.767C126.672 85.5625 126.599 85.5366 126.547 85.4848C126.495 85.4245 126.469 85.3511 126.469 85.2648V84.7213C126.254 84.9974 125.973 85.2303 125.628 85.4201C125.283 85.6013 124.852 85.6919 124.334 85.6919ZM124.606 84.6436C125.037 84.6436 125.382 84.5444 125.641 84.346C125.9 84.1475 126.094 83.8973 126.223 83.5954C126.353 83.2848 126.422 82.9698 126.43 82.6506C126.439 82.5126 126.443 82.3486 126.443 82.1588C126.443 81.9604 126.439 81.7921 126.43 81.6541C126.422 81.3521 126.348 81.0545 126.21 80.7611C126.081 80.4678 125.883 80.2262 125.615 80.0364C125.356 79.8466 125.02 79.7517 124.606 79.7517C124.166 79.7517 123.816 79.8509 123.557 80.0493C123.299 80.2391 123.113 80.4937 123.001 80.8129C122.889 81.1235 122.824 81.46 122.807 81.8223C122.798 82.0725 122.798 82.3228 122.807 82.573C122.824 82.9353 122.889 83.2761 123.001 83.5954C123.113 83.906 123.299 84.1605 123.557 84.3589C123.816 84.5487 124.166 84.6436 124.606 84.6436ZM133.21 85.5625C133.115 85.5625 133.042 85.5366 132.99 85.4848C132.938 85.4245 132.912 85.3511 132.912 85.2648V76.8139C132.912 76.719 132.938 76.6456 132.99 76.5939C133.042 76.5335 133.115 76.5033 133.21 76.5033H138.555C138.65 76.5033 138.723 76.5335 138.775 76.5939C138.827 76.6456 138.852 76.719 138.852 76.8139V77.3057C138.852 77.4006 138.827 77.4739 138.775 77.5257C138.723 77.5775 138.65 77.6033 138.555 77.6033H134.155V80.4376H138.27C138.365 80.4376 138.438 80.4678 138.49 80.5282C138.542 80.5799 138.568 80.6533 138.568 80.7482V81.227C138.568 81.3133 138.542 81.3866 138.49 81.447C138.438 81.4988 138.365 81.5247 138.27 81.5247H134.155V84.4625H138.658C138.753 84.4625 138.827 84.4883 138.878 84.5401C138.93 84.5919 138.956 84.6652 138.956 84.7601V85.2648C138.956 85.3511 138.93 85.4245 138.878 85.4848C138.827 85.5366 138.753 85.5625 138.658 85.5625H133.21ZM142.745 85.5625C142.616 85.5625 142.512 85.5323 142.435 85.4719C142.366 85.4115 142.31 85.3339 142.266 85.239L139.872 79.234C139.855 79.1909 139.846 79.1477 139.846 79.1046C139.846 79.0269 139.872 78.9622 139.924 78.9105C139.976 78.8587 140.04 78.8328 140.118 78.8328H140.739C140.834 78.8328 140.908 78.8587 140.959 78.9105C141.011 78.9622 141.041 79.0097 141.05 79.0528L143.03 84.1519L144.997 79.0528C145.014 79.0097 145.045 78.9622 145.088 78.9105C145.14 78.8587 145.213 78.8328 145.308 78.8328H145.942C146.011 78.8328 146.071 78.8587 146.123 78.9105C146.183 78.9622 146.214 79.0269 146.214 79.1046C146.214 79.1477 146.205 79.1909 146.188 79.234L143.781 85.239C143.746 85.3339 143.69 85.4115 143.612 85.4719C143.543 85.5323 143.44 85.5625 143.302 85.5625H142.745ZM150.008 85.6919C149.119 85.6919 148.411 85.4201 147.885 84.8766C147.359 84.3244 147.07 83.5738 147.018 82.6247C147.009 82.5126 147.005 82.3702 147.005 82.1976C147.005 82.0165 147.009 81.8698 147.018 81.7576C147.053 81.1451 147.195 80.6101 147.445 80.1529C147.695 79.687 148.036 79.3289 148.468 79.0787C148.908 78.8285 149.421 78.7034 150.008 78.7034C150.663 78.7034 151.211 78.8414 151.651 79.1175C152.1 79.3936 152.441 79.7862 152.674 80.2952C152.907 80.8043 153.023 81.3996 153.023 82.0812V82.3012C153.023 82.3961 152.993 82.4694 152.932 82.5212C152.881 82.573 152.812 82.5988 152.725 82.5988H148.248C148.248 82.6075 148.248 82.6247 148.248 82.6506C148.248 82.6765 148.248 82.6981 148.248 82.7153C148.265 83.0691 148.342 83.4012 148.481 83.7118C148.619 84.0138 148.817 84.2597 149.076 84.4495C149.335 84.6393 149.645 84.7342 150.008 84.7342C150.318 84.7342 150.577 84.6868 150.784 84.5919C150.991 84.497 151.159 84.3934 151.289 84.2813C151.418 84.1605 151.505 84.0699 151.548 84.0095C151.625 83.8973 151.686 83.8326 151.729 83.8154C151.772 83.7895 151.841 83.7765 151.936 83.7765H152.557C152.643 83.7765 152.712 83.8024 152.764 83.8542C152.825 83.8973 152.85 83.962 152.842 84.0483C152.833 84.1777 152.764 84.3373 152.635 84.5272C152.505 84.7083 152.32 84.8895 152.078 85.0707C151.837 85.2519 151.543 85.4029 151.198 85.5237C150.853 85.6358 150.456 85.6919 150.008 85.6919ZM148.248 81.7059H151.794V81.667C151.794 81.2788 151.72 80.9337 151.574 80.6317C151.436 80.3297 151.233 80.0925 150.965 79.9199C150.698 79.7387 150.379 79.6481 150.008 79.6481C149.637 79.6481 149.317 79.7387 149.05 79.9199C148.791 80.0925 148.593 80.3297 148.455 80.6317C148.317 80.9337 148.248 81.2788 148.248 81.667V81.7059ZM154.868 85.5625C154.782 85.5625 154.709 85.5366 154.648 85.4848C154.596 85.4245 154.571 85.3511 154.571 85.2648V79.1305C154.571 79.0442 154.596 78.9752 154.648 78.9234C154.709 78.863 154.782 78.8328 154.868 78.8328H155.476C155.563 78.8328 155.632 78.863 155.683 78.9234C155.744 78.9752 155.774 79.0442 155.774 79.1305V79.6999C155.998 79.4065 156.279 79.1693 156.615 78.9881C156.96 78.7983 157.4 78.7034 157.935 78.7034C158.496 78.7034 158.971 78.8285 159.359 79.0787C159.756 79.3203 160.053 79.6611 160.252 80.1011C160.45 80.5325 160.55 81.0372 160.55 81.6153V85.2648C160.55 85.3511 160.524 85.4245 160.472 85.4848C160.42 85.5366 160.351 85.5625 160.265 85.5625H159.618C159.532 85.5625 159.458 85.5366 159.398 85.4848C159.346 85.4245 159.32 85.3511 159.32 85.2648V81.68C159.32 81.076 159.173 80.6058 158.88 80.2693C158.587 79.9242 158.155 79.7517 157.586 79.7517C157.051 79.7517 156.62 79.9242 156.292 80.2693C155.973 80.6058 155.813 81.076 155.813 81.68V85.2648C155.813 85.3511 155.783 85.4245 155.722 85.4848C155.671 85.5366 155.602 85.5625 155.515 85.5625H154.868ZM164.958 85.5625C164.474 85.5625 164.082 85.4719 163.78 85.2907C163.478 85.1009 163.258 84.8378 163.12 84.5013C162.982 84.1562 162.913 83.7507 162.913 83.2848V79.8681H161.903C161.817 79.8681 161.744 79.8423 161.683 79.7905C161.632 79.7301 161.606 79.6568 161.606 79.5705V79.1305C161.606 79.0442 161.632 78.9752 161.683 78.9234C161.744 78.863 161.817 78.8328 161.903 78.8328H162.913V76.6715C162.913 76.5853 162.939 76.5162 162.991 76.4645C163.051 76.4041 163.124 76.3739 163.211 76.3739H163.819C163.905 76.3739 163.974 76.4041 164.026 76.4645C164.086 76.5162 164.116 76.5853 164.116 76.6715V78.8328H165.721C165.807 78.8328 165.877 78.863 165.928 78.9234C165.989 78.9752 166.019 79.0442 166.019 79.1305V79.5705C166.019 79.6568 165.989 79.7301 165.928 79.7905C165.877 79.8423 165.807 79.8681 165.721 79.8681H164.116V83.1942C164.116 83.5997 164.185 83.9189 164.324 84.1519C164.462 84.3848 164.707 84.5013 165.061 84.5013H165.851C165.937 84.5013 166.006 84.5315 166.058 84.5919C166.118 84.6436 166.148 84.7127 166.148 84.7989V85.2648C166.148 85.3511 166.118 85.4245 166.058 85.4848C166.006 85.5366 165.937 85.5625 165.851 85.5625H164.958ZM169.715 85.6919C169.232 85.6919 168.818 85.6315 168.473 85.5107C168.128 85.3899 167.847 85.2433 167.632 85.0707C167.416 84.8982 167.252 84.7256 167.14 84.553C167.036 84.3805 166.98 84.2424 166.972 84.1389C166.963 84.044 166.993 83.9707 167.062 83.9189C167.131 83.8671 167.2 83.8412 167.269 83.8412H167.839C167.891 83.8412 167.929 83.8499 167.955 83.8671C167.99 83.8758 168.033 83.9103 168.085 83.9707C168.197 84.0915 168.322 84.2122 168.46 84.333C168.598 84.4538 168.766 84.553 168.965 84.6307C169.172 84.7083 169.426 84.7472 169.728 84.7472C170.168 84.7472 170.531 84.6652 170.815 84.5013C171.1 84.3287 171.242 84.0785 171.242 83.7507C171.242 83.535 171.182 83.3624 171.061 83.233C170.949 83.1036 170.742 82.9871 170.44 82.8836C170.147 82.78 169.741 82.6722 169.224 82.56C168.706 82.4392 168.296 82.2926 167.994 82.12C167.692 81.9388 167.476 81.7274 167.347 81.4859C167.218 81.2356 167.153 80.9552 167.153 80.6446C167.153 80.3254 167.248 80.0191 167.438 79.7258C167.627 79.4238 167.904 79.1779 168.266 78.9881C168.637 78.7983 169.098 78.7034 169.651 78.7034C170.099 78.7034 170.483 78.7595 170.802 78.8716C171.122 78.9838 171.385 79.1261 171.592 79.2987C171.799 79.4626 171.954 79.6266 172.058 79.7905C172.161 79.9544 172.217 80.0925 172.226 80.2046C172.235 80.2909 172.209 80.3642 172.148 80.4246C172.088 80.4764 172.019 80.5023 171.941 80.5023H171.398C171.337 80.5023 171.286 80.4893 171.242 80.4635C171.208 80.4376 171.173 80.4074 171.139 80.3729C171.053 80.2607 170.949 80.1485 170.828 80.0364C170.716 79.9242 170.565 79.8336 170.375 79.7646C170.194 79.687 169.953 79.6481 169.651 79.6481C169.219 79.6481 168.896 79.7387 168.68 79.9199C168.464 80.1011 168.356 80.3297 168.356 80.6058C168.356 80.7697 168.404 80.9164 168.499 81.0458C168.594 81.1753 168.775 81.2917 169.042 81.3953C169.31 81.4988 169.707 81.611 170.233 81.7317C170.802 81.8439 171.251 81.9949 171.579 82.1847C171.907 82.3745 172.14 82.5945 172.278 82.8447C172.416 83.0949 172.485 83.384 172.485 83.7118C172.485 84.0742 172.377 84.4064 172.161 84.7083C171.954 85.0103 171.644 85.2519 171.23 85.4331C170.824 85.6056 170.319 85.6919 169.715 85.6919Z" fill="black" fill-opacity="0.8"/>
<path d="M170.814 66C170.728 66 170.654 65.9741 170.594 65.9223C170.542 65.862 170.516 65.7886 170.516 65.7023V58.455L168.368 60.1115C168.299 60.1633 168.226 60.1848 168.148 60.1762C168.07 60.1676 168.006 60.1288 167.954 60.0597L167.617 59.6327C167.566 59.555 167.544 59.4774 167.553 59.3997C167.57 59.3221 167.613 59.2574 167.682 59.2056L170.504 57.0314C170.564 56.9882 170.62 56.9624 170.672 56.9537C170.724 56.9451 170.78 56.9408 170.84 56.9408H171.5C171.586 56.9408 171.655 56.971 171.707 57.0314C171.759 57.0831 171.785 57.1522 171.785 57.2384V65.7023C171.785 65.7886 171.759 65.862 171.707 65.9223C171.655 65.9741 171.586 66 171.5 66H170.814ZM173.943 66C173.856 66 173.783 65.9741 173.723 65.9223C173.671 65.862 173.645 65.7886 173.645 65.7023V64.7705C173.645 64.6843 173.671 64.6152 173.723 64.5635C173.783 64.5031 173.856 64.4729 173.943 64.4729H174.874C174.961 64.4729 175.03 64.5031 175.081 64.5635C175.142 64.6152 175.172 64.6843 175.172 64.7705V65.7023C175.172 65.7886 175.142 65.862 175.081 65.9223C175.03 65.9741 174.961 66 174.874 66H173.943ZM179.951 66.1294C179.356 66.1294 178.851 66.0388 178.437 65.8576C178.032 65.6678 177.7 65.409 177.441 65.0811C177.182 64.7533 176.992 64.378 176.871 63.9552C176.759 63.5324 176.694 63.0838 176.677 62.6093C176.669 62.3763 176.66 62.1304 176.651 61.8716C176.651 61.6128 176.651 61.3539 176.651 61.0951C176.66 60.8276 176.669 60.5731 176.677 60.3315C176.686 59.857 176.751 59.4083 176.871 58.9856C177.001 58.5542 177.191 58.1789 177.441 57.8597C177.7 57.5318 178.036 57.2773 178.45 57.0961C178.864 56.9063 179.365 56.8114 179.951 56.8114C180.547 56.8114 181.047 56.9063 181.453 57.0961C181.867 57.2773 182.203 57.5318 182.462 57.8597C182.721 58.1789 182.911 58.5542 183.032 58.9856C183.161 59.4083 183.23 59.857 183.239 60.3315C183.247 60.5731 183.252 60.8276 183.252 61.0951C183.26 61.3539 183.26 61.6128 183.252 61.8716C183.252 62.1304 183.247 62.3763 183.239 62.6093C183.23 63.0838 183.161 63.5324 183.032 63.9552C182.911 64.378 182.721 64.7533 182.462 65.0811C182.212 65.409 181.88 65.6678 181.466 65.8576C181.06 66.0388 180.555 66.1294 179.951 66.1294ZM179.951 65.0294C180.624 65.0294 181.121 64.8094 181.44 64.3693C181.768 63.9207 181.936 63.3124 181.945 62.5446C181.962 62.2944 181.97 62.0528 181.97 61.8198C181.97 61.5782 181.97 61.341 181.97 61.108C181.97 60.8664 181.962 60.6292 181.945 60.3962C181.936 59.6456 181.768 59.046 181.44 58.5973C181.121 58.1401 180.624 57.9114 179.951 57.9114C179.287 57.9114 178.791 58.1401 178.463 58.5973C178.144 59.046 177.976 59.6456 177.958 60.3962C177.958 60.6292 177.954 60.8664 177.946 61.108C177.946 61.341 177.946 61.5782 177.946 61.8198C177.954 62.0528 177.958 62.2944 177.958 62.5446C177.976 63.3124 178.148 63.9207 178.476 64.3693C178.804 64.8094 179.296 65.0294 179.951 65.0294ZM185.039 66C184.953 66 184.879 65.9741 184.819 65.9223C184.767 65.862 184.741 65.7886 184.741 65.7023V64.7705C184.741 64.6843 184.767 64.6152 184.819 64.5635C184.879 64.5031 184.953 64.4729 185.039 64.4729H185.971C186.057 64.4729 186.126 64.5031 186.178 64.5635C186.238 64.6152 186.269 64.6843 186.269 64.7705V65.7023C186.269 65.7886 186.238 65.862 186.178 65.9223C186.126 65.9741 186.057 66 185.971 66H185.039ZM189.835 66C189.749 66 189.675 65.9741 189.615 65.9223C189.563 65.862 189.537 65.7886 189.537 65.7023V58.455L187.389 60.1115C187.32 60.1633 187.247 60.1848 187.169 60.1762C187.091 60.1676 187.027 60.1288 186.975 60.0597L186.638 59.6327C186.587 59.555 186.565 59.4774 186.574 59.3997C186.591 59.3221 186.634 59.2574 186.703 59.2056L189.524 57.0314C189.585 56.9882 189.641 56.9624 189.693 56.9537C189.744 56.9451 189.8 56.9408 189.861 56.9408H190.521C190.607 56.9408 190.676 56.971 190.728 57.0314C190.78 57.0831 190.806 57.1522 190.806 57.2384V65.7023C190.806 65.7886 190.78 65.862 190.728 65.9223C190.676 65.9741 190.607 66 190.521 66H189.835Z" fill="black" fill-opacity="0.8"/>
<line x1="36" y1="105.538" x2="264" y2="105.538" stroke="black" stroke-opacity="0.1" stroke-width="0.92441"/>
<line x1="36" y1="163.538" x2="264" y2="163.538" stroke="black" stroke-opacity="0.1" stroke-width="0.92441"/>
<rect x="52" y="118" width="111" height="14" rx="3.69764" fill="black" fill-opacity="0.1"/>
<rect x="52" y="176" width="111" height="14" rx="3.69764" fill="black" fill-opacity="0.1"/>
<rect x="172" y="118.008" width="25.8835" height="13.8661" rx="3.69764" fill="black" fill-opacity="0.1"/>
<rect x="172" y="176.312" width="25.8835" height="13.8661" rx="3.69764" fill="black" fill-opacity="0.1"/>
<rect x="206" y="118" width="42" height="14" rx="3.69764" fill="black" fill-opacity="0.1"/>
<rect x="206" y="176" width="42" height="14" rx="3.69764" fill="black" fill-opacity="0.1"/>
<rect x="52" y="138" width="115" height="14" rx="3.69764" fill="black" fill-opacity="0.1"/>
<rect x="201" y="53" width="46.4882" height="16.6976" rx="8.34882" fill="#DEE0E5"/>
<path d="M211.376 64.8488C211.302 64.8488 211.239 64.8229 211.187 64.7712C211.135 64.7194 211.109 64.6565 211.109 64.5826V57.3611C211.109 57.2798 211.135 57.2132 211.187 57.1614C211.239 57.1097 211.302 57.0838 211.376 57.0838H214.082C214.829 57.0838 215.443 57.1984 215.924 57.4277C216.412 57.6569 216.778 57.9971 217.022 58.4482C217.273 58.8993 217.403 59.4503 217.41 60.101C217.425 60.4264 217.432 60.7149 217.432 60.9663C217.432 61.2177 217.425 61.5025 217.41 61.8205C217.395 62.5082 217.27 63.0776 217.033 63.5288C216.796 63.9725 216.438 64.3053 215.957 64.5271C215.484 64.7416 214.877 64.8488 214.138 64.8488H211.376ZM212.651 63.5731H214.082C214.496 63.5731 214.833 63.514 215.092 63.3956C215.351 63.2773 215.539 63.0887 215.657 62.8299C215.783 62.5637 215.85 62.2161 215.857 61.7872C215.865 61.5653 215.868 61.373 215.868 61.2103C215.876 61.0402 215.876 60.8739 215.868 60.7112C215.868 60.5411 215.865 60.3488 215.857 60.1343C215.842 59.5279 215.691 59.0805 215.402 58.7921C215.114 58.5037 214.655 58.3595 214.027 58.3595H212.651V63.5731ZM219.042 64.8488C218.968 64.8488 218.905 64.8229 218.854 64.7712C218.802 64.7194 218.776 64.6565 218.776 64.5826V59.3578C218.776 59.2765 218.802 59.2099 218.854 59.1582C218.905 59.1064 218.968 59.0805 219.042 59.0805H219.941C220.015 59.0805 220.078 59.1064 220.129 59.1582C220.188 59.2099 220.218 59.2765 220.218 59.3578V59.8126C220.388 59.576 220.606 59.3948 220.873 59.2691C221.146 59.1434 221.46 59.0805 221.815 59.0805H222.27C222.352 59.0805 222.414 59.1064 222.459 59.1582C222.511 59.2099 222.536 59.2728 222.536 59.3467V60.1454C222.536 60.2194 222.511 60.2822 222.459 60.334C222.414 60.3858 222.352 60.4117 222.27 60.4117H221.405C221.05 60.4117 220.773 60.5115 220.573 60.7112C220.381 60.9108 220.285 61.1845 220.285 61.532V64.5826C220.285 64.6565 220.259 64.7194 220.207 64.7712C220.155 64.8229 220.089 64.8488 220.007 64.8488H219.042ZM224.99 64.9597C224.605 64.9597 224.258 64.8858 223.947 64.7379C223.637 64.5826 223.389 64.3792 223.204 64.1278C223.027 63.8689 222.938 63.5805 222.938 63.2625C222.938 62.7449 223.145 62.3344 223.559 62.0312C223.981 61.7206 224.535 61.5135 225.223 61.41L226.743 61.1882V60.9552C226.743 60.6446 226.665 60.4043 226.51 60.2342C226.354 60.0641 226.088 59.979 225.711 59.979C225.445 59.979 225.227 60.0345 225.057 60.1454C224.894 60.249 224.772 60.3895 224.69 60.567C224.631 60.6631 224.546 60.7112 224.435 60.7112H223.559C223.478 60.7112 223.415 60.689 223.37 60.6446C223.333 60.6002 223.315 60.5411 223.315 60.4671C223.322 60.3488 223.37 60.2046 223.459 60.0345C223.548 59.8644 223.688 59.7017 223.881 59.5464C224.073 59.3837 224.321 59.2469 224.624 59.136C224.927 59.025 225.293 58.9696 225.722 58.9696C226.188 58.9696 226.58 59.0287 226.898 59.1471C227.223 59.258 227.482 59.4096 227.674 59.6019C227.867 59.7941 228.007 60.0197 228.096 60.2785C228.185 60.5374 228.229 60.811 228.229 61.0994V64.5826C228.229 64.6565 228.203 64.7194 228.151 64.7712C228.1 64.8229 228.037 64.8488 227.963 64.8488H227.064C226.983 64.8488 226.916 64.8229 226.865 64.7712C226.82 64.7194 226.798 64.6565 226.798 64.5826V64.15C226.702 64.2905 226.573 64.4236 226.41 64.5493C226.247 64.6676 226.048 64.7675 225.811 64.8488C225.582 64.9228 225.308 64.9597 224.99 64.9597ZM225.367 63.9059C225.626 63.9059 225.859 63.8505 226.066 63.7395C226.28 63.6286 226.447 63.4585 226.565 63.2293C226.691 62.9926 226.754 62.6968 226.754 62.3418V62.1089L225.644 62.2864C225.208 62.3529 224.883 62.4601 224.668 62.608C224.454 62.756 224.347 62.9371 224.347 63.1516C224.347 63.3143 224.395 63.4548 224.491 63.5731C224.594 63.6841 224.724 63.7691 224.879 63.8283C225.034 63.88 225.197 63.9059 225.367 63.9059ZM230.486 64.8488C230.412 64.8488 230.349 64.8229 230.297 64.7712C230.245 64.7194 230.219 64.6565 230.219 64.5826V60.2563H229.321C229.247 60.2563 229.184 60.2305 229.132 60.1787C229.08 60.1269 229.055 60.0641 229.055 59.9901V59.3467C229.055 59.2728 229.08 59.2099 229.132 59.1582C229.184 59.1064 229.247 59.0805 229.321 59.0805H230.219V58.6257C230.219 58.182 230.301 57.8159 230.463 57.5275C230.626 57.2317 230.866 57.0098 231.184 56.8619C231.502 56.714 231.905 56.6401 232.393 56.6401H233.148C233.229 56.6401 233.292 56.6659 233.336 56.7177C233.388 56.7695 233.414 56.8323 233.414 56.9063V57.5497C233.414 57.6236 233.388 57.6865 233.336 57.7383C233.292 57.79 233.229 57.8159 233.148 57.8159H232.438C232.142 57.8159 231.939 57.8899 231.828 58.0378C231.717 58.1857 231.661 58.4001 231.661 58.6812V59.0805H233.037C233.118 59.0805 233.181 59.1064 233.225 59.1582C233.277 59.2099 233.303 59.2728 233.303 59.3467V59.9901C233.303 60.0641 233.277 60.1269 233.225 60.1787C233.181 60.2305 233.118 60.2563 233.037 60.2563H231.661V64.5826C231.661 64.6565 231.635 64.7194 231.584 64.7712C231.532 64.8229 231.469 64.8488 231.395 64.8488H230.486ZM236.798 64.8488C236.354 64.8488 235.981 64.7712 235.678 64.6159C235.374 64.4606 235.149 64.2313 235.001 63.9281C234.853 63.6175 234.779 63.2329 234.779 62.7744V60.2563H233.903C233.829 60.2563 233.766 60.2305 233.714 60.1787C233.662 60.1269 233.637 60.0641 233.637 59.9901V59.3467C233.637 59.2728 233.662 59.2099 233.714 59.1582C233.766 59.1064 233.829 59.0805 233.903 59.0805H234.779V57.2391C234.779 57.1651 234.801 57.1023 234.846 57.0505C234.897 56.9987 234.964 56.9728 235.045 56.9728H235.944C236.018 56.9728 236.081 56.9987 236.132 57.0505C236.184 57.1023 236.21 57.1651 236.21 57.2391V59.0805H237.597C237.671 59.0805 237.734 59.1064 237.785 59.1582C237.837 59.2099 237.863 59.2728 237.863 59.3467V59.9901C237.863 60.0641 237.837 60.1269 237.785 60.1787C237.734 60.2305 237.671 60.2563 237.597 60.2563H236.21V62.6635C236.21 62.9667 236.262 63.2034 236.365 63.3735C236.476 63.5435 236.665 63.6286 236.931 63.6286H237.697C237.771 63.6286 237.833 63.6545 237.885 63.7062C237.937 63.758 237.963 63.8209 237.963 63.8948V64.5826C237.963 64.6565 237.937 64.7194 237.885 64.7712C237.833 64.8229 237.771 64.8488 237.697 64.8488H236.798Z" fill="#3A4880"/>
<rect x="201.693" y="53.6933" width="45.1016" height="15.311" rx="7.65551" stroke="#3A4880" stroke-opacity="0.5" stroke-width="1.38661" stroke-dasharray="4.62 2.77"/>
<rect opacity="0.2" width="586" height="185" transform="matrix(1 0 0 -1 0 185)" fill="url(#paint0_linear_1959_154724)"/>
</g>
<defs>
<filter id="filter0_d_1959_154724" x="32.3024" y="33.2268" width="522.395" height="177.395" filterUnits="userSpaceOnUse" color-interpolation-filters="sRGB">
<feFlood flood-opacity="0" result="BackgroundImageFix"/>
<feColorMatrix in="SourceAlpha" type="matrix" values="0 0 0 0 0 0 0 0 0 0 0 0 0 0 0 0 0 0 127 0" result="hardAlpha"/>
<feOffset dy="0.92441"/>
<feGaussianBlur stdDeviation="1.84882"/>
<feColorMatrix type="matrix" values="0 0 0 0 0 0 0 0 0 0 0 0 0 0 0 0 0 0 0.2 0"/>
<feBlend mode="normal" in2="BackgroundImageFix" result="effect1_dropShadow_1959_154724"/>
<feBlend mode="normal" in="SourceGraphic" in2="effect1_dropShadow_1959_154724" result="shape"/>
</filter>
<linearGradient id="paint0_linear_1959_154724" x1="293" y1="-71.6875" x2="293" y2="61.05" gradientUnits="userSpaceOnUse">
<stop/>
<stop offset="1" stop-color="white" stop-opacity="0"/>
</linearGradient>
<clipPath id="clip0_1959_154724">
<rect width="587" height="184.882" fill="white"/>
</clipPath>
</defs>
</svg>