<?xml version="1.0" encoding="utf-8"?>
<!--
  Copyright 2023-2025 Solace Systems. All rights reserved.

  Licensed under the Apache License, Version 2.0 (the "License");
  you may not use this file except in compliance with the License.
  You may obtain a copy of the License at

      http://www.apache.org/licenses/LICENSE-2.0

  Unless required by applicable law or agreed to in writing, software
  distributed under the License is distributed on an "AS IS" BASIS,
  WITHOUT WARRANTIES OR CONDITIONS OF ANY KIND, either express or implied.
  See the License for the specific language governing permissions and
  limitations under the License.
-->
<svg width="40" height="36" viewBox="0 0 40 36" fill="none" xmlns="http://www.w3.org/2000/svg">
<path d="M0.5 1.24326C0.5 0.843124 0.824371 0.518753 1.2245 0.518753H14.8628C17.5171 0.518753 19.6689 2.67055 19.6689 5.32492V33.9031C19.6689 34.3032 19.3446 34.6276 18.9444 34.6276H1.2245C0.824371 34.6276 0.5 34.3032 0.5 33.9031V1.24326Z" fill="white" stroke="#6A6A6A" stroke-linecap="round"/>
<mask id="path-2-inside-1_1479_155104" fill="white">
<path fill-rule="evenodd" clip-rule="evenodd" d="M14.8628 0.835087H1.2245C0.999078 0.835087 0.816334 1.01783 0.816334 1.24326V33.9031C0.816334 34.1285 0.999076 34.3113 1.2245 34.3113H18.9444C19.1698 34.3113 19.3526 34.1285 19.3526 33.9031V5.32492C19.3526 2.84525 17.3424 0.835087 14.8628 0.835087ZM1.2245 0.0187531C0.548228 0.0187531 0 0.566983 0 1.24326V33.9031C0 34.5794 0.548227 35.1276 1.2245 35.1276H18.9444C19.6207 35.1276 20.1689 34.5794 20.1689 33.9031V5.32492C20.1689 2.39441 17.7933 0.0187531 14.8628 0.0187531H1.2245Z"/>
</mask>
<path fill-rule="evenodd" clip-rule="evenodd" d="M14.8628 0.835087H1.2245C0.999078 0.835087 0.816334 1.01783 0.816334 1.24326V33.9031C0.816334 34.1285 0.999076 34.3113 1.2245 34.3113H18.9444C19.1698 34.3113 19.3526 34.1285 19.3526 33.9031V5.32492C19.3526 2.84525 17.3424 0.835087 14.8628 0.835087ZM1.2245 0.0187531C0.548228 0.0187531 0 0.566983 0 1.24326V33.9031C0 34.5794 0.548227 35.1276 1.2245 35.1276H18.9444C19.6207 35.1276 20.1689 34.5794 20.1689 33.9031V5.32492C20.1689 2.39441 17.7933 0.0187531 14.8628 0.0187531H1.2245Z" fill="#6A6A6A"/>
<path d="M1.2245 1.83509H14.8628V-0.164913H1.2245V1.83509ZM1.81633 1.24326C1.81633 1.57011 1.55136 1.83509 1.2245 1.83509V-0.164913C0.446792 -0.164913 -0.183666 0.465545 -0.183666 1.24326H1.81633ZM1.81633 33.9031V1.24326H-0.183666V33.9031H1.81633ZM1.2245 33.3113C1.55136 33.3113 1.81633 33.5763 1.81633 33.9031H-0.183666C-0.183666 34.6808 0.446791 35.3113 1.2245 35.3113V33.3113ZM18.9444 33.3113H1.2245V35.3113H18.9444V33.3113ZM18.3526 33.9031C18.3526 33.5763 18.6176 33.3113 18.9444 33.3113V35.3113C19.7221 35.3113 20.3526 34.6808 20.3526 33.9031H18.3526ZM18.3526 5.32492V33.9031H20.3526V5.32492H18.3526ZM14.8628 1.83509C16.7901 1.83509 18.3526 3.39754 18.3526 5.32492H20.3526C20.3526 2.29297 17.8947 -0.164913 14.8628 -0.164913V1.83509ZM1 1.24326C1 1.11927 1.10051 1.01875 1.2245 1.01875V-0.981247C-0.00405918 -0.981247 -1 0.0146998 -1 1.24326H1ZM1 33.9031V1.24326H-1V33.9031H1ZM1.2245 34.1276C1.10051 34.1276 1 34.0271 1 33.9031H-1C-1 35.1317 -0.00405795 36.1276 1.2245 36.1276V34.1276ZM18.9444 34.1276H1.2245V36.1276H18.9444V34.1276ZM19.1689 33.9031C19.1689 34.0271 19.0684 34.1276 18.9444 34.1276V36.1276C20.173 36.1276 21.1689 35.1317 21.1689 33.9031H19.1689ZM19.1689 5.32492V33.9031H21.1689V5.32492H19.1689ZM14.8628 1.01875C17.241 1.01875 19.1689 2.94669 19.1689 5.32492H21.1689C21.1689 1.84212 18.3456 -0.981247 14.8628 -0.981247V1.01875ZM1.2245 1.01875H14.8628V-0.981247H1.2245V1.01875Z" fill="#6A6A6A" mask="url(#path-2-inside-1_1479_155104)"/>
<mask id="path-4-inside-2_1479_155104" fill="white">
<path fill-rule="evenodd" clip-rule="evenodd" d="M19.1838 32.6479H0.816334V33.8724C0.816334 34.0978 0.999076 34.2805 1.2245 34.2805H18.7757C19.0011 34.2805 19.1838 34.0978 19.1838 33.8724V32.6479ZM0 31.8315V33.8724C0 34.5486 0.548227 35.0969 1.2245 35.0969H18.7757C19.4519 35.0969 20.0002 34.5486 20.0002 33.8724V31.8315H0Z"/>
</mask>
<path fill-rule="evenodd" clip-rule="evenodd" d="M19.1838 32.6479H0.816334V33.8724C0.816334 34.0978 0.999076 34.2805 1.2245 34.2805H18.7757C19.0011 34.2805 19.1838 34.0978 19.1838 33.8724V32.6479ZM0 31.8315V33.8724C0 34.5486 0.548227 35.0969 1.2245 35.0969H18.7757C19.4519 35.0969 20.0002 34.5486 20.0002 33.8724V31.8315H0Z" fill="#6A6A6A"/>
<path d="M0.816334 32.6479V31.6479H-0.183666V32.6479H0.816334ZM19.1838 32.6479H20.1838V31.6479H19.1838V32.6479ZM0 31.8315V30.8315H-1V31.8315H0ZM20.0002 31.8315H21.0002V30.8315H20.0002V31.8315ZM0.816334 33.6479H19.1838V31.6479H0.816334V33.6479ZM1.81633 33.8724V32.6479H-0.183666V33.8724H1.81633ZM1.2245 33.2805C1.55136 33.2805 1.81633 33.5455 1.81633 33.8724H-0.183666C-0.183666 34.6501 0.446791 35.2805 1.2245 35.2805V33.2805ZM18.7757 33.2805H1.2245V35.2805H18.7757V33.2805ZM18.1838 33.8724C18.1838 33.5455 18.4488 33.2805 18.7757 33.2805V35.2805C19.5534 35.2805 20.1838 34.6501 20.1838 33.8724H18.1838ZM18.1838 32.6479V33.8724H20.1838V32.6479H18.1838ZM1.2245 34.0969C1.10051 34.0969 1 33.9964 1 33.8724H-1C-1 35.1009 -0.0040582 36.0969 1.2245 36.0969V34.0969ZM18.7757 34.0969H1.2245V36.0969H18.7757V34.0969ZM19.0002 33.8724C19.0002 33.9963 18.8997 34.0969 18.7757 34.0969V36.0969C20.0042 36.0969 21.0002 35.1009 21.0002 33.8724H19.0002ZM0 32.8315H20.0002V30.8315H0V32.8315ZM1 33.8724V31.8315H-1V33.8724H1ZM19.0002 31.8315V33.8724H21.0002V31.8315H19.0002Z" fill="#6A6A6A" mask="url(#path-4-inside-2_1479_155104)"/>
<path d="M19.2751 5.71434C19.2751 2.83454 21.6097 0.5 24.4895 0.5H38.7753C39.1755 0.5 39.4998 0.82437 39.4998 1.2245V33.8778C39.4998 34.278 39.1755 34.6023 38.7753 34.6023H19.9996C19.5995 34.6023 19.2751 34.278 19.2751 33.8778V5.71434Z" fill="white" stroke="#6A6A6A" stroke-linecap="round"/>
<mask id="path-7-inside-3_1479_155104" fill="white">
<path fill-rule="evenodd" clip-rule="evenodd" d="M38.7753 0.816334H24.4895C21.7844 0.816334 19.5915 3.00924 19.5915 5.71434V33.8778C19.5915 34.1033 19.7742 34.286 19.9996 34.286H38.7753C39.0007 34.286 39.1835 34.1033 39.1835 33.8778V1.2245C39.1835 0.999076 39.0007 0.816334 38.7753 0.816334ZM24.4895 0C21.3335 0 18.7751 2.5584 18.7751 5.71434V33.8778C18.7751 34.5541 19.3234 35.1023 19.9996 35.1023H38.7753C39.4516 35.1023 39.9998 34.5541 39.9998 33.8778V1.2245C39.9998 0.548228 39.4516 0 38.7753 0H24.4895Z"/>
</mask>
<path fill-rule="evenodd" clip-rule="evenodd" d="M38.7753 0.816334H24.4895C21.7844 0.816334 19.5915 3.00924 19.5915 5.71434V33.8778C19.5915 34.1033 19.7742 34.286 19.9996 34.286H38.7753C39.0007 34.286 39.1835 34.1033 39.1835 33.8778V1.2245C39.1835 0.999076 39.0007 0.816334 38.7753 0.816334ZM24.4895 0C21.3335 0 18.7751 2.5584 18.7751 5.71434V33.8778C18.7751 34.5541 19.3234 35.1023 19.9996 35.1023H38.7753C39.4516 35.1023 39.9998 34.5541 39.9998 33.8778V1.2245C39.9998 0.548228 39.4516 0 38.7753 0H24.4895Z" fill="#6A6A6A"/>
<path d="M24.4895 1.81633H38.7753V-0.183666H24.4895V1.81633ZM20.5915 5.71434C20.5915 3.56153 22.3367 1.81633 24.4895 1.81633V-0.183666C21.2321 -0.183666 18.5915 2.45696 18.5915 5.71434H20.5915ZM20.5915 33.8778V5.71434H18.5915V33.8778H20.5915ZM19.9996 33.286C20.3265 33.286 20.5915 33.551 20.5915 33.8778H18.5915C18.5915 34.6556 19.2219 35.286 19.9996 35.286V33.286ZM38.7753 33.286H19.9996V35.286H38.7753V33.286ZM38.1835 33.8778C38.1835 33.551 38.4485 33.286 38.7753 33.286V35.286C39.553 35.286 40.1835 34.6556 40.1835 33.8778H38.1835ZM38.1835 1.2245V33.8778H40.1835V1.2245H38.1835ZM38.7753 1.81633C38.4485 1.81633 38.1835 1.55136 38.1835 1.2245H40.1835C40.1835 0.44679 39.553 -0.183666 38.7753 -0.183666V1.81633ZM19.7751 5.71434C19.7751 3.11068 21.8858 1 24.4895 1V-1C20.7813 -1 17.7751 2.00611 17.7751 5.71434H19.7751ZM19.7751 33.8778V5.71434H17.7751V33.8778H19.7751ZM19.9996 34.1023C19.8757 34.1023 19.7751 34.0018 19.7751 33.8778H17.7751C17.7751 35.1064 18.7711 36.1023 19.9996 36.1023V34.1023ZM38.7753 34.1023H19.9996V36.1023H38.7753V34.1023ZM38.9998 33.8778C38.9998 34.0018 38.8993 34.1023 38.7753 34.1023V36.1023C40.0039 36.1023 40.9998 35.1064 40.9998 33.8778H38.9998ZM38.9998 1.2245V33.8778H40.9998V1.2245H38.9998ZM38.7753 1C38.8993 1 38.9998 1.10051 38.9998 1.2245H40.9998C40.9998 -0.00405732 40.0039 -1 38.7753 -1V1ZM24.4895 1H38.7753V-1H24.4895V1Z" fill="#6A6A6A" mask="url(#path-7-inside-3_1479_155104)"/>
<mask id="path-9-inside-4_1479_155104" fill="white">
<path fill-rule="evenodd" clip-rule="evenodd" d="M39.1835 32.6479H19.5915V33.8724C19.5915 34.0978 19.7742 34.2805 19.9996 34.2805H38.7753C39.0007 34.2805 39.1835 34.0978 39.1835 33.8724V32.6479ZM18.7751 31.8315V33.8724C18.7751 34.5486 19.3234 35.0969 19.9996 35.0969H38.7753C39.4516 35.0969 39.9998 34.5486 39.9998 33.8724V31.8315H18.7751Z"/>
</mask>
<path fill-rule="evenodd" clip-rule="evenodd" d="M39.1835 32.6479H19.5915V33.8724C19.5915 34.0978 19.7742 34.2805 19.9996 34.2805H38.7753C39.0007 34.2805 39.1835 34.0978 39.1835 33.8724V32.6479ZM18.7751 31.8315V33.8724C18.7751 34.5486 19.3234 35.0969 19.9996 35.0969H38.7753C39.4516 35.0969 39.9998 34.5486 39.9998 33.8724V31.8315H18.7751Z" fill="#6A6A6A"/>
<path d="M19.5915 32.6479V31.6479H18.5915V32.6479H19.5915ZM39.1835 32.6479H40.1835V31.6479H39.1835V32.6479ZM18.7751 31.8315V30.8315H17.7751V31.8315H18.7751ZM39.9998 31.8315H40.9998V30.8315H39.9998V31.8315ZM19.5915 33.6479H39.1835V31.6479H19.5915V33.6479ZM20.5915 33.8724V32.6479H18.5915V33.8724H20.5915ZM19.9996 33.2805C20.3265 33.2805 20.5915 33.5455 20.5915 33.8724H18.5915C18.5915 34.6501 19.2219 35.2805 19.9996 35.2805V33.2805ZM38.7753 33.2805H19.9996V35.2805H38.7753V33.2805ZM38.1835 33.8724C38.1835 33.5455 38.4485 33.2805 38.7753 33.2805V35.2805C39.553 35.2805 40.1835 34.6501 40.1835 33.8724H38.1835ZM38.1835 32.6479V33.8724H40.1835V32.6479H38.1835ZM19.9996 34.0969C19.8757 34.0969 19.7751 33.9964 19.7751 33.8724H17.7751C17.7751 35.1009 18.7711 36.0969 19.9996 36.0969V34.0969ZM38.7753 34.0969H19.9996V36.0969H38.7753V34.0969ZM38.9998 33.8724C38.9998 33.9963 38.8993 34.0969 38.7753 34.0969V36.0969C40.0039 36.0969 40.9998 35.1009 40.9998 33.8724H38.9998ZM18.7751 32.8315H39.9998V30.8315H18.7751V32.8315ZM19.7751 33.8724V31.8315H17.7751V33.8724H19.7751ZM38.9998 31.8315V33.8724H40.9998V31.8315H38.9998Z" fill="#6A6A6A" mask="url(#path-9-inside-4_1479_155104)"/>
<rect x="23" y="9" width="12" height="1" rx="0.5" fill="#6A6A6A"/>
<rect x="23" y="16" width="12" height="1" rx="0.5" fill="#6A6A6A"/>
<rect x="23" y="23" width="12" height="1" rx="0.5" fill="#6A6A6A"/>
</svg>