<svg width="40" height="34" viewBox="0 0 40 34" fill="none" xmlns="http://www.w3.org/2000/svg">
<path d="M15.5 12.5H21" stroke="black" stroke-width="3"/>
<mask id="path-2-inside-1_1479_155094" fill="white">
<rect width="40" height="27.4194" rx="0.735476"/>
</mask>
<rect width="40" height="27.4194" rx="0.735476" fill="white" stroke="#6A6A6A" stroke-width="2" stroke-linecap="round" stroke-linejoin="round" mask="url(#path-2-inside-1_1479_155094)"/>
<path d="M17.6602 27.2825C17.6858 27.1769 17.7804 27.1026 17.889 27.1026H22.4372C22.5458 27.1026 22.6403 27.1769 22.666 27.2825L23.3273 30.0051C23.3634 30.1533 23.2511 30.2961 23.0985 30.2961H17.2276C17.0751 30.2961 16.9628 30.1533 16.9988 30.0051L17.6602 27.2825Z" fill="white" stroke="#6A6A6A" stroke-linecap="round" stroke-linejoin="round"/>
<path d="M13.2424 30.5672C13.2424 30.4372 13.3479 30.3317 13.4779 30.3317H26.5231C26.6531 30.3317 26.7586 30.4372 26.7586 30.5672V32.3221C26.7586 32.4521 26.6531 32.5575 26.5231 32.5575H13.4779C13.3479 32.5575 13.2424 32.4521 13.2424 32.3221V30.5672Z" fill="white" stroke="#6A6A6A" stroke-linecap="round" stroke-linejoin="round"/>
<path d="M0.807251 23.3894H39.5169" stroke="#6A6A6A"/>
<circle cx="9" cy="13" r="3.5" stroke="#6A6A6A"/>
<path d="M16 12.5C15.7239 12.5 15.5 12.7239 15.5 13C15.5 13.2761 15.7239 13.5 16 13.5L16 12.5ZM25.3536 13.3536C25.5488 13.1583 25.5488 12.8417 25.3536 12.6464L22.1716 9.46447C21.9763 9.2692 21.6597 9.2692 21.4645 9.46447C21.2692 9.65973 21.2692 9.97631 21.4645 10.1716L24.2929 13L21.4645 15.8284C21.2692 16.0237 21.2692 16.3403 21.4645 16.5355C21.6597 16.7308 21.9763 16.7308 22.1716 16.5355L25.3536 13.3536ZM16 13.5L25 13.5L25 12.5L16 12.5L16 13.5Z" fill="#6A6A6A"/>
<rect x="28.5" y="10.5" width="5" height="5" stroke="#6A6A6A"/>
</svg>
