<!--
 Copyright 2023-2025 Solace Systems. All rights reserved.

 Licensed under the Apache License, Version 2.0 (the "License");
 you may not use this file except in compliance with the License.
 You may obtain a copy of the License at

     http://www.apache.org/licenses/LICENSE-2.0

 Unless required by applicable law or agreed to in writing, software
 distributed under the License is distributed on an "AS IS" BASIS,
 WITHOUT WARRANTIES OR CONDITIONS OF ANY KIND, either express or implied.
 See the License for the specific language governing permissions and
 limitations under the License.
-->
<svg width="176" height="88" viewBox="0 0 176 88" fill="none" xmlns="http://www.w3.org/2000/svg">
<path d="M96.3391 20.3849C96.3391 25.119 92.5013 28.9568 87.7672 28.9568C83.0331 28.9568 79.1953 25.119 79.1953 20.3849C79.1953 15.6508 83.0331 11.813 87.7672 11.813C92.5013 11.813 96.3391 15.6508 96.3391 20.3849Z" fill="#0A6ED1"/>
<path d="M45.016 36.5859C45.016 44.8706 38.2999 51.5867 30.0152 51.5867C21.7305 51.5867 15.0144 44.8706 15.0144 36.5859C15.0144 28.3012 21.7305 21.5851 30.0152 21.5851C38.2999 21.5851 45.016 28.3012 45.016 36.5859Z" fill="white"/>
<path fill-rule="evenodd" clip-rule="evenodd" d="M48.4448 36.5858C48.4448 46.7642 40.1936 55.0154 30.0152 55.0154C19.8369 55.0154 11.5857 46.7642 11.5857 36.5858C11.5857 26.4074 19.8369 18.1562 30.0152 18.1562C40.1936 18.1562 48.4448 26.4074 48.4448 36.5858ZM30.0152 51.5866C38.3 51.5866 45.016 44.8705 45.016 36.5858C45.016 28.3011 38.3 21.585 30.0152 21.585C21.7305 21.585 15.0144 28.3011 15.0144 36.5858C15.0144 44.8705 21.7305 51.5866 30.0152 51.5866Z" fill="#7EA8D2" fill-opacity="0.3"/>
<path fill-rule="evenodd" clip-rule="evenodd" d="M76.1706 24.0511L70.154 32.7899L68.0359 31.3316L72.3422 25.0769L65.4855 21.8134L66.5906 19.4914L76.1706 24.0511Z" fill="#0A6ED1"/>
<path fill-rule="evenodd" clip-rule="evenodd" d="M42.7994 31.6612L72.2573 23.7679L72.9229 26.2519L43.465 34.1451L42.7994 31.6612Z" fill="#0A6ED1"/>
<path d="M71.6512 46.1472L69.7695 47.0693L66.9468 40.2854L63.4341 43.8801V28.957L73.7839 39.0999L68.8286 39.4951L71.6512 46.1472Z" fill="black"/>
<path d="M69.3739 47.2339L69.5489 47.6544L69.958 47.454L71.8398 46.5319L72.2041 46.3534L72.0456 45.9799L69.4551 39.8749L73.818 39.527L74.7555 39.4522L74.0838 38.7939L63.7339 28.6511L63.0057 27.9374V28.957V43.8801V44.9315L63.7405 44.1796L66.8002 41.0484L69.3739 47.2339Z" stroke="white" stroke-opacity="0.8" stroke-width="0.856817"/>
<path fill-rule="evenodd" clip-rule="evenodd" d="M30.0152 49.0151C36.8797 49.0151 42.4444 43.4504 42.4444 36.5859C42.4444 29.7214 36.8797 24.1566 30.0152 24.1566C23.1507 24.1566 17.586 29.7214 17.586 36.5859C17.586 43.4504 23.1507 49.0151 30.0152 49.0151ZM30.0152 51.5867C38.2999 51.5867 45.016 44.8706 45.016 36.5859C45.016 28.3012 38.2999 21.5851 30.0152 21.5851C21.7305 21.5851 15.0144 28.3012 15.0144 36.5859C15.0144 44.8706 21.7305 51.5867 30.0152 51.5867Z" fill="#205992"/>
<path d="M38.5871 36.5863C38.5871 41.3204 34.7494 45.1582 30.0152 45.1582C25.2811 45.1582 21.4434 41.3204 21.4434 36.5863C21.4434 31.8522 25.2811 28.0144 30.0152 28.0144C34.7494 28.0144 38.5871 31.8522 38.5871 36.5863Z" fill="#7EA8D2"/>
<path d="M143.768 40.89C143.768 49.1747 137.052 55.8908 128.768 55.8908C120.483 55.8908 113.767 49.1747 113.767 40.89C113.767 32.6052 120.483 25.8892 128.768 25.8892C137.052 25.8892 143.768 32.6052 143.768 40.89Z" fill="white"/>
<path fill-rule="evenodd" clip-rule="evenodd" d="M147.197 40.89C147.197 51.0684 138.946 59.3196 128.768 59.3196C118.589 59.3196 110.338 51.0684 110.338 40.89C110.338 30.7116 118.589 22.4604 128.768 22.4604C138.946 22.4604 147.197 30.7116 147.197 40.89ZM128.768 55.8908C137.052 55.8908 143.768 49.1747 143.768 40.89C143.768 32.6053 137.052 25.8892 128.768 25.8892C120.483 25.8892 113.767 32.6053 113.767 40.89C113.767 49.1747 120.483 55.8908 128.768 55.8908Z" fill="#7EA8D2" fill-opacity="0.3"/>
<path d="M93.1206 61.8408C93.1206 60.894 93.8882 60.1265 94.835 60.1265H162.7C163.647 60.1265 164.415 60.894 164.415 61.8408V74.4733C164.415 75.4201 163.647 76.1877 162.7 76.1877H94.835C93.8882 76.1877 93.1206 75.4201 93.1206 74.4733V61.8408Z" fill="white"/>
<path fill-rule="evenodd" clip-rule="evenodd" d="M162.7 60.9837H94.835C94.3616 60.9837 93.9778 61.3674 93.9778 61.8408V74.4733C93.9778 74.9467 94.3616 75.3305 94.835 75.3305H162.7C163.174 75.3305 163.557 74.9467 163.557 74.4733V61.8408C163.557 61.3674 163.174 60.9837 162.7 60.9837ZM94.835 60.1265C93.8882 60.1265 93.1206 60.894 93.1206 61.8408V74.4733C93.1206 75.4201 93.8882 76.1877 94.835 76.1877H162.7C163.647 76.1877 164.415 75.4201 164.415 74.4733V61.8408C164.415 60.894 163.647 60.1265 162.7 60.1265H94.835Z" fill="#0A6ED1"/>
<path fill-rule="evenodd" clip-rule="evenodd" d="M128.768 53.3192C135.632 53.3192 141.197 47.7544 141.197 40.89C141.197 34.0255 135.632 28.4607 128.768 28.4607C121.903 28.4607 116.338 34.0255 116.338 40.89C116.338 47.7544 121.903 53.3192 128.768 53.3192ZM128.768 55.8908C137.052 55.8908 143.768 49.1747 143.768 40.89C143.768 32.6052 137.052 25.8892 128.768 25.8892C120.483 25.8892 113.767 32.6052 113.767 40.89C113.767 49.1747 120.483 55.8908 128.768 55.8908Z" fill="#145B5B"/>
<path d="M137.34 40.8904C137.34 45.6245 133.502 49.4623 128.768 49.4623C124.034 49.4623 120.196 45.6245 120.196 40.8904C120.196 36.1562 124.034 32.3185 128.768 32.3185C133.502 32.3185 137.34 36.1562 137.34 40.8904Z" fill="#7EA8D2"/>
<path d="M144.104 71.8305C143.747 71.8305 143.425 71.7619 143.137 71.6247C142.849 71.4807 142.619 71.2921 142.448 71.059C142.283 70.819 142.201 70.5515 142.201 70.2567C142.201 69.7766 142.393 69.396 142.777 69.1149C143.168 68.8269 143.682 68.6349 144.32 68.5389L145.729 68.3331V68.1171C145.729 67.8291 145.657 67.6062 145.513 67.4485C145.369 67.2908 145.122 67.2119 144.772 67.2119C144.525 67.2119 144.323 67.2634 144.165 67.3662C144.014 67.4622 143.901 67.5925 143.826 67.7571C143.771 67.8462 143.692 67.8908 143.589 67.8908H142.777C142.701 67.8908 142.643 67.8702 142.602 67.8291C142.568 67.788 142.55 67.7331 142.55 67.6645C142.557 67.5548 142.602 67.4211 142.684 67.2634C142.766 67.1056 142.897 66.9548 143.075 66.8108C143.253 66.6599 143.483 66.533 143.764 66.4302C144.045 66.3273 144.385 66.2759 144.783 66.2759C145.215 66.2759 145.578 66.3307 145.873 66.4405C146.175 66.5433 146.415 66.6839 146.593 66.8622C146.771 67.0405 146.902 67.2496 146.984 67.4897C147.066 67.7297 147.107 67.9834 147.107 68.2508V71.4807C147.107 71.5493 147.083 71.6076 147.035 71.6556C146.987 71.7036 146.929 71.7276 146.86 71.7276H146.027C145.952 71.7276 145.89 71.7036 145.842 71.6556C145.801 71.6076 145.78 71.5493 145.78 71.4807V71.0796C145.691 71.2099 145.571 71.3333 145.42 71.4499C145.269 71.5596 145.084 71.6522 144.865 71.7276C144.652 71.7962 144.399 71.8305 144.104 71.8305ZM144.453 70.8533C144.693 70.8533 144.909 70.8018 145.101 70.699C145.3 70.5961 145.455 70.4384 145.564 70.2258C145.681 70.0064 145.739 69.7321 145.739 69.4029V69.1869L144.711 69.3515C144.306 69.4132 144.004 69.5126 143.805 69.6498C143.606 69.7869 143.507 69.9549 143.507 70.1538C143.507 70.3047 143.552 70.435 143.641 70.5447C143.737 70.6475 143.857 70.7264 144.001 70.7813C144.145 70.8293 144.296 70.8533 144.453 70.8533Z" fill="#32363A"/>
<path d="M138.988 71.8305C138.495 71.8305 138.059 71.7379 137.682 71.5527C137.312 71.3676 137.02 71.1001 136.808 70.7504C136.602 70.3938 136.489 69.9652 136.468 69.4646C136.461 69.3618 136.458 69.228 136.458 69.0635C136.458 68.892 136.461 68.7514 136.468 68.6417C136.489 68.1411 136.602 67.716 136.808 67.3662C137.02 67.0096 137.312 66.7388 137.682 66.5536C138.059 66.3685 138.495 66.2759 138.988 66.2759C139.427 66.2759 139.801 66.3376 140.11 66.461C140.418 66.5845 140.672 66.7388 140.871 66.9239C141.07 67.1091 141.217 67.3045 141.313 67.5102C141.416 67.7091 141.471 67.8908 141.478 68.0554C141.485 68.1308 141.461 68.1926 141.406 68.2406C141.358 68.2817 141.299 68.3023 141.231 68.3023H140.326C140.257 68.3023 140.202 68.2851 140.161 68.2508C140.127 68.2166 140.092 68.1651 140.058 68.0965C139.955 67.8222 139.818 67.6302 139.647 67.5205C139.482 67.4039 139.27 67.3457 139.009 67.3457C138.666 67.3457 138.392 67.4554 138.186 67.6748C137.987 67.8874 137.881 68.2268 137.867 68.6932C137.854 68.9537 137.854 69.1937 137.867 69.4132C137.881 69.8864 137.987 70.2292 138.186 70.4418C138.392 70.6544 138.666 70.7607 139.009 70.7607C139.276 70.7607 139.492 70.7058 139.657 70.5961C139.822 70.4795 139.955 70.2841 140.058 70.0098C140.092 69.9412 140.127 69.8898 140.161 69.8555C140.202 69.8212 140.257 69.8041 140.326 69.8041H141.231C141.299 69.8041 141.358 69.8281 141.406 69.8761C141.461 69.9172 141.485 69.9755 141.478 70.0509C141.471 70.1744 141.437 70.315 141.375 70.4727C141.32 70.6235 141.227 70.7813 141.097 70.9458C140.974 71.1036 140.816 71.251 140.624 71.3882C140.432 71.5184 140.199 71.6247 139.924 71.707C139.657 71.7893 139.345 71.8305 138.988 71.8305Z" fill="#32363A"/>
<path d="M134.178 71.7276C134.11 71.7276 134.052 71.7036 134.004 71.6556C133.956 71.6076 133.932 71.5493 133.932 71.4807V66.6256C133.932 66.557 133.956 66.4987 134.004 66.4507C134.052 66.4027 134.11 66.3787 134.178 66.3787H135.032C135.108 66.3787 135.166 66.4027 135.207 66.4507C135.255 66.4987 135.279 66.557 135.279 66.6256V71.4807C135.279 71.5493 135.255 71.6076 135.207 71.6556C135.166 71.7036 135.108 71.7276 135.032 71.7276H134.178ZM134.137 65.4941C134.062 65.4941 134 65.4735 133.952 65.4324C133.911 65.3844 133.89 65.3227 133.89 65.2472V64.5066C133.89 64.4381 133.911 64.3798 133.952 64.3318C134 64.2838 134.062 64.2598 134.137 64.2598H135.073C135.149 64.2598 135.21 64.2838 135.258 64.3318C135.306 64.3798 135.33 64.4381 135.33 64.5066V65.2472C135.33 65.3227 135.306 65.3844 135.258 65.4324C135.21 65.4735 135.149 65.4941 135.073 65.4941H134.137Z" fill="#32363A"/>
<path d="M131.245 71.7276C131.177 71.7276 131.119 71.7036 131.071 71.6556C131.023 71.6076 130.999 71.5493 130.999 71.4807V64.6712C130.999 64.6026 131.023 64.5443 131.071 64.4963C131.119 64.4483 131.177 64.4243 131.245 64.4243H132.099C132.168 64.4243 132.226 64.4483 132.274 64.4963C132.322 64.5443 132.346 64.6026 132.346 64.6712V71.4807C132.346 71.5493 132.322 71.6076 132.274 71.6556C132.226 71.7036 132.168 71.7276 132.099 71.7276H131.245Z" fill="#32363A"/>
<path d="M124.927 73.682C124.858 73.682 124.8 73.658 124.752 73.61C124.704 73.562 124.68 73.5037 124.68 73.4351V66.6256C124.68 66.557 124.704 66.4987 124.752 66.4507C124.8 66.4027 124.858 66.3787 124.927 66.3787H125.74C125.815 66.3787 125.873 66.4027 125.915 66.4507C125.963 66.4987 125.987 66.557 125.987 66.6256V67.0371C126.151 66.8176 126.367 66.6359 126.635 66.4919C126.902 66.3479 127.235 66.2759 127.632 66.2759C127.996 66.2759 128.311 66.3342 128.579 66.4507C128.846 66.5673 129.069 66.7353 129.247 66.9548C129.426 67.1674 129.563 67.4211 129.659 67.716C129.755 68.0108 129.81 68.3366 129.823 68.6932C129.83 68.8097 129.834 68.9297 129.834 69.0532C129.834 69.1766 129.83 69.3 129.823 69.4235C129.816 69.7664 129.765 70.0852 129.669 70.3801C129.573 70.6681 129.432 70.9218 129.247 71.1413C129.069 71.3539 128.846 71.5219 128.579 71.6453C128.311 71.7687 127.996 71.8305 127.632 71.8305C127.262 71.8305 126.947 71.7653 126.686 71.635C126.425 71.4979 126.213 71.3196 126.048 71.1001V73.4351C126.048 73.5037 126.024 73.562 125.976 73.61C125.935 73.658 125.877 73.682 125.801 73.682H124.927ZM127.252 70.7298C127.547 70.7298 127.776 70.6681 127.941 70.5447C128.106 70.4144 128.222 70.2464 128.291 70.0407C128.366 69.8349 128.411 69.6086 128.424 69.3618C128.438 69.156 128.438 68.9503 128.424 68.7446C128.411 68.4977 128.366 68.2714 128.291 68.0657C128.222 67.86 128.106 67.6954 127.941 67.5719C127.776 67.4417 127.547 67.3765 127.252 67.3765C126.971 67.3765 126.741 67.4417 126.563 67.5719C126.391 67.7022 126.264 67.8702 126.182 68.076C126.107 68.2748 126.062 68.4806 126.048 68.6932C126.041 68.8166 126.038 68.9469 126.038 69.084C126.038 69.2212 126.041 69.3549 126.048 69.4852C126.055 69.6909 126.103 69.8898 126.192 70.0818C126.281 70.2669 126.412 70.4212 126.583 70.5447C126.755 70.6681 126.977 70.7298 127.252 70.7298Z" fill="#32363A"/>
<path d="M118.609 73.682C118.54 73.682 118.482 73.658 118.434 73.61C118.386 73.562 118.362 73.5037 118.362 73.4351V66.6256C118.362 66.557 118.386 66.4987 118.434 66.4507C118.482 66.4027 118.54 66.3787 118.609 66.3787H119.421C119.497 66.3787 119.555 66.4027 119.596 66.4507C119.644 66.4987 119.668 66.557 119.668 66.6256V67.0371C119.833 66.8176 120.049 66.6359 120.316 66.4919C120.584 66.3479 120.916 66.2759 121.314 66.2759C121.677 66.2759 121.993 66.3342 122.26 66.4507C122.528 66.5673 122.751 66.7353 122.929 66.9548C123.107 67.1674 123.244 67.4211 123.34 67.716C123.436 68.0108 123.491 68.3366 123.505 68.6932C123.512 68.8097 123.515 68.9297 123.515 69.0532C123.515 69.1766 123.512 69.3 123.505 69.4235C123.498 69.7664 123.447 70.0852 123.351 70.3801C123.255 70.6681 123.114 70.9218 122.929 71.1413C122.751 71.3539 122.528 71.5219 122.26 71.6453C121.993 71.7687 121.677 71.8305 121.314 71.8305C120.944 71.8305 120.628 71.7653 120.368 71.635C120.107 71.4979 119.894 71.3196 119.73 71.1001V73.4351C119.73 73.5037 119.706 73.562 119.658 73.61C119.617 73.658 119.558 73.682 119.483 73.682H118.609ZM120.933 70.7298C121.228 70.7298 121.458 70.6681 121.623 70.5447C121.787 70.4144 121.904 70.2464 121.972 70.0407C122.048 69.8349 122.092 69.6086 122.106 69.3618C122.12 69.156 122.12 68.9503 122.106 68.7446C122.092 68.4977 122.048 68.2714 121.972 68.0657C121.904 67.86 121.787 67.6954 121.623 67.5719C121.458 67.4417 121.228 67.3765 120.933 67.3765C120.652 67.3765 120.422 67.4417 120.244 67.5719C120.073 67.7022 119.946 67.8702 119.864 68.076C119.788 68.2748 119.744 68.4806 119.73 68.6932C119.723 68.8166 119.72 68.9469 119.72 69.084C119.72 69.2212 119.723 69.3549 119.73 69.4852C119.737 69.6909 119.785 69.8898 119.874 70.0818C119.963 70.2669 120.093 70.4212 120.265 70.5447C120.436 70.6681 120.659 70.7298 120.933 70.7298Z" fill="#32363A"/>
<path d="M110.901 71.7276C110.846 71.7276 110.794 71.707 110.746 71.6659C110.705 71.6247 110.685 71.5733 110.685 71.5116C110.685 71.4842 110.691 71.4533 110.705 71.419L113.184 64.7844C113.205 64.7158 113.242 64.6575 113.297 64.6095C113.359 64.5547 113.441 64.5272 113.544 64.5272H114.665C114.768 64.5272 114.847 64.5547 114.902 64.6095C114.957 64.6575 114.998 64.7158 115.025 64.7844L117.504 71.419C117.511 71.4533 117.515 71.4842 117.515 71.5116C117.515 71.5733 117.494 71.6247 117.453 71.6659C117.412 71.707 117.364 71.7276 117.309 71.7276H116.414C116.318 71.7276 116.246 71.707 116.198 71.6659C116.157 71.6179 116.129 71.5733 116.116 71.5322L115.632 70.2772H112.577L112.094 71.5322C112.08 71.5733 112.049 71.6179 112.001 71.6659C111.96 71.707 111.891 71.7276 111.795 71.7276H110.901ZM112.937 69.0943H115.272L114.1 65.9159L112.937 69.0943Z" fill="#32363A"/>
<path d="M150.736 74.5799H146.591C146.263 74.5799 146.093 74.4441 146.093 74.2157C146.093 73.9811 146.263 73.8577 146.591 73.8577H148.183V62.4437H146.591C146.263 62.4437 146.093 62.3141 146.093 62.0795C146.093 61.8511 146.263 61.7277 146.591 61.7277H150.736C151.063 61.7277 151.234 61.8511 151.234 62.0795C151.234 62.3141 151.063 62.4437 150.736 62.4437H149.143V73.8577H150.736C151.063 73.8577 151.234 73.9811 151.234 74.2157C151.234 74.4441 151.063 74.5799 150.736 74.5799Z" fill="black"/>
<path d="M146.591 75.0083H150.736C150.95 75.0083 151.179 74.9653 151.364 74.8265C151.568 74.674 151.662 74.449 151.662 74.2157C151.662 73.9811 151.569 73.753 151.358 73.6011C151.171 73.4662 150.942 73.4293 150.736 73.4293H149.572V62.8721H150.736C150.946 62.8721 151.175 62.8322 151.362 62.6942C151.57 62.5407 151.662 62.3131 151.662 62.0795C151.662 61.844 151.566 61.6181 151.356 61.4688C151.169 61.3363 150.942 61.2993 150.736 61.2993H146.591C146.384 61.2993 146.157 61.3363 145.971 61.4688C145.761 61.6181 145.664 61.844 145.664 62.0795C145.664 62.3131 145.757 62.5407 145.964 62.6942C146.151 62.8322 146.381 62.8721 146.591 62.8721H147.755V73.4293H146.591C146.384 73.4293 146.156 73.4662 145.969 73.6011C145.758 73.753 145.664 73.9811 145.664 74.2157C145.664 74.449 145.759 74.674 145.962 74.8265C146.148 74.9653 146.377 75.0083 146.591 75.0083Z" stroke="white" stroke-opacity="0.8" stroke-width="0.856817"/>
</svg>
