<?xml version="1.0" encoding="utf-8"?>
<!--
  Copyright 2023-2025 Solace Systems. All rights reserved.

  Licensed under the Apache License, Version 2.0 (the "License");
  you may not use this file except in compliance with the License.
  You may obtain a copy of the License at

      http://www.apache.org/licenses/LICENSE-2.0

  Unless required by applicable law or agreed to in writing, software
  distributed under the License is distributed on an "AS IS" BASIS,
  WITHOUT WARRANTIES OR CONDITIONS OF ANY KIND, either express or implied.
  See the License for the specific language governing permissions and
  limitations under the License.
-->
<svg width="177" height="88" viewBox="0 0 177 88" fill="none" xmlns="http://www.w3.org/2000/svg">
<path d="M97.0346 20.3849C97.0346 25.119 93.1969 28.9568 88.4628 28.9568C83.7286 28.9568 79.8909 25.119 79.8909 20.3849C79.8909 15.6508 83.7286 11.813 88.4628 11.813C93.1969 11.813 97.0346 15.6508 97.0346 20.3849Z" fill="#00C895"/>
<path d="M45.7115 36.5859C45.7115 44.8706 38.9955 51.5867 30.7108 51.5867C22.426 51.5867 15.71 44.8706 15.71 36.5859C15.71 28.3012 22.426 21.5851 30.7108 21.5851C38.9955 21.5851 45.7115 28.3012 45.7115 36.5859Z" fill="white"/>
<path fill-rule="evenodd" clip-rule="evenodd" d="M49.1403 36.5858C49.1403 46.7642 40.8892 55.0154 30.7108 55.0154C20.5324 55.0154 12.2812 46.7642 12.2812 36.5858C12.2812 26.4074 20.5324 18.1562 30.7108 18.1562C40.8892 18.1562 49.1403 26.4074 49.1403 36.5858ZM30.7108 51.5866C38.9955 51.5866 45.7116 44.8705 45.7116 36.5858C45.7116 28.3011 38.9955 21.585 30.7108 21.585C22.4261 21.585 15.71 28.3011 15.71 36.5858C15.71 44.8705 22.4261 51.5866 30.7108 51.5866Z" fill="#00C895" fill-opacity="0.3"/>
<path fill-rule="evenodd" clip-rule="evenodd" d="M76.8661 24.0511L70.8495 32.7899L68.7314 31.3316L73.0377 25.0769L66.181 21.8134L67.2862 19.4914L76.8661 24.0511Z" fill="#00C895"/>
<path fill-rule="evenodd" clip-rule="evenodd" d="M43.495 31.6612L72.9529 23.7679L73.6185 26.2519L44.1605 34.1451L43.495 31.6612Z" fill="#00C895"/>
<path d="M72.3468 46.1472L70.465 47.0693L67.6423 40.2854L64.1296 43.8801V28.957L74.4795 39.0999L69.5241 39.4951L72.3468 46.1472Z" fill="black"/>
<path d="M70.0695 47.2339L70.2445 47.6544L70.6535 47.454L72.5353 46.5319L72.8997 46.3534L72.7412 45.9799L70.1507 39.8749L74.5136 39.527L75.4511 39.4522L74.7794 38.7939L64.4295 28.6511L63.7012 27.9374V28.957V43.8801V44.9315L64.436 44.1796L67.4958 41.0484L70.0695 47.2339Z" stroke="white" stroke-opacity="0.8" stroke-width="0.856817"/>
<path fill-rule="evenodd" clip-rule="evenodd" d="M30.7108 49.0151C37.5752 49.0151 43.14 43.4504 43.14 36.5859C43.14 29.7214 37.5752 24.1566 30.7108 24.1566C23.8463 24.1566 18.2815 29.7214 18.2815 36.5859C18.2815 43.4504 23.8463 49.0151 30.7108 49.0151ZM30.7108 51.5867C38.9955 51.5867 45.7116 44.8706 45.7116 36.5859C45.7116 28.3012 38.9955 21.5851 30.7108 21.5851C22.426 21.5851 15.71 28.3012 15.71 36.5859C15.71 44.8706 22.426 51.5867 30.7108 51.5867Z" fill="#145B5B"/>
<path d="M39.2827 36.5863C39.2827 41.3204 35.4449 45.1582 30.7108 45.1582C25.9767 45.1582 22.1389 41.3204 22.1389 36.5863C22.1389 31.8522 25.9767 28.0144 30.7108 28.0144C35.4449 28.0144 39.2827 31.8522 39.2827 36.5863Z" fill="#145B5B" fill-opacity="0.3"/>
<path d="M144.464 40.89C144.464 49.1747 137.748 55.8908 129.463 55.8908C121.178 55.8908 114.462 49.1747 114.462 40.89C114.462 32.6052 121.178 25.8892 129.463 25.8892C137.748 25.8892 144.464 32.6052 144.464 40.89Z" fill="white"/>
<path fill-rule="evenodd" clip-rule="evenodd" d="M147.893 40.89C147.893 51.0684 139.642 59.3196 129.463 59.3196C119.285 59.3196 111.034 51.0684 111.034 40.89C111.034 30.7116 119.285 22.4604 129.463 22.4604C139.642 22.4604 147.893 30.7116 147.893 40.89ZM129.463 55.8908C137.748 55.8908 144.464 49.1747 144.464 40.89C144.464 32.6053 137.748 25.8892 129.463 25.8892C121.179 25.8892 114.462 32.6053 114.462 40.89C114.462 49.1747 121.179 55.8908 129.463 55.8908Z" fill="#00C895" fill-opacity="0.3"/>
<path d="M93.8162 61.8408C93.8162 60.894 94.5837 60.1265 95.5305 60.1265H163.396C164.343 60.1265 165.11 60.894 165.11 61.8408V74.4733C165.11 75.4201 164.343 76.1877 163.396 76.1877H95.5305C94.5837 76.1877 93.8162 75.4201 93.8162 74.4733V61.8408Z" fill="white"/>
<path fill-rule="evenodd" clip-rule="evenodd" d="M163.396 60.9837H95.5305C95.0571 60.9837 94.6734 61.3674 94.6734 61.8408V74.4733C94.6734 74.9467 95.0571 75.3305 95.5305 75.3305H163.396C163.869 75.3305 164.253 74.9467 164.253 74.4733V61.8408C164.253 61.3674 163.869 60.9837 163.396 60.9837ZM95.5305 60.1265C94.5837 60.1265 93.8162 60.894 93.8162 61.8408V74.4733C93.8162 75.4201 94.5837 76.1877 95.5305 76.1877H163.396C164.343 76.1877 165.11 75.4201 165.11 74.4733V61.8408C165.11 60.894 164.343 60.1265 163.396 60.1265H95.5305Z" fill="#00C895"/>
<path fill-rule="evenodd" clip-rule="evenodd" d="M129.463 53.3192C136.328 53.3192 141.892 47.7544 141.892 40.89C141.892 34.0255 136.328 28.4607 129.463 28.4607C122.599 28.4607 117.034 34.0255 117.034 40.89C117.034 47.7544 122.599 53.3192 129.463 53.3192ZM129.463 55.8908C137.748 55.8908 144.464 49.1747 144.464 40.89C144.464 32.6052 137.748 25.8892 129.463 25.8892C121.178 25.8892 114.462 32.6052 114.462 40.89C114.462 49.1747 121.178 55.8908 129.463 55.8908Z" fill="#145B5B"/>
<path d="M138.035 40.8904C138.035 45.6245 134.197 49.4623 129.463 49.4623C124.729 49.4623 120.891 45.6245 120.891 40.8904C120.891 36.1562 124.729 32.3185 129.463 32.3185C134.197 32.3185 138.035 36.1562 138.035 40.8904Z" fill="#145B5B" fill-opacity="0.3"/>
<path d="M144.799 71.8305C144.442 71.8305 144.12 71.7619 143.832 71.6247C143.544 71.4807 143.314 71.2921 143.143 71.059C142.978 70.819 142.896 70.5515 142.896 70.2567C142.896 69.7766 143.088 69.396 143.472 69.1149C143.863 68.8269 144.377 68.6349 145.015 68.5389L146.424 68.3331V68.1171C146.424 67.8291 146.352 67.6062 146.208 67.4485C146.064 67.2908 145.817 67.2119 145.468 67.2119C145.221 67.2119 145.018 67.2634 144.861 67.3662C144.71 67.4622 144.597 67.5925 144.521 67.7571C144.466 67.8462 144.388 67.8908 144.285 67.8908H143.472C143.397 67.8908 143.338 67.8702 143.297 67.8291C143.263 67.788 143.246 67.7331 143.246 67.6645C143.253 67.5548 143.297 67.4211 143.379 67.2634C143.462 67.1056 143.592 66.9548 143.77 66.8108C143.949 66.6599 144.178 66.533 144.46 66.4302C144.741 66.3273 145.08 66.2759 145.478 66.2759C145.91 66.2759 146.273 66.3307 146.568 66.4405C146.87 66.5433 147.11 66.6839 147.288 66.8622C147.467 67.0405 147.597 67.2496 147.679 67.4897C147.761 67.7297 147.803 67.9834 147.803 68.2508V71.4807C147.803 71.5493 147.779 71.6076 147.731 71.6556C147.683 71.7036 147.624 71.7276 147.556 71.7276H146.722C146.647 71.7276 146.585 71.7036 146.537 71.6556C146.496 71.6076 146.476 71.5493 146.476 71.4807V71.0796C146.386 71.2099 146.266 71.3333 146.116 71.4499C145.965 71.5596 145.78 71.6522 145.56 71.7276C145.348 71.7962 145.094 71.8305 144.799 71.8305ZM145.149 70.8533C145.389 70.8533 145.605 70.8018 145.797 70.699C145.996 70.5961 146.15 70.4384 146.26 70.2258C146.376 70.0064 146.434 69.7321 146.434 69.4029V69.1869L145.406 69.3515C145.001 69.4132 144.7 69.5126 144.501 69.6498C144.302 69.7869 144.202 69.9549 144.202 70.1538C144.202 70.3047 144.247 70.435 144.336 70.5447C144.432 70.6475 144.552 70.7264 144.696 70.7813C144.84 70.8293 144.991 70.8533 145.149 70.8533Z" fill="black" fill-opacity="0.65"/>
<path d="M139.684 71.8305C139.19 71.8305 138.755 71.7379 138.377 71.5527C138.007 71.3676 137.716 71.1001 137.503 70.7504C137.297 70.3938 137.184 69.9652 137.164 69.4646C137.157 69.3618 137.153 69.228 137.153 69.0635C137.153 68.892 137.157 68.7514 137.164 68.6417C137.184 68.1411 137.297 67.716 137.503 67.3662C137.716 67.0096 138.007 66.7388 138.377 66.5536C138.755 66.3685 139.19 66.2759 139.684 66.2759C140.123 66.2759 140.496 66.3376 140.805 66.461C141.114 66.5845 141.367 66.7388 141.566 66.9239C141.765 67.1091 141.912 67.3045 142.008 67.5102C142.111 67.7091 142.166 67.8908 142.173 68.0554C142.18 68.1308 142.156 68.1926 142.101 68.2406C142.053 68.2817 141.995 68.3023 141.926 68.3023H141.021C140.952 68.3023 140.898 68.2851 140.856 68.2508C140.822 68.2166 140.788 68.1651 140.754 68.0965C140.651 67.8222 140.513 67.6302 140.342 67.5205C140.177 67.4039 139.965 67.3457 139.704 67.3457C139.361 67.3457 139.087 67.4554 138.881 67.6748C138.683 67.8874 138.576 68.2268 138.563 68.6932C138.549 68.9537 138.549 69.1937 138.563 69.4132C138.576 69.8864 138.683 70.2292 138.881 70.4418C139.087 70.6544 139.361 70.7607 139.704 70.7607C139.972 70.7607 140.188 70.7058 140.352 70.5961C140.517 70.4795 140.651 70.2841 140.754 70.0098C140.788 69.9412 140.822 69.8898 140.856 69.8555C140.898 69.8212 140.952 69.8041 141.021 69.8041H141.926C141.995 69.8041 142.053 69.8281 142.101 69.8761C142.156 69.9172 142.18 69.9755 142.173 70.0509C142.166 70.1744 142.132 70.315 142.07 70.4727C142.015 70.6235 141.923 70.7813 141.792 70.9458C141.669 71.1036 141.511 71.251 141.319 71.3882C141.127 71.5184 140.894 71.6247 140.62 71.707C140.352 71.7893 140.04 71.8305 139.684 71.8305Z" fill="black" fill-opacity="0.65"/>
<path d="M134.874 71.7276C134.805 71.7276 134.747 71.7036 134.699 71.6556C134.651 71.6076 134.627 71.5493 134.627 71.4807V66.6256C134.627 66.557 134.651 66.4987 134.699 66.4507C134.747 66.4027 134.805 66.3787 134.874 66.3787H135.727C135.803 66.3787 135.861 66.4027 135.902 66.4507C135.95 66.4987 135.974 66.557 135.974 66.6256V71.4807C135.974 71.5493 135.95 71.6076 135.902 71.6556C135.861 71.7036 135.803 71.7276 135.727 71.7276H134.874ZM134.833 65.4941C134.757 65.4941 134.695 65.4735 134.647 65.4324C134.606 65.3844 134.586 65.3227 134.586 65.2472V64.5066C134.586 64.4381 134.606 64.3798 134.647 64.3318C134.695 64.2838 134.757 64.2598 134.833 64.2598H135.769C135.844 64.2598 135.906 64.2838 135.954 64.3318C136.002 64.3798 136.026 64.4381 136.026 64.5066V65.2472C136.026 65.3227 136.002 65.3844 135.954 65.4324C135.906 65.4735 135.844 65.4941 135.769 65.4941H134.833Z" fill="black" fill-opacity="0.65"/>
<path d="M131.941 71.7276C131.872 71.7276 131.814 71.7036 131.766 71.6556C131.718 71.6076 131.694 71.5493 131.694 71.4807V64.6712C131.694 64.6026 131.718 64.5443 131.766 64.4963C131.814 64.4483 131.872 64.4243 131.941 64.4243H132.794C132.863 64.4243 132.921 64.4483 132.969 64.4963C133.017 64.5443 133.041 64.6026 133.041 64.6712V71.4807C133.041 71.5493 133.017 71.6076 132.969 71.6556C132.921 71.7036 132.863 71.7276 132.794 71.7276H131.941Z" fill="black" fill-opacity="0.65"/>
<path d="M125.622 73.682C125.554 73.682 125.495 73.658 125.447 73.61C125.399 73.562 125.375 73.5037 125.375 73.4351V66.6256C125.375 66.557 125.399 66.4987 125.447 66.4507C125.495 66.4027 125.554 66.3787 125.622 66.3787H126.435C126.51 66.3787 126.569 66.4027 126.61 66.4507C126.658 66.4987 126.682 66.557 126.682 66.6256V67.0371C126.846 66.8176 127.062 66.6359 127.33 66.4919C127.597 66.3479 127.93 66.2759 128.328 66.2759C128.691 66.2759 129.007 66.3342 129.274 66.4507C129.541 66.5673 129.764 66.7353 129.943 66.9548C130.121 67.1674 130.258 67.4211 130.354 67.716C130.45 68.0108 130.505 68.3366 130.519 68.6932C130.525 68.8097 130.529 68.9297 130.529 69.0532C130.529 69.1766 130.525 69.3 130.519 69.4235C130.512 69.7664 130.46 70.0852 130.364 70.3801C130.268 70.6681 130.128 70.9218 129.943 71.1413C129.764 71.3539 129.541 71.5219 129.274 71.6453C129.007 71.7687 128.691 71.8305 128.328 71.8305C127.957 71.8305 127.642 71.7653 127.381 71.635C127.121 71.4979 126.908 71.3196 126.744 71.1001V73.4351C126.744 73.5037 126.72 73.562 126.672 73.61C126.63 73.658 126.572 73.682 126.497 73.682H125.622ZM127.947 70.7298C128.242 70.7298 128.472 70.6681 128.636 70.5447C128.801 70.4144 128.917 70.2464 128.986 70.0407C129.061 69.8349 129.106 69.6086 129.12 69.3618C129.133 69.156 129.133 68.9503 129.12 68.7446C129.106 68.4977 129.061 68.2714 128.986 68.0657C128.917 67.86 128.801 67.6954 128.636 67.5719C128.472 67.4417 128.242 67.3765 127.947 67.3765C127.666 67.3765 127.436 67.4417 127.258 67.5719C127.086 67.7022 126.96 67.8702 126.877 68.076C126.802 68.2748 126.757 68.4806 126.744 68.6932C126.737 68.8166 126.733 68.9469 126.733 69.084C126.733 69.2212 126.737 69.3549 126.744 69.4852C126.75 69.6909 126.798 69.8898 126.888 70.0818C126.977 70.2669 127.107 70.4212 127.278 70.5447C127.45 70.6681 127.673 70.7298 127.947 70.7298Z" fill="black" fill-opacity="0.65"/>
<path d="M119.304 73.682C119.235 73.682 119.177 73.658 119.129 73.61C119.081 73.562 119.057 73.5037 119.057 73.4351V66.6256C119.057 66.557 119.081 66.4987 119.129 66.4507C119.177 66.4027 119.235 66.3787 119.304 66.3787H120.117C120.192 66.3787 120.25 66.4027 120.291 66.4507C120.339 66.4987 120.363 66.557 120.363 66.6256V67.0371C120.528 66.8176 120.744 66.6359 121.012 66.4919C121.279 66.3479 121.612 66.2759 122.009 66.2759C122.373 66.2759 122.688 66.3342 122.956 66.4507C123.223 66.5673 123.446 66.7353 123.624 66.9548C123.803 67.1674 123.94 67.4211 124.036 67.716C124.132 68.0108 124.187 68.3366 124.2 68.6932C124.207 68.8097 124.211 68.9297 124.211 69.0532C124.211 69.1766 124.207 69.3 124.2 69.4235C124.193 69.7664 124.142 70.0852 124.046 70.3801C123.95 70.6681 123.809 70.9218 123.624 71.1413C123.446 71.3539 123.223 71.5219 122.956 71.6453C122.688 71.7687 122.373 71.8305 122.009 71.8305C121.639 71.8305 121.324 71.7653 121.063 71.635C120.802 71.4979 120.59 71.3196 120.425 71.1001V73.4351C120.425 73.5037 120.401 73.562 120.353 73.61C120.312 73.658 120.254 73.682 120.178 73.682H119.304ZM121.629 70.7298C121.924 70.7298 122.153 70.6681 122.318 70.5447C122.482 70.4144 122.599 70.2464 122.668 70.0407C122.743 69.8349 122.788 69.6086 122.801 69.3618C122.815 69.156 122.815 68.9503 122.801 68.7446C122.788 68.4977 122.743 68.2714 122.668 68.0657C122.599 67.86 122.482 67.6954 122.318 67.5719C122.153 67.4417 121.924 67.3765 121.629 67.3765C121.348 67.3765 121.118 67.4417 120.94 67.5719C120.768 67.7022 120.641 67.8702 120.559 68.076C120.483 68.2748 120.439 68.4806 120.425 68.6932C120.418 68.8166 120.415 68.9469 120.415 69.084C120.415 69.2212 120.418 69.3549 120.425 69.4852C120.432 69.6909 120.48 69.8898 120.569 70.0818C120.658 70.2669 120.789 70.4212 120.96 70.5447C121.132 70.6681 121.354 70.7298 121.629 70.7298Z" fill="black" fill-opacity="0.65"/>
<path d="M111.596 71.7276C111.541 71.7276 111.49 71.707 111.442 71.6659C111.4 71.6247 111.38 71.5733 111.38 71.5116C111.38 71.4842 111.387 71.4533 111.4 71.419L113.879 64.7844C113.9 64.7158 113.938 64.6575 113.993 64.6095C114.054 64.5547 114.137 64.5272 114.239 64.5272H115.361C115.464 64.5272 115.542 64.5547 115.597 64.6095C115.652 64.6575 115.693 64.7158 115.721 64.7844L118.2 71.419C118.207 71.4533 118.21 71.4842 118.21 71.5116C118.21 71.5733 118.189 71.6247 118.148 71.6659C118.107 71.707 118.059 71.7276 118.004 71.7276H117.109C117.013 71.7276 116.941 71.707 116.893 71.6659C116.852 71.6179 116.825 71.5733 116.811 71.5322L116.328 70.2772H113.273L112.789 71.5322C112.775 71.5733 112.745 71.6179 112.697 71.6659C112.655 71.707 112.587 71.7276 112.491 71.7276H111.596ZM113.633 69.0943H115.968L114.795 65.9159L113.633 69.0943Z" fill="black" fill-opacity="0.65"/>
<path d="M151.431 74.5799H147.286C146.959 74.5799 146.788 74.4441 146.788 74.2157C146.788 73.9811 146.959 73.8577 147.286 73.8577H148.879V62.4437H147.286C146.959 62.4437 146.788 62.3141 146.788 62.0795C146.788 61.8511 146.959 61.7277 147.286 61.7277H151.431C151.759 61.7277 151.929 61.8511 151.929 62.0795C151.929 62.3141 151.759 62.4437 151.431 62.4437H149.839V73.8577H151.431C151.759 73.8577 151.929 73.9811 151.929 74.2157C151.929 74.4441 151.759 74.5799 151.431 74.5799Z" fill="black"/>
<path d="M147.286 75.0083H151.431C151.645 75.0083 151.874 74.9653 152.06 74.8265C152.263 74.674 152.358 74.449 152.358 74.2157C152.358 73.9811 152.264 73.753 152.053 73.6011C151.866 73.4662 151.638 73.4293 151.431 73.4293H150.267V62.8721H151.431C151.641 62.8721 151.871 62.8322 152.058 62.6942C152.265 62.5407 152.358 62.3131 152.358 62.0795C152.358 61.844 152.261 61.6181 152.051 61.4688C151.865 61.3363 151.638 61.2993 151.431 61.2993H147.286C147.08 61.2993 146.853 61.3363 146.666 61.4688C146.456 61.6181 146.36 61.844 146.36 62.0795C146.36 62.3131 146.452 62.5407 146.66 62.6942C146.847 62.8322 147.076 62.8721 147.286 62.8721H148.45V73.4293H147.286C147.08 73.4293 146.851 73.4662 146.664 73.6011C146.453 73.753 146.36 73.9811 146.36 74.2157C146.36 74.449 146.454 74.674 146.658 74.8265C146.843 74.9653 147.072 75.0083 147.286 75.0083Z" stroke="white" stroke-opacity="0.8" stroke-width="0.856817"/>
</svg>