<!--
 Copyright 2023-2025 Solace Systems. All rights reserved.

 Licensed under the Apache License, Version 2.0 (the "License");
 you may not use this file except in compliance with the License.
 You may obtain a copy of the License at

     http://www.apache.org/licenses/LICENSE-2.0

 Unless required by applicable law or agreed to in writing, software
 distributed under the License is distributed on an "AS IS" BASIS,
 WITHOUT WARRANTIES OR CONDITIONS OF ANY KIND, either express or implied.
 See the License for the specific language governing permissions and
 limitations under the License.
-->
<svg width="125" height="130" viewBox="0 0 125 130" fill="none" xmlns="http://www.w3.org/2000/svg">
<g clip-path="url(#clip0_11019_120028)">
<circle cx="57.3949" cy="74.9004" r="53.4603" fill="#009193" fill-opacity="0.1"/>
<path fill-rule="evenodd" clip-rule="evenodd" d="M63.6799 6.85317C63.5788 7.09762 63.516 7.35925 63.4966 7.62923C63.466 8.05569 63.5454 8.47701 63.7202 8.85584C63.0834 8.83288 62.4437 8.82131 61.8012 8.82131C32.8956 8.82131 9.46289 32.254 9.46289 61.1597C9.46289 66.5989 10.2926 71.8443 11.8324 76.7763C11.6282 76.9877 11.4192 77.2053 11.2112 77.4238L9.25481 75.0514C8.08565 70.6172 7.46289 65.9612 7.46289 61.1597C7.46289 31.1494 31.791 6.82131 61.8012 6.82131C62.43 6.82131 63.0563 6.83199 63.6799 6.85317ZM13.0957 82.792C13.2461 82.5999 13.4835 82.3269 13.7776 82.0026C21.8329 100.537 40.3034 113.498 61.8012 113.498C76.0401 113.498 88.9509 107.812 98.3869 98.5868C98.4604 98.6129 98.5345 98.6391 98.6092 98.6654C99.0518 98.8215 99.5299 98.9881 100.009 99.1512L99.4242 100.367C89.6605 109.738 76.4035 115.498 61.8012 115.498C39.7486 115.498 20.7643 102.361 12.2469 83.4863C12.5737 83.3226 12.8647 83.0871 13.0957 82.792ZM104.154 95.205C111.652 85.8895 116.14 74.0486 116.14 61.1597C116.14 34.1979 96.5031 11.8226 70.7514 7.55489L69.7968 8.21515C70.1327 8.59387 70.4659 8.97502 70.7735 9.32954C70.8625 9.43212 70.9504 9.53364 71.0367 9.63355C95.5377 13.9956 114.14 35.4053 114.14 61.1597C114.14 73.8633 109.614 85.5099 102.086 94.5749C102.947 94.8626 103.683 95.0931 104.093 95.1897C104.113 95.1945 104.134 95.1997 104.154 95.205Z" fill="#6A6A6A"/>
<path d="M75.4082 13.2476C75.4082 13.2476 70.4987 9.63993 69.0034 8.77799L74.4059 2.86194" stroke="#6A6A6A" stroke-width="2" stroke-linecap="round" stroke-linejoin="round"/>
<path d="M15.7536 71.4077C15.7536 71.4077 12.573 76.604 11.8403 78.1667L5.48957 73.2826" stroke="#6A6A6A" stroke-width="2" stroke-linecap="round" stroke-linejoin="round"/>
<path d="M92.6424 97.5502C92.6424 97.5502 98.6936 98.2591 100.419 98.2692L98.648 106.083" stroke="#6A6A6A" stroke-width="2" stroke-linecap="round" stroke-linejoin="round"/>
<path d="M114.182 86.6162C127.739 55.8558 114.429 21.4107 83.6689 7.85364" stroke="#6A6A6A" stroke-linecap="round"/>
<path d="M10.5559 89.1285C27.3636 118.24 63.0176 127.853 92.1294 111.045" stroke="#6A6A6A" stroke-linecap="round"/>
<path d="M13.6162 57.9141C13.6162 34.0652 32.9495 14.7319 56.7983 14.7319" stroke="#6A6A6A" stroke-linecap="round"/>
<rect x="37.0132" y="61.5901" width="48.0856" height="11.7403" rx="3" fill="white" stroke="#6A6A6A" stroke-width="2"/>
<circle cx="43.5786" cy="67.4884" r="0.95998" fill="#00AD93" stroke="#00AD93" stroke-linecap="round" stroke-linejoin="round"/>
<path d="M49.0798 73.9731V61.32" stroke="#6A6A6A"/>
<rect x="90.8696" y="61.0497" width="48.0856" height="11.7403" rx="3" transform="rotate(-180 90.8696 61.0497)" fill="white" stroke="#6A6A6A" stroke-width="2"/>
<circle cx="84.3044" cy="55.1514" r="0.95998" transform="rotate(-180 84.3044 55.1514)" fill="white" stroke="#6A6A6A" stroke-linecap="round" stroke-linejoin="round"/>
<path d="M78.4043 61.5053V48.8521" stroke="#6A6A6A"/>
</g>
<defs>
<clipPath id="clip0_11019_120028">
<rect width="125" height="130" fill="white"/>
</clipPath>
</defs>
</svg>
