<?xml version="1.0" encoding="utf-8"?>
<!--
  Copyright 2023-2025 Solace Systems. All rights reserved.

  Licensed under the Apache License, Version 2.0 (the "License");
  you may not use this file except in compliance with the License.
  You may obtain a copy of the License at

      http://www.apache.org/licenses/LICENSE-2.0

  Unless required by applicable law or agreed to in writing, software
  distributed under the License is distributed on an "AS IS" BASIS,
  WITHOUT WARRANTIES OR CONDITIONS OF ANY KIND, either express or implied.
  See the License for the specific language governing permissions and
  limitations under the License.
-->
<svg width="136" height="136" viewBox="0 0 136 136" fill="none" xmlns="http://www.w3.org/2000/svg">
<g clip-path="url(#clip0_789_252288)">
<path d="M122 68C122 97.8234 97.8234 122 68 122C38.1766 122 14 97.8234 14 68C14 38.1766 38.1766 14 68 14C97.8234 14 122 38.1766 122 68Z" fill="#DBDFE2"/>
<path fill-rule="evenodd" clip-rule="evenodd" d="M94 102L42 102L42 101L94 101L94 102Z" fill="#6A6A6A"/>
<path fill-rule="evenodd" clip-rule="evenodd" d="M93 58.5L42 58.5L42 57.5L93 57.5L93 58.5Z" fill="#6A6A6A"/>
<path d="M8 45C8 43.8954 8.89543 43 10 43H42C43.1046 43 44 43.8954 44 45V126C44 127.105 43.1046 128 42 128H10C8.89543 128 8 127.105 8 126V45Z" fill="white"/>
<path fill-rule="evenodd" clip-rule="evenodd" d="M8 45C8 43.8954 8.89543 43 10 43H42C43.1046 43 44 43.8954 44 45V126C44 127.105 43.1046 128 42 128H10C8.89543 128 8 127.105 8 126V45ZM10 45H42V73.5L10 73.5V45ZM10 74.5V126H42V74.5L10 74.5Z" fill="#6A6A6A"/>
<path fill-rule="evenodd" clip-rule="evenodd" d="M29.5556 115.438H22.4444C21.0824 115.438 20 116.409 20 118.156C20 118.388 20.0222 118.604 20.0604 118.786C20.077 118.866 20.0953 118.932 20.1133 118.988H31.8867C31.9047 118.932 31.923 118.866 31.9396 118.786C31.9778 118.604 32 118.388 32 118.156C32 116.477 30.8922 115.438 29.5556 115.438ZM29.5556 113.438H22.4444C19.8667 113.438 18 115.419 18 118.156C18 119.572 18.5333 120.987 19.7778 120.987H32.2222C33.4667 120.987 34 119.572 34 118.156C34 115.514 32.1333 113.438 29.5556 113.438Z" fill="#6A6A6A"/>
<path fill-rule="evenodd" clip-rule="evenodd" d="M26 109.992C27.0288 109.992 28 109.021 28 107.992C28 106.963 27.0288 105.992 26 105.992C24.9712 105.992 24 106.963 24 107.992C24 109.021 24.9712 109.992 26 109.992ZM30 107.992C30 110.126 28.1333 111.992 26 111.992C23.8667 111.992 22 110.126 22 107.992C22 105.859 23.8667 103.992 26 103.992C28.1333 103.992 30 105.859 30 107.992Z" fill="#6A6A6A"/>
<path fill-rule="evenodd" clip-rule="evenodd" d="M29.5556 92.4453H22.4444C21.0824 92.4453 20 93.4172 20 95.1641C20 95.3963 20.0222 95.6117 20.0604 95.7939C20.077 95.8735 20.0953 95.9403 20.1133 95.9953H31.8867C31.9047 95.9403 31.923 95.8735 31.9396 95.7939C31.9778 95.6117 32 95.3963 32 95.1641C32 93.4844 30.8922 92.4453 29.5556 92.4453ZM29.5556 90.4453H22.4444C19.8667 90.4453 18 92.4272 18 95.1641C18 96.5797 18.5333 97.9953 19.7778 97.9953H32.2222C33.4667 97.9953 34 96.5797 34 95.1641C34 92.5216 32.1333 90.4453 29.5556 90.4453Z" fill="#6A6A6A"/>
<path fill-rule="evenodd" clip-rule="evenodd" d="M26 87C27.0288 87 28 86.0288 28 85C28 83.9712 27.0288 83 26 83C24.9712 83 24 83.9712 24 85C24 86.0288 24.9712 87 26 87ZM30 85C30 87.1333 28.1333 89 26 89C23.8667 89 22 87.1333 22 85C22 82.8667 23.8667 81 26 81C28.1333 81 30 82.8667 30 85Z" fill="#6A6A6A"/>
<path fill-rule="evenodd" clip-rule="evenodd" d="M30.7872 66.9953H36.2225C37.4669 66.9953 38.0002 65.5797 38.0002 64.1641C38.0002 61.5216 36.1336 59.4453 33.5558 59.4453H29.4377C30.0577 59.9921 30.5609 60.6718 30.9143 61.4453H33.5558C34.8924 61.4453 36.0002 62.4844 36.0002 64.1641C36.0002 64.3963 35.978 64.6117 35.9399 64.7939C35.9232 64.8735 35.9049 64.9403 35.8869 64.9953H31.4444C31.366 65.6305 31.1887 66.2836 30.866 66.8609C30.8407 66.9061 30.8145 66.951 30.7872 66.9953ZM35.8053 65.181L35.8064 65.1795C35.8057 65.1805 35.8053 65.181 35.8053 65.181Z" fill="#6A6A6A"/>
<path fill-rule="evenodd" clip-rule="evenodd" d="M25.5556 61.4453H18.4444C17.0824 61.4453 16 62.4172 16 64.1641C16 64.3963 16.0222 64.6117 16.0604 64.7939C16.077 64.8735 16.0953 64.9403 16.1133 64.9953H27.8867C27.9047 64.9403 27.923 64.8735 27.9396 64.7939C27.9778 64.6117 28 64.3963 28 64.1641C28 62.4844 26.8922 61.4453 25.5556 61.4453ZM25.5556 59.4453H18.4444C15.8667 59.4453 14 61.4272 14 64.1641C14 65.5797 14.5333 66.9953 15.7778 66.9953H28.2222C29.4667 66.9953 30 65.5797 30 64.1641C30 61.5216 28.1333 59.4453 25.5556 59.4453Z" fill="#6A6A6A"/>
<path fill-rule="evenodd" clip-rule="evenodd" d="M31 56C32.0288 56 33 55.0288 33 54C33 52.9712 32.0288 52 31 52C29.9712 52 29 52.9712 29 54C29 55.0288 29.9712 56 31 56ZM35 54C35 56.1333 33.1333 58 31 58C28.8667 58 27 56.1333 27 54C27 51.8667 28.8667 50 31 50C33.1333 50 35 51.8667 35 54Z" fill="#6A6A6A"/>
<path fill-rule="evenodd" clip-rule="evenodd" d="M22 56C23.0288 56 24 55.0288 24 54C24 52.9712 23.0288 52 22 52C20.9712 52 20 52.9712 20 54C20 55.0288 20.9712 56 22 56ZM26 54C26 56.1333 24.1333 58 22 58C19.8667 58 18 56.1333 18 54C18 51.8667 19.8667 50 22 50C24.1333 50 26 51.8667 26 54Z" fill="#6A6A6A"/>
<path d="M50 10C50 8.89543 50.8954 8 52 8H84C85.1046 8 86 8.89543 86 10V91C86 92.1046 85.1046 93 84 93H52C50.8954 93 50 92.1046 50 91V10Z" fill="white"/>
<path fill-rule="evenodd" clip-rule="evenodd" d="M50 10C50 8.89543 50.8954 8 52 8H84C85.1046 8 86 8.89543 86 10V91C86 92.1046 85.1046 93 84 93H52C50.8954 93 50 92.1046 50 91V10ZM52 10H84V38.5L52 38.5V10ZM52 39.5V91H84V39.5L52 39.5Z" fill="#6A6A6A"/>
<path fill-rule="evenodd" clip-rule="evenodd" d="M71.5556 80.4375H64.4444C63.0824 80.4375 62 81.4094 62 83.1562C62 83.3885 62.0222 83.6039 62.0604 83.7861C62.077 83.8656 62.0953 83.9325 62.1133 83.9875H73.8867C73.9047 83.9325 73.923 83.8656 73.9396 83.7861C73.9778 83.6039 74 83.3885 74 83.1562C74 81.4766 72.8922 80.4375 71.5556 80.4375ZM71.5556 78.4375H64.4444C61.8667 78.4375 60 80.4194 60 83.1562C60 84.5719 60.5333 85.9875 61.7778 85.9875H74.2222C75.4667 85.9875 76 84.5719 76 83.1562C76 80.5138 74.1333 78.4375 71.5556 78.4375Z" fill="#6A6A6A"/>
<path fill-rule="evenodd" clip-rule="evenodd" d="M68 74.9922C69.0288 74.9922 70 74.021 70 72.9922C70 71.9634 69.0288 70.9922 68 70.9922C66.9712 70.9922 66 71.9634 66 72.9922C66 74.021 66.9712 74.9922 68 74.9922ZM72 72.9922C72 75.1255 70.1333 76.9922 68 76.9922C65.8667 76.9922 64 75.1255 64 72.9922C64 70.8589 65.8667 68.9922 68 68.9922C70.1333 68.9922 72 70.8589 72 72.9922Z" fill="#6A6A6A"/>
<path fill-rule="evenodd" clip-rule="evenodd" d="M71.5556 57.4453H64.4444C63.0824 57.4453 62 58.4172 62 60.1641C62 60.3963 62.0222 60.6117 62.0604 60.7939C62.077 60.8735 62.0953 60.9403 62.1133 60.9953H73.8867C73.9047 60.9403 73.923 60.8735 73.9396 60.7939C73.9778 60.6117 74 60.3963 74 60.1641C74 58.4844 72.8922 57.4453 71.5556 57.4453ZM71.5556 55.4453H64.4444C61.8667 55.4453 60 57.4272 60 60.1641C60 61.5797 60.5333 62.9953 61.7778 62.9953H74.2222C75.4667 62.9953 76 61.5797 76 60.1641C76 57.5216 74.1333 55.4453 71.5556 55.4453Z" fill="#6A6A6A"/>
<path fill-rule="evenodd" clip-rule="evenodd" d="M68 52C69.0288 52 70 51.0288 70 50C70 48.9712 69.0288 48 68 48C66.9712 48 66 48.9712 66 50C66 51.0288 66.9712 52 68 52ZM72 50C72 52.1333 70.1333 54 68 54C65.8667 54 64 52.1333 64 50C64 47.8667 65.8667 46 68 46C70.1333 46 72 47.8667 72 50Z" fill="#6A6A6A"/>
<path fill-rule="evenodd" clip-rule="evenodd" d="M72.7872 31.9953H78.2225C79.4669 31.9953 80.0002 30.5797 80.0002 29.1641C80.0002 26.5216 78.1336 24.4453 75.5558 24.4453H71.4377C72.0577 24.9921 72.5609 25.6718 72.9143 26.4453H75.5558C76.8924 26.4453 78.0002 27.4844 78.0002 29.1641C78.0002 29.3963 77.978 29.6117 77.9399 29.7939C77.9232 29.8735 77.9049 29.9403 77.8869 29.9953H73.4444C73.366 30.6305 73.1887 31.2836 72.866 31.8609C72.8407 31.9061 72.8145 31.951 72.7872 31.9953ZM77.8053 30.181L77.8064 30.1795L77.8053 30.181Z" fill="#6A6A6A"/>
<path d="M60.4444 24.4453H67.5556C70.1333 24.4453 72 26.5216 72 29.1641C72 30.5797 71.4667 31.9953 70.2222 31.9953H57.7778C56.5333 31.9953 56 30.5797 56 29.1641C56 26.4272 57.8667 24.4453 60.4444 24.4453Z" fill="#00AD93"/>
<path fill-rule="evenodd" clip-rule="evenodd" d="M73 21C74.0288 21 75 20.0288 75 19C75 17.9712 74.0288 17 73 17C71.9712 17 71 17.9712 71 19C71 20.0288 71.9712 21 73 21ZM77 19C77 21.1333 75.1333 23 73 23C70.8667 23 69 21.1333 69 19C69 16.8667 70.8667 15 73 15C75.1333 15 77 16.8667 77 19Z" fill="#6A6A6A"/>
<path d="M64 23C66.1333 23 68 21.1333 68 19C68 16.8667 66.1333 15 64 15C61.8667 15 60 16.8667 60 19C60 21.1333 61.8667 23 64 23Z" fill="#00AD93"/>
<path d="M92 29C92 27.8954 92.8954 27 94 27H126C127.105 27 128 27.8954 128 29V110C128 111.105 127.105 112 126 112H94C92.8954 112 92 111.105 92 110V29Z" fill="white"/>
<path fill-rule="evenodd" clip-rule="evenodd" d="M92 29C92 27.8954 92.8954 27 94 27H126C127.105 27 128 27.8954 128 29V110C128 111.105 127.105 112 126 112H94C92.8954 112 92 111.105 92 110V29ZM94 29H126V57.5L94 57.5V29ZM94 58.5V110H126V58.5L94 58.5Z" fill="#6A6A6A"/>
<path fill-rule="evenodd" clip-rule="evenodd" d="M113.556 99.4375H106.444C105.082 99.4375 104 100.409 104 102.156C104 102.388 104.022 102.604 104.06 102.786C104.077 102.866 104.095 102.932 104.113 102.988H115.887C115.905 102.932 115.923 102.866 115.94 102.786C115.978 102.604 116 102.388 116 102.156C116 100.477 114.892 99.4375 113.556 99.4375ZM113.556 97.4375H106.444C103.867 97.4375 102 99.4194 102 102.156C102 103.572 102.533 104.987 103.778 104.987H116.222C117.467 104.987 118 103.572 118 102.156C118 99.5138 116.133 97.4375 113.556 97.4375Z" fill="#6A6A6A"/>
<path fill-rule="evenodd" clip-rule="evenodd" d="M110 93.9922C111.029 93.9922 112 93.021 112 91.9922C112 90.9634 111.029 89.9922 110 89.9922C108.971 89.9922 108 90.9634 108 91.9922C108 93.021 108.971 93.9922 110 93.9922ZM114 91.9922C114 94.1255 112.133 95.9922 110 95.9922C107.867 95.9922 106 94.1255 106 91.9922C106 89.8589 107.867 87.9922 110 87.9922C112.133 87.9922 114 89.8589 114 91.9922Z" fill="#6A6A6A"/>
<path fill-rule="evenodd" clip-rule="evenodd" d="M113.556 76.4453H106.444C105.082 76.4453 104 77.4172 104 79.1641C104 79.3963 104.022 79.6117 104.06 79.7939C104.077 79.8735 104.095 79.9403 104.113 79.9953H115.887C115.905 79.9403 115.923 79.8735 115.94 79.7939C115.978 79.6117 116 79.3963 116 79.1641C116 77.4844 114.892 76.4453 113.556 76.4453ZM113.556 74.4453H106.444C103.867 74.4453 102 76.4272 102 79.1641C102 80.5797 102.533 81.9953 103.778 81.9953H116.222C117.467 81.9953 118 80.5797 118 79.1641C118 76.5216 116.133 74.4453 113.556 74.4453Z" fill="#6A6A6A"/>
<path fill-rule="evenodd" clip-rule="evenodd" d="M110 71C111.029 71 112 70.0288 112 69C112 67.9712 111.029 67 110 67C108.971 67 108 67.9712 108 69C108 70.0288 108.971 71 110 71ZM114 69C114 71.1333 112.133 73 110 73C107.867 73 106 71.1333 106 69C106 66.8667 107.867 65 110 65C112.133 65 114 66.8667 114 69Z" fill="#6A6A6A"/>
<path fill-rule="evenodd" clip-rule="evenodd" d="M114.787 50.9953H120.222C121.467 50.9953 122 49.5797 122 48.1641C122 45.5216 120.134 43.4453 117.556 43.4453H113.438C114.058 43.9921 114.561 44.6718 114.914 45.4453H117.556C118.892 45.4453 120 46.4844 120 48.1641C120 48.3963 119.978 48.6117 119.94 48.7939C119.923 48.8735 119.905 48.9403 119.887 48.9953H115.444C115.366 49.6305 115.189 50.2836 114.866 50.8609C114.841 50.9061 114.814 50.951 114.787 50.9953ZM119.805 49.181L119.806 49.1795C119.806 49.1805 119.805 49.181 119.805 49.181Z" fill="#6A6A6A"/>
<path fill-rule="evenodd" clip-rule="evenodd" d="M109.556 45.4453H102.444C101.082 45.4453 100 46.4172 100 48.1641C100 48.3963 100.022 48.6117 100.06 48.7939C100.077 48.8735 100.095 48.9403 100.113 48.9953H111.887C111.905 48.9403 111.923 48.8735 111.94 48.7939C111.978 48.6117 112 48.3963 112 48.1641C112 46.4844 110.892 45.4453 109.556 45.4453ZM109.556 43.4453H102.444C99.8667 43.4453 98 45.4272 98 48.1641C98 49.5797 98.5333 50.9953 99.7778 50.9953H112.222C113.467 50.9953 114 49.5797 114 48.1641C114 45.5216 112.133 43.4453 109.556 43.4453Z" fill="#6A6A6A"/>
<path fill-rule="evenodd" clip-rule="evenodd" d="M115 40C116.029 40 117 39.0288 117 38C117 36.9712 116.029 36 115 36C113.971 36 113 36.9712 113 38C113 39.0288 113.971 40 115 40ZM119 38C119 40.1333 117.133 42 115 42C112.867 42 111 40.1333 111 38C111 35.8667 112.867 34 115 34C117.133 34 119 35.8667 119 38Z" fill="#6A6A6A"/>
<path fill-rule="evenodd" clip-rule="evenodd" d="M106 40C107.029 40 108 39.0288 108 38C108 36.9712 107.029 36 106 36C104.971 36 104 36.9712 104 38C104 39.0288 104.971 40 106 40ZM110 38C110 40.1333 108.133 42 106 42C103.867 42 102 40.1333 102 38C102 35.8667 103.867 34 106 34C108.133 34 110 35.8667 110 38Z" fill="#6A6A6A"/>
</g>
<defs>
<clipPath id="clip0_789_252288">
<rect width="136" height="136" fill="white"/>
</clipPath>
</defs>
</svg>