<svg width="429" height="105" viewBox="0 0 429 105" fill="none" xmlns="http://www.w3.org/2000/svg">
<g clip-path="url(#clip0_121_3942)">
<path d="M428.867 100.628V4.62793C428.867 2.41879 427.076 0.62793 424.867 0.62793L4.86719 0.62793C2.65805 0.62793 0.867188 2.41879 0.867188 4.62793V100.628C0.867188 102.837 2.65805 104.628 4.86719 104.628L424.867 104.628C427.076 104.628 428.867 102.837 428.867 100.628Z" fill="#E5F4F4"/>
<path d="M428.367 100.628V4.62793C428.367 2.69493 426.8 1.12793 424.867 1.12793L4.86719 1.12793C2.9342 1.12793 1.36719 2.69493 1.36719 4.62793V100.628C1.36719 102.561 2.9342 104.128 4.86719 104.128L424.867 104.128C426.8 104.128 428.367 102.561 428.367 100.628Z" stroke="#E6EBF1"/>
<mask id="mask0_121_3942" style="mask-type:alpha" maskUnits="userSpaceOnUse" x="0" y="0" width="429" height="105">
<path d="M4.86719 104.628L424.867 104.628C427.076 104.628 428.867 102.837 428.867 100.628V4.62792C428.867 2.41879 427.076 0.627922 424.867 0.627922L4.86719 0.627922C2.65805 0.627922 0.867188 2.41879 0.867188 4.62792V100.628C0.867188 102.837 2.65805 104.628 4.86719 104.628Z" fill="white"/>
</mask>
<g mask="url(#mask0_121_3942)">
<path opacity="0.1" d="M36.882 70.5801C-8.19653 70.5801 -44.7399 109.15 -44.7399 156.729C-44.7399 204.308 -8.19653 242.878 36.882 242.878C81.9605 242.878 118.504 204.308 118.504 156.729C118.504 109.15 81.9605 70.5801 36.882 70.5801Z" fill="#4D7689"/>
<path opacity="0.1" d="M159.365 76.3068C27.8298 76.3068 -78.8008 181.278 -78.8008 310.767C-78.8008 440.255 27.8298 545.227 159.365 545.227C290.901 545.227 397.531 440.255 397.531 310.767C397.531 181.278 290.901 76.3068 159.365 76.3068Z" fill="#4D7689"/>
</g>
</g>
<defs>
<clipPath id="clip0_121_3942">
<rect width="429" height="105" fill="white"/>
</clipPath>
</defs>
</svg>
