<svg width="40" height="40" viewBox="0 0 40 40" fill="none" xmlns="http://www.w3.org/2000/svg">
<path fill-rule="evenodd" clip-rule="evenodd" d="M36 20C36 28.8366 28.8366 36 20 36C11.1634 36 4 28.8366 4 20C4 11.1634 11.1634 4 20 4C28.8366 4 36 11.1634 36 20ZM29.6168 15.7899C29.8325 15.5593 29.8325 15.201 29.6168 14.9704L28.2127 13.4687C27.9756 13.2151 27.5733 13.2151 27.3362 13.4687L17.2633 24.2413L12.6626 19.3275C12.4253 19.0741 12.0231 19.0744 11.7861 19.3281L10.3829 20.8308C10.1674 21.0616 10.1676 21.4199 10.3834 21.6504L16.8265 28.5319C17.0637 28.7852 17.4658 28.7851 17.7028 28.5316L29.6168 15.7899Z" fill="black"/>
</svg>
