<!--
 Copyright 2023-2025 Solace Systems. All rights reserved.

 Licensed under the Apache License, Version 2.0 (the "License");
 you may not use this file except in compliance with the License.
 You may obtain a copy of the License at

     http://www.apache.org/licenses/LICENSE-2.0

 Unless required by applicable law or agreed to in writing, software
 distributed under the License is distributed on an "AS IS" BASIS,
 WITHOUT WARRANTIES OR CONDITIONS OF ANY KIND, either express or implied.
 See the License for the specific language governing permissions and
 limitations under the License.
-->
<svg width="40" height="40" viewBox="0 0 40 40" fill="none" xmlns="http://www.w3.org/2000/svg">
<path fill-rule="evenodd" clip-rule="evenodd" d="M20 36C28.8366 36 36 28.8366 36 20C36 11.1634 28.8366 4 20 4C11.1634 4 4 11.1634 4 20C4 28.8366 11.1634 36 20 36ZM12.0932 14.4088C11.8589 14.1745 11.8589 13.7946 12.0932 13.5602L13.5657 12.0877C13.8 11.8533 14.1799 11.8533 14.4142 12.0877L20.0828 17.7565L25.7513 12.0877C25.9856 11.8533 26.3655 11.8533 26.5998 12.0877L28.0723 13.5602C28.3066 13.7946 28.3066 14.1745 28.0723 14.4088L22.4038 20.0776L28.0721 25.7462C28.3064 25.9805 28.3064 26.3604 28.0721 26.5947L26.5996 28.0673C26.3653 28.3016 25.9854 28.3016 25.7511 28.0673L20.0828 22.3987L14.4144 28.0673C14.1801 28.3016 13.8002 28.3016 13.5659 28.0673L12.0934 26.5947C11.8591 26.3604 11.8591 25.9805 12.0934 25.7462L17.7617 20.0776L12.0932 14.4088Z" fill="black"/>
</svg>
