<svg width="53" height="40" viewBox="0 0 53 40" fill="none" xmlns="http://www.w3.org/2000/svg">
<path d="M45.9596 15.3726C44.9006 15.073 44.5798 14.6403 44.5477 13.5417C44.1305 4.88655 36.301 -1.37181 28.1186 0.259356C23.6904 1.15816 20.5458 3.78801 18.2996 7.81599C18.075 7.81599 18.0429 7.84928 17.9787 7.81599C12.2671 5.51904 8.57692 7.34995 6.77999 13.3087C6.65164 13.7082 6.20241 14.1076 5.84944 14.3074C1.3571 16.7375 -0.7928 21.3314 0.266108 26.2582C0.875781 29.0878 2.48019 31.418 4.72635 32.8827V30.153C3.37865 28.888 2.4481 27.1237 2.12722 25.0265C1.54963 21.2648 3.89206 17.3034 7.5501 15.9385C7.96725 15.7721 8.35231 15.6389 8.80154 15.4725C8.67319 12.6429 9.60374 10.4458 12.2029 9.34729C14.8983 8.21546 16.984 9.48045 18.9414 11.5777C21.8614 4.22077 26.7388 0.658826 34.4399 2.82262C37.3279 3.62156 39.4457 5.68549 40.9538 8.31533C42.494 10.9785 42.6866 13.9412 42.3657 17.0038C42.8791 17.0371 43.2642 17.0704 43.6492 17.1037C47.7565 17.2701 50.869 20.6656 50.8049 24.9266C50.7407 28.9879 47.564 32.2169 43.4888 32.2169C38.7076 32.2169 33.8944 32.2169 29.1133 32.2169V34.4806C33.9586 34.4806 38.8039 34.4473 43.6813 34.414C48.4303 34.3807 52.2809 30.6524 52.7943 25.9253C53.3719 21.0318 50.6123 16.6709 45.9596 15.3726Z" fill="black"/>
<path d="M14.0743 20.251V25.0259H22.0648V33.0164H26.8721V20.251H14.0743Z" fill="black"/>
<path d="M23.6886 10.6365V15.4438H31.6791V23.4018H36.4864V10.6365H23.6886Z" fill="black"/>
<path d="M17.2573 39.9999H7.12305V29.8331H17.2573V39.9999Z" fill="black"/>
</svg>
