<?xml version="1.0" encoding="utf-8"?>
<!-- Generator: Adobe Illustrator 25.4.1, SVG Export Plug-In . SVG Version: 6.00 Build 0)  -->
<svg version="1.1" id="Layer_1" xmlns="http://www.w3.org/2000/svg" xmlns:xlink="http://www.w3.org/1999/xlink" x="0px" y="0px"
	 viewBox="0 0 24 24" style="enable-background:new 0 0 24 24;" xml:space="preserve">
<path d="M12,6c3.314,0,6,2.686,6,6s-2.686,6-6,6s-6-2.686-6-6S8.686,6,12,6z M12,2C6.48,2,2,6.48,2,12s4.48,10,10,10s10-4.48,10-10
	S17.52,2,12,2z M12,20c-4.42,0-8-3.58-8-8s3.58-8,8-8s8,3.58,8,8S16.42,20,12,20z"/>
</svg>
