<?xml version="1.0" encoding="utf-8"?>
<!-- Generator: Adobe Illustrator 25.4.1, SVG Export Plug-In . SVG Version: 6.00 Build 0)  -->
<svg version="1.1" id="Layer_1" xmlns="http://www.w3.org/2000/svg" xmlns:xlink="http://www.w3.org/1999/xlink" x="0px" y="0px"
	 viewBox="0 0 16 16" style="enable-background:new 0 0 16 16;" xml:space="preserve">
<style type="text/css">
	.st0{fill-rule:evenodd;clip-rule:evenodd;}
</style>
<path class="st0" d="M8,14.629c3.661,0,6.629-2.968,6.629-6.629c0-3.661-2.968-6.629-6.629-6.629C4.339,1.371,1.371,4.339,1.371,8
	C1.371,11.661,4.339,14.629,8,14.629z M8,16c4.418,0,8-3.582,8-8s-3.582-8-8-8S0,3.582,0,8S3.582,16,8,16z M13,8
	c0,2.761-2.239,5-5,5c-2.761,0-5-2.239-5-5c0-2.761,2.239-5,5-5C10.761,3,13,5.239,13,8z"/>
</svg>
