<?xml version="1.0" encoding="utf-8"?>
<!-- Generator: Adobe Illustrator 25.4.1, SVG Export Plug-In . SVG Version: 6.00 Build 0)  -->
<svg version="1.1" id="Layer_1" xmlns="http://www.w3.org/2000/svg" xmlns:xlink="http://www.w3.org/1999/xlink" x="0px" y="0px"
	 viewBox="0 0 40 40" style="enable-background:new 0 0 40 40;" xml:space="preserve">
<path d="M20,2.5C10.336,2.5,2.5,10.336,2.5,20c0,9.664,7.836,17.5,17.5,17.5c9.664,0,17.5-7.836,17.5-17.5
	C37.5,10.336,29.664,2.5,20,2.5z M20,34.5c-8.004,0-14.5-6.496-14.5-14.5S11.996,5.5,20,5.5S34.5,11.996,34.5,20
	S28.004,34.5,20,34.5z M20,9.5c5.799,0,10.5,4.701,10.5,10.5S25.799,30.5,20,30.5S9.5,25.799,9.5,20S14.201,9.5,20,9.5z"/>
</svg>
