<?xml version="1.0" encoding="utf-8"?>
<!-- Generator: Adobe Illustrator 25.4.1, SVG Export Plug-In . SVG Version: 6.00 Build 0)  -->
<svg version="1.1" id="Layer_3" xmlns="http://www.w3.org/2000/svg" xmlns:xlink="http://www.w3.org/1999/xlink" x="0px" y="0px"
	 viewBox="0 0 16 16" style="enable-background:new 0 0 16 16;" xml:space="preserve">
<path d="M12.885,3.599l-0.486-0.486c-0.152-0.152-0.398-0.152-0.55,0l-3.85,3.852L4.149,3.114c-0.152-0.152-0.398-0.152-0.55,0
	L3.114,3.599c-0.152,0.152-0.152,0.398,0,0.55L6.964,8l-3.85,3.85c-0.152,0.152-0.152,0.398,0,0.55L3.6,12.886
	c0.152,0.152,0.398,0.152,0.55,0l3.849-3.851l3.851,3.851c0.152,0.152,0.398,0.152,0.55,0l0.486-0.486
	c0.152-0.152,0.152-0.398,0-0.55L9.034,8l3.851-3.851C13.037,3.997,13.037,3.751,12.885,3.599z"/>
</svg>
