<?xml version="1.0" encoding="utf-8"?>
<!-- Generator: Adobe Illustrator 25.4.1, SVG Export Plug-In . SVG Version: 6.00 Build 0)  -->
<svg version="1.1" id="Layer_1" xmlns="http://www.w3.org/2000/svg" xmlns:xlink="http://www.w3.org/1999/xlink" x="0px" y="0px"
	 viewBox="0 0 16 16" style="enable-background:new 0 0 16 16;" xml:space="preserve">
<path d="M7.993,1C4.129,1,1,4.136,1,8s3.129,7,6.993,7C11.864,15,15,11.864,15,8S11.864,1,7.993,1z M8,13.6
	c-3.094,0-5.6-2.506-5.6-5.6S4.906,2.4,8,2.4s5.6,2.506,5.6,5.6S11.094,13.6,8,13.6z M8.352,11.75H7.648
	c-0.22,0-0.398-0.184-0.398-0.411v-0.678c0-0.227,0.178-0.411,0.398-0.411h0.704c0.22,0,0.398,0.184,0.398,0.411v0.678
	C8.75,11.566,8.572,11.75,8.352,11.75z M7.6,4h0.8c0.258,0,0.35,0.142,0.35,0.4v4.2C8.75,8.858,8.658,9,8.4,9H7.6
	C7.342,9,7.25,8.858,7.25,8.6l0-4.2C7.25,4.142,7.342,4,7.6,4z"/>
</svg>
