<?xml version="1.0" encoding="utf-8"?>
<!-- Generator: Adobe Illustrator 25.4.1, SVG Export Plug-In . SVG Version: 6.00 Build 0)  -->
<svg version="1.1" id="Layer_3" xmlns="http://www.w3.org/2000/svg" xmlns:xlink="http://www.w3.org/1999/xlink" x="0px" y="0px"
	 viewBox="0 0 16 16" style="enable-background:new 0 0 16 16;" xml:space="preserve">
<style type="text/css">
	.st0{fill-rule:evenodd;clip-rule:evenodd;}
</style>
<path class="st0" d="M2.6,3H8v1.5H3.5v8h8V8H13v5.4c0,0.39-0.21,0.6-0.6,0.6l-9.8,0C2.21,14,2,13.79,2,13.4V3.667
	C2,3.277,2.21,3,2.6,3z M9.4,2C9.18,2,9,2.18,9,2.4v0.7c0,0.22,0.18,0.4,0.4,0.4h2.04L8.12,6.82c-0.16,0.16-0.16,0.41,0,0.57
	l0.49,0.49c0.16,0.16,0.41,0.16,0.57,0l3.32-3.32V6.6c0,0.22,0.18,0.4,0.4,0.4h0.7C13.82,7,14,6.82,14,6.6V2H9.4z M12.44,3.5h0.06
	v0.06L12.44,3.5z"/>
</svg>
